<svg xmlns="http://www.w3.org/2000/svg" xmlns:xlink="http://www.w3.org/1999/xlink" width="716.514" height="432.531" viewBox="0 0 716.514 432.531">
  <defs>
    <linearGradient id="linear-gradient" x1="-1.792" y1="8.476" x2="-0.637" y2="8.476" gradientUnits="objectBoundingBox">
      <stop offset="0" stop-color="#311b61"/>
      <stop offset="0.203" stop-color="#290e52"/>
      <stop offset="0.495" stop-color="#200041"/>
      <stop offset="1" stop-color="#0f001f"/>
    </linearGradient>
  </defs>
  <g id="Grupo_767" data-name="Grupo 767" transform="translate(-963.197 1901.767)">
    <g id="Grupo_760" data-name="Grupo 760" transform="translate(1108.526 -1901.767)">
      <path id="Trazado_1592" data-name="Trazado 1592" d="M1547.368-1779.239l17.779-44.648-72.164-3.783-.141-.087-59.724-37.409-110.007,11.583,15.666-42.876-114.418,11.405-.316-1.947,117.617-11.929-15.728,43.064,107.656-11.336,60.161,37.685,73.906,4.184-17.529,43.831Z" transform="translate(-1078.47 1902.094)" fill="#4e01d2"/>
      <path id="Trazado_1593" data-name="Trazado 1593" d="M1536.477-1828.981a10.744,10.744,0,0,1-9.724-.018c-2.694-1.555-2.708-4.068-.031-5.614a10.746,10.746,0,0,1,9.725.018C1539.141-1833.04,1539.154-1830.527,1536.477-1828.981Z" transform="translate(-1043.825 1909.372)" fill="#4e01d2"/>
      <path id="Trazado_1594" data-name="Trazado 1594" d="M1471.409-1832.8a10.75,10.75,0,0,1-9.725-.017c-2.693-1.556-2.707-4.069-.03-5.614a10.747,10.747,0,0,1,9.724.017C1474.073-1836.855,1474.086-1834.342,1471.409-1832.8Z" transform="translate(-1051.322 1908.932)" fill="#4e01d2"/>
      <path id="Trazado_1595" data-name="Trazado 1595" d="M1417.21-1866.4a10.746,10.746,0,0,1-9.725-.018c-2.693-1.555-2.707-4.068-.03-5.614a10.743,10.743,0,0,1,9.724.018C1419.874-1870.46,1419.887-1867.947,1417.21-1866.4Z" transform="translate(-1057.567 1905.06)" fill="#4e01d2"/>
      <path id="Trazado_1596" data-name="Trazado 1596" d="M1521.477-1789.481a10.743,10.743,0,0,1-9.724-.018c-2.694-1.555-2.708-4.068-.031-5.614a10.745,10.745,0,0,1,9.725.018C1524.141-1793.54,1524.154-1791.027,1521.477-1789.481Z" transform="translate(-1045.553 1913.923)" fill="#4e01d2"/>
      <path id="Trazado_1597" data-name="Trazado 1597" d="M1320.061-1856.2a10.75,10.75,0,0,1-9.725-.018c-2.693-1.556-2.707-4.068-.03-5.614a10.742,10.742,0,0,1,9.724.018C1322.724-1860.255,1322.738-1857.741,1320.061-1856.2Z" transform="translate(-1068.761 1906.236)" fill="#4e01d2"/>
      <path id="Trazado_1598" data-name="Trazado 1598" d="M1333.977-1894.981a10.742,10.742,0,0,1-9.724-.018c-2.694-1.554-2.708-4.068-.031-5.614a10.745,10.745,0,0,1,9.725.018C1336.641-1899.04,1336.654-1896.527,1333.977-1894.981Z" transform="translate(-1067.158 1901.767)" fill="#4e01d2"/>
      <path id="Trazado_1599" data-name="Trazado 1599" d="M1229.2-1884.465a10.746,10.746,0,0,1-9.725-.018c-2.693-1.555-2.707-4.068-.03-5.614a10.744,10.744,0,0,1,9.724.018C1231.861-1888.524,1231.874-1886.011,1229.2-1884.465Z" transform="translate(-1079.231 1902.979)" fill="#4e01d2"/>
      <path id="Trazado_1600" data-name="Trazado 1600" d="M1365.427-1794.947l-55.842,7.672,36.424-48.815-127.957,30.027-10-53.8-107.809,38.882.015-1.973,108.322-38.878.695.259,10.316,53.113,130.806-30.213-37.13,49.759,55.133-7.738Z" transform="translate(-1092.735 1906.369)" fill="#4e01d2"/>
      <ellipse id="Elipse_144" data-name="Elipse 144" cx="3.97" cy="6.876" rx="3.97" ry="6.876" transform="translate(267.127 114.592) rotate(-89.689)" fill="#4e01d2"/>
      <path id="Trazado_1601" data-name="Trazado 1601" d="M1295.477-1792.647a10.75,10.75,0,0,1-9.724-.018c-2.694-1.556-2.708-4.069-.031-5.614a10.75,10.75,0,0,1,9.725.017C1298.141-1796.706,1298.154-1794.193,1295.477-1792.647Z" transform="translate(-1071.594 1913.558)" fill="#4e01d2"/>
      <path id="Trazado_1602" data-name="Trazado 1602" d="M1328.068-1836.742a10.746,10.746,0,0,1-9.724-.017c-2.693-1.556-2.708-4.069-.03-5.615a10.75,10.75,0,0,1,9.724.018C1330.731-1840.8,1330.746-1838.287,1328.068-1836.742Z" transform="translate(-1067.839 1908.477)" fill="#4e01d2"/>
      <path id="Trazado_1603" data-name="Trazado 1603" d="M1211.977-1809.647a10.75,10.75,0,0,1-9.724-.018c-2.694-1.556-2.708-4.069-.031-5.614a10.749,10.749,0,0,1,9.725.017C1214.641-1813.706,1214.654-1811.193,1211.977-1809.647Z" transform="translate(-1081.215 1911.599)" fill="#4e01d2"/>
      <ellipse id="Elipse_145" data-name="Elipse 145" cx="3.97" cy="6.876" rx="3.97" ry="6.876" transform="translate(108.88 49.026) rotate(-89.689)" fill="#4e01d2"/>
      <path id="Trazado_1604" data-name="Trazado 1604" d="M1105.264-1823.19a10.75,10.75,0,0,1-9.724-.018c-2.694-1.556-2.708-4.07-.031-5.614a10.75,10.75,0,0,1,9.725.017C1107.927-1827.249,1107.941-1824.735,1105.264-1823.19Z" transform="translate(-1093.511 1910.039)" fill="#4e01d2"/>
    </g>
    <g id="Grupo_761" data-name="Grupo 761" transform="translate(963.197 -1616.444)" style="isolation: isolate">
      <path id="Trazado_1605" data-name="Trazado 1605" d="M1009.5-1610.06l-19.778-11.419,39.309-22.7,19.778,11.419Z" transform="translate(-960.141 1646.125)" fill="#d0d7de"/>
      <path id="Trazado_1606" data-name="Trazado 1606" d="M1177.975-1513.766l-19.778-11.419,22.93-13.239L1200.905-1527Z" transform="translate(-940.728 1658.31)" fill="#d0d7de"/>
      <path id="Trazado_1607" data-name="Trazado 1607" d="M982.975-1627.957,963.2-1639.376l12.336-6.548L995.31-1634.5Z" transform="translate(-963.197 1645.923)" fill="#d0d7de"/>
      <path id="Trazado_1608" data-name="Trazado 1608" d="M1037.576-1592.355l-19.778-11.419,62.71-37.147,19.778,11.419Z" transform="translate(-956.905 1646.5)" fill="#d0d7de"/>
      <path id="Trazado_1609" data-name="Trazado 1609" d="M1065.656-1573.728l-19.778-11.419,104.825-60.521,19.778,11.419Z" transform="translate(-953.67 1645.953)" fill="#d0d7de"/>
      <path id="Trazado_1610" data-name="Trazado 1610" d="M1093.735-1558.96l-19.778-11.419,79.818-46.542,19.778,11.419Z" transform="translate(-950.434 1649.265)" fill="#d0d7de"/>
      <path id="Trazado_1611" data-name="Trazado 1611" d="M1121.815-1542.444l-19.778-11.419,85.716-49.488,19.778,11.419Z" transform="translate(-947.199 1650.829)" fill="#d0d7de"/>
      <path id="Trazado_1612" data-name="Trazado 1612" d="M1149.895-1527.5l-19.778-11.419,64.423-37.195,19.778,11.419Z" transform="translate(-943.963 1653.967)" fill="#d0d7de"/>
    </g>
    <path id="Trazado_1613" data-name="Trazado 1613" d="M1324.623-1754.551l10.911,6.307-10.913,6.3-10.912-6.307Z" transform="translate(40.388 16.963)" fill="#d1ebff"/>
    <path id="Trazado_1614" data-name="Trazado 1614" d="M1334.416-1677.617l-10.918,6.3V-1742.6l10.918-6.3Z" transform="translate(41.515 17.614)" fill="#00e9d3"/>
    <path id="Trazado_1615" data-name="Trazado 1615" d="M1324.628-1671.313l-10.918-6.3V-1748.9l10.918,6.3Z" transform="translate(40.388 17.614)" fill="#aae0d7"/>
    <path id="Trazado_1616" data-name="Trazado 1616" d="M1308.561-1733.832l10.912,6.307-10.913,6.3-10.912-6.308Z" transform="translate(38.537 19.35)" fill="#d1ebff"/>
    <path id="Trazado_1617" data-name="Trazado 1617" d="M1318.354-1670.107l-10.918,6.3v-58.073l10.918-6.3Z" transform="translate(39.665 20.002)" fill="#00e9d3"/>
    <path id="Trazado_1618" data-name="Trazado 1618" d="M1308.566-1663.8l-10.918-6.3v-58.073l10.918,6.3Z" transform="translate(38.537 20.002)" fill="#aae0d7"/>
    <path id="Trazado_1619" data-name="Trazado 1619" d="M1292.773-1710.071l10.911,6.308-10.913,6.3-10.912-6.307Z" transform="translate(36.718 22.088)" fill="#d1ebff"/>
    <path id="Trazado_1620" data-name="Trazado 1620" d="M1302.566-1662.763l-10.918,6.3v-41.656l10.918-6.3Z" transform="translate(37.846 22.74)" fill="#00e9d3"/>
    <path id="Trazado_1621" data-name="Trazado 1621" d="M1292.778-1656.459l-10.918-6.3v-41.656l10.918,6.3Z" transform="translate(36.718 22.74)" fill="#aae0d7"/>
    <path id="Trazado_1622" data-name="Trazado 1622" d="M1276.635-1684.843l10.911,6.307-10.913,6.3-10.912-6.307Z" transform="translate(34.858 24.995)" fill="#d1ebff"/>
    <path id="Trazado_1623" data-name="Trazado 1623" d="M1286.427-1655.588l-10.918,6.3v-23.6l10.918-6.3Z" transform="translate(35.986 25.646)" fill="#00e9d3"/>
    <path id="Trazado_1624" data-name="Trazado 1624" d="M1276.64-1649.284l-10.918-6.3v-23.6l10.918,6.3Z" transform="translate(34.858 25.646)" fill="#aae0d7"/>
    <g id="Grupo_762" data-name="Grupo 762" transform="translate(1294.445 -1744.401)">
      <path id="Trazado_1625" data-name="Trazado 1625" d="M1260.779-1657.154a.558.558,0,0,1-.558-.558v-2.23a.557.557,0,0,1,.558-.558.556.556,0,0,1,.558.558v2.23A.557.557,0,0,1,1260.779-1657.154Zm0-5.576a.558.558,0,0,1-.558-.558v-2.23a.557.557,0,0,1,.558-.558.556.556,0,0,1,.558.558v2.23A.557.557,0,0,1,1260.779-1662.73Zm0-5.576a.558.558,0,0,1-.558-.558v-2.23a.557.557,0,0,1,.558-.558.556.556,0,0,1,.558.558v2.23A.557.557,0,0,1,1260.779-1668.306Zm1.215-4.892a.558.558,0,0,1-.479-.269.558.558,0,0,1,.188-.766l1.909-1.154a.555.555,0,0,1,.765.188.556.556,0,0,1-.188.765l-1.908,1.155A.564.564,0,0,1,1261.993-1673.2Zm4.772-2.885a.557.557,0,0,1-.478-.269.558.558,0,0,1,.188-.766l1.909-1.154a.556.556,0,0,1,.765.189.556.556,0,0,1-.189.765l-1.908,1.155A.567.567,0,0,1,1266.765-1676.084Zm4.771-2.886a.554.554,0,0,1-.477-.269.557.557,0,0,1,.188-.766l1.908-1.154a.558.558,0,0,1,.765.189.557.557,0,0,1-.187.766l-1.909,1.154A.553.553,0,0,1,1271.536-1678.97Zm4.771-2.885a.557.557,0,0,1-.477-.269.558.558,0,0,1,.188-.766l1.908-1.154a.558.558,0,0,1,.766.188.558.558,0,0,1-.189.766l-1.909,1.154A.554.554,0,0,1,1276.307-1681.855Zm2.47-4.183a.558.558,0,0,1-.558-.557v-2.23a.558.558,0,0,1,.558-.558.558.558,0,0,1,.558.558v2.23A.558.558,0,0,1,1278.777-1686.038Zm0-5.576a.558.558,0,0,1-.558-.558v-2.23a.558.558,0,0,1,.558-.558.558.558,0,0,1,.558.558v2.23A.558.558,0,0,1,1278.777-1691.614Zm0-5.576a.558.558,0,0,1-.558-.558v-2.23a.558.558,0,0,1,.558-.557.558.558,0,0,1,.558.557v2.23A.558.558,0,0,1,1278.777-1697.191Zm1.834-4.566a.555.555,0,0,1-.472-.26.555.555,0,0,1,.174-.768l1.886-1.191a.557.557,0,0,1,.77.174.559.559,0,0,1-.174.77l-1.887,1.19A.545.545,0,0,1,1280.612-1701.756Zm4.715-2.975a.556.556,0,0,1-.472-.26.556.556,0,0,1,.174-.768l1.886-1.191a.557.557,0,0,1,.77.174.559.559,0,0,1-.174.77l-1.887,1.19A.544.544,0,0,1,1285.327-1704.732Zm4.716-2.975a.56.56,0,0,1-.473-.26.559.559,0,0,1,.174-.769l1.887-1.19a.556.556,0,0,1,.768.174.556.556,0,0,1-.174.768l-1.886,1.191A.556.556,0,0,1,1290.043-1707.707Zm4.715-2.977a.557.557,0,0,1-.472-.259.558.558,0,0,1,.174-.77l1.366-.863a.557.557,0,0,1,.558-.558.558.558,0,0,1,.558.558v.616l-1.887,1.19A.548.548,0,0,1,1294.758-1710.684Zm1.626-4.679a.556.556,0,0,1-.558-.558v-2.23a.557.557,0,0,1,.558-.558.558.558,0,0,1,.558.558v2.23A.557.557,0,0,1,1296.384-1715.363Zm0-5.576a.557.557,0,0,1-.558-.558v-2.23a.557.557,0,0,1,.558-.558.558.558,0,0,1,.558.558v2.23A.557.557,0,0,1,1296.384-1720.939Zm0-5.576a.557.557,0,0,1-.558-.558v-.9l1.673-1.02a.556.556,0,0,1,.766.185.557.557,0,0,1-.185.766l-1.139.7v.27A.557.557,0,0,1,1296.384-1726.515Zm4.261-3.184a.557.557,0,0,1-.476-.268.559.559,0,0,1,.185-.766l1.9-1.162a.556.556,0,0,1,.767.185.559.559,0,0,1-.185.766l-1.9,1.162A.558.558,0,0,1,1300.646-1729.7Zm4.759-2.905a.552.552,0,0,1-.475-.268.557.557,0,0,1,.185-.766l1.9-1.162a.555.555,0,0,1,.766.185.558.558,0,0,1-.185.767l-1.9,1.161A.555.555,0,0,1,1305.4-1732.6Zm4.76-2.905a.556.556,0,0,1-.476-.268.559.559,0,0,1,.185-.766l1.9-1.162a.556.556,0,0,1,.767.186.559.559,0,0,1-.185.766l-1.9,1.162A.566.566,0,0,1,1310.164-1735.51Zm4.132-3.258a.558.558,0,0,1-.557-.558v-2.23a.557.557,0,0,1,.557-.558.557.557,0,0,1,.558.558v2.23A.558.558,0,0,1,1314.3-1738.767Zm0-5.576a.558.558,0,0,1-.557-.558v-2.23a.557.557,0,0,1,.557-.558.557.557,0,0,1,.558.558v2.23A.558.558,0,0,1,1314.3-1744.343Zm0-5.576a.558.558,0,0,1-.557-.558v-.607l1.964-1.134a.555.555,0,0,1,.76.2.557.557,0,0,1-.2.762l-1.407.813A.557.557,0,0,1,1314.3-1749.919Zm4.583-2.932a.556.556,0,0,1-.483-.279.556.556,0,0,1,.2-.762l1.932-1.115a.556.556,0,0,1,.762.2.558.558,0,0,1-.2.762l-1.932,1.116A.567.567,0,0,1,1318.878-1752.851Zm4.829-2.789a.557.557,0,0,1-.483-.279.557.557,0,0,1,.2-.762l1.931-1.115a.559.559,0,0,1,.762.2.558.558,0,0,1-.2.762l-1.931,1.116A.563.563,0,0,1,1323.707-1755.641Zm4.828-2.789a.556.556,0,0,1-.483-.279.556.556,0,0,1,.2-.762l1.931-1.115a.559.559,0,0,1,.762.2.559.559,0,0,1-.2.763l-1.932,1.115A.562.562,0,0,1,1328.535-1758.43Z" transform="translate(-1260.221 1760.66)" fill="#00e9d3"/>
    </g>
    <ellipse id="Elipse_146" data-name="Elipse 146" cx="73.721" cy="30.672" rx="73.721" ry="30.672" transform="translate(1482.795 -1607.989)" fill="#92b4d1" opacity="0.2"/>
    <path id="Trazado_1626" data-name="Trazado 1626" d="M1359.192-1551.134l24.365,14.068,11.783-6.8-24.365-14.067Z" transform="translate(45.628 39.618)" fill="#93e2d6"/>
    <path id="Trazado_1627" data-name="Trazado 1627" d="M1375.5-1560.472l24.365,14.067,13.075-7.549-24.365-14.068Z" transform="translate(47.507 38.456)" fill="#70e5d7"/>
    <path id="Trazado_1628" data-name="Trazado 1628" d="M1326.577-1532.458l24.365,14.067,9.2-5.311-24.365-14.067Z" transform="translate(41.87 41.941)" fill="#c1dbd6"/>
    <path id="Trazado_1629" data-name="Trazado 1629" d="M1315.5-1526.3l24.365,14.067,4.74-2.348-24.365-14.068Z" transform="translate(40.594 42.993)" fill="#cbd8d5"/>
    <path id="Trazado_1630" data-name="Trazado 1630" d="M1342.884-1541.8l24.364,14.068,10.492-6.058-24.365-14.067Z" transform="translate(43.749 40.779)" fill="#aae0d7"/>
    <path id="Trazado_1631" data-name="Trazado 1631" d="M1373.8-1581.584l66.171,38.2,12.476-45.407Z" transform="translate(47.311 36.063)" fill="#00e9d3"/>
    <path id="Trazado_1632" data-name="Trazado 1632" d="M1466.775-1818.663c-26.516-15.309-50.662-17.62-68.786-9.032l-14.58,8.259v.075c18.087-8.4,42.1-6.024,68.458,9.192,56.256,32.48,101.861,111.142,101.861,175.7,0,31.334-10.746,53.583-28.239,64.471l9.774-5.712c20.5-9.545,33.373-32.958,33.373-67.254C1568.638-1707.521,1523.033-1786.183,1466.775-1818.663Z" transform="translate(48.419 7.964)" fill="#4e01d2"/>
    <path id="Trazado_1633" data-name="Trazado 1633" d="M1455.319-1811.047c-56.258-32.48-101.862-6.479-101.862,58.076s45.6,143.216,101.862,175.7,101.861,6.479,101.861-58.076S1511.576-1778.567,1455.319-1811.047Z" transform="translate(44.968 8.841)" fill="url(#linear-gradient)"/>
    <g id="Grupo_763" data-name="Grupo 763" transform="translate(1428.989 -1817.052)">
      <path id="Trazado_1634" data-name="Trazado 1634" d="M1453.67-1811.821c-28.53-16.472-54.316-17.894-72.807-6.883,18.373-10.059,43.536-8.282,71.3,7.746,56.258,32.48,101.862,111.141,101.862,175.7,0,31.816-11.083,54.259-29.054,64.959,18.858-10.327,30.564-33.124,30.564-65.822C1555.533-1700.679,1509.927-1779.341,1453.67-1811.821Z" transform="translate(-1380.863 1825.805)" fill="#084c94"/>
    </g>
    <ellipse id="Elipse_147" data-name="Elipse 147" cx="82.908" cy="143.607" rx="82.908" ry="143.607" transform="translate(1356.235 -1767.453) rotate(-30.311)" fill="#2d0487"/>
    <ellipse id="Elipse_148" data-name="Elipse 148" cx="78.42" cy="135.832" rx="78.42" ry="135.832" transform="translate(1364.034 -1763.006) rotate(-30.311)" fill="#e3f3ff"/>
    <ellipse id="Elipse_149" data-name="Elipse 149" cx="67.116" cy="116.253" rx="67.116" ry="116.253" transform="translate(1383.674 -1751.808) rotate(-30.311)" fill="#fc7171"/>
    <ellipse id="Elipse_150" data-name="Elipse 150" cx="54.399" cy="94.226" rx="54.399" ry="94.226" transform="translate(1405.769 -1739.21) rotate(-30.311)" fill="#e3f3ff"/>
    <ellipse id="Elipse_151" data-name="Elipse 151" cx="42.389" cy="73.423" rx="42.389" ry="73.423" transform="matrix(0.863, -0.505, 0.505, 0.863, 1426.636, -1727.312)" fill="#fc7171"/>
    <ellipse id="Elipse_152" data-name="Elipse 152" cx="31.085" cy="53.844" rx="31.085" ry="53.844" transform="matrix(0.863, -0.505, 0.505, 0.863, 1446.276, -1716.114)" fill="#e3f3ff"/>
    <path id="Trazado_1635" data-name="Trazado 1635" d="M1456.236-1585.964c-53.211-30.721-96.348-105.125-96.348-166.184,0-29.15,9.837-49.981,25.9-60.457-16.944,10.143-27.389,31.348-27.389,61.387,0,61.06,43.136,135.462,96.348,166.184,27.808,16.055,52.859,16.994,70.445,5.526C1507.7-1569.034,1483.269-1570.357,1456.236-1585.964Z" transform="translate(45.537 10.274)" fill="#a8cff0"/>
    <path id="Trazado_1636" data-name="Trazado 1636" d="M1453.187-1623.495c-36.912-21.312-66.835-72.925-66.835-115.281,0-20.3,6.884-34.767,18.1-42.008-12.1,6.892-19.591,21.75-19.591,42.937,0,42.356,29.923,93.97,66.835,115.281,19.223,11.1,36.538,11.769,48.731,3.9C1488.338-1611.778,1471.635-1612.845,1453.187-1623.495Z" transform="translate(48.587 13.94)" fill="#a8cff0"/>
    <path id="Trazado_1637" data-name="Trazado 1637" d="M1450.228-1659.968c-21.092-12.178-38.192-41.672-38.192-65.874,0-11.285,3.719-19.423,9.824-23.666-6.982,3.91-11.311,12.422-11.311,24.6,0,24.2,17.1,53.7,38.192,65.874,11.259,6.5,21.378,6.749,28.368,1.891C1470.207-1653.283,1460.712-1653.914,1450.228-1659.968Z" transform="translate(51.546 17.544)" fill="#a8cff0"/>
    <ellipse id="Elipse_153" data-name="Elipse 153" cx="19.075" cy="33.04" rx="19.075" ry="33.04" transform="matrix(0.863, -0.505, 0.505, 0.863, 1467.144, -1704.216)" fill="#d60050" style="isolation: isolate"/>
    <path id="Trazado_1638" data-name="Trazado 1638" d="M1447.175-1706.926c0,1.059-.748,1.487-1.673.954a3.688,3.688,0,0,1-1.673-2.885c0-1.061.749-1.488,1.673-.953A3.683,3.683,0,0,1,1447.175-1706.926Z" transform="translate(55.381 22.091)" fill="#231f20" opacity="0.5"/>
    <path id="Trazado_1639" data-name="Trazado 1639" d="M1446.377-1731.464c-5.854-3.38-11.2-4-15.31-2.3,3.863-.988,8.613-.149,13.752,2.817,12.943,7.473,23.437,25.571,23.437,40.424,0,8.134-3.153,13.6-8.127,15.66,5.866-1.5,9.683-7.224,9.683-16.18C1469.812-1705.893,1459.32-1723.992,1446.377-1731.464Z" transform="translate(53.91 19.253)" fill="#d62d69"/>
    <path id="Trazado_1640" data-name="Trazado 1640" d="M1256.633-1594.372l-9.125-1.23a4.622,4.622,0,0,1-.6-9.039l51.158-13.984Z" transform="translate(32.298 32.625)" fill="#740045" style="isolation: isolate"/>
    <path id="Trazado_1641" data-name="Trazado 1641" d="M1256.989-1595.266l-9.126-1.23a4.591,4.591,0,0,1-3.827-5.874,4.623,4.623,0,0,0,3.471,6.767l9.125,1.23,41.432-24.253-2.193.6Z" transform="translate(32.299 32.625)" fill="#f76195"/>
    <path id="Trazado_1642" data-name="Trazado 1642" d="M1247.7-1596.279l9.125,1.229,39.6-23.18-.58.158-38.881,22.761-9.126-1.23a4.591,4.591,0,0,1-3.827-5.874c-.055.1-.1.212-.143.319A4.579,4.579,0,0,0,1247.7-1596.279Z" transform="translate(32.322 32.671)" fill="#fff" opacity="0.5"/>
    <g id="Grupo_764" data-name="Grupo 764" transform="translate(1457.862 -1686.693)">
      <path id="Trazado_1643" data-name="Trazado 1643" d="M1450.451-1707.677a.468.468,0,0,1-.187.423s-5.187,7.061-17.886,14.417c-18.141,10.508-21.044,11.216-21.044,11.216-.489.273-.182-.337-.911-.757a5.859,5.859,0,0,1-2.657-4.585c0-.833-.77-.84-.3-1.118,0,0,2.1-2.054,20.264-12.561,12.743-7.37,21.591-8.23,21.591-8.23a.475.475,0,0,1,.465.051A1.464,1.464,0,0,1,1450.451-1707.677Z" transform="translate(-1406.688 1708.914)" fill="#fc0"/>
      <path id="Trazado_1644" data-name="Trazado 1644" d="M1412.068-1685.422c0,1.685-1.19,2.363-2.658,1.516a5.856,5.856,0,0,1-2.658-4.585c0-1.684,1.19-2.362,2.658-1.514A5.856,5.856,0,0,1,1412.068-1685.422Z" transform="translate(-1406.753 1711.051)" fill="#ffde17"/>
    </g>
    <g id="Grupo_765" data-name="Grupo 765" transform="translate(1281.693 -1665.727)" style="isolation: isolate">
      <path id="Trazado_1645" data-name="Trazado 1645" d="M1429.676-1685.389a1.781,1.781,0,0,1-.712,1.61L1253.152-1580.8c-.458.256-.165-.326-.862-.728a5.591,5.591,0,0,1-2.537-4.376c0-.8-.735-.8-.284-1.067l175.9-103a1.809,1.809,0,0,1,1.771.2A5.591,5.591,0,0,1,1429.676-1685.389Z" transform="translate(-1248.724 1690.115)" fill="#740045"/>
      <path id="Trazado_1646" data-name="Trazado 1646" d="M1253.861-1593.029c0,1.608-1.136,2.256-2.537,1.446a5.589,5.589,0,0,1-2.538-4.376c0-1.608,1.136-2.256,2.538-1.446A5.591,5.591,0,0,1,1253.861-1593.029Z" transform="translate(-1248.786 1700.757)" fill="#740045"/>
    </g>
    <path id="Trazado_1647" data-name="Trazado 1647" d="M1254.551-1597.078l42.315-24.379-33.024-2.7a14.283,14.283,0,0,0-12.469,22.968Z" transform="translate(32.858 31.981)" fill="#f76195"/>
    <path id="Trazado_1648" data-name="Trazado 1648" d="M1255.151-1597.2l42.316-24.379-33.024-2.7a14.284,14.284,0,0,0-12.47,22.968Z" transform="translate(32.927 31.967)" fill="#d60050" style="isolation: isolate"/>
    <path id="Trazado_1649" data-name="Trazado 1649" d="M1252.6-1601.046a14.283,14.283,0,0,1,12.469-22.968l32.071,2.625.329-.19-33.024-2.7a14.285,14.285,0,0,0-12.47,22.969l3.179,4.114.289-.166Z" transform="translate(32.927 31.967)" fill="#fff" opacity="0.5"/>
    <path id="Trazado_1650" data-name="Trazado 1650" d="M1256.313-1592.949l1.038,3.734a11.945,11.945,0,0,0,21.586,3.213l19.692-30.946Z" transform="translate(33.774 32.818)" fill="#f76195"/>
    <path id="Trazado_1651" data-name="Trazado 1651" d="M1256.9-1593.429l1.038,3.734a11.944,11.944,0,0,0,21.585,3.212l19.692-30.945Z" transform="translate(33.842 32.763)" fill="#d60050" style="isolation: isolate"/>
    <path id="Trazado_1652" data-name="Trazado 1652" d="M1279.881-1587.109a11.944,11.944,0,0,1-21.585-3.212l-.937-3.369-.458.261,1.038,3.734a11.944,11.944,0,0,0,21.585,3.212l19.693-30.946-.064.037Z" transform="translate(33.842 32.763)" fill="#fff" opacity="0.5"/>
    <path id="Trazado_1653" data-name="Trazado 1653" d="M1594.188-1751.148l5.387-2.622-27.915-57.745-5.453,3.015Z" transform="translate(69.482 10.399)" fill="#04aa96"/>
    <path id="Trazado_1654" data-name="Trazado 1654" d="M1576.6-1704.158l5.387-2.622v-4.052l-5.387,2.622Z" transform="translate(70.679 22)" fill="#04aa96"/>
    <path id="Trazado_1655" data-name="Trazado 1655" d="M1555.935-1720.14l5.387-2.622,23.044,13.3-5.387,2.622Z" transform="translate(68.298 20.626)" fill="#d1ebff"/>
    <path id="Trazado_1656" data-name="Trazado 1656" d="M1555.935-1731.8l5.387-2.622,23.044,13.3-5.387,2.622Z" transform="translate(68.298 19.283)" fill="#d1ebff"/>
    <path id="Trazado_1657" data-name="Trazado 1657" d="M1555.935-1722.685l23.044,13.3v-9.456l-23.044-13.3Z" transform="translate(68.298 19.545)" fill="#00e9d3"/>
    <path id="Trazado_1658" data-name="Trazado 1658" d="M1555.935-1716.359l23.044,13.3v-4.052l-23.044-13.3Z" transform="translate(68.298 20.897)" fill="#00e9d3"/>
    <path id="Trazado_1659" data-name="Trazado 1659" d="M1576.6-1710.484l5.387-2.621v-9.456l-5.387,2.622Z" transform="translate(70.679 20.649)" fill="#04aa96"/>
    <path id="Trazado_1660" data-name="Trazado 1660" d="M1576.6-1717.877l5.387-2.622v-47.724l-5.387,2.622Z" transform="translate(70.679 15.388)" fill="#04aa96"/>
    <g id="Grupo_766" data-name="Grupo 766" transform="translate(1643.651 -1806.172)">
      <path id="Trazado_1661" data-name="Trazado 1661" d="M1589.24-1700.539a.557.557,0,0,1-.558-.558v-2.23a.557.557,0,0,1,.558-.558.558.558,0,0,1,.558.558v2.23A.558.558,0,0,1,1589.24-1700.539Zm0-5.576a.557.557,0,0,1-.558-.558v-2.23a.557.557,0,0,1,.558-.558.558.558,0,0,1,.558.558v2.23A.558.558,0,0,1,1589.24-1706.115Zm0-5.576a.557.557,0,0,1-.558-.558v-2.23a.557.557,0,0,1,.558-.558.558.558,0,0,1,.558.558v2.23A.558.558,0,0,1,1589.24-1711.691Zm0-5.576a.557.557,0,0,1-.558-.558v-2.23a.557.557,0,0,1,.558-.558.558.558,0,0,1,.558.558v2.23A.558.558,0,0,1,1589.24-1717.267Zm0-5.576a.557.557,0,0,1-.558-.558v-2.23a.557.557,0,0,1,.558-.558.558.558,0,0,1,.558.558v2.23A.558.558,0,0,1,1589.24-1722.843Zm0-5.576a.557.557,0,0,1-.558-.558v-2.23a.557.557,0,0,1,.558-.558.558.558,0,0,1,.558.558v2.23A.558.558,0,0,1,1589.24-1728.419Zm0-5.576a.557.557,0,0,1-.558-.558v-2.23a.557.557,0,0,1,.558-.558.558.558,0,0,1,.558.558v2.23A.558.558,0,0,1,1589.24-1734Zm17.161-4.532a.559.559,0,0,1-.554-.506.559.559,0,0,1,.5-.607,2.459,2.459,0,0,0,1.577-.81.559.559,0,0,1,.787-.043.558.558,0,0,1,.042.787,3.538,3.538,0,0,1-2.3,1.177A.43.43,0,0,1,1606.4-1738.528Zm-17.161-1.044a.557.557,0,0,1-.558-.558v-2.23a.557.557,0,0,1,.558-.558.558.558,0,0,1,.558.558v2.23A.558.558,0,0,1,1589.24-1739.572Zm14.1-.119a.566.566,0,0,1-.279-.075l-1.932-1.115a.558.558,0,0,1-.2-.762.559.559,0,0,1,.762-.205l1.932,1.115a.557.557,0,0,1,.2.763A.558.558,0,0,1,1603.337-1739.691Zm-4.83-2.788a.564.564,0,0,1-.279-.075l-1.93-1.115a.558.558,0,0,1-.2-.762.559.559,0,0,1,.762-.205l1.93,1.115a.557.557,0,0,1,.2.763A.557.557,0,0,1,1598.506-1742.479Zm10.343-.162a.558.558,0,0,1-.51-.332l-.961-1.992a.559.559,0,0,1,.26-.745.558.558,0,0,1,.745.259l.976,2.026a.558.558,0,0,1-.284.736A.555.555,0,0,1,1608.849-1742.64Zm-19.609-2.507a.557.557,0,0,1-.558-.558v-2.23a.557.557,0,0,1,.558-.558.558.558,0,0,1,.558.558v2.23A.558.558,0,0,1,1589.24-1745.147Zm4.438-.119a.564.564,0,0,1-.279-.075l-1.931-1.115a.558.558,0,0,1-.2-.762.559.559,0,0,1,.762-.205l1.931,1.115a.557.557,0,0,1,.2.763A.558.558,0,0,1,1593.678-1745.267Zm12.747-2.4a.556.556,0,0,1-.5-.316l-.97-2.007a.558.558,0,0,1,.259-.745.56.56,0,0,1,.745.259l.97,2.008a.558.558,0,0,1-.259.745A.561.561,0,0,1,1606.425-1747.662Zm-2.427-5.021a.558.558,0,0,1-.5-.314l-.97-2.009a.558.558,0,0,1,.259-.745.559.559,0,0,1,.745.26l.97,2.007a.558.558,0,0,1-.259.745A.557.557,0,0,1,1604-1752.683Zm-2.427-5.02a.557.557,0,0,1-.5-.316l-.971-2.007a.558.558,0,0,1,.26-.745.559.559,0,0,1,.744.259l.972,2.009a.558.558,0,0,1-.26.745A.552.552,0,0,1,1601.571-1757.7Zm-2.427-5.021a.559.559,0,0,1-.5-.315l-.97-2.009a.559.559,0,0,1,.26-.745.56.56,0,0,1,.745.26l.97,2.007a.559.559,0,0,1-.26.745A.551.551,0,0,1,1599.144-1762.723Zm-2.427-5.021a.556.556,0,0,1-.5-.314l-.971-2.009a.557.557,0,0,1,.259-.745.559.559,0,0,1,.745.26l.971,2.009a.556.556,0,0,1-.259.744A.559.559,0,0,1,1596.718-1767.744Zm-2.428-5.02a.558.558,0,0,1-.5-.315l-.97-2.009a.558.558,0,0,1,.259-.745.56.56,0,0,1,.745.259l.97,2.009a.558.558,0,0,1-.259.745A.558.558,0,0,1,1594.29-1772.764Zm-2.427-5.021a.558.558,0,0,1-.5-.314l-.97-2.009a.558.558,0,0,1,.259-.745.56.56,0,0,1,.745.26l.971,2.009a.559.559,0,0,1-.26.745A.57.57,0,0,1,1591.863-1777.785Zm-2.426-5.021a.56.56,0,0,1-.5-.314l-.971-2.007a.558.558,0,0,1,.26-.745.56.56,0,0,1,.745.259l.971,2.009a.559.559,0,0,1-.26.745A.569.569,0,0,1,1589.438-1782.805Zm-2.428-5.02a.557.557,0,0,1-.5-.314l-.971-2.009a.558.558,0,0,1,.26-.745.558.558,0,0,1,.745.26l.97,2.007a.558.558,0,0,1-.259.745A.562.562,0,0,1,1587.01-1787.825Zm-2.427-5.021a.556.556,0,0,1-.5-.314l-.97-2.009a.557.557,0,0,1,.259-.744.558.558,0,0,1,.745.259l.97,2.009a.558.558,0,0,1-.259.745A.575.575,0,0,1,1584.583-1792.846Zm-2.427-5.02a.558.558,0,0,1-.5-.314l-.971-2.009a.557.557,0,0,1,.259-.745.559.559,0,0,1,.745.259l.971,2.009a.557.557,0,0,1-.259.745A.558.558,0,0,1,1582.156-1797.865Zm-2.428-5.021a.558.558,0,0,1-.5-.314l-.97-2.008a.558.558,0,0,1,.26-.745.561.561,0,0,1,.745.259l.97,2.008a.558.558,0,0,1-.26.745A.551.551,0,0,1,1579.728-1802.886Zm-2.426-5.02a.557.557,0,0,1-.5-.316l-.971-2.007a.558.558,0,0,1,.26-.745.559.559,0,0,1,.745.259l.971,2.009a.558.558,0,0,1-.26.745A.566.566,0,0,1,1577.3-1807.906Zm-2.428-5.021a.557.557,0,0,1-.5-.314l-.97-2.009a.557.557,0,0,1,.259-.745.559.559,0,0,1,.745.26l.97,2.007a.558.558,0,0,1-.259.745A.562.562,0,0,1,1574.875-1812.927Z" transform="translate(-1573.347 1816.049)" fill="#a8cff0"/>
    </g>
    <path id="Trazado_1662" data-name="Trazado 1662" d="M1557.628-1774.188v47.724l23.044,13.3v-47.724l16.393,9.464-27.915-57.745-27.915,25.512Z" transform="translate(66.604 10.67)" fill="#00e9d3"/>
  </g>
</svg>
