<svg width="44" height="44" viewBox="0 0 44 44" fill="none" xmlns="http://www.w3.org/2000/svg">
<path d="M27.5007 3.66663H11.0007C10.0282 3.66663 9.09556 4.05293 8.40793 4.74057C7.72029 5.4282 7.33398 6.36083 7.33398 7.33329V36.6666C7.33398 37.6391 7.72029 38.5717 8.40793 39.2594C9.09556 39.947 10.0282 40.3333 11.0007 40.3333H33.0007C33.9731 40.3333 34.9057 39.947 35.5934 39.2594C36.281 38.5717 36.6673 37.6391 36.6673 36.6666V12.8333L27.5007 3.66663Z" stroke="#D90452" stroke-width="3.5" stroke-linecap="round" stroke-linejoin="round"/>
<path d="M25.6667 3.66663V11C25.6667 11.9724 26.053 12.9051 26.7406 13.5927C27.4282 14.2803 28.3609 14.6666 29.3333 14.6666H36.6667M16.5 27.5L20.1667 31.1666L27.5 23.8333" stroke="#D90452" stroke-width="3.5" stroke-linecap="round" stroke-linejoin="round"/>
</svg>
