<svg width="44" height="44" viewBox="0 0 44 44" fill="none" xmlns="http://www.w3.org/2000/svg">
<path d="M15.9503 23.6958L18.4712 25.3916L21.1754 24.0166C21.4198 23.8638 21.6948 23.7875 22.0003 23.7875C22.3059 23.7875 22.5809 23.8638 22.8253 24.0166L25.5295 25.3916L27.9587 23.7875L26.1253 20.1666H17.692L15.9503 23.6958ZM9.57952 36.6666H34.3754L29.6087 27.0875L26.6754 29.0583C26.4004 29.2416 26.1027 29.3412 25.7825 29.3571C25.4623 29.373 25.1488 29.304 24.842 29.15L22.0003 27.7291L19.1587 29.15C18.8531 29.3027 18.5396 29.3638 18.2182 29.3333C17.8967 29.3027 17.5991 29.1958 17.3253 29.0125L14.3004 27.0416L9.57952 36.6666ZM6.60035 40.3333C5.89757 40.3333 5.37079 40.043 5.02002 39.4625C4.66924 38.8819 4.64602 38.2861 4.95035 37.675L14.392 18.5625C14.6976 17.9513 15.1486 17.4545 15.745 17.072C16.3415 16.6894 16.9905 16.4987 17.692 16.5H20.167V5.49996C20.167 4.98051 20.343 4.5454 20.695 4.19463C21.047 3.84385 21.4821 3.66785 22.0003 3.66663H31.5337C31.8698 3.66663 32.1295 3.81207 32.3128 4.10296C32.4962 4.39385 32.5115 4.69146 32.3587 4.99579L31.3503 6.92079C31.2892 7.07357 31.2587 7.21107 31.2587 7.33329C31.2587 7.45551 31.2892 7.59301 31.3503 7.74579L32.3587 9.67079C32.5115 9.97635 32.4962 10.274 32.3128 10.5636C32.1295 10.8533 31.8698 10.9987 31.5337 11H23.8337V16.5H26.1253C26.8281 16.5 27.4698 16.6833 28.0504 17.05C28.6309 17.4166 29.0892 17.9055 29.4253 18.5166L39.0045 37.675C39.3101 38.2861 39.2875 38.8819 38.9367 39.4625C38.5859 40.043 38.0585 40.3333 37.3545 40.3333H6.60035Z" fill="#D90452"/>
</svg>
