<svg width="44" height="44" viewBox="0 0 44 44" fill="none" xmlns="http://www.w3.org/2000/svg">
<path d="M17.4186 35.7518C17.4186 34.4428 17.4186 33.7902 17.3471 33.3557C17.1234 31.9568 17.0849 31.867 16.1921 30.767C15.9134 30.4242 14.8868 29.5057 12.8334 27.665C10.7579 25.8086 9.2949 23.3658 8.63803 20.6598C7.98117 17.9537 8.16139 15.112 9.15486 12.5107C10.1483 9.9093 11.9082 7.67088 14.2017 6.09158C16.4951 4.51228 19.214 3.66654 21.9986 3.66626C24.7832 3.66598 27.5023 4.51118 29.7961 6.09002C32.0898 7.66886 33.8502 9.90693 34.8442 12.5081C35.8382 15.1093 36.0189 17.9509 35.3626 20.6571C34.7063 23.3633 33.2438 25.8064 31.1686 27.6632C29.1134 29.5038 28.0868 30.4242 27.8099 30.7652C26.9171 31.8652 26.8786 31.955 26.6531 33.3538C26.5834 33.7883 26.5834 34.4428 26.5834 35.75H17.4168C17.4168 37.4642 17.4168 38.3203 17.7853 38.9583C18.0266 39.3764 18.3738 39.7235 18.7918 39.9648C19.4298 40.3333 20.2859 40.3333 22.0001 40.3333C23.7143 40.3333 24.5704 40.3333 25.2103 39.9667C25.6283 39.7253 25.9754 39.3782 26.2168 38.9602C26.5853 38.3222 26.5853 37.466 26.5853 35.7518" stroke="#D90452" stroke-width="3.5"/>
<path d="M23.4406 15.5834L19.5117 21.0834H25.0117L21.0829 26.5834" stroke="#D90452" stroke-width="3.5" stroke-linecap="round" stroke-linejoin="round"/>
</svg>
