<svg width="2158" height="1612" viewBox="0 0 2158 1612" fill="none" xmlns="http://www.w3.org/2000/svg">
<g clip-path="url(#clip0)">
<rect width="2158" height="1612" fill="white"/>
<path d="M376.847 720.567C1036.33 49.5056 1337.83 -98.2158 1675.02 207.953C2012.2 514.121 2025.71 1376.86 1888.75 1558.19C1751.78 1739.52 -282.64 1391.63 376.847 720.567Z" fill="#F7C90B"/>
<path d="M972.677 1295.4C917.177 1239.86 753.257 1164.35 796.327 1077.74C832.965 1004.08 1008.77 1013.16 987.602 924.343C975.087 871.812 958.854 826.982 997.095 767.243C1038.75 702.177 1163.26 737.6 1206.44 677.184C1243.52 625.282 1195.31 545.083 1271.92 510.422C1339.94 479.642 1422.11 539.766 1434.37 593.061C1449.7 659.69 1375.29 691.009 1365.74 748.997C1359.66 785.92 1397.58 798.785 1419.31 824.633C1440.11 849.384 1458.81 884.986 1460.19 915.644C1464.32 1007.77 1350.46 1019.7 1296.48 1078.28C1246.49 1132.52 1338.69 1167.49 1324.87 1226.47C1309.96 1290.14 1207.76 1324.89 1135.83 1323.95C1085.95 1323.3 1007.06 1329.81 972.677 1295.4Z" fill="#00E9D3"/>
<path d="M1045.17 1325.75C1044.72 1325.69 1044.27 1325.56 1043.86 1325.38C1043.33 1325.2 1042.85 1324.92 1042.46 1324.55C1042.07 1324.18 1041.78 1323.73 1041.61 1323.25C1041.44 1322.77 1041.4 1322.25 1041.49 1321.75C1041.58 1321.25 1041.79 1320.78 1042.12 1320.36C1043.1 1319.04 1144.77 1183.49 1150.65 1013.13C1154.54 899.57 1207.76 826.899 1251.41 767.284C1277.78 731.283 1300.77 699.874 1304.29 668.395C1304.48 667.126 1305.19 665.964 1306.29 665.139C1307.39 664.313 1308.8 663.884 1310.24 663.936C1310.94 663.936 1311.63 664.066 1312.26 664.318C1312.9 664.569 1313.47 664.936 1313.93 665.395C1314.39 665.854 1314.74 666.395 1314.96 666.981C1315.17 667.568 1315.24 668.188 1315.17 668.801C1311.31 702.509 1287.63 734.762 1260.49 771.738C1217.47 830.331 1164.97 901.793 1160.96 1013.02C1154.72 1185.46 1051.59 1322.54 1050.57 1323.87C1049.96 1324.6 1049.14 1325.17 1048.18 1325.5C1047.22 1325.84 1046.18 1325.92 1045.17 1325.75Z" fill="white"/>
<path d="M1159.33 1013.58C1158.19 1013.43 1157.16 1012.89 1156.45 1012.09C1155.74 1011.28 1155.41 1010.26 1155.52 1009.25C1155.75 1008.09 1156.46 1007.05 1157.51 1006.33C1158.57 1005.62 1159.89 1005.28 1161.21 1005.38C1204.27 1007.67 1261.79 985.353 1279.18 948.137C1281.27 943.664 1283.36 938.703 1285.56 933.5C1296.08 908.508 1309.3 877.151 1336.96 865.861C1350.5 860.347 1366.17 860.334 1383.32 865.575C1383.94 865.748 1384.51 866.036 1384.99 866.421C1385.46 866.806 1385.84 867.278 1386.1 867.805C1386.35 868.332 1386.48 868.902 1386.46 869.475C1386.44 870.048 1386.29 870.611 1386 871.126C1385.39 872.217 1384.35 873.078 1383.09 873.555C1381.82 874.032 1380.4 874.094 1379.09 873.731C1364.37 869.234 1352.01 869.164 1341.12 873.591C1317.68 883.165 1305.28 912.483 1295.39 935.843C1293.14 941.141 1290.99 946.192 1288.87 950.733C1269.06 992.954 1206.75 1016.13 1160.09 1013.66C1159.84 1013.65 1159.58 1013.62 1159.33 1013.58Z" fill="white"/>
<path d="M1128.78 1009.28C1108.79 1005.29 1093.62 997.532 1083.56 986.047C1067.57 967.832 1065.06 940.39 1076.5 906.477C1077.63 903.122 1079.08 899.228 1080.66 894.973C1089.63 870.742 1103.35 833.758 1089.85 813.225C1085.36 806.408 1078.23 801.994 1068.03 799.719C1067.37 799.593 1066.75 799.347 1066.2 798.997C1065.65 798.648 1065.18 798.201 1064.84 797.685C1064.49 797.17 1064.27 796.596 1064.18 796.001C1064.1 795.405 1064.15 794.8 1064.34 794.224C1064.79 793.053 1065.72 792.074 1066.95 791.482C1068.17 790.89 1069.61 790.728 1070.96 791.028L1071.02 791.042C1083.95 793.938 1093.46 799.911 1099.3 808.811C1114.87 832.584 1100.29 871.681 1090.76 897.287C1089.21 901.461 1087.81 905.272 1086.68 908.575C1076.04 939.907 1077.98 964.918 1092.13 981.081C1104.19 994.853 1125.33 1002.5 1154.81 1003.91C1155.46 1003.89 1156.09 1004 1156.68 1004.22C1157.28 1004.44 1157.81 1004.76 1158.25 1005.18C1158.69 1005.59 1159.02 1006.08 1159.23 1006.62C1159.44 1007.16 1159.52 1007.73 1159.47 1008.3C1159.25 1009.46 1158.54 1010.51 1157.5 1011.23C1156.45 1011.96 1155.13 1012.31 1153.81 1012.21C1145.39 1011.86 1137.02 1010.88 1128.78 1009.28Z" fill="white"/>
<path d="M1104.27 1272.08C1098.43 1271.19 1092.83 1269.37 1087.72 1266.71C1087.21 1266.47 1086.77 1266.13 1086.43 1265.71C1086.09 1265.29 1085.86 1264.81 1085.76 1264.31C1085.66 1263.8 1085.69 1263.28 1085.85 1262.79C1086.01 1262.29 1086.29 1261.84 1086.68 1261.45C1087.52 1260.6 1088.67 1260.02 1089.93 1259.84C1091.2 1259.66 1092.49 1259.87 1093.6 1260.44C1119.38 1274.23 1171.8 1256.31 1194.09 1242.37C1203.39 1236.55 1211.74 1226.44 1220.59 1215.7C1236.44 1196.51 1252.94 1176.52 1278.99 1175.87C1279.59 1175.79 1280.21 1175.83 1280.79 1175.99C1281.38 1176.14 1281.91 1176.41 1282.37 1176.76C1282.83 1177.12 1283.19 1177.56 1283.44 1178.05C1283.69 1178.55 1283.81 1179.08 1283.81 1179.62C1283.67 1180.73 1283.07 1181.76 1282.12 1182.5C1281.18 1183.24 1279.95 1183.65 1278.69 1183.63C1258.15 1184.16 1243.22 1202.22 1228.86 1219.56C1219.5 1230.87 1210.71 1241.51 1200.04 1248.16C1180.05 1260.67 1136.35 1277.26 1104.27 1272.08Z" fill="white"/>
<path d="M1062.08 1263.72C1055.84 1262.69 1049.82 1260.81 1044.24 1258.14C1011.78 1242.84 992.528 1203.64 987.507 1180.81C984.828 1168.54 988.969 1152.34 993.36 1135.09C1000.4 1107.54 1007.75 1078.77 987.529 1065.67C987.018 1065.36 986.591 1064.95 986.277 1064.47C985.962 1064 985.768 1063.47 985.707 1062.92C985.647 1062.37 985.721 1061.82 985.926 1061.3C986.13 1060.78 986.459 1060.3 986.891 1059.91C987.831 1059.06 989.077 1058.54 990.409 1058.43C991.742 1058.32 993.076 1058.62 994.178 1059.3C1019.06 1075.47 1010.67 1108.05 1003.36 1136.49C999.099 1152.99 995.123 1168.49 997.489 1179.32C1001.99 1199.99 1020.14 1237.67 1049.68 1251.63C1060.72 1257 1073.68 1258.37 1085.83 1255.46C1087.02 1255.13 1088.3 1255.21 1089.42 1255.68C1090.53 1256.15 1091.41 1256.98 1091.88 1258C1092.01 1258.52 1092.02 1259.05 1091.91 1259.58C1091.8 1260.1 1091.57 1260.6 1091.24 1261.04C1090.91 1261.48 1090.48 1261.86 1089.98 1262.15C1089.47 1262.44 1088.91 1262.64 1088.32 1262.74C1079.76 1264.75 1070.8 1265.09 1062.08 1263.72Z" fill="white"/>
<path d="M1370.4 1482.43C1275.19 1461.58 1199.77 1442.72 1197.72 1353.27C1196.65 1306.99 1219.94 1275.03 1275.01 1249.36C1319.54 1228.6 1342.41 1221.46 1352.66 1180.47C1369.04 1114.9 1333.34 1050.25 1379.92 986.826C1431.88 916.08 1549.15 948.347 1603.28 884.189C1651.84 826.639 1678.46 752.025 1781.09 753.086C1867.46 753.981 1902.68 833.976 1865.71 889.47C1844.9 920.699 1808.48 942.713 1793.7 976.147C1779.61 1008.06 1795.09 1034.14 1808.94 1063.28C1839.55 1127.66 1847 1194.02 1763.68 1236.56C1713.88 1261.99 1675.5 1284.31 1693.45 1332C1712.31 1382.11 1720.75 1410.69 1652.14 1448.42C1600.85 1476.61 1554.07 1474.33 1495.18 1476.5C1439.97 1478.53 1366.19 1491.95 1314.07 1470.74L1370.4 1482.43Z" fill="#E2ACD0"/>
<path d="M1401.3 1436.03C1393.8 1428.85 1388.29 1420.23 1385.18 1410.84C1373.68 1373.32 1413.93 1335.71 1450.4 1301.65C1468.78 1284.5 1486.34 1268.1 1494.57 1254.11C1517.06 1216.01 1523.76 1182.01 1518.99 1128.73C1513.29 1065.53 1532.44 1039.68 1590.6 997.902C1639.62 962.625 1688.08 923.79 1701.74 885.317C1702.79 882.318 1707.1 880.711 1711.36 881.702C1715.63 882.694 1718.23 885.92 1717.16 888.906C1702.56 929.831 1652.38 969.879 1601.77 1006.05C1545.46 1046.26 1528.03 1069.6 1533.31 1129.71C1537.32 1175.12 1534.38 1214.45 1507.62 1259.5C1498.79 1274.4 1480.73 1291.15 1461.86 1308.68C1426.62 1341.39 1387.69 1377.5 1397.96 1411.11C1401.9 1424.07 1412.89 1435.95 1431.56 1447.43C1434.59 1449.37 1435.63 1452.35 1433.69 1454.17C1431.75 1455.98 1427.69 1455.88 1424.58 1453.96C1416.06 1448.81 1408.24 1442.79 1401.3 1436.03Z" fill="white"/>
<path d="M1521.82 1188.52C1520.86 1187.64 1520.26 1186.49 1520.15 1185.27C1520.01 1182.46 1523.08 1180.48 1527.01 1180.85C1561.46 1184.19 1586.9 1160.36 1614.32 1134.68C1638.61 1111.95 1664.11 1088.07 1699.02 1081.55C1700.95 1081.19 1702.95 1081.37 1704.76 1082.07C1706.56 1082.78 1708.06 1083.97 1709.06 1085.48C1710.64 1088.4 1708.71 1091.35 1704.73 1092.08C1674.12 1097.74 1649.81 1120.35 1626.68 1141.87C1598.23 1168.32 1569.4 1195.17 1527.56 1191.07C1525.37 1190.85 1523.34 1189.95 1521.82 1188.52Z" fill="white"/>
<path d="M1494.32 1266.3C1493.78 1265.77 1493.35 1265.17 1493.05 1264.51C1490.25 1257.96 1488.2 1251.17 1486.92 1244.25C1484.75 1234.15 1482.83 1225.41 1472.8 1214.32C1467.5 1208.71 1461.82 1203.39 1455.77 1198.41C1443.72 1187.93 1431.24 1177.27 1425.64 1160.1C1417.62 1135.57 1418.13 1105.05 1427.26 1069.09C1429.28 1062.47 1431.72 1055.96 1434.58 1049.58C1439.05 1038.82 1447.47 1018.68 1444.68 1014.19C1444.26 1013.59 1444 1012.92 1443.92 1012.23C1443.83 1011.53 1443.94 1010.83 1444.21 1010.17C1444.49 1009.52 1444.93 1008.93 1445.51 1008.45C1446.09 1007.97 1446.78 1007.62 1447.54 1007.42C1449.21 1006.92 1451.02 1006.91 1452.7 1007.4C1454.38 1007.88 1455.85 1008.83 1456.88 1010.1C1462.63 1017.77 1457.35 1031.86 1448.05 1053.95C1445.33 1060 1442.97 1066.18 1441 1072.46C1434.89 1096.33 1429.64 1130.59 1439.05 1159.46C1443.7 1173.88 1453.85 1182.6 1465.68 1192.75C1472.18 1198.14 1478.3 1203.89 1484.01 1209.95C1496.14 1223.29 1498.47 1234.16 1500.73 1244.66C1501.87 1251.01 1503.74 1257.26 1506.29 1263.28C1506.58 1263.91 1506.69 1264.6 1506.6 1265.27C1506.52 1265.95 1506.25 1266.59 1505.81 1267.15C1505.37 1267.71 1504.78 1268.16 1504.09 1268.46C1503.41 1268.77 1502.65 1268.92 1501.88 1268.89C1500.48 1268.99 1499.07 1268.81 1497.77 1268.36C1496.46 1267.92 1495.28 1267.21 1494.32 1266.3Z" fill="white"/>
<path d="M797.92 1470.43C692.495 1453.44 593.782 1460.64 551.106 1358.3C517.341 1277.31 596.067 1200.99 516.834 1145.33C469.158 1111.84 393.935 1091.74 377.301 1034.49C359.978 974.838 446.04 937.039 430.565 879.813C417.784 832.516 343.765 829.371 363.08 767.78C380.216 713.14 434.413 699.372 477.503 710.28C535.107 724.867 539.88 771.611 578.116 804.055C603.627 825.712 639.777 803.954 677.222 799.957C714.51 795.98 762.252 798.922 793.839 813.513C896.413 860.884 814.207 961.235 832.84 1042.91C850.849 1121.89 976.235 1074.15 1041.01 1133.47C1116.68 1202.74 1059.6 1322.54 985.04 1379.09C935.36 1416.76 869.172 1481.9 797.92 1470.43Z" fill="#D0D1DE"/>
<path d="M899.67 1449.8C899.145 1450.07 898.574 1450.26 897.979 1450.37C896.342 1450.71 894.619 1450.5 893.157 1449.76C891.695 1449.02 890.603 1447.82 890.101 1446.39C889.392 1444.28 820.789 1240.96 653.747 1107.04C559.709 1031.68 537.344 953.831 519.879 892.991C509.692 857.498 501.002 827.284 480.983 810.911C480.215 810.046 479.832 808.96 479.905 807.861C479.979 806.761 480.506 805.724 481.385 804.945C481.692 804.487 482.102 804.089 482.59 803.777C483.077 803.464 483.632 803.244 484.219 803.129C484.806 803.014 485.414 803.007 486.004 803.108C486.595 803.21 487.156 803.417 487.652 803.718C509.229 821.226 518.237 852.375 528.824 888.975C546.189 949.006 568.392 1025.83 661.174 1099.62C831.564 1235.14 901.684 1441.69 902.393 1443.83C902.774 1444.95 902.712 1446.16 902.217 1447.24C901.722 1448.33 900.823 1449.23 899.67 1449.8Z" fill="white"/>
<path d="M660.497 1101.16C659.546 1101.87 658.329 1102.24 657.086 1102.2C655.842 1102.16 654.659 1101.71 653.769 1100.94C652.889 1099.96 652.464 1098.73 652.583 1097.49C652.702 1096.24 653.355 1095.09 654.407 1094.26C688.199 1064.72 710.165 1007.77 688.15 971.897C685.557 967.667 682.527 963.165 679.366 958.467C664.379 936.238 646.081 909.062 655.611 882.596C660.288 869.636 671.321 857.915 688.25 847.668C688.75 847.275 689.339 846.981 689.978 846.808C690.618 846.635 691.291 846.587 691.954 846.667C692.616 846.746 693.251 846.952 693.815 847.27C694.379 847.587 694.859 848.009 695.222 848.507C695.716 849.707 695.725 851.022 695.249 852.227C694.772 853.433 693.839 854.455 692.608 855.119C677.978 863.899 669.138 873.128 665.342 883.604C657.24 906.17 674.541 931.682 688.676 952.538C691.928 957.328 695.023 961.925 697.696 966.228C722.963 1007.13 698.06 1068.55 661.13 1100.67C660.932 1100.84 660.72 1101.01 660.497 1101.16Z" fill="white"/>
<path d="M634.496 1119.86C616.745 1131.08 599.378 1136.23 582.7 1135.3C556.851 1133.86 533.283 1117.52 514.441 1088.44C512.614 1085.6 510.579 1082.25 508.365 1078.59C495.892 1058.07 477.387 1027.57 454.742 1024.77C447.357 1023.85 440.119 1025.97 432.606 1031.22C432.198 1031.57 431.706 1031.84 431.166 1032C430.626 1032.15 430.052 1032.2 429.489 1032.13C428.926 1032.06 428.387 1031.88 427.914 1031.6C427.441 1031.32 427.046 1030.95 426.759 1030.52C426.254 1029.5 426.147 1028.35 426.455 1027.27C426.762 1026.19 427.467 1025.23 428.458 1024.54L428.5 1024.51C437.992 1017.86 447.672 1015.03 457.302 1016.18C483.586 1019.33 503.28 1051.58 516.548 1073.31C518.747 1076.9 520.753 1080.19 522.572 1082.98C540.109 1109.87 561.467 1124.91 584.428 1126.09C604.473 1127.12 626.031 1117.64 648.432 1097.8C648.878 1097.34 649.426 1096.96 650.044 1096.69C650.661 1096.42 651.334 1096.26 652.022 1096.23C652.71 1096.2 653.398 1096.29 654.043 1096.5C654.689 1096.72 655.278 1097.04 655.776 1097.47C656.667 1098.43 657.106 1099.66 657.002 1100.91C656.898 1102.15 656.259 1103.32 655.217 1104.15C648.804 1109.88 641.874 1115.13 634.496 1119.86Z" fill="white"/>
<path d="M888.329 1351.56C881.717 1355.16 874.396 1357.62 866.752 1358.81C865.162 1359.07 863.516 1358.78 862.169 1357.98C860.822 1357.18 859.882 1355.95 859.552 1354.54C859.415 1353.85 859.438 1353.13 859.619 1352.44C859.8 1351.75 860.135 1351.1 860.605 1350.53C861.075 1349.96 861.67 1349.48 862.355 1349.12C863.039 1348.75 863.799 1348.52 864.589 1348.42C904.943 1342.19 931.616 1284.8 935.011 1254.52C936.407 1241.94 931.55 1226.36 926.395 1209.98C917.346 1181.03 908.07 1151.43 931.072 1129.95C932.177 1128.81 933.729 1128.08 935.416 1127.91C937.103 1127.74 938.8 1128.15 940.163 1129.05C940.776 1129.49 941.275 1130.04 941.625 1130.67C941.975 1131.3 942.168 1131.99 942.191 1132.69C942.215 1133.39 942.068 1134.09 941.76 1134.74C941.453 1135.38 940.992 1135.96 940.41 1136.44C922.112 1153.47 930.639 1180.42 938.932 1206.73C944.412 1224.09 949.614 1240.58 947.994 1255.09C944.969 1282.38 924.637 1332.13 888.329 1351.56Z" fill="white"/>
<path d="M840.222 1374.88C833.37 1378.49 825.89 1381.07 818.086 1382.52C773.175 1391.17 716.093 1368.4 689.24 1351.52C675.184 1342.66 662.806 1325.96 649.853 1308.52C629.667 1281.31 609.247 1253.74 583.499 1257.22C582.847 1257.3 582.181 1257.26 581.547 1257.1C580.913 1256.94 580.324 1256.66 579.818 1256.29C579.313 1255.91 578.902 1255.45 578.614 1254.92C578.325 1254.4 578.164 1253.82 578.143 1253.24C578.047 1252.01 578.459 1250.8 579.301 1249.82C580.142 1248.85 581.356 1248.18 582.714 1247.94C614.443 1243.56 637.711 1274.73 658.695 1302.86C671.161 1319.58 683.096 1335.55 695.589 1343.34C719.96 1358.53 774.581 1380.36 815.408 1372.34C822.961 1371.07 830.114 1368.36 836.379 1364.41C842.645 1360.46 847.873 1355.36 851.709 1349.45C852.556 1348.23 853.894 1347.33 855.455 1346.94C857.016 1346.56 858.685 1346.71 860.125 1347.37C860.829 1347.68 861.453 1348.12 861.958 1348.66C862.464 1349.2 862.842 1349.82 863.068 1350.49C863.293 1351.16 863.363 1351.86 863.272 1352.56C863.182 1353.26 862.933 1353.93 862.54 1354.53C857.167 1362.88 849.486 1369.88 840.222 1374.88Z" fill="white"/>
<path d="M1610.14 954.725H641.126C636.787 954.725 633.271 957.844 633.271 961.691V1533.27C633.271 1537.12 636.787 1540.23 641.126 1540.23H1610.14C1614.48 1540.23 1618 1537.12 1618 1533.27V961.691C1618 957.844 1614.48 954.725 1610.14 954.725Z" fill="#740945"/>
<path d="M1527.55 993.517H678.618V1495.38H1527.55V993.517Z" fill="white"/>
<path d="M1587.37 1247.48C1587.37 1250.6 1586.33 1253.65 1584.37 1256.25C1582.42 1258.85 1579.64 1260.87 1576.38 1262.07C1573.13 1263.26 1569.55 1263.57 1566.1 1262.96C1562.64 1262.35 1559.47 1260.85 1556.98 1258.64C1554.49 1256.44 1552.8 1253.62 1552.11 1250.56C1551.42 1247.5 1551.77 1244.32 1553.12 1241.44C1554.47 1238.55 1556.75 1236.09 1559.68 1234.35C1562.61 1232.62 1566.05 1231.69 1569.57 1231.69C1571.91 1231.69 1574.22 1232.1 1576.38 1232.89C1578.54 1233.69 1580.51 1234.85 1582.16 1236.32C1583.81 1237.78 1585.12 1239.52 1586.02 1241.44C1586.91 1243.35 1587.37 1245.41 1587.37 1247.48Z" fill="white"/>
<path d="M1352.31 1093.24H854.116C849.679 1093.24 846.083 1096.43 846.083 1100.36V1394.6C846.083 1398.54 849.679 1401.73 854.116 1401.73H1352.31C1356.74 1401.73 1360.34 1398.54 1360.34 1394.6V1100.36C1360.34 1096.43 1356.74 1093.24 1352.31 1093.24Z" fill="#E5E6ED"/>
<path d="M1336.96 1117.81H869.459V1377.15H1336.96V1117.81Z" fill="#00E9D3"/>
<path d="M1016.4 1165.72V1336.28L1203.63 1251L1016.4 1165.72Z" fill="#D6184F"/>
<path d="M1110.62 951.475C1110.62 951.475 991.793 950.89 950.069 926.223C908.345 901.555 901.059 803.48 961.661 763.392C1022.26 723.304 1034.83 710.974 1037.48 684.547C1040.14 658.12 1039.51 598.156 1117.98 597.894C1194.96 597.641 1188.32 653.56 1194.18 689.143C1198.25 713.919 1236.69 750.484 1270.34 773.298C1313.57 802.596 1361.91 976.143 1110.62 951.475Z" fill="#4E13D1"/>
<path d="M1096.9 666.92L1122.74 667.638L1148.57 668.363C1148.57 668.363 1153.8 730.984 1167.01 738.783C1167.01 738.783 1181.04 812.978 1117.65 811.212C1040.95 809.077 1073.51 736.179 1073.51 736.179C1087.25 729.126 1096.9 666.92 1096.9 666.92Z" fill="#E45940"/>
<path d="M1010.53 954.315H1218.95L1236.47 894.408C1239.21 833.675 1240.18 771.683 1240.18 771.683C1210.35 750.338 1162.5 735.009 1162.5 735.009C1137.39 751.877 1099.17 753.414 1075.17 735.009C1075.17 735.009 1027.8 752.255 996.692 771.683C996.692 771.683 990.422 797.361 993.533 837.853C996.588 876.939 1002.26 915.828 1010.53 954.315Z" fill="#FC7171"/>
<path d="M1314.33 954.315C1298.39 883.133 1283.56 838.008 1270.49 811.243C1253.41 776.276 1240.18 771.683 1240.18 771.683C1224.97 770.456 1213.42 883.702 1187.3 954.315H1314.33Z" fill="#FC7171"/>
<path d="M1218.18 851.488C1214.1 861.475 1206.8 869.607 1199.69 878.557C1193.24 886.682 1175.54 931.7 1106.19 927.43C1077.52 925.664 1050.99 900.524 1039.15 875.062C1034.3 864.606 1032.06 854.442 1029.48 843.381C1027.63 835.465 1027.04 825.179 1022.43 818.211C1013.78 820.156 1012.82 831.647 1009.76 838.294C1007.88 842.385 995.33 857.817 994.333 846.243C997.485 882.499 1002.9 918.573 1010.54 954.3H1234.55C1230.29 912.614 1217.8 864.213 1218.18 851.488Z" fill="#F26161"/>
<path d="M1180.16 677.985C1172.74 670.882 1164.55 682.235 1164.55 682.235C1166.6 673.335 1167.89 664.309 1168.41 655.236C1151.29 646.825 1134 637.024 1117.8 632.601V632.498L1117.64 632.549L1117.49 632.498V632.601C1101.29 637.022 1083.99 646.825 1066.87 655.236C1067.39 664.31 1068.69 673.335 1070.75 682.235C1070.75 682.235 1062.54 670.884 1055.12 677.985C1047.7 685.086 1066.03 704.032 1070.24 706.364C1070.24 706.364 1085.34 738.986 1104.36 749.829C1109.3 752.643 1124.38 753.398 1131.7 749.207C1150.73 738.305 1165.04 706.364 1165.04 706.364C1169.26 704.032 1187.58 685.086 1180.16 677.985Z" fill="#FCCAEA"/>
<path d="M1168.35 643.566C1168.35 643.566 1142.31 684.388 1077.87 680.496C1077.87 680.496 1081.02 685.331 1077.18 694.098C1077.18 694.098 1072.54 678.012 1062.57 683.03C1057.34 685.65 1057.23 692.325 1062.67 699.376C1065.13 702.553 1046.85 696.696 1046.85 696.696C1046.85 696.696 1039.31 634.583 1085.72 620.455C1132.13 606.327 1168.35 643.566 1168.35 643.566Z" fill="#4E13D1"/>
<path d="M1146.84 622.245C1146.21 625.172 1145.88 628.142 1145.85 631.121C1145.95 637.452 1135.65 641.966 1135.38 648.268C1136.8 649.641 1138.21 651.135 1139.61 652.689C1148.25 662.32 1152.05 667.821 1155.12 679.821C1155.97 683.15 1153.87 685.545 1159.74 694.63C1159.74 694.63 1164.23 678.476 1175.37 680.878C1177.55 681.347 1181.9 684.27 1178.06 692.332C1176.67 695.255 1189.6 680.312 1189.6 680.312C1189.6 680.312 1189.16 620.968 1146.84 622.245Z" fill="#4E13D1"/>
<path d="M1056.7 1227.88C1059.16 1232.87 1071.99 1240.5 1067.45 1247.26C1065.17 1250.66 1053.57 1243.48 1051.02 1240.56C1047.41 1236.42 1022.48 1202.11 1018.56 1192.21C1015.49 1184.46 1012.61 1176.9 1009.17 1169.8C1018.3 1164.85 1026.67 1158.9 1034.11 1152.08C1046.85 1157.28 1060.37 1164.51 1072.91 1169.38C1079.62 1172 1087 1173.82 1093.83 1176.06C1098.15 1177.49 1107.34 1179.56 1107.73 1184.68C1108.18 1190.31 1098.93 1188.65 1095.28 1187.99C1090.01 1187.06 1080.34 1182.6 1076.61 1187.95C1071.2 1195.73 1087.59 1204.76 1093.1 1210.06C1098.22 1214.99 1116.97 1230.15 1103.26 1231.37C1100.37 1231.62 1080.9 1216.78 1077.85 1214.82C1078.47 1215.52 1090.97 1226.24 1091.59 1226.98C1094.8 1230.83 1104.17 1238.87 1101.37 1242.83C1095.39 1251.32 1074.83 1228.93 1071.7 1225.94C1071.66 1225.91 1079.54 1234.8 1079.5 1234.76C1086.17 1241.47 1090.35 1247.13 1084.73 1249.24C1077.66 1251.89 1062.88 1233.52 1056.7 1227.88Z" fill="#FCCAEA"/>
<path d="M1053.93 1159.28L1011.34 1184.45C1011.34 1184.45 877.155 1030.34 891.741 972.148C909.007 903.295 954.023 826.325 978.856 790.524C988.472 776.662 996.701 771.681 996.701 771.681C1022.3 793.511 1036.94 823.972 1033.63 851.34C1032.15 863.564 1025.47 871.524 1018.08 883.975C995.433 922.073 967.747 988.13 968.657 994.844C970.105 1005.63 1053.93 1159.28 1053.93 1159.28Z" fill="#FC7171"/>
<path d="M401.606 542.546C402.63 544.399 403.808 546.182 405.129 547.88L397.585 556.648L420.9 572.42L428.444 563.651C430.641 564.321 432.888 564.857 435.168 565.257L436.819 576.175L465.87 572.709L464.217 561.792C466.307 560.884 468.318 559.839 470.234 558.667L480.122 565.357L497.907 544.679L488.019 537.989C488.774 536.04 489.379 534.048 489.83 532.027L502.141 530.56L498.232 504.798L485.921 506.265C484.897 504.411 483.719 502.627 482.396 500.928L489.942 492.162L466.625 476.389L459.081 485.157C456.883 484.488 454.637 483.953 452.356 483.554L450.706 472.637L421.654 476.102L423.305 487.02C421.215 487.928 419.204 488.973 417.288 490.146L407.4 483.456L389.615 504.134L399.502 510.823C398.748 512.772 398.144 514.765 397.694 516.787L385.381 518.252L389.288 544.012L401.606 542.546ZM414.471 527.883C413.694 522.748 414.65 517.524 417.22 512.871C419.791 508.219 423.86 504.347 428.911 501.745C433.963 499.143 439.772 497.927 445.602 498.252C451.433 498.577 457.023 500.428 461.668 503.57C466.313 506.713 469.803 511.007 471.696 515.908C473.589 520.809 473.801 526.099 472.304 531.106C470.808 536.114 467.671 540.616 463.289 544.043C458.908 547.47 453.479 549.668 447.689 550.358C443.843 550.817 439.934 550.599 436.183 549.718C432.433 548.837 428.915 547.309 425.831 545.222C422.746 543.135 420.156 540.53 418.207 537.556C416.258 534.581 414.989 531.294 414.473 527.884L414.471 527.883ZM536.561 483.01C537.201 484.173 537.938 485.292 538.765 486.359L534.036 491.873L548.692 501.803L553.421 496.289C554.8 496.718 556.215 497.054 557.651 497.294L558.693 504.162L576.968 501.989L575.927 495.117C577.238 494.549 578.501 493.897 579.705 493.165L585.921 497.357L597.118 484.359L590.901 480.167C591.383 478.941 591.76 477.683 592.027 476.407L599.776 475.484L597.323 459.276L589.576 460.201C588.935 459.038 588.198 457.918 587.371 456.85L592.1 451.336L577.442 441.408L572.715 446.921C571.335 446.491 569.921 446.156 568.484 445.916L567.444 439.045L549.168 441.221L550.21 448.09C548.897 448.657 547.634 449.311 546.43 450.044L540.212 445.85L529.017 458.847L535.249 463.054C534.765 464.277 534.386 465.532 534.115 466.806L526.368 467.73L528.82 483.938L536.561 483.01ZM544.658 473.79C544.168 470.561 544.77 467.275 546.387 464.349C548.003 461.423 550.562 458.988 553.739 457.351C556.916 455.714 560.569 454.95 564.236 455.154C567.903 455.359 571.42 456.523 574.341 458.5C577.262 460.476 579.457 463.177 580.647 466.259C581.838 469.342 581.97 472.668 581.029 475.818C580.087 478.967 578.114 481.799 575.358 483.954C572.603 486.109 569.188 487.491 565.546 487.925C563.128 488.214 560.669 488.078 558.311 487.524C555.952 486.97 553.739 486.009 551.799 484.696C549.86 483.384 548.231 481.745 547.005 479.874C545.78 478.003 544.983 475.936 544.659 473.792L544.658 473.79Z" fill="#E9C732"/>
<path d="M526.972 640.353C530.099 643.544 534.224 645.841 538.823 646.953C543.422 648.065 548.29 647.942 552.81 646.601C557.331 645.259 561.302 642.759 564.22 639.417C567.138 636.074 568.874 632.039 569.206 627.822C569.539 623.605 568.454 619.395 566.088 615.725C563.723 612.055 560.184 609.09 555.917 607.203C551.651 605.317 546.85 604.595 542.121 605.129C537.392 605.662 532.947 607.427 529.349 610.2C526.959 612.041 525.002 614.281 523.589 616.793C522.176 619.305 521.335 622.04 521.114 624.84C520.894 627.64 521.297 630.451 522.302 633.113C523.307 635.775 524.894 638.235 526.972 640.353Z" fill="#B95E89"/>
<path d="M2189.18 1287.24C2195.3 1243.06 2159.89 1202.85 2110.08 1197.43C2060.28 1192 2014.95 1223.41 2008.83 1267.59C2002.71 1311.77 2038.12 1351.98 2087.92 1357.4C2137.72 1362.83 2183.06 1331.42 2189.18 1287.24Z" fill="#FF7171"/>
<path d="M2101.08 1291.88L2126.6 1330.79C2127.01 1331.48 2127.58 1332.09 2128.27 1332.58C2128.96 1333.06 2129.75 1333.42 2130.6 1333.64C2131.44 1333.85 2132.33 1333.91 2133.2 1333.81C2134.08 1333.71 2134.92 1333.45 2135.68 1333.06C2136.44 1332.67 2137.1 1332.14 2137.63 1331.52C2138.16 1330.89 2138.54 1330.18 2138.75 1329.42C2138.95 1328.66 2138.99 1327.87 2138.85 1327.1C2138.7 1326.33 2138.39 1325.59 2137.92 1324.93L2112.4 1286.01C2121.21 1279.75 2127.02 1270.77 2128.67 1260.87C2130.32 1250.96 2127.68 1240.87 2121.29 1232.62C2114.9 1224.37 2105.22 1218.57 2094.2 1216.39C2083.19 1214.2 2071.64 1215.79 2061.9 1220.84C2052.15 1225.89 2044.91 1234.02 2041.65 1243.6C2038.38 1253.18 2039.32 1263.51 2044.28 1272.5C2049.24 1281.49 2057.85 1288.49 2068.39 1292.08C2078.92 1295.68 2090.6 1295.6 2101.08 1291.88H2101.08ZM2057.19 1269.23C2054.04 1264.43 2052.57 1258.91 2052.95 1253.37C2053.34 1247.82 2055.57 1242.51 2059.37 1238.09C2063.16 1233.67 2068.35 1230.35 2074.27 1228.55C2080.2 1226.74 2086.59 1226.54 2092.64 1227.96C2098.7 1229.38 2104.14 1232.36 2108.29 1236.52C2112.43 1240.68 2115.09 1245.84 2115.93 1251.35C2116.77 1256.85 2115.74 1262.45 2112.99 1267.44C2110.24 1272.43 2105.88 1276.58 2100.47 1279.37C2093.21 1283.1 2084.58 1284.12 2076.47 1282.22C2068.36 1280.32 2061.43 1275.65 2057.2 1269.23L2057.19 1269.23Z" fill="#F5F6F8"/>
<path d="M1814.2 1292.16C1826.54 1292.16 1836.54 1283.29 1836.54 1272.35C1836.54 1261.4 1826.54 1252.53 1814.2 1252.53C1801.86 1252.53 1791.86 1261.4 1791.86 1272.35C1791.86 1283.29 1801.86 1292.16 1814.2 1292.16Z" fill="#B95E89"/>
<path d="M282.225 1107.68C283.629 1106.12 284.898 1104.47 286.021 1102.75L297.79 1104.95L303.652 1080.34L291.882 1078.13C291.638 1076.15 291.231 1074.19 290.665 1072.26L300.73 1066.45L285.243 1045.37L275.176 1051.18C273.421 1049.93 271.562 1048.81 269.613 1047.81L272.097 1037.38L244.343 1032.18L241.858 1042.61C239.622 1042.84 237.408 1043.2 235.233 1043.71L228.665 1034.78L204.897 1048.52L211.46 1057.44C210.054 1059 208.785 1060.65 207.664 1062.37L195.895 1060.17L190.033 1084.79L201.803 1086.99C202.05 1088.97 202.461 1090.94 203.034 1092.86L192.968 1098.68L208.454 1119.76L218.52 1113.96C220.276 1115.2 222.136 1116.33 224.086 1117.33L221.6 1127.76L249.356 1132.96L251.839 1122.52C254.075 1122.3 256.29 1121.94 258.467 1121.43L265.014 1130.35L288.785 1116.62L282.225 1107.68ZM262.437 1103.79C257.7 1106.52 252.154 1107.95 246.501 1107.9C240.848 1107.84 235.34 1106.29 230.676 1103.46C226.012 1100.63 222.401 1096.63 220.298 1091.98C218.196 1087.32 217.697 1082.22 218.864 1077.31C220.032 1072.41 222.814 1067.92 226.858 1064.42C230.902 1060.91 236.026 1058.55 241.583 1057.63C247.141 1056.71 252.882 1057.27 258.08 1059.24C263.278 1061.22 267.699 1064.51 270.785 1068.71C274.92 1074.35 276.363 1081.21 274.797 1087.78C273.232 1094.36 268.785 1100.12 262.435 1103.79H262.437ZM167.511 1027.82C168.39 1026.84 169.19 1025.8 169.902 1024.72L177.308 1026.1L181.001 1010.62L173.594 1009.23C173.439 1007.99 173.182 1006.75 172.826 1005.54L179.155 1001.88L169.418 988.614L163.09 992.273C161.985 991.488 160.815 990.778 159.59 990.151L161.152 983.583L143.697 980.308L142.133 986.876C140.721 987.014 139.323 987.241 137.948 987.555L133.822 981.945L118.885 990.575L123.01 996.185C122.126 997.166 121.328 998.204 120.62 999.291L113.21 997.905L109.517 1013.39L116.925 1014.77C117.082 1016.02 117.338 1017.26 117.693 1018.48L111.364 1022.14L121.1 1035.39L127.43 1031.73C128.534 1032.51 129.704 1033.22 130.93 1033.85L129.366 1040.42L146.825 1043.7L148.386 1037.13C149.797 1036.99 151.196 1036.76 152.571 1036.45L156.696 1042.06L171.637 1033.42L167.511 1027.82ZM155.068 1025.37C152.089 1027.09 148.602 1027.99 145.048 1027.95C141.493 1027.91 138.032 1026.94 135.1 1025.16C132.168 1023.38 129.898 1020.87 128.576 1017.94C127.255 1015.02 126.942 1011.81 127.676 1008.72C128.411 1005.64 130.159 1002.82 132.702 1000.62C135.245 998.414 138.467 996.929 141.961 996.351C145.455 995.773 149.064 996.126 152.332 997.367C155.599 998.608 158.378 1000.68 160.318 1003.32C162.916 1006.86 163.822 1011.17 162.839 1015.3C161.855 1019.44 159.062 1023.05 155.072 1025.36L155.068 1025.37Z" fill="#00EBD5"/>
<path d="M244.585 889.847C241.444 889.321 139.371 886.218 139.371 886.218L134.746 899.564L244.585 889.847Z" fill="#E9B4DE"/>
<path d="M134.736 899.564L148.428 936.817L244.575 889.848L134.736 899.564Z" fill="#B95E89"/>
<path d="M148.427 936.817L244.575 889.848L128.266 914.973L148.427 936.817Z" fill="#CD99C2"/>
<path d="M128.267 914.973L244.573 889.848L121.701 938.201L128.267 914.973Z" fill="#E9B4DE"/>
<path d="M166.219 1175.56C166.218 1177.83 166.974 1180.04 168.391 1181.92C169.807 1183.8 171.821 1185.26 174.177 1186.13C176.533 1187 179.126 1187.22 181.627 1186.78C184.129 1186.34 186.426 1185.25 188.23 1183.65C190.034 1182.05 191.263 1180.02 191.76 1177.8C192.258 1175.58 192.002 1173.28 191.026 1171.19C190.05 1169.1 188.397 1167.32 186.277 1166.06C184.156 1164.8 181.663 1164.13 179.113 1164.13C175.693 1164.13 172.415 1165.34 169.997 1167.48C167.579 1169.62 166.219 1172.53 166.219 1175.56Z" fill="#B95E89"/>
</g>
<defs>
<clipPath id="clip0">
<rect width="2158" height="1612" fill="white"/>
</clipPath>
</defs>
</svg>
