<svg xmlns="http://www.w3.org/2000/svg" xmlns:xlink="http://www.w3.org/1999/xlink" width="579.57" height="487.16" viewBox="0 0 579.57 487.16">
  <defs>
    <clipPath id="clip-path">
      <path id="SVGID" d="M830.779,2430.989H980.525c14.67,0,24.667-13.309,22.329-29.726L967.782,2142.21c-2.338-16.417-16.126-29.726-30.8-29.726H787.24c-14.67,0-24.667,13.309-22.329,29.726l35.071,259.052C802.321,2417.68,816.109,2430.989,830.779,2430.989Z" transform="translate(-764.573 -2112.484)" fill="none"/>
    </clipPath>
    <clipPath id="clip-path-2">
      <path id="Trazado_793" data-name="Trazado 793" d="M747.371,2133.435H903.418c9.142,0,221.305-249.188,219.848-259.42l27.157-160.4c-1.457-10.231-113.25-20.639-122.392-20.639l-203.384,74.194c-65.691,0-165.43,99.966-163.973,110.2l67.505,237.541C729.636,2125.14,738.229,2133.435,747.371,2133.435Z" transform="translate(-660.658 -1692.977)" fill="none"/>
    </clipPath>
    <linearGradient id="linear-gradient" x1="0.153" y1="-0.179" x2="0.191" y2="0.907" gradientUnits="objectBoundingBox">
      <stop offset="0" stop-color="#758eb7"/>
      <stop offset="1" stop-color="#a6cad1"/>
    </linearGradient>
    <linearGradient id="linear-gradient-2" x1="-5.423" y1="-17.552" x2="-4.402" y2="-17.552" gradientUnits="objectBoundingBox">
      <stop offset="0" stop-color="#758eb7"/>
      <stop offset="0.268" stop-color="#7891b8"/>
      <stop offset="0.52" stop-color="#819dbd"/>
      <stop offset="0.763" stop-color="#90afc5"/>
      <stop offset="1" stop-color="#a6cad1"/>
    </linearGradient>
    <linearGradient id="linear-gradient-3" x1="-1.94" y1="-17.261" x2="-0.918" y2="-17.261" xlink:href="#linear-gradient-2"/>
    <linearGradient id="linear-gradient-4" x1="-1.994" y1="-17.3" x2="-0.973" y2="-17.3" xlink:href="#linear-gradient-2"/>
  </defs>
  <g id="Grupo_410" data-name="Grupo 410" transform="translate(-409.307 -1692.977)">
    <ellipse id="Elipse_32" data-name="Elipse 32" cx="246.987" cy="23.371" rx="246.987" ry="23.371" transform="translate(417.671 2133.396)" fill="#e6e7e8" style="mix-blend-mode: multiply;isolation: isolate"/>
    <g id="Grupo_289" data-name="Grupo 289" transform="translate(417.961 1756.396)" opacity="0.25">
      <path id="Trazado_744" data-name="Trazado 744" d="M616.655,2091.548c-1.52-2.238-3.076-4.429-4.626-6.512l1.614-1.2c1.567,2.106,3.14,4.321,4.676,6.583Zm-6.639-9.164c-1.658-2.139-3.356-4.218-5.046-6.177l1.523-1.314c1.712,1.986,3.432,4.092,5.112,6.259Zm-7.246-8.67c-1.812-2-3.669-3.935-5.52-5.739l1.4-1.44c1.881,1.834,3.768,3.8,5.608,5.831Zm-7.929-8.022c-1.976-1.82-4.008-3.559-6.04-5.169l1.25-1.576c2.07,1.64,4.14,3.412,6.153,5.265Zm-8.67-7.184c-2.144-1.586-4.355-3.084-6.573-4.452l1.056-1.712c2.266,1.4,4.524,2.928,6.713,4.547Zm-9.422-6.138c-2.292-1.3-4.67-2.515-7.069-3.609l.835-1.83c2.452,1.118,4.884,2.359,7.227,3.69Zm-10.106-4.928c-2.4-.99-4.91-1.906-7.466-2.723l.612-1.916c2.609.833,5.174,1.769,7.622,2.78ZM556,2043.759c-2.464-.7-4.994-1.336-7.735-1.932l.428-1.966c2.783.605,5.354,1.248,7.86,1.963Zm-11-2.606c-2.362-.462-4.868-.9-7.887-1.388l.319-1.986c3.042.488,5.57.933,7.955,1.4Zm-11.192-1.905-2.781-.424q-2.608-.4-5.175-.8l.315-1.987c1.707.271,3.427.532,5.162.8l2.784.424Zm-11.274-1.765c-2.993-.51-5.591-1.013-7.944-1.542l.441-1.963c2.319.52,4.884,1.018,7.841,1.521Zm-11.241-2.336a78.228,78.228,0,0,1-7.764-2.42l.7-1.885a76.234,76.234,0,0,0,7.566,2.358Zm-10.916-3.688a58.372,58.372,0,0,1-7.24-3.752l1.051-1.716a56.2,56.2,0,0,0,6.99,3.621Zm-10.087-5.618a57.471,57.471,0,0,1-6.321-5.142l1.376-1.467a55.5,55.5,0,0,0,6.1,4.962Zm-8.734-7.534c-1.518-1.589-3.009-3.318-4.434-5.14q-.42-.536-.829-1.072l1.6-1.223q.4.528.817,1.056c1.383,1.77,2.831,3.448,4.3,4.989Zm-7.282-8.921c-1.6-2.208-3.129-4.468-4.544-6.719l1.7-1.071c1.392,2.213,2.9,4.436,4.47,6.609Zm-6.3-9.608c-1.389-2.358-2.688-4.762-3.861-7.142l1.8-.889c1.151,2.336,2.426,4.7,3.789,7.011Zm-5.307-10.2c-1.133-2.506-2.154-5.044-3.034-7.543l1.9-.669c.861,2.445,1.86,4.929,2.97,7.383Zm-4.1-10.763c-.367-1.187-.705-2.375-1.014-3.558a24.55,24.55,0,0,1-2.563.735l-.446-1.962a22.581,22.581,0,0,0,2.525-.735q-.176-.754-.334-1.5-.093-.437-.179-.872l1.973-.393q.084.423.174.849.123.583.258,1.169,1.369-.6,2.77-1.381l.979,1.757a34.307,34.307,0,0,1-3.267,1.606c.315,1.227.665,2.461,1.046,3.693Zm-7.072-2.34a13.663,13.663,0,0,1-8.252-2.134l1.1-1.683a11.69,11.69,0,0,0,7.063,1.807Zm14.144-5.354-1.124-1.668a46.5,46.5,0,0,0,6.121-4.951l1.39,1.454A48.53,48.53,0,0,1,465.642,1971.116Zm-25.118.865a20.947,20.947,0,0,1-4.068-7.338l1.905-.645a18.969,18.969,0,0,0,3.659,6.639Zm17.441-4.711-1.99.3a60.894,60.894,0,0,1-.679-8.148l2.012-.026A58.881,58.881,0,0,0,457.965,1967.27Zm16.458-3.765-1.484-1.358a43.658,43.658,0,0,0,4.786-6.236l1.7,1.068A45.678,45.678,0,0,1,474.423,1963.5Zm6.7-9.534-1.8-.9a18.873,18.873,0,0,0,2.158-7.27l2.009.1A20.826,20.826,0,0,1,481.122,1953.971Zm-45.6,7.351-.221-1.007c-.5-2.351-.9-4.706-1.182-7l2-.25c.28,2.237.668,4.536,1.154,6.832l.213.973Zm21.853-5.213-2.009-.11a39.593,39.593,0,0,1,1.253-8.146l1.942.525A37.606,37.606,0,0,0,457.374,1956.109Zm23.8-13.288a6.933,6.933,0,0,0-3.137-4.041c-.573-.356-1.151-.679-1.719-.959l.89-1.8c.627.309,1.263.664,1.892,1.054a8.886,8.886,0,0,1,4.008,5.193Zm-21.593,2.493-1.865-.753a18.967,18.967,0,0,1,4.649-7.022l1.355,1.486A16.99,16.99,0,0,0,459.581,1945.314Zm-23.806,4.466-2.005.163a72.034,72.034,0,0,1-.2-8.132l2.011.066A70.009,70.009,0,0,0,435.775,1949.78Zm37.6-13.072a10.109,10.109,0,0,0-7.144.588l-.885-1.807a12.122,12.122,0,0,1,8.537-.728Zm-37.612,1.879-2-.168a64.04,64.04,0,0,1,1.192-8.061l1.967.422A61.978,61.978,0,0,0,435.768,1938.587Zm1.932-11.006-1.941-.529a61.851,61.851,0,0,1,2.663-7.712l1.854.781A59.891,59.891,0,0,0,437.7,1927.581Zm3.936-10.46-1.809-.88a65.5,65.5,0,0,1,4.027-7.1l1.685,1.1A63.566,63.566,0,0,0,441.636,1917.121Zm5.775-9.6-1.628-1.181a74.435,74.435,0,0,1,5.148-6.322l1.489,1.353A72.413,72.413,0,0,0,447.411,1907.524Zm7.288-8.552-1.431-1.415c1.864-1.884,3.881-3.738,6-5.51l1.292,1.542C458.489,1895.321,456.519,1897.132,454.7,1898.972Zm8.44-7.469-1.237-1.587c2.088-1.626,4.312-3.22,6.612-4.738l1.108,1.679C467.367,1888.345,465.185,1889.909,463.139,1891.5Zm9.288-6.435-1.057-1.712c2.263-1.4,4.638-2.752,7.059-4.028l.938,1.779C476.987,1882.363,474.651,1883.7,472.427,1885.068Zm9.91-5.475-.89-1.8c2.412-1.191,4.9-2.323,7.4-3.366l.776,1.856C487.163,1877.307,484.712,1878.421,482.337,1879.593Zm10.38-4.561-.727-1.875c3.39-1.313,6.062-2.181,7.707-2.679l.582,1.926C498.667,1872.891,496.047,1873.742,492.716,1875.032Z" transform="translate(-433.53 -1870.478)" fill="#ff7171"/>
    </g>
    <g id="Grupo_290" data-name="Grupo 290" transform="translate(489.63 1734.54)">
      <path id="Trazado_745" data-name="Trazado 745" d="M635.209,1833.559l14.943,22.558,52.089-31.261-56.394,1.656Z" transform="translate(-634.821 -1819.3)" fill="#c14646"/>
      <path id="Trazado_746" data-name="Trazado 746" d="M641.07,1809.306l61.172,5.556-67.032,8.7Z" transform="translate(-634.821 -1809.306)" fill="#ff7171"/>
      <path id="Trazado_747" data-name="Trazado 747" d="M701.543,1824.855,635.2,1855.822l-1.078-16.326Z" transform="translate(-634.122 -1819.3)" fill="#ff7171"/>
    </g>
    <g id="Grupo_293" data-name="Grupo 293" transform="translate(409.307 2007.197)">
      <g id="Grupo_291" data-name="Grupo 291" transform="translate(51.475 0)">
        <path id="Trazado_748" data-name="Trazado 748" d="M556.717,2621.429l9.17,7.3-7.734-.614c13.573,57.687,51.755,93.388,56.452,53.07a68.681,68.681,0,0,0-2.329-26.063l-4.506,3.968L610,2647.962c-14.541-40.429-55.937-75.526-55.937-75.526A172.72,172.72,0,0,0,556.717,2621.429Z" transform="translate(-553.377 -2572.436)" fill="#4e01d4"/>
        <path id="Trazado_749" data-name="Trazado 749" d="M625.762,2743.394l-20.539-50.95c-3.463-8.475-6.738-17.025-10.434-25.419-3.7-8.37-8.065-16.546-13.881-23.64,5.665,7.216,9.832,15.447,13.351,23.869,3.507,8.442,6.605,17.065,9.889,25.611l19.464,51.369Z" transform="translate(-571.071 -2618.036)" fill="#fff"/>
      </g>
      <g id="Grupo_292" data-name="Grupo 292" transform="translate(0 43.728)">
        <path id="Trazado_750" data-name="Trazado 750" d="M506.6,2773.024c-2.323-17.627-2.669-45.226-10.412-45.008s-3.678,12.493-9.4,11.664-5.922-9.212-5.046-24.2-11.066-22.408-17.762-20.171,4.856,23.129-.8,27.607-6.012-21.394-19.8-25.993-18.968-1.434-13.04,7.58,9.277,15.521,1.3,16.174-20.588-6.564-22.227,4.219,17.509,6.033,18.1,16-14.841,12.5-14.679,18.363,13.463,8.347,21.151,2.381,13.831-11.978,17.848-5.672-10.926,7.089-12.374,15.115,23.978,4.01,34.1-1.886,9.276.269,4.172,4.762c-8.814,7.761,3.455,7.534,11.742,2.882C497.893,2772.108,507.987,2783.563,506.6,2773.024Z" transform="translate(-409.307 -2694.826)" fill="#d90452"/>
        <path id="Trazado_751" data-name="Trazado 751" d="M525.211,2787.163a5.105,5.105,0,0,0,.9-2.094c.037-.172.076-.341.117-.5.3-1.178.56-2.363.769-3.525a29.223,29.223,0,0,0,.666-8.023.516.516,0,0,0-1.027.1,28.405,28.405,0,0,1-.653,7.738c-.2,1.136-.46,2.3-.755,3.454-.043.169-.083.348-.124.531a4.574,4.574,0,0,1-.61,1.577,81.446,81.446,0,0,0-6.2-5.842c-.008-.009,0-.022-.013-.03s-.029-.007-.041-.017a85.938,85.938,0,0,0-7.254-5.627,68.439,68.439,0,0,0-8.233-4.717,8.852,8.852,0,0,0,2.481-4.261,42.225,42.225,0,0,0,1.564-17.823.516.516,0,0,0-1.023.132,41.214,41.214,0,0,1-1.523,17.385,7.26,7.26,0,0,1-2.5,4.058c-.24-.118-.517-.27-.751-.384a140.157,140.157,0,0,0-22.643-8.956,28.526,28.526,0,0,0-.111-8.5,28.834,28.834,0,0,0-.883-3.033l-1.567-4.724a.517.517,0,0,0-.981.327l1.568,4.723a27.338,27.338,0,0,1,.854,2.924,27.035,27.035,0,0,1,.109,7.992,70.622,70.622,0,0,0-17.47-2.624.516.516,0,0,0-.02,1.031h.01c9.189.08,18.1,2.4,26.379,5.518a5.833,5.833,0,0,1-.786,1.731c-1.975,3.241-4.017,6.593-6.945,9.063a23.587,23.587,0,0,1-3.289,2.281,35.806,35.806,0,0,1-10.746,4.161.515.515,0,0,0,.091,1.02.467.467,0,0,0,.122-.011,36.818,36.818,0,0,0,11.056-4.281,24.692,24.692,0,0,0,3.434-2.38c3.056-2.579,5.142-6,7.158-9.314a7.277,7.277,0,0,0,.858-1.894c4.683,1.81,9.166,3.85,13.355,5.879a75.471,75.471,0,0,1,9.847,5.531,85.212,85.212,0,0,1,6.756,5.205,56.508,56.508,0,0,1-10.129,8.686,23.269,23.269,0,0,1-12.711,3.877,1.571,1.571,0,0,1-.276-.01.515.515,0,0,0-.038,1.03c.092,0,.187.008.28.01a23.952,23.952,0,0,0,13.291-4.033,57.809,57.809,0,0,0,10.368-8.886c9.9,8.562,17.2,18.917,20.86,29.906a.512.512,0,0,0,.473.352.5.5,0,0,0,.178-.027.513.513,0,0,0,.325-.651A67.073,67.073,0,0,0,525.211,2787.163Z" transform="translate(-441.482 -2726.255)" fill="#fdfdfd"/>
      </g>
    </g>
    <g id="Grupo_296" data-name="Grupo 296" transform="translate(817.661 2030.847)">
      <g id="Grupo_294" data-name="Grupo 294" transform="translate(8.339 27.647)">
        <path id="Trazado_752" data-name="Trazado 752" d="M1579.991,2783.174c4.354-15.981,8.133-41.415,15.253-40.243s1.829,11.994,7.216,11.946,6.622-7.761,7.692-21.708,13.024-19.3,18.926-16.394-7.382,20.743-2.723,25.585,8.231-19,21.54-21.512,17.69,1.054,11.087,8.631-10.509,13.165-3.227,14.768,19.828-3.479,19.989,6.681-16.919,3.375-18.718,12.5,12.133,13.4,11.249,18.791-13.475,6.019-19.824-.453-11.266-12.791-15.765-7.474,9.2,7.914,9.528,15.5-22.637.7-31.238-6.015-8.6-.915-4.449,3.874c7.163,8.269-4.134,6.521-11.2,1.188C1588.141,2783.42,1577.388,2792.729,1579.991,2783.174Z" transform="translate(-1578.157 -2716.01)" fill="#d90452"/>
        <path id="Trazado_753" data-name="Trazado 753" d="M1592.094,2802.736a4.747,4.747,0,0,1-.572-2.046c-.013-.164-.028-.324-.045-.479-.129-1.125-.221-2.252-.268-3.351a27.241,27.241,0,0,1,.391-7.49.481.481,0,0,1,.935.223,26.457,26.457,0,0,0-.367,7.225c.046,1.075.136,2.181.264,3.283.019.162.032.332.048.507a4.264,4.264,0,0,0,.365,1.533,76.137,76.137,0,0,1,6.451-4.617c.009-.007.007-.02.016-.025s.027,0,.04-.01a79.947,79.947,0,0,1,7.4-4.285,63.63,63.63,0,0,1,8.192-3.323,8.247,8.247,0,0,1-1.757-4.245,39.341,39.341,0,0,1,.791-16.65.481.481,0,1,1,.928.25,38.39,38.39,0,0,0-.773,16.24,6.763,6.763,0,0,0,1.8,4.059c.237-.078.511-.186.742-.26a130.548,130.548,0,0,1,22.025-5.429,26.579,26.579,0,0,1,1.169-7.835,26.985,26.985,0,0,1,1.2-2.689l2.039-4.164a.481.481,0,0,1,.864.424l-2.039,4.164a25.459,25.459,0,0,0-1.155,2.592,25.2,25.2,0,0,0-1.1,7.365,65.776,65.776,0,0,1,16.456-.233.48.48,0,0,1-.111.954H1656c-8.492-1.079-17.013-.055-25.043,1.786a5.457,5.457,0,0,0,.509,1.7c1.418,3.239,2.882,6.589,5.275,9.236a21.972,21.972,0,0,0,2.751,2.517,33.336,33.336,0,0,0,9.4,5.189.48.48,0,0,1-.212.93.49.49,0,0,1-.111-.024,34.341,34.341,0,0,1-9.669-5.339,23.058,23.058,0,0,1-2.871-2.628c-2.5-2.764-3.994-6.187-5.44-9.5a6.779,6.779,0,0,1-.555-1.855c-4.551,1.083-8.944,2.405-13.066,3.752a70.191,70.191,0,0,0-9.783,3.872,79.36,79.36,0,0,0-6.889,3.958,52.652,52.652,0,0,0,8.262,9.288,21.678,21.678,0,0,0,11.247,5.173,1.493,1.493,0,0,0,.256.025.48.48,0,0,1-.094.956l-.26-.025a22.323,22.323,0,0,1-11.764-5.389,53.9,53.9,0,0,1-8.457-9.5c-10.209,6.663-18.253,15.307-23.006,24.992a.478.478,0,0,1-.481.266.485.485,0,0,1-.161-.047.478.478,0,0,1-.218-.642A62.478,62.478,0,0,1,1592.094,2802.736Z" transform="translate(-1575.573 -2749.833)" fill="#fdfdfd"/>
      </g>
      <g id="Grupo_295" data-name="Grupo 295" transform="translate(0)">
        <path id="Trazado_754" data-name="Trazado 754" d="M1560.378,2734.337c14.148-7.454,46.157-9.833,46.727-20.382s-8.241-16.011-20.081-13.275c0,0,5.763-12.109,17.546-13.724s22.634-4.343,22.86-8.826-10.277-8.641-16.427-6.565c0,0,.323-15.232,11.9-16.485,14.09-1.525,18.8-8.024,15.15-11.288s-22.612-11.232-29.806,3.13-8.781,15.608-8.781,15.608-5.518.2-4.29-10.357-7.384-15.417-14.26-2.709,3.334,20,2.353,28.71-10.718,26.255-13.277,12.041-18.867-17.766-17.705,2.654S1560.378,2734.337,1560.378,2734.337Z" transform="translate(-1552.234 -2638.63)" fill="#ff7171"/>
        <path id="Trazado_755" data-name="Trazado 755" d="M1623.648,2692.191a.687.687,0,0,0-.661-.714l-6.891-.258a13,13,0,0,0-5.659.641,14.323,14.323,0,0,0-2.422,1.437,9.866,9.866,0,0,1-2.57,1.407c11.755-16.123,23.822-29.85,30.66-33.356a.689.689,0,0,0-.629-1.226c-6.422,3.294-17.392,15.465-28.433,30.2l-.006-.247a30.625,30.625,0,0,0-3.181-12.578l-.23-.454a9.189,9.189,0,0,1-1.054-2.738,9.313,9.313,0,0,1,.542-3.775.688.688,0,1,0-1.322-.378,7.972,7.972,0,0,0,.61,7.515l.225.445a29.266,29.266,0,0,1,3.036,12.009l.016.636c.009.422.018.843.043,1.263,0,.02.015.034.018.053-9.875,13.35-19.652,28.538-26.16,41.1.206-2.487-.834-4.743-1.849-6.924a22.913,22.913,0,0,1-1.537-3.909,21.505,21.505,0,0,1-.373-5.783l.259-10.42a.687.687,0,1,0-1.375-.035l-.26,10.42a22.569,22.569,0,0,0,.416,6.154,23.866,23.866,0,0,0,1.623,4.154c.992,2.133,1.93,4.148,1.713,6.442a2.614,2.614,0,0,0,.347,1.929,92.38,92.38,0,0,0-5.41,12.7.687.687,0,0,0,.353.827.792.792,0,0,0,.093.037.687.687,0,0,0,.864-.446,106.766,106.766,0,0,1,7.48-16.7.675.675,0,0,0,.5-.329c1.129-1.972,3.534-3.363,6.6-3.813a33.916,33.916,0,0,1,5.078-.223c1.122.006,2.243.013,3.36-.049,3.645-.2,6.424-1.23,8.263-3.052a.688.688,0,0,0-.97-.977c-1.59,1.579-4.071,2.472-7.37,2.655-1.089.061-2.182.054-3.276.047a34.8,34.8,0,0,0-5.285.239,12.448,12.448,0,0,0-4.822,1.708,340.542,340.542,0,0,1,20.345-31.6c1.7.06,3.1-.863,4.444-1.787a13,13,0,0,1,2.185-1.307,11.952,11.952,0,0,1,5.068-.532l6.89.258A.687.687,0,0,0,1623.648,2692.191Z" transform="translate(-1565.646 -2652.396)" fill="#fff"/>
      </g>
    </g>
    <g id="Grupo_297" data-name="Grupo 297" transform="translate(800.174 1943.988)">
      <circle id="Elipse_33" data-name="Elipse 33" cx="15.247" cy="15.247" r="15.247" transform="translate(0 10.642)" fill="#d90452"/>
      <circle id="Elipse_34" data-name="Elipse 34" cx="8.728" cy="8.728" r="8.728" transform="translate(20.192 0)" fill="#d90452"/>
    </g>
    <path id="Trazado_756" data-name="Trazado 756" d="M802.372,2433.567H952.118c14.67,0,24.667-13.309,22.329-29.727l-35.072-259.052c-2.338-16.417-16.125-29.727-30.8-29.727L766.2,2112.484c-14.67,0-32.032,15.887-29.694,32.3l35.071,259.052C773.914,2420.259,787.7,2433.567,802.372,2433.567Z" transform="translate(-210.157 -269.622)" fill="#d1d3d4"/>
    <path id="Trazado_757" data-name="Trazado 757" d="M830.779,2430.989H980.525c14.67,0,24.667-13.309,22.329-29.726L967.782,2142.21c-2.338-16.417-16.126-29.726-30.8-29.726H787.24c-14.67,0-24.667,13.309-22.329,29.726l35.071,259.052C802.321,2417.68,816.109,2430.989,830.779,2430.989Z" transform="translate(-228.334 -269.622)" fill="#fff"/>
    <path id="Trazado_758" data-name="Trazado 758" d="M849.264,2433.641H996.686c8.637,0,14.523-7.836,13.146-17.5l-34.078-238.569c-1.377-9.666-9.494-17.5-18.131-17.5H810.2c-8.637,0-14.523,7.836-13.146,17.5l34.078,238.569C832.509,2425.8,840.627,2433.641,849.264,2433.641Z" transform="translate(-249.082 -300.205)" fill="#c1d6ee"/>
    <ellipse id="Elipse_35" data-name="Elipse 35" cx="12.045" cy="7.518" rx="12.045" ry="7.518" transform="translate(668.7 2140.338)" fill="#740646"/>
    <g id="Grupo_300" data-name="Grupo 300" transform="translate(536.239 1842.862)">
      <g id="Grupo_299" data-name="Grupo 299" transform="translate(0 0)" clip-path="url(#clip-path)">
        <g id="Grupo_298" data-name="Grupo 298" transform="translate(3.678 -130.261)" style="mix-blend-mode: multiply;isolation: isolate">
          <path id="Trazado_759" data-name="Trazado 759" d="M1126.895,1846.51a26.511,26.511,0,0,0,12.257-30.037c-.1-.369-.216-.734-.334-1.1-.022-.067-.043-.134-.065-.2-.1-.3-.211-.606-.324-.9-.05-.133-.1-.266-.152-.4q-.145-.368-.3-.728-.116-.27-.237-.536c-.05-.109-.1-.217-.153-.325-.134-.285-.272-.567-.415-.845l-.036-.072v0a26.546,26.546,0,0,0-24.021-14.252l-11.862-42.515a9.165,9.165,0,0,0-17.656,4.927l.118.423-57.34,57.161-17.179,4.793a29.7,29.7,0,0,0-20.631,36.575v.009l0,.008a29.7,29.7,0,0,0,22.947,21.18l3.046,10.917h0l9.183,32.91L974.8,1968.68l-42.084-30.009a27.093,27.093,0,0,0-17.3-6.753l-26.533-.6.748-5.613a22.133,22.133,0,0,0,2.283-.735c13.616-5.24,17.838-29.158,19.148-43.359,6.9-6.529,10.573-17.763,7.619-27.608,0,0-10.1,7.267-16.531,1.63s-26.736-14.428-42.288-9.2-16.612,38.088-10.4,49.527l.036-.069a54.055,54.055,0,0,0,12.2,19.443l.614,17.5-22.352,1.43a27.1,27.1,0,0,0-23.019,16.01L776.081,2047.1a15.428,15.428,0,0,0,1.523,14.771l47.322,68.444.9-.324-.873,10.931a.05.05,0,0,1,.017-.009l-.325,4.126a12.829,12.829,0,0,0,3.891,10.248l9.134,8.792a2.9,2.9,0,0,0,4.159-.135l-2.567,4.789H960.124l-28.982-58.919,2.07.077c-3.131-16.66-5.508-85.59-6.8-132.549l40.527,20.269a19.754,19.754,0,0,0,11.987,1.833h0a22.918,22.918,0,0,0,14.687-8.883l36.392-48.57a12.619,12.619,0,0,0,21.931-11.369l-2.276-8.157.617-.514c4.483-3.8,4.869-13.564.563-17.56l-3.317-3.732c-1.837-1.7-3.266-2.53-4.653-2.53l-3.584-12.846h0l-2.614-9.369,5.671-1.582,54.469,13.309,24.184,5.917h0l.116.416a9.165,9.165,0,0,0,17.656-4.926ZM807.741,2046.073l18.3-35.485c4.807,48.609,13.322,95.781,13.322,95.781l2.027.076.135,21.062-.02-.023c-.057-.064-.11-.131-.169-.191-.02-.022-.043-.041-.063-.062a6.248,6.248,0,0,0-3.083-1.713l2.036-.736Zm34.019,113.891-3.356-3.446a5.961,5.961,0,0,1-1.358-6.126l1.8-5.146.334,3.842a1.767,1.767,0,0,0,2.653,1.373l0,9.579C841.8,2160.015,841.784,2159.989,841.76,2159.964Zm46.351,8.771,2.811-30.758,22.3,30.758Z" transform="translate(-774.867 -1747.901)" fill="#d1d3d4"/>
          <path id="Trazado_760" data-name="Trazado 760" d="M1768.281,1806.245a2.667,2.667,0,0,0,3.637-1l21.4-37.669a2.667,2.667,0,0,0-1-3.636h0a2.667,2.667,0,0,0-3.636,1l-21.4,37.669A2.667,2.667,0,0,0,1768.281,1806.245Z" transform="translate(-1412.479 -1757.984)" fill="#d1d3d4"/>
          <path id="Trazado_761" data-name="Trazado 761" d="M1848.984,1887.378h0a2.667,2.667,0,0,0-3.279-1.864l-41.771,11.5a2.667,2.667,0,0,0-1.864,3.28h0a2.667,2.667,0,0,0,3.279,1.863l41.772-11.5A2.666,2.666,0,0,0,1848.984,1887.378Z" transform="translate(-1435.001 -1836.284)" fill="#d1d3d4"/>
          <path id="Trazado_762" data-name="Trazado 762" d="M1838.609,1999.818l-37.669-21.4a2.666,2.666,0,0,0-3.636,1h0a2.667,2.667,0,0,0,1,3.637l37.669,21.4a2.667,2.667,0,0,0,3.637-1h0A2.667,2.667,0,0,0,1838.609,1999.818Z" transform="translate(-1431.776 -1895.831)" fill="#d1d3d4"/>
        </g>
      </g>
    </g>
    <g id="Grupo_308" data-name="Grupo 308" transform="translate(499.111 1692.977)">
      <g id="Grupo_307" data-name="Grupo 307" transform="translate(0 0)" clip-path="url(#clip-path-2)">
        <g id="Grupo_301" data-name="Grupo 301" transform="translate(46.668 110.452)">
          <ellipse id="Elipse_36" data-name="Elipse 36" cx="134.659" cy="17.201" rx="134.659" ry="17.201" transform="translate(0 560.035)" fill="#d1d3d4" style="mix-blend-mode: multiply;isolation: isolate"/>
          <path id="Trazado_763" data-name="Trazado 763" d="M1313.22,3495.5l-.558,14.865,13.99.525,4.351-22.6Z" transform="translate(-1126.377 -2957.294)" fill="#feac84"/>
          <path id="Trazado_764" data-name="Trazado 764" d="M1329.652,3502.536l-15.938,2.4.465-10.562,16.324,5.047Z" transform="translate(-1127.053 -2961.207)" fill="#e87979"/>
          <path id="Trazado_765" data-name="Trazado 765" d="M1147.329,2827.8l-20.5,149.835-18.366-.69,6.5-150.4-69.434-95.777-9.766,106.844-11.093,152.826-11.366-.427-16.895-153.877.042-140.968,32.1-15.428,8.345,12.175,47.421,8.288,57.584,96.7a35.043,35.043,0,0,1,4.892,16.566Z" transform="translate(-923.118 -2437.638)" fill="#00a7cc"/>
          <path id="Trazado_766" data-name="Trazado 766" d="M1082.089,2723.745c-23.3.1-43.371,1.857-72.037,6.285-12.406,1.916-14.707,17.062-14.707,17.062l-.214-33.4,64.548.956Z" transform="translate(-922.295 -2459.454)" fill="#404459"/>
          <path id="Trazado_767" data-name="Trazado 767" d="M1506.852,2174.369l-2.768-15.791a3.861,3.861,0,0,1,1.942-4.05h0a3.861,3.861,0,0,1,5.584,2.36h0a2.191,2.191,0,0,0,3.682.948l3.41-3.5c3.711-3.81,5.777-4.146,9.676-.528l3.317,3.731c4.306,4,3.92,13.763-.563,17.561l-13.793,11.485Z" transform="translate(-1249.368 -2097.983)" fill="#fab4df"/>
          <path id="Trazado_768" data-name="Trazado 768" d="M966.389,2791.462h0a6.245,6.245,0,0,1,.347,2.186l-.36,17.235a1.768,1.768,0,0,1-1.835,1.73h0a1.769,1.769,0,0,1-1.7-1.614l-.334-3.842-1.8,5.146a5.96,5.96,0,0,0,1.358,6.125l3.356,3.446a2.9,2.9,0,0,1,.821,2.134h0a2.9,2.9,0,0,1-4.914,1.983L952.2,2817.2a12.826,12.826,0,0,1-3.891-10.248l1.452-18.428,9.993-1.2A6.238,6.238,0,0,1,966.389,2791.462Z" transform="translate(-892.178 -2506.75)" fill="#fab4df"/>
          <path id="Trazado_769" data-name="Trazado 769" d="M967.221,2804.483s-.03-.115-.079-.322c-.5-1.892-4.8-15.823-11.779-12.181-5.32,3.225-5.742,10.575-6.095,10.847a.041.041,0,0,0-.023.011l1.142-14.308,9.989-1.2a6.241,6.241,0,0,1,6.638,4.131,5.977,5.977,0,0,1,.345,2.056c-.074,1.664-.1,3.889-.119,5.9-.011.285-.01.571-.009.844-.005.148,0,.3,0,.433C967.214,2802.839,967.221,2804.483,967.221,2804.483Z" transform="translate(-892.804 -2506.755)" fill="#de99c4"/>
          <path id="Trazado_770" data-name="Trazado 770" d="M1072.03,2225.919l-44.22,59.017a22.917,22.917,0,0,1-14.687,8.883h0a19.754,19.754,0,0,1-11.987-1.833l-40.527-20.27c1.3,46.959,3.674,115.889,6.8,132.549l-93.847-3.524s-8.515-47.173-13.323-95.781l-18.3,35.485,32.486,78.709-15.3,5.533-47.321-68.444a15.429,15.429,0,0,1-1.524-14.771l40.856-96.817a27.1,27.1,0,0,1,23.019-16.01l46.844-3,28.617.642a27.09,27.09,0,0,1,17.3,6.752L1009,2263.051l51.608-47.63Z" transform="translate(-802.711 -2139.21)" fill="#d90452"/>
          <path id="Trazado_771" data-name="Trazado 771" d="M1051.32,2177.651l.953,27.163a9.488,9.488,0,0,0,4.38,7.667l.944.6a13.193,13.193,0,0,0,18.378-4.287l1.011-1.669a12.266,12.266,0,0,0,1.668-4.737l2.912-21.852Z" transform="translate(-958.409 -2114.935)" fill="#fab4df"/>
          <path id="Trazado_772" data-name="Trazado 772" d="M1079.772,2194.03l-.017.159c-8.591,5.922-26.46.217-26.377,14.741a9.3,9.3,0,0,1-1.1-4.105l-.955-27.161,19.5,1.862Z" transform="translate(-958.41 -2114.943)" fill="#de99c4"/>
          <path id="Trazado_773" data-name="Trazado 773" d="M1116.643,2183.9l-1.8,13.484-8.954-14.5Z" transform="translate(-993.483 -2118.292)" fill="#ea9378"/>
          <path id="Trazado_774" data-name="Trazado 774" d="M1077.115,2053.97s-.085,46.481-19.738,54.043-39.8-15.882-43.578-33.179,15.06-32.637,15.06-32.637Z" transform="translate(-933.972 -2027.877)" fill="#fab4df"/>
          <path id="Trazado_775" data-name="Trazado 775" d="M1097.507,2067.681c-15.709,20.938-37.9-5.46-46-11.146s4.039-11.469,4.039-11.469l21.665,9.376Z" transform="translate(-956.737 -2029.721)" fill="#e87979"/>
          <path id="Trazado_776" data-name="Trazado 776" d="M1028.011,2028.156s8.413,8.063,25.586,14.934,32.259-14.592,27.095-31.8c0,0-10.1,7.266-16.531,1.63s-26.735-14.428-42.288-9.2-16.612,38.088-10.4,49.527l5.479-10.561s-2.777-3.424-2.113-10.04,7.6-3.449,7.445.695Z" transform="translate(-930.52 -2002.118)" fill="#ff7171"/>
          <path id="Trazado_777" data-name="Trazado 777" d="M1309.729,3537.577a2.876,2.876,0,0,0-2.979,2.881l.034,14.792a6.058,6.058,0,0,0,2.121,4.563l18.259,15.6,18.461.693a4.3,4.3,0,0,0,4.464-4.436c-.2-6.445-2.472-17.441-15.519-17.931l-7.7-5.482-2.245-10.153Z" transform="translate(-1122.576 -2988.974)" fill="#d84178"/>
          <path id="Trazado_778" data-name="Trazado 778" d="M1332.8,3575.625l-5.62-.211-18.262-15.607a6.021,6.021,0,0,1-2.123-4.554l-.027-14.8a2.866,2.866,0,0,1,2.974-2.879l14.9.537v.011l-9.281-.337a2.883,2.883,0,0,0-2.984,2.879l.038,14.8a6.024,6.024,0,0,0,2.124,4.555Z" transform="translate(-1122.586 -2988.974)" fill="#a84a75"/>
          <path id="Trazado_779" data-name="Trazado 779" d="M1011.074,3548.144l-.394,10.492s-18.257,3.507-17.73,20.125a2.967,2.967,0,0,0,2.84,2.872l31.726,1.277a4.2,4.2,0,0,0,4.159-5.478l-9.234-28.862Z" transform="translate(-920.886 -2995.768)" fill="#d84178"/>
        </g>
        <g id="Grupo_306" data-name="Grupo 306" transform="translate(265.627 13.514)">
          <path id="Trazado_780" data-name="Trazado 780" d="M1591.343,1805.7l-4.551,1.27-16.45-42.436L1513,1821.7l15.965,57.218,78.65,19.217-7.9-44.823,4.551-1.27-8.735-22.514Z" transform="translate(-1474.097 -1752.484)" fill="#00ebd5"/>
          <path id="Trazado_781" data-name="Trazado 781" d="M1774.408,1887.89a26.5,26.5,0,0,1-15.988,31.822l-14.166-50.771A26.5,26.5,0,0,1,1774.408,1887.89Z" transform="translate(-1622.725 -1819.318)" fill="#00a7cc"/>
          <path id="Trazado_782" data-name="Trazado 782" d="M1794.593,1913.542a26.5,26.5,0,0,1-15.988,31.823l-2.945-10.554a26.552,26.552,0,0,0,16.916-26.372A26.67,26.67,0,0,1,1794.593,1913.542Z" transform="translate(-1642.91 -1844.97)" fill="#226b8e" opacity="0.49"/>
          <path id="Trazado_783" data-name="Trazado 783" d="M1451.433,2015.808l23.247,83.318a12.619,12.619,0,0,0,24.309-6.782l-23.247-83.319Z" transform="translate(-1434.525 -1909.618)" fill="#00ebd5"/>
          <path id="Trazado_784" data-name="Trazado 784" d="M1494.323,2079.149c-12.891,8.354-24.72,5.311-24.72,5.311l-5.748-20.6,24.857-4.821Z" transform="translate(-1442.51 -1941.764)" fill="#2d87c1" opacity="0.49"/>
          <path id="Trazado_785" data-name="Trazado 785" d="M1425.838,1929.316a29.7,29.7,0,1,0,15.965,57.218l17.179-4.793-15.965-57.219Z" transform="translate(-1404.111 -1855.308)" fill="#00a7cc"/>
          <path id="Trazado_786" data-name="Trazado 786" d="M1533.9,2001.364l-2.982.832,7.9,44.823-78.658-19.244-17.185,4.795a29.675,29.675,0,0,1-36.583-20.622,17.811,17.811,0,0,1-.441-2.034c14.862,20.677,48.144-3.875,48.144-3.875s31.384,10.781,76.88-9.864C1530.973,1996.175,1532.052,1998.073,1533.9,2001.364Z" transform="translate(-1405.292 -1901.36)" fill="#226b8e" opacity="0.49"/>
          <path id="Trazado_787" data-name="Trazado 787" d="M1678.911,1731.139a9.165,9.165,0,0,0-6.365,11.291l37.512,134.444a9.165,9.165,0,0,0,17.656-4.926L1690.2,1737.5A9.166,9.166,0,0,0,1678.911,1731.139Z" transform="translate(-1576.419 -1730.8)" fill="#596584"/>
          <g id="Grupo_305" data-name="Grupo 305" transform="translate(141.851 5.605)">
            <g id="Grupo_302" data-name="Grupo 302">
              <path id="Trazado_788" data-name="Trazado 788" d="M1802.483,1789.144h0a2.667,2.667,0,0,1-1-3.637l21.4-37.669a2.667,2.667,0,0,1,3.636-1h0a2.667,2.667,0,0,1,1,3.636l-21.4,37.669A2.667,2.667,0,0,1,1802.483,1789.144Z" transform="translate(-1801.133 -1746.489)" fill="#ff7171"/>
            </g>
            <g id="Grupo_303" data-name="Grupo 303" transform="translate(12.52 43.528)">
              <path id="Trazado_789" data-name="Trazado 789" d="M1881.323,1873.556l-41.772,11.5a2.667,2.667,0,0,1-3.279-1.863h0a2.667,2.667,0,0,1,1.863-3.279l41.772-11.5a2.667,2.667,0,0,1,3.279,1.864h0A2.668,2.668,0,0,1,1881.323,1873.556Z" transform="translate(-1836.175 -1868.316)" fill="#ff7171"/>
            </g>
            <g id="Grupo_304" data-name="Grupo 304" transform="translate(10.727 76.63)">
              <path id="Trazado_790" data-name="Trazado 790" d="M1870.176,1987.355l-37.669-21.4a2.667,2.667,0,0,1-1-3.637h0a2.667,2.667,0,0,1,3.636-1l37.669,21.4a2.667,2.667,0,0,1,1,3.637h0A2.667,2.667,0,0,1,1870.176,1987.355Z" transform="translate(-1831.157 -1960.965)" fill="#ff7171"/>
            </g>
          </g>
        </g>
        <path id="Trazado_791" data-name="Trazado 791" d="M1547.844,2159.475s-9.422,4.656-5.833,15.744,13.01,7.983,13.01,7.983Z" transform="translate(-1226.59 -1992.801)" fill="#d1d3d4" style="mix-blend-mode: multiply;isolation: isolate"/>
        <path id="Trazado_792" data-name="Trazado 792" d="M1547.844,2151.547s-9.422,4.657-5.833,15.743,13.01,7.982,13.01,7.982Z" transform="translate(-1226.59 -1987.706)" fill="#fab4df"/>
      </g>
    </g>
    <path id="Trazado_794" data-name="Trazado 794" d="M1318.957,2692.641h14.65c14.67,0,24.667-13.309,22.329-29.727l-13.29-98.169a39.6,39.6,0,0,0-2.711,67.086c-12.618,1.387-20.977,3.806-20.977,6.559v13.685a1.406,1.406,0,0,1,0,1.29v13.685a1.4,1.4,0,0,1,0,1.172V2681.9a1.406,1.406,0,0,1,0,1.29Z" transform="translate(-584.643 -560.296)" fill="#d1d3d4" style="mix-blend-mode: multiply;isolation: isolate"/>
    <g id="Grupo_364" data-name="Grupo 364" transform="translate(472.202 2030.289)">
      <g id="Grupo_333" data-name="Grupo 333" transform="translate(3.477 62.302)">
        <g id="Grupo_314" data-name="Grupo 314" transform="translate(23.449 46.774)">
          <g id="Grupo_313" data-name="Grupo 313">
            <g id="Grupo_309" data-name="Grupo 309" transform="translate(0 8.136)">
              <ellipse id="Elipse_37" data-name="Elipse 37" cx="47.64" cy="8.136" rx="47.64" ry="8.136" transform="translate(0 6.15)" fill="#f7c90b"/>
              <rect id="Rectángulo_166" data-name="Rectángulo 166" width="95.279" height="14.286" fill="#f7c90b"/>
            </g>
            <g id="Grupo_312" data-name="Grupo 312" transform="translate(0)">
              <ellipse id="Elipse_38" data-name="Elipse 38" cx="47.64" cy="8.136" rx="47.64" ry="8.136" fill="#fcb72b"/>
              <path id="Trazado_795" data-name="Trazado 795" d="M692.747,2966.479c0,3.414,16.205,6.181,36.19,6.181s36.191-2.767,36.191-6.181a.966.966,0,0,0-.062-.357c-1.084,3.249-16.841,5.823-36.129,5.823s-35.044-2.575-36.129-5.823A.965.965,0,0,0,692.747,2966.479Z" transform="translate(-681.298 -2957.63)" fill="#ffc285"/>
              <ellipse id="Elipse_39" data-name="Elipse 39" cx="36.129" cy="5.824" rx="36.129" ry="5.824" transform="translate(11.511 2.669)" fill="#dd9624"/>
              <path id="Trazado_796" data-name="Trazado 796" d="M692.747,2954a.925.925,0,0,0,.108.444c1.317-3.207,16.964-5.739,36.082-5.739s34.765,2.532,36.082,5.739a.927.927,0,0,0,.109-.444c0-3.414-16.205-6.181-36.191-6.181S692.747,2950.59,692.747,2954Z" transform="translate(-681.298 -2945.869)" fill="#a36f40"/>
              <g id="Grupo_311" data-name="Grupo 311" transform="translate(39.483 5.078)">
                <g id="Grupo_310" data-name="Grupo 310">
                  <path id="Trazado_797" data-name="Trazado 797" d="M780.85,2962.682v-.752a64.323,64.323,0,0,0,6.673-.328l-1.046-.5a58.5,58.5,0,0,1-6.281.321c-3.1,0-5.191-.305-5.191-.73s1.7-.663,4.93-.887c4.448-.3,7.2-.64,7.2-1.288,0-.618-2.573-1.088-6.587-1.2v-.752h-2.7v.722c-2.617.015-4.406.135-5.672.261l1.092.492a53.9,53.9,0,0,1,5.494-.253c3.36,0,4.624.343,4.624.64,0,.387-1.614.581-5.409.849-4.493.313-6.76.7-6.76,1.363,0,.589,2.4,1.14,6.892,1.267v.775Z" transform="translate(-771.211 -2956.567)" fill="#fcd183"/>
                </g>
              </g>
            </g>
          </g>
        </g>
        <g id="Grupo_320" data-name="Grupo 320" transform="translate(0 31.141)">
          <g id="Grupo_319" data-name="Grupo 319">
            <g id="Grupo_315" data-name="Grupo 315" transform="translate(0 8.136)">
              <ellipse id="Elipse_40" data-name="Elipse 40" cx="47.64" cy="8.136" rx="47.64" ry="8.136" transform="translate(0 6.15)" fill="#f7c90b"/>
              <rect id="Rectángulo_167" data-name="Rectángulo 167" width="95.279" height="14.286" fill="#f7c90b"/>
            </g>
            <g id="Grupo_318" data-name="Grupo 318">
              <ellipse id="Elipse_41" data-name="Elipse 41" cx="47.64" cy="8.136" rx="47.64" ry="8.136" fill="#fcb72b"/>
              <path id="Trazado_798" data-name="Trazado 798" d="M627.116,2922.725c0,3.413,16.205,6.181,36.19,6.181s36.191-2.768,36.191-6.181a.966.966,0,0,0-.062-.357c-1.085,3.249-16.84,5.824-36.129,5.824s-35.044-2.575-36.129-5.824A.966.966,0,0,0,627.116,2922.725Z" transform="translate(-615.667 -2913.876)" fill="#ffc285"/>
              <ellipse id="Elipse_42" data-name="Elipse 42" cx="36.129" cy="5.824" rx="36.129" ry="5.824" transform="translate(11.511 2.669)" fill="#dd9624"/>
              <path id="Trazado_799" data-name="Trazado 799" d="M627.116,2910.251a.925.925,0,0,0,.108.445c1.317-3.207,16.964-5.739,36.082-5.739s34.766,2.531,36.082,5.739a.926.926,0,0,0,.109-.445c0-3.413-16.205-6.181-36.191-6.181S627.116,2906.838,627.116,2910.251Z" transform="translate(-615.667 -2902.115)" fill="#a36f40"/>
              <g id="Grupo_317" data-name="Grupo 317" transform="translate(39.483 5.078)">
                <g id="Grupo_316" data-name="Grupo 316">
                  <path id="Trazado_800" data-name="Trazado 800" d="M715.219,2918.928v-.752a64.748,64.748,0,0,0,6.673-.328l-1.046-.5a58.522,58.522,0,0,1-6.281.32c-3.1,0-5.191-.3-5.191-.73,0-.409,1.7-.663,4.929-.886,4.448-.3,7.2-.641,7.2-1.288,0-.619-2.573-1.088-6.586-1.2v-.752h-2.7v.722c-2.617.015-4.406.134-5.672.261l1.092.492a53.59,53.59,0,0,1,5.494-.254c3.36,0,4.624.343,4.624.641,0,.387-1.614.581-5.409.849-4.493.313-6.761.7-6.761,1.363,0,.589,2.4,1.14,6.892,1.267v.775Z" transform="translate(-705.58 -2912.813)" fill="#fcd183"/>
                </g>
              </g>
            </g>
          </g>
        </g>
        <g id="Grupo_326" data-name="Grupo 326" transform="translate(26.262 15.632)">
          <g id="Grupo_325" data-name="Grupo 325">
            <g id="Grupo_321" data-name="Grupo 321" transform="translate(0 8.136)">
              <ellipse id="Elipse_43" data-name="Elipse 43" cx="47.64" cy="8.136" rx="47.64" ry="8.136" transform="translate(0 6.15)" fill="#f7c90b"/>
              <rect id="Rectángulo_168" data-name="Rectángulo 168" width="95.279" height="14.286" fill="#f7c90b"/>
            </g>
            <g id="Grupo_324" data-name="Grupo 324">
              <ellipse id="Elipse_44" data-name="Elipse 44" cx="47.64" cy="8.136" rx="47.64" ry="8.136" fill="#fcb72b"/>
              <path id="Trazado_801" data-name="Trazado 801" d="M700.619,2879.318c0,3.413,16.205,6.18,36.19,6.18s36.191-2.767,36.191-6.18a.97.97,0,0,0-.062-.357c-1.085,3.249-16.841,5.823-36.129,5.823s-35.044-2.574-36.129-5.823A.97.97,0,0,0,700.619,2879.318Z" transform="translate(-689.17 -2870.469)" fill="#ffc285"/>
              <ellipse id="Elipse_45" data-name="Elipse 45" cx="36.129" cy="5.824" rx="36.129" ry="5.824" transform="translate(11.511 2.669)" fill="#c98a1b"/>
              <path id="Trazado_802" data-name="Trazado 802" d="M700.619,2866.844a.928.928,0,0,0,.108.445c1.317-3.207,16.964-5.739,36.082-5.739s34.766,2.532,36.082,5.739a.926.926,0,0,0,.109-.445c0-3.413-16.205-6.181-36.191-6.181S700.619,2863.43,700.619,2866.844Z" transform="translate(-689.17 -2858.708)" fill="#a36f40"/>
              <g id="Grupo_323" data-name="Grupo 323" transform="translate(39.483 5.078)">
                <g id="Grupo_322" data-name="Grupo 322">
                  <path id="Trazado_803" data-name="Trazado 803" d="M788.722,2875.521v-.752a64.454,64.454,0,0,0,6.673-.328l-1.046-.5a58.577,58.577,0,0,1-6.281.32c-3.1,0-5.19-.305-5.19-.73s1.7-.663,4.929-.886c4.448-.3,7.2-.641,7.2-1.289,0-.618-2.573-1.087-6.586-1.2v-.752h-2.7v.722c-2.617.015-4.406.134-5.672.261l1.092.491a53.85,53.85,0,0,1,5.494-.253c3.36,0,4.624.343,4.624.64,0,.387-1.614.581-5.409.849-4.493.313-6.761.7-6.761,1.363,0,.589,2.4,1.14,6.892,1.267v.775Z" transform="translate(-779.083 -2869.406)" fill="#fcd183"/>
                </g>
              </g>
            </g>
          </g>
        </g>
        <g id="Grupo_332" data-name="Grupo 332" transform="translate(30.931)">
          <g id="Grupo_331" data-name="Grupo 331">
            <g id="Grupo_327" data-name="Grupo 327" transform="translate(0 8.136)">
              <ellipse id="Elipse_46" data-name="Elipse 46" cx="47.64" cy="8.136" rx="47.64" ry="8.136" transform="translate(0 6.15)" fill="#f7c90b"/>
              <rect id="Rectángulo_169" data-name="Rectángulo 169" width="95.279" height="14.286" transform="translate(0)" fill="#f7c90b"/>
            </g>
            <g id="Grupo_330" data-name="Grupo 330">
              <ellipse id="Elipse_47" data-name="Elipse 47" cx="47.64" cy="8.136" rx="47.64" ry="8.136" fill="#fcb72b"/>
              <path id="Trazado_804" data-name="Trazado 804" d="M713.689,2835.565c0,3.413,16.205,6.181,36.19,6.181s36.191-2.768,36.191-6.181a.965.965,0,0,0-.062-.357c-1.084,3.249-16.841,5.823-36.129,5.823s-35.044-2.574-36.129-5.823A.965.965,0,0,0,713.689,2835.565Z" transform="translate(-702.24 -2826.716)" fill="#ffc285"/>
              <ellipse id="Elipse_48" data-name="Elipse 48" cx="36.129" cy="5.824" rx="36.129" ry="5.824" transform="translate(11.511 2.669)" fill="#c98a1b"/>
              <path id="Trazado_805" data-name="Trazado 805" d="M713.689,2823.09a.926.926,0,0,0,.108.445c1.317-3.207,16.964-5.739,36.082-5.739s34.765,2.532,36.082,5.739a.926.926,0,0,0,.109-.445c0-3.413-16.206-6.18-36.191-6.18S713.689,2819.677,713.689,2823.09Z" transform="translate(-702.24 -2814.955)" fill="#a36f40"/>
              <g id="Grupo_329" data-name="Grupo 329" transform="translate(39.483 5.078)">
                <g id="Grupo_328" data-name="Grupo 328">
                  <path id="Trazado_806" data-name="Trazado 806" d="M801.792,2831.769v-.752a64.678,64.678,0,0,0,6.673-.328l-1.046-.5a58.582,58.582,0,0,1-6.281.32c-3.1,0-5.191-.305-5.191-.73s1.7-.663,4.93-.886c4.448-.3,7.2-.641,7.2-1.289,0-.618-2.573-1.087-6.587-1.2v-.752h-2.7v.722c-2.617.015-4.406.134-5.672.261l1.092.491a53.776,53.776,0,0,1,5.494-.253c3.36,0,4.624.343,4.624.64,0,.387-1.614.581-5.409.849-4.493.313-6.761.7-6.761,1.363,0,.589,2.4,1.14,6.892,1.267v.774Z" transform="translate(-792.153 -2825.653)" fill="#fcd183"/>
                </g>
              </g>
            </g>
          </g>
        </g>
      </g>
      <path id="Trazado_807" data-name="Trazado 807" d="M779.083,2844.47,791.909,2910s25.072-1.235,31.521-3.464,8.636-3.7,8.636-3.7v-15.256s0-4.977-23.449-6.849a27.822,27.822,0,0,1,.1-2.8l9.855-.691Z" transform="translate(-709.861 -2770.367)" fill="#d1d3d4" style="mix-blend-mode: multiply;isolation: isolate"/>
      <g id="Grupo_335" data-name="Grupo 335" transform="translate(66.423 66.016)">
        <path id="Trazado_808" data-name="Trazado 808" d="M814.942,2869.194l59.815-8.141-56.749-39.218-46.757,7.81Z" transform="translate(-771.251 -2821.835)" fill="#456e89"/>
        <path id="Trazado_809" data-name="Trazado 809" d="M794.039,2840.786l33.643,29.806c3.433-.463,7.609.22,9.372,1.526l37.22-5.122c-2.036-1.3-1.085-2.72,2.092-3.177l-41.877-29.6c-2.618.442-6.031-.26-7.6-1.571l-30.018,4.94C798.166,2838.908,796.912,2840.337,794.039,2840.786Z" transform="translate(-785.897 -2828.786)" fill="#00ebd5"/>
        <g id="Grupo_334" data-name="Grupo 334" transform="translate(28.637 18.777)">
          <path id="Trazado_810" data-name="Trazado 810" d="M852.915,2876.191l3.955.608a17.193,17.193,0,0,1,5.256-2.411l2.069.823a15.7,15.7,0,0,0-4.988,2.261c-1.657,1.241-1.137,2.328,1.165,2.673,2.232.333,4.5-.143,7.381-1.256,3.854-1.544,7.052-2.371,10.54-1.844,3.351.5,4.705,1.92,3.425,3.627l4.2.614-1.265,1.088-4.062-.591a13.111,13.111,0,0,1-4.231,2.067l-2.231-.841a12.255,12.255,0,0,0,4.118-2c1.621-1.352.346-2.139-1.282-2.382-2.109-.315-3.961.177-7.329,1.483-4.027,1.548-7.354,2.142-11.007,1.6-3.221-.479-4.9-1.888-3.124-3.791l-4.1-.627Z" transform="translate(-851.403 -2874.388)" fill="#456e89"/>
        </g>
      </g>
      <g id="Grupo_341" data-name="Grupo 341" transform="translate(34.408 46.774)">
        <g id="Grupo_340" data-name="Grupo 340">
          <g id="Grupo_336" data-name="Grupo 336" transform="translate(0 8.136)">
            <ellipse id="Elipse_49" data-name="Elipse 49" cx="47.64" cy="8.136" rx="47.64" ry="8.136" transform="translate(0 6.15)" fill="#f7c90b"/>
            <rect id="Rectángulo_170" data-name="Rectángulo 170" width="95.279" height="14.286" transform="translate(0)" fill="#f7c90b"/>
          </g>
          <g id="Grupo_339" data-name="Grupo 339">
            <ellipse id="Elipse_50" data-name="Elipse 50" cx="47.64" cy="8.136" rx="47.64" ry="8.136" fill="#fcb72b"/>
            <path id="Trazado_811" data-name="Trazado 811" d="M713.689,2792.1c0,3.413,16.205,6.181,36.19,6.181s36.191-2.768,36.191-6.181a.965.965,0,0,0-.062-.357c-1.084,3.249-16.841,5.824-36.129,5.824s-35.044-2.574-36.129-5.824A.965.965,0,0,0,713.689,2792.1Z" transform="translate(-702.24 -2783.256)" fill="#ffc285"/>
            <ellipse id="Elipse_51" data-name="Elipse 51" cx="36.129" cy="5.824" rx="36.129" ry="5.824" transform="translate(11.511 2.669)" fill="#c98a1b"/>
            <path id="Trazado_812" data-name="Trazado 812" d="M713.689,2779.63a.924.924,0,0,0,.108.445c1.317-3.207,16.964-5.739,36.082-5.739s34.765,2.532,36.082,5.739a.924.924,0,0,0,.109-.445c0-3.414-16.206-6.181-36.191-6.181S713.689,2776.216,713.689,2779.63Z" transform="translate(-702.24 -2771.495)" fill="#a36f40"/>
            <g id="Grupo_338" data-name="Grupo 338" transform="translate(39.483 5.078)">
              <g id="Grupo_337" data-name="Grupo 337">
                <path id="Trazado_813" data-name="Trazado 813" d="M801.792,2788.308v-.752a64.767,64.767,0,0,0,6.673-.327l-1.046-.5a58.646,58.646,0,0,1-6.281.32c-3.1,0-5.191-.305-5.191-.73s1.7-.663,4.93-.886c4.448-.3,7.2-.641,7.2-1.289,0-.618-2.573-1.087-6.587-1.2v-.752h-2.7v.723c-2.617.014-4.406.134-5.672.261l1.092.491a53.627,53.627,0,0,1,5.494-.253c3.36,0,4.624.343,4.624.641,0,.386-1.614.581-5.409.848-4.493.313-6.761.7-6.761,1.364,0,.589,2.4,1.139,6.892,1.266v.774Z" transform="translate(-792.153 -2782.193)" fill="#fcd183"/>
              </g>
            </g>
          </g>
        </g>
      </g>
      <g id="Grupo_347" data-name="Grupo 347" transform="translate(29.738 31.141)">
        <g id="Grupo_346" data-name="Grupo 346">
          <g id="Grupo_342" data-name="Grupo 342" transform="translate(0 8.136)">
            <ellipse id="Elipse_52" data-name="Elipse 52" cx="47.64" cy="8.136" rx="47.64" ry="8.136" transform="translate(0 6.15)" fill="#f7c90b"/>
            <rect id="Rectángulo_171" data-name="Rectángulo 171" width="95.279" height="14.286" fill="#f7c90b"/>
          </g>
          <g id="Grupo_345" data-name="Grupo 345">
            <ellipse id="Elipse_53" data-name="Elipse 53" cx="47.64" cy="8.136" rx="47.64" ry="8.136" fill="#fcb72b"/>
            <path id="Trazado_814" data-name="Trazado 814" d="M700.619,2748.352c0,3.413,16.205,6.181,36.19,6.181S773,2751.765,773,2748.352a.966.966,0,0,0-.062-.357c-1.085,3.249-16.841,5.823-36.129,5.823s-35.044-2.575-36.129-5.823A.965.965,0,0,0,700.619,2748.352Z" transform="translate(-689.17 -2739.502)" fill="#ffc285"/>
            <ellipse id="Elipse_54" data-name="Elipse 54" cx="36.129" cy="5.824" rx="36.129" ry="5.824" transform="translate(11.511 2.669)" fill="#c98a1b"/>
            <path id="Trazado_815" data-name="Trazado 815" d="M700.619,2735.876a.928.928,0,0,0,.108.445c1.317-3.207,16.964-5.739,36.082-5.739s34.766,2.532,36.082,5.739a.926.926,0,0,0,.109-.445c0-3.413-16.205-6.181-36.191-6.181S700.619,2732.463,700.619,2735.876Z" transform="translate(-689.17 -2727.742)" fill="#a36f40"/>
            <g id="Grupo_344" data-name="Grupo 344" transform="translate(39.483 5.078)">
              <g id="Grupo_343" data-name="Grupo 343">
                <path id="Trazado_816" data-name="Trazado 816" d="M788.722,2744.555v-.752a64.327,64.327,0,0,0,6.673-.328l-1.046-.5a58.5,58.5,0,0,1-6.281.321c-3.1,0-5.19-.306-5.19-.73s1.7-.663,4.929-.887c4.448-.3,7.2-.64,7.2-1.289,0-.618-2.573-1.087-6.586-1.2v-.752h-2.7v.722c-2.617.015-4.406.134-5.672.261l1.092.491a53.7,53.7,0,0,1,5.494-.253c3.36,0,4.624.343,4.624.64,0,.387-1.614.581-5.409.849-4.493.313-6.761.7-6.761,1.363,0,.589,2.4,1.14,6.892,1.267v.775Z" transform="translate(-779.083 -2738.44)" fill="#fcd183"/>
              </g>
            </g>
          </g>
        </g>
      </g>
      <path id="Trazado_817" data-name="Trazado 817" d="M723.186,2760.65,700.6,2808.293s-19.46,5.166-26.662,2.166-5.624-4.269-5.624-4.269v-3.625s-.445-1.294,3.482-3.058c.93-.361,1.058-.615,1.058-.615l.13-15.017Z" transform="translate(-638.572 -2716.495)" fill="#d1d3d4" style="mix-blend-mode: multiply;isolation: isolate"/>
      <g id="Grupo_349" data-name="Grupo 349" transform="translate(0 32.042)">
        <path id="Trazado_818" data-name="Trazado 818" d="M638.412,2768.769l-53.072-7.224,50.352-34.8,41.486,6.93Z" transform="translate(-585.34 -2726.748)" fill="#456e89"/>
        <path id="Trazado_819" data-name="Trazado 819" d="M690.763,2743.563l-29.851,26.446c-3.046-.411-6.752.2-8.315,1.354l-33.024-4.545c1.807-1.153.963-2.414-1.856-2.82l37.157-26.261c2.323.393,5.351-.23,6.739-1.394l26.634,4.384C687.1,2741.9,688.213,2743.165,690.763,2743.563Z" transform="translate(-606.149 -2732.915)" fill="#00ebd5"/>
        <g id="Grupo_348" data-name="Grupo 348" transform="translate(35.804 16.66)">
          <path id="Trazado_820" data-name="Trazado 820" d="M685.55,2775.953l3.641.556c-1.572,1.688-.086,2.939,2.772,3.364a18.476,18.476,0,0,0,9.766-1.421c2.989-1.159,4.632-1.594,6.5-1.315,1.445.215,2.576.915,1.137,2.114a10.86,10.86,0,0,1-3.654,1.776l1.979.747a11.629,11.629,0,0,0,3.754-1.834l3.6.524,1.122-.966-3.727-.545c1.136-1.514-.065-2.771-3.039-3.217-3.094-.467-5.932.265-9.352,1.636a12.709,12.709,0,0,1-6.549,1.115c-2.043-.307-2.5-1.271-1.034-2.373a13.952,13.952,0,0,1,4.426-2.005l-1.836-.73a15.247,15.247,0,0,0-4.664,2.139l-3.509-.54Z" transform="translate(-685.55 -2773.378)" fill="#456e89"/>
        </g>
      </g>
      <g id="Grupo_355" data-name="Grupo 355" transform="translate(34.408 15.632)">
        <g id="Grupo_354" data-name="Grupo 354">
          <g id="Grupo_350" data-name="Grupo 350" transform="translate(0 8.136)">
            <ellipse id="Elipse_55" data-name="Elipse 55" cx="47.64" cy="8.136" rx="47.64" ry="8.136" transform="translate(0 6.15)" fill="#f7c90b"/>
            <rect id="Rectángulo_172" data-name="Rectángulo 172" width="95.279" height="14.286" transform="translate(0)" fill="#f7c90b"/>
          </g>
          <g id="Grupo_353" data-name="Grupo 353">
            <ellipse id="Elipse_56" data-name="Elipse 56" cx="47.64" cy="8.136" rx="47.64" ry="8.136" fill="#fcb72b"/>
            <path id="Trazado_821" data-name="Trazado 821" d="M713.689,2704.945c0,3.414,16.205,6.181,36.19,6.181s36.191-2.767,36.191-6.181a.963.963,0,0,0-.062-.357c-1.084,3.249-16.841,5.823-36.129,5.823s-35.044-2.575-36.129-5.823A.964.964,0,0,0,713.689,2704.945Z" transform="translate(-702.24 -2696.096)" fill="#ffc285"/>
            <ellipse id="Elipse_57" data-name="Elipse 57" cx="36.129" cy="5.824" rx="36.129" ry="5.824" transform="translate(11.511 2.669)" fill="#c98a1b"/>
            <path id="Trazado_822" data-name="Trazado 822" d="M713.689,2692.47a.923.923,0,0,0,.108.444c1.317-3.207,16.964-5.739,36.082-5.739s34.765,2.532,36.082,5.739a.924.924,0,0,0,.109-.444c0-3.413-16.206-6.181-36.191-6.181S713.689,2689.056,713.689,2692.47Z" transform="translate(-702.24 -2684.335)" fill="#a36f40"/>
            <g id="Grupo_352" data-name="Grupo 352" transform="translate(39.483 5.078)">
              <g id="Grupo_351" data-name="Grupo 351">
                <path id="Trazado_823" data-name="Trazado 823" d="M801.792,2701.148v-.752a64.48,64.48,0,0,0,6.673-.328l-1.046-.5a58.429,58.429,0,0,1-6.281.321c-3.1,0-5.191-.306-5.191-.731,0-.409,1.7-.662,4.93-.886,4.448-.3,7.2-.64,7.2-1.288,0-.618-2.573-1.088-6.587-1.2v-.752h-2.7v.722c-2.617.015-4.406.134-5.672.26l1.092.492a53.553,53.553,0,0,1,5.494-.253c3.36,0,4.624.343,4.624.64,0,.387-1.614.582-5.409.849-4.493.313-6.761.7-6.761,1.363,0,.588,2.4,1.14,6.892,1.267v.774Z" transform="translate(-792.153 -2695.033)" fill="#fcd183"/>
              </g>
            </g>
          </g>
        </g>
      </g>
      <path id="Trazado_824" data-name="Trazado 824" d="M843.574,2723.583l14.308,44.783,39.788,13.25L880.865,2770l.133-26.345Z" transform="translate(-751.31 -2692.672)" fill="#d1d3d4" style="mix-blend-mode: multiply;isolation: isolate"/>
      <g id="Grupo_357" data-name="Grupo 357" transform="translate(77.934 10.13)">
        <path id="Trazado_825" data-name="Trazado 825" d="M847.16,2712.779l59.815-8.141-56.749-39.219-46.757,7.811Z" transform="translate(-803.468 -2665.419)" fill="#456e89"/>
        <path id="Trazado_826" data-name="Trazado 826" d="M826.257,2684.371l33.643,29.806c3.433-.463,7.609.22,9.372,1.526l37.22-5.123c-2.036-1.3-1.085-2.721,2.092-3.177l-41.877-29.6c-2.618.442-6.031-.26-7.6-1.571l-30.018,4.94C830.384,2682.493,829.13,2683.923,826.257,2684.371Z" transform="translate(-818.115 -2672.371)" fill="#00ebd5"/>
        <g id="Grupo_356" data-name="Grupo 356" transform="translate(28.637 18.777)">
          <path id="Trazado_827" data-name="Trazado 827" d="M916.624,2725.633l-3.956-.608a17.166,17.166,0,0,1-5.256,2.411l-2.069-.823a15.718,15.718,0,0,0,4.988-2.26c1.657-1.241,1.137-2.328-1.165-2.674-2.232-.333-4.5.143-7.381,1.257-3.854,1.545-7.052,2.37-10.54,1.844-3.351-.5-4.7-1.921-3.425-3.627l-4.2-.615,1.265-1.088,4.062.591a13.092,13.092,0,0,1,4.231-2.067l2.231.841a12.249,12.249,0,0,0-4.118,2c-1.621,1.352-.346,2.139,1.282,2.382,2.109.315,3.961-.176,7.33-1.482,4.027-1.549,7.354-2.142,11.007-1.6,3.221.479,4.9,1.888,3.124,3.791l4.1.627Z" transform="translate(-883.62 -2717.974)" fill="#456e89"/>
        </g>
      </g>
      <g id="Grupo_363" data-name="Grupo 363" transform="translate(48.277)">
        <g id="Grupo_362" data-name="Grupo 362">
          <g id="Grupo_358" data-name="Grupo 358" transform="translate(0 8.136)">
            <ellipse id="Elipse_58" data-name="Elipse 58" cx="47.64" cy="8.136" rx="47.64" ry="8.136" transform="translate(0 6.15)" fill="#f7c90b"/>
            <rect id="Rectángulo_173" data-name="Rectángulo 173" width="95.279" height="14.286" fill="#f7c90b"/>
          </g>
          <g id="Grupo_361" data-name="Grupo 361">
            <ellipse id="Elipse_59" data-name="Elipse 59" cx="47.64" cy="8.136" rx="47.64" ry="8.136" fill="#fcb72b"/>
            <path id="Trazado_828" data-name="Trazado 828" d="M752.506,2661.191c0,3.413,16.205,6.18,36.19,6.18s36.191-2.767,36.191-6.18a.967.967,0,0,0-.062-.357c-1.084,3.249-16.84,5.823-36.129,5.823s-35.044-2.574-36.129-5.823A.966.966,0,0,0,752.506,2661.191Z" transform="translate(-741.057 -2652.342)" fill="#ffc285"/>
            <ellipse id="Elipse_60" data-name="Elipse 60" cx="36.129" cy="5.824" rx="36.129" ry="5.824" transform="translate(11.511 2.669)" fill="#dd9624"/>
            <path id="Trazado_829" data-name="Trazado 829" d="M752.506,2648.716a.925.925,0,0,0,.108.445c1.317-3.207,16.964-5.739,36.082-5.739s34.765,2.532,36.082,5.739a.924.924,0,0,0,.109-.445c0-3.413-16.206-6.18-36.191-6.18S752.506,2645.3,752.506,2648.716Z" transform="translate(-741.057 -2640.582)" fill="#a36f40"/>
            <g id="Grupo_360" data-name="Grupo 360" transform="translate(39.483 5.078)">
              <g id="Grupo_359" data-name="Grupo 359">
                <path id="Trazado_830" data-name="Trazado 830" d="M837.643,2657.394v-.752a64.464,64.464,0,0,1-6.673-.328l1.046-.5a58.5,58.5,0,0,0,6.281.32c3.1,0,5.191-.305,5.191-.73s-1.7-.663-4.93-.887c-4.449-.3-7.2-.64-7.2-1.289,0-.618,2.573-1.087,6.586-1.2v-.752h2.7V2652c2.617.015,4.406.135,5.672.261l-1.092.491a53.861,53.861,0,0,0-5.494-.253c-3.36,0-4.624.343-4.624.641,0,.387,1.614.581,5.409.849,4.493.313,6.76.7,6.76,1.363,0,.589-2.4,1.14-6.892,1.267v.775Z" transform="translate(-830.97 -2651.279)" fill="#fcd183"/>
              </g>
            </g>
          </g>
        </g>
      </g>
    </g>
    <g id="Grupo_366" data-name="Grupo 366" transform="translate(541.38 1806.33)">
      <path id="Trazado_831" data-name="Trazado 831" d="M834.949,2128.094l-3.744-30.881-5.729-5.047-33.353,8.037a16.9,16.9,0,0,0-8.065,2.988,19.284,19.284,0,0,0-5.095,4.921q1.222,10.081,2.445,20.162a6.5,6.5,0,0,0,6.244,5.658l42.431-.143A4.894,4.894,0,0,0,834.949,2128.094Z" transform="translate(-778.962 -2062.893)" fill="#d1d3d4" style="mix-blend-mode: multiply;isolation: isolate"/>
      <g id="Grupo_365" data-name="Grupo 365" transform="translate(7.41 0)">
        <path id="Trazado_832" data-name="Trazado 832" d="M853.243,2035.488l-21.791,24.57a2.835,2.835,0,0,1-4.022.014l-27.729-24.4,21.788-24.591a2.835,2.835,0,0,1,4.022-.013Z" transform="translate(-799.701 -2010.235)" fill="url(#linear-gradient)"/>
        <path id="Trazado_833" data-name="Trazado 833" d="M855.7,2083.892l-38.291.128a2.935,2.935,0,0,1-2.821-2.556l-5.416-44.671a2.211,2.211,0,0,1,2.2-2.573l38.291-.129a2.935,2.935,0,0,1,2.821,2.556l5.416,44.671A2.211,2.211,0,0,1,855.7,2083.892Z" transform="translate(-805.774 -2025.568)" fill="#fff"/>
        <path id="Trazado_834" data-name="Trazado 834" d="M853.243,2080.914l3.744,30.881a4.894,4.894,0,0,1-4.868,5.7l-42.431.143a6.5,6.5,0,0,1-6.244-5.658l-3.744-30.882,27.729,24.4a2.835,2.835,0,0,0,4.022-.013Z" transform="translate(-799.701 -2055.661)" fill="#4e01d4"/>
        <path id="Trazado_835" data-name="Trazado 835" d="M837.642,2060.8l-8.008.027a.8.8,0,0,1-.77-.7l-.237-1.953a.6.6,0,0,1,.6-.7l8.008-.027a.8.8,0,0,1,.77.7l.237,1.954A.6.6,0,0,1,837.642,2060.8Z" transform="translate(-818.289 -2040.576)" fill="url(#linear-gradient-2)"/>
        <path id="Trazado_836" data-name="Trazado 836" d="M857.832,2078.2l-26.067.087a.8.8,0,0,1-.77-.7l-.237-1.954a.6.6,0,0,1,.6-.7l26.067-.087a.8.8,0,0,1,.77.7l.237,1.954A.6.6,0,0,1,857.832,2078.2Z" transform="translate(-819.658 -2051.76)" fill="url(#linear-gradient-3)"/>
        <path id="Trazado_837" data-name="Trazado 837" d="M859.962,2095.769l-26.068.088a.8.8,0,0,1-.77-.7l-.237-1.953a.6.6,0,0,1,.6-.7l26.068-.087a.8.8,0,0,1,.77.7l.237,1.954A.6.6,0,0,1,859.962,2095.769Z" transform="translate(-821.027 -2063.053)" fill="url(#linear-gradient-4)"/>
      </g>
    </g>
    <g id="Grupo_367" data-name="Grupo 367" transform="translate(491.304 1988.81)">
      <circle id="Elipse_61" data-name="Elipse 61" cx="12.99" cy="12.99" r="12.99" transform="translate(6.095 9.067)" fill="#f7c90b"/>
      <circle id="Elipse_62" data-name="Elipse 62" cx="7.436" cy="7.436" r="7.436" transform="translate(0 0)" fill="#f7c90b"/>
    </g>
    <path id="Trazado_838" data-name="Trazado 838" d="M1173.412,1892.6l7.545,16.736,7.512-3.387-7.545-16.736Zm5.6,2.395a1.261,1.261,0,1,1,.632-1.668A1.256,1.256,0,0,1,1179.011,1894.992Z" transform="translate(-491.1 -126.122)" fill="#4e01d4"/>
    <path id="Trazado_839" data-name="Trazado 839" d="M1196.677,1922.685l-7.513,3.386-2.983-6.618c2.669-.764,6.7,1.621,7.144-4.2Z" transform="translate(-499.307 -142.86)" fill="#e6e7e8" style="mix-blend-mode: multiply;isolation: isolate"/>
    <path id="Trazado_840" data-name="Trazado 840" d="M1208.253,1868.278l11.53-5.2a8.174,8.174,0,0,0,4.092-10.811l-2.9-6.422h0a4.077,4.077,0,0,0,2.041-5.392h0a4.076,4.076,0,0,0-5.392-2.041l-9.528,4.419.693-6.687a3.682,3.682,0,0,0-4.948-3.888l-.06.026-2.654,20.2Z" transform="translate(-508.916 -89.338)" fill="#4e01d4"/>
    <path id="Trazado_841" data-name="Trazado 841" d="M1223.715,1888.023l-11.531,5.2-4.932-10.942c2.886,3.328,5.777,3.913,8.718,3.374a14,14,0,0,0,6.88-3.5c2.735-2.532,3.768-8.1.81-10.373a10.179,10.179,0,0,1,1.253-.989l1.077,2.391,1.232,2.732v0l.585,1.3A8.172,8.172,0,0,1,1223.715,1888.023Z" transform="translate(-512.849 -114.282)" fill="#e6e7e8" style="mix-blend-mode: multiply;isolation: isolate"/>
    <g id="Grupo_409" data-name="Grupo 409" transform="translate(708.906 2000.697)">
      <g id="Grupo_405" data-name="Grupo 405" transform="translate(0 67.938)">
        <g id="Grupo_392" data-name="Grupo 392" transform="translate(0 31.16)">
          <g id="Grupo_373" data-name="Grupo 373" transform="translate(23.449 46.774)">
            <g id="Grupo_372" data-name="Grupo 372">
              <g id="Grupo_368" data-name="Grupo 368" transform="translate(0 8.136)">
                <ellipse id="Elipse_63" data-name="Elipse 63" cx="47.64" cy="8.136" rx="47.64" ry="8.136" transform="translate(0 6.15)" fill="#f7c90b"/>
                <rect id="Rectángulo_174" data-name="Rectángulo 174" width="95.279" height="14.286" fill="#f7c90b"/>
              </g>
              <g id="Grupo_371" data-name="Grupo 371" transform="translate(0)">
                <ellipse id="Elipse_64" data-name="Elipse 64" cx="47.64" cy="8.136" rx="47.64" ry="8.136" fill="#fcb72b"/>
                <path id="Trazado_842" data-name="Trazado 842" d="M1345.519,2986.644c0,3.413,16.205,6.181,36.191,6.181s36.191-2.768,36.191-6.181a.961.961,0,0,0-.062-.357c-1.084,3.25-16.84,5.823-36.129,5.823s-35.044-2.574-36.129-5.823A.97.97,0,0,0,1345.519,2986.644Z" transform="translate(-1334.07 -2977.794)" fill="#ffc285"/>
                <ellipse id="Elipse_65" data-name="Elipse 65" cx="36.129" cy="5.824" rx="36.129" ry="5.824" transform="translate(11.511 2.669)" fill="#dd9624"/>
                <path id="Trazado_843" data-name="Trazado 843" d="M1345.519,2974.168a.926.926,0,0,0,.109.444c1.317-3.207,16.964-5.739,36.082-5.739s34.766,2.532,36.083,5.739a.931.931,0,0,0,.108-.444c0-3.413-16.205-6.181-36.191-6.181S1345.519,2970.755,1345.519,2974.168Z" transform="translate(-1334.07 -2966.034)" fill="#a36f40"/>
                <g id="Grupo_370" data-name="Grupo 370" transform="translate(39.484 5.078)">
                  <g id="Grupo_369" data-name="Grupo 369">
                    <path id="Trazado_844" data-name="Trazado 844" d="M1433.623,2982.847v-.752a64.416,64.416,0,0,0,6.674-.328l-1.046-.5a58.638,58.638,0,0,1-6.281.32c-3.1,0-5.191-.305-5.191-.73s1.7-.663,4.929-.887c4.448-.3,7.2-.64,7.2-1.288,0-.618-2.573-1.088-6.586-1.2v-.752h-2.7v.723c-2.617.014-4.406.134-5.672.261l1.092.492a53.43,53.43,0,0,1,5.494-.254c3.36,0,4.624.343,4.624.64,0,.387-1.614.582-5.409.849-4.492.313-6.76.7-6.76,1.364,0,.589,2.4,1.139,6.892,1.266v.775Z" transform="translate(-1423.984 -2976.732)" fill="#fcd183"/>
                  </g>
                </g>
              </g>
            </g>
          </g>
          <g id="Grupo_379" data-name="Grupo 379" transform="translate(0 31.141)">
            <g id="Grupo_378" data-name="Grupo 378">
              <g id="Grupo_374" data-name="Grupo 374" transform="translate(0 8.136)">
                <ellipse id="Elipse_66" data-name="Elipse 66" cx="47.64" cy="8.136" rx="47.64" ry="8.136" transform="translate(0 6.15)" fill="#f7c90b"/>
                <rect id="Rectángulo_175" data-name="Rectángulo 175" width="95.279" height="14.286" fill="#f7c90b"/>
              </g>
              <g id="Grupo_377" data-name="Grupo 377">
                <ellipse id="Elipse_67" data-name="Elipse 67" cx="47.64" cy="8.136" rx="47.64" ry="8.136" fill="#fcb72b"/>
                <path id="Trazado_845" data-name="Trazado 845" d="M1279.888,2942.891c0,3.413,16.205,6.181,36.191,6.181s36.191-2.767,36.191-6.181a.965.965,0,0,0-.062-.357c-1.084,3.249-16.841,5.823-36.129,5.823s-35.044-2.575-36.129-5.823A.962.962,0,0,0,1279.888,2942.891Z" transform="translate(-1268.439 -2934.042)" fill="#ffc285"/>
                <ellipse id="Elipse_68" data-name="Elipse 68" cx="36.129" cy="5.824" rx="36.129" ry="5.824" transform="translate(11.511 2.669)" fill="#dd9624"/>
                <path id="Trazado_846" data-name="Trazado 846" d="M1279.888,2930.416a.926.926,0,0,0,.108.444c1.317-3.207,16.964-5.739,36.082-5.739s34.765,2.532,36.082,5.739a.922.922,0,0,0,.109-.444c0-3.414-16.206-6.181-36.191-6.181S1279.888,2927,1279.888,2930.416Z" transform="translate(-1268.439 -2922.281)" fill="#a36f40"/>
                <g id="Grupo_376" data-name="Grupo 376" transform="translate(39.483 5.078)">
                  <g id="Grupo_375" data-name="Grupo 375">
                    <path id="Trazado_847" data-name="Trazado 847" d="M1367.992,2939.094v-.752a64.273,64.273,0,0,0,6.674-.328l-1.046-.5a58.5,58.5,0,0,1-6.281.321c-3.1,0-5.191-.306-5.191-.731,0-.409,1.7-.662,4.929-.886,4.449-.3,7.2-.64,7.2-1.288,0-.618-2.573-1.088-6.587-1.2v-.752h-2.7v.723c-2.618.015-4.406.134-5.672.26l1.092.491a53.837,53.837,0,0,1,5.494-.252c3.36,0,4.625.342,4.625.64,0,.387-1.614.581-5.41.849-4.492.313-6.76.7-6.76,1.363,0,.589,2.4,1.139,6.892,1.267v.775Z" transform="translate(-1358.353 -2932.979)" fill="#fcd183"/>
                  </g>
                </g>
              </g>
            </g>
          </g>
          <g id="Grupo_385" data-name="Grupo 385" transform="translate(26.262 15.632)">
            <g id="Grupo_384" data-name="Grupo 384">
              <g id="Grupo_380" data-name="Grupo 380" transform="translate(0 8.136)">
                <ellipse id="Elipse_69" data-name="Elipse 69" cx="47.64" cy="8.136" rx="47.64" ry="8.136" transform="translate(0 6.15)" fill="#f7c90b"/>
                <rect id="Rectángulo_176" data-name="Rectángulo 176" width="95.279" height="14.286" fill="#f7c90b"/>
              </g>
              <g id="Grupo_383" data-name="Grupo 383">
                <ellipse id="Elipse_70" data-name="Elipse 70" cx="47.64" cy="8.136" rx="47.64" ry="8.136" fill="#fcb72b"/>
                <path id="Trazado_848" data-name="Trazado 848" d="M1353.391,2899.484c0,3.413,16.205,6.181,36.191,6.181s36.19-2.768,36.19-6.181a.961.961,0,0,0-.062-.357c-1.084,3.249-16.84,5.823-36.129,5.823s-35.044-2.575-36.129-5.823A.964.964,0,0,0,1353.391,2899.484Z" transform="translate(-1341.942 -2890.635)" fill="#ffc285"/>
                <ellipse id="Elipse_71" data-name="Elipse 71" cx="36.129" cy="5.824" rx="36.129" ry="5.824" transform="translate(11.511 2.669)" fill="#c98a1b"/>
                <path id="Trazado_849" data-name="Trazado 849" d="M1353.391,2887.009a.926.926,0,0,0,.109.445c1.317-3.207,16.964-5.739,36.082-5.739s34.766,2.532,36.082,5.739a.924.924,0,0,0,.108-.445c0-3.413-16.2-6.18-36.19-6.18S1353.391,2883.6,1353.391,2887.009Z" transform="translate(-1341.942 -2878.874)" fill="#a36f40"/>
                <g id="Grupo_382" data-name="Grupo 382" transform="translate(39.484 5.078)">
                  <g id="Grupo_381" data-name="Grupo 381">
                    <path id="Trazado_850" data-name="Trazado 850" d="M1441.495,2895.687v-.752a64.692,64.692,0,0,0,6.674-.328l-1.046-.5a58.518,58.518,0,0,1-6.281.32c-3.1,0-5.191-.3-5.191-.73,0-.409,1.7-.663,4.929-.887,4.449-.3,7.2-.64,7.2-1.288,0-.619-2.573-1.088-6.586-1.2v-.752h-2.7v.722c-2.618.015-4.406.134-5.672.26l1.092.492a53.834,53.834,0,0,1,5.494-.253c3.36,0,4.624.343,4.624.64,0,.387-1.614.581-5.409.849-4.493.313-6.76.7-6.76,1.363,0,.589,2.4,1.14,6.892,1.267v.775Z" transform="translate(-1431.856 -2889.572)" fill="#fcd183"/>
                  </g>
                </g>
              </g>
            </g>
          </g>
          <g id="Grupo_391" data-name="Grupo 391" transform="translate(30.931)">
            <g id="Grupo_390" data-name="Grupo 390">
              <g id="Grupo_386" data-name="Grupo 386" transform="translate(0 8.136)">
                <ellipse id="Elipse_72" data-name="Elipse 72" cx="47.64" cy="8.136" rx="47.64" ry="8.136" transform="translate(0 6.15)" fill="#f7c90b"/>
                <rect id="Rectángulo_177" data-name="Rectángulo 177" width="95.279" height="14.286" fill="#f7c90b"/>
              </g>
              <g id="Grupo_389" data-name="Grupo 389">
                <ellipse id="Elipse_73" data-name="Elipse 73" cx="47.64" cy="8.136" rx="47.64" ry="8.136" fill="#fcb72b"/>
                <path id="Trazado_851" data-name="Trazado 851" d="M1366.461,2855.729c0,3.414,16.205,6.181,36.191,6.181s36.19-2.768,36.19-6.181a.961.961,0,0,0-.062-.357c-1.085,3.249-16.84,5.824-36.128,5.824s-35.044-2.575-36.129-5.824A.966.966,0,0,0,1366.461,2855.729Z" transform="translate(-1355.012 -2846.881)" fill="#ffc285"/>
                <ellipse id="Elipse_74" data-name="Elipse 74" cx="36.129" cy="5.824" rx="36.129" ry="5.824" transform="translate(11.511 2.669)" fill="#c98a1b"/>
                <path id="Trazado_852" data-name="Trazado 852" d="M1366.461,2843.255a.924.924,0,0,0,.109.445c1.317-3.207,16.964-5.739,36.082-5.739s34.765,2.532,36.082,5.739a.93.93,0,0,0,.108-.445c0-3.413-16.205-6.18-36.19-6.18S1366.461,2839.843,1366.461,2843.255Z" transform="translate(-1355.012 -2835.121)" fill="#a36f40"/>
                <g id="Grupo_388" data-name="Grupo 388" transform="translate(39.484 5.078)">
                  <g id="Grupo_387" data-name="Grupo 387">
                    <path id="Trazado_853" data-name="Trazado 853" d="M1454.565,2851.934v-.752a64.477,64.477,0,0,0,6.673-.328l-1.046-.5a58.579,58.579,0,0,1-6.281.32c-3.1,0-5.191-.305-5.191-.73,0-.409,1.7-.663,4.929-.887,4.448-.3,7.2-.641,7.2-1.288,0-.618-2.573-1.088-6.586-1.2v-.752h-2.7v.722c-2.618.015-4.406.134-5.672.26l1.092.492a53.809,53.809,0,0,1,5.494-.253c3.359,0,4.624.343,4.624.64,0,.387-1.615.581-5.409.85-4.493.313-6.76.7-6.76,1.362,0,.589,2.4,1.14,6.892,1.267v.775Z" transform="translate(-1444.926 -2845.818)" fill="#fcd183"/>
                  </g>
                </g>
              </g>
            </g>
          </g>
        </g>
        <g id="Grupo_398" data-name="Grupo 398" transform="translate(30.931 15.632)">
          <g id="Grupo_397" data-name="Grupo 397">
            <g id="Grupo_393" data-name="Grupo 393" transform="translate(0 8.136)">
              <ellipse id="Elipse_75" data-name="Elipse 75" cx="47.64" cy="8.136" rx="47.64" ry="8.136" transform="translate(0 6.15)" fill="#f7c90b"/>
              <rect id="Rectángulo_178" data-name="Rectángulo 178" width="95.279" height="14.286" fill="#f7c90b"/>
            </g>
            <g id="Grupo_396" data-name="Grupo 396">
              <ellipse id="Elipse_76" data-name="Elipse 76" cx="47.64" cy="8.136" rx="47.64" ry="8.136" fill="#fcb72b"/>
              <path id="Trazado_854" data-name="Trazado 854" d="M1366.461,2812.27c0,3.413,16.205,6.181,36.191,6.181s36.19-2.768,36.19-6.181a.962.962,0,0,0-.062-.357c-1.085,3.249-16.84,5.823-36.128,5.823s-35.044-2.574-36.129-5.823A.967.967,0,0,0,1366.461,2812.27Z" transform="translate(-1355.012 -2803.421)" fill="#ffc285"/>
              <ellipse id="Elipse_77" data-name="Elipse 77" cx="36.129" cy="5.824" rx="36.129" ry="5.824" transform="translate(11.511 2.669)" fill="#c98a1b"/>
              <path id="Trazado_855" data-name="Trazado 855" d="M1366.461,2799.795a.922.922,0,0,0,.109.444c1.317-3.206,16.964-5.739,36.082-5.739s34.765,2.532,36.082,5.739a.928.928,0,0,0,.108-.444c0-3.413-16.205-6.18-36.19-6.18S1366.461,2796.382,1366.461,2799.795Z" transform="translate(-1355.012 -2791.66)" fill="#a36f40"/>
              <g id="Grupo_395" data-name="Grupo 395" transform="translate(39.484 5.078)">
                <g id="Grupo_394" data-name="Grupo 394">
                  <path id="Trazado_856" data-name="Trazado 856" d="M1454.565,2808.473v-.752a64.477,64.477,0,0,0,6.673-.328l-1.046-.5a58.643,58.643,0,0,1-6.281.32c-3.1,0-5.191-.305-5.191-.73s1.7-.663,4.929-.886c4.448-.3,7.2-.641,7.2-1.289,0-.618-2.573-1.088-6.586-1.2v-.752h-2.7v.722c-2.618.015-4.406.134-5.672.261l1.092.491a53.685,53.685,0,0,1,5.494-.253c3.359,0,4.624.343,4.624.641,0,.387-1.615.581-5.409.849-4.493.313-6.76.7-6.76,1.363,0,.588,2.4,1.14,6.892,1.266v.775Z" transform="translate(-1444.926 -2802.358)" fill="#fcd183"/>
                </g>
              </g>
            </g>
          </g>
        </g>
        <g id="Grupo_404" data-name="Grupo 404" transform="translate(26.262)">
          <g id="Grupo_403" data-name="Grupo 403">
            <g id="Grupo_399" data-name="Grupo 399" transform="translate(0 8.136)">
              <ellipse id="Elipse_78" data-name="Elipse 78" cx="47.64" cy="8.136" rx="47.64" ry="8.136" transform="translate(0 6.15)" fill="#f7c90b"/>
              <rect id="Rectángulo_179" data-name="Rectángulo 179" width="95.279" height="14.286" fill="#f7c90b"/>
            </g>
            <g id="Grupo_402" data-name="Grupo 402">
              <ellipse id="Elipse_79" data-name="Elipse 79" cx="47.64" cy="8.136" rx="47.64" ry="8.136" fill="#fcb72b"/>
              <path id="Trazado_857" data-name="Trazado 857" d="M1353.391,2768.517c0,3.413,16.205,6.181,36.191,6.181s36.19-2.768,36.19-6.181a.963.963,0,0,0-.062-.357c-1.084,3.249-16.84,5.823-36.129,5.823s-35.044-2.574-36.129-5.823A.967.967,0,0,0,1353.391,2768.517Z" transform="translate(-1341.942 -2759.668)" fill="#ffc285"/>
              <ellipse id="Elipse_80" data-name="Elipse 80" cx="36.129" cy="5.824" rx="36.129" ry="5.824" transform="translate(11.511 2.669)" fill="#c98a1b"/>
              <path id="Trazado_858" data-name="Trazado 858" d="M1353.391,2756.042a.928.928,0,0,0,.109.445c1.317-3.207,16.964-5.739,36.082-5.739s34.766,2.532,36.082,5.739a.926.926,0,0,0,.108-.445c0-3.413-16.2-6.181-36.19-6.181S1353.391,2752.629,1353.391,2756.042Z" transform="translate(-1341.942 -2747.907)" fill="#a36f40"/>
              <g id="Grupo_401" data-name="Grupo 401" transform="translate(39.484 5.078)">
                <g id="Grupo_400" data-name="Grupo 400">
                  <path id="Trazado_859" data-name="Trazado 859" d="M1441.495,2764.72v-.752a64.564,64.564,0,0,0,6.674-.328l-1.046-.5a58.493,58.493,0,0,1-6.281.321c-3.1,0-5.191-.306-5.191-.73s1.7-.663,4.929-.886c4.449-.3,7.2-.641,7.2-1.289,0-.619-2.573-1.088-6.586-1.2v-.752h-2.7v.722c-2.618.015-4.406.134-5.672.261l1.092.491a53.684,53.684,0,0,1,5.494-.253c3.36,0,4.624.343,4.624.641,0,.388-1.614.581-5.409.849-4.493.313-6.76.7-6.76,1.363,0,.588,2.4,1.14,6.892,1.266v.775Z" transform="translate(-1431.856 -2758.605)" fill="#fcd183"/>
                </g>
              </g>
            </g>
          </g>
        </g>
      </g>
      <g id="Grupo_408" data-name="Grupo 408" transform="translate(35.365 0)">
        <circle id="Elipse_81" data-name="Elipse 81" cx="39.592" cy="39.592" r="39.592" fill="#f7c90b"/>
        <path id="Trazado_860" data-name="Trazado 860" d="M1373.458,2671.645a30.077,30.077,0,1,0,60.154,0c0-.579-.013-1.158-.051-1.738a30.076,30.076,0,0,1-60.051,0C1373.471,2670.486,1373.458,2671.065,1373.458,2671.645Z" transform="translate(-1363.943 -2628.582)" fill="#fcd183"/>
        <ellipse id="Elipse_82" data-name="Elipse 82" cx="30.026" cy="28.339" rx="30.026" ry="28.339" transform="translate(9.567 12.986)" fill="#dd9624"/>
        <path id="Trazado_861" data-name="Trazado 861" d="M1373.458,2610.937c0,.734.026,1.455.09,2.163a30.063,30.063,0,0,1,59.974,0c.065-.708.09-1.429.09-2.163a30.077,30.077,0,1,0-60.154,0Z" transform="translate(-1363.943 -2571.35)" fill="#a36f40"/>
        <g id="Grupo_407" data-name="Grupo 407" transform="translate(32.814 24.712)">
          <g id="Grupo_406" data-name="Grupo 406">
            <path id="Trazado_862" data-name="Trazado 862" d="M1444.214,2653.169v-3.66a10.557,10.557,0,0,1-5.546-1.6l.869-2.429a9.657,9.657,0,0,0,5.22,1.558c2.574,0,4.313-1.486,4.313-3.552,0-1.994-1.414-3.226-4.1-4.314-3.7-1.449-5.98-3.117-5.98-6.271,0-3.009,2.139-5.292,5.474-5.837v-3.66h2.246v3.516a9.669,9.669,0,0,1,4.714,1.269l-.907,2.393a8.746,8.746,0,0,0-4.566-1.232c-2.792,0-3.843,1.667-3.843,3.117,0,1.884,1.341,2.828,4.495,4.132,3.734,1.523,5.619,3.408,5.619,6.634,0,2.864-1.994,5.546-5.728,6.163v3.769Z" transform="translate(-1438.668 -2623.41)" fill="#fcd183"/>
          </g>
        </g>
      </g>
    </g>
  </g>
</svg>
