<svg xmlns="http://www.w3.org/2000/svg" width="941.106" height="959.178" viewBox="0 0 941.106 959.178">
  <g id="Grupo_787" data-name="Grupo 787" transform="translate(-929.188 -62.639)">
    <path id="Trazado_248" data-name="Trazado 248" d="M1510.132,5252.685c-171.757-369.584-183.746-508.925,0-576.962s546.825,87.634,600.046,172.206S1681.888,5622.271,1510.132,5252.685Z" transform="matrix(0.407, 0.914, -0.914, 0.407, 5266.525, -3090.085)" fill="#f7c90b"/>
    <g id="Grupo_142" data-name="Grupo 142" transform="translate(-131.694 -184.08)">
      <g id="Grupo_141" data-name="Grupo 141" transform="translate(1205 512)">
        <g id="Grupo_126" data-name="Grupo 126" transform="translate(174.398 0)">
          <path id="Trazado_314" data-name="Trazado 314" d="M550.988,496.365c-22.545-25.441-89.133-60.034-71.637-99.705,14.883-33.743,86.3-29.585,77.7-70.272-5.084-24.064-11.678-44.6,3.856-71.966,16.922-29.806,67.5-13.579,85.041-41.255,15.063-23.776-4.522-60.514,26.6-76.392,27.629-14.1,61.009,13.442,65.988,37.856,6.228,30.522-24,44.869-27.877,71.433-2.471,16.914,12.933,22.807,21.759,34.648,8.451,11.338,16.047,27.647,16.606,41.691,1.679,42.2-44.572,47.666-66.5,74.5-20.307,24.85,17.147,40.868,11.533,67.888-6.059,29.163-47.573,45.084-76.791,44.654C597,509.146,564.957,512.129,550.988,496.365Z" transform="translate(-476.456 -132.942)" fill="#00e9d3"/>
          <g id="Grupo_121" data-name="Grupo 121" transform="translate(102.463 74.158)">
            <path id="Trazado_315" data-name="Trazado 315" d="M513.182,461.594a1.957,1.957,0,0,1-.533-.169,1.529,1.529,0,0,1-.707-2.3c.4-.605,41.7-62.7,44.086-140.739,1.58-52.022,23.2-85.312,40.934-112.621,10.712-16.492,20.051-30.88,21.48-45.3a2.342,2.342,0,0,1,2.418-2.043,2.013,2.013,0,0,1,2,2.229c-1.566,15.441-11.187,30.216-22.213,47.154-17.472,26.841-38.8,59.577-40.428,110.531-2.538,78.991-44.43,141.787-44.843,142.395A2.209,2.209,0,0,1,513.182,461.594Z" transform="translate(-511.664 -158.424)" fill="#fff"/>
          </g>
          <g id="Grupo_122" data-name="Grupo 122" transform="translate(148.793 164.744)">
            <path id="Trazado_316" data-name="Trazado 316" d="M529.148,259.132a1.832,1.832,0,0,1-1.551-1.985,2.153,2.153,0,0,1,2.313-1.769c17.49,1.048,40.859-9.176,47.922-26.224.85-2.049,1.7-4.322,2.593-6.705,4.272-11.449,9.644-25.813,20.88-30.985,5.5-2.526,11.865-2.532,18.832-.131a1.825,1.825,0,0,1,1.089,2.543,2.355,2.355,0,0,1-2.808,1.193c-5.98-2.06-11-2.092-15.424-.064-9.522,4.386-14.56,17.816-18.579,28.517-.911,2.427-1.784,4.741-2.648,6.821-8.044,19.341-33.356,29.957-52.31,28.825A1.981,1.981,0,0,1,529.148,259.132Z" transform="translate(-527.585 -189.552)" fill="#fff"/>
          </g>
          <g id="Grupo_123" data-name="Grupo 123" transform="translate(111.684 132.311)">
            <path id="Trazado_317" data-name="Trazado 317" d="M541.094,278.453c-8.122-1.828-14.283-5.384-18.372-10.645-6.493-8.344-7.514-20.915-2.866-36.45.46-1.537,1.048-3.321,1.691-5.27,3.644-11.1,9.214-28.042,3.731-37.448-1.822-3.123-4.72-5.145-8.861-6.187a2,2,0,0,1-1.5-2.517,2.262,2.262,0,0,1,2.689-1.464l.023.006c5.253,1.327,9.118,4.063,11.489,8.14,6.324,10.89.4,28.8-3.469,40.53-.629,1.912-1.2,3.658-1.659,5.171-4.319,14.353-3.533,25.81,2.215,33.214,4.9,6.309,13.486,9.813,25.464,10.456A1.852,1.852,0,0,1,553.559,278a2.155,2.155,0,0,1-2.3,1.793A61.064,61.064,0,0,1,541.094,278.453Z" transform="translate(-514.833 -178.407)" fill="#fff"/>
          </g>
          <g id="Grupo_124" data-name="Grupo 124" transform="translate(120.446 308.665)">
            <path id="Trazado_318" data-name="Trazado 318" d="M525.387,283.08a19.915,19.915,0,0,1-6.725-2.456,1.56,1.56,0,0,1-.422-2.41,2.229,2.229,0,0,1,2.811-.463c10.471,6.315,31.765-1.892,40.821-8.277,3.777-2.669,7.17-7.3,10.765-12.217,6.44-8.795,13.14-17.95,23.724-18.247a1.712,1.712,0,0,1,1.956,1.717,2.057,2.057,0,0,1-2.078,1.836c-8.344.242-14.408,8.518-20.243,16.46-3.8,5.18-7.374,10.055-11.708,13.1C556.168,277.857,538.416,285.455,525.387,283.08Z" transform="translate(-517.844 -239.006)" fill="#fff"/>
          </g>
          <g id="Grupo_125" data-name="Grupo 125" transform="translate(79.817 254.858)">
            <path id="Trazado_319" data-name="Trazado 319" d="M534.914,314.571a24.941,24.941,0,0,1-7.246-2.555c-13.186-7.011-21.006-24.969-23.046-35.428-1.088-5.62.594-13.04,2.378-20.942,2.861-12.621,5.847-25.8-2.369-31.8a1.741,1.741,0,0,1-.259-2.64,2.313,2.313,0,0,1,2.96-.279c10.107,7.409,6.7,22.333,3.728,35.362-1.729,7.558-3.344,14.659-2.383,19.62,1.827,9.467,9.2,26.727,21.2,33.124a19.827,19.827,0,0,0,14.688,1.752,2.01,2.01,0,0,1,2.456,1.164,1.809,1.809,0,0,1-1.446,2.171A24.752,24.752,0,0,1,534.914,314.571Z" transform="translate(-503.883 -220.517)" fill="#fff"/>
          </g>
        </g>
        <g id="Grupo_130" data-name="Grupo 130" transform="translate(340.331 114.988)">
          <path id="Trazado_320" data-name="Trazado 320" d="M603.638,506.565c-38.679-9.551-69.317-18.189-70.15-59.167-.434-21.2,9.027-35.839,31.4-47.6,18.089-9.51,27.379-12.779,31.54-31.555,6.656-30.039-7.846-59.656,11.076-88.708,21.107-32.408,68.744-17.627,90.733-47.017,19.725-26.363,30.539-60.543,72.231-60.057,35.082.41,49.391,37.055,34.372,62.476-8.451,14.306-23.249,24.39-29.25,39.706-5.724,14.618.562,26.564,6.19,39.913,12.435,29.495,15.462,59.894-18.386,79.381-20.229,11.647-35.821,21.873-28.528,43.717,7.66,22.955,11.091,36.051-16.783,53.332-20.834,12.915-39.835,11.868-63.759,12.863-22.429.931-52.4,7.078-73.569-2.637Z" transform="translate(-533.474 -172.454)" fill="#e2acd0"/>
          <g id="Grupo_127" data-name="Grupo 127" transform="translate(75.355 58.791)">
            <path id="Trazado_321" data-name="Trazado 321" d="M566.728,446.72a28.972,28.972,0,0,1-6.548-11.536c-4.671-17.19,11.679-34.416,26.491-50.02,7.47-7.858,14.6-15.369,17.944-21.78,9.135-17.449,11.859-33.025,9.921-57.435C612.22,277,620,265.16,643.624,246.02c19.914-16.16,39.6-33.95,45.148-51.574.425-1.374,2.177-2.11,3.909-1.656s2.791,1.932,2.354,3.3c-5.931,18.747-26.314,37.093-46.871,53.664-22.877,18.418-29.957,29.11-27.81,56.647,1.627,20.8.434,38.819-10.439,59.452-3.585,6.83-10.922,14.5-18.587,22.531-14.315,14.982-30.129,31.526-25.956,46.921,1.6,5.937,6.065,11.382,13.646,16.637,1.234.893,1.656,2.258.867,3.088s-2.439.786-3.7-.093A53.44,53.44,0,0,1,566.728,446.72Z" transform="translate(-559.368 -192.656)" fill="#fff"/>
          </g>
          <g id="Grupo_128" data-name="Grupo 128" transform="translate(130.991 150.398)">
            <path id="Trazado_322" data-name="Trazado 322" d="M579.168,273.213a2.431,2.431,0,0,1-.681-1.493c-.055-1.283,1.19-2.191,2.788-2.023,13.992,1.531,24.329-9.388,35.466-21.151,9.866-10.413,20.226-21.349,34.407-24.335a3.793,3.793,0,0,1,4.077,1.8c.643,1.336-.142,2.686-1.758,3.024-12.435,2.59-22.309,12.947-31.706,22.807-11.556,12.115-23.267,24.416-40.262,22.536A3.8,3.8,0,0,1,579.168,273.213Z" transform="translate(-578.485 -224.134)" fill="#fff"/>
          </g>
          <g id="Grupo_129" data-name="Grupo 129" transform="translate(90.31 116.342)">
            <path id="Trazado_323" data-name="Trazado 323" d="M594.7,331.194a2.761,2.761,0,0,1-.518-.818,48.06,48.06,0,0,1-2.488-9.281c-.885-4.627-1.662-8.632-5.739-13.713a80.715,80.715,0,0,0-6.915-7.287c-4.895-4.8-9.967-9.685-12.243-17.548-3.257-11.239-3.047-25.22.658-41.691a82.565,82.565,0,0,1,2.977-8.937c1.816-4.93,5.235-14.158,4.1-16.215a2.079,2.079,0,0,1,1.161-3.1,3.361,3.361,0,0,1,3.795,1.228c2.337,3.513.192,9.97-3.585,20.089a82.256,82.256,0,0,0-2.863,8.477c-2.485,10.936-4.616,26.628-.795,39.855,1.892,6.606,6.015,10.6,10.82,15.249a88.326,88.326,0,0,1,7.444,7.878c4.93,6.111,5.873,11.091,6.792,15.9a43.953,43.953,0,0,0,2.261,8.533,1.867,1.867,0,0,1-1.793,2.57A3.771,3.771,0,0,1,594.7,331.194Z" transform="translate(-564.507 -212.432)" fill="#fff"/>
          </g>
        </g>
        <g id="Grupo_136" data-name="Grupo 136" transform="translate(0 93.803)">
          <path id="Trazado_324" data-name="Trazado 324" d="M594.469,514.973c-42.826-7.779-82.925-4.482-100.261-51.365-13.716-37.1,18.264-72.062-13.922-97.558-19.367-15.342-49.924-24.547-56.681-50.777-7.037-27.324,27.923-44.639,21.637-70.854-5.192-21.666-35.26-23.107-27.414-51.321,6.961-25.03,28.977-31.337,46.481-26.34,23.4,6.682,25.339,28.095,40.871,42.957,10.363,9.921,25.048-.046,40.259-1.877,15.147-1.822,34.541-.474,47.372,6.21,41.668,21.7,8.274,67.67,15.843,105.086,7.316,36.176,58.25,14.309,84.564,41.482,30.737,31.733,7.549,86.613-22.737,112.516C650.3,490.388,623.413,520.231,594.469,514.973Z" transform="translate(-416.529 -165.175)" fill="#d0d1de"/>
          <g id="Grupo_131" data-name="Grupo 131" transform="translate(48.755 44.055)">
            <path id="Trazado_325" data-name="Trazado 325" d="M603.8,476.607a2.29,2.29,0,0,1-.687.262,2.7,2.7,0,0,1-3.2-1.822c-.288-.966-28.156-94.109-96.012-155.453-38.2-34.521-47.285-70.185-54.38-98.055-4.138-16.259-7.668-30.1-15.8-37.6a2.061,2.061,0,0,1,.163-2.733,1.788,1.788,0,0,1,2.546-.562c8.765,8.02,12.424,22.289,16.725,39.055,7.054,27.5,16.073,62.694,53.763,96.493,69.216,62.08,97.7,156.7,97.988,157.682A2.351,2.351,0,0,1,603.8,476.607Z" transform="translate(-433.282 -180.313)" fill="#fff"/>
          </g>
          <g id="Grupo_132" data-name="Grupo 132" transform="translate(118.889 64.067)">
            <path id="Trazado_326" data-name="Trazado 326" d="M460.609,303.761a2.034,2.034,0,0,1-2.733-.1,2.227,2.227,0,0,1,.259-3.059c13.727-13.532,22.65-39.619,13.707-56.053-1.053-1.938-2.284-4-3.568-6.152-6.088-10.183-13.521-22.632-9.65-34.756,1.9-5.937,6.382-11.306,13.259-16a1.883,1.883,0,0,1,2.832.384,2.53,2.53,0,0,1-1.062,3.029c-5.943,4.022-9.534,8.25-11.076,13.049-3.291,10.337,3.737,22.024,9.479,31.578,1.321,2.194,2.578,4.3,3.664,6.271,10.264,18.739.148,46.871-14.854,61.585A2.525,2.525,0,0,1,460.609,303.761Z" transform="translate(-457.382 -187.189)" fill="#fff"/>
          </g>
          <g id="Grupo_133" data-name="Grupo 133" transform="translate(26.959 141.6)">
            <path id="Trazado_327" data-name="Trazado 327" d="M510.387,261.44c-7.211,5.139-14.266,7.5-21.041,7.072-10.5-.658-20.074-8.146-27.728-21.468-.742-1.3-1.569-2.832-2.468-4.508-5.067-9.4-12.584-23.375-21.783-24.658-3-.419-5.94.553-8.992,2.957a1.522,1.522,0,0,1-2.375-.323,2.3,2.3,0,0,1,.69-2.736l.017-.015c3.856-3.047,7.788-4.342,11.7-3.815,10.677,1.443,18.677,16.215,24.067,26.171.893,1.641,1.708,3.149,2.447,4.429,7.124,12.319,15.8,19.207,25.127,19.748,8.143.469,16.9-3.873,26-12.959a2.051,2.051,0,0,1,2.983-.154,2.23,2.23,0,0,1-.227,3.064A67.892,67.892,0,0,1,510.387,261.44Z" transform="translate(-425.792 -213.832)" fill="#fff"/>
          </g>
          <g id="Grupo_134" data-name="Grupo 134" transform="translate(202.937 192.875)">
            <path id="Trazado_328" data-name="Trazado 328" d="M497.992,333.921a24.977,24.977,0,0,1-8.765,3.321,2.509,2.509,0,0,1-2.925-1.953,2.414,2.414,0,0,1,2.046-2.805c16.393-2.852,27.228-29.143,28.607-43.012.567-5.765-1.406-12.9-3.5-20.406-3.676-13.259-7.444-26.82,1.9-36.659a2.725,2.725,0,0,1,3.693-.416,2.241,2.241,0,0,1,.1,3.387c-7.433,7.8-3.969,20.147-.6,32.2,2.226,7.953,4.339,15.508,3.681,22.152C521,302.232,512.741,325.022,497.992,333.921Z" transform="translate(-486.263 -231.451)" fill="#fff"/>
          </g>
          <g id="Grupo_135" data-name="Grupo 135" transform="translate(88.655 247.694)">
            <path id="Trazado_329" data-name="Trazado 329" d="M553.462,308.623a29.327,29.327,0,0,1-8.992,3.5c-18.244,3.964-41.432-6.469-52.34-14.2-5.71-4.06-10.738-11.708-16-19.7-8.2-12.464-16.495-25.091-26.954-23.5A1.905,1.905,0,0,1,447,252.9a2.312,2.312,0,0,1,1.857-2.427c12.889-2.008,22.341,12.272,30.865,25.158,5.064,7.66,9.912,14.976,14.987,18.544,9.9,6.961,32.088,16.958,48.673,13.285a21.683,21.683,0,0,0,14.746-10.485,2.608,2.608,0,0,1,3.419-.955,2.363,2.363,0,0,1,.981,3.283A25.971,25.971,0,0,1,553.462,308.623Z" transform="translate(-446.993 -250.288)" fill="#fff"/>
          </g>
        </g>
        <g id="Grupo_137" data-name="Grupo 137" transform="translate(111.056 207.364)">
          <rect id="Rectángulo_75" data-name="Rectángulo 75" width="400.017" height="268.216" rx="3.191" fill="#740945"/>
          <rect id="Rectángulo_76" data-name="Rectángulo 76" width="344.854" height="229.899" transform="translate(18.421 17.77)" fill="#fff"/>
          <path id="Trazado_330" data-name="Trazado 330" d="M597.364,255.026a7.232,7.232,0,1,1-7.232-7.232A7.231,7.231,0,0,1,597.364,255.026Z" transform="translate(-209.788 -120.918)" fill="#fff"/>
        </g>
        <g id="Grupo_139" data-name="Grupo 139" transform="translate(197.505 270.815)">
          <g id="Grupo_138" data-name="Grupo 138">
            <rect id="Rectángulo_77" data-name="Rectángulo 77" width="208.901" height="141.315" rx="3.263" fill="#e5e6ed"/>
            <rect id="Rectángulo_78" data-name="Rectángulo 78" width="189.908" height="118.802" transform="translate(9.496 11.257)" fill="#00e9d3"/>
          </g>
          <path id="Trazado_331" data-name="Trazado 331" d="M508.17,237.409V315.54l76.059-39.065Z" transform="translate(-438.984 -204.206)" fill="#d6184f"/>
        </g>
        <path id="Trazado_332" data-name="Trazado 332" d="M572.821,310s-48.271-.268-65.22-11.568-19.909-56.227,4.709-74.591,29.722-24.012,30.8-36.118.824-39.575,32.7-39.695c31.27-.116,28.575,25.5,30.953,41.8,1.656,11.35,17.269,28.1,30.938,38.551C655.264,241.8,674.9,321.3,572.821,310Z" transform="translate(-267.855 -104.125)" fill="#4e13d1"/>
        <path id="Trazado_333" data-name="Trazado 333" d="M527.474,158.893l10.494.329,10.494.332s2.124,28.686,7.491,32.259c0,0,5.7,33.988-20.051,33.179-31.156-.978-17.929-34.372-17.929-34.372C523.554,187.389,527.474,158.893,527.474,158.893Z" transform="translate(-228.081 -83.37)" fill="#e45940"/>
        <path id="Trazado_334" data-name="Trazado 334" d="M512.112,270.075h84.666l7.115-27.443c1.115-27.821,1.507-56.219,1.507-56.219-12.115-9.778-31.552-16.8-31.552-16.8-10.2,7.727-25.726,8.431-35.478,0,0,0-19.242,7.9-31.878,16.8,0,0-2.547,11.763-1.283,30.312A452.567,452.567,0,0,0,512.112,270.075Z" transform="translate(-247.807 -62.899)" fill="#fc7171"/>
        <path id="Trazado_335" data-name="Trazado 335" d="M583.628,259.049c-6.475-32.608-12.5-53.279-17.81-65.54-6.938-16.018-12.313-18.122-12.313-18.122-6.178-.562-10.869,51.315-21.48,83.662Z" transform="translate(-195.911 -51.873)" fill="#fc7171"/>
        <path id="Trazado_336" data-name="Trazado 336" d="M596.021,197.95c-1.659,4.575-4.624,8.3-7.511,12.4-2.622,3.722-9.81,24.344-37.981,22.388-11.646-.809-22.423-12.325-27.233-23.989-1.973-4.79-2.881-9.446-3.929-14.513-.751-3.626-.992-8.338-2.864-11.53-3.516.891-3.905,6.155-5.148,9.2-.762,1.874-5.861,8.943-6.266,3.641a452,452,0,0,0,6.583,49.5h91C600.939,225.951,595.867,203.779,596.021,197.95Z" transform="translate(-247.362 -37.878)" fill="#f26161"/>
        <path id="Trazado_337" data-name="Trazado 337" d="M564.835,174.312c-3.015-3.254-6.344,1.947-6.344,1.947a82.7,82.7,0,0,0,1.571-12.368c-6.955-3.853-13.978-8.343-20.56-10.369v-.047l-.064.023-.061-.023v.047c-6.583,2.025-13.608,6.516-20.563,10.369a82.461,82.461,0,0,0,1.574,12.368s-3.332-5.2-6.347-1.947,4.429,11.932,6.143,13c0,0,6.132,14.944,13.858,19.911,2.005,1.289,8.134,1.635,11.108-.285,7.73-4.994,13.541-19.626,13.541-19.626C560.406,186.244,567.847,177.565,564.835,174.312Z" transform="translate(-231.62 -93.72)" fill="#fccaea"/>
        <g id="Grupo_140" data-name="Grupo 140" transform="translate(278.87 52.773)">
          <path id="Trazado_338" data-name="Trazado 338" d="M561.9,163.128s-10.576,18.7-36.755,16.917c0,0,1.283,2.215-.279,6.231,0,0-1.883-7.369-5.934-5.07-2.124,1.2-2.171,4.258.038,7.488,1,1.455-6.426-1.228-6.426-1.228s-3.062-28.453,15.791-34.925S561.9,163.128,561.9,163.128Z" transform="translate(-512.355 -151.076)" fill="#4e13d1"/>
          <path id="Trazado_339" data-name="Trazado 339" d="M529.43,151.867a22.788,22.788,0,0,0-.4,4.066c.041,2.9-4.144,4.968-4.255,7.855.576.629,1.152,1.313,1.72,2.025,3.51,4.412,5.052,6.932,6.3,12.429.346,1.525-.509,2.622,1.874,6.784,0,0,1.825-7.4,6.35-6.3.888.215,2.654,1.554,1.094,5.247-.565,1.339,4.688-5.506,4.688-5.506S546.62,151.282,529.43,151.867Z" transform="translate(-488.622 -149.582)" fill="#4e13d1"/>
        </g>
        <path id="Trazado_340" data-name="Trazado 340" d="M526.467,269.986c1,2.287,6.213,5.78,4.368,8.876-.928,1.557-5.637-1.729-6.676-3.07-1.464-1.895-11.591-17.612-13.186-22.149-1.246-3.55-2.416-7.011-3.812-10.264a51.4,51.4,0,0,0,10.13-8.116c5.174,2.381,10.669,5.692,15.761,7.924,2.727,1.2,5.725,2.034,8.5,3.062,1.755.652,5.486,1.6,5.646,3.949.18,2.576-3.577,1.816-5.058,1.516-2.142-.428-6.071-2.471-7.584-.02-2.2,3.565,4.461,7.7,6.7,10.13,2.078,2.255,9.694,9.2,4.124,9.758-1.173.116-9.08-6.682-10.32-7.581.253.323,5.329,5.232,5.579,5.57,1.307,1.767,5.11,5.448,3.975,7.264-2.43,3.888-10.782-6.367-12.054-7.738-.014-.015,3.184,4.06,3.169,4.042,2.712,3.07,4.409,5.663,2.127,6.629C534.982,280.984,528.979,272.568,526.467,269.986Z" transform="translate(-243.406 62.508)" fill="#fccaea"/>
        <path id="Trazado_341" data-name="Trazado 341" d="M556.95,352.94l-17.3,11.53s-54.508-70.6-48.583-97.255c7.014-31.541,25.3-66.8,35.388-83.2,3.906-6.35,7.249-8.632,7.249-8.632,10.4,10,16.344,23.954,15,36.491-.6,5.6-3.312,9.246-6.315,14.95-9.2,17.452-20.447,47.712-20.077,50.788C522.9,282.554,556.95,352.94,556.95,352.94Z" transform="translate(-275.015 -51.87)" fill="#fc7171"/>
      </g>
    </g>
    <g id="TUERCA-ELEMENTO_AUX" data-name="TUERCA-ELEMENTO AUX" transform="translate(1073.737 335.806) rotate(-41)">
      <path id="Trazado_342" data-name="Trazado 342" d="M2114.209,5766.908a19.12,19.12,0,0,0-.523,2.783l-4.948,1.021,2.408,11.666,4.948-1.021a20.807,20.807,0,0,0,1.579,2.347l-2.775,4.215,9.948,6.544,2.774-4.215a19.08,19.08,0,0,0,2.784.523l1.021,4.948,11.667-2.409-1.021-4.948a20.855,20.855,0,0,0,2.347-1.579l4.215,2.774,6.544-9.948-4.215-2.774a19.068,19.068,0,0,0,.523-2.784l4.948-1.02-2.408-11.667-4.948,1.021a20.826,20.826,0,0,0-1.58-2.347l2.775-4.214-9.948-6.544-2.775,4.214a19.068,19.068,0,0,0-2.784-.523l-1.021-4.948-11.667,2.409,1.021,4.948a20.837,20.837,0,0,0-2.347,1.58l-4.215-2.775-6.544,9.947Zm8.351-1.641a12,12,0,1,1,3.429,16.623A12,12,0,0,1,2122.56,5765.268Zm50.916,17.024a12,12,0,0,0-.331,1.745l-3.107.646,1.509,7.339,3.107-.646a11.773,11.773,0,0,0,.995,1.475l-1.745,2.652,6.256,4.119,1.746-2.653a12.094,12.094,0,0,0,1.745.332l.646,3.106,7.339-1.51-.646-3.106a11.739,11.739,0,0,0,1.475-1l2.653,1.746,4.119-6.257-2.653-1.745a12.074,12.074,0,0,0,.331-1.746l3.107-.646-1.51-7.339-3.106.646a11.782,11.782,0,0,0-.995-1.475l1.746-2.652-6.257-4.119-1.745,2.653a11.977,11.977,0,0,0-1.746-.332l-.646-3.107-7.338,1.51.646,3.115a11.75,11.75,0,0,0-1.475.995l-2.653-1.745-4.119,6.257Zm5.253-1.03a7.547,7.547,0,1,1,2.156,10.454A7.544,7.544,0,0,1,2178.729,5781.262Z" transform="translate(-2108.738 -5748.024)" fill="#e9c732"/>
      <path id="Trazado_343" data-name="Trazado 343" d="M2137.985,5911.63a9.791,9.791,0,1,0,9.791-9.791A9.787,9.787,0,0,0,2137.985,5911.63Z" transform="translate(-2123.474 -5825.521)" fill="#b95e89"/>
    </g>
    <g id="LUPA-ELEMENTO_AUX" data-name="LUPA-ELEMENTO AUX" transform="translate(1655 642)">
      <g id="Grupo_148" data-name="Grupo 148" transform="translate(0 0)">
        <g id="Grupo_147" data-name="Grupo 147" transform="translate(0 0)">
          <g id="Grupo_146" data-name="Grupo 146" transform="translate(83.636)">
            <ellipse id="Elipse_24" data-name="Elipse 24" cx="36.9" cy="36.889" rx="36.9" ry="36.889" transform="matrix(0.122, -0.993, 0.993, 0.122, 0, 73.246)" fill="#ff7171"/>
            <path id="Trazado_352" data-name="Trazado 352" d="M4101.445,5664.988l10.364,17.827a2.665,2.665,0,1,0,4.6-2.686l-10.365-17.827a18.162,18.162,0,1,0-4.6,2.686Zm-17.828-10.375a12.861,12.861,0,1,1,17.578,4.646A12.885,12.885,0,0,1,4083.618,5654.612Z" transform="translate(-4059.467 -5617.258)" fill="#f5f6f8"/>
          </g>
          <circle id="Elipse_25" data-name="Elipse 25" cx="9.076" cy="9.076" r="9.076" transform="translate(0 29.707)" fill="#b95e89"/>
        </g>
      </g>
    </g>
    <g id="AVION_TUERCAS" data-name="AVION+TUERCAS" transform="translate(971.6 503.901)">
      <path id="Trazado_353" data-name="Trazado 353" d="M4233.352,6479.615a17.993,17.993,0,0,0,1.542-2.26l4.781,1.01,2.381-11.275-4.781-1.01a18.8,18.8,0,0,0-.494-2.691l4.088-2.66-6.291-9.656-4.089,2.66a17.968,17.968,0,0,0-2.26-1.543l1.009-4.78-11.274-2.381-1.01,4.78a18.756,18.756,0,0,0-2.691.5l-2.668-4.089-9.655,6.292,2.666,4.089a17.787,17.787,0,0,0-1.542,2.26l-4.781-1.009-2.381,11.275,4.781,1.009a18.575,18.575,0,0,0,.5,2.692l-4.089,2.666,6.291,9.656,4.089-2.66a17.837,17.837,0,0,0,2.261,1.543l-1.01,4.781,11.275,2.38,1.009-4.78a18.955,18.955,0,0,0,2.692-.5l2.66,4.088,9.656-6.291Zm-8.038-1.783a11.612,11.612,0,1,1,3.391-16.068A11.617,11.617,0,0,1,4225.313,6477.832Zm-38.561-34.8a11.978,11.978,0,0,0,.971-1.422l3.009.636,1.5-7.093-3.009-.635a11.952,11.952,0,0,0-.312-1.694l2.571-1.677-3.955-6.075-2.571,1.676a11.324,11.324,0,0,0-1.422-.972l.635-3.009-7.091-1.5-.635,3.009a12.1,12.1,0,0,0-1.7.311l-1.676-2.57L4167,6425.97l1.676,2.57a11.471,11.471,0,0,0-.971,1.423l-3.01-.635-1.5,7.092,3.009.634a12.145,12.145,0,0,0,.312,1.7l-2.571,1.676,3.955,6.069,2.571-1.677a11.362,11.362,0,0,0,1.422.972l-.635,3.01,7.092,1.5.634-3.008a12.119,12.119,0,0,0,1.7-.312l1.676,2.571,6.069-3.956Zm-5.055-1.123a7.3,7.3,0,1,1,2.133-10.1A7.3,7.3,0,0,1,4181.7,6441.905Z" transform="translate(-4163.192 -6378.165)" fill="#00ebd5" style="isolation: isolate"/>
      <g id="Grupo_149" data-name="Grupo 149" transform="translate(4.952)">
        <path id="Trazado_354" data-name="Trazado 354" d="M4236.2,6303.531c-1.276-.241-42.74-1.663-42.74-1.663l-1.879,6.114Z" transform="translate(-4186.282 -6301.868)" fill="#e9b4de"/>
        <path id="Trazado_355" data-name="Trazado 355" d="M4191.577,6310.927l5.562,17.065,39.057-21.516Z" transform="translate(-4186.282 -6304.813)" fill="#b95e89"/>
        <path id="Trazado_356" data-name="Trazado 356" d="M4192.486,6327.992l39.057-21.516-47.247,11.51Z" transform="translate(-4181.629 -6304.813)" fill="#cd99c2"/>
        <path id="Trazado_357" data-name="Trazado 357" d="M4179.577,6317.986l47.246-11.51-49.913,22.15Z" transform="translate(-4176.91 -6304.813)" fill="#e9b4de"/>
      </g>
      <path id="Trazado_358" data-name="Trazado 358" d="M4227,6659.774a5.238,5.238,0,1,0,5.238-5.237A5.238,5.238,0,0,0,4227,6659.774Z" transform="translate(-4203.964 -6527.227)" fill="#b95e89"/>
    </g>
  </g>
</svg>
