<svg width="2210" height="1778" viewBox="0 0 2210 1778" fill="none" xmlns="http://www.w3.org/2000/svg">
<g clip-path="url(#clip0)">
<rect width="2210" height="1778" fill="white"/>
<path d="M265.169 778.386C936.911 54.296 1244.14 -105.001 1588.08 225.761C1932.02 556.523 1946.45 1487.98 1806.97 1683.66C1667.49 1879.34 -406.579 1502.48 265.169 778.386Z" fill="#4E01D4"/>
<path d="M47.6195 1214.56C48.6854 1216.58 49.9069 1218.53 51.2746 1220.38L43.6726 1229.82L67.6458 1247.13L75.2477 1237.7C77.4984 1238.44 79.7979 1239.05 82.1293 1239.5L83.9367 1251.35L113.55 1247.87L111.741 1236.01C113.864 1235.05 115.905 1233.93 117.847 1232.68L128.015 1240.03L145.937 1217.77L135.769 1210.43C136.518 1208.32 137.113 1206.17 137.55 1203.98L150.1 1202.5L145.822 1174.53L133.273 1176.01C132.207 1173.99 130.985 1172.04 129.616 1170.19L137.219 1160.76L113.244 1143.44L105.642 1152.87C103.391 1152.13 101.092 1151.53 98.7601 1151.07L96.9539 1139.22L67.34 1142.71L69.147 1154.56C67.0236 1155.53 64.9822 1156.64 63.0402 1157.89L52.8725 1150.55L34.9506 1172.8L45.1175 1180.15C44.3691 1182.26 43.7749 1184.41 43.3383 1186.6L30.7873 1188.07L35.0624 1216.04L47.6195 1214.56ZM60.5867 1198.78C59.7358 1193.21 60.6537 1187.55 63.2251 1182.53C65.7966 1177.51 69.9063 1173.35 75.0335 1170.58C80.1607 1167.8 86.0758 1166.54 92.0307 1166.95C97.9857 1167.35 103.712 1169.41 108.488 1172.86C113.264 1176.31 116.874 1181 118.861 1186.33C120.848 1191.66 121.123 1197.4 119.652 1202.82C118.181 1208.23 115.029 1213.08 110.595 1216.76C106.161 1220.43 100.644 1222.77 94.7422 1223.46C90.8227 1223.92 86.8298 1223.65 82.992 1222.66C79.1543 1221.67 75.5463 1219.98 72.3748 1217.69C69.2032 1215.4 66.5304 1212.55 64.5079 1209.31C62.4855 1206.06 61.1537 1202.49 60.5883 1198.79L60.5867 1198.78ZM184.701 1151.27C185.367 1152.53 186.132 1153.75 186.987 1154.92L182.222 1160.85L197.292 1171.75L202.057 1165.82C203.47 1166.3 204.918 1166.68 206.387 1166.95L207.526 1174.41L226.155 1172.22L225.016 1164.76C226.348 1164.15 227.63 1163.46 228.85 1162.68L235.242 1167.28L246.525 1153.29L240.133 1148.69C240.612 1147.36 240.982 1146 241.24 1144.62L249.139 1143.69L246.454 1126.1L238.557 1127.03C237.89 1125.76 237.125 1124.54 236.269 1123.37L241.035 1117.44L225.963 1106.54L221.199 1112.47C219.786 1111.99 218.339 1111.62 216.869 1111.34L215.731 1103.88L197.101 1106.07L198.242 1113.53C196.908 1114.13 195.626 1114.83 194.405 1115.61L188.012 1111.01L176.731 1125L183.138 1129.62C182.658 1130.94 182.285 1132.29 182.023 1133.67L174.126 1134.6L176.81 1152.2L184.701 1151.27ZM192.862 1141.34C192.326 1137.84 192.904 1134.28 194.521 1131.12C196.138 1127.97 198.722 1125.35 201.947 1123.6C205.172 1121.86 208.892 1121.06 212.637 1121.32C216.382 1121.58 219.985 1122.87 222.988 1125.04C225.992 1127.21 228.262 1130.16 229.511 1133.51C230.761 1136.87 230.933 1140.47 230.008 1143.88C229.082 1147.29 227.1 1150.34 224.311 1152.65C221.522 1154.96 218.052 1156.43 214.34 1156.86C211.875 1157.15 209.364 1156.98 206.951 1156.36C204.537 1155.74 202.268 1154.68 200.273 1153.24C198.278 1151.79 196.597 1150 195.326 1147.96C194.054 1145.92 193.218 1143.67 192.863 1141.35L192.862 1141.34Z" fill="#FF7171"/>
<path d="M175.163 1320.73C178.382 1324.21 182.606 1326.74 187.301 1327.98C191.996 1329.23 196.949 1329.14 201.537 1327.73C206.124 1326.32 210.139 1323.65 213.072 1320.07C216.006 1316.48 217.728 1312.13 218.019 1307.58C218.311 1303.02 217.16 1298.46 214.711 1294.47C212.262 1290.48 208.626 1287.24 204.261 1285.16C199.897 1283.08 195.001 1282.25 190.193 1282.79C185.385 1283.32 180.879 1285.19 177.247 1288.15C174.835 1290.12 172.867 1292.52 171.456 1295.23C170.046 1297.93 169.22 1300.88 169.027 1303.91C168.833 1306.93 169.275 1309.97 170.328 1312.86C171.381 1315.75 173.024 1318.42 175.163 1320.73V1320.73Z" fill="#B95E89"/>
<path d="M1701.82 1455.14C1701.83 1467.94 1705.86 1480.45 1713.42 1491.09C1720.99 1501.73 1731.73 1510.02 1744.3 1514.92C1756.88 1519.82 1770.71 1521.09 1784.05 1518.59C1797.4 1516.1 1809.66 1509.93 1819.28 1500.88C1828.9 1491.83 1835.45 1480.29 1838.1 1467.74C1840.75 1455.19 1839.39 1442.18 1834.18 1430.35C1828.97 1418.53 1820.15 1408.42 1808.83 1401.32C1797.52 1394.21 1784.21 1390.41 1770.61 1390.42C1761.57 1390.41 1752.63 1392.09 1744.28 1395.34C1735.93 1398.59 1728.35 1403.36 1721.96 1409.37C1715.57 1415.38 1710.51 1422.52 1707.05 1430.37C1703.6 1438.22 1701.82 1446.64 1701.82 1455.14V1455.14Z" fill="white"/>
<path d="M1770.63 1406.01C1768.44 1414.06 1766.99 1422.28 1766.32 1430.57C1765.55 1438.74 1765.23 1446.94 1765.34 1455.14L1770.63 1450.15C1762.95 1450.25 1755.27 1450.55 1747.59 1451.35C1739.82 1452.03 1732.11 1453.3 1724.55 1455.14C1732.11 1456.97 1739.82 1458.24 1747.59 1458.91C1755.27 1459.71 1762.95 1460.01 1770.63 1460.11L1775.88 1460.18L1775.93 1455.13C1776.04 1446.93 1775.71 1438.73 1774.95 1430.56C1774.28 1422.27 1772.83 1414.06 1770.63 1406.01Z" fill="#83E9D4"/>
<path d="M1950.11 1237.49C1954.64 1240.83 2005.12 1297.44 2005.12 1297.44L2201.78 1311.66L1950.11 1237.49Z" fill="#E9B4DE"/>
<path d="M1981.49 1372.4L2005.12 1297.46L2201.75 1311.66L1981.49 1372.4Z" fill="#B95E89"/>
<path d="M1981.49 1372.4L2047.36 1338.92L2201.75 1311.66L1981.49 1372.4Z" fill="#CD99C2"/>
<path d="M2047.36 1338.92L2111.7 1407.31L2201.75 1311.66L2047.36 1338.92Z" fill="#E9B4DE"/>
<path d="M1966.12 1624.76C1967.07 1627.44 1968.23 1630.04 1969.59 1632.56L1958.25 1643.22L1985.01 1668.38L1996.34 1657.72C1999.02 1659 2001.79 1660.1 2004.63 1660.99V1676.06H2042.46V1660.99C2045.3 1660.09 2048.07 1659 2050.75 1657.72L2062.08 1668.38L2088.83 1643.22L2077.49 1632.56C2078.86 1630.04 2080.02 1627.44 2080.97 1624.76H2096.99V1589.19H2080.97C2080.02 1586.51 2078.86 1583.9 2077.49 1581.39L2088.83 1570.73L2062.08 1545.56L2050.75 1556.23C2048.07 1554.95 2045.3 1553.86 2042.46 1552.96V1537.89H2004.63V1552.96C2001.79 1553.85 1999.02 1554.95 1996.34 1556.23L1985.01 1545.56L1958.25 1570.73L1969.59 1581.39C1968.23 1583.9 1967.07 1586.51 1966.12 1589.19H1950.1V1624.76H1966.12ZM1985.43 1606.97C1985.43 1599.88 1987.66 1592.95 1991.85 1587.05C1996.04 1581.16 2002 1576.56 2008.96 1573.85C2015.93 1571.13 2023.59 1570.42 2030.98 1571.81C2038.38 1573.19 2045.17 1576.6 2050.5 1581.62C2055.83 1586.63 2059.46 1593.02 2060.94 1599.98C2062.41 1606.93 2061.65 1614.14 2058.77 1620.69C2055.88 1627.24 2050.99 1632.85 2044.73 1636.79C2038.46 1640.73 2031.09 1642.83 2023.55 1642.83C2018.54 1642.83 2013.58 1641.9 2008.96 1640.1C2004.33 1638.3 2000.13 1635.66 1996.59 1632.33C1993.05 1629 1990.24 1625.05 1988.33 1620.7C1986.41 1616.35 1985.43 1611.68 1985.43 1606.97V1606.97Z" fill="#4E01D4"/>
<path d="M1839.42 1298.92C1853.71 1298.92 1865.29 1288.02 1865.29 1274.58C1865.29 1261.14 1853.71 1250.24 1839.42 1250.24C1825.13 1250.24 1813.54 1261.14 1813.54 1274.58C1813.54 1288.02 1825.13 1298.92 1839.42 1298.92Z" fill="#B95E89"/>
<path d="M1835.58 1606.97C1835.58 1612.5 1837.32 1617.91 1840.59 1622.5C1843.85 1627.1 1848.49 1630.68 1853.92 1632.8C1859.35 1634.91 1865.33 1635.47 1871.09 1634.39C1876.86 1633.31 1882.15 1630.65 1886.31 1626.74C1890.46 1622.83 1893.29 1617.85 1894.44 1612.42C1895.59 1607 1895 1601.38 1892.75 1596.27C1890.5 1591.17 1886.69 1586.8 1881.8 1583.73C1876.92 1580.66 1871.17 1579.02 1865.29 1579.02C1861.39 1579.02 1857.53 1579.74 1853.92 1581.14C1850.31 1582.55 1847.04 1584.61 1844.28 1587.2C1841.52 1589.8 1839.33 1592.88 1837.83 1596.28C1836.34 1599.67 1835.57 1603.3 1835.58 1606.97V1606.97Z" fill="#B95E89"/>
<path d="M1329.16 481.706C1335.39 433.969 1299.32 390.518 1248.58 384.654C1197.85 378.791 1151.66 412.737 1145.43 460.473C1139.19 508.21 1175.27 551.662 1226 557.525C1276.74 563.388 1322.92 529.443 1329.16 481.706Z" fill="#FF7171"/>
<path d="M1239.41 486.718L1265.4 528.771C1265.83 529.514 1266.41 530.169 1267.11 530.696C1267.81 531.224 1268.62 531.614 1269.48 531.843C1270.34 532.071 1271.25 532.134 1272.14 532.027C1273.03 531.92 1273.88 531.646 1274.66 531.221C1275.43 530.795 1276.11 530.227 1276.65 529.55C1277.18 528.874 1277.57 528.102 1277.78 527.282C1277.99 526.463 1278.03 525.611 1277.88 524.778C1277.74 523.946 1277.42 523.148 1276.94 522.434L1250.95 480.381C1259.92 473.616 1265.84 463.908 1267.52 453.207C1269.2 442.505 1266.51 431.603 1260 422.688C1253.48 413.773 1243.63 407.505 1232.4 405.143C1221.18 402.782 1209.42 404.501 1199.49 409.956C1189.56 415.41 1182.19 424.196 1178.86 434.55C1175.53 444.905 1176.49 456.06 1181.55 465.778C1186.6 475.495 1195.37 483.055 1206.1 486.939C1216.84 490.823 1228.74 490.743 1239.41 486.718H1239.41ZM1194.7 462.244C1191.49 457.058 1189.99 451.093 1190.38 445.103C1190.78 439.114 1193.05 433.369 1196.92 428.594C1200.78 423.82 1206.07 420.231 1212.1 418.282C1218.14 416.333 1224.65 416.112 1230.82 417.645C1236.98 419.179 1242.53 422.399 1246.75 426.898C1250.98 431.397 1253.68 436.972 1254.54 442.92C1255.39 448.867 1254.35 454.919 1251.55 460.31C1248.74 465.7 1244.3 470.187 1238.79 473.203C1231.39 477.229 1222.6 478.336 1214.34 476.282C1206.08 474.228 1199.02 469.179 1194.71 462.241L1194.7 462.244Z" fill="#F5F6F8"/>
<path d="M947.155 487.022C959.725 487.022 969.916 477.437 969.916 465.612C969.916 453.788 959.725 444.203 947.155 444.203C934.584 444.203 924.394 453.788 924.394 465.612C924.394 477.437 934.584 487.022 947.155 487.022Z" fill="#B95E89"/>
<path d="M577.711 629.719C579.142 628.037 580.434 626.254 581.578 624.387L593.567 626.77L599.539 600.172L587.549 597.79C587.3 595.649 586.886 593.528 586.309 591.443L596.562 585.168L580.785 562.39L570.53 568.664C568.742 567.317 566.848 566.101 564.863 565.025L567.393 553.749L539.12 548.132L536.587 559.408C534.31 559.646 532.055 560.041 529.839 560.588L523.148 550.942L498.934 565.785L505.62 575.43C504.188 577.111 502.895 578.893 501.753 580.761L489.764 578.381L483.792 604.978L495.782 607.359C496.034 609.502 496.453 611.624 497.036 613.709L486.782 619.998L502.558 642.775L512.813 636.501C514.601 637.849 516.496 639.066 518.483 640.141L515.95 651.418L544.226 657.032L546.756 645.757C549.033 645.517 551.291 645.123 553.508 644.578L560.178 654.221L584.394 639.38L577.711 629.719ZM557.552 625.513C552.727 628.47 547.077 630.015 541.318 629.952C535.558 629.889 529.948 628.22 525.197 625.158C520.445 622.096 516.766 617.777 514.624 612.748C512.482 607.719 511.974 602.206 513.163 596.905C514.353 591.604 517.187 586.754 521.306 582.968C525.426 579.182 530.647 576.63 536.308 575.635C541.97 574.64 547.818 575.247 553.114 577.378C558.409 579.509 562.913 583.07 566.057 587.61C570.269 593.698 571.739 601.109 570.144 608.217C568.549 615.324 564.019 621.545 557.55 625.513H557.552ZM460.848 543.422C461.744 542.36 462.558 541.239 463.283 540.067L470.829 541.568L474.591 524.835L467.045 523.338C466.887 521.99 466.625 520.655 466.263 519.342L472.71 515.386L462.791 501.055L456.344 505.009C455.219 504.161 454.027 503.394 452.778 502.716L454.37 495.618L436.587 492.08L434.994 499.177C433.556 499.326 432.132 499.571 430.732 499.911L426.528 493.849L411.311 503.174L415.513 509.236C414.613 510.296 413.8 511.418 413.079 512.593L405.53 511.095L401.768 527.824L409.315 529.32C409.474 530.673 409.735 532.012 410.097 533.33L403.649 537.284L413.567 551.6L420.016 547.644C421.141 548.492 422.333 549.259 423.582 549.937L421.988 557.038L439.775 560.576L441.364 553.48C442.802 553.33 444.227 553.084 445.628 552.744L449.831 558.809L465.052 549.477L460.848 543.422ZM448.171 540.773C445.137 542.632 441.584 543.603 437.964 543.563C434.343 543.523 430.816 542.474 427.829 540.548C424.843 538.623 422.53 535.908 421.184 532.746C419.838 529.584 419.519 526.117 420.267 522.785C421.015 519.453 422.796 516.404 425.387 514.024C427.977 511.644 431.26 510.041 434.819 509.416C438.379 508.791 442.056 509.173 445.384 510.513C448.713 511.854 451.544 514.093 453.52 516.948C456.166 520.773 457.09 525.43 456.088 529.895C455.086 534.361 452.24 538.269 448.176 540.763L448.171 540.773Z" fill="#00EBD5"/>
<path d="M539.366 394.327C536.166 393.759 432.18 390.405 432.18 390.405L427.469 404.827L539.366 394.327Z" fill="#E9B4DE"/>
<path d="M427.459 404.827L441.408 445.083L539.355 394.328L427.459 404.827Z" fill="#B95E89"/>
<path d="M441.407 445.083L539.356 394.328L420.868 421.479L441.407 445.083Z" fill="#CD99C2"/>
<path d="M420.868 421.479L539.354 394.328L414.18 446.578L420.868 421.479Z" fill="#E9B4DE"/>
<path d="M459.531 703.074C459.531 705.518 460.301 707.908 461.744 709.94C463.187 711.972 465.239 713.555 467.639 714.491C470.039 715.426 472.68 715.672 475.228 715.196C477.777 714.719 480.117 713.542 481.955 711.814C483.792 710.086 485.044 707.885 485.551 705.488C486.058 703.091 485.797 700.606 484.803 698.348C483.809 696.09 482.125 694.161 479.965 692.803C477.805 691.445 475.265 690.721 472.667 690.721C469.183 690.721 465.843 692.022 463.38 694.339C460.917 696.655 459.532 699.797 459.531 703.074V703.074Z" fill="#B95E89"/>
<path d="M840.237 1171.03L870.135 1612.68C871.684 1635.6 866.162 1649.15 833.414 1654.55C792.67 1661.26 779.661 1654.52 772.695 1643.54C759.603 1622.88 614.658 1204.94 593.898 1176.9C573.139 1148.87 840.237 1171.03 840.237 1171.03Z" fill="#00E9D3"/>
<path d="M855.131 1268.84L848.474 1171.39C848.474 1171.39 572.504 1148.69 593.957 1177.43C599.013 1184.2 621.216 1239.31 637.945 1281.96L855.131 1268.84Z" fill="#00A7CC"/>
<path d="M412.353 1034.61C400.655 1034.92 389.575 1039.11 380.934 1046.49C372.293 1053.87 366.606 1064 364.809 1075.22C362.309 1092.48 361.745 1110.02 363.127 1127.55C364.9 1153.1 368.159 1169.62 375.665 1183.36C380.319 1191.49 387.151 1198.28 395.395 1202.97C403.639 1207.66 412.967 1210.06 422.333 1209.92C515.644 1209.96 851.74 1211.05 922.875 1224.66C1005.67 1240.49 1287.4 1349.17 1287.4 1349.17L1188.43 751.863C1188.43 751.863 953.727 958.977 797.272 995.392C675.547 1023.72 489.149 1032.23 412.353 1034.61Z" fill="#D0D7DE"/>
<path d="M594.049 1211.4C628.073 1211.79 663.53 1212.32 698.369 1213.07C671.204 1144.58 673.643 1065.1 681.082 1017.47C646.642 1021.92 611.378 1025.4 577.47 1028.18C566.564 1096.09 574.329 1159.22 594.049 1211.4Z" fill="#4E13D1"/>
<path d="M1531.26 1013.67C1549.61 1227.35 1459.86 1405.08 1330.8 1410.65C1201.73 1416.21 1082.23 1247.5 1063.88 1033.82C1045.54 820.137 1135.28 642.405 1264.35 636.838C1393.42 631.272 1512.9 799.987 1531.26 1013.67Z" fill="#E5E6ED"/>
<path d="M1514.49 1014.14C1530.1 1195.91 1453.77 1347.1 1343.97 1351.84C1234.17 1356.57 1132.51 1213.05 1116.9 1031.28C1101.3 849.51 1177.63 698.321 1287.42 693.585C1397.22 688.85 1498.88 832.375 1514.49 1014.14Z" fill="#4E13D1"/>
<path d="M1271.27 1057.78C1270.95 992.78 1223.42 938.427 1165.12 936.381C1145.66 935.886 1126.75 941.232 1110.93 951.703C1109.07 978.672 1109.29 1005.82 1111.58 1032.92C1115.37 1078.44 1125.19 1123.52 1140.78 1167.02C1149.07 1169.75 1157.66 1171.35 1166.31 1171.76C1224.61 1173.81 1271.61 1122.78 1271.27 1057.78Z" fill="#FC7171"/>
<path d="M900.619 840.269C899.365 833.45 898.361 827.077 901.797 820.329C898.379 821.024 893.28 821.736 893.43 819.766C893.636 817.093 893.96 813.286 891.982 813.705C890.137 814.27 888.441 815.193 886.994 816.418C883.49 818.512 879.44 819.644 875.267 819.695C874.179 824.283 870.68 831.442 873.592 836.224C875.1 838.701 882.014 837.239 885.211 838.264C890.239 839.655 895.43 840.331 900.619 840.269V840.269Z" fill="#FCCAEA"/>
<path d="M787.258 638.117C787.258 638.117 758.079 637.544 720.179 657.182L744.621 734.861C757.744 727.163 772.945 723.282 788.523 723.651L787.258 638.117Z" fill="#FC7171"/>
<path d="M772.672 679.622C771.871 666.655 771.691 653.665 771.009 640.703C776.528 639.411 782.15 638.546 787.828 638.116L789.04 722.997C781.121 712.146 777.923 714.732 776.418 713.428C775.631 702.227 773.36 690.732 772.672 679.622Z" fill="#F24F5E"/>
<path d="M951.189 634.733C951.189 634.733 842.444 597.868 774.353 614.14L777.534 712.94C777.534 712.94 837.847 697.523 925.647 730.896L951.189 634.733Z" fill="#FC7171"/>
<path d="M947.87 632.702L876.981 865.454L886.638 868.02L957.527 635.268L947.87 632.702Z" fill="#110239"/>
<path d="M881.881 843.979L879.901 815.79C879.901 815.79 793.743 819.811 756.879 811.117C720.015 802.423 668.667 762.822 649.866 770.296C631.066 777.77 620.109 797.42 645.335 814.823C670.56 832.226 728.506 845.86 753.406 848.57C770.656 850.453 868.296 844.497 881.881 843.979Z" fill="#00E9D3"/>
<path d="M736.226 832.192C704.973 821.109 674.375 795.545 648.144 771.629C630.422 779.513 620.839 798.342 645.268 815.106C670.449 832.385 728.293 845.926 753.152 848.617C761.615 849.528 789.48 848.567 817.23 847.29C789.722 846.125 762.427 841.038 736.226 832.192Z" fill="#00A7CC"/>
<path d="M753.537 1164.49C753.537 1164.49 738.678 1191.18 741.578 1197.27C744.477 1203.36 804.803 1233.66 812.438 1230.76C820.074 1227.86 820.936 1218.9 809.913 1210.34C799.999 1202.65 790.723 1200.71 783.906 1193.11C777.925 1186.43 782.147 1168.62 782.147 1168.62L753.537 1164.49Z" fill="#110239"/>
<path d="M641.288 950.074C641.288 950.074 653.565 958.824 665.723 956.807C677.881 954.79 798.351 962.155 811.302 971.462C824.253 980.769 787.939 1178.22 787.939 1178.22L745.872 1173.13C745.872 1173.13 750.638 1029.62 748.075 1028.69C745.512 1027.76 682.72 1030.41 575.631 1034.56C549.496 1035.58 516.591 983.649 547.004 945.277L641.288 950.074Z" fill="#FC7171"/>
<path d="M649.173 735.844C645.013 734.254 641.09 732.107 637.523 729.47C636.728 741.393 633.668 763.436 621.972 775.343C621.972 775.343 648.587 784.675 669.484 779.302C669.484 779.302 665.014 751.576 668.435 737.778C661.988 738.577 655.395 737.915 649.173 735.844V735.844Z" fill="#FCCAEA"/>
<path d="M638.911 770.216C642.094 757.769 654.365 749.634 667.227 748.999C667.247 745.218 667.662 741.46 668.468 737.781C662.017 738.58 655.419 737.917 649.193 735.846C645.029 734.254 641.104 732.107 637.534 729.468C636.739 741.398 633.676 763.451 621.972 775.364C627.093 777.042 632.326 778.356 637.627 779.296C637.674 776.22 638.105 773.172 638.911 770.216V770.216Z" fill="#E2ACD0"/>
<path d="M638.077 668.804C638.077 668.804 667.964 658.336 678.036 663.788C688.108 669.24 696.934 687.275 696.016 698.067C695.097 708.859 708.723 720.815 709.33 724.675C709.811 727.775 700.043 730.403 699.807 731.608C699.572 732.812 700.372 752.385 687.234 756.2C668.721 761.573 642.494 747.912 633.068 737.216C623.641 726.519 609.828 676.53 638.077 668.804Z" fill="#FCCAEA"/>
<path d="M695.872 668.239C694.138 666.733 689.792 664.348 688.631 662.371C687.856 660.628 686.954 658.938 685.932 657.314C682.172 652.617 681.107 649.12 666.751 645.406C654.265 642.177 638.989 647.04 629.821 654.924C626.401 657.812 623.611 661.326 621.602 665.273C621.018 666.456 619.128 669.734 619.715 670.936C620.468 672.444 625.102 673.323 626.569 674.064C629.137 675.6 631.585 677.32 633.891 679.211C648.704 689.685 671.476 700.637 685.846 684.735C687.78 682.636 689.564 680.411 691.185 678.074C694.75 684.081 696.695 690.824 696.835 697.664C699.778 695.108 701.744 691.667 702.432 687.868C703.803 677.815 700.018 671.84 695.872 668.239Z" fill="#110239"/>
<path d="M629.883 669.926C626.07 668.147 619.201 669.041 615.426 669.992C607.56 671.98 603.646 677.812 602.773 685.39C602.156 689.981 602.002 694.631 602.315 699.277C602.537 706.432 604.252 713.511 607.356 720.088C610.49 727.376 615.317 733.904 621.453 739.154C627.181 743.669 638.128 748.715 643.266 746.452C645.251 745.577 647.206 731.229 646.388 727.546C645.612 724.017 643.794 724.038 640.804 722.565C635.761 720.087 629.965 715.041 633.114 709.212C637.595 700.899 647.267 704.255 651.44 715.352C651.44 715.352 655.563 721.511 657.588 720.427C659.613 719.343 666.702 687.111 629.883 669.926Z" fill="#110239"/>
<path d="M636.682 710.028C638.213 709.393 639.924 709.24 641.578 709.589C643.232 709.938 644.746 710.773 645.912 711.977C649.847 715.949 648.6 722.65 644.824 720.301C641.048 717.952 642.329 715.734 641.554 713.718C641.094 712.781 640.412 711.957 639.565 711.315C638.718 710.674 637.729 710.232 636.682 710.028V710.028Z" fill="#E2ACD0"/>
<path d="M534.82 946.381C534.82 946.381 580.199 977.047 668.515 959.176C667.51 942.566 668.783 925.963 672.3 909.8C678.08 885.233 685.96 837.5 684.517 812.499C682.891 784.284 666 772.207 666 772.207C666 772.207 650.314 788.076 623.9 769.22C623.9 769.22 577.301 781.926 558.808 834.911C540.315 887.897 534.82 946.381 534.82 946.381Z" fill="#00E9D3"/>
<path d="M634.153 809.331C613.078 834.236 639.26 892.476 670.349 924.322C670.942 919.201 671.808 914.121 672.944 909.102C675.953 896.209 679.497 876.929 682.002 857.924C673.321 853.222 666.338 845.972 662.076 837.24C651.769 816.649 645.044 802.711 634.153 809.331Z" fill="#00A7CC"/>
<path d="M833.909 964.331C837.181 966.928 841.084 968.659 845.22 969.348C847.161 969.362 849.091 969.758 850.889 970.512C852.941 971.371 855.078 972.011 857.262 972.422C859.478 972.694 861.589 973.557 863.355 974.914C865.274 976.857 861.893 977.626 859.547 977.818C856.995 978.032 849.995 974.063 848.111 975.902C846.227 977.742 855.064 982.074 856.829 982.902C861.006 984.88 863.844 983.064 867.997 982.96C870.426 982.902 871.577 983.588 870.059 985.833C868.936 987.497 866.489 987.65 864.586 987.862C860.524 988.355 856.371 987.867 852.496 986.442C856.033 987.953 859.825 988.784 863.654 988.886C865.823 988.96 875.087 987.724 875.354 991.031C875.899 997.659 854.913 994.22 851.695 992.049C855.201 993.691 858.953 994.756 862.792 995.2C865.029 995.604 870.37 996.344 867.665 999.201C863.676 1003.43 853.012 997.113 847.746 995.095C850.749 997.186 854.023 998.877 857.477 1000.12C861.898 1002.15 858.907 1004.54 854.027 1003.21C851.705 1002.45 849.434 1001.54 847.23 1000.48C838.355 996.24 834.858 992.128 829.714 984.37C827.861 981.584 821.494 978.272 821.909 975.489C822.735 970.103 830.089 967.035 833.909 964.331Z" fill="#FCCAEA"/>
<path d="M839.909 962.458L824.169 985.88C824.169 985.88 709.724 943.678 698.865 931.791C688.006 919.904 652.135 876.164 646.188 864.383C632.363 837.044 615.311 804.471 641.453 797.629C655.708 793.895 665.294 797.058 675.766 817.329C689.991 844.883 719.16 888.278 730.713 901.364C735.182 906.425 839.909 962.458 839.909 962.458Z" fill="#00E9D3"/>
<path d="M911.801 820.264C913.55 822.612 909.967 833.145 906.138 837.649C903.135 841.192 899.23 840.34 895.894 838.764C892.281 836.877 888.092 836.311 887.44 834.367C886.153 826.678 893.961 832.189 897.322 833.198C897.322 833.198 888.086 829.255 887.942 825.54C887.798 818.564 899.36 826.173 902.545 827.397C899.367 826.691 894.173 823.523 893.658 822.26C893.316 822.045 893.025 821.762 892.804 821.431C892.584 821.099 892.439 820.728 892.381 820.341C892.322 819.955 892.351 819.564 892.465 819.194C892.579 818.825 892.776 818.486 893.041 818.201C895.271 815.964 905.094 822.089 905.094 822.089C903.329 820.989 896.314 818.881 898.849 815.725C900.535 813.626 903.402 815.209 905.098 815.626C906.48 815.901 907.794 816.457 908.951 817.257C910.107 818.057 911.079 819.083 911.801 820.264V820.264Z" fill="#FCCAEA"/>
<path d="M890.833 821.039C891.848 820.59 892.839 820.346 893.838 819.995C893.835 819.944 893.744 819.933 893.747 819.868C893.956 817.17 904.393 816.084 906.637 814.813C913.417 810.976 910.284 806.787 907.146 807.887C905.009 808.636 900.169 810.248 898.337 811.135C895.984 811.752 893.562 812.118 891.113 812.227C889.186 812.653 884.119 817.52 882.5 818.672C879.075 821.11 887.113 822.697 890.833 821.039Z" fill="#FCCAEA"/>
<path d="M1683.33 860.326C1686.08 866.373 1666.09 880.3 1638.68 891.438C1611.26 902.577 1586.81 906.698 1584.06 900.651C1581.31 894.604 1601.3 880.677 1628.71 869.538C1656.12 858.4 1680.57 854.272 1683.33 860.326Z" fill="#D0D1DE"/>
<path d="M1625.07 742.97C1628.17 748.854 1609.07 763.843 1582.42 776.445C1555.77 789.046 1531.66 794.51 1528.57 788.633C1525.47 782.756 1544.57 767.76 1571.22 755.158C1597.87 742.556 1621.98 737.093 1625.07 742.97Z" fill="#D0D1DE"/>
<path d="M1688.35 1181.93C1686.8 1188.28 1661.84 1187.31 1632.59 1179.79C1603.35 1172.27 1580.91 1161.02 1582.46 1154.68C1584.01 1148.34 1608.98 1149.3 1638.22 1156.82C1667.46 1164.35 1689.91 1175.59 1688.35 1181.93Z" fill="#D0D1DE"/>
<path d="M1643.22 1314.23C1641.15 1320.39 1616.31 1317.46 1587.77 1307.68C1559.22 1297.9 1537.78 1285 1539.86 1278.85C1541.93 1272.7 1566.77 1275.62 1595.31 1285.4C1623.86 1295.18 1645.31 1308.08 1643.22 1314.23Z" fill="#D0D1DE"/>
<path d="M1708.49 1021.64C1708.6 1028.31 1684.29 1033.43 1654.16 1033.08C1624.04 1032.73 1599.55 1027.04 1599.43 1020.38C1599.31 1013.71 1623.63 1008.59 1653.76 1008.94C1683.88 1009.29 1708.37 1014.97 1708.49 1021.64Z" fill="#D0D1DE"/>
</g>
<defs>
<clipPath id="clip0">
<rect width="2210" height="1778" fill="white"/>
</clipPath>
</defs>
</svg>
