<svg xmlns="http://www.w3.org/2000/svg" width="534" height="510.231" viewBox="0 0 534 510.231">
  <g id="Grupo_759" data-name="Grupo 759" transform="translate(-168 475)">
    <g id="Grupo_758" data-name="Grupo 758" transform="translate(168 -475)">
      <path id="Trazado_1524" data-name="Trazado 1524" d="M1901.656,894.28h127.153l10.548-28.4a40.167,40.167,0,0,1,21.159-22.57,101.128,101.128,0,0,0,33.617-25.217,233.556,233.556,0,0,0,35.786-54.395l-78.8-.386s7.092-44.078-32.073-102.622a33.14,33.14,0,0,1-5.446-21.3l3.713-42.7s26.614-29.742,10.285-66.642c0,0-15.615-21.619-21.809-13.7,0,0-47.166,112.315-51.46,129.016s-10.02,27.2-4.294,79.683a318.218,318.218,0,0,1,2.041,35.01,124.238,124.238,0,0,1-11.943,52.879Z" transform="translate(-1853.265 -384.049)" fill="#fde9f5"/>
      <path id="Trazado_1525" data-name="Trazado 1525" d="M2020.25,1295.343c-11.8-13.1-28.2-11.034-45.439-17.011s-22.772-49.07-22.772-49.07l0-.006c.027,1.626.04,3.206.037,4.727a124.238,124.238,0,0,1-11.943,52.879l-38.476,81.339h127.153l10.548-28.4a40.166,40.166,0,0,1,21.159-22.57,98.968,98.968,0,0,0,28.235-19.579C2053.73,1312.374,2032.052,1308.447,2020.25,1295.343Z" transform="translate(-1853.265 -857.97)" fill="#ffc0bb" opacity="0.2" style="mix-blend-mode: multiply;isolation: isolate"/>
      <g id="Grupo_742" data-name="Grupo 742" transform="translate(110.76 0)">
        <path id="Trazado_1526" data-name="Trazado 1526" d="M2086.81,131.186c29.232,46.124,101.28,87.229,101.28,87.229s-57.274-4.651-85.7-41.665l10.306-8.535s-8.191.792-15.053,1.585C2091.326,159.312,2087.231,146.6,2086.81,131.186Z" transform="translate(-2086.81 -129.78)" fill="#d60050" style="isolation: isolate"/>
        <path id="Trazado_1527" data-name="Trazado 1527" d="M2163.511,147.494c-4.446,2.017-11.021,5.089-11.021,5.089l6.336-9.1a73.846,73.846,0,0,0-23.548-12.072c-3.263,4.75-7.1,10.059-7.1,10.059l-.761-12.118a112.384,112.384,0,0,0-40.61-.931c29.232,46.124,101.28,87.229,101.28,87.229C2187.765,181.757,2177.446,160.6,2163.511,147.494Z" transform="translate(-2086.81 -127.011)" fill="#740045" style="isolation: isolate"/>
      </g>
      <g id="Grupo_743" data-name="Grupo 743" transform="translate(100.026 56.994)">
        <path id="Trazado_1528" data-name="Trazado 1528" d="M2054.945,305.7a67.9,67.9,0,0,1,25.8-8.887c2.554,2.915,5.688,6.343,5.688,6.343l.174-6.865c32.583-1.561,60.053,18.959,60.053,18.959-18.646,11.343-34.691,14.523-47.911,13.582-.834-2.4-2.019-5.974-2.019-5.974l-2.212,5.525a60.139,60.139,0,0,1-16.842-5c1.173-2.866,2.4-6.142,2.4-6.142l-6.948,3.807A61.737,61.737,0,0,1,2054.945,305.7Z" transform="translate(-2054.945 -296.211)" fill="#740045" style="isolation: isolate"/>
        <path id="Trazado_1529" data-name="Trazado 1529" d="M2098.749,345.877c-.834-2.4-2.019-5.974-2.019-5.974l-2.212,5.525a60.139,60.139,0,0,1-16.842-5c1.173-2.866,2.4-6.142,2.4-6.142l-6.948,3.807a61.737,61.737,0,0,1-18.186-15.351c37.909-4.333,91.714,9.551,91.714,9.551C2128.014,343.638,2111.968,346.818,2098.749,345.877Z" transform="translate(-2054.945 -313.251)" fill="#d60050" style="isolation: isolate"/>
      </g>
      <path id="Trazado_1530" data-name="Trazado 1530" d="M3002,284.658l-2.749,20.715,14.714-10.745L3059,271.62l-34.834,3.189s-17.745,4.311-18.706,5.18A43.251,43.251,0,0,0,3002,284.658Z" transform="translate(-2581.138 -222.909)" fill="#4e01d2"/>
      <path id="Trazado_1531" data-name="Trazado 1531" d="M2961.617,272.149l72.425-.529-57,13.037Z" transform="translate(-2556.183 -222.909)" fill="#fc7171"/>
      <path id="Trazado_1532" data-name="Trazado 1532" d="M3039.166,305.5l-18.977-15.243,52.7-18.634Z" transform="translate(-2595.025 -222.909)" fill="#fc7171"/>
      <g id="Grupo_747" data-name="Grupo 747" transform="translate(354.029 69.983)" style="isolation: isolate">
        <g id="Grupo_744" data-name="Grupo 744" transform="translate(58.908)">
          <path id="Trazado_1533" data-name="Trazado 1533" d="M2984.347,337.329a21.942,21.942,0,0,1,4.834-1.27l-.136-1.286a22.921,22.921,0,0,0-5.153,1.346Z" transform="translate(-2983.892 -334.773)" fill="#d60050"/>
        </g>
        <g id="Grupo_745" data-name="Grupo 745" transform="translate(13.724 6.582)">
          <path id="Trazado_1534" data-name="Trazado 1534" d="M2849.753,465.656a81.588,81.588,0,0,0,8.385-4.866l.717,1.076a82.869,82.869,0,0,1-8.518,4.943Zm16.016-10.8a52.57,52.57,0,0,0,6.509-7.116l1.032.779a53.84,53.84,0,0,1-6.669,7.292Zm11.507-15.347c.634-1.331,1.218-2.718,1.734-4.123.585-1.591,1.1-3.253,1.539-4.942l1.252.323c-.447,1.73-.977,3.434-1.578,5.065-.53,1.442-1.129,2.866-1.78,4.233Zm5.223-28.284,1.293-.029a83.729,83.729,0,0,1-.318,9.845l-1.288-.122A82.272,82.272,0,0,0,2882.5,411.221Zm-1.84-19.386,1.28-.183c.542,3.784.928,6.877,1.217,9.731l-1.287.13C2881.583,398.676,2881.2,395.6,2880.659,391.835Zm-1.448-9.738a47.655,47.655,0,0,1-.489-9.817l1.291.08a46.377,46.377,0,0,0,.477,9.545l.011.076-1.282.176Zm1.625-19.535a23.49,23.49,0,0,1,5.614-8.249l.888.94a22.2,22.2,0,0,0-5.305,7.8Z" transform="translate(-2849.753 -354.313)" fill="#d60050"/>
        </g>
        <g id="Grupo_746" data-name="Grupo 746" transform="translate(0 121.896)">
          <path id="Trazado_1535" data-name="Trazado 1535" d="M2809.435,699.657c1.665-.578,3.305-1.185,4.876-1.8l-.474-1.2c-1.555.612-3.179,1.213-4.827,1.786Z" transform="translate(-2809.011 -696.65)" fill="#d60050"/>
        </g>
      </g>
      <g id="Grupo_748" data-name="Grupo 748" transform="translate(345.838 47.218)">
        <path id="Trazado_1536" data-name="Trazado 1536" d="M2786.6,277.387s26.932-18.026,33.082-6.15-34.991,53.9-34.991,53.9Z" transform="translate(-2784.694 -267.188)" fill="#de99c4"/>
        <path id="Trazado_1537" data-name="Trazado 1537" d="M2786.6,510.549s26.932-18.026,33.082-6.15-34.991,53.9-34.991,53.9Z" transform="translate(-2784.694 -421.81)" fill="#de99c4"/>
        <path id="Trazado_1538" data-name="Trazado 1538" d="M2786.6,669.406s26.932-18.026,33.082-6.15-34.991,53.9-34.991,53.9Z" transform="translate(-2784.694 -527.157)" fill="#de99c4"/>
      </g>
      <path id="Trazado_1539" data-name="Trazado 1539" d="M2404.8,237.5H2256.95a19.937,19.937,0,0,0-19.937,19.937V559.611a19.942,19.942,0,0,0,19.937,19.937H2404.8a19.937,19.937,0,0,0,19.937-19.937V257.438A19.941,19.941,0,0,0,2404.8,237.5Z" transform="translate(-2075.658 -200.283)" fill="#4e01d2"/>
      <path id="Trazado_1540" data-name="Trazado 1540" d="M2229.11,911.542s-26.743,65.465-24.148,77.844,18.823,28.931,58.64,23.413S2330.94,999.9,2330.94,999.9s1.664-88.35,0-92.83-73.255-36.282-76.072-36.282S2229.11,911.542,2229.11,911.542Z" transform="translate(-2054.286 -620.253)" fill="#ffc0bb" opacity="0.2" style="mix-blend-mode: multiply;isolation: isolate"/>
      <rect id="Rectángulo_904" data-name="Rectángulo 904" width="168.398" height="287.701" transform="translate(171.02 64.391)" fill="#d0d7de" style="isolation: isolate"/>
      <path id="Rectángulo_905" data-name="Rectángulo 905" d="M31.045,0H72.708a31.046,31.046,0,0,1,31.046,31.046V99.581A31.044,31.044,0,0,1,72.71,130.625H31.044A31.044,31.044,0,0,1,0,99.581V31.045A31.045,31.045,0,0,1,31.045,0Z" transform="translate(203.342 130.019)" fill="#d60050" style="isolation: isolate"/>
      <g id="Grupo_749" data-name="Grupo 749" transform="translate(215.448 165.348)">
        <path id="Trazado_1541" data-name="Trazado 1541" d="M2408.585,670.046l8.222,39.452a3.641,3.641,0,0,0,3.534,2.944h48.629a3.642,3.642,0,0,0,3.534-2.944l8.222-39.452Zm14.5,38.572a1.992,1.992,0,0,1-1.991-1.991l-2.761-27.962a1.991,1.991,0,1,1,3.983,0l2.761,27.962A1.992,1.992,0,0,1,2423.086,708.618Zm10.015,0h0a1.991,1.991,0,0,1-1.991-1.991l-1.1-27.962a1.991,1.991,0,1,1,3.982,0l1.1,27.962A1.991,1.991,0,0,1,2433.1,708.618Zm13.546-1.991a1.991,1.991,0,0,1-3.983,0V678.665a1.991,1.991,0,0,1,3.983,0Zm11.555,0a1.991,1.991,0,1,1-3.983,0l1.1-27.962a1.991,1.991,0,1,1,3.982,0Zm10.015,0a1.991,1.991,0,1,1-3.982,0L2467,678.665a1.991,1.991,0,1,1,3.982,0Z" transform="translate(-2404.885 -652.476)" fill="#edfdfc"/>
        <path id="Trazado_1542" data-name="Trazado 1542" d="M2473.956,666.959h-73.168a3.187,3.187,0,0,1-3.187-3.187h0a3.187,3.187,0,0,1,3.187-3.187h73.168a3.187,3.187,0,0,1,3.187,3.187h0A3.187,3.187,0,0,1,2473.956,666.959Z" transform="translate(-2397.601 -646.202)" fill="#edfdfc"/>
        <path id="Trazado_1543" data-name="Trazado 1543" d="M2445.652,632.509v-2.753a8.3,8.3,0,0,1,8.3-8.3h25.833a8.3,8.3,0,0,1,8.3,8.3v2.753a1.784,1.784,0,0,0,1.784,1.784h0a1.784,1.784,0,0,0,1.784-1.784v-2.753a11.871,11.871,0,0,0-11.871-11.871h-25.833a11.871,11.871,0,0,0-11.871,11.871v2.753a1.784,1.784,0,0,0,1.784,1.784h0A1.785,1.785,0,0,0,2445.652,632.509Z" transform="translate(-2427.099 -617.885)" fill="#edfdfc"/>
      </g>
      <rect id="Rectángulo_906" data-name="Rectángulo 906" width="72.059" height="3.605" rx="1.803" transform="translate(219.326 51.744)" fill="#fc7171"/>
      <path id="Trazado_1544" data-name="Trazado 1544" d="M2142.438,622.465s1.016,3.777,3.313,5.635l2.731-31.4s19.578-21.879,14.848-51.388A44.09,44.09,0,0,0,2149,519.157c-4.386-3.856-9.2-6.432-12.043-2.8,0,0-22.18,52.817-37.5,91.4Z" transform="translate(-1984.435 -384.049)" fill="#fde9f5"/>
      <g id="Grupo_751" data-name="Grupo 751" transform="translate(246.851 357.683)">
        <path id="Trazado_1545" data-name="Trazado 1545" d="M2507.37,1197.143a8.27,8.27,0,1,1-8.27-8.27A8.27,8.27,0,0,1,2507.37,1197.143Z" transform="translate(-2490.829 -1188.873)" fill="#daeef7" opacity="0.3"/>
        <g id="Grupo_750" data-name="Grupo 750" transform="translate(4.825 4.825)">
          <path id="Trazado_1546" data-name="Trazado 1546" d="M2511.065,1210.089h-4.933a.98.98,0,0,1-.979-.979v-4.932a.98.98,0,0,1,.979-.979h4.933a.98.98,0,0,1,.979.979v4.932A.98.98,0,0,1,2511.065,1210.089Zm-4.933-6.625a.714.714,0,0,0-.713.713v4.932a.714.714,0,0,0,.713.713h4.933a.714.714,0,0,0,.713-.713v-4.932a.714.714,0,0,0-.713-.713Z" transform="translate(-2505.154 -1203.198)" fill="#daeef7"/>
        </g>
      </g>
      <rect id="Rectángulo_907" data-name="Rectángulo 907" width="168.398" height="17.018" transform="translate(171.02 335.074)" fill="#00e9d3"/>
      <rect id="Rectángulo_908" data-name="Rectángulo 908" width="168.398" height="15.268" transform="translate(171.02 64.391)" fill="#c0efff"/>
      <path id="Trazado_1547" data-name="Trazado 1547" d="M2191.845,547.374c6.128-2.819,9.328-18.765,10.474-25.933-4.918-4.948-11.088-9.4-14.462-5.089,0,0-4.884,11.631-11.651,27.962C2180.832,546.89,2187.262,549.482,2191.845,547.374Z" transform="translate(-2035.333 -384.05)" fill="#f590ce"/>
      <path id="Trazado_1548" data-name="Trazado 1548" d="M1983.009,1417.607c13.454,8.266,56.769,32.983,101.557,38.252,2.623.308,4.469,2.714,3.693,4.792l-7.824,20.957a3.48,3.48,0,0,1-3.827,1.983c-13.2-1.6-67.66-9.8-105.979-39.443a3.431,3.431,0,0,1-1.366-3.845l7.985-21.387C1978,1416.9,1980.819,1416.261,1983.009,1417.607Z" transform="translate(-1897.982 -982.406)" fill="#d60050" style="isolation: isolate"/>
      <path id="Trazado_1549" data-name="Trazado 1549" d="M1996.513,1459.9l-.148-.055a1.518,1.518,0,0,1-.891-1.953l2.409-6.452a1.518,1.518,0,0,1,1.953-.892l.148.055a1.519,1.519,0,0,1,.892,1.953l-2.409,6.452A1.518,1.518,0,0,1,1996.513,1459.9Z" transform="translate(-1915.416 -1004.656)" fill="#212121"/>
      <rect id="Rectángulo_909" data-name="Rectángulo 909" width="9.923" height="3.194" rx="1.597" transform="translate(87.583 459.62) rotate(-69.525)" fill="#212121"/>
      <path id="Rectángulo_910" data-name="Rectángulo 910" d="M1.6,0h0a1.6,1.6,0,0,1,1.6,1.6V8.327a1.6,1.6,0,0,1-1.6,1.6h0A1.6,1.6,0,0,1,0,8.326V1.6A1.6,1.6,0,0,1,1.6,0Z" transform="matrix(0.937, 0.35, -0.35, 0.937, 99.123, 455.255)" fill="#212121"/>
      <path id="Trazado_1550" data-name="Trazado 1550" d="M2069.037,1501.183l-.148-.055a1.518,1.518,0,0,1-.891-1.953l2.409-6.452a1.518,1.518,0,0,1,1.953-.892l.148.055a1.518,1.518,0,0,1,.891,1.953l-2.409,6.452A1.518,1.518,0,0,1,2069.037,1501.183Z" transform="translate(-1963.511 -1032.035)" fill="#212121"/>
      <path id="Rectángulo_911" data-name="Rectángulo 911" d="M1.6,0H8.326a1.6,1.6,0,0,1,1.6,1.6v0a1.6,1.6,0,0,1-1.6,1.6H1.6A1.6,1.6,0,0,1,0,1.6v0A1.6,1.6,0,0,1,1.6,0Z" transform="matrix(0.35, -0.937, 0.937, 0.35, 112.126, 473.224)" fill="#212121"/>
      <path id="Rectángulo_912" data-name="Rectángulo 912" d="M1.6,0H8.326a1.6,1.6,0,0,1,1.6,1.6v0a1.6,1.6,0,0,1-1.6,1.6H1.6A1.6,1.6,0,0,1,0,1.6v0A1.6,1.6,0,0,1,1.6,0Z" transform="matrix(0.35, -0.937, 0.937, 0.35, 120.655, 476.92)" fill="#212121"/>
      <path id="Rectángulo_913" data-name="Rectángulo 913" d="M1.6,0H8.326a1.6,1.6,0,0,1,1.6,1.6v0a1.6,1.6,0,0,1-1.6,1.6H1.6A1.6,1.6,0,0,1,0,1.6v0A1.6,1.6,0,0,1,1.6,0Z" transform="matrix(0.35, -0.937, 0.937, 0.35, 129.352, 480.167)" fill="#212121"/>
      <rect id="Rectángulo_914" data-name="Rectángulo 914" width="3.195" height="9.923" rx="1.597" transform="matrix(0.937, 0.35, -0.35, 0.937, 141.69, 473.669)" fill="#212121"/>
      <path id="Rectángulo_915" data-name="Rectángulo 915" d="M1.6,0h0a1.6,1.6,0,0,1,1.6,1.6V8.327a1.6,1.6,0,0,1-1.6,1.6h0A1.6,1.6,0,0,1,0,8.326V1.6A1.6,1.6,0,0,1,1.6,0Z" transform="matrix(0.937, 0.35, -0.35, 0.937, 150.916, 475.502)" fill="#212121"/>
      <path id="Trazado_1551" data-name="Trazado 1551" d="M2224.81,1556.758l-.148-.055a1.518,1.518,0,0,1-.891-1.953l2.409-6.452a1.518,1.518,0,0,1,1.953-.891l.148.055a1.518,1.518,0,0,1,.891,1.953l-2.409,6.452A1.518,1.518,0,0,1,2224.81,1556.758Z" transform="translate(-2066.813 -1068.89)" fill="#212121"/>
      <path id="Trazado_1552" data-name="Trazado 1552" d="M2252.5,1561.4l-.148-.056a1.518,1.518,0,0,1-.891-1.953l2.409-6.451a1.519,1.519,0,0,1,1.953-.892l.148.055a1.519,1.519,0,0,1,.891,1.954l-2.409,6.452A1.518,1.518,0,0,1,2252.5,1561.4Z" transform="translate(-2085.174 -1071.967)" fill="#212121"/>
      <path id="Rectángulo_916" data-name="Rectángulo 916" d="M1.6,0h0a1.6,1.6,0,0,1,1.6,1.6V8.326a1.6,1.6,0,0,1-1.6,1.6h0A1.6,1.6,0,0,1,0,8.326V1.6A1.6,1.6,0,0,1,1.6,0Z" transform="matrix(0.937, 0.35, -0.35, 0.937, 178.564, 481.078)" fill="#212121"/>
      <path id="Trazado_1553" data-name="Trazado 1553" d="M2060.28,1490.967l.037-.1a1.879,1.879,0,0,1-.423-.1l-10.6-3.957a2.114,2.114,0,0,1-1.133-2.759l9.558-25.6a2.114,2.114,0,0,1,2.663-1.342l10.6,3.957a1.976,1.976,0,0,1,1.209,1.391q1.247.545,2.518,1.088a4.583,4.583,0,0,0-2.793-4.979l-10.6-3.957a4.693,4.693,0,0,0-5.912,2.979l-9.557,25.6a4.693,4.693,0,0,0,2.513,6.124l10.6,3.957a4.462,4.462,0,0,0,4.576-.987Q2061.91,1491.639,2060.28,1490.967Z" transform="translate(-1948.667 -1007.238)" fill="#edfdfc"/>
      <path id="Trazado_1554" data-name="Trazado 1554" d="M2069,1499.187l-4.611-1.722a1.731,1.731,0,0,0-1.208,3.234l4.611,1.721Z" transform="translate(-1959.709 -1035.772)" fill="#b7d972"/>
      <path id="Trazado_1555" data-name="Trazado 1555" d="M2634.44,880.692s-22.744,1.909-23.539,7.953.954,16.7,22.426,18.768h22.241s-6.654-18.45-6.336-19.086S2634.44,880.692,2634.44,880.692Z" transform="translate(-2323.506 -626.818)" fill="#de99c4"/>
      <path id="Trazado_1556" data-name="Trazado 1556" d="M2566.353,837.093a6.171,6.171,0,0,0-2.4,8.545c10.466,18.051,52.083,89.787,55.834,95.623,4.294,6.68,14.792,22.426,49.624,30.537s49.146,31.492,49.146,31.492h107.358s-25.289-40.08-46.283-144.1c0,0-16.223-86.364-46.76-83.5,0,0-18.609-19.563-36.74-15.746,0,0-34.355-20.517-53.918-20.517l-46.99-55.534a13.6,13.6,0,0,0-18.566-2.2,8.9,8.9,0,0,0-3.63,5.723c-1.431,9.066,10.5,31.969,29.583,59.644s66.324,115.47,45.806,154.119a207.569,207.569,0,0,1-39.126-41.035C2594.1,838.968,2576.242,831.844,2566.353,837.093Z" transform="translate(-2291.911 -493.059)" fill="#fde9f5"/>
      <g id="Grupo_752" data-name="Grupo 752" transform="translate(350.375 246.389)">
        <path id="Trazado_1557" data-name="Trazado 1557" d="M2798.26,858.472a195.576,195.576,0,0,1,17.6,17.21c7.456,8.111,16.866,20.136,22.392,29.425,6.968,11.485,11.566,21.554,13.742,34.2l-.141.029c-2.5-11.88-9.043-24.675-14.741-33.514a248.082,248.082,0,0,0-22.1-29.4c-5-5.764-11.335-12.573-16.845-17.847Z" transform="translate(-2798.162 -858.472)" fill="#de99c4"/>
        <path id="Trazado_1558" data-name="Trazado 1558" d="M2956.952,918.877a53.033,53.033,0,0,1,13.6,10.311,65.8,65.8,0,0,1,10.3,13.744,67.133,67.133,0,0,1,6.449,15.917,64.921,64.921,0,0,1,2.159,16.923l-.143.011a83.315,83.315,0,0,0-3.094-16.615,75.389,75.389,0,0,0-6.617-15.533,73.622,73.622,0,0,0-9.888-13.684A63.517,63.517,0,0,0,2956.881,919Z" transform="translate(-2903.417 -898.53)" fill="#de99c4"/>
        <path id="Trazado_1559" data-name="Trazado 1559" d="M3065.776,964.874c4.487,3.393,9.03,9.4,11.232,13.459a60.662,60.662,0,0,1,6.414,16.359,50.92,50.92,0,0,1,1.5,11.578l-.142.02A86.276,86.276,0,0,0,3082.339,995a78.974,78.974,0,0,0-6.516-16.02,64.073,64.073,0,0,0-10.111-14Z" transform="translate(-2975.589 -929.033)" fill="#de99c4"/>
      </g>
      <path id="Trazado_1560" data-name="Trazado 1560" d="M2588.027,1170.336c.952-4.83-4.677-12.491-9.786-18.271a11.878,11.878,0,0,0-12.653-3.448,6.179,6.179,0,0,0-1.635,8.052c2.812,4.851,7.875,13.579,13.847,23.862C2582.271,1178.254,2587.145,1174.808,2588.027,1170.336Z" transform="translate(-2291.914 -804.091)" fill="#f590ce"/>
      <path id="Trazado_1561" data-name="Trazado 1561" d="M2622.084,706.85c2.715-.544,15.03-4.638,14.276-6.883h0l-12.147-14.356a13.831,13.831,0,0,0-9.258-4.838h0l-.057-.006c-.1-.009-.322-.025-.633-.025-1.629,0-5.639.466-6.521,4.875-.871,4.355,6.338,14.94,9.517,19.342A4.789,4.789,0,0,0,2622.084,706.85Z" transform="translate(-2321.462 -494.221)" fill="#f590ce"/>
      <path id="Trazado_1562" data-name="Trazado 1562" d="M2831.355,1461.6h107.358s-16.58-26.281-34.036-91.5c-7.66,48.024-49.922,45.254-66.693,47.919-19.311,3.068-94.273-12.562-104.776-17.485,4.672,7.128,15.745,21.832,49,29.576C2817.041,1438.224,2831.355,1461.6,2831.355,1461.6Z" transform="translate(-2404.712 -951.374)" fill="#ffc0bb" opacity="0.2" style="mix-blend-mode: multiply;isolation: isolate"/>
      <path id="Trazado_1563" data-name="Trazado 1563" d="M2697.214,906.922c21.049,33.823,58.815,111.515,40.13,145.412l12.4,12.241s31.334-34.713-18.528-111.265A510.329,510.329,0,0,0,2697.214,906.922Z" transform="translate(-2380.843 -644.213)" fill="#ffc0bb" opacity="0.2" style="mix-blend-mode: multiply;isolation: isolate"/>
      <g id="Grupo_756" data-name="Grupo 756" transform="translate(46.147 240.224)" style="isolation: isolate">
        <g id="Grupo_753" data-name="Grupo 753" transform="translate(11.201)">
          <path id="Trazado_1564" data-name="Trazado 1564" d="M1932.345,844.192a21.909,21.909,0,0,0-4.1-2.86l.572-1.16a22.915,22.915,0,0,1,4.372,3.042Z" transform="translate(-1928.247 -840.171)" fill="#d60050"/>
        </g>
        <g id="Grupo_754" data-name="Grupo 754" transform="translate(0 10.887)">
          <path id="Trazado_1565" data-name="Trazado 1565" d="M1912.344,990.538a82.963,82.963,0,0,1-6.287-7.58l1.045-.762a81.5,81.5,0,0,0,6.189,7.461Zm-11.5-15.955a53.837,53.837,0,0,1-3.74-9.146l1.237-.374a52.586,52.586,0,0,0,3.651,8.926ZM1895.2,955.73c-.139-1.507-.21-3.051-.21-4.587,0-1.738.091-3.52.269-5.3l1.286.129c-.173,1.735-.262,3.475-.262,5.17,0,1.5.069,3,.2,4.469Zm3.1-19.261-1.25-.33a83.616,83.616,0,0,1,3.1-9.349l1.2.474A82.271,82.271,0,0,0,1898.3,936.469Zm7-18.1-1.163-.566c1.256-2.579,2.687-5.348,4.5-8.712l1.138.614C1907.968,913.053,1906.545,915.807,1905.3,918.37Zm9.169-17.252-1.142-.607.036-.067a46.356,46.356,0,0,0,3.744-8.793l1.239.37a47.631,47.631,0,0,1-3.849,9.045Zm3.956-18.9a22.2,22.2,0,0,0-2.287-9.15l1.158-.575a23.471,23.471,0,0,1,2.421,9.68Z" transform="translate(-1894.993 -872.491)" fill="#d60050"/>
        </g>
        <g id="Grupo_755" data-name="Grupo 755" transform="translate(24.417 134.852)">
          <path id="Trazado_1566" data-name="Trazado 1566" d="M1971.433,1244.852c-1.363-1.117-2.692-2.253-3.953-3.376l.86-.966c1.248,1.111,2.564,2.236,3.913,3.343Z" transform="translate(-1967.48 -1240.51)" fill="#d60050"/>
        </g>
      </g>
      <path id="Trazado_1567" data-name="Trazado 1567" d="M1810.927,738.254l-1.711,20.826-12.1-13.624-39.124-32.043,33.363,10.511s16.426,7.98,17.18,9.034A43.112,43.112,0,0,1,1810.927,738.254Z" transform="translate(-1757.995 -515.887)" fill="#fc7171"/>
      <path id="Trazado_1568" data-name="Trazado 1568" d="M1828.656,729.3l-70.662-15.891,52.933,24.841Z" transform="translate(-1757.995 -515.887)" fill="#4e01d2"/>
      <path id="Trazado_1569" data-name="Trazado 1569" d="M1783.753,753.676l21.78-10.867-47.538-29.4Z" transform="translate(-1757.995 -515.887)" fill="#4e01d2"/>
      <path id="Trazado_1570" data-name="Trazado 1570" d="M2979,799.255s-1.106,10.905-9.712,11.66c8.606.755,9.712,11.66,9.712,11.66s1.106-10.906,9.712-11.66C2980.106,810.16,2979,799.255,2979,799.255Z" transform="translate(-2561.27 -572.813)" fill="#edfdfc"/>
      <path id="Trazado_1571" data-name="Trazado 1571" d="M2045.657,559.977s-1.106,10.906-9.712,11.66c8.605.755,9.712,11.66,9.712,11.66s1.106-10.906,9.712-11.66C2046.763,570.883,2045.657,559.977,2045.657,559.977Z" transform="translate(-1942.319 -414.135)" fill="#edfdfc"/>
      <path id="Trazado_1572" data-name="Trazado 1572" d="M3053.064,709.686s-.731,7.214-6.425,7.713c5.693.5,6.425,7.714,6.425,7.714s.732-7.215,6.425-7.714C3053.8,716.9,3053.064,709.686,3053.064,709.686Z" transform="translate(-2612.566 -513.415)" fill="#edfdfc"/>
      <path id="Trazado_1573" data-name="Trazado 1573" d="M2105.878,484.229s-.731,7.214-6.424,7.713c5.693.5,6.424,7.713,6.424,7.713s.732-7.214,6.425-7.713C2106.61,491.443,2105.878,484.229,2105.878,484.229Z" transform="translate(-1984.435 -363.902)" fill="#edfdfc"/>
      <path id="Trazado_1574" data-name="Trazado 1574" d="M2961.3,645.375s-.328,3.228-2.875,3.451c2.547.223,2.875,3.451,2.875,3.451s.328-3.228,2.875-3.451C2961.624,648.6,2961.3,645.375,2961.3,645.375Z" transform="translate(-2554.064 -470.767)" fill="#edfdfc"/>
      <path id="Trazado_1575" data-name="Trazado 1575" d="M2081.808,686.4s-.327,3.228-2.875,3.451c2.547.223,2.875,3.451,2.875,3.451s.327-3.228,2.875-3.451C2082.135,689.632,2081.808,686.4,2081.808,686.4Z" transform="translate(-1970.827 -497.975)" fill="#edfdfc"/>
      <path id="Rectángulo_917" data-name="Rectángulo 917" d="M0,0H26.863a0,0,0,0,1,0,0V9.953A13.432,13.432,0,0,1,13.432,23.385h0A13.432,13.432,0,0,1,0,9.953V0A0,0,0,0,1,0,0Z" transform="translate(268.681 98.368)" fill="#fc7171"/>
      <path id="Rectángulo_918" data-name="Rectángulo 918" d="M0,0H26.863a0,0,0,0,1,0,0V9.953A13.432,13.432,0,0,1,13.432,23.385h0A13.432,13.432,0,0,1,0,9.953V0A0,0,0,0,1,0,0Z" transform="translate(241.819 98.368)" fill="#00e9d3"/>
      <path id="Rectángulo_919" data-name="Rectángulo 919" d="M0,0H26.863a0,0,0,0,1,0,0V9.953A13.432,13.432,0,0,1,13.431,23.385h0A13.431,13.431,0,0,1,0,9.953V0A0,0,0,0,1,0,0Z" transform="translate(214.955 98.368)" fill="#fc7171"/>
      <path id="Rectángulo_920" data-name="Rectángulo 920" d="M0,0H26.863a0,0,0,0,1,0,0V9.953A13.432,13.432,0,0,1,13.432,23.385h0A13.432,13.432,0,0,1,0,9.953V0A0,0,0,0,1,0,0Z" transform="translate(188.093 98.368)" fill="#00e9d3"/>
      <path id="Rectángulo_921" data-name="Rectángulo 921" d="M0,0H26.863a0,0,0,0,1,0,0V9.953A13.432,13.432,0,0,1,13.432,23.385h0A13.432,13.432,0,0,1,0,9.953V0A0,0,0,0,1,0,0Z" transform="translate(161.229 98.368)" fill="#fc7171"/>
      <path id="Rectángulo_922" data-name="Rectángulo 922" d="M0,0H26.863a0,0,0,0,1,0,0V9.953A13.432,13.432,0,0,1,13.432,23.385h0A13.432,13.432,0,0,1,0,9.953V0A0,0,0,0,1,0,0Z" transform="translate(349.209 98.368)" fill="#00e9d3"/>
      <path id="Rectángulo_923" data-name="Rectángulo 923" d="M0,0H26.863a0,0,0,0,1,0,0V9.953A13.432,13.432,0,0,1,13.432,23.385h0A13.432,13.432,0,0,1,0,9.953V0A0,0,0,0,1,0,0Z" transform="translate(322.346 98.368)" fill="#fc7171"/>
      <path id="Rectángulo_924" data-name="Rectángulo 924" d="M0,0H26.863a0,0,0,0,1,0,0V9.953A13.432,13.432,0,0,1,13.432,23.385h0A13.432,13.432,0,0,1,0,9.953V0A0,0,0,0,1,0,0Z" transform="translate(295.545 98.368)" fill="#00e9d3"/>
      <path id="Rectángulo_925" data-name="Rectángulo 925" d="M0,0H26.863a0,0,0,0,1,0,0V9.953A13.432,13.432,0,0,1,13.432,23.385h0A13.432,13.432,0,0,1,0,9.953V0A0,0,0,0,1,0,0Z" transform="translate(134.366 98.368)" fill="#00e9d3"/>
      <path id="Trazado_1576" data-name="Trazado 1576" d="M2498.869,318.17h-19.1l-3.882,33.978h26.863Z" transform="translate(-2234.069 -253.779)" fill="#d0d7de" style="isolation: isolate"/>
      <path id="Trazado_1577" data-name="Trazado 1577" d="M2426.884,318.17h-19.1l-11.646,33.978H2423Z" transform="translate(-2181.183 -253.779)" fill="#fc7171"/>
      <path id="Trazado_1578" data-name="Trazado 1578" d="M2354.9,318.17h-19.1l-19.409,33.978h26.863Z" transform="translate(-2128.298 -253.779)" fill="#d0d7de" style="isolation: isolate"/>
      <path id="Trazado_1579" data-name="Trazado 1579" d="M2282.913,318.17h-19.1l-27.173,33.978H2263.5Z" transform="translate(-2075.411 -253.779)" fill="#fc7171"/>
      <path id="Trazado_1580" data-name="Trazado 1580" d="M2210.928,318.17h-19.1l-34.937,33.978h26.863Z" transform="translate(-2022.525 -253.779)" fill="#d0d7de" style="isolation: isolate"/>
      <path id="Trazado_1581" data-name="Trazado 1581" d="M2732.937,318.17h-19.1l27.238,33.978h26.863Z" transform="translate(-2391.867 -253.779)" fill="#d0d7de" style="isolation: isolate"/>
      <path id="Trazado_1582" data-name="Trazado 1582" d="M2676.518,318.17h-19.1l19.379,33.978h26.863Z" transform="translate(-2354.452 -253.779)" fill="#fc7171"/>
      <path id="Trazado_1583" data-name="Trazado 1583" d="M2619.818,318.17h-19.1l11.677,33.978h26.863Z" transform="translate(-2316.851 -253.779)" fill="#d0d7de" style="isolation: isolate"/>
      <path id="Trazado_1584" data-name="Trazado 1584" d="M2563.118,318.17h-19.1l3.913,33.978h26.863Z" transform="translate(-2279.25 -253.779)" fill="#fc7171"/>
      <path id="Rectángulo_926" data-name="Rectángulo 926" d="M11.762,0H112.691a11.762,11.762,0,0,1,11.762,11.762v0a11.761,11.761,0,0,1-11.761,11.761H11.761A11.761,11.761,0,0,1,0,11.762v0A11.762,11.762,0,0,1,11.762,0Z" transform="translate(192.993 278.153)" fill="#740045" style="isolation: isolate"/>
      <g id="Grupo_757" data-name="Grupo 757" transform="translate(223.417 284.386)">
        <path id="Trazado_1585" data-name="Trazado 1585" d="M2427.927,978.933a3.047,3.047,0,0,1-.121.88,2.616,2.616,0,0,1-.34.723,2.492,2.492,0,0,1-.528.563,3.018,3.018,0,0,1-.7.407,3.924,3.924,0,0,1-.828.246,5.512,5.512,0,0,1-1.013.083h-2.643a.552.552,0,0,1-.34-.122.5.5,0,0,1-.161-.426v-9.023a.5.5,0,0,1,.161-.426.553.553,0,0,1,.34-.121h2.3a5.321,5.321,0,0,1,1.486.172,2.628,2.628,0,0,1,.966.5,2.071,2.071,0,0,1,.583.805,2.824,2.824,0,0,1,.2,1.079,2.713,2.713,0,0,1-.086.688,2.273,2.273,0,0,1-.254.606,2.046,2.046,0,0,1-.422.5,2.224,2.224,0,0,1-.583.36,2.459,2.459,0,0,1,.775.285,2.375,2.375,0,0,1,.629.528,2.47,2.47,0,0,1,.426.75A2.762,2.762,0,0,1,2427.927,978.933Zm-2.025-4.527a2.056,2.056,0,0,0-.1-.665,1.235,1.235,0,0,0-.32-.5,1.447,1.447,0,0,0-.569-.317,3.225,3.225,0,0,0-.928-.109h-1.389v3.276h1.528a2.166,2.166,0,0,0,.843-.137,1.5,1.5,0,0,0,.53-.367,1.425,1.425,0,0,0,.309-.539A2.105,2.105,0,0,0,2425.9,974.406Zm.61,4.605a2.038,2.038,0,0,0-.145-.8,1.508,1.508,0,0,0-.421-.579,1.856,1.856,0,0,0-.695-.356,3.8,3.8,0,0,0-1.049-.121h-1.607v3.565h1.951a2.659,2.659,0,0,0,.8-.109,1.784,1.784,0,0,0,.6-.325,1.487,1.487,0,0,0,.41-.536A1.755,1.755,0,0,0,2426.511,979.011Z" transform="translate(-2421.257 -971.567)" fill="#fff"/>
        <path id="Trazado_1586" data-name="Trazado 1586" d="M2454.693,978a4.688,4.688,0,0,1-.27,1.646,3.366,3.366,0,0,1-.77,1.224,3.251,3.251,0,0,1-1.219.758,4.82,4.82,0,0,1-1.635.258,4.572,4.572,0,0,1-1.524-.242,3.226,3.226,0,0,1-1.181-.716,3.133,3.133,0,0,1-.758-1.185,4.663,4.663,0,0,1-.266-1.642v-6.279a.191.191,0,0,1,.032-.109.2.2,0,0,1,.109-.075,1.262,1.262,0,0,1,.2-.046,2.277,2.277,0,0,1,.328-.019,2.339,2.339,0,0,1,.321.019,1.155,1.155,0,0,1,.207.046.207.207,0,0,1,.106.075.194.194,0,0,1,.031.109v6.115a3.943,3.943,0,0,0,.172,1.228,2.311,2.311,0,0,0,.5.871,2.059,2.059,0,0,0,.782.524,2.827,2.827,0,0,0,1.027.177,2.946,2.946,0,0,0,1.044-.172,1.974,1.974,0,0,0,.774-.516,2.3,2.3,0,0,0,.485-.853,3.8,3.8,0,0,0,.168-1.188v-6.185a.194.194,0,0,1,.031-.109.209.209,0,0,1,.109-.075,1.286,1.286,0,0,1,.207-.046,2.314,2.314,0,0,1,.325-.019,2.216,2.216,0,0,1,.316.019,1.162,1.162,0,0,1,.2.046.234.234,0,0,1,.109.075.179.179,0,0,1,.035.109Z" transform="translate(-2438.375 -971.476)" fill="#fff"/>
        <path id="Trazado_1587" data-name="Trazado 1587" d="M2483.249,981.279a1.684,1.684,0,0,1-.016.247.512.512,0,0,1-.054.176.265.265,0,0,1-.09.1.208.208,0,0,1-.114.032h-4.855a.552.552,0,0,1-.34-.122.5.5,0,0,1-.16-.426v-9.023a.5.5,0,0,1,.16-.426.554.554,0,0,1,.34-.121h4.8a.21.21,0,0,1,.113.031.221.221,0,0,1,.083.1.818.818,0,0,1,.05.176,1.464,1.464,0,0,1,.02.262,1.358,1.358,0,0,1-.02.246.739.739,0,0,1-.05.172.224.224,0,0,1-.083.1.216.216,0,0,1-.113.031h-3.957v3.174h3.394a.193.193,0,0,1,.114.035.286.286,0,0,1,.086.1.492.492,0,0,1,.051.172,1.791,1.791,0,0,1,.016.258,1.564,1.564,0,0,1-.016.243.486.486,0,0,1-.051.165.224.224,0,0,1-.086.089.233.233,0,0,1-.114.028h-3.394v3.62h4.011a.213.213,0,0,1,.114.031.283.283,0,0,1,.09.1.468.468,0,0,1,.054.172A1.816,1.816,0,0,1,2483.249,981.279Z" transform="translate(-2458.634 -971.567)" fill="#fff"/>
        <path id="Trazado_1588" data-name="Trazado 1588" d="M2519.226,981.233a.608.608,0,0,1-.052.266.525.525,0,0,1-.328.281.717.717,0,0,1-.21.031h-.445a1.39,1.39,0,0,1-.368-.043.821.821,0,0,1-.3-.156,1.574,1.574,0,0,1-.283-.31,4.03,4.03,0,0,1-.3-.5l-3.087-5.755c-.162-.3-.324-.608-.488-.935s-.317-.642-.458-.95h-.015q.015.563.023,1.149t.008,1.165v6.107a.193.193,0,0,1-.033.106.209.209,0,0,1-.111.078,1.2,1.2,0,0,1-.206.047,2.731,2.731,0,0,1-.652,0,1.077,1.077,0,0,1-.2-.047.206.206,0,0,1-.107-.078.193.193,0,0,1-.033-.106v-9.336a.52.52,0,0,1,.177-.445.629.629,0,0,1,.387-.133h.662a1.658,1.658,0,0,1,.391.039.834.834,0,0,1,.283.129,1.11,1.11,0,0,1,.242.251,3.323,3.323,0,0,1,.246.4l2.373,4.442q.219.406.423.793t.393.763q.189.375.374.739c.124.243.246.485.367.731h.007q-.015-.617-.019-1.287c0-.445,0-.875,0-1.286V971.9a.174.174,0,0,1,.033-.1.266.266,0,0,1,.111-.082.728.728,0,0,1,.207-.051,2.85,2.85,0,0,1,.334-.016,2.707,2.707,0,0,1,.314.016.681.681,0,0,1,.207.051.269.269,0,0,1,.107.082.172.172,0,0,1,.033.1Z" transform="translate(-2481.155 -971.522)" fill="#fff"/>
        <path id="Trazado_1589" data-name="Trazado 1589" d="M2549.618,976.365a7.862,7.862,0,0,1-.289,2.213,4.628,4.628,0,0,1-.864,1.676,3.779,3.779,0,0,1-1.442,1.064,5.114,5.114,0,0,1-2.025.371,5.2,5.2,0,0,1-1.975-.34,3.46,3.46,0,0,1-1.375-.989,4.206,4.206,0,0,1-.81-1.611,8.315,8.315,0,0,1-.266-2.213,7.625,7.625,0,0,1,.29-2.174,4.516,4.516,0,0,1,.868-1.661,3.836,3.836,0,0,1,1.446-1.055,5.749,5.749,0,0,1,3.972-.035,3.531,3.531,0,0,1,1.38.981,4.178,4.178,0,0,1,.821,1.6A8,8,0,0,1,2549.618,976.365Zm-1.423.094a7.951,7.951,0,0,0-.152-1.6,3.693,3.693,0,0,0-.508-1.283,2.451,2.451,0,0,0-.949-.848,3.186,3.186,0,0,0-1.468-.3,3,3,0,0,0-1.468.328,2.756,2.756,0,0,0-.964.876,3.645,3.645,0,0,0-.532,1.278,7.165,7.165,0,0,0-.159,1.537,8.5,8.5,0,0,0,.148,1.641,3.648,3.648,0,0,0,.5,1.295,2.4,2.4,0,0,0,.941.844,3.245,3.245,0,0,0,1.48.3,3.068,3.068,0,0,0,1.484-.328,2.67,2.67,0,0,0,.968-.888,3.769,3.769,0,0,0,.524-1.294A7.484,7.484,0,0,0,2548.2,976.459Z" transform="translate(-2500.381 -971.275)" fill="#fff"/>
        <path id="Trazado_1590" data-name="Trazado 1590" d="M2581.219,981.446a.421.421,0,0,1-.094.175.4.4,0,0,1-.172.1,1.364,1.364,0,0,1-.27.051q-.161.015-.395.016c-.162,0-.3-.005-.411-.016a1.359,1.359,0,0,1-.278-.051.341.341,0,0,1-.165-.1.491.491,0,0,1-.086-.175l-2.118-7.639h-.016l-1.955,7.639a.4.4,0,0,1-.079.175.337.337,0,0,1-.156.1,1.2,1.2,0,0,1-.262.051q-.16.015-.41.016t-.43-.016a1.371,1.371,0,0,1-.281-.051.364.364,0,0,1-.168-.1.372.372,0,0,1-.082-.175l-2.674-9.344a1.376,1.376,0,0,1-.051-.282.182.182,0,0,1,.063-.157.4.4,0,0,1,.215-.07,3.992,3.992,0,0,1,.4-.016q.242,0,.383.011a.761.761,0,0,1,.215.042.191.191,0,0,1,.1.087.493.493,0,0,1,.042.141l2.276,8.475h.008l2.158-8.46a.579.579,0,0,1,.059-.145.221.221,0,0,1,.113-.09.876.876,0,0,1,.223-.047,3.67,3.67,0,0,1,.38-.016,3.021,3.021,0,0,1,.348.016.84.84,0,0,1,.207.047.222.222,0,0,1,.113.09.57.57,0,0,1,.059.145l2.322,8.46h.016l2.229-8.467c.015-.052.031-.1.046-.137a.169.169,0,0,1,.1-.09.794.794,0,0,1,.211-.047,3.336,3.336,0,0,1,.364-.016,2.865,2.865,0,0,1,.372.019.382.382,0,0,1,.2.074.185.185,0,0,1,.059.156,1.714,1.714,0,0,1-.042.282Z" transform="translate(-2520.339 -971.476)" fill="#fff"/>
      </g>
    </g>
  </g>
</svg>
