<svg xmlns="http://www.w3.org/2000/svg" width="941.106" height="959.178" viewBox="0 0 941.106 959.178">
  <g id="Grupo_791" data-name="Grupo 791" transform="translate(-929.188 -62.639)">
    <path id="Trazado_248" data-name="Trazado 248" d="M1510.132,5252.685c-171.757-369.584-183.746-508.925,0-576.962s546.825,87.634,600.046,172.206S1681.888,5622.271,1510.132,5252.685Z" transform="matrix(0.407, 0.914, -0.914, 0.407, 5266.525, -3090.085)" fill="#4e01d4"/>
    <g id="TUERCA-ELEMENTO_AUX" data-name="TUERCA-ELEMENTO AUX" transform="translate(976.737 601.887) rotate(-41)">
      <path id="Trazado_342" data-name="Trazado 342" d="M2114.209,5766.908a19.12,19.12,0,0,0-.523,2.783l-4.948,1.021,2.408,11.666,4.948-1.021a20.807,20.807,0,0,0,1.579,2.347l-2.775,4.215,9.948,6.544,2.774-4.215a19.08,19.08,0,0,0,2.784.523l1.021,4.948,11.667-2.409-1.021-4.948a20.855,20.855,0,0,0,2.347-1.579l4.215,2.774,6.544-9.948-4.215-2.774a19.068,19.068,0,0,0,.523-2.784l4.948-1.02-2.408-11.667-4.948,1.021a20.826,20.826,0,0,0-1.58-2.347l2.775-4.214-9.948-6.544-2.775,4.214a19.068,19.068,0,0,0-2.784-.523l-1.021-4.948-11.667,2.409,1.021,4.948a20.837,20.837,0,0,0-2.347,1.58l-4.215-2.775-6.544,9.947Zm8.351-1.641a12,12,0,1,1,3.429,16.623A12,12,0,0,1,2122.56,5765.268Zm50.916,17.024a12,12,0,0,0-.331,1.745l-3.107.646,1.509,7.339,3.107-.646a11.773,11.773,0,0,0,.995,1.475l-1.745,2.652,6.256,4.119,1.746-2.653a12.094,12.094,0,0,0,1.745.332l.646,3.106,7.339-1.51-.646-3.106a11.739,11.739,0,0,0,1.475-1l2.653,1.746,4.119-6.257-2.653-1.745a12.074,12.074,0,0,0,.331-1.746l3.107-.646-1.51-7.339-3.106.646a11.782,11.782,0,0,0-.995-1.475l1.746-2.652-6.257-4.119-1.745,2.653a11.977,11.977,0,0,0-1.746-.332l-.646-3.107-7.338,1.51.646,3.115a11.75,11.75,0,0,0-1.475.995l-2.653-1.745-4.119,6.257Zm5.253-1.03a7.547,7.547,0,1,1,2.156,10.454A7.544,7.544,0,0,1,2178.729,5781.262Z" transform="translate(-2108.738 -5748.024)" fill="#ff7171"/>
      <path id="Trazado_343" data-name="Trazado 343" d="M2137.985,5911.63a9.791,9.791,0,1,0,9.791-9.791A9.787,9.787,0,0,0,2137.985,5911.63Z" transform="translate(-2123.474 -5825.521)" fill="#b95e89"/>
    </g>
    <g id="RELOJ-ELEMENTO_AUX" data-name="RELOJ-ELEMENTO AUX" transform="translate(1653 622)">
      <g id="Grupo_145" data-name="Grupo 145">
        <g id="Grupo_143" data-name="Grupo 143" transform="translate(0 64.825)">
          <path id="Trazado_344" data-name="Trazado 344" d="M2865.854,6077.807a27.433,27.433,0,1,0,27.428-27.438A27.425,27.425,0,0,0,2865.854,6077.807Z" transform="translate(-2865.854 -6050.368)" fill="#fff"/>
          <path id="Trazado_345" data-name="Trazado 345" d="M2899.32,6061.378a60.541,60.541,0,0,0-1.721,10.413,104.051,104.051,0,0,0-.391,10.414l2.112-2.113c-3.062.042-6.125.169-9.188.507a58.062,58.062,0,0,0-9.188,1.605,58.228,58.228,0,0,0,9.188,1.6c3.063.338,6.125.464,9.188.507l2.092.032.021-2.144a104.051,104.051,0,0,0-.391-10.414A60.325,60.325,0,0,0,2899.32,6061.378Z" transform="translate(-2871.882 -6054.766)" fill="#83e9d4"/>
        </g>
        <g id="Grupo_144" data-name="Grupo 144" transform="translate(99.003)">
          <path id="Trazado_346" data-name="Trazado 346" d="M3030.715,5942.421c1.806,1.415,21.936,25.41,21.936,25.41l78.418,6.031Z" transform="translate(-3030.715 -5942.421)" fill="#e9b4de"/>
          <path id="Trazado_347" data-name="Trazado 347" d="M3051.555,6016.521l9.421-31.769,78.407,6.02Z" transform="translate(-3039.04 -5959.331)" fill="#b95e89"/>
          <path id="Trazado_348" data-name="Trazado 348" d="M3051.555,6020.524l26.266-14.194,61.562-11.554Z" transform="translate(-3039.04 -5963.335)" fill="#cd99c2"/>
          <path id="Trazado_349" data-name="Trazado 349" d="M3095.293,6006.33l25.654,28.991,35.908-40.545Z" transform="translate(-3056.512 -5963.335)" fill="#e9b4de"/>
        </g>
        <path id="Trazado_350" data-name="Trazado 350" d="M3037.1,6191.3a23.983,23.983,0,0,0,1.384,3.306l-4.52,4.52,10.667,10.667,4.521-4.52a23.98,23.98,0,0,0,3.305,1.384v6.389h15.082v-6.389a24.033,24.033,0,0,0,3.306-1.384l4.52,4.52,10.667-10.667-4.521-4.52a23.954,23.954,0,0,0,1.384-3.306h6.39V6176.22h-6.39a23.9,23.9,0,0,0-1.384-3.306l4.521-4.52-10.667-10.667-4.52,4.52a24.155,24.155,0,0,0-3.306-1.384v-6.389h-15.082v6.389a24.1,24.1,0,0,0-3.305,1.384l-4.521-4.52-10.667,10.667,4.52,4.52a23.933,23.933,0,0,0-1.384,3.306h-6.389V6191.3Zm7.7-7.541a15.2,15.2,0,1,1,15.2,15.2A15.194,15.194,0,0,1,3044.8,6183.76Z" transform="translate(-2931.712 -6027.13)" fill="#4e01d4" style="isolation: isolate"/>
        <circle id="Elipse_23" data-name="Elipse 23" cx="10.318" cy="10.318" r="10.318" transform="translate(44.548 5.402)" fill="#b95e89"/>
        <path id="Trazado_351" data-name="Trazado 351" d="M2954.667,6195.359a11.85,11.85,0,1,0,11.85-11.851A11.846,11.846,0,0,0,2954.667,6195.359Z" transform="translate(-2901.333 -6038.729)" fill="#b95e89"/>
      </g>
    </g>
    <g id="LUPA-ELEMENTO_AUX" data-name="LUPA-ELEMENTO AUX" transform="translate(1343 256)">
      <g id="Grupo_148" data-name="Grupo 148" transform="translate(0 0)">
        <g id="Grupo_147" data-name="Grupo 147" transform="translate(0 0)">
          <g id="Grupo_146" data-name="Grupo 146" transform="translate(83.636)">
            <ellipse id="Elipse_24" data-name="Elipse 24" cx="36.9" cy="36.889" rx="36.9" ry="36.889" transform="matrix(0.122, -0.993, 0.993, 0.122, 0, 73.246)" fill="#ff7171"/>
            <path id="Trazado_352" data-name="Trazado 352" d="M4101.445,5664.988l10.364,17.827a2.665,2.665,0,1,0,4.6-2.686l-10.365-17.827a18.162,18.162,0,1,0-4.6,2.686Zm-17.828-10.375a12.861,12.861,0,1,1,17.578,4.646A12.885,12.885,0,0,1,4083.618,5654.612Z" transform="translate(-4059.467 -5617.258)" fill="#f5f6f8"/>
          </g>
          <circle id="Elipse_25" data-name="Elipse 25" cx="9.076" cy="9.076" r="9.076" transform="translate(0 29.707)" fill="#b95e89"/>
        </g>
      </g>
    </g>
    <g id="AVION_TUERCAS" data-name="AVION+TUERCAS" transform="translate(1134.6 262.901)">
      <path id="Trazado_353" data-name="Trazado 353" d="M4233.352,6479.615a17.993,17.993,0,0,0,1.542-2.26l4.781,1.01,2.381-11.275-4.781-1.01a18.8,18.8,0,0,0-.494-2.691l4.088-2.66-6.291-9.656-4.089,2.66a17.968,17.968,0,0,0-2.26-1.543l1.009-4.78-11.274-2.381-1.01,4.78a18.756,18.756,0,0,0-2.691.5l-2.668-4.089-9.655,6.292,2.666,4.089a17.787,17.787,0,0,0-1.542,2.26l-4.781-1.009-2.381,11.275,4.781,1.009a18.575,18.575,0,0,0,.5,2.692l-4.089,2.666,6.291,9.656,4.089-2.66a17.837,17.837,0,0,0,2.261,1.543l-1.01,4.781,11.275,2.38,1.009-4.78a18.955,18.955,0,0,0,2.692-.5l2.66,4.088,9.656-6.291Zm-8.038-1.783a11.612,11.612,0,1,1,3.391-16.068A11.617,11.617,0,0,1,4225.313,6477.832Zm-38.561-34.8a11.978,11.978,0,0,0,.971-1.422l3.009.636,1.5-7.093-3.009-.635a11.952,11.952,0,0,0-.312-1.694l2.571-1.677-3.955-6.075-2.571,1.676a11.324,11.324,0,0,0-1.422-.972l.635-3.009-7.091-1.5-.635,3.009a12.1,12.1,0,0,0-1.7.311l-1.676-2.57L4167,6425.97l1.676,2.57a11.471,11.471,0,0,0-.971,1.423l-3.01-.635-1.5,7.092,3.009.634a12.145,12.145,0,0,0,.312,1.7l-2.571,1.676,3.955,6.069,2.571-1.677a11.362,11.362,0,0,0,1.422.972l-.635,3.01,7.092,1.5.634-3.008a12.119,12.119,0,0,0,1.7-.312l1.676,2.571,6.069-3.956Zm-5.055-1.123a7.3,7.3,0,1,1,2.133-10.1A7.3,7.3,0,0,1,4181.7,6441.905Z" transform="translate(-4163.192 -6378.165)" fill="#00ebd5" style="isolation: isolate"/>
      <g id="Grupo_149" data-name="Grupo 149" transform="translate(4.952)">
        <path id="Trazado_354" data-name="Trazado 354" d="M4236.2,6303.531c-1.276-.241-42.74-1.663-42.74-1.663l-1.879,6.114Z" transform="translate(-4186.282 -6301.868)" fill="#e9b4de"/>
        <path id="Trazado_355" data-name="Trazado 355" d="M4191.577,6310.927l5.562,17.065,39.057-21.516Z" transform="translate(-4186.282 -6304.813)" fill="#b95e89"/>
        <path id="Trazado_356" data-name="Trazado 356" d="M4192.486,6327.992l39.057-21.516-47.247,11.51Z" transform="translate(-4181.629 -6304.813)" fill="#cd99c2"/>
        <path id="Trazado_357" data-name="Trazado 357" d="M4179.577,6317.986l47.246-11.51-49.913,22.15Z" transform="translate(-4176.91 -6304.813)" fill="#e9b4de"/>
      </g>
      <path id="Trazado_358" data-name="Trazado 358" d="M4227,6659.774a5.238,5.238,0,1,0,5.238-5.237A5.238,5.238,0,0,0,4227,6659.774Z" transform="translate(-4203.964 -6527.227)" fill="#b95e89"/>
    </g>
    <g id="Grupo_153" data-name="Grupo 153" transform="translate(-239.392 -213.461) rotate(-3)">
      <g id="Grupo_152" data-name="Grupo 152" transform="translate(1312 650)">
        <g id="Grupo_150" data-name="Grupo 150" transform="translate(0 21.709)">
          <path id="Trazado_359" data-name="Trazado 359" d="M820.963,230.3l-1.793,185.932c-.094,9.65-2.828,15.259-16.626,17.037-17.167,2.213-22.362-.812-24.906-5.53-4.781-8.872-51.615-186.56-59.348-198.644S820.963,230.3,820.963,230.3Z" transform="translate(-624.222 -14.598)" fill="#00e9d3"/>
          <path id="Trazado_360" data-name="Trazado 360" d="M820.576,270.35l.386-40.051s-110.408-13.291-102.674-1.2c1.823,2.85,9.029,25.764,14.423,43.492Z" transform="translate(-624.222 -14.598)" fill="#00a7cc"/>
          <path id="Trazado_361" data-name="Trazado 361" d="M709.739,275.588A20.885,20.885,0,0,0,689.216,291.7a100.72,100.72,0,0,0-2.342,21.625c-.094,10.6.7,17.481,3.3,23.276a20.406,20.406,0,0,0,18.036,11.664c37.747,1.37,173.677,6.7,202.022,13.363,32.993,7.752,143.512,56.807,143.512,56.807l-21.073-248.571S931.149,252.151,866.7,264.947C816.558,274.9,740.882,275.718,709.739,275.588Z" transform="translate(-686.867 -123.905)" fill="#d0d7de"/>
          <path id="Trazado_362" data-name="Trazado 362" d="M720.994,283.472c14.049.67,28.686,1.416,43.06,2.249-9.023-29.123-5.458-62.415-.851-82.28-14.377,1.358-29.063,2.294-43.166,2.955C713.345,234.712,714.523,261.3,720.994,283.472Z" transform="translate(-628.972 -56.137)" fill="#4e13d1"/>
          <path id="Trazado_363" data-name="Trazado 363" d="M973.7,316.6c.71,89.866-42.091,163.058-95.592,163.48s-97.446-72.09-98.152-161.956,42.088-163.058,95.593-163.48S972.991,226.733,973.7,316.6Z" transform="translate(-498.982 -154.641)" fill="#e5e6ed"/>
          <path id="Trazado_364" data-name="Trazado 364" d="M951.957,300.445c.6,76.443-35.8,138.707-81.315,139.066s-82.9-61.326-83.5-137.771,35.8-138.707,81.314-139.066S951.356,224,951.957,300.445Z" transform="translate(-484.462 -138.43)" fill="#4e13d1"/>
          <path id="Trazado_365" data-name="Trazado 365" d="M852.11,248.088c1.956-27.231-15.872-50.7-39.815-52.418a39.326,39.326,0,0,0-22.808,5.618,227.716,227.716,0,0,0-2.342,34.031,219.846,219.846,0,0,0,7.715,56.6,38.176,38.176,0,0,0,10.36,2.364C829.163,296,850.158,275.319,852.11,248.088Z" transform="translate(-484.461 -72.01)" fill="#fc7171"/>
        </g>
        <path id="Trazado_366" data-name="Trazado 366" d="M768.469,187.554c-.311-2.871-.534-5.551,1.047-8.316-1.4.235-3.48.45-3.363-.371.16-1.114.4-2.7-.411-2.557a5.85,5.85,0,0,0-2.092,1.053,9.418,9.418,0,0,1-4.83,1.18c-.571,1.9-2.189,4.836-1.15,6.882.538,1.06,3.372.561,4.634,1.041A21.4,21.4,0,0,0,768.469,187.554Z" transform="translate(-544.628 -89.211)" fill="#fccaea"/>
        <g id="Grupo_151" data-name="Grupo 151" transform="translate(155.887 0)">
          <path id="Trazado_367" data-name="Trazado 367" d="M766.685,150.963s-11.972-.67-28.176,6.991l7.552,32.875a34.513,34.513,0,0,1,18.4-4.045Z" transform="translate(-738.509 -140.388)" fill="#fc7171"/>
          <path id="Trazado_368" data-name="Trazado 368" d="M745.225,168.225c.072-5.482.414-10.964.537-16.442a49.886,49.886,0,0,1,7.375-.83l-2.219,35.822c-3.082-4.7-4.552-3.659-5.162-4.232C745.777,177.806,745.164,172.922,745.225,168.225Z" transform="translate(-724.961 -140.378)" fill="#f24f5e"/>
          <path id="Trazado_369" data-name="Trazado 369" d="M818.182,159.745s-42.852-16.85-70.934-11.1l-1.85,40.968s24.906-5.509,59.39,9.59Z" transform="translate(-724.603 -147.45)" fill="#fc7171"/>
          <rect id="Rectángulo_79" data-name="Rectángulo 79" width="102.751" height="3.688" transform="matrix(0.328, -0.945, 0.945, 0.328, 57.987, 108.705)" fill="#110239"/>
        </g>
        <path id="Trazado_370" data-name="Trazado 370" d="M824.883,203.018v-11.6s-34.611.266-49.127-3.894-33.962-21.236-41.7-18.471-12.678,10.653-3.067,18.2,32.429,14.073,42.323,15.585C780.166,203.888,819.429,203.012,824.883,203.018Z" transform="translate(-608.516 -104.443)" fill="#00e9d3"/>
        <path id="Trazado_371" data-name="Trazado 371" d="M766.982,195.393c-12.222-5.083-23.771-16.14-33.615-26.446-7.332,2.973-11.709,10.6-2.385,17.921,9.611,7.546,32.429,14.073,42.324,15.585,3.369.513,14.573.564,25.74.483A112.25,112.25,0,0,1,766.982,195.393Z" transform="translate(-608.515 -104.056)" fill="#00a7cc"/>
        <path id="Trazado_372" data-name="Trazado 372" d="M743.187,224.623s-6.768,10.918-5.771,13.511,24.5,16.243,27.668,15.153,3.773-4.824-.435-8.582c-3.785-3.375-7.477-4.335-10.013-7.625-2.225-2.889-.009-10.266-.009-10.266Z" transform="translate(-585.031 8.331)" fill="#110239"/>
        <path id="Trazado_373" data-name="Trazado 373" d="M755.529,196.3s4.706,3.855,9.672,3.209,53.39,4.383,58.352,8.482S808.2,294.012,808.2,294.012L791.363,291.2s6.034-59.889,5.026-60.32-26.434-.338-69.786-.338c-10.58,0-22.377-22.232-9-37.774Z" transform="translate(-636.879 -55.963)" fill="#fc7171"/>
        <path id="Trazado_374" data-name="Trazado 374" d="M736.795,165.624a18.986,18.986,0,0,1-4.534-2.859c-.664,4.981-2.536,14.163-7.613,18.96,0,0,10.508,4.341,19.123,2.43,0,0-1.014-11.685.767-17.408A17.086,17.086,0,0,1,736.795,165.624Z" transform="translate(-610.602 -116.535)" fill="#fccaea"/>
        <path id="Trazado_375" data-name="Trazado 375" d="M731.648,179.844c1.645-5.159,6.843-8.365,12.065-8.422a23.536,23.536,0,0,1,.824-4.676,17.086,17.086,0,0,1-7.743-1.123,18.986,18.986,0,0,1-4.534-2.859c-.664,4.981-2.536,14.163-7.613,18.96a44.1,44.1,0,0,0,6.221,1.9A16.068,16.068,0,0,1,731.648,179.844Z" transform="translate(-610.602 -116.535)" fill="#e2acd0"/>
        <path id="Trazado_376" data-name="Trazado 376" d="M732.823,155.822s12.409-3.9,16.333-1.452,6.982,10.148,6.3,14.655,4.495,9.738,4.63,11.365c.106,1.307-3.927,2.249-4.057,2.75s-.368,8.715-5.8,10.1c-7.655,1.95-17.888-4.2-21.4-8.835S721.156,158.6,732.823,155.822Z" transform="translate(-609.633 -135.11)" fill="#fccaea"/>
        <path id="Trazado_377" data-name="Trazado 377" d="M755.907,161.534c-.655-.655-2.336-1.718-2.747-2.56a16.363,16.363,0,0,0-.942-2.149c-1.379-2.016-1.708-3.489-7.38-5.267-4.933-1.546-11.22.232-15.135,3.366A14.415,14.415,0,0,0,726.1,159.1c-.269.483-1.123,1.817-.921,2.327.26.64,2.1,1.081,2.669,1.413a23.456,23.456,0,0,1,2.8,2.261c5.663,4.6,14.516,9.527,20.753,3.139a26.774,26.774,0,0,0,2.339-2.687,16.78,16.78,0,0,1,1.715,8.247,7.39,7.39,0,0,0,2.532-3.988C758.826,165.649,757.473,163.1,755.907,161.534Z" transform="translate(-609.601 -140.301)" fill="#110239"/>
        <path id="Trazado_378" data-name="Trazado 378" d="M734.706,154.714c-1.5-.809-4.32-.546-5.883-.208-3.257.706-5.017,3.091-5.59,6.258a30.223,30.223,0,0,0-.586,5.823,22.331,22.331,0,0,0,1.452,8.82,21.151,21.151,0,0,0,5.186,8.235c2.2,1.989,6.508,4.286,8.663,3.42.833-.335,2.041-6.327,1.814-7.887-.214-1.494-.954-1.515-2.128-2.182-1.98-1.123-4.193-3.336-2.744-5.732,2.062-3.417,5.9-1.85,7.278,2.877,0,0,1.5,2.653,2.355,2.231S749.189,162.53,734.706,154.714Z" transform="translate(-614.646 -133.864)" fill="#110239"/>
        <path id="Trazado_379" data-name="Trazado 379" d="M727.161,160.14a3.283,3.283,0,0,1,3.68.966c1.479,1.727.782,4.513-.679,3.468s-.879-1.953-1.135-2.81A2.7,2.7,0,0,0,727.161,160.14Z" transform="translate(-605.529 -122.259)" fill="#e2acd0"/>
        <path id="Trazado_380" data-name="Trazado 380" d="M711.63,241.153s17.535,13.6,53.891,7.543a79.119,79.119,0,0,1,2.955-20.647c3.052-10.209,7.622-30.1,7.755-40.609.151-11.86-6.357-17.2-6.357-17.2s-6.822,6.4-17-1.938c0,0-19.277,4.57-28.305,26.491S711.63,241.153,711.63,241.153Z" transform="translate(-636.88 -105.362)" fill="#00e9d3"/>
        <path id="Trazado_381" data-name="Trazado 381" d="M728.732,174.377c-9.382,10.139-.3,35.094,11.561,49.016a63.023,63.023,0,0,1,1.506-6.366c1.609-5.379,3.622-13.439,5.2-21.4a18.875,18.875,0,0,1-7.594-9.038C735.762,177.749,733.4,171.769,728.732,174.377Z" transform="translate(-610.203 -94.338)" fill="#00a7cc"/>
        <path id="Trazado_382" data-name="Trazado 382" d="M754.784,197.073a9.523,9.523,0,0,0,4.416,2.276,5.751,5.751,0,0,1,2.252.577,12.132,12.132,0,0,0,2.514.9,4.809,4.809,0,0,1,2.385,1.138c.718.842-.667,1.108-1.618,1.15-1.035.048-3.743-1.721-4.555-.984s2.626,2.687,3.314,3.061c1.627.893,2.823.181,4.5.205.981.015,1.425.32.749,1.232-.5.676-1.491.7-2.264.758a10.048,10.048,0,0,1-4.833-.788,11.729,11.729,0,0,0,4.428,1.2c.872.066,4.642-.3,4.655,1.084.03,2.774-8.331,1-9.566.042a13.78,13.78,0,0,0,4.383,1.494c.89.205,3.022.6,1.85,1.748-1.729,1.7-5.847-1.108-7.912-2.035a16.131,16.131,0,0,0,3.779,2.255c1.724.918.45,1.866-1.479,1.232a21.7,21.7,0,0,1-2.662-1.247c-3.456-1.914-4.748-3.686-6.6-7.006-.667-1.192-3.139-2.677-2.892-3.831C750.115,199.3,753.167,198.139,754.784,197.073Z" transform="translate(-560.199 -47.281)" fill="#fccaea"/>
        <path id="Trazado_383" data-name="Trazado 383" d="M806.719,245.07l-7.036,9.545S754.618,235.1,750.568,229.95s-17.3-24.034-19.367-29.06c-4.806-11.664-10.767-25.57,0-28.009,5.871-1.331,9.656.148,13.309,8.8,4.962,11.76,15.512,30.391,19.808,36.054C765.98,219.925,806.719,245.07,806.719,245.07Z" transform="translate(-609.568 -96.977)" fill="#00e9d3"/>
        <path id="Trazado_384" data-name="Trazado 384" d="M769.559,179.022c.64,1.011-1.111,5.361-2.789,7.184-1.316,1.434-2.871,1.014-4.175.3-1.407-.848-3.085-1.153-3.293-1.977-.3-3.239,2.7-.806,4.03-.329,0,0-3.622-1.8-3.574-3.357.142-2.922,4.6.45,5.853,1.014-1.265-.347-3.275-1.757-3.447-2.294a1.125,1.125,0,0,1-.133-1.709c.966-.9,4.763,1.823,4.763,1.823-.682-.489-3.459-1.485-2.343-2.765.742-.851,1.856-.142,2.53.06A3.973,3.973,0,0,1,769.559,179.022Z" transform="translate(-540.692 -88.804)" fill="#fccaea"/>
        <path id="Trazado_385" data-name="Trazado 385" d="M762.29,180.792c.42-.169.824-.254,1.235-.383,0-.021-.036-.027-.033-.054.16-1.111,4.377-1.392,5.313-1.881,2.828-1.476,1.69-3.257.4-2.853-.878.275-2.865.863-3.625,1.2a13.657,13.657,0,0,1-2.928.335c-.785.145-2.955,2.074-3.637,2.524C757.572,180.632,760.751,181.417,762.29,180.792Z" transform="translate(-541.965 -90.701)" fill="#fccaea"/>
        <path id="Trazado_386" data-name="Trazado 386" d="M891.635,189.157c.933,2.539-7.474,7.963-18.779,12.117s-21.224,5.461-22.156,2.922,7.474-7.963,18.779-12.117S890.7,186.615,891.635,189.157Z" transform="translate(-356.298 -65.877)" fill="#d0d1de"/>
        <path id="Trazado_387" data-name="Trazado 387" d="M884.226,172.166c1.075,2.484-7.012,8.377-18.063,13.161s-20.88,6.656-21.954,4.175,7.012-8.377,18.063-13.161S883.152,169.685,884.226,172.166Z" transform="translate(-369.451 -99.773)" fill="#d0d1de"/>
        <path id="Trazado_388" data-name="Trazado 388" d="M890.332,242.944c-.8,2.587-10.773,1.79-22.277-1.775s-20.176-8.552-19.376-11.136,10.776-1.787,22.277,1.778S891.135,240.363,890.332,242.944Z" transform="translate(-360.34 16.19)" fill="#d0d1de"/>
        <path id="Trazado_389" data-name="Trazado 389" d="M882.625,263.217c-1.008,2.511-10.885.9-22.057-3.6s-19.406-10.176-18.4-12.684,10.885-.9,22.057,3.6S883.636,260.708,882.625,263.217Z" transform="translate(-373.543 50.976)" fill="#d0d1de"/>
        <path id="Trazado_390" data-name="Trazado 390" d="M895.413,215.117c-.142,2.7-10,4.386-22.03,3.761s-21.661-3.32-21.522-6.022,10-4.386,22.03-3.761S895.552,212.415,895.413,215.117Z" transform="translate(-353.815 -23.276)" fill="#d0d1de"/>
      </g>
    </g>
  </g>
</svg>
