<svg xmlns="http://www.w3.org/2000/svg" xmlns:xlink="http://www.w3.org/1999/xlink" width="1008.379" height="597.128" viewBox="0 0 1008.379 597.128">
  <defs>
    <linearGradient id="linear-gradient" y1="0.5" x2="1" y2="0.5" gradientUnits="objectBoundingBox">
      <stop offset="0" stop-color="#d42150"/>
      <stop offset="1" stop-color="#741045"/>
    </linearGradient>
  </defs>
  <g id="Grupo_811" data-name="Grupo 811" transform="translate(-752.644 -177.872)">
    <g id="NOSTROS-ICON" transform="translate(935.298 177.872)">
      <g id="Grupo_222" data-name="Grupo 222">
        <g id="Grupo_221" data-name="Grupo 221" transform="translate(0 39.379)">
          <g id="Grupo_220" data-name="Grupo 220">
            <path id="Trazado_542" data-name="Trazado 542" d="M715.5,4541.563s-97.744-132.55-16.53-276.054c72.058-127.328,156.071-118.624,217.71-66.954,26.253,22.006,101.942,2.712,166.364-126.848,87.853-176.684,392.385-69.524,336.859,202.309-26.871,131.548,81.777,136.33,26.417,267.825Z" transform="translate(-664.344 -3985.222)" fill="#fc7171"/>
            <path id="Rectángulo_120" data-name="Rectángulo 120" d="M1.13,0H824.594a1.13,1.13,0,0,1,1.13,1.13v0a1.13,1.13,0,0,1-1.13,1.13H1.13A1.13,1.13,0,0,1,0,1.13v0A1.13,1.13,0,0,1,1.13,0Z" transform="translate(0 555.489)" fill="#fc7171"/>
          </g>
        </g>
        <ellipse id="Elipse_29" data-name="Elipse 29" cx="100.255" cy="72.183" rx="100.255" ry="72.183" transform="matrix(0.747, -0.665, 0.665, 0.747, 152.356, 133.272)" fill="#fc7171"/>
        <ellipse id="Elipse_30" data-name="Elipse 30" cx="22.299" cy="30.971" rx="22.299" ry="30.971" transform="translate(93.373 153.767) rotate(-41.657)" fill="#fc7171"/>
        <path id="Trazado_543" data-name="Trazado 543" d="M2679.273,4157.354c-3.768-16.685,2.917-32.409,14.93-35.122s24.805,8.614,28.573,25.3-2.917,32.409-14.93,35.121S2683.04,4174.04,2679.273,4157.354Z" transform="translate(-1931.141 -4031.876)" fill="#fc7171"/>
      </g>
      <path id="Trazado_544" data-name="Trazado 544" d="M1462.285,5264.4c-23.023-3.705-40.4,4.36-57.118,2.042-13.328-1.849-20.275-15.334-38.186-19.153,4.261-2.513,9.225-5.655,11.6-7.94,4.609-4.44,11.23-13.32,0-13.668-8.08-.251-14.373,13.208-17.267,20.779a55.043,55.043,0,0,0-8.651-.009c3.7-11.915,10.906-34.978,12.669-39.409,2.4-6.029-7.679-26.13-19.559-3.571-8.332,15.823-2.675,34.107,1.448,43.617a66.469,66.469,0,0,0-9.26,2.2c-9.818-22.4-41.048-86.252-74.9-78.317-36.907,8.65,42.164,51.579,62.106,83.407-16.291,7.551-30.606,16.724-55.349,10.025-65.758-17.8-70.974,22.253-70.974,22.253l293.861.1S1485.307,5268.11,1462.285,5264.4Z" transform="translate(-999.464 -4692.17)" fill="#00e9d3"/>
      <path id="Trazado_545" data-name="Trazado 545" d="M1688.089,4999.13c.3,2.827,4.3,2.726,8.826,2.047s3.353.512,9.713.389,8.48-2.3,8.757-3.214c.248-.815-2.836-1.393-6.138-2.08-.415-.086-.832-.177-1.249-.267-3.723-.816-6.261-3.5-9.5-5.807-3.069-2.187-5.137-12.208-5.137-12.208l-9.04-.053s2.841,9.062,4.32,12.213c.87,1.854-.056,4.234-.348,6.019A11.1,11.1,0,0,0,1688.089,4999.13Z" transform="translate(-1305.208 -4571.029)" fill="#fab4df"/>
      <path id="Trazado_546" data-name="Trazado 546" d="M1703.264,5032.191c4.522-.677,3.353.512,9.713.388s8.48-2.3,8.758-3.214c.248-.815-2.836-1.392-6.138-2.081l-.037.062a17.827,17.827,0,0,1-9.272,1.98c-4.281-.286-8.694-1.922-11.647-2.144a11.091,11.091,0,0,0-.2,2.96C1694.74,5032.971,1698.741,5032.869,1703.264,5032.191Z" transform="translate(-1311.557 -4602.042)" fill="#4e01d2"/>
      <path id="Trazado_547" data-name="Trazado 547" d="M1503.576,4993.793c.2,2.838,4.2,2.886,8.743,2.379s3.332.637,9.691.754,8.561-1.975,8.873-2.883c.278-.8-2.782-1.5-6.056-2.31-.411-.1-.825-.207-1.238-.313-3.691-.956-6.125-3.732-9.276-6.161-2.984-2.3-.529-11.844-.529-11.844l-6.86-3.24s-.943,9.836-1.452,14.811c-.209,2.037-1.223,4.083-1.583,5.856A11.133,11.133,0,0,0,1503.576,4993.793Z" transform="translate(-1191.37 -4566.141)" fill="#fab4df"/>
      <path id="Trazado_548" data-name="Trazado 548" d="M1512.319,5031.329c4.544-.507,3.332.637,9.691.754s8.561-1.976,8.873-2.883c.278-.805-2.782-1.5-6.056-2.31l-.039.059a17.821,17.821,0,0,1-9.34,1.63c-4.267-.447-8.615-2.248-11.558-2.58a11.141,11.141,0,0,0-.314,2.95C1503.772,5031.786,1507.774,5031.835,1512.319,5031.329Z" transform="translate(-1191.37 -4601.296)" fill="#4e01d2"/>
      <path id="Trazado_549" data-name="Trazado 549" d="M1520.965,4644.333s-1.9,9.2-3.8,55.857a150.56,150.56,0,0,0-6.089,19.2c-2.56,10.563-4.367,54.64-4.367,54.64s1.021,1.472,4.12,1.657a8.961,8.961,0,0,0,4.5-.958s17.8-57.729,26.46-80.141,13.739-54.415,13.739-54.415Z" transform="translate(-1193.352 -4358.315)" fill="#eaeaea"/>
      <path id="Trazado_550" data-name="Trazado 550" d="M1603.035,4635.056s1.4,9.289,15.772,53.719a150.525,150.525,0,0,0,.937,20.123c1.255,10.8,15.8,53.3,15.8,53.3a8.936,8.936,0,0,0,4.83-.094,15.269,15.269,0,0,0,4.805-2.331s-5.575-60.755-5.208-84.78-5.951-55.8-5.951-55.8Z" transform="translate(-1254.017 -4345.099)" fill="#eaeaea"/>
      <path id="Trazado_551" data-name="Trazado 551" d="M1591.467,4309.633a13.016,13.016,0,0,0-6.972-1.7,3.3,3.3,0,0,1,1.52-.631c-1.2-.24-3.945.821-3.945.821-16.436-7.295-20.3,17.25-20.238,23s-.224,12.35-8.847,17.074c-16.966,9.293-3.961,27.649-3.961,27.649-3.054,8.763,8.252,19.5,8.252,19.5-.192-4.654,21.171-34.3,32.688-41.067,2.914-3.861,4.232-10.874,4.333-11.426-.748,5.575-1.863,8.667-2.807,10.393C1601.368,4345.028,1597.436,4313.432,1591.467,4309.633Z" transform="translate(-1217.002 -4148.354)" fill="#f4c70d"/>
      <path id="Trazado_552" data-name="Trazado 552" d="M1635.208,4398.379c.057.025-5.389,2.854-9.487,1.733-3.855-1.051-6.373-6.048-6.321-6.06,1.633-.325,2.1-2.567,2.069-12.2l.738.145,11.961,2.37.445.087s-.284,3.9-.293,7.582c0,.778.009,1.545.038,2.263C1634.44,4396.431,1634.678,4398.13,1635.208,4398.379Z" transform="translate(-1264.322 -4195.628)" fill="#fab4df"/>
      <path id="Trazado_553" data-name="Trazado 553" d="M1638.537,4393.257c0,.778.009,1.545.038,2.263-6.958-.281-10.968-8.236-12.482-11.727l12.291,1.795.445.086S1638.546,4389.579,1638.537,4393.257Z" transform="translate(-1268.538 -4196.853)" fill="#f590ce"/>
      <path id="Trazado_554" data-name="Trazado 554" d="M1615.667,4335.229s-3.638-5.748-4.511-10.663c-.624-3.51,1.164-16.519,14.236-14.645a17.76,17.76,0,0,1,7.365,2.784c2.838,1.918,6.934,6.056,2.354,17.406l-1.19,3.835Z" transform="translate(-1259.063 -4150.214)" fill="#f4c70d"/>
      <path id="Trazado_555" data-name="Trazado 555" d="M1637.147,4355.787s-16.286-2.153-14.79-12.274.4-17.216,10.865-16.27,11.906,5.106,12.228,8.606S1641.422,4356.086,1637.147,4355.787Z" transform="translate(-1266.124 -4161.186)" fill="#fab4df"/>
      <path id="Trazado_556" data-name="Trazado 556" d="M1632.69,4325.018s-6.217,11.209-13.305,11.948-9.777-1.532-9.777-1.532a19.545,19.545,0,0,0,8.025-10.479S1630.177,4318.867,1632.69,4325.018Z" transform="translate(-1258.156 -4158.106)" fill="#f4c70d"/>
      <path id="Trazado_557" data-name="Trazado 557" d="M1668.589,4329.242s2.927,3.146,3.353,5.844,0,8.057,1.573,8.106c0,0,4.554-7.57,1.468-12.7C1671.71,4325.061,1668.589,4329.242,1668.589,4329.242Z" transform="translate(-1295.301 -4161.53)" fill="#f4c70d"/>
      <path id="Trazado_558" data-name="Trazado 558" d="M1654.427,4618.78c-3.417-7.237-12.915-13.225-20.918-13.228a23.763,23.763,0,0,0-15.157,5.3,3.989,3.989,0,0,1-6.411-2.269l-7-32.544a8.79,8.79,0,0,0-10.442-6.744l-113.346,24.4a8.587,8.587,0,0,0-6.588,10.2l24.367,113.222a8.91,8.91,0,0,0,6.017,6.62l-1.488.422h4.4l.036-.006a9.029,9.029,0,0,0,1.628-.2l2.468-.531h0l29.09-6.26a5.491,5.491,0,0,0,3-8.966,23.573,23.573,0,1,1,39.484-6.249,3.75,3.75,0,0,0,1.1,4.418l-1.7.828,3.932,0h0a3.834,3.834,0,0,0,.907-.085l34.735-7.476a8.792,8.792,0,0,0,6.746-10.446l-6.961-32.345a4.117,4.117,0,0,1,5.051-4.854,23.6,23.6,0,0,0,27.05-33.206Z" transform="translate(-1172.984 -4313.552)" fill="#740045" style="isolation: isolate"/>
      <path id="Trazado_559" data-name="Trazado 559" d="M1622.7,4605.552a23.761,23.761,0,0,0-15.157,5.3,3.99,3.99,0,0,1-6.411-2.269l-7-32.544a8.79,8.79,0,0,0-10.442-6.744l-113.346,24.4a8.587,8.587,0,0,0-6.588,10.2l24.367,113.222a8.916,8.916,0,0,0,10.593,6.84l31.557-6.792a5.49,5.49,0,0,0,3-8.966,23.573,23.573,0,1,1,39.485-6.249,3.761,3.761,0,0,0,4.247,5.158l34.735-7.476a8.793,8.793,0,0,0,6.746-10.446l-6.962-32.345a4.118,4.118,0,0,1,5.052-4.854,23.6,23.6,0,0,0,27.049-33.206C1640.2,4611.543,1630.7,4605.555,1622.7,4605.552Z" transform="translate(-1166.176 -4313.552)" fill="url(#linear-gradient)"/>
      <path id="Trazado_560" data-name="Trazado 560" d="M1781.392,4551.3s7.07,1.159,8.923,5.756-.734,7.711-1.73,7.7a4.441,4.441,0,0,1-3.8-3.131C1783.894,4559.243,1781.392,4551.3,1781.392,4551.3Z" transform="translate(-1366.341 -4302.344)" fill="#fab4df"/>
      <path id="Trazado_561" data-name="Trazado 561" d="M1518.5,4606.715s7.936-.01,10.791,4.681.589,8.561-.5,8.729a4.919,4.919,0,0,1-4.714-2.736C1522.668,4614.943,1518.5,4606.715,1518.5,4606.715Z" transform="translate(-1200.778 -4337.243)" fill="#fab4df"/>
      <path id="Trazado_562" data-name="Trazado 562" d="M1599.575,4470.633c-.7-.15-3.78-.512-7.693-1.128-7.2-1.131-17.251-3.121-20.621-6.23-.912-.844-3.04-5.489-5.249-10.813a100.994,100.994,0,0,0-1.767,27.712l-48.7,10.481c4.177-8.442,10.64-18.909,9.427-27.381-.449-3.141-2.17-7.45-2.813-12.292-.054-.416-.1-.832-.137-1.255-6.83,5.623-14.72,11.827-14.909,13.067-.314,2.08,5,25.1,5,25.1-1.321,3.04-7.056,2.4-7.056,2.4-5.375-3.838-13.279-25.586-12.645-30.4s20.229-32.276,24.972-38.838c4.686-6.485,21.79-6.323,22.2-6.32h.009c13.6,8.167,14.829,1.379,14.829,1.379s12.273,2.334,14.383,5.958,11.359,31.119,12.013,32.088c1.369,2.024,23.728,10.125,24.129,12.47S1601.58,4471.058,1599.575,4470.633Z" transform="translate(-1184.327 -4216.339)" fill="#4e01d2"/>
      <path id="Trazado_563" data-name="Trazado 563" d="M1571.929,4546.541l-16.981,3.637c4.228-8.418,9.787-18.9,8.571-27.322-.455-3.143-1.474-6.862-1.965-11.725-.048-.469-.129-1.88-.129-1.88s12.026,9.464,12.237,19.706A102.256,102.256,0,0,1,1571.929,4546.541Z" transform="translate(-1223.732 -4275.862)" fill="#4a2c76"/>
      <path id="Trazado_564" data-name="Trazado 564" d="M1717.588,4519.773c-7.292-1.133-17.463-3.123-20.874-6.233-.925-.845-3.078-5.494-5.315-10.826,0,0-.784-8.569,1.456-8.25s5.536,15.521,7.888,16.48C1702.849,4511.806,1714.487,4516.272,1717.588,4519.773Z" transform="translate(-1309.582 -4266.544)" fill="#4a2c76"/>
      <g id="Grupo_223" data-name="Grupo 223" transform="translate(668.583 417.553)">
        <path id="Trazado_565" data-name="Trazado 565" d="M2693.246,5426.572c-1.028,3.464-5.773,5.773-6.416,10.007a9.2,9.2,0,0,1-2.061,4.775h-14.776c.148-.814.8-1.69,2.718-2.11,4.1-.9,5.652-5.873,5.4-10.49-.106-1.937-.057-4.145.038-6.055.13-2.645.347-4.723.347-4.723l8.723-2.052.917,1.178.88,1.131S2694.27,5423.107,2693.246,5426.572Z" transform="translate(-2594.541 -5264.415)" fill="#4a2c76"/>
        <path id="Trazado_566" data-name="Trazado 566" d="M2496.088,5460.589h-29.9a6,6,0,0,1,3.768-1.875c4.6-.747,12.568-3.417,14.345-9.3.058-.189.11-.382.153-.579,1.41-6.285,11.674,1.925,11.674,1.925s.032.252.079.68C2496.392,5453.21,2496.792,5458.012,2496.088,5460.589Z" transform="translate(-2466.193 -5283.649)" fill="#4a2c76"/>
        <path id="Trazado_567" data-name="Trazado 567" d="M2479.671,5030.173s1.559,19.448,3.391,42.824c2.49,31.756,5.485,70.763,5.781,78.152.512,12.831,2.567,33.356,2.567,33.356s4.872,4.876,14.625,2.821c0,0,8.69-29.3,11.172-60.3q.057-.762.116-1.532c2.309-31.559,5.9-98.015,5.9-98.015Z" transform="translate(-2474.681 -5019.782)" fill="#4e01d2"/>
        <path id="Trazado_568" data-name="Trazado 568" d="M2479.671,5030.173s1.559,19.448,3.391,42.824l34.146,54.028q.057-.762.116-1.532c2.309-31.559,5.9-98.015,5.9-98.015Z" transform="translate(-2474.681 -5019.782)" fill="#4a2c76"/>
        <path id="Trazado_569" data-name="Trazado 569" d="M2498.9,5019.389s28.1,70.43,46.569,103.53,24.247,42.335,24.247,42.335,10.583-4.234,11.546-7.12c0,0-7.065-63.9-19.436-79.476-6.991-8.8-15.2-35.215-15.587-44.452s-2.5-27.518-2.5-27.518Z" transform="translate(-2486.79 -5006.688)" fill="#4e01d2"/>
      </g>
      <path id="Trazado_570" data-name="Trazado 570" d="M2525.2,4707.818a82.4,82.4,0,0,1-1.287-11.747l14.255-11.488c-.53,15.8,9.592,23.394,9.592,23.394s-19,9.35-29.976,5.886A26.315,26.315,0,0,1,2525.2,4707.818Z" transform="translate(-1830.104 -4386.282)" fill="#fab4df"/>
      <path id="Trazado_571" data-name="Trazado 571" d="M2519.252,4663.875s18.135,3.012,19.837-8.311,5.189-18.559-6.317-20.96-14.411,1.579-15.9,5.219S2514.579,4662.8,2519.252,4663.875Z" transform="translate(-1828.797 -4354.346)" fill="#fab4df"/>
      <g id="Grupo_224" data-name="Grupo 224" transform="translate(608.04 325.93)">
        <path id="Trazado_572" data-name="Trazado 572" d="M2321.387,4766.849l-3.859-2.39a9.761,9.761,0,0,0-13.036-2.692s-3.258,2.076-1.072,3.816,1.6.756,4.626,3.274,6.946,3.418,9.473,2.03l3.241-.307Z" transform="translate(-2302.665 -4759.909)" fill="#a16d3c"/>
        <path id="Trazado_573" data-name="Trazado 573" d="M2340.146,4766.892c.994-3.111,1.467-3.385,1.467-3.385s31.223,3.689,34.167,3.906,43.821-8.2,43.821-8.2l19.3,23.439s-56.909,2.145-64.356,1.448c-12.308-1.153-34.626-12.612-34.626-12.612A9.1,9.1,0,0,1,2340.146,4766.892Z" transform="translate(-2326.007 -4759.209)" fill="#089988"/>
      </g>
      <path id="Trazado_574" data-name="Trazado 574" d="M2531.087,4839.794c.054,1.209-2.438,2.538-3.52,3.023-8.15,3.656-15.741,6.192-24.317,7.019-10.173,1.043-22.2-1.245-26.317-1.19a1.772,1.772,0,0,1-1.156-.438c-.275-.221-.5-12.646-.275-28.314,0-.6,0-1.267.054-1.872v-.217c.016-1.633.042-3.291.077-4.964.1-4.58.275-9.28.473-13.952.3-6.886.707-13.655,1.273-19.651a113.655,113.655,0,0,1,2.3-15.534c2.2-8.851,7.258-14.681,11.876-18.97l3.792-3.351a17.992,17.992,0,0,0,11.82-1.43c4.343-2.145,9.073-4.455,9.841-3.9,5.862,4.381,9.808,14.326,11.831,26.967a139.738,139.738,0,0,1,1.59,22.3c-.013,3.037-.105,6.119-.281,9.229a303.483,303.483,0,0,0,.6,39.581C2530.917,4836.546,2531.049,4838.469,2531.087,4839.794Z" transform="translate(-1803.416 -4418.642)" fill="#00e9d3"/>
      <path id="Trazado_575" data-name="Trazado 575" d="M2121.791,4568.38,2007.1,4550.167a8.941,8.941,0,0,0-10.232,7.427l-5.076,31.965a37.644,37.644,0,0,0,.14,5.642l4.134.616a5.533,5.533,0,0,0,.716.107h0a5.48,5.48,0,0,0,2.308-.315,23.636,23.636,0,1,1-8.454,39.181,3.727,3.727,0,0,0-2.238-1.056h0l-4.324-.649-5.387,38.993a8.817,8.817,0,0,0,7.325,10.09l32.762,5.2a4.129,4.129,0,0,1,2.71,6.481,23.662,23.662,0,0,0,21.252,37.315c8-.575,17.042-7.287,19.942-14.769a23.828,23.828,0,0,0,.532-16.091,4,4,0,0,1,4.442-5.172l32.966,5.235a8.812,8.812,0,0,0,10.086-7.321l18.234-114.812A8.611,8.611,0,0,0,2121.791,4568.38Z" transform="translate(-1490.525 -4301.56)" fill="#f590ce"/>
      <path id="Trazado_576" data-name="Trazado 576" d="M2517.806,4808.111s-8.79,41.024-41.8,50.164c.1-4.579.276-9.28.474-13.953.3-6.886.707-13.654,1.273-19.651a11.487,11.487,0,0,1,1.649-.708C2490.606,4820.271,2517.806,4808.111,2517.806,4808.111Z" transform="translate(-1803.793 -4464.076)" fill="#089988"/>
      <path id="Trazado_577" data-name="Trazado 577" d="M2051.23,4714.667a23.819,23.819,0,0,0,.532-16.091,4,4,0,0,1,4.443-5.173l32.965,5.236a8.815,8.815,0,0,0,10.087-7.322l18.233-114.812a8.61,8.61,0,0,0-7.153-9.854l-114.686-18.214a8.94,8.94,0,0,0-10.232,7.427l-5.077,31.965a5.5,5.5,0,0,0,7.3,6.049,23.636,23.636,0,1,1-8.454,39.18,3.771,3.771,0,0,0-6.361,2.1l-5.588,35.184a8.816,8.816,0,0,0,7.324,10.09l32.762,5.2a4.129,4.129,0,0,1,2.71,6.481,23.66,23.66,0,0,0,21.252,37.314C2039.292,4728.861,2048.331,4722.149,2051.23,4714.667Z" transform="translate(-1483.313 -4300.471)" fill="#fde9f5"/>
      <g id="Grupo_225" data-name="Grupo 225" transform="translate(605.337 323.507)">
        <path id="Trazado_578" data-name="Trazado 578" d="M2316.922,4840l-4.716-.779a11.643,11.643,0,0,0-14.745-3.415s-3.716,2.078-1.258,4.023,1.8.874,5.206,3.686,7.834,3.936,10.714,2.562l3.677-.191Z" transform="translate(-2295.362 -4804.186)" fill="#fab4df"/>
        <path id="Trazado_579" data-name="Trazado 579" d="M2343.843,4790.873c.153-3.47,2-3.84,2-3.84s35.719-2.363,38.8-2.961,31.531-24.169,31.531-24.169,11-9.888,18.711-6.551c6.7,2.9,8.794,8.62,9.132,13.88a15.287,15.287,0,0,1-8.825,14.788c-12.777,5.968-38.328,17.682-44.147,18.692-12.952,2.249-46.241-4.961-46.241-4.961A10.935,10.935,0,0,1,2343.843,4790.873Z" transform="translate(-2325.888 -4752.665)" fill="#00e9d3"/>
      </g>
      <path id="Trazado_580" data-name="Trazado 580" d="M2511.728,4625.143s-7.36-5.458-2.56-13.939c0,0,5.79,1.921,14.015,0s15.585.8,16.545,3.68c0,0,3.2,1.281,3.52,6.081s-9.3,19.919-9.3,19.919-2.055-2.559-1.5-4.319,2.321-5.68.16-5.68-2.88,3.2-3.76,1.92.72-6.64-1.84-7.521S2514.608,4626.762,2511.728,4625.143Z" transform="translate(-1823.651 -4339.665)" fill="#4a2c76"/>
      <path id="Trazado_581" data-name="Trazado 581" d="M1574.853,5201.646l-32.42-147.194h8.924a3.858,3.858,0,0,0,3.846-3.846v-4.973a3.857,3.857,0,0,0-3.846-3.845h-113.2a3.856,3.856,0,0,0-3.845,3.845v4.973a3.857,3.857,0,0,0,3.845,3.846h11.489l-32.42,147.194a3.675,3.675,0,1,0,7.175,1.59l32.77-148.784h77.74l32.77,148.784a3.684,3.684,0,0,0,4.38,2.8h0A3.7,3.7,0,0,0,1574.853,5201.646Z" transform="translate(-1136.942 -4611.241)" fill="#740045" style="isolation: isolate"/>
      <g id="Grupo_226" data-name="Grupo 226" transform="translate(501.794 499.028)">
        <path id="Trazado_582" data-name="Trazado 582" d="M2329.922,5227.992c-12-11.519-55.2,61.164-55.2,61.164S2341.921,5239.512,2329.922,5227.992Z" transform="translate(-2178.822 -5226.754)" fill="#00e9d3"/>
        <path id="Trazado_583" data-name="Trazado 583" d="M2165.348,5320.255c-10.624-4.249-44.571,31.542-52.217,39.807a169.387,169.387,0,0,0-19.3-1.408c-53.758-.959-78.143,23.389-78.143,23.389l149.961.51s-13.283-16.867-50.969-22.279c9.208-4.348,36.443-17.014,46.348-19.449C2173.027,5337.874,2177.347,5325.055,2165.348,5320.255Z" transform="translate(-2015.688 -5285.418)" fill="#00e9d3"/>
      </g>
      <g id="Grupo_227" data-name="Grupo 227" transform="translate(437.996 460.815)">
        <path id="Trazado_584" data-name="Trazado 584" d="M2053.219,5123.813h-32.366a5.5,5.5,0,0,0-4.829,8.155c1.956,3.54-4.926,34.212-19.424,35.013a23.637,23.637,0,0,1-20.6-37.217,3.77,3.77,0,0,0-3.075-5.951H1937.3a8.816,8.816,0,0,0-8.816,8.816s-3.229,38.238-5.976,36.865a23.5,23.5,0,0,0-9.316-2.447h-.031c-.4-.02-.8-.032-1.2-.032s-6.268-.1-6.268-.1l-.889,47.252,5.093.054c4.841-.144,9.046-.6,12.783-2.5a4,4,0,0,1,5.805,3.576v33.379a8.813,8.813,0,0,0,8.813,8.813h116.251a8.61,8.61,0,0,0,8.61-8.61V5132.751A8.939,8.939,0,0,0,2053.219,5123.813Z" transform="translate(-1882.059 -5123.713)" fill="#740045" style="isolation: isolate"/>
        <path id="Trazado_585" data-name="Trazado 585" d="M1861.745,5213.445a23.823,23.823,0,0,0,15.975-2,4,4,0,0,1,5.806,3.576V5248.4a8.813,8.813,0,0,0,8.813,8.813h116.25a8.611,8.611,0,0,0,8.611-8.611V5132.482a8.94,8.94,0,0,0-8.94-8.94h-32.366a5.5,5.5,0,0,0-4.829,8.156,23.636,23.636,0,1,1-40.021-2.2,3.771,3.771,0,0,0-3.076-5.952h-35.624a8.816,8.816,0,0,0-8.816,8.816v33.173a4.129,4.129,0,0,1-5.976,3.693,23.661,23.661,0,0,0-33.519,26.841C1845.854,5203.882,1853.9,5211.755,1861.745,5213.445Z" transform="translate(-1843.368 -5123.542)" fill="url(#linear-gradient)"/>
      </g>
      <path id="Trazado_586" data-name="Trazado 586" d="M928.414,5383.893l20.893.154s-.726-5.056-14.791-6.359h0c-5.452-15.146-21.471-55.892-35.381-53.965-13.734,1.9,18.793,39.283,32.025,53.815a33.27,33.27,0,0,0-5.228.414c-3.188-6.347-9.508-15.317-19.652-14.908-10.8.435,3.912,10.293,14.037,16.346a25,25,0,0,0-7.9,4.386l15.758.115.286.156S928.446,5383.992,928.414,5383.893Z" transform="translate(-808.631 -4788.753)" fill="#00e9d3"/>
      <g id="Grupo_228" data-name="Grupo 228" transform="translate(102.162 367.019)">
        <path id="Trazado_587" data-name="Trazado 587" d="M1179.349,5030.331l3.091,2.51s8.457-3.032,10.365,7.017c0,0,.508,4.282-2.2,4.29s-1.593-.468-5.435-.355-7.026-1.913-7.588-5.03l-1.838-2.642Z" transform="translate(-1087.079 -4971.043)" fill="#f2ac8c"/>
        <path id="Trazado_588" data-name="Trazado 588" d="M1028.184,4934.868c2.467-2.576,2.268-4.479,2.268-4.479S1001.892,4907.007,999,4905.1c-1.974-1.3-23.007-19.944-32.838-31.312-4.877-5.639-10.917-3.451-17.829-1.468l-5.692,1.633c-6.873,1.972-8.66,11.584-3.021,16.255,15.881,13.154,42.3,27.95,47.244,31.059,12.271,7.72,36.292,16.892,36.292,16.892A15.221,15.221,0,0,0,1028.184,4934.868Z" transform="translate(-936.264 -4870.192)" fill="#1e3d70"/>
      </g>
      <path id="Trazado_589" data-name="Trazado 589" d="M1259.306,5432.257s6.931,5.193,17.551,2.449c0,0,8.563-1.951,10.441,2.319,0,0-13.132,6.672-16.455,8.5a39.8,39.8,0,0,0-6.965,5.225,3.445,3.445,0,0,1-4.987-.386c-.578-.71-1.238-1.556-1.963-2.538-2.024-2.743-6.743-11.606-6.743-11.606Z" transform="translate(-1031.801 -4857.146)" fill="#eaeaea"/>
      <path id="Trazado_590" data-name="Trazado 590" d="M1101.8,5215.131s-4.221,9.731-13.962,7.943c0,0-19.88-16.417-33.515-33.471-4.429-5.54-8.2-11.146-10.415-16.275-9.042-20.936-33.448-52.161-48.965-67.986l38.823-14.045s12.435,25.015,28.98,55.742C1074.666,5169.175,1088.72,5194.28,1101.8,5215.131Z" transform="translate(-871.054 -4642.418)" fill="#f4c70d"/>
      <path id="Trazado_591" data-name="Trazado 591" d="M1062.742,5147.038l-8.423,42.565c-4.429-5.54-8.2-11.146-10.415-16.275-9.042-20.936-33.448-52.161-48.965-67.986l38.823-14.045S1046.2,5116.311,1062.742,5147.038Z" transform="translate(-871.054 -4642.418)" fill="#af8f0b"/>
      <path id="Trazado_592" data-name="Trazado 592" d="M1068.332,5439.927s-.423,7.765,8.99,8.8c0,0,5.379.029,5.395,4.971l-27.359.086a21.267,21.267,0,0,1-.988-6.263c-.148-3.279,3.179-11.852,3.179-11.852Z" transform="translate(-908.479 -4859.296)" fill="#eaeaea"/>
      <path id="Trazado_593" data-name="Trazado 593" d="M987.179,5088.366s17.3,19,28.274,53.243c5.973,18.628-10.948,65.463-14.247,81.736,0,0-11.352.964-19.113-2.037,0,0-.59-33.61,3.949-59.515,2.54-14.5-22.772-31.007-33.833-57.2-7.524-17.821,1.63-17.519,12.879-17.947Z" transform="translate(-842.416 -4639.488)" fill="#f4c70d"/>
      <path id="Trazado_594" data-name="Trazado 594" d="M961.6,4822.39c-9.623,5.433-29.322.422-29.322.422s8-9.146,4.365-23.875l7.555,3.836,8.116,4.122a67.375,67.375,0,0,1,.889,7.273c.093,1.2.176,2.547.234,4.016A25.242,25.242,0,0,1,961.6,4822.39Z" transform="translate(-831.593 -4458.299)" fill="#fab4df"/>
      <path id="Trazado_595" data-name="Trazado 595" d="M984.554,4938.245c0,1.691-1.948,2.5-2.362,2.583-3.881.709-14.718,4.925-24.48,5.892-8.22.861-15.852.043-24.236-1.64-1.11-.224-3.717-.926-3.9-1.989-.231-1.162-32.34-65.457-7.379-93.076.586-.647,5.513.519,10.019,1.589a18.507,18.507,0,0,0,11.387-.931l4.226,2.224c5.189,2.891,15.008,13.165,16.157,21.226.583,4.1,2.928,7.135,3.606,10.741q.378,2,.771,3.907.767,3.735,1.581,7.115c1.468,6.1,3.018,11.346,4.54,15.88,1.619,4.814,3.207,8.818,4.626,12.167,1.84,4.345,3.4,7.591,4.367,10.077A12.419,12.419,0,0,1,984.554,4938.245Z" transform="translate(-819.261 -4490.349)" fill="#eaeaea"/>
      <path id="Trazado_596" data-name="Trazado 596" d="M1000.065,4971.127c-45.326-21.354-61.023-62.359-61.023-62.359s36.826,13.584,45.91,17.12q.767,3.737,1.58,7.115c1.468,6.1,3.018,11.346,4.54,15.88,1.619,4.814,3.207,8.819,4.626,12.168C997.538,4965.395,999.094,4968.642,1000.065,4971.127Z" transform="translate(-835.852 -4527.467)" fill="#c8d1ce"/>
      <path id="Trazado_597" data-name="Trazado 597" d="M1173.554,4719.979l-9.709-30.786a5.5,5.5,0,0,0-6.739-3.645h0l-.008,0c-.143.041-.285.09-.426.143l-3.4,1.137s-5.329,5.489-9.156,6.6c-11.759,3.4-22.92-2.865-27.21-14.329-4.772-12.751.764-26.755,13.583-30.8,4.385-1.383,13.017,1.194,13.017,1.194l3.465-1.151a3.76,3.76,0,0,0,2.5-4.735l-10.686-33.885a8.794,8.794,0,0,0-11.031-5.742l-31.553,9.95a4.117,4.117,0,0,1-5.3-4.575,23.6,23.6,0,0,0-35.587-23.831c-6.886,4.077-11.962,14.093-11.217,22.062a23.762,23.762,0,0,0,6.693,14.6,3.99,3.99,0,0,1-1.66,6.6l-31.749,10.013a8.789,8.789,0,0,0-5.739,11.025l34.871,110.574A8.587,8.587,0,0,0,1057.28,4766l110.452-34.833A8.917,8.917,0,0,0,1173.554,4719.979Z" transform="translate(-881.312 -4321.734)" fill="#fab4df"/>
      <path id="Trazado_598" data-name="Trazado 598" d="M1035.015,4610.612a23.764,23.764,0,0,0,6.694,14.6,3.99,3.99,0,0,1-1.661,6.594l-31.749,10.013a8.79,8.79,0,0,0-5.739,11.027l34.871,110.573a8.588,8.588,0,0,0,10.773,5.608l110.452-34.834a8.916,8.916,0,0,0,5.822-11.185l-9.709-30.785a5.49,5.49,0,0,0-9.206-2.146,23.574,23.574,0,1,1-9.909-38.728,3.762,3.762,0,0,0,4.739-4.711l-10.686-33.886a8.793,8.793,0,0,0-11.031-5.741l-31.553,9.951a4.118,4.118,0,0,1-5.305-4.575,23.6,23.6,0,0,0-35.586-23.831C1039.346,4592.628,1034.27,4602.644,1035.015,4610.612Z" transform="translate(-875.596 -4323.64)" fill="#fde9f5"/>
      <g id="Grupo_229" data-name="Grupo 229" transform="translate(97.109 369.046)">
        <path id="Trazado_599" data-name="Trazado 599" d="M1172.021,5043.351l3.917,1.437s7.843-5.546,12.726,3.474c0,0,1.767,3.939-1.029,4.795s-1.78.05-5.71,1.36-7.8.366-9.286-2.442l-2.662-1.954Z" transform="translate(-1078.398 -4981.112)" fill="#fab4df"/>
        <path id="Trazado_600" data-name="Trazado 600" d="M1019.464,4943.444c1.448-3.778,2.109-5.489,2.109-5.489s-29.6-24.124-32.611-26.193c-2.055-1.41-22.512-16.7-32.486-28.619a20.874,20.874,0,0,0-20.293-7.031l-6.212,1.3a9.239,9.239,0,0,0-4.12,16.057c16.39,14.051,44.033,30.348,49.187,33.737,12.8,8.415,41.1,20.206,41.1,20.206A7.284,7.284,0,0,0,1019.464,4943.444Z" transform="translate(-922.618 -4875.667)" fill="#eaeaea"/>
      </g>
      <path id="Trazado_601" data-name="Trazado 601" d="M962.236,4820.7c-9.462.531-15.616-7.281-15.616-7.281a75.377,75.377,0,0,0,6.611-4.114l8.116,4.122A67.376,67.376,0,0,1,962.236,4820.7Z" transform="translate(-840.624 -4464.825)" fill="#f590ce"/>
      <path id="Trazado_602" data-name="Trazado 602" d="M951.151,4772.777s-14.338,10.288-20.608,1.262-12.343-13.779-3.454-20.73,13.079-4.755,15.905-2.251S954.719,4769.868,951.151,4772.777Z" transform="translate(-825.508 -4426.622)" fill="#fab4df"/>
      <path id="Trazado_603" data-name="Trazado 603" d="M922.5,4723.1a23.082,23.082,0,0,0-1.671-5.912s-.9,3.727-7.711,3.212-17.607.67-21.205,8.432c-.229.493-.434,1-.615,1.522a17.962,17.962,0,0,1-.808-4.3c-1.294,3.341,0,7.522,0,7.522h0c-.019.121-.036.244-.053.366-1.5,1.271-2.766,5.221-2.766,5.221a4.731,4.731,0,0,1,2.546-2.263c-.03,6.04,2.419,11.944,6.718,13.7,6.287,2.57,6.236.609,12.559,4.8,0,0,1.7-2.1.539-3.518s-5.526-3.469-3.084-5.526,3.341.257,4.241-1.156-3.6-5.527,2.185-9.382S923.017,4726.567,922.5,4723.1Z" transform="translate(-803.501 -4406.813)" fill="#4e01d2"/>
      <path id="Trazado_604" data-name="Trazado 604" d="M1801.453,5368.925s-7.25-10.716-18.6-9.853c-3.448.263-9.052,1.1-15.561,2-4.91-17.131-18.441-57.853-36.691-60.145-18.639-2.342,17.835,42.946,32.751,60.676-2.72.357-5.545.708-8.4,1.018-7.9-8.432-21.658-20.923-33.149-19.963-11.52.961,10.047,12.872,25.614,20.663-9.551.716-18.607.637-24.142-1.5-13.554-5.24-26.01,7.109-26.01,7.109Z" transform="translate(-1313.364 -4774.383)" fill="#eaeaea"/>
    </g>
    <g id="RELOJ-ELEMENTO_AUX" data-name="RELOJ-ELEMENTO AUX" transform="translate(752.644 528)">
      <g id="Grupo_145" data-name="Grupo 145">
        <g id="Grupo_143" data-name="Grupo 143" transform="translate(0 64.825)">
          <path id="Trazado_344" data-name="Trazado 344" d="M2865.854,6077.807a27.433,27.433,0,1,0,27.428-27.438A27.425,27.425,0,0,0,2865.854,6077.807Z" transform="translate(-2865.854 -6050.368)" fill="#fff"/>
          <path id="Trazado_345" data-name="Trazado 345" d="M2899.32,6061.378a60.541,60.541,0,0,0-1.721,10.413,104.051,104.051,0,0,0-.391,10.414l2.112-2.113c-3.062.042-6.125.169-9.188.507a58.062,58.062,0,0,0-9.188,1.605,58.228,58.228,0,0,0,9.188,1.6c3.063.338,6.125.464,9.188.507l2.092.032.021-2.144a104.051,104.051,0,0,0-.391-10.414A60.325,60.325,0,0,0,2899.32,6061.378Z" transform="translate(-2871.882 -6054.766)" fill="#83e9d4"/>
        </g>
        <g id="Grupo_144" data-name="Grupo 144" transform="translate(99.003)">
          <path id="Trazado_346" data-name="Trazado 346" d="M3030.715,5942.421c1.806,1.415,21.936,25.41,21.936,25.41l78.418,6.031Z" transform="translate(-3030.715 -5942.421)" fill="#e9b4de"/>
          <path id="Trazado_347" data-name="Trazado 347" d="M3051.555,6016.521l9.421-31.769,78.407,6.02Z" transform="translate(-3039.04 -5959.331)" fill="#b95e89"/>
          <path id="Trazado_348" data-name="Trazado 348" d="M3051.555,6020.524l26.266-14.194,61.562-11.554Z" transform="translate(-3039.04 -5963.335)" fill="#cd99c2"/>
          <path id="Trazado_349" data-name="Trazado 349" d="M3095.293,6006.33l25.654,28.991,35.908-40.545Z" transform="translate(-3056.512 -5963.335)" fill="#e9b4de"/>
        </g>
        <path id="Trazado_350" data-name="Trazado 350" d="M3037.1,6191.3a23.983,23.983,0,0,0,1.384,3.306l-4.52,4.52,10.667,10.667,4.521-4.52a23.98,23.98,0,0,0,3.305,1.384v6.389h15.082v-6.389a24.033,24.033,0,0,0,3.306-1.384l4.52,4.52,10.667-10.667-4.521-4.52a23.954,23.954,0,0,0,1.384-3.306h6.39V6176.22h-6.39a23.9,23.9,0,0,0-1.384-3.306l4.521-4.52-10.667-10.667-4.52,4.52a24.155,24.155,0,0,0-3.306-1.384v-6.389h-15.082v6.389a24.1,24.1,0,0,0-3.305,1.384l-4.521-4.52-10.667,10.667,4.52,4.52a23.933,23.933,0,0,0-1.384,3.306h-6.389V6191.3Zm7.7-7.541a15.2,15.2,0,1,1,15.2,15.2A15.194,15.194,0,0,1,3044.8,6183.76Z" transform="translate(-2931.712 -6027.13)" fill="#00ebd5" style="isolation: isolate"/>
        <circle id="Elipse_23" data-name="Elipse 23" cx="10.318" cy="10.318" r="10.318" transform="translate(44.548 5.402)" fill="#b95e89"/>
        <path id="Trazado_351" data-name="Trazado 351" d="M2954.667,6195.359a11.85,11.85,0,1,0,11.85-11.851A11.846,11.846,0,0,0,2954.667,6195.359Z" transform="translate(-2901.333 -6038.729)" fill="#b95e89"/>
      </g>
    </g>
    <g id="AVION_TUERCAS" data-name="AVION+TUERCAS" transform="translate(1165.137 257)">
      <path id="Trazado_353" data-name="Trazado 353" d="M4233.352,6479.615a17.993,17.993,0,0,0,1.542-2.26l4.781,1.01,2.381-11.275-4.781-1.01a18.8,18.8,0,0,0-.494-2.691l4.088-2.66-6.291-9.656-4.089,2.66a17.968,17.968,0,0,0-2.26-1.543l1.009-4.78-11.274-2.381-1.01,4.78a18.756,18.756,0,0,0-2.691.5l-2.668-4.089-9.655,6.292,2.666,4.089a17.787,17.787,0,0,0-1.542,2.26l-4.781-1.009-2.381,11.275,4.781,1.009a18.575,18.575,0,0,0,.5,2.692l-4.089,2.666,6.291,9.656,4.089-2.66a17.837,17.837,0,0,0,2.261,1.543l-1.01,4.781,11.275,2.38,1.009-4.78a18.955,18.955,0,0,0,2.692-.5l2.66,4.088,9.656-6.291Zm-8.038-1.783a11.612,11.612,0,1,1,3.391-16.068A11.617,11.617,0,0,1,4225.313,6477.832Zm-38.561-34.8a11.978,11.978,0,0,0,.971-1.422l3.009.636,1.5-7.093-3.009-.635a11.952,11.952,0,0,0-.312-1.694l2.571-1.677-3.955-6.075-2.571,1.676a11.324,11.324,0,0,0-1.422-.972l.635-3.009-7.091-1.5-.635,3.009a12.1,12.1,0,0,0-1.7.311l-1.676-2.57L4167,6425.97l1.676,2.57a11.471,11.471,0,0,0-.971,1.423l-3.01-.635-1.5,7.092,3.009.634a12.145,12.145,0,0,0,.312,1.7l-2.571,1.676,3.955,6.069,2.571-1.677a11.362,11.362,0,0,0,1.422.972l-.635,3.01,7.092,1.5.634-3.008a12.119,12.119,0,0,0,1.7-.312l1.676,2.571,6.069-3.956Zm-5.055-1.123a7.3,7.3,0,1,1,2.133-10.1A7.3,7.3,0,0,1,4181.7,6441.905Z" transform="translate(-4163.192 -6378.165)" fill="#00ebd5" style="isolation: isolate"/>
      <g id="Grupo_149" data-name="Grupo 149" transform="translate(4.952)">
        <path id="Trazado_354" data-name="Trazado 354" d="M4236.2,6303.531c-1.276-.241-42.74-1.663-42.74-1.663l-1.879,6.114Z" transform="translate(-4186.282 -6301.868)" fill="#e9b4de"/>
        <path id="Trazado_355" data-name="Trazado 355" d="M4191.577,6310.927l5.562,17.065,39.057-21.516Z" transform="translate(-4186.282 -6304.813)" fill="#b95e89"/>
        <path id="Trazado_356" data-name="Trazado 356" d="M4192.486,6327.992l39.057-21.516-47.247,11.51Z" transform="translate(-4181.629 -6304.813)" fill="#cd99c2"/>
        <path id="Trazado_357" data-name="Trazado 357" d="M4179.577,6317.986l47.246-11.51-49.913,22.15Z" transform="translate(-4176.91 -6304.813)" fill="#e9b4de"/>
      </g>
      <path id="Trazado_358" data-name="Trazado 358" d="M4227,6659.774a5.238,5.238,0,1,0,5.238-5.237A5.238,5.238,0,0,0,4227,6659.774Z" transform="translate(-4203.964 -6527.227)" fill="#b95e89"/>
    </g>
    <g id="TUERCA-ELEMENTO_AUX" data-name="TUERCA-ELEMENTO AUX" transform="translate(1520 288.101)">
      <path id="Trazado_342" data-name="Trazado 342" d="M2114.209,5766.908a19.12,19.12,0,0,0-.523,2.783l-4.948,1.021,2.408,11.666,4.948-1.021a20.807,20.807,0,0,0,1.579,2.347l-2.775,4.215,9.948,6.544,2.774-4.215a19.08,19.08,0,0,0,2.784.523l1.021,4.948,11.667-2.409-1.021-4.948a20.855,20.855,0,0,0,2.347-1.579l4.215,2.774,6.544-9.948-4.215-2.774a19.068,19.068,0,0,0,.523-2.784l4.948-1.02-2.408-11.667-4.948,1.021a20.826,20.826,0,0,0-1.58-2.347l2.775-4.214-9.948-6.544-2.775,4.214a19.068,19.068,0,0,0-2.784-.523l-1.021-4.948-11.667,2.409,1.021,4.948a20.837,20.837,0,0,0-2.347,1.58l-4.215-2.775-6.544,9.947Zm8.351-1.641a12,12,0,1,1,3.429,16.623A12,12,0,0,1,2122.56,5765.268Zm50.916,17.024a12,12,0,0,0-.331,1.745l-3.107.646,1.509,7.339,3.107-.646a11.773,11.773,0,0,0,.995,1.475l-1.745,2.652,6.256,4.119,1.746-2.653a12.094,12.094,0,0,0,1.745.332l.646,3.106,7.339-1.51-.646-3.106a11.739,11.739,0,0,0,1.475-1l2.653,1.746,4.119-6.257-2.653-1.745a12.074,12.074,0,0,0,.331-1.746l3.107-.646-1.51-7.339-3.106.646a11.782,11.782,0,0,0-.995-1.475l1.746-2.652-6.257-4.119-1.745,2.653a11.977,11.977,0,0,0-1.746-.332l-.646-3.107-7.338,1.51.646,3.115a11.75,11.75,0,0,0-1.475.995l-2.653-1.745-4.119,6.257Zm5.253-1.03a7.547,7.547,0,1,1,2.156,10.454A7.544,7.544,0,0,1,2178.729,5781.262Z" transform="translate(-2108.738 -5748.024)" fill="#e9c732"/>
      <path id="Trazado_343" data-name="Trazado 343" d="M2137.985,5911.63a9.791,9.791,0,1,0,9.791-9.791A9.787,9.787,0,0,0,2137.985,5911.63Z" transform="translate(-2123.474 -5825.521)" fill="#b95e89"/>
    </g>
  </g>
</svg>
