<svg xmlns="http://www.w3.org/2000/svg" width="268.322" height="438.978" viewBox="0 0 268.322 438.978">
  <g id="Grupo_804" data-name="Grupo 804" transform="translate(-137.576 -1199)">
    <text id="_1" data-name="1" transform="translate(300 1354)" fill="#d2d9e0" font-size="207" font-family="FivoSans-Heavy, Fivo Sans" font-weight="800" opacity="0.315"><tspan x="-38.295" y="0">1</tspan></text>
    <g id="Grupo_217" data-name="Grupo 217" transform="translate(-131.28 672.328)">
      <path id="Trazado_531" data-name="Trazado 531" d="M289.292,965.65c-7.75-2.654-12.537-8.944-17.514-14.8-4.1-4.816-3.722-12.473.105-17.578a29.988,29.988,0,0,1,2.782-3.128q27.491-27.535,55.005-55.043c5.9-5.9,11.317-5.913,17.183-.006,1.036,1.047,1.893,2.27,2.926,3.52l7.616-8.359c-2.4-3.093-5.284-6.583-7.92-10.252a98.546,98.546,0,0,1-17.318-41.678c-4.111-24.463-.231-47.682,12.221-69.178,13.974-24.12,34.486-40.174,61.31-47.925a100.505,100.505,0,0,1,52.018-1.082c1.87.445,3.236.456,4.918-.98a9.46,9.46,0,0,1,5.536-1.8c6.893-.2,13.8-.12,20.694-.067,5.3.041,8.5,3.189,8.608,8.45.079,3.754-.108,7.516.1,11.261a5.361,5.361,0,0,0,1.589,3.482c21.531,17.941,33.892,40.841,37.374,68.6.214,1.718.436,3.432.655,5.15v11.007c-.328,2.759-.606,5.524-.992,8.271-4.933,35.116-23.108,61.181-53.981,78.35-11.162,6.206-23.348,9.6-36,11.279a4.086,4.086,0,0,1-4.816-3.376c-.287-2.06,1.173-3.777,3.6-4.386,7.932-1.983,16.127-3.277,23.728-6.147,20.469-7.721,36.216-21.408,47.333-40.25,10.629-18.017,14.682-37.582,12.669-58.343a91.552,91.552,0,0,0-18.98-47.758c-3.529-4.588-7.633-8.736-11.475-13.084l-.746.392c0,4.143-.082,8.292.067,12.432.029.81.875,1.659,1.483,2.37a83.943,83.943,0,0,1,18.708,38.114c4.023,19.77,1.685,38.828-7.613,56.714-10.591,20.372-26.736,34.9-48.653,42.082-27.769,9.1-53.993,5.19-77.87-11.785-18.058-12.839-29.571-30.437-33.74-52.135-6.089-31.678,2.844-58.981,26.593-80.922,15.817-14.612,34.881-21.838,56.424-22.257a82.014,82.014,0,0,1,23.3,3.008c.9.249,1.814.471,3.081.8,0-3.157.108-6.021-.088-8.865-.041-.579-1.141-1.375-1.884-1.568a89.923,89.923,0,0,0-39.7-1.615c-30.461,5.729-53.291,22.224-68.1,49.408a89.016,89.016,0,0,0-9.556,60.637c7.511,39.208,31.06,64.373,69.066,76.036,4.877,1.5,10.1,1.881,15.159,2.768,1.033.181,2.083.249,3.107.457,2.434.5,3.795,2.262,3.47,4.415a4.038,4.038,0,0,1-4.608,3.318,109.292,109.292,0,0,1-27.043-5.77,103.241,103.241,0,0,1-34.194-20.355c-.383-.342-.808-.638-1.205-.954L356,884.6c1.156,1.044,2.639,2.262,3.976,3.625,4.766,4.86,4.822,10.676.035,15.515-8.906,9-17.894,17.927-26.85,26.883-9.509,9.514-19.067,18.98-28.5,28.568a26.005,26.005,0,0,1-9.605,6.46ZM497.486,845.239c9.635-12.578,15.794-32.187,13.98-52.059-1.346-14.737-8.666-31.549-13.959-36.549,0,10.41.006,20.7-.006,30.993a33.8,33.8,0,0,1-.152,4.184,3.8,3.8,0,0,1-7.429.372,15.447,15.447,0,0,1-.3-3.37q-.013-40.222.006-80.448v-3.116H467.374V870.986a78.363,78.363,0,0,0,20.413-14.012,5.274,5.274,0,0,0,1.876-4.286c-.073-13.625-.044-27.254-.038-40.879,0-4.275,1.223-6.124,4.008-6.1,2.753.02,3.85,1.776,3.853,6.179q0,6.684,0,13.365Zm-129.133-3.414v-2.507q0-21.742.009-43.486c.012-5.922,3.11-9.023,9.047-9.073,6.109-.05,12.221-.009,18.333-.026.924,0,1.846-.108,2.964-.176,0-7.18-.05-14.07.018-20.96.053-5.43,3.242-8.593,8.666-8.643,6.2-.058,12.4-.014,18.6-.032.922,0,1.843-.088,3.017-.146v-3.087c.009-6.024-.07-12.051.047-18.076.1-5.281,3.356-8.409,8.6-8.482,2.879-.044,5.761-.012,8.643-.012h11.536c-23.781-9.011-60.1-5.012-83.675,23.553C351.512,778.1,350.36,815.223,368.353,841.824ZM437.075,735.1V879.228c6.7-1.363,13.064-2.706,19.445-3.929,2.2-.421,2.829-1.495,2.826-3.742q-.092-66.787-.032-133.571c0-.927-.082-1.855-.132-2.885Zm-30.528,29.858v2.888q0,50.413,0,100.826c0,5.149-.012,5.231,4.848,6.679a64.717,64.717,0,0,0,17.473,3V764.958Zm-7.982,29.834H376.423a5.83,5.83,0,0,0-.184.942q-.018,28.031.018,56.055a3.438,3.438,0,0,0,.936,2.259c3.236,3.046,6.41,6.2,9.924,8.9,3.476,2.671,7.329,4.854,11.449,7.531ZM308.986,907.1c.067-.024-.132-.006-.24.1-9.953,9.933-19.942,19.828-29.817,29.834-3.04,3.081-2.943,7.165.02,10.346,2.44,2.619,5.027,5.1,7.569,7.622,3.7,3.663,7.455,3.663,11.162-.026q8.545-8.5,17.049-17.037c4.26-4.254,8.52-8.505,12.549-12.525Zm17.359-17.617c6.214,6.317,12.18,12.376,18.316,18.611,3.268-3.3,6.639-6.694,10-10.1,1.372-1.39,1.243-2.774-.091-4.108q-7.123-7.123-14.252-14.237c-1.375-1.372-2.718-1.349-4.087.018C332.837,883.052,329.428,886.425,326.345,889.485Zm11.762,24.872c-6.089-6.159-12.072-12.209-17.85-18.049l-4.956,4.535,18.119,18.33Z" transform="translate(0 0)" fill="#ff7171"/>
    </g>
  </g>
</svg>
