<svg xmlns="http://www.w3.org/2000/svg" xmlns:xlink="http://www.w3.org/1999/xlink" width="667.716" height="440.265" viewBox="0 0 667.716 440.265">
  <defs>
    <linearGradient id="linear-gradient" y1="0.5" x2="1" y2="0.5" gradientUnits="objectBoundingBox">
      <stop offset="0" stop-color="#740646"/>
      <stop offset="1" stop-color="#eb3668"/>
    </linearGradient>
    <linearGradient id="linear-gradient-5" y1="0.5" x2="1" y2="0.5" gradientUnits="objectBoundingBox">
      <stop offset="0" stop-color="#f9795a"/>
      <stop offset="1" stop-color="#d90452"/>
    </linearGradient>
  </defs>
  <g id="Grupo_785" data-name="Grupo 785" transform="translate(-1195.798 -62.141)">
    <g id="Grupo_286" data-name="Grupo 286" transform="translate(430.321 -320.997)">
      <path id="Trazado_675" data-name="Trazado 675" d="M1042.291,564.77l-8.821-.2c2.834,3.673,3.47,7.056,1.706,9.919-1.764,2.921-5.986,5.321-12.291,7.143a114.005,114.005,0,0,0-151.1-144.8c-1.677.723-3.354,1.475-4.974,2.255l-.015.007c-4.9-1.495-9.671-2.72-14.276-3.653-23.242-4.717-39.737-1.457-46.436,9.179-6.376,10.115-2.9,25.342,9.747,43.1l0,.009c-1.706,3.152-3.239,6.391-4.656,9.746-1.07,2.516-2.024,5.032-2.892,7.606-23.772,1.417-36.5,5.6-41.123,13.178-5.379,8.821,1.966,20.658,25.478,32.168,3.239,1.59,6.709,3.152,10.353,4.714a111.385,111.385,0,0,0,8.184,31,113.947,113.947,0,0,0,209.464,1.07c11.6-2.4,19.231-6.16,22.268-11.134C1045.009,572.635,1044.749,568.818,1042.291,564.77Zm-27.214,18.653a175.671,175.671,0,0,1-28.6,2.313,419.027,419.027,0,0,1-58.632-3.95q2.666-5.8,5.22-11.914a161.257,161.257,0,0,0,18.987,5.161,96.167,96.167,0,0,0,18.958,2.108c13.273,0,22.782-3.832,27.478-11.287a19.489,19.489,0,0,0,1.889-3.905h-6.766c-.112.206-.231.409-.356.608-3.488,5.538-11.284,8.4-22.23,8.4a90.275,90.275,0,0,1-17.745-1.983,154.6,154.6,0,0,1-17.87-4.833q2.444-6.114,4.743-12.448c4.124-11.372,7.655-22.645,10.511-33.47A287.409,287.409,0,0,0,992.5,521.1q13.864,0,28.725-1.12a107.889,107.889,0,0,1,2.213,21.826A106.632,106.632,0,0,1,1015.077,583.423ZM874.115,639.9c-3.29-1.193-4.961-5.917-5.783-9.669-1.3-5.93-1.534-14.258-.679-24.085.432-4.97,1.127-10.253,2.062-15.781a293.011,293.011,0,0,1,39.852,13.789c-2.93,5.051-5.892,9.735-8.854,13.982-5.644,8.09-11.163,14.332-15.961,18.05C881.715,638.535,877.406,641.088,874.115,639.9Zm38.431-41.034A299.154,299.154,0,0,0,870.8,584.405q.747-3.848,1.638-7.825,5.9,1.341,11.954,2.592c11.813,2.416,23.6,4.467,35.133,6.127Q916.1,592.389,912.546,598.862Zm-25.552-23.971q-6.846-1.409-13.483-2.94c2.081-8.659,4.638-17.687,7.622-26.885a263.831,263.831,0,0,0,46.23,22.8q-2.811,6.711-5.765,13.059C910.251,579.3,898.642,577.279,886.994,574.892ZM849.1,458a70.863,70.863,0,0,0,4.194,7.379c7.843,12.121,18.2,20.907,25.51,26.144a125.027,125.027,0,0,0,13.423,8.357c-4.333,9.441-8.459,19.517-12.254,29.979q-1.061,2.926-2.068,5.841c-22.664-14.753-41.853-31.681-54.44-48.064l-.005-.007A107.741,107.741,0,0,1,834.274,472.4c1.677-1.967,3.412-3.875,5.234-5.726l.752-.752A108.3,108.3,0,0,1,849.1,458Zm96.911-16.348c3.29,1.193,4.961,5.917,5.783,9.668,1.3,5.93,1.534,14.258.679,24.085a240.316,240.316,0,0,1-6.3,35.982q-5.807-1-11.335-2.266a162.973,162.973,0,0,1-34.679-11.956,244.786,244.786,0,0,1,19.25-33.751c5.643-8.09,11.163-14.331,15.961-18.049,2.5-1.94,5.872-4.017,8.822-4.017A5.283,5.283,0,0,1,946.014,441.656ZM933.08,514.911q5.655,1.313,11.6,2.341c-2.782,10.468-6.209,21.37-10.2,32.378q-2.308,6.365-4.771,12.514a258.343,258.343,0,0,1-46.565-23.11q1.214-3.546,2.506-7.114c3.709-10.227,7.735-20.07,11.957-29.288A168.744,168.744,0,0,0,933.08,514.911ZM992,465.923a106.9,106.9,0,0,1,27.818,48.109c-24.734,1.809-47.4,1.241-67.659-1.691a245.505,245.505,0,0,0,6.329-36.408c1.049-12.053.921-26.33-3.966-34.364q1.7.653,3.383,1.364A106.527,106.527,0,0,1,992,465.923Zm-75.855-31.435a107.481,107.481,0,0,1,21.891,2.232c-8.429,3.669-17.036,13.881-23.569,23.246A250.625,250.625,0,0,0,894.8,494.41a119.115,119.115,0,0,1-12.059-7.49c-17.934-12.724-25.837-26.442-28.71-32.639a107.3,107.3,0,0,1,13.86-8.362h0q2.955-1.491,6.016-2.8c.148-.063.3-.129.444-.191l.1-.044q.652-.275,1.309-.539l.352-.14A106.577,106.577,0,0,1,916.144,434.488ZM811.313,447.917c3.489-5.538,11.284-8.4,22.23-8.4a90.272,90.272,0,0,1,17.745,1.983q3.73.755,7.61,1.777l.007,0a112,112,0,0,0-23.331,17.984c-1.475,1.446-2.892,2.95-4.28,4.511-1.735,1.909-3.384,3.9-4.974,5.929a114.78,114.78,0,0,0-7.056,10.093l-.005.009C809.586,467.447,806.678,455.269,811.313,447.917Zm5.926,52.131c.955-2.2,1.938-4.367,3.008-6.478l0-.005c13.255,16.567,32.791,33.5,55.617,48.191-3.237,9.851-6,19.532-8.227,28.81a441.311,441.311,0,0,1-45.484-13.43c-2.834-1.012-5.582-2.053-8.213-3.095-1.562-.607-3.094-1.243-4.6-1.879-.232-2.314-.4-4.656-.463-7-.029-1.128-.058-2.226-.058-3.354,0-1.3.029-2.632.058-3.933a108.538,108.538,0,0,1,4.916-28.457c.491-1.561,1.012-3.094,1.591-4.627C815.968,503.2,816.575,501.61,817.24,500.048Zm-19.347,46.965c-20.5-10.006-29.874-19.665-25.68-26.519,3.383-5.553,15.7-9.312,34.559-10.7a110.775,110.775,0,0,0-4.28,24.061c-.174,2.429-.26,4.858-.289,7.317v.636c0,2.458.087,4.916.232,7.345C800.871,548.459,799.368,547.736,797.893,547.013ZM813.451,559.3c2.776,1.041,5.61,2.082,8.531,3.095,13.427,4.653,28.478,8.977,44.578,12.813q-.877,3.913-1.619,7.71-1.974-.479-3.95-.932a239.87,239.87,0,0,0-46.7-6.271A104.859,104.859,0,0,1,810.068,558Zm3.788,24.263q-.362-.861-.708-1.726a241.644,241.644,0,0,1,43.121,6.034c1.4.319,2.8.652,4.195.993-1.006,5.87-1.749,11.48-2.207,16.752-.869,9.986-.93,21.5,1.853,29.724a107.877,107.877,0,0,1-46.254-51.777ZM957.9,640.683a107.68,107.68,0,0,1-74.3,3.424c7.938-4.161,15.914-13.716,22.056-22.521,3.168-4.541,6.334-9.567,9.459-14.991A303.28,303.28,0,0,1,966.74,636.46Q962.434,638.761,957.9,640.683ZM992,617.692a106.493,106.493,0,0,1-19.528,15.47,309.6,309.6,0,0,0-54.389-31.85c2.617-4.795,5.2-9.859,7.714-15.146a463.617,463.617,0,0,0,49.46,4.052c3.991.116,7.866.116,11.626.086a206.91,206.91,0,0,0,25.854-1.735A106.61,106.61,0,0,1,992,617.692Z" transform="translate(0 -28.063)" fill="#ff7171"/>
      <path id="Trazado_676" data-name="Trazado 676" d="M1379.92,1181.3c-2.43-9.425-18.857-2.126-32.386,5.784q-.946-1.5-1.957-2.961c9.685-6.008,23.286-16,18.109-22.082-5.114-6.007-15.108,7.595-21.359,17.626-16.747-21.735-41.581-37.205-41.581-37.205s103.638-86.111,26.194-131.539-136.279,114.418-136.279,114.418-52.919-49-103.448-30.906c-51.891,18.586-19.463,53.03-64.525,62.345-5.306-20.314-15.113-48.962-28.524-50.642-17.711-2.219-10.259,19.948,16.653,52.33-5.216.468-11.159.707-17.95.687-72.276-.215-53.729,51.824-53.729,51.824l417.879.964a51.488,51.488,0,0,0-4.2-15.031C1367.129,1194.663,1382.208,1190.176,1379.92,1181.3Z" transform="translate(-107.551 -388.539)" fill="#4e01d4"/>
      <path id="Trazado_677" data-name="Trazado 677" d="M1513.95,941.786l-18.223,216.679s-1.909,13.134,7.861,13.158c16.064.038,79.955,0,79.955,0s-12.09-2.734-11.944-8.886c.173-7.251,21.3-223,21.3-223Z" transform="translate(-457.788 -348.999)" fill="#f24b46"/>
      <path id="Trazado_678" data-name="Trazado 678" d="M1597.555,1161.082c-3.159.01-64.184.2-79.827,0-6.818-.085-8.013-6.061-8.07-9.93a19.4,19.4,0,0,1,.207-3.225l.473-5.632,1.208-14.354,1.067-12.682,1.371-16.3,1.155-13.755,12.948-153.966,78.949-2.049s-8.9,90.291-15.192,156.014c-.7,7.323-1.371,14.345-1.989,20.9q-.3,3.14-.581,6.131c-.584,6.218-1.117,11.928-1.581,16.97-.245,2.658-.471,5.127-.675,7.389-.8,8.864-1.273,14.523-1.28,15.6a9.142,9.142,0,0,0,.154,1.754C1587.189,1160.856,1596.369,1161.082,1597.555,1161.082Z" transform="translate(-466.617 -342.389)" fill="#ff7171"/>
      <path id="Trazado_679" data-name="Trazado 679" d="M1030.787,629.1l44.389,178.3,6.078,24.419,20.674,83.047H1486.02l-76.2-285.766Z" transform="translate(-166.356 -154.226)" fill="#e25252"/>
      <path id="Trazado_680" data-name="Trazado 680" d="M1020.444,629.1l-6.152,2.051,69.115,289.919,8.179-6.2Z" transform="translate(-156.012 -154.225)" fill="#e86262"/>
      <path id="Trazado_681" data-name="Trazado 681" d="M1199.6,1401.485h381.728l10.541-6.2h-384.09Z" transform="translate(-272.203 -634.638)" fill="#ff7171"/>
      <rect id="Rectángulo_165" data-name="Rectángulo 165" width="82.65" height="3.927" transform="translate(1061.446 818.78)" fill="#f24b46"/>
      <path id="Trazado_682" data-name="Trazado 682" d="M1592.881,1411.908l-.427,3-77.728,15.7,1.067-12.681.508-6.024Z" transform="translate(-469.796 -645.062)" fill="#f24b46"/>
      <path id="Trazado_683" data-name="Trazado 683" d="M1597.559,1509.753c-3.16.01-64.184.2-79.827,0-6.818-.085-8.013-6.061-8.07-9.93l77.361-14.555c-.8,8.863-1.273,14.523-1.28,15.6a9.139,9.139,0,0,0,.154,1.754C1587.193,1509.527,1596.373,1509.753,1597.559,1509.753Z" transform="translate(-466.621 -691.06)" fill="#e25252"/>
      <path id="Trazado_684" data-name="Trazado 684" d="M1355.494,1197.817l-168.725,57.851-20.675-83.048Z" transform="translate(-251.196 -495.023)" fill="#ff7171"/>
      <path id="Trazado_685" data-name="Trazado 685" d="M1030.786,629.1h379.031l61.5,229.666H1087.961Z" transform="translate(-166.354 -154.225)" fill="#b1c9f6"/>
      <path id="Trazado_686" data-name="Trazado 686" d="M1729.11,1305.565a12.989,12.989,0,0,0-12.181-10.2c-5.633,0-9.311,4.566-8.216,10.2a12.989,12.989,0,0,0,12.181,10.2C1726.527,1315.763,1730.206,1311.2,1729.11,1305.565Z" transform="translate(-591.31 -571.987)" fill="#ff7171"/>
      <path id="Trazado_687" data-name="Trazado 687" d="M1479.835,869.5H1124.946l-40.19-160.1-3.081-12.278-2.63-10.473-6.164-24.556h349.773l6.769,24.556,2.887,10.473,3.385,12.278Z" transform="translate(-192.75 -174.907)" fill="#242e6c"/>
      <path id="Trazado_688" data-name="Trazado 688" d="M1429.424,686.643H1079.045l-6.164-24.556h349.773Z" transform="translate(-192.75 -174.907)" fill="#1b2251"/>
      <g id="Grupo_274" data-name="Grupo 274" transform="translate(894.507 495.208)">
        <path id="Trazado_689" data-name="Trazado 689" d="M1113.822,683.611a2.319,2.319,0,0,0-2.3,3.07,4.193,4.193,0,0,0,3.835,3.07,2.319,2.319,0,0,0,2.3-3.07A4.193,4.193,0,0,0,1113.822,683.611Z" transform="translate(-1111.423 -683.611)" fill="#cba4e3"/>
        <path id="Trazado_690" data-name="Trazado 690" d="M1141.169,683.611a2.319,2.319,0,0,0-2.3,3.07,4.194,4.194,0,0,0,3.835,3.07,2.319,2.319,0,0,0,2.3-3.07A4.193,4.193,0,0,0,1141.169,683.611Z" transform="translate(-1128.57 -683.611)" fill="#cba4e3"/>
        <path id="Trazado_691" data-name="Trazado 691" d="M1174.45,686.681a4.193,4.193,0,0,0-3.835-3.07,2.319,2.319,0,0,0-2.3,3.07,4.193,4.193,0,0,0,3.835,3.07A2.319,2.319,0,0,0,1174.45,686.681Z" transform="translate(-1147.034 -683.611)" fill="#cba4e3"/>
      </g>
      <g id="Grupo_279" data-name="Grupo 279" transform="translate(1267.661 383.138)">
        <g id="Grupo_276" data-name="Grupo 276" transform="translate(17.474 0)">
          <path id="Trazado_692" data-name="Trazado 692" d="M2293.186,430.022c-1.124,25.964-7.163,57.746-26.366,83.316q-1.058,1.408-2.128,2.789-3.231,4.175-6.571,8.114a7.257,7.257,0,0,1-9.888,1.09L2163,461.319a6.627,6.627,0,0,1-1.563-8.951q3-4.554,6.283-9.064,1.029-1.414,2.087-2.821c19.2-25.57,48.041-40.23,72.662-48.55a233.051,233.051,0,0,1,33.435-8.549,15.213,15.213,0,0,1,4.149-.174,13.347,13.347,0,0,1,5.52,1.782,13.643,13.643,0,0,1,6.5,10.539A232.757,232.757,0,0,1,2293.186,430.022Z" transform="translate(-2159.747 -383.139)" fill="#d90452"/>
          <path id="Trazado_693" data-name="Trazado 693" d="M2166.659,544.657q-3.732,5.122-7.094,10.3a5.1,5.1,0,0,0,1.221,6.849l87.393,65.631a5.93,5.93,0,0,0,8.065-.888q3.758-4.385,7.386-9.07Z" transform="translate(-2158.745 -484.414)" fill="#4e01d4"/>
          <g id="Grupo_275" data-name="Grupo 275" transform="translate(57.861 34.425)">
            <path id="Trazado_694" data-name="Trazado 694" d="M2339.679,527.149a25.854,25.854,0,0,1-20.617-41.379h0a25.85,25.85,0,1,1,24.311,41.116A26.222,26.222,0,0,1,2339.679,527.149Zm.1-45.7a20.142,20.142,0,0,0-2.835.2,19.713,19.713,0,0,0-13.073,7.73h0a19.834,19.834,0,1,0,15.909-7.931Z" transform="translate(-2313.877 -475.438)" fill="#dfdcf7"/>
          </g>
          <path id="Trazado_695" data-name="Trazado 695" d="M2440.4,391.1a14.662,14.662,0,0,0-1.953-5.989,13.349,13.349,0,0,0-5.52-1.782c.014.113.028.226.041.34a232.824,232.824,0,0,1,1.112,34.49c-1.127,25.964-7.166,57.747-26.369,83.316q-1.055,1.41-2.128,2.791-.712.92-1.431,1.828l8.339,6.275c.174-.224.35-.445.524-.67q1.07-1.383,2.127-2.791c19.2-25.57,25.242-57.352,26.368-83.316A233.027,233.027,0,0,0,2440.4,391.1Z" transform="translate(-2312.622 -383.256)" fill="#efecea" opacity="0.78"/>
          <path id="Trazado_696" data-name="Trazado 696" d="M2430.139,395.53a13.418,13.418,0,0,0-16.174-12.147,232.971,232.971,0,0,0-33.435,8.549l50.72,38.09A232.9,232.9,0,0,0,2430.139,395.53Z" transform="translate(-2297.81 -383.138)" fill="#4e01d4"/>
        </g>
        <g id="Grupo_277" data-name="Grupo 277" transform="translate(0 93.018)">
          <path id="Trazado_697" data-name="Trazado 697" d="M2144.379,634.763c-8.311-5.52-21.392-.443-29.219,11.34s.877,31.33.877,31.33,21.393.443,29.219-11.34S2152.689,640.283,2144.379,634.763Z" transform="translate(-2111.895 -632.532)" fill="#f24b46"/>
          <path id="Trazado_698" data-name="Trazado 698" d="M2269.638,726.771c-8.31-5.52-21.392-.443-29.218,11.34s.877,31.33.877,31.33,21.392.443,29.219-11.34S2277.949,732.291,2269.638,726.771Z" transform="translate(-2190.436 -690.223)" fill="#f24b46"/>
        </g>
        <g id="Grupo_278" data-name="Grupo 278" transform="translate(1.229 106.921)">
          <path id="Trazado_699" data-name="Trazado 699" d="M2137.611,671.346c-5.736-3.81-14.765-.305-20.167,7.827s.606,21.624.606,21.624,14.766.306,20.167-7.827S2143.347,675.156,2137.611,671.346Z" transform="translate(-2115.191 -669.806)" fill="#fd8857"/>
          <path id="Trazado_700" data-name="Trazado 700" d="M2263.134,763.25c-5.736-3.81-14.765-.305-20.167,7.827s.606,21.624.606,21.624,14.765.306,20.167-7.827S2268.87,767.06,2263.134,763.25Z" transform="translate(-2193.896 -727.432)" fill="#fd8857"/>
        </g>
        <path id="Trazado_701" data-name="Trazado 701" d="M2352.113,571.28l26.8-4.737a17.481,17.481,0,0,1-26.8,4.737Z" transform="translate(-2262.517 -498.137)" fill="#eb3668"/>
        <path id="Trazado_702" data-name="Trazado 702" d="M2371,513.962l-33.944,6.429A17.48,17.48,0,1,1,2371,513.962Z" transform="translate(-2252.45 -454.574)" fill="#eb3668"/>
      </g>
      <path id="Trazado_703" data-name="Trazado 703" d="M2529.53,1164.943l1.685,2.73c.875,1.006,1.109,1.567,1.8,1.908a8.58,8.58,0,0,1,5,7.376s-.053,2.512-1.737,1.7-.949-.738-3.343-1.835-3.281-4.586-3.491-5.776l-1.953-2.564Z" transform="translate(-1104.822 -490.209)" fill="#fab4df"/>
      <path id="Trazado_704" data-name="Trazado 704" d="M2354.774,1516.364a2.3,2.3,0,0,1-1.5,2,.017.017,0,0,1-.013,0c-1.6.7-4.282.542-7.182.151-.371-.049-.705-.09-1-.117-.079-.007-.158-.014-.234-.019l-.18-.014c-2.887-.19-2.661.7-8.177.672-6.289-.033-8.415-2.151-8.7-3.054-.243-.766,2.511-1.36,5.589-2.044.149-.033.3-.068.45-.1.409-.091.822-.186,1.231-.279,3.67-.861,7.3-1.948,8.506-5.474,1.274-3.739.973-14.835.973-14.835h11.137s-2.924,12.258-2.617,15.791c.167,1.886,1.068,2.423,1.416,4.057.025.115.048.229.069.344A10.986,10.986,0,0,1,2354.774,1516.364Z" transform="translate(-979.588 -696.066)" fill="#fab4df"/>
      <g id="Grupo_280" data-name="Grupo 280" transform="translate(1358.579 660.308)">
        <path id="Trazado_705" data-name="Trazado 705" d="M2385.224,1166.325c-.94,5.277-2.281,10.729-3.446,16.4-1.871,9.119-3.283,18.806-1.837,29.236a36.375,36.375,0,0,1,.307,4.417c.281,18.436-7.957,51.845-7.957,51.845a14.544,14.544,0,0,1-5.987.78,19.018,19.018,0,0,1-4.893-1.341s-.78-20.714-.827-48.571c-.034-20.193-4-46.78-4.8-62.4a200.168,200.168,0,0,1,.568-22.05s16.42-13.2,22.318-6.448C2384.5,1134.865,2388.741,1146.587,2385.224,1166.325Z" transform="translate(-2355.658 -1126.265)" fill="#ff7171"/>
      </g>
      <path id="Trazado_706" data-name="Trazado 706" d="M2396.035,1268.188a36.424,36.424,0,0,1,.307,4.417c-12.3-17.816-15.017-56.668-15.017-56.668l13.507,6.555s1.48,7.285,3.04,16.459C2396,1248.071,2394.589,1257.757,2396.035,1268.188Z" transform="translate(-1013.173 -522.183)" fill="#e25252"/>
      <path id="Trazado_707" data-name="Trazado 707" d="M2450.024,1515.2a2.3,2.3,0,0,1-1.5,2,.018.018,0,0,1-.013,0c-1.6.7-4.283.542-7.182.151-.371-.049-.7-.089-1-.117-.079-.007-.158-.014-.234-.019l-.18-.013c-2.887-.19-2.661.7-8.177.672-6.289-.033-8.415-2.151-8.7-3.054-.242-.766,2.511-1.36,5.59-2.044.149-.032.3-.068.449-.1.41-.091.822-.186,1.232-.279,3.669-.861,7.3-1.948,8.505-5.474,1.275-3.739-.547-14.664-.547-14.664l10.317-.862s-.64,12.449-.334,15.981c.166,1.886,1.124,2.924,1.472,4.558q.038.172.068.343A10.956,10.956,0,0,1,2450.024,1515.2Z" transform="translate(-1039.312 -694.903)" fill="#fab4df"/>
      <path id="Trazado_708" data-name="Trazado 708" d="M2417.81,1292.091a25.062,25.062,0,0,1-4.562,1.637c-1.909.382-5.877-.364-5.877-.364a269.061,269.061,0,0,0-5.608-34.721,324.892,324.892,0,0,0-16.785-53.193c-1.63-3.851-8.352-22.082-9.492-26.682-3.45-13.9.013-12.4.013-12.4l30.15-3.538s3.714,1.909,5.425,21.538c.511,5.878.575,31.26,1.346,36.072a53.78,53.78,0,0,0,2.589,10.807C2420.61,1244.992,2417.81,1292.091,2417.81,1292.091Z" transform="translate(-1008.553 -488.882)" fill="#ff7171"/>
      <path id="Trazado_709" data-name="Trazado 709" d="M2450.024,1549.731a2.3,2.3,0,0,1-1.5,2,.019.019,0,0,1-.013,0c-1.69.6-4.332.474-7.175.134-.372-.044-.706-.077-1.01-.1-.079-.007-.158-.014-.234-.019l-.18-.013c-2.887-.19-2.661.7-8.177.672-6.289-.033-8.415-2.151-8.7-3.054-.242-.766,2.511-1.36,5.59-2.044a18.57,18.57,0,0,0,9.5,1.685c4.235-.406,8.558-2.1,11.595-2.525q.038.172.068.344A10.955,10.955,0,0,1,2450.024,1549.731Z" transform="translate(-1039.312 -729.433)" fill="#4e01d4"/>
      <path id="Trazado_710" data-name="Trazado 710" d="M2354.774,1549.731a2.3,2.3,0,0,1-1.5,2,.018.018,0,0,1-.013,0c-1.69.6-4.332.474-7.175.134-.372-.044-.707-.077-1.011-.1-.079-.007-.158-.014-.234-.019l-.18-.013c-2.887-.19-2.661.7-8.177.672-6.289-.033-8.415-2.151-8.7-3.054-.243-.766,2.511-1.36,5.589-2.044a18.574,18.574,0,0,0,9.5,1.685c4.235-.406,8.558-2.1,11.595-2.525.025.115.048.229.069.344A10.986,10.986,0,0,1,2354.774,1549.731Z" transform="translate(-979.588 -729.433)" fill="#4e01d4"/>
      <path id="Trazado_711" data-name="Trazado 711" d="M2362.573,887.62c-1.018-8.317,1.579-21.625,18.178-19.5s21.831,18.44,18.483,25.693,4.819,9,7.383,16.8c2.2,6.7,2.97,15.021,6.535,18.755,11.491,12.038-11.032,30.551-24.61,26.647-24.732-7.111-27.918-8.172-27.04-27.6.449-9.956,8.2-13.814,3.278-16.694C2352.9,904.763,2364.877,906.439,2362.573,887.62Z" transform="translate(-999.448 -303.953)" fill="#d90452"/>
      <path id="Trazado_712" data-name="Trazado 712" d="M2400.706,953.947l-4.573,11.817-9.869.481-4.924-7.353a13.658,13.658,0,0,0,4.9-9.081,25.939,25.939,0,0,0,.175-6.084c-.066-.635-.131-1.006-.131-1.006l12.3-3.742.043-.022c.153,3.261.328,5.821.525,7.812C2399.853,953.793,2400.706,953.947,2400.706,953.947Z" transform="translate(-1013.182 -348.511)" fill="#fab4df"/>
      <path id="Trazado_713" data-name="Trazado 713" d="M2363.78,977.164c.635,0,11.414-2.194,29.619,2.464,0,0-9.97,45.679-6.583,54.288a90.95,90.95,0,0,1,4.674,16.251l-36.743.456s.513-29.551-1.18-40.01S2363.78,977.164,2363.78,977.164Z" transform="translate(-995.665 -372.144)" fill="#fab4df"/>
      <path id="Trazado_714" data-name="Trazado 714" d="M2338.77,1025.833c-1.841-12.7-8.662-38.773-13.245-43.037-4.052-3.771-12.792-4.117-12.792-4.117h0c-1.815,2.844-8.03,9.909-15.741,8.636-4.162-.686-5.006-8.169-5.1-9.169l.028-.113-.037.005v-.005l-.088.018c-1.215.18-10.884,1.753-13.752,6.691-4.237,7.29-8.849,29.167-13.382,28.844-2.08-.149-23.017-8.018-23.017-8.018s-3.488,3.268-2.82,7.277a218.671,218.671,0,0,0,19.08,11.339c1.211.612,2.392,1.176,3.51,1.666,3.152,1.383,5.807,2.185,7.257,1.842a4.852,4.852,0,0,0,1.316-.552c1.9-1.1,4.11-3.5,6.232-6.243,1.41-1.824,2.78-3.8,3.99-5.63l.076-.116c.518,6.955,1.039,14.524.5,20.455-.41,4.511-.708,14.284.066,16.809,1.614,5.263,13.476,6.654,24.546,6.1a71.971,71.971,0,0,0,11.589-1.176c3.893-.894,5.672-2.459,6.952-5.55,1.222-2.943-4.427-16.76-4.964-22.806a35.185,35.185,0,0,1,1.733-14.328c3.909,9.026,7.884,15.483,8.405,16.882,1.1,2.945,17.782,21.568,17.782,21.568a8.02,8.02,0,0,0,2.419-.976,5.6,5.6,0,0,0,1.655-1.676C2348.019,1043.46,2338.77,1025.833,2338.77,1025.833Z" transform="translate(-923.766 -373.012)" fill="#4e01d4"/>
      <path id="Trazado_715" data-name="Trazado 715" d="M2437.553,1103.772c-1.28,3.09-3.06,4.656-6.952,5.55-5.2-1-8.636-10.576-10.4-15.288-2.037-5.43,8.572-33.351,11.5-33.1,2.177.188,2.553,3.883,2.624,5.7a34.662,34.662,0,0,0-1.733,14.328C2433.125,1087.012,2438.775,1100.829,2437.553,1103.772Z" transform="translate(-1037.385 -424.994)" fill="#7f22ba"/>
      <path id="Trazado_716" data-name="Trazado 716" d="M2225.768,1049.011s-1.787-4.377-3.752-4.556-8.219-1.161-8.665-.268a6.182,6.182,0,0,0,1.34,5.271c1.34,1.161,9.648,3.037,9.648,3.037Z" transform="translate(-907.744 -414.261)" fill="#fab4df"/>
      <path id="Trazado_717" data-name="Trazado 717" d="M2318.325,1076.644c-1.21,1.835-2.579,3.807-3.989,5.63a33.387,33.387,0,0,1-6.232,6.243,4.858,4.858,0,0,1-1.316.552c-1.451.343-4.105-.459-7.257-1.842a34.819,34.819,0,0,0,5.528-.082c3.172-.27,4.094-3.7,9.108-8.854C2317.164,1075.214,2318.075,1075.688,2318.325,1076.644Z" transform="translate(-961.886 -434.391)" fill="#7f22ba"/>
      <path id="Trazado_718" data-name="Trazado 718" d="M2406.823,939.016c-1.86,3.041-6.346,9.3-12.343,10.832a25.887,25.887,0,0,0,.175-6.083c-.065-.635-.131-1.006-.131-1.006Z" transform="translate(-1021.422 -348.548)" fill="#de99c4"/>
      <path id="Trazado_719" data-name="Trazado 719" d="M2381.631,910.26s14.785,2.969,16.492-6.267,4.765-15.073-4.6-17.359-11.858.9-13.178,3.842S2377.829,909.25,2381.631,910.26Z" transform="translate(-1011.756 -315.214)" fill="#fab4df"/>
      <path id="Trazado_720" data-name="Trazado 720" d="M2405.31,881.086s-.259,3.133,4.6,8.448,3.915,16.065,3.915,16.065,7.984-16.677,3.612-21.6S2405.31,881.086,2405.31,881.086Z" transform="translate(-1028.211 -311.972)" fill="#d90452"/>
      <path id="Trazado_721" data-name="Trazado 721" d="M2392.757,870.151s-7.351-2.46-14.645,4.728c-3.142,3.1-2.668,9.184-.985,12.716,0,0,2.585-7.568,7.29-9.22S2392.757,870.151,2392.757,870.151Z" transform="translate(-1009.712 -305.113)" fill="#d90452"/>
      <path id="Trazado_722" data-name="Trazado 722" d="M2389.357,937.154s-.4,1.1-3.179.6c0,0-2.337-.417-2.122-1.647A7.622,7.622,0,0,1,2389.357,937.154Z" transform="translate(-1014.877 -346.653)" fill="#efecea"/>
      <g id="Grupo_281" data-name="Grupo 281" transform="translate(1039.6 523.55)">
        <path id="Trazado_723" data-name="Trazado 723" d="M1704.851,879.368c4.01,22.74-9.265,41.173-29.648,41.173-1.326,0-2.686-.917-4-1.072,18.151-2.186,29.546-18.843,25.8-40.1s-21.275-38.752-40.2-40.938a31.936,31.936,0,0,1,3.885-.232C1681.067,838.2,1700.842,856.631,1704.851,879.368Z" transform="translate(-1598.479 -808.883)" fill="#d90452"/>
        <path id="Trazado_724" data-name="Trazado 724" d="M1623.108,841.969c5.8,0,9.563-5.365,8.4-11.981s-6.818-11.982-12.622-11.982c-.292,0-.572.025-.853.051a75.649,75.649,0,0,0-2.988-7.151c2.927-2.026,4.458-5.989,3.655-10.545-1.132-6.422-6.485-11.662-12.1-11.968l-6.834.085a9.062,9.062,0,0,0-1.008.056c-.691-.65-1.389-1.286-2.1-1.9a11.8,11.8,0,0,0,.812-7.112c-1.167-6.617-6.819-11.982-12.621-11.982-.045,0-.09,0-.135,0v0l-5.7.11c-.163-.009-.325-.014-.486-.014-.288,0-.568.014-.847.04l0,0a8.057,8.057,0,0,0-4.2,1.628,8.753,8.753,0,0,0-2.709,3.6c-.138-.031-.272-.068-.41-.1-.034-.4-.089-.808-.161-1.221-1.167-6.617-6.816-11.981-12.619-11.981l-6.234.1c-.028,0-.055,0-.083,0-.1,0-.2.006-.292.009l-.118,0h0a8.392,8.392,0,0,0-1.32.161.007.007,0,0,0-.005,0c-.274.1-9.439,3.423-6.307,14.969l-.641.281a15.584,15.584,0,0,0-5.078-5.674c-4.033-2.47-6.662-1.887-7.013-1.842l-5.436.025v.009c-5.667.144-9.308,5.447-8.157,11.973a15.516,15.516,0,0,0,4.124,8.013c-.19.254-.376.511-.562.772l-1.89.02c-.279-.026-.561-.04-.841-.04a8.946,8.946,0,0,0-1.038.059l-4.807.051a.746.746,0,0,1-.083-.006c-.13,0-.261-.006-.388-.006-.229,0-.451.009-.671.025h-.014c-.187.014-.373.031-.555.057-5.088.706-8.238,5.763-7.156,11.9a15.061,15.061,0,0,0,8.8,11.207,59.239,59.239,0,0,0-.382,6.413l-2.1.034c-.091,0-.182-.008-.273-.008-.221,0-.433.011-.646.025l-.4.006a.157.157,0,0,1,.008.028c-5.205.6-8.454,5.707-7.358,11.922,1.167,6.617,6.816,11.981,12.622,11.981l2.359-.037q.832,2.315,1.808,4.565c-4.063,1.484-6.411,6.054-5.456,11.472,1.122,6.363,6.389,11.563,11.952,11.954v0h.014c.217.014.434.025.652.025.288,0,.571-.017.849-.042l5.335-.057,0-.006c.045,0,.091.006.139.006a8.734,8.734,0,0,0,2.1-.251c.863.873,1.743,1.727,2.643,2.552a11.594,11.594,0,0,0-1.087,7.668c1.167,6.62,6.819,11.982,12.622,11.982l6.182-.1,0-.006c.045,0,.091.006.139.006a8.208,8.208,0,0,0,7.672-5.059c.7.189,1.4.367,2.111.529.036.4.088.805.161,1.218,1.167,6.617,6.819,11.981,12.621,11.981l6.311-.1h.025l.4-.006v-.006c5.56-.254,9.109-5.515,7.971-11.97-.072-.41-.161-.817-.268-1.218.2-.051.4-.108.6-.161a12.453,12.453,0,0,0,9.313,4.887l6.081-.107c.08,0,.157.011.237.011,5.8,0,9.563-5.365,8.4-11.981a15.467,15.467,0,0,0-3-6.733c.787-1.006,1.526-2.055,2.228-3.141h7.131v0l.136,0c5.8,0,9.563-5.364,8.4-11.981a15.192,15.192,0,0,0-8.052-10.882q.234-2.539.251-5.167C1622.527,841.947,1622.816,841.969,1623.108,841.969Zm-46.2,28.421c-20.441,0-40.227-18.242-44.195-40.747s9.384-40.749,29.825-40.749,40.227,18.245,44.2,40.749S1597.347,870.39,1576.906,870.39Z" transform="translate(-1500.437 -759.6)" fill="#e25252"/>
        <path id="Trazado_725" data-name="Trazado 725" d="M1633.365,841.972c5.8,0,9.561-5.364,8.394-11.981s-6.817-11.982-12.62-11.982c-.291,0-.573.023-.854.05a75.422,75.422,0,0,0-2.989-7.151c2.928-2.026,4.461-5.988,3.657-10.546-1.167-6.617-6.817-11.981-12.62-11.981a8.143,8.143,0,0,0-5.447,1.993q-1.929-1.956-3.978-3.744a11.8,11.8,0,0,0,.811-7.112c-1.167-6.617-6.817-11.982-12.62-11.982-4.265,0-7.417,2.9-8.329,7.067a53.08,53.08,0,0,0-6.161-1.8q-.052-.6-.161-1.219c-1.167-6.617-6.817-11.982-12.62-11.982s-9.561,5.364-8.395,11.982q.109.617.269,1.219a39.346,39.346,0,0,0-6.741,2.322c-2.321-4.441-6.665-7.588-11.106-7.588-5.8,0-9.561,5.364-8.394,11.982a15.511,15.511,0,0,0,4.124,8.012q-1.3,1.724-2.431,3.6a11.555,11.555,0,0,0-7.182-2.75c-5.8,0-9.561,5.364-8.394,11.981a15.054,15.054,0,0,0,8.8,11.208,59.844,59.844,0,0,0-.388,6.741,9.932,9.932,0,0,0-2.371-.3c-5.8,0-9.561,5.364-8.394,11.982s6.817,11.981,12.62,11.981a8.662,8.662,0,0,0,2.264-.3q.869,2.455,1.9,4.831c-4.064,1.483-6.411,6.055-5.456,11.471,1.167,6.617,6.816,11.982,12.619,11.982a8.11,8.11,0,0,0,6.181-2.716q2.338,2.589,4.879,4.917a11.593,11.593,0,0,0-1.086,7.671c1.167,6.617,6.817,11.981,12.62,11.981,4.256,0,7.4-2.891,8.322-7.04a53.832,53.832,0,0,0,7.781,2.411q.053.6.161,1.219c1.166,6.617,6.817,11.982,12.619,11.982s9.561-5.365,8.394-11.982q-.109-.618-.269-1.219a39.506,39.506,0,0,0,5.741-1.89c2.425,3.867,6.418,6.519,10.493,6.519,5.8,0,9.561-5.364,8.395-11.981a15.465,15.465,0,0,0-3-6.733,43.474,43.474,0,0,0,3.423-5.086,11.122,11.122,0,0,0,6.073,1.946c5.8,0,9.561-5.365,8.395-11.982a15.2,15.2,0,0,0-8.051-10.883q.233-2.537.25-5.166C1632.783,841.949,1633.074,841.972,1633.365,841.972Zm-46.066,28.42c-20.44,0-40.227-18.244-44.195-40.748s9.385-40.748,29.825-40.748,40.227,18.243,44.2,40.748S1607.739,870.392,1587.3,870.392Z" transform="translate(-1510.83 -759.602)" fill="#ff7171"/>
      </g>
      <g id="Grupo_282" data-name="Grupo 282" transform="translate(1133.362 541.784)">
        <path id="Trazado_726" data-name="Trazado 726" d="M1908.1,900.049c3.065,17.385-7.083,31.477-22.666,31.477-1.014,0-2.054-.7-3.062-.82,13.876-1.671,22.588-14.406,19.723-30.657s-16.265-29.626-30.731-31.3a24.37,24.37,0,0,1,2.97-.178C1889.916,868.574,1905.034,882.666,1908.1,900.049Z" transform="translate(-1826.777 -846.162)" fill="#2d2e2f"/>
        <path id="Trazado_727" data-name="Trazado 727" d="M1845.606,871.457c4.436,0,7.311-4.1,6.419-9.16s-5.213-9.16-9.649-9.16c-.223,0-.437.02-.652.039a57.759,57.759,0,0,0-2.284-5.467c2.237-1.549,3.408-4.579,2.794-8.062-.866-4.91-4.958-8.916-9.252-9.149l-5.224.065a6.847,6.847,0,0,0-.77.043c-.529-.5-1.061-.983-1.6-1.456a9.026,9.026,0,0,0,.621-5.437c-.892-5.058-5.213-9.16-9.649-9.16-.035,0-.069,0-.1,0v0l-4.354.084c-.124-.007-.248-.011-.371-.011-.22,0-.435.011-.647.03l0,0a6.164,6.164,0,0,0-3.212,1.245,6.684,6.684,0,0,0-2.071,2.751c-.106-.024-.208-.052-.314-.076-.026-.307-.068-.618-.124-.934-.892-5.058-5.211-9.16-9.647-9.16l-4.766.078-.063,0c-.076,0-.151,0-.224.006l-.09,0h0a6.373,6.373,0,0,0-1.009.123.005.005,0,0,0,0,0c-.21.073-7.216,2.617-4.821,11.444l-.49.214a11.916,11.916,0,0,0-3.882-4.338c-3.083-1.888-5.093-1.443-5.361-1.408l-4.156.019v.006c-4.332.11-7.116,4.164-6.236,9.153a11.861,11.861,0,0,0,3.152,6.126c-.145.195-.288.391-.43.59l-1.445.015c-.213-.019-.429-.03-.643-.03a6.74,6.74,0,0,0-.793.046l-3.676.039a.567.567,0,0,1-.063,0c-.1,0-.2,0-.3,0-.175,0-.345.006-.513.019h-.01c-.143.011-.286.024-.425.043-3.889.54-6.3,4.406-5.471,9.1a11.515,11.515,0,0,0,6.725,8.568,45.259,45.259,0,0,0-.292,4.9l-1.607.026c-.07,0-.139-.007-.209-.007-.168,0-.331.009-.493.019l-.306,0a.072.072,0,0,1,.006.022c-3.979.458-6.463,4.363-5.625,9.114.892,5.058,5.211,9.16,9.649,9.16l1.8-.028q.636,1.77,1.383,3.49c-3.106,1.135-4.9,4.628-4.171,8.771.857,4.864,4.884,8.84,9.137,9.138v0h.01c.167.011.332.02.5.02.22,0,.436-.013.649-.033l4.079-.043,0,0c.035,0,.07,0,.106,0a6.67,6.67,0,0,0,1.6-.192q.99,1,2.021,1.951a8.864,8.864,0,0,0-.831,5.862c.892,5.061,5.213,9.16,9.649,9.16l4.726-.073,0,0c.035,0,.07,0,.107,0a6.276,6.276,0,0,0,5.865-3.868c.535.145,1.074.281,1.614.4.028.3.068.616.123.931.892,5.058,5.213,9.16,9.649,9.16l4.825-.075h.02l.308,0v0c4.251-.194,6.964-4.215,6.094-9.151-.055-.313-.123-.625-.205-.931.155-.039.307-.082.462-.123a9.52,9.52,0,0,0,7.12,3.736l4.649-.082c.061,0,.12.009.181.009,4.436,0,7.31-4.1,6.418-9.16a11.835,11.835,0,0,0-2.3-5.147q.9-1.154,1.7-2.4h5.452v0l.1,0c4.437,0,7.311-4.1,6.419-9.16a11.614,11.614,0,0,0-6.156-8.319q.179-1.941.191-3.95C1845.162,871.44,1845.383,871.457,1845.606,871.457Zm-35.321,21.727c-15.627,0-30.753-13.946-33.787-31.151s7.174-31.153,22.8-31.153,30.753,13.949,33.787,31.153S1825.912,893.184,1810.285,893.184Z" transform="translate(-1751.824 -808.486)" fill="#7f22ba"/>
        <path id="Trazado_728" data-name="Trazado 728" d="M1853.448,871.459c4.437,0,7.31-4.1,6.418-9.16s-5.212-9.16-9.648-9.16c-.223,0-.439.018-.653.038a57.619,57.619,0,0,0-2.285-5.467c2.238-1.549,3.411-4.577,2.8-8.061-.892-5.059-5.211-9.16-9.647-9.16a6.227,6.227,0,0,0-4.164,1.524q-1.475-1.5-3.041-2.862a9.02,9.02,0,0,0,.62-5.436c-.892-5.059-5.212-9.16-9.648-9.16a6.455,6.455,0,0,0-6.368,5.4,40.62,40.62,0,0,0-4.71-1.377q-.04-.459-.123-.932c-.892-5.059-5.211-9.16-9.647-9.16s-7.31,4.1-6.418,9.16q.083.472.206.932a30.089,30.089,0,0,0-5.154,1.775c-1.774-3.4-5.095-5.8-8.49-5.8-4.437,0-7.31,4.1-6.418,9.16a11.859,11.859,0,0,0,3.153,6.125q-.991,1.318-1.858,2.751a8.834,8.834,0,0,0-5.49-2.1c-4.436,0-7.309,4.1-6.418,9.16a11.51,11.51,0,0,0,6.725,8.568,45.768,45.768,0,0,0-.3,5.153,7.571,7.571,0,0,0-1.812-.231c-4.436,0-7.309,4.1-6.417,9.16s5.211,9.16,9.647,9.16a6.627,6.627,0,0,0,1.73-.231q.665,1.876,1.457,3.693c-3.107,1.134-4.9,4.629-4.172,8.77.892,5.059,5.211,9.16,9.648,9.16a6.2,6.2,0,0,0,4.725-2.076q1.787,1.979,3.73,3.759a8.866,8.866,0,0,0-.83,5.864c.892,5.059,5.212,9.16,9.648,9.16a6.453,6.453,0,0,0,6.362-5.382,41.076,41.076,0,0,0,5.948,1.843q.04.46.123.932c.892,5.059,5.211,9.16,9.648,9.16s7.309-4.1,6.418-9.16q-.083-.472-.206-.932a30.157,30.157,0,0,0,4.39-1.445c1.853,2.957,4.907,4.984,8.022,4.984,4.436,0,7.309-4.1,6.417-9.16a11.821,11.821,0,0,0-2.3-5.147,33.238,33.238,0,0,0,2.617-3.888,8.5,8.5,0,0,0,4.642,1.488c4.437,0,7.31-4.1,6.418-9.16a11.617,11.617,0,0,0-6.155-8.32q.178-1.938.191-3.949C1853,871.441,1853.226,871.459,1853.448,871.459Zm-35.218,21.727c-15.626,0-30.753-13.947-33.787-31.152s7.175-31.152,22.8-31.152,30.754,13.947,33.787,31.152S1833.857,893.186,1818.231,893.186Z" transform="translate(-1759.77 -808.487)" fill="#4e01d4"/>
      </g>
      <path id="Trazado_729" data-name="Trazado 729" d="M1189.079,1128.721l.722,2.8A7.743,7.743,0,0,1,1189.079,1128.721Z" transform="translate(-265.608 -467.497)" fill="#7f22ba"/>
      <g id="Grupo_283" data-name="Grupo 283" transform="translate(915.178 526.189)">
        <path id="Trazado_730" data-name="Trazado 730" d="M1182.709,780.458a38.371,38.371,0,0,0-6.245-2.569,24.163,24.163,0,0,1-3.13-1.25,2.99,2.99,0,0,1-1.525-1.805,2.1,2.1,0,0,1,.317-2.2,2.885,2.885,0,0,1,2.178-.781,8.551,8.551,0,0,1,2.672.609,8.587,8.587,0,0,0,2.325.608,1.59,1.59,0,0,0,1.29-.5,1.385,1.385,0,0,0,.157-1.364,3.414,3.414,0,0,0-1.6-1.831,10.822,10.822,0,0,0-5.834-1.451,6.961,6.961,0,0,0-5.186,1.806q-1.945,1.945-.936,5.243a8.7,8.7,0,0,0,4.66,5.347l6.334,2.292q3.408,1.25,4.087,3.472a2.827,2.827,0,0,1-.329,2.621,2.7,2.7,0,0,1-2.326,1.094,10.341,10.341,0,0,1-2.875-.417q-.081-.034-1.941-.661a7.357,7.357,0,0,0-1.748-.487,1.635,1.635,0,0,0-1.336.521,1.459,1.459,0,0,0-.155,1.426q.564,1.844,3.9,2.852a16.1,16.1,0,0,0,4.79.765q3.86,0,5.727-2.083,2-2.222.841-6.007A9.073,9.073,0,0,0,1182.709,780.458Z" transform="translate(-1166.844 -767.454)" fill="#d90452"/>
        <path id="Trazado_731" data-name="Trazado 731" d="M1219.64,772.545h3.567q2.762,0,2.146-2.017-.627-2.052-3.444-2.052H1210.5q-2.817,0-2.189,2.052.617,2.017,3.4,2.017h3.512l5.731,18.745q.872,2.852,3.046,2.851,2.242,0,1.371-2.851Z" transform="translate(-1192.774 -767.805)" fill="#d90452"/>
        <path id="Trazado_732" data-name="Trazado 732" d="M1285.819,790.346l-13.449-20.1q-1.736-2.608-4.066-2.608-2.261,0-2.443,2.817l-1.315,19.927a3.494,3.494,0,0,0,.174,1.252,2.652,2.652,0,0,0,1.051,1.443,2.887,2.887,0,0,0,1.681.539q1.464,0,1.564-1.839l.165-4.177h10.248l2.642,4.06a3.491,3.491,0,0,0,2.846,1.957,1.734,1.734,0,0,0,1.374-.539,1.388,1.388,0,0,0,.209-1.408A5.283,5.283,0,0,0,1285.819,790.346Zm-16.491-6.642.41-10.709a1.789,1.789,0,0,1,.058-.348l7.139,11.057Z" transform="translate(-1228.102 -767.279)" fill="#d90452"/>
        <path id="Trazado_733" data-name="Trazado 733" d="M1334.047,789.933l-8.466-6.99q6.7-.487,4.735-6.92a9.932,9.932,0,0,0-4.282-5.7,12.173,12.173,0,0,0-6.684-1.843h-4.973q-2.748,0-1.863,2.894l6.109,19.982q.874,2.859,3.048,2.859,2.242,0,1.375-2.835l-2.546-8.328.227.174,11,9.633a4.485,4.485,0,0,0,2.682,1.357,1.56,1.56,0,0,0,1.3-.539,1.463,1.463,0,0,0,.162-1.408A5.249,5.249,0,0,0,1334.047,789.933Zm-11.529-9.772a14.939,14.939,0,0,1-2.965-.21l-2.285-7.476h3.249q4.122,0,5.266,3.738Q1326.991,780.162,1322.518,780.161Z" transform="translate(-1258.047 -767.805)" fill="#d90452"/>
        <path id="Trazado_734" data-name="Trazado 734" d="M1369.941,772.545h3.567q2.762,0,2.146-2.017-.627-2.052-3.444-2.052H1360.8q-2.817,0-2.19,2.052.617,2.017,3.4,2.017h3.512l5.731,18.745q.872,2.852,3.046,2.851,2.242,0,1.371-2.851Z" transform="translate(-1287.016 -767.805)" fill="#d90452"/>
        <path id="Trazado_735" data-name="Trazado 735" d="M1453,825.094a3.371,3.371,0,0,0-1.234-1.7,3.126,3.126,0,0,0-1.919-.715,1.685,1.685,0,0,0-1.482.715,1.877,1.877,0,0,0-.194,1.7,3.369,3.369,0,0,0,1.234,1.7,3.125,3.125,0,0,0,1.919.714,1.687,1.687,0,0,0,1.483-.714A1.88,1.88,0,0,0,1453,825.094Z" transform="translate(-1343.172 -801.791)" fill="#d90452"/>
        <path id="Trazado_736" data-name="Trazado 736" d="M1439.978,782.121l-3.879-12.689q-.842-2.756-2.986-2.756-2.11,0-1.267,2.756l3.88,12.689q.873,2.857,3.017,2.857Q1440.851,784.979,1439.978,782.121Z" transform="translate(-1332.856 -766.676)" fill="#d90452"/>
      </g>
      <g id="Grupo_284" data-name="Grupo 284" transform="translate(925.89 565.31)">
        <path id="Trazado_737" data-name="Trazado 737" d="M1199.61,976.778l19.255,71.863h17.1l-19.255-71.863Z" transform="translate(-1198.102 -937.536)" fill="url(#linear-gradient)"/>
        <path id="Trazado_738" data-name="Trazado 738" d="M1261.016,957.107l21.222,79.2h17.1l-21.222-79.2Z" transform="translate(-1236.605 -925.201)" fill="url(#linear-gradient)"/>
        <path id="Trazado_739" data-name="Trazado 739" d="M1317.914,923.228l24.607,91.836h17.1l-24.607-91.836Z" transform="translate(-1272.281 -903.958)" fill="url(#linear-gradient)"/>
        <path id="Trazado_740" data-name="Trazado 740" d="M1397.781,898.273h-17.1l24.607,91.836h17.1Z" transform="translate(-1311.635 -888.312)" fill="url(#linear-gradient)"/>
        <path id="Trazado_741" data-name="Trazado 741" d="M1199.606,903.785l18.328-14.088,1.386,5.171a3.2,3.2,0,0,0,1.787,2.012,2.079,2.079,0,0,0,2.3-.224l19.577-18.71,2.74,2.462c.331.3.779.162.736-.223l-.881-7.836a.631.631,0,0,0-.574-.524l-8.129-.26c-.4-.013-.5.447-.162.747l2.446,2.2-16.56,15.826-1.268-4.735a3.193,3.193,0,0,0-1.695-1.97,2.2,2.2,0,0,0-2.267.075l-21.191,16.289c-.867.667-.8,2.056.142,3.1a3.037,3.037,0,0,0,2.176,1.04A1.81,1.81,0,0,0,1199.606,903.785Z" transform="translate(-1195.566 -871.564)" fill="url(#linear-gradient-5)"/>
      </g>
      <g id="Grupo_285" data-name="Grupo 285" transform="translate(924.193 516.412)">
        <path id="Trazado_742" data-name="Trazado 742" d="M1553.926,918.623H1199l-7.987-30.551c7.355,15.794,67.149-1.489,80.552-11.1,24.5-17.69,24.684-35.109,50.046-46.932,34.342-16.02,68.683,9.07,96.3,2.211,84.7-20.983,154.921-89.622,157.087-91.788-23.782,55.055-81.724,84.026-37.185,102.077C1584.025,861.266,1553.926,918.623,1553.926,918.623Z" transform="translate(-1191.015 -740.462)" fill="#dfdcf7" opacity="0.74"/>
        <path id="Trazado_743" data-name="Trazado 743" d="M1739.107,1041.952H1566.813c7.356-6.047,17.419-16.516,22.744-31.544,9.025-25.361,39.847-14.891,67.059-19.269,27.257-4.377,82.236-59.868,84.117-53.475,1.007,3.423-11.282,48.512,6.769,53.611C1765.326,996.283,1772.141,1024.442,1739.107,1041.952Z" transform="translate(-1426.649 -863.79)" fill="#ecebfc" opacity="0.59"/>
      </g>
    </g>
  </g>
</svg>
