<svg xmlns="http://www.w3.org/2000/svg" width="1034.654" height="1036.446" viewBox="0 0 1034.654 1036.446">
  <g id="Grupo_778" data-name="Grupo 778" transform="translate(-864.414 -44.015)">
    <path id="Trazado_248" data-name="Trazado 248" d="M1512.548,5263.443c-174.869-376.281-187.075-518.147,0-587.417s556.733,89.222,610.918,175.326S1687.416,5639.725,1512.548,5263.443Z" transform="translate(3855.386 -4140.308) rotate(47)" fill="#ff7171"/>
    <g id="VECTOR-MKT" transform="translate(1105 313.84)">
      <g id="Grupo_103" data-name="Grupo 103">
        <g id="Grupo_100" data-name="Grupo 100" transform="translate(60.211 70.881)">
          <path id="Trazado_252" data-name="Trazado 252" d="M73.392-349.733H-8.824l6.757-99.111h68.7Z" transform="translate(192.158 723.399)" fill="#740945"/>
          <path id="Trazado_253" data-name="Trazado 253" d="M98.732-414.44a5.376,5.376,0,0,0-4.464-2.381H-.571a5.376,5.376,0,0,0-4.464,2.381l-12.421,18.534a5.375,5.375,0,0,0,4.464,8.366H106.689a5.374,5.374,0,0,0,4.464-8.366Z" transform="translate(177.593 772.236)" fill="#740945"/>
          <rect id="Rectángulo_56" data-name="Rectángulo 56" width="448.883" height="300.905" rx="9.163" fill="#740945"/>
          <rect id="Rectángulo_57" data-name="Rectángulo 57" width="407.549" height="257.917" transform="translate(20.667 19.936)" fill="#fefefe"/>
          <rect id="Rectángulo_58" data-name="Rectángulo 58" width="387.186" height="229.829" transform="translate(30.848 48.024)" fill="#e5e6ed"/>
          <rect id="Rectángulo_59" data-name="Rectángulo 59" width="387.186" height="19.013" transform="translate(30.848 48.024)" fill="#00e9d3"/>
          <rect id="Rectángulo_60" data-name="Rectángulo 60" width="120.244" height="15.872" transform="translate(278.995 129.051)" fill="#fefefe"/>
          <rect id="Rectángulo_61" data-name="Rectángulo 61" width="120.244" height="15.873" transform="translate(278.995 157.111)" fill="#fefefe"/>
          <rect id="Rectángulo_62" data-name="Rectángulo 62" width="120.244" height="15.872" transform="translate(278.995 185.173)" fill="#fefefe"/>
          <rect id="Rectángulo_63" data-name="Rectángulo 63" width="120.245" height="15.872" transform="translate(66.558 86.117)" fill="#fefefe"/>
          <rect id="Rectángulo_64" data-name="Rectángulo 64" width="120.245" height="15.872" transform="translate(66.558 114.178)" fill="#fefefe"/>
        </g>
        <path id="Trazado_254" data-name="Trazado 254" d="M136.136-510.414H-90.877a14.394,14.394,0,0,0-14.4,14.4v73.2a14.394,14.394,0,0,0,14.4,14.393H51.345l54.171,46.061L79.793-408.422h56.343a14.393,14.393,0,0,0,14.393-14.393v-73.2A14.394,14.394,0,0,0,136.136-510.414Z" transform="translate(105.273 700.376)" fill="#4e13d1"/>
        <rect id="Rectángulo_65" data-name="Rectángulo 65" width="152.988" height="8.808" transform="translate(85.542 209.704)" fill="#fff"/>
        <rect id="Rectángulo_66" data-name="Rectángulo 66" width="152.988" height="8.808" transform="translate(85.542 227.675)" fill="#fff"/>
        <rect id="Rectángulo_67" data-name="Rectángulo 67" width="152.988" height="8.808" transform="translate(85.542 245.646)" fill="#fff"/>
        <rect id="Rectángulo_68" data-name="Rectángulo 68" width="101.54" height="8.808" transform="translate(85.542 263.617)" fill="#fff"/>
        <path id="Trazado_255" data-name="Trazado 255" d="M-40.54-473.015A29.517,29.517,0,0,1-70.056-443.5,29.516,29.516,0,0,1-99.57-473.015a29.514,29.514,0,0,1,29.514-29.514A29.515,29.515,0,0,1-40.54-473.015Z" transform="translate(113.971 712.402)" fill="#110239"/>
        <ellipse id="Elipse_12" data-name="Elipse 12" cx="8.329" cy="8.59" rx="8.329" ry="8.59" transform="translate(35.586 222.021)" fill="#fff"/>
        <path id="Trazado_256" data-name="Trazado 256" d="M-78.712-490.4h-.3A14.786,14.786,0,0,0-93.8-475.615v9.426A29.205,29.205,0,0,0-78.861-462a29.214,29.214,0,0,0,14.939-4.192v-9.426A14.787,14.787,0,0,0-78.712-490.4Z" transform="translate(122.775 730.897)" fill="#fff"/>
        <path id="Trazado_257" data-name="Trazado 257" d="M245.21-585.643H18.2A14.394,14.394,0,0,0,3.8-571.25v73.2a14.394,14.394,0,0,0,14.4,14.4H83.926L66.313-437.59l46.061-46.061H245.21a14.394,14.394,0,0,0,14.393-14.4v-73.2A14.393,14.393,0,0,0,245.21-585.643Z" transform="translate(271.624 585.643)" fill="#f590ce"/>
        <rect id="Rectángulo_69" data-name="Rectángulo 69" width="152.988" height="8.809" transform="translate(360.968 19.74)" fill="#fff"/>
        <rect id="Rectángulo_70" data-name="Rectángulo 70" width="152.988" height="8.808" transform="translate(360.968 37.711)" fill="#fff"/>
        <rect id="Rectángulo_71" data-name="Rectángulo 71" width="152.988" height="8.808" transform="translate(360.968 55.682)" fill="#fff"/>
        <rect id="Rectángulo_72" data-name="Rectángulo 72" width="101.54" height="8.808" transform="translate(360.968 73.653)" fill="#fff"/>
        <path id="Trazado_258" data-name="Trazado 258" d="M68.534-548.245a29.517,29.517,0,0,1-29.516,29.516A29.514,29.514,0,0,1,9.5-548.245a29.514,29.514,0,0,1,29.514-29.514A29.516,29.516,0,0,1,68.534-548.245Z" transform="translate(280.322 597.667)" fill="#110239"/>
        <path id="Trazado_259" data-name="Trazado 259" d="M34.552-564.358a8.463,8.463,0,0,1-8.33,8.591,8.463,8.463,0,0,1-8.328-8.591,8.463,8.463,0,0,1,8.328-8.59A8.463,8.463,0,0,1,34.552-564.358Z" transform="translate(293.118 605.004)" fill="#fff"/>
        <path id="Trazado_260" data-name="Trazado 260" d="M30.362-565.632h-.3a14.788,14.788,0,0,0-14.787,14.787v9.429a29.231,29.231,0,0,0,14.936,4.192,29.224,29.224,0,0,0,14.936-4.192v-9.429A14.786,14.786,0,0,0,30.362-565.632Z" transform="translate(289.127 616.162)" fill="#fff"/>
        <g id="Grupo_101" data-name="Grupo 101" transform="translate(349.875 297.718)">
          <rect id="Rectángulo_73" data-name="Rectángulo 73" width="116.563" height="36.994" rx="5.252" transform="translate(0)" fill="#d6184f"/>
        </g>
        <path id="Trazado_261" data-name="Trazado 261" d="M30.806-513.874a66.967,66.967,0,0,1-18.214.806,27.128,27.128,0,0,1-6.4-1.394c.3,7.585.354,25.36-5.043,32.72,0,0,1.942,8.742,17.724,9s17.56-11.648,17.56-11.648S31.129-502.687,30.806-513.874Z" transform="translate(267.586 694.203)" fill="#fccaea"/>
        <path id="Trazado_262" data-name="Trazado 262" d="M1.234-481.464c.051.151.129.364.242.619l.038.081a9.23,9.23,0,0,0,.49.919l.025.043a10.868,10.868,0,0,0,.8,1.121c.043.053.088.106.134.159a12.958,12.958,0,0,0,2.861,2.485c.071.045.136.093.207.139A17.131,17.131,0,0,0,8.17-474.78c.1.045.215.086.318.129a20.979,20.979,0,0,0,2.77.947,22.252,22.252,0,0,1,4.649-11.2,27.87,27.87,0,0,1,17.769-10.315c-1.346-5.921-2.712-13.143-2.871-18.651a66.967,66.967,0,0,1-18.214.806,27.128,27.128,0,0,1-6.4-1.394c.3,7.585.354,25.36-5.043,32.72l.053.187Z" transform="translate(267.586 694.203)" fill="#fab4df"/>
        <path id="Trazado_263" data-name="Trazado 263" d="M8.344-528.767s25.86-7.639,29.978-1.374,3.371,16.378,5.088,20.835,8.131,9.156,8.818,10.939-4.3,5.187-4.992,6.58-3.3,16.027-7.787,19.257-28.567-5.343-34.534-16.714S1.408-525.022,8.344-528.767Z" transform="translate(268.185 666.528)" fill="#fccaea"/>
        <path id="Trazado_264" data-name="Trazado 264" d="M28.533-522.419a25.677,25.677,0,0,1-2.725,13.36c-1.548,3.093,6.176,11.318,4.028,15.057-1.434,2.487-3.525,1.856-5.426-3.058-.651-1.684-2.5-2.848-4.179-3.576-6.33-2.737-7.805,6.909-2.129,9.775,3.975,2,1.611,12.062,1.611,12.062-4.265,3.283-18.365-.674-16.82-10.969.982-6.555,1.419-9.05-.876-10.646C-2.139-503.3-7.551-511.324-.71-518.127c9.426-9.371.828-12.348,11.729-15.05S30.922-529.227,28.533-522.419Z" transform="translate(259.773 664.718)" fill="#110239"/>
        <path id="Trazado_265" data-name="Trazado 265" d="M1.263-523.641c.611-2.376,4.911-5.442,7.038-7.027A31.406,31.406,0,0,1,19.457-535.7a28.8,28.8,0,0,1,12.429-.419c3.535.677,6.5,2.247,10.118,2.656,3.343.381,6.669.232,9.017-1.747a23.057,23.057,0,0,1,.442,8.181c-.586,3.225-2.717,6.111-4.649,8.995-5.245,7.828-19.517,12.158-29.577,8.025-4.861-2-9.224-3.727-11.611-7.954A25.342,25.342,0,0,0,1.263-523.641Z" transform="translate(267.753 660.429)" fill="#110239"/>
        <path id="Trazado_266" data-name="Trazado 266" d="M73.224-524.794l25,55.484s-7.318,8.232-9.757,6.4-39.937-46.849-43.6-49.187S73.224-524.794,73.224-524.794Z" transform="translate(333.814 678.445)" fill="#110239"/>
        <path id="Trazado_267" data-name="Trazado 267" d="M31.372-479.031s.1,15.954,9.858,19.612c0,0,50-20.716,60.06-22.7s46.644-2.3,46.644-2.3L111.045-550.27S93.364-514.9,77.205-503.318,31.372-479.031,31.372-479.031Z" transform="translate(313.673 639.591)" fill="#4e13d1"/>
        <path id="Trazado_268" data-name="Trazado 268" d="M50.2-501.406c3.957-1.573,8.083-3.2,12.146-4.765-6.126-6.9-9.308-16.514-10.522-22.564-3.793,2.172-7.722,4.265-11.525,6.212A45.876,45.876,0,0,0,50.2-501.406Z" transform="translate(327.281 672.435)" fill="#110239"/>
        <path id="Trazado_269" data-name="Trazado 269" d="M119.212-522.042c10.414,25.12,6.732,50.508-8.222,56.709s-35.518-9.136-45.934-34.256S58.323-550.1,73.277-556.3,108.8-547.16,119.212-522.042Z" transform="translate(356.014 628.3)" fill="#00e9d3"/>
        <path id="Trazado_270" data-name="Trazado 270" d="M112.994-524.924c8.858,21.368,5.727,42.965-6.995,48.24s-30.216-7.775-39.074-29.142-5.73-42.965,6.992-48.237S104.133-546.292,112.994-524.924Z" transform="translate(360.214 632.02)" fill="#110239"/>
        <path id="Trazado_271" data-name="Trazado 271" d="M58.747-501.147c-1.189-.72-.853-5.187-.614-6.348.379-1.818,1.636-4.189.374-5.927-2.23-3.076-5.366,5.194-5.775,6.4-.78,2.3-1.063,3.864-.573,5.512.412,1.379,2.879,5.682,4.785,7.227-.23.823-.485,1.677-.8,2.588a54.826,54.826,0,0,1,6.025,3.05c2.414,1.391,2.288,3.114,4.545,4.664l2.257-5.184C68.026-490.35,60.729-499.945,58.747-501.147Z" transform="translate(345.005 694.751)" fill="#fccaea"/>
        <path id="Trazado_272" data-name="Trazado 272" d="M69.613-515.324c-2.161-2.325-5.527-1.432-8.141.475-1.912,1.391-7.409,5.841-5.929,9.065,1.232,2.682,8.308-3.252,8.308-3.252-2.606,2.242-7.462,4.035-6.242,6.277,1.364,2.505,7.54-1.063,8.891-2.055-1.386.356-8.285,4.543-5.522,6.729,1.894,1.5,6.964-1.646,8.484-2.714-2.035.619-4.805,2.424-4.267,5.247.884,1.543,3.959.52,5.674-.177,2.586-1.05,5.02-1.454,5.227-4.667a14.137,14.137,0,0,0,.088-1.745,17.6,17.6,0,0,0-2.273-6.99A30.605,30.605,0,0,0,69.613-515.324Z" transform="translate(350.156 690.769)" fill="#fccaea"/>
        <path id="Trazado_273" data-name="Trazado 273" d="M-11.037-478.192a28.389,28.389,0,0,1-2.891-6.151c-.644-1.841-1.1-3.725-1.735-5.565a14.449,14.449,0,0,1-1.242-5.452,15.847,15.847,0,0,1,.667-3.325c.369-1.417.889-2.79,1.182-4.225.258-1.275.144-2.515.386-3.785a22.465,22.465,0,0,1,2.2-6.99,26.022,26.022,0,0,1,3.209-4.424,16.738,16.738,0,0,1,1.9-2.028,5.024,5.024,0,0,0,1.742-2.144,2.048,2.048,0,0,0-1.492-2.76c-2.225-.566-5.732.454-7.088,2.321-1.881,2.591-2.773,5.765-4.868,8.262-6.414,7.641-12.431-1.353-19.916-4.588a44.774,44.774,0,0,1-7.229-4.661c-1.338-1.005-7.08-6.464-9.8-5.04-2,1.045,1.914,5.631,3.805,6.752.745.442,7.156,5.649,7.99,5.9-1.889-.321-6.8-3.568-10.749-6.659-2.836-2.22-5.588-4.406-7.133-3.139-4.762,3.9,13.921,12.828,15.378,13.646-1.555.134-16.184-10.224-17.567-6.416-.76,2.093,2.275,4.169,4.757,5.517,3.116,1.692,8.335,2.9,9.512,3.818-2.2.748-11.886-5.841-11.891-1.821,0,2.631,6.015,4.6,8.277,5.29,2.331.712,9.181,5.371,11.35,6.4,7.229,3.444,10.214,3.045,13.065,7.376,1.818,2.76,5.053,17.338,7.676,22.885Z" transform="translate(167.608 672.056)" fill="#fccaea"/>
        <path id="Trazado_274" data-name="Trazado 274" d="M102.178-506.016c-6.444,18.769-20.231,51.969-24.782,49.639-8.537-4.371-26.91-19.4-40.637-28.584-10.638-7.121-15.964-9.2-15.964-9.2l9.555,45.311s45.3,34.4,54.785,29.13c7.462-4.146,25.832-56.457,32.311-78.132C117.448-497.852,102.287-505.933,102.178-506.016Z" transform="translate(297.544 707.084)" fill="#f4c70c"/>
        <path id="Trazado_275" data-name="Trazado 275" d="M53.293-462.439c-5.1-6.628-24.585-25.706-29.855-29.771l1.52,21.486S70.617-436.4,80.72-440.685C72.021-446.278,59.5-454.389,53.293-462.439Z" transform="translate(301.573 728.14)" fill="#e2b90f"/>
        <path id="Trazado_276" data-name="Trazado 276" d="M53.713-477.354s-55.7,22.486-61.765,20.906-26.259-59.015-26.259-59.015l-16.87,6.853s18.017,82.839,29.615,86.713S59.169-438,59.169-438,60.3-458.11,53.713-477.354Z" transform="translate(187.77 692.676)" fill="#f4c70c"/>
        <path id="Trazado_277" data-name="Trazado 277" d="M-19.449-461.135c-4.909,1.76-9.906,3.5-14.921,4.972,23.628-3.121,67.9-15.906,67.9-15.906a121.215,121.215,0,0,0-1.212-21.054C18.6-478.27-.9-467.791-19.449-461.135Z" transform="translate(213.409 726.747)" fill="#e2b90f"/>
        <path id="Trazado_278" data-name="Trazado 278" d="M85.491-530.685c-2.548-7.858-10.214-12.413-17.123-10.174a11.89,11.89,0,0,0-5.757,4.169,68.641,68.641,0,0,0,3.212,9.807,66.473,66.473,0,0,0,8.6,14.994,11.547,11.547,0,0,0,3.172-.515C84.5-514.643,88.039-522.829,85.491-530.685Z" transform="translate(361.317 653.075)" fill="#d0d1de"/>
        <g id="Grupo_102" data-name="Grupo 102" transform="translate(236.922 207.651)">
          <path id="Trazado_279" data-name="Trazado 279" d="M-6.793-427.976c-1.965,19.335-3.5,59.969-4.654,65.651h91.4c1.614-30.357,1.076-74.322-.427-90.5-2.616-28.19-9.555-45.311-9.555-45.311s-6.823-2.156-14.918-5.272c0,0-16.825,10.282-32.486.139,0,0-28.279,6.7-31.7,8.328C-11.97-493.586-4.692-448.621-6.793-427.976Z" transform="translate(11.447 503.409)" fill="#f4c70c"/>
          <path id="Trazado_280" data-name="Trazado 280" d="M17.382-420.8a72.267,72.267,0,0,0-5.23-26.372,23.733,23.733,0,0,1-1.679-5.916A39.179,39.179,0,0,0,6.6-466.59c-2.043-3.086-4.111-6.159-6.131-9.262-1.121-1.52-2.3-3.129-3.6-5.03a87.344,87.344,0,0,1-5.583-9.876c1.073,14.2,2.972,33.152,1.919,43.488-1.965,19.335-3.5,59.969-4.654,65.651H31.089c-5.467-7.035-8.747-15.6-11.959-26.044A46.862,46.862,0,0,1,17.382-420.8Z" transform="translate(11.447 522.703)" fill="#e2b90f"/>
        </g>
        <text id="COMPRAR" transform="translate(357.186 321.719)" fill="#e4ecf3" font-size="19" font-family="FivoSans-Bold, Fivo Sans" font-weight="700"><tspan x="0" y="0">COMPRAR</tspan></text>
      </g>
    </g>
    <g id="TUERCA-ELEMENTO_AUX" data-name="TUERCA-ELEMENTO AUX" transform="translate(1086.693 288.101)">
      <path id="Trazado_342" data-name="Trazado 342" d="M2114.209,5766.908a19.12,19.12,0,0,0-.523,2.783l-4.948,1.021,2.408,11.666,4.948-1.021a20.807,20.807,0,0,0,1.579,2.347l-2.775,4.215,9.948,6.544,2.774-4.215a19.08,19.08,0,0,0,2.784.523l1.021,4.948,11.667-2.409-1.021-4.948a20.855,20.855,0,0,0,2.347-1.579l4.215,2.774,6.544-9.948-4.215-2.774a19.068,19.068,0,0,0,.523-2.784l4.948-1.02-2.408-11.667-4.948,1.021a20.826,20.826,0,0,0-1.58-2.347l2.775-4.214-9.948-6.544-2.775,4.214a19.068,19.068,0,0,0-2.784-.523l-1.021-4.948-11.667,2.409,1.021,4.948a20.837,20.837,0,0,0-2.347,1.58l-4.215-2.775-6.544,9.947Zm8.351-1.641a12,12,0,1,1,3.429,16.623A12,12,0,0,1,2122.56,5765.268Zm50.916,17.024a12,12,0,0,0-.331,1.745l-3.107.646,1.509,7.339,3.107-.646a11.773,11.773,0,0,0,.995,1.475l-1.745,2.652,6.256,4.119,1.746-2.653a12.094,12.094,0,0,0,1.745.332l.646,3.106,7.339-1.51-.646-3.106a11.739,11.739,0,0,0,1.475-1l2.653,1.746,4.119-6.257-2.653-1.745a12.074,12.074,0,0,0,.331-1.746l3.107-.646-1.51-7.339-3.106.646a11.782,11.782,0,0,0-.995-1.475l1.746-2.652-6.257-4.119-1.745,2.653a11.977,11.977,0,0,0-1.746-.332l-.646-3.107-7.338,1.51.646,3.115a11.75,11.75,0,0,0-1.475.995l-2.653-1.745-4.119,6.257Zm5.253-1.03a7.547,7.547,0,1,1,2.156,10.454A7.544,7.544,0,0,1,2178.729,5781.262Z" transform="translate(-2108.738 -5748.024)" fill="#e9c732"/>
      <path id="Trazado_343" data-name="Trazado 343" d="M2137.985,5911.63a9.791,9.791,0,1,0,9.791-9.791A9.787,9.787,0,0,0,2137.985,5911.63Z" transform="translate(-2123.474 -5825.521)" fill="#b95e89"/>
    </g>
    <g id="RELOJ-ELEMENTO_AUX" data-name="RELOJ-ELEMENTO AUX" transform="translate(1652.614 558.673)">
      <g id="Grupo_145" data-name="Grupo 145">
        <g id="Grupo_143" data-name="Grupo 143" transform="translate(0 64.825)">
          <path id="Trazado_344" data-name="Trazado 344" d="M2865.854,6077.807a27.433,27.433,0,1,0,27.428-27.438A27.425,27.425,0,0,0,2865.854,6077.807Z" transform="translate(-2865.854 -6050.368)" fill="#fff"/>
          <path id="Trazado_345" data-name="Trazado 345" d="M2899.32,6061.378a60.541,60.541,0,0,0-1.721,10.413,104.051,104.051,0,0,0-.391,10.414l2.112-2.113c-3.062.042-6.125.169-9.188.507a58.062,58.062,0,0,0-9.188,1.605,58.228,58.228,0,0,0,9.188,1.6c3.063.338,6.125.464,9.188.507l2.092.032.021-2.144a104.051,104.051,0,0,0-.391-10.414A60.325,60.325,0,0,0,2899.32,6061.378Z" transform="translate(-2871.882 -6054.766)" fill="#83e9d4"/>
        </g>
        <g id="Grupo_144" data-name="Grupo 144" transform="translate(99.003)">
          <path id="Trazado_346" data-name="Trazado 346" d="M3030.715,5942.421c1.806,1.415,21.936,25.41,21.936,25.41l78.418,6.031Z" transform="translate(-3030.715 -5942.421)" fill="#e9b4de"/>
          <path id="Trazado_347" data-name="Trazado 347" d="M3051.555,6016.521l9.421-31.769,78.407,6.02Z" transform="translate(-3039.04 -5959.331)" fill="#b95e89"/>
          <path id="Trazado_348" data-name="Trazado 348" d="M3051.555,6020.524l26.266-14.194,61.562-11.554Z" transform="translate(-3039.04 -5963.335)" fill="#cd99c2"/>
          <path id="Trazado_349" data-name="Trazado 349" d="M3095.293,6006.33l25.654,28.991,35.908-40.545Z" transform="translate(-3056.512 -5963.335)" fill="#e9b4de"/>
        </g>
        <path id="Trazado_350" data-name="Trazado 350" d="M3037.1,6191.3a23.983,23.983,0,0,0,1.384,3.306l-4.52,4.52,10.667,10.667,4.521-4.52a23.98,23.98,0,0,0,3.305,1.384v6.389h15.082v-6.389a24.033,24.033,0,0,0,3.306-1.384l4.52,4.52,10.667-10.667-4.521-4.52a23.954,23.954,0,0,0,1.384-3.306h6.39V6176.22h-6.39a23.9,23.9,0,0,0-1.384-3.306l4.521-4.52-10.667-10.667-4.52,4.52a24.155,24.155,0,0,0-3.306-1.384v-6.389h-15.082v6.389a24.1,24.1,0,0,0-3.305,1.384l-4.521-4.52-10.667,10.667,4.52,4.52a23.933,23.933,0,0,0-1.384,3.306h-6.389V6191.3Zm7.7-7.541a15.2,15.2,0,1,1,15.2,15.2A15.194,15.194,0,0,1,3044.8,6183.76Z" transform="translate(-2931.712 -6027.13)" fill="#00ebd5" style="isolation: isolate"/>
        <circle id="Elipse_23" data-name="Elipse 23" cx="10.318" cy="10.318" r="10.318" transform="translate(44.548 5.402)" fill="#b95e89"/>
        <path id="Trazado_351" data-name="Trazado 351" d="M2954.667,6195.359a11.85,11.85,0,1,0,11.85-11.851A11.846,11.846,0,0,0,2954.667,6195.359Z" transform="translate(-2901.333 -6038.729)" fill="#b95e89"/>
      </g>
    </g>
    <g id="LUPA-ELEMENTO_AUX" data-name="LUPA-ELEMENTO AUX" transform="translate(960.121 616.041)">
      <g id="Grupo_148" data-name="Grupo 148">
        <g id="Grupo_147" data-name="Grupo 147" transform="translate(0 0)">
          <g id="Grupo_146" data-name="Grupo 146" transform="translate(83.636)">
            <ellipse id="Elipse_24" data-name="Elipse 24" cx="36.9" cy="36.889" rx="36.9" ry="36.889" transform="matrix(0.122, -0.993, 0.993, 0.122, 0, 73.246)" fill="#fff"/>
            <path id="Trazado_352" data-name="Trazado 352" d="M4101.445,5664.988l10.364,17.827a2.665,2.665,0,1,0,4.6-2.686l-10.365-17.827a18.162,18.162,0,1,0-4.6,2.686Zm-17.828-10.375a12.861,12.861,0,1,1,17.578,4.646A12.885,12.885,0,0,1,4083.618,5654.612Z" transform="translate(-4059.467 -5617.258)" fill="#e07070"/>
          </g>
          <circle id="Elipse_25" data-name="Elipse 25" cx="9.076" cy="9.076" r="9.076" transform="translate(0 29.707)" fill="#b95e89"/>
        </g>
      </g>
    </g>
  </g>
</svg>
