<svg xmlns="http://www.w3.org/2000/svg" width="72.543" height="72.431" viewBox="0 0 72.543 72.431">
  <g id="Grupo_112" data-name="Grupo 112" transform="translate(406.329 -556.725)">
    <path id="Trazado_298" data-name="Trazado 298" d="M-406.329,606.287a2.1,2.1,0,0,1,2.063-1.032c6.043.033,12.087.016,18.131.016h.914c.015-.323.038-.6.038-.868q0-7.614,0-15.227c0-1.58.453-2.039,2.014-2.04q13.1,0,26.206,0c1.55,0,2.029.479,2.03,2.032q0,10.588,0,21.175v.926h19.089c1.579,0,2.057.487,2.057,2.087q0,5.6,0,11.191c0,1.279-.578,1.859-1.855,1.859q-34.419,0-68.84.009a1.826,1.826,0,0,1-1.847-1.141Zm24.248-16.116v33.19h24.059v-33.19Zm-3.15,18.142h-18.044v15.036h18.044Zm48.387,15.064v-9h-18.007v9Z" transform="translate(0 2.742)" fill="#fff"/>
    <path id="Trazado_299" data-name="Trazado 299" d="M-367.658,565.388c2.468.144,4.918.28,7.366.437a3.086,3.086,0,0,1,1.162.234,1.5,1.5,0,0,1,.095,2.59c-1.827,1.569-3.654,3.138-5.5,4.679a.943.943,0,0,0-.358,1.14c.634,2.368,1.2,4.752,1.814,7.127a1.621,1.621,0,0,1-.512,1.907,1.562,1.562,0,0,1-2.014-.143c-1.93-1.317-3.866-2.624-5.774-3.97a.81.81,0,0,0-1.112.008c-1.891,1.33-3.808,2.624-5.717,3.929-.845.579-1.458.633-2.073.172a1.664,1.664,0,0,1-.485-1.978c.614-2.373,1.188-4.756,1.814-7.126a.853.853,0,0,0-.329-1.021c-1.829-1.53-3.631-3.091-5.453-4.63a1.637,1.637,0,0,1-.714-1.842c.221-.706.759-1.024,1.726-1.079,2.334-.132,4.666-.286,7-.4a.661.661,0,0,0,.7-.52c.837-2.328,1.7-4.648,2.55-6.971.319-.867.75-1.2,1.536-1.2a1.509,1.509,0,0,1,1.547,1.2C-369.484,560.4-368.578,562.88-367.658,565.388Zm.747,13.418c-.451-1.8-.835-3.4-1.258-4.988a1.605,1.605,0,0,1,.532-1.776c.626-.539,1.255-1.073,1.879-1.614.644-.557,1.285-1.12,2.031-1.77-1.7-.1-3.228-.218-4.759-.271a1.707,1.707,0,0,1-1.776-1.31c-.15-.495-.355-.972-.535-1.459-.354-.958-.709-1.918-1.138-3.076-.592,1.606-1.108,3.009-1.628,4.41-.427,1.153-.737,1.366-1.972,1.434-1.49.082-2.978.179-4.623.279,1.366,1.174,2.591,2.238,3.829,3.288a1.7,1.7,0,0,1,.614,1.947c-.219.721-.38,1.458-.563,2.189-.211.849-.418,1.7-.665,2.706l3.777-2.553c1.095-.74,1.432-.737,2.547.026Z" transform="translate(1.876)" fill="#fff"/>
    <path id="Trazado_300" data-name="Trazado 300" d="M-374.333,601.281c-.821-.2-1.417-.558-1.474-1.437a1.449,1.449,0,0,1,1.393-1.625c.445-.034.9-.016,1.343-.012,1.2.011,1.761.558,1.78,1.782.017,1.108,0,2.216,0,3.324q0,4.065,0,8.132a1.734,1.734,0,0,1-.641,1.562,1.477,1.477,0,0,1-2.337-.855,4.162,4.162,0,0,1-.069-.911C-374.335,607.941-374.333,604.642-374.333,601.281Z" transform="translate(2.752 3.74)" fill="#fff"/>
  </g>
</svg>
