<svg xmlns="http://www.w3.org/2000/svg" width="85.784" height="85.785" viewBox="0 0 85.784 85.785">
  <g id="Grupo_111" data-name="Grupo 111" transform="translate(510.935 -619.241)">
    <path id="Trazado_290" data-name="Trazado 290" d="M-484.907,698.485a3.9,3.9,0,0,1-2.692-4.3c.06-1.167.33-2.5-.118-3.469s-1.673-1.581-2.562-2.342c-2.386-2.042-1.947-1.293-1.993-4.273-.052-3.26.162-6.527-.47-9.767a25.86,25.86,0,0,0-3.605-9.117,33.256,33.256,0,0,1-3.913-7.269,23.469,23.469,0,0,1,.889-17.855,23.639,23.639,0,0,1,17.9-13.9,24.125,24.125,0,0,1,27.922,19.59,23.772,23.772,0,0,1-3.849,17.853,28.111,28.111,0,0,0-5.064,16.854c.036,1.731-.012,3.461.012,5.192a1.973,1.973,0,0,1-.779,1.667c-1.165.955-2.326,1.919-3.447,2.926a1.559,1.559,0,0,0-.446.975,25.132,25.132,0,0,0-.012,2.93,3.892,3.892,0,0,1-2.688,4.3Zm20.107-20.007a32.178,32.178,0,0,1,1.725-8.927,40.422,40.422,0,0,1,4.219-7.96,21.938,21.938,0,0,0-.8-24.424,21.956,21.956,0,0,0-27.292-6.769,22.148,22.148,0,0,0-11.741,24.578,26.774,26.774,0,0,0,4.107,8.628,26.767,26.767,0,0,1,4.341,11.649c.136,1.067.24,2.141.362,3.226Zm-20.429,12.845c0,1.287-.04,2.536.016,3.779a1.065,1.065,0,0,0,1.2,1.033q6.649.009,13.3,0c.6,0,1.127-.29,1.163-.867.084-1.317.026-2.642.026-3.947Zm-4.661-7.648h25.014v-2.758h-25.014Zm24.46,2.462H-489.3c1.145.961,2.152,1.829,3.19,2.658a1.235,1.235,0,0,0,.709.134q8.037.009,16.076,0a1.233,1.233,0,0,0,.707-.142C-467.579,687.961-466.574,687.1-465.429,686.136Z" transform="translate(9.316 6.541)" fill="#fff"/>
    <path id="Trazado_291" data-name="Trazado 291" d="M-463.482,641.794a2.233,2.233,0,0,1-1.861.686c-1.895-.042-3.789-.01-5.686-.016-1.013,0-1.511-.386-1.521-1.141-.01-.8.494-1.2,1.549-1.2,1.979-.006,3.959.02,5.936-.014a1.6,1.6,0,0,1,1.583.849Z" transform="translate(38.33 20.836)" fill="#fff"/>
    <path id="Trazado_292" data-name="Trazado 292" d="M-503.8,625.273a6.874,6.874,0,0,1,1.083.7q2.245,2.2,4.447,4.439a1.218,1.218,0,0,1,.156,1.779,1.2,1.2,0,0,1-1.785-.1c-1.535-1.5-3.074-3.01-4.541-4.579a1.687,1.687,0,0,1-.288-1.341C-504.651,625.837-504.156,625.6-503.8,625.273Z" transform="translate(6.165 6.023)" fill="#fff"/>
    <path id="Trazado_293" data-name="Trazado 293" d="M-506.344,642.46c-1.061,0-2.122.01-3.184,0-.851-.01-1.385-.445-1.407-1.111-.024-.723.51-1.221,1.383-1.227q3.142-.018,6.283,0c.911.006,1.4.448,1.389,1.2-.01.708-.492,1.123-1.365,1.137C-504.278,642.472-505.311,642.46-506.344,642.46Z" transform="translate(0 20.839)" fill="#fff"/>
    <path id="Trazado_294" data-name="Trazado 294" d="M-487.716,623.838c0,1,.008,2.009,0,3.012-.01.925-.422,1.429-1.151,1.441s-1.183-.484-1.189-1.4q-.018-3.1,0-6.191c.006-.909.446-1.449,1.147-1.461.729-.014,1.183.544,1.193,1.5C-487.708,621.773-487.716,622.807-487.716,623.838Z" transform="translate(20.839 0)" fill="#fff"/>
    <path id="Trazado_295" data-name="Trazado 295" d="M-476.655,632.595c-.34-.274-.816-.47-.909-.779a1.619,1.619,0,0,1,.166-1.291,28.945,28.945,0,0,1,2.156-2.22c.807-.811,1.609-1.629,2.43-2.426.66-.64,1.329-.681,1.835-.154a1.191,1.191,0,0,1-.146,1.783q-2.234,2.266-4.515,4.489A5.556,5.556,0,0,1-476.655,632.595Z" transform="translate(33.259 6.11)" fill="#fff"/>
    <path id="Trazado_296" data-name="Trazado 296" d="M-492.7,654.678l-1.649-3.939c-.606,0-1.247.012-1.887,0-.919-.022-1.343-.422-1.359-1.325q-.033-1.8,0-3.6c.016-.9.442-1.3,1.361-1.325.336-.01.669,0,1.005,0h.861l1.637-3.961c-.4-.35-.935-.758-1.393-1.241a1.174,1.174,0,0,1,.038-1.9c.835-.863,1.681-1.715,2.546-2.546.61-.588,1.335-.676,1.825,0,1,1.373,1.939,1.127,3.346.556s2.15-1.1,1.9-2.718c-.13-.832.414-1.279,1.279-1.3q1.841-.051,3.683,0c.9.026,1.413.478,1.281,1.383-.216,1.485.3,2.276,1.769,2.516a2.249,2.249,0,0,1,.989.428,1.133,1.133,0,0,0,1.865-.29,3.522,3.522,0,0,1,.53-.533,1.249,1.249,0,0,1,1.977.02c.839.815,1.671,1.645,2.484,2.486a1.181,1.181,0,0,1,.04,1.9c-.456.484-1,.889-1.4,1.243l1.643,3.959c.584,0,1.225-.014,1.865,0,.909.022,1.345.432,1.361,1.323q.033,1.8,0,3.6c-.018.9-.46,1.421-1.355,1.3-1.527-.208-2.352.3-2.64,1.853a9.906,9.906,0,0,1-.945,2.078c.434.376.949.763,1.393,1.221a1.223,1.223,0,0,1-.008,2.024q-1.2,1.229-2.428,2.426a1.248,1.248,0,0,1-2.029-.012c-.456-.448-.849-.957-1.187-1.343l-3.9,1.615c0,.586.02,1.251-.006,1.917a1.222,1.222,0,0,1-1.345,1.365q-1.8.048-3.6,0c-.951-.024-1.335-.452-1.359-1.427-.014-.638,0-1.277,0-1.845l-3.915-1.635c-.326.382-.709.9-1.163,1.349a1.256,1.256,0,0,1-2.034.014q-1.229-1.2-2.428-2.426a1.219,1.219,0,0,1-.006-2.02C-493.61,655.405-493.094,655.018-492.7,654.678Zm-2.52-6.283c.6,0,1.153-.006,1.7,0a1.445,1.445,0,0,1,1.451,1.129c.53,1.453,1.123,2.888,1.781,4.289a1.4,1.4,0,0,1-.274,1.871c-.4.368-.785.758-1.115,1.077L-490.53,658c.418-.45.8-.891,1.217-1.3a1.235,1.235,0,0,1,1.737-.158,11.111,11.111,0,0,0,4.293,1.777,1.266,1.266,0,0,1,1.125,1.421c-.014.57,0,1.141,0,1.721h1.621c0-.609.014-1.161,0-1.713a1.255,1.255,0,0,1,1.111-1.429,11.125,11.125,0,0,0,4.295-1.773,1.254,1.254,0,0,1,1.8.2c.4.422.759.877,1.263,1.465.342-.436.546-.7.755-.963.1-.13.216-.25.356-.412-.358-.344-.7-.669-1.035-1-.819-.79-.8-1.2-.306-2.208a37.684,37.684,0,0,0,1.653-3.987c.33-.927.59-1.227,1.6-1.249.52-.012,1.039,0,1.567,0v-1.567c-.628,0-1.209.016-1.789,0a1.206,1.206,0,0,1-1.281-.987,12.55,12.55,0,0,0-1.887-4.611,1.141,1.141,0,0,1,.22-1.583c.428-.4.863-.787,1.359-1.237l-1.359-1.279c-.38.462-.723.939-1.129,1.357a1.188,1.188,0,0,1-1.661.2,11.991,11.991,0,0,0-4.521-1.883,1.167,1.167,0,0,1-1-1.257c0-.58,0-1.157,0-1.767h-1.625c0,.566-.016,1.065,0,1.561.032.863-.392,1.263-1.205,1.545a38.131,38.131,0,0,0-4.207,1.765,1.4,1.4,0,0,1-1.871-.244c-.37-.4-.7-.843-1.049-1.269l-.058.334-1.267.889c.484.466.857.843,1.251,1.2a1.383,1.383,0,0,1,.224,1.867c-.656,1.4-1.217,2.85-1.747,4.3a1.4,1.4,0,0,1-1.379,1.1c-.578.008-1.155,0-1.761,0Z" transform="translate(13.301 12.087)" fill="#fff"/>
    <path id="Trazado_297" data-name="Trazado 297" d="M-485.358,651.828a8.214,8.214,0,0,1-8.236-8.168,8.243,8.243,0,0,1,8.174-8.326,8.254,8.254,0,0,1,8.282,8.308A8.214,8.214,0,0,1-485.358,651.828Zm.02-2.352a5.891,5.891,0,0,0,5.852-5.868,5.952,5.952,0,0,0-5.91-5.922,5.941,5.941,0,0,0-5.848,5.979A5.883,5.883,0,0,0-485.338,649.476Z" transform="translate(17.316 16.07)" fill="#fff"/>
  </g>
</svg>
