<svg xmlns="http://www.w3.org/2000/svg" width="77.086" height="77.079" viewBox="0 0 77.086 77.079">
  <g id="Grupo_114" data-name="Grupo 114" transform="translate(175.06 -587.305)">
    <path id="Trazado_306" data-name="Trazado 306" d="M-100.544,664.384q-6.16-6.314-12.322-12.629c-2.75-2.815-5.509-5.622-8.436-8.61-8.866,7.417-18.814,10.195-29.96,7.276A31.117,31.117,0,0,1-169.5,637.49a32.136,32.136,0,0,1,5.113-41.989,32.1,32.1,0,0,1,42.88.025c10.265,9.046,16.512,28.424,2.32,45.629,5.565,5.484,11.151,11.008,16.759,16.509,1.449,1.421,2.967,2.768,4.455,4.149v2.57Zm-71.34-45.368a29.03,29.03,0,0,0,28.771,29.336,29.142,29.142,0,0,0,29.1-28.53,29.168,29.168,0,0,0-28.817-29.342C-158.566,590.4-171.8,603.4-171.883,619.015Z" transform="translate(0 0)" fill="#fff"/>
    <path id="Trazado_307" data-name="Trazado 307" d="M-135.347,613.718c0,4.45-.057,8.9.028,13.347.037,1.97-.7,2.832-2.7,2.775-2.565-.071-5.133-.037-7.7-.011-1.717.017-2.489-.793-2.486-2.5q.023-13.6,0-27.207c0-1.708.764-2.522,2.483-2.506,2.652.026,5.3.031,7.956,0,1.728-.019,2.453.764,2.433,2.5C-135.383,604.649-135.347,609.184-135.347,613.718Zm-9.339-12.738v25.377h6.013V600.98Z" transform="translate(14.844 5.697)" fill="#fff"/>
    <path id="Trazado_308" data-name="Trazado 308" d="M-145.66,615.125c0,2.91-.043,5.819.017,8.727.034,1.73-.708,2.539-2.428,2.528q-3.978-.026-7.957,0c-1.683.014-2.5-.7-2.492-2.466.042-5.9.033-11.806.006-17.709-.008-1.6.66-2.379,2.292-2.362,2.737.03,5.476.044,8.214,0,1.807-.031,2.393.887,2.363,2.557C-145.7,609.308-145.66,612.217-145.66,615.125Zm-9.519-7.957v15.739h6.147V607.168Z" transform="translate(9.14 9.139)" fill="#fff"/>
    <path id="Trazado_309" data-name="Trazado 309" d="M-168.824,616.521c.095-7.386-.977-6.4,6.346-6.409,7.257-.008,6.478-1,6.5,6.586.019,6.791.616,6.251-6.156,6.243h-.256C-169.78,622.91-168.749,623.618-168.824,616.521Zm9.442-3.093h-6.147v6.049h6.147Z" transform="translate(3.44 12.579)" fill="#fff"/>
  </g>
</svg>
