<svg xmlns="http://www.w3.org/2000/svg" width="75.727" height="86.122" viewBox="0 0 75.727 86.122">
  <g id="Grupo_113" data-name="Grupo 113" transform="translate(289.199 -688.433)" style="isolation: isolate">
    <path id="Trazado_301" data-name="Trazado 301" d="M-289.2,746.693c2.788-3.1,5.484-6.285,8.386-9.273,5.534-5.7,11.614-10.949,15.347-18.121a109.216,109.216,0,0,0,4.891-11.3,9.634,9.634,0,0,0,.3-7.435c-1.16-2.922.428-6.189,3.08-8a7.548,7.548,0,0,1,8.613.2,26.106,26.106,0,0,1,2.755,2.513q12.917,12.9,25.82,25.806c1.98,1.974,3.429,4.18,3.083,7.1a7.6,7.6,0,0,1-9.91,6.412,6.559,6.559,0,0,0-2.719-.609,49.094,49.094,0,0,0-19.059,8.171c4.408,6.052,4.326,7.886-.834,14.237,1.529,1.421,3.168,2.839,4.685,4.379,4.492,4.56,3.706,9.781-1.893,12.973a3.1,3.1,0,0,0-.569.559h-4.024l-16.382-14.32c-.552.5-1.218,1.172-1.945,1.765-2.74,2.237-6.75,2.66-9.243.281-3.693-3.524-6.941-7.515-10.378-11.307Zm22.241-16.35,11,11.007a59.539,59.539,0,0,1,22.314-11.742l-21.62-21.635A57.865,57.865,0,0,1-266.958,730.343Zm6.517,15.394L-271.2,735c-3.9,3.881-7.973,7.9-12,11.974-1.341,1.357-1.068,2.719.243,4.006,2.119,2.08,4.228,4.17,6.291,6.3,1.525,1.577,3.054,1.458,4.509.042C-268.19,753.454-264.271,749.53-260.44,745.737Zm7.268-49.695c-.8.667-1.982,1.241-1.937,1.694a6.525,6.525,0,0,0,1.237,3.755c8.849,9.029,17.822,17.938,26.763,26.875,1.31,1.31,2.787,2.381,4.429.676,1.517-1.576.5-2.964-.741-4.206q-13.518-13.5-27.045-27A17.321,17.321,0,0,0-253.173,696.043Zm-10.6,59.812c4.3,4.322,8.252,8.442,12.417,12.331.683.638,2.313.26,3.5.352.046-1.2.628-2.91.051-3.521-4.027-4.253-8.294-8.278-12.244-12.141Zm10.515-3.661c3.552-2.6,3.593-3.913.152-6.614l-3.288,3.053Z" transform="translate(0 0.255)" fill="#fff"/>
    <path id="Trazado_302" data-name="Trazado 302" d="M-242.743,693.314c.139-2.031-.576-4.846,2.511-4.881s2.611,2.746,2.555,4.787.8,5.034-2.612,4.961C-243.431,698.114-242.57,695.277-242.743,693.314Z" transform="translate(4.124)" fill="#fff"/>
    <path id="Trazado_303" data-name="Trazado 303" d="M-223.354,706.877c1.8.076,4.554-.5,4.507,2.6-.042,2.812-2.632,2.453-4.624,2.478-.67.009-1.339,0-2.009,0-1.722,0-3.12-.574-3.181-2.506-.061-1.982,1.324-2.565,3.063-2.568C-224.929,706.876-224.259,706.877-223.354,706.877Z" transform="translate(5.374 1.637)" fill="#fff"/>
    <path id="Trazado_304" data-name="Trazado 304" d="M-231.888,697.881c1.534-1.338,3.02-3.834,5.227-1.677s-.1,3.789-1.579,5.192-2.994,4.125-5.355,1.661C-235.768,700.789-233.153,699.391-231.888,697.881Z" transform="translate(4.862 0.615)" fill="#fff"/>
    <path id="Trazado_305" data-name="Trazado 305" d="M-276.033,741.468c1.534-1.337,3.02-3.834,5.227-1.677s-.1,3.789-1.579,5.192-2.994,4.125-5.356,1.661C-279.913,744.376-277.3,742.979-276.033,741.468Z" transform="translate(0.943 4.484)" fill="#fff"/>
  </g>
</svg>
