<svg width="72" height="56" viewBox="0 0 72 56" fill="none" xmlns="http://www.w3.org/2000/svg">
<path fill-rule="evenodd" clip-rule="evenodd" d="M19.3008 32.7208C18.6921 32.5724 18.2679 33.0361 17.8252 33.4442C15.5932 35.5959 12.9739 37.0427 10.0041 37.8403C9.48766 37.9887 8.97119 38.1186 8.45471 38.1928C7.846 38.3041 7.29262 37.9145 7.2004 37.3581C7.08972 36.7274 7.36641 36.3008 7.93823 36.1338C8.43626 35.9669 8.97119 35.8741 9.46922 35.7443C12.1808 35.0023 14.5418 33.6668 16.534 31.682C17.5116 30.6989 18.6368 30.2908 19.9833 30.6433C20.6105 30.8287 20.9978 31.3852 20.8687 31.9232C20.7211 32.5353 20.2969 32.7764 19.6882 32.7579C19.5959 32.7579 19.4853 32.7393 19.3008 32.7208ZM4.30441 29.9198C3.75103 29.9198 3.17921 29.9569 2.62584 29.9198C1.81422 29.8827 1.44531 29.5303 1.44531 28.8625C1.44531 28.1762 1.81423 27.8052 2.58895 27.7867C3.43746 27.7496 4.28595 27.7681 5.11601 27.7681C8.03045 27.7125 10.2624 26.4882 11.7565 23.9655C12.3468 22.9824 12.8632 22.7413 13.4904 23.1123C14.0991 23.4833 14.1729 24.151 13.6195 25.0785C11.8303 28.102 9.17408 29.7158 5.66939 29.9198C5.22669 29.9569 4.76555 29.9198 4.30441 29.9198ZM27.6568 21.1646C27.6568 21.8138 27.6752 22.4445 27.6383 23.0752C27.6014 23.7801 27.1956 24.1881 26.6238 24.2067C25.9966 24.2252 25.5539 23.7986 25.517 23.0566C25.4802 22.4816 25.4801 21.9251 25.4986 21.3501C25.5539 19.4581 25.3141 17.6217 24.4472 15.8967C24.2074 15.4329 24.1336 14.8764 24.5763 14.5426C24.853 14.32 25.3695 14.2087 25.7199 14.3014C26.0151 14.3756 26.2918 14.7837 26.4578 15.1176C27.1956 16.5459 27.583 18.0855 27.6383 19.6807C27.6752 20.1815 27.6568 20.6823 27.6568 21.1646ZM22.3444 19.4766C21.9201 19.7178 21.459 19.5137 21.1638 19.0871C20.9978 18.8645 20.9056 18.5863 20.7949 18.3266C20.0386 16.6386 18.8028 15.5442 17.0135 15.099C16.866 15.0619 16.7369 15.0434 16.5893 15.0063C15.999 14.8208 15.7223 14.4127 15.7961 13.8006C15.8699 13.207 16.331 12.8546 17.0135 12.9102C17.364 12.9473 17.696 13.0401 18.0465 13.1328C20.426 13.8748 21.9755 15.4886 22.8793 17.7887C22.9346 17.9185 22.9715 18.0669 23.0084 18.1968C23.0269 18.271 23.0269 18.3266 23.0269 18.4008C22.9715 18.9758 22.6948 19.2911 22.3444 19.4766ZM4.23062 19.5137C4.35974 17.8629 4.80244 16.212 5.65095 14.6539C5.94608 14.1159 6.33344 13.7449 6.99749 13.9119C7.62464 14.0603 7.99356 14.7837 7.66154 15.4144C6.86837 16.954 6.44411 18.5677 6.35188 20.2928C6.33344 20.9791 5.8723 21.3687 5.28203 21.3501C4.69177 21.3501 4.30441 20.9235 4.24907 20.2557C4.23063 20.0331 4.23062 19.8291 4.23062 19.5137ZM31.8993 36.0782H29.8334V30.161H23.3773V36.0782H21.3114C21.3114 36.0782 21.2745 23.3163 21.3299 22.7969C21.3667 22.1663 21.6988 21.8324 22.3259 21.8138C22.9531 21.7953 23.3589 22.1477 23.3773 22.7598C23.4265 23.8604 23.4265 24.9548 23.3773 26.0431C23.3773 26.0616 23.3773 28.4916 23.3773 28.4916H29.8334V22.1848C29.7596 20.9235 29.7411 19.6621 29.5936 18.4193C28.6713 10.6287 20.9425 5.06393 13.3059 6.65916C13.1584 6.69626 13.0293 6.7519 12.9001 6.77045C12.1623 6.88174 11.5536 6.51077 11.4429 5.89865C11.3507 5.37927 11.7012 4.84134 12.3652 4.67439C13.1215 4.50745 13.8778 4.34051 14.6525 4.28487C24.7054 3.5429 32.1391 11.5932 31.8993 20.6638C31.8993 20.8678 31.8993 36.0782 31.8993 36.0782ZM42.1182 26.6181V36.0782H40.4212V35.3733C39.7756 36.0596 38.8349 36.4306 37.765 36.4306C35.3486 36.4306 33.6516 34.687 33.6516 32.1643V26.6181H35.3486V31.9973C35.3486 33.6853 36.3632 34.8168 37.8757 34.8168C39.3883 34.8168 40.4212 33.7224 40.4212 32.1457V26.6181H42.1182ZM53.4439 31.2183C53.4439 31.5336 53.4255 32.0344 53.3333 32.4054L53.2779 32.6466H45.6045C46.0656 34.0007 47.1724 34.8354 48.5374 34.8354C49.7732 34.8354 50.9722 34.2047 51.3965 33.3514L51.4703 33.1845H53.2041C53.2041 33.1845 52.9459 33.8894 52.8537 34.1305C52.245 35.5217 50.382 36.4306 48.5189 36.4306C45.7152 36.4306 43.6861 34.2418 43.6861 31.1997C43.6861 28.3432 45.7336 26.2656 48.5374 26.2656C51.378 26.2656 53.4439 28.3617 53.4439 31.2183ZM45.3831 31.107H51.7285C51.7285 30.2352 51.4149 29.4561 50.8615 28.8625C50.2713 28.2319 49.4228 27.8794 48.5005 27.8794C46.7112 27.8794 45.42 29.2335 45.3831 31.107ZM56.7088 22.5744V36.0782H55.0118V22.5744H56.7088ZM60.4718 22.5744V36.0782H58.7932V22.5744H60.4718ZM71.9451 31.3481V36.0782H70.3218V35.0209C69.5102 35.9298 68.3297 36.4306 66.9831 36.4306C64.0503 36.4306 62.0212 34.3345 62.0212 31.3481C62.0212 28.3988 64.1056 26.2656 66.9831 26.2656C69.8607 26.2656 71.9451 28.3988 71.9451 31.3481ZM70.2665 31.3481C70.2665 29.3448 68.8831 27.8794 66.9831 27.8794C65.0832 27.8794 63.6998 29.3448 63.6998 31.3481C63.6998 33.3885 65.0463 34.8168 66.9831 34.8168C68.8831 34.8168 70.2665 33.37 70.2665 31.3481Z" fill="#D2D9E0"/>
<path fill-rule="evenodd" clip-rule="evenodd" d="M4.02834 38.6194C8.51066 38.6194 11.4989 41.2349 11.4989 45.1116C11.4989 48.9884 8.51066 51.6038 4.02834 51.6038H0.0625V38.6194H4.02834ZM1.81485 49.9344H4.02834C7.49615 49.9344 9.74653 48.0424 9.74653 45.1116C9.74653 42.1809 7.49615 40.2888 4.02834 40.2888H1.81485V49.9344Z" fill="url(#paint0_radial_195_31950)"/>
<path d="M16.5352 39.9179C16.5352 40.5485 16.9779 41.0123 17.6235 41.0123C18.2691 41.0123 18.7118 40.5485 18.7118 39.9179C18.7118 39.2686 18.2506 38.8235 17.6235 38.8235C16.9963 38.8235 16.5352 39.2686 16.5352 39.9179Z" fill="url(#paint1_radial_195_31950)"/>
<path d="M18.1753 42.1437H17.087H16.7734V42.4405V51.2885V51.6038H17.087H18.1753H18.4705V51.2885V42.4405V42.1437H18.1753Z" fill="url(#paint2_radial_195_31950)"/>
<path fill-rule="evenodd" clip-rule="evenodd" d="M28.5596 41.7913C31.4187 41.7913 33.503 43.9245 33.503 46.8552V51.3256C33.503 54.0338 31.4924 56 28.7256 56C26.3276 56 24.2617 54.4975 23.8006 52.4385V52.4014V51.5296H25.3869L25.4053 51.7893C25.6082 53.2918 26.9732 54.3862 28.6887 54.3862C30.4964 54.3862 31.806 53.0878 31.806 51.2885V50.4352C30.976 51.3812 29.8139 51.9006 28.5042 51.9006C25.6636 51.9006 23.5977 49.786 23.5977 46.8552C23.5977 43.9245 25.682 41.7913 28.5596 41.7913ZM28.5596 50.2683C30.5148 50.2683 31.8245 48.8957 31.8245 46.8552C31.8245 44.8148 30.4779 43.4051 28.5596 43.4051C26.6597 43.4051 25.2947 44.8519 25.2947 46.8552C25.2947 48.84 26.6597 50.2683 28.5596 50.2683Z" fill="url(#paint3_radial_195_31950)"/>
<path d="M38.7422 39.9179C38.7422 40.5485 39.1849 41.0123 39.8305 41.0123C40.4761 41.0123 40.9188 40.5485 40.9188 39.9179C40.9188 39.2686 40.4576 38.8235 39.8305 38.8235C39.2033 38.8235 38.7422 39.2686 38.7422 39.9179Z" fill="url(#paint4_radial_195_31950)"/>
<path d="M40.3639 42.1437H39.294H38.9805V42.4405V51.2885V51.6038H39.294H40.3639H40.6775V51.2885V42.4405V42.1437H40.3639Z" fill="url(#paint5_radial_195_31950)"/>
<path d="M48.2955 38.8235H47.2072H46.9121V39.1202V42.1438H45.7315H45.418V42.4405V43.368V43.6648H45.7315H46.9121V49.2295C46.9121 50.8433 47.9266 51.9563 49.3838 51.9563C49.8818 51.9563 50.4537 51.8635 50.8779 51.7151L51.0808 51.6595V51.4369V50.4723V50.0643L50.6935 50.1755C50.3799 50.2868 49.9372 50.3425 49.6236 50.3425C48.9965 50.3239 48.5906 49.8788 48.5906 49.1553V43.6648H50.6197H50.9333V43.368V42.4405V42.1438H50.6197H48.5906V39.1202V38.8235H48.2955Z" fill="url(#paint6_radial_195_31950)"/>
<path fill-rule="evenodd" clip-rule="evenodd" d="M60.0283 41.7913C62.9059 41.7913 64.9902 43.9245 64.9902 46.8552V51.6038H63.367V50.5465C62.5554 51.4554 61.3749 51.9563 60.0283 51.9563C57.1139 51.9563 55.0664 49.8602 55.0664 46.8552C55.0664 43.9245 57.1508 41.7913 60.0283 41.7913ZM60.0283 50.3425C61.9282 50.3425 63.3117 48.8771 63.3117 46.8552C63.3117 44.8519 61.9282 43.4051 60.0283 43.4051C58.1284 43.4051 56.745 44.8519 56.745 46.8552C56.745 48.9142 58.0915 50.3425 60.0283 50.3425Z" fill="url(#paint7_radial_195_31950)"/>
<path d="M71.6881 38.1H70.6183H70.3047V38.3968V51.2885V51.6038H70.6183H71.6881H72.0017V51.2885V38.3968V38.1H71.6881Z" fill="url(#paint8_radial_195_31950)"/>
<path d="M15.0404 17.2322C13.7492 17.6403 12.9929 18.5677 12.7531 19.9033C12.624 20.6267 12.956 21.1646 13.5463 21.313C14.155 21.48 14.653 21.1646 14.8744 20.4412C14.9297 20.2743 15.2249 19.3468 15.9811 19.3468C16.9957 19.3468 16.9403 20.6081 16.9403 20.8864C16.885 26.2656 12.4949 31.2183 7.20095 31.8675C6.31556 31.9788 5.4486 31.9602 4.5632 32.053C3.88071 32.1272 3.54869 32.5353 3.56713 33.1659C3.60403 33.8152 3.95449 34.1305 4.5632 34.1862C4.95056 34.2047 5.33793 34.1862 5.72529 34.1862C12.9745 34.0934 19.0062 28.102 19.1723 20.8307C19.1907 19.8662 18.9694 18.9944 18.3606 18.2524C17.7519 17.5104 16.8481 17.0838 15.9442 17.0838C15.6368 17.0838 15.3355 17.1333 15.0404 17.2322Z" fill="url(#paint9_radial_195_31950)"/>
<path d="M12.9907 0.204048C12.4742 0.278245 11.9516 0.364801 11.4228 0.46373C9.48597 0.834713 7.65984 1.57668 5.94438 2.59689C5.31722 2.96787 5.15122 3.57999 5.44635 4.11792C5.75993 4.6744 6.29485 4.7857 6.99579 4.47036C7.1618 4.41471 7.30938 4.32196 7.47539 4.24777C13.0952 1.41593 18.7273 1.40356 24.3717 4.21067C24.63 4.34051 24.8697 4.48891 25.128 4.60021C25.6629 4.80425 26.1056 4.6002 26.4007 4.15502C26.7143 3.67274 26.6405 3.19046 26.2163 2.81948C25.9212 2.55979 25.5891 2.3743 25.2387 2.18881C25.0788 2.11462 24.9128 2.03423 24.7406 1.94766C22.0107 0.630672 19.004 0 15.9789 0C14.9828 0 13.9867 0.0680205 12.9907 0.204048Z" fill="url(#paint10_radial_195_31950)"/>
<path d="M11.6079 14.2087C9.61577 15.637 8.60125 17.6217 8.47213 20.0517C8.34301 22.2776 7.23626 23.3905 5.02277 23.4833C4.45095 23.5018 3.89759 23.4833 3.32577 23.4833C2.86462 23.4833 2.42192 23.4647 1.96078 23.4833C1.14916 23.5018 0.669568 23.9284 0.688013 24.5777C0.706459 25.1898 1.14916 25.6164 1.90544 25.6535C2.5326 25.6906 3.15975 25.6535 3.80535 25.6535V25.6721H4.43251C8.39836 25.6721 10.2614 23.947 10.6487 19.9404C10.8147 18.2709 11.5341 16.9169 12.8991 15.9338C13.1205 15.7668 13.3603 15.5813 13.5078 15.3587C13.9505 14.7095 13.5447 13.8191 12.7516 13.8006C12.3642 13.8006 11.9215 13.9861 11.6079 14.2087Z" fill="url(#paint11_radial_195_31950)"/>
<path d="M8.0854 6.38093C7.86405 6.43658 7.62425 6.56643 7.42135 6.69627C2.84679 9.70124 0.430401 13.9861 0.0245944 19.4396C0.0245944 19.792 -0.030743 20.163 0.0245944 20.4969C0.116823 21.0162 0.467288 21.313 0.965324 21.3501C1.48181 21.3872 1.86917 21.1275 2.01674 20.6453C2.09052 20.4041 2.10897 20.163 2.12742 19.9218C2.33032 15.0434 4.52536 11.2965 8.50965 8.58829C8.71255 8.45845 8.93391 8.32859 9.09992 8.16165C9.50572 7.75357 9.56106 7.28984 9.28438 6.80756C9.08147 6.45513 8.78634 6.32529 8.47276 6.32529C8.34979 6.33765 8.22067 6.3562 8.0854 6.38093Z" fill="url(#paint12_radial_195_31950)"/>
<path d="M13.9689 8.68103C12.6408 9.10766 11.3312 9.58994 10.0584 10.165C9.37595 10.4617 9.24683 11.1295 9.56041 11.6674C9.85554 12.1683 10.3905 12.2981 11.0361 12.0384C11.2759 11.9457 11.4788 11.8158 11.7001 11.7045C13.3787 10.8327 15.1495 10.5359 17.0125 10.74C18.6173 10.9255 20.0561 11.5005 21.4026 12.4094C22.1404 12.8917 22.7676 12.7804 23.1365 12.1868C23.4501 11.6489 23.2656 11.0739 22.6016 10.5545C22.4786 10.4803 22.3618 10.4061 22.2511 10.3319C20.3143 9.1262 18.2299 8.49553 15.9426 8.45844C15.2786 8.53263 14.5961 8.49554 13.9689 8.68103Z" fill="url(#paint13_radial_195_31950)"/>
<defs>
<radialGradient id="paint0_radial_195_31950" cx="0" cy="0" r="1" gradientUnits="userSpaceOnUse" gradientTransform="translate(26.497 1.65071) rotate(90) scale(56.205 55.8916)">
<stop stop-color="#D90452"/>
<stop offset="1" stop-color="#740646"/>
</radialGradient>
<radialGradient id="paint1_radial_195_31950" cx="0" cy="0" r="1" gradientUnits="userSpaceOnUse" gradientTransform="translate(26.4975 1.65076) rotate(90) scale(56.2049 55.8916)">
<stop stop-color="#D90452"/>
<stop offset="1" stop-color="#740646"/>
</radialGradient>
<radialGradient id="paint2_radial_195_31950" cx="0" cy="0" r="1" gradientUnits="userSpaceOnUse" gradientTransform="translate(26.496 1.65067) rotate(90) scale(56.205 55.8917)">
<stop stop-color="#D90452"/>
<stop offset="1" stop-color="#740646"/>
</radialGradient>
<radialGradient id="paint3_radial_195_31950" cx="0" cy="0" r="1" gradientUnits="userSpaceOnUse" gradientTransform="translate(26.4953 1.65071) rotate(90) scale(56.2049 55.8916)">
<stop stop-color="#D90452"/>
<stop offset="1" stop-color="#740646"/>
</radialGradient>
<radialGradient id="paint4_radial_195_31950" cx="0" cy="0" r="1" gradientUnits="userSpaceOnUse" gradientTransform="translate(26.4959 1.65076) rotate(90) scale(56.2049 55.8916)">
<stop stop-color="#D90452"/>
<stop offset="1" stop-color="#740646"/>
</radialGradient>
<radialGradient id="paint5_radial_195_31950" cx="0" cy="0" r="1" gradientUnits="userSpaceOnUse" gradientTransform="translate(26.4943 1.65067) rotate(90) scale(56.205 55.8917)">
<stop stop-color="#D90452"/>
<stop offset="1" stop-color="#740646"/>
</radialGradient>
<radialGradient id="paint6_radial_195_31950" cx="0" cy="0" r="1" gradientUnits="userSpaceOnUse" gradientTransform="translate(26.4943 1.65071) rotate(90) scale(56.2049 55.8917)">
<stop stop-color="#D90452"/>
<stop offset="1" stop-color="#740646"/>
</radialGradient>
<radialGradient id="paint7_radial_195_31950" cx="0" cy="0" r="1" gradientUnits="userSpaceOnUse" gradientTransform="translate(26.4956 1.6507) rotate(90) scale(56.2049 55.8916)">
<stop stop-color="#D90452"/>
<stop offset="1" stop-color="#740646"/>
</radialGradient>
<radialGradient id="paint8_radial_195_31950" cx="0" cy="0" r="1" gradientUnits="userSpaceOnUse" gradientTransform="translate(26.4976 1.6507) rotate(90) scale(56.205 55.8917)">
<stop stop-color="#D90452"/>
<stop offset="1" stop-color="#740646"/>
</radialGradient>
<radialGradient id="paint9_radial_195_31950" cx="0" cy="0" r="1" gradientUnits="userSpaceOnUse" gradientTransform="translate(26.4969 1.65069) rotate(90) scale(56.205 55.8916)">
<stop stop-color="#D90452"/>
<stop offset="1" stop-color="#740646"/>
</radialGradient>
<radialGradient id="paint10_radial_195_31950" cx="0" cy="0" r="1" gradientUnits="userSpaceOnUse" gradientTransform="translate(26.4946 1.6507) rotate(90) scale(56.2051 55.8916)">
<stop stop-color="#D90452"/>
<stop offset="1" stop-color="#740646"/>
</radialGradient>
<radialGradient id="paint11_radial_195_31950" cx="0" cy="0" r="1" gradientUnits="userSpaceOnUse" gradientTransform="translate(26.4953 1.6507) rotate(90) scale(56.205 55.8916)">
<stop stop-color="#D90452"/>
<stop offset="1" stop-color="#740646"/>
</radialGradient>
<radialGradient id="paint12_radial_195_31950" cx="0" cy="0" r="1" gradientUnits="userSpaceOnUse" gradientTransform="translate(26.4959 1.6507) rotate(90) scale(56.205 55.8916)">
<stop stop-color="#D90452"/>
<stop offset="1" stop-color="#740646"/>
</radialGradient>
<radialGradient id="paint13_radial_195_31950" cx="0" cy="0" r="1" gradientUnits="userSpaceOnUse" gradientTransform="translate(26.4953 1.6507) rotate(90) scale(56.2049 55.8916)">
<stop stop-color="#D90452"/>
<stop offset="1" stop-color="#740646"/>
</radialGradient>
</defs>
</svg>
