<svg xmlns="http://www.w3.org/2000/svg" width="81.585" height="7" viewBox="0 0 81.585 7"><defs><style>.a{fill:#d2d9e0;}</style></defs><g transform="translate(0 0)"><path class="a" d="M3305.939-1528.987a7.335,7.335,0,0,1-4.9-1.695c-.444-.369-.886-.743-1.3-1.144a5.4,5.4,0,0,0-3.708-1.688c-.787-.021-1.354-.4-1.312-1.231.045-.881.66-1.152,1.5-1.135a7.121,7.121,0,0,1,4.554,1.784c.649.547,1.258,1.146,1.931,1.661a4.983,4.983,0,0,0,6.229-.033c.535-.417,1.028-.888,1.538-1.336a7.507,7.507,0,0,1,10.432-.022c.537.47,1.055.963,1.618,1.4a4.983,4.983,0,0,0,6.148.013c.833-.642,1.579-1.4,2.42-2.027a7.328,7.328,0,0,1,8.831-.007c.761.567,1.441,1.24,2.178,1.841a5.026,5.026,0,0,0,6.632,0c.631-.516,1.209-1.1,1.848-1.6a7.421,7.421,0,0,1,9.571.074c.658.536,1.265,1.136,1.932,1.661a4.976,4.976,0,0,0,6.228.045c.834-.639,1.591-1.38,2.418-2.029a6.674,6.674,0,0,1,4.268-1.421,1.147,1.147,0,0,1,1.308,1.124,1.059,1.059,0,0,1-1.1,1.208,6.543,6.543,0,0,0-4.377,2.113c-3.723,3.364-7.566,3.349-11.244-.046-1.432-1.322-2.958-2.357-5-1.931a8.021,8.021,0,0,0-2.394,1.013,13.111,13.111,0,0,0-1.7,1.449,7.457,7.457,0,0,1-10.12.016c-.489-.421-.958-.865-1.453-1.279a5.05,5.05,0,0,0-6.793-.011c-.548.456-1.054.962-1.607,1.413a7.447,7.447,0,0,1-9.962-.129c-.567-.487-1.106-1.008-1.691-1.471a5.033,5.033,0,0,0-6.232-.056c-.672.517-1.289,1.106-1.931,1.661A7.274,7.274,0,0,1,3305.939-1528.987Z" transform="translate(-3294.721 1535.924)"/></g></svg>