<svg id="rrss" xmlns="http://www.w3.org/2000/svg" viewBox="0 0 1200 1200"><defs><style>.cls-1{fill:#00e9d3;}.cls-2{fill:#fff;}.cls-3{fill:#e2acd0;}.cls-4{fill:#d0d1de;}.cls-5{fill:#740945;}.cls-6{fill:#e5e6ed;}.cls-7{fill:#d6184f;}.cls-8{fill:#4e13d1;}.cls-9{fill:#e45940;}.cls-10{fill:#fc7171;}.cls-11{fill:#f26161;}.cls-12{fill:#fccaea;}</style></defs><path class="cls-1" d="M488,834.92c-42.16-47.57-166.67-112.25-134-186.44,27.83-63.09,161.37-55.32,145.3-131.4-9.51-45-21.84-83.4,7.21-134.57,31.64-55.73,126.23-25.39,159-77.14,28.17-44.46-8.45-113.16,49.74-142.85,51.66-26.36,114.08,25.14,123.39,70.79,11.65,57.07-44.88,83.9-52.13,133.57-4.62,31.63,24.19,42.65,40.69,64.79,15.8,21.2,30,51.7,31.05,78C861.48,588.55,775,598.76,734,648.94c-38,46.47,32.06,76.42,21.56,126.95-11.33,54.52-88.95,84.3-143.59,83.49C574.07,858.82,514.16,864.4,488,834.92Z"/><path class="cls-2" d="M543.1,860.92a3.8,3.8,0,0,1-1-.31,2.86,2.86,0,0,1-1.33-4.3c.76-1.13,78-117.25,82.44-263.17,2.95-97.28,43.38-159.53,76.54-210.59,20-30.84,37.5-57.74,40.17-84.7a4.37,4.37,0,0,1,4.52-3.82,3.75,3.75,0,0,1,3.73,4.17c-2.92,28.87-20.91,56.5-41.53,88.17-32.68,50.19-72.54,111.4-75.6,206.68C626.31,740.76,548,858.18,547.2,859.32A4.15,4.15,0,0,1,543.1,860.92Z"/><path class="cls-2" d="M629.82,593.52a3.43,3.43,0,0,1-2.9-3.71,4,4,0,0,1,4.33-3.31c32.7,2,76.4-17.16,89.61-49,1.59-3.84,3.18-8.08,4.85-12.54,8-21.41,18-48.27,39-57.94,10.28-4.72,22.19-4.74,35.21-.25a3.42,3.42,0,0,1,2,4.76,4.41,4.41,0,0,1-5.25,2.23c-11.19-3.85-20.56-3.91-28.84-.12-17.81,8.2-27.23,33.31-34.75,53.33-1.7,4.54-3.33,8.86-4.94,12.75-15.05,36.16-62.38,56-97.82,53.9A3.54,3.54,0,0,1,629.82,593.52Z"/><path class="cls-2" d="M606.61,589.84c-15.18-3.41-26.71-10.07-34.35-19.9-12.14-15.6-14-39.12-5.36-68.16.86-2.88,2-6.21,3.16-9.86,6.81-20.75,17.23-52.43,7-70-3.4-5.84-8.82-9.63-16.56-11.57a3.75,3.75,0,0,1-2.8-4.71,4.23,4.23,0,0,1,5-2.74h0c9.82,2.49,17,7.6,21.48,15.22,11.83,20.37.76,53.87-6.48,75.79-1.18,3.58-2.25,6.84-3.1,9.67-8.08,26.84-6.61,48.27,4.14,62.11,9.16,11.8,25.22,18.35,47.61,19.55a3.46,3.46,0,0,1,3.53,3.76,4,4,0,0,1-4.29,3.36A114.36,114.36,0,0,1,606.61,589.84Z"/><path class="cls-2" d="M588,814.94a37.21,37.21,0,0,1-12.58-4.59,2.91,2.91,0,0,1-.79-4.5,4.17,4.17,0,0,1,5.26-.87c19.58,11.81,59.39-3.53,76.33-15.48,7.06-5,13.41-13.64,20.13-22.84,12-16.44,24.57-33.56,44.36-34.12a3.21,3.21,0,0,1,3.66,3.21,3.86,3.86,0,0,1-3.89,3.44c-15.6.45-26.94,15.92-37.85,30.78-7.1,9.68-13.79,18.8-21.89,24.5C645.55,805.18,612.36,819.39,588,814.94Z"/><path class="cls-2" d="M555.94,807.79A46.92,46.92,0,0,1,542.39,803c-24.65-13.11-39.27-46.69-43.09-66.25-2-10.51,1.11-24.38,4.45-39.16,5.34-23.6,10.93-48.23-4.43-59.46a3.25,3.25,0,0,1-.49-4.94,4.34,4.34,0,0,1,5.54-.52c18.9,13.85,12.53,41.76,7,66.12-3.24,14.14-6.26,27.41-4.46,36.69,3.42,17.7,17.2,50,39.64,61.94A37,37,0,0,0,574,800.7a3.78,3.78,0,0,1,4.6,2.18,3.39,3.39,0,0,1-2.71,4.06A46.24,46.24,0,0,1,555.94,807.79Z"/><path class="cls-3" d="M790.15,995.13c-72.33-17.86-129.62-34-131.18-110.64-.81-39.65,16.88-67,58.71-89,33.83-17.78,51.19-23.9,59-59C789.1,680.31,762,624.93,797.37,570.6c39.47-60.6,128.54-33,169.66-87.92,36.88-49.29,57.11-113.21,135.06-112.3,65.61.77,92.36,69.29,64.28,116.83-15.8,26.75-43.48,45.6-54.7,74.24-10.7,27.34,1,49.67,11.58,74.64,23.25,55.15,28.91,112-34.38,148.43-37.83,21.78-67,40.9-53.35,81.75,14.32,42.92,20.74,67.41-31.38,99.72-39,24.15-74.49,22.19-119.22,24-41.95,1.75-98,13.24-137.57-4.93Z"/><path class="cls-2" d="M813.62,955.38c-6.12-6.9-10.22-14.11-12.25-21.57-8.73-32.15,21.84-64.35,49.54-93.54,14-14.69,27.29-28.73,33.55-40.72,17.08-32.63,22.18-61.75,18.55-107.4-4.33-54.12,10.21-76.27,54.4-112.06,37.23-30.22,74.05-63.49,84.42-96.44.79-2.57,4.07-3.95,7.3-3.09s5.22,3.61,4.41,6.17c-11.09,35-49.21,69.35-87.65,100.34-42.78,34.44-56,54.43-52,105.92,3,38.91.81,72.59-19.52,111.17-6.7,12.78-20.42,27.13-34.75,42.14-26.77,28-56.35,59-48.54,87.73,3,11.1,11.34,21.28,25.52,31.11,2.3,1.68,3.09,4.23,1.62,5.77s-4.56,1.47-6.92-.17A99.06,99.06,0,0,1,813.62,955.38Z"/><path class="cls-2" d="M905.16,743.38a4.56,4.56,0,0,1-1.27-2.8c-.1-2.4,2.22-4.09,5.21-3.78,26.17,2.86,45.5-17.56,66.32-39.55,18.45-19.47,37.82-39.92,64.34-45.5,3-.64,6.47.89,7.63,3.37s-.27,5-3.29,5.65c-23.25,4.84-41.72,24.21-59.29,42.65-21.61,22.65-43.51,45.65-75.29,42.13A7.06,7.06,0,0,1,905.16,743.38Z"/><path class="cls-2" d="M884.28,810a5,5,0,0,1-1-1.53,89.93,89.93,0,0,1-4.66-17.35c-1.65-8.65-3.1-16.14-10.73-25.64A151.67,151.67,0,0,0,855,751.84c-9.16-9-18.64-18.11-22.9-32.81-6.09-21-5.69-47.16,1.23-78,1-4.3,3.2-10.31,5.57-16.71,3.4-9.22,9.79-26.48,7.67-30.32a3.88,3.88,0,0,1,2.17-5.8,6.27,6.27,0,0,1,7.09,2.29c4.37,6.57.36,18.65-6.7,37.56-2.31,6.18-4.47,12-5.35,15.86-4.65,20.45-8.63,49.79-1.49,74.52,3.54,12.36,11.25,19.83,20.23,28.52a165.5,165.5,0,0,1,13.92,14.73c9.22,11.43,11,20.74,12.7,29.72a82.58,82.58,0,0,0,4.23,16c.94,2.34-.56,4.51-3.35,4.8A7,7,0,0,1,884.28,810Z"/><path class="cls-4" d="M355.29,984.85c-80.08-14.55-155.06-8.38-187.48-96.05-25.65-69.37,34.15-134.75-26-182.42-36.22-28.69-93.35-45.9-106-95C22.63,560.34,88,528,76.25,478.94,66.54,438.42,10.32,435.73,25,383c13-46.8,54.18-58.59,86.91-49.25,43.76,12.49,47.38,52.53,76.42,80.33,19.39,18.55,46.84-.09,75.29-3.51s64.59-.89,88.58,11.61c77.91,40.58,15.47,126.54,29.62,196.5,13.69,67.64,108.92,26.76,158.13,77.57,57.48,59.34,14.12,162-42.52,210.39C459.69,938.88,409.41,994.68,355.29,984.85Z"/><path class="cls-2" d="M432.58,967.18a4.2,4.2,0,0,1-1.28.49,5.06,5.06,0,0,1-6-3.41c-.54-1.8-52.65-176-179.53-290.68C174.35,609,157.37,542.34,144.1,490.23c-7.74-30.41-14.34-56.3-29.54-70.31-1.22-1.13-1.09-3.41.3-5.11s3.54-2.16,4.76-1.05c16.39,15,23.23,41.68,31.28,73C164.09,538.21,181,604,251.43,667.22c129.43,116.09,182.69,293,183.23,294.86A4.39,4.39,0,0,1,432.58,967.18Z"/><path class="cls-2" d="M250.91,668.53a3.8,3.8,0,0,1-5.11-.19,4.16,4.16,0,0,1,.48-5.71c25.67-25.31,42.35-74.09,25.63-104.82-2-3.62-4.27-7.48-6.67-11.5-11.38-19-25.28-42.32-18.05-65,3.55-11.09,11.94-21.14,24.8-29.9,2-1.37,4.38-1.05,5.29.71s0,4.14-2,5.66c-11.11,7.53-17.82,15.43-20.7,24.41-6.16,19.33,7,41.18,17.72,59,2.47,4.11,4.82,8,6.85,11.73,19.2,35,.28,87.65-27.77,115.16A5.82,5.82,0,0,1,250.91,668.53Z"/><path class="cls-2" d="M231.15,684.56c-13.48,9.61-26.67,14-39.34,13.22-19.64-1.22-37.54-15.23-51.85-40.14-1.39-2.42-2.94-5.3-4.62-8.43-9.47-17.58-23.52-43.71-40.73-46.11-5.61-.78-11.1,1-16.81,5.53-1.59,1.25-3.59,1-4.44-.6a4.3,4.3,0,0,1,1.29-5.12l0,0c7.21-5.69,14.56-8.11,21.88-7.13,20,2.7,34.92,30.33,45,48.94,1.67,3.07,3.2,5.89,4.58,8.28,13.32,23,29.54,35.92,47,36.93,15.23.88,31.6-7.25,48.62-24.23a3.84,3.84,0,0,1,5.58-.29,4.15,4.15,0,0,1-.43,5.73A126.15,126.15,0,0,1,231.15,684.56Z"/><path class="cls-2" d="M424,883a46.68,46.68,0,0,1-16.39,6.21,4.69,4.69,0,0,1-5.46-3.66,4.51,4.51,0,0,1,3.82-5.24c30.65-5.33,50.92-54.49,53.49-80.43,1.07-10.78-2.63-24.12-6.54-38.16C446,737,439,711.6,456.44,693.2a5.1,5.1,0,0,1,6.9-.78,4.2,4.2,0,0,1,.19,6.34c-13.9,14.58-7.43,37.67-1.13,60.2,4.16,14.87,8.12,29,6.88,41.42C467,823.77,451.54,866.38,424,883Z"/><path class="cls-2" d="M387.43,903a55,55,0,0,1-16.82,6.54C336.49,917,293.13,897.45,272.74,883c-10.68-7.59-20.08-21.89-29.92-36.83-15.32-23.31-30.84-46.92-50.4-43.95a3.56,3.56,0,0,1-4.07-3.39,4.32,4.32,0,0,1,3.47-4.54c24.1-3.76,41.78,23,57.72,47,9.46,14.33,18.53,28,28,34.68,18.51,13,60,31.7,91,24.84,12.33-2.73,21.66-9.34,27.58-19.61a4.87,4.87,0,0,1,6.39-1.78,4.41,4.41,0,0,1,1.83,6.13A48.57,48.57,0,0,1,387.43,903Z"/><path class="cls-5" d="M247.59,543.11H960.86a17.36,17.36,0,0,1,17.36,17.36v466.81a17.37,17.37,0,0,1-17.37,17.37H247.59a17.37,17.37,0,0,1-17.37-17.37V560.47A17.37,17.37,0,0,1,247.59,543.11Z"/><rect class="cls-2" x="264.67" y="576.33" width="644.84" height="429.89"/><path class="cls-2" d="M955,793.87a13.52,13.52,0,1,1-13.52-13.52A13.52,13.52,0,0,1,955,793.87Z"/><rect class="cls-6" x="391.88" y="661.75" width="390.63" height="264.25" rx="17.76"/><rect class="cls-1" x="409.63" y="682.8" width="355.11" height="222.15"/><polygon class="cls-7" points="521.25 723.84 521.25 869.94 663.47 796.89 521.25 723.84"/><path class="cls-8" d="M592.82,540.32s-90.26-.5-122-21.63-37.22-105.14,8.81-139.48,55.57-44.89,57.59-67.53,1.54-74,61.16-74.23c58.47-.22,53.43,47.68,57.88,78.16,3.09,21.23,32.29,52.55,57.85,72.09C747,412.79,783.69,561.45,592.82,540.32Z"/><path class="cls-9" d="M582.4,296.57l19.62.62,19.62.62s4,53.64,14,60.32c0,0,10.65,63.55-37.49,62-58.26-1.83-33.53-64.27-33.53-64.27C575.07,349.86,582.4,296.57,582.4,296.57Z"/><path class="cls-10" d="M516.78,542.75H675.1l13.31-51.31c2.08-52,2.82-105.13,2.82-105.13-22.66-18.28-59-31.42-59-31.42-19.07,14.45-48.1,15.77-66.33,0,0,0-36,14.78-59.61,31.42,0,0-4.76,22-2.4,56.69A846,846,0,0,0,516.78,542.75Z"/><path class="cls-10" d="M747.55,542.75c-12.1-61-23.37-99.62-33.3-122.55-13-29.95-23-33.89-23-33.89-11.56-1-20.33,96-40.17,156.44Z"/><path class="cls-11" d="M674.52,454.67c-3.1,8.56-8.65,15.52-14,23.19-4.9,7-18.34,45.53-71,41.87-21.77-1.51-41.92-23-50.92-44.86-3.69-8.95-5.39-17.66-7.35-27.13-1.4-6.78-1.85-15.59-5.35-21.56-6.57,1.66-7.3,11.51-9.63,17.2-1.42,3.51-11,16.72-11.71,6.81a844.16,844.16,0,0,0,12.31,92.56H687C683.72,507,674.23,465.57,674.52,454.67Z"/><path class="cls-12" d="M645.64,306.05c-5.64-6.08-11.86,3.64-11.86,3.64a154.4,154.4,0,0,0,2.94-23.12c-13-7.21-26.14-15.6-38.45-19.39v-.09l-.12,0-.12,0v.09c-12.31,3.79-25.44,12.18-38.44,19.39a152.88,152.88,0,0,0,2.94,23.12s-6.23-9.72-11.87-3.64,8.28,22.31,11.49,24.32c0,0,11.46,27.94,25.91,37.23,3.75,2.41,15.21,3.06,20.77-.53,14.45-9.34,25.32-36.7,25.32-36.7C637.36,328.36,651.27,312.14,645.64,306.05Z"/><path class="cls-8" d="M636.65,276.57s-19.77,35-68.72,31.63c0,0,2.4,4.15-.53,11.66,0,0-3.52-13.79-11.09-9.49-4,2.26-4.06,8,.07,14,1.86,2.72-12-2.3-12-2.3s-5.72-53.21,29.53-65.31S636.65,276.57,636.65,276.57Z"/><path class="cls-8" d="M620.33,258.31a41.1,41.1,0,0,0-.74,7.6c.07,5.43-7.75,9.29-8,14.69,1.08,1.17,2.16,2.45,3.21,3.78,6.57,8.25,9.45,13,11.79,23.25.64,2.85-1,4.9,3.5,12.68,0,0,3.41-13.84,11.87-11.78,1.66.4,5,2.9,2,9.81-1.06,2.5,8.77-10.3,8.77-10.3S652.47,257.21,620.33,258.31Z"/><path class="cls-12" d="M551.86,777.09c1.87,4.27,11.62,10.8,8.16,16.6-1.73,2.9-10.53-3.24-12.48-5.75-2.74-3.54-21.67-32.93-24.65-41.41-2.33-6.64-4.52-13.11-7.13-19.2a96.11,96.11,0,0,0,18.94-15.17c9.67,4.45,19.95,10.64,29.47,14.81,5.1,2.24,10.71,3.81,15.89,5.73,3.28,1.22,10.26,3,10.56,7.38.34,4.82-6.69,3.4-9.46,2.84-4-.8-11.35-4.62-14.18,0-4.12,6.67,8.34,14.4,12.53,18.94,3.89,4.22,18.13,17.21,7.71,18.25-2.19.22-17-12.49-19.29-14.18.47.61,10,9.79,10.43,10.42,2.44,3.3,9.55,10.18,7.43,13.58-4.54,7.27-20.16-11.9-22.54-14.47l5.93,7.56c5.07,5.74,8.24,10.59,4,12.4C567.78,797.65,556.55,781.91,551.86,777.09Z"/><path class="cls-10" d="M549.75,718.33,517.4,739.88S415.47,607.88,426.55,558c13.11-59,47.3-124.9,66.17-155.58,7.31-11.87,13.56-16.14,13.56-16.14,19.45,18.7,30.56,44.79,28.06,68.24-1.12,10.47-6.2,17.29-11.82,27.95-17.2,32.64-38.23,89.22-37.54,95C486.09,586.71,549.75,718.33,549.75,718.33Z"/></svg>