<svg id="Capa_4" data-name="Capa 4" xmlns="http://www.w3.org/2000/svg" viewBox="0 0 1200 1200"><defs><style>.cls-1{fill:#d60050;isolation:isolate;}.cls-2{fill:#fff;}.cls-3{fill:#fccaea;}.cls-4{fill:#00e9d3;}.cls-5{fill:#110239;}.cls-6{fill:#e2acd0;}.cls-7{fill:#d0d1de;}.cls-8{fill:#abadc4;}.cls-9{fill:#00a7cc;}.cls-10{fill:#fc7171;}</style></defs><circle class="cls-1" cx="535.48" cy="610.23" r="438.87"/><circle class="cls-2" cx="535.48" cy="610.23" r="332.64" transform="translate(-274.66 557.37) rotate(-45)"/><circle class="cls-1" cx="535.48" cy="610.23" r="237.6" transform="translate(-274.66 557.37) rotate(-45)"/><path class="cls-2" d="M699,610.23A163.53,163.53,0,1,1,535.48,446.7,163.53,163.53,0,0,1,699,610.23Z"/><path class="cls-1" d="M611,610.23a75.48,75.48,0,1,1-75.48-75.48A75.47,75.47,0,0,1,611,610.23Z"/><path class="cls-3" d="M730.85,414.23s-6.39,15.45-6.08,15-9.75-4.76-10.34-4.63a78.85,78.85,0,0,1-12.28-.87c-3.37-.68-6-3-7.09-3.66s-3.28-3.1-1.45-3.65c1.61-.49,3.43,1.73,4.48,2.17a21.77,21.77,0,0,0,4.74.45s-1.38-.63-4.07-1.71c-3.27-1.3-8.08-3.21-9-4.18s-.71-2.92,1.81-2.44a34.64,34.64,0,0,1,6.36,2.13c.51.15,5.31,1.89,5.31,1.89s-4.14-1.58-5.61-2.25c-1.65-.74-6.2-2.53-9.08-3.82s-2.15-4.37.4-4.19c1.89.14,8.24,3.58,9.24,3.91s5.4,2.36,5.4,2.36-5.27-2.4-6.15-3-6.72-2.8-7.4-4.54c-.33-.85,0-2.55,2.08-2.21a30.94,30.94,0,0,1,7.33,2.5c1.27.65,9.6,4.64,11.44,4.71,1.66.06,3.49-.11,3.52-2.2l2.85-5.27s1.92.94,2.93,5.72C720.68,409,725,412.32,730.85,414.23Z"/><path class="cls-4" d="M905.14,475.89c0-12.88-10.14-23.53-22.88-25.45-20.9-3.15-59.73-9.15-71.45-11.85-16.29-3.75-82.85-26-82.85-26l-7.28,17.57s72.41,36.37,85.43,39.22S886,496,899,488.5C903.5,485.88,905.15,481.13,905.14,475.89Z"/><polygon class="cls-5" points="958.03 650.08 953.83 637.5 765.8 637.5 769.8 650.08 958.03 650.08"/><polygon class="cls-5" points="980.38 717.11 976.14 704.39 787.1 704.39 791.15 717.11 980.38 717.11"/><polygon class="cls-5" points="929.75 583.05 925.55 570.46 737.51 570.46 741.52 583.05 929.75 583.05"/><polygon class="cls-5" points="1002.97 784.86 998.68 772.01 808.63 772.01 812.73 784.86 1002.97 784.86"/><polygon class="cls-5" points="1025.8 853.35 1021.47 840.35 830.4 840.35 834.53 853.35 1025.8 853.35"/><polygon class="cls-5" points="1048.88 922.57 1044.5 909.44 852.4 909.44 856.58 922.57 1048.88 922.57"/><polygon class="cls-5" points="1072.22 992.55 1067.79 979.27 874.63 979.27 878.86 992.55 1072.22 992.55"/><path class="cls-5" d="M1093.79,1093.27h.89a8.7,8.7,0,0,0,8.25-11.45l-176.59-529a8.7,8.7,0,0,0-8.25-5.94H905.92l179.62,540.41A8.7,8.7,0,0,0,1093.79,1093.27Z"/><path class="cls-5" d="M902.53,1093.27h1a8.7,8.7,0,0,0,8.29-11.34L742.94,553a8.7,8.7,0,0,0-8.29-6.05h-.18a8.7,8.7,0,0,0-8.3,11.33l168.07,529A8.69,8.69,0,0,0,902.53,1093.27Z"/><path class="cls-3" d="M902.1,393.05c-.39.41-.74.85-1.14,1.25A78.61,78.61,0,0,1,889,404.69c-2.66,1.77-6.78,2.91-9.07,4.77a26.44,26.44,0,0,1-2.86,2c1.33,7.44,4.63,27,4.11,34.66,0,0,23.8-1.68,32.49-11.31C913.7,434.83,903.82,408.32,902.1,393.05Z"/><path class="cls-6" d="M889.33,432.85a34.57,34.57,0,0,1,10.84-18,55.34,55.34,0,0,1,5.71-4.23,120.93,120.93,0,0,1-3.78-17.62c-.39.41-.74.85-1.14,1.25A78.61,78.61,0,0,1,889,404.69c-2.66,1.77-6.78,2.91-9.07,4.77a26.44,26.44,0,0,1-2.86,2c1.33,7.44,4.63,27,4.11,34.66a94.92,94.92,0,0,0,9.47-1.31A17.89,17.89,0,0,1,889.33,432.85Z"/><path class="cls-5" d="M888.91,817.92s-.65,23.74-4.36,27-50.94,4.67-55,.33-1.68-11.62,8.46-14.43c10.86-3,16.19-.06,23-2.9s5-13.56,5-13.56Z"/><path class="cls-5" d="M1006,817.12s3.64,23.12.06,26.5-51.69,7.17-55.92,3-2.12-11.55,7.9-14.76c10.74-3.43,15.94-1.25,22.87-3.77,5.45-2,1.78-13,1.78-13Z"/><path class="cls-7" d="M971.12,684a707.69,707.69,0,0,0-9.86-132c-7.85.29-15.73,1-23.57,4.56-14.42,6.56-28.92,12.85-43.4,19.16,11.76,24.33,37.5,103.75,40.6,120.37C938.75,716.8,982,822.25,982,822.25l26.15-3.28C1007.69,802,971,689.73,971.12,684Z"/><path class="cls-8" d="M917.48,566a241,241,0,0,1-23.33,9.49c11.54,23.86,32.59,89.89,37.34,107.44,3.67-11.07,21.4-37.83,28.21-67.13a156.2,156.2,0,0,0,2.2-59.73,1.85,1.85,0,0,0,0-.23C947.2,556.82,933,558.41,917.48,566Z"/><path class="cls-7" d="M937,562.39c-10.19,3.44-28.73,8.37-42.73,13.37-9.75,24.64-38.55,82.8-40,109.1-1.65,29,8.39,138.94,8.39,138.94h29.92s2.78-123.9,7-131.87c13.82-26.25,29.08-47.06,37.76-63.39,14.56-27.4,19.5-45,22.06-57.83,1.13-5.66,6.09-24.65-3.53-30.59C947.86,542.37,945.55,559.51,937,562.39Z"/><path class="cls-4" d="M883.39,581.73s25.13,10.15,49.88,7.77c18.32-1.76,27.81-2,38.53-7.83,0,0-11.46-89.32-24.68-117.48s-34.93-33.55-34.93-33.55-17.1,9.94-31.08,9.72c0,0,.34,54.88,1.4,76.79S883.39,581.73,883.39,581.73Z"/><path class="cls-9" d="M882.2,509.13q-.12-3.61-.22-7.66l0-1c-.06-2.58-.12-5.25-.17-8l0-1.36c-.06-3-.12-6.14-.17-9.23v-.14a18.18,18.18,0,0,0,3.38-.23c8.74-1.7,16.33-6.59,23.9-11,1.27-.75,2.62-1.37,3.95-2,1.52,11.74-3.76,26.06-6,35.39-6.3,25.8-9.71,58.46-4.3,83.38a133.79,133.79,0,0,1-19.08-5.49s.19-42.67-.88-64.58c-.09-1.94-.18-4.2-.26-6.6C882.23,510.08,882.22,509.62,882.2,509.13Z"/><path class="cls-3" d="M914.45,370.82s-10.17-21.23-23.7-20.37-22.21,3.07-24,8.29-4.83,19.61-8.29,24.93S847.5,396,847.66,398.38s7.9,3.25,8.33,4.23,4.61,18.51,7.44,20.33,28.82-8.32,32.84-16.06S915.62,384.53,914.45,370.82Z"/><path class="cls-5" d="M886.83,372.83c-1.33.09-3,.95-4,1.14-2,.36-4,.53-6,.87-4,.69-8.07,1.29-12,0-5.88-1.93-4-7.72-6.69-11.79-1.31-2-4.09-2-5.52-4.18a14.13,14.13,0,0,1-1.76-7.57c.1-6.18,6.12-6.76,10.86-7.94,5.54-1.37,5.87-4.45,8.52-8.65,6.57-10.37,15.84,4,23.13,3.15,3.73-.45,7.64-2.88,11.25-.82,3.12,1.77,5,4.89,7.09,7.68s4.34,1.71,7.51,2.92a18.89,18.89,0,0,1,6.57,5c3.72,4.25,6.15,10.7,5,16.3-1,4.76-4.81,7.35-5,12.37-.15,4,.08,8.91-1.87,12.55-2.83,5.28-9.11,6-13.31,9.58-4,3.42-9.68,5.91-15.09,4.66-.56-3.74-.21-10,3.08-11.92,1.31-.75,2.92-.88,5-2.56,3.77-3.08,1.53-10.81-5.56-9.82-4.27.6-6.2,12.26-10.85,10.37-3.54-1.45.72-7.34,1.69-9.35,1.29-2.65,2-9.36-.54-11.59A1.87,1.87,0,0,0,886.83,372.83Z"/><path class="cls-3" d="M773.47,582.21a19.79,19.79,0,0,0-3.5-.27c-2.28.75-6.1-.35-7.7-1-3.63-1.37-9.18-3.78-12.91-3.12-2.18.38-15.19,3.41-12,8.76.43.71,2,1.83,2.48,1.66l5.08-1.86a28.66,28.66,0,0,0-3.46,1.47c-.5.36-1.47.79-1.8,1.3-.72,1.11.37,3.49,1.51,3.88s2-.73,2.92-1.26l-.06,0c-.91.72-2.86,1.21-1.65,4,1.36,3.07,2.29,1.13,3.59.81a9,9,0,0,0,1.41-.56c-.49.28-2.32,1.15-2.7,1.48-1.21,1.09,1.48,4.7,3.89,4.4,1.48-.19,5-2.32,5.83-2.09a19.47,19.47,0,0,0,11.8-1.42c1.22-.55,3.64-1.5,4.85-2.15a52.31,52.31,0,0,0,7.24-4.93C776.28,587.55,773.07,586.57,773.47,582.21Z"/><path class="cls-4" d="M778,598.56l-10.51-20.81s52.11-33.36,71.17-52.59,39.65-58.32,54.18-60.79,29.15,5.56,20.74,25.78-51,47-59.71,55.92S786.52,593.78,778,598.56Z"/><path class="cls-10" d="M922.64,106c-9.29-4-39-19.44-62.83,36.89-22.71,53.63-46.74,126.32-46.74,126.32S872.16,220.5,914,179.94C957.87,137.36,931.32,111.54,922.64,106Z"/><path class="cls-5" d="M871.93,149l-56.8,58.48a410.77,410.77,0,0,0-46.31,57.15l-232,345.63L799.68,325.66a409.87,409.87,0,0,0,72.06-108.51l22.19-48.83A68.54,68.54,0,0,1,871.93,149Z"/><path class="cls-10" d="M803.52,273.61S765.3,167.05,801.05,98s82.42,62.39,82.42,62.39Z"/><path class="cls-10" d="M803.23,273s113.21-.19,166-57.22-86.65-56.38-86.65-56.38Z"/><path class="cls-3" d="M718.68,414.5c-.87-.36-1.78,2-2.63,1.7,0-.05.15-2.55.15-2.61-.33-2.29-9.05-2.87-11-3.88-5.86-3.06-3.5-6.74-.84-5.9,1.81.57,5.92,1.78,7.49,2.48s4.39.39,6,.69,6.11,4.29,7.52,5.22C728.43,414.17,721.86,415.79,718.68,414.5Z"/><path class="cls-4" d="M309.49,750.32s-46.7,11.67-81.73,37.62-71.35,106.37-78.48,162.8-21.4,100.54,0,129.4,90.81,34.71,150.48,40.54,142-8.43,158.57-29.18,15.26-177.87-15.87-237.15S354.89,749,309.49,750.32Z"/><path class="cls-9" d="M389,1088.34c-12-4-24.33-8.34-34.23-16.5-21.24-17.5-34.2-22.7-60.64-22.44-24.19.25-47.56.18-68.33-13.55-18.5-12.23-28.85-39.55-24.38-61,3.25-15.63,7.94-28.07,17.58-40.87,13.6-18.07,16.21-31.05,11.37-53.63-5.79-27-6.66-50.05,1.27-76.8,4.09-13.81,13.73-23.85,24.58-32.88a196.66,196.66,0,0,0-28.48,17.28c-35,25.94-71.35,106.37-78.48,162.8s-21.4,100.54,0,129.4,90.81,34.71,150.48,40.54,142-8.43,158.57-29.18c3.22-4,5.75-13.24,7.53-25.82C445.14,1086.16,418.27,1098.06,389,1088.34Z"/><path class="cls-4" d="M303,762s-50.1-12.16-56.91-50.1,13.13-51.08,28.46-42.33,17.75,4,28.45-2.6,26.27,4.06,34.06,15.25,9.24-1.94,27.73-3.4,24.81,15.56,15.08,37.94S360.89,763,303,762Z"/><path class="cls-9" d="M357.31,740.65c-13,3.35-5.29-13.43-7.4-19.25-3.4.16-4.66,5.8-5.79,8.24a15.21,15.21,0,0,1-13.8,8.76c-8.09-.1-9.21-8.93-12.67-14.35-1.45-2.28-2.13-2.2-3,.53-1,3,0,6.55-2.85,8.9-5.18,4.35-13.8-.59-17.82-4.08-4.39-3.81-6.22-10.08-10.9-13.78a6.36,6.36,0,0,0-1.46,3.25c-1.16,5.47-.83,15.85-9.72,14-7.54-1.62-12.6-13.94-15-20.22-2.79-7.21-5.42-15.83-5.4-23.63a71.81,71.81,0,0,1,.68-10c.26-1.9.91-6,1.85-7.65l-.06,0c-7.22,6.35-11.57,19.71-7.82,40.58,5.79,32.27,42.9,45.89,53.87,49.24a20.13,20.13,0,0,0,5.92.89c45.6.12,59.78-15.77,68.72-33.68a.73.73,0,0,1-.08.09S362,739.46,357.31,740.65Z"/><path class="cls-2" d="M324.11,874.71c24.56,2.43,46.75,13.47,46.32,38.07l-41-.74c-.05-9.3-9.55-11.46-15.54-11.57-3.76-.06-15.95-.28-16.09,7.25-.3,16.84,75.59.68,74.75,48.33-.5,28.59-23.08,38.83-50.6,40.33l1.24,30.41-25-.44,2.09-30.57c-25.44-3.11-49-15.5-48.49-41.21l41,.73,0,.88c0,11.31,12.62,13.75,19,13.87,6.22.11,18.41-.11,18.55-8.32.32-17.51-75.54-2.89-74.73-49,.48-26.6,21.27-36.44,46.8-38.19l-1-30.62,25.05.44Z"/><path class="cls-5" d="M266.51,744,262,767.84s12.8,12.31,47.66,12.31,53.68-12.32,53.68-12.32l-2.27-21.56S313.37,758.35,266.51,744Z"/></svg>