<svg id="Grupo_214" data-name="Grupo 214" xmlns="http://www.w3.org/2000/svg" width="67.194" height="62.739" viewBox="0 0 67.194 62.739">
  <path id="Trazado_524" data-name="Trazado 524" d="M-312.464,1882.877v-55.161c.3-.025.6-.07.893-.07q32.426-.005,64.85,0a10.935,10.935,0,0,1,1.452.184v55.015h-21.277v3.721l3.648.274v3.539h-31.794v-3.553l3.656-.283v-3.668Zm4.111-16.092h59.1v-35.131h-59.1Zm-.005,11.91h59.112v-7.571h-59.112Zm37.538,4.27H-286.71v3.584h15.891Z" transform="translate(312.464 -1827.642)" fill="#fff"/>
  <path id="Trazado_525" data-name="Trazado 525" d="M-291.552,1833.079l3.856.708-4.535,22.894-3.879-.7Z" transform="translate(325.561 -1823.289)" fill="#fff"/>
  <path id="Trazado_526" data-name="Trazado 526" d="M-294.8,1834.365l2.5,2.658-7.538,6.843,7.749,7.041-2.771,2.685-9.431-9.557Z" transform="translate(319.011 -1822.259)" fill="#fff"/>
  <path id="Trazado_527" data-name="Trazado 527" d="M-277.558,1843.76l-9.651,9.724-2.84-2.719,7.574-6.856-7.655-7.038,3.335-2.448Z" transform="translate(330.35 -1822.212)" fill="#fff"/>
</svg>
