<svg id="Grupo_215" data-name="Grupo 215" xmlns="http://www.w3.org/2000/svg" width="74.859" height="74.77" viewBox="0 0 74.859 74.77">
  <path id="Trazado_528" data-name="Trazado 528" d="M-145.151,1970.148c-3.384,0-6.617.115-9.835-.06-1.138-.061-2.242-.826-3.361-1.27a12.749,12.749,0,0,1,1.614-2.94c3.371-3.518,6.8-6.987,10.345-10.33a7.234,7.234,0,0,1,3.514-1.722c5.46-.979,10.974-1.687,16.43-2.686a6.377,6.377,0,0,0,3.154-1.907c5.316-5.578,11.184-10.291,18.675-12.648a34.984,34.984,0,0,1,16.44-1.25c2.6.427,3.785,1.643,4.19,4.229,1.8,11.532-1.292,21.855-9.293,29.943-5.138,5.188-7.832,10.734-7.992,17.681-.153,6.713-2.94,11.825-8.135,15.923-2.133,1.684-3.856,3.882-5.868,5.728a2.712,2.712,0,0,1-2.185.75,2.58,2.58,0,0,1-1.167-2c-.115-3.648-.054-7.3-.054-10.954l-.836-.134a8.54,8.54,0,0,0-1.288,1.027c-1.556,1.831-3.087,2.669-5.064.437-.3-.341-1.559-.195-2.137.137-2,1.148-3.929,2.421-5.8,3.76a2.7,2.7,0,0,1-4.044-.354q-6.1-6.233-12.332-12.332c-1.375-1.343-1.39-2.539-.322-4.038q2-2.817,3.776-5.8c.325-.545.555-1.725.281-1.955-2.746-2.283-1.263-3.942.667-5.6a3.491,3.491,0,0,0,.5-.58A5.709,5.709,0,0,0-145.151,1970.148Zm10.671,13.5c2.507-2.605,5.077-5.335,7.714-8,4.025-4.076,8.043-8.161,12.2-12.1.673-.638,2.449-1.117,2.982-.712,1.362,1.05.386,2.236-.587,3.193-1.221,1.2-2.421,2.414-3.629,3.623-5.495,5.488-10.99,10.974-16.309,16.29l8.891,8.856c.45-.421,1.075-.982,1.671-1.573,2.545-2.532,5.013-5.151,7.676-7.548.609-.549,1.888-.351,2.857-.5-.134.985.032,2.181-.475,2.908a43.783,43.783,0,0,1-3.345,3.518,3.287,3.287,0,0,0-.915,1.952c.061,3.285.277,6.564.437,9.848l.6.316c1.926-2.012,3.856-4.019,5.769-6.04.992-1.049,2.535-2,2.813-3.224.982-4.318,1.524-8.735,2.3-13.55-.7.475-.918.6-1.1.752-1.011.867-2.031,2.331-3.438.928-1.579-1.569.092-2.589,1.052-3.566,3.6-3.654,7.351-7.165,10.849-10.913,6.659-7.13,10.094-15.534,9.382-25.417-.258-3.588-.67-4-4.229-4.248-10.081-.7-18.6,2.832-25.79,9.733-3.935,3.78-7.721,7.715-11.573,11.583l-2.6-2.175,1.658-2.379c-4.557.724-8.684,1.365-12.8,2.044a2.736,2.736,0,0,0-1.371.594c-2.905,2.7-5.769,5.45-8.646,8.183a37.756,37.756,0,0,0,5.951.976c3.677.651,6.681-.134,8.885-3.336a3.863,3.863,0,0,1,1.719-1.47,2.347,2.347,0,0,1,2.038.3,2.311,2.311,0,0,1,.137,2.019,5.822,5.822,0,0,1-1.489,1.722c-2.838,2.809-5.693,5.6-8.4,8.266Zm-8.566-3.531-4.1,6.333,12.074,12.049,5.791-3.817-5.074-5.2H-137.9c0-.921.054-1.844,0-2.759a2.334,2.334,0,0,0-.411-1.3C-139.8,1983.69-141.356,1982-143.047,1980.121Z" transform="translate(158.348 -1934.873)" fill="#fff"/>
  <path id="Trazado_529" data-name="Trazado 529" d="M-126.77,1945.985a8.018,8.018,0,0,1-8.1,8.113,8.134,8.134,0,0,1-8.119-8.154,8.007,8.007,0,0,1,8.161-8.053A7.875,7.875,0,0,1-126.77,1945.985Zm-3.438-.076a4.563,4.563,0,0,0-4.752-4.577,4.71,4.71,0,0,0-4.586,4.813,4.938,4.938,0,0,0,4.691,4.538A4.761,4.761,0,0,0-130.208,1945.909Z" transform="translate(191.975 -1928.265)" fill="#fff"/>
</svg>
