<svg id="Grupo_211" data-name="Grupo 211" xmlns="http://www.w3.org/2000/svg" width="76.194" height="87.914" viewBox="0 0 76.194 87.914">
  <g id="Grupo_198" data-name="Grupo 198" transform="translate(13.187 0)">
    <g id="Grupo_197" data-name="Grupo 197">
      <path id="Trazado_515" data-name="Trazado 515" d="M-596.4,1750.481a24.936,24.936,0,0,0-24.91-24.908,24.936,24.936,0,0,0-24.91,24.908,24.948,24.948,0,0,0,8.658,18.836,4.387,4.387,0,0,0-1.332,3.143,4.369,4.369,0,0,0,1.142,2.931,4.365,4.365,0,0,0-1.142,2.931,4.375,4.375,0,0,0,1.142,2.931,4.358,4.358,0,0,0-1.142,2.929,4.388,4.388,0,0,0,2.931,4.126v10.528a1.463,1.463,0,0,0,.432,1.033l0,0,13.188,13.188a1.459,1.459,0,0,0,1.036.428,1.459,1.459,0,0,0,1.036-.428l13.186-13.188,0,0a1.463,1.463,0,0,0,.432-1.033v-10.528a4.388,4.388,0,0,0,2.931-4.126,4.36,4.36,0,0,0-1.144-2.929,4.358,4.358,0,0,0,1.144-2.931,4.368,4.368,0,0,0-1.144-2.931,4.352,4.352,0,0,0,1.144-2.931,4.388,4.388,0,0,0-1.332-3.143A24.948,24.948,0,0,0-596.4,1750.481Zm-24.91,59.469-2.325-2.323h4.649Zm5.254-5.253h-10.507l-5.633-5.635,2.094-1.4,3.584,2.389a1.464,1.464,0,0,0,1.624,0l3.585-2.389,3.583,2.389a1.467,1.467,0,0,0,1.626,0l3.583-2.389,2.1,1.4Zm6.468-8.6-2.116-1.411a1.467,1.467,0,0,0-1.626,0l-3.584,2.389-3.583-2.389a1.467,1.467,0,0,0-1.626,0l-3.583,2.389-3.583-2.389a1.467,1.467,0,0,0-1.626,0l-2.118,1.411v-7.518h23.444Zm1.465-10.448H-634.5a1.467,1.467,0,0,1-1.464-1.466,1.467,1.467,0,0,1,1.464-1.465h26.374a1.467,1.467,0,0,1,1.466,1.465A1.468,1.468,0,0,1-608.125,1785.648Zm0-5.862H-634.5a1.467,1.467,0,0,1-1.464-1.464,1.468,1.468,0,0,1,1.464-1.466h26.374a1.469,1.469,0,0,1,1.466,1.466A1.467,1.467,0,0,1-608.125,1779.786Zm0-5.86H-634.5a1.468,1.468,0,0,1-1.464-1.466A1.467,1.467,0,0,1-634.5,1771h26.371l.017,0a1.465,1.465,0,0,1,1.453,1.463A1.469,1.469,0,0,1-608.125,1773.926Zm-17.769-22.161a1.455,1.455,0,0,0,.919.326,1.456,1.456,0,0,0,.921-.326,7.279,7.279,0,0,0,2.743-5.68,7.4,7.4,0,0,0-.078-1c-.013-.095-.03-.188-.049-.282a6.692,6.692,0,0,0-.176-.746c-.023-.081-.044-.163-.07-.245a7.052,7.052,0,0,0-.371-.911c-.026-.053-.059-.1-.087-.157a7.132,7.132,0,0,0-.426-.711c-.026-.04-.045-.083-.072-.123a4.27,4.27,0,0,1,2.664,0c-.028.04-.047.083-.074.123a7.73,7.73,0,0,0-.426.711c-.029.053-.061.1-.087.157a7.171,7.171,0,0,0-.369.911c-.026.082-.047.163-.07.245a7.661,7.661,0,0,0-.178.746c-.017.095-.036.188-.047.282a6.839,6.839,0,0,0-.081,1,7.273,7.273,0,0,0,2.743,5.68,1.455,1.455,0,0,0,.919.326,1.456,1.456,0,0,0,.921-.326,7.273,7.273,0,0,0,2.743-5.68,7.408,7.408,0,0,0-.078-1c-.013-.095-.03-.188-.047-.282a7.133,7.133,0,0,0-.178-.746c-.025-.081-.043-.163-.072-.245a7.068,7.068,0,0,0-.371-.911c-.027-.055-.059-.106-.089-.161a7.3,7.3,0,0,0-.419-.7c-.028-.044-.049-.089-.078-.131a4.284,4.284,0,0,1,1.332-.214,4.682,4.682,0,0,1,4.4,4.716,7.218,7.218,0,0,1-2.605,5.561l-5.659,4.716a1.468,1.468,0,0,0-.527,1.125v10.257h-5.862v-10.257a1.468,1.468,0,0,0-.527-1.125l-5.659-4.716a7.222,7.222,0,0,1-2.605-5.561,4.682,4.682,0,0,1,4.4-4.716,4.264,4.264,0,0,1,1.33.214c-.028.042-.049.089-.078.131a7.3,7.3,0,0,0-.419.7c-.028.055-.063.106-.089.161a7.052,7.052,0,0,0-.371.911c-.027.082-.047.165-.072.245a7.125,7.125,0,0,0-.176.746c-.019.095-.036.188-.049.282a7.735,7.735,0,0,0-.076,1A7.273,7.273,0,0,0-625.894,1751.766Zm.188-5.68a4.181,4.181,0,0,1,.1-.859c.013-.068.029-.136.045-.2a4.318,4.318,0,0,1,.284-.8l.032-.057a4.479,4.479,0,0,1,.271-.432,4.106,4.106,0,0,1,.273.432c.009.019.023.036.032.055a4.408,4.408,0,0,1,.284.8c.017.068.032.136.046.2a4.22,4.22,0,0,1,.1.86,4.19,4.19,0,0,1-.1.858c-.013.068-.029.137-.046.2a4.412,4.412,0,0,1-.284.8.448.448,0,0,1-.032.057,4.163,4.163,0,0,1-.273.432,4.547,4.547,0,0,1-.271-.432.441.441,0,0,1-.032-.057,4.273,4.273,0,0,1-.284-.8c-.017-.068-.032-.134-.045-.2A4.182,4.182,0,0,1-625.707,1746.086Zm7.326,0a4.186,4.186,0,0,1,.1-.859c.013-.068.028-.136.045-.2a4.47,4.47,0,0,1,.284-.8l.032-.057a4.42,4.42,0,0,1,.271-.432,4.115,4.115,0,0,1,.273.432c.009.019.023.036.032.055a4.418,4.418,0,0,1,.284.8c.017.068.032.136.045.2a4.216,4.216,0,0,1,.1.86,4.186,4.186,0,0,1-.1.858c-.013.068-.028.137-.045.2a4.422,4.422,0,0,1-.284.8.426.426,0,0,1-.032.057,4.173,4.173,0,0,1-.273.432,4.486,4.486,0,0,1-.271-.432.427.427,0,0,1-.032-.057,4.421,4.421,0,0,1-.284-.8c-.017-.068-.032-.134-.045-.2A4.186,4.186,0,0,1-618.38,1746.086Zm10.225,21.979h-7.3v-9.572l5.132-4.276a10.141,10.141,0,0,0,3.66-7.812,7.593,7.593,0,0,0-7.326-7.646,7.158,7.158,0,0,0-3.668,1.021,7.311,7.311,0,0,0-7.315,0,7.17,7.17,0,0,0-3.67-1.021,7.593,7.593,0,0,0-7.326,7.646,10.141,10.141,0,0,0,3.66,7.812l5.131,4.276v9.572h-7.294a22.031,22.031,0,0,1-8.823-17.584,22,22,0,0,1,21.979-21.979,22,22,0,0,1,21.979,21.979A22.031,22.031,0,0,1-608.155,1768.065Z" transform="translate(646.221 -1725.573)" fill="#fff"/>
    </g>
  </g>
  <g id="Grupo_200" data-name="Grupo 200" transform="translate(60.504 0.431)">
    <g id="Grupo_199" data-name="Grupo 199" transform="translate(0 0)">
      <rect id="Rectángulo_113" data-name="Rectángulo 113" width="8.289" height="2.93" transform="translate(0 5.861) rotate(-45)" fill="#fff"/>
    </g>
  </g>
  <g id="Grupo_202" data-name="Grupo 202" transform="translate(60.502 41.453)">
    <g id="Grupo_201" data-name="Grupo 201" transform="translate(0 0)">
      <rect id="Rectángulo_114" data-name="Rectángulo 114" width="2.93" height="8.289" transform="translate(0 2.072) rotate(-45)" fill="#fff"/>
    </g>
  </g>
  <g id="Grupo_204" data-name="Grupo 204" transform="translate(67.402 23.443)">
    <g id="Grupo_203" data-name="Grupo 203">
      <rect id="Rectángulo_115" data-name="Rectángulo 115" width="8.791" height="2.93" fill="#fff"/>
    </g>
  </g>
  <g id="Grupo_206" data-name="Grupo 206" transform="translate(7.755 0.429)">
    <g id="Grupo_205" data-name="Grupo 205" transform="translate(0 0)">
      <rect id="Rectángulo_116" data-name="Rectángulo 116" width="2.931" height="8.289" transform="translate(0 2.072) rotate(-45.004)" fill="#fff"/>
    </g>
  </g>
  <g id="Grupo_208" data-name="Grupo 208" transform="translate(7.755 41.454)">
    <g id="Grupo_207" data-name="Grupo 207" transform="translate(0 0)">
      <rect id="Rectángulo_117" data-name="Rectángulo 117" width="8.289" height="2.931" transform="translate(0 5.861) rotate(-44.999)" fill="#fff"/>
    </g>
  </g>
  <g id="Grupo_210" data-name="Grupo 210" transform="translate(0 23.443)">
    <g id="Grupo_209" data-name="Grupo 209">
      <rect id="Rectángulo_118" data-name="Rectángulo 118" width="8.791" height="2.93" fill="#fff"/>
    </g>
  </g>
</svg>
