<svg id="Grupo_213" data-name="Grupo 213" xmlns="http://www.w3.org/2000/svg" width="56.967" height="63.553" viewBox="0 0 56.967 63.553">
  <path id="Trazado_522" data-name="Trazado 522" d="M-405.706,1795.114h-.372c-.5-.155-.993-.322-1.5-.459q-10.466-2.852-20.932-5.694c-.243-.066-.381-.147-.408-.447-.257-2.84-.539-5.679-.811-8.518q-.389-4.052-.776-8.1-.447-4.677-.9-9.352-.438-4.56-.873-9.12-.446-4.63-.892-9.259-.447-4.653-.893-9.306c-.1-1.09-.205-2.181-.31-3.3H-377.4c-.14,1.49-.278,2.952-.418,4.414q-.444,4.63-.89,9.259-.439,4.583-.876,9.168-.444,4.628-.891,9.258-.392,4.1-.782,8.2-.447,4.676-.9,9.352c-.233,2.422-.472,4.845-.7,7.268a.478.478,0,0,1-.42.493q-9.416,2.549-18.826,5.119C-403.307,1794.415-404.5,1794.77-405.706,1795.114Zm-24.518-59.814c.025.344.041.636.069.927.172,1.775.35,3.549.519,5.324q.488,5.092.967,10.186.535,5.58,1.08,11.158t1.059,11.16c.363,3.8.734,7.592,1.088,11.39a.534.534,0,0,0,.456.568q9.371,2.541,18.737,5.1a1.441,1.441,0,0,0,.717,0q9.369-2.544,18.736-5.1a.528.528,0,0,0,.462-.559c.276-3.042.57-6.082.862-9.122q.444-4.607.891-9.214t.876-9.214q.489-5.092.984-10.185.454-4.7.9-9.4c.1-1,.184-2,.279-3.023Z" transform="translate(434.369 -1731.561)" fill="#fff"/>
  <path id="Trazado_523" data-name="Trazado 523" d="M-389.144,1754.739c-.193,2.371-.381,4.688-.573,7.005q-.352,4.264-.707,8.529-.342,4.149-.675,8.3a.463.463,0,0,1-.4.474q-7.34,2.123-14.675,4.261a1.139,1.139,0,0,1-.622-.008q-7.876-2.439-15.746-4.893c-.246-.077-.392-.143-.391-.457.014-3.367.009-6.732.01-10.1,0-.075.012-.148.021-.245h10.62c0,.89.016,1.77-.008,2.647a.5.5,0,0,0,.421.583c1.692.5,3.373,1.041,5.064,1.546a1.2,1.2,0,0,0,.667-.009c1.593-.507,3.176-1.046,4.769-1.552a.542.542,0,0,0,.44-.585c.092-1.734.216-3.466.333-5.251h-22.135l-2.6-23.258h36.244v10.223H-413.5l.277,2.5Zm-3.7-9.272h-28.286l1.763,15.791h22.772c-.085,1.318-.169,2.586-.25,3.854q-.25,3.946-.494,7.893a.557.557,0,0,1-.428.6c-2.786.891-5.565,1.809-8.351,2.705a1.111,1.111,0,0,1-.62.01c-2.977-.905-5.948-1.831-8.925-2.735a.437.437,0,0,1-.37-.522c.021-.567.005-1.136.005-1.72h-3.154c0,1.279.012,2.531-.008,3.784,0,.31.111.424.39.51,4.022,1.247,8.039,2.508,12.062,3.756a1.07,1.07,0,0,0,.577.007c3.718-1.078,7.431-2.171,11.149-3.248a.46.46,0,0,0,.384-.482c.119-1.562.251-3.122.379-4.683q.407-4.914.812-9.828c.073-.888.139-1.778.212-2.7l-23.366-.286-1.116-9.973h24.861Z" transform="translate(435.096 -1730.743)" fill="#fff"/>
</svg>
