<svg xmlns="http://www.w3.org/2000/svg" width="75.502" height="66.932" viewBox="0 0 75.502 66.932">
  <g id="Grupo_798" data-name="Grupo 798" transform="translate(0)">
    <path id="Trazado_516" data-name="Trazado 516" d="M-577.867,1961.36h75.5v66.932c-.363-.023-.729-.069-1.1-.069q-36.672,0-73.349,0h-1.058Zm4.484,18.944v43.441h66.557v-57.889h-.827c-4.547,0-9.094.011-13.639-.011a1.51,1.51,0,0,0-1.3.622c-3.642,4.415-7.311,8.809-10.944,13.229a1.564,1.564,0,0,1-1.374.62q-18.69-.022-37.38-.011Zm-.035-4.469c.21.018.354.043.5.043q18.128.005,36.26-.014a1.291,1.291,0,0,0,.853-.412c1.671-1.963,3.311-3.954,4.956-5.937.965-1.164,1.928-2.334,2.971-3.6h-45.538Z" transform="translate(577.867 -1961.36)" fill="#fff"/>
    <path id="Trazado_517" data-name="Trazado 517" d="M-559.579,1971.758h4.383c.014.233.04.447.04.663,0,4.25.017,8.5,0,12.751a8.248,8.248,0,0,1-5.593,8.083,8.1,8.1,0,0,1-10.734-7.5c-.115-4.516-.032-9.04-.035-13.561,0-.121.02-.242.032-.418h4.392v.881c0,4.227-.009,8.452,0,12.679a3.646,3.646,0,0,0,2.833,3.807,3.719,3.719,0,0,0,4.611-3.081,8.442,8.442,0,0,0,.069-1.176q.009-6.077,0-12.16Z" transform="translate(589.759 -1941.794)" fill="#fff"/>
    <path id="Trazado_518" data-name="Trazado 518" d="M-546.984,1971.73c-1.865,3.354-3.6,6.573-5.438,9.728a2.249,2.249,0,0,0-.017,2.636c1.732,2.934,3.34,5.945,4.994,8.925.13.23.248.464.438.821-1.671,0-3.233.017-4.792-.023-.187-.006-.415-.3-.533-.513-1.1-1.942-2.181-3.893-3.323-5.939-.815,1.461-1.585,2.847-2.366,4.225-.421.743-.7,1.758-1.349,2.133s-1.668.112-2.524.121c-.758.006-1.516,0-2.389,0,.158-.317.265-.55.386-.772,1.787-3.216,3.562-6.437,5.368-9.642a1.116,1.116,0,0,0,.012-1.265c-1.928-3.417-3.821-6.852-5.809-10.434.507,0,.9-.006,1.3,0,1.248.02,2.5.046,3.743.069.608,1.063,1.219,2.124,1.821,3.19.591,1.043,1.173,2.09,1.8,3.219,1.121-2.008,2.207-3.925,3.25-5.864a1.042,1.042,0,0,1,1.1-.628C-549.921,1971.753-548.526,1971.73-546.984,1971.73Z" transform="translate(603.346 -1941.876)" fill="#fff"/>
    <path id="Trazado_519" data-name="Trazado 519" d="M-567.395,1963.912v4.371h-4.325v-4.371Z" transform="translate(589.434 -1956.558)" fill="#fff"/>
    <path id="Trazado_520" data-name="Trazado 520" d="M-568.9,1963.911h4.328v4.357H-568.9Z" transform="translate(594.745 -1956.56)" fill="#fff"/>
    <path id="Trazado_521" data-name="Trazado 521" d="M-574.559,1963.915h4.311v4.351h-4.311Z" transform="translate(584.091 -1956.552)" fill="#fff"/>
  </g>
</svg>
