<svg width="369" height="234" viewBox="0 0 369 234" fill="none" xmlns="http://www.w3.org/2000/svg">
<path d="M188.452 164.657H17.2188V30.808H188.452V164.657Z" fill="#FAFAFA"/>
<path d="M188.452 164.657C188.452 163.395 188.417 111.545 188.311 30.808L188.452 30.9483C139.648 30.9483 80.6981 30.9833 17.2536 30.9833H17.2185L17.3941 30.808C17.3941 79.0471 17.3941 124.692 17.3941 164.657L17.2185 164.482C118.863 164.587 187.012 164.657 188.452 164.657C187.012 164.657 118.863 164.728 17.2185 164.798H17.043V164.657C17.043 124.692 17.043 79.0471 17.043 30.808V30.6328H17.2185H17.2536C80.6981 30.6328 139.648 30.6328 188.452 30.6328H188.627V30.808C188.522 111.545 188.452 163.395 188.452 164.657Z" fill="#263238"/>
<path d="M128.306 146.428H77.3963C71.568 146.428 66.8281 141.695 66.8281 135.875C66.8281 130.056 71.568 125.323 77.3963 125.323H128.306C134.135 125.323 138.84 130.056 138.84 135.875C138.84 141.695 134.135 146.428 128.306 146.428Z" fill="#D90452"/>
<path fill-rule="evenodd" clip-rule="evenodd" d="M94.1445 133.491H95.9352C97.2694 133.491 98.1822 134.298 98.1822 135.525C98.1822 136.787 97.2694 137.593 95.9352 137.593H94.1445V133.491ZM95.9001 136.962C96.8129 136.962 97.4098 136.401 97.4098 135.56C97.4098 134.718 96.8129 134.157 95.9001 134.157H94.8819V136.962H95.9001Z" fill="white"/>
<path fill-rule="evenodd" clip-rule="evenodd" d="M98.707 135.525C98.707 134.333 99.6199 133.421 100.919 133.421C102.183 133.421 103.131 134.298 103.131 135.525C103.131 136.752 102.183 137.663 100.919 137.663C99.6199 137.663 98.707 136.752 98.707 135.525ZM102.359 135.525C102.359 134.683 101.762 134.087 100.919 134.087C100.076 134.087 99.4795 134.683 99.4795 135.525C99.4795 136.366 100.076 136.997 100.919 136.997C101.762 136.997 102.359 136.366 102.359 135.525Z" fill="white"/>
<path d="M107.628 133.491V137.593H106.996L104.714 134.823V137.593H103.941V133.491H104.573L106.856 136.261V133.491H107.628Z" fill="white"/>
<path d="M111.805 136.962V137.593H108.715V133.491H111.734V134.122H109.487V135.174H111.489V135.805H109.487V136.962H111.805Z" fill="white"/>
<path fill-rule="evenodd" clip-rule="evenodd" d="M104.256 82.0971C96.742 82.0971 90.6328 75.9971 90.6328 68.4948C90.6328 60.9925 96.742 54.8925 104.256 54.8925C111.769 54.8925 117.878 60.9925 117.878 68.4948C117.878 75.9971 111.769 82.0971 104.256 82.0971ZM104.256 56.2948C97.5144 56.2948 92.0372 61.7638 92.0372 68.4948C92.0372 75.2258 97.5144 80.6948 104.256 80.6948C110.997 80.6948 116.474 75.2258 116.474 68.4948C116.474 61.7638 110.997 56.2948 104.256 56.2948Z" fill="#27BBA3"/>
<path d="M103.272 72.7017C103.097 72.7017 102.956 72.6316 102.816 72.5264C101.622 71.4747 99.5858 69.6517 99.3049 69.2661C99.0942 68.9506 99.1996 68.4948 99.5156 68.2845C99.8316 68.0741 100.253 68.1442 100.464 68.4598C100.674 68.7052 101.973 69.8971 103.237 71.0189L110.154 64.4983C110.435 64.2178 110.856 64.2529 111.137 64.5333C111.418 64.8138 111.383 65.2695 111.102 65.5149L103.764 72.4914C103.623 72.6316 103.448 72.7017 103.272 72.7017Z" fill="#27BBA3"/>
<path d="M188.453 43.8845C188.453 43.9897 150.217 44.0598 103.064 44.0598C55.8758 44.0598 17.6406 43.9897 17.6406 43.8845C17.6406 43.7793 55.8758 43.6741 103.064 43.6741C150.217 43.6741 188.453 43.7793 188.453 43.8845Z" fill="#263238"/>
<path d="M24.2747 37.1534C24.2747 37.7143 23.8183 38.135 23.2916 38.135C22.7299 38.135 22.2734 37.7143 22.2734 37.1534C22.2734 36.5925 22.7299 36.1718 23.2916 36.1718C23.8183 36.1718 24.2747 36.5925 24.2747 37.1534Z" fill="#263238"/>
<path d="M27.9974 37.1534C27.9974 37.7143 27.541 38.135 26.9792 38.135C26.4525 38.135 25.9961 37.7143 25.9961 37.1534C25.9961 36.5925 26.4525 36.1718 26.9792 36.1718C27.541 36.1718 27.9974 36.5925 27.9974 37.1534Z" fill="#263238"/>
<path d="M31.6497 37.1534C31.6497 37.7143 31.1933 38.135 30.6315 38.135C30.1049 38.135 29.6484 37.7143 29.6484 37.1534C29.6484 36.5925 30.1049 36.1718 30.6315 36.1718C31.1933 36.1718 31.6497 36.5925 31.6497 37.1534Z" fill="#263238"/>
<path d="M323.913 110.752C323.913 110.752 331.306 106.251 332.979 107.559C335.383 109.475 336.174 112.699 336.174 112.699C336.174 112.699 340.068 97.8271 343.81 98.3746C345.94 98.7091 344.875 100.382 343.932 102.45C343.05 104.396 341.528 111.513 341.528 111.513C341.528 111.513 348.587 103.149 350.655 103.301C352.268 103.423 352.481 104.822 350.169 107.073C347.887 109.354 344.054 116.47 344.054 116.47C344.054 116.47 348.982 111.878 351.02 111.847C352.663 111.817 353.698 112.942 351.598 114.767C349.499 116.622 346.305 117.991 344.601 121.306C342.502 125.381 338.03 135.539 338.03 135.539L322.392 130.004C322.392 130.004 319.837 119.633 319.715 117.109C319.715 117.109 319.928 111.756 319.928 110.813C319.897 109.871 322.392 109.627 323.153 111.452C323.913 113.277 323.579 115.193 323.883 116.409C324.187 117.595 324.765 118.721 325.647 119.268C326.53 119.815 328.781 119.846 329.359 119.177C329.937 118.508 330.637 116.561 330.789 115.375C330.941 114.159 330.728 112.273 330.728 112.273C330.728 112.273 324.248 114.919 323.913 110.752Z" fill="#FFBE9D"/>
<path d="M148.065 159.169L137.173 155.094C137.173 155.094 126.099 148.616 124.061 150.928C124.061 150.928 121.87 149.894 120.897 152.205C120.319 153.573 122.175 155.52 122.175 155.52C122.175 155.52 121.596 156.128 122.509 158.105C123.452 160.082 133.948 166.347 133.948 166.347C133.948 166.347 147.608 173.798 153.145 177.356L162.668 164.4L161.36 163.914C161.36 163.914 160.569 157.466 157.922 155.733C155.032 153.847 151.563 148.799 150.803 146.791C150.042 144.815 146.361 145.727 146.97 149.863C147.578 153.969 150.803 155.064 150.499 157.801C150.194 160.538 148.065 159.169 148.065 159.169Z" fill="#FFBE9D"/>
<path d="M131.361 160.69C131.33 160.751 129.201 159.656 126.645 158.227C124.059 156.767 122.021 155.55 122.051 155.459C122.112 155.398 124.211 156.493 126.797 157.922C129.353 159.382 131.421 160.599 131.361 160.69Z" fill="#EB996E"/>
<path d="M136.688 157.618C136.658 157.679 135.928 157.375 134.741 156.858C133.554 156.341 131.912 155.581 130.147 154.699C128.383 153.786 126.831 152.874 125.736 152.174C125.188 151.81 124.762 151.505 124.488 151.293C124.184 151.08 124.032 150.928 124.062 150.928C124.093 150.897 124.762 151.323 125.857 151.992C126.983 152.631 128.535 153.513 130.299 154.395C132.064 155.307 133.676 156.067 134.832 156.645C135.988 157.223 136.719 157.588 136.688 157.618Z" fill="#EB996E"/>
<path d="M138.97 163.61C138.97 163.64 138.605 163.458 137.997 163.093C137.358 162.697 136.506 162.18 135.441 161.572L135.411 161.542V161.511C134.924 160.477 134.315 159.261 133.555 157.983C133.159 157.345 132.733 156.676 132.186 156.159C131.608 155.611 130.695 155.52 130.026 155.976C129.873 156.067 129.721 156.25 129.691 156.311C129.691 156.341 129.691 156.341 129.721 156.371L129.752 156.493C129.792 156.594 129.823 156.686 129.843 156.767C129.985 157.132 130.127 157.497 130.269 157.862C130.553 158.551 130.827 159.22 131.09 159.869C131.638 161.177 132.125 162.363 132.581 163.397L132.551 163.366C133.433 164.4 134.194 165.282 134.741 165.921C134.964 166.205 135.157 166.438 135.319 166.62C135.461 166.803 135.522 166.894 135.502 166.894C135.502 166.894 135.421 166.823 135.258 166.681C135.096 166.499 134.893 166.276 134.65 166.012C134.072 165.374 133.281 164.522 132.368 163.518L132.338 163.488C131.881 162.484 131.395 161.298 130.817 159.991C130.553 159.342 130.269 158.663 129.965 157.953C129.823 157.608 129.691 157.253 129.569 156.888C129.529 156.787 129.488 156.696 129.448 156.615L129.417 156.463C129.387 156.402 129.387 156.311 129.387 156.25C129.448 156.037 129.508 156.006 129.6 155.915C129.681 155.834 129.772 155.773 129.873 155.733C130.239 155.459 130.725 155.337 131.182 155.398C131.638 155.429 132.064 155.642 132.368 155.915C133.007 156.493 133.403 157.193 133.798 157.831C134.589 159.139 135.167 160.355 135.624 161.42L135.563 161.359C136.597 162.028 137.449 162.576 138.088 162.971C138.666 163.366 139 163.61 138.97 163.61Z" fill="#EB996E"/>
<path d="M149.89 163.731C149.86 163.762 149.343 163.61 148.552 163.397C147.73 163.184 146.605 162.849 145.327 162.819C144.049 162.788 142.923 163.153 142.224 163.579C141.524 164.005 141.189 164.461 141.159 164.4C141.128 164.4 141.372 163.883 142.102 163.397C142.802 162.88 143.988 162.484 145.327 162.515C146.665 162.545 147.821 162.91 148.612 163.184C149.403 163.458 149.89 163.67 149.89 163.731Z" fill="#EB996E"/>
<path d="M149.069 160.842C149.13 160.903 148.856 161.359 148.613 161.967C148.339 162.576 148.157 163.093 148.065 163.093C148.005 163.062 148.035 162.484 148.309 161.846C148.583 161.207 149.009 160.781 149.069 160.842Z" fill="#EB996E"/>
<path d="M211.742 109.171C212.503 104.031 218.466 96.6714 223.759 96.6714C220.717 92.292 220.687 86.1182 223.638 81.678C225.676 78.6367 228.962 76.3862 230.361 73.0104C231.943 69.1784 230.726 64.8598 230.878 60.7541C231.091 54.702 234.225 49.1973 237.298 43.9664C240.097 39.1612 243.504 33.8998 249.011 32.7137C252.509 31.9838 256.13 33.0786 259.385 34.4776C275.053 41.138 287.253 55.1886 291.421 71.4289C292.425 75.3218 293.094 79.5187 295.802 82.5295C298.662 85.6925 303.712 87.426 304.564 91.5925C305.172 94.5729 303.256 97.5534 303.56 100.595C303.803 103.149 308.549 110.54 309.644 112.851C311.531 116.835 310.861 121.123 308.914 125.107C306.998 129.061 302.099 132.923 297.749 134.018L249.193 117.839C244.63 120.454 240.097 130.49 234.833 131.129C229.601 131.737 223.212 134.018 218.161 128.483C212.868 122.705 211.012 114.28 211.742 109.171Z" fill="#263238"/>
<path d="M292.271 60.8758C291.723 64.9511 292.819 71.6419 295.04 75.1393C296.53 77.4507 299.025 78.9713 301.489 80.3095C303.954 81.6476 306.509 82.9249 308.365 84.9626C310.221 87.0306 311.225 90.1023 309.977 92.5657C314.358 94.208 316.336 99.7735 314.723 104.092C313.111 108.411 308.7 111.3 304.106 112.151L284.087 106.13L279.676 80.5832L291.237 60.8758" fill="#263238"/>
<path d="M294.737 86.9394C294.737 86.9191 294.858 86.9698 295.102 87.0915C295.375 87.2131 295.741 87.3652 296.197 87.6693C297.14 88.1863 298.418 89.1291 299.726 90.5889C300.365 91.3188 301.004 92.2008 301.582 93.174C302.129 94.208 302.707 95.3333 303.042 96.5802C303.833 99.1045 303.985 102.115 303.103 105.126L303.042 104.944C304.168 105.582 305.293 106.403 306.297 107.407C308.853 109.931 310.313 113.246 310.648 116.318C310.983 119.42 310.252 122.248 309.218 124.347C308.184 126.445 306.875 127.875 305.932 128.757C305.446 129.183 305.05 129.517 304.776 129.7C304.492 129.902 304.34 130.004 304.32 130.004C304.32 129.983 304.452 129.872 304.715 129.669C304.989 129.456 305.385 129.122 305.841 128.666C306.754 127.753 308.032 126.324 309.005 124.225C310.009 122.157 310.709 119.39 310.374 116.348C310.009 113.338 308.579 110.114 306.054 107.62C305.08 106.647 304.016 105.826 302.89 105.217L302.768 105.157L302.799 105.035C303.681 102.115 303.529 99.1349 302.768 96.6714C302.434 95.4245 301.916 94.2993 301.369 93.2956C300.791 92.3224 300.213 91.4405 299.574 90.7106C298.296 89.2508 297.049 88.308 296.136 87.7605C295.71 87.4564 295.315 87.3044 295.102 87.1523C294.838 87.0104 294.716 86.9394 294.737 86.9394Z" fill="#455A64"/>
<path d="M235.472 113.368C235.472 113.368 226.527 116.105 223.394 120.667C221.173 123.891 198.446 173.068 198.446 173.068L163.977 162.697L151.625 178.998L190.019 200.257C197.108 204.21 205.779 204.15 212.867 200.166C216.792 197.945 219.986 194.63 222.055 190.616L231.821 171.943L235.472 113.368Z" fill="#D90452"/>
<path d="M226.313 220.512L231.698 197.307L227.621 180.458C225.005 171.791 222.753 157.649 225.613 146.274L235.136 113.55L245.632 108.715L269.636 104.579C270.548 104.883 294.735 111.726 294.735 111.726C298.082 112.486 299.42 113.033 299.42 113.033L302.189 130.946L293.853 160.477L290.232 189.917L298.203 220.512H226.313Z" fill="#D90452"/>
<path d="M240.188 111.209L247.155 108.107L278.522 108.532L285.945 112.851C285.945 112.851 260.024 141.439 253.514 142.382C237.146 144.754 240.188 111.209 240.188 111.209Z" fill="#FFBE9D"/>
<path d="M298.721 112.79C298.721 112.79 303.437 113.855 307.453 122.431C311.468 131.007 317.979 154.912 317.979 154.912L320.778 129.578L343.443 132.072L339.062 192.623C339.062 192.623 331.031 204.271 317.614 203.176C304.197 202.112 287.16 159.686 287.16 159.686L298.721 112.79Z" fill="#D90452"/>
<path d="M314.449 185.841C314.449 185.841 314.449 185.801 314.449 185.72C314.449 185.598 314.459 185.446 314.48 185.263C314.5 184.878 314.53 184.331 314.571 183.621C314.662 182.192 314.814 180.124 315.058 177.569C315.544 172.49 316.396 165.434 317.461 157.71C318.526 149.954 319.408 142.929 319.956 137.85C320.199 135.295 320.412 133.227 320.534 131.798C320.615 131.109 320.666 130.561 320.686 130.156C320.706 129.994 320.727 129.852 320.747 129.73C320.767 129.629 320.777 129.578 320.777 129.578C320.777 129.578 320.777 129.629 320.777 129.73C320.777 129.852 320.777 129.994 320.777 130.156C320.737 130.561 320.696 131.109 320.656 131.798C320.564 133.227 320.412 135.295 320.169 137.85C319.682 142.959 318.83 149.985 317.765 157.74C316.701 165.495 315.818 172.521 315.271 177.599C315.027 180.154 314.814 182.222 314.693 183.652C314.632 184.341 314.581 184.888 314.54 185.294C314.52 185.456 314.5 185.598 314.48 185.72C314.459 185.801 314.449 185.841 314.449 185.841Z" fill="#263238"/>
<path d="M198.841 186.145C198.81 186.145 198.749 185.993 198.597 185.689C198.445 185.385 198.263 184.929 198.08 184.381C197.654 183.256 197.259 181.644 197.076 179.85C196.894 178.025 196.985 176.383 197.167 175.197C197.259 174.619 197.35 174.132 197.441 173.828C197.532 173.494 197.593 173.311 197.593 173.342C197.654 173.342 197.502 174.072 197.411 175.227C197.289 176.413 197.228 178.025 197.38 179.82C197.563 181.614 197.928 183.195 198.293 184.321C198.628 185.446 198.901 186.115 198.841 186.145Z" fill="#263238"/>
<path d="M202.647 186.693C202.647 186.723 202.494 186.541 202.251 186.237C202.008 185.932 201.703 185.476 201.308 184.898C200.547 183.743 199.665 182.04 198.965 180.032C198.266 178.025 197.9 176.109 197.779 174.741C197.718 174.041 197.688 173.494 197.688 173.098C197.688 172.703 197.688 172.49 197.718 172.49C197.779 172.49 197.809 173.342 197.992 174.71C198.174 176.079 198.57 177.934 199.239 179.941C199.939 181.918 200.821 183.591 201.49 184.777C202.19 185.963 202.707 186.662 202.647 186.693Z" fill="#263238"/>
<path d="M229.507 132.619C229.507 132.619 229.467 132.781 229.386 133.106C229.284 133.45 229.153 133.917 228.99 134.505C228.656 135.721 228.169 137.455 227.56 139.584C226.374 143.902 224.731 149.894 223.94 156.676C223.575 160.082 223.484 163.336 223.818 166.256C224.123 169.206 224.792 171.791 225.431 173.919C226.07 176.079 226.678 177.782 227.074 178.968C227.276 179.536 227.439 179.992 227.56 180.337C227.662 180.641 227.713 180.793 227.713 180.793C227.692 180.793 227.621 180.641 227.5 180.337C227.358 180.012 227.175 179.566 226.952 178.998C226.526 177.843 225.887 176.14 225.187 174.011C224.548 171.851 223.849 169.266 223.514 166.286C223.179 163.336 223.24 160.051 223.636 156.645C224.427 149.833 226.1 143.841 227.347 139.523C227.956 137.394 228.504 135.66 228.899 134.444C229.082 133.876 229.224 133.42 229.325 133.075C229.426 132.771 229.487 132.619 229.507 132.619Z" fill="#263238"/>
<path d="M292.909 172.49C292.909 172.49 292.889 172.439 292.849 172.338C292.788 172.237 292.717 172.095 292.636 171.912C292.433 171.486 292.169 170.899 291.845 170.148C291.51 169.388 291.084 168.476 290.628 167.381C290.171 166.286 289.685 165.039 289.137 163.67C288.589 162.271 288.072 160.751 287.494 159.078C287.23 158.247 286.957 157.385 286.673 156.493C286.551 156.047 286.419 155.601 286.277 155.155C286.125 154.699 286.034 154.212 285.912 153.756C284.878 149.954 283.995 145.697 283.752 141.135C283.478 136.603 283.904 132.224 285.06 128.453C286.155 124.651 288.042 121.519 290.08 119.359C292.118 117.139 294.248 115.892 295.739 115.193C296.499 114.858 297.108 114.645 297.534 114.524C297.737 114.483 297.899 114.443 298.021 114.402C298.142 114.382 298.203 114.372 298.203 114.372C298.203 114.372 298.142 114.392 298.021 114.432C297.899 114.473 297.747 114.524 297.564 114.584C297.138 114.737 296.56 114.98 295.8 115.314C294.309 116.014 292.24 117.322 290.263 119.511C288.255 121.671 286.399 124.773 285.334 128.544C284.208 132.285 283.782 136.634 284.056 141.135C284.33 145.636 285.182 149.894 286.186 153.665C286.308 154.131 286.429 154.597 286.551 155.064C286.693 155.53 286.825 155.986 286.946 156.432C287.21 157.324 287.474 158.186 287.737 159.017C288.316 160.66 288.802 162.211 289.35 163.579C289.867 164.978 290.354 166.225 290.78 167.32C291.206 168.415 291.632 169.358 291.936 170.118C292.26 170.868 292.514 171.456 292.696 171.882C292.757 172.064 292.818 172.216 292.879 172.338C292.92 172.439 292.93 172.49 292.909 172.49Z" fill="#263238"/>
<g opacity="0.3">
<path d="M284.271 145.088C281.32 159.109 281.289 173.524 286.37 186.906C286.674 187.696 287.861 190.464 288.682 190.494C289.716 190.555 290.234 189.217 290.416 188.183C290.781 186.054 291.025 182.557 291.39 180.428C291.846 177.751 292.485 171.547 292.485 171.547C292.485 171.547 290.051 165.951 288.956 162.941C286.978 157.345 285.275 152.022 284.332 145.514" fill="black"/>
</g>
<path d="M281.866 199.405C281.866 199.405 281.784 199.527 281.622 199.77C281.44 200.014 281.196 200.348 280.892 200.774C280.73 200.997 280.547 201.24 280.344 201.504C280.162 201.777 279.918 202.021 279.675 202.325C279.158 202.903 278.61 203.602 277.88 204.241C277.535 204.586 277.17 204.94 276.785 205.305C276.42 205.67 275.963 206.035 275.538 206.4C274.686 207.16 273.682 207.86 272.647 208.59C270.487 210.019 267.993 211.388 265.254 212.483C262.455 213.547 259.717 214.216 257.162 214.612C255.884 214.764 254.667 214.946 253.541 214.977C252.963 214.977 252.416 215.037 251.868 215.037C251.341 215.017 250.834 214.997 250.347 214.977C249.373 214.977 248.522 214.824 247.731 214.764C247.366 214.703 247 214.672 246.666 214.612C246.341 214.551 246.047 214.5 245.783 214.459C245.276 214.338 244.871 214.247 244.567 214.186C244.283 214.125 244.141 214.095 244.141 214.095C244.141 214.074 244.283 214.084 244.567 214.125C244.891 214.186 245.307 214.257 245.814 214.338C246.078 214.378 246.372 214.429 246.696 214.49C247.031 214.52 247.366 214.551 247.761 214.581C248.522 214.642 249.404 214.764 250.377 214.764C250.844 214.764 251.341 214.774 251.868 214.794C252.416 214.794 252.963 214.733 253.511 214.703C254.667 214.672 255.854 214.49 257.131 214.338C259.626 213.912 262.364 213.243 265.133 212.179C267.871 211.084 270.335 209.746 272.465 208.347C273.499 207.617 274.534 206.948 275.385 206.187C275.811 205.822 276.237 205.488 276.633 205.123C277.018 204.778 277.383 204.433 277.728 204.089C278.458 203.45 279.006 202.781 279.523 202.203C279.797 201.929 280.04 201.656 280.253 201.412C280.436 201.149 280.618 200.916 280.801 200.713C281.125 200.307 281.379 199.973 281.561 199.709C281.744 199.486 281.845 199.385 281.866 199.405Z" fill="#263238"/>
<path d="M276.908 190.129C276.939 190.129 276.908 190.342 276.817 190.768C276.756 191.194 276.604 191.802 276.391 192.562C275.965 194.022 275.174 196.029 273.897 198.006C272.588 199.983 271.098 201.534 269.942 202.538C269.333 203.055 268.846 203.42 268.481 203.663C268.116 203.906 267.934 204.028 267.903 203.998C267.873 203.967 268.664 203.389 269.789 202.386C270.915 201.352 272.345 199.801 273.623 197.854C274.87 195.877 275.722 193.931 276.178 192.471C276.665 191.042 276.848 190.099 276.908 190.129Z" fill="#263238"/>
<path d="M265.863 28.8513C274.351 28.9121 282.657 33.6869 286.946 41.0163C291.236 48.3457 291.388 57.9257 287.281 65.3464C285.912 67.9011 283.904 70.3037 281.136 71.1856C282.079 56.6484 276.268 41.7766 265.711 31.7405" fill="#D90452"/>
<path d="M275.813 31.041C274.535 28.4255 275.874 25.1409 278.125 23.2858C280.376 21.461 283.327 20.7007 286.157 20.0316C288.986 19.3625 291.907 18.6631 294.188 16.8687C293.884 21.4306 292.728 26.1141 289.777 29.6116C286.826 33.109 281.715 35.025 277.516 33.2611" fill="#D90452"/>
<path d="M278.734 34.0518C276.787 34.873 274.475 34.356 272.741 33.1699C271.007 31.9838 269.759 30.1894 268.755 28.3647C267.508 26.1141 266.534 23.6811 266.2 21.0961C265.865 18.5414 266.2 15.8651 267.477 13.6146C270.794 17.1728 274.475 20.1533 276.391 24.6239C277.487 27.2394 277.365 31.4668 276.148 34.0518" fill="#D90452"/>
<path d="M288.162 48.8019C288.162 48.8019 288.223 49.1061 288.314 49.6535C288.375 49.9272 288.406 50.2617 288.436 50.6571C288.466 51.0525 288.527 51.4783 288.558 51.9953C288.588 52.9685 288.588 54.1546 288.466 55.4623C288.375 56.77 288.162 58.1994 287.797 59.6897C287.462 61.1799 287.006 62.5484 286.519 63.765C286.002 64.9815 285.485 66.0459 284.998 66.8974C284.755 67.3536 284.511 67.7186 284.298 68.0531C284.085 68.3877 283.903 68.6614 283.751 68.9047C283.416 69.3305 283.234 69.5738 283.203 69.5738C283.203 69.5738 283.355 69.3 283.629 68.8134C283.781 68.6006 283.964 68.2964 284.146 67.9619C284.329 67.6274 284.572 67.232 284.785 66.8062C285.272 65.9242 285.759 64.8598 286.245 63.6433C286.702 62.4268 287.158 61.0886 287.493 59.6288C287.858 58.169 288.071 56.7396 288.193 55.4319C288.314 54.1546 288.345 52.9685 288.314 51.9953C288.314 51.5087 288.284 51.0525 288.253 50.6571C288.253 50.2617 288.223 49.9272 288.193 49.6535C288.162 49.1061 288.132 48.8019 288.162 48.8019Z" fill="#263238"/>
<path d="M286.246 32.4704C286.276 32.5008 286.033 32.6833 285.576 33.0178C285.089 33.2915 284.359 33.6869 283.386 33.8694C281.439 34.3255 278.609 34.2343 275.597 33.4132H275.537L275.506 33.3219C275.466 33.1395 275.425 32.9468 275.384 32.7441C275.05 31.1626 274.989 29.6116 275.171 28.2126C275.354 26.8136 275.841 25.5971 276.449 24.7456C277.058 23.8636 277.788 23.3466 278.244 23.0121C278.792 22.7383 279.066 22.5863 279.066 22.6167C279.096 22.6471 278.822 22.8296 278.335 23.1337C277.879 23.4987 277.179 23.9853 276.632 24.8672C276.054 25.7188 275.628 26.9049 275.476 28.243C275.293 29.6116 275.384 31.1322 275.689 32.6833C275.729 32.8657 275.77 33.0482 275.81 33.2307L275.689 33.109C278.64 33.8998 281.408 34.0518 283.325 33.6565C284.298 33.5044 285.029 33.1395 285.515 32.9266C285.972 32.6224 286.246 32.4704 286.246 32.4704Z" fill="#263238"/>
<path d="M288.74 24.5935C288.74 24.6543 287.858 24.776 286.458 25.2018C285.759 25.4146 284.937 25.6884 284.085 26.0837C283.203 26.4791 282.26 26.9657 281.347 27.5739C280.404 28.1822 279.583 28.8513 278.883 29.4899C278.153 30.1286 277.575 30.7673 277.118 31.3147C276.175 32.44 275.688 33.2003 275.658 33.1699C275.628 33.1699 275.719 32.957 275.932 32.6224C276.145 32.2575 276.479 31.7709 276.936 31.193C277.392 30.6152 277.97 29.9461 278.67 29.277C279.4 28.608 280.222 27.9389 281.165 27.3002C282.108 26.692 283.051 26.2054 283.964 25.81C284.846 25.4451 285.698 25.1714 286.397 24.9889C287.128 24.8064 287.706 24.6847 288.101 24.6543C288.527 24.5935 288.74 24.5935 288.74 24.5935Z" fill="#263238"/>
<path d="M278.579 33.9606C278.599 33.9809 278.599 34.0417 278.579 34.1431C278.559 34.2647 278.498 34.4371 278.396 34.6601C278.214 35.0859 277.849 35.6637 277.21 36.1807C276.541 36.6673 275.598 37.1235 274.472 37.0627C273.346 37.0323 272.19 36.3328 271.46 35.2988C270.73 34.2343 270.517 32.8962 270.882 31.8317C271.247 30.7673 272.008 30.0374 272.707 29.6116C273.407 29.1858 274.107 29.0642 274.563 29.0338C274.786 29.0338 274.959 29.0439 275.08 29.0642C275.202 29.0844 275.263 29.1047 275.263 29.125C275.263 29.1554 274.989 29.0946 274.563 29.1554C274.107 29.2162 273.468 29.3683 272.829 29.7941C272.16 30.2198 271.46 30.9497 271.156 31.923C270.852 32.8962 271.034 34.1127 271.703 35.1163C272.403 36.0895 273.468 36.7281 274.472 36.7586C275.506 36.8498 276.419 36.4544 277.058 35.9982C277.697 35.5421 278.092 34.9946 278.305 34.5993C278.488 34.2039 278.549 33.9606 278.579 33.9606Z" fill="#263238"/>
<path d="M271.217 34.1127C271.186 34.1431 271.004 33.8086 271.278 33.322C271.43 33.1091 271.673 32.8658 272.008 32.7441C272.342 32.6225 272.707 32.6225 273.103 32.6529C274.624 32.7441 275.719 33.3524 275.689 33.4132C275.658 33.5044 274.533 33.0482 273.072 32.957C272.373 32.8962 271.734 33.0787 271.46 33.4436C271.186 33.8086 271.247 34.1127 271.217 34.1127Z" fill="#263238"/>
<path d="M267.475 13.6146C267.535 13.645 266.805 14.4965 266.531 16.1996C266.41 17.0512 266.379 18.0852 266.41 19.2409C266.41 20.3662 266.471 21.6435 266.714 22.9208C267.292 25.4755 268.357 27.6652 269.33 29.0642C269.817 29.7941 270.243 30.3415 270.547 30.7065C270.882 31.0714 271.064 31.2539 271.034 31.2843C271.004 31.3147 270.182 30.6152 269.148 29.2162C268.083 27.7868 267.018 25.5971 266.41 22.9817C266.136 21.6739 266.105 20.3966 266.105 19.2409C266.105 18.0852 266.136 17.0512 266.318 16.1692C266.471 15.3177 266.775 14.6486 267.018 14.2228C267.262 13.797 267.475 13.6146 267.475 13.6146Z" fill="#263238"/>
<path d="M270.638 20.8224C270.668 20.792 271.003 21.1873 271.49 21.8564C271.946 22.5559 272.554 23.5291 273.102 24.6848C273.619 25.8405 273.984 26.9353 274.167 27.7564C274.349 28.5776 274.41 29.0642 274.38 29.0946C274.288 29.0946 273.863 27.0874 272.798 24.8064C271.763 22.5255 270.546 20.8832 270.638 20.8224Z" fill="#263238"/>
<path d="M269.604 24.624C269.665 24.5631 270.699 25.5972 272.038 26.8137C273.376 27.9998 274.441 29.0034 274.38 29.0946C274.319 29.1554 273.163 28.2431 271.825 27.0265C270.456 25.8405 269.512 24.6848 269.604 24.624Z" fill="#263238"/>
<path d="M285.517 38.8875C285.517 38.8875 285.486 38.9179 285.426 38.9787C285.345 39.0395 285.253 39.1105 285.152 39.1916C284.939 39.4045 284.574 39.6782 284.117 39.9823C283.235 40.5906 281.897 41.3205 280.284 41.8375C278.702 42.3545 277.181 42.5674 276.116 42.5978C275.568 42.6282 275.112 42.6282 274.808 42.5978C274.686 42.5978 274.575 42.5877 274.473 42.5674C274.392 42.5674 274.352 42.5674 274.352 42.5674C274.352 42.5674 274.392 42.5572 274.473 42.537C274.575 42.5572 274.686 42.5674 274.808 42.5674C275.112 42.5674 275.568 42.537 276.086 42.5066C277.181 42.4457 278.672 42.2328 280.254 41.7158C281.836 41.1988 283.174 40.4993 284.087 39.8911C284.543 39.6174 284.908 39.3436 285.121 39.1612C285.223 39.0801 285.324 39.0091 285.426 38.9483C285.486 38.9077 285.517 38.8875 285.517 38.8875Z" fill="#FAFAFA"/>
<path d="M289.108 46.2473C289.108 46.2473 289.077 46.2777 289.016 46.3385C288.935 46.3994 288.844 46.4703 288.743 46.5514C288.499 46.7643 288.164 47.0076 287.708 47.3422C286.795 47.9504 285.457 48.6803 283.905 49.2582C282.323 49.8056 280.832 50.1097 279.737 50.201C279.19 50.2618 278.733 50.2922 278.429 50.2618C278.307 50.2618 278.196 50.2618 278.094 50.2618C278.196 50.2415 278.307 50.2314 278.429 50.2314C278.733 50.201 279.19 50.1705 279.707 50.1097C280.802 49.9881 282.293 49.6839 283.844 49.1365C285.426 48.5587 286.735 47.8592 287.647 47.2509C288.104 46.9468 288.469 46.7035 288.712 46.521C288.813 46.4399 288.915 46.369 289.016 46.3081C289.077 46.2676 289.108 46.2473 289.108 46.2473Z" fill="#FAFAFA"/>
<path d="M288.103 56.983C288.103 56.983 288.011 57.0742 287.859 57.1654C287.677 57.2871 287.433 57.4392 287.099 57.6216C286.46 57.9866 285.517 58.382 284.421 58.6861C283.326 58.9598 282.322 59.051 281.561 59.0814C281.196 59.0814 280.923 59.051 280.71 59.051C280.497 59.0206 280.375 59.0206 280.375 59.0206C280.375 58.9902 280.497 58.9902 280.71 58.9902C280.923 58.9902 281.196 58.9902 281.561 58.9902C282.292 58.9598 283.326 58.8381 284.391 58.5644C285.486 58.2603 286.399 57.8649 287.068 57.5304C287.403 57.3783 287.646 57.2263 287.829 57.135C288.011 57.0438 288.103 56.983 288.103 56.983Z" fill="#FAFAFA"/>
<path d="M290.169 55.3407C290.169 55.3711 289.804 55.4928 289.348 55.5536C288.892 55.6448 288.527 55.7056 288.496 55.6752C288.496 55.6448 288.861 55.5232 289.318 55.4319C289.774 55.3407 290.169 55.3103 290.169 55.3407Z" fill="#FAFAFA"/>
<path d="M284.147 67.9619C284.147 67.9923 283.509 68.0835 282.748 68.0531C281.987 67.9923 281.379 67.8098 281.379 67.7794C281.379 67.7186 281.987 67.8707 282.748 67.9011C283.509 67.9619 284.147 67.9315 284.147 67.9619Z" fill="#FAFAFA"/>
<path d="M272.585 36.1503C272.616 36.1808 272.251 36.4241 271.764 36.6674C271.307 36.9411 270.912 37.1235 270.912 37.0931C270.882 37.0627 271.247 36.8194 271.703 36.5761C272.19 36.3024 272.585 36.1199 272.585 36.1503Z" fill="#FAFAFA"/>
<path d="M269.574 29.7637C269.574 29.8245 268.692 30.0678 267.779 30.7369C266.836 31.3755 266.319 32.1359 266.258 32.1054C266.258 32.1054 266.38 31.923 266.623 31.6188C266.866 31.3451 267.231 30.9802 267.688 30.6456C268.174 30.3111 268.631 30.0678 268.996 29.9461C269.331 29.8245 269.574 29.7637 269.574 29.7637Z" fill="#FAFAFA"/>
<path d="M275.052 36.8498C275.022 36.8498 275.235 36.0287 275.083 34.9947C274.961 33.991 274.535 33.2307 274.596 33.2307C274.596 33.2307 274.717 33.3828 274.839 33.7173C274.991 34.0214 275.143 34.4776 275.204 34.9947C275.265 35.5117 275.235 35.9679 275.204 36.3024C275.143 36.6673 275.052 36.8498 275.052 36.8498Z" fill="#FAFAFA"/>
<path d="M293.882 17.0208C293.882 17.0208 293.669 17.2945 293.212 17.7202C292.756 18.146 292.056 18.7239 291.113 19.3321C290.139 19.9404 288.953 20.5486 287.614 21.1569C286.245 21.7347 284.724 22.343 283.203 23.0729C281.651 23.8332 280.252 24.6543 279.157 25.6579C278.061 26.6311 277.27 27.726 276.784 28.7296C276.297 29.7332 276.114 30.6456 276.053 31.2539C276.023 31.8925 276.053 32.2271 276.023 32.2271C276.023 32.2271 276.023 32.146 276.023 31.9838C276.003 31.8216 276.003 31.5783 276.023 31.2539C276.053 30.6152 276.236 29.7332 276.692 28.6992C277.179 27.6652 277.97 26.5703 279.065 25.5667C280.191 24.5631 281.59 23.7115 283.142 22.9512C284.694 22.2213 286.215 21.6435 287.553 21.0352C288.923 20.4574 290.109 19.8491 291.052 19.2713C291.995 18.663 292.725 18.1156 293.182 17.6898C293.405 17.4668 293.577 17.2945 293.699 17.1728C293.821 17.0714 293.882 17.0208 293.882 17.0208Z" fill="#FAFAFA"/>
<path d="M292.239 24.2286C292.239 24.2286 292.208 24.2793 292.148 24.3806C292.066 24.482 291.985 24.6037 291.904 24.7456C291.691 25.0801 291.326 25.5363 290.9 26.1142C289.987 27.209 288.649 28.6384 286.915 29.9766C285.211 31.3147 283.477 32.2879 282.169 32.8658C281.53 33.1699 280.982 33.3828 280.617 33.5044C280.455 33.5653 280.313 33.6159 280.191 33.6565C280.09 33.697 280.039 33.7072 280.039 33.6869C280.039 33.6869 280.08 33.6666 280.161 33.6261C280.303 33.5855 280.445 33.5247 280.587 33.4436C280.952 33.3219 281.499 33.0786 282.138 32.7745C283.416 32.1663 285.12 31.2235 286.854 29.8853C288.558 28.5472 289.927 27.1482 290.809 26.0533C291.265 25.5059 291.63 25.0497 291.843 24.7152C291.945 24.5935 292.036 24.4719 292.117 24.3502C292.178 24.2691 292.219 24.2286 292.239 24.2286Z" fill="#FAFAFA"/>
<path d="M266.836 15.6826C266.836 15.6826 267.597 15.9563 268.661 16.6558C269.757 17.3553 271.186 18.4806 272.403 20.0316C273.62 21.5827 274.411 23.2249 274.837 24.4414C275.263 25.658 275.354 26.4487 275.354 26.4487C275.354 26.4487 275.344 26.398 275.324 26.2966C275.283 26.175 275.243 26.0432 275.202 25.9013C275.142 25.5667 274.959 25.0497 274.746 24.4719C274.32 23.2554 273.529 21.6435 272.312 20.1229C271.095 18.5718 269.696 17.4465 268.631 16.7471C268.083 16.3821 267.627 16.1084 267.323 15.9563C267.181 15.8752 267.059 15.8043 266.958 15.7434C266.876 15.7029 266.836 15.6826 266.836 15.6826Z" fill="#FAFAFA"/>
<path d="M236.322 38.5529C236.566 41.7767 234.436 44.6659 232.276 47.0685C230.146 49.5015 227.743 52.0257 227.287 55.219C226.465 60.8758 232.002 66.1372 230.877 71.7635C230.268 74.7744 227.804 77.1769 227.347 80.2182C226.922 83.1682 228.504 86.0574 230.451 88.2776C232.398 90.5281 234.679 90.1936 236.383 92.5961C238.209 95.1508 241.16 97.7663 243.898 99.2565C250.104 102.663 257.588 97.7359 260.6 96.8539" fill="#263238"/>
<path d="M283.387 51.7824C286.247 50.5051 286.46 40.256 279.28 39.0699C276.39 38.5833 273.987 37.1844 271.553 35.5421C269.423 34.0823 268.784 30.4328 266.959 28.5776C262.487 24.0461 255.52 22.1909 249.405 23.8636C243.259 25.5363 238.209 30.6761 236.657 36.8498C235.623 41.0164 236.323 45.9128 239.608 48.6803C243.411 51.9041 249.07 51.2046 253.968 50.201C258.836 49.1973 264.373 48.1937 268.45 51.0829C270.914 52.8164 272.313 55.6144 273.804 58.2299C275.325 60.815 277.211 63.4913 280.041 64.4645C280.041 64.4645 282.201 69.5434 280.436 73.0712C278.672 76.6295 282.505 70.5774 282.505 70.5774C282.505 70.5774 289.533 58.1387 283.387 51.7824Z" fill="#263238"/>
<path d="M246.91 123.891C246.88 117.17 246.941 98.3441 246.91 98.3745C246.91 98.3745 236.262 96.5802 234.072 82.6816C233.007 75.7475 233.372 64.4036 233.981 55.1278C234.528 46.7947 240.065 36.5761 248.401 37.4581L274.352 44.088C276.877 44.3617 278.764 46.521 278.733 49.0453L277.151 113.49L246.91 123.891Z" fill="#FFBE9D"/>
<path d="M238.392 63.0959C238.361 64.0387 239.122 64.8294 240.126 64.8902C241.099 64.951 241.921 64.2211 241.951 63.2784C241.981 62.3356 241.221 61.5448 240.247 61.484C239.274 61.4232 238.422 62.1531 238.392 63.0959Z" fill="#263238"/>
<path d="M236.413 61.0582C236.656 61.2711 237.995 60.2675 239.911 60.2979C241.828 60.2675 243.258 61.2711 243.441 61.0278C243.562 60.9366 243.319 60.5108 242.71 60.0546C242.132 59.5984 241.098 59.1727 239.881 59.1727C238.695 59.1727 237.691 59.6289 237.113 60.0546C236.504 60.5108 236.322 60.9366 236.413 61.0582Z" fill="#263238"/>
<path d="M255.306 64.0995C255.519 64.3428 256.888 63.3392 258.805 63.3392C260.722 63.3392 262.121 64.3124 262.334 64.0995C262.426 63.9779 262.213 63.5521 261.604 63.1263C260.996 62.6702 259.961 62.2444 258.775 62.2444C257.588 62.2444 256.554 62.6702 255.976 63.1263C255.398 63.5825 255.185 64.0083 255.306 64.0995Z" fill="#263238"/>
<path d="M248.311 75.6563C248.311 75.5651 247.124 75.3522 245.177 75.1089C244.691 75.0481 244.234 74.9568 244.143 74.6223C244.021 74.2573 244.234 73.7403 244.478 73.1625C244.944 71.9662 245.431 70.7193 245.938 69.4217C247.976 64.1299 249.437 59.7505 249.224 59.6593C249.011 59.5985 247.185 63.8258 245.147 69.148C244.66 70.4456 244.204 71.6925 243.778 72.8888C243.565 73.4362 243.261 74.0749 243.504 74.8048C243.626 75.1697 243.991 75.4434 244.295 75.5347C244.63 75.6259 244.904 75.6259 245.147 75.6563C247.094 75.7475 248.311 75.778 248.311 75.6563Z" fill="#263238"/>
<path d="M246.91 98.3745C246.91 98.3745 256.281 99.0132 265.56 93.4477C265.408 93.4781 260.449 103.119 247.093 101.659L246.91 98.3745Z" fill="#EB996E"/>
<path d="M248.856 81.2218C248.613 80.0357 250.012 79.6403 251.047 79.0017C252.05 78.363 252.659 77.5419 253.602 78.2414C254.15 78.6671 254.545 79.2754 254.789 79.9141C254.941 80.3398 255.062 80.8264 254.971 81.2826C254.88 81.8301 254.545 82.3167 254.119 82.6816C253.541 83.229 252.811 83.6548 252.05 83.7765C251.259 83.8981 250.408 83.7461 249.769 83.2594C249.16 82.7728 248.795 81.9213 248.917 81.161" fill="#EB996E"/>
<path d="M253.937 76.9944C253.632 76.9944 253.632 79.0625 251.837 80.5527C250.042 82.0125 247.822 81.7996 247.822 82.0733C247.791 82.195 248.308 82.4687 249.251 82.4991C250.164 82.5295 251.503 82.2558 252.598 81.3434C253.693 80.4311 254.18 79.245 254.241 78.3934C254.332 77.5115 254.089 76.9944 253.937 76.9944Z" fill="#263238"/>
<path d="M255.002 59.8113C255.215 60.3283 257.131 60.085 259.383 60.3587C261.634 60.602 263.46 61.2711 263.764 60.7845C263.885 60.5716 263.581 60.085 262.821 59.568C262.121 59.0814 260.934 58.5948 259.596 58.4427C258.227 58.2907 257.01 58.5036 256.188 58.8381C255.367 59.1422 254.941 59.568 255.002 59.8113Z" fill="#263238"/>
<path d="M236.688 54.3979C237.023 54.8541 238.361 54.3979 239.943 54.3675C241.525 54.3066 242.894 54.6716 243.198 54.2154C243.32 54.0025 243.107 53.5463 242.529 53.151C241.951 52.7252 240.978 52.3906 239.882 52.421C238.787 52.4515 237.844 52.8468 237.296 53.303C236.718 53.7288 236.536 54.185 236.688 54.3979Z" fill="#263238"/>
<path d="M280.252 90.6193C276.419 91.3796 276.084 89.4332 273.224 86.7873C270.365 84.1414 268.874 80.0661 269.361 76.2037C269.787 72.7671 271.642 69.3001 270.456 66.0763C268.904 61.7882 262.911 60.4804 261.299 56.2226C260.386 53.7288 261.207 50.8396 260.173 48.4066C259.169 46.1257 256.765 44.7875 254.423 43.9664C252.08 43.1148 249.586 42.5065 247.608 40.9859C245.661 39.4653 244.414 36.5761 245.691 34.4472C256.066 35.6941 266.318 38.1575 276.084 41.8375C278.366 42.689 280.769 43.6926 282.108 45.6999C283.508 47.8592 283.447 50.5963 283.325 53.1814C282.737 65.6708 282.159 78.1603 281.591 90.6497" fill="#263238"/>
<path d="M289.105 85.9662C289.105 85.9662 289.156 85.9054 289.257 85.7838C289.348 85.6621 289.501 85.4796 289.653 85.2363C289.957 84.7193 290.322 83.8982 290.565 82.8033C290.778 81.678 290.809 80.2486 290.322 78.6976C289.896 77.1161 288.831 75.4435 287.097 74.3182C285.454 73.1625 283.294 72.3414 281.925 70.5166C281.256 69.6042 280.952 68.4181 281.165 67.2321C281.347 66.046 281.895 64.8599 282.381 63.6129C283.446 61.1495 283.446 58.017 282.199 55.3103C281.59 53.9721 280.647 52.7252 279.37 51.8128C278.153 50.8701 276.601 50.3835 275.11 50.0489C273.62 49.7144 272.098 49.5015 270.699 49.0757C269.33 48.6803 267.991 48.0417 267.018 47.0685C266.014 46.0953 265.618 44.7571 265.405 43.419C265.223 42.0808 265.131 40.6818 264.766 39.3741C264.097 36.7586 262.758 34.4472 260.994 32.805C259.26 31.1323 257.13 30.1591 255.092 29.8549C253.053 29.5508 251.167 29.9158 249.707 30.6761C248.277 31.406 247.243 32.44 246.604 33.3524C245.965 34.2952 245.661 35.1467 245.508 35.7246C245.387 36.3024 245.387 36.637 245.387 36.637C245.478 36.6674 245.478 35.3292 246.786 33.5045C247.455 32.6225 248.459 31.6493 249.859 30.9802C251.258 30.2807 253.084 29.9462 255.031 30.2807C256.948 30.6153 259.016 31.558 260.659 33.1699C262.302 34.7514 263.58 37.0019 264.219 39.5262C264.553 40.7731 264.645 42.1112 264.827 43.5102C265.01 44.8788 265.497 46.3994 266.592 47.4943C267.657 48.5587 269.086 49.2278 270.547 49.6536C272.007 50.1097 273.498 50.2922 274.989 50.6572C276.449 50.9917 277.879 51.4479 279.035 52.2995C280.191 53.151 281.073 54.3067 281.651 55.584C282.838 58.1387 282.868 61.0279 281.864 63.4305C281.408 64.647 280.83 65.8635 280.647 67.1712C280.404 68.4486 280.769 69.8171 281.53 70.7903C283.051 72.7976 285.241 73.5883 286.854 74.6831C288.527 75.7476 289.561 77.2986 290.018 78.7888C290.474 80.2791 290.505 81.678 290.322 82.7425C289.957 84.9626 289.014 85.9054 289.105 85.9662Z" fill="#455A64"/>
<path d="M271.007 72.1284C267.843 79.3666 267.265 87.6997 269.364 95.3332C270.003 97.6142 270.885 99.956 270.337 102.267C269.759 104.761 267.69 106.556 266.169 108.624C263.553 112.151 262.519 116.835 263.431 121.123C264.344 125.442 267.143 129.304 270.946 131.494C271.372 129.213 273.501 127.662 275.601 126.658C277.7 125.655 280.012 124.925 281.624 123.252C283.206 121.549 283.663 118.477 281.807 117.078C287.161 115.679 290.204 109.323 289.078 103.91C287.952 98.4962 283.541 94.208 278.521 91.8662" fill="#263238"/>
<path d="M276.725 126.141C275.751 126.658 274.839 127.145 274.717 128.24C274.565 129.487 275.782 131.737 276.238 132.954C277.09 135.295 276.451 138.124 274.656 139.888C272.861 141.621 270.001 142.199 267.659 141.287C269.393 141.408 270.823 139.736 271.005 138.033C271.158 136.299 270.306 134.657 269.302 133.288C268.267 131.889 267.02 130.673 266.168 129.182C264.404 126.172 261.787 117.93 263.795 113.338" fill="#263238"/>
<path d="M281.593 117.291C281.593 117.291 281.704 117.2 281.927 117.017C282.15 116.835 282.465 116.582 282.87 116.257C283.692 115.558 284.817 114.524 286.004 113.003C287.16 111.513 288.347 109.536 288.955 107.103C289.564 104.7 289.624 101.811 288.56 99.1044C288.042 97.7663 287.282 96.5802 286.369 95.5462C285.487 94.5121 284.483 93.6302 283.57 92.7482C282.657 91.8966 281.806 91.0451 281.075 90.1631C280.376 89.2811 279.828 88.3688 279.433 87.4564C278.672 85.6925 278.642 84.0502 278.915 82.9857C279.037 82.4687 279.22 82.1038 279.372 81.8605C279.514 81.5969 279.595 81.4752 279.615 81.4955C279.646 81.4955 279.28 81.9821 279.037 83.0162C278.794 84.0502 278.855 85.662 279.646 87.3652C280.041 88.2471 280.589 89.1291 281.288 89.9806C281.988 90.8626 282.87 91.6837 283.783 92.5353C284.696 93.4173 285.7 94.2992 286.612 95.3637C287.525 96.3977 288.316 97.6142 288.864 98.9828C289.929 101.781 289.868 104.7 289.259 107.164C288.59 109.658 287.373 111.665 286.187 113.155C284.97 114.645 283.783 115.679 282.962 116.348C282.536 116.673 282.201 116.916 281.958 117.078C281.714 117.22 281.593 117.291 281.593 117.291Z" fill="#455A64"/>
<path d="M346.063 220.454C346.063 220.546 283.664 220.637 206.693 220.637C129.692 220.637 67.3242 220.546 67.3242 220.454C67.3242 220.363 129.692 220.302 206.693 220.302C283.664 220.302 346.063 220.363 346.063 220.454Z" fill="#263238"/>
<path d="M153.522 102.177L153.249 95.6694H155.158L154.885 102.177H153.522ZM154.204 105.649C153.876 105.649 153.608 105.54 153.399 105.322C153.19 105.104 153.086 104.837 153.086 104.519C153.086 104.201 153.19 103.933 153.399 103.716C153.608 103.498 153.876 103.389 154.204 103.389C154.531 103.389 154.799 103.498 155.008 103.716C155.217 103.933 155.322 104.201 155.322 104.519C155.322 104.837 155.217 105.104 155.008 105.322C154.799 105.54 154.531 105.649 154.204 105.649Z" fill="#100E0F"/>
<path d="M148.5 105.649C147.836 105.649 147.236 105.499 146.7 105.2C146.173 104.891 145.75 104.478 145.432 103.961C145.123 103.434 144.968 102.849 144.968 102.204C144.968 101.56 145.123 100.984 145.432 100.475C145.741 99.958 146.163 99.5496 146.7 99.2501C147.236 98.9415 147.832 98.7872 148.486 98.7872C149.159 98.7872 149.759 98.9415 150.286 99.2501C150.822 99.5496 151.245 99.958 151.554 100.475C151.863 100.984 152.017 101.56 152.017 102.204C152.017 102.849 151.863 103.434 151.554 103.961C151.245 104.478 150.822 104.891 150.286 105.2C149.759 105.499 149.163 105.649 148.5 105.649ZM148.486 103.988C148.822 103.988 149.118 103.915 149.372 103.77C149.636 103.616 149.836 103.407 149.972 103.144C150.118 102.872 150.19 102.563 150.19 102.218C150.19 101.873 150.118 101.569 149.972 101.306C149.827 101.043 149.627 100.838 149.372 100.693C149.118 100.539 148.822 100.462 148.486 100.462C148.159 100.462 147.868 100.539 147.613 100.693C147.359 100.838 147.159 101.043 147.013 101.306C146.868 101.569 146.795 101.873 146.795 102.218C146.795 102.563 146.868 102.872 147.013 103.144C147.159 103.407 147.359 103.616 147.613 103.77C147.868 103.915 148.159 103.988 148.486 103.988Z" fill="#100E0F"/>
<path d="M140.17 105.649C139.561 105.649 139.016 105.499 138.534 105.2C138.052 104.9 137.67 104.492 137.389 103.974C137.116 103.457 136.979 102.876 136.979 102.232C136.979 101.578 137.116 100.993 137.389 100.475C137.67 99.958 138.048 99.5496 138.52 99.2501C139.002 98.9505 139.552 98.8008 140.17 98.8008C140.643 98.8008 141.065 98.8961 141.438 99.0867C141.82 99.2773 142.124 99.545 142.352 99.8899C142.588 100.226 142.715 100.607 142.733 101.034V103.375C142.715 103.802 142.593 104.188 142.365 104.533C142.138 104.877 141.834 105.15 141.452 105.349C141.07 105.549 140.643 105.649 140.17 105.649ZM140.47 104.002C140.806 104.002 141.097 103.929 141.343 103.784C141.597 103.629 141.793 103.421 141.929 103.157C142.074 102.885 142.147 102.572 142.147 102.218C142.147 101.873 142.074 101.569 141.929 101.306C141.793 101.034 141.597 100.825 141.343 100.68C141.097 100.525 140.811 100.448 140.484 100.448C140.147 100.448 139.852 100.525 139.597 100.68C139.352 100.834 139.157 101.043 139.011 101.306C138.875 101.569 138.807 101.873 138.807 102.218C138.807 102.572 138.875 102.885 139.011 103.157C139.157 103.421 139.357 103.629 139.611 103.784C139.866 103.929 140.152 104.002 140.47 104.002ZM143.824 105.513H142.052V103.743L142.338 102.136L142.038 100.557V95.6694H143.824V105.513Z" fill="#100E0F"/>
<path d="M132.127 105.649C131.527 105.649 130.986 105.499 130.504 105.2C130.023 104.9 129.645 104.492 129.373 103.974C129.1 103.457 128.964 102.876 128.964 102.232C128.964 101.578 129.1 100.993 129.373 100.475C129.645 99.958 130.023 99.5496 130.504 99.2501C130.986 98.9505 131.527 98.8008 132.127 98.8008C132.6 98.8008 133.022 98.8961 133.395 99.0867C133.768 99.2773 134.063 99.545 134.281 99.8899C134.508 100.226 134.631 100.607 134.649 101.034V103.402C134.631 103.838 134.508 104.224 134.281 104.56C134.063 104.896 133.768 105.163 133.395 105.363C133.022 105.554 132.6 105.649 132.127 105.649ZM132.454 104.002C132.954 104.002 133.359 103.838 133.668 103.511C133.977 103.176 134.131 102.744 134.131 102.218C134.131 101.873 134.058 101.569 133.913 101.306C133.777 101.034 133.581 100.825 133.327 100.68C133.081 100.525 132.79 100.448 132.454 100.448C132.127 100.448 131.836 100.525 131.581 100.68C131.336 100.825 131.141 101.034 130.995 101.306C130.859 101.569 130.791 101.873 130.791 102.218C130.791 102.572 130.859 102.885 130.995 103.157C131.141 103.421 131.336 103.629 131.581 103.784C131.836 103.929 132.127 104.002 132.454 104.002ZM134.036 105.513V103.743L134.322 102.136L134.036 100.557V98.9369H135.808V105.513H134.036Z" fill="#100E0F"/>
<path d="M125.99 105.513V98.9369H127.79V105.513H125.99ZM126.89 97.875C126.599 97.875 126.359 97.7797 126.168 97.5891C125.977 97.3894 125.881 97.1443 125.881 96.8539C125.881 96.5725 125.977 96.332 126.168 96.1323C126.359 95.9326 126.599 95.8328 126.89 95.8328C127.19 95.8328 127.431 95.9326 127.613 96.1323C127.804 96.332 127.899 96.5725 127.899 96.8539C127.899 97.1443 127.804 97.3894 127.613 97.5891C127.431 97.7797 127.19 97.875 126.89 97.875Z" fill="#100E0F"/>
<path d="M120.994 105.513L118.09 98.9369H120.053L122.139 104.356H121.171L123.271 98.9369H125.166L122.276 105.513H120.994Z" fill="#100E0F"/>
<path d="M115.628 105.513V101.742C115.628 101.351 115.506 101.034 115.26 100.789C115.015 100.543 114.697 100.421 114.306 100.421C114.051 100.421 113.824 100.475 113.624 100.584C113.424 100.693 113.265 100.847 113.147 101.047C113.038 101.247 112.983 101.478 112.983 101.742L112.288 101.388C112.288 100.87 112.397 100.421 112.615 100.04C112.842 99.6494 113.151 99.3454 113.542 99.1275C113.942 98.9097 114.392 98.8008 114.892 98.8008C115.374 98.8008 115.806 98.9233 116.187 99.1684C116.569 99.4044 116.869 99.7175 117.087 100.108C117.305 100.489 117.414 100.902 117.414 101.347V105.513H115.628ZM111.197 105.513V98.9369H112.983V105.513H111.197Z" fill="#100E0F"/>
<path d="M106.97 105.649C106.279 105.649 105.665 105.504 105.129 105.213C104.593 104.914 104.165 104.505 103.847 103.988C103.538 103.471 103.384 102.881 103.384 102.218C103.384 101.565 103.534 100.984 103.834 100.475C104.143 99.958 104.561 99.5496 105.088 99.2501C105.615 98.9415 106.202 98.7872 106.847 98.7872C107.483 98.7872 108.042 98.9324 108.524 99.2228C109.015 99.5042 109.397 99.8945 109.67 100.394C109.951 100.884 110.092 101.442 110.092 102.068C110.092 102.186 110.083 102.309 110.065 102.436C110.056 102.554 110.033 102.69 109.997 102.844L104.461 102.858V101.524L109.165 101.51L108.442 102.068C108.424 101.678 108.351 101.351 108.224 101.088C108.106 100.825 107.929 100.625 107.692 100.489C107.465 100.344 107.183 100.271 106.847 100.271C106.493 100.271 106.183 100.353 105.92 100.516C105.656 100.671 105.452 100.893 105.306 101.183C105.17 101.465 105.102 101.801 105.102 102.191C105.102 102.59 105.174 102.94 105.32 103.239C105.474 103.53 105.693 103.756 105.974 103.92C106.256 104.074 106.583 104.151 106.956 104.151C107.292 104.151 107.597 104.097 107.87 103.988C108.142 103.87 108.379 103.697 108.579 103.471L109.629 104.519C109.31 104.891 108.92 105.172 108.456 105.363C108.001 105.554 107.506 105.649 106.97 105.649Z" fill="#100E0F"/>
<path d="M96.9299 105.649C96.239 105.649 95.6254 105.504 95.0891 105.213C94.5528 104.914 94.1256 104.505 93.8074 103.988C93.4984 103.471 93.3438 102.881 93.3438 102.218C93.3438 101.565 93.4938 100.984 93.7938 100.475C94.1029 99.958 94.521 99.5496 95.0482 99.2501C95.5754 98.9415 96.1618 98.7872 96.8072 98.7872C97.4435 98.7872 98.0025 98.9324 98.4843 99.2228C98.9751 99.5042 99.3569 99.8945 99.6296 100.394C99.9114 100.884 100.052 101.442 100.052 102.068C100.052 102.186 100.043 102.309 100.025 102.436C100.016 102.554 99.9932 102.69 99.9569 102.844L94.421 102.858V101.524L99.1251 101.51L98.4025 102.068C98.3843 101.678 98.3116 101.351 98.1843 101.088C98.0661 100.825 97.8889 100.625 97.6525 100.489C97.4253 100.344 97.1435 100.271 96.8072 100.271C96.4526 100.271 96.1436 100.353 95.88 100.516C95.6163 100.671 95.4118 100.893 95.2664 101.183C95.13 101.465 95.0619 101.801 95.0619 102.191C95.0619 102.59 95.1346 102.94 95.28 103.239C95.4346 103.53 95.6527 103.756 95.9345 103.92C96.2163 104.074 96.5435 104.151 96.9162 104.151C97.2526 104.151 97.5571 104.097 97.8298 103.988C98.1025 103.87 98.3388 103.697 98.5388 103.471L99.5887 104.519C99.2706 104.891 98.8797 105.172 98.4161 105.363C97.9616 105.554 97.4662 105.649 96.9299 105.649Z" fill="#100E0F"/>
<path d="M89.7464 108.426C89.2737 108.426 88.8828 108.349 88.5738 108.195C88.2556 108.041 87.9693 107.823 87.7148 107.541L88.8465 106.411C88.9556 106.547 89.0737 106.643 89.201 106.697C89.3192 106.761 89.4601 106.793 89.6237 106.793C89.8509 106.793 90.0418 106.724 90.1964 106.588C90.3509 106.452 90.4282 106.252 90.4282 105.989V98.9369H92.2144V105.962C92.2144 106.479 92.1007 106.92 91.8735 107.283C91.6553 107.655 91.3599 107.936 90.9872 108.127C90.6236 108.326 90.21 108.426 89.7464 108.426ZM91.3417 97.875C91.0508 97.875 90.8099 97.7797 90.619 97.5891C90.4282 97.3894 90.3327 97.1443 90.3327 96.8539C90.3327 96.5725 90.4282 96.332 90.619 96.1323C90.8099 95.9326 91.0508 95.8328 91.3417 95.8328C91.6417 95.8328 91.8826 95.9326 92.0644 96.1323C92.2553 96.332 92.3507 96.5725 92.3507 96.8539C92.3507 97.1443 92.2553 97.3894 92.0644 97.5891C91.8826 97.7797 91.6417 97.875 91.3417 97.875Z" fill="#100E0F"/>
<path d="M85.0165 105.649C84.4166 105.649 83.8757 105.499 83.3939 105.2C82.9122 104.9 82.5349 104.492 82.2622 103.974C81.9895 103.457 81.8532 102.876 81.8532 102.232C81.8532 101.578 81.9895 100.993 82.2622 100.475C82.5349 99.958 82.9122 99.5496 83.3939 99.2501C83.8757 98.9505 84.4166 98.8008 85.0165 98.8008C85.4892 98.8008 85.9119 98.8961 86.2846 99.0867C86.6573 99.2773 86.9527 99.545 87.1709 99.8899C87.3981 100.226 87.5208 100.607 87.539 101.034V103.402C87.5208 103.838 87.3981 104.224 87.1709 104.56C86.9527 104.896 86.6573 105.163 86.2846 105.363C85.9119 105.554 85.4892 105.649 85.0165 105.649ZM85.3438 104.002C85.8437 104.002 86.2482 103.838 86.5573 103.511C86.8663 103.176 87.0209 102.744 87.0209 102.218C87.0209 101.873 86.9481 101.569 86.8027 101.306C86.6664 101.034 86.4709 100.825 86.2164 100.68C85.971 100.525 85.6801 100.448 85.3438 100.448C85.0165 100.448 84.7256 100.525 84.4711 100.68C84.2257 100.825 84.0302 101.034 83.8848 101.306C83.7484 101.569 83.6803 101.873 83.6803 102.218C83.6803 102.572 83.7484 102.885 83.8848 103.157C84.0302 103.421 84.2257 103.629 84.4711 103.784C84.7256 103.929 85.0165 104.002 85.3438 104.002ZM86.9254 105.513V103.743L87.2118 102.136L86.9254 100.557V98.9369H88.698V105.513H86.9254Z" fill="#100E0F"/>
<path d="M78.4671 105.663C78.0944 105.663 77.7262 105.613 77.3626 105.513C77.0081 105.413 76.6809 105.277 76.3809 105.104C76.0809 104.923 75.8219 104.705 75.6037 104.451L76.6672 103.375C76.8945 103.629 77.1581 103.82 77.4581 103.947C77.7581 104.074 78.0898 104.138 78.4534 104.138C78.7443 104.138 78.9625 104.097 79.1079 104.015C79.2625 103.933 79.3397 103.811 79.3397 103.648C79.3397 103.466 79.2579 103.325 79.0943 103.226C78.9398 103.126 78.7352 103.044 78.4807 102.98C78.2262 102.908 77.958 102.831 77.6762 102.749C77.4035 102.658 77.1399 102.545 76.8854 102.409C76.6309 102.263 76.4218 102.068 76.2582 101.823C76.1037 101.569 76.0264 101.242 76.0264 100.843C76.0264 100.425 76.1264 100.062 76.3264 99.7538C76.5354 99.4452 76.8309 99.2047 77.2127 99.0322C77.5944 98.8598 78.0444 98.7736 78.5625 98.7736C79.1079 98.7736 79.5988 98.8689 80.0351 99.0595C80.4805 99.2501 80.8487 99.536 81.1396 99.9172L80.0624 100.993C79.8624 100.748 79.6352 100.571 79.3806 100.462C79.1352 100.353 78.867 100.298 78.5762 100.298C78.3125 100.298 78.108 100.339 77.9626 100.421C77.8262 100.503 77.7581 100.616 77.7581 100.761C77.7581 100.925 77.8353 101.052 77.9899 101.142C78.1535 101.233 78.3625 101.315 78.6171 101.388C78.8716 101.451 79.1352 101.528 79.4079 101.619C79.6897 101.701 79.9533 101.819 80.1987 101.973C80.4533 102.127 80.6578 102.331 80.8123 102.586C80.9759 102.84 81.0578 103.167 81.0578 103.566C81.0578 104.21 80.826 104.723 80.3624 105.104C79.8988 105.476 79.267 105.663 78.4671 105.663Z" fill="#100E0F"/>
<path d="M72.9786 105.513V101.742C72.9786 101.351 72.8559 101.034 72.6105 100.789C72.3651 100.543 72.0469 100.421 71.656 100.421C71.4015 100.421 71.1743 100.475 70.9743 100.584C70.7743 100.693 70.6152 100.847 70.497 101.047C70.388 101.247 70.3334 101.478 70.3334 101.742L69.638 101.388C69.638 100.87 69.7471 100.421 69.9653 100.04C70.1925 99.6494 70.5016 99.3454 70.8925 99.1275C71.2924 98.9097 71.7424 98.8008 72.2423 98.8008C72.7241 98.8008 73.1559 98.9233 73.5377 99.1684C73.9195 99.4044 74.2194 99.7175 74.4376 100.108C74.6558 100.489 74.7648 100.902 74.7648 101.347V105.513H72.9786ZM68.5472 105.513V98.9369H70.3334V105.513H68.5472Z" fill="#100E0F"/>
<path d="M64.3201 105.649C63.6293 105.649 63.0157 105.504 62.4794 105.213C61.9431 104.914 61.5158 104.505 61.1977 103.988C60.8886 103.471 60.7341 102.881 60.7341 102.218C60.7341 101.565 60.8841 100.984 61.1841 100.475C61.4931 99.958 61.9113 99.5496 62.4385 99.2501C62.9657 98.9415 63.552 98.7872 64.1974 98.7872C64.8337 98.7872 65.3928 98.9324 65.8745 99.2228C66.3654 99.5042 66.7472 99.8945 67.0199 100.394C67.3017 100.884 67.4426 101.442 67.4426 102.068C67.4426 102.186 67.4335 102.309 67.4153 102.436C67.4062 102.554 67.3835 102.69 67.3471 102.844L61.8113 102.858V101.524L66.5154 101.51L65.7927 102.068C65.7745 101.678 65.7018 101.351 65.5746 101.088C65.4564 100.825 65.2791 100.625 65.0428 100.489C64.8155 100.344 64.5337 100.271 64.1974 100.271C63.8429 100.271 63.5338 100.353 63.2702 100.516C63.0066 100.671 62.8021 100.893 62.6566 101.183C62.5203 101.465 62.4521 101.801 62.4521 102.191C62.4521 102.59 62.5248 102.94 62.6703 103.239C62.8248 103.53 63.043 103.756 63.3248 103.92C63.6066 104.074 63.9338 104.151 64.3065 104.151C64.6428 104.151 64.9473 104.097 65.22 103.988C65.4927 103.87 65.7291 103.697 65.9291 103.471L66.979 104.519C66.6608 104.891 66.2699 105.172 65.8064 105.363C65.3519 105.554 64.8564 105.649 64.3201 105.649Z" fill="#100E0F"/>
<path d="M49.7768 105.513V95.9417H51.0858L54.9718 102.15H54.2218L58.0942 95.9417H59.4032V105.513H57.5624V99.1139L57.917 99.2228L55.2172 103.552H53.9628L51.263 99.2228L51.6312 99.1139V105.513H49.7768Z" fill="#100E0F"/>
<path d="M45.941 108.263L46.2137 102.272H47.5772L47.8499 108.263H45.941ZM46.8954 101.061C46.5682 101.061 46.3 100.952 46.091 100.734C45.8819 100.516 45.7773 100.248 45.7773 99.9308C45.7773 99.604 45.8819 99.3363 46.091 99.1275C46.3 98.9097 46.5682 98.8008 46.8954 98.8008C47.2227 98.8008 47.4908 98.9097 47.6999 99.1275C47.909 99.3363 48.0135 99.604 48.0135 99.9308C48.0135 100.248 47.909 100.516 47.6999 100.734C47.4908 100.952 47.2227 101.061 46.8954 101.061Z" fill="#100E0F"/>
</svg>
