<svg width="12" height="8" viewBox="0 0 12 8" fill="none" xmlns="http://www.w3.org/2000/svg">
<path d="M1.0003 2.59018L5.2903 6.83018C5.38326 6.92391 5.49386 6.9983 5.61572 7.04907C5.73758 7.09984 5.86828 7.12598 6.0003 7.12598C6.13231 7.12598 6.26301 7.09984 6.38487 7.04907C6.50673 6.9983 6.61733 6.92391 6.7103 6.83018L10.9503 2.59018C11.044 2.49722 11.1184 2.38661 11.1692 2.26476C11.22 2.1429 11.2461 2.01219 11.2461 1.88018C11.2461 1.74817 11.22 1.61746 11.1692 1.4956C11.1184 1.37374 11.044 1.26314 10.9503 1.17018C10.7629 0.983927 10.5095 0.879386 10.2453 0.879386C9.98111 0.879386 9.72766 0.983927 9.5403 1.17018L6.0003 4.71018L2.4603 1.17018C2.27404 0.985433 2.02264 0.881282 1.7603 0.880178C1.62869 0.879417 1.49823 0.904641 1.37639 0.954406C1.25455 1.00417 1.14374 1.0775 1.0503 1.17018C0.953221 1.2598 0.874867 1.36776 0.81976 1.48784C0.764653 1.60791 0.733886 1.73772 0.729237 1.86975C0.724588 2.00179 0.746149 2.13344 0.792674 2.25709C0.839199 2.38074 0.909765 2.49395 1.0003 2.59018Z" fill="black"/>
</svg>
