<svg xmlns="http://www.w3.org/2000/svg" width="21.907" height="19.257" viewBox="0 0 21.907 19.257">
  <path id="Trazado_23" data-name="Trazado 23" d="M356.638,90.13a34.8,34.8,0,0,0-5.747-4.9,13.5,13.5,0,0,1-4.322-4.717,7.364,7.364,0,0,1-.319-5.817,5.728,5.728,0,0,1,6.491-3.672,6.793,6.793,0,0,1,3.464,2.648c.172.231.327.474.527.766.313-.423.581-.828.892-1.2,1.411-1.676,3.088-2.785,5.4-2.221a5.718,5.718,0,0,1,4.512,4.721,7.265,7.265,0,0,1-1.974,6.77,61.921,61.921,0,0,1-4.789,4.11C359.406,87.778,358.044,88.937,356.638,90.13Z" transform="translate(-345.8 -70.873)" fill="#ff7171"/>
</svg>
