<svg xmlns="http://www.w3.org/2000/svg" width="34.479" height="34.479" viewBox="0 0 34.479 34.479">
  <g id="Grupo_779" data-name="Grupo 779" transform="translate(-1546 -7092)">
    <path id="Trazado_6" data-name="Trazado 6" d="M17.239,0h0A17.239,17.239,0,0,1,34.479,17.239h0A17.239,17.239,0,0,1,17.24,34.479h0A17.239,17.239,0,0,1,0,17.24H0A17.239,17.239,0,0,1,17.239,0Z" transform="translate(1546 7092)" fill="#d2d9e0"/>
    <path id="Trazado_5" data-name="Trazado 5" d="M162.3,156.874h4.2V146.365h2.929l.312-3.518h-3.24v-2c0-.83.167-1.158.969-1.158h2.271v-3.652h-2.906c-3.123,0-4.53,1.375-4.53,4.008v2.806h-2.183v3.563H162.3Z" transform="translate(1398.317 6962.786)" fill="#d90452"/>
  </g>
</svg>
