<svg xmlns="http://www.w3.org/2000/svg" width="34.48" height="34.479" viewBox="0 0 34.48 34.479">
  <g id="Grupo_781" data-name="Grupo 781" transform="translate(-1546.905 -7180.776)">
    <path id="Trazado_11" data-name="Trazado 11" d="M52.792,162.984h0a17.24,17.24,0,0,1-17.24-17.239h0a17.24,17.24,0,0,1,17.24-17.24h0a17.24,17.24,0,0,1,17.24,17.24h0A17.24,17.24,0,0,1,52.792,162.984Z" transform="translate(1511.353 7052.271)" fill="#d2d9e0"/>
    <path id="Trazado_12" data-name="Trazado 12" d="M44.444,153.907a8.5,8.5,0,0,0,5.25,1.869c6.36,0,9.953-6.524,9.737-12.376a7.95,7.95,0,0,0,1.708-2.154,5.921,5.921,0,0,1-1.967.655,4.124,4.124,0,0,0,1.506-2.3,6.2,6.2,0,0,1-2.174,1.01A3.179,3.179,0,0,0,56,139.3c-2.211,0-3.836,2.5-3.336,5.108a9.286,9.286,0,0,1-7.06-4.347,4.733,4.733,0,0,0,1.06,5.555,2.971,2.971,0,0,1-1.552-.521,4.067,4.067,0,0,0,2.748,4.133,2.844,2.844,0,0,1-1.546.07,3.587,3.587,0,0,0,3.2,2.89A6.05,6.05,0,0,1,44.444,153.907Z" transform="translate(1511.353 7050.48)" fill="#d90452"/>
  </g>
</svg>
