<svg width="457" height="228" viewBox="0 0 457 228" fill="none" xmlns="http://www.w3.org/2000/svg">
<rect width="457" height="228" rx="4" fill="#F3F6F9"/>
<path fill-rule="evenodd" clip-rule="evenodd" d="M356.691 179.88C355.763 180.179 355.551 181.099 355.29 181.987C353.947 186.511 351.557 190.459 348.178 193.827C347.611 194.39 347.022 194.967 346.395 195.476C345.668 196.073 344.616 196.002 344.048 195.326C343.454 194.606 343.478 193.825 344.118 193.131C344.672 192.545 345.3 192.035 345.876 191.437C348.905 188.389 351.063 184.812 352.196 180.645C352.77 178.601 353.98 177.194 356.033 176.629C357.009 176.361 357.934 176.83 358.187 177.629C358.468 178.529 358.08 179.196 357.264 179.637C357.118 179.692 356.949 179.76 356.691 179.88ZM334.54 187.769C333.781 188.207 333.058 188.654 332.287 189.07C331.178 189.621 330.419 189.44 329.908 188.554C329.396 187.669 329.606 186.898 330.606 186.262C331.718 185.561 332.881 184.948 333.984 184.282C337.826 181.975 339.882 178.633 339.972 174.154C340.012 172.419 340.511 171.688 341.618 171.698C342.724 171.709 343.325 172.543 343.292 174.186C343.183 179.561 340.864 183.734 336.369 186.713C335.779 187.083 335.164 187.408 334.54 187.769ZM359.072 158.197C359.557 159.039 360.065 159.867 360.507 160.734C360.999 161.69 360.77 162.53 360.002 163.003C359.168 163.514 358.29 163.283 357.648 162.325C357.182 161.62 356.747 160.868 356.335 160.102C354.958 157.562 353.252 155.329 350.754 153.732C350.084 153.292 349.573 152.613 349.897 151.835C350.11 151.329 350.712 150.774 351.235 150.65C351.722 150.516 352.386 150.841 352.852 151.133C354.932 152.47 356.609 154.188 357.925 156.262C358.34 156.878 358.679 157.568 359.072 158.197ZM350.688 160.057C350.3 160.723 349.509 160.796 348.81 160.462C348.421 160.303 348.083 160.026 347.722 159.762C345.45 158.092 342.946 157.619 340.215 158.399C340.011 158.458 339.797 158.552 339.593 158.611C338.672 158.818 337.986 158.505 337.625 157.622C337.267 156.796 337.6 155.983 338.553 155.521C339.047 155.295 339.592 155.158 340.115 155.033C343.854 154.143 347.168 155.093 350.124 157.431C350.293 157.569 350.44 157.721 350.587 157.872C350.66 157.948 350.711 158.036 350.797 158.134C351.143 158.938 351.016 159.543 350.688 160.057ZM326.526 174.095C325.417 171.813 324.754 169.274 324.693 166.593C324.686 165.653 324.94 164.857 325.937 164.576C326.9 164.286 327.927 164.933 327.967 166.031C328.095 168.673 328.742 171.133 329.947 173.478C330.426 174.411 330.118 175.268 329.324 175.697C328.544 176.148 327.689 175.903 327.076 175.047C326.9 174.794 326.756 174.494 326.526 174.095ZM339.682 192.297C339.169 192.594 338.669 192.912 338.13 193.164C337.279 193.596 336.555 193.424 336.025 192.608C335.495 191.793 335.634 191.004 336.52 190.374C337.616 189.594 338.798 188.912 339.881 188.109C346.475 183.151 348.571 173.233 344.535 166.088C344.331 165.734 343.426 164.013 342.065 164.799C341.062 165.378 341.376 166.85 341.437 167.11C341.674 168.242 341.27 169.036 340.34 169.278C339.422 169.543 338.589 169.079 338.205 168.002C337.507 166.073 337.808 164.275 339.206 162.73C340.496 161.307 342.577 160.843 344.437 161.54C345.802 162.051 346.779 163.022 347.45 164.287C352.797 174.011 349.285 186.576 339.682 192.297ZM323.525 141.854C328.456 138.033 334.342 135.608 340.556 135.09C340.839 135.065 341.118 135.051 341.395 135.049C341.991 135 342.591 135.008 343.184 135.108C344.023 135.273 344.482 135.864 344.452 136.738C344.395 137.567 343.956 138.146 343.066 138.305C342.655 138.365 342.206 138.359 341.769 138.375C332.091 139.023 324.576 143.382 319.222 151.451C319.063 151.691 318.926 151.917 318.754 152.135C318.06 153.096 317.267 153.318 316.421 152.833C315.623 152.378 315.351 151.443 315.927 150.432C317.435 147.79 319.304 145.412 321.62 143.396C322.227 142.869 322.862 142.354 323.525 141.854ZM330.624 182.532C329.776 183.022 328.942 183.533 328.069 183.978C327.039 184.513 326.105 184.286 325.635 183.524C325.124 182.638 325.429 181.724 326.487 181.084C327.857 180.263 329.256 179.544 330.591 178.714C333.493 176.891 334.109 174.558 332.6 171.533C330.913 168.197 330.778 164.822 332.346 161.408C332.591 160.853 333.052 160.262 333.578 159.988C334.626 159.383 335.839 160.247 335.758 161.445C335.736 161.871 335.529 162.285 335.367 162.674C334.292 165.036 334.355 167.361 335.41 169.704C337.952 175.291 336.758 178.991 331.472 182.043C331.189 182.206 330.907 182.369 330.624 182.532ZM320.832 177.265C317.236 169.748 317.188 162.248 321.034 154.744C321.199 154.413 321.409 154.055 321.683 153.809C322.218 153.293 322.85 153.047 323.587 153.448C324.336 153.871 324.627 154.529 324.386 155.348C324.281 155.733 324.081 156.055 323.915 156.387C320.655 163.051 320.561 169.687 324 176.262C324.192 176.594 324.361 176.939 324.416 177.291C324.599 178.071 324.277 178.699 323.547 179.032C322.853 179.374 322.154 179.246 321.659 178.646C321.324 178.22 321.1 177.729 320.832 177.265ZM333.879 150.723C336.756 149.061 340.094 147.991 343.601 148.091C343.816 148.085 344.032 148.098 344.249 148.13C345.524 148.279 346.217 148.913 346.189 149.844C346.159 150.924 345.423 151.555 344.036 151.471C341.574 151.327 339.199 151.695 336.917 152.688C334.266 153.864 332.119 155.606 330.54 158.023C330.34 158.345 330.152 158.69 329.939 158.99C329.273 159.846 328.422 160.072 327.672 159.649C326.827 159.163 326.507 158.197 327.169 157.283C328.452 155.539 330.868 152.461 333.879 150.723ZM354.975 164.134C356.085 166.416 356.748 168.955 356.773 171.627C356.816 172.576 356.562 173.372 355.564 173.653C354.579 173.956 353.574 173.297 353.534 172.198C353.407 169.556 352.76 167.096 351.555 164.751C351.075 163.818 351.384 162.961 352.177 162.532C352.958 162.082 353.812 162.326 354.426 163.182C354.601 163.435 354.745 163.736 354.975 164.134ZM365.325 155.945C370.527 164.955 370.704 176.542 368.114 186.479C367.851 187.516 367.253 188.954 366.709 189.917C366.251 190.772 365.419 191.341 364.523 190.973C363.448 190.501 363.523 189.395 363.802 188.437C363.859 188.227 364.031 188.01 364.123 187.809C367.798 178.514 367.106 165.366 362.042 156.748C361.246 155.525 360.46 154.267 359.576 153.095C352.406 143.509 337.826 142.157 328.86 150.167C328.694 150.292 328.567 150.484 328.401 150.609C327.509 151.331 326.403 151.32 325.774 150.591C325.266 149.969 325.348 148.978 326.102 148.276C326.966 147.453 327.864 146.639 328.851 145.981C341.716 137.254 357.764 142.128 364.366 154.285C364.392 154.329 365.325 155.945 365.325 155.945Z" fill="#D2D9E0" fill-opacity="0.25"/>
<path fill-rule="evenodd" clip-rule="evenodd" d="M381.512 67.3041C380.752 67.5493 380.578 68.3024 380.365 69.0298C379.265 72.7348 377.308 75.9676 374.54 78.7255C374.076 79.1869 373.594 79.6589 373.08 80.0764C372.485 80.5648 371.623 80.5064 371.158 79.9533C370.671 79.3639 370.692 78.7238 371.216 78.1553C371.669 77.6758 372.183 77.2582 372.655 76.7682C375.136 74.2726 376.902 71.343 377.83 67.9307C378.301 66.257 379.292 65.1048 380.973 64.6419C381.772 64.4224 382.529 64.8068 382.737 65.4608C382.967 66.1978 382.649 66.7439 381.981 67.1054C381.861 67.1506 381.723 67.2062 381.512 67.3041ZM363.372 73.7647C362.751 74.1232 362.158 74.4894 361.527 74.8298C360.619 75.2816 359.997 75.1329 359.578 74.4077C359.16 73.6826 359.331 73.0517 360.15 72.5303C361.061 71.9563 362.014 71.4547 362.916 70.9093C366.063 69.02 367.747 66.2834 367.821 62.615C367.853 61.1944 368.262 60.5956 369.168 60.6042C370.074 60.6129 370.566 61.2958 370.539 62.6409C370.45 67.0431 368.551 70.4602 364.869 72.8999C364.387 73.2028 363.883 73.4694 363.372 73.7647ZM383.461 49.548C383.859 50.2369 384.275 50.9153 384.636 51.6253C385.039 52.4078 384.852 53.096 384.223 53.4832C383.54 53.9021 382.821 53.7125 382.296 52.9283C381.914 52.3511 381.558 51.7347 381.22 51.1078C380.092 49.0276 378.696 47.1992 376.65 45.8908C376.101 45.5308 375.682 44.9748 375.948 44.338C376.122 43.923 376.615 43.4692 377.043 43.3671C377.443 43.2574 377.986 43.5237 378.368 43.7627C380.072 44.8578 381.444 46.265 382.522 47.9632C382.862 48.4679 383.14 49.0328 383.461 49.548ZM376.596 51.0705C376.278 51.6166 375.63 51.6762 375.058 51.4023C374.739 51.272 374.462 51.0452 374.167 50.829C372.306 49.462 370.256 49.0745 368.019 49.7134C367.852 49.7615 367.677 49.8383 367.51 49.8864C366.756 50.0561 366.194 49.8003 365.898 49.0768C365.605 48.4001 365.878 47.7346 366.658 47.3566C367.063 47.1714 367.509 47.0588 367.937 46.9566C370.999 46.2281 373.713 47.0059 376.134 48.9201C376.272 49.0335 376.392 49.1575 376.513 49.2814C376.573 49.3434 376.615 49.4159 376.685 49.496C376.968 50.1546 376.864 50.6496 376.596 51.0705ZM356.809 62.5669C355.901 60.6983 355.358 58.6188 355.308 56.4236C355.302 55.6537 355.51 55.0017 356.327 54.7717C357.115 54.5342 357.957 55.0636 357.989 55.9634C358.094 58.1269 358.624 60.1415 359.61 62.0615C360.003 62.8259 359.75 63.5276 359.101 63.8785C358.461 64.2476 357.761 64.0475 357.259 63.3464C357.115 63.1394 356.998 62.8932 356.809 62.5669ZM367.583 77.4731C367.163 77.7156 366.753 77.9763 366.312 78.1826C365.615 78.5365 365.022 78.3954 364.588 77.7276C364.154 77.0598 364.268 76.4137 364.993 75.8983C365.891 75.2593 366.859 74.7004 367.746 74.0432C373.146 69.9827 374.862 61.8611 371.557 56.0101C371.39 55.72 370.649 54.3106 369.535 54.9539C368.713 55.4284 368.97 56.6335 369.02 56.8464C369.214 57.7736 368.883 58.4239 368.121 58.6222C367.369 58.8387 366.687 58.4589 366.373 57.5769C365.802 55.9971 366.048 54.5254 367.193 53.2602C368.249 52.0945 369.954 51.7146 371.477 52.2856C372.595 52.7036 373.395 53.4987 373.944 54.535C378.323 62.4979 375.447 72.7875 367.583 77.4731ZM354.351 36.1639C358.39 33.0347 363.21 31.0493 368.299 30.6252C368.53 30.6044 368.759 30.5931 368.985 30.5913C369.474 30.5512 369.965 30.5578 370.45 30.6399C371.137 30.7751 371.514 31.2587 371.489 31.9742C371.442 32.6536 371.083 33.1272 370.354 33.2576C370.018 33.307 369.649 33.302 369.292 33.3152C361.366 33.846 355.212 37.4155 350.828 44.0236C350.698 44.2197 350.585 44.4053 350.445 44.5832C349.876 45.3706 349.226 45.5525 348.534 45.1546C347.881 44.7824 347.658 44.0167 348.129 43.1885C349.365 41.0251 350.895 39.0779 352.791 37.4271C353.289 36.995 353.809 36.5739 354.351 36.1639ZM360.165 69.4763C359.471 69.877 358.787 70.2959 358.072 70.6603C357.229 71.0986 356.464 70.912 356.08 70.288C355.661 69.5629 355.911 68.8144 356.777 68.2901C357.899 67.6181 359.044 67.0292 360.138 66.3497C362.515 64.8565 363.019 62.9458 361.783 60.4684C360.401 57.7372 360.291 54.9728 361.575 52.1769C361.775 51.7228 362.154 51.2386 362.584 51.0142C363.443 50.5186 364.436 51.2263 364.369 52.2075C364.351 52.5562 364.182 52.8957 364.049 53.2141C363.169 55.1484 363.221 57.0522 364.085 58.9706C366.166 63.546 365.188 66.5762 360.859 69.0755C360.628 69.2091 360.396 69.3427 360.165 69.4763ZM352.146 65.1624C349.201 59.0068 349.162 52.8653 352.312 46.7202C352.447 46.4486 352.619 46.156 352.843 45.9539C353.282 45.5318 353.798 45.3301 354.402 45.6584C355.016 46.0049 355.254 46.5441 355.057 47.2142C354.971 47.5296 354.807 47.7936 354.671 48.0652C352.001 53.5225 351.924 58.9573 354.741 64.3412C354.898 64.6132 355.036 64.8957 355.081 65.1841C355.231 65.8228 354.968 66.3373 354.37 66.6099C353.801 66.89 353.229 66.7851 352.824 66.294C352.549 65.9449 352.366 65.5431 352.146 65.1624ZM362.831 43.4268C365.187 42.0664 367.92 41.1896 370.792 41.2716C370.968 41.2668 371.145 41.2775 371.322 41.3039C372.367 41.426 372.934 41.9445 372.912 42.7069C372.887 43.5915 372.284 44.1086 371.148 44.0393C369.132 43.9221 367.187 44.2232 365.319 45.0361C363.147 45.9997 361.389 47.4257 360.096 49.4049C359.932 49.6688 359.778 49.951 359.604 50.1968C359.059 50.8982 358.362 51.083 357.748 50.7366C357.055 50.3387 356.793 49.5473 357.336 48.7991C358.386 47.3707 360.365 44.8504 362.831 43.4268ZM380.107 54.4097C381.015 56.2783 381.558 58.3578 381.579 60.5453C381.614 61.3229 381.406 61.9748 380.589 62.2048C379.782 62.4529 378.959 61.9129 378.927 61.0131C378.822 58.8496 378.292 56.835 377.305 54.915C376.913 54.1506 377.165 53.4489 377.815 53.098C378.454 52.7289 379.154 52.929 379.657 53.6301C379.8 53.8371 379.918 54.0833 380.107 54.4097ZM388.582 47.7034C392.842 55.0819 392.987 64.5705 390.866 72.7081C390.65 73.5578 390.161 74.7348 389.715 75.5238C389.34 76.2238 388.659 76.6895 387.925 76.3882C387.045 76.0021 387.106 75.0964 387.335 74.3116C387.382 74.1396 387.523 73.9616 387.598 73.7972C390.608 66.1859 390.041 55.4181 385.894 48.3613C385.242 47.3596 384.599 46.3292 383.874 45.3697C378.002 37.5197 366.063 36.4122 358.72 42.9719C358.585 43.0744 358.48 43.2313 358.345 43.3338C357.614 43.9247 356.708 43.916 356.193 43.3191C355.777 42.8098 355.844 41.9977 356.462 41.4232C357.169 40.7493 357.905 40.0829 358.713 39.5434C369.249 32.3973 382.39 36.3882 387.797 46.3437C387.818 46.3799 388.582 47.7034 388.582 47.7034Z" fill="#D2D9E0" fill-opacity="0.25"/>
<path fill-rule="evenodd" clip-rule="evenodd" d="M406.046 135.171C405.57 135.325 405.46 135.797 405.327 136.254C404.636 138.578 403.408 140.607 401.672 142.337C401.381 142.627 401.078 142.923 400.756 143.185C400.383 143.491 399.842 143.455 399.55 143.108C399.245 142.738 399.257 142.336 399.586 141.979C399.871 141.679 400.193 141.417 400.489 141.109C402.046 139.543 403.154 137.705 403.737 135.564C404.032 134.514 404.653 133.791 405.708 133.501C406.209 133.363 406.685 133.604 406.815 134.014C406.96 134.477 406.76 134.819 406.341 135.046C406.266 135.075 406.179 135.11 406.046 135.171ZM394.664 139.225C394.275 139.45 393.903 139.679 393.507 139.893C392.937 140.176 392.547 140.083 392.284 139.628C392.022 139.173 392.129 138.777 392.643 138.45C393.215 138.09 393.812 137.775 394.379 137.433C396.353 136.248 397.409 134.531 397.456 132.229C397.476 131.337 397.733 130.962 398.301 130.967C398.87 130.973 399.178 131.401 399.161 132.245C399.106 135.007 397.914 137.151 395.604 138.682C395.301 138.872 394.985 139.039 394.664 139.225ZM407.27 124.03C407.519 124.462 407.78 124.888 408.007 125.333C408.26 125.824 408.142 126.256 407.748 126.499C407.319 126.762 406.868 126.643 406.538 126.151C406.299 125.789 406.075 125.402 405.863 125.009C405.156 123.703 404.279 122.556 402.996 121.735C402.651 121.509 402.389 121.161 402.555 120.761C402.665 120.501 402.974 120.216 403.243 120.152C403.493 120.083 403.834 120.25 404.074 120.4C405.143 121.087 406.004 121.97 406.68 123.036C406.894 123.352 407.068 123.707 407.27 124.03ZM402.962 124.985C402.762 125.328 402.356 125.365 401.997 125.193C401.797 125.112 401.623 124.969 401.438 124.834C400.27 123.976 398.984 123.733 397.58 124.134C397.476 124.164 397.366 124.212 397.261 124.242C396.788 124.349 396.435 124.188 396.249 123.734C396.065 123.31 396.237 122.892 396.727 122.655C396.98 122.539 397.26 122.468 397.529 122.404C399.45 121.947 401.153 122.435 402.672 123.636C402.759 123.707 402.834 123.785 402.91 123.863C402.947 123.902 402.974 123.947 403.018 123.997C403.195 124.411 403.13 124.721 402.962 124.985ZM390.547 132.199C389.977 131.026 389.636 129.721 389.605 128.344C389.601 127.861 389.732 127.452 390.244 127.308C390.739 127.159 391.267 127.491 391.287 128.055C391.353 129.413 391.685 130.677 392.304 131.882C392.551 132.361 392.392 132.801 391.985 133.022C391.584 133.253 391.144 133.128 390.829 132.688C390.739 132.558 390.665 132.403 390.547 132.199ZM397.307 141.551C397.043 141.704 396.786 141.867 396.509 141.997C396.072 142.219 395.7 142.13 395.428 141.711C395.155 141.292 395.227 140.887 395.682 140.563C396.245 140.162 396.852 139.812 397.409 139.399C400.797 136.852 401.874 131.756 399.8 128.085C399.695 127.903 399.23 127.018 398.531 127.422C398.016 127.72 398.177 128.476 398.208 128.609C398.33 129.191 398.123 129.599 397.644 129.724C397.173 129.859 396.745 129.621 396.548 129.068C396.189 128.076 396.344 127.153 397.062 126.359C397.725 125.628 398.794 125.389 399.75 125.748C400.451 126.01 400.953 126.509 401.298 127.159C404.045 132.155 402.241 138.611 397.307 141.551ZM389.005 115.632C391.538 113.669 394.563 112.423 397.756 112.157C397.901 112.144 398.045 112.137 398.187 112.136C398.493 112.111 398.801 112.115 399.106 112.166C399.537 112.251 399.773 112.554 399.757 113.003C399.728 113.43 399.503 113.727 399.046 113.809C398.834 113.84 398.603 113.837 398.379 113.845C393.406 114.178 389.545 116.418 386.794 120.564C386.712 120.687 386.642 120.803 386.553 120.915C386.197 121.409 385.789 121.523 385.355 121.273C384.945 121.04 384.805 120.559 385.101 120.04C385.876 118.682 386.836 117.461 388.026 116.425C388.338 116.154 388.664 115.889 389.005 115.632ZM392.652 136.534C392.217 136.785 391.788 137.048 391.339 137.277C390.81 137.552 390.33 137.435 390.089 137.043C389.826 136.588 389.983 136.119 390.527 135.79C391.231 135.368 391.949 134.998 392.635 134.572C394.127 133.635 394.443 132.436 393.668 130.882C392.801 129.168 392.731 127.434 393.537 125.68C393.663 125.395 393.9 125.091 394.17 124.95C394.709 124.639 395.332 125.083 395.29 125.699C395.279 125.917 395.173 126.13 395.089 126.33C394.537 127.544 394.57 128.738 395.112 129.942C396.418 132.813 395.804 134.714 393.088 136.282C392.943 136.366 392.798 136.45 392.652 136.534ZM387.621 133.827C385.773 129.965 385.749 126.111 387.725 122.256C387.81 122.085 387.918 121.902 388.059 121.775C388.333 121.51 388.658 121.383 389.036 121.59C389.422 121.807 389.571 122.145 389.447 122.566C389.393 122.764 389.29 122.929 389.205 123.1C387.53 126.524 387.482 129.934 389.249 133.312C389.347 133.483 389.434 133.66 389.463 133.841C389.556 134.242 389.391 134.564 389.016 134.735C388.659 134.911 388.3 134.845 388.046 134.537C387.874 134.318 387.759 134.066 387.621 133.827ZM394.325 120.189C395.803 119.336 397.518 118.786 399.32 118.837C399.431 118.834 399.542 118.841 399.653 118.857C400.308 118.934 400.664 119.259 400.65 119.738C400.635 120.293 400.256 120.617 399.544 120.574C398.279 120.5 397.058 120.689 395.886 121.199C394.524 121.804 393.42 122.698 392.609 123.94C392.506 124.106 392.41 124.283 392.3 124.437C391.958 124.877 391.521 124.993 391.136 124.776C390.701 124.526 390.537 124.03 390.877 123.56C391.536 122.664 392.778 121.083 394.325 120.189ZM405.165 127.08C405.735 128.253 406.075 129.558 406.089 130.93C406.11 131.418 405.98 131.827 405.467 131.971C404.961 132.127 404.445 131.788 404.424 131.224C404.359 129.866 404.026 128.602 403.407 127.398C403.161 126.918 403.319 126.478 403.727 126.257C404.128 126.026 404.567 126.151 404.882 126.591C404.973 126.721 405.046 126.876 405.165 127.08ZM410.483 122.873C413.156 127.502 413.246 133.456 411.916 138.562C411.78 139.095 411.473 139.833 411.194 140.328C410.958 140.768 410.531 141.06 410.07 140.871C409.518 140.628 409.557 140.06 409.7 139.568C409.73 139.46 409.818 139.348 409.865 139.245C411.753 134.469 411.398 127.713 408.796 123.285C408.387 122.657 407.983 122.01 407.529 121.408C403.844 116.483 396.353 115.788 391.746 119.904C391.661 119.968 391.595 120.067 391.51 120.131C391.052 120.502 390.483 120.496 390.16 120.122C389.899 119.802 389.941 119.293 390.329 118.932C390.773 118.509 391.234 118.091 391.742 117.753C398.352 113.269 406.598 115.773 409.99 122.019C410.003 122.042 410.483 122.873 410.483 122.873Z" fill="#D2D9E0" fill-opacity="0.25"/>
<path fill-rule="evenodd" clip-rule="evenodd" d="M78.6908 180.88C77.7632 181.179 77.5507 182.099 77.2903 182.987C75.9471 187.511 73.5572 191.459 70.1782 194.827C69.6113 195.39 69.0221 195.967 68.3946 196.476C67.6683 197.073 66.616 197.002 66.0476 196.326C65.4537 195.606 65.4782 194.825 66.1183 194.131C66.6724 193.545 67.2999 193.035 67.8763 192.437C70.905 189.389 73.0625 185.812 74.1958 181.645C74.7704 179.601 75.9804 178.194 78.0331 177.629C79.0085 177.361 79.9338 177.83 80.1867 178.629C80.4683 179.529 80.0801 180.196 79.2644 180.637C79.1178 180.692 78.9489 180.76 78.6908 180.88ZM56.5396 188.769C55.7813 189.207 55.058 189.654 54.2869 190.07C53.1779 190.621 52.4188 190.44 51.9075 189.554C51.3963 188.669 51.6058 187.898 52.6063 187.262C53.7182 186.561 54.8813 185.948 55.9838 185.282C59.8264 182.975 61.8822 179.633 61.9724 175.154C62.0117 173.419 62.5114 172.688 63.6179 172.698C64.7244 172.709 65.3248 173.543 65.2918 175.186C65.1835 180.561 62.8641 184.734 58.3686 187.713C57.7792 188.083 57.1641 188.408 56.5396 188.769ZM81.0718 159.197C81.5575 160.039 82.0655 160.867 82.5066 161.734C82.9988 162.69 82.7702 163.53 82.0023 164.003C81.1675 164.514 80.2904 164.283 79.6483 163.325C79.1819 162.62 78.7474 161.868 78.3351 161.102C76.9577 158.562 75.2523 156.329 72.7537 154.732C72.0836 154.292 71.5726 153.613 71.8969 152.835C72.1099 152.329 72.7119 151.774 73.2346 151.65C73.7223 151.516 74.386 151.841 74.8518 152.133C76.9324 153.47 78.6085 155.188 79.9248 157.262C80.34 157.878 80.6788 158.568 81.0718 159.197ZM72.6881 161.057C72.2999 161.723 71.5092 161.796 70.8105 161.462C70.4213 161.303 70.0829 161.026 69.7223 160.762C67.45 159.092 64.9464 158.619 62.2147 159.399C62.0107 159.458 61.7972 159.552 61.5932 159.611C60.6719 159.818 59.986 159.505 59.6246 158.622C59.2665 157.796 59.6003 156.983 60.5531 156.521C61.0471 156.295 61.5922 156.158 62.115 156.033C65.8541 155.143 69.1682 156.093 72.1237 158.431C72.2928 158.569 72.4397 158.721 72.5866 158.872C72.66 158.948 72.7111 159.036 72.7973 159.134C73.1427 159.938 73.0159 160.543 72.6881 161.057ZM48.526 175.095C47.4168 172.813 46.7537 170.274 46.693 167.593C46.6855 166.653 46.9396 165.857 47.9373 165.576C48.8999 165.286 49.9274 165.933 49.967 167.031C50.0946 169.673 50.7417 172.133 51.9466 174.478C52.4261 175.411 52.1178 176.268 51.3244 176.697C50.5437 177.148 49.6889 176.903 49.0756 176.047C48.8999 175.794 48.7561 175.494 48.526 175.095ZM61.6819 193.297C61.1689 193.594 60.6687 193.912 60.1302 194.164C59.2793 194.596 58.5553 194.424 58.025 193.608C57.4947 192.793 57.634 192.004 58.5197 191.374C59.6156 190.594 60.7978 189.912 61.8809 189.109C68.4753 184.151 70.5709 174.233 66.535 167.088C66.3305 166.734 65.4261 165.013 64.0655 165.799C63.0618 166.378 63.3761 167.85 63.437 168.11C63.6743 169.242 63.2703 170.036 62.3395 170.278C61.4215 170.543 60.5887 170.079 60.2048 169.002C59.5074 167.073 59.8081 165.275 61.206 163.73C62.4957 162.307 64.5772 161.843 66.437 162.54C67.8024 163.051 68.7793 164.022 69.4504 165.287C74.7967 175.011 71.2854 187.576 61.6819 193.297ZM45.5247 142.854C50.456 139.033 56.3423 136.608 62.5563 136.09C62.839 136.065 63.1185 136.051 63.3948 136.049C63.991 136 64.5905 136.008 65.1837 136.108C66.0225 136.273 66.4824 136.864 66.4515 137.738C66.3952 138.567 65.9558 139.146 65.0664 139.305C64.6552 139.365 64.2056 139.359 63.7687 139.375C54.0911 140.023 46.5756 144.382 41.2221 152.451C41.063 152.691 40.9262 152.917 40.7543 153.135C40.0603 154.096 39.2666 154.318 38.421 153.833C37.6233 153.378 37.3512 152.443 37.9271 151.432C39.4353 148.79 41.3041 146.412 43.6197 144.396C44.2271 143.869 44.862 143.354 45.5247 142.854ZM52.624 183.532C51.7765 184.022 50.9417 184.533 50.0686 184.978C49.0393 185.513 48.1048 185.286 47.6351 184.524C47.1239 183.638 47.4288 182.724 48.4867 182.084C49.8568 181.263 51.2557 180.544 52.5907 179.714C55.4933 177.891 56.109 175.558 54.6004 172.533C52.9127 169.197 52.7779 165.822 54.3457 162.408C54.5906 161.853 55.0522 161.262 55.578 160.988C56.6263 160.383 57.839 161.247 57.7576 162.445C57.7358 162.871 57.529 163.285 57.3669 163.674C56.292 166.036 56.3554 168.361 57.4105 170.704C59.9522 176.291 58.7578 179.991 53.4716 183.043C53.1891 183.206 52.9066 183.369 52.624 183.532ZM42.8319 178.265C39.2356 170.748 39.1882 163.248 43.0341 155.744C43.1995 155.413 43.4095 155.055 43.6834 154.809C44.2185 154.293 44.8495 154.047 45.5866 154.448C46.3364 154.871 46.6274 155.529 46.386 156.348C46.2813 156.733 46.0808 157.055 45.9154 157.387C42.6552 164.051 42.5612 170.687 46.0001 177.262C46.1918 177.594 46.3612 177.939 46.4159 178.291C46.5986 179.071 46.2773 179.699 45.5475 180.032C44.8528 180.374 44.1543 180.246 43.6594 179.646C43.3241 179.22 43.1003 178.729 42.8319 178.265ZM55.8792 151.723C58.7565 150.061 62.0937 148.991 65.6012 149.091C65.8159 149.085 66.0317 149.098 66.2486 149.13C67.5242 149.279 68.2169 149.913 68.1893 150.844C68.1587 151.924 67.4229 152.555 66.0358 152.471C63.574 152.327 61.199 152.695 58.9171 153.688C56.2657 154.864 54.1187 156.606 52.5401 159.023C52.3396 159.345 52.1519 159.69 51.9386 159.99C51.2732 160.846 50.4221 161.072 49.6723 160.649C48.8267 160.163 48.5067 159.197 49.1688 158.283C50.4517 156.539 52.8681 153.461 55.8792 151.723ZM76.9753 165.134C78.0845 167.416 78.7476 169.955 78.7732 172.627C78.8158 173.576 78.5617 174.372 77.564 174.653C76.5791 174.956 75.5739 174.297 75.5343 173.198C75.4067 170.556 74.7596 168.096 73.5547 165.751C73.0753 164.818 73.3835 163.961 74.177 163.532C74.9576 163.082 75.8125 163.326 76.4257 164.182C76.6014 164.435 76.7452 164.736 76.9753 165.134ZM87.3251 156.945C92.5271 165.955 92.7037 177.542 90.1139 187.479C89.8505 188.516 89.2528 189.954 88.7087 190.917C88.2506 191.772 87.4191 192.341 86.5227 191.973C85.4475 191.501 85.5227 190.395 85.8021 189.437C85.8593 189.227 86.0312 189.01 86.1234 188.809C89.7982 179.514 89.1062 166.366 84.0418 157.748C83.2464 156.525 82.4604 155.267 81.5758 154.095C74.4057 144.509 59.8259 143.157 50.8597 151.167C50.694 151.292 50.5667 151.484 50.4011 151.609C49.5091 152.331 48.4027 152.32 47.7737 151.591C47.2659 150.969 47.3476 149.978 48.1025 149.276C48.9656 148.453 49.8638 147.639 50.8514 146.981C63.7164 138.254 79.7641 143.128 86.3665 155.285C86.3921 155.329 87.3251 156.945 87.3251 156.945Z" fill="#D2D9E0" fill-opacity="0.25"/>
<path fill-rule="evenodd" clip-rule="evenodd" d="M103.512 68.3041C102.752 68.5493 102.578 69.3024 102.365 70.0298C101.265 73.7348 99.3076 76.9676 96.5404 79.7255C96.0762 80.1869 95.5937 80.6589 95.0798 81.0764C94.4851 81.5648 93.6233 81.5064 93.1578 80.9533C92.6714 80.3639 92.6916 79.7238 93.2157 79.1553C93.6695 78.6758 94.1834 78.2582 94.6554 77.7682C97.1356 75.2726 98.9024 72.343 99.8305 68.9307C100.301 67.257 101.292 66.1048 102.973 65.6419C103.772 65.4224 104.529 65.8068 104.737 66.4608C104.967 67.1978 104.649 67.7439 103.981 68.1054C103.861 68.1506 103.723 68.2062 103.512 68.3041ZM85.3716 74.7647C84.7506 75.1232 84.1583 75.4894 83.5268 75.8298C82.6186 76.2816 81.997 76.1329 81.5783 75.4077C81.1596 74.6826 81.3312 74.0517 82.1505 73.5303C83.0611 72.9563 84.0136 72.4547 84.9164 71.9093C88.0632 70.02 89.7467 67.2834 89.8206 63.615C89.8528 62.1944 90.262 61.5956 91.1681 61.6042C92.0742 61.6129 92.5659 62.2958 92.5388 63.6409C92.4502 68.0431 90.5508 71.4602 86.8694 73.8999C86.3867 74.2028 85.883 74.4694 85.3716 74.7647ZM105.461 50.548C105.859 51.2369 106.275 51.9153 106.636 52.6253C107.039 53.4078 106.852 54.096 106.223 54.4832C105.54 54.9021 104.821 54.7125 104.296 53.9283C103.914 53.3511 103.558 52.7347 103.22 52.1078C102.092 50.0276 100.696 48.1992 98.6496 46.8908C98.1008 46.5308 97.6823 45.9748 97.9479 45.338C98.1223 44.923 98.6153 44.4692 99.0434 44.3671C99.4428 44.2574 99.9862 44.5237 100.368 44.7627C102.072 45.8578 103.444 47.265 104.522 48.9632C104.862 49.4679 105.14 50.0328 105.461 50.548ZM98.5958 52.0705C98.2779 52.6166 97.6304 52.6762 97.0582 52.4023C96.7395 52.272 96.4624 52.0452 96.1671 51.829C94.3063 50.462 92.256 50.0745 90.019 50.7134C89.8519 50.7615 89.6771 50.8383 89.51 50.8864C88.7556 51.0561 88.1939 50.8003 87.8979 50.0768C87.6047 49.4001 87.878 48.7346 88.6583 48.3566C89.0628 48.1714 89.5092 48.0588 89.9373 47.9566C92.9994 47.2281 95.7133 48.0059 98.1336 49.9201C98.2722 50.0335 98.3924 50.1575 98.5127 50.2814C98.5728 50.3434 98.6147 50.4159 98.6853 50.496C98.9681 51.1546 98.8642 51.6496 98.5958 52.0705ZM78.8091 63.5669C77.9008 61.6983 77.3577 59.6188 77.308 57.4236C77.3019 56.6537 77.51 56.0017 78.327 55.7717C79.1153 55.5342 79.9568 56.0636 79.9892 56.9634C80.0936 59.1269 80.6236 61.1415 81.6103 63.0615C82.0029 63.8259 81.7505 64.5276 81.1007 64.8785C80.4614 65.2476 79.7614 65.0475 79.2592 64.3464C79.1153 64.1394 78.9975 63.8932 78.8091 63.5669ZM89.5827 78.4731C89.1626 78.7156 88.753 78.9763 88.3119 79.1826C87.6152 79.5365 87.0223 79.3954 86.588 78.7276C86.1537 78.0598 86.2678 77.4137 86.9931 76.8983C87.8906 76.2593 88.8587 75.7004 89.7457 75.0432C95.1459 70.9827 96.862 62.8611 93.557 57.0101C93.3895 56.72 92.6488 55.3106 91.5346 55.9539C90.7127 56.4284 90.9701 57.6335 91.0199 57.8464C91.2143 58.7736 90.8834 59.4239 90.1212 59.6222C89.3695 59.8387 88.6875 59.4589 88.3731 58.5769C87.8019 56.9971 88.0482 55.5254 89.193 54.2602C90.2491 53.0945 91.9537 52.7146 93.4767 53.2856C94.5948 53.7036 95.3948 54.4987 95.9444 55.535C100.323 63.4979 97.4472 73.7875 89.5827 78.4731ZM76.3512 37.1639C80.3896 34.0347 85.21 32.0493 90.2987 31.6252C90.5302 31.6044 90.7591 31.5931 90.9854 31.5913C91.4737 31.5512 91.9646 31.5578 92.4504 31.6399C93.1373 31.7751 93.5139 32.2587 93.4886 32.9742C93.4424 33.6536 93.0827 34.1272 92.3543 34.2576C92.0175 34.307 91.6493 34.302 91.2916 34.3152C83.3664 34.846 77.2118 38.4155 72.8278 45.0236C72.6975 45.2197 72.5855 45.4053 72.4447 45.5832C71.8764 46.3706 71.2264 46.5525 70.534 46.1546C69.8807 45.7824 69.6578 45.0167 70.1295 44.1885C71.3645 42.0251 72.8949 40.0779 74.7913 38.4271C75.2886 37.995 75.8086 37.5739 76.3512 37.1639ZM82.165 70.4763C81.471 70.877 80.7873 71.2959 80.0723 71.6603C79.2294 72.0986 78.4641 71.912 78.0795 71.288C77.6608 70.5629 77.9106 69.8144 78.7769 69.2901C79.8989 68.6181 81.0445 68.0292 82.1378 67.3497C84.5147 65.8565 85.019 63.9458 83.7835 61.4684C82.4015 58.7372 82.291 55.9728 83.575 53.1769C83.7755 52.7228 84.1535 52.2386 84.5841 52.0142C85.4426 51.5186 86.4357 52.2263 86.369 53.2075C86.3511 53.5562 86.1818 53.8957 86.049 54.2141C85.1688 56.1484 85.2207 58.0522 86.0847 59.9706C88.1662 64.546 87.1881 67.5762 82.8591 70.0755C82.6278 70.2091 82.3964 70.3427 82.165 70.4763ZM74.1461 66.1624C71.201 60.0068 71.1622 53.8653 74.3117 47.7202C74.4471 47.4486 74.6191 47.156 74.8434 46.9539C75.2816 46.5318 75.7984 46.3301 76.4019 46.6584C77.016 47.0049 77.2543 47.5441 77.0566 48.2142C76.9708 48.5296 76.8067 48.7936 76.6712 49.0652C74.0014 54.5225 73.9244 59.9573 76.7406 65.3412C76.8976 65.6132 77.0363 65.8957 77.0811 66.1841C77.2307 66.8228 76.9676 67.3373 76.3699 67.6099C75.801 67.89 75.2291 67.7851 74.8237 67.294C74.5491 66.9449 74.3659 66.5431 74.1461 66.1624ZM84.8308 44.4268C87.187 43.0664 89.9199 42.1896 92.7923 42.2716C92.9681 42.2668 93.1448 42.2775 93.3224 42.3039C94.367 42.426 94.9343 42.9445 94.9117 43.7069C94.8867 44.5915 94.2841 45.1086 93.1482 45.0393C91.1322 44.9221 89.1872 45.2232 87.3186 46.0361C85.1472 46.9997 83.389 48.4257 82.0963 50.4049C81.9321 50.6688 81.7784 50.951 81.6037 51.1968C81.0588 51.8982 80.3619 52.083 79.7478 51.7366C79.0554 51.3387 78.7933 50.5473 79.3355 49.7991C80.3861 48.3707 82.3649 45.8504 84.8308 44.4268ZM102.107 55.4097C103.015 57.2783 103.558 59.3578 103.579 61.5453C103.614 62.3229 103.406 62.9748 102.589 63.2048C101.782 63.4529 100.959 62.9129 100.927 62.0131C100.822 59.8496 100.292 57.835 99.3055 55.915C98.9129 55.1506 99.1653 54.4489 99.8151 54.098C100.454 53.7289 101.154 53.929 101.657 54.6301C101.8 54.8371 101.918 55.0833 102.107 55.4097ZM110.582 48.7034C114.842 56.0819 114.987 65.5705 112.866 73.7081C112.65 74.5578 112.161 75.7348 111.715 76.5238C111.34 77.2238 110.659 77.6895 109.925 77.3882C109.045 77.0021 109.106 76.0964 109.335 75.3116C109.382 75.1396 109.523 74.9616 109.598 74.7972C112.608 67.1859 112.041 56.4181 107.894 49.3613C107.242 48.3596 106.599 47.3292 105.874 46.3697C100.002 38.5197 88.0627 37.4122 80.7202 43.9719C80.5845 44.0744 80.4803 44.2313 80.3446 44.3338C79.6142 44.9247 78.7081 44.916 78.193 44.3191C77.7772 43.8098 77.8441 42.9977 78.4622 42.4232C79.1691 41.7493 79.9046 41.0829 80.7134 40.5434C91.2487 33.3973 104.39 37.3882 109.797 47.3437C109.818 47.3799 110.582 48.7034 110.582 48.7034Z" fill="#D2D9E0" fill-opacity="0.25"/>
<path fill-rule="evenodd" clip-rule="evenodd" d="M128.046 136.171C127.57 136.325 127.46 136.797 127.327 137.254C126.636 139.578 125.408 141.607 123.672 143.337C123.381 143.627 123.078 143.923 122.756 144.185C122.383 144.491 121.842 144.455 121.55 144.108C121.245 143.738 121.257 143.336 121.586 142.979C121.871 142.679 122.193 142.417 122.489 142.109C124.046 140.543 125.154 138.705 125.737 136.564C126.032 135.514 126.653 134.791 127.708 134.501C128.209 134.363 128.685 134.604 128.815 135.014C128.96 135.477 128.76 135.819 128.341 136.046C128.266 136.075 128.179 136.11 128.046 136.171ZM116.664 140.225C116.275 140.45 115.903 140.679 115.507 140.893C114.937 141.176 114.547 141.083 114.284 140.628C114.022 140.173 114.129 139.777 114.643 139.45C115.215 139.09 115.812 138.775 116.379 138.433C118.353 137.248 119.409 135.531 119.456 133.229C119.476 132.337 119.733 131.962 120.301 131.967C120.87 131.973 121.178 132.401 121.161 133.245C121.106 136.007 119.914 138.151 117.604 139.682C117.301 139.872 116.985 140.039 116.664 140.225ZM129.27 125.03C129.519 125.462 129.78 125.888 130.007 126.333C130.26 126.824 130.142 127.256 129.748 127.499C129.319 127.762 128.868 127.643 128.538 127.151C128.299 126.789 128.075 126.402 127.863 126.009C127.156 124.703 126.279 123.556 124.996 122.735C124.651 122.509 124.389 122.161 124.555 121.761C124.665 121.501 124.974 121.216 125.243 121.152C125.493 121.083 125.834 121.25 126.074 121.4C127.143 122.087 128.004 122.97 128.68 124.036C128.894 124.352 129.068 124.707 129.27 125.03ZM124.962 125.985C124.762 126.328 124.356 126.365 123.997 126.193C123.797 126.112 123.623 125.969 123.438 125.834C122.27 124.976 120.984 124.733 119.58 125.134C119.476 125.164 119.366 125.212 119.261 125.242C118.788 125.349 118.435 125.188 118.249 124.734C118.065 124.31 118.237 123.892 118.727 123.655C118.98 123.539 119.26 123.468 119.529 123.404C121.45 122.947 123.153 123.435 124.672 124.636C124.759 124.707 124.834 124.785 124.91 124.863C124.947 124.902 124.974 124.947 125.018 124.997C125.195 125.411 125.13 125.721 124.962 125.985ZM112.547 133.199C111.977 132.026 111.636 130.721 111.605 129.344C111.601 128.861 111.732 128.452 112.244 128.308C112.739 128.159 113.267 128.491 113.287 129.055C113.353 130.413 113.685 131.677 114.304 132.882C114.551 133.361 114.392 133.801 113.985 134.022C113.584 134.253 113.144 134.128 112.829 133.688C112.739 133.558 112.665 133.403 112.547 133.199ZM119.307 142.551C119.043 142.704 118.786 142.867 118.509 142.997C118.072 143.219 117.7 143.13 117.428 142.711C117.155 142.292 117.227 141.887 117.682 141.563C118.245 141.162 118.852 140.812 119.409 140.399C122.797 137.852 123.874 132.756 121.8 129.085C121.695 128.903 121.23 128.018 120.531 128.422C120.016 128.72 120.177 129.476 120.208 129.609C120.33 130.191 120.123 130.599 119.644 130.724C119.173 130.859 118.745 130.621 118.548 130.068C118.189 129.076 118.344 128.153 119.062 127.359C119.725 126.628 120.794 126.389 121.75 126.748C122.451 127.01 122.953 127.509 123.298 128.159C126.045 133.155 124.241 139.611 119.307 142.551ZM111.005 116.632C113.538 114.669 116.563 113.423 119.756 113.157C119.901 113.144 120.045 113.137 120.187 113.136C120.493 113.111 120.801 113.115 121.106 113.166C121.537 113.251 121.773 113.554 121.757 114.003C121.728 114.43 121.503 114.727 121.046 114.809C120.834 114.84 120.603 114.837 120.379 114.845C115.406 115.178 111.545 117.418 108.794 121.564C108.712 121.687 108.642 121.803 108.553 121.915C108.197 122.409 107.789 122.523 107.355 122.273C106.945 122.04 106.805 121.559 107.101 121.04C107.876 119.682 108.836 118.461 110.026 117.425C110.338 117.154 110.664 116.889 111.005 116.632ZM114.652 137.534C114.217 137.785 113.788 138.048 113.339 138.277C112.81 138.552 112.33 138.435 112.089 138.043C111.826 137.588 111.983 137.119 112.527 136.79C113.231 136.368 113.949 135.998 114.635 135.572C116.127 134.635 116.443 133.436 115.668 131.882C114.801 130.168 114.731 128.434 115.537 126.68C115.663 126.395 115.9 126.091 116.17 125.95C116.709 125.639 117.332 126.083 117.29 126.699C117.279 126.917 117.173 127.13 117.089 127.33C116.537 128.544 116.57 129.738 117.112 130.942C118.418 133.813 117.804 135.714 115.088 137.282C114.943 137.366 114.798 137.45 114.652 137.534ZM109.621 134.827C107.773 130.965 107.749 127.111 109.725 123.256C109.81 123.085 109.918 122.902 110.059 122.775C110.333 122.51 110.658 122.383 111.036 122.59C111.422 122.807 111.571 123.145 111.447 123.566C111.393 123.764 111.29 123.929 111.205 124.1C109.53 127.524 109.482 130.934 111.249 134.312C111.347 134.483 111.434 134.66 111.463 134.841C111.556 135.242 111.391 135.564 111.016 135.735C110.659 135.911 110.3 135.845 110.046 135.537C109.874 135.318 109.759 135.066 109.621 134.827ZM116.325 121.189C117.803 120.336 119.518 119.786 121.32 119.837C121.431 119.834 121.542 119.841 121.653 119.857C122.308 119.934 122.664 120.259 122.65 120.738C122.635 121.293 122.256 121.617 121.544 121.574C120.279 121.5 119.058 121.689 117.886 122.199C116.524 122.804 115.42 123.698 114.609 124.94C114.506 125.106 114.41 125.283 114.3 125.437C113.958 125.877 113.521 125.993 113.136 125.776C112.701 125.526 112.537 125.03 112.877 124.56C113.536 123.664 114.778 122.083 116.325 121.189ZM127.165 128.08C127.735 129.253 128.075 130.558 128.089 131.93C128.11 132.418 127.98 132.827 127.467 132.971C126.961 133.127 126.445 132.788 126.424 132.224C126.359 130.866 126.026 129.602 125.407 128.398C125.161 127.918 125.319 127.478 125.727 127.257C126.128 127.026 126.567 127.151 126.882 127.591C126.973 127.721 127.046 127.876 127.165 128.08ZM132.483 123.873C135.156 128.502 135.246 134.456 133.916 139.562C133.78 140.095 133.473 140.833 133.194 141.328C132.958 141.768 132.531 142.06 132.07 141.871C131.518 141.628 131.557 141.06 131.7 140.568C131.73 140.46 131.818 140.348 131.865 140.245C133.753 135.469 133.398 128.713 130.796 124.285C130.387 123.657 129.983 123.01 129.529 122.408C125.844 117.483 118.353 116.788 113.746 120.904C113.661 120.968 113.595 121.067 113.51 121.131C113.052 121.502 112.483 121.496 112.16 121.122C111.899 120.802 111.941 120.293 112.329 119.932C112.773 119.509 113.234 119.091 113.742 118.753C120.352 114.269 128.598 116.773 131.99 123.019C132.003 123.042 132.483 123.873 132.483 123.873Z" fill="#D2D9E0" fill-opacity="0.25"/>
<path d="M269.989 210.465C269.989 210.544 243.791 210.597 211.495 210.597C179.185 210.597 153 210.544 153 210.465C153 210.386 179.185 210.333 211.495 210.333C243.791 210.333 269.989 210.386 269.989 210.465Z" fill="#263238"/>
<path d="M200.297 182.971L188.074 194.137L201.908 209.412C203.307 207.99 199.057 197.456 199.057 197.456L206.713 190.082L200.297 182.971Z" fill="#455A64"/>
<path d="M195.44 192.136C195.096 191.925 194.568 192.004 194.357 192.347C194.12 192.689 194.199 193.216 194.542 193.453C194.885 193.663 195.519 193.584 195.704 193.216C195.915 192.847 195.756 192.241 195.387 192.11" fill="white"/>
<path d="M188.074 194.137L189.341 192.979L202.119 208.148C202.119 208.148 202.409 209.096 201.855 209.464L188.074 194.137Z" fill="#263238"/>
<path d="M199.373 197.64C199.294 197.693 198.924 197.35 198.344 197.219C197.789 197.034 197.288 197.14 197.261 197.061C197.208 196.955 197.763 196.666 198.449 196.876C199.136 197.061 199.452 197.587 199.373 197.64Z" fill="white"/>
<path d="M200.165 199.826C200.112 199.905 199.69 199.694 199.135 199.747C198.581 199.747 198.185 200.01 198.132 199.931C198.053 199.852 198.396 199.431 199.083 199.404C199.769 199.352 200.218 199.773 200.165 199.826Z" fill="white"/>
<path d="M199.057 202.486C198.978 202.407 199.189 202.012 199.849 201.801C200.43 201.617 200.905 201.827 200.878 201.906C200.852 202.012 200.43 201.985 199.954 202.143C199.479 202.275 199.136 202.538 199.057 202.486Z" fill="white"/>
<path d="M201.064 195.875C200.958 195.902 200.747 195.454 200.351 195.059C199.928 194.664 199.506 194.453 199.532 194.374C199.532 194.269 200.113 194.348 200.588 194.822C201.064 195.296 201.143 195.849 201.064 195.875Z" fill="white"/>
<path d="M202.541 193.874C202.514 193.9 202.198 193.637 201.854 193.11C201.67 192.821 201.511 192.478 201.379 192.083C201.309 191.873 201.247 191.653 201.194 191.425C201.194 191.32 201.168 191.188 201.168 191.03C201.168 190.872 201.326 190.661 201.538 190.635C201.722 190.609 201.907 190.714 202.013 190.819C202.118 190.925 202.171 191.03 202.224 191.135C202.347 191.346 202.435 191.557 202.488 191.767C202.62 192.162 202.673 192.557 202.673 192.873C202.673 193.532 202.488 193.9 202.462 193.9C202.409 193.874 202.488 193.505 202.435 192.9C202.409 192.584 202.33 192.241 202.198 191.873C202.127 191.68 202.039 191.486 201.934 191.293C201.828 191.109 201.696 190.951 201.59 190.977C201.538 191.004 201.538 191.004 201.511 191.083C201.511 191.162 201.538 191.267 201.538 191.372C201.573 191.583 201.617 191.785 201.67 191.978C201.775 192.373 201.934 192.715 202.066 192.979C202.33 193.532 202.567 193.821 202.541 193.874Z" fill="white"/>
<path d="M202.329 193.874C202.303 193.848 202.435 193.453 202.91 193.005C203.121 192.768 203.438 192.531 203.834 192.347C204.028 192.259 204.239 192.18 204.468 192.11C204.705 192.057 205.022 192.004 205.313 192.268C205.445 192.399 205.445 192.636 205.392 192.768C205.313 192.9 205.233 193.005 205.181 193.11C205.022 193.295 204.837 193.453 204.653 193.558C204.283 193.821 203.887 193.927 203.57 193.953C202.91 194.006 202.541 193.795 202.541 193.742C202.567 193.69 202.937 193.821 203.544 193.716C203.834 193.663 204.151 193.532 204.468 193.295C204.626 193.189 204.767 193.058 204.89 192.9C205.049 192.715 205.128 192.531 205.049 192.505C204.969 192.426 204.732 192.399 204.547 192.452C204.336 192.505 204.142 192.566 203.966 192.636C203.597 192.794 203.306 192.979 203.069 193.189C202.593 193.558 202.382 193.9 202.329 193.874Z" fill="white"/>
<path d="M197.34 193.742L197.498 210.281L218.143 210.202C218.011 208.227 207.319 204.329 207.319 204.329L207.662 193.716L197.34 193.742Z" fill="#455A64"/>
<path d="M200.931 203.46C200.535 203.592 200.271 204.039 200.35 204.434C200.456 204.829 200.904 205.119 201.3 205.014C201.723 204.908 202.066 204.382 201.908 203.987C201.776 203.592 201.221 203.302 200.852 203.486" fill="white"/>
<path d="M197.499 210.333L197.473 208.543L217.325 209.227C217.325 209.227 218.249 209.622 218.144 210.281L197.499 210.333Z" fill="#263238"/>
<path d="M207.662 204.224C207.662 204.329 207.16 204.382 206.658 204.698C206.157 205.014 205.893 205.461 205.814 205.409C205.708 205.382 205.866 204.777 206.474 204.408C207.081 204.013 207.688 204.145 207.662 204.224Z" fill="white"/>
<path d="M209.827 205.119C209.854 205.198 209.405 205.382 209.062 205.804C208.718 206.225 208.639 206.673 208.534 206.673C208.454 206.699 208.375 206.12 208.798 205.593C209.22 205.066 209.827 205.014 209.827 205.119Z" fill="white"/>
<path d="M211.067 207.7C210.988 207.7 210.83 207.2 211.094 206.647C211.331 206.093 211.806 205.883 211.859 205.962C211.912 206.041 211.622 206.357 211.41 206.805C211.199 207.252 211.173 207.674 211.067 207.7Z" fill="white"/>
<path d="M207.478 201.801C207.425 201.906 206.95 201.748 206.395 201.801C205.814 201.827 205.392 202.012 205.339 201.933C205.26 201.854 205.709 201.485 206.369 201.459C207.029 201.406 207.504 201.722 207.478 201.801Z" fill="white"/>
<path d="M198.396 99.3315C198.396 99.3315 195.492 102.439 194.066 105.389C192.667 108.364 190.476 114.658 190.476 114.658C190.476 114.658 187.757 124.297 188.364 128.827C188.971 133.383 193.037 164.432 193.037 164.432C193.037 164.432 192.245 189.055 195.729 200.01L196.363 202.907L208.005 200.853L210.566 139.914L217.668 99.6212L198.396 99.3315Z" fill="#263238"/>
<path d="M213.258 101.939C213.206 101.965 213.206 101.57 212.81 101.28C212.598 101.149 212.308 101.07 212.018 101.201C211.727 101.307 211.49 101.623 211.49 101.965C211.49 102.334 211.754 102.623 212.044 102.729C212.334 102.834 212.625 102.755 212.836 102.623C213.232 102.334 213.206 101.939 213.258 101.939C213.258 101.939 213.285 102.018 213.285 102.176C213.258 102.334 213.179 102.571 212.942 102.781C212.73 102.966 212.334 103.097 211.938 102.966C211.569 102.86 211.199 102.465 211.199 101.965C211.199 101.491 211.516 101.07 211.912 100.938C212.308 100.806 212.704 100.912 212.915 101.122C213.153 101.307 213.258 101.544 213.258 101.702C213.285 101.86 213.258 101.939 213.258 101.939Z" fill="#455A64"/>
<path d="M226.749 107.732C226.749 107.732 231.026 146.366 231.633 152.976C232.24 159.612 208.11 195.006 208.11 195.006L197.92 182.998L213.47 154.187L208.242 125.482L215.133 99.5686L225.825 99.7003L226.749 107.732Z" fill="#263238"/>
<path d="M193.934 190.687C193.934 190.687 193.934 191.003 194.013 191.556C194.092 192.109 194.224 192.926 194.409 193.953C194.805 196.06 195.438 199.115 196.283 202.933V203.012L196.362 202.986C199.662 202.406 203.622 201.722 208.005 200.958L208.11 200.932V200.853C208.427 192.873 208.823 183.366 209.219 173.148C209.668 162.167 210.064 151.975 210.381 143.627C211.252 136.911 211.991 131.355 212.493 127.484C212.73 125.535 212.915 124.034 213.047 122.98C213.118 122.471 213.162 122.076 213.179 121.795C213.232 121.532 213.232 121.4 213.232 121.4C213.232 121.4 213.206 121.532 213.153 121.795C213.118 122.076 213.065 122.471 212.994 122.98C212.836 124.007 212.625 125.535 212.361 127.457C211.833 131.328 211.067 136.885 210.17 143.601C209.826 151.975 209.404 162.14 208.955 173.148C208.559 183.34 208.19 192.873 207.873 200.853L207.978 200.747C203.57 201.537 199.636 202.222 196.336 202.828L196.442 202.88C195.57 199.088 194.937 196.033 194.514 193.953C194.303 192.9 194.145 192.083 194.066 191.53C194.013 191.267 193.978 191.065 193.96 190.924C193.942 190.784 193.934 190.705 193.934 190.687Z" fill="#455A64"/>
<path d="M211.57 115.054C211.57 115.027 211.782 115.054 212.204 115.08C212.6 115.106 213.234 115.159 213.841 114.817C214.131 114.632 214.369 114.316 214.501 113.921C214.606 113.526 214.659 113.078 214.686 112.604C214.765 111.63 214.844 110.577 214.923 109.471C215.082 107.232 215.161 105.204 215.214 103.756C215.231 103.071 215.249 102.492 215.266 102.018C215.293 101.623 215.319 101.386 215.319 101.386C215.346 101.386 215.372 101.623 215.372 102.018C215.398 102.439 215.398 103.019 215.398 103.756C215.398 105.231 215.346 107.258 215.214 109.471C215.134 110.603 215.029 111.656 214.95 112.631C214.897 113.105 214.844 113.579 214.712 114C214.58 114.422 214.29 114.79 213.92 114.975C213.603 115.159 213.234 115.212 212.943 115.238C212.653 115.238 212.389 115.212 212.178 115.185C211.782 115.133 211.544 115.08 211.57 115.054Z" fill="#455A64"/>
<path d="M226.301 107.759C226.275 107.785 225.826 107.574 225.192 107.153C224.532 106.732 223.688 106.073 222.896 105.178C222.104 104.282 221.549 103.334 221.206 102.65C220.863 101.939 220.731 101.491 220.757 101.465C220.836 101.438 221.549 103.229 223.107 104.994C224.638 106.758 226.354 107.68 226.301 107.759Z" fill="#455A64"/>
<path d="M189.658 64.5166L194.305 81.3183L196.337 90.2722C196.337 97.962 194.305 101.465 194.305 101.465L225.853 99.9108C225.853 99.9108 226.381 78.5795 225.853 74.5503L222.025 60.6191L211.993 58.1699L199.505 58.4069L189.658 64.5166Z" fill="#D90452"/>
<path d="M233.034 88.139C233.008 88.139 232.929 87.8493 232.902 87.3227C232.902 86.796 232.982 86.0849 233.272 85.3212C233.536 84.5838 233.932 83.9781 234.302 83.5831C234.645 83.1881 234.909 83.0037 234.909 83.0301C234.988 83.0827 234.011 83.9518 233.483 85.4002C232.955 86.8486 233.114 88.139 233.034 88.139Z" fill="#263238"/>
<path d="M242.643 77.0785L234.432 81.9768L229.786 70.0734C229.786 70.0734 229.179 68.625 227.093 64.9908C224.374 60.2242 220.915 60.4612 220.915 60.4612L216.744 66.6499L221.179 76.1041C221.179 76.1041 223.872 93.6695 229.099 95.039C237.072 97.1194 242.643 77.0785 242.643 77.0785Z" fill="#D90452"/>
<g opacity="0.3">
<path d="M191.428 111.972C195.15 111.841 199.005 110.26 202.199 108.364C205.393 106.468 208.297 104.124 211.307 101.965C218.541 96.7506 232.876 85.3476 239.555 79.5012L237.628 79.9226L192.537 109.049L191.428 111.972Z" fill="black"/>
</g>
<path d="M225.959 95.1704C225.941 95.1704 225.933 95.0739 225.933 94.8808C225.933 94.635 225.924 94.3365 225.906 93.9854C225.906 93.169 225.906 92.0629 225.906 90.7198C225.906 87.902 225.933 84.1098 225.959 79.9225C225.959 78.8691 225.985 77.842 225.933 76.8413C225.853 75.8669 225.748 74.9189 225.537 74.0235C225.167 72.259 224.296 70.8369 223.609 69.6519C222.897 68.4668 222.342 67.4924 221.999 66.7814C221.823 66.4302 221.7 66.1581 221.629 65.965C221.559 65.7719 221.533 65.6753 221.55 65.6753C221.55 65.6753 221.594 65.7631 221.682 65.9386C221.77 66.1318 221.911 66.3951 222.105 66.7287C222.448 67.4134 223.029 68.3615 223.768 69.5465C224.481 70.7316 225.378 72.1537 225.774 73.9708C225.985 74.8662 226.117 75.8406 226.197 76.8413C226.276 77.842 226.223 78.8691 226.223 79.9225C226.17 84.1098 226.117 87.902 226.091 90.7198C226.065 92.0629 226.038 93.169 226.012 93.9854C226.012 94.3365 226.003 94.635 225.985 94.8808C225.985 95.0739 225.977 95.1704 225.959 95.1704Z" fill="#263238"/>
<path d="M222.897 46.1348C222.158 46.2401 221.366 45.8978 220.917 45.2657C221.445 45.3447 221.999 45.3974 222.448 45.1604C222.923 44.9497 223.161 44.265 222.818 43.8963C222.527 43.6066 222.052 43.6593 221.656 43.633C220.732 43.554 219.861 42.8956 219.544 42.0002C219.201 41.0258 219.518 39.9724 219.65 38.9453C219.993 35.9695 218.567 32.8356 216.086 31.1502L209.644 27.4106C207.321 30.4128 206.582 34.4421 207.057 38.1816C207.558 41.9475 209.142 45.4764 211.07 48.742C211.624 49.69 212.231 50.6381 213.023 51.4281C213.815 52.1918 214.818 52.7975 215.901 52.9029C216.191 52.0075 216.006 50.9541 215.426 50.2167C217.168 50.3221 218.963 49.69 220.23 48.5049C219.773 48.1538 219.315 47.7939 218.858 47.4252C220.31 47.6359 221.841 47.1355 222.897 46.1348Z" fill="#263238"/>
<path d="M198.079 35.6537C198.185 32.9675 199.874 30.7027 202.462 29.9653L210.54 27.6742C214.051 27.2001 216.533 31.4401 216.85 34.9689C217.219 38.8665 217.51 43.0011 217.114 45.9243C216.374 51.8233 211.886 52.7187 211.886 52.7187C211.886 52.6924 211.966 55.3785 211.992 57.1166L211.939 70.2051L200.006 57.3537L198.053 35.7327C198.053 35.6273 198.079 35.7853 198.079 35.6537Z" fill="#AE7461"/>
<path d="M215.846 39.4459C215.873 39.8409 215.556 40.1833 215.134 40.236C214.711 40.2623 214.368 39.9726 214.342 39.5776C214.315 39.1826 214.606 38.8139 215.028 38.7876C215.45 38.7612 215.82 39.0509 215.846 39.4459Z" fill="#263238"/>
<path d="M216.031 37.2865C215.952 37.3919 215.371 36.9705 214.552 36.9968C213.734 37.0232 213.153 37.4445 213.074 37.3655C213.021 37.3129 213.1 37.1285 213.364 36.9442C213.602 36.7335 214.051 36.5492 214.552 36.5492C215.054 36.5228 215.476 36.7072 215.74 36.8915C216.004 37.0758 216.084 37.2339 216.031 37.2865Z" fill="#263238"/>
<path d="M208.719 39.4459C208.746 39.8409 208.429 40.2096 208.006 40.236C207.61 40.2623 207.241 39.9726 207.214 39.5776C207.188 39.1826 207.505 38.8402 207.927 38.7876C208.323 38.7612 208.693 39.0509 208.719 39.4459Z" fill="#263238"/>
<path d="M208.322 37.497C208.216 37.6023 207.636 37.2073 206.844 37.2336C206.025 37.2336 205.444 37.6813 205.339 37.576C205.312 37.5497 205.392 37.3653 205.656 37.1546C205.893 36.9703 206.316 36.7596 206.844 36.7596C207.345 36.7333 207.768 36.9176 208.032 37.102C208.269 37.2863 208.375 37.4443 208.322 37.497Z" fill="#263238"/>
<path d="M211.042 43.7911C211.042 43.7384 211.544 43.6594 212.362 43.5278C212.574 43.5014 212.758 43.4488 212.785 43.2907C212.838 43.1591 212.732 42.9221 212.626 42.685C212.415 42.1935 212.195 41.6755 211.966 41.1313C211.042 38.9191 210.382 37.102 210.462 37.0494C210.567 37.023 211.386 38.7875 212.283 40.9996C212.512 41.5439 212.732 42.0706 212.943 42.5797C213.022 42.8167 213.154 43.0801 213.075 43.3698C213.022 43.5278 212.864 43.6594 212.732 43.6858C212.6 43.7384 212.494 43.7384 212.389 43.7648C211.57 43.8174 211.042 43.8438 211.042 43.7911Z" fill="#263238"/>
<path d="M204.02 50.8489C204.02 50.8489 206.052 54.8255 211.913 54.0881L211.887 52.7187C211.887 52.7187 208.006 53.0873 204.02 50.8489Z" fill="#6F4439"/>
<path d="M207.979 34.89C207.9 35.1007 207.082 35.0217 206.158 35.1797C205.181 35.3114 204.442 35.6011 204.31 35.4167C204.23 35.3114 204.362 35.1007 204.679 34.89C204.97 34.653 205.471 34.4423 206.026 34.3633C206.606 34.2843 207.134 34.3633 207.478 34.495C207.821 34.6267 208.006 34.7847 207.979 34.89Z" fill="#263238"/>
<path d="M215.713 34.811C215.555 34.9954 215.001 34.8374 214.314 34.8374C213.654 34.8374 213.073 34.9954 212.941 34.811C212.889 34.732 212.968 34.5214 213.205 34.337C213.443 34.179 213.865 34.021 214.314 34.021C214.789 34.021 215.185 34.179 215.423 34.3633C215.687 34.5214 215.766 34.732 215.713 34.811Z" fill="#263238"/>
<path d="M208.006 45.3712C208.085 44.8971 208.587 44.5021 209.062 44.5548C209.432 44.5811 209.775 44.8181 209.933 45.1341C210.118 45.4502 210.118 45.8452 210.012 46.1875V46.2665C209.669 46.6352 209.115 46.7669 208.64 46.5826C208.191 46.3982 207.9 45.8715 208.006 45.3712Z" fill="#6F4439"/>
<path d="M210.593 46.2668C210.593 46.1351 209.775 46.1878 209.141 45.5557C208.481 44.8973 208.507 44.002 208.402 44.002C208.349 44.002 208.243 44.2126 208.27 44.5813C208.296 44.95 208.455 45.4767 208.851 45.8717C209.22 46.2668 209.722 46.4248 210.065 46.4248C210.408 46.4248 210.593 46.3194 210.593 46.2668Z" fill="#263238"/>
<path d="M200.799 26.3047C201.696 24.8563 203.861 23.3552 205.524 23.0655C207.452 22.7231 208.613 23.0392 209.854 24.1979C209.854 24.1979 210.857 25.146 211.755 25.3303C212.679 25.4883 213.444 25.3566 214.553 25.9097C216.058 26.6734 216.718 28.6748 217.404 30.2023C218.276 32.0984 219.49 33.8365 220.044 35.8643C220.625 37.8657 220.308 40.3412 218.619 41.5526C218.936 39.8409 219.2 37.9184 218.276 36.47C217.536 35.3376 216.269 34.7319 215.345 33.7575C214.236 32.5988 214.078 31.045 212.916 29.9389C210.25 27.4108 205.551 31.8614 200.799 26.3047Z" fill="#263238"/>
<path d="M217.721 34.3106C217.035 32.6515 216.269 30.9661 215.108 29.5703C213.629 27.8585 211.491 26.7261 209.247 26.4365C207.003 26.1468 204.653 26.7261 202.805 28.0165L202.33 28.0429C203.782 29.86 206.079 30.9661 208.402 30.9661C209.775 30.9661 211.28 30.5974 212.468 31.3084C213.603 31.9931 214.052 33.4152 214.976 34.3633C215.636 34.9953 216.48 35.3903 217.114 36.0487C217.774 36.7597 218.091 37.6815 218.408 38.6032C218.83 37.1811 218.276 35.68 217.721 34.3106Z" fill="#263238"/>
<path d="M205.34 29.1489L201.565 25.8307C198.608 25.699 196.733 28.4642 195.73 30.5973C194.965 32.2038 194.727 33.9682 194.173 35.6536C193.592 37.3391 192.668 38.9455 192.14 40.6573C191.612 42.3954 191.533 44.3968 192.562 45.8716C192.791 45.4678 193.011 45.064 193.222 44.6602C193.354 46.3456 194.067 47.9521 195.202 49.1635C195.29 48.7421 195.378 48.3295 195.466 47.9257C196.073 49.1898 197.077 50.2695 198.317 50.9542L200.086 55.6945C202.673 47.7414 195.968 47.1357 205.34 29.1489Z" fill="#263238"/>
<path d="M204.786 29.8336C204.575 30.9134 204.338 31.9931 203.915 32.9938C203.493 33.9945 202.859 34.9426 201.962 35.5746C200.668 36.5227 199.005 36.707 197.474 37.0757C195.916 37.4708 194.253 38.1818 193.619 39.6302C193.883 37.4971 194.306 35.364 194.939 33.3098C195.626 31.045 196.629 28.7276 198.53 27.3055C200.272 25.9887 202.701 25.5937 204.734 26.3574" fill="#263238"/>
<path d="M200.772 40.2095C200.693 40.0251 197.049 38.8137 197.102 42.6586C197.155 46.3982 200.904 45.5555 200.93 45.4501C200.93 45.3448 200.772 40.2095 200.772 40.2095Z" fill="#AE7461"/>
<path d="M199.742 44.0544C199.715 44.0544 199.662 44.1071 199.557 44.1597C199.451 44.2124 199.266 44.2387 199.082 44.1861C198.686 44.0281 198.342 43.4224 198.29 42.7376C198.29 42.3953 198.342 42.0793 198.474 41.8159C198.58 41.5262 198.738 41.3419 198.95 41.3156C199.134 41.2629 199.293 41.3682 199.346 41.4736C199.398 41.5789 199.372 41.6579 199.398 41.6579C199.398 41.6579 199.478 41.6052 199.425 41.4472C199.425 41.3682 199.372 41.2892 199.293 41.2102C199.187 41.1312 199.055 41.1049 198.923 41.1312C198.633 41.1575 198.369 41.4209 198.237 41.7106C198.105 42.0003 198.026 42.369 198.052 42.764C198.078 43.5014 198.474 44.2124 199.029 44.3441C199.293 44.4231 199.504 44.3441 199.61 44.2387C199.742 44.1597 199.742 44.0544 199.742 44.0544Z" fill="#6F4439"/>
<path d="M199.32 44.7392C198.977 44.6602 198.581 44.9499 198.502 45.2922C198.422 45.6609 198.66 46.0559 199.003 46.1613C199.373 46.2666 199.795 46.0559 199.901 45.7136C200.033 45.3449 199.848 44.9235 199.505 44.7919" fill="white"/>
<path d="M199.505 44.7919C199.478 44.7919 199.769 44.8972 199.848 45.2659C199.901 45.4502 199.901 45.6873 199.742 45.8716C199.584 46.0296 199.294 46.1613 199.03 46.0823C198.792 46.0033 198.607 45.7663 198.581 45.5292C198.528 45.2922 198.634 45.0815 198.766 44.9499C199.056 44.7129 199.346 44.7655 199.32 44.7392C199.346 44.7129 199.267 44.6865 199.162 44.6865C199.03 44.6865 198.871 44.7392 198.686 44.8709C198.528 45.0025 198.37 45.2659 198.422 45.5556C198.449 45.8453 198.66 46.1349 199.003 46.2403C199.32 46.3456 199.663 46.1876 199.848 45.9769C200.033 45.7399 200.059 45.4239 199.98 45.2396C199.901 45.0289 199.769 44.8972 199.69 44.8445C199.584 44.7919 199.505 44.7655 199.505 44.7919Z" fill="#263238"/>
<path d="M205.05 30.0968C204.971 30.1232 204.628 28.8591 203.572 27.674C202.542 26.4889 201.328 25.9622 201.381 25.9096C201.381 25.8832 201.697 25.9622 202.173 26.2256C202.621 26.4626 203.229 26.9103 203.757 27.516C204.285 28.1217 204.654 28.7801 204.839 29.2541C205.024 29.7545 205.077 30.0705 205.05 30.0968Z" fill="#455A64"/>
<path d="M299.192 41.7898C299.21 41.7898 299.245 41.939 299.298 42.2375C299.351 42.5272 299.483 42.9749 299.562 43.5542C299.747 44.713 299.931 46.3721 299.958 48.4789C299.958 50.5593 299.773 53.0612 299.192 55.7473C298.902 57.0904 298.532 58.5125 298.004 59.9082C297.476 61.3303 296.869 62.7524 296.077 64.1482C295.311 65.5439 294.414 66.8343 293.49 68.0194C292.513 69.1781 291.51 70.2315 290.507 71.1533C288.447 73.023 286.362 74.4188 284.514 75.3932C282.666 76.3676 281.082 76.9733 279.947 77.2893C279.392 77.4736 278.943 77.5527 278.653 77.6053C278.336 77.6756 278.178 77.7107 278.178 77.7107C278.178 77.6931 278.327 77.6404 278.627 77.5527C278.917 77.4736 279.366 77.3683 279.92 77.184C281.029 76.8416 282.587 76.2096 284.435 75.2352C286.256 74.2345 288.289 72.8124 290.322 70.9689C291.325 70.0472 292.328 68.9938 293.279 67.8351C294.203 66.6763 295.074 65.4122 295.839 64.0165C296.631 62.6471 297.239 61.225 297.74 59.8292C298.268 58.4335 298.638 57.0377 298.928 55.6946C299.535 53.0085 299.747 50.533 299.747 48.4789C299.773 46.3984 299.615 44.713 299.456 43.5806C299.377 43.0012 299.298 42.5535 299.245 42.2375C299.192 41.939 299.175 41.7898 299.192 41.7898Z" fill="#263238"/>
<path fill-rule="evenodd" clip-rule="evenodd" d="M305.054 61.6463C302.625 70.2842 297.002 77.4736 289.188 81.8715C284.092 84.742 278.443 86.2168 272.714 86.2168C269.704 86.2168 266.642 85.7954 263.659 84.9791C255 82.5562 247.819 76.9469 243.384 69.1517C238.077 59.7765 237.655 48.3208 242.196 38.4979C245.179 32.1248 250.01 26.9105 256.161 23.4606C263.976 19.0627 273.031 17.9566 281.69 20.3531C290.349 22.7496 297.53 28.3852 301.939 36.1804C306.348 43.9755 307.456 53.0084 305.054 61.6463ZM272.635 22.2755C267.46 22.2755 262.339 23.5923 257.719 26.1994C250.617 30.2024 245.522 36.7071 243.331 44.5022C241.166 52.3237 242.169 60.5139 246.156 67.598C250.142 74.6558 256.663 79.7384 264.504 81.9242C272.344 84.11 280.555 83.1093 287.63 79.1064C293.2 75.9725 297.583 71.2585 300.276 65.4912C304.394 56.59 303.998 46.2403 299.193 37.7342C295.18 30.6764 288.686 25.5674 280.845 23.4079C278.126 22.6442 275.354 22.2755 272.635 22.2755Z" fill="#263238"/>
<path d="M246.843 63.2264C246.843 63.2264 246.799 63.1474 246.711 62.9894C246.623 62.7962 246.509 62.5504 246.368 62.252C246.209 61.936 246.051 61.5409 245.893 61.0669C245.734 60.5929 245.523 60.0662 245.365 59.4605C245.277 59.162 245.189 58.846 245.101 58.5124C244.995 58.1964 244.942 57.854 244.863 57.4854C244.705 56.7743 244.599 55.9843 244.493 55.1679C244.309 53.5088 244.256 51.6917 244.414 49.7692C244.599 47.8731 244.969 46.0823 245.444 44.4759C245.681 43.6858 245.919 42.9485 246.209 42.2637C246.341 41.9214 246.473 41.579 246.605 41.263C246.764 40.9646 246.913 40.6749 247.054 40.394C247.292 39.8146 247.609 39.3406 247.846 38.8929C248.084 38.4715 248.321 38.1028 248.533 37.8131C248.709 37.5498 248.858 37.3303 248.981 37.1548C249.087 37.0143 249.149 36.9441 249.166 36.9441C249.166 36.9441 249.122 37.0231 249.034 37.1811C248.929 37.3742 248.788 37.6025 248.612 37.8658C248.427 38.1818 248.216 38.5242 247.978 38.9719C247.741 39.4196 247.45 39.8936 247.213 40.473C247.089 40.7539 246.957 41.0523 246.817 41.3684C246.658 41.658 246.553 42.0004 246.421 42.3428C246.13 43.0275 245.919 43.7648 245.681 44.5549C245.233 46.135 244.863 47.8994 244.705 49.7955C244.546 51.6917 244.599 53.5088 244.731 55.1415C244.863 55.9579 244.942 56.7216 245.101 57.4327C245.153 57.8014 245.206 58.1437 245.312 58.4861C245.4 58.8021 245.479 59.1093 245.549 59.4078C245.681 60.0135 245.893 60.5402 246.051 61.0142C246.183 61.4883 246.341 61.8833 246.473 62.2256C246.579 62.5241 246.676 62.7699 246.764 62.963C246.817 63.1386 246.843 63.2264 246.843 63.2264Z" fill="#263238"/>
<path d="M251.462 68.9674C251.41 69.02 250.882 68.8094 250.354 68.3353C249.826 67.835 249.562 67.3346 249.641 67.2819C249.694 67.2556 250.063 67.677 250.538 68.1247C251.04 68.5724 251.489 68.8884 251.462 68.9674Z" fill="#263238"/>
<path fill-rule="evenodd" clip-rule="evenodd" d="M242.17 35.917C244.995 29.8599 249.667 24.5929 255.924 21.0904C263.633 16.7451 272.583 15.6654 281.11 18.0092C289.637 20.3793 296.739 25.936 301.068 33.6258C310.071 49.5058 304.421 69.7047 288.502 78.6586C280.793 83.0039 271.843 84.0836 263.316 81.7134C254.789 79.3433 247.687 73.813 243.358 66.1231C237.893 56.4846 237.84 45.2659 242.17 35.917ZM300.223 62.8839C304.289 54.1671 304.236 43.7121 299.141 34.7055C295.075 27.5424 288.475 22.3545 280.503 20.1423C272.556 17.9565 264.214 18.9572 257.007 23.0128C249.826 27.0684 244.625 33.6521 242.434 41.6053C240.216 49.5321 241.219 57.854 245.285 65.0434C249.351 72.2065 255.951 77.3682 263.923 79.5803C271.87 81.7924 280.212 80.7917 287.419 76.7361C293.254 73.4443 297.61 68.546 300.223 62.8839Z" fill="#455A64"/>
<path fill-rule="evenodd" clip-rule="evenodd" d="M272.266 83.4779C269.23 83.4779 266.167 83.0565 263.184 82.2402C254.525 79.8174 247.318 74.1817 242.883 66.3865C237.576 56.9849 237.127 45.5292 241.695 35.7063C244.678 29.3069 249.509 24.0926 255.66 20.6164C263.501 16.2184 272.583 15.1124 281.242 17.5088C289.901 19.9317 297.108 25.541 301.543 33.3625C310.651 49.5058 304.923 70.0207 288.766 79.1326C283.644 82.0032 277.995 83.4779 272.266 83.4779ZM272.16 17.3245C266.616 17.3245 261.151 18.7466 256.188 21.5381C250.222 24.8826 245.549 29.939 242.645 36.154C238.236 45.6609 238.659 56.7743 243.807 65.8598C248.083 73.4443 255.079 78.8956 263.448 81.2131C271.843 83.5569 280.661 82.4772 288.238 78.2109C303.893 69.3887 309.463 49.5058 300.619 33.8892C296.343 26.3047 289.347 20.8534 280.951 18.5359C278.047 17.7195 275.091 17.3245 272.16 17.3245ZM272.266 81.2658C269.415 81.2658 266.563 80.8708 263.765 80.107C255.687 77.8422 248.955 72.6016 244.81 65.2805C240.691 57.9857 239.662 49.5322 241.906 41.4473C244.176 33.3888 249.43 26.6734 256.743 22.5388C264.082 18.4306 272.556 17.4035 280.661 19.642C288.739 21.9068 295.471 27.1474 299.616 34.4422C304.579 43.2381 304.975 53.9301 300.725 63.121C297.927 69.099 293.412 73.9447 287.657 77.1839C282.879 79.8964 277.599 81.2658 272.266 81.2658ZM272.16 19.5366C266.986 19.5366 261.891 20.8534 257.271 23.4606C250.195 27.4371 245.1 33.9419 242.935 41.737C240.744 49.5322 241.747 57.7223 245.734 64.7801C249.72 71.8379 256.241 76.9205 264.055 79.08C271.87 81.2658 280.08 80.265 287.155 76.2885C292.699 73.1546 297.082 68.4406 299.748 62.6733C303.893 53.7984 303.471 43.4488 298.692 34.9689C294.706 27.9112 288.185 22.8285 280.371 20.669C277.651 19.9053 274.906 19.5366 272.16 19.5366Z" fill="#455A64"/>
<path d="M179.68 112.078L179.1 111.13C177.806 109.128 179.258 105.915 180.684 105.046L243.225 65.6754C243.516 65.4647 244.017 65.6754 244.308 66.1231L248.479 72.7332C248.769 73.1809 248.743 73.7076 248.426 73.9183L186.254 113.052C184.855 113.947 180.974 114.105 179.68 112.078Z" fill="#455A64"/>
<path d="M237.945 80.7655L239.846 78.764C239.846 78.764 239.635 74.208 240.401 73.0756L240.823 72.4173C240.823 72.4173 240.401 70.2051 241.615 69.6784C241.932 68.8357 242.381 68.4934 242.961 68.9674C242.961 68.9674 242.645 67.3083 244.202 67.0713C245.76 66.8606 246.209 73.9184 246.209 73.9184C246.209 73.9184 247.001 77.1049 245.205 77.1049C245.205 77.1049 244.202 78.211 243.093 78.3163C243.093 78.3163 242.75 80.2124 241.193 80.1071L237.945 80.7655Z" fill="#AE7461"/>
<path d="M242.855 77.4999C242.855 77.4735 242.934 77.5525 243.04 77.7105C243.119 77.8949 243.172 78.1582 243.119 78.5006C243.066 78.8429 242.881 79.2116 242.538 79.5276C242.195 79.8173 241.746 80.028 241.297 80.186C240.347 80.5284 239.449 80.6601 238.789 80.6864C238.156 80.7127 237.76 80.6601 237.76 80.6337C237.76 80.5547 239.37 80.6074 241.192 79.9753C241.667 79.8173 242.063 79.6067 242.38 79.3433C242.697 79.08 242.881 78.7639 242.934 78.4743C243.093 77.8685 242.802 77.4999 242.855 77.4999Z" fill="#6F4439"/>
<path d="M244.228 74.9718C244.149 74.9718 244.149 73.576 243.806 71.8642C243.489 70.1525 242.934 68.8357 243.014 68.8094C243.04 68.7831 243.225 69.0991 243.436 69.6521C243.647 70.1788 243.885 70.9425 244.07 71.8116C244.228 72.6806 244.281 73.4707 244.307 74.05C244.307 74.6294 244.281 74.9718 244.228 74.9718Z" fill="#6F4439"/>
<path d="M242.882 75.7617C242.829 75.7617 242.671 74.3923 242.327 72.7069C241.984 71.0214 241.535 69.7047 241.615 69.6784C241.667 69.652 242.222 70.9688 242.565 72.6542C242.935 74.3396 242.961 75.7617 242.882 75.7617Z" fill="#6F4439"/>
<path d="M245.39 75.7092C245.443 75.6828 245.68 76.1042 245.522 76.6572C245.363 77.2103 244.941 77.4736 244.915 77.4209C244.862 77.3683 245.152 77.0523 245.284 76.6046C245.416 76.1305 245.311 75.7355 245.39 75.7092Z" fill="#6F4439"/>
<path d="M241.034 76.025C240.955 76.025 240.929 75.235 240.876 74.2869C240.823 73.3389 240.744 72.5752 240.797 72.5488C240.876 72.5488 241.061 73.3125 241.114 74.2869C241.193 75.235 241.087 76.025 241.034 76.025Z" fill="#6F4439"/>
<path d="M199.322 92.4844C199.322 92.4844 199.902 91.5363 201.143 90.799C202.384 90.0616 204.892 89.7719 205.341 88.9555C205.816 88.1128 206.582 88.9818 206.186 90.0352C205.922 90.7199 204.1 92.3 204.1 92.3C204.1 92.3 205.737 93.0638 207.004 92.6161C208.271 92.1684 212.469 91.7207 212.812 92.3527C213.182 93.0638 212.073 93.0901 211.598 93.2481C211.202 93.3798 208.324 94.2225 208.324 94.2225C208.324 94.2225 213.63 95.0126 214.238 95.3812C214.924 95.7763 214.053 96.2766 213.736 96.224C213.525 96.1976 212.469 96.8297 211.703 97.33C211.202 97.646 210.594 97.7777 209.987 97.6724L208.773 97.4617L212.416 98.5414C212.416 98.5414 212.97 99.2525 211.994 99.3841C211.571 99.4368 199.982 99.0155 199.084 98.8838C197.553 98.6994 195.098 98.6468 195.098 98.6468L196.998 91.7207L199.322 92.4844Z" fill="#AE7461"/>
<path d="M213.816 96.3029C213.816 96.3819 212.655 96.6189 211.15 96.6189C209.671 96.6189 208.51 96.3556 208.51 96.2766C208.536 96.2239 209.698 96.3556 211.176 96.3556C212.628 96.3819 213.816 96.2503 213.816 96.3029Z" fill="#6F4439"/>
<path d="M190.134 88.9556L195.467 78.0266L190.768 63.832C190.768 63.832 188.92 64.5957 187.23 66.8869C185.567 69.1517 183.745 73.971 183.745 73.971C183.745 73.971 177.964 87.1911 177.013 89.1663C176.036 91.1414 174.505 94.8019 177.013 96.8561C179.495 98.8839 196.153 98.9629 196.153 98.9629L197.922 91.6154L190.134 88.9556Z" fill="#D90452"/>
<path d="M190.768 71.2584C190.847 71.2321 192.088 74.919 193.54 79.5013C194.992 84.0836 196.127 87.8231 196.048 87.8495C195.968 87.8758 194.728 84.1889 193.276 79.6066C191.824 75.0243 190.688 71.2848 190.768 71.2584Z" fill="#263238"/>
<path d="M197.922 91.6154C197.922 91.6154 197.711 91.5891 197.315 91.4838C196.857 91.3433 196.303 91.1853 195.652 91.0097C194.253 90.6147 192.325 90.0354 190.187 89.4823C188.075 88.9293 186.095 88.5079 184.643 88.5606C183.217 88.5606 182.399 89.061 182.399 89.0083C182.373 88.9819 182.557 88.8766 182.953 88.7186C183.323 88.5343 183.904 88.4026 184.643 88.3499C186.121 88.2709 188.128 88.6659 190.266 89.219C192.405 89.772 194.332 90.3777 195.705 90.8254C196.391 91.0361 196.945 91.2468 197.341 91.3784C197.737 91.5101 197.922 91.5891 197.922 91.6154Z" fill="#263238"/>
<g opacity="0.3">
<path d="M191.982 74.8665C191.824 77.8423 192.088 81.1868 192.458 84.1364L193.936 81.1342C193.698 79.6067 192.59 76.5256 192.062 75.0771" fill="black"/>
</g>
<path d="M285.095 63.8055H278.178V38.9717H285.095V63.8055Z" fill="#D90452"/>
<path d="M263.473 64.859H256.557V53.5876H263.473V64.859Z" fill="#D90452"/>
<path d="M274.139 64.8591H267.223V47.4517H274.139V64.8591Z" fill="#D90452"/>
<path d="M282.534 30.7815C282.534 30.7991 282.481 30.8693 282.376 30.9922C282.235 31.1502 282.059 31.3521 281.848 31.5979C281.373 32.1509 280.713 32.8883 279.894 33.8363C278.205 35.7325 275.855 38.3923 273.136 41.4471L273.057 41.5262L272.977 41.4735C271.631 40.6044 270.205 39.6827 268.727 38.7083L268.912 38.682C268.859 38.7346 268.806 38.7961 268.753 38.8663C265.269 42.9482 262.101 46.6615 259.804 49.3476L259.725 49.4266L259.672 49.374C258.273 48.3206 257.111 47.4779 256.293 46.8721C255.923 46.5912 255.624 46.363 255.395 46.1874C255.184 46.0294 255.078 45.9416 255.078 45.9241C255.096 45.9241 255.21 45.9943 255.421 46.1348C255.65 46.2928 255.967 46.5122 256.372 46.7931C257.19 47.3725 258.352 48.1889 259.777 49.216H259.645C261.942 46.5035 265.084 42.7902 268.542 38.682C268.595 38.6293 268.648 38.5679 268.701 38.4976L268.78 38.4186L268.885 38.4713C270.364 39.4457 271.789 40.3674 273.109 41.2365L272.951 41.2628C275.697 38.2343 278.073 35.6271 279.789 33.731C280.633 32.8093 281.293 32.0719 281.795 31.5452C282.006 31.317 282.182 31.1238 282.323 30.9658C282.464 30.8429 282.534 30.7815 282.534 30.7815Z" fill="#263238"/>
<path d="M282.745 36.0222C282.719 36.0222 282.692 35.4165 282.666 34.4421C282.639 33.4677 282.613 32.0983 282.613 30.5972L282.771 30.7289C282.736 30.7465 282.692 30.7552 282.639 30.7552C281.108 31.0186 279.735 31.2293 278.732 31.3609C277.729 31.4926 277.122 31.5716 277.122 31.5189C277.095 31.4926 277.729 31.3609 278.706 31.1766C279.709 30.9922 281.082 30.7289 282.587 30.4919C282.639 30.4743 282.683 30.4655 282.719 30.4655L282.877 30.4392V30.5972C282.877 32.0983 282.877 33.4677 282.851 34.4421C282.824 35.4165 282.798 36.0222 282.745 36.0222Z" fill="#263238"/>
</svg>
