<svg width="457" height="228" viewBox="0 0 457 228" fill="none" xmlns="http://www.w3.org/2000/svg">
<rect width="457" height="228" rx="4" fill="#F3F6F9"/>
<path d="M391.753 206.595C391.753 206.67 319.486 206.72 230.377 206.72C141.243 206.72 69 206.67 69 206.595C69 206.52 141.243 206.47 230.377 206.47C319.486 206.47 391.753 206.52 391.753 206.595Z" fill="#263238"/>
<path d="M305.844 206.596H151.187C146.965 206.596 143.543 203.174 143.543 198.954V85.5045C143.543 81.2841 146.965 77.8629 151.187 77.8629H305.844C310.066 77.8629 313.488 81.2841 313.488 85.5045V198.954C313.488 203.174 310.066 206.596 305.844 206.596Z" fill="white"/>
<path d="M313.563 95.2437H143.543V85.4046C143.543 81.2342 146.915 77.8629 151.062 77.8629H305.694C310.041 77.8629 313.563 81.384 313.563 85.7292V95.2437Z" fill="#D2D9E0"/>
<path d="M306.219 206.571C306.344 206.546 306.519 206.546 306.694 206.521C306.877 206.504 307.093 206.471 307.343 206.421C307.593 206.371 307.868 206.304 308.167 206.221C308.442 206.096 308.767 206.021 309.092 205.846C309.766 205.522 310.491 205.072 311.19 204.373C311.89 203.699 312.514 202.8 312.939 201.676C312.989 201.543 313.047 201.401 313.114 201.251C313.139 201.102 313.189 200.952 313.214 200.802C313.313 200.502 313.338 200.178 313.388 199.853C313.463 199.204 313.463 198.529 313.463 197.83C313.438 194.983 313.438 191.687 313.438 187.991C313.438 173.207 313.413 151.831 313.388 125.41C313.388 118.793 313.388 111.875 313.388 104.658C313.388 101.062 313.388 97.3913 313.388 93.6454C313.388 91.7642 313.388 89.8663 313.388 87.9517C313.388 87.0028 313.413 86.0538 313.363 85.1049C313.313 84.1559 313.089 83.207 312.689 82.333C311.865 80.6099 310.366 79.1864 308.542 78.4872C307.643 78.1376 306.669 77.9628 305.669 77.9878C304.687 77.9878 303.687 77.9878 302.672 77.9878C298.658 77.9878 294.586 77.9878 290.456 77.9878C282.162 77.9878 273.644 77.9878 264.9 77.9878C229.952 77.9878 191.532 77.9878 151.187 77.9878C149.963 78.0127 148.739 78.3124 147.64 78.8868C146.541 79.4861 145.617 80.3352 144.917 81.359C144.243 82.3829 143.818 83.5816 143.718 84.8052C143.668 85.4046 143.668 86.0289 143.668 86.6532V88.5261C143.668 93.5039 143.668 98.4485 143.668 103.36C143.668 113.174 143.668 122.863 143.668 132.353C143.668 151.382 143.668 169.711 143.668 187.192C143.668 189.373 143.668 191.545 143.668 193.71C143.668 194.775 143.668 195.849 143.668 196.931C143.668 198.005 143.593 199.079 143.768 200.103C144.068 202.175 145.292 204.073 147.016 205.222C147.89 205.796 148.864 206.171 149.863 206.346C150.888 206.546 151.912 206.471 152.961 206.471C161.23 206.471 169.274 206.471 177.043 206.496C192.581 206.496 207.07 206.496 220.285 206.496C246.714 206.521 268.098 206.521 282.887 206.546C290.281 206.546 296.027 206.571 299.924 206.571C301.847 206.571 303.346 206.571 304.345 206.571C305.345 206.595 305.844 206.595 305.844 206.595C305.844 206.595 305.345 206.595 304.345 206.595C303.346 206.62 301.847 206.62 299.924 206.62C296.027 206.62 290.281 206.62 282.887 206.645C268.098 206.645 246.714 206.67 220.285 206.695C207.07 206.695 192.581 206.695 177.043 206.695C169.274 206.695 161.23 206.695 152.961 206.695C151.937 206.695 150.888 206.77 149.838 206.571C148.789 206.396 147.79 205.996 146.891 205.422C145.117 204.248 143.843 202.275 143.518 200.128C143.368 199.054 143.443 198.005 143.418 196.931C143.418 195.849 143.418 194.775 143.418 193.71C143.418 191.545 143.418 189.373 143.418 187.192C143.418 169.711 143.418 151.382 143.418 132.353C143.418 122.863 143.418 113.174 143.418 103.36C143.418 98.4485 143.418 93.5039 143.418 88.5261V86.6532C143.418 86.0289 143.393 85.4046 143.443 84.7802C143.568 83.5067 144.018 82.283 144.717 81.2092C145.417 80.1604 146.391 79.2614 147.515 78.662C148.639 78.0627 149.913 77.738 151.187 77.738C191.532 77.738 229.952 77.738 264.9 77.738C273.644 77.738 282.162 77.738 290.456 77.763C294.586 77.763 298.658 77.763 302.672 77.763C303.687 77.763 304.687 77.763 305.669 77.763C306.694 77.763 307.693 77.9128 308.617 78.2874C310.491 78.9867 312.039 80.46 312.864 82.258C313.288 83.1321 313.538 84.106 313.588 85.0799C313.613 86.0538 313.588 87.0028 313.588 87.9517C313.588 89.8663 313.588 91.7642 313.588 93.6454C313.588 97.3913 313.588 101.062 313.588 104.658C313.588 111.875 313.588 118.793 313.588 125.41C313.563 151.831 313.563 173.207 313.538 187.991C313.538 191.687 313.538 194.983 313.538 197.83C313.538 198.529 313.538 199.229 313.463 199.878C313.413 200.203 313.388 200.527 313.288 200.827C313.239 200.977 313.214 201.127 313.164 201.276C313.114 201.426 313.064 201.568 313.014 201.701C312.589 202.825 311.915 203.749 311.215 204.423C310.516 205.097 309.791 205.572 309.117 205.871C308.792 206.046 308.442 206.146 308.167 206.246C307.868 206.329 307.593 206.396 307.343 206.446C307.11 206.496 306.893 206.529 306.694 206.546C306.519 206.571 306.344 206.571 306.219 206.571Z" fill="#263238"/>
<path d="M154.685 87.6022C154.685 88.7009 153.786 89.6 152.686 89.6C151.587 89.6 150.713 88.7009 150.713 87.6022C150.713 86.5034 151.587 85.6044 152.686 85.6044C153.786 85.6044 154.685 86.5034 154.685 87.6022Z" fill="white"/>
<path d="M160.656 87.6022C160.656 88.7009 159.781 89.6 158.657 89.6C157.558 89.6 156.684 88.7009 156.684 87.6022C156.684 86.5034 157.558 85.6044 158.657 85.6044C159.781 85.6044 160.656 86.5034 160.656 87.6022Z" fill="white"/>
<path d="M166.626 87.6022C166.626 88.7009 165.752 89.6 164.653 89.6C163.554 89.6 162.654 88.7009 162.654 87.6022C162.654 86.5034 163.554 85.6044 164.653 85.6044C165.752 85.6044 166.626 86.5034 166.626 87.6022Z" fill="white"/>
<path d="M158.746 100.638C158.746 100.638 158.746 198.966 158.746 198.028C158.746 197.09 299.336 198.028 299.336 198.028" fill="white"/>
<path d="M299.337 198.028C299.337 198.028 299.138 198.056 298.739 198.113C298.284 198.113 297.687 198.113 296.948 198.113C295.299 198.113 292.995 198.113 290.038 198.113C283.896 198.113 275.194 198.113 264.53 198.113C242.947 198.113 213.174 198.113 180.33 198.113C176.235 198.113 172.168 198.142 168.13 198.199C166.14 198.199 164.178 198.227 162.244 198.284C161.22 198.284 160.282 198.284 159.258 198.369L159.002 198.454C158.945 198.454 158.917 198.454 158.917 198.454C159.941 198.369 158.149 197.943 158.32 198.028V197.858V197.09V195.64C158.32 187.88 158.32 180.46 158.32 173.297C158.405 159.055 158.405 146.263 158.405 135.517C158.49 124.772 158.576 116.073 158.576 110.019C158.633 107.005 158.661 104.674 158.661 103.026C158.661 102.286 158.661 101.689 158.661 101.235C158.718 100.837 158.746 100.638 158.746 100.638C158.746 100.638 158.746 100.837 158.746 101.235C158.803 101.689 158.832 102.286 158.832 103.026C158.832 104.674 158.86 107.005 158.917 110.019C158.917 116.073 159.002 124.772 159.088 135.517C159.088 146.263 159.088 159.055 159.173 173.297C159.173 180.46 159.173 187.88 159.173 195.64V197.09V197.858V198.028C159.343 198.199 157.552 197.602 158.576 197.602H158.661C158.746 197.516 158.832 197.516 158.832 197.516H159.258C160.197 197.431 161.22 197.431 162.159 197.346C164.149 197.346 166.14 197.317 168.13 197.261C172.168 197.261 176.235 197.232 180.33 197.175C213.174 197.175 242.947 197.346 264.53 197.516C275.194 197.602 283.896 197.772 290.038 197.772C292.995 197.829 295.299 197.886 296.948 197.943C297.687 197.943 298.284 197.943 298.739 197.943C299.138 198 299.337 198.028 299.337 198.028Z" fill="#263238"/>
<path d="M203.107 187.112H173.078V148.054H203.107V187.112Z" fill="#B9C1C8" fill-opacity="0.5"/>
<path d="M243.8 187.112H213.771V127.16H243.8V187.112Z" fill="#B9C1C8" fill-opacity="0.5"/>
<path d="M284.578 187.112H254.549V109.592H284.578V187.112Z" fill="#B9C1C8" fill-opacity="0.5"/>
<path d="M230.748 62.7825L222.58 32.8656C220.781 25.3739 214.91 20.1546 207.466 22.1524L206.792 22.3772C199.947 24.6247 196 31.7418 197.724 38.7341C199.297 45.2269 201.146 52.394 202.295 55.7902C204.718 62.7825 212.113 61.5339 212.113 61.5339C212.138 61.5339 213.412 65.8541 213.986 67.9518L213.711 73.3208L219.182 70.1993L230.748 62.7825Z" fill="#AE7461"/>
<path d="M212.113 61.5339C212.113 61.5339 216.635 60.3352 220.382 55.8152C220.382 55.8152 219.932 61.8086 212.713 63.5067L212.113 61.5339Z" fill="#6F4439"/>
<path d="M202.419 44.8274C202.594 45.3518 203.169 45.6515 203.743 45.5016C204.293 45.3518 204.618 44.8024 204.468 44.253C204.318 43.7286 203.718 43.404 203.169 43.5788C202.594 43.7286 202.269 44.278 202.419 44.8274Z" fill="#263238"/>
<path d="M200.247 41.3562C200.397 41.4311 200.972 40.632 202.071 40.2574C203.145 39.8828 204.12 40.1825 204.194 40.0077C204.219 39.9328 204.02 39.733 203.595 39.6081C203.17 39.4583 202.521 39.4083 201.846 39.6331C201.172 39.8828 200.672 40.3073 200.447 40.657C200.198 41.0315 200.148 41.3062 200.247 41.3562Z" fill="#263238"/>
<path d="M211.488 41.8806C211.662 42.43 212.237 42.7297 212.812 42.5798C213.361 42.43 213.686 41.8806 213.536 41.3312C213.386 40.8068 212.787 40.4822 212.237 40.632C211.662 40.7818 211.338 41.3562 211.488 41.8806Z" fill="#263238"/>
<path d="M210.914 38.0848C211.089 38.1847 211.664 37.3606 212.738 37.011C213.812 36.6364 214.786 36.9361 214.861 36.7613C214.911 36.6863 214.711 36.4866 214.262 36.3367C213.837 36.2119 213.187 36.1619 212.513 36.3867C211.838 36.6114 211.364 37.0359 211.114 37.4105C210.864 37.7851 210.839 38.0598 210.914 38.0848Z" fill="#263238"/>
<path d="M209.79 47.6741C209.765 47.5992 209.066 47.7241 207.941 47.9488C207.642 47.9988 207.367 48.0238 207.267 47.8489C207.117 47.6741 207.142 47.3495 207.167 46.9749C207.2 46.2257 207.242 45.435 207.292 44.6025C207.442 41.2313 207.442 38.5093 207.292 38.5093C207.167 38.5093 206.942 41.2313 206.792 44.6025C206.776 45.4183 206.751 46.2091 206.717 46.9749C206.717 47.3245 206.642 47.7241 206.942 48.0987C207.067 48.2735 207.317 48.3484 207.517 48.3484C207.717 48.3484 207.866 48.2984 208.016 48.2485C209.115 47.9488 209.815 47.7241 209.79 47.6741Z" fill="#263238"/>
<path d="M209.439 34.8135C209.689 35.0382 210.638 34.4139 211.912 33.9644C213.161 33.4899 214.31 33.3651 214.335 33.0404C214.335 32.8656 214.061 32.6908 213.536 32.6159C213.011 32.541 212.262 32.5909 211.512 32.8656C210.738 33.1653 210.139 33.5898 209.789 33.9894C209.439 34.3889 209.339 34.7136 209.439 34.8135Z" fill="#263238"/>
<path d="M199.122 38.1847C199.447 38.3595 200.247 37.8351 201.296 37.4855C202.345 37.1109 203.319 37.036 203.444 36.7113C203.494 36.5615 203.269 36.3367 202.82 36.2368C202.345 36.137 201.646 36.137 200.921 36.3867C200.197 36.6364 199.622 37.0609 199.347 37.4355C199.047 37.8101 198.998 38.0848 199.122 38.1847Z" fill="#263238"/>
<path d="M223.729 38.2596C223.828 38.1846 228.075 35.2379 229.524 40.0825C230.973 44.9521 225.777 45.4016 225.727 45.2518C225.677 45.127 223.729 38.2596 223.729 38.2596Z" fill="#AE7461"/>
<path d="M226.676 42.9793C226.701 42.9544 226.776 43.0043 226.95 43.0293C227.1 43.0543 227.35 43.0293 227.575 42.8545C228.025 42.5298 228.224 41.5809 228 40.7069C227.875 40.2574 227.65 39.8578 227.4 39.5581C227.15 39.2335 226.826 39.0587 226.576 39.0837C226.301 39.1086 226.151 39.3084 226.126 39.4832C226.101 39.633 226.176 39.708 226.151 39.7329C226.126 39.7579 226.026 39.683 226.001 39.4582C225.976 39.3584 226.001 39.2335 226.101 39.1086C226.176 38.9838 226.351 38.8839 226.526 38.8339C226.901 38.759 227.35 39.0087 227.625 39.3334C227.95 39.658 228.2 40.1075 228.324 40.607C228.599 41.5809 228.349 42.6547 227.725 43.0543C227.4 43.254 227.075 43.2291 226.901 43.1791C226.726 43.1042 226.651 42.9793 226.676 42.9793Z" fill="#6F4439"/>
<path d="M213.412 47.3746C213.237 47.3995 213.562 48.5233 212.838 49.5971C212.088 50.6459 210.864 50.8707 210.889 51.0205C210.914 51.0954 211.214 51.1704 211.738 51.0455C212.238 50.9206 212.912 50.546 213.362 49.8968C213.812 49.2475 213.887 48.5233 213.787 48.0488C213.687 47.5743 213.487 47.3496 213.412 47.3746Z" fill="#263238"/>
<path d="M186.057 35.1381C186.032 34.8384 186.182 34.5388 186.382 34.314C186.832 33.8146 187.506 33.6647 188.106 33.465C189.655 32.9905 191.054 32.1414 192.228 31.0426C191.678 30.9427 191.129 30.7679 190.654 30.4932C189.63 29.9438 188.805 28.895 188.855 27.7463C188.88 27.5215 188.93 27.2718 189.105 27.1469C189.38 26.9721 189.755 27.1969 190.054 27.3717C191.029 27.971 191.778 28.1209 192.827 27.6714C193.477 27.4216 194.101 27.072 194.526 26.5976C194.526 26.5643 194.534 26.531 194.551 26.4977C194.734 26.1647 194.909 25.8401 195.076 25.5237C196.375 23.1763 197.549 21.4532 198.973 20.3045C201.071 18.6563 204.918 17.0831 207.591 16.9832C210.239 16.9083 213.062 18.2568 214.161 20.6791C215.21 19.0809 217.284 18.4815 219.182 18.6563L219.207 18.6314C221.305 18.7313 222.954 20.4044 224.078 22.1525C224.145 22.2524 224.203 22.3522 224.253 22.4521C225.202 23.2513 226.327 23.8756 227.526 24.1503C227.751 24.2002 228 24.2751 228.075 24.4749C228.15 24.6747 228.025 24.8994 227.9 25.0742C227.551 25.5237 227.076 25.8983 226.576 26.173C226.876 26.5726 227.201 26.9472 227.601 27.2968C227.9 27.5964 228.3 27.9461 228.225 28.3706C228.15 28.7202 227.825 28.945 227.501 28.9949C227.151 29.0448 226.826 28.945 226.501 28.8451C226.868 29.2946 227.226 29.7357 227.576 30.1686C226.926 30.4932 226.202 30.6431 225.502 30.6431C225.627 32.5659 226.327 35.9622 226.227 37.3107C224.928 37.7352 224.578 37.6853 224.003 38.0848C223.229 38.6093 224.003 40.0077 222.779 39.9078C222.155 39.8579 220.681 38.0099 220.331 37.4855C217.958 34.0893 216.334 30.1936 215.61 26.1231C214.586 25.5237 213.436 25.1242 212.262 24.9494L212.387 24.9993C210.189 24.8994 207.741 24.8994 206.142 26.3978C204.893 27.5465 204.493 29.3195 203.744 30.8678C202.37 33.7646 200.396 35.6875 197.349 36.7613C197.699 38.9838 198.673 42.505 199.147 44.5277L196.25 41.0566C196.05 40.8568 195.875 40.657 195.675 40.4572L195.625 40.4073V40.3823C195.325 40.0577 195.051 39.733 194.726 39.4334C194.709 39.4334 194.701 39.4334 194.701 39.4334C193.901 40.7319 191.878 39.733 192.378 38.3096C192.478 38.0266 192.619 37.7685 192.802 37.5354C192.453 38.1348 191.778 38.5843 191.054 38.5843C190.354 38.5843 189.655 38.0599 189.505 37.3856C189.405 36.9111 189.63 36.3867 189.979 36.0871C189.13 36.4117 188.181 36.4866 187.281 36.2868C186.707 36.137 186.057 35.8124 186.057 35.1381Z" fill="#263238"/>
<path d="M212.162 22.1525C212.162 22.1774 212.537 22.2524 213.086 22.602C213.636 22.9266 214.335 23.6009 214.885 24.6247C215.16 25.1491 215.41 25.7235 215.609 26.3728C215.784 27.0471 215.959 27.7463 216.134 28.4954C216.284 29.2696 216.484 30.0437 216.759 30.8429C216.908 31.2424 217.083 31.642 217.283 32.0415C217.508 32.4161 217.733 32.8157 218.158 33.0654C218.482 33.2901 218.932 33.2901 219.257 33.1153C219.581 32.9405 219.856 32.6658 220.006 32.3412C220.306 31.6669 220.206 30.9427 220.156 30.3184L220.006 30.3934C220.406 30.8429 220.805 31.2924 221.305 31.617C221.805 31.9416 222.404 32.0665 222.929 31.9666C223.179 31.8917 223.429 31.7918 223.628 31.617C223.803 31.4422 223.903 31.1925 223.978 30.9677C224.003 30.743 224.003 30.4932 223.928 30.2935C223.853 30.0937 223.703 29.9189 223.528 29.819L223.478 29.8939C224.228 30.3684 224.902 30.5182 225.352 30.5931C225.577 30.6181 225.752 30.6181 225.877 30.6431C225.993 30.6431 226.051 30.6347 226.051 30.6181C226.051 30.6181 225.993 30.6098 225.877 30.5931C225.752 30.5931 225.577 30.5682 225.352 30.5432C224.902 30.4433 224.253 30.2685 223.528 29.819L223.478 29.8939C223.803 30.0937 223.953 30.5182 223.853 30.9427C223.803 31.1425 223.703 31.3673 223.528 31.5171C223.354 31.6669 223.129 31.7668 222.904 31.8168C222.404 31.9167 221.855 31.7918 221.405 31.4921C220.93 31.1925 220.531 30.743 220.131 30.2685L219.956 30.0687L219.981 30.3434C220.056 30.9677 220.131 31.6669 219.856 32.2663C219.706 32.541 219.482 32.8157 219.182 32.9655C218.882 33.1153 218.532 33.1153 218.232 32.9156C217.883 32.7158 217.658 32.3162 217.433 31.9416C217.233 31.5754 217.067 31.1925 216.933 30.7929C216.634 30.0188 216.459 29.2196 216.284 28.4705C216.109 27.7213 215.934 26.9971 215.734 26.3478C215.535 25.6736 215.26 25.0742 214.985 24.5748C214.41 23.5259 213.686 22.8767 213.111 22.552C212.537 22.2024 212.162 22.1525 212.162 22.1525Z" fill="#455A64"/>
<path d="M192.252 35.6376C192.252 35.6376 192.277 35.6459 192.327 35.6625C192.377 35.6792 192.452 35.7042 192.552 35.7375C192.635 35.7707 192.752 35.804 192.901 35.8373C193.051 35.8873 193.201 35.9123 193.401 35.9372C194.151 36.0621 195.3 36.0621 196.599 35.5876C197.898 35.1131 199.322 34.1892 200.421 32.7158C201.545 31.2674 202.344 29.3945 202.844 27.3717C203.094 26.3478 203.244 25.3489 203.468 24.4C203.693 23.451 203.968 22.5271 204.418 21.7529C204.842 20.9788 205.417 20.3295 206.091 19.905C206.416 19.6802 206.791 19.5554 207.141 19.4555C207.49 19.3805 207.84 19.3556 208.19 19.3556C208.864 19.3805 209.464 19.5803 209.938 19.8051C210.413 20.0548 210.788 20.3295 211.038 20.6042C211.562 21.1536 211.712 21.5781 211.737 21.5531C211.737 21.5531 211.729 21.5282 211.712 21.4782C211.679 21.4283 211.645 21.3617 211.612 21.2784C211.512 21.1036 211.337 20.8539 211.088 20.5542C210.838 20.2795 210.463 19.9799 209.988 19.7302C209.489 19.4804 208.889 19.2557 208.19 19.2307C207.84 19.2307 207.465 19.2557 207.116 19.3306C206.741 19.4305 206.366 19.5554 206.016 19.7801C205.317 20.2046 204.717 20.8789 204.268 21.678C203.818 22.4771 203.543 23.4011 203.318 24.35C203.094 25.324 202.919 26.3229 202.669 27.3218C202.169 29.3445 201.395 31.1925 200.296 32.6159C199.222 34.0643 197.823 34.9883 196.574 35.4628C195.3 35.9372 194.151 35.9622 193.401 35.8623C192.652 35.7874 192.252 35.6126 192.252 35.6376Z" fill="#455A64"/>
<path d="M190.68 32.6908C190.68 32.7158 190.78 32.7407 190.979 32.8157C191.179 32.8656 191.479 32.9155 191.854 32.9655C192.229 33.0154 192.678 33.0154 193.153 32.9905C193.652 32.9655 194.202 32.8906 194.752 32.7407C195.301 32.5909 195.826 32.3911 196.25 32.1913C196.7 31.9666 197.075 31.7169 197.375 31.4921C197.674 31.2923 197.924 31.0926 198.049 30.9427C198.199 30.7929 198.299 30.693 198.274 30.693C198.249 30.668 197.924 30.9927 197.325 31.3922C197 31.617 196.625 31.8168 196.2 32.0415C195.751 32.2413 195.251 32.4411 194.702 32.5659C194.177 32.7158 193.627 32.7907 193.153 32.8406C192.678 32.8656 192.229 32.8656 191.854 32.8406C191.129 32.7907 190.68 32.6658 190.68 32.6908Z" fill="#455A64"/>
<path d="M193.327 77.6161C193.327 77.6161 192.602 75.5684 195.05 72.8214C197.499 70.0744 212.937 64.2559 212.937 64.2559C212.937 64.2559 218.657 69.8497 225.127 66.3286C230.174 63.5816 229.774 59.2864 229.774 59.2864L249.384 62.5578L250.058 77.3664L243.039 77.4163L193.327 77.6161Z" fill="#D90452"/>
<path d="M227.449 102.763L251.631 95.1718L243.737 76.043L259 76.3426C259 76.3426 269.992 97.8189 265.845 104.062C262.048 109.781 230.822 110.929 230.822 110.929L227.449 102.763Z" fill="#AE7461"/>
<path d="M234.296 115.2L234.196 116.523C234.096 117.672 232.672 118.471 231.348 118.171L206.592 115.649L207.041 111.729L232.047 112.603C233.721 112.578 234.396 113.701 234.296 115.2Z" fill="#455A64"/>
<path fill-rule="evenodd" clip-rule="evenodd" d="M197.374 126.437C194.501 127.561 191.278 127.836 188.081 127.012C184.134 126.013 180.811 123.54 178.738 120.069C176.664 116.573 176.065 112.478 177.064 108.532C179.113 100.416 187.406 95.4715 195.55 97.5192C199.497 98.5181 202.794 100.99 204.893 104.486C206.966 107.983 207.566 112.053 206.567 115.999C205.317 120.943 201.77 124.689 197.374 126.437ZM186.632 99.0675C182.51 100.666 179.212 104.187 178.038 108.782C177.114 112.478 177.664 116.273 179.612 119.545C181.561 122.791 184.658 125.114 188.33 126.038C192.003 126.962 195.825 126.412 199.097 124.464C202.345 122.517 204.643 119.42 205.592 115.749C206.517 112.078 205.942 108.257 204.018 105.011C202.07 101.74 198.972 99.4421 195.3 98.5181C192.302 97.7439 189.305 98.0186 186.632 99.0675Z" fill="#263238"/>
<path fill-rule="evenodd" clip-rule="evenodd" d="M197.273 125.538C194.425 126.662 191.203 126.937 188.005 126.113C184.058 125.114 180.736 122.641 178.662 119.145C176.564 115.674 175.964 111.579 176.964 107.633C179.037 99.4921 187.331 94.5475 195.45 96.6202C199.397 97.6191 202.719 100.091 204.792 103.563C206.891 107.059 207.465 111.154 206.491 115.1C205.242 120.019 201.695 123.79 197.273 125.538ZM186.556 98.1435C182.434 99.7668 179.137 103.288 177.963 107.883C177.039 111.554 177.588 115.374 179.537 118.646C181.46 121.892 184.558 124.19 188.255 125.139C191.927 126.063 195.749 125.488 198.997 123.565C202.244 121.618 204.568 118.521 205.492 114.85C206.416 111.179 205.867 107.358 203.918 104.087C201.97 100.841 198.897 98.5431 195.2 97.5942C192.227 96.845 189.204 97.0947 186.556 98.1435Z" fill="#455A64"/>
<path d="M199.872 101.69C199.872 101.69 199.805 101.64 199.672 101.54C199.547 101.44 199.372 101.265 199.097 101.115C198.598 100.741 197.823 100.291 196.774 99.8667C196.274 99.6669 195.7 99.4921 195.05 99.3423C194.426 99.1924 193.751 99.0676 193.002 99.0176C192.277 98.9427 191.503 98.9177 190.729 98.9927C189.929 99.0426 189.105 99.1675 188.28 99.3672C187.456 99.567 186.682 99.8667 185.982 100.216C185.258 100.566 184.608 100.965 184.009 101.39C182.835 102.264 181.935 103.238 181.286 104.137C180.636 105.036 180.212 105.835 179.962 106.409C179.837 106.684 179.762 106.909 179.687 107.059C179.62 107.209 179.587 107.283 179.587 107.283C179.57 107.283 179.595 107.2 179.662 107.034C179.712 106.884 179.787 106.659 179.912 106.384C180.137 105.785 180.536 104.986 181.186 104.062C181.835 103.163 182.735 102.164 183.934 101.265C184.533 100.841 185.183 100.416 185.907 100.066C186.632 99.7169 187.406 99.4172 188.255 99.2174C189.08 98.9927 189.904 98.8928 190.704 98.8179C191.503 98.7679 192.277 98.7929 193.027 98.8678C193.751 98.9177 194.451 99.0676 195.1 99.1924C195.725 99.3672 196.324 99.567 196.824 99.7668C197.873 100.191 198.647 100.666 199.122 101.065C199.397 101.24 199.572 101.415 199.697 101.515C199.813 101.615 199.872 101.673 199.872 101.69Z" fill="white"/>
<path d="M199.471 121.817C199.446 121.767 200.096 121.393 200.945 120.594C201.062 120.494 201.178 120.386 201.295 120.269C201.395 120.169 201.52 120.019 201.62 119.894C201.87 119.645 202.094 119.345 202.319 119.045C202.794 118.396 203.219 117.672 203.593 116.848C203.968 116.024 204.218 115.2 204.368 114.45C204.443 114.051 204.518 113.701 204.543 113.352C204.568 113.177 204.592 113.002 204.592 112.852C204.609 112.686 204.617 112.528 204.617 112.378C204.642 111.204 204.493 110.48 204.518 110.48C204.543 110.48 204.567 110.655 204.617 110.979C204.667 111.154 204.692 111.354 204.692 111.579C204.717 111.828 204.742 112.078 204.717 112.378C204.717 112.528 204.717 112.686 204.717 112.852C204.717 113.027 204.692 113.177 204.692 113.352C204.667 113.701 204.592 114.076 204.518 114.475C204.368 115.25 204.118 116.074 203.743 116.923C203.368 117.747 202.919 118.496 202.444 119.12C202.194 119.445 201.969 119.745 201.72 119.994C201.595 120.119 201.495 120.244 201.37 120.369C201.253 120.469 201.145 120.569 201.045 120.669C200.82 120.893 200.596 121.043 200.421 121.193C200.221 121.343 200.071 121.468 199.921 121.543C199.646 121.717 199.471 121.817 199.471 121.817Z" fill="white"/>
<path d="M198.522 107.533C198.522 107.583 195.724 107.883 192.276 108.183C188.829 108.482 186.031 108.707 186.031 108.657C186.031 108.607 188.804 108.332 192.251 108.033C195.699 107.708 198.497 107.508 198.522 107.533Z" fill="white"/>
<path d="M200.121 111.878C200.121 111.878 200.055 111.887 199.921 111.903C199.771 111.903 199.58 111.912 199.347 111.928C198.822 111.953 198.123 112.003 197.223 112.028C195.45 112.128 192.977 112.253 190.254 112.428C187.506 112.603 185.058 112.777 183.259 112.902C182.385 112.977 181.66 113.027 181.136 113.077C180.903 113.094 180.711 113.102 180.561 113.102C180.428 113.119 180.361 113.119 180.361 113.102C180.361 113.102 180.428 113.094 180.561 113.077C180.711 113.06 180.903 113.035 181.136 113.002C181.635 112.952 182.36 112.877 183.259 112.802C185.033 112.628 187.506 112.428 190.229 112.253C192.952 112.078 195.425 111.978 197.223 111.928C198.123 111.878 198.847 111.878 199.347 111.853C199.58 111.853 199.771 111.853 199.921 111.853C200.055 111.853 200.121 111.862 200.121 111.878Z" fill="white"/>
<g opacity="0.3">
<path d="M177.837 109.756L205.366 108.058C205.366 108.058 206.066 110.555 205.916 112.203L177.737 113.926C177.737 113.926 177.338 111.803 177.837 109.756Z" fill="white"/>
</g>
<g opacity="0.3">
<path d="M178.562 116.648L205.492 114.85C205.492 114.85 205.667 114.775 205.117 115.949L179.012 117.672C179.012 117.672 178.687 117.297 178.562 116.648Z" fill="white"/>
</g>
<path d="M227.449 102.763C227.449 102.763 213.585 106.784 213.185 107.009C212.786 107.233 207.315 111.129 207.215 112.528C207.115 113.951 208.964 120.219 208.964 120.219C208.964 120.219 210.837 120.494 210.962 117.148C211.112 113.776 211.112 113.776 211.112 113.776L213.41 111.729C213.41 111.729 212.561 115.599 212.786 116.698C212.985 117.797 214.809 120.569 215.833 120.344C216.857 120.144 217.407 119.445 217.407 119.445C217.407 119.445 218.306 121.917 220.904 120.469C220.904 120.469 222.628 121.168 223.952 120.494C225.301 119.82 226.525 117.647 226.525 117.647C226.525 117.647 226.625 116.323 225.201 116.373C223.802 116.423 222.528 117.422 222.528 117.422L222.403 116.024C222.403 116.024 224.077 113.976 225.826 112.927C226.925 112.278 231.446 112.153 232.87 110.73C234.069 109.506 231.796 106.834 230.297 106.01C230.081 105.893 229.848 105.81 229.598 105.76L227.449 102.763Z" fill="#AE7461"/>
<path d="M219.58 113.951C219.58 113.951 219.505 114.026 219.43 114.201C219.33 114.376 219.23 114.6 219.13 114.925C218.93 115.574 218.805 116.523 219.03 117.522C219.255 118.521 219.754 119.32 220.204 119.82C220.429 120.069 220.629 120.244 220.779 120.369C220.929 120.469 221.004 120.519 221.029 120.519C221.029 120.494 220.704 120.269 220.279 119.745C219.854 119.245 219.38 118.471 219.155 117.497C218.955 116.498 219.055 115.599 219.23 114.95C219.405 114.326 219.605 113.976 219.58 113.951Z" fill="#6F4439"/>
<path d="M216.958 111.978C216.958 111.953 216.908 112.053 216.808 112.228C216.758 112.311 216.708 112.419 216.658 112.553C216.608 112.702 216.533 112.827 216.483 113.002C216.358 113.352 216.233 113.751 216.159 114.226C216.084 114.7 216.059 115.2 216.084 115.749C216.109 116.298 216.184 116.823 216.308 117.272C216.433 117.722 216.558 118.121 216.733 118.446C216.783 118.621 216.883 118.771 216.933 118.896C217 119.012 217.066 119.112 217.133 119.195C217.233 119.37 217.308 119.445 217.308 119.445C217.333 119.42 217.083 119.07 216.808 118.421C216.683 118.097 216.533 117.697 216.433 117.247C216.333 116.798 216.233 116.274 216.208 115.749C216.208 115.225 216.184 114.6 216.233 114.151C216.308 113.676 216.458 113.377 216.558 113.052C216.783 112.378 216.983 111.978 216.958 111.978Z" fill="#6F4439"/>
<path d="M214.209 109.356C214.184 109.356 214.059 109.431 213.884 109.656C213.734 109.856 213.559 110.18 213.459 110.555C213.359 111.104 213.434 111.354 213.484 111.579C213.559 111.828 213.634 111.978 213.659 111.953C213.684 111.953 213.434 111.354 213.609 110.605C213.759 109.831 214.234 109.381 214.209 109.356Z" fill="#6F4439"/>
<path d="M259.925 98.9426C259.875 98.9426 259.626 98.3932 259.026 97.6191C258.427 96.8449 257.402 95.9209 256.003 95.3466C254.629 94.7722 253.23 94.8721 252.281 95.0719C251.307 95.2717 250.757 95.5214 250.732 95.4714C250.732 95.4465 250.857 95.3716 251.107 95.2717C251.382 95.1468 251.757 95.0219 252.231 94.8971C253.206 94.6474 254.654 94.5225 256.103 95.1218C257.552 95.6962 258.576 96.6951 259.176 97.4942C259.451 97.9187 259.651 98.2684 259.775 98.5181C259.875 98.7678 259.925 98.9176 259.925 98.9426Z" fill="#6F4439"/>
<path d="M240.315 71.0734C240.065 62.9824 250.607 59.3863 255.328 65.9541C255.345 65.9874 255.37 66.029 255.403 66.0789C259.85 72.397 265.246 87.3804 265.246 87.3804L246.185 90.3521L241.414 77.3415C240.79 75.2438 240.365 73.0962 240.315 71.0734Z" fill="#D90452"/>
<path d="M180.91 76.7421C180.944 76.8087 180.969 76.8753 180.985 76.9419C181.11 77.2666 181.16 77.5912 181.185 77.9408C181.21 78.0907 181.185 78.2655 181.21 78.4153C181.235 78.5152 181.31 78.5901 181.335 78.69C181.585 79.3143 181.535 80.0385 181.51 80.6628C181.485 81.387 181.51 82.1611 181.885 82.7855C182.259 83.4098 183.159 83.7843 183.758 83.3598C183.658 83.8093 184.008 84.2838 184.458 84.4087C184.907 84.5085 185.407 84.3337 185.732 84.0091C186.056 83.6845 186.256 83.235 186.356 82.7855C186.331 83.3348 186.856 83.8093 187.405 83.8093C187.955 83.8093 188.455 83.4597 188.729 82.9852C189.029 82.5357 189.129 81.9863 189.204 81.4369C189.254 80.9125 189.379 79.8887 189.529 79.3642C189.529 79.3642 190.203 79.4891 190.528 79.5141H190.603C190.603 79.5141 191.003 78.8898 191.277 78.3903C191.702 77.4913 192.027 76.9169 192.377 76.1178C192.626 75.4935 192.776 74.8942 192.402 74.4946C191.502 73.5457 189.729 75.4685 189.729 75.4685C189.479 74.7943 187.405 74.6944 187.006 75.5934C186.856 75.094 186.906 74.8193 186.506 74.4697C186.106 74.145 185.557 73.9702 185.057 74.12C184.533 74.2449 184.133 74.7443 184.158 75.2438C183.733 74.5695 182.859 74.195 182.084 74.3947C181.61 74.4946 181.185 74.7943 180.91 75.1939C180.777 75.3936 180.677 75.6101 180.611 75.8431C180.586 75.918 180.561 76.0179 180.561 76.1178C180.577 76.1511 180.594 76.1844 180.611 76.2177C180.71 76.3925 180.81 76.5424 180.91 76.7421Z" fill="#AE7461"/>
<path d="M178.737 75.4186C178.288 75.3936 177.788 75.4935 177.488 75.8181C177.139 76.2177 177.064 77.0168 177.114 77.5412C177.738 77.6661 178.038 77.6911 178.662 77.7909C178.812 77.8159 178.912 77.7909 179.012 77.8659C179.312 78.0656 179.262 78.7649 179.387 79.0895C179.587 79.6639 180.311 79.9386 180.886 79.7388C181.46 79.514 181.835 78.9147 181.86 78.3154C181.885 77.6911 181.61 77.0917 181.235 76.6422C180.611 75.893 179.687 75.4435 178.737 75.4186Z" fill="#AE7461"/>
<path d="M184.157 75.069C184.282 75.069 184.282 76.9419 184.157 79.2394C184.058 81.5118 183.858 83.3598 183.758 83.3598C183.633 83.3598 183.633 81.4869 183.758 79.2144C183.858 76.9169 184.058 75.069 184.157 75.069Z" fill="#6F4439"/>
<path d="M187.031 75.4685C187.131 75.4685 187.281 77.1666 187.106 79.2393C186.931 81.312 186.481 82.9602 186.381 82.9353C186.256 82.9103 186.506 81.2621 186.681 79.2144C186.856 77.1417 186.906 75.4685 187.031 75.4685Z" fill="#6F4439"/>
<path d="M189.829 75.8431C189.929 75.8431 189.979 77.2666 189.779 78.9647C189.554 80.6628 189.279 82.0363 189.179 82.0113C189.054 82.0113 189.129 80.6129 189.354 78.9147C189.579 77.2166 189.704 75.8431 189.829 75.8431Z" fill="#6F4439"/>
<path d="M179.636 75.7183C179.611 75.6684 179.911 75.5934 180.361 75.7932C180.785 75.968 181.26 76.4675 181.485 77.1167C181.735 77.791 181.81 78.3654 181.785 78.8398C181.735 79.3393 181.36 79.4891 181.335 79.4392C181.31 79.3892 181.51 79.2144 181.485 78.8149C181.435 78.4653 181.31 77.841 181.11 77.2666C180.885 76.6922 180.536 76.2677 180.211 76.0429C179.886 75.8182 179.611 75.7682 179.636 75.7183Z" fill="#6F4439"/>
<path d="M249.559 63.1072C249.584 63.1571 248.734 63.3319 247.51 63.9812C246.311 64.5805 244.737 65.7543 243.613 67.5023C242.464 69.2504 242.04 71.1483 241.965 72.4968C241.89 73.8703 242.064 74.7193 242.015 74.7193C241.99 74.7193 241.94 74.5196 241.89 74.12C241.815 73.7454 241.765 73.196 241.79 72.4968C241.815 71.0983 242.214 69.1505 243.388 67.3525C244.563 65.5545 246.186 64.3808 247.435 63.8064C248.06 63.5067 248.609 63.3319 248.984 63.232C249.359 63.1322 249.559 63.1072 249.559 63.1072Z" fill="#263238"/>
<path fill-rule="evenodd" clip-rule="evenodd" d="M382.691 171.88C381.763 172.179 381.551 173.099 381.29 173.987C379.947 178.511 377.557 182.459 374.178 185.827C373.611 186.39 373.022 186.967 372.395 187.476C371.668 188.073 370.616 188.002 370.048 187.326C369.454 186.606 369.478 185.825 370.118 185.131C370.672 184.545 371.3 184.035 371.876 183.437C374.905 180.389 377.063 176.812 378.196 172.645C378.77 170.601 379.98 169.194 382.033 168.629C383.009 168.361 383.934 168.83 384.187 169.629C384.468 170.529 384.08 171.196 383.264 171.637C383.118 171.692 382.949 171.76 382.691 171.88ZM360.54 179.769C359.781 180.207 359.058 180.654 358.287 181.07C357.178 181.621 356.419 181.44 355.908 180.554C355.396 179.669 355.606 178.898 356.606 178.262C357.718 177.561 358.881 176.948 359.984 176.282C363.826 173.975 365.882 170.633 365.972 166.154C366.012 164.419 366.511 163.688 367.618 163.698C368.724 163.709 369.325 164.543 369.292 166.186C369.183 171.561 366.864 175.734 362.369 178.713C361.779 179.083 361.164 179.408 360.54 179.769ZM385.072 150.197C385.557 151.039 386.065 151.867 386.507 152.734C386.999 153.69 386.77 154.53 386.002 155.003C385.168 155.514 384.29 155.283 383.648 154.325C383.182 153.62 382.747 152.868 382.335 152.102C380.958 149.562 379.252 147.329 376.754 145.732C376.084 145.292 375.573 144.613 375.897 143.835C376.11 143.329 376.712 142.774 377.235 142.65C377.722 142.516 378.386 142.841 378.852 143.133C380.932 144.47 382.609 146.188 383.925 148.262C384.34 148.878 384.679 149.568 385.072 150.197ZM376.688 152.057C376.3 152.723 375.509 152.796 374.81 152.462C374.421 152.303 374.083 152.026 373.722 151.762C371.45 150.092 368.946 149.619 366.215 150.399C366.011 150.458 365.797 150.552 365.593 150.611C364.672 150.818 363.986 150.505 363.625 149.622C363.267 148.796 363.6 147.983 364.553 147.521C365.047 147.295 365.592 147.158 366.115 147.033C369.854 146.143 373.168 147.093 376.124 149.431C376.293 149.569 376.44 149.721 376.587 149.872C376.66 149.948 376.711 150.036 376.797 150.134C377.143 150.938 377.016 151.543 376.688 152.057ZM352.526 166.095C351.417 163.813 350.754 161.274 350.693 158.593C350.686 157.653 350.94 156.857 351.937 156.576C352.9 156.286 353.927 156.933 353.967 158.031C354.095 160.673 354.742 163.133 355.947 165.478C356.426 166.411 356.118 167.268 355.324 167.697C354.544 168.148 353.689 167.903 353.076 167.047C352.9 166.794 352.756 166.494 352.526 166.095ZM365.682 184.297C365.169 184.594 364.669 184.912 364.13 185.164C363.279 185.596 362.555 185.424 362.025 184.608C361.495 183.793 361.634 183.004 362.52 182.374C363.616 181.594 364.798 180.912 365.881 180.109C372.475 175.151 374.571 165.233 370.535 158.088C370.331 157.734 369.426 156.013 368.065 156.799C367.062 157.378 367.376 158.85 367.437 159.11C367.674 160.242 367.27 161.036 366.34 161.278C365.422 161.543 364.589 161.079 364.205 160.002C363.507 158.073 363.808 156.275 365.206 154.73C366.496 153.307 368.577 152.843 370.437 153.54C371.802 154.051 372.779 155.022 373.45 156.287C378.797 166.011 375.285 178.576 365.682 184.297ZM349.525 133.854C354.456 130.033 360.342 127.608 366.556 127.09C366.839 127.065 367.118 127.051 367.395 127.049C367.991 127 368.591 127.008 369.184 127.108C370.023 127.273 370.482 127.864 370.452 128.738C370.395 129.567 369.956 130.146 369.066 130.305C368.655 130.365 368.206 130.359 367.769 130.375C358.091 131.023 350.576 135.382 345.222 143.451C345.063 143.691 344.926 143.917 344.754 144.135C344.06 145.096 343.267 145.318 342.421 144.833C341.623 144.378 341.351 143.443 341.927 142.432C343.435 139.79 345.304 137.412 347.62 135.396C348.227 134.869 348.862 134.354 349.525 133.854ZM356.624 174.532C355.776 175.022 354.942 175.533 354.069 175.978C353.039 176.513 352.105 176.286 351.635 175.524C351.124 174.638 351.429 173.724 352.487 173.084C353.857 172.263 355.256 171.544 356.591 170.714C359.493 168.891 360.109 166.558 358.6 163.533C356.913 160.197 356.778 156.822 358.346 153.408C358.591 152.853 359.052 152.262 359.578 151.988C360.626 151.383 361.839 152.247 361.758 153.445C361.736 153.871 361.529 154.285 361.367 154.674C360.292 157.036 360.355 159.361 361.41 161.704C363.952 167.291 362.758 170.991 357.472 174.043C357.189 174.206 356.907 174.369 356.624 174.532ZM346.832 169.265C343.236 161.748 343.188 154.248 347.034 146.744C347.199 146.413 347.409 146.055 347.683 145.809C348.218 145.293 348.85 145.047 349.587 145.448C350.336 145.871 350.627 146.529 350.386 147.348C350.281 147.733 350.081 148.055 349.915 148.387C346.655 155.051 346.561 161.687 350 168.262C350.192 168.594 350.361 168.939 350.416 169.291C350.599 170.071 350.277 170.699 349.547 171.032C348.853 171.374 348.154 171.246 347.659 170.646C347.324 170.22 347.1 169.729 346.832 169.265ZM359.879 142.723C362.756 141.061 366.094 139.991 369.601 140.091C369.816 140.085 370.032 140.098 370.249 140.13C371.524 140.279 372.217 140.913 372.189 141.844C372.159 142.924 371.423 143.555 370.036 143.471C367.574 143.327 365.199 143.695 362.917 144.688C360.266 145.864 358.119 147.606 356.54 150.023C356.34 150.345 356.152 150.69 355.939 150.99C355.273 151.846 354.422 152.072 353.672 151.649C352.827 151.163 352.507 150.197 353.169 149.283C354.452 147.539 356.868 144.461 359.879 142.723ZM380.975 156.134C382.085 158.416 382.748 160.955 382.773 163.627C382.816 164.576 382.562 165.372 381.564 165.653C380.579 165.956 379.574 165.297 379.534 164.198C379.407 161.556 378.76 159.096 377.555 156.751C377.075 155.818 377.384 154.961 378.177 154.532C378.958 154.082 379.812 154.326 380.426 155.182C380.601 155.435 380.745 155.736 380.975 156.134ZM391.325 147.945C396.527 156.955 396.704 168.542 394.114 178.479C393.851 179.516 393.253 180.954 392.709 181.917C392.251 182.772 391.419 183.341 390.523 182.973C389.448 182.501 389.523 181.395 389.802 180.437C389.859 180.227 390.031 180.01 390.123 179.809C393.798 170.514 393.106 157.366 388.042 148.748C387.246 147.525 386.46 146.267 385.576 145.095C378.406 135.509 363.826 134.157 354.86 142.167C354.694 142.292 354.567 142.484 354.401 142.609C353.509 143.331 352.403 143.32 351.774 142.591C351.266 141.969 351.348 140.978 352.102 140.276C352.966 139.453 353.864 138.639 354.851 137.981C367.716 129.254 383.764 134.128 390.366 146.285C390.392 146.329 391.325 147.945 391.325 147.945Z" fill="#D2D9E0" fill-opacity="0.3"/>
<path fill-rule="evenodd" clip-rule="evenodd" d="M407.512 59.3041C406.752 59.5493 406.578 60.3024 406.365 61.0298C405.265 64.7348 403.308 67.9676 400.54 70.7255C400.076 71.1869 399.594 71.6589 399.08 72.0764C398.485 72.5648 397.623 72.5064 397.158 71.9533C396.671 71.3639 396.692 70.7238 397.216 70.1553C397.669 69.6758 398.183 69.2582 398.655 68.7682C401.136 66.2726 402.902 63.343 403.83 59.9307C404.301 58.257 405.292 57.1048 406.973 56.6419C407.772 56.4224 408.529 56.8068 408.737 57.4608C408.967 58.1978 408.649 58.7439 407.981 59.1054C407.861 59.1506 407.723 59.2062 407.512 59.3041ZM389.372 65.7647C388.751 66.1232 388.158 66.4894 387.527 66.8298C386.619 67.2816 385.997 67.1329 385.578 66.4077C385.16 65.6826 385.331 65.0517 386.15 64.5303C387.061 63.9563 388.014 63.4547 388.916 62.9093C392.063 61.02 393.747 58.2834 393.821 54.615C393.853 53.1944 394.262 52.5956 395.168 52.6042C396.074 52.6129 396.566 53.2958 396.539 54.6409C396.45 59.0431 394.551 62.4602 390.869 64.8999C390.387 65.2028 389.883 65.4694 389.372 65.7647ZM409.461 41.548C409.859 42.2369 410.275 42.9153 410.636 43.6253C411.039 44.4078 410.852 45.096 410.223 45.4832C409.54 45.9021 408.821 45.7125 408.296 44.9283C407.914 44.3511 407.558 43.7347 407.22 43.1078C406.092 41.0276 404.696 39.1992 402.65 37.8908C402.101 37.5308 401.682 36.9748 401.948 36.338C402.122 35.923 402.615 35.4692 403.043 35.3671C403.443 35.2574 403.986 35.5237 404.368 35.7627C406.072 36.8578 407.444 38.265 408.522 39.9632C408.862 40.4679 409.14 41.0328 409.461 41.548ZM402.596 43.0705C402.278 43.6166 401.63 43.6762 401.058 43.4023C400.739 43.272 400.462 43.0452 400.167 42.829C398.306 41.462 396.256 41.0745 394.019 41.7134C393.852 41.7615 393.677 41.8383 393.51 41.8864C392.756 42.0561 392.194 41.8003 391.898 41.0768C391.605 40.4001 391.878 39.7346 392.658 39.3566C393.063 39.1714 393.509 39.0588 393.937 38.9566C396.999 38.2281 399.713 39.0059 402.134 40.9201C402.272 41.0335 402.392 41.1575 402.513 41.2814C402.573 41.3434 402.615 41.4159 402.685 41.496C402.968 42.1546 402.864 42.6496 402.596 43.0705ZM382.809 54.5669C381.901 52.6983 381.358 50.6188 381.308 48.4236C381.302 47.6537 381.51 47.0017 382.327 46.7717C383.115 46.5342 383.957 47.0636 383.989 47.9634C384.094 50.1269 384.624 52.1415 385.61 54.0615C386.003 54.8259 385.75 55.5276 385.101 55.8785C384.461 56.2476 383.761 56.0475 383.259 55.3464C383.115 55.1394 382.998 54.8932 382.809 54.5669ZM393.583 69.4731C393.163 69.7156 392.753 69.9763 392.312 70.1826C391.615 70.5365 391.022 70.3954 390.588 69.7276C390.154 69.0598 390.268 68.4137 390.993 67.8983C391.891 67.2593 392.859 66.7004 393.746 66.0432C399.146 61.9827 400.862 53.8611 397.557 48.0101C397.39 47.72 396.649 46.3106 395.535 46.9539C394.713 47.4284 394.97 48.6335 395.02 48.8464C395.214 49.7736 394.883 50.4239 394.121 50.6222C393.369 50.8387 392.687 50.4589 392.373 49.5769C391.802 47.9971 392.048 46.5254 393.193 45.2602C394.249 44.0945 395.954 43.7146 397.477 44.2856C398.595 44.7036 399.395 45.4987 399.944 46.535C404.323 54.4979 401.447 64.7875 393.583 69.4731ZM380.351 28.1639C384.39 25.0347 389.21 23.0493 394.299 22.6252C394.53 22.6044 394.759 22.5931 394.985 22.5913C395.474 22.5512 395.965 22.5578 396.45 22.6399C397.137 22.7751 397.514 23.2587 397.489 23.9742C397.442 24.6536 397.083 25.1272 396.354 25.2576C396.018 25.307 395.649 25.302 395.292 25.3152C387.366 25.846 381.212 29.4155 376.828 36.0236C376.698 36.2197 376.585 36.4053 376.445 36.5832C375.876 37.3706 375.226 37.5525 374.534 37.1546C373.881 36.7824 373.658 36.0167 374.129 35.1885C375.365 33.0251 376.895 31.0779 378.791 29.4271C379.289 28.995 379.809 28.5739 380.351 28.1639ZM386.165 61.4763C385.471 61.877 384.787 62.2959 384.072 62.6603C383.229 63.0986 382.464 62.912 382.08 62.288C381.661 61.5629 381.911 60.8144 382.777 60.2901C383.899 59.6181 385.044 59.0292 386.138 58.3497C388.515 56.8565 389.019 54.9458 387.783 52.4684C386.401 49.7372 386.291 46.9728 387.575 44.1769C387.775 43.7228 388.154 43.2386 388.584 43.0142C389.443 42.5186 390.436 43.2263 390.369 44.2075C390.351 44.5562 390.182 44.8957 390.049 45.2141C389.169 47.1484 389.221 49.0522 390.085 50.9706C392.166 55.546 391.188 58.5762 386.859 61.0755C386.628 61.2091 386.396 61.3427 386.165 61.4763ZM378.146 57.1624C375.201 51.0068 375.162 44.8653 378.312 38.7202C378.447 38.4486 378.619 38.156 378.843 37.9539C379.282 37.5318 379.798 37.3301 380.402 37.6584C381.016 38.0049 381.254 38.5441 381.057 39.2142C380.971 39.5296 380.807 39.7936 380.671 40.0652C378.001 45.5225 377.924 50.9573 380.741 56.3412C380.898 56.6132 381.036 56.8957 381.081 57.1841C381.231 57.8228 380.968 58.3373 380.37 58.6099C379.801 58.89 379.229 58.7851 378.824 58.294C378.549 57.9449 378.366 57.5431 378.146 57.1624ZM388.831 35.4268C391.187 34.0664 393.92 33.1896 396.792 33.2716C396.968 33.2668 397.145 33.2775 397.322 33.3039C398.367 33.426 398.934 33.9445 398.912 34.7069C398.887 35.5915 398.284 36.1086 397.148 36.0393C395.132 35.9221 393.187 36.2232 391.319 37.0361C389.147 37.9997 387.389 39.4257 386.096 41.4049C385.932 41.6688 385.778 41.951 385.604 42.1968C385.059 42.8982 384.362 43.083 383.748 42.7366C383.055 42.3387 382.793 41.5473 383.336 40.7991C384.386 39.3707 386.365 36.8504 388.831 35.4268ZM406.107 46.4097C407.015 48.2783 407.558 50.3578 407.579 52.5453C407.614 53.3229 407.406 53.9748 406.589 54.2048C405.782 54.4529 404.959 53.9129 404.927 53.0131C404.822 50.8496 404.292 48.835 403.305 46.915C402.913 46.1506 403.165 45.4489 403.815 45.098C404.454 44.7289 405.154 44.929 405.657 45.6301C405.8 45.8371 405.918 46.0833 406.107 46.4097ZM414.582 39.7034C418.842 47.0819 418.987 56.5705 416.866 64.7081C416.65 65.5578 416.161 66.7348 415.715 67.5238C415.34 68.2238 414.659 68.6895 413.925 68.3882C413.045 68.0021 413.106 67.0964 413.335 66.3116C413.382 66.1396 413.523 65.9616 413.598 65.7972C416.608 58.1859 416.041 47.4181 411.894 40.3613C411.242 39.3596 410.599 38.3292 409.874 37.3697C404.002 29.5197 392.063 28.4122 384.72 34.9719C384.585 35.0744 384.48 35.2313 384.345 35.3338C383.614 35.9247 382.708 35.916 382.193 35.3191C381.777 34.8098 381.844 33.9977 382.462 33.4232C383.169 32.7493 383.905 32.0829 384.713 31.5434C395.249 24.3973 408.39 28.3882 413.797 38.3437C413.818 38.3799 414.582 39.7034 414.582 39.7034Z" fill="#D2D9E0" fill-opacity="0.3"/>
<path fill-rule="evenodd" clip-rule="evenodd" d="M432.046 127.171C431.57 127.325 431.46 127.797 431.327 128.254C430.636 130.578 429.408 132.607 427.672 134.337C427.381 134.627 427.078 134.923 426.756 135.185C426.383 135.491 425.842 135.455 425.55 135.108C425.245 134.738 425.257 134.336 425.586 133.979C425.871 133.679 426.193 133.417 426.489 133.109C428.046 131.543 429.154 129.705 429.737 127.564C430.032 126.514 430.653 125.791 431.708 125.501C432.209 125.363 432.685 125.604 432.815 126.014C432.96 126.477 432.76 126.819 432.341 127.046C432.266 127.075 432.179 127.11 432.046 127.171ZM420.664 131.225C420.275 131.45 419.903 131.679 419.507 131.893C418.937 132.176 418.547 132.083 418.284 131.628C418.022 131.173 418.129 130.777 418.643 130.45C419.215 130.09 419.812 129.775 420.379 129.433C422.353 128.248 423.409 126.531 423.456 124.229C423.476 123.337 423.733 122.962 424.301 122.967C424.87 122.973 425.178 123.401 425.161 124.245C425.106 127.007 423.914 129.151 421.604 130.682C421.301 130.872 420.985 131.039 420.664 131.225ZM433.27 116.03C433.519 116.462 433.78 116.888 434.007 117.333C434.26 117.824 434.142 118.256 433.748 118.499C433.319 118.762 432.868 118.643 432.538 118.151C432.299 117.789 432.075 117.402 431.863 117.009C431.156 115.703 430.279 114.556 428.996 113.735C428.651 113.509 428.389 113.161 428.555 112.761C428.665 112.501 428.974 112.216 429.243 112.152C429.493 112.083 429.834 112.25 430.074 112.4C431.143 113.087 432.004 113.97 432.68 115.036C432.894 115.352 433.068 115.707 433.27 116.03ZM428.962 116.985C428.762 117.328 428.356 117.365 427.997 117.193C427.797 117.112 427.623 116.969 427.438 116.834C426.27 115.976 424.984 115.733 423.58 116.134C423.476 116.164 423.366 116.212 423.261 116.242C422.788 116.349 422.435 116.188 422.249 115.734C422.065 115.31 422.237 114.892 422.727 114.655C422.98 114.539 423.26 114.468 423.529 114.404C425.45 113.947 427.153 114.435 428.672 115.636C428.759 115.707 428.834 115.785 428.91 115.863C428.947 115.902 428.974 115.947 429.018 115.997C429.195 116.411 429.13 116.721 428.962 116.985ZM416.547 124.199C415.977 123.026 415.636 121.721 415.605 120.344C415.601 119.861 415.732 119.452 416.244 119.308C416.739 119.159 417.267 119.491 417.287 120.055C417.353 121.413 417.685 122.677 418.304 123.882C418.551 124.361 418.392 124.801 417.985 125.022C417.584 125.253 417.144 125.128 416.829 124.688C416.739 124.558 416.665 124.403 416.547 124.199ZM423.307 133.551C423.043 133.704 422.786 133.867 422.509 133.997C422.072 134.219 421.7 134.13 421.428 133.711C421.155 133.292 421.227 132.887 421.682 132.563C422.245 132.162 422.852 131.812 423.409 131.399C426.797 128.852 427.874 123.756 425.8 120.085C425.695 119.903 425.23 119.018 424.531 119.422C424.016 119.72 424.177 120.476 424.208 120.609C424.33 121.191 424.123 121.599 423.644 121.724C423.173 121.859 422.745 121.621 422.548 121.068C422.189 120.076 422.344 119.153 423.062 118.359C423.725 117.628 424.794 117.389 425.75 117.748C426.451 118.01 426.953 118.509 427.298 119.159C430.045 124.155 428.241 130.611 423.307 133.551ZM415.005 107.632C417.538 105.669 420.563 104.423 423.756 104.157C423.901 104.144 424.045 104.137 424.187 104.136C424.493 104.111 424.801 104.115 425.106 104.166C425.537 104.251 425.773 104.554 425.757 105.003C425.728 105.43 425.503 105.727 425.046 105.809C424.834 105.84 424.603 105.837 424.379 105.845C419.406 106.178 415.545 108.418 412.794 112.564C412.712 112.687 412.642 112.803 412.553 112.915C412.197 113.409 411.789 113.523 411.355 113.273C410.945 113.04 410.805 112.559 411.101 112.04C411.876 110.682 412.836 109.461 414.026 108.425C414.338 108.154 414.664 107.889 415.005 107.632ZM418.652 128.534C418.217 128.785 417.788 129.048 417.339 129.277C416.81 129.552 416.33 129.435 416.089 129.043C415.826 128.588 415.983 128.119 416.527 127.79C417.231 127.368 417.949 126.998 418.635 126.572C420.127 125.635 420.443 124.436 419.668 122.882C418.801 121.168 418.731 119.434 419.537 117.68C419.663 117.395 419.9 117.091 420.17 116.95C420.709 116.639 421.332 117.083 421.29 117.699C421.279 117.917 421.173 118.13 421.089 118.33C420.537 119.544 420.57 120.738 421.112 121.942C422.418 124.813 421.804 126.714 419.088 128.282C418.943 128.366 418.798 128.45 418.652 128.534ZM413.621 125.827C411.773 121.965 411.749 118.111 413.725 114.256C413.81 114.085 413.918 113.902 414.059 113.775C414.333 113.51 414.658 113.383 415.036 113.59C415.422 113.807 415.571 114.145 415.447 114.566C415.393 114.764 415.29 114.929 415.205 115.1C413.53 118.524 413.482 121.934 415.249 125.312C415.347 125.483 415.434 125.66 415.463 125.841C415.556 126.242 415.391 126.564 415.016 126.735C414.659 126.911 414.3 126.845 414.046 126.537C413.874 126.318 413.759 126.066 413.621 125.827ZM420.325 112.189C421.803 111.336 423.518 110.786 425.32 110.837C425.431 110.834 425.542 110.841 425.653 110.857C426.308 110.934 426.664 111.259 426.65 111.738C426.635 112.293 426.256 112.617 425.544 112.574C424.279 112.5 423.058 112.689 421.886 113.199C420.524 113.804 419.42 114.698 418.609 115.94C418.506 116.106 418.41 116.283 418.3 116.437C417.958 116.877 417.521 116.993 417.136 116.776C416.701 116.526 416.537 116.03 416.877 115.56C417.536 114.664 418.778 113.083 420.325 112.189ZM431.165 119.08C431.735 120.253 432.075 121.558 432.089 122.93C432.11 123.418 431.98 123.827 431.467 123.971C430.961 124.127 430.445 123.788 430.424 123.224C430.359 121.866 430.026 120.602 429.407 119.398C429.161 118.918 429.319 118.478 429.727 118.257C430.128 118.026 430.567 118.151 430.882 118.591C430.973 118.721 431.046 118.876 431.165 119.08ZM436.483 114.873C439.156 119.502 439.246 125.456 437.916 130.562C437.78 131.095 437.473 131.833 437.194 132.328C436.958 132.768 436.531 133.06 436.07 132.871C435.518 132.628 435.557 132.06 435.7 131.568C435.73 131.46 435.818 131.348 435.865 131.245C437.753 126.469 437.398 119.713 434.796 115.285C434.387 114.657 433.983 114.01 433.529 113.408C429.844 108.483 422.353 107.788 417.746 111.904C417.661 111.968 417.595 112.067 417.51 112.131C417.052 112.502 416.483 112.496 416.16 112.122C415.899 111.802 415.941 111.293 416.329 110.932C416.773 110.509 417.234 110.091 417.742 109.753C424.352 105.269 432.598 107.773 435.99 114.019C436.003 114.042 436.483 114.873 436.483 114.873Z" fill="#D2D9E0" fill-opacity="0.3"/>
<path fill-rule="evenodd" clip-rule="evenodd" d="M64.6908 171.88C63.7632 172.179 63.5507 173.099 63.2903 173.987C61.9471 178.511 59.5572 182.459 56.1782 185.827C55.6113 186.39 55.0221 186.967 54.3946 187.476C53.6683 188.073 52.616 188.002 52.0476 187.326C51.4537 186.606 51.4782 185.825 52.1183 185.131C52.6724 184.545 53.2999 184.035 53.8763 183.437C56.905 180.389 59.0625 176.812 60.1958 172.645C60.7704 170.601 61.9804 169.194 64.0331 168.629C65.0085 168.361 65.9338 168.83 66.1867 169.629C66.4683 170.529 66.0801 171.196 65.2644 171.637C65.1178 171.692 64.9489 171.76 64.6908 171.88ZM42.5396 179.769C41.7813 180.207 41.058 180.654 40.2869 181.07C39.1779 181.621 38.4188 181.44 37.9075 180.554C37.3963 179.669 37.6058 178.898 38.6063 178.262C39.7182 177.561 40.8813 176.948 41.9838 176.282C45.8264 173.975 47.8822 170.633 47.9724 166.154C48.0117 164.419 48.5114 163.688 49.6179 163.698C50.7244 163.709 51.3248 164.543 51.2918 166.186C51.1835 171.561 48.8641 175.734 44.3686 178.713C43.7792 179.083 43.1641 179.408 42.5396 179.769ZM67.0718 150.197C67.5575 151.039 68.0655 151.867 68.5066 152.734C68.9988 153.69 68.7702 154.53 68.0023 155.003C67.1675 155.514 66.2904 155.283 65.6483 154.325C65.1819 153.62 64.7474 152.868 64.3351 152.102C62.9577 149.562 61.2523 147.329 58.7537 145.732C58.0836 145.292 57.5726 144.613 57.8969 143.835C58.1099 143.329 58.7119 142.774 59.2346 142.65C59.7223 142.516 60.386 142.841 60.8518 143.133C62.9324 144.47 64.6085 146.188 65.9248 148.262C66.34 148.878 66.6788 149.568 67.0718 150.197ZM58.6881 152.057C58.2999 152.723 57.5092 152.796 56.8105 152.462C56.4213 152.303 56.0829 152.026 55.7223 151.762C53.45 150.092 50.9464 149.619 48.2147 150.399C48.0107 150.458 47.7972 150.552 47.5932 150.611C46.6719 150.818 45.986 150.505 45.6246 149.622C45.2665 148.796 45.6003 147.983 46.5531 147.521C47.0471 147.295 47.5922 147.158 48.115 147.033C51.8541 146.143 55.1682 147.093 58.1237 149.431C58.2928 149.569 58.4397 149.721 58.5866 149.872C58.66 149.948 58.7111 150.036 58.7973 150.134C59.1427 150.938 59.0159 151.543 58.6881 152.057ZM34.526 166.095C33.4168 163.813 32.7537 161.274 32.693 158.593C32.6855 157.653 32.9396 156.857 33.9373 156.576C34.8999 156.286 35.9274 156.933 35.967 158.031C36.0946 160.673 36.7417 163.133 37.9466 165.478C38.4261 166.411 38.1178 167.268 37.3244 167.697C36.5437 168.148 35.6889 167.903 35.0756 167.047C34.8999 166.794 34.7561 166.494 34.526 166.095ZM47.6819 184.297C47.1689 184.594 46.6687 184.912 46.1302 185.164C45.2793 185.596 44.5553 185.424 44.025 184.608C43.4947 183.793 43.634 183.004 44.5197 182.374C45.6156 181.594 46.7978 180.912 47.8809 180.109C54.4753 175.151 56.5709 165.233 52.535 158.088C52.3305 157.734 51.4261 156.013 50.0655 156.799C49.0618 157.378 49.3761 158.85 49.437 159.11C49.6743 160.242 49.2703 161.036 48.3395 161.278C47.4215 161.543 46.5887 161.079 46.2048 160.002C45.5074 158.073 45.8081 156.275 47.206 154.73C48.4957 153.307 50.5772 152.843 52.437 153.54C53.8024 154.051 54.7793 155.022 55.4504 156.287C60.7967 166.011 57.2854 178.576 47.6819 184.297ZM31.5247 133.854C36.456 130.033 42.3423 127.608 48.5563 127.09C48.839 127.065 49.1185 127.051 49.3948 127.049C49.991 127 50.5905 127.008 51.1837 127.108C52.0225 127.273 52.4824 127.864 52.4515 128.738C52.3952 129.567 51.9558 130.146 51.0664 130.305C50.6552 130.365 50.2056 130.359 49.7687 130.375C40.0911 131.023 32.5756 135.382 27.2221 143.451C27.063 143.691 26.9262 143.917 26.7543 144.135C26.0603 145.096 25.2666 145.318 24.421 144.833C23.6233 144.378 23.3512 143.443 23.9271 142.432C25.4353 139.79 27.3041 137.412 29.6197 135.396C30.2271 134.869 30.862 134.354 31.5247 133.854ZM38.624 174.532C37.7765 175.022 36.9417 175.533 36.0686 175.978C35.0393 176.513 34.1048 176.286 33.6351 175.524C33.1239 174.638 33.4288 173.724 34.4867 173.084C35.8568 172.263 37.2557 171.544 38.5907 170.714C41.4933 168.891 42.109 166.558 40.6004 163.533C38.9127 160.197 38.7779 156.822 40.3457 153.408C40.5906 152.853 41.0522 152.262 41.578 151.988C42.6263 151.383 43.839 152.247 43.7576 153.445C43.7358 153.871 43.529 154.285 43.3669 154.674C42.292 157.036 42.3554 159.361 43.4105 161.704C45.9522 167.291 44.7578 170.991 39.4716 174.043C39.1891 174.206 38.9066 174.369 38.624 174.532ZM28.8319 169.265C25.2356 161.748 25.1882 154.248 29.0341 146.744C29.1995 146.413 29.4095 146.055 29.6834 145.809C30.2185 145.293 30.8495 145.047 31.5866 145.448C32.3364 145.871 32.6274 146.529 32.386 147.348C32.2813 147.733 32.0808 148.055 31.9154 148.387C28.6552 155.051 28.5612 161.687 32.0001 168.262C32.1918 168.594 32.3612 168.939 32.4159 169.291C32.5986 170.071 32.2773 170.699 31.5475 171.032C30.8528 171.374 30.1543 171.246 29.6594 170.646C29.3241 170.22 29.1003 169.729 28.8319 169.265ZM41.8792 142.723C44.7565 141.061 48.0937 139.991 51.6012 140.091C51.8159 140.085 52.0317 140.098 52.2486 140.13C53.5242 140.279 54.2169 140.913 54.1893 141.844C54.1587 142.924 53.4229 143.555 52.0358 143.471C49.574 143.327 47.199 143.695 44.9171 144.688C42.2657 145.864 40.1187 147.606 38.5401 150.023C38.3396 150.345 38.1519 150.69 37.9386 150.99C37.2732 151.846 36.4221 152.072 35.6723 151.649C34.8267 151.163 34.5067 150.197 35.1688 149.283C36.4517 147.539 38.8681 144.461 41.8792 142.723ZM62.9753 156.134C64.0845 158.416 64.7476 160.955 64.7732 163.627C64.8158 164.576 64.5617 165.372 63.564 165.653C62.5791 165.956 61.5739 165.297 61.5343 164.198C61.4067 161.556 60.7596 159.096 59.5547 156.751C59.0753 155.818 59.3835 154.961 60.177 154.532C60.9576 154.082 61.8125 154.326 62.4257 155.182C62.6014 155.435 62.7452 155.736 62.9753 156.134ZM73.3251 147.945C78.5271 156.955 78.7037 168.542 76.1139 178.479C75.8505 179.516 75.2528 180.954 74.7087 181.917C74.2506 182.772 73.4191 183.341 72.5227 182.973C71.4475 182.501 71.5227 181.395 71.8021 180.437C71.8593 180.227 72.0312 180.01 72.1234 179.809C75.7982 170.514 75.1062 157.366 70.0418 148.748C69.2464 147.525 68.4604 146.267 67.5758 145.095C60.4057 135.509 45.8259 134.157 36.8597 142.167C36.694 142.292 36.5667 142.484 36.4011 142.609C35.5091 143.331 34.4027 143.32 33.7737 142.591C33.2659 141.969 33.3476 140.978 34.1025 140.276C34.9656 139.453 35.8638 138.639 36.8514 137.981C49.7164 129.254 65.7641 134.128 72.3665 146.285C72.3921 146.329 73.3251 147.945 73.3251 147.945Z" fill="#D2D9E0" fill-opacity="0.3"/>
<path fill-rule="evenodd" clip-rule="evenodd" d="M89.5115 59.3041C88.752 59.5493 88.5779 60.3024 88.3647 61.0298C87.2647 64.7348 85.3076 67.9676 82.5404 70.7255C82.0762 71.1869 81.5937 71.6589 81.0798 72.0764C80.4851 72.5648 79.6233 72.5064 79.1578 71.9533C78.6714 71.3639 78.6916 70.7238 79.2157 70.1553C79.6695 69.6758 80.1834 69.2582 80.6554 68.7682C83.1356 66.2726 84.9024 63.343 85.8305 59.9307C86.3011 58.257 87.2919 57.1048 88.973 56.6419C89.7717 56.4224 90.5295 56.8068 90.7365 57.4608C90.9672 58.1978 90.6493 58.7439 89.9813 59.1054C89.8612 59.1506 89.7229 59.2062 89.5115 59.3041ZM71.3716 65.7647C70.7506 66.1232 70.1583 66.4894 69.5268 66.8298C68.6186 67.2816 67.997 67.1329 67.5783 66.4077C67.1596 65.6826 67.3312 65.0517 68.1505 64.5303C69.0611 63.9563 70.0136 63.4547 70.9164 62.9093C74.0632 61.02 75.7467 58.2834 75.8206 54.615C75.8528 53.1944 76.262 52.5956 77.1681 52.6042C78.0742 52.6129 78.5659 53.2958 78.5388 54.6409C78.4502 59.0431 76.5508 62.4602 72.8694 64.8999C72.3867 65.2028 71.883 65.4694 71.3716 65.7647ZM91.4614 41.548C91.8591 42.2369 92.2751 42.9153 92.6363 43.6253C93.0394 44.4078 92.8522 45.096 92.2234 45.4832C91.5398 45.9021 90.8215 45.7125 90.2957 44.9283C89.9138 44.3511 89.5579 43.7347 89.2203 43.1078C88.0923 41.0276 86.6957 39.1992 84.6496 37.8908C84.1008 37.5308 83.6823 36.9748 83.9479 36.338C84.1223 35.923 84.6153 35.4692 85.0434 35.3671C85.4428 35.2574 85.9862 35.5237 86.3678 35.7627C88.0716 36.8578 89.4442 38.265 90.5221 39.9632C90.8621 40.4679 91.1396 41.0328 91.4614 41.548ZM84.5958 43.0705C84.2779 43.6166 83.6304 43.6762 83.0582 43.4023C82.7395 43.272 82.4624 43.0452 82.1671 42.829C80.3063 41.462 78.256 41.0745 76.019 41.7134C75.8519 41.7615 75.6771 41.8383 75.51 41.8864C74.7556 42.0561 74.1939 41.8003 73.8979 41.0768C73.6047 40.4001 73.878 39.7346 74.6583 39.3566C75.0628 39.1714 75.5092 39.0588 75.9373 38.9566C78.9994 38.2281 81.7133 39.0059 84.1336 40.9201C84.2722 41.0335 84.3924 41.1575 84.5127 41.2814C84.5728 41.3434 84.6147 41.4159 84.6853 41.496C84.9681 42.1546 84.8642 42.6496 84.5958 43.0705ZM64.8091 54.5669C63.9008 52.6983 63.3577 50.6188 63.308 48.4236C63.3019 47.6537 63.51 47.0017 64.327 46.7717C65.1153 46.5342 65.9568 47.0636 65.9892 47.9634C66.0936 50.1269 66.6236 52.1415 67.6103 54.0615C68.0029 54.8259 67.7505 55.5276 67.1007 55.8785C66.4614 56.2476 65.7614 56.0475 65.2592 55.3464C65.1153 55.1394 64.9975 54.8932 64.8091 54.5669ZM75.5827 69.4731C75.1626 69.7156 74.753 69.9763 74.3119 70.1826C73.6152 70.5365 73.0223 70.3954 72.588 69.7276C72.1537 69.0598 72.2678 68.4137 72.9931 67.8983C73.8906 67.2593 74.8587 66.7004 75.7457 66.0432C81.1459 61.9827 82.862 53.8611 79.557 48.0101C79.3895 47.72 78.6488 46.3106 77.5346 46.9539C76.7127 47.4284 76.9701 48.6335 77.0199 48.8464C77.2143 49.7736 76.8834 50.4239 76.1212 50.6222C75.3695 50.8387 74.6875 50.4589 74.3731 49.5769C73.8019 47.9971 74.0482 46.5254 75.193 45.2602C76.2491 44.0945 77.9537 43.7146 79.4767 44.2856C80.5948 44.7036 81.3948 45.4987 81.9444 46.535C86.3226 54.4979 83.4472 64.7875 75.5827 69.4731ZM62.3512 28.1639C66.3896 25.0347 71.21 23.0493 76.2987 22.6252C76.5302 22.6044 76.7591 22.5931 76.9854 22.5913C77.4737 22.5512 77.9646 22.5578 78.4504 22.6399C79.1373 22.7751 79.5139 23.2587 79.4886 23.9742C79.4424 24.6536 79.0827 25.1272 78.3543 25.2576C78.0175 25.307 77.6493 25.302 77.2916 25.3152C69.3664 25.846 63.2118 29.4155 58.8278 36.0236C58.6975 36.2197 58.5855 36.4053 58.4447 36.5832C57.8764 37.3706 57.2264 37.5525 56.534 37.1546C55.8807 36.7824 55.6578 36.0167 56.1295 35.1885C57.3645 33.0251 58.8949 31.0779 60.7913 29.4271C61.2886 28.995 61.8086 28.5739 62.3512 28.1639ZM68.165 61.4763C67.471 61.877 66.7873 62.2959 66.0723 62.6603C65.2294 63.0986 64.4641 62.912 64.0795 62.288C63.6608 61.5629 63.9106 60.8144 64.7769 60.2901C65.8989 59.6181 67.0445 59.0292 68.1378 58.3497C70.5147 56.8565 71.019 54.9458 69.7835 52.4684C68.4015 49.7372 68.291 46.9728 69.575 44.1769C69.7755 43.7228 70.1535 43.2386 70.5841 43.0142C71.4426 42.5186 72.4357 43.2263 72.369 44.2075C72.3511 44.5562 72.1818 44.8957 72.049 45.2141C71.1688 47.1484 71.2207 49.0522 72.0847 50.9706C74.1662 55.546 73.1881 58.5762 68.8591 61.0755C68.6278 61.2091 68.3964 61.3427 68.165 61.4763ZM60.1461 57.1624C57.201 51.0068 57.1622 44.8653 60.3117 38.7202C60.4471 38.4486 60.6191 38.156 60.8434 37.9539C61.2816 37.5318 61.7984 37.3301 62.4019 37.6584C63.016 38.0049 63.2543 38.5441 63.0566 39.2142C62.9708 39.5296 62.8067 39.7936 62.6712 40.0652C60.0014 45.5225 59.9244 50.9573 62.7406 56.3412C62.8976 56.6132 63.0363 56.8957 63.0811 57.1841C63.2307 57.8228 62.9676 58.3373 62.3699 58.6099C61.801 58.89 61.2291 58.7851 60.8237 58.294C60.5491 57.9449 60.3659 57.5431 60.1461 57.1624ZM70.8308 35.4268C73.187 34.0664 75.9199 33.1896 78.7923 33.2716C78.9681 33.2668 79.1448 33.2775 79.3224 33.3039C80.367 33.426 80.9343 33.9445 80.9117 34.7069C80.8867 35.5915 80.2841 36.1086 79.1482 36.0393C77.1322 35.9221 75.1872 36.2232 73.3186 37.0361C71.1472 37.9997 69.389 39.4257 68.0963 41.4049C67.9321 41.6688 67.7784 41.951 67.6037 42.1968C67.0588 42.8982 66.3619 43.083 65.7478 42.7366C65.0554 42.3387 64.7933 41.5473 65.3355 40.7991C66.3861 39.3707 68.3649 36.8504 70.8308 35.4268ZM88.1067 46.4097C89.015 48.2783 89.5581 50.3578 89.579 52.5453C89.6139 53.3229 89.4058 53.9748 88.5888 54.2048C87.7822 54.4529 86.9591 53.9129 86.9266 53.0131C86.8222 50.8496 86.2923 48.835 85.3055 46.915C84.9129 46.1506 85.1653 45.4489 85.8151 45.098C86.4544 44.7289 87.1544 44.929 87.6566 45.6301C87.8005 45.8371 87.9183 46.0833 88.1067 46.4097ZM96.5823 39.7034C100.842 47.0819 100.987 56.5705 98.8661 64.7081C98.6504 65.5578 98.161 66.7348 97.7154 67.5238C97.3403 68.2238 96.6593 68.6895 95.9252 68.3882C95.0448 68.0021 95.1063 67.0964 95.3352 66.3116C95.3819 66.1396 95.5227 65.9616 95.5983 65.7972C98.6075 58.1859 98.0409 47.4181 93.8936 40.3613C93.2422 39.3596 92.5986 38.3292 91.8741 37.3697C86.0024 29.5197 74.0627 28.4122 66.7202 34.9719C66.5845 35.0744 66.4803 35.2313 66.3446 35.3338C65.6142 35.9247 64.7081 35.916 64.193 35.3191C63.7772 34.8098 63.8441 33.9977 64.4622 33.4232C65.1691 32.7493 65.9046 32.0829 66.7134 31.5434C77.2487 24.3973 90.3905 28.3882 95.7973 38.3437C95.8182 38.3799 96.5823 39.7034 96.5823 39.7034Z" fill="#D2D9E0" fill-opacity="0.3"/>
<path fill-rule="evenodd" clip-rule="evenodd" d="M114.046 127.171C113.57 127.325 113.46 127.797 113.327 128.254C112.636 130.578 111.408 132.607 109.672 134.337C109.381 134.627 109.078 134.923 108.756 135.185C108.383 135.491 107.842 135.455 107.55 135.108C107.245 134.738 107.257 134.336 107.586 133.979C107.871 133.679 108.193 133.417 108.489 133.109C110.046 131.543 111.154 129.705 111.737 127.564C112.032 126.514 112.653 125.791 113.708 125.501C114.209 125.363 114.685 125.604 114.815 126.014C114.96 126.477 114.76 126.819 114.341 127.046C114.266 127.075 114.179 127.11 114.046 127.171ZM102.664 131.225C102.275 131.45 101.903 131.679 101.507 131.893C100.937 132.176 100.547 132.083 100.284 131.628C100.022 131.173 100.129 130.777 100.643 130.45C101.215 130.09 101.812 129.775 102.379 129.433C104.353 128.248 105.409 126.531 105.456 124.229C105.476 123.337 105.733 122.962 106.301 122.967C106.87 122.973 107.178 123.401 107.161 124.245C107.106 127.007 105.914 129.151 103.604 130.682C103.301 130.872 102.985 131.039 102.664 131.225ZM115.27 116.03C115.519 116.462 115.78 116.888 116.007 117.333C116.26 117.824 116.142 118.256 115.748 118.499C115.319 118.762 114.868 118.643 114.538 118.151C114.299 117.789 114.075 117.402 113.863 117.009C113.156 115.703 112.279 114.556 110.996 113.735C110.651 113.509 110.389 113.161 110.555 112.761C110.665 112.501 110.974 112.216 111.243 112.152C111.493 112.083 111.834 112.25 112.074 112.4C113.143 113.087 114.004 113.97 114.68 115.036C114.894 115.352 115.068 115.707 115.27 116.03ZM110.962 116.985C110.762 117.328 110.356 117.365 109.997 117.193C109.797 117.112 109.623 116.969 109.438 116.834C108.27 115.976 106.984 115.733 105.58 116.134C105.476 116.164 105.366 116.212 105.261 116.242C104.788 116.349 104.435 116.188 104.249 115.734C104.065 115.31 104.237 114.892 104.727 114.655C104.98 114.539 105.26 114.468 105.529 114.404C107.45 113.947 109.153 114.435 110.672 115.636C110.759 115.707 110.834 115.785 110.91 115.863C110.947 115.902 110.974 115.947 111.018 115.997C111.195 116.411 111.13 116.721 110.962 116.985ZM98.5468 124.199C97.9768 123.026 97.6361 121.721 97.6049 120.344C97.6011 119.861 97.7316 119.452 98.2443 119.308C98.7389 119.159 99.2669 119.491 99.2872 120.055C99.3527 121.413 99.6852 122.677 100.304 123.882C100.551 124.361 100.392 124.801 99.9846 125.022C99.5835 125.253 99.1443 125.128 98.8292 124.688C98.7389 124.558 98.665 124.403 98.5468 124.199ZM105.307 133.551C105.043 133.704 104.786 133.867 104.509 133.997C104.072 134.219 103.7 134.13 103.428 133.711C103.155 133.292 103.227 132.887 103.682 132.563C104.245 132.162 104.852 131.812 105.409 131.399C108.797 128.852 109.874 123.756 107.8 120.085C107.695 119.903 107.23 119.018 106.531 119.422C106.016 119.72 106.177 120.476 106.208 120.609C106.33 121.191 106.123 121.599 105.644 121.724C105.173 121.859 104.745 121.621 104.548 121.068C104.189 120.076 104.344 119.153 105.062 118.359C105.725 117.628 106.794 117.389 107.75 117.748C108.451 118.01 108.953 118.509 109.298 119.159C112.045 124.155 110.241 130.611 105.307 133.551ZM97.0046 107.632C99.5384 105.669 102.563 104.423 105.756 104.157C105.901 104.144 106.045 104.137 106.187 104.136C106.493 104.111 106.801 104.115 107.106 104.166C107.537 104.251 107.773 104.554 107.757 105.003C107.728 105.43 107.503 105.727 107.046 105.809C106.834 105.84 106.603 105.837 106.379 105.845C101.406 106.178 97.5446 108.418 94.7939 112.564C94.7121 112.687 94.6418 112.803 94.5534 112.915C94.1969 113.409 93.7891 113.523 93.3546 113.273C92.9447 113.04 92.8049 112.559 93.1008 112.04C93.8757 110.682 94.836 109.461 96.0258 108.425C96.3379 108.154 96.6641 107.889 97.0046 107.632ZM100.652 128.534C100.217 128.785 99.788 129.048 99.3394 129.277C98.8105 129.552 98.3303 129.435 98.089 129.043C97.8263 128.588 97.983 128.119 98.5266 127.79C99.2305 127.368 99.9493 126.998 100.635 126.572C102.127 125.635 102.443 124.436 101.668 122.882C100.801 121.168 100.731 119.434 101.537 117.68C101.663 117.395 101.9 117.091 102.17 116.95C102.709 116.639 103.332 117.083 103.29 117.699C103.279 117.917 103.173 118.13 103.089 118.33C102.537 119.544 102.57 120.738 103.112 121.942C104.418 124.813 103.804 126.714 101.088 128.282C100.943 128.366 100.798 128.45 100.652 128.534ZM95.621 125.827C93.7731 121.965 93.7488 118.111 95.7249 114.256C95.8099 114.085 95.9178 113.902 96.0585 113.775C96.3334 113.51 96.6577 113.383 97.0364 113.59C97.4217 113.807 97.5712 114.145 97.4472 114.566C97.3934 114.764 97.2903 114.929 97.2054 115.1C95.5302 118.524 95.4819 121.934 97.2489 125.312C97.3474 125.483 97.4344 125.66 97.4625 125.841C97.5564 126.242 97.3913 126.564 97.0163 126.735C96.6594 126.911 96.3005 126.845 96.0462 126.537C95.8739 126.318 95.7589 126.066 95.621 125.827ZM102.325 112.189C103.803 111.336 105.518 110.786 107.32 110.837C107.431 110.834 107.542 110.841 107.653 110.857C108.308 110.934 108.664 111.259 108.65 111.738C108.635 112.293 108.256 112.617 107.544 112.574C106.279 112.5 105.058 112.689 103.886 113.199C102.524 113.804 101.42 114.698 100.609 115.94C100.506 116.106 100.41 116.283 100.3 116.437C99.9583 116.877 99.521 116.993 99.1358 116.776C98.7013 116.526 98.5368 116.03 98.8771 115.56C99.5362 114.664 100.778 113.083 102.325 112.189ZM113.165 119.08C113.735 120.253 114.075 121.558 114.089 122.93C114.11 123.418 113.98 123.827 113.467 123.971C112.961 124.127 112.445 123.788 112.424 123.224C112.359 121.866 112.026 120.602 111.407 119.398C111.161 118.918 111.319 118.478 111.727 118.257C112.128 118.026 112.567 118.151 112.882 118.591C112.973 118.721 113.046 118.876 113.165 119.08ZM118.483 114.873C121.156 119.502 121.246 125.456 119.916 130.562C119.78 131.095 119.473 131.833 119.194 132.328C118.958 132.768 118.531 133.06 118.07 132.871C117.518 132.628 117.557 132.06 117.7 131.568C117.73 131.46 117.818 131.348 117.865 131.245C119.753 126.469 119.398 119.713 116.796 115.285C116.387 114.657 115.983 114.01 115.529 113.408C111.844 108.483 104.353 107.788 99.7459 111.904C99.6608 111.968 99.5953 112.067 99.5102 112.131C99.0519 112.502 98.4834 112.496 98.1602 112.122C97.8993 111.802 97.9413 111.293 98.3291 110.932C98.7726 110.509 99.2341 110.091 99.7416 109.753C106.352 105.269 114.598 107.773 117.99 114.019C118.003 114.042 118.483 114.873 118.483 114.873Z" fill="#D2D9E0" fill-opacity="0.3"/>
</svg>
