<svg width="457" height="228" viewBox="0 0 457 228" fill="none" xmlns="http://www.w3.org/2000/svg">
<rect width="457" height="228" rx="4" fill="#F3F6F9"/>
<path fill-rule="evenodd" clip-rule="evenodd" d="M387.691 173.88C386.763 174.179 386.551 175.099 386.29 175.987C384.947 180.511 382.557 184.459 379.178 187.827C378.611 188.39 378.022 188.967 377.395 189.476C376.668 190.073 375.616 190.002 375.048 189.326C374.454 188.606 374.478 187.825 375.118 187.131C375.672 186.545 376.3 186.035 376.876 185.437C379.905 182.389 382.063 178.812 383.196 174.645C383.77 172.601 384.98 171.194 387.033 170.629C388.009 170.361 388.934 170.83 389.187 171.629C389.468 172.529 389.08 173.196 388.264 173.637C388.118 173.692 387.949 173.76 387.691 173.88ZM365.54 181.769C364.781 182.207 364.058 182.654 363.287 183.07C362.178 183.621 361.419 183.44 360.908 182.554C360.396 181.669 360.606 180.898 361.606 180.262C362.718 179.561 363.881 178.948 364.984 178.282C368.826 175.975 370.882 172.633 370.972 168.154C371.012 166.419 371.511 165.688 372.618 165.698C373.724 165.709 374.325 166.543 374.292 168.186C374.183 173.561 371.864 177.734 367.369 180.713C366.779 181.083 366.164 181.408 365.54 181.769ZM390.072 152.197C390.557 153.039 391.065 153.867 391.507 154.734C391.999 155.69 391.77 156.53 391.002 157.003C390.168 157.514 389.29 157.283 388.648 156.325C388.182 155.62 387.747 154.868 387.335 154.102C385.958 151.562 384.252 149.329 381.754 147.732C381.084 147.292 380.573 146.613 380.897 145.835C381.11 145.329 381.712 144.774 382.235 144.65C382.722 144.516 383.386 144.841 383.852 145.133C385.932 146.47 387.609 148.188 388.925 150.262C389.34 150.878 389.679 151.568 390.072 152.197ZM381.688 154.057C381.3 154.723 380.509 154.796 379.81 154.462C379.421 154.303 379.083 154.026 378.722 153.762C376.45 152.092 373.946 151.619 371.215 152.399C371.011 152.458 370.797 152.552 370.593 152.611C369.672 152.818 368.986 152.505 368.625 151.622C368.267 150.796 368.6 149.983 369.553 149.521C370.047 149.295 370.592 149.158 371.115 149.033C374.854 148.143 378.168 149.093 381.124 151.431C381.293 151.569 381.44 151.721 381.587 151.872C381.66 151.948 381.711 152.036 381.797 152.134C382.143 152.938 382.016 153.543 381.688 154.057ZM357.526 168.095C356.417 165.813 355.754 163.274 355.693 160.593C355.686 159.653 355.94 158.857 356.937 158.576C357.9 158.286 358.927 158.933 358.967 160.031C359.095 162.673 359.742 165.133 360.947 167.478C361.426 168.411 361.118 169.268 360.324 169.697C359.544 170.148 358.689 169.903 358.076 169.047C357.9 168.794 357.756 168.494 357.526 168.095ZM370.682 186.297C370.169 186.594 369.669 186.912 369.13 187.164C368.279 187.596 367.555 187.424 367.025 186.608C366.495 185.793 366.634 185.004 367.52 184.374C368.616 183.594 369.798 182.912 370.881 182.109C377.475 177.151 379.571 167.233 375.535 160.088C375.331 159.734 374.426 158.013 373.065 158.799C372.062 159.378 372.376 160.85 372.437 161.11C372.674 162.242 372.27 163.036 371.34 163.278C370.422 163.543 369.589 163.079 369.205 162.002C368.507 160.073 368.808 158.275 370.206 156.73C371.496 155.307 373.577 154.843 375.437 155.54C376.802 156.051 377.779 157.022 378.45 158.287C383.797 168.011 380.285 180.576 370.682 186.297ZM354.525 135.854C359.456 132.033 365.342 129.608 371.556 129.09C371.839 129.065 372.118 129.051 372.395 129.049C372.991 129 373.591 129.008 374.184 129.108C375.023 129.273 375.482 129.864 375.452 130.738C375.395 131.567 374.956 132.146 374.066 132.305C373.655 132.365 373.206 132.359 372.769 132.375C363.091 133.023 355.576 137.382 350.222 145.451C350.063 145.691 349.926 145.917 349.754 146.135C349.06 147.096 348.267 147.318 347.421 146.833C346.623 146.378 346.351 145.443 346.927 144.432C348.435 141.79 350.304 139.412 352.62 137.396C353.227 136.869 353.862 136.354 354.525 135.854ZM361.624 176.532C360.776 177.022 359.942 177.533 359.069 177.978C358.039 178.513 357.105 178.286 356.635 177.524C356.124 176.638 356.429 175.724 357.487 175.084C358.857 174.263 360.256 173.544 361.591 172.714C364.493 170.891 365.109 168.558 363.6 165.533C361.913 162.197 361.778 158.822 363.346 155.408C363.591 154.853 364.052 154.262 364.578 153.988C365.626 153.383 366.839 154.247 366.758 155.445C366.736 155.871 366.529 156.285 366.367 156.674C365.292 159.036 365.355 161.361 366.41 163.704C368.952 169.291 367.758 172.991 362.472 176.043C362.189 176.206 361.907 176.369 361.624 176.532ZM351.832 171.265C348.236 163.748 348.188 156.248 352.034 148.744C352.199 148.413 352.409 148.055 352.683 147.809C353.218 147.293 353.85 147.047 354.587 147.448C355.336 147.871 355.627 148.529 355.386 149.348C355.281 149.733 355.081 150.055 354.915 150.387C351.655 157.051 351.561 163.687 355 170.262C355.192 170.594 355.361 170.939 355.416 171.291C355.599 172.071 355.277 172.699 354.547 173.032C353.853 173.374 353.154 173.246 352.659 172.646C352.324 172.22 352.1 171.729 351.832 171.265ZM364.879 144.723C367.756 143.061 371.094 141.991 374.601 142.091C374.816 142.085 375.032 142.098 375.249 142.13C376.524 142.279 377.217 142.913 377.189 143.844C377.159 144.924 376.423 145.555 375.036 145.471C372.574 145.327 370.199 145.695 367.917 146.688C365.266 147.864 363.119 149.606 361.54 152.023C361.34 152.345 361.152 152.69 360.939 152.99C360.273 153.846 359.422 154.072 358.672 153.649C357.827 153.163 357.507 152.197 358.169 151.283C359.452 149.539 361.868 146.461 364.879 144.723ZM385.975 158.134C387.085 160.416 387.748 162.955 387.773 165.627C387.816 166.576 387.562 167.372 386.564 167.653C385.579 167.956 384.574 167.297 384.534 166.198C384.407 163.556 383.76 161.096 382.555 158.751C382.075 157.818 382.384 156.961 383.177 156.532C383.958 156.082 384.812 156.326 385.426 157.182C385.601 157.435 385.745 157.736 385.975 158.134ZM396.325 149.945C401.527 158.955 401.704 170.542 399.114 180.479C398.851 181.516 398.253 182.954 397.709 183.917C397.251 184.772 396.419 185.341 395.523 184.973C394.448 184.501 394.523 183.395 394.802 182.437C394.859 182.227 395.031 182.01 395.123 181.809C398.798 172.514 398.106 159.366 393.042 150.748C392.246 149.525 391.46 148.267 390.576 147.095C383.406 137.509 368.826 136.157 359.86 144.167C359.694 144.292 359.567 144.484 359.401 144.609C358.509 145.331 357.403 145.32 356.774 144.591C356.266 143.969 356.348 142.978 357.102 142.276C357.966 141.453 358.864 140.639 359.851 139.981C372.716 131.254 388.764 136.128 395.366 148.285C395.392 148.329 396.325 149.945 396.325 149.945Z" fill="#D2D9E0" fill-opacity="0.25"/>
<path fill-rule="evenodd" clip-rule="evenodd" d="M412.512 61.3041C411.752 61.5493 411.578 62.3024 411.365 63.0298C410.265 66.7348 408.308 69.9676 405.54 72.7255C405.076 73.1869 404.594 73.6589 404.08 74.0764C403.485 74.5648 402.623 74.5064 402.158 73.9533C401.671 73.3639 401.692 72.7238 402.216 72.1553C402.669 71.6758 403.183 71.2582 403.655 70.7682C406.136 68.2726 407.902 65.343 408.83 61.9307C409.301 60.257 410.292 59.1048 411.973 58.6419C412.772 58.4224 413.529 58.8068 413.737 59.4608C413.967 60.1978 413.649 60.7439 412.981 61.1054C412.861 61.1506 412.723 61.2062 412.512 61.3041ZM394.372 67.7647C393.751 68.1232 393.158 68.4894 392.527 68.8298C391.619 69.2816 390.997 69.1329 390.578 68.4077C390.16 67.6826 390.331 67.0517 391.15 66.5303C392.061 65.9563 393.014 65.4547 393.916 64.9093C397.063 63.02 398.747 60.2834 398.821 56.615C398.853 55.1944 399.262 54.5956 400.168 54.6042C401.074 54.6129 401.566 55.2958 401.539 56.6409C401.45 61.0431 399.551 64.4602 395.869 66.8999C395.387 67.2028 394.883 67.4694 394.372 67.7647ZM414.461 43.548C414.859 44.2369 415.275 44.9153 415.636 45.6253C416.039 46.4078 415.852 47.096 415.223 47.4832C414.54 47.9021 413.821 47.7125 413.296 46.9283C412.914 46.3511 412.558 45.7347 412.22 45.1078C411.092 43.0276 409.696 41.1992 407.65 39.8908C407.101 39.5308 406.682 38.9748 406.948 38.338C407.122 37.923 407.615 37.4692 408.043 37.3671C408.443 37.2574 408.986 37.5237 409.368 37.7627C411.072 38.8578 412.444 40.265 413.522 41.9632C413.862 42.4679 414.14 43.0328 414.461 43.548ZM407.596 45.0705C407.278 45.6166 406.63 45.6762 406.058 45.4023C405.739 45.272 405.462 45.0452 405.167 44.829C403.306 43.462 401.256 43.0745 399.019 43.7134C398.852 43.7615 398.677 43.8383 398.51 43.8864C397.756 44.0561 397.194 43.8003 396.898 43.0768C396.605 42.4001 396.878 41.7346 397.658 41.3566C398.063 41.1714 398.509 41.0588 398.937 40.9566C401.999 40.2281 404.713 41.0059 407.134 42.9201C407.272 43.0335 407.392 43.1575 407.513 43.2814C407.573 43.3434 407.615 43.4159 407.685 43.496C407.968 44.1546 407.864 44.6496 407.596 45.0705ZM387.809 56.5669C386.901 54.6983 386.358 52.6188 386.308 50.4236C386.302 49.6537 386.51 49.0017 387.327 48.7717C388.115 48.5342 388.957 49.0636 388.989 49.9634C389.094 52.1269 389.624 54.1415 390.61 56.0615C391.003 56.8259 390.75 57.5276 390.101 57.8785C389.461 58.2476 388.761 58.0475 388.259 57.3464C388.115 57.1394 387.998 56.8932 387.809 56.5669ZM398.583 71.4731C398.163 71.7156 397.753 71.9763 397.312 72.1826C396.615 72.5365 396.022 72.3954 395.588 71.7276C395.154 71.0598 395.268 70.4137 395.993 69.8983C396.891 69.2593 397.859 68.7004 398.746 68.0432C404.146 63.9827 405.862 55.8611 402.557 50.0101C402.39 49.72 401.649 48.3106 400.535 48.9539C399.713 49.4284 399.97 50.6335 400.02 50.8464C400.214 51.7736 399.883 52.4239 399.121 52.6222C398.369 52.8387 397.687 52.4589 397.373 51.5769C396.802 49.9971 397.048 48.5254 398.193 47.2602C399.249 46.0945 400.954 45.7146 402.477 46.2856C403.595 46.7036 404.395 47.4987 404.944 48.535C409.323 56.4979 406.447 66.7875 398.583 71.4731ZM385.351 30.1639C389.39 27.0347 394.21 25.0493 399.299 24.6252C399.53 24.6044 399.759 24.5931 399.985 24.5913C400.474 24.5512 400.965 24.5578 401.45 24.6399C402.137 24.7751 402.514 25.2587 402.489 25.9742C402.442 26.6536 402.083 27.1272 401.354 27.2576C401.018 27.307 400.649 27.302 400.292 27.3152C392.366 27.846 386.212 31.4155 381.828 38.0236C381.698 38.2197 381.585 38.4053 381.445 38.5832C380.876 39.3706 380.226 39.5525 379.534 39.1546C378.881 38.7824 378.658 38.0167 379.129 37.1885C380.365 35.0251 381.895 33.0779 383.791 31.4271C384.289 30.995 384.809 30.5739 385.351 30.1639ZM391.165 63.4763C390.471 63.877 389.787 64.2959 389.072 64.6603C388.229 65.0986 387.464 64.912 387.08 64.288C386.661 63.5629 386.911 62.8144 387.777 62.2901C388.899 61.6181 390.044 61.0292 391.138 60.3497C393.515 58.8565 394.019 56.9458 392.783 54.4684C391.401 51.7372 391.291 48.9728 392.575 46.1769C392.775 45.7228 393.154 45.2386 393.584 45.0142C394.443 44.5186 395.436 45.2263 395.369 46.2075C395.351 46.5562 395.182 46.8957 395.049 47.2141C394.169 49.1484 394.221 51.0522 395.085 52.9706C397.166 57.546 396.188 60.5762 391.859 63.0755C391.628 63.2091 391.396 63.3427 391.165 63.4763ZM383.146 59.1624C380.201 53.0068 380.162 46.8653 383.312 40.7202C383.447 40.4486 383.619 40.156 383.843 39.9539C384.282 39.5318 384.798 39.3301 385.402 39.6584C386.016 40.0049 386.254 40.5441 386.057 41.2142C385.971 41.5296 385.807 41.7936 385.671 42.0652C383.001 47.5225 382.924 52.9573 385.741 58.3412C385.898 58.6132 386.036 58.8957 386.081 59.1841C386.231 59.8228 385.968 60.3373 385.37 60.6099C384.801 60.89 384.229 60.7851 383.824 60.294C383.549 59.9449 383.366 59.5431 383.146 59.1624ZM393.831 37.4268C396.187 36.0664 398.92 35.1896 401.792 35.2716C401.968 35.2668 402.145 35.2775 402.322 35.3039C403.367 35.426 403.934 35.9445 403.912 36.7069C403.887 37.5915 403.284 38.1086 402.148 38.0393C400.132 37.9221 398.187 38.2232 396.319 39.0361C394.147 39.9997 392.389 41.4257 391.096 43.4049C390.932 43.6688 390.778 43.951 390.604 44.1968C390.059 44.8982 389.362 45.083 388.748 44.7366C388.055 44.3387 387.793 43.5473 388.336 42.7991C389.386 41.3707 391.365 38.8504 393.831 37.4268ZM411.107 48.4097C412.015 50.2783 412.558 52.3578 412.579 54.5453C412.614 55.3229 412.406 55.9748 411.589 56.2048C410.782 56.4529 409.959 55.9129 409.927 55.0131C409.822 52.8496 409.292 50.835 408.305 48.915C407.913 48.1506 408.165 47.4489 408.815 47.098C409.454 46.7289 410.154 46.929 410.657 47.6301C410.8 47.8371 410.918 48.0833 411.107 48.4097ZM419.582 41.7034C423.842 49.0819 423.987 58.5705 421.866 66.7081C421.65 67.5578 421.161 68.7348 420.715 69.5238C420.34 70.2238 419.659 70.6895 418.925 70.3882C418.045 70.0021 418.106 69.0964 418.335 68.3116C418.382 68.1396 418.523 67.9616 418.598 67.7972C421.608 60.1859 421.041 49.4181 416.894 42.3613C416.242 41.3596 415.599 40.3292 414.874 39.3697C409.002 31.5197 397.063 30.4122 389.72 36.9719C389.585 37.0744 389.48 37.2313 389.345 37.3338C388.614 37.9247 387.708 37.916 387.193 37.3191C386.777 36.8098 386.844 35.9977 387.462 35.4232C388.169 34.7493 388.905 34.0829 389.713 33.5434C400.249 26.3973 413.39 30.3882 418.797 40.3437C418.818 40.3799 419.582 41.7034 419.582 41.7034Z" fill="#D2D9E0" fill-opacity="0.25"/>
<path fill-rule="evenodd" clip-rule="evenodd" d="M437.046 129.171C436.57 129.325 436.46 129.797 436.327 130.254C435.636 132.578 434.408 134.607 432.672 136.337C432.381 136.627 432.078 136.923 431.756 137.185C431.383 137.491 430.842 137.455 430.55 137.108C430.245 136.738 430.257 136.336 430.586 135.979C430.871 135.679 431.193 135.417 431.489 135.109C433.046 133.543 434.154 131.705 434.737 129.564C435.032 128.514 435.653 127.791 436.708 127.501C437.209 127.363 437.685 127.604 437.815 128.014C437.96 128.477 437.76 128.819 437.341 129.046C437.266 129.075 437.179 129.11 437.046 129.171ZM425.664 133.225C425.275 133.45 424.903 133.679 424.507 133.893C423.937 134.176 423.547 134.083 423.284 133.628C423.022 133.173 423.129 132.777 423.643 132.45C424.215 132.09 424.812 131.775 425.379 131.433C427.353 130.248 428.409 128.531 428.456 126.229C428.476 125.337 428.733 124.962 429.301 124.967C429.87 124.973 430.178 125.401 430.161 126.245C430.106 129.007 428.914 131.151 426.604 132.682C426.301 132.872 425.985 133.039 425.664 133.225ZM438.27 118.03C438.519 118.462 438.78 118.888 439.007 119.333C439.26 119.824 439.142 120.256 438.748 120.499C438.319 120.762 437.868 120.643 437.538 120.151C437.299 119.789 437.075 119.402 436.863 119.009C436.156 117.703 435.279 116.556 433.996 115.735C433.651 115.509 433.389 115.161 433.555 114.761C433.665 114.501 433.974 114.216 434.243 114.152C434.493 114.083 434.834 114.25 435.074 114.4C436.143 115.087 437.004 115.97 437.68 117.036C437.894 117.352 438.068 117.707 438.27 118.03ZM433.962 118.985C433.762 119.328 433.356 119.365 432.997 119.193C432.797 119.112 432.623 118.969 432.438 118.834C431.27 117.976 429.984 117.733 428.58 118.134C428.476 118.164 428.366 118.212 428.261 118.242C427.788 118.349 427.435 118.188 427.249 117.734C427.065 117.31 427.237 116.892 427.727 116.655C427.98 116.539 428.26 116.468 428.529 116.404C430.45 115.947 432.153 116.435 433.672 117.636C433.759 117.707 433.834 117.785 433.91 117.863C433.947 117.902 433.974 117.947 434.018 117.997C434.195 118.411 434.13 118.721 433.962 118.985ZM421.547 126.199C420.977 125.026 420.636 123.721 420.605 122.344C420.601 121.861 420.732 121.452 421.244 121.308C421.739 121.159 422.267 121.491 422.287 122.055C422.353 123.413 422.685 124.677 423.304 125.882C423.551 126.361 423.392 126.801 422.985 127.022C422.584 127.253 422.144 127.128 421.829 126.688C421.739 126.558 421.665 126.403 421.547 126.199ZM428.307 135.551C428.043 135.704 427.786 135.867 427.509 135.997C427.072 136.219 426.7 136.13 426.428 135.711C426.155 135.292 426.227 134.887 426.682 134.563C427.245 134.162 427.852 133.812 428.409 133.399C431.797 130.852 432.874 125.756 430.8 122.085C430.695 121.903 430.23 121.018 429.531 121.422C429.016 121.72 429.177 122.476 429.208 122.609C429.33 123.191 429.123 123.599 428.644 123.724C428.173 123.859 427.745 123.621 427.548 123.068C427.189 122.076 427.344 121.153 428.062 120.359C428.725 119.628 429.794 119.389 430.75 119.748C431.451 120.01 431.953 120.509 432.298 121.159C435.045 126.155 433.241 132.611 428.307 135.551ZM420.005 109.632C422.538 107.669 425.563 106.423 428.756 106.157C428.901 106.144 429.045 106.137 429.187 106.136C429.493 106.111 429.801 106.115 430.106 106.166C430.537 106.251 430.773 106.554 430.757 107.003C430.728 107.43 430.503 107.727 430.046 107.809C429.834 107.84 429.603 107.837 429.379 107.845C424.406 108.178 420.545 110.418 417.794 114.564C417.712 114.687 417.642 114.803 417.553 114.915C417.197 115.409 416.789 115.523 416.355 115.273C415.945 115.04 415.805 114.559 416.101 114.04C416.876 112.682 417.836 111.461 419.026 110.425C419.338 110.154 419.664 109.889 420.005 109.632ZM423.652 130.534C423.217 130.785 422.788 131.048 422.339 131.277C421.81 131.552 421.33 131.435 421.089 131.043C420.826 130.588 420.983 130.119 421.527 129.79C422.231 129.368 422.949 128.998 423.635 128.572C425.127 127.635 425.443 126.436 424.668 124.882C423.801 123.168 423.731 121.434 424.537 119.68C424.663 119.395 424.9 119.091 425.17 118.95C425.709 118.639 426.332 119.083 426.29 119.699C426.279 119.917 426.173 120.13 426.089 120.33C425.537 121.544 425.57 122.738 426.112 123.942C427.418 126.813 426.804 128.714 424.088 130.282C423.943 130.366 423.798 130.45 423.652 130.534ZM418.621 127.827C416.773 123.965 416.749 120.111 418.725 116.256C418.81 116.085 418.918 115.902 419.059 115.775C419.333 115.51 419.658 115.383 420.036 115.59C420.422 115.807 420.571 116.145 420.447 116.566C420.393 116.764 420.29 116.929 420.205 117.1C418.53 120.524 418.482 123.934 420.249 127.312C420.347 127.483 420.434 127.66 420.463 127.841C420.556 128.242 420.391 128.564 420.016 128.735C419.659 128.911 419.3 128.845 419.046 128.537C418.874 128.318 418.759 128.066 418.621 127.827ZM425.325 114.189C426.803 113.336 428.518 112.786 430.32 112.837C430.431 112.834 430.542 112.841 430.653 112.857C431.308 112.934 431.664 113.259 431.65 113.738C431.635 114.293 431.256 114.617 430.544 114.574C429.279 114.5 428.058 114.689 426.886 115.199C425.524 115.804 424.42 116.698 423.609 117.94C423.506 118.106 423.41 118.283 423.3 118.437C422.958 118.877 422.521 118.993 422.136 118.776C421.701 118.526 421.537 118.03 421.877 117.56C422.536 116.664 423.778 115.083 425.325 114.189ZM436.165 121.08C436.735 122.253 437.075 123.558 437.089 124.93C437.11 125.418 436.98 125.827 436.467 125.971C435.961 126.127 435.445 125.788 435.424 125.224C435.359 123.866 435.026 122.602 434.407 121.398C434.161 120.918 434.319 120.478 434.727 120.257C435.128 120.026 435.567 120.151 435.882 120.591C435.973 120.721 436.046 120.876 436.165 121.08ZM441.483 116.873C444.156 121.502 444.246 127.456 442.916 132.562C442.78 133.095 442.473 133.833 442.194 134.328C441.958 134.768 441.531 135.06 441.07 134.871C440.518 134.628 440.557 134.06 440.7 133.568C440.73 133.46 440.818 133.348 440.865 133.245C442.753 128.469 442.398 121.713 439.796 117.285C439.387 116.657 438.983 116.01 438.529 115.408C434.844 110.483 427.353 109.788 422.746 113.904C422.661 113.968 422.595 114.067 422.51 114.131C422.052 114.502 421.483 114.496 421.16 114.122C420.899 113.802 420.941 113.293 421.329 112.932C421.773 112.509 422.234 112.091 422.742 111.753C429.352 107.269 437.598 109.773 440.99 116.019C441.003 116.042 441.483 116.873 441.483 116.873Z" fill="#D2D9E0" fill-opacity="0.25"/>
<path fill-rule="evenodd" clip-rule="evenodd" d="M56.6908 173.88C55.7632 174.179 55.5507 175.099 55.2903 175.987C53.9471 180.511 51.5572 184.459 48.1782 187.827C47.6113 188.39 47.0221 188.967 46.3946 189.476C45.6683 190.073 44.616 190.002 44.0476 189.326C43.4537 188.606 43.4782 187.825 44.1183 187.131C44.6724 186.545 45.2999 186.035 45.8763 185.437C48.905 182.389 51.0625 178.812 52.1958 174.645C52.7704 172.601 53.9804 171.194 56.0331 170.629C57.0085 170.361 57.9338 170.83 58.1867 171.629C58.4683 172.529 58.0801 173.196 57.2644 173.637C57.1178 173.692 56.9489 173.76 56.6908 173.88ZM34.5396 181.769C33.7813 182.207 33.058 182.654 32.2869 183.07C31.1779 183.621 30.4188 183.44 29.9075 182.554C29.3963 181.669 29.6058 180.898 30.6063 180.262C31.7182 179.561 32.8813 178.948 33.9838 178.282C37.8264 175.975 39.8822 172.633 39.9724 168.154C40.0117 166.419 40.5114 165.688 41.6179 165.698C42.7244 165.709 43.3248 166.543 43.2918 168.186C43.1835 173.561 40.8641 177.734 36.3686 180.713C35.7792 181.083 35.1641 181.408 34.5396 181.769ZM59.0718 152.197C59.5575 153.039 60.0655 153.867 60.5066 154.734C60.9988 155.69 60.7702 156.53 60.0023 157.003C59.1675 157.514 58.2904 157.283 57.6483 156.325C57.1819 155.62 56.7474 154.868 56.3351 154.102C54.9577 151.562 53.2523 149.329 50.7537 147.732C50.0836 147.292 49.5726 146.613 49.8969 145.835C50.1099 145.329 50.7119 144.774 51.2346 144.65C51.7223 144.516 52.386 144.841 52.8518 145.133C54.9324 146.47 56.6085 148.188 57.9248 150.262C58.34 150.878 58.6788 151.568 59.0718 152.197ZM50.6881 154.057C50.2999 154.723 49.5092 154.796 48.8105 154.462C48.4213 154.303 48.0829 154.026 47.7223 153.762C45.45 152.092 42.9464 151.619 40.2147 152.399C40.0107 152.458 39.7972 152.552 39.5932 152.611C38.6719 152.818 37.986 152.505 37.6246 151.622C37.2665 150.796 37.6003 149.983 38.5531 149.521C39.0471 149.295 39.5922 149.158 40.115 149.033C43.8541 148.143 47.1682 149.093 50.1237 151.431C50.2928 151.569 50.4397 151.721 50.5866 151.872C50.66 151.948 50.7111 152.036 50.7973 152.134C51.1427 152.938 51.0159 153.543 50.6881 154.057ZM26.526 168.095C25.4168 165.813 24.7537 163.274 24.693 160.593C24.6855 159.653 24.9396 158.857 25.9373 158.576C26.8999 158.286 27.9274 158.933 27.967 160.031C28.0946 162.673 28.7417 165.133 29.9466 167.478C30.4261 168.411 30.1178 169.268 29.3244 169.697C28.5437 170.148 27.6889 169.903 27.0756 169.047C26.8999 168.794 26.7561 168.494 26.526 168.095ZM39.6819 186.297C39.1689 186.594 38.6687 186.912 38.1302 187.164C37.2793 187.596 36.5553 187.424 36.025 186.608C35.4947 185.793 35.634 185.004 36.5197 184.374C37.6156 183.594 38.7978 182.912 39.8809 182.109C46.4753 177.151 48.5709 167.233 44.535 160.088C44.3305 159.734 43.4261 158.013 42.0655 158.799C41.0618 159.378 41.3761 160.85 41.437 161.11C41.6743 162.242 41.2703 163.036 40.3395 163.278C39.4215 163.543 38.5887 163.079 38.2048 162.002C37.5074 160.073 37.8081 158.275 39.206 156.73C40.4957 155.307 42.5772 154.843 44.437 155.54C45.8024 156.051 46.7793 157.022 47.4504 158.287C52.7967 168.011 49.2854 180.576 39.6819 186.297ZM23.5247 135.854C28.456 132.033 34.3423 129.608 40.5563 129.09C40.839 129.065 41.1185 129.051 41.3948 129.049C41.991 129 42.5905 129.008 43.1837 129.108C44.0225 129.273 44.4824 129.864 44.4515 130.738C44.3952 131.567 43.9558 132.146 43.0664 132.305C42.6552 132.365 42.2056 132.359 41.7687 132.375C32.0911 133.023 24.5756 137.382 19.2221 145.451C19.063 145.691 18.9262 145.917 18.7543 146.135C18.0603 147.096 17.2666 147.318 16.421 146.833C15.6233 146.378 15.3512 145.443 15.9271 144.432C17.4353 141.79 19.3041 139.412 21.6197 137.396C22.2271 136.869 22.862 136.354 23.5247 135.854ZM30.624 176.532C29.7765 177.022 28.9417 177.533 28.0686 177.978C27.0393 178.513 26.1048 178.286 25.6351 177.524C25.1239 176.638 25.4288 175.724 26.4867 175.084C27.8568 174.263 29.2557 173.544 30.5907 172.714C33.4933 170.891 34.109 168.558 32.6004 165.533C30.9127 162.197 30.7779 158.822 32.3457 155.408C32.5906 154.853 33.0522 154.262 33.578 153.988C34.6263 153.383 35.839 154.247 35.7576 155.445C35.7358 155.871 35.529 156.285 35.3669 156.674C34.292 159.036 34.3554 161.361 35.4105 163.704C37.9522 169.291 36.7578 172.991 31.4716 176.043C31.1891 176.206 30.9066 176.369 30.624 176.532ZM20.8319 171.265C17.2356 163.748 17.1882 156.248 21.0341 148.744C21.1995 148.413 21.4095 148.055 21.6834 147.809C22.2185 147.293 22.8495 147.047 23.5866 147.448C24.3364 147.871 24.6274 148.529 24.386 149.348C24.2813 149.733 24.0808 150.055 23.9154 150.387C20.6552 157.051 20.5612 163.687 24.0001 170.262C24.1918 170.594 24.3612 170.939 24.4159 171.291C24.5986 172.071 24.2773 172.699 23.5475 173.032C22.8528 173.374 22.1543 173.246 21.6594 172.646C21.3241 172.22 21.1003 171.729 20.8319 171.265ZM33.8792 144.723C36.7565 143.061 40.0937 141.991 43.6012 142.091C43.8159 142.085 44.0317 142.098 44.2486 142.13C45.5242 142.279 46.2169 142.913 46.1893 143.844C46.1587 144.924 45.4229 145.555 44.0358 145.471C41.574 145.327 39.199 145.695 36.9171 146.688C34.2657 147.864 32.1187 149.606 30.5401 152.023C30.3396 152.345 30.1519 152.69 29.9386 152.99C29.2732 153.846 28.4221 154.072 27.6723 153.649C26.8267 153.163 26.5067 152.197 27.1688 151.283C28.4517 149.539 30.8681 146.461 33.8792 144.723ZM54.9753 158.134C56.0845 160.416 56.7476 162.955 56.7732 165.627C56.8158 166.576 56.5617 167.372 55.564 167.653C54.5791 167.956 53.5739 167.297 53.5343 166.198C53.4067 163.556 52.7596 161.096 51.5547 158.751C51.0753 157.818 51.3835 156.961 52.177 156.532C52.9576 156.082 53.8125 156.326 54.4257 157.182C54.6014 157.435 54.7452 157.736 54.9753 158.134ZM65.3251 149.945C70.5271 158.955 70.7037 170.542 68.1139 180.479C67.8505 181.516 67.2528 182.954 66.7087 183.917C66.2506 184.772 65.4191 185.341 64.5227 184.973C63.4475 184.501 63.5227 183.395 63.8021 182.437C63.8593 182.227 64.0312 182.01 64.1234 181.809C67.7982 172.514 67.1062 159.366 62.0418 150.748C61.2464 149.525 60.4604 148.267 59.5758 147.095C52.4057 137.509 37.8259 136.157 28.8597 144.167C28.694 144.292 28.5667 144.484 28.4011 144.609C27.5091 145.331 26.4027 145.32 25.7737 144.591C25.2659 143.969 25.3476 142.978 26.1025 142.276C26.9656 141.453 27.8638 140.639 28.8514 139.981C41.7164 131.254 57.7641 136.128 64.3665 148.285C64.3921 148.329 65.3251 149.945 65.3251 149.945Z" fill="#D2D9E0" fill-opacity="0.25"/>
<path fill-rule="evenodd" clip-rule="evenodd" d="M81.5115 61.3041C80.752 61.5493 80.5779 62.3024 80.3647 63.0298C79.2647 66.7348 77.3076 69.9676 74.5404 72.7255C74.0762 73.1869 73.5937 73.6589 73.0798 74.0764C72.4851 74.5648 71.6233 74.5064 71.1578 73.9533C70.6714 73.3639 70.6916 72.7238 71.2157 72.1553C71.6695 71.6758 72.1834 71.2582 72.6554 70.7682C75.1356 68.2726 76.9024 65.343 77.8305 61.9307C78.3011 60.257 79.2919 59.1048 80.973 58.6419C81.7717 58.4224 82.5295 58.8068 82.7365 59.4608C82.9672 60.1978 82.6493 60.7439 81.9813 61.1054C81.8612 61.1506 81.7229 61.2062 81.5115 61.3041ZM63.3716 67.7647C62.7506 68.1232 62.1583 68.4894 61.5268 68.8298C60.6186 69.2816 59.997 69.1329 59.5783 68.4077C59.1596 67.6826 59.3312 67.0517 60.1505 66.5303C61.0611 65.9563 62.0136 65.4547 62.9164 64.9093C66.0632 63.02 67.7467 60.2834 67.8206 56.615C67.8528 55.1944 68.262 54.5956 69.1681 54.6042C70.0742 54.6129 70.5659 55.2958 70.5388 56.6409C70.4502 61.0431 68.5508 64.4602 64.8694 66.8999C64.3867 67.2028 63.883 67.4694 63.3716 67.7647ZM83.4614 43.548C83.8591 44.2369 84.2751 44.9153 84.6363 45.6253C85.0394 46.4078 84.8522 47.096 84.2234 47.4832C83.5398 47.9021 82.8215 47.7125 82.2957 46.9283C81.9138 46.3511 81.5579 45.7347 81.2203 45.1078C80.0923 43.0276 78.6957 41.1992 76.6496 39.8908C76.1008 39.5308 75.6823 38.9748 75.9479 38.338C76.1223 37.923 76.6153 37.4692 77.0434 37.3671C77.4428 37.2574 77.9862 37.5237 78.3678 37.7627C80.0716 38.8578 81.4442 40.265 82.5221 41.9632C82.8621 42.4679 83.1396 43.0328 83.4614 43.548ZM76.5958 45.0705C76.2779 45.6166 75.6304 45.6762 75.0582 45.4023C74.7395 45.272 74.4624 45.0452 74.1671 44.829C72.3063 43.462 70.256 43.0745 68.019 43.7134C67.8519 43.7615 67.6771 43.8383 67.51 43.8864C66.7556 44.0561 66.1939 43.8003 65.8979 43.0768C65.6047 42.4001 65.878 41.7346 66.6583 41.3566C67.0628 41.1714 67.5092 41.0588 67.9373 40.9566C70.9994 40.2281 73.7133 41.0059 76.1336 42.9201C76.2722 43.0335 76.3924 43.1575 76.5127 43.2814C76.5728 43.3434 76.6147 43.4159 76.6853 43.496C76.9681 44.1546 76.8642 44.6496 76.5958 45.0705ZM56.8091 56.5669C55.9008 54.6983 55.3577 52.6188 55.308 50.4236C55.3019 49.6537 55.51 49.0017 56.327 48.7717C57.1153 48.5342 57.9568 49.0636 57.9892 49.9634C58.0936 52.1269 58.6236 54.1415 59.6103 56.0615C60.0029 56.8259 59.7505 57.5276 59.1007 57.8785C58.4614 58.2476 57.7614 58.0475 57.2592 57.3464C57.1153 57.1394 56.9975 56.8932 56.8091 56.5669ZM67.5827 71.4731C67.1626 71.7156 66.753 71.9763 66.3119 72.1826C65.6152 72.5365 65.0223 72.3954 64.588 71.7276C64.1537 71.0598 64.2678 70.4137 64.9931 69.8983C65.8906 69.2593 66.8587 68.7004 67.7457 68.0432C73.1459 63.9827 74.862 55.8611 71.557 50.0101C71.3895 49.72 70.6488 48.3106 69.5346 48.9539C68.7127 49.4284 68.9701 50.6335 69.0199 50.8464C69.2143 51.7736 68.8834 52.4239 68.1212 52.6222C67.3695 52.8387 66.6875 52.4589 66.3731 51.5769C65.8019 49.9971 66.0482 48.5254 67.193 47.2602C68.2491 46.0945 69.9537 45.7146 71.4767 46.2856C72.5948 46.7036 73.3948 47.4987 73.9444 48.535C78.3226 56.4979 75.4472 66.7875 67.5827 71.4731ZM54.3512 30.1639C58.3896 27.0347 63.21 25.0493 68.2987 24.6252C68.5302 24.6044 68.7591 24.5931 68.9854 24.5913C69.4737 24.5512 69.9646 24.5578 70.4504 24.6399C71.1373 24.7751 71.5139 25.2587 71.4886 25.9742C71.4424 26.6536 71.0827 27.1272 70.3543 27.2576C70.0175 27.307 69.6493 27.302 69.2916 27.3152C61.3664 27.846 55.2118 31.4155 50.8278 38.0236C50.6975 38.2197 50.5855 38.4053 50.4447 38.5832C49.8764 39.3706 49.2264 39.5525 48.534 39.1546C47.8807 38.7824 47.6578 38.0167 48.1295 37.1885C49.3645 35.0251 50.8949 33.0779 52.7913 31.4271C53.2886 30.995 53.8086 30.5739 54.3512 30.1639ZM60.165 63.4763C59.471 63.877 58.7873 64.2959 58.0723 64.6603C57.2294 65.0986 56.4641 64.912 56.0795 64.288C55.6608 63.5629 55.9106 62.8144 56.7769 62.2901C57.8989 61.6181 59.0445 61.0292 60.1378 60.3497C62.5147 58.8565 63.019 56.9458 61.7835 54.4684C60.4015 51.7372 60.291 48.9728 61.575 46.1769C61.7755 45.7228 62.1535 45.2386 62.5841 45.0142C63.4426 44.5186 64.4357 45.2263 64.369 46.2075C64.3511 46.5562 64.1818 46.8957 64.049 47.2141C63.1688 49.1484 63.2207 51.0522 64.0847 52.9706C66.1662 57.546 65.1881 60.5762 60.8591 63.0755C60.6278 63.2091 60.3964 63.3427 60.165 63.4763ZM52.1461 59.1624C49.201 53.0068 49.1622 46.8653 52.3117 40.7202C52.4471 40.4486 52.6191 40.156 52.8434 39.9539C53.2816 39.5318 53.7984 39.3301 54.4019 39.6584C55.016 40.0049 55.2543 40.5441 55.0566 41.2142C54.9708 41.5296 54.8067 41.7936 54.6712 42.0652C52.0014 47.5225 51.9244 52.9573 54.7406 58.3412C54.8976 58.6132 55.0363 58.8957 55.0811 59.1841C55.2307 59.8228 54.9676 60.3373 54.3699 60.6099C53.801 60.89 53.2291 60.7851 52.8237 60.294C52.5491 59.9449 52.3659 59.5431 52.1461 59.1624ZM62.8308 37.4268C65.187 36.0664 67.9199 35.1896 70.7923 35.2716C70.9681 35.2668 71.1448 35.2775 71.3224 35.3039C72.367 35.426 72.9343 35.9445 72.9117 36.7069C72.8867 37.5915 72.2841 38.1086 71.1482 38.0393C69.1322 37.9221 67.1872 38.2232 65.3186 39.0361C63.1472 39.9997 61.389 41.4257 60.0963 43.4049C59.9321 43.6688 59.7784 43.951 59.6037 44.1968C59.0588 44.8982 58.3619 45.083 57.7478 44.7366C57.0554 44.3387 56.7933 43.5473 57.3355 42.7991C58.3861 41.3707 60.3649 38.8504 62.8308 37.4268ZM80.1067 48.4097C81.015 50.2783 81.5581 52.3578 81.579 54.5453C81.6139 55.3229 81.4058 55.9748 80.5888 56.2048C79.7822 56.4529 78.9591 55.9129 78.9266 55.0131C78.8222 52.8496 78.2923 50.835 77.3055 48.915C76.9129 48.1506 77.1653 47.4489 77.8151 47.098C78.4544 46.7289 79.1544 46.929 79.6566 47.6301C79.8005 47.8371 79.9183 48.0833 80.1067 48.4097ZM88.5823 41.7034C92.8423 49.0819 92.987 58.5705 90.8661 66.7081C90.6504 67.5578 90.161 68.7348 89.7154 69.5238C89.3403 70.2238 88.6593 70.6895 87.9252 70.3882C87.0448 70.0021 87.1063 69.0964 87.3352 68.3116C87.3819 68.1396 87.5227 67.9616 87.5983 67.7972C90.6075 60.1859 90.0409 49.4181 85.8936 42.3613C85.2422 41.3596 84.5986 40.3292 83.8741 39.3697C78.0024 31.5197 66.0627 30.4122 58.7202 36.9719C58.5845 37.0744 58.4803 37.2313 58.3446 37.3338C57.6142 37.9247 56.7081 37.916 56.193 37.3191C55.7772 36.8098 55.8441 35.9977 56.4622 35.4232C57.1691 34.7493 57.9046 34.0829 58.7134 33.5434C69.2487 26.3973 82.3905 30.3882 87.7973 40.3437C87.8182 40.3799 88.5823 41.7034 88.5823 41.7034Z" fill="#D2D9E0" fill-opacity="0.25"/>
<path fill-rule="evenodd" clip-rule="evenodd" d="M106.046 129.171C105.57 129.325 105.46 129.797 105.327 130.254C104.636 132.578 103.408 134.607 101.672 136.337C101.381 136.627 101.078 136.923 100.756 137.185C100.383 137.491 99.8418 137.455 99.5498 137.108C99.2446 136.738 99.2572 136.336 99.5861 135.979C99.8708 135.679 100.193 135.417 100.489 135.109C102.046 133.543 103.154 131.705 103.737 129.564C104.032 128.514 104.653 127.791 105.708 127.501C106.209 127.363 106.685 127.604 106.815 128.014C106.96 128.477 106.76 128.819 106.341 129.046C106.266 129.075 106.179 129.11 106.046 129.171ZM94.6644 133.225C94.2747 133.45 93.9031 133.679 93.5068 133.893C92.937 134.176 92.547 134.083 92.2843 133.628C92.0216 133.173 92.1292 132.777 92.6433 132.45C93.2146 132.09 93.8123 131.775 94.3787 131.433C96.3532 130.248 97.4095 128.531 97.4558 126.229C97.4761 125.337 97.7328 124.962 98.3013 124.967C98.8699 124.973 99.1784 125.401 99.1614 126.245C99.1058 129.007 97.914 131.151 95.6041 132.682C95.3013 132.872 94.9852 133.039 94.6644 133.225ZM107.27 118.03C107.519 118.462 107.78 118.888 108.007 119.333C108.26 119.824 108.142 120.256 107.748 120.499C107.319 120.762 106.868 120.643 106.538 120.151C106.299 119.789 106.075 119.402 105.863 119.009C105.156 117.703 104.279 116.556 102.996 115.735C102.651 115.509 102.389 115.161 102.555 114.761C102.665 114.501 102.974 114.216 103.243 114.152C103.493 114.083 103.834 114.25 104.074 114.4C105.143 115.087 106.004 115.97 106.68 117.036C106.894 117.352 107.068 117.707 107.27 118.03ZM102.962 118.985C102.762 119.328 102.356 119.365 101.997 119.193C101.797 119.112 101.623 118.969 101.438 118.834C100.27 117.976 98.9839 117.733 97.5803 118.134C97.4755 118.164 97.3658 118.212 97.261 118.242C96.7876 118.349 96.4352 118.188 96.2495 117.734C96.0655 117.31 96.237 116.892 96.7266 116.655C96.9804 116.539 97.2605 116.468 97.5291 116.404C99.4504 115.947 101.153 116.435 102.672 117.636C102.759 117.707 102.834 117.785 102.91 117.863C102.947 117.902 102.974 117.947 103.018 117.997C103.195 118.411 103.13 118.721 102.962 118.985ZM90.5468 126.199C89.9768 125.026 89.6361 123.721 89.6049 122.344C89.6011 121.861 89.7316 121.452 90.2443 121.308C90.7389 121.159 91.2669 121.491 91.2872 122.055C91.3527 123.413 91.6852 124.677 92.3044 125.882C92.5507 126.361 92.3923 126.801 91.9846 127.022C91.5835 127.253 91.1443 127.128 90.8292 126.688C90.7389 126.558 90.665 126.403 90.5468 126.199ZM97.3066 135.551C97.043 135.704 96.786 135.867 96.5093 135.997C96.0721 136.219 95.7001 136.13 95.4276 135.711C95.1551 135.292 95.2267 134.887 95.6818 134.563C96.2449 134.162 96.8523 133.812 97.4088 133.399C100.797 130.852 101.874 125.756 99.8002 122.085C99.6952 121.903 99.2304 121.018 98.5313 121.422C98.0156 121.72 98.1771 122.476 98.2084 122.609C98.3303 123.191 98.1227 123.599 97.6445 123.724C97.1728 123.859 96.7449 123.621 96.5476 123.068C96.1892 122.076 96.3438 121.153 97.0621 120.359C97.7247 119.628 98.7943 119.389 99.7499 119.748C100.451 120.01 100.953 120.509 101.298 121.159C104.045 126.155 102.241 132.611 97.3066 135.551ZM89.0046 109.632C91.5384 107.669 94.563 106.423 97.7559 106.157C97.9011 106.144 98.0447 106.137 98.1867 106.136C98.4931 106.111 98.8011 106.115 99.1059 106.166C99.5369 106.251 99.7732 106.554 99.7573 107.003C99.7284 107.43 99.5026 107.727 99.0456 107.809C98.8343 107.84 98.6033 107.837 98.3788 107.845C93.4062 108.178 89.5446 110.418 86.7939 114.564C86.7121 114.687 86.6418 114.803 86.5534 114.915C86.1969 115.409 85.7891 115.523 85.3546 115.273C84.9447 115.04 84.8049 114.559 85.1008 114.04C85.8757 112.682 86.836 111.461 88.0258 110.425C88.3379 110.154 88.6641 109.889 89.0046 109.632ZM92.6524 130.534C92.2169 130.785 91.788 131.048 91.3394 131.277C90.8105 131.552 90.3303 131.435 90.089 131.043C89.8263 130.588 89.983 130.119 90.5266 129.79C91.2305 129.368 91.9493 128.998 92.6353 128.572C94.1267 127.635 94.4431 126.436 93.6679 124.882C92.8008 123.168 92.7315 121.434 93.5371 119.68C93.6629 119.395 93.9001 119.091 94.1702 118.95C94.7089 118.639 95.332 119.083 95.2902 119.699C95.279 119.917 95.1727 120.13 95.0894 120.33C94.5371 121.544 94.5697 122.738 95.1118 123.942C96.4178 126.813 95.8041 128.714 93.0879 130.282C92.9428 130.366 92.7976 130.45 92.6524 130.534ZM87.621 127.827C85.7731 123.965 85.7488 120.111 87.7249 116.256C87.8099 116.085 87.9178 115.902 88.0585 115.775C88.3334 115.51 88.6577 115.383 89.0364 115.59C89.4217 115.807 89.5712 116.145 89.4472 116.566C89.3934 116.764 89.2903 116.929 89.2054 117.1C87.5302 120.524 87.4819 123.934 89.2489 127.312C89.3474 127.483 89.4344 127.66 89.4625 127.841C89.5564 128.242 89.3913 128.564 89.0163 128.735C88.6594 128.911 88.3005 128.845 88.0462 128.537C87.8739 128.318 87.7589 128.066 87.621 127.827ZM94.325 114.189C95.8034 113.336 97.5181 112.786 99.3204 112.837C99.4307 112.834 99.5416 112.841 99.653 112.857C100.308 112.934 100.664 113.259 100.65 113.738C100.635 114.293 100.256 114.617 99.5437 114.574C98.2788 114.5 97.0584 114.689 95.886 115.199C94.5236 115.804 93.4204 116.698 92.6093 117.94C92.5063 118.106 92.4098 118.283 92.3002 118.437C91.9583 118.877 91.521 118.993 91.1358 118.776C90.7013 118.526 90.5368 118.03 90.8771 117.56C91.5362 116.664 92.7778 115.083 94.325 114.189ZM105.165 121.08C105.735 122.253 106.075 123.558 106.089 124.93C106.11 125.418 105.98 125.827 105.467 125.971C104.961 126.127 104.445 125.788 104.424 125.224C104.359 123.866 104.026 122.602 103.407 121.398C103.161 120.918 103.319 120.478 103.727 120.257C104.128 120.026 104.567 120.151 104.882 120.591C104.973 120.721 105.046 120.876 105.165 121.08ZM110.483 116.873C113.156 121.502 113.246 127.456 111.916 132.562C111.78 133.095 111.473 133.833 111.194 134.328C110.958 134.768 110.531 135.06 110.07 134.871C109.518 134.628 109.557 134.06 109.7 133.568C109.73 133.46 109.818 133.348 109.865 133.245C111.753 128.469 111.398 121.713 108.796 117.285C108.387 116.657 107.983 116.01 107.529 115.408C103.844 110.483 96.3529 109.788 91.7459 113.904C91.6608 113.968 91.5953 114.067 91.5102 114.131C91.0519 114.502 90.4834 114.496 90.1602 114.122C89.8993 113.802 89.9413 113.293 90.3291 112.932C90.7726 112.509 91.2341 112.091 91.7416 111.753C98.3519 107.269 106.598 109.773 109.99 116.019C110.003 116.042 110.483 116.873 110.483 116.873Z" fill="#D2D9E0" fill-opacity="0.25"/>
<path d="M348.936 205.634C348.936 205.715 293.11 205.769 224.26 205.769C155.391 205.769 99.584 205.715 99.584 205.634C99.584 205.553 155.391 205.499 224.26 205.499C293.11 205.499 348.936 205.553 348.936 205.634Z" fill="#263238"/>
<path d="M346.35 119.311H202.246V25.1348H346.35V119.311Z" fill="#FAFAFA"/>
<path d="M346.35 119.312C346.35 118.421 346.296 82.5854 346.242 25.1349L346.35 25.2429C306.818 25.2429 256.671 25.2698 202.274 25.2698H202.247L202.409 25.1349C202.382 58.623 202.382 90.4919 202.382 119.312L202.247 119.177C287.052 119.258 345.186 119.312 346.35 119.312C345.186 119.312 287.052 119.366 202.247 119.447H202.138V119.312C202.138 90.4919 202.111 58.623 202.111 25.1349V25H202.247H202.274C256.671 25 306.818 25 346.35 25.027H346.458V25.1349C346.404 82.5854 346.35 118.421 346.35 119.312Z" fill="#263238"/>
<path d="M246.3 77.1345L260.461 77.3504C260.353 84.8521 253.99 91.0047 246.3 91.0047C246.264 91.0047 246.237 91.0047 246.219 91.0047L246.3 77.1345Z" fill="#D2D9E0"/>
<path d="M269.72 96.2667C269.72 96.2667 269.621 96.2757 269.422 96.2936C269.205 96.2936 268.917 96.3026 268.556 96.3206C267.77 96.3206 266.687 96.3476 265.388 96.3476H265.36L265.333 96.3206C264.061 94.7285 262.436 92.6777 260.649 90.438C259.268 88.6839 257.968 87.0379 256.885 85.6617L256.967 85.6886C255.234 85.6886 253.826 85.6617 252.77 85.6617C252.3 85.6437 251.912 85.6347 251.605 85.6347C251.335 85.6077 251.199 85.6077 251.199 85.6077C251.199 85.5807 251.335 85.5807 251.605 85.5807C251.912 85.5627 252.3 85.5537 252.77 85.5537C253.826 85.5267 255.234 85.5267 256.967 85.4998H256.994L257.021 85.5537C258.131 86.9299 259.431 88.576 260.812 90.303C262.572 92.5697 264.196 94.6206 265.469 96.2127L265.388 96.1857C266.687 96.1857 267.77 96.2127 268.556 96.2127C268.917 96.2307 269.205 96.2397 269.422 96.2397C269.621 96.2577 269.72 96.2667 269.72 96.2667Z" fill="#263238"/>
<path d="M274.812 97.8858C274.812 97.9667 272.754 97.9937 270.236 97.9937C267.691 97.9937 265.633 97.9667 265.633 97.8858C265.633 97.8318 267.691 97.7778 270.236 97.7778C272.754 97.7778 274.812 97.8318 274.812 97.8858Z" fill="#263238"/>
<path d="M274.812 99.5857C274.812 99.6397 272.754 99.6937 270.236 99.6937C267.691 99.6937 265.633 99.6397 265.633 99.5857C265.633 99.5318 267.691 99.4778 270.236 99.4778C272.754 99.4778 274.812 99.5318 274.812 99.5857Z" fill="#263238"/>
<path d="M244.054 75.1377L243.864 88.9809C236.147 88.8729 229.893 82.6665 229.893 75.1377C229.893 67.528 236.283 61.2676 244.054 61.2676C251.825 61.2676 258.215 67.528 258.215 75.1377H244.054Z" fill="#D90452"/>
<path d="M238.528 70.6041C238.528 70.6041 238.447 70.6221 238.284 70.6581C238.086 70.694 237.842 70.73 237.553 70.766C236.903 70.8739 236.064 70.9819 235.008 71.1168L234.981 71.1438L234.954 71.0898C233.979 70.1723 232.815 69.039 231.542 67.7977C229.918 66.2056 228.455 64.7754 227.399 63.696C226.894 63.1923 226.479 62.7785 226.154 62.4547C225.856 62.1309 225.721 61.969 225.721 61.969C225.721 61.942 225.91 62.1039 226.208 62.3738C226.551 62.6976 226.984 63.1023 227.508 63.5881C228.591 64.6135 230.08 66.0707 231.705 67.6628C232.95 68.8771 234.115 70.0374 235.062 70.9819L235.008 70.9549C236.037 70.847 236.903 70.739 237.553 70.6581C237.842 70.6401 238.077 70.6221 238.257 70.6041C238.42 70.5861 238.51 70.5861 238.528 70.6041Z" fill="#263238"/>
<path d="M222.121 61.3484C222.121 61.4024 220.09 61.4564 217.545 61.4564C215.027 61.4564 212.969 61.4024 212.969 61.3484C212.969 61.2945 215.027 61.2405 217.545 61.2405C220.09 61.2405 222.121 61.2945 222.121 61.3484Z" fill="#263238"/>
<path d="M222.121 63.0484C222.121 63.1023 220.09 63.1563 217.545 63.1563C215.027 63.1563 212.969 63.1023 212.969 63.0484C212.969 62.9944 215.027 62.9404 217.545 62.9404C220.09 62.9404 222.121 62.9944 222.121 63.0484Z" fill="#263238"/>
<path d="M293.63 47.748L293.576 39.1399C291.031 39.1669 288.431 40.1653 286.455 41.9193C284.099 43.9702 282.61 47.0734 283.016 50.8243C283.052 51.238 283.115 51.6608 283.205 52.0926C283.223 52.0926 283.232 52.1016 283.232 52.1195L293.63 49.7719V47.748Z" fill="#740646"/>
<path d="M304.353 45.1035C302.917 42.0812 300.047 39.6526 295.959 39.2478C295.85 39.2298 295.742 39.2208 295.634 39.2208C295.562 39.2208 295.489 39.2118 295.417 39.1938C295.219 39.1938 295.011 39.1938 294.794 39.1938C294.794 39.1938 294.785 39.1938 294.767 39.1938C294.749 39.1938 294.74 39.1938 294.74 39.1938L294.794 47.802L294.821 49.8258L305.219 52.0925H305.246C305.381 51.364 305.463 50.6084 305.463 49.8528C305.463 48.2337 305.084 46.5877 304.353 45.1035Z" fill="#740646"/>
<g opacity="0.3">
<path d="M304.353 45.1035C302.917 42.0812 300.047 39.6526 295.959 39.2478C295.85 39.2298 295.742 39.2208 295.634 39.2208C295.562 39.2208 295.489 39.2118 295.417 39.1938C295.219 39.1938 295.011 39.1938 294.794 39.1938C294.794 39.1938 294.785 39.1938 294.767 39.1938C294.749 39.1938 294.74 39.1938 294.74 39.1938L294.794 47.802L294.821 49.8258L305.219 52.0925H305.246C305.381 51.364 305.463 50.6084 305.463 49.8528C305.463 48.2337 305.084 46.5877 304.353 45.1035Z" fill="black"/>
</g>
<path d="M294.2 50.8513L283.775 53.199C284.858 57.9483 289.11 61.4833 294.2 61.4833C299.318 61.4833 303.569 57.8943 304.625 53.118L294.2 50.8513Z" fill="#D90452"/>
<path d="M334.706 49.3131C334.706 49.3941 329.345 49.4481 322.684 49.4481C316.05 49.4481 310.662 49.3941 310.662 49.3131C310.662 49.2322 316.05 49.1782 322.684 49.1782C329.345 49.1782 334.706 49.2322 334.706 49.3131Z" fill="#263238"/>
<path d="M334.706 46.5877C334.706 46.6417 329.345 46.7226 322.684 46.7226C316.05 46.7226 310.662 46.6417 310.662 46.5877C310.662 46.5067 316.05 46.4258 322.684 46.4258C329.345 46.4258 334.706 46.5067 334.706 46.5877Z" fill="#263238"/>
<path d="M334.706 43.8354C334.706 43.9163 329.345 43.9973 322.684 43.9973C316.05 43.9973 310.662 43.9163 310.662 43.8354C310.662 43.7544 316.05 43.7004 322.684 43.7004C329.345 43.7004 334.706 43.7544 334.706 43.8354Z" fill="#263238"/>
<path d="M334.706 51.8498C334.706 51.9307 329.345 51.9847 322.684 51.9847C316.05 51.9847 310.662 51.9307 310.662 51.8498C310.662 51.7688 316.05 51.7148 322.684 51.7148C329.345 51.7148 334.706 51.7688 334.706 51.8498Z" fill="#263238"/>
<path d="M327.261 54.602C327.261 54.6829 323.579 54.7639 319.003 54.7639C314.454 54.7639 310.771 54.6829 310.771 54.602C310.771 54.548 314.454 54.467 319.003 54.467C323.579 54.467 327.261 54.548 327.261 54.602Z" fill="#263238"/>
<path d="M287.944 101.934H285.453V74.3823H287.944V101.934Z" fill="#D90452"/>
<path d="M292.71 101.934H290.246V83.7458H292.71V101.934Z" fill="#740646"/>
<path d="M297.503 102.096H295.012V77.8093H297.503V102.096Z" fill="#D90452"/>
<path d="M302.269 101.934H299.805V75.4346H302.269V101.934Z" fill="#740646"/>
<path d="M307.062 101.934H304.598V84.3125H307.062V101.934Z" fill="#D90452"/>
<path d="M311.854 101.933H309.363V87.7664H311.854V101.933Z" fill="#740646"/>
<path d="M316.62 101.933H314.156V77.2153H316.62V101.933Z" fill="#D90452"/>
<path d="M321.413 101.933H318.922V81.668H321.413V101.933Z" fill="#740646"/>
<path d="M326.175 101.933H323.711V78.106H326.175V101.933Z" fill="#D90452"/>
<path d="M330.97 101.934H328.479V85.7158H330.97V101.934Z" fill="#740646"/>
<path d="M335.735 101.934H333.271V82.6125H335.735V101.934Z" fill="#D90452"/>
<path d="M336.764 103.85C336.764 103.93 325.013 103.957 310.527 103.957C296.04 103.957 284.289 103.93 284.289 103.85C284.289 103.796 296.04 103.769 310.527 103.769C325.013 103.769 336.764 103.796 336.764 103.85Z" fill="#263238"/>
<path d="M289.003 106.035C289.003 106.089 288.163 106.143 287.162 106.143C286.133 106.143 285.32 106.089 285.32 106.035C285.32 105.981 286.133 105.927 287.162 105.927C288.163 105.927 289.003 105.981 289.003 106.035Z" fill="#263238"/>
<path d="M295.093 106.143C295.093 106.197 294.119 106.251 292.9 106.251C291.682 106.251 290.707 106.197 290.707 106.143C290.707 106.089 291.682 106.035 292.9 106.035C294.119 106.035 295.093 106.089 295.093 106.143Z" fill="#263238"/>
<path d="M300.293 106.143C300.293 106.197 299.318 106.251 298.099 106.251C296.881 106.251 295.906 106.197 295.906 106.143C295.906 106.089 296.881 106.035 298.099 106.035C299.318 106.035 300.293 106.089 300.293 106.143Z" fill="#263238"/>
<path d="M305.49 106.143C305.49 106.197 304.515 106.251 303.297 106.251C302.078 106.251 301.104 106.197 301.104 106.143C301.104 106.089 302.078 106.035 303.297 106.035C304.515 106.035 305.49 106.089 305.49 106.143Z" fill="#263238"/>
<path d="M310.689 106.143C310.689 106.197 309.714 106.251 308.496 106.251C307.277 106.251 306.303 106.197 306.303 106.143C306.303 106.089 307.277 106.035 308.496 106.035C309.714 106.035 310.689 106.089 310.689 106.143Z" fill="#263238"/>
<path d="M315.888 106.143C315.888 106.197 314.914 106.251 313.695 106.251C312.477 106.251 311.502 106.197 311.502 106.143C311.502 106.089 312.477 106.035 313.695 106.035C314.914 106.035 315.888 106.089 315.888 106.143Z" fill="#263238"/>
<path d="M321.086 106.143C321.086 106.197 320.111 106.251 318.892 106.251C317.674 106.251 316.699 106.197 316.699 106.143C316.699 106.089 317.674 106.035 318.892 106.035C320.111 106.035 321.086 106.089 321.086 106.143Z" fill="#263238"/>
<path d="M326.285 106.143C326.285 106.197 325.31 106.251 324.092 106.251C322.873 106.251 321.898 106.197 321.898 106.143C321.898 106.089 322.873 106.035 324.092 106.035C325.31 106.035 326.285 106.089 326.285 106.143Z" fill="#263238"/>
<path d="M331.484 106.143C331.484 106.197 330.509 106.251 329.291 106.251C328.072 106.251 327.098 106.197 327.098 106.143C327.098 106.089 328.072 106.035 329.291 106.035C330.509 106.035 331.484 106.089 331.484 106.143Z" fill="#263238"/>
<path d="M336.683 106.143C336.683 106.197 335.709 106.251 334.49 106.251C333.272 106.251 332.297 106.197 332.297 106.143C332.297 106.089 333.272 106.035 334.49 106.035C335.709 106.035 336.683 106.089 336.683 106.143Z" fill="#263238"/>
<path d="M219.766 42.8371C219.766 44.1323 218.71 45.2117 217.383 45.2117C216.056 45.2117 215 44.1323 215 42.8371C215 41.5148 216.056 40.4624 217.383 40.4624C218.71 40.4624 219.766 41.5148 219.766 42.8371Z" fill="#D90452"/>
<path d="M260.732 40.9479C260.732 41.0289 252.718 41.1098 242.807 41.1098C232.87 41.1098 224.855 41.0289 224.855 40.9479C224.855 40.8939 232.87 40.813 242.807 40.813C252.718 40.813 260.732 40.8939 260.732 40.9479Z" fill="#D90452"/>
<path d="M239.261 43.8354C239.261 43.8623 239.071 43.8623 238.692 43.8893C238.34 43.8893 237.826 43.9163 237.176 43.9433C235.903 43.9433 234.143 43.9703 232.194 43.9703C230.217 43.9703 228.457 43.9433 227.185 43.9433C226.535 43.9163 226.02 43.8893 225.668 43.8893C225.316 43.8623 225.1 43.8623 225.1 43.8354C225.1 43.8084 225.316 43.7814 225.668 43.7814C226.02 43.7544 226.535 43.7544 227.185 43.7274C228.457 43.7004 230.217 43.7004 232.194 43.7004C234.143 43.7004 235.903 43.7004 237.176 43.7274C237.826 43.7544 238.34 43.7544 238.692 43.7814C239.071 43.7814 239.261 43.8084 239.261 43.8354Z" fill="#D90452"/>
<path d="M132.739 186.691L129.544 199.293L124.156 208.549C123.75 209.223 124.02 210.06 124.697 210.41C125.103 210.599 125.564 210.599 125.943 210.383C128.353 209.088 137.261 204.231 137.45 203.314C137.667 202.234 141.702 190.226 141.702 190.226L132.739 186.691Z" fill="#100E0F"/>
<path opacity="0.6" d="M124.697 210.41L137.694 202.45L137.532 202.99C137.396 203.448 137.126 203.853 136.719 204.123C135.663 204.825 132.712 206.741 125.97 210.41C125.591 210.626 125.103 210.626 124.697 210.41Z" fill="white"/>
<g opacity="0.6">
<path d="M136.232 197.701C135.853 197.836 135.609 198.294 135.717 198.672C135.853 199.05 136.286 199.293 136.665 199.158C137.044 199.023 137.342 198.51 137.206 198.133C137.044 197.782 136.502 197.539 136.15 197.728" fill="white"/>
</g>
<path d="M129.111 205.742C129.03 205.742 128.921 205.014 128.272 204.447C127.649 203.88 126.891 203.853 126.891 203.772C126.891 203.745 127.08 203.691 127.378 203.718C127.703 203.772 128.109 203.934 128.461 204.231C128.813 204.555 129.03 204.933 129.084 205.229C129.165 205.526 129.138 205.715 129.111 205.742Z" fill="#263238"/>
<path d="M127.73 207.172C127.676 207.199 127.378 206.687 126.782 206.309C126.186 205.931 125.591 205.904 125.591 205.823C125.564 205.742 126.24 205.634 126.917 206.066C127.621 206.498 127.811 207.145 127.73 207.172Z" fill="#263238"/>
<path d="M131.358 204.042C131.304 204.069 130.844 203.287 129.977 202.639C129.084 201.964 128.19 201.775 128.217 201.694C128.217 201.613 129.192 201.694 130.14 202.396C131.088 203.098 131.44 204.015 131.358 204.042Z" fill="#263238"/>
<path d="M132.657 200.291C132.603 200.345 131.981 199.859 131.087 199.59C130.193 199.293 129.435 199.32 129.408 199.239C129.408 199.158 130.221 198.996 131.168 199.32C132.143 199.617 132.712 200.237 132.657 200.291Z" fill="#263238"/>
<path d="M133.686 196.621C133.632 196.675 133.036 196.055 132.088 195.839C131.114 195.596 130.328 195.893 130.301 195.785C130.274 195.758 130.464 195.65 130.789 195.569C131.141 195.461 131.628 195.434 132.143 195.569C132.657 195.677 133.09 195.947 133.334 196.163C133.605 196.405 133.713 196.594 133.686 196.621Z" fill="#263238"/>
<path d="M132.306 195.137C132.279 195.137 132.306 194.975 132.415 194.678C132.523 194.382 132.74 193.95 133.146 193.518C133.335 193.329 133.552 193.086 133.958 193.005C134.148 192.978 134.391 193.086 134.5 193.275C134.608 193.491 134.608 193.707 134.554 193.896C134.31 194.705 133.416 195.272 132.496 195.137C131.548 195.002 130.871 194.247 130.709 193.464C130.682 193.275 130.682 193.032 130.844 192.843C131.007 192.655 131.277 192.655 131.467 192.735C131.819 192.897 131.981 193.167 132.171 193.383C132.496 193.842 132.658 194.301 132.767 194.597C132.848 194.894 132.848 195.083 132.821 195.083C132.767 195.11 132.685 194.382 132.008 193.518C131.819 193.302 131.629 193.059 131.359 192.951C131.25 192.897 131.115 192.924 131.034 193.005C130.952 193.113 130.952 193.275 130.98 193.437C131.115 194.085 131.738 194.732 132.523 194.867C133.308 194.975 134.093 194.462 134.283 193.842C134.337 193.68 134.337 193.518 134.283 193.41C134.229 193.275 134.12 193.221 133.985 193.248C133.714 193.275 133.471 193.491 133.281 193.68C132.496 194.436 132.36 195.164 132.306 195.137Z" fill="#263238"/>
<path d="M172.487 190.091L171.81 199.806C171.81 199.806 181.503 203.745 181.557 205.553L162.604 204.933L163.037 189.74L172.487 190.091Z" fill="#100E0F"/>
<path d="M165.987 198.78C165.608 198.861 165.338 199.266 165.419 199.644C165.5 200.021 165.906 200.291 166.258 200.21C166.637 200.129 166.962 199.644 166.854 199.293C166.746 198.942 166.258 198.645 165.906 198.807" fill="#E0E0E0"/>
<path d="M162.604 204.933L162.685 203.395L180.826 204.555C180.826 204.555 181.666 204.96 181.557 205.553L162.604 204.933Z" fill="#E0E0E0"/>
<path d="M172.133 199.698C172.106 199.806 171.646 199.833 171.185 200.103C170.725 200.372 170.454 200.777 170.373 200.723C170.292 200.723 170.454 200.157 171.023 199.833C171.592 199.509 172.133 199.617 172.133 199.698Z" fill="#263238"/>
<path d="M174.084 200.588C174.112 200.696 173.705 200.831 173.38 201.209C173.028 201.587 172.947 201.991 172.839 201.991C172.758 201.991 172.704 201.452 173.137 200.993C173.543 200.534 174.084 200.507 174.084 200.588Z" fill="#263238"/>
<path d="M175.14 203.017C175.059 203.017 174.923 202.558 175.194 202.045C175.438 201.56 175.871 201.371 175.925 201.452C175.979 201.533 175.681 201.803 175.465 202.207C175.275 202.612 175.221 202.99 175.14 203.017Z" fill="#263238"/>
<path d="M172.025 197.485C171.998 197.566 171.564 197.431 171.05 197.431C170.508 197.458 170.102 197.62 170.048 197.539C170.021 197.458 170.427 197.134 171.023 197.107C171.646 197.107 172.079 197.404 172.025 197.485Z" fill="#263238"/>
<path d="M172.135 195.515C172.135 195.542 171.756 195.596 171.187 195.488C170.889 195.407 170.564 195.326 170.185 195.137C170.023 195.047 169.851 194.948 169.671 194.84C169.59 194.786 169.481 194.705 169.373 194.597C169.292 194.517 169.238 194.247 169.346 194.112C169.454 193.977 169.644 193.923 169.779 193.923C169.914 193.923 170.023 193.95 170.131 193.977C170.33 194.031 170.519 194.103 170.7 194.193C171.052 194.382 171.35 194.597 171.566 194.786C171.999 195.218 172.135 195.569 172.108 195.596C172.054 195.623 171.837 195.326 171.404 194.975C171.187 194.786 170.916 194.624 170.591 194.463C170.411 194.391 170.23 194.328 170.05 194.274C169.833 194.22 169.671 194.22 169.617 194.301C169.59 194.328 169.59 194.355 169.644 194.409C169.671 194.463 169.752 194.517 169.833 194.57C169.996 194.696 170.158 194.795 170.321 194.867C170.646 195.056 170.97 195.164 171.241 195.272C171.783 195.434 172.135 195.461 172.135 195.515Z" fill="#263238"/>
<path d="M172 195.65C171.973 195.65 171.81 195.326 171.783 194.732C171.783 194.436 171.81 194.058 171.946 193.68C172.018 193.5 172.108 193.311 172.216 193.113C172.325 192.951 172.46 192.709 172.839 192.655C173.029 192.655 173.164 192.816 173.218 192.951C173.272 193.086 173.3 193.194 173.3 193.302C173.327 193.518 173.327 193.734 173.272 193.923C173.218 194.328 173.029 194.651 172.839 194.894C172.46 195.38 172.081 195.461 172.054 195.434C172.027 195.38 172.352 195.218 172.65 194.759C172.812 194.543 172.948 194.22 173.002 193.896C173.02 193.716 173.02 193.527 173.002 193.329C172.975 193.14 172.893 192.978 172.812 192.978C172.731 192.978 172.568 193.14 172.487 193.275C172.379 193.455 172.289 193.626 172.216 193.788C172.108 194.139 172.027 194.463 172.027 194.732C171.973 195.272 172.054 195.623 172 195.65Z" fill="#263238"/>
<path d="M152.253 31.8496C151.793 30.6623 151.197 29.5829 150.926 28.3416C150.737 27.4511 150.412 26.0749 150.764 25.2114C151.116 24.3209 151.982 23.4844 153.12 23.7002C153.363 21.8653 154.311 20.3811 156.125 19.4367C157.75 18.6001 159.374 18.1414 161.216 17.9795C161.784 17.9255 162.651 17.9255 163.138 18.1684C163.653 18.4112 164.14 18.87 164.33 19.3827C165.277 18.6001 166.658 18.3303 168.093 18.6811C169.501 19.0319 171.126 19.7605 171.776 21.0557C172.182 21.8653 172.371 22.8637 171.992 24.159C171.722 25.0225 170.855 26.3987 169.989 26.1019" fill="#263238"/>
<path d="M153.657 55.8115L166.383 55.2179C166.437 53.8956 165.761 45.5573 165.761 45.5573C165.761 45.5573 170.58 44.8018 170.634 40.0255C170.689 35.2222 169.849 24.2124 169.849 24.2124C164.298 21.8378 157.854 22.6473 153.061 26.3172L152.357 26.8839L153.657 55.8115Z" fill="#FFBE9D"/>
<path d="M165.766 45.4767C165.766 45.4767 162.734 45.7465 159.512 43.7227C159.512 43.7227 160.974 47.1497 165.794 46.718L165.766 45.4767Z" fill="#EB996E"/>
<path d="M152.93 31.8496C152.849 31.7956 149.627 30.8512 149.735 34.1433C149.843 37.4085 153.12 36.6259 153.12 36.545C153.12 36.437 152.93 31.8496 152.93 31.8496Z" fill="#FFBE9D"/>
<path d="M152.09 35.3307C152.063 35.3307 152.036 35.3847 151.927 35.4117C151.846 35.4657 151.684 35.4927 151.494 35.4387C151.142 35.3308 150.844 34.7911 150.817 34.1974C150.79 33.9006 150.844 33.6037 150.953 33.3609C151.034 33.118 151.196 32.9561 151.359 32.9291C151.521 32.8751 151.657 32.9831 151.711 33.064C151.738 33.145 151.738 33.2259 151.738 33.2259C151.765 33.2259 151.819 33.172 151.792 33.037C151.765 32.9831 151.738 32.9021 151.657 32.8482C151.575 32.7672 151.44 32.7402 151.332 32.7672C151.088 32.7942 150.844 33.037 150.736 33.2799C150.628 33.5498 150.547 33.8736 150.574 34.1974C150.628 34.872 150.98 35.4657 151.467 35.6006C151.684 35.6546 151.873 35.5736 151.982 35.4927C152.09 35.4117 152.09 35.3307 152.09 35.3307Z" fill="#EB996E"/>
<path d="M168.799 31.7416C168.799 32.0924 168.501 32.4163 168.149 32.4163C167.77 32.4433 167.445 32.1734 167.418 31.7956C167.418 31.4448 167.716 31.148 168.095 31.121C168.474 31.094 168.799 31.3639 168.799 31.7416Z" fill="#263238"/>
<path d="M168.96 30.9591C168.852 31.04 168.337 30.6622 167.606 30.6622C166.875 30.6622 166.334 31.04 166.252 30.9591C166.198 30.9051 166.279 30.7432 166.523 30.5813C166.767 30.4194 167.146 30.2305 167.606 30.2305C168.067 30.2575 168.473 30.4194 168.689 30.5813C168.906 30.7702 168.987 30.9321 168.96 30.9591Z" fill="#263238"/>
<path d="M161.566 31.9036C161.566 32.2544 161.269 32.5782 160.89 32.6052C160.51 32.6052 160.213 32.3354 160.186 31.9846C160.186 31.6068 160.483 31.3099 160.835 31.283C161.214 31.256 161.539 31.5528 161.566 31.9036Z" fill="#263238"/>
<path d="M161.676 31.0939C161.594 31.2019 161.08 30.7971 160.349 30.7971C159.591 30.7971 159.049 31.1749 158.968 31.0939C158.941 31.04 159.022 30.8781 159.266 30.7161C159.482 30.5542 159.888 30.3923 160.349 30.3923C160.809 30.3923 161.188 30.5542 161.432 30.7161C161.648 30.905 161.73 31.0669 161.676 31.0939Z" fill="#263238"/>
<path d="M164.356 36.5718C164.356 36.5178 164.817 36.4369 165.575 36.3559C165.764 36.3289 165.927 36.3019 165.954 36.167C166.008 36.0321 165.927 35.8162 165.846 35.6003C165.665 35.1506 165.476 34.6739 165.277 34.1702C164.492 32.1463 163.95 30.4463 164.031 30.4193C164.113 30.3923 164.817 32.0114 165.575 34.0622C165.755 34.5659 165.936 35.0427 166.116 35.4924C166.198 35.7083 166.306 35.9511 166.225 36.248C166.171 36.3829 166.035 36.4908 165.9 36.5178C165.791 36.5448 165.683 36.5448 165.575 36.5718C164.844 36.5988 164.356 36.5988 164.356 36.5718Z" fill="#263238"/>
<path d="M162.19 37.0845C162.298 37.0576 162.298 37.8671 163.002 38.4338C163.679 39.0005 164.546 38.9195 164.546 39.0275C164.546 39.0814 164.356 39.1894 164.004 39.1894C163.625 39.1894 163.11 39.0814 162.704 38.7306C162.271 38.3798 162.109 37.9211 162.082 37.5973C162.054 37.2734 162.136 37.0576 162.19 37.0845Z" fill="#263238"/>
<path d="M161.863 28.2064C161.809 28.4223 161.051 28.3143 160.185 28.4223C159.318 28.5032 158.614 28.7731 158.506 28.5842C158.452 28.5032 158.587 28.3143 158.858 28.1254C159.156 27.9096 159.589 27.7476 160.103 27.6937C160.618 27.6127 161.105 27.6937 161.43 27.8286C161.728 27.9635 161.891 28.1254 161.863 28.2064Z" fill="#263238"/>
<path d="M168.661 28.8271C168.553 28.9891 168.039 28.8271 167.416 28.8271C166.82 28.8002 166.306 28.9351 166.17 28.7462C166.116 28.6652 166.197 28.5033 166.441 28.3414C166.658 28.1795 167.037 28.0446 167.443 28.0716C167.876 28.0716 168.228 28.2335 168.445 28.3954C168.661 28.5843 168.743 28.7462 168.661 28.8271Z" fill="#263238"/>
<path d="M152.089 26.6416C152.144 28.0448 151.846 29.61 152.089 30.9862C152.116 31.1751 152.658 31.7418 152.712 31.9306C152.983 33.145 153.497 33.6847 154.229 32.4164C154.499 31.9306 154.689 30.6084 154.797 30.0687C155.086 28.5935 155.375 27.1184 155.664 25.6432C156.801 26.1559 158.046 26.5877 159.319 26.5067C160.592 26.4258 161.864 25.7781 162.433 24.6718C163.056 25.6432 164.112 26.3448 165.276 26.5067C166.413 26.6416 167.632 26.2639 168.471 25.4543C168.904 26.1289 169.906 26.3178 170.61 25.9131C171.287 25.4813 171.612 24.5638 171.395 23.7813C171.043 22.6209 169.798 21.9733 168.633 21.6495C164.057 20.3002 158.994 21.3526 154.878 23.7543C154.283 24.1051 153.687 24.4829 153.227 24.9956C152.766 25.5083 152.116 26.1289 152.089 26.8035" fill="#263238"/>
<path d="M155.556 26.7765C155.529 26.8304 155.231 26.7225 154.798 26.9114C154.608 27.0193 154.364 27.1812 154.121 27.3701C153.904 27.586 153.687 27.8559 153.417 28.1257C153.146 28.3956 152.821 28.6384 152.496 28.7464C152.144 28.8543 151.819 28.8273 151.575 28.7733C151.061 28.6384 150.844 28.3686 150.871 28.3416C150.898 28.3146 151.142 28.5035 151.602 28.5844C151.846 28.6114 152.117 28.6114 152.388 28.5035C152.686 28.3956 152.956 28.1797 153.2 27.9368C153.471 27.667 153.687 27.3971 153.958 27.1812C154.229 26.9654 154.5 26.8035 154.743 26.7495C155.258 26.5606 155.583 26.7495 155.556 26.7765Z" fill="#455A64"/>
<path d="M155.016 28.2336C155.016 28.2605 154.772 28.2335 154.501 28.4764C154.366 28.5844 154.257 28.7463 154.095 28.9621C153.96 29.151 153.743 29.3939 153.499 29.5558C152.985 29.9066 152.389 29.9606 152.01 29.9066C151.604 29.8526 151.387 29.7177 151.414 29.6907C151.414 29.6368 151.658 29.7177 152.01 29.7177C152.362 29.7177 152.877 29.6098 153.337 29.3129C153.797 29.0431 154.014 28.5304 154.393 28.3145C154.745 28.0716 155.043 28.2066 155.016 28.2336Z" fill="#455A64"/>
<path d="M167.471 18.6C167.471 18.573 167.634 18.546 167.905 18.627C168.148 18.7079 168.527 18.8968 168.825 19.3016C169.448 20.1111 169.61 21.5683 169.204 22.9985C168.771 24.4287 167.742 25.4541 166.903 25.9398C166.497 26.1827 166.145 26.3176 165.874 26.3986C165.63 26.4795 165.468 26.5065 165.468 26.4795C165.441 26.4256 166.036 26.2906 166.822 25.7509C167.58 25.2652 168.527 24.2668 168.934 22.8906C169.34 21.5683 169.177 20.1651 168.663 19.4095C168.419 19.0317 168.094 18.8428 167.85 18.7349C167.607 18.627 167.471 18.627 167.471 18.6Z" fill="#455A64"/>
<path d="M171.503 20.4889C171.53 20.4889 171.558 20.8397 171.476 21.4064C171.395 21.9731 171.151 22.7556 170.691 23.5112C170.204 24.2398 169.608 24.8065 169.148 25.1303C168.66 25.4541 168.308 25.562 168.308 25.535C168.254 25.4541 169.527 24.8065 170.447 23.3493C171.368 21.9191 171.395 20.4619 171.503 20.4889Z" fill="#455A64"/>
<path d="M176.939 102.129L173.946 196.313L159.193 195.931L160.315 115.118L141.499 198.178L128.189 195.257L145.402 102.308L176.939 102.129Z" fill="#263238"/>
<path d="M223.032 52.1692L223.736 51.8993C223.736 51.8993 229.882 52.8168 229.557 51.7374C229.124 50.2802 223.6 49.7945 223.086 49.8485C222.246 49.9564 217.291 51.2247 216.641 51.7374C215.992 52.2231 212.363 56.9994 212.363 56.9994L218.537 61.7757C218.537 61.7757 219.999 61.6948 221.678 59.7789C222.517 58.8074 223.736 57.1344 223.736 57.1344C223.736 57.1344 223.627 56.7296 223.709 56.5677C224.033 56.028 223.709 55.7851 223.709 55.7851C224.088 55.6232 224.358 55.2184 224.331 54.8946C224.304 54.7327 224.25 54.4898 224.115 54.3819C223.709 54.139 223.573 54.193 223.573 54.193C223.573 54.193 224.331 53.8422 224.385 53.1406C224.413 52.439 223.411 52.2771 223.411 52.2771" fill="#FFBE9D"/>
<path d="M229.477 52.0073C229.477 52.0343 229.017 52.2232 228.205 52.3311C227.799 52.3851 227.311 52.4121 226.77 52.3851C226.228 52.3041 225.659 52.2232 225.037 52.1152C224.585 52.0433 224.152 51.9713 223.737 51.8994H223.818C222.085 52.493 220.813 52.8708 220.786 52.7899C220.759 52.7089 222.004 52.2232 223.71 51.6025H223.764H223.791C224.206 51.6565 224.64 51.7195 225.091 51.7914C225.687 51.8994 226.255 51.9893 226.797 52.0613C227.311 52.1152 227.771 52.1152 228.178 52.1152C228.963 52.0613 229.45 51.9533 229.477 52.0073Z" fill="#EB996E"/>
<path d="M222.679 52.5198C222.084 53.1674 221.596 53.6801 221.028 54.3277C220.838 54.5166 220.622 54.7325 220.54 55.0024C220.432 55.2722 220.459 55.596 220.676 55.7849C220.838 55.9199 221.109 55.9468 221.326 55.8929C221.542 55.8389 221.732 55.704 221.921 55.569C222.571 55.0833 223.383 54.4897 223.952 53.923" fill="#FFBE9D"/>
<path d="M224.087 53.8152C224.114 53.8422 223.762 54.193 223.194 54.7327C222.923 55.0025 222.571 55.3263 222.11 55.6232C221.894 55.7581 221.65 55.893 221.352 56.001C221.217 56.0549 221.054 56.0819 220.892 56.0549C220.702 56.0549 220.513 55.947 220.405 55.8121C220.188 55.4882 220.242 55.0835 220.405 54.8406C220.567 54.5438 220.757 54.3549 220.919 54.166C221.271 53.7882 221.596 53.4374 221.867 53.1676C222.435 52.6009 222.814 52.3041 222.842 52.331C222.869 52.358 222.517 52.7088 222.002 53.3025C221.731 53.6263 221.434 53.9681 221.109 54.3279C220.946 54.5438 220.757 54.7327 220.648 54.9486C220.513 55.1644 220.486 55.4613 220.621 55.6232C220.757 55.8121 221.027 55.8121 221.271 55.7311C221.515 55.6502 221.758 55.5152 221.975 55.3803C222.408 55.1375 222.76 54.8406 223.058 54.5708C223.654 54.085 224.06 53.7882 224.087 53.8152Z" fill="#EB996E"/>
<path d="M223.465 54.4358C223.465 54.4358 223.952 53.7882 224.223 53.7882C224.467 53.7882 224.846 53.7612 225.062 54.1929C225.252 54.5977 225.089 54.7596 224.521 55.6231" fill="#FFBE9D"/>
<path d="M223.465 54.4358C222.977 54.9755 222.598 55.4342 222.111 55.9739C221.948 56.1628 221.786 56.3247 221.732 56.5676C221.651 56.7835 221.678 57.0803 221.84 57.2422C221.976 57.3501 222.192 57.3771 222.355 57.3232C222.544 57.2692 222.707 57.1612 222.842 57.0533C223.384 56.6215 224.033 56.1088 224.521 55.6231" fill="#FFBE9D"/>
<path d="M225.116 54.6247C225.143 54.6517 225.008 55.1104 224.548 55.7311C224.304 56.0279 224.006 56.3517 223.6 56.6755C223.42 56.8375 223.212 56.9904 222.977 57.1343C222.734 57.2962 222.49 57.4581 222.138 57.4851C221.975 57.5121 221.786 57.4581 221.65 57.3232C221.515 57.1883 221.461 56.9994 221.461 56.8375C221.488 56.5136 221.678 56.2708 221.813 56.0819C222.138 55.6771 222.436 55.3533 222.706 55.0835C223.221 54.5438 223.573 54.2469 223.6 54.2739C223.627 54.3009 223.329 54.6247 222.842 55.2184C222.598 55.5152 222.327 55.839 222.03 56.2438C221.894 56.4327 221.759 56.6216 221.759 56.8375C221.759 57.0803 221.894 57.2422 222.138 57.2152C222.354 57.1883 222.598 57.0533 222.815 56.9184C223.049 56.7745 223.257 56.6306 223.438 56.4867C223.817 56.1628 224.142 55.866 224.385 55.5962C224.873 55.0295 225.062 54.6247 225.116 54.6247Z" fill="#EB996E"/>
<path d="M214.502 57.8088C214.935 58.2136 215.639 58.1326 216.127 57.8358C216.641 57.566 217.02 57.1072 217.507 56.7834C218.943 55.812 220.973 56.0818 222.354 55.0294C222.544 54.8945 222.76 54.6516 222.652 54.4357C222.544 54.2199 222.273 54.1929 222.056 54.1929C220.143 54.2109 218.23 54.2289 216.316 54.2468" fill="#FFBE9D"/>
<path d="M216.316 54.2469C216.316 54.2199 216.533 54.1929 216.939 54.1929C217.345 54.166 217.914 54.139 218.618 54.112C219.376 54.112 220.215 54.085 221.136 54.058C221.37 54.058 221.614 54.058 221.867 54.058C222.083 54.058 222.408 53.9771 222.706 54.2469C222.842 54.3818 222.869 54.6247 222.787 54.7866C222.706 54.9215 222.625 55.0564 222.49 55.1374C222.273 55.2993 222.029 55.4612 221.759 55.5692C220.73 56.0279 219.674 56.1089 218.78 56.3787C218.32 56.4866 217.941 56.6755 217.589 56.8914C217.264 57.1073 216.966 57.3771 216.695 57.593C216.127 58.0787 215.477 58.2406 215.071 58.1327C214.637 58.0518 214.502 57.8089 214.502 57.8089C214.529 57.7819 214.691 57.9708 215.071 58.0248C215.45 58.0518 216.018 57.8898 216.533 57.4311C216.803 57.1882 217.074 56.9184 217.426 56.6485C217.805 56.4057 218.239 56.2168 218.699 56.0819C219.619 55.785 220.675 55.7041 221.623 55.2723C221.867 55.1644 222.083 55.0295 222.3 54.8945C222.49 54.7326 222.571 54.5437 222.463 54.4628C222.381 54.3548 222.111 54.3548 221.867 54.3548C221.614 54.3548 221.37 54.3548 221.136 54.3548C220.215 54.3548 219.376 54.3548 218.618 54.3548C217.914 54.3279 217.345 54.3279 216.939 54.3009C216.533 54.3009 216.316 54.2739 216.316 54.2469Z" fill="#EB996E"/>
<path d="M224.143 56.109C224.143 56.109 224.522 55.6233 224.711 55.6233C224.901 55.6233 225.172 55.6233 225.334 55.9471C225.469 56.2169 225.361 56.3519 224.928 56.9995" fill="#FFBE9D"/>
<path d="M224.14 56.1091C223.788 56.5139 223.49 56.8647 223.138 57.2695C223.03 57.3774 222.922 57.5393 222.841 57.7012C222.786 57.8631 222.814 58.079 222.949 58.187C223.057 58.2949 223.193 58.2949 223.328 58.2679C223.463 58.2139 223.572 58.133 223.68 58.052C224.086 57.7552 224.574 57.3774 224.926 56.9996" fill="#FFBE9D"/>
<path d="M225.36 56.2709C225.387 56.2709 225.306 56.6217 224.954 57.0804C224.791 57.3233 224.575 57.5662 224.277 57.809C224.132 57.9349 223.97 58.0519 223.789 58.1598C223.627 58.2678 223.437 58.4027 223.167 58.4297C223.031 58.4297 222.869 58.4027 222.787 58.2947C222.679 58.1868 222.625 58.0249 222.625 57.917C222.652 57.6471 222.787 57.4582 222.896 57.3233C223.139 57.0265 223.383 56.8106 223.573 56.5947C223.979 56.1899 224.223 55.9741 224.25 56.001C224.277 56.028 224.06 56.2979 223.735 56.7296C223.519 56.9635 223.311 57.2153 223.112 57.4852C223.004 57.6201 222.896 57.755 222.923 57.917C222.923 58.0519 223.004 58.1598 223.139 58.1328C223.302 58.1328 223.491 58.0249 223.654 57.917C223.816 57.827 223.97 57.7191 224.114 57.5931C224.385 57.3773 224.629 57.1614 224.818 56.9455C225.17 56.5677 225.333 56.2439 225.36 56.2709Z" fill="#EB996E"/>
<path d="M220.053 58.8616C219.972 58.8346 220.026 58.2409 219.701 57.5933C219.376 56.9456 218.834 56.6218 218.889 56.5679C218.916 56.4869 219.565 56.7298 219.945 57.4583C220.324 58.2139 220.107 58.8885 220.053 58.8616Z" fill="#EB996E"/>
<path d="M177.406 104.87C177.406 104.87 176.35 74.2966 176.053 69.7902C183.607 73.9998 195.358 79.3697 196.604 79.6396C198.878 80.1253 219.078 62.2344 219.078 62.2344L211.848 56.5676L195.142 65.9583L173.264 52.9247C171.72 51.8183 169.906 51.0628 167.929 50.8199C167.875 50.8199 167.821 50.8109 167.767 50.7929C166.982 50.712 166.603 50.604 166.142 50.55C162.677 53.1406 156.774 53.3025 153.362 50.631C153.362 50.631 150.79 51.1977 149.246 51.4945C144.4 52.412 140.934 55.947 139.959 59.1852L146.024 73.1363L147.189 86.3588L144.129 103.386L177.406 104.87Z" fill="#D90452"/>
<g opacity="0.3">
<path d="M145.997 92.2415C147.296 93.4558 149.192 93.9955 150.952 93.6447C152.17 93.4018 153.362 92.7272 154.634 92.8082C156.015 92.8891 157.152 93.8606 158.425 94.4272C160.781 95.5066 163.543 95.1558 166.061 94.4812C167.198 94.1844 168.416 93.7526 169.147 92.8352C169.716 92.1066 169.96 91.1891 170.095 90.2716C170.393 88.5986 170.528 86.8985 170.474 85.1985C170.447 84.1191 170.339 82.9857 169.662 82.1492C169.093 81.4746 168.227 81.1238 167.36 81.0158C166.494 80.8809 165.627 81.0158 164.761 81.1508C157.938 82.2841 151.385 85.0636 145.861 89.2192" fill="black"/>
</g>
<path d="M158.182 86.6017C158.182 86.6017 142.288 93.6987 140.664 94.0495C135.302 95.2098 129.183 90.1637 130.889 84.4159C131.512 82.2571 140.068 58.5916 140.068 58.5916L148.191 69.7902L144.752 81.2587L153.769 80.665L158.182 86.6017Z" fill="#D90452"/>
<path d="M153.038 80.7458C153.038 80.7728 152.821 80.7998 152.415 80.8538C151.945 80.8898 151.368 80.9347 150.682 80.9887C149.193 81.0966 147.135 81.2585 144.779 81.3935L144.562 81.4205L144.617 81.2316C144.797 80.6559 144.978 80.0622 145.158 79.4506C145.971 76.7791 146.702 74.3505 147.243 72.5964C147.514 71.7599 147.758 71.0583 147.92 70.5456C148.083 70.0599 148.191 69.79 148.191 69.79C148.218 69.79 148.164 70.0599 148.028 70.5726C147.866 71.1123 147.676 71.8139 147.433 72.6504C146.945 74.4314 146.241 76.86 145.429 79.5315C145.248 80.1432 145.068 80.7278 144.887 81.2855L144.752 81.1236C147.108 80.9887 149.166 80.8808 150.655 80.7998C151.359 80.7818 151.945 80.7638 152.415 80.7458C152.821 80.7458 153.038 80.7458 153.038 80.7458Z" fill="#263238"/>
<path d="M141.421 85.0096C141.394 85.0096 141.421 84.6858 141.584 84.227C141.773 83.7683 142.098 83.1746 142.613 82.6079C143.127 82.0683 143.723 81.6905 144.183 81.4746C144.616 81.2857 144.914 81.2317 144.941 81.2587C144.968 81.3397 143.804 81.7444 142.829 82.7968C141.827 83.8492 141.502 85.0366 141.421 85.0096Z" fill="#263238"/>
<path d="M156.424 87.5191C156.451 87.6001 152.958 89.1112 148.625 90.8922C144.293 92.6732 140.746 94.0494 140.719 93.9685C140.692 93.9145 144.185 92.4033 148.517 90.6224C152.849 88.8414 156.369 87.4651 156.424 87.5191Z" fill="#263238"/>
<path d="M176.892 89.8398C176.892 89.8398 176.883 89.7589 176.865 89.5969C176.847 89.3991 176.838 89.1562 176.838 88.8684C176.811 88.1937 176.757 87.3032 176.73 86.2239C176.648 83.9841 176.513 80.9079 176.324 77.5078C176.107 74.1077 175.863 71.0315 175.62 68.7917C175.511 67.6854 175.376 66.7949 175.295 66.1742C175.186 65.5536 175.132 65.2297 175.159 65.2297C175.177 65.2118 175.204 65.2837 175.24 65.4456C175.277 65.6435 175.331 65.8774 175.403 66.1472C175.511 66.7679 175.674 67.6584 175.836 68.7917C176.107 71.0045 176.405 74.0807 176.594 77.4808C176.784 80.9079 176.892 83.9841 176.919 86.2239C176.946 87.3302 176.946 88.2477 176.946 88.8684C176.928 89.1562 176.919 89.3991 176.919 89.5969C176.919 89.7589 176.91 89.8398 176.892 89.8398Z" fill="#263238"/>
<path d="M149.22 59.1041C149.247 59.1581 148.787 59.3469 148.191 59.8866C147.569 60.3724 146.838 61.2629 146.513 62.4502L146.431 62.6931L146.269 62.4772C146.233 62.4232 146.197 62.3782 146.161 62.3423C145.375 61.3438 144.211 60.9121 143.399 60.8311C142.586 60.7502 142.072 60.9121 142.045 60.8581C142.045 60.8581 142.18 60.8041 142.397 60.7232C142.641 60.6692 142.993 60.6152 143.426 60.6422C144.265 60.6692 145.538 61.074 146.377 62.1534C146.413 62.2073 146.449 62.2613 146.486 62.3153L146.242 62.3692C146.594 61.1279 147.406 60.2105 148.056 59.7247C148.733 59.212 149.22 59.0771 149.22 59.1041Z" fill="#FAFAFA"/>
<path d="M159.536 65.6346C159.536 65.6886 159.076 65.8775 158.48 66.3902C157.885 66.9029 157.153 67.7934 156.801 68.9537L156.72 69.2236L156.558 69.0077C156.522 68.9537 156.486 68.8998 156.449 68.8458C155.664 67.8743 154.5 67.4426 153.688 67.3616C152.875 67.2807 152.361 67.4426 152.361 67.3886C152.334 67.3616 152.469 67.3077 152.686 67.2537C152.929 67.1997 153.281 67.1457 153.715 67.1727C154.581 67.1997 155.827 67.6045 156.666 68.6839C156.702 68.7378 156.738 68.7918 156.774 68.8458L156.531 68.8728C156.883 67.6315 157.695 66.741 158.345 66.2553C159.022 65.7425 159.509 65.6076 159.536 65.6346Z" fill="#FAFAFA"/>
<path d="M145.646 71.2204C145.646 71.2744 145.132 71.3013 144.401 71.5982C143.67 71.868 142.668 72.4617 141.964 73.4331L141.801 73.676L141.693 73.4062C141.693 73.3522 141.675 73.2892 141.639 73.2173C141.26 72.0299 140.312 71.2474 139.581 70.8966C138.823 70.5458 138.281 70.5188 138.281 70.4648C138.281 70.4378 138.417 70.4378 138.66 70.4648C138.904 70.4918 139.256 70.5458 139.662 70.7077C140.447 71.0315 141.503 71.841 141.91 73.1363C141.928 73.2083 141.955 73.2712 141.991 73.3252L141.72 73.2712C142.478 72.2188 143.561 71.6521 144.319 71.4093C145.132 71.1664 145.646 71.1934 145.646 71.2204Z" fill="#FAFAFA"/>
<path d="M142.234 79.3699C142.234 79.4238 141.72 79.4508 140.989 79.7476C140.23 80.0175 139.256 80.6112 138.525 81.5826L138.362 81.8255L138.281 81.5556C138.263 81.5017 138.245 81.4387 138.227 81.3667C137.848 80.1794 136.9 79.3968 136.142 79.046C135.411 78.6952 134.869 78.6683 134.869 78.6143C134.869 78.6143 135.005 78.5873 135.248 78.6143C135.492 78.6413 135.844 78.6952 136.25 78.8572C137.035 79.181 138.064 79.9905 138.497 81.2858C138.516 81.3577 138.534 81.4207 138.552 81.4747L138.308 81.4207C139.066 80.3953 140.122 79.8016 140.907 79.5588C141.72 79.3159 142.234 79.3429 142.234 79.3699Z" fill="#FAFAFA"/>
<path d="M141.585 87.7079C141.585 87.7619 141.098 87.7889 140.339 88.0857C139.608 88.3556 138.634 88.9492 137.902 89.9207L137.74 90.1635L137.659 89.8667C137.641 89.8127 137.623 89.7588 137.605 89.7048C137.198 88.5175 136.251 87.7349 135.52 87.3841C134.762 87.0063 134.22 87.0063 134.247 86.9524C134.247 86.9254 134.382 86.9254 134.626 86.9524C134.843 86.9524 135.195 87.0333 135.601 87.1952C136.386 87.519 137.442 88.3286 137.875 89.6239C137.893 89.6778 137.911 89.7408 137.93 89.8127L137.686 89.7588C138.444 88.7064 139.5 88.1397 140.285 87.8968C141.07 87.654 141.585 87.681 141.585 87.7079Z" fill="#FAFAFA"/>
<path d="M164.626 57.4582C164.626 57.5121 164.166 57.701 163.57 58.2407C162.974 58.7264 162.243 59.6169 161.891 60.8043L161.81 61.0741L161.648 60.8313C161.612 60.7953 161.575 60.7503 161.539 60.6963C160.754 59.6979 159.59 59.2661 158.805 59.1852C157.965 59.1042 157.451 59.2661 157.451 59.2122C157.424 59.2122 157.559 59.1582 157.803 59.0772C158.019 59.0233 158.371 58.9693 158.805 58.9963C159.671 59.0233 160.917 59.455 161.756 60.5074C161.792 60.5614 161.828 60.6154 161.864 60.6693L161.621 60.7233C162 59.482 162.785 58.5645 163.435 58.0788C164.112 57.5931 164.599 57.4312 164.626 57.4582Z" fill="#FAFAFA"/>
<path d="M172.696 54.6787C172.696 54.7326 172.208 54.7326 171.423 54.9755C170.665 55.2184 169.663 55.7311 168.878 56.6755L168.688 56.8914L168.634 56.6216C168.616 56.5496 168.598 56.4866 168.58 56.4327C168.282 55.2184 167.362 54.3818 166.658 53.9771C165.927 53.5723 165.412 53.5183 165.412 53.4644C165.412 53.4644 165.547 53.4644 165.791 53.4913C166.035 53.5183 166.36 53.6263 166.766 53.8152C167.524 54.166 168.526 55.0564 168.851 56.3517C168.869 56.4237 168.887 56.4956 168.905 56.5676L168.661 56.4866C169.501 55.4882 170.584 54.9755 171.369 54.7866C172.181 54.5977 172.696 54.6517 172.696 54.6787Z" fill="#FAFAFA"/>
<path d="M155.935 52.9515C155.962 52.9785 155.502 53.1944 154.879 53.7071C154.283 54.2198 153.552 55.0833 153.227 56.2706L153.146 56.5405L152.957 56.2976C152.921 56.2616 152.884 56.2167 152.848 56.1627C152.09 55.1643 150.926 54.7595 150.114 54.6785C149.274 54.5706 148.76 54.7595 148.76 54.7055C148.76 54.6785 148.868 54.6246 149.112 54.5706C149.355 54.4896 149.707 54.4627 150.141 54.4627C150.98 54.5166 152.226 54.9214 153.065 56.0008C153.119 56.0548 153.164 56.0997 153.2 56.1357L152.957 56.1897C153.309 54.9484 154.094 54.0309 154.771 53.5452C155.421 53.0594 155.935 52.9245 155.935 52.9515Z" fill="#FAFAFA"/>
<path d="M172.939 67.2806C172.966 67.3346 172.506 67.5235 171.883 68.0362C171.287 68.5489 170.556 69.4394 170.231 70.5997L170.15 70.8696L169.961 70.6537C169.924 70.5997 169.888 70.5458 169.852 70.4918C169.094 69.5203 167.93 69.0886 167.118 69.0076C166.278 68.9267 165.791 69.0886 165.764 69.0346C165.764 69.0076 165.872 68.9537 166.116 68.8997C166.359 68.8457 166.711 68.7917 167.145 68.8187C167.984 68.8457 169.257 69.2505 170.096 70.3299C170.132 70.3838 170.168 70.4378 170.204 70.4918L169.961 70.5188C170.313 69.2775 171.125 68.387 171.775 67.9013C172.425 67.3885 172.939 67.2536 172.939 67.2806Z" fill="#FAFAFA"/>
<path d="M157.777 89.3001C157.804 89.3271 157.344 89.543 156.748 90.0557C156.125 90.5684 155.394 91.4589 155.069 92.6193L154.988 92.8891L154.826 92.6462C154.789 92.6103 154.753 92.5653 154.717 92.5113C153.932 91.5129 152.768 91.1081 151.955 91.0272C151.143 90.9192 150.629 91.1081 150.602 91.0542C150.602 91.0272 150.737 90.9732 150.954 90.9192C151.197 90.8653 151.549 90.8113 151.982 90.8113C152.822 90.8653 154.094 91.27 154.934 92.3494C154.97 92.4034 155.006 92.4574 155.042 92.5113L154.798 92.5383C155.15 91.297 155.963 90.3795 156.613 89.8938C157.29 89.4081 157.777 89.2732 157.777 89.3001Z" fill="#FAFAFA"/>
<path d="M151.873 84.0382C151.873 84.0652 151.412 84.2811 150.817 84.7938C150.221 85.3065 149.49 86.197 149.138 87.3573L149.057 87.6272L148.894 87.4113C148.858 87.3573 148.822 87.3033 148.786 87.2494C148.001 86.2509 146.836 85.8462 146.051 85.7652C145.212 85.6573 144.697 85.8462 144.697 85.7922C144.697 85.7652 144.806 85.7112 145.049 85.6573C145.266 85.6033 145.618 85.5493 146.051 85.5763C146.918 85.6033 148.163 86.0081 149.003 87.0875C149.039 87.1414 149.075 87.1954 149.111 87.2494L148.867 87.2763C149.246 86.0351 150.031 85.1176 150.681 84.6319C151.358 84.1461 151.846 84.0112 151.873 84.0382Z" fill="#FAFAFA"/>
<path d="M176.026 86.3588C176.026 86.4128 175.538 86.3858 174.753 86.5747C173.995 86.7636 172.939 87.2223 172.1 88.1398L171.91 88.3287L171.856 88.0589C171.856 88.0049 171.847 87.9419 171.829 87.87C171.585 86.6557 170.719 85.7652 170.042 85.3334C169.338 84.8747 168.796 84.7937 168.823 84.7397C168.823 84.7397 168.959 84.7397 169.202 84.7937C169.419 84.8477 169.771 84.9556 170.15 85.1445C170.881 85.5763 171.829 86.4938 172.1 87.816C172.118 87.888 172.136 87.9509 172.154 88.0049L171.91 87.9509C172.776 86.9795 173.914 86.5207 174.699 86.3858C175.511 86.2239 176.026 86.3318 176.026 86.3588Z" fill="#FAFAFA"/>
<path d="M164.761 97.0987C164.761 97.1527 164.274 97.2337 163.57 97.6114C162.866 97.9622 161.945 98.6638 161.349 99.7432L161.214 99.9861L161.106 99.7163C161.088 99.6623 161.061 99.6083 161.025 99.5543C160.51 98.421 159.454 97.7464 158.696 97.4765C157.911 97.2067 157.369 97.2606 157.369 97.2067C157.369 97.1797 157.505 97.1527 157.748 97.1527C157.992 97.1527 158.344 97.1797 158.75 97.2876C159.589 97.5305 160.7 98.2051 161.295 99.4464C161.313 99.5004 161.34 99.5543 161.377 99.6083H161.106C161.756 98.475 162.73 97.7464 163.489 97.4226C164.247 97.0987 164.761 97.0717 164.761 97.0987Z" fill="#FAFAFA"/>
<path d="M171.993 92.8891C171.993 92.9161 171.478 92.9161 170.72 93.105C169.935 93.2939 168.906 93.7526 168.066 94.6431L167.877 94.859L167.823 94.5891C167.805 94.5352 167.796 94.4722 167.796 94.4002C167.552 93.1589 166.685 92.2954 166.008 91.8637C165.304 91.4049 164.763 91.324 164.79 91.27C164.79 91.27 164.925 91.27 165.142 91.324C165.386 91.351 165.711 91.4589 166.09 91.6748C166.848 92.0796 167.796 93.024 168.066 94.3463C168.084 94.4182 168.093 94.4812 168.093 94.5352L167.85 94.4542C168.743 93.5097 169.853 93.051 170.666 92.9161C171.478 92.7542 171.993 92.8621 171.993 92.8891Z" fill="#FAFAFA"/>
<path d="M153.742 99.5812C153.742 99.6352 153.254 99.6082 152.469 99.7971C151.711 99.986 150.655 100.445 149.842 101.362L149.653 101.551L149.599 101.281C149.581 101.227 149.563 101.164 149.545 101.092C149.301 99.8781 148.462 98.9876 147.758 98.5558C147.054 98.0971 146.539 98.0161 146.539 97.9622C146.539 97.9622 146.674 97.9622 146.918 98.0161C147.162 98.0701 147.487 98.178 147.866 98.3669C148.624 98.7987 149.545 99.7162 149.842 101.038C149.842 101.11 149.851 101.173 149.87 101.227L149.626 101.173C150.492 100.202 151.63 99.7432 152.442 99.6082C153.254 99.4463 153.769 99.5543 153.742 99.5812Z" fill="#FAFAFA"/>
<path d="M175.647 98.6638C175.647 98.7177 175.187 98.8796 174.564 99.3654C173.914 99.8511 173.156 100.688 172.75 101.848L172.669 102.118L172.506 101.875C172.47 101.821 172.434 101.767 172.398 101.713C171.667 100.688 170.53 100.202 169.744 100.094C168.905 99.959 168.391 100.094 168.391 100.04C168.391 100.04 168.499 99.986 168.743 99.932C168.986 99.8781 169.338 99.8511 169.772 99.9051C170.611 99.959 171.829 100.445 172.615 101.551C172.651 101.623 172.687 101.677 172.723 101.713L172.479 101.74C172.912 100.526 173.752 99.6622 174.429 99.2035C175.133 98.7447 175.62 98.6368 175.647 98.6638Z" fill="#FAFAFA"/>
<path d="M173.263 76.2934C173.29 76.3473 172.83 76.5632 172.234 77.0759C171.611 77.5886 170.907 78.4521 170.555 79.6395L170.474 79.9093L170.312 79.6665C170.276 79.6305 170.239 79.5855 170.203 79.5315C169.418 78.5331 168.254 78.1283 167.442 78.0474C166.629 77.9394 166.115 78.1013 166.115 78.0474C166.088 78.0474 166.223 77.9934 166.44 77.9125C166.683 77.8585 167.035 77.8045 167.469 77.8315C168.335 77.8585 169.581 78.2902 170.42 79.3696C170.456 79.4236 170.492 79.4686 170.528 79.5046L170.285 79.5585C170.637 78.3172 171.449 77.3997 172.099 76.914C172.776 76.4283 173.263 76.2664 173.263 76.2934Z" fill="#FAFAFA"/>
<path d="M180.007 58.5915C180.034 58.6454 179.574 58.8343 178.951 59.374C178.356 59.8597 177.625 60.7502 177.273 61.9376L177.218 62.2074L177.029 61.9646C176.993 61.9286 176.957 61.8836 176.921 61.8296C176.162 60.8312 174.998 60.3994 174.186 60.3185C173.346 60.2375 172.832 60.3994 172.832 60.3455C172.832 60.3455 172.94 60.2915 173.184 60.2106C173.401 60.1566 173.753 60.1026 174.186 60.1296C175.052 60.1566 176.298 60.5883 177.137 61.6407C177.191 61.6947 177.237 61.7487 177.273 61.8026L177.002 61.8566C177.381 60.6153 178.166 59.6978 178.843 59.2121C179.493 58.7264 180.007 58.5645 180.007 58.5915Z" fill="#FAFAFA"/>
<path d="M196.144 67.4964C196.171 67.5234 195.711 67.7393 195.088 68.252C194.492 68.7647 193.761 69.6552 193.409 70.8156L193.355 71.0854L193.166 70.8695C193.13 70.8156 193.093 70.7616 193.057 70.7076C192.299 69.7092 191.135 69.3044 190.323 69.2235C189.483 69.1155 188.969 69.3044 188.969 69.2504C188.969 69.2235 189.077 69.1695 189.321 69.1155C189.537 69.0615 189.889 69.0076 190.323 69.0346C191.189 69.0615 192.435 69.4663 193.274 70.5457C193.328 70.5997 193.373 70.6536 193.409 70.7076L193.139 70.7346C193.518 69.4933 194.303 68.5758 194.98 68.0901C195.63 67.6044 196.144 67.4695 196.144 67.4964Z" fill="#FAFAFA"/>
<path d="M208.355 65.9044C208.382 65.9314 207.922 66.1473 207.326 66.66C206.703 67.1727 205.999 68.0632 205.647 69.2235L205.566 69.4934L205.404 69.2775C205.368 69.2235 205.331 69.1695 205.295 69.1156C204.51 68.1171 203.346 67.7124 202.534 67.6314C201.721 67.5235 201.207 67.7124 201.18 67.6584C201.18 67.6314 201.315 67.5774 201.532 67.5235C201.775 67.4695 202.127 67.4155 202.561 67.4155C203.4 67.4695 204.673 67.8743 205.512 68.9537C205.548 69.0076 205.584 69.0616 205.62 69.1156L205.377 69.1426C205.729 67.9013 206.541 66.9838 207.191 66.4981C207.868 66.0123 208.355 65.8774 208.355 65.9044Z" fill="#FAFAFA"/>
<path d="M213.961 59.1041C213.988 59.1581 213.527 59.3469 212.932 59.8866C212.309 60.3724 211.578 61.2629 211.253 62.4502L211.172 62.6931L210.982 62.4772C210.964 62.4232 210.928 62.3782 210.874 62.3423C210.116 61.3438 208.951 60.9121 208.139 60.8311C207.327 60.7502 206.812 60.9121 206.785 60.8581C206.785 60.8581 206.921 60.8041 207.137 60.7232C207.381 60.6692 207.733 60.6152 208.166 60.6422C209.005 60.6692 210.278 61.074 211.117 62.1534C211.154 62.2073 211.19 62.2613 211.226 62.3153L210.982 62.3692C211.334 61.1279 212.146 60.2105 212.796 59.7247C213.446 59.212 213.961 59.0771 213.961 59.1041Z" fill="#FAFAFA"/>
<path d="M185.638 67.4426C185.638 67.4696 185.151 67.6045 184.474 68.0363C183.824 68.468 182.985 69.2236 182.47 70.33L182.362 70.5998L182.227 70.357C182.191 70.303 182.154 70.249 182.118 70.1951C181.496 69.0887 180.413 68.522 179.627 68.3331C178.815 68.1172 178.273 68.2252 178.273 68.1712C178.273 68.1442 178.409 68.1172 178.653 68.0902C178.896 68.0633 179.248 68.0363 179.654 68.1442C180.521 68.2791 181.685 68.8728 182.362 70.0601C182.398 70.1141 182.434 70.1681 182.47 70.222H182.2C182.741 69.0617 183.662 68.2521 184.393 67.8744C185.124 67.4696 185.638 67.4156 185.638 67.4426Z" fill="#FAFAFA"/>
<path d="M200.341 74.3506C200.341 74.4046 199.854 74.5395 199.177 74.9713C198.527 75.3761 197.661 76.1586 197.173 77.265L197.065 77.5079L196.903 77.265C196.885 77.211 196.858 77.1571 196.821 77.1031C196.199 76.0237 195.116 75.457 194.33 75.2411C193.518 75.0522 192.977 75.1332 192.977 75.0792C192.977 75.0792 193.112 75.0253 193.356 74.9983C193.572 74.9713 193.951 74.9713 194.357 75.0523C195.197 75.2142 196.388 75.7808 197.065 76.9682C197.101 77.0401 197.137 77.1031 197.173 77.1571H196.903C197.444 75.9697 198.365 75.1872 199.096 74.8094C199.8 74.4046 200.341 74.3237 200.341 74.3506Z" fill="#FAFAFA"/>
<path d="M195.442 71.3012C195.388 71.3282 194.819 70.1679 194.711 68.6027C194.602 67.0376 194.981 65.8233 195.063 65.8503C195.144 65.8773 194.873 67.0916 194.981 68.6027C195.09 70.0869 195.523 71.2742 195.442 71.3012Z" fill="#263238"/>
<g opacity="0.3">
<path d="M146.999 81.2856C148.191 79.9093 148.949 78.1283 149.084 76.3204C149.22 74.4854 148.895 72.5965 147.893 71.0583C147.92 71.2742 146.322 76.5632 146.322 76.5632L146.728 81.0967" fill="black"/>
</g>
<path d="M154.499 80.2333L153.227 74.1618C153.145 73.676 153.497 73.2173 154.012 73.2173L169.798 73.2713C170.258 73.2982 170.637 73.703 170.583 74.1618L168.958 88.0859C168.877 88.6525 168.417 89.0573 167.848 89.0573L157.559 88.9764C157.071 88.9764 156.638 88.6256 156.503 88.1398L154.499 80.2333Z" fill="#455A64"/>
<path d="M153.092 77.022C153.796 77.022 154.391 77.4537 154.635 78.0744C154.906 78.749 155.285 79.5316 155.718 79.7744C156.476 80.1792 157.83 80.53 158.534 80.1792C159.238 79.8284 162.054 77.3188 162.542 77.5887C163.029 77.8585 163.462 78.5061 162.975 79.0728C162.487 79.6395 159.861 81.3125 160.348 81.8792C160.863 82.4459 166.359 79.9633 167.199 80.1792C168.038 80.3951 168.553 80.9078 168.038 81.2586C167.551 81.6094 163.814 83.0126 163.598 83.4983C163.598 83.4983 169.257 82.0142 169.446 82.365C169.663 82.7158 170.015 83.2824 169.446 83.4983C168.905 83.7142 164.031 84.9825 163.598 85.1714C163.191 85.3872 161.729 85.819 161.431 85.819C161.269 85.819 160.159 86.1698 159.157 86.5206C158.02 86.9254 156.774 86.8984 155.637 86.4396L155.068 86.1968C154.175 85.846 153.633 84.9555 153.687 84.011L153.796 82.0951L153.173 80.503L153.092 77.022Z" fill="#FFBE9D"/>
<path d="M162.569 75.5649C162.569 75.8617 162.325 76.1315 162 76.1315C161.675 76.1315 161.432 75.8617 161.432 75.5649C161.432 75.241 161.675 74.9712 162 74.9712C162.325 74.9712 162.569 75.241 162.569 75.5649Z" fill="#FAFAFA"/>
</svg>
