<svg width="457" height="228" viewBox="0 0 457 228" fill="none" xmlns="http://www.w3.org/2000/svg">
<rect width="457" height="228" rx="4" fill="#F3F6F9"/>
<path fill-rule="evenodd" clip-rule="evenodd" d="M384.691 175.88C383.763 176.179 383.551 177.099 383.29 177.987C381.947 182.511 379.557 186.459 376.178 189.827C375.611 190.39 375.022 190.967 374.395 191.476C373.668 192.073 372.616 192.002 372.048 191.326C371.454 190.606 371.478 189.825 372.118 189.131C372.672 188.545 373.3 188.035 373.876 187.437C376.905 184.389 379.063 180.812 380.196 176.645C380.77 174.601 381.98 173.194 384.033 172.629C385.009 172.361 385.934 172.83 386.187 173.629C386.468 174.529 386.08 175.196 385.264 175.637C385.118 175.692 384.949 175.76 384.691 175.88ZM362.54 183.769C361.781 184.207 361.058 184.654 360.287 185.07C359.178 185.621 358.419 185.44 357.908 184.554C357.396 183.669 357.606 182.898 358.606 182.262C359.718 181.561 360.881 180.948 361.984 180.282C365.826 177.975 367.882 174.633 367.972 170.154C368.012 168.419 368.511 167.688 369.618 167.698C370.724 167.709 371.325 168.543 371.292 170.186C371.183 175.561 368.864 179.734 364.369 182.713C363.779 183.083 363.164 183.408 362.54 183.769ZM387.072 154.197C387.557 155.039 388.065 155.867 388.507 156.734C388.999 157.69 388.77 158.53 388.002 159.003C387.168 159.514 386.29 159.283 385.648 158.325C385.182 157.62 384.747 156.868 384.335 156.102C382.958 153.562 381.252 151.329 378.754 149.732C378.084 149.292 377.573 148.613 377.897 147.835C378.11 147.329 378.712 146.774 379.235 146.65C379.722 146.516 380.386 146.841 380.852 147.133C382.932 148.47 384.609 150.188 385.925 152.262C386.34 152.878 386.679 153.568 387.072 154.197ZM378.688 156.057C378.3 156.723 377.509 156.796 376.81 156.462C376.421 156.303 376.083 156.026 375.722 155.762C373.45 154.092 370.946 153.619 368.215 154.399C368.011 154.458 367.797 154.552 367.593 154.611C366.672 154.818 365.986 154.505 365.625 153.622C365.267 152.796 365.6 151.983 366.553 151.521C367.047 151.295 367.592 151.158 368.115 151.033C371.854 150.143 375.168 151.093 378.124 153.431C378.293 153.569 378.44 153.721 378.587 153.872C378.66 153.948 378.711 154.036 378.797 154.134C379.143 154.938 379.016 155.543 378.688 156.057ZM354.526 170.095C353.417 167.813 352.754 165.274 352.693 162.593C352.686 161.653 352.94 160.857 353.937 160.576C354.9 160.286 355.927 160.933 355.967 162.031C356.095 164.673 356.742 167.133 357.947 169.478C358.426 170.411 358.118 171.268 357.324 171.697C356.544 172.148 355.689 171.903 355.076 171.047C354.9 170.794 354.756 170.494 354.526 170.095ZM367.682 188.297C367.169 188.594 366.669 188.912 366.13 189.164C365.279 189.596 364.555 189.424 364.025 188.608C363.495 187.793 363.634 187.004 364.52 186.374C365.616 185.594 366.798 184.912 367.881 184.109C374.475 179.151 376.571 169.233 372.535 162.088C372.331 161.734 371.426 160.013 370.065 160.799C369.062 161.378 369.376 162.85 369.437 163.11C369.674 164.242 369.27 165.036 368.34 165.278C367.422 165.543 366.589 165.079 366.205 164.002C365.507 162.073 365.808 160.275 367.206 158.73C368.496 157.307 370.577 156.843 372.437 157.54C373.802 158.051 374.779 159.022 375.45 160.287C380.797 170.011 377.285 182.576 367.682 188.297ZM351.525 137.854C356.456 134.033 362.342 131.608 368.556 131.09C368.839 131.065 369.118 131.051 369.395 131.049C369.991 131 370.591 131.008 371.184 131.108C372.023 131.273 372.482 131.864 372.452 132.738C372.395 133.567 371.956 134.146 371.066 134.305C370.655 134.365 370.206 134.359 369.769 134.375C360.091 135.023 352.576 139.382 347.222 147.451C347.063 147.691 346.926 147.917 346.754 148.135C346.06 149.096 345.267 149.318 344.421 148.833C343.623 148.378 343.351 147.443 343.927 146.432C345.435 143.79 347.304 141.412 349.62 139.396C350.227 138.869 350.862 138.354 351.525 137.854ZM358.624 178.532C357.776 179.022 356.942 179.533 356.069 179.978C355.039 180.513 354.105 180.286 353.635 179.524C353.124 178.638 353.429 177.724 354.487 177.084C355.857 176.263 357.256 175.544 358.591 174.714C361.493 172.891 362.109 170.558 360.6 167.533C358.913 164.197 358.778 160.822 360.346 157.408C360.591 156.853 361.052 156.262 361.578 155.988C362.626 155.383 363.839 156.247 363.758 157.445C363.736 157.871 363.529 158.285 363.367 158.674C362.292 161.036 362.355 163.361 363.41 165.704C365.952 171.291 364.758 174.991 359.472 178.043C359.189 178.206 358.907 178.369 358.624 178.532ZM348.832 173.265C345.236 165.748 345.188 158.248 349.034 150.744C349.199 150.413 349.409 150.055 349.683 149.809C350.218 149.293 350.85 149.047 351.587 149.448C352.336 149.871 352.627 150.529 352.386 151.348C352.281 151.733 352.081 152.055 351.915 152.387C348.655 159.051 348.561 165.687 352 172.262C352.192 172.594 352.361 172.939 352.416 173.291C352.599 174.071 352.277 174.699 351.547 175.032C350.853 175.374 350.154 175.246 349.659 174.646C349.324 174.22 349.1 173.729 348.832 173.265ZM361.879 146.723C364.756 145.061 368.094 143.991 371.601 144.091C371.816 144.085 372.032 144.098 372.249 144.13C373.524 144.279 374.217 144.913 374.189 145.844C374.159 146.924 373.423 147.555 372.036 147.471C369.574 147.327 367.199 147.695 364.917 148.688C362.266 149.864 360.119 151.606 358.54 154.023C358.34 154.345 358.152 154.69 357.939 154.99C357.273 155.846 356.422 156.072 355.672 155.649C354.827 155.163 354.507 154.197 355.169 153.283C356.452 151.539 358.868 148.461 361.879 146.723ZM382.975 160.134C384.085 162.416 384.748 164.955 384.773 167.627C384.816 168.576 384.562 169.372 383.564 169.653C382.579 169.956 381.574 169.297 381.534 168.198C381.407 165.556 380.76 163.096 379.555 160.751C379.075 159.818 379.384 158.961 380.177 158.532C380.958 158.082 381.812 158.326 382.426 159.182C382.601 159.435 382.745 159.736 382.975 160.134ZM393.325 151.945C398.527 160.955 398.704 172.542 396.114 182.479C395.851 183.516 395.253 184.954 394.709 185.917C394.251 186.772 393.419 187.341 392.523 186.973C391.448 186.501 391.523 185.395 391.802 184.437C391.859 184.227 392.031 184.01 392.123 183.809C395.798 174.514 395.106 161.366 390.042 152.748C389.246 151.525 388.46 150.267 387.576 149.095C380.406 139.509 365.826 138.157 356.86 146.167C356.694 146.292 356.567 146.484 356.401 146.609C355.509 147.331 354.403 147.32 353.774 146.591C353.266 145.969 353.348 144.978 354.102 144.276C354.966 143.453 355.864 142.639 356.851 141.981C369.716 133.254 385.764 138.128 392.366 150.285C392.392 150.329 393.325 151.945 393.325 151.945Z" fill="#D2D9E0" fill-opacity="0.25"/>
<path fill-rule="evenodd" clip-rule="evenodd" d="M409.512 63.3041C408.752 63.5493 408.578 64.3024 408.365 65.0298C407.265 68.7348 405.308 71.9676 402.54 74.7255C402.076 75.1869 401.594 75.6589 401.08 76.0764C400.485 76.5648 399.623 76.5064 399.158 75.9533C398.671 75.3639 398.692 74.7238 399.216 74.1553C399.669 73.6758 400.183 73.2582 400.655 72.7682C403.136 70.2726 404.902 67.343 405.83 63.9307C406.301 62.257 407.292 61.1048 408.973 60.6419C409.772 60.4224 410.529 60.8068 410.737 61.4608C410.967 62.1978 410.649 62.7439 409.981 63.1054C409.861 63.1506 409.723 63.2062 409.512 63.3041ZM391.372 69.7647C390.751 70.1232 390.158 70.4894 389.527 70.8298C388.619 71.2816 387.997 71.1329 387.578 70.4077C387.16 69.6826 387.331 69.0517 388.15 68.5303C389.061 67.9563 390.014 67.4547 390.916 66.9093C394.063 65.02 395.747 62.2834 395.821 58.615C395.853 57.1944 396.262 56.5956 397.168 56.6042C398.074 56.6129 398.566 57.2958 398.539 58.6409C398.45 63.0431 396.551 66.4602 392.869 68.8999C392.387 69.2028 391.883 69.4694 391.372 69.7647ZM411.461 45.548C411.859 46.2369 412.275 46.9153 412.636 47.6253C413.039 48.4078 412.852 49.096 412.223 49.4832C411.54 49.9021 410.821 49.7125 410.296 48.9283C409.914 48.3511 409.558 47.7347 409.22 47.1078C408.092 45.0276 406.696 43.1992 404.65 41.8908C404.101 41.5308 403.682 40.9748 403.948 40.338C404.122 39.923 404.615 39.4692 405.043 39.3671C405.443 39.2574 405.986 39.5237 406.368 39.7627C408.072 40.8578 409.444 42.265 410.522 43.9632C410.862 44.4679 411.14 45.0328 411.461 45.548ZM404.596 47.0705C404.278 47.6166 403.63 47.6762 403.058 47.4023C402.739 47.272 402.462 47.0452 402.167 46.829C400.306 45.462 398.256 45.0745 396.019 45.7134C395.852 45.7615 395.677 45.8383 395.51 45.8864C394.756 46.0561 394.194 45.8003 393.898 45.0768C393.605 44.4001 393.878 43.7346 394.658 43.3566C395.063 43.1714 395.509 43.0588 395.937 42.9566C398.999 42.2281 401.713 43.0059 404.134 44.9201C404.272 45.0335 404.392 45.1575 404.513 45.2814C404.573 45.3434 404.615 45.4159 404.685 45.496C404.968 46.1546 404.864 46.6496 404.596 47.0705ZM384.809 58.5669C383.901 56.6983 383.358 54.6188 383.308 52.4236C383.302 51.6537 383.51 51.0017 384.327 50.7717C385.115 50.5342 385.957 51.0636 385.989 51.9634C386.094 54.1269 386.624 56.1415 387.61 58.0615C388.003 58.8259 387.75 59.5276 387.101 59.8785C386.461 60.2476 385.761 60.0475 385.259 59.3464C385.115 59.1394 384.998 58.8932 384.809 58.5669ZM395.583 73.4731C395.163 73.7156 394.753 73.9763 394.312 74.1826C393.615 74.5365 393.022 74.3954 392.588 73.7276C392.154 73.0598 392.268 72.4137 392.993 71.8983C393.891 71.2593 394.859 70.7004 395.746 70.0432C401.146 65.9827 402.862 57.8611 399.557 52.0101C399.39 51.72 398.649 50.3106 397.535 50.9539C396.713 51.4284 396.97 52.6335 397.02 52.8464C397.214 53.7736 396.883 54.4239 396.121 54.6222C395.369 54.8387 394.687 54.4589 394.373 53.5769C393.802 51.9971 394.048 50.5254 395.193 49.2602C396.249 48.0945 397.954 47.7146 399.477 48.2856C400.595 48.7036 401.395 49.4987 401.944 50.535C406.323 58.4979 403.447 68.7875 395.583 73.4731ZM382.351 32.1639C386.39 29.0347 391.21 27.0493 396.299 26.6252C396.53 26.6044 396.759 26.5931 396.985 26.5913C397.474 26.5512 397.965 26.5578 398.45 26.6399C399.137 26.7751 399.514 27.2587 399.489 27.9742C399.442 28.6536 399.083 29.1272 398.354 29.2576C398.018 29.307 397.649 29.302 397.292 29.3152C389.366 29.846 383.212 33.4155 378.828 40.0236C378.698 40.2197 378.585 40.4053 378.445 40.5832C377.876 41.3706 377.226 41.5525 376.534 41.1546C375.881 40.7824 375.658 40.0167 376.129 39.1885C377.365 37.0251 378.895 35.0779 380.791 33.4271C381.289 32.995 381.809 32.5739 382.351 32.1639ZM388.165 65.4763C387.471 65.877 386.787 66.2959 386.072 66.6603C385.229 67.0986 384.464 66.912 384.08 66.288C383.661 65.5629 383.911 64.8144 384.777 64.2901C385.899 63.6181 387.044 63.0292 388.138 62.3497C390.515 60.8565 391.019 58.9458 389.783 56.4684C388.401 53.7372 388.291 50.9728 389.575 48.1769C389.775 47.7228 390.154 47.2386 390.584 47.0142C391.443 46.5186 392.436 47.2263 392.369 48.2075C392.351 48.5562 392.182 48.8957 392.049 49.2141C391.169 51.1484 391.221 53.0522 392.085 54.9706C394.166 59.546 393.188 62.5762 388.859 65.0755C388.628 65.2091 388.396 65.3427 388.165 65.4763ZM380.146 61.1624C377.201 55.0068 377.162 48.8653 380.312 42.7202C380.447 42.4486 380.619 42.156 380.843 41.9539C381.282 41.5318 381.798 41.3301 382.402 41.6584C383.016 42.0049 383.254 42.5441 383.057 43.2142C382.971 43.5296 382.807 43.7936 382.671 44.0652C380.001 49.5225 379.924 54.9573 382.741 60.3412C382.898 60.6132 383.036 60.8957 383.081 61.1841C383.231 61.8228 382.968 62.3373 382.37 62.6099C381.801 62.89 381.229 62.7851 380.824 62.294C380.549 61.9449 380.366 61.5431 380.146 61.1624ZM390.831 39.4268C393.187 38.0664 395.92 37.1896 398.792 37.2716C398.968 37.2668 399.145 37.2775 399.322 37.3039C400.367 37.426 400.934 37.9445 400.912 38.7069C400.887 39.5915 400.284 40.1086 399.148 40.0393C397.132 39.9221 395.187 40.2232 393.319 41.0361C391.147 41.9997 389.389 43.4257 388.096 45.4049C387.932 45.6688 387.778 45.951 387.604 46.1968C387.059 46.8982 386.362 47.083 385.748 46.7366C385.055 46.3387 384.793 45.5473 385.336 44.7991C386.386 43.3707 388.365 40.8504 390.831 39.4268ZM408.107 50.4097C409.015 52.2783 409.558 54.3578 409.579 56.5453C409.614 57.3229 409.406 57.9748 408.589 58.2048C407.782 58.4529 406.959 57.9129 406.927 57.0131C406.822 54.8496 406.292 52.835 405.305 50.915C404.913 50.1506 405.165 49.4489 405.815 49.098C406.454 48.7289 407.154 48.929 407.657 49.6301C407.8 49.8371 407.918 50.0833 408.107 50.4097ZM416.582 43.7034C420.842 51.0819 420.987 60.5705 418.866 68.7081C418.65 69.5578 418.161 70.7348 417.715 71.5238C417.34 72.2238 416.659 72.6895 415.925 72.3882C415.045 72.0021 415.106 71.0964 415.335 70.3116C415.382 70.1396 415.523 69.9616 415.598 69.7972C418.608 62.1859 418.041 51.4181 413.894 44.3613C413.242 43.3596 412.599 42.3292 411.874 41.3697C406.002 33.5197 394.063 32.4122 386.72 38.9719C386.585 39.0744 386.48 39.2313 386.345 39.3338C385.614 39.9247 384.708 39.916 384.193 39.3191C383.777 38.8098 383.844 37.9977 384.462 37.4232C385.169 36.7493 385.905 36.0829 386.713 35.5434C397.249 28.3973 410.39 32.3882 415.797 42.3437C415.818 42.3799 416.582 43.7034 416.582 43.7034Z" fill="#D2D9E0" fill-opacity="0.25"/>
<path fill-rule="evenodd" clip-rule="evenodd" d="M434.046 131.171C433.57 131.325 433.46 131.797 433.327 132.254C432.636 134.578 431.408 136.607 429.672 138.337C429.381 138.627 429.078 138.923 428.756 139.185C428.383 139.491 427.842 139.455 427.55 139.108C427.245 138.738 427.257 138.336 427.586 137.979C427.871 137.679 428.193 137.417 428.489 137.109C430.046 135.543 431.154 133.705 431.737 131.564C432.032 130.514 432.653 129.791 433.708 129.501C434.209 129.363 434.685 129.604 434.815 130.014C434.96 130.477 434.76 130.819 434.341 131.046C434.266 131.075 434.179 131.11 434.046 131.171ZM422.664 135.225C422.275 135.45 421.903 135.679 421.507 135.893C420.937 136.176 420.547 136.083 420.284 135.628C420.022 135.173 420.129 134.777 420.643 134.45C421.215 134.09 421.812 133.775 422.379 133.433C424.353 132.248 425.409 130.531 425.456 128.229C425.476 127.337 425.733 126.962 426.301 126.967C426.87 126.973 427.178 127.401 427.161 128.245C427.106 131.007 425.914 133.151 423.604 134.682C423.301 134.872 422.985 135.039 422.664 135.225ZM435.27 120.03C435.519 120.462 435.78 120.888 436.007 121.333C436.26 121.824 436.142 122.256 435.748 122.499C435.319 122.762 434.868 122.643 434.538 122.151C434.299 121.789 434.075 121.402 433.863 121.009C433.156 119.703 432.279 118.556 430.996 117.735C430.651 117.509 430.389 117.161 430.555 116.761C430.665 116.501 430.974 116.216 431.243 116.152C431.493 116.083 431.834 116.25 432.074 116.4C433.143 117.087 434.004 117.97 434.68 119.036C434.894 119.352 435.068 119.707 435.27 120.03ZM430.962 120.985C430.762 121.328 430.356 121.365 429.997 121.193C429.797 121.112 429.623 120.969 429.438 120.834C428.27 119.976 426.984 119.733 425.58 120.134C425.476 120.164 425.366 120.212 425.261 120.242C424.788 120.349 424.435 120.188 424.249 119.734C424.065 119.31 424.237 118.892 424.727 118.655C424.98 118.539 425.26 118.468 425.529 118.404C427.45 117.947 429.153 118.435 430.672 119.636C430.759 119.707 430.834 119.785 430.91 119.863C430.947 119.902 430.974 119.947 431.018 119.997C431.195 120.411 431.13 120.721 430.962 120.985ZM418.547 128.199C417.977 127.026 417.636 125.721 417.605 124.344C417.601 123.861 417.732 123.452 418.244 123.308C418.739 123.159 419.267 123.491 419.287 124.055C419.353 125.413 419.685 126.677 420.304 127.882C420.551 128.361 420.392 128.801 419.985 129.022C419.584 129.253 419.144 129.128 418.829 128.688C418.739 128.558 418.665 128.403 418.547 128.199ZM425.307 137.551C425.043 137.704 424.786 137.867 424.509 137.997C424.072 138.219 423.7 138.13 423.428 137.711C423.155 137.292 423.227 136.887 423.682 136.563C424.245 136.162 424.852 135.812 425.409 135.399C428.797 132.852 429.874 127.756 427.8 124.085C427.695 123.903 427.23 123.018 426.531 123.422C426.016 123.72 426.177 124.476 426.208 124.609C426.33 125.191 426.123 125.599 425.644 125.724C425.173 125.859 424.745 125.621 424.548 125.068C424.189 124.076 424.344 123.153 425.062 122.359C425.725 121.628 426.794 121.389 427.75 121.748C428.451 122.01 428.953 122.509 429.298 123.159C432.045 128.155 430.241 134.611 425.307 137.551ZM417.005 111.632C419.538 109.669 422.563 108.423 425.756 108.157C425.901 108.144 426.045 108.137 426.187 108.136C426.493 108.111 426.801 108.115 427.106 108.166C427.537 108.251 427.773 108.554 427.757 109.003C427.728 109.43 427.503 109.727 427.046 109.809C426.834 109.84 426.603 109.837 426.379 109.845C421.406 110.178 417.545 112.418 414.794 116.564C414.712 116.687 414.642 116.803 414.553 116.915C414.197 117.409 413.789 117.523 413.355 117.273C412.945 117.04 412.805 116.559 413.101 116.04C413.876 114.682 414.836 113.461 416.026 112.425C416.338 112.154 416.664 111.889 417.005 111.632ZM420.652 132.534C420.217 132.785 419.788 133.048 419.339 133.277C418.81 133.552 418.33 133.435 418.089 133.043C417.826 132.588 417.983 132.119 418.527 131.79C419.231 131.368 419.949 130.998 420.635 130.572C422.127 129.635 422.443 128.436 421.668 126.882C420.801 125.168 420.731 123.434 421.537 121.68C421.663 121.395 421.9 121.091 422.17 120.95C422.709 120.639 423.332 121.083 423.29 121.699C423.279 121.917 423.173 122.13 423.089 122.33C422.537 123.544 422.57 124.738 423.112 125.942C424.418 128.813 423.804 130.714 421.088 132.282C420.943 132.366 420.798 132.45 420.652 132.534ZM415.621 129.827C413.773 125.965 413.749 122.111 415.725 118.256C415.81 118.085 415.918 117.902 416.059 117.775C416.333 117.51 416.658 117.383 417.036 117.59C417.422 117.807 417.571 118.145 417.447 118.566C417.393 118.764 417.29 118.929 417.205 119.1C415.53 122.524 415.482 125.934 417.249 129.312C417.347 129.483 417.434 129.66 417.463 129.841C417.556 130.242 417.391 130.564 417.016 130.735C416.659 130.911 416.3 130.845 416.046 130.537C415.874 130.318 415.759 130.066 415.621 129.827ZM422.325 116.189C423.803 115.336 425.518 114.786 427.32 114.837C427.431 114.834 427.542 114.841 427.653 114.857C428.308 114.934 428.664 115.259 428.65 115.738C428.635 116.293 428.256 116.617 427.544 116.574C426.279 116.5 425.058 116.689 423.886 117.199C422.524 117.804 421.42 118.698 420.609 119.94C420.506 120.106 420.41 120.283 420.3 120.437C419.958 120.877 419.521 120.993 419.136 120.776C418.701 120.526 418.537 120.03 418.877 119.56C419.536 118.664 420.778 117.083 422.325 116.189ZM433.165 123.08C433.735 124.253 434.075 125.558 434.089 126.93C434.11 127.418 433.98 127.827 433.467 127.971C432.961 128.127 432.445 127.788 432.424 127.224C432.359 125.866 432.026 124.602 431.407 123.398C431.161 122.918 431.319 122.478 431.727 122.257C432.128 122.026 432.567 122.151 432.882 122.591C432.973 122.721 433.046 122.876 433.165 123.08ZM438.483 118.873C441.156 123.502 441.246 129.456 439.916 134.562C439.78 135.095 439.473 135.833 439.194 136.328C438.958 136.768 438.531 137.06 438.07 136.871C437.518 136.628 437.557 136.06 437.7 135.568C437.73 135.46 437.818 135.348 437.865 135.245C439.753 130.469 439.398 123.713 436.796 119.285C436.387 118.657 435.983 118.01 435.529 117.408C431.844 112.483 424.353 111.788 419.746 115.904C419.661 115.968 419.595 116.067 419.51 116.131C419.052 116.502 418.483 116.496 418.16 116.122C417.899 115.802 417.941 115.293 418.329 114.932C418.773 114.509 419.234 114.091 419.742 113.753C426.352 109.269 434.598 111.773 437.99 118.019C438.003 118.042 438.483 118.873 438.483 118.873Z" fill="#D2D9E0" fill-opacity="0.25"/>
<path fill-rule="evenodd" clip-rule="evenodd" d="M57.6908 175.88C56.7632 176.179 56.5507 177.099 56.2903 177.987C54.9471 182.511 52.5572 186.459 49.1782 189.827C48.6113 190.39 48.0221 190.967 47.3946 191.476C46.6683 192.073 45.616 192.002 45.0476 191.326C44.4537 190.606 44.4782 189.825 45.1183 189.131C45.6724 188.545 46.2999 188.035 46.8763 187.437C49.905 184.389 52.0625 180.812 53.1958 176.645C53.7704 174.601 54.9804 173.194 57.0331 172.629C58.0085 172.361 58.9338 172.83 59.1867 173.629C59.4683 174.529 59.0801 175.196 58.2644 175.637C58.1178 175.692 57.9489 175.76 57.6908 175.88ZM35.5396 183.769C34.7813 184.207 34.058 184.654 33.2869 185.07C32.1779 185.621 31.4188 185.44 30.9075 184.554C30.3963 183.669 30.6058 182.898 31.6063 182.262C32.7182 181.561 33.8813 180.948 34.9838 180.282C38.8264 177.975 40.8822 174.633 40.9724 170.154C41.0117 168.419 41.5114 167.688 42.6179 167.698C43.7244 167.709 44.3248 168.543 44.2918 170.186C44.1835 175.561 41.8641 179.734 37.3686 182.713C36.7792 183.083 36.1641 183.408 35.5396 183.769ZM60.0718 154.197C60.5575 155.039 61.0655 155.867 61.5066 156.734C61.9988 157.69 61.7702 158.53 61.0023 159.003C60.1675 159.514 59.2904 159.283 58.6483 158.325C58.1819 157.62 57.7474 156.868 57.3351 156.102C55.9577 153.562 54.2523 151.329 51.7537 149.732C51.0836 149.292 50.5726 148.613 50.8969 147.835C51.1099 147.329 51.7119 146.774 52.2346 146.65C52.7223 146.516 53.386 146.841 53.8518 147.133C55.9324 148.47 57.6085 150.188 58.9248 152.262C59.34 152.878 59.6788 153.568 60.0718 154.197ZM51.6881 156.057C51.2999 156.723 50.5092 156.796 49.8105 156.462C49.4213 156.303 49.0829 156.026 48.7223 155.762C46.45 154.092 43.9464 153.619 41.2147 154.399C41.0107 154.458 40.7972 154.552 40.5932 154.611C39.6719 154.818 38.986 154.505 38.6246 153.622C38.2665 152.796 38.6003 151.983 39.5531 151.521C40.0471 151.295 40.5922 151.158 41.115 151.033C44.8541 150.143 48.1682 151.093 51.1237 153.431C51.2928 153.569 51.4397 153.721 51.5866 153.872C51.66 153.948 51.7111 154.036 51.7973 154.134C52.1427 154.938 52.0159 155.543 51.6881 156.057ZM27.526 170.095C26.4168 167.813 25.7537 165.274 25.693 162.593C25.6855 161.653 25.9396 160.857 26.9373 160.576C27.8999 160.286 28.9274 160.933 28.967 162.031C29.0946 164.673 29.7417 167.133 30.9466 169.478C31.4261 170.411 31.1178 171.268 30.3244 171.697C29.5437 172.148 28.6889 171.903 28.0756 171.047C27.8999 170.794 27.7561 170.494 27.526 170.095ZM40.6819 188.297C40.1689 188.594 39.6687 188.912 39.1302 189.164C38.2793 189.596 37.5553 189.424 37.025 188.608C36.4947 187.793 36.634 187.004 37.5197 186.374C38.6156 185.594 39.7978 184.912 40.8809 184.109C47.4753 179.151 49.5709 169.233 45.535 162.088C45.3305 161.734 44.4261 160.013 43.0655 160.799C42.0618 161.378 42.3761 162.85 42.437 163.11C42.6743 164.242 42.2703 165.036 41.3395 165.278C40.4215 165.543 39.5887 165.079 39.2048 164.002C38.5074 162.073 38.8081 160.275 40.206 158.73C41.4957 157.307 43.5772 156.843 45.437 157.54C46.8024 158.051 47.7793 159.022 48.4504 160.287C53.7967 170.011 50.2854 182.576 40.6819 188.297ZM24.5247 137.854C29.456 134.033 35.3423 131.608 41.5563 131.09C41.839 131.065 42.1185 131.051 42.3948 131.049C42.991 131 43.5905 131.008 44.1837 131.108C45.0225 131.273 45.4824 131.864 45.4515 132.738C45.3952 133.567 44.9558 134.146 44.0664 134.305C43.6552 134.365 43.2056 134.359 42.7687 134.375C33.0911 135.023 25.5756 139.382 20.2221 147.451C20.063 147.691 19.9262 147.917 19.7543 148.135C19.0603 149.096 18.2666 149.318 17.421 148.833C16.6233 148.378 16.3512 147.443 16.9271 146.432C18.4353 143.79 20.3041 141.412 22.6197 139.396C23.2271 138.869 23.862 138.354 24.5247 137.854ZM31.624 178.532C30.7765 179.022 29.9417 179.533 29.0686 179.978C28.0393 180.513 27.1048 180.286 26.6351 179.524C26.1239 178.638 26.4288 177.724 27.4867 177.084C28.8568 176.263 30.2557 175.544 31.5907 174.714C34.4933 172.891 35.109 170.558 33.6004 167.533C31.9127 164.197 31.7779 160.822 33.3457 157.408C33.5906 156.853 34.0522 156.262 34.578 155.988C35.6263 155.383 36.839 156.247 36.7576 157.445C36.7358 157.871 36.529 158.285 36.3669 158.674C35.292 161.036 35.3554 163.361 36.4105 165.704C38.9522 171.291 37.7578 174.991 32.4716 178.043C32.1891 178.206 31.9066 178.369 31.624 178.532ZM21.8319 173.265C18.2356 165.748 18.1882 158.248 22.0341 150.744C22.1995 150.413 22.4095 150.055 22.6834 149.809C23.2185 149.293 23.8495 149.047 24.5866 149.448C25.3364 149.871 25.6274 150.529 25.386 151.348C25.2813 151.733 25.0808 152.055 24.9154 152.387C21.6552 159.051 21.5612 165.687 25.0001 172.262C25.1918 172.594 25.3612 172.939 25.4159 173.291C25.5986 174.071 25.2773 174.699 24.5475 175.032C23.8528 175.374 23.1543 175.246 22.6594 174.646C22.3241 174.22 22.1003 173.729 21.8319 173.265ZM34.8792 146.723C37.7565 145.061 41.0937 143.991 44.6012 144.091C44.8159 144.085 45.0317 144.098 45.2486 144.13C46.5242 144.279 47.2169 144.913 47.1893 145.844C47.1587 146.924 46.4229 147.555 45.0358 147.471C42.574 147.327 40.199 147.695 37.9171 148.688C35.2657 149.864 33.1187 151.606 31.5401 154.023C31.3396 154.345 31.1519 154.69 30.9386 154.99C30.2732 155.846 29.4221 156.072 28.6723 155.649C27.8267 155.163 27.5067 154.197 28.1688 153.283C29.4517 151.539 31.8681 148.461 34.8792 146.723ZM55.9753 160.134C57.0845 162.416 57.7476 164.955 57.7732 167.627C57.8158 168.576 57.5617 169.372 56.564 169.653C55.5791 169.956 54.5739 169.297 54.5343 168.198C54.4067 165.556 53.7596 163.096 52.5547 160.751C52.0753 159.818 52.3835 158.961 53.177 158.532C53.9576 158.082 54.8125 158.326 55.4257 159.182C55.6014 159.435 55.7452 159.736 55.9753 160.134ZM66.3251 151.945C71.5271 160.955 71.7037 172.542 69.1139 182.479C68.8505 183.516 68.2528 184.954 67.7087 185.917C67.2506 186.772 66.4191 187.341 65.5227 186.973C64.4475 186.501 64.5227 185.395 64.8021 184.437C64.8593 184.227 65.0312 184.01 65.1234 183.809C68.7982 174.514 68.1062 161.366 63.0418 152.748C62.2464 151.525 61.4604 150.267 60.5758 149.095C53.4057 139.509 38.8259 138.157 29.8597 146.167C29.694 146.292 29.5667 146.484 29.4011 146.609C28.5091 147.331 27.4027 147.32 26.7737 146.591C26.2659 145.969 26.3476 144.978 27.1025 144.276C27.9656 143.453 28.8638 142.639 29.8514 141.981C42.7164 133.254 58.7641 138.128 65.3665 150.285C65.3921 150.329 66.3251 151.945 66.3251 151.945Z" fill="#D2D9E0" fill-opacity="0.25"/>
<path fill-rule="evenodd" clip-rule="evenodd" d="M82.5115 63.3041C81.752 63.5493 81.5779 64.3024 81.3647 65.0298C80.2647 68.7348 78.3076 71.9676 75.5404 74.7255C75.0762 75.1869 74.5937 75.6589 74.0798 76.0764C73.4851 76.5648 72.6233 76.5064 72.1578 75.9533C71.6714 75.3639 71.6916 74.7238 72.2157 74.1553C72.6695 73.6758 73.1834 73.2582 73.6554 72.7682C76.1356 70.2726 77.9024 67.343 78.8305 63.9307C79.3011 62.257 80.2919 61.1048 81.973 60.6419C82.7717 60.4224 83.5295 60.8068 83.7365 61.4608C83.9672 62.1978 83.6493 62.7439 82.9813 63.1054C82.8612 63.1506 82.7229 63.2062 82.5115 63.3041ZM64.3716 69.7647C63.7506 70.1232 63.1583 70.4894 62.5268 70.8298C61.6186 71.2816 60.997 71.1329 60.5783 70.4077C60.1596 69.6826 60.3312 69.0517 61.1505 68.5303C62.0611 67.9563 63.0136 67.4547 63.9164 66.9093C67.0632 65.02 68.7467 62.2834 68.8206 58.615C68.8528 57.1944 69.262 56.5956 70.1681 56.6042C71.0742 56.6129 71.5659 57.2958 71.5388 58.6409C71.4502 63.0431 69.5508 66.4602 65.8694 68.8999C65.3867 69.2028 64.883 69.4694 64.3716 69.7647ZM84.4614 45.548C84.8591 46.2369 85.2751 46.9153 85.6363 47.6253C86.0394 48.4078 85.8522 49.096 85.2234 49.4832C84.5398 49.9021 83.8215 49.7125 83.2957 48.9283C82.9138 48.3511 82.5579 47.7347 82.2203 47.1078C81.0923 45.0276 79.6957 43.1992 77.6496 41.8908C77.1008 41.5308 76.6823 40.9748 76.9479 40.338C77.1223 39.923 77.6153 39.4692 78.0434 39.3671C78.4428 39.2574 78.9862 39.5237 79.3678 39.7627C81.0716 40.8578 82.4442 42.265 83.5221 43.9632C83.8621 44.4679 84.1396 45.0328 84.4614 45.548ZM77.5958 47.0705C77.2779 47.6166 76.6304 47.6762 76.0582 47.4023C75.7395 47.272 75.4624 47.0452 75.1671 46.829C73.3063 45.462 71.256 45.0745 69.019 45.7134C68.8519 45.7615 68.6771 45.8383 68.51 45.8864C67.7556 46.0561 67.1939 45.8003 66.8979 45.0768C66.6047 44.4001 66.878 43.7346 67.6583 43.3566C68.0628 43.1714 68.5092 43.0588 68.9373 42.9566C71.9994 42.2281 74.7133 43.0059 77.1336 44.9201C77.2722 45.0335 77.3924 45.1575 77.5127 45.2814C77.5728 45.3434 77.6147 45.4159 77.6853 45.496C77.9681 46.1546 77.8642 46.6496 77.5958 47.0705ZM57.8091 58.5669C56.9008 56.6983 56.3577 54.6188 56.308 52.4236C56.3019 51.6537 56.51 51.0017 57.327 50.7717C58.1153 50.5342 58.9568 51.0636 58.9892 51.9634C59.0936 54.1269 59.6236 56.1415 60.6103 58.0615C61.0029 58.8259 60.7505 59.5276 60.1007 59.8785C59.4614 60.2476 58.7614 60.0475 58.2592 59.3464C58.1153 59.1394 57.9975 58.8932 57.8091 58.5669ZM68.5827 73.4731C68.1626 73.7156 67.753 73.9763 67.3119 74.1826C66.6152 74.5365 66.0223 74.3954 65.588 73.7276C65.1537 73.0598 65.2678 72.4137 65.9931 71.8983C66.8906 71.2593 67.8587 70.7004 68.7457 70.0432C74.1459 65.9827 75.862 57.8611 72.557 52.0101C72.3895 51.72 71.6488 50.3106 70.5346 50.9539C69.7127 51.4284 69.9701 52.6335 70.0199 52.8464C70.2143 53.7736 69.8834 54.4239 69.1212 54.6222C68.3695 54.8387 67.6875 54.4589 67.3731 53.5769C66.8019 51.9971 67.0482 50.5254 68.193 49.2602C69.2491 48.0945 70.9537 47.7146 72.4767 48.2856C73.5948 48.7036 74.3948 49.4987 74.9444 50.535C79.3226 58.4979 76.4472 68.7875 68.5827 73.4731ZM55.3512 32.1639C59.3896 29.0347 64.21 27.0493 69.2987 26.6252C69.5302 26.6044 69.7591 26.5931 69.9854 26.5913C70.4737 26.5512 70.9646 26.5578 71.4504 26.6399C72.1373 26.7751 72.5139 27.2587 72.4886 27.9742C72.4424 28.6536 72.0827 29.1272 71.3543 29.2576C71.0175 29.307 70.6493 29.302 70.2916 29.3152C62.3664 29.846 56.2118 33.4155 51.8278 40.0236C51.6975 40.2197 51.5855 40.4053 51.4447 40.5832C50.8764 41.3706 50.2264 41.5525 49.534 41.1546C48.8807 40.7824 48.6578 40.0167 49.1295 39.1885C50.3645 37.0251 51.8949 35.0779 53.7913 33.4271C54.2886 32.995 54.8086 32.5739 55.3512 32.1639ZM61.165 65.4763C60.471 65.877 59.7873 66.2959 59.0723 66.6603C58.2294 67.0986 57.4641 66.912 57.0795 66.288C56.6608 65.5629 56.9106 64.8144 57.7769 64.2901C58.8989 63.6181 60.0445 63.0292 61.1378 62.3497C63.5147 60.8565 64.019 58.9458 62.7835 56.4684C61.4015 53.7372 61.291 50.9728 62.575 48.1769C62.7755 47.7228 63.1535 47.2386 63.5841 47.0142C64.4426 46.5186 65.4357 47.2263 65.369 48.2075C65.3511 48.5562 65.1818 48.8957 65.049 49.2141C64.1688 51.1484 64.2207 53.0522 65.0847 54.9706C67.1662 59.546 66.1881 62.5762 61.8591 65.0755C61.6278 65.2091 61.3964 65.3427 61.165 65.4763ZM53.1461 61.1624C50.201 55.0068 50.1622 48.8653 53.3117 42.7202C53.4471 42.4486 53.6191 42.156 53.8434 41.9539C54.2816 41.5318 54.7984 41.3301 55.4019 41.6584C56.016 42.0049 56.2543 42.5441 56.0566 43.2142C55.9708 43.5296 55.8067 43.7936 55.6712 44.0652C53.0014 49.5225 52.9244 54.9573 55.7406 60.3412C55.8976 60.6132 56.0363 60.8957 56.0811 61.1841C56.2307 61.8228 55.9676 62.3373 55.3699 62.6099C54.801 62.89 54.2291 62.7851 53.8237 62.294C53.5491 61.9449 53.3659 61.5431 53.1461 61.1624ZM63.8308 39.4268C66.187 38.0664 68.9199 37.1896 71.7923 37.2716C71.9681 37.2668 72.1448 37.2775 72.3224 37.3039C73.367 37.426 73.9343 37.9445 73.9117 38.7069C73.8867 39.5915 73.2841 40.1086 72.1482 40.0393C70.1322 39.9221 68.1872 40.2232 66.3186 41.0361C64.1472 41.9997 62.389 43.4257 61.0963 45.4049C60.9321 45.6688 60.7784 45.951 60.6037 46.1968C60.0588 46.8982 59.3619 47.083 58.7478 46.7366C58.0554 46.3387 57.7933 45.5473 58.3355 44.7991C59.3861 43.3707 61.3649 40.8504 63.8308 39.4268ZM81.1067 50.4097C82.015 52.2783 82.5581 54.3578 82.579 56.5453C82.6139 57.3229 82.4058 57.9748 81.5888 58.2048C80.7822 58.4529 79.9591 57.9129 79.9266 57.0131C79.8222 54.8496 79.2923 52.835 78.3055 50.915C77.9129 50.1506 78.1653 49.4489 78.8151 49.098C79.4544 48.7289 80.1544 48.929 80.6566 49.6301C80.8005 49.8371 80.9183 50.0833 81.1067 50.4097ZM89.5823 43.7034C93.8423 51.0819 93.987 60.5705 91.8661 68.7081C91.6504 69.5578 91.161 70.7348 90.7154 71.5238C90.3403 72.2238 89.6593 72.6895 88.9252 72.3882C88.0448 72.0021 88.1063 71.0964 88.3352 70.3116C88.3819 70.1396 88.5227 69.9616 88.5983 69.7972C91.6075 62.1859 91.0409 51.4181 86.8936 44.3613C86.2422 43.3596 85.5986 42.3292 84.8741 41.3697C79.0024 33.5197 67.0627 32.4122 59.7202 38.9719C59.5845 39.0744 59.4803 39.2313 59.3446 39.3338C58.6142 39.9247 57.7081 39.916 57.193 39.3191C56.7772 38.8098 56.8441 37.9977 57.4622 37.4232C58.1691 36.7493 58.9046 36.0829 59.7134 35.5434C70.2487 28.3973 83.3905 32.3882 88.7973 42.3437C88.8182 42.3799 89.5823 43.7034 89.5823 43.7034Z" fill="#D2D9E0" fill-opacity="0.25"/>
<path fill-rule="evenodd" clip-rule="evenodd" d="M107.046 131.171C106.57 131.325 106.46 131.797 106.327 132.254C105.636 134.578 104.408 136.607 102.672 138.337C102.381 138.627 102.078 138.923 101.756 139.185C101.383 139.491 100.842 139.455 100.55 139.108C100.245 138.738 100.257 138.336 100.586 137.979C100.871 137.679 101.193 137.417 101.489 137.109C103.046 135.543 104.154 133.705 104.737 131.564C105.032 130.514 105.653 129.791 106.708 129.501C107.209 129.363 107.685 129.604 107.815 130.014C107.96 130.477 107.76 130.819 107.341 131.046C107.266 131.075 107.179 131.11 107.046 131.171ZM95.6644 135.225C95.2747 135.45 94.9031 135.679 94.5068 135.893C93.937 136.176 93.547 136.083 93.2843 135.628C93.0216 135.173 93.1292 134.777 93.6433 134.45C94.2146 134.09 94.8123 133.775 95.3787 133.433C97.3532 132.248 98.4095 130.531 98.4558 128.229C98.4761 127.337 98.7328 126.962 99.3013 126.967C99.8699 126.973 100.178 127.401 100.161 128.245C100.106 131.007 98.914 133.151 96.6041 134.682C96.3013 134.872 95.9852 135.039 95.6644 135.225ZM108.27 120.03C108.519 120.462 108.78 120.888 109.007 121.333C109.26 121.824 109.142 122.256 108.748 122.499C108.319 122.762 107.868 122.643 107.538 122.151C107.299 121.789 107.075 121.402 106.863 121.009C106.156 119.703 105.279 118.556 103.996 117.735C103.651 117.509 103.389 117.161 103.555 116.761C103.665 116.501 103.974 116.216 104.243 116.152C104.493 116.083 104.834 116.25 105.074 116.4C106.143 117.087 107.004 117.97 107.68 119.036C107.894 119.352 108.068 119.707 108.27 120.03ZM103.962 120.985C103.762 121.328 103.356 121.365 102.997 121.193C102.797 121.112 102.623 120.969 102.438 120.834C101.27 119.976 99.9839 119.733 98.5803 120.134C98.4755 120.164 98.3658 120.212 98.261 120.242C97.7876 120.349 97.4352 120.188 97.2495 119.734C97.0655 119.31 97.237 118.892 97.7266 118.655C97.9804 118.539 98.2605 118.468 98.5291 118.404C100.45 117.947 102.153 118.435 103.672 119.636C103.759 119.707 103.834 119.785 103.91 119.863C103.947 119.902 103.974 119.947 104.018 119.997C104.195 120.411 104.13 120.721 103.962 120.985ZM91.5468 128.199C90.9768 127.026 90.6361 125.721 90.6049 124.344C90.6011 123.861 90.7316 123.452 91.2443 123.308C91.7389 123.159 92.2669 123.491 92.2872 124.055C92.3527 125.413 92.6852 126.677 93.3044 127.882C93.5507 128.361 93.3923 128.801 92.9846 129.022C92.5835 129.253 92.1443 129.128 91.8292 128.688C91.7389 128.558 91.665 128.403 91.5468 128.199ZM98.3066 137.551C98.043 137.704 97.786 137.867 97.5093 137.997C97.0721 138.219 96.7001 138.13 96.4276 137.711C96.1551 137.292 96.2267 136.887 96.6818 136.563C97.2449 136.162 97.8523 135.812 98.4088 135.399C101.797 132.852 102.874 127.756 100.8 124.085C100.695 123.903 100.23 123.018 99.5313 123.422C99.0156 123.72 99.1771 124.476 99.2084 124.609C99.3303 125.191 99.1227 125.599 98.6445 125.724C98.1728 125.859 97.7449 125.621 97.5476 125.068C97.1892 124.076 97.3438 123.153 98.0621 122.359C98.7247 121.628 99.7943 121.389 100.75 121.748C101.451 122.01 101.953 122.509 102.298 123.159C105.045 128.155 103.241 134.611 98.3066 137.551ZM90.0046 111.632C92.5384 109.669 95.563 108.423 98.7559 108.157C98.9011 108.144 99.0447 108.137 99.1867 108.136C99.4931 108.111 99.8011 108.115 100.106 108.166C100.537 108.251 100.773 108.554 100.757 109.003C100.728 109.43 100.503 109.727 100.046 109.809C99.8343 109.84 99.6033 109.837 99.3788 109.845C94.4062 110.178 90.5446 112.418 87.7939 116.564C87.7121 116.687 87.6418 116.803 87.5534 116.915C87.1969 117.409 86.7891 117.523 86.3546 117.273C85.9447 117.04 85.8049 116.559 86.1008 116.04C86.8757 114.682 87.836 113.461 89.0258 112.425C89.3379 112.154 89.6641 111.889 90.0046 111.632ZM93.6524 132.534C93.2169 132.785 92.788 133.048 92.3394 133.277C91.8105 133.552 91.3303 133.435 91.089 133.043C90.8263 132.588 90.983 132.119 91.5266 131.79C92.2305 131.368 92.9493 130.998 93.6353 130.572C95.1267 129.635 95.4431 128.436 94.6679 126.882C93.8008 125.168 93.7315 123.434 94.5371 121.68C94.6629 121.395 94.9001 121.091 95.1702 120.95C95.7089 120.639 96.332 121.083 96.2902 121.699C96.279 121.917 96.1727 122.13 96.0894 122.33C95.5371 123.544 95.5697 124.738 96.1118 125.942C97.4178 128.813 96.8041 130.714 94.0879 132.282C93.9428 132.366 93.7976 132.45 93.6524 132.534ZM88.621 129.827C86.7731 125.965 86.7488 122.111 88.7249 118.256C88.8099 118.085 88.9178 117.902 89.0585 117.775C89.3334 117.51 89.6577 117.383 90.0364 117.59C90.4217 117.807 90.5712 118.145 90.4472 118.566C90.3934 118.764 90.2903 118.929 90.2054 119.1C88.5302 122.524 88.4819 125.934 90.2489 129.312C90.3474 129.483 90.4344 129.66 90.4625 129.841C90.5564 130.242 90.3913 130.564 90.0163 130.735C89.6594 130.911 89.3005 130.845 89.0462 130.537C88.8739 130.318 88.7589 130.066 88.621 129.827ZM95.325 116.189C96.8034 115.336 98.5181 114.786 100.32 114.837C100.431 114.834 100.542 114.841 100.653 114.857C101.308 114.934 101.664 115.259 101.65 115.738C101.635 116.293 101.256 116.617 100.544 116.574C99.2788 116.5 98.0584 116.689 96.886 117.199C95.5236 117.804 94.4204 118.698 93.6093 119.94C93.5063 120.106 93.4098 120.283 93.3002 120.437C92.9583 120.877 92.521 120.993 92.1358 120.776C91.7013 120.526 91.5368 120.03 91.8771 119.56C92.5362 118.664 93.7778 117.083 95.325 116.189ZM106.165 123.08C106.735 124.253 107.075 125.558 107.089 126.93C107.11 127.418 106.98 127.827 106.467 127.971C105.961 128.127 105.445 127.788 105.424 127.224C105.359 125.866 105.026 124.602 104.407 123.398C104.161 122.918 104.319 122.478 104.727 122.257C105.128 122.026 105.567 122.151 105.882 122.591C105.973 122.721 106.046 122.876 106.165 123.08ZM111.483 118.873C114.156 123.502 114.246 129.456 112.916 134.562C112.78 135.095 112.473 135.833 112.194 136.328C111.958 136.768 111.531 137.06 111.07 136.871C110.518 136.628 110.557 136.06 110.7 135.568C110.73 135.46 110.818 135.348 110.865 135.245C112.753 130.469 112.398 123.713 109.796 119.285C109.387 118.657 108.983 118.01 108.529 117.408C104.844 112.483 97.3529 111.788 92.7459 115.904C92.6608 115.968 92.5953 116.067 92.5102 116.131C92.0519 116.502 91.4834 116.496 91.1602 116.122C90.8993 115.802 90.9413 115.293 91.3291 114.932C91.7726 114.509 92.2341 114.091 92.7416 113.753C99.3519 109.269 107.598 111.773 110.99 118.019C111.003 118.042 111.483 118.873 111.483 118.873Z" fill="#D2D9E0" fill-opacity="0.25"/>
<g opacity="0.4">
<path fill-rule="evenodd" clip-rule="evenodd" d="M325.224 109.464C325.942 109.026 326.719 108.687 327.517 108.468L327.976 106.215L331.785 106.136L332.343 108.388C333.141 108.587 333.918 108.886 334.656 109.285L336.591 108.029L339.323 110.68L338.126 112.653C338.565 113.371 338.904 114.128 339.123 114.925L341.377 115.404L341.457 119.211L339.203 119.749C339.004 120.546 338.705 121.323 338.306 122.061L339.562 123.994L336.91 126.745L334.936 125.549C334.218 125.987 333.46 126.306 332.662 126.525L332.183 128.798L328.375 128.857L327.836 126.625C327.038 126.426 326.241 126.127 325.523 125.708L323.589 126.964L320.837 124.333L322.033 122.36C321.594 121.642 321.275 120.865 321.056 120.068L318.782 119.609L318.723 115.802L320.956 115.244C321.156 114.447 321.455 113.67 321.873 112.932L320.617 110.999L323.249 108.268L325.224 109.464ZM327.258 114.547C325.702 116.161 325.742 118.752 327.358 120.327C328.993 121.881 331.585 121.842 333.161 120.227C334.716 118.593 334.676 116.002 333.041 114.427C331.426 112.873 328.833 112.912 327.258 114.547Z" fill="#D2D9E0"/>
<path fill-rule="evenodd" clip-rule="evenodd" d="M204.415 110.819C205.672 110.062 207.008 109.484 208.384 109.105L209.201 105.159L215.862 105.059L216.819 108.946C218.215 109.305 219.571 109.823 220.848 110.54L224.198 108.328L228.984 112.952L226.91 116.38C227.668 117.636 228.246 118.971 228.625 120.367L232.573 121.184L232.693 127.821L228.784 128.778C228.445 130.173 227.907 131.528 227.189 132.804L229.403 136.172L224.776 140.956L221.346 138.863C220.09 139.62 218.754 140.198 217.378 140.597L216.56 144.523L209.899 144.643L208.942 140.736C207.546 140.397 206.19 139.879 204.914 139.162L201.544 141.354L196.778 136.75L198.852 133.302C198.094 132.046 197.515 130.711 197.117 129.336L193.188 128.518L193.068 121.881L196.977 120.925C197.316 119.529 197.854 118.174 198.572 116.879L196.359 113.53L200.985 108.747L204.415 110.819ZM207.945 119.669C205.213 122.499 205.293 127.024 208.125 129.754C210.956 132.485 215.483 132.405 218.215 129.575C220.947 126.745 220.867 122.22 218.036 119.49C215.204 116.759 210.697 116.839 207.945 119.669Z" fill="#D2D9E0"/>
<path fill-rule="evenodd" clip-rule="evenodd" d="M246.274 71.814C246.892 71.4552 247.53 71.1762 248.208 70.9769L248.607 69.0635L251.838 69.0037L252.296 70.8971C252.974 71.0765 253.652 71.3356 254.271 71.6745L255.906 70.5982L258.239 72.8504L257.222 74.5246C257.581 75.1425 257.86 75.7803 258.06 76.458L259.974 76.8566L260.034 80.0855L258.139 80.5638C257.96 81.2415 257.701 81.8992 257.362 82.5171L258.439 84.1514L256.185 86.4834L254.51 85.4669C253.892 85.8257 253.254 86.1047 252.576 86.304L252.177 88.2174L248.946 88.2772L248.468 86.3837C247.79 86.2044 247.131 85.9452 246.513 85.6064L244.878 86.6827L242.545 84.4305L243.562 82.7562C243.203 82.1384 242.924 81.5006 242.724 80.8229L240.81 80.4243L240.75 77.1954L242.644 76.737C242.824 76.0593 243.083 75.3817 243.422 74.7638L242.345 73.1294L244.599 70.7975L246.274 71.814ZM248.009 76.1391C246.673 77.5143 246.713 79.7068 248.089 81.0421C249.465 82.3576 251.658 82.3177 252.994 80.9425C254.33 79.5672 254.291 77.3748 252.915 76.0394C251.519 74.704 249.325 74.7439 248.009 76.1391Z" fill="#F5F5F5"/>
<path fill-rule="evenodd" clip-rule="evenodd" d="M266.156 80.8627C267.233 80.2249 268.37 79.7266 269.546 79.4077L270.244 76.0394L275.908 75.9397L276.725 79.2682C277.922 79.5672 279.079 80.0256 280.175 80.6235L283.047 78.75L287.115 82.6765L285.34 85.6064C285.999 86.6827 286.477 87.8187 286.816 88.9947L290.166 89.7122L290.266 95.3727L286.936 96.1899C286.657 97.3658 286.198 98.5218 285.58 99.6181L287.474 102.488L283.526 106.574L280.594 104.8C279.517 105.438 278.381 105.936 277.204 106.255L276.506 109.624L270.843 109.723L270.025 106.395C268.828 106.096 267.672 105.637 266.575 105.039L263.723 106.913L259.635 102.986L261.41 100.057C260.772 98.9802 260.273 97.8442 259.934 96.6682L256.584 95.9706L256.484 90.2902L259.815 89.473C260.094 88.2971 260.553 87.1411 261.171 86.0449L259.276 83.1748L263.225 79.0888L266.156 80.8627ZM269.187 88.4167C266.854 90.8284 266.914 94.695 269.327 97.027C271.74 99.3589 275.609 99.2792 277.942 96.8675C280.275 94.4558 280.195 90.6091 277.782 88.2772C275.369 85.9452 271.521 86.005 269.187 88.4167Z" fill="#D2D9E0"/>
</g>
<path d="M235.027 93.6386C236.403 92.8015 237.878 92.1637 239.394 91.7451L240.311 87.42L247.61 87.2805L248.667 91.5657C250.203 91.9444 251.698 92.5424 253.114 93.3197L256.803 90.908L262.068 95.9705L259.775 99.7575C260.612 101.133 261.25 102.608 261.689 104.122L266.017 105.019L266.136 112.334L261.849 113.39C261.47 114.925 260.891 116.42 260.094 117.835L262.527 121.522L257.441 126.784L253.652 124.492C252.276 125.329 250.801 125.967 249.285 126.386L248.388 130.711L241.069 130.85L240.012 126.545C238.477 126.186 236.981 125.588 235.585 124.811L231.876 127.223L226.611 122.16L228.904 118.373C228.067 116.998 227.429 115.523 227.01 114.008L222.683 113.111L222.543 105.797L226.85 104.74C227.229 103.206 227.808 101.711 228.585 100.296L226.172 96.6084L231.258 91.3465L235.027 93.6386Z" fill="#D90452"/>
<path d="M239.753 114.666H235.725V102.129H239.753V114.666Z" fill="white"/>
<path d="M245.735 114.666H241.727V104.979H245.735V114.666Z" fill="white"/>
<path d="M251.3 114.666H247.271V108.926H251.3V114.666Z" fill="white"/>
<path d="M174.783 92.7417C176.159 91.9245 177.634 91.2867 179.15 90.8482L180.067 86.5232L187.366 86.4036L188.423 90.6888C189.958 91.0675 191.454 91.6455 192.87 92.4427L196.559 90.0111L201.824 95.0936L199.531 98.8606C200.368 100.256 201.006 101.731 201.445 103.245L205.772 104.142L205.892 111.457L201.604 112.514C201.226 114.028 200.647 115.523 199.85 116.938L202.283 120.645L197.197 125.887L193.408 123.615C192.032 124.432 190.557 125.07 189.041 125.509L188.144 129.834L180.825 129.953L179.768 125.668C178.232 125.289 176.737 124.711 175.341 123.914L171.632 126.346L166.367 121.263L168.66 117.496C167.823 116.101 167.185 114.626 166.766 113.111L162.438 112.215L162.299 104.9L166.606 103.843C166.985 102.329 167.564 100.834 168.341 99.4187L165.928 95.7115L171.013 90.4695L174.783 92.7417Z" fill="#D90452"/>
<path d="M185.272 120.426C179.808 120.426 174.902 116.779 173.347 111.557C173.327 111.457 173.387 111.338 173.487 111.318C173.586 111.278 173.706 111.338 173.726 111.437C175.241 116.5 179.988 120.028 185.272 120.028C191.893 120.028 197.297 114.626 197.297 108.009C197.297 101.372 191.893 95.9706 185.272 95.9706C179.708 95.9706 174.922 99.7377 173.586 105.099C173.566 105.219 173.447 105.279 173.347 105.239C173.227 105.219 173.167 105.119 173.187 105C174.563 99.4586 179.529 95.572 185.272 95.572C192.112 95.572 197.696 101.153 197.696 108.009C197.696 114.846 192.112 120.426 185.272 120.426Z" fill="white"/>
<path d="M185.193 116.639C181.345 116.639 177.915 114.048 176.878 110.321C176.838 110.222 176.918 110.122 177.017 110.082C177.117 110.062 177.237 110.122 177.257 110.222C178.254 113.769 181.524 116.241 185.193 116.241C189.74 116.241 193.43 112.553 193.43 108.009C193.43 103.465 189.74 99.7775 185.193 99.7775C181.524 99.7775 178.254 102.249 177.257 105.777C177.237 105.896 177.117 105.956 177.017 105.916C176.918 105.896 176.838 105.777 176.878 105.677C177.915 101.97 181.345 99.3789 185.193 99.3789C189.96 99.3789 193.828 103.246 193.828 108.009C193.828 112.773 189.96 116.639 185.193 116.639Z" fill="white"/>
<path d="M185.194 109.942C184.755 109.942 184.336 109.803 183.957 109.564C183.878 109.504 183.858 109.384 183.918 109.285C183.977 109.205 184.097 109.165 184.177 109.225C184.476 109.444 184.835 109.544 185.194 109.544C186.191 109.544 187.009 108.727 187.009 107.73C187.009 106.733 186.191 105.936 185.194 105.936C184.895 105.936 184.596 105.996 184.336 106.136C184.237 106.195 184.117 106.155 184.077 106.056C184.017 105.956 184.057 105.837 184.157 105.797C184.476 105.617 184.835 105.538 185.194 105.538C186.41 105.538 187.407 106.514 187.407 107.73C187.407 108.946 186.41 109.942 185.194 109.942Z" fill="white"/>
<path d="M185.273 107.65L182.042 106.096L182.102 107.491L173.547 107.69L173.627 108.308L182.202 108.169L182.242 109.604L185.273 107.65Z" fill="white"/>
<path d="M175.9 107.889L175.86 107.81C175.621 107.371 175.162 107.072 174.664 107.052L171.832 106.953L173.068 108.069L171.972 109.404L174.684 109.344C175.302 109.344 175.82 108.926 176 108.328L175.9 107.889Z" fill="white"/>
<path d="M185.274 113.211C182.961 113.211 180.906 111.676 180.268 109.464C180.228 109.364 180.288 109.245 180.388 109.225C180.508 109.185 180.607 109.245 180.647 109.345C181.246 111.397 183.14 112.813 185.274 112.813C187.926 112.813 190.08 110.66 190.08 108.009C190.08 105.358 187.926 103.186 185.274 103.186C183.16 103.186 181.265 104.601 180.647 106.614C180.627 106.714 180.508 106.773 180.408 106.753C180.308 106.714 180.248 106.614 180.268 106.494C180.926 104.322 182.98 102.787 185.274 102.787C188.145 102.787 190.479 105.139 190.479 108.009C190.479 110.879 188.145 113.211 185.274 113.211Z" fill="white"/>
<path d="M294.614 92.4228C296.01 91.5857 297.486 90.9479 299.001 90.5094L299.899 86.1843L307.217 86.0647L308.274 90.3499C309.79 90.7286 311.286 91.3066 312.702 92.1039L316.411 89.6723L321.675 94.7547L319.382 98.5417C320.22 99.9169 320.838 101.392 321.277 102.907L325.604 103.804L325.724 111.118L321.436 112.175C321.057 113.709 320.479 115.184 319.701 116.599L322.114 120.307L317.029 125.568L313.26 123.276C311.864 124.113 310.388 124.731 308.873 125.17L307.975 129.495L300.657 129.634L299.62 125.329C298.084 124.951 296.588 124.373 295.173 123.595L291.483 126.007L286.219 120.924L288.512 117.157C287.674 115.762 287.036 114.307 286.597 112.773L282.27 111.876L282.15 104.561L286.438 103.524C286.817 101.99 287.395 100.495 288.193 99.0798L285.76 95.3925L290.845 90.1307L294.614 92.4228Z" fill="#D90452"/>
<path d="M293.219 108.467L296.031 105.677L301.435 110.48L312.044 100.276L314.656 103.066L301.036 115.882L293.219 108.467Z" fill="white"/>
<path d="M220.77 94.695C220.77 94.695 220.789 94.6551 220.829 94.5754C220.869 94.4824 220.922 94.3628 220.989 94.2166C221.055 94.0439 221.142 93.8446 221.248 93.6187C221.348 93.3994 221.468 93.1204 221.647 92.8414C221.807 92.549 221.979 92.2301 222.165 91.8846C222.365 91.5458 222.624 91.1871 222.863 90.7884C223.123 90.3898 223.442 90.0111 223.761 89.5926C224.06 89.1541 224.439 88.7355 224.838 88.297C225.197 87.8386 225.675 87.42 226.114 86.9616C226.333 86.7424 226.593 86.5431 226.852 86.3039C227.091 86.0847 227.35 85.8654 227.61 85.6462C227.889 85.4336 228.175 85.221 228.467 85.0084C228.607 84.9087 228.746 84.7891 228.886 84.6895C229.045 84.5832 229.198 84.4835 229.345 84.3905C229.664 84.1713 229.963 83.9719 230.282 83.7726C230.614 83.5866 230.953 83.3939 231.299 83.1946C231.618 82.9953 231.997 82.8359 232.356 82.6565C232.715 82.497 233.074 82.2977 233.453 82.1582C233.825 82.012 234.204 81.8592 234.589 81.6998C234.988 81.5669 235.387 81.4407 235.786 81.3211C237.421 80.8228 239.156 80.5039 240.951 80.3843C242.746 80.2847 244.501 80.4042 246.176 80.7032C246.601 80.7829 247.013 80.8627 247.412 80.9424C247.811 81.0487 248.21 81.155 248.609 81.2613C249.007 81.3609 249.386 81.5005 249.765 81.62C250.144 81.7596 250.523 81.8792 250.882 82.0386C251.241 82.1848 251.593 82.3309 251.939 82.4771C252.278 82.6365 252.617 82.8159 252.936 82.9754C253.109 83.0684 253.275 83.1548 253.435 83.2345C253.594 83.3142 253.754 83.4139 253.893 83.4936C254.212 83.6796 254.518 83.859 254.811 84.0317C255.11 84.2111 255.389 84.4104 255.668 84.6097C255.927 84.7891 256.206 84.9685 256.466 85.1678C256.964 85.5664 257.463 85.9252 257.902 86.3438C258.34 86.7225 258.759 87.1011 259.118 87.4798C259.477 87.8785 259.856 88.2173 260.135 88.5761C260.434 88.9348 260.713 89.2737 260.973 89.5926C261.199 89.9115 261.411 90.2038 261.611 90.4695C261.81 90.7286 261.95 90.9877 262.089 91.207C262.209 91.4196 262.315 91.599 262.408 91.7451C262.501 91.8913 262.568 92.0042 262.608 92.084C262.661 92.1637 262.681 92.2036 262.668 92.2036C262.668 92.2036 262.641 92.1703 262.588 92.1039C262.535 92.0242 262.468 91.9112 262.388 91.7651C262.282 91.6189 262.162 91.4395 262.03 91.2269C261.89 91.0276 261.75 90.7685 261.531 90.5094C261.345 90.2569 261.132 89.9713 260.893 89.6524C260.634 89.3335 260.354 89.0146 260.055 88.6558C259.756 88.297 259.397 87.9582 259.018 87.5795C258.659 87.2008 258.241 86.842 257.802 86.4434C257.383 86.0448 256.865 85.686 256.366 85.3073C256.127 85.0881 255.847 84.9286 255.568 84.7293C255.289 84.5499 255.01 84.3506 254.731 84.1713C254.425 83.9985 254.119 83.8258 253.813 83.653C253.654 83.5733 253.514 83.4737 253.355 83.3939C253.195 83.3142 253.029 83.2278 252.856 83.1348C252.537 82.9754 252.198 82.8159 251.859 82.6565C251.513 82.5103 251.161 82.3641 250.802 82.218C250.443 82.0585 250.064 81.9389 249.705 81.8194C249.326 81.6998 248.948 81.5403 248.549 81.4606C248.163 81.3543 247.771 81.248 247.372 81.1417C246.96 81.062 246.548 80.9822 246.136 80.9025C244.481 80.6235 242.746 80.484 240.971 80.5836C239.176 80.7032 237.461 81.0221 235.846 81.5005C235.447 81.6333 235.055 81.7662 234.669 81.8991C234.284 82.0453 233.905 82.1914 233.532 82.3376C233.154 82.4771 232.795 82.6764 232.436 82.8359C232.077 83.0152 231.718 83.1747 231.379 83.374C231.046 83.56 230.714 83.746 230.382 83.9321C230.062 84.1314 229.763 84.3307 229.444 84.53C229.298 84.6363 229.145 84.736 228.986 84.829C228.846 84.9286 228.706 85.0482 228.567 85.1479C228.274 85.3605 227.995 85.5731 227.729 85.7857C227.45 86.0049 227.211 86.2242 226.952 86.4434C226.712 86.6627 226.453 86.862 226.234 87.0812C225.775 87.5396 225.316 87.9383 224.937 88.3967C224.559 88.8352 224.16 89.2338 223.861 89.6723C223.541 90.0908 223.222 90.4695 222.963 90.8682C222.704 91.2469 222.465 91.6056 222.245 91.9444C222.046 92.2899 221.866 92.6022 221.707 92.8812C221.547 93.1603 221.408 93.4194 221.308 93.6585C221.188 93.8711 221.095 94.0572 221.029 94.2166C220.949 94.3628 220.889 94.4824 220.849 94.5754C220.809 94.6551 220.783 94.695 220.77 94.695Z" fill="#263238"/>
<path d="M229.025 81.5205C229.025 81.5005 229.185 81.381 229.484 81.2016C229.783 81.0023 230.242 80.7432 230.8 80.4641C231.917 79.8861 233.552 79.2084 235.447 78.77C237.341 78.3315 239.096 78.2119 240.372 78.2318C241.011 78.2318 241.529 78.2717 241.868 78.3115C242.227 78.3514 242.426 78.3713 242.426 78.3913C242.406 78.4112 242.227 78.4112 241.868 78.3913C241.509 78.3713 241.011 78.3713 240.372 78.3713C239.116 78.3913 237.381 78.5308 235.507 78.9693C233.632 79.4078 231.997 80.0456 230.86 80.6036C230.302 80.8627 229.843 81.1019 229.524 81.2614C229.225 81.4407 229.045 81.5205 229.025 81.5205Z" fill="#263238"/>
<path d="M324.886 122.041C324.886 122.041 324.873 122.087 324.847 122.18C324.807 122.26 324.753 122.38 324.687 122.539C324.607 122.699 324.521 122.891 324.428 123.117C324.308 123.336 324.188 123.615 324.029 123.894C323.869 124.187 323.69 124.506 323.49 124.851C323.291 125.19 323.052 125.549 322.792 125.947C322.553 126.346 322.234 126.725 321.915 127.163C321.596 127.582 321.217 128 320.838 128.439C320.459 128.897 320.001 129.316 319.542 129.774C319.323 129.993 319.063 130.213 318.824 130.432C318.565 130.651 318.325 130.87 318.046 131.09C317.767 131.302 317.488 131.515 317.209 131.727C317.069 131.847 316.93 131.947 316.77 132.046C316.624 132.153 316.471 132.259 316.311 132.365C316.012 132.564 315.693 132.764 315.374 132.963C315.042 133.149 314.709 133.342 314.377 133.541C314.038 133.74 313.679 133.9 313.32 134.079C312.961 134.239 312.602 134.438 312.223 134.578C311.838 134.724 311.452 134.877 311.067 135.036C310.668 135.169 310.269 135.302 309.87 135.435C308.255 135.913 306.52 136.252 304.725 136.371C302.91 136.451 301.155 136.332 299.48 136.052C299.068 135.959 298.656 135.873 298.244 135.793C297.845 135.687 297.446 135.581 297.047 135.474C296.649 135.375 296.29 135.235 295.911 135.116C295.532 134.976 295.153 134.857 294.794 134.697C294.435 134.551 294.083 134.405 293.737 134.259C293.378 134.099 293.059 133.92 292.72 133.76C292.56 133.681 292.401 133.601 292.241 133.521C292.062 133.422 291.922 133.322 291.763 133.242C291.457 133.056 291.151 132.877 290.845 132.704C290.566 132.525 290.287 132.325 290.008 132.146C289.729 131.947 289.449 131.767 289.21 131.568C288.712 131.169 288.193 130.811 287.774 130.412C287.336 130.013 286.897 129.655 286.558 129.256C286.179 128.877 285.82 128.518 285.541 128.16C285.242 127.801 284.943 127.462 284.703 127.163C284.464 126.831 284.251 126.532 284.065 126.266C283.866 126.007 283.706 125.748 283.587 125.529C283.454 125.316 283.341 125.137 283.248 124.991C283.168 124.844 283.101 124.732 283.048 124.652C283.008 124.572 282.988 124.532 282.988 124.532C282.988 124.532 283.015 124.565 283.068 124.632C283.121 124.725 283.194 124.838 283.287 124.971C283.38 125.117 283.493 125.296 283.626 125.509C283.766 125.708 283.926 125.967 284.125 126.226C284.324 126.492 284.544 126.778 284.783 127.083C285.022 127.402 285.321 127.721 285.621 128.08C285.9 128.439 286.279 128.778 286.638 129.156C286.997 129.555 287.435 129.914 287.874 130.292C288.293 130.691 288.791 131.05 289.29 131.448C289.549 131.648 289.828 131.807 290.108 132.006C290.367 132.186 290.646 132.385 290.945 132.564C291.238 132.737 291.537 132.91 291.843 133.083C292.002 133.182 292.162 133.262 292.321 133.362C292.481 133.441 292.64 133.521 292.8 133.601C293.139 133.76 293.458 133.92 293.797 134.079C294.156 134.225 294.508 134.372 294.854 134.518C295.213 134.677 295.592 134.797 295.971 134.916C296.349 135.056 296.708 135.195 297.107 135.295C297.506 135.388 297.905 135.488 298.304 135.594C298.703 135.674 299.108 135.753 299.52 135.833C301.175 136.132 302.93 136.252 304.705 136.152C306.48 136.033 308.195 135.714 309.81 135.235C310.209 135.102 310.608 134.976 311.007 134.857C311.392 134.697 311.771 134.544 312.143 134.398C312.522 134.259 312.881 134.059 313.24 133.9C313.579 133.72 313.958 133.581 314.277 133.362C314.623 133.176 314.955 132.99 315.274 132.804C315.593 132.624 315.913 132.405 316.212 132.206C316.371 132.099 316.524 132 316.67 131.907C316.81 131.807 316.949 131.688 317.109 131.588C317.388 131.375 317.667 131.163 317.947 130.95C318.206 130.751 318.465 130.512 318.704 130.312C318.964 130.093 319.223 129.874 319.442 129.655C319.881 129.196 320.36 128.797 320.719 128.339C321.117 127.901 321.496 127.502 321.815 127.083C322.134 126.645 322.453 126.266 322.693 125.888C322.952 125.489 323.211 125.13 323.411 124.791C323.61 124.459 323.79 124.147 323.949 123.855C324.129 123.575 324.248 123.316 324.368 123.077C324.474 122.865 324.567 122.679 324.647 122.519C324.714 122.373 324.773 122.253 324.827 122.16C324.866 122.081 324.886 122.041 324.886 122.041Z" fill="#263238"/>
<path d="M316.789 136.431C316.809 136.451 316.63 136.571 316.331 136.75C316.051 136.949 315.593 137.208 315.034 137.488C313.898 138.066 312.262 138.743 310.368 139.182C308.493 139.62 306.719 139.74 305.462 139.72C304.824 139.72 304.306 139.68 303.947 139.64C303.608 139.6 303.408 139.58 303.408 139.56C303.408 139.54 303.608 139.54 303.967 139.56C304.306 139.58 304.824 139.58 305.462 139.58C306.719 139.56 308.454 139.401 310.328 138.982C312.203 138.544 313.838 137.906 314.975 137.348C315.533 137.089 315.992 136.85 316.291 136.69C316.61 136.511 316.789 136.431 316.789 136.431Z" fill="#263238"/>
<path d="M205.552 121.164C205.552 121.164 205.533 121.204 205.493 121.283C205.453 121.376 205.4 121.496 205.333 121.642C205.267 121.802 205.18 121.994 205.074 122.22C204.974 122.459 204.855 122.718 204.675 123.017C204.516 123.296 204.343 123.615 204.157 123.974C203.957 124.313 203.698 124.672 203.459 125.05C203.199 125.469 202.88 125.848 202.561 126.266C202.262 126.705 201.883 127.103 201.484 127.562C201.125 128.02 200.647 128.419 200.208 128.877C199.989 129.116 199.729 129.316 199.47 129.535C199.231 129.754 198.972 129.993 198.712 130.213C198.433 130.412 198.147 130.625 197.855 130.85C197.715 130.95 197.576 131.07 197.436 131.169C197.277 131.262 197.124 131.362 196.977 131.468C196.658 131.668 196.359 131.887 196.04 132.086C195.708 132.272 195.369 132.458 195.023 132.644C194.704 132.863 194.325 133.003 193.966 133.182C193.607 133.362 193.248 133.541 192.869 133.681C192.497 133.84 192.118 134 191.733 134.159C191.334 134.279 190.935 134.405 190.536 134.538C188.901 135.016 187.166 135.355 185.371 135.474C183.576 135.574 181.822 135.435 180.146 135.156C179.721 135.076 179.309 134.996 178.91 134.916C178.511 134.81 178.112 134.704 177.713 134.597C177.315 134.498 176.936 134.358 176.557 134.219C176.178 134.099 175.799 133.98 175.44 133.82C175.081 133.661 174.729 133.508 174.383 133.362C174.044 133.202 173.705 133.043 173.386 132.863C173.213 132.784 173.047 132.704 172.888 132.624C172.728 132.545 172.568 132.445 172.429 132.345C172.11 132.173 171.804 132 171.512 131.827C171.212 131.628 170.933 131.428 170.654 131.249C170.395 131.07 170.116 130.89 169.856 130.691C169.358 130.272 168.859 129.934 168.421 129.515C167.982 129.116 167.563 128.758 167.204 128.359C166.845 127.98 166.466 127.641 166.187 127.263C165.888 126.904 165.609 126.585 165.349 126.266C165.123 125.947 164.911 125.655 164.711 125.389C164.512 125.11 164.372 124.871 164.233 124.652C164.113 124.439 164.007 124.253 163.914 124.094C163.821 123.961 163.754 123.848 163.714 123.755C163.661 123.688 163.641 123.649 163.654 123.635C163.654 123.635 163.681 123.675 163.734 123.755C163.787 123.835 163.854 123.941 163.934 124.074C164.04 124.233 164.16 124.413 164.293 124.612C164.432 124.831 164.572 125.07 164.791 125.329C164.977 125.595 165.19 125.888 165.429 126.206C165.688 126.525 165.968 126.844 166.267 127.203C166.566 127.562 166.925 127.901 167.304 128.279C167.663 128.658 168.081 129.017 168.52 129.415C168.939 129.814 169.457 130.153 169.956 130.551C170.195 130.751 170.475 130.93 170.754 131.11C171.033 131.289 171.312 131.488 171.591 131.668C171.897 131.84 172.203 132.02 172.509 132.206C172.668 132.285 172.808 132.385 172.967 132.465C173.127 132.545 173.293 132.624 173.466 132.704C173.785 132.863 174.124 133.043 174.463 133.202C174.809 133.348 175.161 133.495 175.52 133.641C175.879 133.8 176.258 133.9 176.617 134.039C176.996 134.159 177.374 134.299 177.773 134.398C178.159 134.504 178.551 134.611 178.95 134.717C179.349 134.797 179.761 134.877 180.186 134.956C181.841 135.235 183.576 135.355 185.351 135.275C187.146 135.156 188.861 134.817 190.476 134.338C190.875 134.219 191.267 134.093 191.653 133.96C192.038 133.814 192.417 133.661 192.79 133.501C193.169 133.362 193.527 133.182 193.886 133.023C194.245 132.844 194.604 132.684 194.943 132.485C195.276 132.299 195.608 132.113 195.94 131.927C196.26 131.727 196.559 131.508 196.878 131.329C197.024 131.222 197.177 131.123 197.336 131.03C197.476 130.91 197.616 130.811 197.755 130.711C198.048 130.485 198.327 130.272 198.593 130.073C198.872 129.854 199.111 129.635 199.37 129.415C199.61 129.196 199.869 128.997 200.088 128.758C200.547 128.319 201.006 127.901 201.385 127.462C201.764 127.024 202.162 126.605 202.461 126.187C202.781 125.768 203.1 125.389 203.359 124.991C203.618 124.612 203.857 124.253 204.077 123.914C204.276 123.569 204.456 123.257 204.615 122.978C204.775 122.699 204.914 122.419 205.014 122.2C205.134 121.974 205.227 121.782 205.293 121.622C205.373 121.476 205.433 121.363 205.473 121.283C205.513 121.204 205.539 121.164 205.552 121.164Z" fill="#263238"/>
<path d="M197.457 135.554C197.457 135.574 197.298 135.674 196.999 135.873C196.699 136.052 196.261 136.311 195.682 136.61C194.566 137.188 192.93 137.846 191.036 138.285C189.141 138.723 187.387 138.863 186.11 138.843C185.472 138.823 184.974 138.803 184.615 138.743C184.256 138.703 184.076 138.683 184.076 138.663C184.076 138.663 184.276 138.663 184.615 138.663C184.974 138.683 185.492 138.703 186.11 138.683C187.367 138.663 189.121 138.524 190.996 138.085C192.851 137.647 194.486 137.009 195.623 136.471C196.201 136.192 196.64 135.973 196.959 135.793C197.258 135.634 197.437 135.534 197.457 135.554Z" fill="#263238"/>
<path d="M290.504 72.5716H210.058C206.309 72.5716 203.258 69.5221 203.258 65.775C203.258 62.008 206.309 58.9585 210.058 58.9585H290.504C294.273 58.9585 297.304 62.008 297.304 65.775C297.304 69.5221 294.273 72.5716 290.504 72.5716Z" fill="#FAFAFA"/>
<path d="M290.505 72.5716C290.505 72.5716 290.684 72.5517 291.023 72.5317C291.382 72.5118 291.901 72.4321 292.539 72.2328C293.177 72.0335 293.955 71.6747 294.733 71.0568C295.51 70.4589 296.248 69.542 296.747 68.3661C296.986 67.7682 297.166 67.1104 297.245 66.4128C297.305 65.6953 297.245 64.9579 297.066 64.2005C296.727 62.6857 295.77 61.151 294.234 60.1544C293.476 59.6561 292.599 59.2974 291.642 59.1379C290.684 58.9785 289.667 59.0582 288.63 59.0383C286.556 59.0383 284.369 59.0383 282.069 59.0383C263.623 59.0383 238.177 59.0582 210.079 59.0781C208.344 59.0582 206.629 59.7558 205.412 60.9517C204.176 62.1475 203.438 63.8018 203.378 65.496C203.299 67.1702 203.897 68.8644 204.974 70.1201C206.051 71.3957 207.606 72.2128 209.221 72.4122C210.039 72.4919 210.877 72.452 211.694 72.4719C212.505 72.4719 213.323 72.4719 214.147 72.4719C215.769 72.4719 217.378 72.4719 218.973 72.4719C222.164 72.4719 225.281 72.4719 228.326 72.4719C240.51 72.4719 251.478 72.4919 260.692 72.4919C269.905 72.5118 277.363 72.5118 282.508 72.5317C285.081 72.5317 287.075 72.5517 288.431 72.5517C289.109 72.5517 289.627 72.5517 289.986 72.5517C290.325 72.5716 290.505 72.5716 290.505 72.5716C290.505 72.5716 290.325 72.5716 289.986 72.5716C289.627 72.5849 289.109 72.5915 288.431 72.5915C287.075 72.5915 285.081 72.5915 282.508 72.6115C277.363 72.6115 269.905 72.6314 260.692 72.6513C251.478 72.6513 240.51 72.6513 228.326 72.6713C225.281 72.6713 222.164 72.6713 218.973 72.6713C217.378 72.6713 215.769 72.6713 214.147 72.6713C213.323 72.6713 212.505 72.6713 211.694 72.6713C210.877 72.6513 210.039 72.7111 209.201 72.6115C207.526 72.4122 205.931 71.5551 204.834 70.2596C203.697 68.964 203.099 67.23 203.179 65.4761C203.239 63.742 203.997 62.028 205.273 60.8121C206.529 59.5764 208.284 58.8589 210.079 58.8589C238.177 58.8788 263.623 58.8788 282.069 58.8987C284.369 58.8987 286.556 58.8987 288.63 58.8987C289.667 58.9187 290.684 58.839 291.662 59.0183C292.639 59.1778 293.536 59.5365 294.294 60.0548C295.849 61.0713 296.827 62.6458 297.166 64.1606C297.345 64.9379 297.385 65.6953 297.325 66.4128C297.245 67.1304 297.066 67.808 296.826 68.406C296.308 69.5819 295.55 70.4987 294.772 71.1166C293.975 71.7146 293.197 72.0733 292.559 72.2726C291.901 72.4719 291.382 72.5317 291.043 72.5517C290.684 72.5716 290.505 72.5716 290.505 72.5716Z" fill="#263238"/>
<path d="M255.028 70.957H210.099C207.247 70.957 204.914 68.6251 204.914 65.7749C204.914 62.9048 207.247 60.5928 210.099 60.5928H255.028C257.9 60.5928 260.213 62.9048 260.213 65.7749C260.213 68.6251 257.9 70.957 255.028 70.957Z" fill="#D90452"/>
<g opacity="0.4">
<path d="M211.615 70.957L218.056 60.5928H224.956L218.655 70.957H211.615Z" fill="white"/>
</g>
<g opacity="0.4">
<path d="M225.455 70.957L231.896 60.5928H238.816L232.495 70.957H225.455Z" fill="white"/>
</g>
<g opacity="0.4">
<path d="M240.33 70.957L246.771 60.5928H253.671L247.35 70.957H240.33Z" fill="white"/>
</g>
<path fill-rule="evenodd" clip-rule="evenodd" d="M239.733 54.6334C239.733 55.4107 239.135 55.909 238.198 55.909H237.48V56.8857H236.662V53.3379H238.198C239.135 53.3379 239.733 53.8362 239.733 54.6334ZM238.896 54.6334C238.896 54.2348 238.636 54.0156 238.138 54.0156H237.48V55.2314H238.138C238.636 55.2314 238.896 55.0121 238.896 54.6334Z" fill="#263238"/>
<path fill-rule="evenodd" clip-rule="evenodd" d="M242.544 56.8857L241.866 55.8891H241.128V56.8857H240.311V53.3379H241.826C242.783 53.3379 243.362 53.8362 243.362 54.6334C243.362 55.1516 243.102 55.5503 242.644 55.7496L243.422 56.8857H242.544ZM241.786 54.0156H241.128V55.2513H241.786C242.285 55.2513 242.544 55.0121 242.544 54.6334C242.544 54.2348 242.285 54.0156 241.786 54.0156Z" fill="#263238"/>
<path fill-rule="evenodd" clip-rule="evenodd" d="M243.781 55.1117C243.781 54.0554 244.599 53.2781 245.716 53.2781C246.832 53.2781 247.65 54.0554 247.65 55.1117C247.65 56.1681 246.832 56.9454 245.716 56.9454C244.599 56.9454 243.781 56.1681 243.781 55.1117ZM246.832 55.1117C246.832 54.4341 246.354 53.9757 245.716 53.9757C245.097 53.9757 244.619 54.4341 244.619 55.1117C244.619 55.7894 245.097 56.2478 245.716 56.2478C246.354 56.2478 246.832 55.7894 246.832 55.1117Z" fill="#263238"/>
<path d="M248.049 55.1117C248.049 54.0554 248.866 53.2781 249.963 53.2781C250.581 53.2781 251.08 53.5172 251.419 53.9159L250.901 54.3942C250.661 54.1152 250.362 53.9757 250.003 53.9757C249.345 53.9757 248.866 54.454 248.866 55.1117C248.866 55.7695 249.345 56.2478 250.003 56.2478C250.362 56.2478 250.661 56.1083 250.901 55.8293L251.419 56.3076C251.08 56.7063 250.581 56.9454 249.963 56.9454C248.866 56.9454 248.049 56.1681 248.049 55.1117Z" fill="#263238"/>
<path d="M254.709 56.2279V56.8857H251.957V53.3379H254.629V53.9956H252.775V54.7729H254.41V55.4107H252.775V56.2279H254.709Z" fill="#263238"/>
<path d="M255.068 56.5269L255.348 55.909C255.647 56.1282 256.085 56.2877 256.524 56.2877C257.003 56.2877 257.202 56.1282 257.202 55.909C257.202 55.2513 255.148 55.6898 255.148 54.3942C255.148 53.7764 255.627 53.2781 256.624 53.2781C257.082 53.2781 257.521 53.3977 257.86 53.597L257.601 54.2148C257.282 54.0355 256.943 53.9358 256.624 53.9358C256.145 53.9358 255.946 54.1152 255.946 54.3544C255.946 54.9922 258 54.5537 258 55.8492C258 56.4272 257.521 56.9454 256.504 56.9454C255.946 56.9454 255.387 56.766 255.068 56.5269Z" fill="#263238"/>
<path d="M258.299 56.5269L258.558 55.909C258.857 56.1282 259.316 56.2877 259.735 56.2877C260.213 56.2877 260.413 56.1282 260.413 55.909C260.413 55.2513 258.359 55.6898 258.359 54.3942C258.359 53.7764 258.837 53.2781 259.854 53.2781C260.293 53.2781 260.752 53.3977 261.071 53.597L260.831 54.2148C260.492 54.0355 260.153 53.9358 259.834 53.9358C259.356 53.9358 259.176 54.1152 259.176 54.3544C259.176 54.9922 261.23 54.5537 261.23 55.8492C261.23 56.4272 260.732 56.9454 259.735 56.9454C259.176 56.9454 258.598 56.766 258.299 56.5269Z" fill="#263238"/>
<path d="M336.999 189.408C336.999 189.468 285.1 189.508 221.082 189.508C157.064 189.508 105.164 189.468 105.164 189.408C105.164 189.349 157.064 189.309 221.082 189.309C285.1 189.309 336.999 189.349 336.999 189.408Z" fill="#263238"/>
<path d="M111.168 179.642L115.077 171.271L124.21 176.493L119.464 184.167C119.464 184.167 115.775 184.824 114.139 183.808C112.484 182.791 111.168 179.642 111.168 179.642Z" fill="#FFBE9D"/>
<path d="M119.005 184.944L119.463 184.166C116.133 183.549 113.381 182.034 111.168 179.642L108.057 185.382L125.306 194.85C126.104 193.156 119.005 184.944 119.005 184.944Z" fill="#100E0F"/>
<path d="M108.057 185.382L108.814 183.967L125.107 193.614C125.107 193.614 125.685 194.351 125.306 194.85L108.057 185.382Z" fill="#263238"/>
<path d="M119.324 185.004C119.285 185.083 118.826 184.904 118.267 184.944C117.709 184.964 117.29 185.223 117.231 185.143C117.171 185.083 117.57 184.645 118.248 184.605C118.926 184.565 119.384 184.944 119.324 185.004Z" fill="#263238"/>
<path d="M120.72 186.758C120.7 186.837 120.262 186.778 119.783 186.977C119.284 187.176 119.005 187.515 118.925 187.455C118.826 187.435 119.045 186.917 119.643 186.678C120.262 186.439 120.76 186.658 120.72 186.758Z" fill="#263238"/>
<path d="M120.56 189.468C120.48 189.448 120.58 188.97 121.058 188.631C121.517 188.272 122.016 188.312 122.016 188.412C122.036 188.511 121.637 188.611 121.258 188.89C120.859 189.169 120.64 189.508 120.56 189.468Z" fill="#263238"/>
<path d="M112.145 183.828C111.985 184.067 111.686 184.167 111.427 184.007C111.188 183.868 111.088 183.549 111.247 183.309C111.387 183.07 111.706 182.971 111.945 183.11C112.185 183.27 112.284 183.569 112.145 183.828Z" fill="#263238"/>
<path d="M152.287 183.051L156.814 173.503L166.027 173.663L161.301 182.951C161.301 182.951 158.27 185.303 156.295 185.163C154.301 185.044 152.287 183.051 152.287 183.051Z" fill="#FFBE9D"/>
<path d="M161.262 183.868L161.302 182.951C157.991 183.967 155.259 183.928 152.088 182.792C151.749 183.37 151.57 184.027 151.57 184.705L151.49 189.508L171.731 189.887C171.652 187.954 161.262 183.868 161.262 183.868Z" fill="#100E0F"/>
<path d="M151.49 189.508L151.51 187.854L170.954 188.851C170.954 188.851 171.851 189.249 171.731 189.887L151.49 189.508Z" fill="#263238"/>
<path d="M161.581 183.768C161.581 183.868 161.082 183.908 160.604 184.226C160.105 184.506 159.846 184.944 159.746 184.904C159.647 184.884 159.806 184.286 160.424 183.927C161.023 183.549 161.621 183.688 161.581 183.768Z" fill="#263238"/>
<path d="M163.696 184.685C163.716 184.785 163.277 184.944 162.938 185.363C162.579 185.761 162.499 186.22 162.399 186.2C162.3 186.22 162.24 185.642 162.679 185.143C163.117 184.625 163.696 184.605 163.696 184.685Z" fill="#263238"/>
<path d="M164.852 187.256C164.772 187.276 164.633 186.778 164.892 186.24C165.151 185.701 165.63 185.502 165.67 185.582C165.729 185.662 165.41 185.941 165.211 186.399C164.992 186.838 164.952 187.256 164.852 187.256Z" fill="#263238"/>
<path d="M154.481 186.14C154.461 186.439 154.222 186.658 153.923 186.658C153.624 186.638 153.404 186.399 153.404 186.1C153.424 185.801 153.664 185.582 153.963 185.582C154.262 185.602 154.481 185.841 154.481 186.14Z" fill="#263238"/>
<path d="M205.254 56.3473C206.83 56.0882 208.206 54.8326 208.605 53.258C208.645 53.0985 208.685 52.8992 208.824 52.7996C208.964 52.6999 209.123 52.6999 209.283 52.6999C210.12 52.6601 210.978 52.3013 211.536 51.6635C212.075 51.0257 212.294 50.069 212.015 49.2917C213.311 49.4312 214.508 48.1755 214.508 46.8601C214.528 45.5446 213.51 44.3686 212.274 43.9302C212.972 43.5315 213.231 42.5948 213.012 41.8374C212.793 41.0601 212.214 40.4422 211.576 39.9638C210.719 39.326 209.522 38.8676 208.585 39.4058C208.824 38.7879 208.445 38.0903 207.927 37.6717C206.591 36.5357 204.337 36.6752 203.141 37.9707C202.842 37.3728 202.423 36.7948 201.824 36.4759C201.226 36.1769 200.389 36.2367 199.97 36.7549C199.99 36.0972 199.431 35.5391 198.873 35.2003C198.474 34.9412 197.996 34.7418 197.517 34.7817C197.038 34.8016 196.54 35.1006 196.42 35.579C195.802 34.8814 194.625 34.8016 193.907 35.3597C193.17 35.9377 192.97 37.0937 193.469 37.8711C192.671 37.9109 191.893 38.4092 191.495 39.1267C191.096 39.8243 191.116 40.7412 191.514 41.4587C191.136 41.2992 190.717 41.6979 190.717 42.1164C190.717 42.515 191.016 42.8738 191.335 43.093C190.577 44.2623 189.819 45.4383 189.062 46.6209C188.563 47.3783 188.064 48.1556 187.845 49.0126C187.606 49.8896 187.686 50.8862 188.264 51.5838" fill="#263238"/>
<path d="M207.427 52.9391C209.122 50.0092 207.966 45.1858 204.974 43.6312L194.744 39.3459L193.767 40.8807L181.084 60.6525L188.084 71.1164L193.368 64.6387C193.368 64.6387 197.357 66.4325 201.205 62.2071C203.12 60.1143 205.553 56.2078 207.427 52.9391Z" fill="#FFBE9D"/>
<path d="M204.277 55.5102C204.078 55.8291 203.619 55.9288 203.28 55.7295C202.941 55.5301 202.821 55.1116 203.021 54.7728C203.22 54.4539 203.659 54.3542 204.018 54.5535C204.357 54.7528 204.476 55.1913 204.277 55.5102Z" fill="#263238"/>
<path d="M205.273 54.3942C205.153 54.4141 204.914 53.7763 204.276 53.3577C203.638 52.9192 202.94 52.9392 202.92 52.8196C202.92 52.7598 203.079 52.6601 203.379 52.6601C203.698 52.6402 204.136 52.7199 204.535 52.979C204.934 53.2581 205.173 53.6368 205.273 53.9158C205.373 54.1948 205.333 54.3742 205.273 54.3942Z" fill="#263238"/>
<path d="M198.234 51.9823C198.035 52.3211 197.596 52.4208 197.257 52.2215C196.898 52.0221 196.798 51.5837 196.998 51.2648C197.197 50.9459 197.636 50.8263 197.975 51.0455C198.314 51.2448 198.434 51.6634 198.234 51.9823Z" fill="#263238"/>
<path d="M198.773 50.4476C198.653 50.4875 198.414 49.8497 197.776 49.4112C197.137 48.9926 196.439 49.0126 196.419 48.873C196.4 48.8132 196.579 48.7335 196.878 48.7136C197.197 48.6937 197.636 48.7734 198.035 49.0524C198.434 49.3115 198.673 49.6902 198.773 49.9693C198.872 50.2682 198.832 50.4476 198.773 50.4476Z" fill="#263238"/>
<path d="M198.014 56.6663C198.034 56.6264 198.473 56.8257 199.191 57.1845C199.35 57.2642 199.53 57.3439 199.65 57.2443C199.749 57.1446 199.809 56.9254 199.849 56.6862C199.969 56.1813 200.088 55.6498 200.208 55.0917C200.707 52.8594 201.205 51.0457 201.285 51.0656C201.385 51.0855 201.046 52.9192 200.527 55.1714C200.394 55.7295 200.268 56.2544 200.148 56.746C200.088 56.9852 200.068 57.2642 199.809 57.4635C199.69 57.5632 199.51 57.5632 199.37 57.5233C199.251 57.4835 199.151 57.4237 199.071 57.3838C198.393 56.9852 197.994 56.7061 198.014 56.6663Z" fill="#263238"/>
<path d="M193.367 64.6387C193.367 64.6387 190.097 62.7652 188.222 58.7988C188.222 58.7988 187.484 63.104 192.45 65.7748L193.367 64.6387Z" fill="#EB996E"/>
<path d="M196.698 58.0615C196.678 57.5831 196.379 57.1446 195.94 56.9254C195.641 56.7659 195.262 56.7261 194.943 56.8457C194.624 56.9453 194.385 57.2642 194.385 57.5831C194.405 57.9419 194.724 58.2408 195.083 58.3604C195.462 58.4601 195.86 58.4402 196.239 58.4003C196.359 58.4003 196.459 58.3804 196.558 58.3405C196.658 58.2807 196.718 58.201 196.718 58.1013" fill="#EB996E"/>
<path d="M195.821 55.869C195.921 55.9288 195.462 56.6264 195.721 57.5233C196 58.4202 196.798 58.8387 196.738 58.9384C196.718 58.9982 196.479 58.9782 196.16 58.759C195.841 58.5796 195.442 58.181 195.282 57.6229C195.123 57.0848 195.242 56.5666 195.402 56.2676C195.581 55.9487 195.761 55.8291 195.821 55.869Z" fill="#263238"/>
<path d="M200.508 48.2751C200.329 48.3947 199.731 47.8964 198.913 47.4779C198.115 47.0593 197.357 46.8799 197.357 46.6407C197.357 46.5411 197.577 46.4414 197.936 46.4414C198.295 46.4215 198.793 46.5212 199.272 46.7803C199.77 47.0194 200.129 47.3782 200.329 47.6772C200.548 47.9761 200.588 48.1954 200.508 48.2751Z" fill="#263238"/>
<path d="M206.29 52.361C206.071 52.4407 205.732 51.9823 205.194 51.6235C204.675 51.2448 204.157 51.0654 204.137 50.8462C204.157 50.7465 204.316 50.627 204.615 50.627C204.895 50.627 205.293 50.7266 205.652 50.9857C206.011 51.2249 206.251 51.5837 206.33 51.8428C206.43 52.1218 206.39 52.3211 206.29 52.361Z" fill="#263238"/>
<path d="M209.083 46.262C208.824 47.2984 207.866 48.1555 206.79 48.3149C205.733 48.4544 204.596 47.8764 204.057 46.9397C204.177 47.4379 203.758 47.9562 203.26 48.0957C202.761 48.2352 202.223 48.0558 201.784 47.7967C200.847 47.2586 200.149 46.2819 199.969 45.2256C199.391 45.8833 198.514 46.2421 197.636 46.1823C196.779 46.1025 195.961 45.6043 195.522 44.8469C195.742 45.8833 195.263 47.0194 194.386 47.5775C193.488 48.1355 192.252 48.0558 191.454 47.3981C190.637 46.7403 190.297 45.5445 190.676 44.5678C190.198 43.8304 190.078 42.8936 190.357 42.0565C190.637 41.2393 191.334 40.5616 192.152 40.3025C191.773 39.8441 191.753 39.1665 191.973 38.6084C192.192 38.0503 192.631 37.6118 193.089 37.2531C194.226 36.3362 195.722 35.7981 197.158 35.9974C198.593 36.2166 199.929 37.273 200.209 38.708C200.229 38.8675 200.268 39.0469 200.388 39.1465C200.548 39.306 200.807 39.2661 201.026 39.2263C201.983 38.9871 203.02 38.728 203.958 39.0469C205.094 39.4256 205.872 40.6613 205.713 41.8572C206.909 41.2592 208.505 41.4386 209.362 42.4551C210.239 43.4716 210.06 45.2654 208.903 45.9232" fill="#263238"/>
<path d="M192.391 46.9996C191.713 47.9364 190.895 48.7535 189.978 49.4511C189.599 49.7501 189.1 50.0291 188.642 49.8498C188.243 49.6903 188.043 49.192 188.083 48.7535C188.143 48.3151 188.382 47.9364 188.622 47.5577C189.519 46.2621 190.576 45.0862 191.633 43.9302" fill="#263238"/>
<path d="M190.876 47.0794C190.836 46.9997 189.061 44.6876 187.426 47.0595C185.791 49.4313 188.503 50.5674 188.563 50.5076C188.602 50.4279 190.876 47.0794 190.876 47.0794Z" fill="#FFBE9D"/>
<path d="M188.464 49.1124C188.444 49.0925 188.384 49.1124 188.304 49.0925C188.205 49.0726 188.085 49.0128 187.985 48.8932C187.806 48.6141 187.866 48.076 188.145 47.6375C188.284 47.4183 188.484 47.2389 188.663 47.1392C188.863 46.9997 189.062 46.9598 189.202 47.0196C189.341 47.0794 189.381 47.219 189.361 47.2987C189.341 47.3983 189.301 47.4382 189.301 47.4382C189.321 47.4581 189.381 47.4382 189.441 47.3186C189.461 47.2787 189.461 47.199 189.441 47.1193C189.421 47.0396 189.361 46.9399 189.261 46.9001C189.062 46.7805 188.783 46.8403 188.583 46.9798C188.344 47.0994 188.145 47.2788 187.985 47.5379C187.666 48.0162 187.606 48.6341 187.885 48.9729C188.005 49.1324 188.185 49.1722 188.304 49.1722C188.404 49.1523 188.464 49.1124 188.464 49.1124Z" fill="#EB996E"/>
<path d="M200.168 44.6677C200.168 44.6677 200.188 44.6876 200.228 44.7275C200.268 44.7806 200.334 44.8404 200.427 44.9069C200.607 45.0663 200.886 45.2856 201.285 45.4649C201.484 45.5646 201.704 45.6643 201.963 45.7041C202.222 45.7639 202.521 45.7639 202.84 45.7041C203.139 45.6443 203.438 45.4849 203.718 45.2656C203.977 45.0265 204.196 44.7076 204.256 44.3089L204.136 44.3289C204.396 45.0265 204.914 45.7041 205.652 46.1625C206.011 46.4017 206.43 46.5612 206.888 46.6608C207.108 46.7007 207.347 46.7206 207.586 46.7007C207.826 46.6808 208.065 46.5811 208.244 46.4416C208.484 46.2622 208.643 46.023 208.763 45.7838C208.903 45.5447 208.982 45.2856 209.062 45.0265C209.162 44.7873 209.222 44.5282 209.222 44.2691C209.242 44.01 209.162 43.711 208.942 43.5316L208.843 43.6313C209.182 44.0498 209.64 44.289 210.119 44.4086C210.578 44.5082 211.056 44.4684 211.455 44.3289C211.874 44.1893 212.213 43.9302 212.432 43.6313C212.652 43.3124 212.791 42.9935 212.851 42.6746C212.991 42.0567 212.851 41.5584 212.711 41.2594C212.572 40.9405 212.432 40.801 212.432 40.801C212.412 40.821 212.552 40.9605 212.672 41.2594C212.791 41.5783 212.911 42.0766 212.771 42.6746C212.692 42.9536 212.572 43.2725 212.353 43.5715C212.133 43.8505 211.814 44.0897 211.415 44.2292C211.036 44.3488 210.578 44.3687 210.139 44.2691C209.7 44.1694 209.262 43.9302 208.962 43.5515L208.863 43.6512C209.022 43.7907 209.082 44.0299 209.082 44.2691C209.082 44.5082 209.022 44.7474 208.942 44.9866C208.763 45.4649 208.583 46.0031 208.165 46.322C207.806 46.601 207.327 46.601 206.908 46.5213C206.49 46.4416 206.071 46.2622 205.732 46.043C205.014 45.6045 204.495 44.9467 204.236 44.2691L204.156 44.0299L204.116 44.289C204.077 44.6478 203.877 44.9667 203.638 45.1859C203.399 45.4051 203.099 45.5447 202.8 45.6045C202.521 45.6643 202.242 45.6643 201.983 45.6244C201.723 45.5845 201.504 45.5048 201.305 45.4052C200.906 45.2258 200.647 45.0265 200.447 44.8869C200.268 44.7474 200.168 44.6677 200.168 44.6677Z" fill="white"/>
<path d="M208.244 48.5143C208.244 48.5143 208.264 48.5741 208.344 48.6936C208.444 48.7933 208.583 48.9328 208.803 49.0524C209.022 49.172 209.301 49.2916 209.66 49.2517C209.82 49.2318 209.999 49.1521 210.139 48.9926C210.258 48.8531 210.318 48.6139 210.198 48.4146L210.079 48.4943C210.092 48.5076 210.105 48.5209 210.119 48.5342C210.637 49.1321 211.375 49.3314 211.874 49.3115C212.113 49.3115 212.312 49.2717 212.452 49.2119C212.591 49.172 212.651 49.1321 212.651 49.1321C212.631 49.0923 212.352 49.2318 211.874 49.2119C211.395 49.2119 210.697 48.9926 210.238 48.4345C210.225 48.4213 210.212 48.408 210.198 48.3947L209.74 47.8765L210.079 48.4744C210.159 48.6139 210.119 48.7933 210.019 48.9129C209.919 49.0325 209.78 49.0923 209.64 49.1122C209.341 49.1521 209.062 49.0723 208.842 48.9727C208.424 48.7534 208.264 48.4943 208.244 48.5143Z" fill="white"/>
<path d="M202.701 52.5604C202.701 52.5803 202.921 52.5404 203.26 52.5604C203.579 52.5803 204.057 52.68 204.496 52.9191C204.935 53.1782 205.234 53.537 205.413 53.816C205.593 54.115 205.653 54.3143 205.692 54.2944C205.692 54.2944 205.673 54.0752 205.493 53.7762C205.334 53.4573 205.034 53.0786 204.556 52.7996C204.097 52.5404 203.599 52.4408 203.26 52.4607C202.901 52.4607 202.701 52.5404 202.701 52.5604Z" fill="#EB996E"/>
<path d="M196.379 48.3349C196.379 48.3747 196.558 48.3349 196.818 48.3548C197.097 48.3747 197.456 48.4544 197.815 48.6538C198.174 48.8531 198.413 49.152 198.573 49.3713C198.712 49.5905 198.772 49.75 198.792 49.75C198.812 49.75 198.792 49.5706 198.652 49.3115C198.533 49.0723 198.273 48.7534 197.894 48.5342C197.516 48.3149 197.117 48.2551 196.818 48.2551C196.538 48.2551 196.379 48.3349 196.379 48.3349Z" fill="#EB996E"/>
<path d="M195.083 55.7295C195.083 55.7494 195.143 55.7096 195.243 55.6896C195.342 55.6697 195.482 55.6697 195.622 55.7096C195.901 55.7893 196.14 55.9487 196.16 55.8889C196.18 55.869 196 55.6697 195.661 55.57C195.482 55.5102 195.322 55.5501 195.203 55.59C195.103 55.6498 195.063 55.7096 195.083 55.7295Z" fill="#EB996E"/>
<path d="M194.385 55.7693C194.425 55.8092 194.584 55.6497 194.823 55.5102C195.043 55.3707 195.262 55.271 195.242 55.2312C195.242 55.1913 194.983 55.2312 194.744 55.3906C194.504 55.5501 194.365 55.7494 194.385 55.7693Z" fill="#EB996E"/>
<path d="M186.468 48.7735C186.468 48.7735 186.269 48.7337 185.89 48.7934C185.531 48.8732 184.993 49.0326 184.494 49.4711C183.976 49.8897 183.537 50.667 183.577 51.5838C183.577 52.4807 184.195 53.4574 185.192 53.856C185.671 54.0553 186.209 54.0752 186.688 53.9357C187.166 53.8161 187.585 53.577 187.924 53.2979C188.602 52.7 188.921 51.8828 188.901 51.2051C188.861 50.5275 188.582 50.0292 188.343 49.7501C188.084 49.4711 187.904 49.3715 187.884 49.3914C187.884 49.4113 188.044 49.5309 188.243 49.8099C188.463 50.1089 188.702 50.5873 188.682 51.2051C188.702 51.823 188.383 52.5605 187.745 53.0787C187.126 53.6168 186.169 53.9556 185.292 53.577C184.414 53.2381 183.856 52.3811 183.836 51.5639C183.796 50.7467 184.155 50.0292 184.614 49.6106C185.092 49.1921 185.591 49.0127 185.93 48.913C186.269 48.8134 186.468 48.8134 186.468 48.7735Z" fill="#455A64"/>
<path d="M144.651 96.728C137.392 102.349 136.295 111.278 135.796 116.4C135.298 121.503 131.329 141.972 131.329 141.972C131.329 141.972 123.053 154.828 120.082 160.269C117.111 165.73 111.168 177.111 111.168 177.111L121.099 183.23C121.099 183.23 138.927 158.973 142.078 154.19C145.209 149.406 161.202 109.085 161.202 109.085L144.651 96.728Z" fill="#263238"/>
<path d="M168.243 109.982C168.741 110.939 181.903 143.407 181.564 146.656C181.225 149.905 164.813 183.23 164.813 183.23L152.668 178.087L165.152 150.423L165.491 146.616L153.864 124.612L157.634 108.388L168.243 109.982Z" fill="#263238"/>
<path d="M159.587 114.248C159.647 114.268 158.271 117.536 156.516 121.542C154.781 125.549 153.325 128.778 153.266 128.758C153.206 128.738 154.582 125.469 156.337 121.463C158.072 117.457 159.547 114.228 159.587 114.248Z" fill="#455A64"/>
<path d="M170.036 147.732C170.056 147.772 168.999 148.031 167.743 147.712C166.467 147.413 165.649 146.716 165.689 146.676C165.729 146.636 166.566 147.234 167.783 147.513C168.999 147.812 170.036 147.672 170.036 147.732Z" fill="#455A64"/>
<path d="M169.518 150.921C169.498 150.981 168.62 150.662 167.484 150.463C166.367 150.263 165.43 150.243 165.43 150.184C165.43 150.144 166.367 150.044 167.524 150.263C168.68 150.463 169.538 150.881 169.518 150.921Z" fill="#455A64"/>
<path d="M147.842 102.807C147.861 102.827 147.762 102.887 147.602 103.026C147.443 103.146 147.203 103.305 146.904 103.505C146.286 103.863 145.369 104.322 144.312 104.641C143.255 104.94 142.258 105.079 141.54 105.099C141.181 105.119 140.882 105.119 140.682 105.099C140.483 105.079 140.363 105.059 140.363 105.039C140.363 105.019 140.822 105.019 141.52 104.96C142.238 104.9 143.215 104.74 144.252 104.441C145.309 104.123 146.206 103.704 146.824 103.365C147.463 103.026 147.822 102.787 147.842 102.807Z" fill="#455A64"/>
<path d="M190.457 69.7212L201.066 83.414L223.361 92.5426L220.988 97.2862L192.511 87.5797L183.178 68.4656L190.457 69.7212Z" fill="#455A64"/>
<g opacity="0.2">
<path d="M190.457 69.7212L201.066 83.414L223.361 92.5426L220.988 97.2862L192.511 87.5797L183.178 68.4656L190.457 69.7212Z" fill="black"/>
</g>
<path d="M180.127 61.6093C179.669 61.1509 179.649 60.4134 180.067 59.9351L181.523 58.3007C181.723 58.0416 182.082 57.9818 182.341 58.1811C184.375 59.6361 192.013 65.4561 192.013 67.1103C191.993 69.0038 188.742 70.8973 188.742 70.8973L180.127 61.6093Z" fill="#455A64"/>
<path d="M175.062 71.7343C175.062 71.7343 189.281 91.3865 192.99 93.6587C196.699 95.9309 219.991 99.1199 219.991 99.1199L220.889 92.2236L198.434 85.0285C198.434 85.0285 183.777 63.4429 183.398 62.825C183.019 62.2072 180.127 59.8752 176.937 60.2738C173.746 60.6724 172.131 65.7151 173.227 68.2065C173.646 69.1632 175.062 71.7343 175.062 71.7343Z" fill="#455A64"/>
<path d="M180.207 60.294C180.207 60.294 176.119 58.54 172.191 62.2074C170.097 64.1606 150.853 91.1077 149.497 92.9215L143.973 96.7283C153.206 105.239 160.385 112.354 170.236 114.826L175.381 98.1634L191.155 83.8129L180.207 60.294Z" fill="#455A64"/>
<path d="M173.526 69.7214C173.526 69.7214 173.573 69.7812 173.666 69.9008C173.759 70.047 173.885 70.2264 174.045 70.439C174.364 70.9372 174.823 71.6149 175.421 72.452C176.597 74.1462 178.312 76.4183 180.307 78.85C182.301 81.3015 184.175 83.4541 185.511 85.0087C186.17 85.786 186.708 86.4039 187.107 86.8623C187.28 87.0749 187.419 87.2477 187.526 87.3805C187.619 87.5001 187.665 87.5599 187.665 87.5599C187.652 87.5732 187.592 87.5201 187.486 87.4005C187.366 87.2809 187.22 87.1214 187.047 86.9221C186.628 86.4637 186.07 85.8658 185.392 85.1084C184.036 83.5737 182.141 81.4211 180.147 78.9895C178.153 76.5379 176.458 74.2458 175.301 72.5517C174.723 71.6946 174.264 70.9771 173.965 70.4988C173.832 70.2596 173.719 70.0669 173.626 69.9207C173.546 69.7879 173.513 69.7214 173.526 69.7214Z" fill="#263238"/>
<path d="M220.89 92.2238C220.89 92.237 220.85 92.2304 220.77 92.2038C220.69 92.1772 220.584 92.144 220.451 92.1042C220.158 92.0111 219.74 91.8716 219.194 91.6856C218.078 91.3268 216.502 90.7887 214.488 90.131C210.48 88.7756 204.876 86.9021 198.395 84.7097H198.355L198.335 84.6698C196.879 82.5372 195.324 80.2251 193.729 77.8533C191.256 74.1859 188.903 70.7179 186.749 67.5488C185.692 65.9543 184.675 64.4595 183.718 63.0444C183.478 62.6856 183.259 62.3268 183 62.0279C182.86 61.8684 182.721 61.7488 182.561 61.6093C182.402 61.4897 182.282 61.3502 182.102 61.2506C181.464 60.7921 180.766 60.533 180.068 60.3736C178.652 60.1543 177.316 60.4732 176.339 61.0512C175.362 61.6093 174.704 62.3866 174.305 63.0842C174.146 63.443 173.946 63.742 173.886 64.0609C173.787 64.3598 173.707 64.599 173.707 64.8182C173.647 65.177 173.627 65.3365 173.607 65.4561C173.587 65.4561 173.607 65.2368 173.667 64.8182C173.667 64.599 173.747 64.3399 173.826 64.0409C173.886 63.722 174.066 63.4031 174.225 63.0444C174.624 62.3268 175.282 61.5296 176.279 60.9516C177.276 60.3536 178.632 60.0148 180.088 60.2341C180.806 60.3736 181.544 60.6526 182.202 61.111C182.362 61.2306 182.521 61.3701 182.681 61.4897C182.82 61.6292 182.98 61.7688 183.119 61.9282C183.399 62.2272 183.618 62.6059 183.857 62.9447C184.814 64.3598 185.832 65.8547 186.908 67.4292C189.062 70.5983 191.415 74.0863 193.888 77.7337C195.503 80.1055 197.059 82.4176 198.515 84.5701L198.455 84.5303C204.936 86.7227 210.54 88.6361 214.548 90.0114C216.522 90.689 218.118 91.2471 219.214 91.6258C219.746 91.8118 220.165 91.958 220.471 92.0643C220.604 92.1175 220.71 92.1573 220.79 92.1839C220.856 92.2105 220.89 92.2238 220.89 92.2238Z" fill="#263238"/>
<path d="M183.178 83.4142C183.178 83.4341 183.118 83.5338 182.979 83.6932C182.819 83.8527 182.6 84.0918 182.32 84.3509C181.762 84.8891 180.905 85.5667 179.848 86.1647C178.811 86.7427 177.794 87.1214 177.036 87.3207C176.657 87.4403 176.358 87.5001 176.138 87.5399C175.919 87.5798 175.799 87.5798 175.799 87.5798C175.779 87.5399 176.258 87.4403 176.996 87.1812C177.734 86.942 178.731 86.5434 179.748 85.9654C180.785 85.3874 181.642 84.7496 182.221 84.2513C182.819 83.7331 183.158 83.3942 183.178 83.4142Z" fill="#263238"/>
<path d="M174.006 95.2931C174.006 95.313 173.766 95.3529 173.328 95.3927C172.869 95.4326 172.231 95.4924 171.413 95.5123C169.818 95.5721 167.584 95.4924 165.152 95.1137C162.719 94.7151 160.565 94.0972 159.049 93.5391C158.291 93.28 157.693 93.0408 157.274 92.8415C156.876 92.6621 156.656 92.5625 156.656 92.5426C156.656 92.5226 156.896 92.6024 157.314 92.7618C157.733 92.9412 158.351 93.1604 159.109 93.3996C160.625 93.9178 162.759 94.5158 165.171 94.8944C167.584 95.2731 169.818 95.3728 171.413 95.3728C172.211 95.3529 172.869 95.3329 173.308 95.313C173.766 95.2931 174.006 95.2931 174.006 95.2931Z" fill="#263238"/>
<path d="M174.564 92.8814C174.564 92.9014 174.145 93.0409 173.447 93.1605C172.749 93.2801 171.772 93.3797 170.675 93.3399C169.598 93.2801 168.621 93.1206 167.943 92.9412C167.265 92.7619 166.846 92.6024 166.866 92.5825C166.866 92.5426 167.285 92.6622 167.983 92.8017C168.661 92.9412 169.618 93.0808 170.695 93.1206C171.752 93.1605 172.729 93.1007 173.427 93.021C174.125 92.9412 174.544 92.8615 174.564 92.8814Z" fill="#263238"/>
<g opacity="0.2">
<path d="M176 73.4087L182.361 84.2114C182.361 84.2114 178.792 86.7826 177.296 87.1812C177.296 87.1812 180.567 86.2644 183.179 84.9688L186.549 86.4836L176 73.4087Z" fill="black"/>
</g>
<g opacity="0.2">
<path d="M172.132 95.3729C170.018 96.509 167.366 96.9674 164.853 96.6086C162.36 96.2498 160.047 95.0938 158.531 93.4595C158.531 93.4595 163.736 94.8746 165.73 95.0938C167.744 95.3131 172.132 95.3729 172.132 95.3729Z" fill="black"/>
</g>
<path d="M150.932 97.8045C150.952 97.8643 149.935 98.0038 148.918 98.6815C148.22 99.1399 147.741 99.698 147.502 99.977L147.422 99.9172C147.542 99.7777 147.621 99.7179 147.621 99.7378C147.641 99.7378 147.601 99.8176 147.502 99.977L147.422 99.9172C147.601 99.5983 148.08 98.9805 148.818 98.5021C149.875 97.8045 150.952 97.7447 150.932 97.8045Z" fill="#263238"/>
<path d="M156.197 102.07C156.237 102.09 155.738 102.887 154.881 103.684C154.023 104.482 153.185 104.92 153.166 104.88C153.126 104.82 153.903 104.302 154.741 103.525C155.579 102.768 156.137 102.03 156.197 102.07Z" fill="#263238"/>
<path d="M161.741 106.734C161.801 106.754 161.362 107.651 160.565 108.548C159.767 109.444 158.949 110.003 158.929 109.963C158.889 109.903 159.627 109.305 160.405 108.408C161.183 107.531 161.681 106.694 161.741 106.734Z" fill="#263238"/>
<path d="M167.585 109.066C167.625 109.066 167.545 110.042 167.046 111.119C166.568 112.215 165.89 112.912 165.85 112.873C165.79 112.833 166.388 112.095 166.867 111.039C167.346 109.983 167.525 109.046 167.585 109.066Z" fill="#263238"/>
<path d="M181.602 60.8319C181.583 60.812 181.622 60.6724 181.762 60.4333C181.882 60.214 182.121 59.915 182.46 59.6958C182.799 59.4766 183.158 59.357 183.397 59.2972C183.657 59.2374 183.816 59.2174 183.816 59.2573C183.836 59.3171 183.218 59.4766 182.58 59.8553C181.941 60.2738 181.662 60.8717 181.602 60.8319Z" fill="#263238"/>
<path d="M184.395 63.5627C184.335 63.5428 184.614 62.9249 185.232 62.3867C185.87 61.8486 186.528 61.6692 186.548 61.729C186.568 61.7888 185.97 62.028 185.372 62.5462C184.774 63.0445 184.454 63.6025 184.395 63.5627Z" fill="#263238"/>
<path d="M189.878 64.7186C189.918 64.7386 189.519 65.5956 188.702 66.3929C187.904 67.1901 187.066 67.5888 187.046 67.5489C187.007 67.4891 187.784 67.0307 188.562 66.2334C189.36 65.4561 189.818 64.6987 189.878 64.7186Z" fill="#263238"/>
<path d="M220.588 92.5425L223.799 88.1178L226.192 87.5996L231.357 86.5432C231.357 86.5432 231.955 86.902 231.218 87.7989L230.799 88.1377L232.813 88.0978C232.813 88.0978 232.913 89.0346 231.896 89.5728L228.525 90.5494L227.249 90.9281C227.249 90.9281 229.901 91.1075 230.839 90.7686C231.756 90.4497 232.574 90.4896 232.574 90.4896C232.574 90.4896 233.132 91.0477 232.454 91.7851C231.756 92.5226 229.742 92.7418 229.263 92.8614C228.785 92.981 227.09 93.0209 227.09 93.0209C227.09 93.0209 227.768 93.4793 228.904 93.4594C230.061 93.4594 231.238 93.4992 231.238 93.4992C231.238 93.4992 231.297 94.5755 230.599 94.7948C229.901 95.014 226.81 94.9542 226.81 94.9542L225.953 95.4126C225.953 95.4126 223.68 97.8243 222.882 98.1631C222.084 98.502 219.99 99.1198 219.99 99.1198L220.588 92.5425Z" fill="#FFBE9D"/>
<path d="M231.078 88.1975C231.078 88.2374 230.798 88.3769 230.3 88.5563C229.801 88.7357 229.103 88.935 228.306 89.0745C227.508 89.1941 226.77 89.214 226.252 89.1941C225.733 89.1741 225.414 89.1143 225.414 89.0944C225.414 89.0346 226.71 89.1143 228.266 88.8552C229.841 88.6161 231.058 88.1377 231.078 88.1975Z" fill="#EB996E"/>
</svg>
