<svg width="2342" height="1661" viewBox="0 0 2342 1661" fill="none" xmlns="http://www.w3.org/2000/svg">
<g clip-path="url(#clip0)">
<rect width="2342" height="1661" fill="white"/>
<path d="M564.361 784.531C1178.58 -186.586 1487.56 -48.0417 1779.41 241.403C2071.27 530.847 2082.97 1346.45 1964.42 1517.88C1845.86 1689.3 -49.8666 1755.65 564.361 784.531Z" fill="#00A7CC"/>
<path d="M41.0152 1117.55C42.0512 1119.59 43.2414 1121.55 44.5765 1123.42L37.0006 1133.05L60.5224 1150.46L68.0983 1140.83C70.3134 1141.57 72.5779 1142.16 74.8751 1142.61L76.5657 1154.63L105.816 1150.87L104.124 1138.86C106.227 1137.86 108.25 1136.72 110.176 1135.43L120.152 1142.81L138.013 1120.1L128.037 1112.71C128.792 1110.57 129.397 1108.38 129.846 1106.16L142.241 1104.57L138.24 1076.21L125.844 1077.8C124.808 1075.76 123.617 1073.79 122.281 1071.92L129.858 1062.29L106.334 1044.89L98.7583 1054.52C96.5425 1053.78 94.2786 1053.18 91.9809 1052.74L90.2915 1040.72L61.04 1044.47L62.7302 1056.49C60.6272 1057.49 58.6039 1058.63 56.6776 1059.92L46.7013 1052.54L28.8407 1075.25L38.8162 1082.63C38.0611 1084.78 37.4577 1086.97 37.0098 1089.19L24.6124 1090.78L28.6118 1119.13L41.0152 1117.55ZM53.9355 1101.44C53.1395 1095.79 54.0897 1090.04 56.6668 1084.93C59.2438 1079.81 63.332 1075.56 68.4135 1072.71C73.495 1069.85 79.3421 1068.53 85.2155 1068.9C91.0889 1069.27 96.724 1071.32 101.41 1074.79C106.096 1078.25 109.622 1082.99 111.541 1088.38C113.46 1093.78 113.686 1099.6 112.192 1105.11C110.697 1110.62 107.549 1115.56 103.145 1119.32C98.7402 1123.09 93.2778 1125.49 87.4479 1126.24C83.5763 1126.74 79.6381 1126.49 75.8586 1125.51C72.0791 1124.53 68.5319 1122.84 65.4201 1120.54C62.3083 1118.24 59.693 1115.37 57.7226 1112.09C55.7522 1108.81 54.466 1105.19 53.9371 1101.44L53.9355 1101.44ZM176.789 1052.32C177.437 1053.6 178.181 1054.84 179.017 1056.01L174.268 1062.07L189.054 1073.03L193.803 1066.97C195.194 1067.44 196.619 1067.82 198.067 1068.08L199.132 1075.64L217.533 1073.29L216.467 1065.73C217.787 1065.11 219.057 1064.39 220.268 1063.59L226.54 1068.21L237.784 1053.93L231.512 1049.31C231.995 1047.96 232.371 1046.58 232.636 1045.17L240.438 1044.17L237.927 1026.33L230.127 1027.34C229.478 1026.05 228.733 1024.82 227.898 1023.64L232.647 1017.59L217.859 1006.63L213.111 1012.69C211.721 1012.21 210.295 1011.84 208.847 1011.57L207.783 1004.01L189.381 1006.36L190.448 1013.93C189.127 1014.55 187.856 1015.26 186.646 1016.07L180.372 1011.44L169.13 1025.72L175.417 1030.36C174.932 1031.7 174.554 1033.08 174.285 1034.49L166.484 1035.49L168.995 1053.33L176.789 1052.32ZM184.92 1042.19C184.42 1038.64 185.017 1035.02 186.638 1031.81C188.259 1028.59 190.829 1025.92 194.025 1024.12C197.221 1022.33 200.898 1021.5 204.592 1021.73C208.286 1021.96 211.831 1023.25 214.778 1025.43C217.725 1027.61 219.942 1030.59 221.149 1033.98C222.356 1037.38 222.498 1041.04 221.558 1044.5C220.617 1047.97 218.637 1051.08 215.867 1053.44C213.097 1055.81 209.661 1057.32 205.994 1057.79C203.56 1058.1 201.083 1057.95 198.706 1057.33C196.329 1056.72 194.098 1055.66 192.141 1054.21C190.184 1052.76 188.539 1050.95 187.3 1048.89C186.061 1046.83 185.254 1044.56 184.922 1042.19L184.92 1042.19Z" fill="#FF7171"/>
<path d="M167.187 1225.2C170.343 1228.71 174.5 1231.25 179.133 1232.48C183.765 1233.71 188.664 1233.59 193.211 1232.12C197.758 1230.66 201.749 1227.92 204.678 1224.25C207.607 1220.58 209.344 1216.15 209.668 1211.51C209.992 1206.87 208.889 1202.24 206.499 1198.2C204.109 1194.16 200.539 1190.89 196.24 1188.81C191.941 1186.72 187.106 1185.92 182.347 1186.49C177.588 1187.07 173.118 1189 169.504 1192.04C167.103 1194.06 165.138 1196.52 163.722 1199.28C162.306 1202.04 161.467 1205.05 161.252 1208.13C161.037 1211.21 161.45 1214.3 162.468 1217.23C163.487 1220.16 165.09 1222.87 167.187 1225.2V1225.2Z" fill="#B95E89"/>
<path d="M1844.51 1285.03C1844.52 1298.05 1848.51 1310.78 1855.98 1321.61C1863.45 1332.43 1874.07 1340.87 1886.49 1345.85C1898.92 1350.84 1912.59 1352.14 1925.78 1349.59C1938.96 1347.05 1951.08 1340.78 1960.58 1331.57C1970.09 1322.36 1976.56 1310.62 1979.18 1297.85C1981.81 1285.08 1980.46 1271.84 1975.31 1259.81C1970.16 1247.77 1961.44 1237.49 1950.26 1230.26C1939.08 1223.03 1925.94 1219.17 1912.49 1219.17C1903.56 1219.17 1894.72 1220.87 1886.47 1224.18C1878.22 1227.49 1870.72 1232.34 1864.41 1238.46C1858.1 1244.57 1853.09 1251.83 1849.68 1259.82C1846.26 1267.81 1844.51 1276.38 1844.51 1285.03V1285.03Z" fill="white"/>
<path d="M1912.51 1235.04C1910.34 1243.23 1908.92 1251.59 1908.25 1260.03C1907.49 1268.34 1907.17 1276.68 1907.28 1285.03L1912.51 1279.95C1904.93 1280.05 1897.33 1280.36 1889.74 1281.17C1882.06 1281.86 1874.44 1283.15 1866.97 1285.02C1874.44 1286.89 1882.06 1288.18 1889.74 1288.86C1897.33 1289.68 1904.92 1289.98 1912.51 1290.08L1917.7 1290.16L1917.75 1285.01C1917.86 1276.67 1917.53 1268.33 1916.78 1260.02C1916.11 1251.58 1914.69 1243.23 1912.51 1235.04Z" fill="#83E9D4"/>
<path d="M2089.87 1063.57C2094.35 1066.96 2144.24 1124.56 2144.24 1124.56L2338.58 1139.03L2089.87 1063.57Z" fill="#E9B4DE"/>
<path d="M2120.89 1200.84L2144.24 1124.58L2338.55 1139.03L2120.89 1200.84Z" fill="#B95E89"/>
<path d="M2120.89 1200.84L2185.98 1166.77L2338.55 1139.03L2120.89 1200.84Z" fill="#CD99C2"/>
<path d="M2185.98 1166.77L2249.56 1236.35L2338.55 1139.03L2185.98 1166.77Z" fill="#E9B4DE"/>
<path d="M2105.7 1457.62C2106.63 1460.35 2107.78 1463 2109.13 1465.56L2097.93 1476.41L2124.36 1502.01L2135.57 1491.16C2138.21 1492.46 2140.94 1493.58 2143.76 1494.48V1509.82H2181.13V1494.48C2183.95 1493.58 2186.69 1492.46 2189.33 1491.16L2200.53 1502.01L2226.97 1476.41L2215.76 1465.56C2217.11 1463 2218.25 1460.35 2219.19 1457.62H2235.03V1421.43H2219.19C2218.25 1418.7 2217.11 1416.05 2215.76 1413.49L2226.97 1402.64L2200.53 1377.04L2189.33 1387.89C2186.69 1386.58 2183.95 1385.47 2181.13 1384.56V1369.23H2143.76V1384.56C2140.95 1385.47 2138.21 1386.58 2135.57 1387.89L2124.36 1377.04L2097.93 1402.64L2109.13 1413.49C2107.78 1416.05 2106.63 1418.7 2105.7 1421.43H2089.86V1457.62H2105.7ZM2124.78 1439.52C2124.78 1432.3 2126.99 1425.25 2131.13 1419.25C2135.27 1413.25 2141.15 1408.57 2148.03 1405.81C2154.92 1403.05 2162.49 1402.33 2169.8 1403.74C2177.11 1405.15 2183.82 1408.62 2189.09 1413.72C2194.36 1418.82 2197.94 1425.33 2199.4 1432.4C2200.85 1439.48 2200.1 1446.82 2197.25 1453.48C2194.4 1460.15 2189.57 1465.85 2183.38 1469.86C2177.18 1473.87 2169.9 1476.01 2162.45 1476.01C2157.5 1476.01 2152.6 1475.07 2148.03 1473.23C2143.46 1471.4 2139.31 1468.71 2135.81 1465.32C2132.31 1461.94 2129.54 1457.91 2127.64 1453.49C2125.75 1449.06 2124.78 1444.31 2124.78 1439.52V1439.52Z" fill="#4E01D4"/>
<path d="M1980.49 1126.07C1994.61 1126.07 2006.06 1114.98 2006.06 1101.3C2006.06 1087.62 1994.61 1076.53 1980.49 1076.53C1966.37 1076.53 1954.92 1087.62 1954.92 1101.3C1954.92 1114.98 1966.37 1126.07 1980.49 1126.07Z" fill="#B95E89"/>
<path d="M1976.69 1439.52C1976.69 1445.15 1978.41 1450.65 1981.64 1455.33C1984.87 1460 1989.46 1463.65 1994.82 1465.8C2000.19 1467.95 2006.09 1468.51 2011.79 1467.42C2017.49 1466.32 2022.72 1463.61 2026.83 1459.63C2030.93 1455.65 2033.73 1450.59 2034.86 1445.07C2036 1439.55 2035.41 1433.83 2033.19 1428.64C2030.97 1423.44 2027.2 1419 2022.38 1415.87C2017.55 1412.75 2011.87 1411.08 2006.06 1411.08C2002.2 1411.08 1998.38 1411.81 1994.82 1413.24C1991.26 1414.67 1988.02 1416.76 1985.29 1419.41C1982.56 1422.05 1980.4 1425.18 1978.92 1428.64C1977.45 1432.09 1976.69 1435.79 1976.69 1439.52V1439.52Z" fill="#B95E89"/>
<path d="M1513.41 294.526C1519.57 245.952 1483.92 201.739 1433.78 195.773C1383.65 189.807 1338.01 224.348 1331.85 272.921C1325.68 321.495 1361.33 365.708 1411.47 371.674C1461.61 377.64 1507.25 343.1 1513.41 294.526Z" fill="#FF7171"/>
<path d="M1424.72 299.626L1450.41 342.417C1450.83 343.173 1451.4 343.839 1452.09 344.376C1452.78 344.913 1453.58 345.31 1454.44 345.542C1455.29 345.775 1456.18 345.839 1457.06 345.73C1457.94 345.621 1458.79 345.343 1459.55 344.909C1460.32 344.476 1460.99 343.898 1461.52 343.21C1462.05 342.522 1462.43 341.737 1462.64 340.902C1462.85 340.068 1462.88 339.202 1462.74 338.354C1462.6 337.507 1462.28 336.695 1461.81 335.969L1436.12 293.179C1444.99 286.295 1450.84 276.417 1452.5 265.528C1454.16 254.639 1451.5 243.545 1445.07 234.474C1438.63 225.402 1428.89 219.025 1417.8 216.622C1406.71 214.219 1395.09 215.968 1385.27 221.518C1375.46 227.069 1368.18 236.009 1364.89 246.544C1361.6 257.08 1362.54 268.431 1367.54 278.319C1372.53 288.207 1381.2 295.899 1391.81 299.851C1402.41 303.804 1414.17 303.723 1424.72 299.626H1424.72ZM1380.54 274.723C1377.37 269.446 1375.88 263.377 1376.27 257.283C1376.66 251.188 1378.91 245.342 1382.73 240.484C1386.55 235.626 1391.77 231.974 1397.73 229.991C1403.7 228.008 1410.13 227.782 1416.23 229.343C1422.32 230.903 1427.8 234.18 1431.98 238.758C1436.15 243.335 1438.83 249.009 1439.67 255.06C1440.51 261.112 1439.48 267.27 1436.71 272.755C1433.94 278.241 1429.55 282.806 1424.1 285.875C1416.79 289.972 1408.11 291.098 1399.95 289.008C1391.78 286.917 1384.81 281.781 1380.54 274.721L1380.54 274.723Z" fill="#F5F6F8"/>
<path d="M1135.91 299.936C1148.33 299.936 1158.4 290.183 1158.4 278.151C1158.4 266.12 1148.33 256.366 1135.91 256.366C1123.48 256.366 1113.41 266.12 1113.41 278.151C1113.41 290.183 1123.48 299.936 1135.91 299.936Z" fill="#B95E89"/>
<path d="M1373.87 1375.26H1187.11L1202.46 1157.2H1358.52L1373.87 1375.26Z" fill="#3B06B2"/>
<path d="M1398.36 1340.35C1397.24 1338.73 1395.73 1337.41 1393.96 1336.5C1392.2 1335.59 1390.22 1335.11 1388.22 1335.11H1172.77C1170.77 1335.11 1168.8 1335.59 1167.03 1336.51C1165.26 1337.42 1163.75 1338.74 1162.63 1340.35L1134.41 1381.13C1133.18 1382.91 1132.47 1384.98 1132.36 1387.12C1132.25 1389.26 1132.74 1391.39 1133.79 1393.28C1134.83 1395.17 1136.38 1396.75 1138.28 1397.85C1140.17 1398.95 1142.34 1399.54 1144.56 1399.54H1416.43C1418.64 1399.54 1420.81 1398.95 1422.7 1397.85C1424.6 1396.75 1426.15 1395.17 1427.2 1393.28C1428.24 1391.39 1428.73 1389.26 1428.62 1387.12C1428.51 1384.98 1427.8 1382.91 1426.57 1381.13L1398.36 1340.35Z" fill="#3B06B2"/>
<path d="M797.251 553.13H1763.74C1770.8 553.13 1777.57 555.846 1782.56 560.68C1787.55 565.515 1790.36 572.072 1790.36 578.909V1189.39C1790.36 1196.23 1787.55 1202.79 1782.56 1207.62C1777.57 1212.46 1770.8 1215.17 1763.74 1215.17H797.251C790.191 1215.17 783.421 1212.46 778.429 1207.62C773.438 1202.79 770.634 1196.23 770.634 1189.39V578.909C770.634 572.072 773.438 565.515 778.429 560.68C783.421 555.846 790.191 553.13 797.251 553.13V553.13Z" fill="#3B06B2"/>
<path d="M1743.41 596.993H817.58V1164.46H1743.41V596.993Z" fill="#F4C70D"/>
<path d="M1714.5 614.465H832.016V652.409H1714.5V614.465Z" fill="#E5E6ED"/>
<path d="M1257.74 673.178H832.016V832.833H1257.74V673.178Z" fill="#E5E6ED"/>
<path d="M1714.5 673.178H1273.4V832.833H1714.5V673.178Z" fill="#E5E6ED"/>
<path d="M1714.5 844.18H832.016V875.986H1714.5V844.18Z" fill="#E5E6ED"/>
<path d="M1714.64 887.644H832.155V919.45H1714.64V887.644Z" fill="#E5E6ED"/>
<path d="M1714.43 930.864H831.947V962.67H1714.43V930.864Z" fill="#E5E6ED"/>
<path d="M1714.57 974.328H832.086V1006.13H1714.57V974.328Z" fill="#E5E6ED"/>
<path d="M1714.64 1022.64H832.155V1089.25H1714.64V1022.64Z" fill="#E5E6ED"/>
<path d="M1373.88 1107.16H1108.33V1144.23H1373.88V1107.16Z" fill="#D60050"/>
<path d="M1622.43 1332.88C1514.87 1313.57 1389.47 1290.68 1389.13 1331.02C1388.81 1369.14 1436.48 1398.71 1477.66 1417.58C1499.96 1409.34 1525.16 1407.78 1548.99 1404.2C1591.12 1397.89 1632.47 1404.42 1674.66 1404.34C1700.88 1393.99 1723.99 1377.42 1741.87 1356.15C1741.87 1356.15 1705.33 1347.76 1622.43 1332.88Z" fill="#616161"/>
<path d="M1531.85 1405.19C1535.26 1406.89 1494.14 1425.72 1497.41 1427.3C1515.01 1432.64 1688.34 1433.6 1704.23 1429.64C1731.68 1422.79 1653.29 1389.77 1680.67 1384.26C1725.71 1353.42 1751.02 1313.04 1726.63 1308.01C1699.12 1302.33 1656.14 1316.37 1628.34 1319.18C1607.15 1321.33 1594.88 1322.71 1574.77 1315.91L1507.09 1308.69C1437.69 1322.05 1423.39 1346.23 1422.67 1345.91C1422.67 1355.5 1473.3 1375.25 1518.67 1398.54C1523.39 1400.09 1527.83 1402.33 1531.85 1405.19V1405.19Z" fill="#3B06B2"/>
<path d="M1505.98 1379.39L1527.99 1408.25C1527.99 1408.25 1504.09 1424.42 1497.41 1427.3C1490.74 1430.17 1436.76 1432.29 1422.61 1421.78C1409.93 1412.35 1405.57 1400 1412.07 1394.17C1420.35 1386.75 1440.35 1384.38 1450.33 1383.1C1472.27 1380.29 1505.98 1379.39 1505.98 1379.39Z" fill="black"/>
<path d="M1492.66 1380.45L1505.34 1423.95C1505.34 1423.95 1718.44 1420.89 1740.71 1389.21C1769.3 1360.62 1780.87 1304.43 1723.27 1303.29C1714.58 1303.12 1700.58 1305.81 1686.12 1310.53C1607.95 1336.05 1492.66 1380.45 1492.66 1380.45Z" fill="#4E01D2"/>
<g style="mix-blend-mode:multiply" opacity="0.32">
<path d="M1728.14 1377.5C1714.85 1377.5 1703.75 1371.07 1692.83 1364.67C1679.13 1356.84 1664.23 1351.18 1648.7 1347.89C1635.23 1344.86 1621.15 1340.29 1610.34 1336.71C1548.4 1356.18 1492.66 1380.45 1492.66 1380.45L1502.6 1414.55C1508.04 1415.82 1513.49 1417.17 1518.93 1418.61C1525.45 1419.05 1531.92 1420.04 1538.26 1421.54C1539.61 1421.9 1540.96 1422.15 1542.31 1422.38C1603.54 1419.14 1726.95 1409.95 1743.3 1386.67C1745.91 1382.96 1751.34 1376.52 1753.27 1372.31C1748.45 1374.03 1734.11 1377.5 1728.14 1377.5Z" fill="#00547A"/>
</g>
<path d="M1676.15 1382.03L1657.68 1404.7C1657.68 1404.7 1687.83 1422.46 1694.11 1425.41C1700.4 1428.35 1743.95 1430.32 1757.77 1420.71C1770.16 1412.09 1774.71 1400.44 1768.7 1394.69C1761.03 1387.36 1742.03 1384.52 1732.55 1383C1711.7 1379.67 1676.15 1382.03 1676.15 1382.03Z" fill="black"/>
<path d="M1697.55 1376.42L1678.58 1427.24C1678.58 1427.24 1416.85 1407.27 1395.56 1371.89C1382.83 1350.74 1380.99 1317.83 1408.41 1306.09C1425.28 1298.87 1449.13 1295.16 1483.07 1306.47C1567.43 1334.59 1697.55 1376.42 1697.55 1376.42Z" fill="#4E01D2"/>
<path d="M1594.68 1039.28H1557.62C1557.62 1039.28 1552.28 1088.17 1542.62 1093.99C1542.62 1093.99 1530.69 1151.75 1576.15 1151.75C1631.16 1151.75 1609.67 1093.99 1609.67 1093.99C1600.01 1088.17 1594.68 1039.28 1594.68 1039.28Z" fill="#FAB4DF"/>
<path d="M1624.33 1048.85C1619.19 1043.13 1613.03 1051.84 1613.03 1051.84C1613.03 1051.84 1621.51 1019.5 1613.03 1005.33C1604.55 991.152 1577.09 998.607 1577.09 998.607C1577.09 998.607 1549.62 991.147 1541.16 1005.33C1532.7 1019.51 1541.16 1051.84 1541.16 1051.84C1541.16 1051.84 1534.99 1043.13 1529.86 1048.85C1524.72 1054.57 1538.33 1069 1541.41 1070.73C1541.41 1070.73 1561.18 1106.54 1577.1 1106.54C1593.02 1106.54 1612.79 1070.73 1612.79 1070.73C1615.85 1069 1629.47 1054.57 1624.33 1048.85Z" fill="#DE99C4"/>
<path d="M1570.18 1011.42C1570.18 1011.42 1549.38 1014.97 1547.07 1025.79C1545.95 1031.04 1547.19 1036.74 1548.19 1041.92C1548.71 1044.66 1550.71 1059.38 1549.96 1059.74C1549.5 1059.86 1549.03 1059.88 1548.56 1059.81C1548.09 1059.73 1547.65 1059.55 1547.26 1059.29C1544.52 1056.89 1542.15 1054.12 1540.24 1051.06C1536.27 1045.46 1530.61 1046.4 1528.97 1049.94C1528.97 1049.94 1524.35 996.879 1547.27 995.009C1570.18 993.139 1570.18 1011.42 1570.18 1011.42Z" fill="#740045"/>
<path d="M1583.71 1011.42C1583.71 1011.42 1604.51 1014.97 1606.82 1025.79C1607.94 1031.04 1606.71 1036.74 1605.7 1041.92C1605.18 1044.66 1603.18 1059.38 1603.93 1059.74C1604.39 1059.86 1604.87 1059.88 1605.33 1059.81C1605.8 1059.73 1606.24 1059.55 1606.63 1059.29C1609.37 1056.89 1611.74 1054.12 1613.66 1051.06C1617.62 1045.46 1623.28 1046.4 1624.92 1049.94C1624.92 1049.94 1629.54 996.879 1606.62 995.009C1583.7 993.139 1583.71 1011.42 1583.71 1011.42Z" fill="#740045"/>
<path d="M1614.29 998.153C1614.29 998.153 1614.78 989.418 1604.51 984.008C1594.24 978.598 1573.84 976.174 1557.67 984.008C1541.51 991.843 1536.58 993.609 1531.87 991C1527.15 988.391 1530.13 985.777 1530.13 985.777C1530.13 985.777 1519.54 985.686 1520.05 1001.6C1520.57 1017.52 1540.77 1037.29 1567.16 1037.29C1607.47 1037.29 1620.51 1010 1614.29 998.153Z" fill="#740045"/>
<path d="M1609.68 1093.99C1607.73 1143.09 1576.14 1138.03 1576.14 1138.03C1576.14 1138.03 1544.56 1143.09 1542.62 1093.99C1542.62 1093.99 1492.18 1107.49 1467.57 1123.46C1474.29 1153.21 1478.02 1183.51 1478.71 1213.95L1507.55 1322.13L1576.14 1310.03L1644.73 1322.13L1673.57 1213.95C1674.25 1183.51 1677.98 1153.21 1684.7 1123.46C1660.11 1107.49 1609.68 1093.99 1609.68 1093.99Z" fill="#D0D1DE"/>
<path d="M1668.6 1151.83C1637.25 1168.02 1622.01 1205.25 1591.55 1223.49C1560.04 1242.37 1537.75 1204.24 1522.42 1184.4C1509.63 1167.2 1492.18 1153.74 1471.99 1145.52C1475.98 1168.13 1478.23 1191 1478.71 1213.94L1507.54 1322.12L1576.13 1313.99L1644.73 1322.12L1673.56 1213.94C1674.03 1191.36 1676.22 1168.84 1680.1 1146.56C1676.13 1148.25 1672.23 1149.95 1668.6 1151.83Z" fill="#B8B9CD"/>
<path d="M1467.57 1123.46C1467.57 1123.46 1410.41 1253.49 1409.73 1271.4C1408.41 1306.09 1486.74 1320.13 1522.46 1313.76L1537 1311.17C1537 1311.17 1483.98 1122.53 1467.57 1123.46Z" fill="#D0D1DE"/>
<path d="M1684.59 1123.46C1684.59 1123.46 1742.31 1253.48 1742.43 1271.4C1742.67 1306.48 1665.42 1320.13 1629.7 1313.76L1615.16 1311.17C1615.16 1311.17 1668.19 1122.53 1684.59 1123.46Z" fill="#D0D1DE"/>
<path d="M1491.9 1169.13C1491.79 1175.55 1491 1181.94 1489.52 1188.2C1483.99 1211.79 1475.3 1236.42 1484.43 1260.38C1491.32 1278.5 1502.38 1296.91 1512.58 1314.32C1515.88 1314.48 1519.2 1314.3 1522.47 1313.76L1537 1311.17C1537 1311.17 1512.69 1224.69 1491.9 1169.13Z" fill="#B8B9CD"/>
<path d="M1650.48 1313.1C1655.28 1302.1 1657.63 1290.24 1657.38 1278.31C1656.55 1254.2 1656.41 1230.09 1656.81 1205.97C1656.98 1195.54 1657.26 1185.44 1657.89 1175.56C1637.67 1231.11 1615.16 1311.17 1615.16 1311.17L1629.7 1313.76C1636.61 1314.73 1643.65 1314.5 1650.48 1313.1V1313.1Z" fill="#B8B9CD"/>
<path d="M1666.03 1312.67H1486.26V1322.99H1666.03V1312.67Z" fill="#FC7171"/>
<path d="M1692.47 1191.97H1459.83C1459.83 1191.97 1447.27 1191.97 1449.42 1205.53C1451.57 1219.1 1480.89 1314.01 1486.81 1314.01H1665.48C1670.68 1314.01 1700.72 1219.1 1702.87 1205.53C1705.02 1191.96 1692.47 1191.97 1692.47 1191.97Z" fill="#FC7171"/>
<path d="M1585.77 1257.65C1585.77 1259.5 1585.21 1261.3 1584.15 1262.83C1583.09 1264.37 1581.59 1265.56 1579.83 1266.27C1578.07 1266.97 1576.14 1267.16 1574.27 1266.8C1572.4 1266.44 1570.69 1265.55 1569.34 1264.25C1567.99 1262.94 1567.08 1261.28 1566.71 1259.47C1566.34 1257.66 1566.53 1255.79 1567.25 1254.09C1567.98 1252.38 1569.22 1250.93 1570.8 1249.9C1572.38 1248.88 1574.24 1248.33 1576.15 1248.33C1577.41 1248.33 1578.66 1248.57 1579.83 1249.04C1581 1249.51 1582.06 1250.2 1582.95 1251.06C1583.85 1251.93 1584.56 1252.95 1585.04 1254.09C1585.52 1255.22 1585.77 1256.43 1585.77 1257.65V1257.65Z" fill="white"/>
<path d="M728.854 382.042H1122.2C1124.72 382.042 1127.13 383.011 1128.91 384.734C1130.69 386.458 1131.69 388.795 1131.69 391.233V642.997C1131.69 645.434 1130.69 647.772 1128.91 649.496C1127.13 651.219 1124.72 652.187 1122.2 652.187H728.854C726.337 652.187 723.923 651.219 722.143 649.495C720.363 647.771 719.363 645.433 719.363 642.994V391.235C719.363 388.797 720.363 386.459 722.143 384.735C723.923 383.011 726.337 382.042 728.854 382.042V382.042Z" fill="#E5E6ED"/>
<path d="M1112.94 403.561H738.103V630.669H1112.94V403.561Z" fill="#00E9D3"/>
<path d="M805.245 462.702V480.496C805.245 483.453 804.318 485.791 802.462 487.51C800.619 489.229 798.096 490.089 794.892 490.089C791.738 490.089 789.233 489.254 787.377 487.584C785.522 485.914 784.575 483.62 784.538 480.7V462.702H790.105V480.533C790.105 482.302 790.525 483.595 791.366 484.411C792.22 485.215 793.395 485.617 794.892 485.617C798.021 485.617 799.611 483.972 799.66 480.682V462.702H805.245ZM819.477 472.017L824.542 462.702H830.944L823.076 476.099L831.148 489.718H824.672L819.477 480.255L814.281 489.718H807.806L815.877 476.099L808.01 462.702H814.411L819.477 472.017ZM835.304 492.037H831.315L841.26 462.702H845.249L835.304 492.037ZM868.628 462.702V480.496C868.628 483.453 867.7 485.791 865.845 487.51C864.002 489.229 861.478 490.089 858.275 490.089C855.12 490.089 852.615 489.254 850.76 487.584C848.905 485.914 847.958 483.62 847.921 480.7V462.702H853.488V480.533C853.488 482.302 853.908 483.595 854.749 484.411C855.603 485.215 856.778 485.617 858.275 485.617C861.404 485.617 862.994 483.972 863.043 480.682V462.702H868.628ZM879.112 489.718H873.545V462.702H879.112V489.718Z" fill="#4E01D4"/>
<path d="M770.812 445.135C772.226 443.424 773.504 441.609 774.634 439.71L786.482 442.135L792.384 415.071L780.534 412.647C780.289 410.468 779.879 408.309 779.309 406.188L789.442 399.803L773.851 376.626L763.716 383.01C761.949 381.639 760.077 380.401 758.116 379.307L760.616 367.834L732.675 362.118L730.173 373.592C727.923 373.834 725.694 374.235 723.504 374.792L716.892 364.977L692.963 380.08L699.57 389.895C698.155 391.605 696.877 393.418 695.749 395.319L683.901 392.897L677.999 419.96L689.848 422.383C690.097 424.563 690.511 426.723 691.088 428.844L680.954 435.243L696.544 458.42L706.679 452.036C708.446 453.408 710.318 454.646 712.281 455.74L709.779 467.215L737.722 472.927L740.222 461.454C742.473 461.211 744.703 460.809 746.894 460.254L753.486 470.066L777.417 454.966L770.812 445.135ZM750.891 440.855C746.122 443.864 740.539 445.436 734.848 445.372C729.156 445.308 723.612 443.61 718.916 440.494C714.221 437.378 710.585 432.984 708.468 427.867C706.352 422.75 705.849 417.139 707.025 411.746C708.2 406.352 711.001 401.417 715.072 397.564C719.143 393.712 724.302 391.116 729.897 390.103C735.492 389.091 741.272 389.708 746.505 391.876C751.737 394.045 756.189 397.669 759.295 402.287C763.458 408.482 764.911 416.024 763.335 423.256C761.759 430.488 757.282 436.818 750.889 440.855H750.891ZM655.325 357.325C656.211 356.245 657.015 355.103 657.732 353.911L665.189 355.438L668.906 338.413L661.45 336.889C661.293 335.517 661.035 334.159 660.676 332.823L667.047 328.797L657.246 314.215L650.874 318.239C649.763 317.375 648.585 316.595 647.351 315.905L648.924 308.683L631.35 305.083L629.776 312.305C628.355 312.456 626.948 312.706 625.564 313.051L621.409 306.883L606.371 316.372L610.524 322.54C609.635 323.618 608.831 324.76 608.119 325.955L600.658 324.432L596.941 341.454L604.399 342.976C604.556 344.353 604.815 345.716 605.172 347.056L598.8 351.08L608.602 365.647L614.974 361.621C616.086 362.484 617.264 363.264 618.498 363.954L616.923 371.18L634.5 374.78L636.071 367.559C637.492 367.407 638.9 367.157 640.285 366.811L644.438 372.982L659.479 363.487L655.325 357.325ZM642.798 354.63C639.8 356.521 636.289 357.509 632.711 357.468C629.133 357.428 625.647 356.36 622.696 354.401C619.744 352.442 617.459 349.679 616.128 346.462C614.798 343.245 614.483 339.717 615.222 336.326C615.961 332.935 617.722 329.834 620.282 327.412C622.841 324.99 626.085 323.359 629.603 322.723C633.121 322.087 636.754 322.476 640.044 323.84C643.333 325.204 646.131 327.482 648.084 330.387C650.699 334.279 651.612 339.017 650.621 343.561C649.631 348.105 646.819 352.082 642.803 354.619L642.798 354.63Z" fill="#4E01D4"/>
<path d="M732.919 205.616C729.757 205.038 626.996 201.625 626.996 201.625L622.339 216.3L732.919 205.616Z" fill="#E9B4DE"/>
<path d="M622.33 216.3L636.114 257.262L732.908 205.617L622.33 216.3Z" fill="#B95E89"/>
<path d="M636.113 257.262L732.909 205.617L615.816 233.244L636.113 257.262Z" fill="#CD99C2"/>
<path d="M615.816 233.244L732.907 205.617L609.207 258.783L615.816 233.244Z" fill="#E9B4DE"/>
<path d="M654.024 519.776C654.024 522.263 654.785 524.695 656.211 526.763C657.637 528.83 659.665 530.441 662.037 531.393C664.409 532.345 667.018 532.595 669.537 532.11C672.055 531.626 674.368 530.428 676.184 528.669C678 526.911 679.237 524.672 679.738 522.233C680.239 519.794 679.981 517.265 678.999 514.967C678.016 512.67 676.352 510.707 674.217 509.325C672.083 507.944 669.573 507.206 667.005 507.206C663.563 507.206 660.262 508.53 657.828 510.888C655.393 513.245 654.025 516.442 654.024 519.776V519.776Z" fill="#B95E89"/>
</g>
<defs>
<clipPath id="clip0">
<rect width="2342" height="1661" fill="white"/>
</clipPath>
</defs>
</svg>
