<svg xmlns="http://www.w3.org/2000/svg" width="944.702" height="893.208" viewBox="0 0 944.702 893.208">
  <g id="Grupo_796" data-name="Grupo 796" transform="translate(-893.737 -127.071)">
    <path id="Trazado_248" data-name="Trazado 248" d="M1491.579,5213.015c-268.638-390.782-165.249-481.145-7.267-539.642s470.15,75.346,515.908,148.059S1760.217,5603.8,1491.579,5213.015Z" transform="matrix(0.407, 0.914, -0.914, 0.407, 5279.08, -2979.251)" fill="#00a7cc"/>
    <g id="TUERCA-ELEMENTO_AUX" data-name="TUERCA-ELEMENTO AUX" transform="translate(893.737 633.887) rotate(-41)">
      <path id="Trazado_342" data-name="Trazado 342" d="M2114.209,5766.908a19.12,19.12,0,0,0-.523,2.783l-4.948,1.021,2.408,11.666,4.948-1.021a20.807,20.807,0,0,0,1.579,2.347l-2.775,4.215,9.948,6.544,2.774-4.215a19.08,19.08,0,0,0,2.784.523l1.021,4.948,11.667-2.409-1.021-4.948a20.855,20.855,0,0,0,2.347-1.579l4.215,2.774,6.544-9.948-4.215-2.774a19.068,19.068,0,0,0,.523-2.784l4.948-1.02-2.408-11.667-4.948,1.021a20.826,20.826,0,0,0-1.58-2.347l2.775-4.214-9.948-6.544-2.775,4.214a19.068,19.068,0,0,0-2.784-.523l-1.021-4.948-11.667,2.409,1.021,4.948a20.837,20.837,0,0,0-2.347,1.58l-4.215-2.775-6.544,9.947Zm8.351-1.641a12,12,0,1,1,3.429,16.623A12,12,0,0,1,2122.56,5765.268Zm50.916,17.024a12,12,0,0,0-.331,1.745l-3.107.646,1.509,7.339,3.107-.646a11.773,11.773,0,0,0,.995,1.475l-1.745,2.652,6.256,4.119,1.746-2.653a12.094,12.094,0,0,0,1.745.332l.646,3.106,7.339-1.51-.646-3.106a11.739,11.739,0,0,0,1.475-1l2.653,1.746,4.119-6.257-2.653-1.745a12.074,12.074,0,0,0,.331-1.746l3.107-.646-1.51-7.339-3.106.646a11.782,11.782,0,0,0-.995-1.475l1.746-2.652-6.257-4.119-1.745,2.653a11.977,11.977,0,0,0-1.746-.332l-.646-3.107-7.338,1.51.646,3.115a11.75,11.75,0,0,0-1.475.995l-2.653-1.745-4.119,6.257Zm5.253-1.03a7.547,7.547,0,1,1,2.156,10.454A7.544,7.544,0,0,1,2178.729,5781.262Z" transform="translate(-2108.738 -5748.024)" fill="#ff7171"/>
      <path id="Trazado_343" data-name="Trazado 343" d="M2137.985,5911.63a9.791,9.791,0,1,0,9.791-9.791A9.787,9.787,0,0,0,2137.985,5911.63Z" transform="translate(-2123.474 -5825.521)" fill="#b95e89"/>
    </g>
    <g id="RELOJ-ELEMENTO_AUX" data-name="RELOJ-ELEMENTO AUX" transform="translate(1638 622)">
      <g id="Grupo_145" data-name="Grupo 145">
        <g id="Grupo_143" data-name="Grupo 143" transform="translate(0 64.825)">
          <path id="Trazado_344" data-name="Trazado 344" d="M2865.854,6077.807a27.433,27.433,0,1,0,27.428-27.438A27.425,27.425,0,0,0,2865.854,6077.807Z" transform="translate(-2865.854 -6050.368)" fill="#fff"/>
          <path id="Trazado_345" data-name="Trazado 345" d="M2899.32,6061.378a60.541,60.541,0,0,0-1.721,10.413,104.051,104.051,0,0,0-.391,10.414l2.112-2.113c-3.062.042-6.125.169-9.188.507a58.062,58.062,0,0,0-9.188,1.605,58.228,58.228,0,0,0,9.188,1.6c3.063.338,6.125.464,9.188.507l2.092.032.021-2.144a104.051,104.051,0,0,0-.391-10.414A60.325,60.325,0,0,0,2899.32,6061.378Z" transform="translate(-2871.882 -6054.766)" fill="#83e9d4"/>
        </g>
        <g id="Grupo_144" data-name="Grupo 144" transform="translate(99.003)">
          <path id="Trazado_346" data-name="Trazado 346" d="M3030.715,5942.421c1.806,1.415,21.936,25.41,21.936,25.41l78.418,6.031Z" transform="translate(-3030.715 -5942.421)" fill="#e9b4de"/>
          <path id="Trazado_347" data-name="Trazado 347" d="M3051.555,6016.521l9.421-31.769,78.407,6.02Z" transform="translate(-3039.04 -5959.331)" fill="#b95e89"/>
          <path id="Trazado_348" data-name="Trazado 348" d="M3051.555,6020.524l26.266-14.194,61.562-11.554Z" transform="translate(-3039.04 -5963.335)" fill="#cd99c2"/>
          <path id="Trazado_349" data-name="Trazado 349" d="M3095.293,6006.33l25.654,28.991,35.908-40.545Z" transform="translate(-3056.512 -5963.335)" fill="#e9b4de"/>
        </g>
        <path id="Trazado_350" data-name="Trazado 350" d="M3037.1,6191.3a23.983,23.983,0,0,0,1.384,3.306l-4.52,4.52,10.667,10.667,4.521-4.52a23.98,23.98,0,0,0,3.305,1.384v6.389h15.082v-6.389a24.033,24.033,0,0,0,3.306-1.384l4.52,4.52,10.667-10.667-4.521-4.52a23.954,23.954,0,0,0,1.384-3.306h6.39V6176.22h-6.39a23.9,23.9,0,0,0-1.384-3.306l4.521-4.52-10.667-10.667-4.52,4.52a24.155,24.155,0,0,0-3.306-1.384v-6.389h-15.082v6.389a24.1,24.1,0,0,0-3.305,1.384l-4.521-4.52-10.667,10.667,4.52,4.52a23.933,23.933,0,0,0-1.384,3.306h-6.389V6191.3Zm7.7-7.541a15.2,15.2,0,1,1,15.2,15.2A15.194,15.194,0,0,1,3044.8,6183.76Z" transform="translate(-2931.712 -6027.13)" fill="#4e01d4" style="isolation: isolate"/>
        <circle id="Elipse_23" data-name="Elipse 23" cx="10.318" cy="10.318" r="10.318" transform="translate(44.548 5.402)" fill="#b95e89"/>
        <path id="Trazado_351" data-name="Trazado 351" d="M2954.667,6195.359a11.85,11.85,0,1,0,11.85-11.851A11.846,11.846,0,0,0,2954.667,6195.359Z" transform="translate(-2901.333 -6038.729)" fill="#b95e89"/>
      </g>
    </g>
    <g id="LUPA-ELEMENTO_AUX" data-name="LUPA-ELEMENTO AUX" transform="translate(1343 256)">
      <g id="Grupo_148" data-name="Grupo 148" transform="translate(0 0)">
        <g id="Grupo_147" data-name="Grupo 147" transform="translate(0 0)">
          <g id="Grupo_146" data-name="Grupo 146" transform="translate(83.636)">
            <ellipse id="Elipse_24" data-name="Elipse 24" cx="36.9" cy="36.889" rx="36.9" ry="36.889" transform="matrix(0.122, -0.993, 0.993, 0.122, 0, 73.246)" fill="#ff7171"/>
            <path id="Trazado_352" data-name="Trazado 352" d="M4101.445,5664.988l10.364,17.827a2.665,2.665,0,1,0,4.6-2.686l-10.365-17.827a18.162,18.162,0,1,0-4.6,2.686Zm-17.828-10.375a12.861,12.861,0,1,1,17.578,4.646A12.885,12.885,0,0,1,4083.618,5654.612Z" transform="translate(-4059.467 -5617.258)" fill="#f5f6f8"/>
          </g>
          <circle id="Elipse_25" data-name="Elipse 25" cx="9.076" cy="9.076" r="9.076" transform="translate(0 29.707)" fill="#b95e89"/>
        </g>
      </g>
    </g>
    <g id="Grupo_267" data-name="Grupo 267" transform="translate(-13.266 242.138)">
      <path id="Trazado_648" data-name="Trazado 648" d="M1368.2,350.311H1292.84l6.194-90.848h62.973Z" transform="translate(93.162 159.408)" fill="#3b06b2"/>
      <path id="Trazado_649" data-name="Trazado 649" d="M1388.99,299.179A4.923,4.923,0,0,0,1384.9,297h-86.933a4.924,4.924,0,0,0-4.092,2.182l-11.386,16.989a4.926,4.926,0,0,0,4.092,7.668h109.7a4.926,4.926,0,0,0,4.092-7.668Z" transform="translate(82.251 195.994)" fill="#3b06b2"/>
      <path id="Rectángulo_149" data-name="Rectángulo 149" d="M10.74,0H400.72a10.74,10.74,0,0,1,10.74,10.74V265.077a10.741,10.741,0,0,1-10.741,10.741H10.74A10.74,10.74,0,0,1,0,265.078V10.74A10.74,10.74,0,0,1,10.74,0Z" transform="translate(1217.954 167.206)" fill="#3b06b2"/>
      <rect id="Rectángulo_150" data-name="Rectángulo 150" width="373.572" height="236.415" transform="translate(1236.897 185.48)" fill="#f4c70d"/>
      <g id="Grupo_261" data-name="Grupo 261" transform="translate(1242.694 192.759)">
        <rect id="Rectángulo_151" data-name="Rectángulo 151" width="356.084" height="15.808" transform="translate(0.028)" fill="#e5e6ed"/>
        <rect id="Rectángulo_152" data-name="Rectángulo 152" width="171.781" height="66.515" transform="translate(0.028 24.461)" fill="#e5e6ed"/>
        <rect id="Rectángulo_153" data-name="Rectángulo 153" width="177.986" height="66.515" transform="translate(178.126 24.461)" fill="#e5e6ed"/>
        <rect id="Rectángulo_154" data-name="Rectángulo 154" width="356.084" height="13.251" transform="translate(0.028 95.703)" fill="#e5e6ed"/>
        <rect id="Rectángulo_155" data-name="Rectángulo 155" width="356.084" height="13.251" transform="translate(0.084 113.811)" fill="#e5e6ed"/>
        <rect id="Rectángulo_156" data-name="Rectángulo 156" width="356.084" height="13.251" transform="translate(0 131.817)" fill="#e5e6ed"/>
        <rect id="Rectángulo_157" data-name="Rectángulo 157" width="356.084" height="13.251" transform="translate(0.056 149.925)" fill="#e5e6ed"/>
        <rect id="Rectángulo_158" data-name="Rectángulo 158" width="356.084" height="27.753" transform="translate(0.084 170.051)" fill="#e5e6ed"/>
        <rect id="Rectángulo_159" data-name="Rectángulo 159" width="107.148" height="15.445" transform="translate(111.523 205.264)" fill="#d60050" style="isolation: isolate"/>
      </g>
      <g id="Grupo_264" data-name="Grupo 264" transform="translate(1466.515 344.63)">
        <path id="Trazado_650" data-name="Trazado 650" d="M1428.257,301.5c-43.4-8.045-94-17.581-94.138-.774-.13,15.883,19.106,28.2,35.721,36.065,9-3.434,19.169-4.086,28.782-5.575,17-2.63,33.685.091,50.71.057a68.141,68.141,0,0,0,27.119-20.075S1461.706,307.7,1428.257,301.5Z" transform="translate(-1333.117 -154.069)" fill="#616161"/>
        <path id="Trazado_651" data-name="Trazado 651" d="M1385.025,332.042c1.376.707-15.216,8.553-13.895,9.21,7.1,2.228,77.039,2.628,83.452.976,11.078-2.852-20.555-16.608-9.507-18.906,18.174-12.85,28.387-29.669,18.547-31.766-11.1-2.368-28.443,3.482-39.663,4.655-8.547.893-13.5,1.467-21.614-1.363l-27.311-3.01c-28,5.565-33.77,15.64-34.062,15.506,0,3.995,20.429,12.226,38.735,21.926A19.636,19.636,0,0,1,1385.025,332.042Z" transform="translate(-1326.436 -154.484)" fill="#3b06b2"/>
        <path id="Trazado_652" data-name="Trazado 652" d="M1377.294,306.34l8.881,12.024s-9.643,6.736-12.336,7.933-24.475,2.081-30.182-2.3c-5.118-3.926-6.878-9.074-4.255-11.5,3.341-3.094,11.412-4.08,15.439-4.611C1363.694,306.715,1377.294,306.34,1377.294,306.34Z" transform="translate(-1329.143 -139.529)"/>
        <path id="Trazado_653" data-name="Trazado 653" d="M1355.274,322.433l5.116,18.124s85.987-1.278,94.97-14.477c11.539-11.91,16.207-35.321-7.036-35.794-3.507-.071-9.157,1.049-14.99,3.016C1401.793,303.933,1355.274,322.433,1355.274,322.433Z" transform="translate(-1312.495 -155.181)" fill="#4e01d2"/>
        <path id="Trazado_654" data-name="Trazado 654" d="M1450.291,314.328c-5.364,0-9.844-2.68-14.25-5.346a60.543,60.543,0,0,0-17.808-6.991c-5.433-1.26-11.116-3.166-15.476-4.656-24.995,8.11-47.483,18.223-47.483,18.223l4.011,14.206c2.192.527,4.394,1.092,6.588,1.692a46.314,46.314,0,0,1,7.8,1.222c.543.146,1.088.251,1.635.346,24.706-1.349,74.5-5.178,81.1-14.874,1.052-1.546,3.242-4.23,4.021-5.985C1458.483,312.882,1452.7,314.328,1450.291,314.328Z" transform="translate(-1312.495 -148.306)" fill="#00547a" opacity="0.32" style="mix-blend-mode: multiply;isolation: isolate"/>
        <path id="Trazado_655" data-name="Trazado 655" d="M1396.445,307.061l-7.453,9.447s12.163,7.4,14.7,8.626,20.109,2.046,25.686-1.957c5-3.59,6.836-8.446,4.409-10.841-3.092-3.055-10.762-4.238-14.586-4.868C1410.788,306.081,1396.445,307.061,1396.445,307.061Z" transform="translate(-1279.628 -139.153)"/>
        <path id="Trazado_656" data-name="Trazado 656" d="M1459.064,321.575l-7.655,21.175s-105.608-8.32-114.2-23.061c-5.136-8.813-5.881-22.524,5.184-27.414,6.807-3.006,16.432-4.552,30.125.16C1406.559,304.15,1459.064,321.575,1459.064,321.575Z" transform="translate(-1333.611 -156.004)" fill="#4e01d2"/>
        <path id="Trazado_657" data-name="Trazado 657" d="M1386.768,234.586h-14.953s-2.153,20.37-6.053,22.793c0,0-4.812,24.062,13.529,24.062,22.2,0,13.529-24.062,13.529-24.062C1388.92,254.956,1386.768,234.586,1386.768,234.586Z" transform="translate(-1302.827 -209.472)" fill="#fab4df"/>
        <g id="Grupo_262" data-name="Grupo 262" transform="translate(53.817)">
          <path id="Trazado_658" data-name="Trazado 658" d="M1401.226,247.339c-2.073-2.382-4.56,1.244-4.56,1.244s3.42-13.47,0-19.376-14.5-2.8-14.5-2.8-11.086-3.108-14.5,2.8,0,19.376,0,19.376-2.488-3.626-4.56-1.244,3.418,8.393,4.662,9.117c0,0,7.978,14.919,14.4,14.919s14.4-14.919,14.4-14.919C1397.805,255.732,1403.3,249.723,1401.226,247.339Z" transform="translate(-1359.136 -218.238)" fill="#de99c4"/>
          <path id="Trazado_659" data-name="Trazado 659" d="M1379.4,232.112s-8.393,1.477-9.324,5.984c-.454,2.19.045,4.562.448,6.72.213,1.143,1.019,7.277.717,7.425a1.3,1.3,0,0,1-1.09-.188,15.34,15.34,0,0,1-2.834-3.428c-1.6-2.332-3.886-1.943-4.546-.466,0,0-1.866-22.107,7.382-22.886S1379.4,232.112,1379.4,232.112Z" transform="translate(-1359.159 -218.603)" fill="#740045" style="isolation: isolate"/>
          <path id="Trazado_660" data-name="Trazado 660" d="M1373.877,232.112s8.393,1.477,9.325,5.984c.452,2.19-.045,4.562-.45,6.72-.211,1.143-1.017,7.277-.715,7.425a1.3,1.3,0,0,0,1.088-.188,15.34,15.34,0,0,0,2.836-3.428c1.6-2.332,3.884-1.943,4.546-.466,0,0,1.864-22.107-7.384-22.886S1373.877,232.112,1373.877,232.112Z" transform="translate(-1348.178 -218.603)" fill="#740045" style="isolation: isolate"/>
          <path id="Trazado_661" data-name="Trazado 661" d="M1398.9,229.848s.2-3.639-3.944-5.893-12.378-3.264-18.9,0-8.509,4-10.413,2.913-.7-2.176-.7-2.176-4.274-.038-4.066,6.594,8.359,14.868,19.009,14.868C1396.15,246.153,1401.412,234.783,1398.9,229.848Z" transform="translate(-1360.863 -221.868)" fill="#740045" style="isolation: isolate"/>
        </g>
        <path id="Trazado_662" data-name="Trazado 662" d="M1407.486,246.128c-.784,20.457-13.533,18.346-13.533,18.346s-12.741,2.111-13.525-18.346c0,0-20.354,5.626-30.281,12.279a196.422,196.422,0,0,1,4.494,37.7l11.635,45.07,27.676-5.045,27.676,5.045,11.637-45.07a196.513,196.513,0,0,1,4.492-37.7C1427.834,251.754,1407.486,246.128,1407.486,246.128Z" transform="translate(-1317.492 -198.221)" fill="#d0d1de"/>
        <path id="Trazado_663" data-name="Trazado 663" d="M1430.381,259.627c-12.65,6.744-18.8,22.256-31.089,29.856-12.714,7.865-21.711-8.023-27.894-16.286a48.02,48.02,0,0,0-20.348-16.2,192.552,192.552,0,0,1,2.709,28.506l11.635,45.068,27.676-3.387,27.678,3.387,11.635-45.068a191.884,191.884,0,0,1,2.638-28.071C1433.418,258.135,1431.846,258.845,1430.381,259.627Z" transform="translate(-1316.611 -187.622)" fill="#b8b9cd"/>
        <path id="Trazado_664" data-name="Trazado 664" d="M1361.671,252.347s-23.067,54.172-23.34,61.634c-.531,14.451,31.073,20.3,45.487,17.646l5.865-1.08S1368.29,251.956,1361.671,252.347Z" transform="translate(-1329.016 -192.16)" fill="#d0d1de"/>
        <path id="Trazado_665" data-name="Trazado 665" d="M1408.316,252.347s23.292,54.168,23.342,61.634c.095,14.615-31.075,20.3-45.489,17.646l-5.865-1.08S1401.7,251.956,1408.316,252.347Z" transform="translate(-1288.096 -192.16)" fill="#d0d1de"/>
        <path id="Trazado_666" data-name="Trazado 666" d="M1357.4,261.981a38.312,38.312,0,0,1-.962,7.943c-2.229,9.828-5.735,20.089-2.054,30.072,2.782,7.551,7.246,15.221,11.359,22.471a18.29,18.29,0,0,0,3.991-.231l5.865-1.08S1365.787,285.129,1357.4,261.981Z" transform="translate(-1314.929 -182.768)" fill="#b8b9cd"/>
        <path id="Trazado_667" data-name="Trazado 667" d="M1394.554,320.638a35.381,35.381,0,0,0,2.786-14.495c-.338-10.044-.393-20.089-.233-30.137.071-4.343.184-8.551.437-12.67-8.158,23.144-17.24,56.5-17.24,56.5l5.865,1.08A23.933,23.933,0,0,0,1394.554,320.638Z" transform="translate(-1288.096 -181.447)" fill="#b8b9cd"/>
        <g id="Grupo_263" data-name="Grupo 263" transform="translate(25.23 88.722)">
          <rect id="Rectángulo_160" data-name="Rectángulo 160" width="72.538" height="4.3" transform="translate(14.965 50.289)" fill="#fc7171"/>
          <path id="Trazado_668" data-name="Trazado 668" d="M1444.558,266.8h-93.872s-5.067,0-4.2,5.652,12.7,45.192,15.087,45.192h72.095c2.1,0,14.218-39.539,15.087-45.192S1444.558,266.8,1444.558,266.8Z" transform="translate(-1346.387 -266.796)" fill="#fc7171"/>
          <path id="Trazado_669" data-name="Trazado 669" d="M1378.134,282.573a3.884,3.884,0,1,1-3.884-3.884A3.884,3.884,0,0,1,1378.134,282.573Z" transform="translate(-1323.015 -255.203)" fill="#fff"/>
        </g>
      </g>
      <g id="Grupo_266" data-name="Grupo 266" transform="translate(1197.266 95.928)">
        <g id="Grupo_265" data-name="Grupo 265">
          <path id="Rectángulo_161" data-name="Rectángulo 161" d="M3.83,0H162.545a3.829,3.829,0,0,1,3.829,3.829V108.718a3.829,3.829,0,0,1-3.829,3.829H3.83A3.83,3.83,0,0,1,0,108.717V3.83A3.83,3.83,0,0,1,3.83,0Z" fill="#e5e6ed"/>
          <rect id="Rectángulo_162" data-name="Rectángulo 162" width="151.248" height="94.617" transform="translate(7.562 8.965)" fill="#00e9d3"/>
        </g>
      </g>
      <text id="UX_UI" data-name="UX/UI" transform="translate(1222.696 164.206)" fill="#4e01d4" font-size="38" font-family="FivoSans-Bold, Fivo Sans" font-weight="700"><tspan x="0" y="0">UX/UI</tspan></text>
    </g>
    <g id="AVION_TUERCAS" data-name="AVION+TUERCAS" transform="translate(1134.6 262.901)">
      <path id="Trazado_353" data-name="Trazado 353" d="M4233.352,6479.615a17.993,17.993,0,0,0,1.542-2.26l4.781,1.01,2.381-11.275-4.781-1.01a18.8,18.8,0,0,0-.494-2.691l4.088-2.66-6.291-9.656-4.089,2.66a17.968,17.968,0,0,0-2.26-1.543l1.009-4.78-11.274-2.381-1.01,4.78a18.756,18.756,0,0,0-2.691.5l-2.668-4.089-9.655,6.292,2.666,4.089a17.787,17.787,0,0,0-1.542,2.26l-4.781-1.009-2.381,11.275,4.781,1.009a18.575,18.575,0,0,0,.5,2.692l-4.089,2.666,6.291,9.656,4.089-2.66a17.837,17.837,0,0,0,2.261,1.543l-1.01,4.781,11.275,2.38,1.009-4.78a18.955,18.955,0,0,0,2.692-.5l2.66,4.088,9.656-6.291Zm-8.038-1.783a11.612,11.612,0,1,1,3.391-16.068A11.617,11.617,0,0,1,4225.313,6477.832Zm-38.561-34.8a11.978,11.978,0,0,0,.971-1.422l3.009.636,1.5-7.093-3.009-.635a11.952,11.952,0,0,0-.312-1.694l2.571-1.677-3.955-6.075-2.571,1.676a11.324,11.324,0,0,0-1.422-.972l.635-3.009-7.091-1.5-.635,3.009a12.1,12.1,0,0,0-1.7.311l-1.676-2.57L4167,6425.97l1.676,2.57a11.471,11.471,0,0,0-.971,1.423l-3.01-.635-1.5,7.092,3.009.634a12.145,12.145,0,0,0,.312,1.7l-2.571,1.676,3.955,6.069,2.571-1.677a11.362,11.362,0,0,0,1.422.972l-.635,3.01,7.092,1.5.634-3.008a12.119,12.119,0,0,0,1.7-.312l1.676,2.571,6.069-3.956Zm-5.055-1.123a7.3,7.3,0,1,1,2.133-10.1A7.3,7.3,0,0,1,4181.7,6441.905Z" transform="translate(-4163.192 -6378.165)" fill="#4e01d4" style="isolation: isolate"/>
      <g id="Grupo_149" data-name="Grupo 149" transform="translate(4.952)">
        <path id="Trazado_354" data-name="Trazado 354" d="M4236.2,6303.531c-1.276-.241-42.74-1.663-42.74-1.663l-1.879,6.114Z" transform="translate(-4186.282 -6301.868)" fill="#e9b4de"/>
        <path id="Trazado_355" data-name="Trazado 355" d="M4191.577,6310.927l5.562,17.065,39.057-21.516Z" transform="translate(-4186.282 -6304.813)" fill="#b95e89"/>
        <path id="Trazado_356" data-name="Trazado 356" d="M4192.486,6327.992l39.057-21.516-47.247,11.51Z" transform="translate(-4181.629 -6304.813)" fill="#cd99c2"/>
        <path id="Trazado_357" data-name="Trazado 357" d="M4179.577,6317.986l47.246-11.51-49.913,22.15Z" transform="translate(-4176.91 -6304.813)" fill="#e9b4de"/>
      </g>
      <path id="Trazado_358" data-name="Trazado 358" d="M4227,6659.774a5.238,5.238,0,1,0,5.238-5.237A5.238,5.238,0,0,0,4227,6659.774Z" transform="translate(-4203.964 -6527.227)" fill="#b95e89"/>
    </g>
  </g>
</svg>
