<svg xmlns="http://www.w3.org/2000/svg" width="89.118" height="67.488" viewBox="0 0 89.118 67.488">
  <g id="Grupo_156" data-name="Grupo 156" transform="translate(415.338 -1081.31)">
    <g id="Grupo_155" data-name="Grupo 155" transform="translate(-415.338 1081.31)">
      <path id="Trazado_400" data-name="Trazado 400" d="M-331.448,1081.31c.408.13.824.239,1.223.394a6.225,6.225,0,0,1,3.989,5.887q.029,14.648,0,29.3a6.182,6.182,0,0,1-6.347,6.131c-2.291.036-4.583.007-6.872.009h-1.049c.213,1.556.416,3.032.614,4.51.1.775.222,1.549.286,2.328a2.553,2.553,0,0,1-1.461,2.711,2.633,2.633,0,0,1-3.119-.536q-4.3-4.191-8.548-8.423a1.811,1.811,0,0,0-1.438-.6c-1.821.036-3.644.014-5.578.014v1.008c0,2.753.01,5.505,0,8.26-.017,4.09-2.539,6.612-6.624,6.615q-10.483.01-20.963-.01a1.858,1.858,0,0,0-1.445.595c-2.794,2.78-5.615,5.535-8.419,8.3a2.7,2.7,0,0,1-2.739.9,2.611,2.611,0,0,1-2.036-3.007c.238-2.012.543-4.016.817-6.024.031-.222.045-.448.076-.76-2.347,0-4.631.005-6.917,0a13.7,13.7,0,0,1-2.17-.08,5.981,5.981,0,0,1-4.784-3.948c-.141-.343-.257-.694-.383-1.042v-9.392c.449-.581.964-1.028,1.764-.72s.855,1,.852,1.726c-.012,2.319-.009,4.636,0,6.955a3.554,3.554,0,0,0,3.875,3.894c2.959,0,5.916-.005,8.876.005,1.348,0,1.835.566,1.669,1.9-.121.977-.279,1.95-.414,2.924-.224,1.622-.444,3.245-.7,5.1.388-.349.6-.526.8-.72,2.836-2.781,5.686-5.547,8.492-8.357a2.786,2.786,0,0,1,2.156-.871c7.193.024,14.384.014,21.577.014,2.626,0,4.029-1.388,4.031-4.012q.008-14.172,0-28.346c0-2.69-1.388-4.052-4.076-4.052-14.037,0-28.073.036-42.109-.035a3.922,3.922,0,0,0-4.22,4.23c.134,4.808.042,9.621.036,14.433,0,1.148-.7,1.826-1.646,1.544a3.8,3.8,0,0,1-.963-.664v-17.045c1.266-4.163,4.05-5.155,7.519-5.11,8.286.111,16.573.036,24.861.036h1.138v-1.015c0-2.9.014-5.792,0-8.688a5.709,5.709,0,0,1,2.215-4.786,16.057,16.057,0,0,1,3.082-1.485h3.308c.6.428,1.075.931.779,1.74s-.973.869-1.712.881a10.608,10.608,0,0,0-2.581.2,2.979,2.979,0,0,0-2.4,2.777c-.111,3.412-.036,6.83-.036,10.378h.959q5.916,0,11.835,0c4.081.007,6.612,2.525,6.626,6.626.019,5.131,0,10.261,0,15.392v1.114c1.988,0,3.868.069,5.74-.024a3.581,3.581,0,0,1,2.968,1.228c2.659,2.711,5.4,5.341,8.112,8,.182.179.375.347.772.713-.191-1.438-.345-2.642-.512-3.844-.194-1.407-.413-2.808-.593-4.215-.173-1.355.288-1.854,1.688-1.857,2.93-.005,5.859,0,8.789,0a3.636,3.636,0,0,0,3.946-3.955q.005-14.263,0-28.524c0-2.6-1.434-4.019-4.047-4.019h-33.587c-.2,0-.408-.009-.609,0-.744.042-1.419-.08-1.707-.879s.184-1.31.791-1.731Z" transform="translate(415.338 -1081.31)" fill="#fff"/>
      <path id="Trazado_401" data-name="Trazado 401" d="M-369.969,1091.539a3.121,3.121,0,0,1,3.138,3.056,3.132,3.132,0,0,1-3.087,3.2,3.173,3.173,0,0,1-3.159-3.15A3.158,3.158,0,0,1-369.969,1091.539Z" transform="translate(446.379 -1073.797)" fill="#fff"/>
      <path id="Trazado_402" data-name="Trazado 402" d="M-378.117,1091.539a3.149,3.149,0,0,1,3.094,3.2,3.157,3.157,0,0,1-3.15,3.06,3.16,3.16,0,0,1-3.094-3.2A3.145,3.145,0,0,1-378.117,1091.539Z" transform="translate(440.363 -1073.797)" fill="#fff"/>
      <path id="Trazado_403" data-name="Trazado 403" d="M-390.147,1123.482q-8.742,0-17.484,0a3.871,3.871,0,0,1-4.192-4.159q-.01-10.649,0-21.3a3.856,3.856,0,0,1,4.01-3.991q17.7-.008,35.4,0a3.8,3.8,0,0,1,3.946,3.686c.078,1.124.043,2.259.043,3.388q.005,9.041,0,18.082a3.916,3.916,0,0,1-2.95,4.17,5.44,5.44,0,0,1-1.291.121Q-381.406,1123.489-390.147,1123.482Zm.064-26.844q-8.612,0-17.222,0c-1.594,0-1.91.326-1.91,1.944v20.427c0,1.5.352,1.859,1.826,1.859q17.265,0,34.531,0c1.479,0,1.826-.354,1.828-1.861q0-10.256,0-20.514c0-1.5-.347-1.856-1.83-1.856Q-381.473,1096.635-390.083,1096.639Z" transform="translate(417.917 -1071.969)" fill="#fff"/>
      <path id="Trazado_404" data-name="Trazado 404" d="M-393.885,1111.882c-2.583,1.2-4.98.794-6.61-1.093a5.2,5.2,0,0,1-.441-6.142c1.4-2.208,3.625-2.82,6.935-1.845,0-.938-.01-1.846,0-2.755.016-1.011.51-1.6,1.313-1.6.819,0,1.292.574,1.294,1.594,0,3.62-.009,7.24.009,10.858,0,.689-.1,1.294-.791,1.584A1.376,1.376,0,0,1-393.885,1111.882Zm-2.689-7.006a2.522,2.522,0,0,0-2.548,2.515,2.555,2.555,0,0,0,2.579,2.583,2.542,2.542,0,0,0,2.539-2.527A2.52,2.52,0,0,0-396.573,1104.876Z" transform="translate(425.33 -1068.726)" fill="#fff"/>
      <path id="Trazado_405" data-name="Trazado 405" d="M-401.546,1110.115c-2.652.862-4.744.318-6.06-1.525a4.733,4.733,0,0,1,.071-5.661c1.32-1.771,3.4-2.293,5.887-1.452a.993.993,0,0,0,.232-.2,1.249,1.249,0,0,1,1.545-.64,1.381,1.381,0,0,1,.93,1.5c-.01,2.371-.017,4.742,0,7.113.007.749-.111,1.431-.89,1.7A1.337,1.337,0,0,1-401.546,1110.115Zm-2.192-2.161a2.175,2.175,0,0,0,2.177-2.141,2.161,2.161,0,0,0-2.159-2.145,2.167,2.167,0,0,0-2.179,2.13A2.174,2.174,0,0,0-403.739,1107.954Z" transform="translate(420.352 -1067.168)" fill="#fff"/>
      <path id="Trazado_406" data-name="Trazado 406" d="M-391.683,1103.659c.938.387,1.65.676,2.357.975a3.262,3.262,0,0,1,2.385,2.806,3.384,3.384,0,0,1-3.7,3.479,4.881,4.881,0,0,1-3.242-1.291,1.371,1.371,0,0,1-.3-1.991c.526-.614,1.219-.626,1.986,0a2.142,2.142,0,0,0,2.071.576c.217-.068.506-.293.527-.473s-.232-.458-.432-.552c-.678-.323-1.389-.574-2.081-.867a2.8,2.8,0,0,1-1.951-2.942,3.082,3.082,0,0,1,2.425-2.642,4.631,4.631,0,0,1,3.8.806,1.293,1.293,0,0,1,.47,1.874,1.289,1.289,0,0,1-1.908.293A1.955,1.955,0,0,0-391.683,1103.659Z" transform="translate(430.649 -1067.125)" fill="#fff"/>
    </g>
  </g>
</svg>
