<svg xmlns="http://www.w3.org/2000/svg" width="86.619" height="83.573" viewBox="0 0 86.619 83.573">
  <g id="Grupo_110" data-name="Grupo 110" transform="translate(626.175 -663.6)" style="isolation: isolate">
    <path id="Trazado_283" data-name="Trazado 283" d="M-593.19,747.173c-13.207-.717-24.017-6.883-29.808-19.668-5.591-12.347-3.815-24.3,5.417-34.422,7.587-8.314,16.095-15.837,24.165-23.741,1.744-1.71,3.234-1.507,4.88.136,3.058,3.048,6.1,6.122,9.335,8.989,2.359,2.1,2.418,3.7.063,5.906-7.112,6.672-14.035,13.533-21.064,20.287-3,2.889-4.98,6.214-4.711,10.421a11.742,11.742,0,0,0,7.638,10.668c4.645,1.976,9.227,1.487,12.938-1.765,5.5-4.821,10.643-10.025,15.926-15.076,2.644-2.528,5.283-5.055,7.881-7.625,1.52-1.507,3-1.793,4.639-.2,3.494,3.4,7.012,6.769,10.507,10.164,1.475,1.431,1.38,2.832-.089,4.249-7.974,7.686-15.811,15.509-23.934,23.044C-575.678,744.363-583.459,746.955-593.19,747.173Zm-8.422-63.418c-4.772,4.866-9.789,9.275-13.921,14.358-7.273,8.945-7.51,21.541-1.257,31.221a29.439,29.439,0,0,0,29.571,12.741c11.793-1.9,18.193-10.708,25.765-17.771l-7.953-8.058c-3.372,3.373-6.55,6.755-9.952,9.913-7.752,7.195-18.5,7.2-25.6.132-6.964-6.923-6.567-17.193.981-24.483,3.475-3.356,7.008-6.656,10.267-9.746ZM-558.241,720l7.51-6.688-7.438-7.231-7.262,6.993ZM-597.4,680l7.582,7.908,6.141-5.908-7.364-7.706Z" transform="translate(0 0)" fill="#fff"/>
    <path id="Trazado_284" data-name="Trazado 284" d="M-604.574,665.259c.047-.69-.2-1.647.853-1.659s.887.933.868,1.627.271,1.71-.888,1.685C-604.808,666.889-604.515,665.925-604.574,665.259Z" transform="translate(18.039)" fill="#fff"/>
    <path id="Trazado_285" data-name="Trazado 285" d="M-597.563,670.422c.612.025,1.546-.17,1.531.882-.015.955-.894.833-1.571.842-.228,0-.455,0-.682,0-.586,0-1.06-.2-1.081-.852-.021-.673.45-.871,1.04-.872Z" transform="translate(23.187)" fill="#fff"/>
    <path id="Trazado_286" data-name="Trazado 286" d="M-600.636,667.019c.521-.455,1.026-1.3,1.775-.57s-.032,1.287-.536,1.764-1.017,1.4-1.819.564C-601.954,668.006-601.066,667.532-600.636,667.019Z" transform="translate(21.159)" fill="#fff"/>
    <path id="Trazado_287" data-name="Trazado 287" d="M-586.723,683.095c.047-.69-.2-1.646.853-1.658s.887.933.868,1.626.271,1.71-.888,1.685C-586.957,684.725-586.664,683.762-586.723,683.095Z" transform="translate(38.625 14.443)" fill="#fff"/>
    <path id="Trazado_288" data-name="Trazado 288" d="M-579.713,688.258c.613.026,1.547-.17,1.531.883-.014.955-.893.833-1.57.841-.228,0-.455,0-.682,0-.586,0-1.061-.2-1.081-.852-.021-.672.449-.871,1.04-.872Z" transform="translate(38.625 19.277)" fill="#fff"/>
    <path id="Trazado_289" data-name="Trazado 289" d="M-582.785,684.855c.521-.454,1.026-1.3,1.775-.57s-.032,1.287-.536,1.764-1.017,1.4-1.819.564C-584.1,685.843-583.215,685.368-582.785,684.855Z" transform="translate(38.625 16.384)" fill="#fff"/>
  </g>
</svg>
