<svg xmlns="http://www.w3.org/2000/svg" width="75.539" height="75.557" viewBox="0 0 75.539 75.557">
  <g id="Grupo_158" data-name="Grupo 158" transform="translate(182.414 -1077.206)">
    <path id="Trazado_413" data-name="Trazado 413" d="M-106.875,1132.419v1.574a2.4,2.4,0,0,0-.144.435A11.28,11.28,0,0,1-118,1144.05q-26.675.046-53.354,0a11.289,11.289,0,0,1-11.052-10.842c-.042-1.308.37-1.727,1.712-1.732,1.091,0,2.181,0,3.311,0v-37.166c0-2.246.888-3.127,3.15-3.127q29.589,0,59.177-.026a2.88,2.88,0,0,1,3.173,3.165c-.047,12.066-.024,24.132-.024,36.2v.956c1.206,0,2.3.023,3.4-.008A1.544,1.544,0,0,1-106.875,1132.419Zm-65.475-.984v-4.763q0-14.4,0-28.8c0-1.242.406-1.647,1.644-1.654.919-.007,1.837,0,2.754,0h3.092v2.551h-4.917v32.64h10.02c0-1.3-.007-2.528,0-3.76a6.287,6.287,0,0,1,5.961-6.237c2.824-.146,4.283-1.772,4.1-4.6a1.114,1.114,0,0,0-.386-.688,12.111,12.111,0,0,1-4.611-9.513c-.029-2.623-.4-5.3.844-7.9h-8.364v-2.491c3.2,0,6.349,0,9.494-.01a1.415,1.415,0,0,0,.871-.209,9.667,9.667,0,0,1,4.65-2.241h-27.628v37.677Zm37.023-32.677a13.287,13.287,0,0,1,.576,2.274c.123,1.7.159,3.4.167,5.1a12.008,12.008,0,0,1-4.2,9.531,2.344,2.344,0,0,0-.828,2.172,3.8,3.8,0,0,0,3.63,3.565,6.315,6.315,0,0,1,6.443,6.651c0,1.118,0,2.238,0,3.371h10.016v-32.664Zm25.827,35.27H-179.79c.055.3.088.557.151.806a8.747,8.747,0,0,0,8.7,6.708q26.281.015,52.562.007a8.775,8.775,0,0,0,4.442-1.131A8.718,8.718,0,0,0-109.5,1134.029Zm-22.56-2.59c0-1.3.023-2.5,0-3.71a3.86,3.86,0,0,0-3.786-3.84,21.39,21.39,0,0,1-2.8-.673,2.018,2.018,0,0,0-1.082-.021c-1.366.529-2.717,1.105-4.049,1.715a1.9,1.9,0,0,1-1.858-.047c-1.2-.651-2.418-1.256-3.648-1.84a1.068,1.068,0,0,0-.841-.044,7.43,7.43,0,0,1-3.528.949,3.574,3.574,0,0,0-3.478,2.981,36.95,36.95,0,0,0-.039,4.53Zm17.578,0v-37.7h-27.474a10.522,10.522,0,0,1,4.207,2.011,2.145,2.145,0,0,0,1.246.458c5.875.029,11.748.02,17.621.02,1.6,0,1.934.329,1.934,1.926v33.29Zm-37.557-23.847a3.972,3.972,0,0,0,0,.568,9.743,9.743,0,0,0,5.876,7.438,3.739,3.739,0,0,0,3.265-.1,9.894,9.894,0,0,0,4.319-3.882,8.954,8.954,0,0,0,1.357-4.1,7.741,7.741,0,0,1-4.917-3.457,2.837,2.837,0,0,1-.18.385,7.352,7.352,0,0,1-5.8,3.137C-149.418,1107.637-150.722,1107.588-152.04,1107.588Zm14.926-2.65c0-1.022.054-1.917-.011-2.8a5.956,5.956,0,0,0-2.366-4.526c-2.655-1.985-5.623-1.608-8.583-.97a4.341,4.341,0,0,0-1.519.792c-2.7,1.939-2.83,4.734-2.533,7.686,1.162,0,2.287.024,3.41,0a5.049,5.049,0,0,0,5.328-5.029,1.316,1.316,0,0,1,1.212-1.31,1.255,1.255,0,0,1,1.3,1.123c.114.511.19,1.034.339,1.533A4.993,4.993,0,0,0-137.114,1104.938Zm-10.891,15.895c1.06.532,2.1,1.063,3.15,1.571a.7.7,0,0,0,.511.015c1.056-.435,2.1-.894,3.1-1.323l-.959-3.009a17.214,17.214,0,0,1-2.425.318,18.923,18.923,0,0,1-2.54-.326c-.088.4-.162.865-.3,1.31C-147.608,1119.857-147.808,1120.309-148.006,1120.833Z" transform="translate(0 8.689)" fill="#fff"/>
    <path id="Trazado_414" data-name="Trazado 414" d="M-111.7,1089.483a17.73,17.73,0,0,1-1.607,3.173,5.98,5.98,0,0,1-5,2.183q-18.211-.017-36.424-.005h-1.039c0,.716-.015,1.388,0,2.058.019.7-.089,1.335-.813,1.634-.7.289-1.19-.1-1.654-.574-.878-.9-1.753-1.811-2.678-2.66a1.792,1.792,0,0,0-1.079-.438c-2.071-.041-4.143-.01-6.216-.023a6.275,6.275,0,0,1-6.449-6.466c-.01-1.6,0-3.2,0-4.8a6.285,6.285,0,0,1,4.912-6.211c.149-.036.292-.1.438-.149h52.254a20.068,20.068,0,0,1,2.738,1.24,6.4,6.4,0,0,1,2.614,4.268Zm-46.626,4.752c.1-1.637.4-1.92,1.949-1.92q19.112,0,38.227,0a3.782,3.782,0,0,0,3.927-3.9q.019-2.32,0-4.642a3.8,3.8,0,0,0-4.108-4.042h-40.115c-3.3,0-6.608-.008-9.911,0a3.75,3.75,0,0,0-3.785,3.8c-.007,1.678-.018,3.356,0,5.033a3.749,3.749,0,0,0,3.824,3.759c1.915.008,3.837.105,5.74-.029a3.946,3.946,0,0,1,3.885,1.623A2.754,2.754,0,0,0-158.328,1094.235Z" transform="translate(4.828)" fill="#fff"/>
    <path id="Trazado_415" data-name="Trazado 415" d="M-170.76,1121.552v-2.425h37.674v2.425Z" transform="translate(7.259 26.112)" fill="#fff"/>
    <path id="Trazado_416" data-name="Trazado 416" d="M-166.117,1085.859v-2.408h28.886v2.408Z" transform="translate(10.151 3.89)" fill="#fff"/>
    <path id="Trazado_417" data-name="Trazado 417" d="M-131.5,1080.343v2.423h-27.6v-2.423Z" transform="translate(14.519 1.954)" fill="#fff"/>
    <path id="Trazado_418" data-name="Trazado 418" d="M-156.7,1080.342v2.426h-12.491v-2.426Z" transform="translate(8.236 1.953)" fill="#fff"/>
    <path id="Trazado_419" data-name="Trazado 419" d="M-146.708,1085.861v-2.423h7.456v2.423Z" transform="translate(22.241 3.882)" fill="#fff"/>
    <path id="Trazado_420" data-name="Trazado 420" d="M-166.786,1085.873H-169.2v-2.421h2.418Z" transform="translate(8.228 3.891)" fill="#fff"/>
  </g>
</svg>
