<svg xmlns="http://www.w3.org/2000/svg" width="69.948" height="69.908" viewBox="0 0 69.948 69.908">
  <g id="Grupo_154" data-name="Grupo 154" transform="translate(519.494 -906.38)">
    <path id="Trazado_391" data-name="Trazado 391" d="M-505.24,974.2a15.44,15.44,0,0,1-2.783-1.144,5.365,5.365,0,0,1-2.439-4.563c-.053-1.94-.013-3.881-.013-5.941h.848q14.159,0,28.318.015c.621,0,.981-.125,1.179-.748.158-.5.719-1.03.614-1.411-.142-.516-.739-.914-1.164-1.34-1.815-1.823-3.656-3.618-5.453-5.46a5.334,5.334,0,0,1-.1-7.634,5.368,5.368,0,0,1,7.6.169c1,.975,1.989,1.973,3.055,3.031v-4.6c-.173.111-.292.18-.4.261a1.107,1.107,0,0,1-1.413.007,1.152,1.152,0,0,1-.418-1.3q.381-1.888.761-3.776c.027-.142.04-.285.071-.512h-.806q-3.893,0-7.79,0a5.884,5.884,0,0,1-6.257-6.23q-.011-6.588,0-13.177a5.856,5.856,0,0,1,6.194-6.217c3.2-.007,6.406,0,9.61-.007a.772.772,0,0,0,.142-.024A3.125,3.125,0,0,0-479,911.3c-2.888-.02-5.776-.007-8.664-.007h-4.125v-2.33h.768c3.762,0,7.525.087,11.283-.025a6.044,6.044,0,0,1,6.355,4.455,1.2,1.2,0,0,0,.111.229c3.384,0,6.78-.045,10.173.029a7.984,7.984,0,0,1,2.944.628,5.4,5.4,0,0,1,3.135,4.109,2.173,2.173,0,0,0,.122.331v15.435a2.879,2.879,0,0,0-.118.34,5.582,5.582,0,0,1-5.011,4.642c-1.8.182-3.631.087-5.449.115-.249,0-.5,0-.921,0,.964,1.251,1.769,2.368,2.652,3.422a12.913,12.913,0,0,1,3.031,8.651q-.041,10.587,0,21.175a1.845,1.845,0,0,1-.739,1.7Zm36.292-18.361-1.785,1.789a3.18,3.18,0,0,0-.405-.652q-4.645-4.67-9.318-9.316A2.928,2.928,0,0,0-485.368,949a2.945,2.945,0,0,0,.914,2.973q3.436,3.411,6.847,6.844c1.137,1.137,1.142,1.333.3,2.661a9.006,9.006,0,0,0-.3,9.9.917.917,0,0,0,.932.5c3.665-.018,7.329-.011,10.992-.011h.6c.011-.211.025-.35.025-.492q0-10.3-.007-20.6a8.793,8.793,0,0,0-1.333-4.921c-1.173-1.769-2.508-3.431-3.791-5.162-.886.632-1.686,1.226-2.51,1.778a1.059,1.059,0,0,0-.525,1.01q.041,3.64,0,7.28a1.711,1.711,0,0,0,.565,1.395C-471.391,953.359-470.178,954.611-468.948,955.839Zm9.721-24.6c0-3.925.005-7.685,0-11.445a3.509,3.509,0,0,0-3.858-3.836q-11.282-.005-22.568,0a3.507,3.507,0,0,0-3.858,3.834q-.008,5.277,0,10.555c0,.205.02.409.036.7.336-.245.589-.423.836-.608q3.111-2.34,6.224-4.679c.921-.688,1.2-.688,2.123.007,2.581,1.936,5.167,3.863,7.725,5.83a.828.828,0,0,0,1.181.013c1.693-1.175,3.416-2.3,5.129-3.451,1.206-.806,1.206-.806,2.445.02C-462.328,929.175-460.838,930.165-459.227,931.239Zm-22.028,33.694h-26.9v2.879c0,2.715,1.348,4.058,4.072,4.058q11.6,0,23.205,0h.743a29.775,29.775,0,0,1-.939-3.375A31.4,31.4,0,0,1-481.256,964.933Zm6.284-23.688c1.914-1.364,3.673-2.648,5.471-3.876a2.618,2.618,0,0,1,1.328-.425c1.769-.047,3.542-.005,5.311-.025a3.548,3.548,0,0,0,3.4-2.274.675.675,0,0,0-.3-.961q-2.414-1.555-4.773-3.193a.8.8,0,0,0-1.083.025c-1.778,1.222-3.574,2.416-5.365,3.616-.984.659-1.206.659-2.132-.033-1.108-.827-2.209-1.662-3.313-2.492l-4.94-3.707c-2.625,1.969-5.211,3.891-7.765,5.854a1,1,0,0,0-.142.872,3.407,3.407,0,0,0,3.288,2.294c3.371.011,6.742,0,10.113.007,1.157,0,1.62.585,1.4,1.72C-474.626,939.454-474.78,940.258-474.971,941.245Z" transform="translate(7.351 2.088)" fill="#fff"/>
    <path id="Trazado_392" data-name="Trazado 392" d="M-500.547,932.023c.281,1.44.523,2.774.81,4.1.133.618.14,1.157-.452,1.54s-1.09.124-1.593-.238c-2.323-1.671-4.644-3.34-6.993-4.973a2.516,2.516,0,0,0-1.251-.409c-1.428-.074-2.872.044-4.285-.125a5.587,5.587,0,0,1-5.108-5.58c-.078-4.753-.093-9.51,0-14.262a5.677,5.677,0,0,1,5.827-5.663q10.443-.063,20.886,0a5.748,5.748,0,0,1,5.858,5.872q.076,6.95,0,13.9a5.8,5.8,0,0,1-5.977,5.836c-2.279.029-4.561.005-6.84.005Zm-2.089,1.925a.764.764,0,0,0,.045-.162q-.215-1.141-.434-2.281c-.249-1.284.183-1.809,1.508-1.811,2.91,0,5.821.016,8.731-.007a3.463,3.463,0,0,0,3.618-3.629q.027-6.841,0-13.68a3.448,3.448,0,0,0-3.673-3.647q-10.3-.019-20.592,0a3.461,3.461,0,0,0-3.683,3.709q-.016,6.768,0,13.535a3.493,3.493,0,0,0,3.754,3.716c1.333.011,2.67-.036,4,.024a2.828,2.828,0,0,1,1.393.452C-506.188,931.382-504.448,932.655-502.636,933.948Z" transform="translate(0.01)" fill="#fff"/>
    <path id="Trazado_393" data-name="Trazado 393" d="M-495.759,928.823a17.586,17.586,0,0,1,3.159.745,5.541,5.541,0,0,1,3.431,5.294c.065,2.3.051,4.612.007,6.915a5.783,5.783,0,0,1-5.887,5.854q-9.244.076-18.49,0a5.672,5.672,0,0,1-5.843-5.414,67.868,67.868,0,0,1-.005-7.712,5.7,5.7,0,0,1,5.919-5.491c2.692-.027,5.387.013,8.079-.024a3.13,3.13,0,0,0,1.428-.372c2.33-1.293,4.637-2.63,6.947-3.963.51-.294,1-.5,1.54-.067a1.265,1.265,0,0,1,.394,1.5C-495.343,927.016-495.548,927.964-495.759,928.823Zm-2.205-.921c-1.889,1.079-3.62,2.094-5.382,3.057a3.046,3.046,0,0,1-1.366.363c-2.912.033-5.823,0-8.735.022a3.458,3.458,0,0,0-3.658,3.662q-.027,3.313,0,6.624a3.494,3.494,0,0,0,3.714,3.685c1.213.011,2.427,0,3.64,0,4.851,0,9.7.009,14.558,0a3.47,3.47,0,0,0,3.7-3.473q.06-3.493,0-6.987a3.438,3.438,0,0,0-3.515-3.509c-.7-.022-1.408,0-2.11-.006a1.188,1.188,0,0,1-1.273-1.616C-498.27,929.164-498.131,928.61-497.964,927.9Z" transform="translate(0 14.663)" fill="#fff"/>
    <path id="Trazado_394" data-name="Trazado 394" d="M-487.258,914.087a4.711,4.711,0,0,1,4.684,4.586,4.677,4.677,0,0,1-4.617,4.722,4.735,4.735,0,0,1-4.693-4.666A4.716,4.716,0,0,1-487.258,914.087Zm0,2.328a2.359,2.359,0,0,0-2.3,2.338,2.348,2.348,0,0,0,2.316,2.316A2.352,2.352,0,0,0-484.9,918.7,2.363,2.363,0,0,0-487.258,916.416Z" transform="translate(22.538 6.291)" fill="#fff"/>
    <path id="Trazado_395" data-name="Trazado 395" d="M-498.606,943.314h-2.227v-2.265h2.227Z" transform="translate(15.233 28.301)" fill="#fff"/>
    <path id="Trazado_396" data-name="Trazado 396" d="M-502.728,916.332c.866-.431,1.731-.866,2.6-1.288,1.191-.576,1.971-.1,1.976,1.2q.011,3.2,0,6.4c0,1.266-.783,1.755-1.923,1.21-.874-.418-1.734-.859-2.536-1.257-.253.445-.392,1-.745,1.233a2.858,2.858,0,0,1-1.457.254c-2.692.022-5.384.013-8.075.009-1.173,0-1.568-.4-1.569-1.575,0-2.038.007-4.076-.011-6.112a1.477,1.477,0,0,0-.224-.8,4.071,4.071,0,0,1,.342-5.54,4.055,4.055,0,0,1,5.494-.085c.056.044.116.085.145.107a13.739,13.739,0,0,1,1.733-.9,3.969,3.969,0,0,1,4.575,1.469,4.045,4.045,0,0,1-.078,4.817,5.281,5.281,0,0,0-.4.759Zm-9.385,5.389h6.924v-4.557h-6.924Zm2.314-8.7a1.771,1.771,0,0,0-1.771-1.736,1.776,1.776,0,0,0-1.72,1.716,1.771,1.771,0,0,0,1.736,1.773A1.766,1.766,0,0,0-509.8,913.021Zm5.825-.027a1.774,1.774,0,0,0-1.8-1.709,1.776,1.776,0,0,0-1.691,1.745,1.768,1.768,0,0,0,1.764,1.744A1.769,1.769,0,0,0-503.974,912.994Zm3.467,4.864c-.743.369-1.395.672-2.029,1.013a.689.689,0,0,0-.076,1.084c.663.376,1.359.69,2.105,1.061Z" transform="translate(3.171 2.103)" fill="#fff"/>
    <path id="Trazado_397" data-name="Trazado 397" d="M-495.99,932.711v2.243h-20.875v-2.243Z" transform="translate(2.146 21.495)" fill="#fff"/>
    <path id="Trazado_398" data-name="Trazado 398" d="M-504.145,930.146v2.241h-12.721v-2.241Z" transform="translate(2.145 19.401)" fill="#fff"/>
    <path id="Trazado_399" data-name="Trazado 399" d="M-502.8,932.389h-5.739v-2.241h5.739Z" transform="translate(8.941 19.402)" fill="#fff"/>
  </g>
</svg>
