<svg xmlns="http://www.w3.org/2000/svg" width="75.322" height="73.318" viewBox="0 0 75.322 73.318">
  <g id="Grupo_157" data-name="Grupo 157" transform="translate(287.764 -885.77)">
    <path id="Trazado_407" data-name="Trazado 407" d="M-287.764,899.05c.38-.489.814-.87,1.492-.609s.718.844.718,1.459q-.007,14.382,0,28.759c0,.988,0,.99.964.99h53.622a1.4,1.4,0,0,0,.439-.009c.19-.068.447-.159.506-.307a.658.658,0,0,0-.151-.576c-1.442-1.359-2.906-2.7-4.354-4.029-3.8,2.162-7.343,1.658-9.618-1.335a6.726,6.726,0,0,1,.615-8.857,6.846,6.846,0,0,1,9.437-.19c.148-.1.314-.188.465-.3,2.618-1.981,5.229-3.973,7.856-5.943a.664.664,0,0,0,.273-.905,5.259,5.259,0,0,1,1.37-5.868,5.217,5.217,0,0,1,5.722-1.174,5.251,5.251,0,0,1,3.576,4.778A5.155,5.155,0,0,1-217.464,910a5.285,5.285,0,0,1-5.9-.087c-.185-.118-.358-.255-.539-.38a.431.431,0,0,0-.113-.035l-8.711,6.643a6.934,6.934,0,0,1-.342,6.926l3.1,2.829v-3.7c0-1.128-.007-2.256.011-3.384A.977.977,0,0,1-229,917.8a1,1,0,0,1,1.156.792,2.97,2.97,0,0,1,.076.8c.007,2.646-.013,5.295.024,7.943a1.761,1.761,0,0,0,.463,1.054c.6.644,1.28,1.211,1.968,1.841a7.835,7.835,0,0,1,6.711-1.56,7.823,7.823,0,0,1,4.719,3.159,7.816,7.816,0,0,1-1.014,10.194,7.867,7.867,0,0,1-10.29.53,7.955,7.955,0,0,1-1.645-10.692l-1.3-1.248c-.75,1.182-1.9,1.254-3.113,1.252q-26.555-.016-53.107.017a3.253,3.253,0,0,1-3.41-1.937Zm61.775,37.272a5.674,5.674,0,0,0,5.687,5.707,5.732,5.732,0,0,0,5.657-5.611,5.706,5.706,0,0,0-5.676-5.735A5.647,5.647,0,0,0-225.989,936.321Zm-8.187-16.922a4.543,4.543,0,0,0-4.516-4.627,4.576,4.576,0,0,0-4.627,4.446,4.625,4.625,0,0,0,4.559,4.693A4.623,4.623,0,0,0-234.177,919.4Zm10.543-14.173a3.311,3.311,0,0,0,3.3,3.4A3.38,3.38,0,0,0-217,905.383a3.345,3.345,0,0,0-3.323-3.39A3.294,3.294,0,0,0-223.633,905.226Z" transform="translate(0 14.871)" fill="#fff"/>
    <path id="Trazado_408" data-name="Trazado 408" d="M-287.764,887.733a3.113,3.113,0,0,1,3.312-1.957q26.732.049,53.463-.006a2.937,2.937,0,0,1,3.251,3.29c-.044,10.05-.02,20.1-.022,30.151a3.912,3.912,0,0,1-.048.877,1.025,1.025,0,0,1-1.176.873,1,1,0,0,1-.971-1.012c-.02-.244-.011-.491-.011-.735V902.625h-55.59v.668c0,1.595-.009,3.187,0,4.78,0,.622-.046,1.2-.724,1.457s-1.106-.126-1.488-.611Zm57.737,12.594a2.285,2.285,0,0,0,.057-.336c0-3.774,0-7.55.011-11.327,0-.6-.312-.665-.794-.665q-27,.01-53.993-.007c-.663,0-.827.229-.822.855.024,3.606.011,7.21.015,10.814,0,.212.024.425.039.665Z" transform="translate(0 0)" fill="#fff"/>
    <path id="Trazado_409" data-name="Trazado 409" d="M-263.791,904.6c1.961,0,3.87,0,5.781,0a4.037,4.037,0,0,1,4.058,5.474,1.2,1.2,0,0,0,.113.8,3.78,3.78,0,0,1-.467,4.5,1.135,1.135,0,0,0-.279.694,4.051,4.051,0,0,1-1.518,3.5.889.889,0,0,0-.249.615,3.689,3.689,0,0,1-3.9,3.853q-8.861.026-17.723.05c-2.142,0-2.976-.836-2.976-2.982q0-4.817,0-9.636c0-1.9.886-2.775,2.8-2.779.857,0,1.717.052,2.572,0a1.089,1.089,0,0,0,.768-.469c1.165-2.153,2.308-4.317,3.4-6.508a3.257,3.257,0,0,0,.266-1.547c-.055-1.172-.212-2.341-.329-3.51a1.574,1.574,0,0,1,1.08-1.787,4.538,4.538,0,0,1,5.428,1.582,7.438,7.438,0,0,1,1.4,4.915C-263.6,902.424-263.708,903.471-263.791,904.6Zm-14.928,17.287c.356,0,.643,0,.931,0l17.354-.048c1.49,0,2.053-.681,1.754-2.131a1.29,1.29,0,0,1,.67-1.56,2.021,2.021,0,0,0,1.152-2.491,1.467,1.467,0,0,1,.617-1.536,1.535,1.535,0,0,0,.214-2.472,1.522,1.522,0,0,1-.229-1.94,1.829,1.829,0,0,0-1.728-2.9c-2.109,0-4.217,0-6.324,0-1.521,0-1.946-.506-1.8-2.044.133-1.364.266-2.729.314-4.1a4.442,4.442,0,0,0-1.032-3,2.186,2.186,0,0,0-2.391-.811c.085.971.131,1.922.26,2.862a5.142,5.142,0,0,1-.615,3.323c-1.043,1.883-2.011,3.809-3.011,5.716-1.2,2.3-.886,2.177-3.728,2.166-.8,0-1.593,0-2.413,0Z" transform="translate(8.047 10.352)" fill="#fff"/>
    <path id="Trazado_410" data-name="Trazado 410" d="M-279.844,892.906a2.154,2.154,0,0,1-2.173-2.12,2.177,2.177,0,0,1,2.142-2.16,2.153,2.153,0,0,1,2.162,2.129A2.126,2.126,0,0,1-279.844,892.906Z" transform="translate(6.79 3.374)" fill="#fff"/>
    <path id="Trazado_411" data-name="Trazado 411" d="M-276.856,892.911a2.118,2.118,0,0,1-2.151-2.127,2.13,2.13,0,0,1,2.125-2.158,2.161,2.161,0,0,1,2.162,2.131A2.15,2.15,0,0,1-276.856,892.911Z" transform="translate(10.347 3.374)" fill="#fff"/>
    <path id="Trazado_412" data-name="Trazado 412" d="M-282.9,892.906a2.124,2.124,0,0,1-2.1-2.173,2.129,2.129,0,0,1,2.175-2.107,2.143,2.143,0,0,1,2.107,2.182A2.131,2.131,0,0,1-282.9,892.906Z" transform="translate(3.259 3.374)" fill="#fff"/>
  </g>
</svg>
