<svg width="44" height="44" viewBox="0 0 44 44" fill="none" xmlns="http://www.w3.org/2000/svg">
<g clip-path="url(#clip0_122_10263)">
<path fill-rule="evenodd" clip-rule="evenodd" d="M23.8327 23.8333C25.7776 23.8333 27.6429 24.6059 29.0181 25.9812C30.3934 27.3565 31.166 29.2217 31.166 31.1667V34.8333C31.166 35.3196 30.9729 35.7859 30.629 36.1297C30.2852 36.4735 29.8189 36.6667 29.3327 36.6667C28.8465 36.6667 28.3801 36.4735 28.0363 36.1297C27.6925 35.7859 27.4993 35.3196 27.4993 34.8333V31.1667C27.4993 30.1942 27.113 29.2616 26.4254 28.5739C25.7378 27.8863 24.8051 27.5 23.8327 27.5H10.9993C10.0269 27.5 9.09426 27.8863 8.40662 28.5739C7.71899 29.2616 7.33268 30.1942 7.33268 31.1667V34.8333C7.33268 35.3196 7.13953 35.7859 6.79571 36.1297C6.45189 36.4735 5.98558 36.6667 5.49935 36.6667C5.01312 36.6667 4.5468 36.4735 4.20299 36.1297C3.85917 35.7859 3.66602 35.3196 3.66602 34.8333V31.1667C3.66602 29.2217 4.43863 27.3565 5.8139 25.9812C7.18917 24.6059 9.05443 23.8333 10.9993 23.8333H23.8327ZM34.8327 23.8333C36.2914 23.8333 37.6903 24.4128 38.7218 25.4442C39.7532 26.4757 40.3327 27.8746 40.3327 29.3333V33C40.3327 33.4862 40.1395 33.9525 39.7957 34.2964C39.4519 34.6402 38.9856 34.8333 38.4994 34.8333C38.0131 34.8333 37.5468 34.6402 37.203 34.2964C36.8592 33.9525 36.666 33.4862 36.666 33V29.3333C36.666 28.8471 36.4729 28.3808 36.129 28.037C35.7852 27.6932 35.3189 27.5 34.8327 27.5H32.2367C31.6011 26.0483 30.6015 24.7853 29.3345 23.8333H34.8327ZM17.416 5.5C19.6041 5.5 21.7025 6.36919 23.2496 7.91637C24.7968 9.46354 25.666 11.562 25.666 13.75C25.666 15.938 24.7968 18.0365 23.2496 19.5836C21.7025 21.1308 19.6041 22 17.416 22C15.228 22 13.1296 21.1308 11.5824 19.5836C10.0352 18.0365 9.16602 15.938 9.16602 13.75C9.16602 11.562 10.0352 9.46354 11.5824 7.91637C13.1296 6.36919 15.228 5.5 17.416 5.5ZM32.9993 11C34.458 11 35.857 11.5795 36.8884 12.6109C37.9199 13.6424 38.4994 15.0413 38.4994 16.5C38.4994 17.9587 37.9199 19.3576 36.8884 20.3891C35.857 21.4205 34.458 22 32.9993 22C31.5407 22 30.1417 21.4205 29.1103 20.3891C28.0788 19.3576 27.4993 17.9587 27.4993 16.5C27.4993 15.0413 28.0788 13.6424 29.1103 12.6109C30.1417 11.5795 31.5407 11 32.9993 11ZM17.416 9.16667C16.2004 9.16667 15.0347 9.64955 14.1751 10.5091C13.3156 11.3686 12.8327 12.5344 12.8327 13.75C12.8327 14.9656 13.3156 16.1314 14.1751 16.9909C15.0347 17.8504 16.2004 18.3333 17.416 18.3333C18.6316 18.3333 19.7974 17.8504 20.6569 16.9909C21.5165 16.1314 21.9993 14.9656 21.9993 13.75C21.9993 12.5344 21.5165 11.3686 20.6569 10.5091C19.7974 9.64955 18.6316 9.16667 17.416 9.16667ZM32.9993 14.6667C32.5131 14.6667 32.0468 14.8598 31.703 15.2036C31.3592 15.5475 31.166 16.0138 31.166 16.5C31.166 16.9862 31.3592 17.4525 31.703 17.7964C32.0468 18.1402 32.5131 18.3333 32.9993 18.3333C33.4856 18.3333 33.9519 18.1402 34.2957 17.7964C34.6395 17.4525 34.8327 16.9862 34.8327 16.5C34.8327 16.0138 34.6395 15.5475 34.2957 15.2036C33.9519 14.8598 33.4856 14.6667 32.9993 14.6667Z" fill="#100E0F"/>
</g>
<defs>
<clipPath id="clip0_122_10263">
<rect width="44" height="44" fill="white"/>
</clipPath>
</defs>
</svg>
