<svg width="44" height="44" viewBox="0 0 44 44" fill="none" xmlns="http://www.w3.org/2000/svg">
<path fill-rule="evenodd" clip-rule="evenodd" d="M22.0005 3.75C22.967 3.75 23.7505 4.5335 23.7505 5.5V7.90534L33.0005 10.9887L37.9471 9.3398C38.864 9.03417 39.855 9.5297 40.1607 10.4466C40.4663 11.3635 39.9708 12.3546 39.0539 12.6602L35.2142 13.9401L40.1624 28.7798C40.4008 29.4945 40.1549 30.2816 39.5521 30.7335C37.6621 32.1505 35.3636 32.9164 33.0014 32.9164C30.6392 32.9164 28.3407 32.1505 26.4507 30.7335C25.8479 30.2816 25.602 29.4946 25.8403 28.7799L30.7869 13.9401L23.7505 11.5947V36.75H27.5005C28.467 36.75 29.2505 37.5335 29.2505 38.5C29.2505 39.4665 28.467 40.25 27.5005 40.25H16.5005C15.534 40.25 14.7505 39.4665 14.7505 38.5C14.7505 37.5335 15.534 36.75 16.5005 36.75H20.2505V11.5947L13.2141 13.9401L18.1332 28.6975C18.412 29.4115 18.1952 30.2513 17.5521 30.7335C15.6621 32.1505 13.3636 32.9164 11.0014 32.9164C8.63921 32.9164 6.34071 32.1505 4.45072 30.7335C3.84795 30.2816 3.60204 29.4946 3.84028 28.7799L8.78688 13.9401L4.94708 12.6602C4.03018 12.3546 3.53465 11.3635 3.84028 10.4466C4.14591 9.5297 5.13697 9.03417 6.05387 9.3398L11.0005 10.9887L20.2505 7.90534V5.5C20.2505 4.5335 21.034 3.75 22.0005 3.75ZM11.0005 18.3673L7.59368 28.5877C8.6418 29.1295 9.80967 29.4164 11.0014 29.4164C12.1925 29.4164 13.3598 29.1298 14.4075 28.5885L11.0005 18.3673ZM33.0007 18.3665L29.5937 28.5877C30.6418 29.1295 31.8097 29.4164 33.0014 29.4164C34.1931 29.4164 35.3609 29.1296 36.409 28.5878L33.0007 18.3665Z" fill="black"/>
</svg>
