<svg width="44" height="44" viewBox="0 0 44 44" fill="none" xmlns="http://www.w3.org/2000/svg">
<path d="M21.9993 6.89307C22.6868 6.89307 23.3652 6.92973 24.0343 7.0049C24.2737 7.03138 24.5054 7.10474 24.7164 7.22079C24.9273 7.33684 25.1134 7.4933 25.2639 7.68125C25.4144 7.86919 25.5264 8.08494 25.5935 8.31617C25.6606 8.5474 25.6815 8.78959 25.655 9.0289C25.6285 9.26821 25.5552 9.49996 25.4391 9.71093C25.3231 9.92189 25.1666 10.1079 24.9787 10.2584C24.7907 10.4089 24.575 10.5209 24.3437 10.588C24.1125 10.6551 23.8703 10.676 23.631 10.6496C20.6098 10.3116 17.5581 10.9208 14.8983 12.3929C12.2384 13.8651 10.1017 16.1274 8.7837 18.8669C7.46574 21.6065 7.03165 24.6879 7.54148 27.6849C8.05131 30.682 9.47986 33.4465 11.6295 35.5962C13.7792 37.7459 16.5438 39.1744 19.5408 39.6843C22.5379 40.1941 25.6193 39.76 28.3588 38.442C31.0984 37.1241 33.3607 34.9874 34.8328 32.3275C36.305 29.6676 36.9142 26.616 36.5762 23.5947C36.5497 23.3554 36.5706 23.1132 36.6377 22.882C36.7048 22.6508 36.8168 22.435 36.9673 22.2471C37.2713 21.8675 37.7135 21.6242 38.1968 21.5707C38.6802 21.5172 39.1649 21.6579 39.5445 21.9619C39.7324 22.1124 39.8889 22.2984 40.005 22.5094C40.121 22.7203 40.1944 22.9521 40.2208 23.1914C40.2942 23.8606 40.3327 24.5389 40.3327 25.2264C40.3327 35.3519 32.1248 43.5597 21.9993 43.5597C11.8738 43.5597 3.66602 35.3519 3.66602 25.2264C3.66602 15.1009 11.8738 6.89307 21.9993 6.89307ZM21.9407 17.6676C22.0615 18.1382 21.9905 18.6376 21.7434 19.056C21.4962 19.4743 21.0931 19.7775 20.6225 19.8987C19.3298 20.2374 18.2044 21.0348 17.4564 22.1422C16.7084 23.2496 16.3889 24.5913 16.5575 25.917C16.726 27.2427 17.3712 28.4618 18.3725 29.3467C19.3739 30.2317 20.663 30.7221 21.9993 30.7264C23.2189 30.7263 24.4039 30.3211 25.3682 29.5745C26.3325 28.8279 27.0215 27.7821 27.327 26.6014C27.457 26.14 27.7624 25.7479 28.178 25.5091C28.5935 25.2702 29.0861 25.2035 29.5501 25.3234C30.0142 25.4432 30.4129 25.7401 30.6608 26.1503C30.9087 26.5605 30.986 27.0515 30.8763 27.5181C30.3139 29.6739 28.9859 31.5513 27.1403 32.7995C25.2947 34.0476 23.0578 34.5812 20.8476 34.3005C18.6373 34.0198 16.6048 32.944 15.1299 31.2741C13.6549 29.6042 12.8383 27.4544 12.8327 25.2264C12.833 23.1941 13.5084 21.2195 14.7528 19.6127C15.9972 18.006 17.7401 16.8581 19.7077 16.3494C19.9409 16.2893 20.1836 16.2757 20.422 16.3094C20.6604 16.3432 20.8899 16.4235 21.0972 16.5459C21.3046 16.6683 21.4858 16.8304 21.6305 17.0229C21.7752 17.2153 21.8806 17.4344 21.9407 17.6676ZM33.9233 7.1259C34.258 7.26464 34.544 7.49942 34.7453 7.80058C34.9467 8.10175 35.0542 8.45581 35.0545 8.81807V12.1731H38.4077C38.7702 12.1731 39.1246 12.2807 39.426 12.4822C39.7274 12.6836 39.9624 12.9699 40.1011 13.3049C40.2398 13.6398 40.2761 14.0084 40.2054 14.364C40.1347 14.7195 39.9602 15.0462 39.7038 15.3026L33.2194 21.7797C32.8756 22.1236 32.4094 22.3168 31.9232 22.3169H27.4993L24.148 25.6701C23.804 26.0141 23.3374 26.2073 22.8509 26.2073C22.3644 26.2073 21.8979 26.0141 21.5539 25.6701C21.2098 25.3261 21.0166 24.8595 21.0166 24.373C21.0166 23.8865 21.2098 23.4199 21.5539 23.0759L24.907 19.7264V15.3007C24.9071 14.8145 25.1003 14.3483 25.4442 14.0046L31.925 7.5219C32.1814 7.26536 32.5081 7.09062 32.8638 7.01981C33.2195 6.94899 33.5883 6.98527 33.9233 7.12407M31.3878 13.2419L28.5737 16.0597V18.6521H31.166L33.982 15.8379H33.2212C32.735 15.8379 32.2686 15.6447 31.9248 15.3009C31.581 14.9571 31.3878 14.4908 31.3878 14.0046V13.2419Z" fill="#100E0F"/>
</svg>
