<svg width="44" height="44" viewBox="0 0 44 44" fill="none" xmlns="http://www.w3.org/2000/svg">
<path fill-rule="evenodd" clip-rule="evenodd" d="M7.33242 7.05832C6.77326 7.05832 6.23699 7.28044 5.8416 7.67583C5.44622 8.07122 5.22409 8.60749 5.22409 9.16665V34.8333C5.22409 35.3925 5.44622 35.9287 5.8416 36.3241C6.23699 36.7195 6.77326 36.9417 7.33242 36.9417H23.8324C24.6931 36.9417 25.3908 37.6393 25.3908 38.5C25.3908 39.3606 24.6931 40.0583 23.8324 40.0583H7.33242C5.94666 40.0583 4.61767 39.5078 3.63779 38.528C2.65791 37.5481 2.10742 36.2191 2.10742 34.8333V9.16665C2.10742 7.78089 2.65791 6.4519 3.63779 5.47202C4.61767 4.49214 5.94667 3.94165 7.33242 3.94165H36.6658C38.0515 3.94165 39.3805 4.49214 40.3604 5.47202C41.3403 6.45189 41.8908 7.78089 41.8908 9.16665V25.6667C41.8908 26.5273 41.1931 27.225 40.3324 27.225C39.4718 27.225 38.7741 26.5273 38.7741 25.6667V9.16665C38.7741 8.60749 38.552 8.07122 38.1566 7.67583C37.7612 7.28044 37.2249 7.05832 36.6658 7.05832H7.33242Z" fill="#100E0F"/>
<path fill-rule="evenodd" clip-rule="evenodd" d="M10.2323 8.01172C10.8692 8.59066 10.9161 9.57622 10.3372 10.213L10.3188 10.2332C9.73989 10.87 8.75432 10.917 8.1175 10.338C7.48068 9.75909 7.43375 8.77353 8.01269 8.1367L8.03102 8.11654C8.60995 7.47971 9.59552 7.43279 10.2323 8.01172ZM15.7323 8.01172C16.3692 8.59066 16.4161 9.57622 15.8372 10.213L15.8188 10.2332C15.2399 10.87 14.2543 10.917 13.6175 10.338C12.9807 9.75909 12.9338 8.77353 13.5127 8.1367L13.531 8.11654C14.11 7.47971 15.0955 7.43279 15.7323 8.01172ZM21.2323 8.01172C21.8692 8.59066 21.9161 9.57622 21.3372 10.213L21.3188 10.2332C20.7399 10.87 19.7543 10.917 19.1175 10.338C18.4807 9.75909 18.4338 8.77353 19.0127 8.1367L19.031 8.11654C19.61 7.47971 20.5955 7.43279 21.2323 8.01172ZM2.10742 12.8333C2.10742 11.9726 2.80511 11.275 3.66576 11.275H40.3324C41.1931 11.275 41.8908 11.9726 41.8908 12.8333C41.8908 13.6939 41.1931 14.3916 40.3324 14.3916H3.66576C2.80511 14.3916 2.10742 13.6939 2.10742 12.8333ZM32.9928 25.9113C33.9245 25.9064 34.8479 26.0859 35.7098 26.4396C36.5718 26.7933 37.3552 27.3142 38.0148 27.9721C38.6745 28.6301 39.1974 29.4121 39.5533 30.2731C39.9092 31.1341 40.0912 32.0571 40.0886 32.9888C40.0861 33.9205 39.8991 34.8424 39.5385 35.7015C39.3823 36.0736 39.1949 36.4307 38.9787 36.7692L41.4358 39.2328C42.0436 39.8422 42.0422 40.8289 41.4329 41.4367C40.8235 42.0444 39.8368 42.0431 39.229 41.4337L36.7624 38.9605C35.6458 39.6561 34.3473 40.0315 33.0111 40.0279C31.1489 40.0228 29.3642 39.2821 28.0458 37.967C26.7273 36.652 25.982 34.8692 25.9721 33.0071C25.9622 31.145 26.6885 29.3544 27.9929 28.0254C28.6456 27.3605 29.4234 26.8313 30.2815 26.4685C31.1396 26.1056 32.0611 25.9163 32.9928 25.9113ZM34.5267 29.323C34.0453 29.1255 33.5296 29.0252 33.0094 29.028C32.4891 29.0307 31.9745 29.1365 31.4953 29.3391C31.016 29.5417 30.5817 29.8372 30.2172 30.2085C29.4888 30.9507 29.0832 31.9506 29.0887 32.9905C29.0942 34.0304 29.5105 35.026 30.2467 35.7604C30.983 36.4947 31.9797 36.9084 33.0196 36.9112C34.0595 36.914 35.0584 36.5058 35.7986 35.7755C36.169 35.4101 36.4634 34.9749 36.6648 34.4952C36.8661 34.0155 36.9706 33.5006 36.972 32.9803C36.9734 32.46 36.8718 31.9446 36.673 31.4638C36.4742 30.9829 36.1823 30.5462 35.8139 30.1788C35.4455 29.8113 35.008 29.5205 34.5267 29.323Z" fill="#100E0F"/>
</svg>
