<svg width="44" height="44" viewBox="0 0 44 44" fill="none" xmlns="http://www.w3.org/2000/svg">
<path fill-rule="evenodd" clip-rule="evenodd" d="M18.2453 4.25H25.7547C27.4085 4.24996 28.7747 4.24992 29.8566 4.39545C30.9937 4.54843 32.0016 4.88251 32.8096 5.69045C33.6175 6.4984 33.9516 7.50627 34.1046 8.64343C34.2501 9.72526 34.25 11.0914 34.25 12.7453V12.9214C34.25 14.5752 34.2501 15.9414 34.1046 17.0232C33.9516 18.1604 33.6175 19.1683 32.8096 19.9762C32.0016 20.7842 30.9937 21.1182 29.8566 21.2712C28.7747 21.4168 27.4085 21.4167 25.7547 21.4167H18.2453C16.5915 21.4167 15.2253 21.4168 14.1434 21.2712C13.0063 21.1182 11.9984 20.7842 11.1905 19.9762C10.3825 19.1683 10.0484 18.1604 9.89545 17.0232C9.74992 15.9414 9.74996 14.5752 9.75 12.9214V12.7453C9.74996 11.0915 9.74992 9.72526 9.89545 8.64343C10.0484 7.50627 10.3825 6.4984 11.1905 5.69045C11.9984 4.88251 13.0063 4.54843 14.1434 4.39545C15.2253 4.24992 16.5915 4.24996 18.2453 4.25ZM14.4767 6.87314C13.6174 6.98874 13.2246 7.19183 12.9582 7.45822C12.6918 7.72461 12.4887 8.1174 12.3731 8.97674C12.2527 9.87228 12.25 11.0691 12.25 12.8333C12.25 14.5975 12.2527 15.7944 12.3731 16.6899C12.4887 17.5493 12.6918 17.9421 12.9582 18.2085C13.2246 18.4748 13.6174 18.6779 14.4767 18.7935C15.3723 18.914 16.5691 18.9167 18.3333 18.9167H25.6667C27.4309 18.9167 28.6277 18.914 29.5233 18.7935C30.3826 18.6779 30.7754 18.4748 31.0418 18.2085C31.3082 17.9421 31.5113 17.5493 31.6269 16.6899C31.7473 15.7944 31.75 14.5975 31.75 12.8333C31.75 11.0691 31.7473 9.87228 31.6269 8.97674C31.5113 8.1174 31.3082 7.72461 31.0418 7.45822C30.7754 7.19183 30.3826 6.98874 29.5233 6.87314C28.6277 6.75266 27.4309 6.75 25.6667 6.75H18.3333C16.5691 6.75 15.3723 6.75266 14.4767 6.87314ZM22 12.25C21.8453 12.25 21.6969 12.3115 21.5875 12.4209C21.4781 12.5303 21.4167 12.6786 21.4167 12.8333C21.4167 12.988 21.4781 13.1364 21.5875 13.2458C21.6969 13.3552 21.8453 13.4167 22 13.4167C22.1547 13.4167 22.3031 13.3552 22.4125 13.2458C22.5219 13.1364 22.5833 12.988 22.5833 12.8333C22.5833 12.6786 22.5219 12.5303 22.4125 12.4209C22.3031 12.3115 22.1547 12.25 22 12.25ZM19.8198 10.6531C20.398 10.0749 21.1823 9.75 22 9.75C22.8178 9.75 23.602 10.0749 24.1802 10.6531C24.7585 11.2313 25.0833 12.0156 25.0833 12.8333C25.0833 13.6511 24.7585 14.4353 24.1802 15.0136C23.602 15.5918 22.8178 15.9167 22 15.9167C21.1823 15.9167 20.398 15.5918 19.8198 15.0136C19.2415 14.4353 18.9167 13.6511 18.9167 12.8333C18.9167 12.0156 19.2415 11.2313 19.8198 10.6531Z" fill="#100E0F"/>
<path fill-rule="evenodd" clip-rule="evenodd" d="M16.4994 4.25C17.1898 4.25 17.7494 4.80964 17.7494 5.5C17.7494 7.29021 17.0383 9.0071 15.7724 10.273C14.5066 11.5388 12.7897 12.25 10.9994 12.25C10.3091 12.25 9.74945 11.6904 9.74945 11C9.74945 10.3096 10.3091 9.75 10.9994 9.75C12.1266 9.75 13.2076 9.30223 14.0047 8.5052C14.8017 7.70817 15.2494 6.62717 15.2494 5.5C15.2494 4.80964 15.8091 4.25 16.4994 4.25ZM27.4995 4.25C28.1898 4.25 28.7495 4.80964 28.7495 5.5C28.7495 6.62717 29.1972 7.70817 29.9942 8.5052C30.7913 9.30223 31.8723 9.75 32.9995 9.75C33.6898 9.75 34.2495 10.3096 34.2495 11C34.2495 11.6904 33.6898 12.25 32.9995 12.25C31.2092 12.25 29.4923 11.5388 28.2265 10.273C26.9606 9.0071 26.2495 7.29021 26.2495 5.5C26.2495 4.80964 26.8091 4.25 27.4995 4.25ZM9.74945 14.6667C9.74945 13.9763 10.3091 13.4167 10.9994 13.4167C12.7897 13.4167 14.5066 14.1278 15.7724 15.3937C17.0383 16.6596 17.7494 18.3765 17.7494 20.1667C17.7494 20.857 17.1898 21.4167 16.4994 21.4167C15.8091 21.4167 15.2494 20.857 15.2494 20.1667C15.2494 19.0395 14.8017 17.9585 14.0047 17.1615C13.2076 16.3644 12.1266 15.9167 10.9994 15.9167C10.3091 15.9167 9.74945 15.357 9.74945 14.6667ZM28.2265 15.3937C29.4923 14.1278 31.2092 13.4167 32.9995 13.4167C33.6898 13.4167 34.2495 13.9763 34.2495 14.6667C34.2495 15.357 33.6898 15.9167 32.9995 15.9167C31.8723 15.9167 30.7913 16.3644 29.9942 17.1615C29.1972 17.9585 28.7495 19.0395 28.7495 20.1667C28.7495 20.857 28.1898 21.4167 27.4995 21.4167C26.8091 21.4167 26.2495 20.857 26.2495 20.1667C26.2495 18.3765 26.9606 16.6596 28.2265 15.3937ZM17.7769 24.7773C21.1798 24.118 24.8053 24.2695 27.7312 26.0138C28.1467 26.2582 28.5225 26.5647 28.8454 26.9226C29.2028 27.3151 29.4782 27.7751 29.6554 28.2755C29.8259 28.7571 29.9022 29.2668 29.8803 29.7768C30.2996 29.5173 30.7166 29.2215 31.1394 28.9014L34.4624 26.3913L34.4715 26.3846C35.2765 25.7991 36.2463 25.4837 37.2418 25.4837C38.2372 25.4837 39.2071 25.7991 40.0121 26.3846L40.0209 26.391L40.0296 26.3976C41.5186 27.5208 42.1058 29.5274 41.0451 31.2249C40.2666 32.4756 39.1001 34.1903 37.919 35.2846C36.725 36.391 35.0195 37.3239 33.7239 37.9512L33.7217 37.9522C32.157 38.7062 30.4652 39.126 28.8095 39.393L28.8076 39.3934C25.415 39.9351 21.9525 39.8584 18.5872 39.1671C16.8665 38.8135 15.0753 38.628 13.3095 38.628H9.16612C8.47576 38.628 7.91612 38.0684 7.91612 37.378C7.91612 36.6876 8.47576 36.128 9.16612 36.128H13.3095C15.247 36.128 17.2068 36.3312 19.0904 36.7182C22.16 37.3489 25.3183 37.4188 28.4129 36.9247C29.9387 36.6785 31.3699 36.3102 32.635 35.7008C33.8912 35.0925 35.313 34.2912 36.2198 33.4508C37.1358 32.6021 38.1544 31.1383 38.9232 29.903L38.9247 29.9007C39.1961 29.4666 39.1398 28.8635 38.533 28.4002C38.157 28.1294 37.7053 27.9837 37.2418 27.9837C36.7781 27.9837 36.3263 28.1295 35.9502 28.4005L32.6485 30.8946C32.6485 30.8946 32.6485 30.8945 32.6485 30.8946C31.3294 31.8933 29.7217 32.9465 27.7344 33.2628L27.7289 33.2637C27.5292 33.2945 27.3195 33.3239 27.0999 33.3502C26.9942 33.3696 26.8871 33.3813 26.7796 33.3851C25.6088 33.4996 24.4297 33.5006 23.2586 33.3881C22.5714 33.3221 22.0678 32.7115 22.1338 32.0243C22.1998 31.3371 22.8104 30.8336 23.4976 30.8996C24.5219 30.9979 25.5533 30.9957 26.5772 30.8929C26.5997 30.8906 26.6222 30.8883 26.6447 30.8859C26.7121 30.8586 26.7741 30.8189 26.8271 30.7684L26.8483 30.7483L26.8705 30.7292C27.0205 30.5994 27.143 30.4409 27.2307 30.263C27.3185 30.0851 27.3697 29.8914 27.3814 29.6934C27.3931 29.4954 27.365 29.297 27.2988 29.11C27.2326 28.9231 27.1296 28.7512 26.9959 28.6047L26.9905 28.5988C26.8373 28.4287 26.6589 28.2832 26.4616 28.1674L26.4537 28.1628C24.2524 26.8492 21.3254 26.6363 18.2525 27.2316C15.1954 27.8239 12.1598 29.1877 9.88936 30.7984C9.32629 31.1978 8.54603 31.0651 8.1466 30.5021C7.74716 29.939 7.87981 29.1587 8.44287 28.7593C10.9923 26.9508 14.3568 25.4399 17.7769 24.7773ZM18.8388 37.9427L18.8377 37.9478L18.8388 37.9427Z" fill="#100E0F"/>
<path fill-rule="evenodd" clip-rule="evenodd" d="M6.41602 26.9165C5.58759 26.9165 4.91602 27.5881 4.91602 28.4165V37.5832C4.91602 38.4116 5.58759 39.0832 6.41602 39.0832C7.24444 39.0832 7.91602 38.4116 7.91602 37.5832V28.4165C7.91602 27.5881 7.24444 26.9165 6.41602 26.9165ZM2.41602 28.4165C2.41602 26.2074 4.20688 24.4165 6.41602 24.4165C8.62515 24.4165 10.416 26.2074 10.416 28.4165V37.5832C10.416 39.7923 8.62515 41.5832 6.41602 41.5832C4.20688 41.5832 2.41602 39.7923 2.41602 37.5832V28.4165Z" fill="#100E0F"/>
</svg>
