<svg width="259" height="246" viewBox="0 0 259 246" fill="none" xmlns="http://www.w3.org/2000/svg">
<path d="M0.5 12C0.5 5.64873 5.64873 0.5 12 0.5H247C253.351 0.5 258.5 5.64873 258.5 12V234C258.5 240.351 253.351 245.5 247 245.5H12C5.64873 245.5 0.5 240.351 0.5 234V12Z" fill="white"/>
<path d="M0.5 12C0.5 5.64873 5.64873 0.5 12 0.5H247C253.351 0.5 258.5 5.64873 258.5 12V234C258.5 240.351 253.351 245.5 247 245.5H12C5.64873 245.5 0.5 240.351 0.5 234V12Z" stroke="#D2D9E0"/>
<g clip-path="url(#clip0_195_32672)">
<path d="M176.386 52.1677L179.16 54.0277C178.26 55.3614 176.106 57.6498 172.383 57.6498C167.76 57.6498 164.316 54.0522 164.316 49.4756C164.316 44.6056 167.796 41.3016 171.994 41.3016C176.216 41.3016 178.284 44.6788 178.953 46.5021L179.318 47.4322L168.441 51.9597C169.268 53.5994 170.558 54.4315 172.383 54.4315C174.208 54.4315 175.473 53.526 176.386 52.1677ZM167.857 49.2189L175.121 46.1841C174.719 45.1685 173.527 44.4467 172.103 44.4467C170.29 44.4467 167.772 46.0619 167.857 49.2189Z" fill="#FF302F"/>
<path d="M159.07 32.9686H162.574V56.9035H159.07V32.9686Z" fill="#20B15A"/>
<path d="M153.547 41.938H156.929V56.4751C156.929 62.5076 153.389 64.9916 149.203 64.9916C145.261 64.9916 142.889 62.3241 142.001 60.1583L145.103 58.8611C145.663 60.1948 147.013 61.7735 149.203 61.7735C151.892 61.7735 153.547 60.097 153.547 56.9646V55.7899H153.425C152.622 56.7687 151.089 57.6497 149.143 57.6497C145.079 57.6497 141.355 54.0888 141.355 49.5003C141.355 44.8869 145.079 41.2896 149.143 41.2896C151.077 41.2896 152.622 42.1584 153.425 43.1128H153.547V41.938ZM153.79 49.5003C153.79 46.6124 151.88 44.5076 149.447 44.5076C146.989 44.5076 144.921 46.6124 144.921 49.5003C144.921 52.3512 146.989 54.4192 149.447 54.4192C151.88 54.4316 153.79 52.3512 153.79 49.5003" fill="#3686F7"/>
<path d="M122.122 49.439C122.122 54.1501 118.472 57.613 113.995 57.613C109.517 57.613 105.867 54.1379 105.867 49.439C105.867 44.7035 109.517 41.2528 113.995 41.2528C118.472 41.2528 122.122 44.7035 122.122 49.439ZM118.57 49.439C118.57 46.5024 116.452 44.4831 113.995 44.4831C111.537 44.4831 109.42 46.5024 109.42 49.439C109.42 52.3512 111.537 54.3949 113.995 54.3949C116.453 54.3949 118.57 52.3512 118.57 49.439Z" fill="#FF302F"/>
<path d="M139.872 49.4756C139.872 54.1868 136.222 57.6496 131.745 57.6496C127.267 57.6496 123.617 54.1866 123.617 49.4756C123.617 44.7401 127.267 41.3016 131.745 41.3016C136.222 41.3016 139.872 44.7279 139.872 49.4756ZM136.307 49.4756C136.307 46.539 134.19 44.5197 131.732 44.5197C129.275 44.5197 127.158 46.539 127.158 49.4756C127.158 52.3879 129.275 54.4315 131.732 54.4315C134.202 54.4315 136.307 52.3757 136.307 49.4756Z" fill="#FFBA40"/>
<path d="M92.5051 54.0644C87.407 54.0644 83.4164 49.9284 83.4164 44.8012C83.4164 39.6742 87.407 35.5382 92.5051 35.5382C95.2549 35.5382 97.2623 36.6272 98.7467 38.0223L101.192 35.5628C99.124 33.5683 96.3621 32.0507 92.5051 32.0507C85.5213 32.0509 79.6445 37.7777 79.6445 44.8012C79.6445 51.8251 85.5213 57.5518 92.5051 57.5518C96.277 57.5518 99.124 56.3037 101.351 53.9788C103.638 51.6782 104.344 48.4477 104.344 45.8291C104.344 45.0092 104.246 44.165 104.137 43.5409H92.5051V46.9427H100.791C100.547 49.072 99.8783 50.5281 98.8928 51.5191C97.7004 52.7307 95.8146 54.0644 92.5051 54.0644Z" fill="#3686F7"/>
</g>
<path d="M17.5 85C17.5 79.7533 21.7533 75.5 27 75.5H232C237.247 75.5 241.5 79.7533 241.5 85V204C241.5 209.247 237.247 213.5 232 213.5H27C21.7533 213.5 17.5 209.247 17.5 204V85Z" stroke="#D2D9E0"/>
<path d="M26 107C26 105.895 26.8954 105 28 105H125C126.105 105 127 105.895 127 107V112C127 113.105 126.105 114 125 114H28C26.8954 114 26 113.105 26 112V107Z" fill="#D2D9E0"/>
<path d="M26 122C26 120.895 26.8954 120 28 120H98C99.1046 120 100 120.895 100 122V127C100 128.105 99.1046 129 98 129H28C26.8954 129 26 128.105 26 127V122Z" fill="#D2D9E0"/>
<path d="M26 137C26 135.895 26.8954 135 28 135H98C99.1046 135 100 135.895 100 137V142C100 143.105 99.1046 144 98 144H28C26.8954 144 26 143.105 26 142V137Z" fill="#D2D9E0"/>
<path d="M26 152C26 150.895 26.8954 150 28 150H87C88.1046 150 89 150.895 89 152V157C89 158.105 88.1046 159 87 159H28C26.8954 159 26 158.105 26 157V152Z" fill="#D2D9E0"/>
<path d="M26 167C26 165.895 26.8954 165 28 165H87C88.1046 165 89 165.895 89 167V172C89 173.105 88.1046 174 87 174H28C26.8954 174 26 173.105 26 172V167Z" fill="#D2D9E0"/>
<path d="M26 182C26 180.895 26.8954 180 28 180H77C78.1046 180 79 180.895 79 182V187C79 188.105 78.1046 189 77 189H28C26.8954 189 26 188.105 26 187V182Z" fill="#D2D9E0"/>
<path d="M26 197C26 195.895 26.8954 195 28 195H77C78.1046 195 79 195.895 79 197V202C79 203.105 78.1046 204 77 204H28C26.8954 204 26 203.105 26 202V197Z" fill="#D2D9E0"/>
<path d="M17.5 85C17.5 79.7533 21.7533 75.5 27 75.5H232C237.247 75.5 241.5 79.7533 241.5 85V94.5H17.5V85Z" stroke="#D2D9E0"/>
<path fill-rule="evenodd" clip-rule="evenodd" d="M31.4742 87.2696C30.7127 87.8305 29.7674 88.083 28.8277 87.9765C27.8879 87.87 27.0231 87.4123 26.4065 86.6952C25.7899 85.9781 25.4671 85.0544 25.5027 84.1093C25.5382 83.1642 25.9296 82.2675 26.5984 81.5987C27.2671 80.93 28.1639 80.5386 29.109 80.503C30.0541 80.4675 30.9777 80.7903 31.6948 81.4069C32.412 82.0235 32.8696 82.8883 32.9761 83.8281C33.0827 84.7678 32.8301 85.7131 32.2692 86.4746L34.3354 88.5401C34.3907 88.5916 34.435 88.6537 34.4658 88.7227C34.4965 88.7917 34.5131 88.8661 34.5144 88.9417C34.5157 89.0172 34.5018 89.0922 34.4735 89.1623C34.4452 89.2323 34.4031 89.2959 34.3497 89.3493C34.2963 89.4027 34.2327 89.4449 34.1626 89.4731C34.0926 89.5014 34.0176 89.5153 33.942 89.514C33.8665 89.5127 33.792 89.4961 33.723 89.4654C33.654 89.4346 33.5919 89.3903 33.5404 89.3351L31.4742 87.2696ZM31.8754 84.2501C31.8754 84.9462 31.5989 85.6139 31.1066 86.1062C30.6143 86.5985 29.9466 86.8751 29.2504 86.8751C28.5542 86.8751 27.8866 86.5985 27.3943 86.1062C26.902 85.6139 26.6254 84.9462 26.6254 84.2501C26.6254 83.5539 26.902 82.8862 27.3943 82.3939C27.8866 81.9016 28.5542 81.6251 29.2504 81.6251C29.9466 81.6251 30.6143 81.9016 31.1066 82.3939C31.5989 82.8862 31.8754 83.5539 31.8754 84.2501Z" fill="#D2D9E0"/>
<defs>
<clipPath id="clip0_195_32672">
<rect width="100" height="33" fill="white" transform="translate(79.5 32)"/>
</clipPath>
</defs>
</svg>
