<svg width="280" height="280" viewBox="0 0 280 280" fill="none" xmlns="http://www.w3.org/2000/svg">
<path d="M0.5 20C0.5 9.23045 9.23045 0.5 20 0.5H260C270.77 0.5 279.5 9.23045 279.5 20V274C279.5 277.038 277.038 279.5 274 279.5H6C2.96244 279.5 0.5 277.038 0.5 274V20Z" fill="white"/>
<path d="M0.5 20C0.5 9.23045 9.23045 0.5 20 0.5H260C270.77 0.5 279.5 9.23045 279.5 20V274C279.5 277.038 277.038 279.5 274 279.5H6C2.96244 279.5 0.5 277.038 0.5 274V20Z" stroke="#D2D9E0"/>
<g clip-path="url(#clip0_469_3125)">
<path d="M186.386 69.1677L189.16 71.0277C188.26 72.3614 186.106 74.6498 182.383 74.6498C177.76 74.6498 174.316 71.0522 174.316 66.4756C174.316 61.6056 177.796 58.3016 181.994 58.3016C186.216 58.3016 188.284 61.6788 188.953 63.5021L189.318 64.4322L178.441 68.9597C179.268 70.5994 180.558 71.4315 182.383 71.4315C184.208 71.4315 185.473 70.526 186.386 69.1677ZM177.857 66.2189L185.121 63.1841C184.719 62.1685 183.527 61.4467 182.103 61.4467C180.29 61.4467 177.772 63.0619 177.857 66.2189Z" fill="#FF302F"/>
<path d="M169.07 49.9686H172.574V73.9035H169.07V49.9686Z" fill="#20B15A"/>
<path d="M163.547 58.938H166.929V73.4751C166.929 79.5076 163.389 81.9916 159.203 81.9916C155.261 81.9916 152.889 79.3241 152.001 77.1583L155.103 75.8611C155.663 77.1948 157.013 78.7735 159.203 78.7735C161.892 78.7735 163.547 77.097 163.547 73.9646V72.7899H163.425C162.622 73.7687 161.089 74.6497 159.143 74.6497C155.079 74.6497 151.355 71.0888 151.355 66.5003C151.355 61.8869 155.079 58.2896 159.143 58.2896C161.077 58.2896 162.622 59.1584 163.425 60.1128H163.547V58.938ZM163.79 66.5003C163.79 63.6124 161.88 61.5076 159.447 61.5076C156.989 61.5076 154.921 63.6124 154.921 66.5003C154.921 69.3512 156.989 71.4192 159.447 71.4192C161.88 71.4316 163.79 69.3512 163.79 66.5003" fill="#3686F7"/>
<path d="M132.122 66.439C132.122 71.1501 128.472 74.613 123.995 74.613C119.517 74.613 115.867 71.1379 115.867 66.439C115.867 61.7035 119.517 58.2528 123.995 58.2528C128.472 58.2528 132.122 61.7035 132.122 66.439ZM128.57 66.439C128.57 63.5024 126.452 61.4831 123.995 61.4831C121.537 61.4831 119.42 63.5024 119.42 66.439C119.42 69.3512 121.537 71.3949 123.995 71.3949C126.453 71.3949 128.57 69.3512 128.57 66.439Z" fill="#FF302F"/>
<path d="M149.872 66.4756C149.872 71.1868 146.222 74.6496 141.745 74.6496C137.267 74.6496 133.617 71.1866 133.617 66.4756C133.617 61.7401 137.267 58.3016 141.745 58.3016C146.222 58.3016 149.872 61.7279 149.872 66.4756ZM146.307 66.4756C146.307 63.539 144.19 61.5197 141.732 61.5197C139.275 61.5197 137.158 63.539 137.158 66.4756C137.158 69.3879 139.275 71.4315 141.732 71.4315C144.202 71.4315 146.307 69.3757 146.307 66.4756Z" fill="#FFBA40"/>
<path d="M102.505 71.0644C97.407 71.0644 93.4164 66.9284 93.4164 61.8012C93.4164 56.6742 97.407 52.5382 102.505 52.5382C105.255 52.5382 107.262 53.6272 108.747 55.0223L111.192 52.5628C109.124 50.5683 106.362 49.0507 102.505 49.0507C95.5213 49.0509 89.6445 54.7777 89.6445 61.8012C89.6445 68.8251 95.5213 74.5518 102.505 74.5518C106.277 74.5518 109.124 73.3037 111.351 70.9788C113.638 68.6782 114.344 65.4477 114.344 62.8291C114.344 62.0092 114.246 61.165 114.137 60.5409H102.505V63.9427H110.791C110.547 66.072 109.878 67.5281 108.893 68.5191C107.7 69.7307 105.815 71.0644 102.505 71.0644Z" fill="#3686F7"/>
</g>
<path d="M24.5 102C24.5 96.7533 28.7533 92.5 34 92.5H245C250.247 92.5 254.5 96.7533 254.5 102V221C254.5 226.247 250.247 230.5 245 230.5H34C28.7533 230.5 24.5 226.247 24.5 221V102Z" stroke="#D2D9E0"/>
<path d="M33.2383 124C33.2383 122.895 34.1337 122 35.2383 122H132.238C133.343 122 134.238 122.895 134.238 124V129C134.238 130.105 133.343 131 132.238 131H35.2383C34.1337 131 33.2383 130.105 33.2383 129V124Z" fill="#D2D9E0"/>
<path d="M33.2383 139C33.2383 137.895 34.1337 137 35.2383 137H105.238C106.343 137 107.238 137.895 107.238 139V144C107.238 145.105 106.343 146 105.238 146H35.2383C34.1337 146 33.2383 145.105 33.2383 144V139Z" fill="#D2D9E0"/>
<path d="M33.2383 154C33.2383 152.895 34.1337 152 35.2383 152H105.238C106.343 152 107.238 152.895 107.238 154V159C107.238 160.105 106.343 161 105.238 161H35.2383C34.1337 161 33.2383 160.105 33.2383 159V154Z" fill="#D2D9E0"/>
<path d="M33.2383 169C33.2383 167.895 34.1337 167 35.2383 167H94.2383C95.3428 167 96.2383 167.895 96.2383 169V174C96.2383 175.105 95.3428 176 94.2383 176H35.2383C34.1337 176 33.2383 175.105 33.2383 174V169Z" fill="#D2D9E0"/>
<path d="M33.2383 184C33.2383 182.895 34.1337 182 35.2383 182H94.2383C95.3428 182 96.2383 182.895 96.2383 184V189C96.2383 190.105 95.3428 191 94.2383 191H35.2383C34.1337 191 33.2383 190.105 33.2383 189V184Z" fill="#D2D9E0"/>
<path d="M33.2383 199C33.2383 197.895 34.1337 197 35.2383 197H84.2383C85.3429 197 86.2383 197.895 86.2383 199V204C86.2383 205.105 85.3428 206 84.2383 206H35.2383C34.1337 206 33.2383 205.105 33.2383 204V199Z" fill="#D2D9E0"/>
<path d="M33.2383 214C33.2383 212.895 34.1337 212 35.2383 212H84.2383C85.3429 212 86.2383 212.895 86.2383 214V219C86.2383 220.105 85.3428 221 84.2383 221H35.2383C34.1337 221 33.2383 220.105 33.2383 219V214Z" fill="#D2D9E0"/>
<path d="M24.5 102C24.5 96.7533 28.7533 92.5 34 92.5H245C250.247 92.5 254.5 96.7533 254.5 102V111.5H24.5V102Z" stroke="#D2D9E0"/>
<path fill-rule="evenodd" clip-rule="evenodd" d="M38.8601 104.27C38.0783 104.831 37.1078 105.083 36.143 104.977C35.1782 104.87 34.2903 104.412 33.6573 103.695C33.0242 102.978 32.6928 102.054 32.7293 101.109C32.7658 100.164 33.1676 99.2675 33.8542 98.5987C34.5408 97.93 35.4615 97.5386 36.4318 97.503C37.4021 97.4675 38.3503 97.7903 39.0866 98.4069C39.8229 99.0235 40.2927 99.8883 40.4021 100.828C40.5114 101.768 40.2522 102.713 39.6763 103.475L41.7976 105.54C41.8544 105.592 41.8999 105.654 41.9314 105.723C41.963 105.792 41.98 105.866 41.9813 105.942C41.9827 106.017 41.9684 106.092 41.9394 106.162C41.9103 106.232 41.8671 106.296 41.8123 106.349C41.7574 106.403 41.6921 106.445 41.6202 106.473C41.5483 106.501 41.4713 106.515 41.3937 106.514C41.3162 106.513 41.2397 106.496 41.1689 106.465C41.098 106.435 41.0343 106.39 40.9814 106.335L38.8601 104.27ZM39.272 101.25C39.272 101.946 38.9881 102.614 38.4827 103.106C37.9773 103.598 37.2918 103.875 36.577 103.875C35.8623 103.875 35.1768 103.598 34.6714 103.106C34.166 102.614 33.882 101.946 33.882 101.25C33.882 100.554 34.166 99.8862 34.6714 99.3939C35.1768 98.9016 35.8623 98.6251 36.577 98.6251C37.2918 98.6251 37.9773 98.9016 38.4827 99.3939C38.9881 99.8862 39.272 100.554 39.272 101.25Z" fill="#D2D9E0"/>
<defs>
<clipPath id="clip0_469_3125">
<rect width="100" height="33" fill="white" transform="translate(89.5 49)"/>
</clipPath>
</defs>
</svg>
