<svg id="Capa_1" data-name="Capa 1" xmlns="http://www.w3.org/2000/svg" xmlns:xlink="http://www.w3.org/1999/xlink" viewBox="0 0 1920 1080"><defs><style>.cls-1{fill:none;}.cls-2{fill:#740646;}.cls-3{fill:url(#Degradado_sin_nombre);}.cls-4{opacity:0.29;}.cls-5{fill:#4e01d4;}.cls-6,.cls-7{fill:#fff;}.cls-7{opacity:0.63;}.cls-14,.cls-19,.cls-32,.cls-7{isolation:isolate;}.cls-8{fill:#00ebd5;}.cls-9{fill:#ff7171;}.cls-10,.cls-32{fill:#f7c90b;}.cls-11{fill:#fcb6e1;}.cls-12{fill:#d35e8d;}.cls-13{fill:#e09bc6;}.cls-14{fill:#cbc2ff;opacity:0.5;}.cls-15{fill:#efcee3;}.cls-16{fill:#ff005c;}.cls-17{fill:#ffc136;}.cls-18{fill:#00ead9;}.cls-19,.cls-20{fill:#ffebf7;}.cls-19{opacity:0.45;}.cls-21{clip-path:url(#clip-path);}.cls-22{fill:#f792d0;}.cls-23{fill:#11025f;}.cls-24{fill:#3700bf;}.cls-25{fill:#ffccec;}.cls-26{fill:#430cbc;}.cls-27{fill:#3f00c3;}.cls-28{fill:#16d6cc;}.cls-29{opacity:0.35;}.cls-30{fill:#60c6bc;}.cls-31{fill:#51f4e0;}.cls-32{opacity:0.47;}</style><linearGradient id="Degradado_sin_nombre" x1="957.16" y1="-376.87" x2="1000.9" y2="1279.07" gradientTransform="matrix(1, 0, 0, -1, 0, 1080)" gradientUnits="userSpaceOnUse"><stop offset="0" stop-color="#740945"/><stop offset="0.12" stop-color="#870c47"/><stop offset="0.37" stop-color="#aa114a"/><stop offset="0.61" stop-color="#c3154d"/><stop offset="0.83" stop-color="#d3174e"/><stop offset="1" stop-color="#d8184f"/></linearGradient><clipPath id="clip-path"><rect class="cls-1" x="620.7" y="519.61" width="225.13" height="183.39" rx="5.65"/></clipPath></defs><path class="cls-2" d="M1569,1019.13H461.26a7.66,7.66,0,0,1-7.67-7.67h0a7.66,7.66,0,0,1,7.67-7.67H1569a7.66,7.66,0,0,1,7.67,7.67h0A7.66,7.66,0,0,1,1569,1019.13Z"/><path class="cls-3" d="M1707.5,693.6c-27.53-41.83-66-77.94-77.72-127.63-11.69-49.5,5.86-100.77,19.19-149.8s21.5-105.9-5.49-147.91c-36.55-56.89-115.07-54.73-177.18-37.06s-129.13,44.42-188,16.83c-69.36-32.48-95.19-125.59-155.81-174.29-68-54.59-176.75-35-224.52,40.42-22.88,36.13-32.58,81.33-59.55,114C801.89,272.45,741.8,284,686.89,281.72S577.26,266,522.54,271.49s-112.53,36-130.36,92c-13.61,42.73-1,89.93,16.44,131s40.11,80.49,47.77,124.9-4.28,97-41,118.8c-42.76,25.3-97.06-.94-144.23,12.51-53.2,15.16-84.6,82.3-73.84,140.42s55.88,104.16,107.5,124.7,108.78,18.77,163,8.32l916.34,10.54c62.63-3.15,110.92,5,169.9,2.06s119.67-25.51,157.8-74.06C1769.67,888.92,1759.37,772.39,1707.5,693.6Z"/><g class="cls-4"><path class="cls-5" d="M1115,508.33a.49.49,0,0,1-.41-.24.48.48,0,0,1,.17-.65c1.17-.67,2.35-1.37,3.49-2.09a.48.48,0,0,1,.51.81c-1.16.72-2.34,1.43-3.52,2.11A.53.53,0,0,1,1115,508.33Zm7.27-4.58a.47.47,0,0,1-.39-.2.48.48,0,0,1,.12-.67c1.21-.84,2.43-1.72,3.62-2.63a.47.47,0,0,1,.66.09.48.48,0,0,1-.09.67c-1.2.91-2.43,1.81-3.65,2.66A.53.53,0,0,1,1122.3,503.75Zm7.15-5.46a.5.5,0,0,1-.37-.17.49.49,0,0,1,.06-.67c1.14-.95,2.27-1.94,3.37-2.95a.46.46,0,0,1,.67,0,.47.47,0,0,1,0,.67c-1.12,1-2.26,2-3.41,3A.41.41,0,0,1,1129.45,498.29Zm6.63-6.09a.46.46,0,0,1-.33-.13.48.48,0,0,1,0-.68c1-1.05,2.09-2.14,3.09-3.24a.48.48,0,0,1,.71.64c-1,1.11-2.07,2.21-3.13,3.27A.44.44,0,0,1,1136.08,492.2Zm6.08-6.65a.43.43,0,0,1-.3-.11.48.48,0,0,1-.06-.67c1-1.14,1.9-2.32,2.81-3.5a.47.47,0,0,1,.75.58c-.91,1.19-1.86,2.38-2.83,3.53A.46.46,0,0,1,1142.16,485.55Zm5.5-7.14a.46.46,0,0,1-.27-.09.47.47,0,0,1-.12-.66c.86-1.22,1.71-2.47,2.52-3.72a.47.47,0,0,1,.66-.14.48.48,0,0,1,.14.66c-.82,1.26-1.67,2.52-2.54,3.75A.47.47,0,0,1,1147.66,478.41Zm4.91-7.57a.42.42,0,0,1-.24-.07.47.47,0,0,1-.17-.65c.76-1.29,1.51-2.61,2.22-3.91a.47.47,0,0,1,.64-.19.48.48,0,0,1,.19.65c-.71,1.31-1.46,2.63-2.23,3.94A.48.48,0,0,1,1152.57,470.84Zm4.31-7.93a.54.54,0,0,1-.22-.05.48.48,0,0,1-.21-.64c.65-1.32,1.3-2.69,1.92-4.06a.48.48,0,0,1,.87.39c-.63,1.38-1.28,2.76-1.94,4.1A.48.48,0,0,1,1156.88,462.91Zm3.7-8.23a.57.57,0,0,1-.18,0,.48.48,0,0,1-.26-.62c.57-1.38,1.11-2.79,1.63-4.2a.47.47,0,1,1,.89.33c-.52,1.42-1.07,2.84-1.64,4.23A.47.47,0,0,1,1160.58,454.68Zm3.12-8.47a.39.39,0,0,1-.15,0,.47.47,0,0,1-.3-.6c.46-1.41.91-2.85,1.33-4.3a.47.47,0,1,1,.91.27c-.42,1.45-.87,2.91-1.34,4.33A.47.47,0,0,1,1163.7,446.21Zm2.53-8.66-.12,0a.46.46,0,0,1-.34-.57c.37-1.45.72-2.92,1-4.38a.48.48,0,0,1,.57-.36.49.49,0,0,1,.36.57c-.33,1.47-.68,2.95-1,4.4A.48.48,0,0,1,1166.23,437.55Zm2-8.81h-.09a.47.47,0,0,1-.38-.55c.27-1.47.53-3,.75-4.44a.49.49,0,0,1,.55-.4.48.48,0,0,1,.39.55c-.23,1.48-.48,3-.76,4.46A.47.47,0,0,1,1168.18,428.74Zm1.37-8.92h-.06a.47.47,0,0,1-.41-.53c.17-1.47.33-3,.47-4.47a.49.49,0,0,1,.51-.44.48.48,0,0,1,.43.52c-.13,1.51-.29,3-.47,4.5A.48.48,0,0,1,1169.55,419.82Zm.8-9h0a.46.46,0,0,1-.44-.5c.08-1.49.14-3,.18-4.49a.48.48,0,0,1,.48-.46h0a.47.47,0,0,1,.46.49c0,1.5-.1,3-.18,4.52A.49.49,0,0,1,1170.35,410.84Zm.23-9a.47.47,0,0,1-.47-.47c0-1.5,0-3-.1-4.5a.48.48,0,0,1,.46-.49.47.47,0,0,1,.49.46c.06,1.5.09,3,.1,4.52a.48.48,0,0,1-.47.48Zm-.33-9a.48.48,0,0,1-.48-.44c-.1-1.48-.23-3-.38-4.48a.47.47,0,0,1,.43-.52.46.46,0,0,1,.52.42c.15,1.51.28,3,.38,4.51a.48.48,0,0,1-.44.51Zm-.91-9a.47.47,0,0,1-.47-.41c-.2-1.49-.43-3-.67-4.45a.46.46,0,0,1,.39-.54.47.47,0,0,1,.54.39c.25,1.46.48,3,.68,4.47a.47.47,0,0,1-.41.53Zm-1.49-8.89a.48.48,0,0,1-.47-.39c-.29-1.46-.62-2.93-1-4.38a.48.48,0,1,1,.93-.22c.34,1.46.67,2.94,1,4.42a.47.47,0,0,1-.37.56Zm-2.08-8.78a.48.48,0,0,1-.46-.35c-.39-1.44-.81-2.89-1.25-4.31a.48.48,0,0,1,.31-.6.49.49,0,0,1,.6.32c.44,1.43.86,2.89,1.26,4.34a.48.48,0,0,1-.33.59Zm-2.67-8.61a.48.48,0,0,1-.45-.32c-.49-1.41-1-2.83-1.55-4.21a.48.48,0,1,1,.89-.35c.54,1.39,1.06,2.82,1.56,4.25a.48.48,0,0,1-.29.61Zm-3.26-8.4a.46.46,0,0,1-.43-.29c-.59-1.38-1.19-2.75-1.82-4.11a.48.48,0,0,1,.87-.4c.62,1.37,1.23,2.75,1.82,4.13a.48.48,0,0,1-.25.63A.58.58,0,0,1,1159.84,349.16Zm-3.75-8.18a.5.5,0,0,1-.43-.27q-1-2-2-4a.47.47,0,0,1,.19-.64.48.48,0,0,1,.65.19q1.05,2,2.06,4a.48.48,0,0,1-.22.64A.54.54,0,0,1,1156.09,341Zm-4.22-8a.47.47,0,0,1-.41-.24q-1.11-1.95-2.27-3.87a.47.47,0,1,1,.81-.49q1.17,1.92,2.29,3.89a.48.48,0,0,1-.18.65A.53.53,0,0,1,1151.87,333Zm-4.66-7.71a.46.46,0,0,1-.4-.22c-.81-1.26-1.63-2.51-2.48-3.74a.48.48,0,0,1,.79-.54c.85,1.25,1.68,2.5,2.49,3.77a.47.47,0,0,1-.4.73Zm-5.07-7.45a.46.46,0,0,1-.38-.2c-.88-1.21-1.77-2.42-2.68-3.61a.48.48,0,0,1,.76-.58q1.37,1.8,2.69,3.64a.48.48,0,0,1-.11.66A.47.47,0,0,1,1142.14,317.86Zm-5.46-7.18a.47.47,0,0,1-.37-.18c-.94-1.17-1.89-2.32-2.86-3.47a.48.48,0,0,1,.06-.67.47.47,0,0,1,.67.06q1.46,1.72,2.87,3.49a.47.47,0,0,1-.37.77Zm-5.81-6.9a.48.48,0,0,1-.36-.16q-1.48-1.68-3-3.33a.47.47,0,1,1,.69-.65q1.54,1.67,3,3.35a.48.48,0,0,1-.35.79Zm-6.15-6.61a.47.47,0,0,1-.34-.14c-1-1.07-2.1-2.14-3.18-3.19a.48.48,0,0,1,.67-.68c1.08,1.06,2.14,2.13,3.2,3.21a.47.47,0,0,1,0,.67A.5.5,0,0,1,1124.72,297.17Zm-6.44-6.32a.5.5,0,0,1-.33-.12c-1.09-1-2.2-2-3.32-3.05a.47.47,0,1,1,.64-.7q1.68,1.5,3.33,3a.47.47,0,0,1,0,.67A.46.46,0,0,1,1118.28,290.85Zm-6.72-6a.47.47,0,0,1-.31-.12c-1.14-1-2.29-1.94-3.45-2.89a.48.48,0,0,1-.07-.67.49.49,0,0,1,.67-.07c1.17,1,2.32,1.93,3.47,2.91a.47.47,0,0,1,.05.67A.49.49,0,0,1,1111.56,284.83Zm-7-5.73a.48.48,0,0,1-.29-.11q-1.77-1.38-3.57-2.75a.47.47,0,0,1-.09-.66.49.49,0,0,1,.67-.1q1.8,1.36,3.58,2.77a.49.49,0,0,1,.08.67A.53.53,0,0,1,1104.58,279.1Zm-7.2-5.44a.42.42,0,0,1-.28-.1c-1.21-.88-2.44-1.74-3.67-2.6a.47.47,0,1,1,.54-.78q1.86,1.29,3.69,2.61a.48.48,0,0,1,.1.67A.46.46,0,0,1,1097.38,273.66ZM1090,268.5a.42.42,0,0,1-.26-.08q-1.87-1.25-3.78-2.46a.48.48,0,1,1,.52-.8c1.27.81,2.53,1.64,3.78,2.47a.48.48,0,0,1,.14.66A.49.49,0,0,1,1090,268.5Zm-7.6-4.86a.45.45,0,0,1-.25-.07q-1.92-1.19-3.86-2.32a.48.48,0,1,1,.48-.82q2,1.14,3.88,2.33a.47.47,0,0,1,.15.65A.46.46,0,0,1,1082.37,263.64Zm-7.78-4.58a.46.46,0,0,1-.23-.06q-2-1.11-3.94-2.18a.48.48,0,0,1,.45-.84q2,1.08,4,2.19a.48.48,0,0,1,.18.65A.49.49,0,0,1,1074.59,259.06Zm-7.93-4.3a.44.44,0,0,1-.22,0q-2-1-4-2a.48.48,0,0,1-.21-.64.47.47,0,0,1,.63-.21q2,1,4,2.05a.46.46,0,0,1,.2.64A.47.47,0,0,1,1066.66,254.76Zm-8.07-4a.54.54,0,0,1-.21-.05c-1.35-.64-2.71-1.28-4.08-1.9a.48.48,0,0,1-.23-.63.47.47,0,0,1,.63-.23c1.37.62,2.73,1.26,4.09,1.9a.49.49,0,0,1,.23.64A.47.47,0,0,1,1058.59,250.75Zm-8.2-3.74a.41.41,0,0,1-.19,0l-4.14-1.76a.47.47,0,1,1,.36-.87c1.39.57,2.78,1.16,4.16,1.76a.48.48,0,0,1,.24.63A.46.46,0,0,1,1050.39,247Zm-8.32-3.45a.39.39,0,0,1-.18,0c-1.4-.55-2.79-1.09-4.19-1.62a.47.47,0,0,1,.33-.89c1.41.53,2.81,1.08,4.21,1.63a.49.49,0,0,1,.27.62A.5.5,0,0,1,1042.07,243.56Zm-8.43-3.18a.41.41,0,0,1-.16,0l-1.39-.49-2.86-1a.49.49,0,0,1-.3-.61.48.48,0,0,1,.61-.29l2.87,1,1.39.5a.48.48,0,0,1,.28.61A.47.47,0,0,1,1033.64,240.38Zm-8.53-2.91-.15,0c-1.43-.47-2.86-.92-4.29-1.37a.47.47,0,0,1-.31-.59.47.47,0,0,1,.59-.32c1.44.45,2.87.9,4.3,1.37a.48.48,0,0,1-.14.93Zm-8.61-2.67-.13,0c-1.44-.43-2.88-.85-4.33-1.25a.48.48,0,0,1,.26-.92l4.34,1.25a.49.49,0,0,1,.32.6A.48.48,0,0,1,1016.5,234.8Zm-8.68-2.45h-.12l-4.35-1.14a.49.49,0,0,1-.35-.58.47.47,0,0,1,.58-.34c1.46.37,2.91.75,4.37,1.14a.47.47,0,0,1-.13.93Zm-8.73-2.22-.11,0-4.39-1a.48.48,0,0,1-.35-.57.47.47,0,0,1,.57-.36c1.46.34,2.93.68,4.39,1a.47.47,0,0,1,.35.57A.48.48,0,0,1,999.09,230.13Zm-8.79-2h-.1l-4.41-.93a.48.48,0,0,1-.37-.56.47.47,0,0,1,.56-.37c1.48.3,2.95.61,4.42.93a.48.48,0,0,1-.1.94Zm-8.83-1.82h-.09c-1.48-.29-3-.57-4.43-.84a.48.48,0,0,1-.38-.56.47.47,0,0,1,.55-.38c1.48.27,3,.56,4.44.85a.46.46,0,0,1,.37.55A.47.47,0,0,1,981.47,226.28Zm-8.87-1.65h-.08c-1.48-.26-3-.52-4.45-.76a.48.48,0,0,1,.16-.94l4.45.76a.47.47,0,0,1-.08.94Zm-8.9-1.47h-.07l-4.46-.68a.47.47,0,0,1-.4-.54.47.47,0,0,1,.54-.4l4.46.68a.47.47,0,0,1,.4.54A.48.48,0,0,1,963.7,223.16Zm-8.92-1.33h-.07l-4.47-.61a.47.47,0,0,1-.41-.53.49.49,0,0,1,.54-.41l4.47.61a.47.47,0,0,1,.41.53A.48.48,0,0,1,954.78,221.83Zm-8.95-1.18h-.06l-4.47-.54a.48.48,0,0,1-.42-.53.47.47,0,0,1,.53-.41c1.49.17,3,.35,4.48.54a.47.47,0,0,1-.06.94Zm-9-1.05h0l-4.48-.48a.48.48,0,1,1,.1-1l4.48.49a.47.47,0,0,1,0,.94Zm-9-.93h0l-4.49-.43a.47.47,0,0,1-.42-.52.46.46,0,0,1,.51-.43l4.5.43a.48.48,0,0,1-.05.95Zm-9-.83h0l-4.5-.38a.47.47,0,0,1-.43-.51.48.48,0,0,1,.51-.44l4.5.39a.47.47,0,0,1,.43.51A.48.48,0,0,1,918.92,217.84Zm-9-.75h0l-4.49-.34a.47.47,0,0,1-.44-.51.47.47,0,0,1,.51-.44l4.49.34a.47.47,0,0,1,.44.51A.48.48,0,0,1,909.93,217.09Zm-9-.66h0l-4.5-.31a.48.48,0,0,1,.07-1l4.5.31a.46.46,0,0,1,.44.5A.49.49,0,0,1,900.93,216.43Zm-9-.61h0l-4.49-.28a.47.47,0,0,1-.45-.5.46.46,0,0,1,.5-.45l4.51.28a.48.48,0,0,1,0,.95Zm-9-.55h0l-4.5-.26a.48.48,0,1,1,.05-.95l4.5.26a.48.48,0,0,1,.45.5A.49.49,0,0,1,882.93,215.27Zm-9-.52h0l-4.5-.24A.47.47,0,0,1,869,214a.46.46,0,0,1,.5-.44l4.5.24a.48.48,0,0,1,0,.95Zm-9-.49h0l-4.5-.24a.46.46,0,0,1-.45-.5.47.47,0,0,1,.5-.45l4.5.24a.48.48,0,0,1,0,.95Zm-9-.47h0l-4.5-.23a.49.49,0,0,1-.45-.5.49.49,0,0,1,.5-.45l4.51.23a.48.48,0,0,1,0,1Zm-9-.48h0l-4.5-.24a.47.47,0,0,1-.45-.5.47.47,0,0,1,.5-.45l4.5.24a.48.48,0,0,1,0,.95Zm-9-.48h0l-4.5-.24a.47.47,0,0,1-.45-.5.5.5,0,0,1,.5-.45l4.5.24a.47.47,0,0,1,.45.5A.47.47,0,0,1,837.92,212.83Zm-9-.47h0l-4.5-.24a.47.47,0,0,1-.45-.5.49.49,0,0,1,.5-.45l4.5.24a.48.48,0,0,1,0,1Zm-9-.48h0l-4.5-.24a.48.48,0,0,1-.45-.5.47.47,0,0,1,.5-.45l4.5.24a.47.47,0,0,1,.45.5A.47.47,0,0,1,819.91,211.88Zm-9-.48h0l-4.51-.23a.49.49,0,0,1-.45-.5.47.47,0,0,1,.51-.45l4.5.23a.48.48,0,0,1,0,1Zm-9-.47h0l-4.5-.24a.48.48,0,0,1-.45-.5.47.47,0,0,1,.5-.45l4.5.24a.48.48,0,0,1,0,1Zm-9-.48h0l-4.51-.24a.47.47,0,0,1-.45-.5.49.49,0,0,1,.5-.45l4.51.24a.48.48,0,0,1,0,.95Zm-9-.47h0l-4.5-.24a.49.49,0,0,1-.45-.5.47.47,0,0,1,.5-.45l4.5.23a.48.48,0,0,1,0,1Zm-9-.48h0l-4.51-.24a.48.48,0,0,1,0-.95l4.51.24a.48.48,0,0,1,.45.5A.49.49,0,0,1,774.88,209.5Zm-9-.48h0l-4.5-.24a.47.47,0,0,1-.45-.5.48.48,0,0,1,.5-.45l4.5.24a.49.49,0,0,1,.45.5A.47.47,0,0,1,765.88,209Zm-9-.47h0l-4.51-.24a.48.48,0,0,1,0-.95l4.51.24a.47.47,0,0,1,.45.5A.49.49,0,0,1,756.87,208.55Zm-9-.48h0l-4.5-.24a.48.48,0,1,1,0-1l4.5.24a.48.48,0,0,1,.45.5A.47.47,0,0,1,747.87,208.07Zm-9-.48h0l-4.5-.23a.49.49,0,0,1-.45-.51.47.47,0,0,1,.5-.44l4.5.23a.47.47,0,0,1,.45.5A.47.47,0,0,1,738.86,207.59Zm-9-.47h0l-4.5-.24a.47.47,0,0,1-.45-.5.48.48,0,0,1,.5-.45l4.5.24a.48.48,0,0,1,0,1Zm-9-.48h0l-4.5-.24a.47.47,0,0,1-.45-.5.49.49,0,0,1,.5-.45l4.5.24a.48.48,0,0,1,0,.95Zm-9-.47h0l-4.5-.24a.48.48,0,1,1,0-1l4.5.24a.47.47,0,0,1,.45.5A.49.49,0,0,1,711.84,206.17Z"/><path class="cls-5" d="M358.68,939.43a.48.48,0,0,1,0-.95c1.5,0,3,0,4.51-.06h0a.48.48,0,0,1,.48.47.47.47,0,0,1-.47.48c-1.5,0-3,0-4.51.06Zm-4.51,0h0c-1.5,0-3,0-4.51-.08a.49.49,0,0,1-.47-.49.47.47,0,0,1,.49-.46c1.5,0,3,.06,4.5.08a.48.48,0,0,1,0,.95Zm13.52-.16a.48.48,0,0,1,0-1c1.5,0,3-.11,4.5-.19a.48.48,0,0,1,.05.95c-1.5.08-3,.14-4.51.19Zm-22.54-.08h0c-1.5-.07-3-.15-4.51-.24a.48.48,0,0,1,.06-.95c1.5.09,3,.17,4.49.23a.49.49,0,0,1,.46.5A.48.48,0,0,1,345.15,939.17Zm31.55-.36a.48.48,0,0,1,0-.95c1.49-.09,3-.2,4.49-.31a.46.46,0,0,1,.51.43.49.49,0,0,1-.44.52l-4.5.31Zm-40.55-.19h0c-1.51-.12-3-.25-4.51-.39a.47.47,0,0,1-.42-.52.47.47,0,0,1,.51-.43c1.5.15,3,.28,4.49.39a.48.48,0,0,1,0,1Zm49.54-.5a.47.47,0,0,1-.48-.43.49.49,0,0,1,.43-.52c1.5-.13,3-.28,4.48-.43a.5.5,0,0,1,.53.43.49.49,0,0,1-.43.52c-1.5.15-3,.3-4.49.43Zm-58.51-.36h-.06c-1.5-.18-3-.36-4.49-.56a.47.47,0,0,1-.4-.54.47.47,0,0,1,.53-.41c1.49.2,3,.39,4.47.56a.48.48,0,0,1-.05,1Zm67.47-.56a.48.48,0,0,1,0-1l4.47-.54a.47.47,0,1,1,.12.94c-1.49.19-3,.38-4.48.55Zm-76.42-.65h-.07c-1.49-.23-3-.48-4.47-.74a.48.48,0,0,1,.17-.94c1.48.26,3,.51,4.44.74a.48.48,0,0,1-.07.95Zm85.37-.49a.47.47,0,0,1-.47-.41.47.47,0,0,1,.4-.54c1.49-.2,3-.42,4.46-.64a.48.48,0,1,1,.14.94l-4.47.65ZM309.34,935h-.09c-1.48-.29-2.95-.6-4.43-.92a.48.48,0,0,1-.36-.57.49.49,0,0,1,.57-.36c1.46.32,2.93.63,4.4.92a.47.47,0,0,1,.38.55A.49.49,0,0,1,309.34,935Zm103.17-.26a.48.48,0,0,1-.47-.4.49.49,0,0,1,.4-.55c1.48-.24,3-.48,4.44-.74a.49.49,0,0,1,.55.39.48.48,0,0,1-.39.55c-1.48.26-3,.5-4.45.74Zm8.89-1.53a.47.47,0,0,1-.47-.39.46.46,0,0,1,.38-.55l4.43-.83a.47.47,0,0,1,.55.37.48.48,0,0,1-.37.56c-1.48.29-3,.56-4.44.83Zm-120.87-.14h-.11c-1.47-.35-2.93-.72-4.39-1.1a.49.49,0,0,1-.34-.58.47.47,0,0,1,.58-.34c1.45.38,2.91.74,4.37,1.09a.48.48,0,0,1,.35.58A.47.47,0,0,1,300.53,933.05Zm129.72-1.56a.49.49,0,0,1-.47-.38.48.48,0,0,1,.38-.56l4.41-.91a.47.47,0,0,1,.56.36.49.49,0,0,1-.37.57l-4.42.91Zm-138.45-.72-.13,0c-1.45-.41-2.89-.84-4.33-1.28a.49.49,0,0,1-.32-.6.48.48,0,0,1,.6-.31c1.43.44,2.87.86,4.31,1.27a.49.49,0,0,1,.33.59A.48.48,0,0,1,291.8,930.77Zm147.27-1.14a.48.48,0,0,1-.1-.94l4.4-1a.48.48,0,0,1,.57.35.49.49,0,0,1-.36.57l-4.41,1Zm-155.89-1.51-.15,0c-1.43-.48-2.85-1-4.27-1.46a.48.48,0,0,1,.32-.9c1.41.5,2.83,1,4.25,1.46a.47.47,0,0,1-.15.92Zm164.68-.49a.48.48,0,0,1-.46-.37.47.47,0,0,1,.36-.57l4.38-1.05a.46.46,0,0,1,.57.35.47.47,0,0,1-.35.57c-1.46.36-2.92.71-4.39,1.05Zm8.77-2.14a.46.46,0,0,1-.46-.36.48.48,0,0,1,.34-.58c1.46-.36,2.91-.73,4.37-1.11a.49.49,0,0,1,.58.34.48.48,0,0,1-.34.58l-4.38,1.12Zm-181.95-.38a.45.45,0,0,1-.16,0c-1.41-.53-2.82-1.08-4.21-1.64a.48.48,0,0,1,.36-.89c1.38.57,2.78,1.11,4.18,1.64a.48.48,0,0,1,.28.61A.46.46,0,0,1,274.68,925.11Zm190.68-1.87a.48.48,0,0,1-.12-.94l4.35-1.16a.48.48,0,0,1,.59.33.49.49,0,0,1-.34.59l-4.36,1.16Zm-199-1.5a.65.65,0,0,1-.19,0c-1.38-.6-2.76-1.21-4.13-1.83a.48.48,0,0,1,.4-.87c1.36.62,2.73,1.23,4.11,1.82a.48.48,0,0,1-.19.92Zm207.74-.86a.47.47,0,0,1-.46-.34.48.48,0,0,1,.33-.59l4.34-1.21a.47.47,0,1,1,.26.91l-4.35,1.22Zm8.68-2.44a.48.48,0,0,1-.46-.35.49.49,0,0,1,.33-.59l4.33-1.25a.47.47,0,1,1,.27.91l-4.34,1.26ZM258.13,918a.46.46,0,0,1-.2,0c-1.36-.66-2.7-1.33-4-2a.48.48,0,0,1-.21-.64.47.47,0,0,1,.64-.21q2,1,4,2a.48.48,0,0,1-.21.91Zm233.28-2.08a.47.47,0,0,1-.46-.34.48.48,0,0,1,.32-.59l4.32-1.29a.48.48,0,1,1,.28.91l-4.33,1.29Zm-241.28-2a.46.46,0,0,1-.23-.06c-1.32-.72-2.64-1.46-3.94-2.21a.48.48,0,0,1,.48-.83c1.29.75,2.6,1.49,3.91,2.21a.46.46,0,0,1,.19.64A.46.46,0,0,1,250.13,913.86Zm249.92-.54a.47.47,0,0,1-.46-.34.48.48,0,0,1,.32-.59l4.31-1.32a.46.46,0,0,1,.59.31.48.48,0,0,1-.31.6l-4.31,1.32Zm8.62-2.66a.47.47,0,0,1-.46-.33.48.48,0,0,1,.31-.6c1.44-.44,2.87-.89,4.3-1.35a.48.48,0,0,1,.29.91l-4.3,1.35A.36.36,0,0,1,508.67,910.66Zm-266.34-1.31a.45.45,0,0,1-.25-.07c-1.28-.79-2.56-1.59-3.82-2.41a.48.48,0,1,1,.52-.8c1.25.82,2.52,1.61,3.8,2.4a.47.47,0,0,1-.25.88ZM517.26,908a.48.48,0,0,1-.14-.93l4.29-1.38a.47.47,0,0,1,.6.3.48.48,0,0,1-.31.6q-2.15.71-4.29,1.38A.4.4,0,0,1,517.26,908Zm8.58-2.78a.48.48,0,0,1-.14-.93l4.28-1.41a.48.48,0,0,1,.6.3.47.47,0,0,1-.3.6L526,905.15Zm-291.07-.72a.53.53,0,0,1-.27-.08c-1.24-.86-2.47-1.72-3.69-2.61a.48.48,0,0,1-.11-.66.49.49,0,0,1,.67-.11c1.21.88,2.43,1.75,3.67,2.59a.47.47,0,0,1,.12.66A.46.46,0,0,1,234.77,904.45Zm299.63-2.12a.48.48,0,0,1-.15-.93l4.27-1.44a.47.47,0,0,1,.6.3.46.46,0,0,1-.29.6c-1.43.48-2.85,1-4.28,1.44A.4.4,0,0,1,534.4,902.33Zm8.54-2.9a.48.48,0,0,1-.15-.93l4.26-1.47a.47.47,0,0,1,.6.29.48.48,0,0,1-.29.61l-4.26,1.47Zm-315.46-.27a.45.45,0,0,1-.29-.1q-1.8-1.38-3.55-2.8a.48.48,0,0,1,.6-.74c1.16,1,2.34,1.87,3.53,2.79a.47.47,0,0,1,.08.66A.44.44,0,0,1,227.48,899.16Zm324-2.7a.47.47,0,0,1-.16-.92l4.25-1.5a.48.48,0,0,1,.61.29.47.47,0,0,1-.29.6l-4.25,1.51A.47.47,0,0,1,551.46,896.46Zm-331-3a.47.47,0,0,1-.31-.12q-1.71-1.47-3.38-3a.47.47,0,0,1,0-.67.48.48,0,0,1,.67,0c1.11,1,2.23,2,3.36,3a.47.47,0,0,1,.05.67A.46.46,0,0,1,220.48,893.48Zm339.47,0a.47.47,0,0,1-.44-.31.48.48,0,0,1,.28-.61L564,891a.48.48,0,0,1,.61.29.48.48,0,0,1-.28.61l-4.24,1.53A.51.51,0,0,1,560,893.44Zm8.48-3.08A.47.47,0,0,1,568,890a.48.48,0,0,1,.28-.61l4.23-1.56a.47.47,0,1,1,.33.89l-4.23,1.57A.45.45,0,0,1,568.43,890.36Zm-354.61-3a.47.47,0,0,1-.33-.14c-1.07-1-2.15-2.11-3.2-3.19a.47.47,0,0,1,0-.67.47.47,0,0,1,.67,0c1,1.07,2.11,2.14,3.18,3.17a.47.47,0,0,1,0,.67A.49.49,0,0,1,213.82,887.41Zm363.06-.2a.5.5,0,0,1-.45-.31.48.48,0,0,1,.28-.61l4.22-1.6a.48.48,0,0,1,.34.89l-4.22,1.6A.51.51,0,0,1,576.88,887.21Zm8.43-3.21a.47.47,0,0,1-.17-.92l4.2-1.62a.47.47,0,1,1,.35.88L585.48,884Zm-377.78-3a.44.44,0,0,1-.35-.16c-1-1.1-2-2.24-3-3.38a.48.48,0,0,1,.72-.62c1,1.13,2,2.26,3,3.36a.46.46,0,0,1,0,.67A.44.44,0,0,1,207.53,881Zm386.18-.21a.48.48,0,0,1-.44-.31.48.48,0,0,1,.27-.61l4.19-1.66a.48.48,0,0,1,.35.89l-4.19,1.65A.39.39,0,0,1,593.71,880.74Zm8.39-3.33a.48.48,0,0,1-.18-.92l4.18-1.68a.48.48,0,1,1,.36.88l-4.19,1.69Zm-400.46-3.29a.47.47,0,0,1-.37-.18c-.94-1.16-1.88-2.36-2.79-3.56a.48.48,0,0,1,.76-.58c.9,1.19,1.83,2.38,2.77,3.54a.47.47,0,0,1-.07.67A.48.48,0,0,1,201.64,874.12Zm408.81-.1a.49.49,0,0,1-.44-.29.48.48,0,0,1,.26-.62l4.17-1.72a.48.48,0,0,1,.37.88L610.63,874Zm8.34-3.44a.46.46,0,0,1-.44-.3.47.47,0,0,1,.25-.62l4.16-1.74a.47.47,0,1,1,.37.87L619,870.54A.58.58,0,0,1,618.79,870.58Zm8.31-3.51a.47.47,0,0,1-.19-.91l4.14-1.78a.49.49,0,0,1,.63.25.47.47,0,0,1-.25.62L627.28,867A.39.39,0,0,1,627.1,867.07Zm-430.91-.15a.47.47,0,0,1-.39-.2c-.87-1.23-1.73-2.48-2.56-3.74a.48.48,0,0,1,.8-.52c.82,1.24,1.67,2.49,2.54,3.71a.47.47,0,0,1-.12.66A.44.44,0,0,1,196.19,866.92Zm439.19-3.42a.47.47,0,0,1-.44-.28.49.49,0,0,1,.25-.63l4.13-1.8a.48.48,0,0,1,.63.24.49.49,0,0,1-.25.63l-4.13,1.8A.43.43,0,0,1,635.38,863.5Zm8.26-3.62a.48.48,0,0,1-.44-.29.46.46,0,0,1,.24-.62l4.12-1.84a.48.48,0,0,1,.63.24.48.48,0,0,1-.24.63l-4.12,1.84A.43.43,0,0,1,643.64,859.88Zm-452.42-.49a.46.46,0,0,1-.4-.23c-.79-1.29-1.55-2.6-2.28-3.91a.48.48,0,0,1,.83-.47c.72,1.3,1.48,2.61,2.26,3.89a.47.47,0,0,1-.16.65A.45.45,0,0,1,191.22,859.39Zm460.65-3.2a.49.49,0,0,1-.44-.27.47.47,0,0,1,.24-.63l4.1-1.87a.48.48,0,0,1,.4.87l-4.11,1.86A.43.43,0,0,1,651.87,856.19Zm8.2-3.74a.47.47,0,0,1-.43-.28.47.47,0,0,1,.23-.63c1.37-.62,2.73-1.26,4.09-1.89a.47.47,0,0,1,.63.23.46.46,0,0,1-.23.63l-4.09,1.9A.45.45,0,0,1,660.07,852.45Zm-473.24-.94a.46.46,0,0,1-.42-.26c-.68-1.34-1.35-2.71-2-4.07a.47.47,0,0,1,.86-.4c.63,1.35,1.29,2.71,2,4a.48.48,0,0,1-.21.64A.42.42,0,0,1,186.83,851.51Zm481.42-2.86a.47.47,0,0,1-.43-.27.48.48,0,0,1,.23-.64l4.07-1.92a.49.49,0,0,1,.64.23.47.47,0,0,1-.23.63l-4.08,1.92A.46.46,0,0,1,668.25,848.65Zm8.15-3.86a.47.47,0,0,1-.43-.27.49.49,0,0,1,.22-.64l4.07-2a.48.48,0,0,1,.63.22.47.47,0,0,1-.22.64l-4.07,2A.46.46,0,0,1,676.4,844.79ZM183,843.33a.47.47,0,0,1-.44-.29c-.59-1.38-1.15-2.8-1.68-4.2a.47.47,0,0,1,.27-.61.48.48,0,0,1,.62.27c.52,1.39,1.09,2.8,1.67,4.17a.49.49,0,0,1-.26.63A.57.57,0,0,1,183,843.33Zm501.48-2.46a.48.48,0,0,1-.43-.27.49.49,0,0,1,.22-.64l4.05-2a.47.47,0,1,1,.42.85l-4,2A.54.54,0,0,1,684.52,840.87Zm8.09-4a.48.48,0,0,1-.21-.9l4-2a.47.47,0,1,1,.42.85l-4,2A.42.42,0,0,1,692.61,836.89Zm-512.77-2a.47.47,0,0,1-.45-.33c-.49-1.41-.95-2.86-1.39-4.31a.47.47,0,1,1,.91-.27c.44,1.43.9,2.87,1.38,4.28a.47.47,0,0,1-.3.6Zm520.84-2a.51.51,0,0,1-.43-.26.49.49,0,0,1,.21-.64l4-2a.47.47,0,0,1,.64.21.48.48,0,0,1-.2.64l-4,2A.54.54,0,0,1,700.68,832.86Zm8-4.1a.48.48,0,0,1-.42-.25.47.47,0,0,1,.21-.64l4-2.07a.47.47,0,0,1,.44.84c-1.34.7-2.67,1.39-4,2.07A.42.42,0,0,1,708.71,828.76Zm-531.48-2.49a.48.48,0,0,1-.46-.35c-.38-1.46-.75-2.94-1.08-4.39a.47.47,0,0,1,.36-.57.48.48,0,0,1,.57.35c.33,1.45.69,2.92,1.07,4.37a.47.47,0,0,1-.34.58Zm539.49-1.66a.47.47,0,0,1-.42-.25.48.48,0,0,1,.2-.64l4-2.1a.48.48,0,0,1,.64.2.46.46,0,0,1-.2.64l-4,2.1A.42.42,0,0,1,716.72,824.61Zm8-4.2a.48.48,0,0,1-.42-.26.47.47,0,0,1,.19-.64l4-2.12a.47.47,0,0,1,.45.83l-4,2.13A.46.46,0,0,1,724.7,820.41Zm-549.47-2.93a.47.47,0,0,1-.47-.38c-.28-1.48-.55-3-.78-4.46a.49.49,0,0,1,.4-.55.48.48,0,0,1,.54.4c.23,1.47.49,3,.78,4.43a.48.48,0,0,1-.38.55Zm557.41-1.34a.48.48,0,0,1-.42-.25.47.47,0,0,1,.2-.64l4-2.16a.47.47,0,0,1,.64.19.48.48,0,0,1-.19.65l-4,2.15A.46.46,0,0,1,732.64,816.14Zm7.92-4.32a.48.48,0,0,1-.42-.25.47.47,0,0,1,.19-.64l3.94-2.18a.47.47,0,1,1,.46.83l-3.94,2.18A.49.49,0,0,1,740.56,811.82Zm-566.73-3.24a.48.48,0,0,1-.47-.42c-.19-1.49-.35-3-.48-4.5a.49.49,0,0,1,.44-.52.47.47,0,0,1,.51.44c.13,1.48.29,3,.47,4.46a.47.47,0,0,1-.41.53Zm574.61-1.14a.46.46,0,0,1-.41-.24.48.48,0,0,1,.18-.65l3.93-2.21a.47.47,0,0,1,.64.18.48.48,0,0,1-.18.65l-3.93,2.21A.46.46,0,0,1,748.44,807.44Zm7.85-4.44a.47.47,0,0,1-.23-.88l3.91-2.24a.48.48,0,0,1,.65.17.48.48,0,0,1-.18.65l-3.91,2.24A.53.53,0,0,1,756.29,803ZM173,799.59a.47.47,0,0,1-.47-.45c-.08-1.5-.14-3-.16-4.52a.46.46,0,0,1,.46-.48h0a.48.48,0,0,1,.48.46c0,1.49.08,3,.16,4.49a.48.48,0,0,1-.45.5Zm591.07-1.08a.47.47,0,0,1-.41-.24.49.49,0,0,1,.17-.65l3.9-2.26a.48.48,0,1,1,.48.82l-3.9,2.27A.53.53,0,0,1,764.11,798.51ZM771.9,794a.47.47,0,0,1-.24-.88l3.12-1.85a.48.48,0,1,1,.48.82l-3.12,1.85A.53.53,0,0,1,771.9,794Zm-599-3.38h0a.48.48,0,0,1-.47-.48c0-1.51.08-3,.16-4.53a.48.48,0,0,1,.5-.45.49.49,0,0,1,.45.5c-.08,1.49-.13,3-.16,4.49A.47.47,0,0,1,172.88,790.58Zm.47-9h0a.48.48,0,0,1-.43-.52c.13-1.5.29-3,.48-4.5a.47.47,0,0,1,.94.12c-.18,1.47-.34,3-.47,4.46A.49.49,0,0,1,173.35,781.58Zm1.13-9h-.08a.47.47,0,0,1-.39-.55c.24-1.48.51-3,.81-4.45a.47.47,0,0,1,.56-.37.46.46,0,0,1,.37.56c-.29,1.46-.56,2.94-.81,4.42A.45.45,0,0,1,174.48,772.63Zm1.79-8.83h-.11a.47.47,0,0,1-.35-.58c.35-1.46.74-2.93,1.15-4.37a.48.48,0,1,1,.92.26c-.41,1.43-.8,2.89-1.15,4.34A.47.47,0,0,1,176.27,763.8Zm2.48-8.66-.15,0a.47.47,0,0,1-.3-.6c.47-1.43,1-2.86,1.5-4.27a.49.49,0,0,1,.62-.28.48.48,0,0,1,.27.62c-.52,1.39-1,2.81-1.49,4.23A.48.48,0,0,1,178.75,755.14Zm3.18-8.44a.41.41,0,0,1-.19,0,.47.47,0,0,1-.25-.62c.59-1.39,1.22-2.78,1.86-4.13a.48.48,0,0,1,.86.41c-.64,1.34-1.26,2.71-1.85,4.09A.46.46,0,0,1,181.93,746.7Zm3.89-8.13a.59.59,0,0,1-.23-.05.48.48,0,0,1-.19-.65c.7-1.33,1.45-2.65,2.22-4a.48.48,0,0,1,.65-.16.48.48,0,0,1,.17.65c-.76,1.28-1.5,2.6-2.2,3.91A.48.48,0,0,1,185.82,738.57Zm4.6-7.75a.42.42,0,0,1-.26-.08.48.48,0,0,1-.14-.66c.83-1.25,1.7-2.51,2.58-3.72a.49.49,0,0,1,.67-.11.48.48,0,0,1,.1.67c-.87,1.2-1.73,2.44-2.55,3.69A.48.48,0,0,1,190.42,730.82Zm5.31-7.29a.47.47,0,0,1-.37-.77c.94-1.18,1.92-2.34,2.92-3.47a.48.48,0,0,1,.67,0,.48.48,0,0,1,0,.68c-1,1.11-2,2.26-2.89,3.42A.47.47,0,0,1,195.73,723.53Zm6-6.74a.47.47,0,0,1-.33-.14.47.47,0,0,1,0-.67c1.06-1.08,2.15-2.15,3.25-3.17a.47.47,0,1,1,.64.7c-1.08,1-2.17,2.06-3.21,3.13A.46.46,0,0,1,201.71,716.79Z"/><path class="cls-6" d="M1434.79,854a.48.48,0,0,1-.48-.47.47.47,0,0,1,.48-.48l4.5-.06h0a.48.48,0,0,1,0,.95c-1.51,0-3,.05-4.52.06Zm-4.51,0h0c-1.51,0-3,0-4.52-.06a.48.48,0,0,1,0-.95h0l4.5.06a.47.47,0,0,1,.48.48A.48.48,0,0,1,1430.28,854Zm-9-.18h0c-1.5,0-3-.1-4.51-.17a.47.47,0,0,1-.45-.5.48.48,0,0,1,.49-.45c1.5.07,3,.12,4.5.17a.48.48,0,0,1,0,.95Zm22.54,0a.48.48,0,0,1-.48-.46.47.47,0,0,1,.46-.49c1.5-.05,3-.12,4.5-.19a.48.48,0,1,1,0,1c-1.5.07-3,.14-4.51.19Zm-31.55-.4h0c-1.5-.08-3-.17-4.51-.28a.46.46,0,0,1-.44-.5.48.48,0,0,1,.51-.44l4.49.27a.47.47,0,0,1,.45.5A.47.47,0,0,1,1412.26,853.37Zm40.55,0a.47.47,0,0,1-.47-.45.47.47,0,0,1,.44-.5c1.5-.1,3-.2,4.49-.32a.48.48,0,0,1,.08,1c-1.5.12-3,.22-4.51.32Zm-49.55-.56h0l-4.5-.38a.49.49,0,0,1-.43-.52.49.49,0,0,1,.52-.43l4.49.38a.48.48,0,0,1,0,.95Zm58.54-.15a.47.47,0,0,1-.47-.43.48.48,0,0,1,.43-.52c1.49-.14,3-.29,4.48-.46a.48.48,0,0,1,.1.95c-1.5.16-3,.32-4.49.46Zm-67.52-.65h0c-1.5-.15-3-.3-4.49-.47a.47.47,0,0,1-.42-.52.48.48,0,0,1,.52-.42l4.48.47a.47.47,0,0,1,.43.52A.48.48,0,0,1,1394.28,852Zm76.48-.34a.48.48,0,0,1,0-1l4.46-.6a.46.46,0,0,1,.53.4.47.47,0,0,1-.4.54c-1.49.21-3,.42-4.47.6Zm-85.45-.65h0l-4.48-.56a.47.47,0,0,1-.41-.53.46.46,0,0,1,.53-.41c1.49.19,3,.38,4.47.55a.48.48,0,0,1-.06,1Zm94.38-.64a.47.47,0,0,1-.47-.4.47.47,0,0,1,.39-.54c1.49-.24,3-.49,4.44-.76a.47.47,0,0,1,.55.38.48.48,0,0,1-.38.56c-1.48.26-3,.52-4.45.76Zm-103.32-.51h-.07c-1.49-.2-3-.42-4.46-.64a.47.47,0,0,1-.4-.54.48.48,0,0,1,.54-.4l4.46.64a.47.47,0,0,1,.4.54A.48.48,0,0,1,1376.37,849.83Zm112.19-1.08a.48.48,0,0,1-.09-1c1.47-.29,2.94-.59,4.41-.91a.48.48,0,0,1,.2.93c-1.47.32-2.95.63-4.42.92Zm-121.11-.24h-.08l-4.45-.71a.48.48,0,1,1,.15-.94l4.45.71a.47.47,0,0,1-.07.94Zm-8.9-1.45h-.08c-1.49-.26-3-.51-4.45-.78a.48.48,0,0,1,.17-.94l4.44.78a.48.48,0,0,1-.08.95Zm138.83-.23a.47.47,0,0,1-.11-.93l.74-.18,3.63-.9a.47.47,0,0,1,.58.34.49.49,0,0,1-.34.58l-3.65.91-.74.17Zm-147.71-1.37h-.09l-4.43-.85a.48.48,0,0,1-.38-.56.48.48,0,0,1,.56-.37l4.43.84a.47.47,0,0,1-.09.94Zm156.44-.88a.46.46,0,0,1-.45-.34.46.46,0,0,1,.33-.59q2.16-.6,4.32-1.26a.48.48,0,0,1,.59.32.47.47,0,0,1-.32.59c-1.44.44-2.89.86-4.34,1.27Zm-165.29-.83h-.1l-4.42-.91a.47.47,0,0,1-.37-.56.49.49,0,0,1,.57-.37q2.2.47,4.41.9a.49.49,0,0,1,.37.57A.47.47,0,0,1,1340.82,843.75ZM1514.75,842a.48.48,0,0,1-.15-.93c1.43-.46,2.85-.94,4.27-1.43a.48.48,0,1,1,.31.9c-1.42.49-2.85,1-4.28,1.44A.39.39,0,0,1,1514.75,842ZM1332,841.91h-.1l-4.41-1a.48.48,0,0,1-.36-.57.48.48,0,0,1,.57-.36l4.4,1a.47.47,0,0,1-.1.94Zm-8.8-2h-.11c-1.47-.33-2.93-.68-4.39-1a.48.48,0,1,1,.21-.93l4.39,1a.48.48,0,0,1-.1.94Zm200.08-.94a.47.47,0,0,1-.16-.92c1.4-.52,2.8-1.06,4.2-1.61a.48.48,0,0,1,.62.27.48.48,0,0,1-.27.61c-1.4.56-2.81,1.1-4.22,1.62A.51.51,0,0,1,1523.27,839Zm-208.86-1.13h-.11l-4.38-1.09a.47.47,0,0,1-.35-.57.48.48,0,0,1,.58-.35c1.46.37,2.91.73,4.37,1.08a.48.48,0,0,1-.11.94Zm217.25-2.18a.49.49,0,0,1-.44-.29.48.48,0,0,1,.26-.63c1.38-.58,2.76-1.17,4.13-1.78a.46.46,0,0,1,.62.24.48.48,0,0,1-.24.63c-1.37.61-2.76,1.21-4.14,1.79A.43.43,0,0,1,1531.66,835.7Zm-226,0-.12,0-4.36-1.14a.48.48,0,1,1,.24-.92l4.36,1.14a.48.48,0,0,1-.12.94Zm-8.71-2.32h-.13l-4.35-1.2a.49.49,0,0,1-.33-.59.48.48,0,0,1,.59-.33l4.34,1.2a.47.47,0,0,1-.12.93Zm243-1.34a.47.47,0,0,1-.43-.27.48.48,0,0,1,.23-.64c1.35-.64,2.7-1.29,4-2a.47.47,0,0,1,.64.22.47.47,0,0,1-.21.63q-2,1-4.07,2A.46.46,0,0,1,1539.9,832Zm-251.64-1.09a.3.3,0,0,1-.13,0l-4.33-1.25a.47.47,0,0,1-.32-.59.46.46,0,0,1,.59-.33l4.32,1.26a.47.47,0,0,1-.13.93Zm-8.65-2.54-.14,0-4.31-1.32a.49.49,0,0,1-.32-.6.47.47,0,0,1,.6-.31l4.31,1.32a.48.48,0,0,1,.32.59A.49.49,0,0,1,1279.61,828.4ZM1548,828a.48.48,0,0,1-.22-.9q2-1.05,4-2.14a.49.49,0,0,1,.65.19.48.48,0,0,1-.19.65c-1.31.73-2.64,1.44-4,2.14A.46.46,0,0,1,1548,828Zm-277-2.28a.39.39,0,0,1-.15,0l-4.29-1.37a.48.48,0,1,1,.29-.91l4.29,1.38a.46.46,0,0,1,.31.59A.47.47,0,0,1,1271,825.73Zm284.85-2.1a.47.47,0,0,1-.24-.88c1.29-.76,2.58-1.53,3.85-2.32a.48.48,0,1,1,.5.81q-1.92,1.18-3.87,2.33A.53.53,0,0,1,1555.85,823.63ZM1262.42,823a.4.4,0,0,1-.15,0L1258,821.5a.49.49,0,0,1-.3-.61.47.47,0,0,1,.6-.29l4.28,1.43a.47.47,0,0,1,.3.6A.48.48,0,0,1,1262.42,823Zm-8.54-2.9-.16,0-4.26-1.5a.46.46,0,0,1-.29-.6.48.48,0,0,1,.61-.29l4.25,1.49a.47.47,0,0,1,.3.6A.48.48,0,0,1,1253.88,820.06Zm309.64-1.16a.46.46,0,0,1-.4-.21.48.48,0,0,1,.14-.66c1.26-.82,2.5-1.65,3.74-2.49a.47.47,0,0,1,.66.12.48.48,0,0,1-.12.66c-1.24.85-2.5,1.68-3.76,2.51A.48.48,0,0,1,1563.52,818.9Zm-318.15-1.85-.16,0-4.24-1.54a.48.48,0,0,1,.33-.9l4.24,1.55a.47.47,0,0,1-.17.92Zm-8.45-3.12a.47.47,0,0,1-.17,0l-4.22-1.61a.46.46,0,0,1-.27-.61.47.47,0,0,1,.61-.28l4.21,1.61a.47.47,0,0,1-.16.92Zm334-.11a.48.48,0,0,1-.28-.87q1.83-1.31,3.61-2.67a.48.48,0,0,1,.58.76c-1.2.91-2.41,1.8-3.63,2.69A.51.51,0,0,1,1571,813.82Zm-342.46-3.13-.18,0-4.19-1.66a.48.48,0,0,1-.26-.62.46.46,0,0,1,.61-.26c1.4.55,2.79,1.11,4.19,1.65a.48.48,0,0,1,.27.62A.46.46,0,0,1,1228.5,810.69Zm349.64-2.32a.46.46,0,0,1-.37-.18.48.48,0,0,1,.07-.67c1.17-.94,2.33-1.88,3.48-2.85a.48.48,0,0,1,.61.73c-1.15,1-2.32,1.92-3.49,2.86A.5.5,0,0,1,1578.14,808.37Zm-358-1a.51.51,0,0,1-.17,0l-4.18-1.72a.48.48,0,0,1,.37-.88l4.16,1.72a.47.47,0,0,1,.27.62A.49.49,0,0,1,1220.12,807.34Zm-8.32-3.46a.43.43,0,0,1-.19,0l-4.15-1.77a.48.48,0,0,1,.38-.88L1212,803a.47.47,0,0,1,.26.62A.49.49,0,0,1,1211.8,803.88Zm-276.74,0a.5.5,0,0,1-.26-.08.48.48,0,0,1-.14-.66c.81-1.25,1.66-2.51,2.53-3.75a.48.48,0,0,1,.66-.11.47.47,0,0,1,.12.66c-.86,1.23-1.7,2.48-2.51,3.72A.47.47,0,0,1,935.06,803.88Zm650-1.32a.44.44,0,0,1-.35-.16.47.47,0,0,1,0-.67c1.12-1,2.22-2,3.32-3a.47.47,0,0,1,.65.69c-1.1,1-2.22,2-3.34,3A.44.44,0,0,1,1585,802.56Zm-381.51-2.26a.43.43,0,0,1-.19,0c-1.38-.6-2.75-1.21-4.13-1.83a.47.47,0,1,1,.39-.86l4.12,1.82a.49.49,0,0,1,.25.63A.48.48,0,0,1,1203.52,800.3Zm-8.23-3.68a.49.49,0,0,1-.2,0l-4.1-1.88a.47.47,0,0,1-.23-.63.47.47,0,0,1,.63-.23l4.1,1.88a.47.47,0,0,1,.23.63A.48.48,0,0,1,1195.29,796.62Zm-255.06-.12a.48.48,0,0,1-.38-.76c.91-1.21,1.85-2.41,2.79-3.57a.48.48,0,0,1,.67-.07.49.49,0,0,1,.07.67c-.93,1.15-1.87,2.34-2.77,3.54A.49.49,0,0,1,940.23,796.5Zm651.38-.09a.48.48,0,0,1-.34-.15.47.47,0,0,1,0-.67q1.59-1.58,3.15-3.2a.47.47,0,0,1,.67,0,.49.49,0,0,1,0,.68c-1,1.08-2.1,2.16-3.17,3.22A.51.51,0,0,1,1591.61,796.41Zm-404.5-3.59a.46.46,0,0,1-.2-.05l-4.08-1.94a.48.48,0,0,1-.22-.63.49.49,0,0,1,.64-.23c1.35.66,2.71,1.3,4.06,1.94a.49.49,0,0,1,.23.64A.47.47,0,0,1,1187.11,792.82Zm410.73-2.93a.47.47,0,0,1-.31-.12.47.47,0,0,1,0-.67c1-1.11,2-2.24,3-3.37a.47.47,0,0,1,.67-.06.47.47,0,0,1,0,.67q-1.47,1.73-3,3.4A.51.51,0,0,1,1597.84,789.89Zm-651.93-.39a.47.47,0,0,1-.31-.12.47.47,0,0,1-.05-.67c1-1.14,2-2.27,3-3.36a.47.47,0,0,1,.67,0,.49.49,0,0,1,0,.68c-1,1.08-2,2.2-3,3.33A.49.49,0,0,1,945.91,789.5Zm233.07-.59a.41.41,0,0,1-.21,0l-4-2a.49.49,0,0,1-.22-.64.47.47,0,0,1,.64-.21l4,2a.47.47,0,0,1,.22.64A.48.48,0,0,1,1179,788.91Zm-8.07-4a.41.41,0,0,1-.21,0c-1.32-.66-2.63-1.33-3.94-2a.51.51,0,0,1-.25-.66.45.45,0,0,1,.6-.23l.09,0c1.31.67,2.61,1.34,3.93,2a.49.49,0,0,1,.21.64A.49.49,0,0,1,1170.91,784.89ZM1603.7,783a.49.49,0,0,1-.3-.1.49.49,0,0,1-.07-.67q1.41-1.75,2.77-3.55a.47.47,0,0,1,.66-.09.49.49,0,0,1,.1.67c-.92,1.2-1.84,2.39-2.79,3.56A.46.46,0,0,1,1603.7,783Zm-651.65-.14a.43.43,0,0,1-.33-.14.46.46,0,0,1,0-.67c1.07-1.07,2.16-2.13,3.25-3.15a.47.47,0,1,1,.65.69c-1.08,1-2.17,2.07-3.23,3.13A.48.48,0,0,1,952.05,782.9Zm210.84-2.13a.46.46,0,0,1-.22-.06l-4-2.09a.48.48,0,0,1-.2-.64.47.47,0,0,1,.64-.2l4,2.09a.48.48,0,0,1-.22.9Zm-204.26-4a.47.47,0,0,1-.31-.83c1.12-1,2.28-2,3.45-2.93a.47.47,0,0,1,.67.07.49.49,0,0,1-.07.67c-1.16.95-2.31,1.93-3.43,2.9A.47.47,0,0,1,958.63,776.73Zm196.28-.16a.46.46,0,0,1-.22-.06l-4-2.11a.47.47,0,0,1-.2-.64.48.48,0,0,1,.64-.2l4,2.11a.47.47,0,0,1,.19.65A.47.47,0,0,1,1154.91,776.57Zm454.24-.72a.49.49,0,0,1-.28-.09.48.48,0,0,1-.11-.66c.87-1.22,1.72-2.46,2.55-3.7a.48.48,0,1,1,.79.53c-.83,1.24-1.69,2.5-2.56,3.72A.49.49,0,0,1,1609.15,775.85Zm-462.2-3.5a.46.46,0,0,1-.23-.06l-4-2.1a.48.48,0,0,1-.2-.64.49.49,0,0,1,.65-.2l4,2.1a.48.48,0,0,1,.2.64A.47.47,0,0,1,1147,772.35ZM965.6,771a.5.5,0,0,1-.38-.19.48.48,0,0,1,.09-.67c1.19-.91,2.41-1.82,3.63-2.69a.47.47,0,0,1,.66.1.48.48,0,0,1-.1.67c-1.22.87-2.43,1.77-3.61,2.68A.53.53,0,0,1,965.6,771Zm648.55-2.66a.49.49,0,0,1-.25-.08.47.47,0,0,1-.15-.65c.8-1.28,1.58-2.58,2.32-3.86a.48.48,0,0,1,.65-.17.47.47,0,0,1,.17.65c-.74,1.29-1.53,2.59-2.33,3.88A.48.48,0,0,1,1614.15,768.35ZM1139,768.16a.54.54,0,0,1-.22,0l-4-2.06a.48.48,0,0,1-.21-.64.47.47,0,0,1,.64-.21l4,2.06a.48.48,0,0,1,.2.64A.47.47,0,0,1,1139,768.16Zm-166-2.42a.46.46,0,0,1-.39-.21.47.47,0,0,1,.13-.66c1.25-.84,2.52-1.66,3.79-2.46a.48.48,0,1,1,.51.81c-1.26.79-2.53,1.61-3.77,2.44A.47.47,0,0,1,972.92,765.74Zm158-1.68a.41.41,0,0,1-.21,0l-4-2a.48.48,0,0,1,.42-.86l4,2a.49.49,0,0,1,.22.64A.47.47,0,0,1,1130.92,764.06ZM980.56,761a.47.47,0,0,1-.24-.88c1.28-.75,2.6-1.49,3.94-2.22a.47.47,0,1,1,.46.83c-1.33.73-2.65,1.47-3.92,2.21A.5.5,0,0,1,980.56,761Zm142.25-.84a.51.51,0,0,1-.2,0c-1.36-.65-2.72-1.28-4.08-1.9a.49.49,0,0,1-.24-.64.47.47,0,0,1,.63-.23c1.37.63,2.73,1.26,4.1,1.91a.47.47,0,0,1,.22.63A.47.47,0,0,1,1122.81,760.11Zm-134.32-3.46a.47.47,0,0,1-.43-.26.49.49,0,0,1,.21-.64c1.34-.67,2.71-1.33,4.08-2a.47.47,0,0,1,.63.23.48.48,0,0,1-.23.64c-1.36.63-2.72,1.28-4,2A.41.41,0,0,1,988.49,756.65Zm126.12-.29a.41.41,0,0,1-.19,0l-4.14-1.77a.48.48,0,1,1,.37-.88c1.38.58,2.77,1.18,4.15,1.78a.48.48,0,0,1,.24.63A.47.47,0,0,1,1114.61,756.36Zm-8.32-3.47a.39.39,0,0,1-.18,0c-1.39-.55-2.79-1.09-4.2-1.61a.48.48,0,0,1-.28-.61.47.47,0,0,1,.61-.28c1.41.52,2.82,1.06,4.22,1.62a.46.46,0,0,1,.27.61A.48.48,0,0,1,1106.29,752.89Zm-109.62,0a.48.48,0,0,1-.44-.29.49.49,0,0,1,.25-.63c1.38-.59,2.79-1.16,4.19-1.71a.47.47,0,0,1,.61.27.48.48,0,0,1-.27.62c-1.38.54-2.78,1.11-4.16,1.7A.58.58,0,0,1,996.67,752.86Zm101.16-3.12a.39.39,0,0,1-.15,0c-1.42-.49-2.84-1-4.27-1.42a.48.48,0,1,1,.29-.91c1.43.46,2.86.94,4.29,1.43a.46.46,0,0,1,.29.6A.47.47,0,0,1,1097.83,749.74Zm-92.77-.17a.46.46,0,0,1-.44-.31.48.48,0,0,1,.28-.61c1.43-.51,2.87-1,4.29-1.45a.48.48,0,0,1,.29.91c-1.41.45-2.84.93-4.26,1.43A.41.41,0,0,1,1005.06,749.57Zm84.18-2.57h-.13c-1.44-.42-2.88-.82-4.33-1.2a.46.46,0,0,1-.34-.58.47.47,0,0,1,.58-.34c1.46.38,2.91.78,4.36,1.2a.48.48,0,0,1,.32.59A.47.47,0,0,1,1089.24,747Zm-75.59-.18a.47.47,0,0,1-.46-.34.48.48,0,0,1,.33-.59c1.45-.42,2.92-.81,4.37-1.18a.47.47,0,0,1,.57.35.48.48,0,0,1-.34.58c-1.44.36-2.9.75-4.34,1.16A.3.3,0,0,1,1013.65,746.82Zm66.87-2.08h-.11c-1.46-.34-2.94-.65-4.39-.93a.48.48,0,0,1,.18-.94c1.47.29,3,.6,4.42.94a.48.48,0,0,1-.1.94Zm-58.13-.12a.47.47,0,0,1-.46-.38.46.46,0,0,1,.36-.56c1.45-.32,2.94-.62,4.43-.9a.49.49,0,0,1,.56.38.48.48,0,0,1-.38.56c-1.48.27-3,.57-4.41.89Zm49.28-1.6h-.07c-1.48-.24-3-.45-4.45-.63a.47.47,0,0,1-.41-.53.46.46,0,0,1,.52-.41c1.49.18,3,.39,4.49.63a.48.48,0,0,1-.08.95Zm-40.42,0a.48.48,0,0,1-.07-1c1.49-.22,3-.43,4.49-.61a.49.49,0,0,1,.53.42.48.48,0,0,1-.42.53c-1.48.17-3,.38-4.45.6Zm9-1.06a.47.47,0,0,1-.47-.44.46.46,0,0,1,.43-.51c1.49-.13,3-.23,4.51-.31a.46.46,0,0,1,.5.45.48.48,0,0,1-.45.5c-1.49.08-3,.18-4.48.31Zm22.51,0h0c-1.49-.13-3-.24-4.48-.31a.49.49,0,0,1-.45-.5.44.44,0,0,1,.5-.45c1.49.07,3,.18,4.51.31a.47.47,0,0,1,.44.51A.48.48,0,0,1,1062.72,741.92Zm-13.51-.46a.48.48,0,0,1-.48-.47.49.49,0,0,1,.47-.49q2.27,0,4.53,0a.49.49,0,0,1,.47.49.48.48,0,0,1-.48.46h0c-1.5,0-3,0-4.49,0Z"/><path class="cls-5" d="M1413.44,596.06h-2.17a.5.5,0,1,1,0-1h4.51a.49.49,0,0,1,.5.49.51.51,0,0,1-.49.51Zm-6.67,0h0c-1.5,0-3,0-4.51-.08a.49.49,0,0,1-.49-.51.51.51,0,0,1,.51-.49c1.5,0,3,.06,4.5.08a.5.5,0,1,1,0,1Zm13.52,0a.5.5,0,0,1-.5-.49.52.52,0,0,1,.49-.51c1.5,0,3,0,4.5-.08a.48.48,0,0,1,.51.49.49.49,0,0,1-.48.51c-1.51,0-3,.06-4.51.08Zm-22.54-.17h0c-1.51-.05-3-.09-4.51-.15a.49.49,0,0,1-.48-.51.54.54,0,0,1,.51-.49c1.5.06,3,.1,4.51.15a.49.49,0,0,1,.48.51A.51.51,0,0,1,1397.75,595.84Zm31.55,0a.5.5,0,0,1,0-1c1.5,0,3-.1,4.5-.17a.48.48,0,0,1,.52.48.5.5,0,0,1-.48.52c-1.5.07-3,.12-4.5.17Zm-40.56-.28h0l-4.51-.2a.5.5,0,0,1-.47-.53.46.46,0,0,1,.52-.47l4.5.2a.5.5,0,0,1,0,1Zm49.56-.11a.51.51,0,0,1-.5-.48.5.5,0,0,1,.47-.52l4.49-.28a.5.5,0,0,1,.07,1q-2.25.15-4.5.27Zm-58.57-.32h0l-4.51-.26a.5.5,0,0,1-.47-.53.48.48,0,0,1,.53-.47l4.5.26a.49.49,0,0,1,.47.52A.5.5,0,0,1,1379.73,595.09Zm67.56-.28a.5.5,0,0,1,0-1l4.48-.38a.51.51,0,0,1,.54.45.48.48,0,0,1-.45.54c-1.49.14-3,.27-4.49.38Zm-76.56-.26h0l-4.5-.31a.5.5,0,1,1,.07-1l4.49.3a.5.5,0,0,1,0,1Zm85.53-.56a.5.5,0,0,1,0-1c1.49-.15,3-.32,4.47-.49a.5.5,0,1,1,.11,1c-1.49.18-3,.34-4.48.5Zm-94.53-.07h0l-4.5-.35a.49.49,0,0,1-.46-.53.5.5,0,0,1,.54-.46l4.49.34a.5.5,0,0,1,0,1Zm-9-.71h0l-4.5-.38a.49.49,0,0,1-.45-.54.5.5,0,0,1,.54-.45l4.49.37a.51.51,0,0,1,.46.54A.49.49,0,0,1,1352.74,593.21Zm112.46-.27a.5.5,0,0,1-.49-.44.5.5,0,0,1,.43-.56c1.48-.2,3-.4,4.45-.62a.51.51,0,0,1,.57.42.51.51,0,0,1-.42.57c-1.49.22-3,.42-4.47.62Zm-121.45-.5h0l-4.5-.41a.5.5,0,1,1,.1-1l4.49.4a.5.5,0,0,1,.45.55A.49.49,0,0,1,1343.75,592.44Zm130.36-.81a.5.5,0,0,1-.49-.42.51.51,0,0,1,.41-.58c1.49-.24,3-.49,4.44-.75a.5.5,0,0,1,.17,1c-1.48.26-3,.51-4.45.75Zm-139.34,0h0l-4.49-.43a.51.51,0,0,1-.45-.55.52.52,0,0,1,.55-.45l4.49.43a.5.5,0,0,1,0,1Zm-9-.87h0l-4.49-.44a.51.51,0,0,1-.45-.55.52.52,0,0,1,.55-.45l4.49.45a.5.5,0,0,1,0,1Zm157.19-.7a.51.51,0,0,1-.49-.41.5.5,0,0,1,.4-.58c1.47-.29,2.94-.59,4.4-.9a.52.52,0,0,1,.6.39.5.5,0,0,1-.39.59c-1.47.31-2.94.61-4.42.9Zm8.81-1.87a.5.5,0,0,1-.11-1l4.38-1.05a.5.5,0,0,1,.6.37.48.48,0,0,1-.36.6c-1.46.37-2.92.72-4.39,1Zm8.75-2.18a.5.5,0,0,1-.48-.37.48.48,0,0,1,.35-.61c1.45-.39,2.89-.79,4.33-1.21a.5.5,0,0,1,.28,1c-1.45.42-2.9.82-4.35,1.21Zm8.66-2.5a.5.5,0,0,1-.15-1c1.43-.44,2.86-.9,4.28-1.37a.49.49,0,0,1,.63.31.5.5,0,0,1-.31.64c-1.43.47-2.87.93-4.31,1.38Zm8.55-2.84a.5.5,0,0,1-.16-1c1.41-.5,2.82-1,4.22-1.55a.5.5,0,0,1,.64.29.5.5,0,0,1-.29.65c-1.41.53-2.82,1-4.24,1.55A.47.47,0,0,1,1517.75,580.66Zm8.44-3.19a.51.51,0,0,1-.47-.32.51.51,0,0,1,.28-.65c1.39-.56,2.78-1.13,4.16-1.72a.5.5,0,0,1,.65.26.51.51,0,0,1-.26.66c-1.39.59-2.78,1.17-4.18,1.73A.39.39,0,0,1,1526.19,577.47Zm8.29-3.56a.5.5,0,0,1-.21-.95c1.37-.62,2.73-1.26,4.08-1.91a.5.5,0,1,1,.43.9q-2,1-4.09,1.92A.52.52,0,0,1,1534.48,573.91Zm8.13-3.92a.51.51,0,0,1-.45-.27.5.5,0,0,1,.22-.67q2-1,4-2.1a.49.49,0,0,1,.67.21.49.49,0,0,1-.2.67c-1.33.72-2.66,1.42-4,2.11A.44.44,0,0,1,1542.61,570Zm7.94-4.29a.52.52,0,0,1-.44-.25.52.52,0,0,1,.19-.69q2-1.11,3.89-2.28a.5.5,0,0,1,.51.86c-1.29.78-2.6,1.54-3.9,2.29A.47.47,0,0,1,1550.55,565.7Zm7.74-4.67a.51.51,0,0,1-.43-.23.5.5,0,0,1,.16-.69c1.26-.81,2.52-1.63,3.76-2.47a.5.5,0,0,1,.69.14.49.49,0,0,1-.13.69c-1.25.85-2.51,1.67-3.79,2.48A.42.42,0,0,1,1558.29,561Zm7.47-5a.51.51,0,0,1-.41-.21.5.5,0,0,1,.12-.69q1.83-1.3,3.63-2.66a.5.5,0,0,1,.7.1.51.51,0,0,1-.1.7c-1.21.9-2.42,1.79-3.65,2.67A.52.52,0,0,1,1565.76,556Zm7.2-5.42a.49.49,0,0,1-.39-.19.5.5,0,0,1,.08-.7q1.77-1.39,3.49-2.84a.49.49,0,0,1,.7.06.51.51,0,0,1-.06.71c-1.16,1-2.32,1.92-3.51,2.85A.45.45,0,0,1,1573,550.57Zm6.92-5.78a.52.52,0,0,1-.38-.17.49.49,0,0,1,0-.7c1.12-1,2.24-2,3.34-3a.5.5,0,0,1,.68.74q-1.66,1.53-3.36,3A.5.5,0,0,1,1579.88,544.79Zm6.62-6.12a.5.5,0,0,1-.35-.86c1.07-1,2.14-2.11,3.18-3.18a.5.5,0,0,1,.71,0,.49.49,0,0,1,0,.7c-1.06,1.08-2.12,2.14-3.2,3.19A.5.5,0,0,1,1586.5,538.67Zm6.3-6.45a.49.49,0,0,1-.36-.84c1-1.1,2-2.2,3-3.33a.51.51,0,0,1,.71,0,.5.5,0,0,1,0,.71q-1.5,1.69-3,3.34A.49.49,0,0,1,1592.8,532.22Zm6-6.74a.49.49,0,0,1-.32-.12.51.51,0,0,1-.06-.71q1.46-1.71,2.86-3.47a.5.5,0,0,1,.7-.07.49.49,0,0,1,.08.7c-1,1.17-1.9,2.34-2.88,3.49A.49.49,0,0,1,1598.79,525.48Zm5.65-7a.49.49,0,0,1-.3-.1.51.51,0,0,1-.09-.71c.91-1.19,1.8-2.39,2.69-3.6a.5.5,0,1,1,.81.59q-1.33,1.83-2.71,3.62A.51.51,0,0,1,1604.44,518.45Zm5.31-7.29a.51.51,0,0,1-.28-.09.5.5,0,0,1-.13-.69q1.29-1.86,2.52-3.73a.49.49,0,0,1,.69-.14.5.5,0,0,1,.15.69c-.83,1.26-1.68,2.51-2.53,3.74A.52.52,0,0,1,1609.75,511.16Zm5-7.53a.51.51,0,0,1-.42-.77q1.18-1.91,2.34-3.84a.5.5,0,0,1,.86.51c-.77,1.3-1.55,2.58-2.35,3.86A.52.52,0,0,1,1614.71,503.63Zm4.6-7.76a.5.5,0,0,1-.24-.06.5.5,0,0,1-.19-.68q1.09-2,2.15-3.95a.5.5,0,1,1,.88.47c-.7,1.33-1.43,2.65-2.16,4A.5.5,0,0,1,1619.31,495.87Zm4.23-8a.49.49,0,0,1-.23-.06.5.5,0,0,1-.22-.67c.67-1.34,1.33-2.69,2-4a.5.5,0,0,1,.67-.24.5.5,0,0,1,.23.66c-.64,1.37-1.3,2.72-2,4.07A.52.52,0,0,1,1623.54,487.91Zm3.85-8.16a.52.52,0,0,1-.21,0,.5.5,0,0,1-.25-.66c.61-1.37,1.2-2.75,1.78-4.13a.49.49,0,0,1,.65-.27.5.5,0,0,1,.27.65c-.58,1.39-1.17,2.78-1.79,4.15A.49.49,0,0,1,1627.39,479.75Zm3.46-8.33a.57.57,0,0,1-.18,0,.5.5,0,0,1-.29-.65c.54-1.39,1.07-2.8,1.58-4.21a.5.5,0,0,1,.94.34c-.51,1.42-1,2.83-1.59,4.24A.49.49,0,0,1,1630.85,471.42Zm3.06-8.48a.44.44,0,0,1-.16,0,.52.52,0,0,1-.32-.64c.48-1.42.94-2.84,1.38-4.28a.5.5,0,1,1,1,.3c-.44,1.44-.9,2.87-1.38,4.3A.49.49,0,0,1,1633.91,462.94Zm2.65-8.61-.14,0a.5.5,0,0,1-.34-.62c.4-1.44.79-2.89,1.16-4.34a.5.5,0,1,1,1,.25c-.37,1.46-.76,2.91-1.17,4.36A.5.5,0,0,1,1636.56,454.33Zm2.23-8.74h-.11a.5.5,0,0,1-.38-.6c.34-1.46.66-2.93,1-4.39a.51.51,0,0,1,1,.2c-.31,1.47-.62,2.94-1,4.41A.51.51,0,0,1,1638.79,445.59Zm1.8-8.83h-.09a.5.5,0,0,1-.4-.58c.26-1.48.51-2.95.73-4.44a.52.52,0,0,1,.57-.42.51.51,0,0,1,.42.57c-.23,1.49-.47,3-.74,4.47A.49.49,0,0,1,1640.59,436.76Zm1.36-8.92h-.06a.5.5,0,0,1-.43-.56c.18-1.49.35-3,.5-4.47a.5.5,0,0,1,.55-.44.49.49,0,0,1,.45.54q-.23,2.25-.51,4.5A.5.5,0,0,1,1642,427.84Zm.91-9h0a.5.5,0,0,1-.46-.54c.11-1.49.21-3,.28-4.48a.5.5,0,0,1,.52-.48.51.51,0,0,1,.48.53c-.08,1.5-.17,3-.28,4.51A.5.5,0,0,1,1642.86,418.87Zm.45-9h0a.49.49,0,0,1-.48-.51c0-1.35,0-2.69,0-4v-.46a.51.51,0,0,1,.5-.5.5.5,0,0,1,.5.5v.46c0,1.35,0,2.71,0,4.07A.5.5,0,0,1,1643.31,409.86Zm0-9a.51.51,0,0,1-.5-.49c0-1.5-.1-3-.19-4.49a.51.51,0,0,1,.47-.53.49.49,0,0,1,.53.47c.08,1.51.15,3,.19,4.52a.5.5,0,0,1-.48.52Zm-.5-9a.5.5,0,0,1-.49-.46c-.13-1.5-.27-3-.43-4.48a.5.5,0,0,1,.45-.55.51.51,0,0,1,.55.45q.24,2.24.42,4.5a.49.49,0,0,1-.45.53Zm-1-9a.51.51,0,0,1-.5-.43c-.2-1.48-.41-3-.65-4.45a.5.5,0,0,1,.42-.57.5.5,0,0,1,.57.42c.24,1.48.45,3,.65,4.47a.5.5,0,0,1-.43.56Zm-1.42-8.9a.49.49,0,0,1-.49-.41c-.28-1.47-.57-2.94-.88-4.41a.51.51,0,0,1,.39-.59.5.5,0,0,1,.59.39c.31,1.47.61,3,.88,4.43a.5.5,0,0,1-.4.58Zm-1.87-8.82a.5.5,0,0,1-.48-.38c-.35-1.46-.71-2.92-1.1-4.37a.5.5,0,1,1,1-.25c.39,1.46.75,2.92,1.1,4.38a.51.51,0,0,1-.37.61Zm-2.29-8.72a.51.51,0,0,1-.49-.36c-.41-1.44-.85-2.87-1.3-4.3a.5.5,0,0,1,.32-.63.49.49,0,0,1,.63.32c.46,1.44.9,2.88,1.32,4.33a.51.51,0,0,1-.34.62Zm-2.73-8.6a.5.5,0,0,1-.47-.34c-.49-1.41-1-2.83-1.51-4.23a.49.49,0,0,1,.29-.64.5.5,0,0,1,.65.29c.52,1.41,1,2.83,1.52,4.26a.49.49,0,0,1-.31.63A.51.51,0,0,1,1633.51,347.84Zm-3.13-8.45a.51.51,0,0,1-.47-.32c-.55-1.39-1.12-2.78-1.71-4.16a.49.49,0,0,1,.27-.65.5.5,0,0,1,.65.26c.59,1.39,1.17,2.78,1.72,4.18a.49.49,0,0,1-.28.65A.58.58,0,0,1,1630.38,339.39Zm-3.53-8.3a.51.51,0,0,1-.46-.3c-.62-1.36-1.26-2.72-1.91-4.07a.5.5,0,1,1,.9-.43c.66,1.35,1.3,2.72,1.92,4.09a.49.49,0,0,1-.25.66A.46.46,0,0,1,1626.85,331.09Zm-3.93-8.12a.5.5,0,0,1-.44-.27c-.68-1.34-1.38-2.66-2.1-4a.5.5,0,1,1,.88-.48q1.08,2,2.11,4a.49.49,0,0,1-.22.67A.46.46,0,0,1,1622.92,323Zm-4.3-7.93a.5.5,0,0,1-.43-.25c-.74-1.3-1.51-2.59-2.28-3.88a.5.5,0,0,1,.85-.51c.78,1.29,1.55,2.58,2.3,3.89a.49.49,0,0,1-.19.68A.43.43,0,0,1,1618.62,315Zm-4.66-7.71a.49.49,0,0,1-.42-.24q-1.21-1.89-2.47-3.76a.5.5,0,0,1,.14-.69.49.49,0,0,1,.69.13c.84,1.25,1.67,2.52,2.48,3.79a.5.5,0,0,1-.15.69A.56.56,0,0,1,1614,307.33Zm-5-7.49a.51.51,0,0,1-.41-.21c-.86-1.23-1.74-2.44-2.63-3.65a.48.48,0,0,1,.1-.69.5.5,0,0,1,.7.1q1.35,1.82,2.65,3.66a.5.5,0,0,1-.12.7A.52.52,0,0,1,1608.93,299.84Zm-5.37-7.24a.47.47,0,0,1-.39-.2c-.93-1.18-1.86-2.35-2.81-3.51a.49.49,0,0,1,.07-.7.49.49,0,0,1,.7.07q1.44,1.74,2.83,3.53a.51.51,0,0,1-.4.81Zm-5.71-7a.52.52,0,0,1-.38-.17q-1.47-1.71-3-3.38a.48.48,0,0,1,0-.7.49.49,0,0,1,.7,0q1.52,1.68,3,3.39a.51.51,0,0,1-.06.71A.49.49,0,0,1,1597.85,285.62Zm-6-6.69a.52.52,0,0,1-.36-.16c-1-1.09-2.08-2.17-3.13-3.23a.5.5,0,0,1,0-.71.5.5,0,0,1,.71,0q1.59,1.61,3.14,3.24a.5.5,0,0,1,0,.71A.49.49,0,0,1,1591.81,278.93Zm-6.35-6.4a.52.52,0,0,1-.35-.14c-1.08-1-2.18-2.06-3.28-3.07a.5.5,0,0,1,0-.71.51.51,0,0,1,.71,0q1.66,1.53,3.3,3.09a.5.5,0,0,1-.34.86Zm-6.67-6.08a.49.49,0,0,1-.32-.12c-1.14-1-2.28-1.95-3.44-2.9a.51.51,0,0,1-.06-.71.49.49,0,0,1,.7-.06q1.74,1.44,3.45,2.92a.49.49,0,0,1,.05.7A.48.48,0,0,1,1578.79,266.45Zm-7-5.73a.51.51,0,0,1-.31-.11q-1.77-1.38-3.57-2.73a.49.49,0,0,1-.11-.69.5.5,0,0,1,.7-.11c1.21.9,2.41,1.82,3.6,2.74a.52.52,0,0,1,.08.71A.51.51,0,0,1,1571.84,260.72Zm-7.24-5.38a.52.52,0,0,1-.29-.09q-1.83-1.29-3.71-2.54a.51.51,0,0,1-.14-.7.5.5,0,0,1,.7-.13q1.88,1.25,3.73,2.55a.51.51,0,0,1,.12.7A.49.49,0,0,1,1564.6,255.34Zm-7.51-5a.42.42,0,0,1-.26-.08c-1.27-.79-2.55-1.58-3.84-2.34a.51.51,0,0,1-.18-.69.51.51,0,0,1,.69-.17c1.3.77,2.58,1.55,3.86,2.36a.5.5,0,0,1-.27.92Zm-7.76-4.6a.53.53,0,0,1-.24-.06q-2-1.1-3.95-2.14a.5.5,0,0,1-.22-.67.51.51,0,0,1,.68-.22c1.34.7,2.66,1.42,4,2.16a.49.49,0,0,1,.19.68A.5.5,0,0,1,1549.33,245.74Zm-177.4-1.08a.49.49,0,0,1-.44-.26.51.51,0,0,1,.2-.68c1.33-.72,2.66-1.42,4-2.1a.5.5,0,0,1,.67.21.52.52,0,0,1-.22.68c-1.34.68-2.66,1.38-4,2.09A.53.53,0,0,1,1371.93,244.66Zm169.42-3.1a.54.54,0,0,1-.22-.05c-1.35-.66-2.7-1.31-4.06-1.93a.52.52,0,0,1-.25-.67.5.5,0,0,1,.66-.24c1.37.63,2.73,1.27,4.09,1.94a.5.5,0,0,1,.23.67A.52.52,0,0,1,1541.35,241.56Zm-161.39-1a.51.51,0,0,1-.45-.29.49.49,0,0,1,.24-.66c1.36-.65,2.73-1.29,4.1-1.9a.51.51,0,0,1,.67.25.5.5,0,0,1-.26.66q-2.05.92-4.08,1.89A.54.54,0,0,1,1380,240.57Zm153.2-2.78a.45.45,0,0,1-.2,0c-1.38-.59-2.76-1.16-4.16-1.72a.49.49,0,0,1-.27-.65.51.51,0,0,1,.65-.28c1.4.56,2.79,1.14,4.17,1.73a.5.5,0,0,1-.19,1Zm-145-.9a.49.49,0,0,1-.46-.3.5.5,0,0,1,.27-.66q2.09-.87,4.2-1.68a.5.5,0,0,1,.36.93c-1.4.54-2.79,1.1-4.18,1.68A.63.63,0,0,1,1388.2,236.89Zm136.58-2.44a.51.51,0,0,1-.17,0c-1.41-.52-2.82-1-4.24-1.51a.5.5,0,1,1,.33-.95c1.42.49,2.84,1,4.26,1.52a.5.5,0,0,1,.29.64A.51.51,0,0,1,1524.78,234.45Zm-128.17-.8a.5.5,0,0,1-.17-1c1.42-.51,2.85-1,4.28-1.47a.5.5,0,0,1,.63.32.49.49,0,0,1-.32.63c-1.42.47-2.84,1-4.25,1.46A.51.51,0,0,1,1396.61,233.65Zm119.64-2.12-.15,0c-1.43-.45-2.87-.88-4.31-1.29a.51.51,0,0,1-.34-.62.49.49,0,0,1,.62-.34c1.45.41,2.89.85,4.33,1.3a.51.51,0,0,1,.33.63A.51.51,0,0,1,1516.25,231.53Zm-111.07-.7a.49.49,0,0,1-.48-.36.5.5,0,0,1,.33-.62c1.44-.43,2.89-.85,4.35-1.25a.5.5,0,1,1,.26,1c-1.44.4-2.88.82-4.32,1.25Zm102.41-1.8h-.13c-1.45-.38-2.91-.75-4.37-1.09a.5.5,0,0,1-.37-.6.5.5,0,0,1,.61-.37c1.46.34,2.92.71,4.38,1.09a.5.5,0,0,1-.12,1Zm-93.72-.59a.49.49,0,0,1-.48-.38.5.5,0,0,1,.36-.61c1.46-.36,2.93-.71,4.4-1a.5.5,0,1,1,.22,1c-1.47.33-2.92.67-4.38,1Zm84.94-1.48h-.1c-1.47-.31-2.94-.6-4.41-.88a.48.48,0,0,1-.4-.58.49.49,0,0,1,.58-.4c1.48.28,3,.57,4.43.88a.5.5,0,0,1-.1,1Zm-76.14-.48a.51.51,0,0,1-.49-.41.49.49,0,0,1,.4-.58c1.47-.3,3-.57,4.44-.83a.5.5,0,1,1,.17,1c-1.48.25-3,.53-4.42.82Zm67.28-1.17h-.08c-1.49-.24-3-.46-4.45-.67a.49.49,0,0,1-.43-.56.51.51,0,0,1,.56-.43c1.49.21,3,.43,4.47.67a.5.5,0,0,1-.07,1Zm-58.39-.37a.51.51,0,0,1-.5-.43.5.5,0,0,1,.42-.56c1.49-.23,3-.43,4.48-.61a.5.5,0,0,1,.56.43.5.5,0,0,1-.43.56c-1.49.18-3,.38-4.46.6Zm49.45-.85h0l-4.48-.45a.49.49,0,0,1-.45-.54.5.5,0,0,1,.54-.45q2.25.2,4.5.45a.5.5,0,0,1-.06,1Zm-40.51-.26a.49.49,0,0,1-.49-.45.5.5,0,0,1,.45-.55q2.25-.22,4.5-.39a.5.5,0,1,1,.08,1c-1.5.12-3,.25-4.48.4Zm31.53-.54h0q-2.25-.15-4.5-.24a.49.49,0,0,1-.47-.52.48.48,0,0,1,.52-.48c1.5.06,3,.14,4.51.24a.51.51,0,0,1,.47.53A.5.5,0,0,1,1472,223.29Zm-22.53-.15a.5.5,0,0,1,0-1c1.5-.08,3-.14,4.52-.19a.51.51,0,0,1,.51.49.5.5,0,0,1-.48.51c-1.5,0-3,.11-4.5.18Zm13.52-.23h0l-3.47,0h-1a.46.46,0,0,1-.5-.49.51.51,0,0,1,.5-.51h1l3.49,0a.52.52,0,0,1,.49.51A.5.5,0,0,1,1463,222.91Z"/></g><path class="cls-7" d="M1263.39,372.1a22.71,22.71,0,0,0,1.31,3.13l-4.28,4.28,10.1,10.1,4.28-4.28a22.71,22.71,0,0,0,3.13,1.31v6.05h14.28v-6.05a22.71,22.71,0,0,0,3.13-1.31l4.28,4.28,10.1-10.1-4.28-4.28a22.71,22.71,0,0,0,1.31-3.13h6V357.82h-6a22.71,22.71,0,0,0-1.31-3.13l4.28-4.28-10.1-10.1-4.28,4.28a22.71,22.71,0,0,0-3.13-1.31v-6h-14.28v6a22.71,22.71,0,0,0-3.13,1.31l-4.28-4.28-10.1,10.1,4.28,4.28a22.71,22.71,0,0,0-1.31,3.13h-6.05V372.1Zm7.29-7.14a14.39,14.39,0,1,1,14.39,14.39A14.39,14.39,0,0,1,1270.68,365Z"/><path class="cls-7" d="M451.67,829.64a25.56,25.56,0,0,0,1.49,3.57l-4.89,4.89,11.53,11.53,4.89-4.89a26.61,26.61,0,0,0,3.57,1.49v6.9h16.3v-6.9a25.56,25.56,0,0,0,3.57-1.49l4.89,4.89,11.53-11.53-4.89-4.89a26.61,26.61,0,0,0,1.49-3.57h6.9v-16.3h-6.9a25.56,25.56,0,0,0-1.49-3.57l4.89-4.89L493,793.35l-4.89,4.89a26.61,26.61,0,0,0-3.57-1.49v-6.9h-16.3v6.9a25.56,25.56,0,0,0-3.57,1.49l-4.89-4.89-11.53,11.53,4.89,4.89a26.61,26.61,0,0,0-1.49,3.57h-6.9v16.3Zm8.32-8.15a16.43,16.43,0,1,1,16.43,16.43A16.42,16.42,0,0,1,460,821.49Z"/><path class="cls-7" d="M1138.88,266.16a11.35,11.35,0,0,0,.69,1.64l-2.25,2.25,5.3,5.3,2.25-2.25a11.84,11.84,0,0,0,1.64.69V277h7.5v-3.17a11.35,11.35,0,0,0,1.64-.69l2.25,2.25,5.3-5.3L1161,267.8a11.84,11.84,0,0,0,.69-1.64h3.17v-7.5h-3.17A11.35,11.35,0,0,0,1161,257l2.25-2.25-5.3-5.3-2.25,2.25A11.84,11.84,0,0,0,1154,251v-3.17h-7.5V251a11.35,11.35,0,0,0-1.64.69l-2.25-2.25-5.3,5.3,2.25,2.25a11.84,11.84,0,0,0-.69,1.64h-3.17v7.5Zm3.82-3.75a7.55,7.55,0,1,1,7.55,7.55A7.55,7.55,0,0,1,1142.7,262.41Z"/><path class="cls-7" d="M427.9,437.24a21.85,21.85,0,0,0-.6,3.19l-5.67,1.17L424.39,455l5.67-1.17a23.88,23.88,0,0,0,1.81,2.69l-3.18,4.83,11.4,7.5,3.18-4.83a21.85,21.85,0,0,0,3.19.6l1.17,5.67L461,467.5l-1.17-5.67a23.88,23.88,0,0,0,2.69-1.81l4.83,3.18,7.5-11.4L470,448.62a21.85,21.85,0,0,0,.6-3.19l5.67-1.17-2.76-13.37-5.67,1.17a23.88,23.88,0,0,0-1.81-2.69l3.18-4.83-11.4-7.5-3.18,4.83a21.85,21.85,0,0,0-3.19-.6l-1.17-5.67-13.37,2.76,1.17,5.67a23.88,23.88,0,0,0-2.69,1.81l-4.83-3.18-7.5,11.4Zm9.57-1.88a13.75,13.75,0,1,1,3.93,19.05A13.75,13.75,0,0,1,437.47,435.36Zm58.35,19.51a13.82,13.82,0,0,0-.38,2l-3.56.74,1.73,8.41,3.56-.74a13.52,13.52,0,0,0,1.14,1.69l-2,3,7.17,4.72,2-3a13.82,13.82,0,0,0,2,.38l.74,3.56,8.41-1.73-.74-3.56a13.52,13.52,0,0,0,1.69-1.14l3,2,4.72-7.17-3-2a13.82,13.82,0,0,0,.38-2l3.56-.74-1.73-8.41-3.56.74a13.52,13.52,0,0,0-1.14-1.69l2-3-7.17-4.72-2,3a13.82,13.82,0,0,0-2-.38l-.74-3.56L501.49,443l.74,3.57a13.52,13.52,0,0,0-1.69,1.14l-3-2-4.72,7.17Zm6-1.18a8.65,8.65,0,1,1,2.47,12A8.65,8.65,0,0,1,501.84,453.69Z"/><path class="cls-7" d="M1700.32,890.32a28.33,28.33,0,0,0,2.43-3.56l7.53,1.59,3.75-17.76L1706.5,869a29.52,29.52,0,0,0-.78-4.24l6.44-4.19-9.91-15.21-6.44,4.19a28.33,28.33,0,0,0-3.56-2.43l1.59-7.53-17.76-3.75-1.59,7.53a29.52,29.52,0,0,0-4.24.78l-4.2-6.44-15.21,9.91,4.2,6.44a28.33,28.33,0,0,0-2.43,3.56l-7.53-1.59-3.75,17.76,7.53,1.59a29.52,29.52,0,0,0,.78,4.24l-6.44,4.2,9.91,15.21,6.44-4.19a28.33,28.33,0,0,0,3.56,2.43l-1.59,7.53,17.76,3.75,1.59-7.53a29.52,29.52,0,0,0,4.24-.78l4.19,6.44,15.21-9.91Zm-12.66-2.81A18.29,18.29,0,1,1,1693,862.2,18.3,18.3,0,0,1,1687.66,887.51Zm-60.74-54.82a18.85,18.85,0,0,0,1.53-2.24l4.74,1,2.36-11.17-4.74-1a19,19,0,0,0-.49-2.67l4-2.64-6.23-9.57-4.05,2.64a17.73,17.73,0,0,0-2.24-1.53l1-4.74-11.17-2.36-1,4.74a19,19,0,0,0-2.67.49l-2.64-4-9.57,6.23,2.64,4a17.73,17.73,0,0,0-1.53,2.24l-4.74-1-2.36,11.17,4.74,1A19,19,0,0,0,1595,826l-4,2.64,6.23,9.56,4-2.64a17.73,17.73,0,0,0,2.24,1.53l-1,4.74,11.17,2.36,1-4.74a19,19,0,0,0,2.67-.49L1620,843l9.56-6.23Zm-8-1.77a11.5,11.5,0,1,1,3.36-15.91A11.49,11.49,0,0,1,1619,830.92Z"/><path class="cls-6" d="M1022.61,179a26,26,0,1,0,26-26A26,26,0,0,0,1022.61,179Z"/><path class="cls-8" d="M1048.59,159.32a57.3,57.3,0,0,0-1.63,9.86,98.47,98.47,0,0,0-.37,9.86l2-2c-2.9,0-5.8.16-8.7.48a55.07,55.07,0,0,0-8.7,1.52,55.07,55.07,0,0,0,8.7,1.52c2.9.32,5.8.44,8.7.48l2,0,0-2a98.47,98.47,0,0,0-.37-9.86A57.14,57.14,0,0,0,1048.59,159.32Z"/><ellipse class="cls-6" cx="1562.74" cy="374.72" rx="34.07" ry="34.06" transform="translate(999.86 1879.96) rotate(-82.98)"/><path class="cls-9" d="M1563.53,380.81l9.57,16.46a2.46,2.46,0,1,0,4.25-2.48l-9.57-16.46a16.77,16.77,0,1,0-4.25,2.48Zm-16.46-9.58a11.87,11.87,0,1,1,16.23,4.29A11.9,11.9,0,0,1,1547.07,371.23Z"/><path class="cls-6" d="M300.35,837.69a37.55,37.55,0,1,0,37.55-37.55A37.55,37.55,0,0,0,300.35,837.69Z"/><path class="cls-10" d="M329.23,851.55v2h-.43V862H347v-8.42h-.43v-2a20.07,20.07,0,0,1,4.91-12.6,17.25,17.25,0,0,0,3.64-14.05A17.48,17.48,0,1,0,324.35,839,19.77,19.77,0,0,1,329.23,851.55Zm13.69,0v.74h-1.76c1.78-6.14,3.78-14.52,1.95-16.06a2.36,2.36,0,0,0-2.48-.34l-.3.14a2.57,2.57,0,0,0-2.26-1.31h0a3.11,3.11,0,0,0-2.4,1.27,2.58,2.58,0,0,0-1.87-.29,2.14,2.14,0,0,0-1.24,1c-1.49,2.69.81,11.22,2.13,15.55h-1.83v-.75a23.44,23.44,0,0,0-5.69-14.85,13.55,13.55,0,0,1-3.12-8.7,13.85,13.85,0,0,1,27.48-2.47,13.66,13.66,0,0,1-2.87,11.13A23.64,23.64,0,0,0,342.92,851.56Zm-6.31.74c-1.67-5.38-3.46-12.88-2.42-14.76a.41.41,0,0,1,.16-.18,1.41,1.41,0,0,1,.62.25,2.89,2.89,0,0,0,.47,2.57,1.44,1.44,0,0,0,1.48.35,1.53,1.53,0,0,0,1-2.09,4,4,0,0,0-.85-1.34,1.3,1.3,0,0,1,1.06-.65c.22,0,.44.24.55.4a2.65,2.65,0,0,1,.24.4,3.23,3.23,0,0,0-.75,1.78,1.34,1.34,0,0,0,.79,1.29,1.45,1.45,0,0,0,1.59-.19,2.59,2.59,0,0,0,.44-2.45,1.35,1.35,0,0,1,.33-.19c.35-.15.47,0,.56,0,.77,1-.71,8.12-2.63,14.78Z"/><path class="cls-11" d="M1306.09,273.72c1.46-1.8,56.3-51.71,56.3-51.71l9.63,6.16Z"/><polygon class="cls-12" points="1372.02 228.16 1384.18 257.85 1306.09 273.72 1372.02 228.16"/><polygon class="cls-13" points="1384.18 257.85 1306.09 273.72 1383.77 234.74 1384.18 257.85"/><polygon class="cls-11" points="1383.77 234.74 1306.09 273.72 1399.7 246.15 1383.77 234.74"/><path class="cls-11" d="M1676.23,733.14c-2-.38-67.32-2.62-67.32-2.62l-3,9.63Z"/><polygon class="cls-12" points="1605.95 740.15 1614.71 767.03 1676.23 733.14 1605.95 740.15"/><polygon class="cls-13" points="1614.71 767.03 1676.23 733.14 1601.81 751.27 1614.71 767.03"/><polygon class="cls-11" points="1601.81 751.27 1676.23 733.14 1597.61 768.03 1601.81 751.27"/><path class="cls-11" d="M719.44,167.32c-.7,1.39-6.1,21.89-6.1,21.89l-46.27,26.31Z"/><polygon class="cls-12" points="728.27 205.95 713.34 189.21 667.07 215.52 728.27 205.95"/><polygon class="cls-13" points="728.27 205.95 708.1 204.83 667.07 215.52 728.27 205.95"/><polygon class="cls-11" points="708.1 204.83 700.75 229.98 667.07 215.52 708.1 204.83"/><path class="cls-11" d="M187.38,669.31c1.71,1.34,20.77,24.06,20.77,24.06l74.25,5.71Z"/><polygon class="cls-12" points="199.23 723.46 208.15 693.38 282.39 699.08 199.23 723.46"/><polygon class="cls-13" points="199.23 723.46 224.1 710.02 282.39 699.08 199.23 723.46"/><polygon class="cls-11" points="224.1 710.02 248.39 737.47 282.39 699.08 224.1 710.02"/><path class="cls-14" d="M585,945.54h910.8a5.66,5.66,0,0,0,5.66-5.66V450.05a5.66,5.66,0,0,0-5.66-5.66H585a5.66,5.66,0,0,0-5.66,5.66V939.89A5.66,5.66,0,0,0,585,945.54Z"/><path class="cls-15" d="M568.67,922.72h910.8a5.66,5.66,0,0,0,5.66-5.66V427.22a5.66,5.66,0,0,0-5.66-5.66H568.67a5.66,5.66,0,0,0-5.66,5.66V917.06A5.65,5.65,0,0,0,568.67,922.72Z"/><path class="cls-6" d="M568.63,923.93h910.88a5.62,5.62,0,0,0,5.62-5.62V456.41H563v461.9A5.62,5.62,0,0,0,568.63,923.93Z"/><path class="cls-16" d="M622.52,438.69a5.46,5.46,0,1,0,5.46-5.46A5.46,5.46,0,0,0,622.52,438.69Z"/><path class="cls-17" d="M610.16,433.23a5.46,5.46,0,1,1-5.46,5.46A5.46,5.46,0,0,1,610.16,433.23Z"/><path class="cls-18" d="M592.35,433.23a5.46,5.46,0,1,1-5.46,5.46A5.46,5.46,0,0,1,592.35,433.23Z"/><path class="cls-19" d="M1427.43,600.49a89.67,89.67,0,1,0-6.08,32.47A89.22,89.22,0,0,0,1427.43,600.49Zm-37,0a51.81,51.81,0,0,1-3.69,19.35,52.59,52.59,0,0,1-49,33.31c-.45,0-.91,0-1.34,0a52.64,52.64,0,1,1,46.92-79A52,52,0,0,1,1390.38,600.49Z"/><path class="cls-20" d="M1337.72,690.17v-37c-.45,0-.91,0-1.34,0a52.61,52.61,0,0,1-34.13-91.5L1277.6,534a89.66,89.66,0,0,0,60.12,156.21Z"/><path class="cls-13" d="M1427.43,600.48a89.33,89.33,0,0,0-12.28-45.34l-31.85,19a52.62,52.62,0,0,1,3.41,45.71L1421.37,633A89.71,89.71,0,0,0,1427.43,600.48Z"/><path class="cls-11" d="M1415.15,555.14A89.69,89.69,0,0,0,1277.6,534l24.66,27.63a52.63,52.63,0,0,1,81,12.55Z"/><path class="cls-20" d="M891.69,533.91h292a10.86,10.86,0,0,1,10.86,10.86h0a10.86,10.86,0,0,1-10.86,10.86h-292a10.86,10.86,0,0,1-10.86-10.86h0A10.86,10.86,0,0,1,891.69,533.91Zm0,58.87h292a10.86,10.86,0,0,0,10.86-10.86h0a10.86,10.86,0,0,0-10.86-10.86h-292a10.86,10.86,0,0,0-10.86,10.86h0A10.85,10.85,0,0,0,891.69,592.78Zm0,37.14h292a10.86,10.86,0,0,0,10.86-10.86h0a10.86,10.86,0,0,0-10.86-10.86h-292a10.86,10.86,0,0,0-10.86,10.86h0A10.86,10.86,0,0,0,891.69,629.92Zm0,37.14h292a10.86,10.86,0,0,0,10.86-10.86h0a10.86,10.86,0,0,0-10.86-10.86h-292a10.86,10.86,0,0,0-10.86,10.86h0A10.86,10.86,0,0,0,891.69,667.06Z"/><path class="cls-20" d="M620.7,735.09v-.32a10.67,10.67,0,0,1,10.67-10.7H835.15a10.67,10.67,0,0,1,10.67,10.7v.33a10.7,10.7,0,0,1-10.7,10.7H631.4A10.71,10.71,0,0,1,620.7,735.09ZM835.13,761.2H631.41a10.7,10.7,0,0,0-10.7,10.7v.32a10.7,10.7,0,0,0,10.7,10.7H835.13a10.7,10.7,0,0,0,10.7-10.7v-.32A10.7,10.7,0,0,0,835.13,761.2ZM620.7,809v.32a10.7,10.7,0,0,0,10.7,10.7H835.12a10.7,10.7,0,0,0,10.7-10.7V809a10.7,10.7,0,0,0-10.7-10.7H631.4A10.69,10.69,0,0,0,620.7,809Zm10.87,48.16H835a10.86,10.86,0,0,0,10.86-10.86h0A10.86,10.86,0,0,0,835,835.48H631.57a10.86,10.86,0,0,0-10.86,10.86h0A10.85,10.85,0,0,0,631.57,857.2Z"/><path class="cls-20" d="M1236,866.15h184.14a8.11,8.11,0,0,0,8.11-8.11V725.82a8.11,8.11,0,0,0-8.11-8.11H1236a8.11,8.11,0,0,0-8.11,8.11V858A8.11,8.11,0,0,0,1236,866.15Z"/><g class="cls-21"><path class="cls-20" d="M840.18,703H626.35a5.65,5.65,0,0,1-5.65-5.65V525.26a5.65,5.65,0,0,1,5.65-5.65H840.18a5.65,5.65,0,0,1,5.65,5.65V697.35A5.65,5.65,0,0,1,840.18,703Z"/></g><g class="cls-21"><path class="cls-13" d="M682.77,680.87l108.48-56.69a18.75,18.75,0,0,1,18.87.87L911,690.17v18.62H682Z"/></g><g class="cls-21"><path class="cls-11" d="M610.5,661.61l72.39-58.45a18.75,18.75,0,0,1,22.7-.66L849.23,705.2H606.14Z"/></g><g class="cls-21"><circle class="cls-11" cx="760.77" cy="567.44" r="21.12"/></g><path class="cls-20" d="M1053.67,779.64h35.38a3.11,3.11,0,0,1,3.11,3.11v79.88a3.11,3.11,0,0,1-3.11,3.11h-35.38a3.11,3.11,0,0,1-3.11-3.11V782.75A3.11,3.11,0,0,1,1053.67,779.64Zm63.38-26.32h35.7a3,3,0,0,1,3,2.95V862.78a3,3,0,0,1-3,3h-35.7a3,3,0,0,1-3-3V756.28A3,3,0,0,1,1117.05,753.32ZM985.1,760.73V855.6a10.14,10.14,0,0,0,10.14,10.14h21.32a10.14,10.14,0,0,0,10.14-10.14V760.73a10.14,10.14,0,0,0-10.14-10.14H995.24A10.14,10.14,0,0,0,985.1,760.73Zm-34-55.32H929.79a10.14,10.14,0,0,0-10.14,10.14V855.6a10.14,10.14,0,0,0,10.14,10.14h21.32a10.14,10.14,0,0,0,10.14-10.14V715.55A10.14,10.14,0,0,0,951.11,705.41Z"/><path class="cls-6" d="M1306.09,827.82V756a7.23,7.23,0,0,1,11.2-6l54,35.44a7.23,7.23,0,0,1,.07,12l-54,36.34A7.23,7.23,0,0,1,1306.09,827.82Z"/><path class="cls-14" d="M1011.09,438.69H818.49a9.45,9.45,0,0,1-9.45-9.45V300.67a9.45,9.45,0,0,1,9.45-9.45h192.59a9.45,9.45,0,0,1,9.45,9.45V429.24A9.44,9.44,0,0,1,1011.09,438.69Z"/><path class="cls-6" d="M997.67,430.16H805.08a9.45,9.45,0,0,1-9.45-9.45V292.14a9.45,9.45,0,0,1,9.45-9.45H997.67a9.45,9.45,0,0,1,9.45,9.45V420.71A9.45,9.45,0,0,1,997.67,430.16Z"/><path class="cls-15" d="M1007.12,315.72H795.63V292a9.31,9.31,0,0,1,9.31-9.31H997.81a9.31,9.31,0,0,1,9.31,9.31Z"/><path class="cls-16" d="M819.29,300.43a3.42,3.42,0,1,1-3.42-3.42A3.42,3.42,0,0,1,819.29,300.43Z"/><path class="cls-17" d="M834.48,300.43a3.42,3.42,0,1,1-3.42-3.42A3.42,3.42,0,0,1,834.48,300.43Z"/><path class="cls-18" d="M849.66,300.43a3.42,3.42,0,1,1-3.42-3.42A3.42,3.42,0,0,1,849.66,300.43Z"/><path class="cls-20" d="M812.05,405.42H990.7a.87.87,0,0,1,.87.87v4.43a.87.87,0,0,1-.87.87H812.05a.87.87,0,0,1-.87-.87v-4.43A.87.87,0,0,1,812.05,405.42Z"/><path class="cls-22" d="M812.05,388.52H990.7a.87.87,0,0,1,.87.87v4.43a.87.87,0,0,1-.87.87H812.05a.87.87,0,0,1-.87-.87v-4.43A.87.87,0,0,1,812.05,388.52Z"/><path class="cls-22" d="M812.05,371.62H990.7a.87.87,0,0,1,.87.87v4.43a.87.87,0,0,1-.87.87H812.05a.87.87,0,0,1-.87-.87v-4.43A.86.86,0,0,1,812.05,371.62Z"/><path class="cls-22" d="M942.34,345.79A19.37,19.37,0,1,1,923,326.42,19.37,19.37,0,0,1,942.34,345.79Zm28.92-19.37a19.37,19.37,0,1,0,19.37,19.37A19.37,19.37,0,0,0,971.26,326.42Z"/><path class="cls-14" d="M1083.7,1019.51H891.11a9.45,9.45,0,0,1-9.45-9.45V881.49a9.45,9.45,0,0,1,9.45-9.45H1083.7a9.45,9.45,0,0,1,9.45,9.45v128.57A9.45,9.45,0,0,1,1083.7,1019.51Z"/><path class="cls-6" d="M1071.71,1019.51H879.12a9.45,9.45,0,0,1-9.45-9.45V881.49a9.45,9.45,0,0,1,9.45-9.45h192.59a9.45,9.45,0,0,1,9.45,9.45v128.57A9.45,9.45,0,0,1,1071.71,1019.51Z"/><path class="cls-15" d="M1081.16,905.07H869.67V881.35A9.31,9.31,0,0,1,879,872h192.87a9.31,9.31,0,0,1,9.31,9.31Z"/><path class="cls-16" d="M893.33,889.78a3.42,3.42,0,1,1-3.42-3.42A3.42,3.42,0,0,1,893.33,889.78Z"/><path class="cls-17" d="M908.51,889.78a3.42,3.42,0,1,1-3.42-3.42A3.42,3.42,0,0,1,908.51,889.78Z"/><path class="cls-18" d="M923.7,889.78a3.42,3.42,0,1,1-3.42-3.42A3.42,3.42,0,0,1,923.7,889.78Z"/><path class="cls-20" d="M886.09,994.77h178.65a.87.87,0,0,1,.87.87v4.43a.87.87,0,0,1-.87.87H886.09a.87.87,0,0,1-.87-.87v-4.43A.86.86,0,0,1,886.09,994.77Z"/><path class="cls-20" d="M886.09,977.86h178.65a.87.87,0,0,1,.87.87v4.43a.87.87,0,0,1-.87.87H886.09a.87.87,0,0,1-.87-.87v-4.43A.87.87,0,0,1,886.09,977.86Z"/><path class="cls-18" d="M886.09,961h178.65a.87.87,0,0,1,.87.87v4.43a.87.87,0,0,1-.87.87H886.09a.87.87,0,0,1-.87-.87v-4.43A.87.87,0,0,1,886.09,961Z"/><circle class="cls-22" cx="1049.34" cy="937.65" r="16.27"/><path class="cls-22" d="M1020.9,937.65a16.27,16.27,0,1,1-16.27-16.27A16.27,16.27,0,0,1,1020.9,937.65Z"/><circle class="cls-17" cx="959.92" cy="937.65" r="16.27"/><path class="cls-14" d="M592.57,711.53H400a9.45,9.45,0,0,1-9.45-9.45V573.51a9.45,9.45,0,0,1,9.45-9.45H592.57a9.45,9.45,0,0,1,9.45,9.45V702.08A9.45,9.45,0,0,1,592.57,711.53Z"/><path class="cls-6" d="M580.57,703.39H388a9.45,9.45,0,0,1-9.45-9.45V565.37a9.45,9.45,0,0,1,9.45-9.45H580.57a9.45,9.45,0,0,1,9.45,9.45V693.94A9.45,9.45,0,0,1,580.57,703.39Z"/><path class="cls-15" d="M590,589H378.53V565.23a9.31,9.31,0,0,1,9.31-9.31H580.71a9.31,9.31,0,0,1,9.31,9.31V589Z"/><path class="cls-16" d="M402.19,573.66a3.42,3.42,0,1,1-3.42-3.42A3.42,3.42,0,0,1,402.19,573.66Z"/><path class="cls-17" d="M417.38,573.66a3.42,3.42,0,1,1-3.42-3.42A3.42,3.42,0,0,1,417.38,573.66Z"/><path class="cls-18" d="M432.56,573.66a3.42,3.42,0,1,1-3.42-3.42A3.42,3.42,0,0,1,432.56,573.66Z"/><path class="cls-20" d="M395,678.64H573.6a.87.87,0,0,1,.87.87v4.43a.87.87,0,0,1-.87.87H395a.87.87,0,0,1-.87-.87v-4.43A.88.88,0,0,1,395,678.64Z"/><path class="cls-20" d="M395,661.74H573.6a.87.87,0,0,1,.87.87V667a.87.87,0,0,1-.87.87H395a.87.87,0,0,1-.87-.87v-4.43A.88.88,0,0,1,395,661.74Z"/><path class="cls-18" d="M395,644.84H573.6a.87.87,0,0,1,.87.87v4.42a.87.87,0,0,1-.87.87H395a.87.87,0,0,1-.87-.87v-4.42A.88.88,0,0,1,395,644.84Z"/><circle class="cls-22" cx="558.2" cy="621.53" r="16.27"/><circle class="cls-22" cx="513.49" cy="621.53" r="16.27" transform="translate(-198.76 243.82) rotate(-22.5)"/><circle class="cls-17" cx="468.78" cy="621.53" r="16.27"/><path class="cls-12" d="M668.89,902c-33.6-32.66-10-69.08-33.81-91.34-8.49-7.92-20.87-8.91-31.54-5.57-48.66,15.24-82.75,66.39-82.75,118.65,0,29.6,7.63,74.48,26,95.79H750.9c12.32-15.63,24.66-42.93,30.1-67.4C786.39,927.92,722.67,954.25,668.89,902Z"/><path class="cls-11" d="M585.93,910c-19.95-29.53-18.75-83.56,14.26-103.82-46.86,16.5-79.39,66.47-79.39,117.53,0,29.6,7.63,74.48,26,95.79H750.91c12.57-12.46,25.36-43.48,30.1-67.4C759.32,959.8,635.58,983.51,585.93,910Z"/><path class="cls-23" d="M769.2,936.11c13.79-1.36,22.5.47,21.95,6.37-.83,9-31.9,10.92-36.62,2.15C752.81,941.43,754.72,937.54,769.2,936.11Z"/><path class="cls-24" d="M663.8,916.73c-8,22.87-5.74,31,12.69,37.23,10.79,3.63,40.07,4.32,60.55,3,52.94-3.3,43.11-36.86,16.21-35.31-5.48.32-11,4.32-23.79.89S698,912.79,698,912.79Z"/><path class="cls-25" d="M686.47,838.36c-3.92.72-8.23,5.21-8.81,9.15-2.52,17,.59,59.38,3.76,65.09,4.35,7.85,53.08,11.22,57.57,11.54,2.83.2,6.79-1.14,9.32-2.15a7.51,7.51,0,0,1,5.14-.17c3.46,1.13,6.51,1,7.79.31,1.86-1-7.7-7.83-12.29-8.73-2.68-.53-10.69,1.09-13.14,2-2,.77-36.14-8.68-39.67-14.31-3.08-4.92,1.55-45.54-.77-56.18C693.12,834.58,686.47,838.36,686.47,838.36Z"/><path class="cls-8" d="M692.45,827.7c-15.85-.61-18.68,32-18.68,32,6,4.52,14.63,6.2,24.63,6.42C697.92,858,706.73,828.25,692.45,827.7Z"/><path class="cls-26" d="M726.4,926.38s43.74,5.3,50.78,11.73c2.49,2.28,4.24,11.95-3.1,13.27-30.67,5.53-49.2,6.21-49.2,6.21Z"/><path class="cls-5" d="M741.58,939.11c0,21.21-27.56,20.61-43,20.61s-59.34,3-57.5-38c1.4-31,40.11,3.94,55.51,3.94S741.58,922.2,741.58,939.11Z"/><path class="cls-8" d="M694.48,829.6c-12.23-10.41-46.81-10.86-53.83,21.08-11.61,52.79-3.34,68.82-3.34,68.82,21,4.93,68.89,10.41,83.07,2.16,0,0-10.79-13.11-14.48-34.18C702.92,870.39,704.37,838,694.48,829.6Z"/><path class="cls-25" d="M650,838.36c-3.92.72-8.23,5.21-8.81,9.15-2.51,17,.59,59.38,3.76,65.09,4.35,7.85,53.08,11.22,57.57,11.54,2.83.2,6.79-1.14,9.32-2.15a7.51,7.51,0,0,1,5.14-.17c3.46,1.13,6.51,1,7.79.31,1.86-1-7.7-7.83-12.29-8.73-2.68-.53-10.69,1.09-13.14,2-2,.77-36.14-8.68-39.67-14.31-3.08-4.92,1.55-45.54-.77-56.18C656.66,834.58,650,838.36,650,838.36Z"/><path class="cls-8" d="M656,827.7c-15.85-.61-18.68,32-18.68,32,6,4.52,14.63,6.2,24.63,6.42C661.46,858,670.27,828.25,656,827.7Z"/><path class="cls-25" d="M668.84,812.52s-1,3.71,0,13.22c.27,2.56,14.47,8.1,12.76,1.83-2.19-8-1.61-11.57-1.93-11.53Z"/><path class="cls-25" d="M666.66,805.56a6,6,0,0,1,.25,1.11,18,18,0,0,0,2.83,7.85,10.25,10.25,0,0,0,7.42,4.54,10.11,10.11,0,0,0,7.39-2.84,17.26,17.26,0,0,0,4.28-6.84c1.46-4,3.13-9,.81-12.54-1.12-1.72-7-4.57-11.15-6.45a6.37,6.37,0,0,0-7.37,1.59L667,796.56a6.37,6.37,0,0,0-1.29,6.25Z"/><path class="cls-27" d="M670.8,805.76c-2.89-9.45-6.33-1.8-2.71,3.1a8.26,8.26,0,0,0,.82,4.3c-2.21-1.41-2.89-1.6-6-5.5s-7.08-20.57,4.43-24.84c12.39-16.17,30.07,8.52,32.86,7.25-.13,3.3-2.88,10.13-9.72,10.92-3,.34-9,1-11.69-.18C673.44,798.54,671.18,807,670.8,805.76Z"/><path class="cls-11" d="M777.31,926.38H724a1.88,1.88,0,1,1,0-3.76l9.51-50.28s51.81-.21,52.84,0a1.88,1.88,0,0,1,1.47,2.22Z"/><path class="cls-22" d="M724.47,926.38h-53.3a1.88,1.88,0,1,1,0-3.76h50.22l9.91-48.81a1.88,1.88,0,1,1,3.69.75Z"/><path class="cls-23" d="M712.17,948.13c13.9.57,24.17,2.44,22.72,7.61-1.92,6.86-37.26,9.08-37.15,1.08C697.81,952.23,697.63,947.53,712.17,948.13Z"/><path class="cls-22" d="M1557.85,1019.51h-151a1.93,1.93,0,0,1-1.93-1.93v-176a1.93,1.93,0,0,1,1.93-1.93h151a1.93,1.93,0,0,1,1.93,1.93v176A1.94,1.94,0,0,1,1557.85,1019.51Z"/><path class="cls-11" d="M1547.77,898.71H1416.9a1.93,1.93,0,0,1-1.93-1.93V852.62a1.93,1.93,0,0,1,1.93-1.93h130.87a1.93,1.93,0,0,1,1.93,1.93v44.16A1.94,1.94,0,0,1,1547.77,898.71Z"/><path class="cls-11" d="M1547.77,953.62H1416.9a1.93,1.93,0,0,1-1.93-1.93V907.53a1.93,1.93,0,0,1,1.93-1.93h130.87a1.93,1.93,0,0,1,1.93,1.93v44.16A1.94,1.94,0,0,1,1547.77,953.62Z"/><path class="cls-11" d="M1547.77,1008.52H1416.9a1.93,1.93,0,0,1-1.93-1.93V962.43a1.93,1.93,0,0,1,1.93-1.93h130.87a1.93,1.93,0,0,1,1.93,1.93v44.16A1.93,1.93,0,0,1,1547.77,1008.52Z"/><path class="cls-28" d="M1510.92,986.69c6.08-14.84,12.21-29.85,14.72-45.69s1.09-32.84-7.14-46.6a17.13,17.13,0,0,0-4.16-5,7.42,7.42,0,0,0-6.19-1.49c-2.7.72-4.46,3.28-5.69,5.79-6.66,13.48-4.88,29.57-1.17,44.14s9.23,28.92,9.61,44"/><g class="cls-29"><path class="cls-30" d="M1512.94,984.22a1.5,1.5,0,0,0,1.5-1.41,388,388,0,0,0-3.46-80.65,1.51,1.51,0,0,0-1.7-1.26,1.49,1.49,0,0,0-1.26,1.7,384.74,384.74,0,0,1,3.43,80,1.5,1.5,0,0,0,1.41,1.59Z"/></g><path class="cls-8" d="M1515.44,986.84c-3.6-10.35-2.79-21.62-3.19-32.56s-2.48-22.69-10.29-30.36a17.44,17.44,0,0,0-7.88-4.7,10.73,10.73,0,0,0-8.86,1.51c-3.4,2.52-4.54,7.1-4.77,11.33-.65,11.91,4.11,23.61,11,33.33s15.91,17.73,24.85,25.63"/><g class="cls-29"><path class="cls-30" d="M1514.84,989.77a1.5,1.5,0,0,0,1.46-2.44,104.31,104.31,0,0,1-24.32-57,1.5,1.5,0,1,0-3,.3,107.42,107.42,0,0,0,25,58.64A1.6,1.6,0,0,0,1514.84,989.77Z"/></g><path class="cls-31" d="M1514.11,987.84c5.88-1.81,10.77-5.91,15-10.35a88.87,88.87,0,0,0,18.88-30,33.14,33.14,0,0,0,2.52-11.23,14.89,14.89,0,0,0-3.83-10.6c-4.07-4.13-11-4.56-16.15-1.94s-8.74,7.72-10.72,13.18-2.54,11.3-3.09,17.07q-1.42,15-2.86,30.08"/><g class="cls-29"><path class="cls-30" d="M1512.82,984.73a1.51,1.51,0,0,0,1-.41,85.93,85.93,0,0,0,25-46,1.5,1.5,0,0,0-2.94-.56,83,83,0,0,1-24.1,44.34,1.5,1.5,0,0,0,1,2.58Z"/></g><polygon class="cls-5" points="1501.61 1019.64 1529.29 1019.64 1539.23 981.66 1491.67 981.66 1501.61 1019.64"/><rect class="cls-22" x="1489.66" y="977.69" width="51.59" height="12.47"/><path class="cls-9" d="M503.81,878.35a45,45,0,0,0-45,45c0,7.74,3.18,16.34,5.4,21.39C471,960.09,489.4,997,499,1016.08a6.36,6.36,0,0,0,11.47-.2c8.7-19,25.4-55.38,32.94-71.17,3.12-6.53,5.4-13.65,5.4-21.39A45,45,0,0,0,503.81,878.35Zm0,66.29a21.31,21.31,0,1,1,21.31-21.31A21.31,21.31,0,0,1,503.81,944.64Z"/><path class="cls-14" d="M760.29,572.18h68.32a9.73,9.73,0,0,1,9.73,9.73v46.41a9.73,9.73,0,0,1-9.73,9.73h-5L834.38,649l-28-10.91H760.29a9.73,9.73,0,0,1-9.73-9.73V581.91A9.74,9.74,0,0,1,760.29,572.18Z"/><path class="cls-6" d="M747.81,632.92H828a3.79,3.79,0,0,0,3.79-3.79V570.85a3.79,3.79,0,0,0-3.79-3.79H747.81a3.79,3.79,0,0,0-3.79,3.79v58.28A3.79,3.79,0,0,0,747.81,632.92Z"/><polyline class="cls-6" points="813.86 629.62 827.83 643.83 791.42 629.62"/><path class="cls-20" d="M822.26,589.16H753.54a2.56,2.56,0,0,1,0-5.12h68.72a2.56,2.56,0,0,1,0,5.12ZM824.83,600a2.56,2.56,0,0,0-2.56-2.56H753.55a2.56,2.56,0,0,0,0,5.12h68.72A2.55,2.55,0,0,0,824.83,600Zm0,13.39a2.56,2.56,0,0,0-2.56-2.56H753.55a2.56,2.56,0,0,0,0,5.12h68.72A2.55,2.55,0,0,0,824.83,613.37Z"/><path class="cls-14" d="M1328.2,815.1h-68.32a9.73,9.73,0,0,0-9.73,9.73v46.41a9.73,9.73,0,0,0,9.73,9.73h5l-10.73,10.91,28-10.91h46.12a9.73,9.73,0,0,0,9.73-9.73V824.82A9.73,9.73,0,0,0,1328.2,815.1Z"/><path class="cls-6" d="M1328.43,875.59h-80.19a3.79,3.79,0,0,1-3.79-3.79V813.52a3.79,3.79,0,0,1,3.79-3.79h80.19a3.79,3.79,0,0,1,3.79,3.79V871.8A3.77,3.77,0,0,1,1328.43,875.59Z"/><polyline class="cls-6" points="1262.38 872.3 1248.41 886.51 1284.82 872.3"/><path class="cls-20" d="M1251.42,829.28a2.56,2.56,0,0,1,2.56-2.56h68.72a2.56,2.56,0,1,1,0,5.12H1254A2.56,2.56,0,0,1,1251.42,829.28Zm2.56,16h68.72a2.56,2.56,0,1,0,0-5.12H1254a2.56,2.56,0,1,0,0,5.12Zm0,13.38h68.72a2.56,2.56,0,1,0,0-5.12H1254a2.56,2.56,0,1,0,0,5.12Z"/><path class="cls-12" d="M826.4,1019.51a3.06,3.06,0,0,1-.79-.1,3.27,3.27,0,0,1-2.39-4L913.44,652a3.28,3.28,0,0,1,6.36,1.58L829.58,1017A3.27,3.27,0,0,1,826.4,1019.51Z"/><path class="cls-12" d="M898.32,1019.51a3.06,3.06,0,0,1-.79-.1,3.27,3.27,0,0,1-2.39-4L985.36,652a3.28,3.28,0,0,1,6.36,1.58L901.5,1017A3.27,3.27,0,0,1,898.32,1019.51Z"/><path class="cls-12" d="M912.64,957.15l-71.44-.25,0-6.55,71.44.25Zm11.46-46.28-71.44-.25,0-6.55,71.44.25Zm11.46-46.28-71.44-.25,0-6.55,71.44.25ZM947,818.31l-71.44-.25,0-6.55,71.44.25ZM958.47,772,887,771.78l0-6.55,71.44.25Zm11.46-46.28-71.44-.25,0-6.55,71.44.25Zm11.45-46.28-71.44-.25,0-6.55,71.44.25Z"/><path class="cls-25" d="M933.65,702.91c4.39-1.76,6.73-6.45,11.32-5.78,2.52.37,1.47,7.68-2.34,11.66-.9.94-8,3.13-8,3.13Z"/><polygon class="cls-23" points="900.56 851.48 913.72 850.43 912.89 854.94 929.51 863.06 896.92 860.75 900.56 851.48"/><polygon class="cls-23" points="858.31 896.82 871.47 895.77 870.64 900.29 887.26 908.4 854.67 906.09 858.31 896.82"/><path class="cls-10" d="M936.81,699.15s-18.25,8.12-28.22,8.12c-6.76,0-13.15-36.24-27.53-36.24-1.41,8.82.78,16.7-1.71,25.29,5.34,13.65,13.57,28.73,21,30.73,8.28,2.25,36.49-14.78,36.49-14.78V699.15Z"/><path class="cls-5" d="M903,743.34c-13.74,4.09-32.16,11.75-46.53,12,0,3.2,0,6.34,0,8.76-.12,15.22,18.25,75.46,18.25,75.46l-18,58,15.13,1.09,25.25-56.47s-1.24-30.93-5.8-63c5.92,5.13,28,20.72,31,23.54-3.18,8.63-23.35,50-23.35,50l16.58.87s32.23-51.55,31.89-57.13C937.43,778.08,910.39,750.32,903,743.34Z"/><path class="cls-10" d="M894.57,717.72c-2.59.88-6.06-1.05-5-4.4,4.32-13.62,1.35-34.7-6-40.63-7.9-6.38-19.26-4.92-28.25-2.61-24.17,16.43-11.49,90.77-3.62,114,32.12-7,46.48-11,64.6-28.63C912.54,743.46,893.27,728.36,894.57,717.72Z"/><path class="cls-32" d="M886.91,735.94c-31.58,1.09-32.58-24-45.33-30.38.53,4.21-.15,27,10.56,43.65,5,7.69,56.33,6.61,63.59,4.79-2.08-5.14-6.61-10.75-11-16.3C898.86,737.5,893,735.74,886.91,735.94Z"/><path class="cls-25" d="M869.61,660.75c-.06,4.53-.29,5-1.13,7.59,2.76,3.84,7.74,7.46,9.56,7.1s-.36-3.33-.36-3.66c0-3.95.78-5.74,1.71-9.58"/><path class="cls-11" d="M938.5,628.12l98.83,18.1a2.7,2.7,0,0,1,2.17,3.15l-20.33,111a2.7,2.7,0,0,1-3.15,2.17l-98.83-18.1a2.7,2.7,0,0,1-2.17-3.15l20.33-111A2.7,2.7,0,0,1,938.5,628.12Z"/><path class="cls-25" d="M889.15,644.89c-.13,10.14-6.31,26.31-16.71,19a27.89,27.89,0,0,1-11.29-19.1S879.32,619.91,889.15,644.89Z"/><path class="cls-25" d="M918.79,738.45c4.72.3,8.68-2.5,11.42-.94s9.45,9.78-3.65,9.47-10.81,0-10.81,0Z"/><path class="cls-10" d="M861.94,671c-3.14-4.08-13-.27-16.31,4.43C833,693.24,848.46,733.14,851,739c5.62,12.77,67.68,9.94,67.68,9.94l3.48-11.31s-48-6.17-53.71-10.37C866.25,725.63,873,685.48,861.94,671Z"/><path class="cls-27" d="M900.3,634.8a4.52,4.52,0,0,0-6.56-.37,3.65,3.65,0,0,0-5.45-4.84c.51-1.64-1.19-3.29-2.9-3.42s-3.32.76-4.8,1.62a4.13,4.13,0,0,0-7.2-1.65,2.21,2.21,0,0,0-1.83-2.16,5.09,5.09,0,0,0-3,.46,8.84,8.84,0,0,0-4.4,3.35,4.62,4.62,0,0,0,.14,5.27,2.14,2.14,0,0,0-2.84-.39,3.49,3.49,0,0,0-1.4,2.72,10.06,10.06,0,0,0,.44,3.12,2.75,2.75,0,0,0-3.8-.65,4.2,4.2,0,0,0-1.61,3.8,9.11,9.11,0,0,0,1.52,4,38.62,38.62,0,0,1,2.23,3.7c-3,7.49,8.84,11.45,11,12.51,1.63-.82,1-6.17.84-6.47-3.91-5.77,2.78-11,2.66-1.92,0,0,.6,2.67,1.94-2.08,0,0,1.09-5.3,11.13-4,.17,0,.32,0,.49,0a2.94,2.94,0,0,0,1.15.53,3.21,3.21,0,0,0,2.8-.89,10.78,10.78,0,0,0,1.25-.38,7.47,7.47,0,0,0,3.63.86,4.68,4.68,0,0,0,3.81-2.14,3.33,3.33,0,0,0-.61-4.14A4.52,4.52,0,0,0,900.3,634.8Z"/><polygon class="cls-23" points="1391.16 929.79 1398.17 914.6 1424.35 911.67 1406.02 925.66 1399.92 932.97 1391.16 929.79"/><polygon class="cls-23" points="1416.73 932.17 1423.75 916.98 1449.92 924.77 1431.59 928.04 1425.49 935.35 1416.73 932.17"/><path class="cls-24" d="M1362.76,985c7.19-24.41,9.68-37,26.46-56.07,2.24-2.55,14.68-.64,16.63,2.14-18.58,26-22.23,81.62-30.78,85.74s-72.18-.57-104.56-.25c3.85,0,23.92-25.76,24-28.38C1295.18,962.24,1348,978.65,1362.76,985Z"/><path class="cls-5" d="M1379.35,997.27c7.19-24.41,18-47.58,34.74-66.71,2.24-2.55,15.43-2,17.38.77-18.58,26-22.65,83.1-31.21,87.21s-72.78,1.21-105.16,1.53c3.85,0-1.1-29.33-.61-31.91C1299.25,962.85,1364.64,990.93,1379.35,997.27Z"/><path class="cls-25" d="M1203.37,970.29c3.92.72,6.28,5.06,5.85,9-2,18.46-.84,31.32-13.83,37.62-8.08,3.92-59.87,1.5-64.35,1.82-2.83.2-6.79-1.14-9.32-2.15a7.51,7.51,0,0,0-5.14-.17c-3.46,1.13-6.51,1-7.79.31-1.86-1,7.7-7.83,12.3-8.73,2.68-.53,10.69,1.09,13.14,2,2,.77,42.89-1,48.91-3.86,7.89-3.7,7.22-13.88,13.56-26C1201.61,970.81,1203.37,970.29,1203.37,970.29Z"/><path class="cls-9" d="M1205.68,968.09c12,4.18-1.34,28.48-1.34,28.48-5.8,1.63-10.73-1.51-18.28-4.27C1188.81,986.35,1194.84,964.32,1205.68,968.09Z"/><path class="cls-9" d="M1207.74,1009.62c-11.23-6.35-21.6-44.78,10.08-49.83,22.15-3.54,31.83,9.25,48.09,15.25,22.91,8.45,34.45,2.25,34.45,2.25,5.16,21,8.63,33.41-3.69,43.05,0,0-9.35-1.54-35.65-.35C1243.68,1020.78,1228.25,1021.23,1207.74,1009.62Z"/><path class="cls-25" d="M1231.69,969.54c3.92.72,6.6,5.11,5.85,9-3.83,20-5,29.76-20.23,39.43-7.57,4.82-53.46-.31-58,0-2.83.2-6.79-1.14-9.32-2.15a7.51,7.51,0,0,0-5.14-.17c-3.46,1.13-6.51,1-7.79.31-1.86-1,7.7-7.83,12.29-8.73,2.68-.53,10.69,1.09,13.14,2,2,.77,38.25,1.42,44.27-1.4,7.89-3.7,8.52-18.22,14.85-30.32C1226.58,968.17,1231.69,969.54,1231.69,969.54Z"/><path class="cls-9" d="M1233.14,966.15c15,5.2,1.75,36,1.75,36-7.23,2-12.91-1-22.3-4.42C1216,990.35,1219.64,961.46,1233.14,966.15Z"/><path class="cls-25" d="M1210,952.21s1.41,2.35,4.19,10.6c1.86,5.53-9.29,16.8-10,6.48-.57-8.3-2.11-8.49-1.82-8.61Z"/><path class="cls-25" d="M1212.15,945.56a6.09,6.09,0,0,0,.1,1.13A17.93,17.93,0,0,1,1212,955a10.24,10.24,0,0,1-5.67,6.59,10.09,10.09,0,0,1-7.91-.44,17.28,17.28,0,0,1-6.17-5.2c-2.61-3.36-5.73-7.58-4.61-11.69.54-2,5.24-6.49,8.64-9.55a6.38,6.38,0,0,1,7.5-.75l5.28,3.11a6.39,6.39,0,0,1,3.15,5.55Z"/><path class="cls-27" d="M1208.2,946.79c-.15-9.88,5.47-3.66,3.53,2.12a8.31,8.31,0,0,1,.54,4.35c1.68-2,2.26-2.4,4-7.07s.44-21.75-11.83-22.29c-16.75-11.6-26,17.32-29,17,1.13,3.1,5.84,8.76,12.6,7.42,2.93-.58,8.82-1.79,11.08-3.75C1203.46,940.72,1208.22,948.1,1208.2,946.79Z"/><path class="cls-11" d="M1075.1,1019.51h53.3a1.89,1.89,0,0,0,0-3.77l-9.51-50.28s-51.81-.21-52.84,0a1.88,1.88,0,0,0-1.47,2.22Z"/><path class="cls-22" d="M1127.94,1019.51h53.3a1.89,1.89,0,1,0,0-3.77H1131l-9.91-48.81a1.88,1.88,0,1,0-3.69.75Z"/><path class="cls-27" d="M1203.7,925.16a27.19,27.19,0,0,1,8.63-16.19,21.52,21.52,0,0,1,17.35-5.23A17.85,17.85,0,0,1,1243.51,915c2.59,7.41-.39,16.06,2.88,23.19,2,4.32,5.94,7.34,9.35,10.65s6.56,7.61,6.13,12.35c-.51,5.59-6.26,9.7-11.87,9.73s-10.81-3.19-14.63-7.31-6.56-9.53-5.62-15c1-5.83,6-10.37,6.94-16.21,1-6.57-3.94-13.24-10.36-15s-15.88,3.62-20.31,8.58"/><path class="cls-20" d="M1458,803.61l0-7.82c0-12-4.76-24.25-13.76-35.29a48.27,48.27,0,0,1-10.19-39.35,49,49,0,1,1,86.12,39.49c-8.92,10.85-13.64,23-13.64,35.14l.1,7.83Z"/><path class="cls-6" d="M1490.15,801.21c.06-1.16.12-2.32.14-3.48,0-1,11.15-38.28,7-45.82a5.86,5.86,0,0,0-3.47-2.89,7.17,7.17,0,0,0-5.25.81,8.71,8.71,0,0,0-6.71-3.55h0a7.16,7.16,0,0,0-6.34,3.66,8,8,0,0,0-.84-.4,6.59,6.59,0,0,0-7,1c-5.07,4.28,6.34,45.77,6.34,46.79v3.94h16.12Zm-19-47.14c.26-.21.58-.51,1.56-.08a5.39,5.39,0,0,1,.92.54c-.54,2.5-.49,5.33,1.22,6.87a4,4,0,0,0,4.45.53,3.72,3.72,0,0,0,2.2-3.62,9.08,9.08,0,0,0-2.1-5,7,7,0,0,1,.66-1.12c.31-.43.93-1.14,1.55-1.11a3.7,3.7,0,0,1,3,1.82,11.09,11.09,0,0,0-2.37,3.75,4.28,4.28,0,0,0,2.86,5.85,4.07,4.07,0,0,0,4.14-1c1.63-1.64,1.88-4.57,1.33-7.2a4,4,0,0,1,1.73-.71,1.06,1.06,0,0,1,.44.5c2.93,5.28-2.08,26.28-6.77,41.36h-7.41C1473.12,776.83,1469,756.9,1471.14,754.07Z"/><path class="cls-5" d="M1453,807.65h0a6.44,6.44,0,0,0,6.44,6.44h45.76a6.44,6.44,0,0,0,6.44-6.44h0a6.44,6.44,0,0,0-6.44-6.44h-45.76A6.44,6.44,0,0,0,1453,807.65Z"/><path class="cls-5" d="M1453,820.52h0a6.44,6.44,0,0,0,6.44,6.44h45.76a6.44,6.44,0,0,0,6.44-6.44h0a6.44,6.44,0,0,0-6.44-6.44h-45.76A6.44,6.44,0,0,0,1453,820.52Z"/><path class="cls-5" d="M1453,833.39h0a6.44,6.44,0,0,0,6.44,6.44h45.76a6.44,6.44,0,0,0,6.44-6.44h0a6.44,6.44,0,0,0-6.44-6.44h-45.76A6.44,6.44,0,0,0,1453,833.39Z"/><path class="cls-12" d="M438.26,514.28a11.22,11.22,0,1,0,11.22-11.22A11.22,11.22,0,0,0,438.26,514.28Z"/><circle class="cls-12" cx="1680.66" cy="540.98" r="12.17"/><circle class="cls-12" cx="1244.04" cy="217.87" r="11.73"/><path class="cls-12" d="M1626.09,939.3a8.25,8.25,0,1,0,8.25-8.25A8.25,8.25,0,0,0,1626.09,939.3Z"/><path class="cls-12" d="M141,883.12a8.25,8.25,0,1,0,8.25-8.25A8.25,8.25,0,0,0,141,883.12Z"/><circle class="cls-12" cx="691.92" cy="303.31" r="9.77"/><circle class="cls-12" cx="441.89" cy="274.17" r="8.38"/><circle class="cls-12" cx="1088.46" cy="364.17" r="8.38"/><circle class="cls-12" cx="291.97" cy="972.1" r="8.38"/><circle class="cls-12" cx="1594.67" cy="682.82" r="8.38"/><circle class="cls-12" cx="1455.93" cy="372.55" r="8.38"/></svg>