<svg xmlns="http://www.w3.org/2000/svg" xmlns:xlink="http://www.w3.org/1999/xlink" viewBox="0 0 1920 1080"><defs><style>.cls-1,.cls-4,.cls-5{fill:none;}.cls-2{isolation:isolate;}.cls-3{opacity:0.29;}.cls-4{stroke:#4e01d4;}.cls-4,.cls-5{stroke-linecap:round;stroke-miterlimit:10;stroke-width:0.95px;stroke-dasharray:4.51;}.cls-5{stroke:#fff;}.cls-6,.cls-7{fill:#fff;}.cls-6{opacity:0.63;}.cls-8{fill:#00ebd5;}.cls-9{fill:#ff7171;}.cls-10,.cls-34{fill:#f7c90b;}.cls-11{fill:#fcb6e1;}.cls-12{fill:#d35e8d;}.cls-13{fill:#e09bc6;}.cls-14{fill:#cbc2ff;opacity:0.5;}.cls-14,.cls-31,.cls-34{mix-blend-mode:multiply;}.cls-15{fill:#efcee3;}.cls-16{fill:#ff005c;}.cls-17{fill:#ffc136;}.cls-18{fill:#00ead9;}.cls-19,.cls-20{fill:#ffebf7;}.cls-19{opacity:0.45;}.cls-21{clip-path:url(#clip-path);}.cls-22{fill:#740646;}.cls-23{fill:#f792d0;}.cls-24{fill:#11025f;}.cls-25{fill:#3700bf;}.cls-26{fill:#ffccec;}.cls-27{fill:#430cbc;}.cls-28{fill:#4e01d4;}.cls-29{fill:#3f00c3;}.cls-30{fill:#16d6cc;}.cls-31{opacity:0.35;}.cls-32{fill:#60c6bc;}.cls-33{fill:#51f4e0;}.cls-34{opacity:0.47;}</style><clipPath id="clip-path"><rect class="cls-1" x="599.63" y="469.24" width="225.13" height="183.39" rx="5.65"/></clipPath></defs><g class="cls-2"><g id="OBJECT"><g class="cls-3"><path class="cls-4" d="M686.27,155.09l150.54,8c58.89,3.12,118.73,6.41,174.37,26s107.47,58.08,129.1,113,4.93,126.3-46.32,155.49"/><path class="cls-4" d="M183.86,662.8c-39.75,36.85-41.3,103.79-11.58,149.12s84,70.22,137.94,75.45,108.08-6.88,160-22.27A1256.71,1256.71,0,0,0,754,741.29"/><path class="cls-5" d="M1595.4,713.63c-24.8,42.69-70.35,70.68-118.36,82.19s-98.47,8-147-.93A668.06,668.06,0,0,1,1145.9,732c-29.91-15.39-59.36-33.3-92.44-39.38-54-9.92-112.9,16.49-141.41,63.45"/><path class="cls-4" d="M1350.86,193.79c55.11-29.95,125.81-28.93,180,2.59s90.1,92.45,91.35,155.16-32.17,125-85.1,158.68c-68.77,43.72-156.83,37.2-237.92,29.13"/></g><path class="cls-6" d="M1242.31,321.74a23.23,23.23,0,0,0,1.31,3.13l-4.28,4.28,10.09,10.1,4.29-4.28a23.4,23.4,0,0,0,3.13,1.3v6.05h14.28v-6.05a24.55,24.55,0,0,0,3.13-1.3l4.28,4.28,10.1-10.1-4.29-4.28a23.23,23.23,0,0,0,1.31-3.13h6V307.46h-6a22.2,22.2,0,0,0-1.31-3.13l4.29-4.28-10.1-10.1-4.28,4.28a23.23,23.23,0,0,0-3.13-1.31v-6h-14.28v6a22.2,22.2,0,0,0-3.13,1.31l-4.29-4.28-10.09,10.1,4.28,4.28a22.2,22.2,0,0,0-1.31,3.13h-6v14.28Zm7.29-7.14A14.39,14.39,0,1,1,1264,329,14.39,14.39,0,0,1,1249.6,314.6Z"/><path class="cls-6" d="M430.6,779.28a25.37,25.37,0,0,0,1.49,3.57l-4.89,4.89,11.53,11.53,4.89-4.89a25.56,25.56,0,0,0,3.57,1.49v6.9h16.3v-6.9a26.2,26.2,0,0,0,3.58-1.49l4.89,4.89,11.52-11.53-4.89-4.89a26.66,26.66,0,0,0,1.5-3.57H487V763h-6.9a26.66,26.66,0,0,0-1.5-3.57l4.89-4.89L472,743l-4.89,4.89a26.2,26.2,0,0,0-3.58-1.49v-6.9h-16.3v6.9a25.56,25.56,0,0,0-3.57,1.49L438.73,743,427.2,754.51l4.89,4.89A25.37,25.37,0,0,0,430.6,763h-6.91v16.31Zm8.32-8.16a16.43,16.43,0,1,1,16.42,16.43A16.42,16.42,0,0,1,438.92,771.12Z"/><path class="cls-6" d="M1117.8,215.8a11.35,11.35,0,0,0,.69,1.64l-2.25,2.25,5.3,5.3,2.25-2.25a11.84,11.84,0,0,0,1.64.69v3.17h7.5v-3.17a11.84,11.84,0,0,0,1.64-.69l2.25,2.25,5.3-5.3-2.25-2.25a11.35,11.35,0,0,0,.69-1.64h3.17v-7.5h-3.17a11.84,11.84,0,0,0-.69-1.64l2.25-2.25-5.3-5.3-2.25,2.25a11.84,11.84,0,0,0-1.64-.69V197.5h-7.5v3.17a11.84,11.84,0,0,0-1.64.69l-2.25-2.25-5.3,5.3,2.25,2.25a11.84,11.84,0,0,0-.69,1.64h-3.17v7.5Zm3.83-3.75a7.55,7.55,0,1,1,7.55,7.55A7.55,7.55,0,0,1,1121.63,212.05Z"/><path class="cls-6" d="M406.83,386.87a20.82,20.82,0,0,0-.6,3.19l-5.67,1.17,2.76,13.37,5.67-1.17a21.46,21.46,0,0,0,1.81,2.69l-3.18,4.82L419,418.45l3.17-4.83a22.1,22.1,0,0,0,3.19.6l1.17,5.67,13.37-2.76-1.17-5.67a20.65,20.65,0,0,0,2.68-1.81l4.83,3.18,7.51-11.41L449,398.25a22.1,22.1,0,0,0,.6-3.19l5.67-1.17-2.76-13.37-5.67,1.17A23.88,23.88,0,0,0,445,379l3.17-4.82-11.4-7.51-3.18,4.83a21.72,21.72,0,0,0-3.18-.6l-1.17-5.67L415.85,368l1.17,5.67a21.46,21.46,0,0,0-2.69,1.81l-4.83-3.18L402,383.7ZM416.4,385a13.75,13.75,0,1,1,3.93,19.05A13.76,13.76,0,0,1,416.4,385Zm58.35,19.51a12.59,12.59,0,0,0-.38,2l-3.57.74,1.74,8.41,3.56-.74a14.71,14.71,0,0,0,1.14,1.69l-2,3,7.17,4.71,2-3a13.7,13.7,0,0,0,2,.38l.73,3.56,8.41-1.73-.74-3.57a13.52,13.52,0,0,0,1.69-1.14l3,2,4.71-7.17-3-2a13.82,13.82,0,0,0,.38-2l3.56-.74-1.73-8.4-3.57.73a13.18,13.18,0,0,0-1.14-1.69l2-3-7.17-4.72-2,3a13.79,13.79,0,0,0-2-.37l-.74-3.57-8.4,1.74.73,3.56a14.3,14.3,0,0,0-1.69,1.14l-3-2-4.72,7.17Zm6-1.18a8.65,8.65,0,1,1,2.47,12A8.66,8.66,0,0,1,480.76,403.33Z"/><path class="cls-6" d="M1679.24,840a29.07,29.07,0,0,0,2.43-3.56l7.53,1.59,3.75-17.77-7.53-1.59a29.77,29.77,0,0,0-.78-4.24l6.44-4.19L1681.17,795l-6.44,4.19a29.43,29.43,0,0,0-3.56-2.43l1.59-7.53L1655,785.47l-1.59,7.53a29.52,29.52,0,0,0-4.24.78l-4.2-6.44-15.21,9.91,4.2,6.44a29.07,29.07,0,0,0-2.43,3.56l-7.53-1.59-3.76,17.77,7.54,1.59a28.44,28.44,0,0,0,.78,4.24l-6.44,4.19,9.9,15.21,6.45-4.19a29.43,29.43,0,0,0,3.56,2.43l-1.59,7.53,17.76,3.75,1.59-7.53a29.52,29.52,0,0,0,4.24-.78l4.2,6.44,15.21-9.91Zm-12.66-2.81a18.29,18.29,0,1,1,5.34-25.31A18.3,18.3,0,0,1,1666.58,837.15Zm-60.74-54.82a17.73,17.73,0,0,0,1.53-2.24l4.74,1,2.36-11.17-4.74-1a18.71,18.71,0,0,0-.49-2.67l4-2.64-6.23-9.56-4,2.64a17.73,17.73,0,0,0-2.24-1.53l1-4.74-11.17-2.35-1,4.73a19.23,19.23,0,0,0-2.67.49l-2.63-4-9.57,6.23,2.64,4a17.73,17.73,0,0,0-1.53,2.24l-4.73-1-2.36,11.17,4.73,1a18.71,18.71,0,0,0,.49,2.67l-4,2.64,6.23,9.56,4-2.64a19.29,19.29,0,0,0,2.24,1.53l-1,4.74,11.17,2.35,1-4.73a18.71,18.71,0,0,0,2.67-.49l2.64,4.05,9.56-6.23Zm-8-1.77a11.5,11.5,0,1,1,3.36-15.91A11.5,11.5,0,0,1,1597.88,780.56Z"/><path class="cls-7" d="M1001.54,128.67a26,26,0,1,0,26-26A26,26,0,0,0,1001.54,128.67Z"/><path class="cls-8" d="M1027.51,109a57.14,57.14,0,0,0-1.63,9.86,98.27,98.27,0,0,0-.37,9.85l2-2c-2.9,0-5.8.16-8.7.48a55.07,55.07,0,0,0-8.7,1.52,52.88,52.88,0,0,0,8.7,1.52c2.9.33,5.8.44,8.7.48l2,0,0-2a98.27,98.27,0,0,0-.37-9.85A57.14,57.14,0,0,0,1027.51,109Z"/><circle class="cls-7" cx="1541.64" cy="324.34" r="34.07" transform="translate(1031.37 1814.79) rotate(-82.98)"/><path class="cls-9" d="M1542.45,330.45l9.57,16.46a2.46,2.46,0,1,0,4.26-2.47L1546.71,328a16.82,16.82,0,1,0-4.26,2.47ZM1526,320.87a11.87,11.87,0,1,1,16.23,4.3A11.89,11.89,0,0,1,1526,320.87Z"/><path class="cls-7" d="M279.27,787.33a37.55,37.55,0,1,0,37.55-37.55A37.55,37.55,0,0,0,279.27,787.33Z"/><path class="cls-10" d="M308.16,801.19v2h-.43v8.42H325.9v-8.42h-.42v-2a20.07,20.07,0,0,1,4.91-12.6,17.19,17.19,0,0,0,3.63-14,17.47,17.47,0,1,0-30.73,14.09A19.82,19.82,0,0,1,308.16,801.19Zm13.69,0v.74h-1.76c1.78-6.14,3.78-14.52,2-16.06a2.36,2.36,0,0,0-2.48-.34l-.3.14a2.56,2.56,0,0,0-2.26-1.3h0a3.08,3.08,0,0,0-2.4,1.27,2.53,2.53,0,0,0-1.87-.29,2,2,0,0,0-1.24,1c-1.49,2.69.81,11.22,2.13,15.55h-1.84v-.75a23.39,23.39,0,0,0-5.69-14.84,13.52,13.52,0,0,1-3.13-8.7,13.86,13.86,0,0,1,27.49-2.48,13.65,13.65,0,0,1-2.87,11.14A23.59,23.59,0,0,0,321.85,801.2Zm-6.32.74c-1.67-5.38-3.46-12.88-2.41-14.76a.36.36,0,0,1,.15-.18,1.41,1.41,0,0,1,.62.25,2.87,2.87,0,0,0,.48,2.58,1.47,1.47,0,0,0,1.47.35,1.54,1.54,0,0,0,1-2.09,4,4,0,0,0-.85-1.34,1.29,1.29,0,0,1,1.06-.65c.22,0,.44.24.55.4a2,2,0,0,1,.23.4,3.31,3.31,0,0,0-.75,1.77,1.35,1.35,0,0,0,.79,1.3,1.45,1.45,0,0,0,1.59-.19,2.59,2.59,0,0,0,.44-2.45,2.14,2.14,0,0,1,.32-.2c.35-.15.47,0,.56,0,.77,1-.71,8.12-2.63,14.78Z"/><path class="cls-11" d="M1285,223.35c1.46-1.8,56.3-51.71,56.3-51.71l9.64,6.16Z"/><polygon class="cls-12" points="1350.95 177.8 1363.11 207.49 1285.01 223.35 1350.95 177.8"/><polygon class="cls-13" points="1363.11 207.49 1285.01 223.35 1362.69 184.38 1363.11 207.49"/><polygon class="cls-11" points="1362.69 184.38 1285.01 223.35 1378.63 195.78 1362.69 184.38"/><path class="cls-11" d="M1655.15,682.78c-2-.38-67.32-2.62-67.32-2.62l-3,9.63Z"/><polygon class="cls-12" points="1584.87 689.79 1593.64 716.67 1655.15 682.78 1584.87 689.79"/><polygon class="cls-13" points="1593.64 716.67 1655.15 682.78 1580.73 700.91 1593.64 716.67"/><polygon class="cls-11" points="1580.73 700.91 1655.15 682.78 1576.54 717.66 1580.73 700.91"/><path class="cls-11" d="M698.36,117c-.69,1.39-6.09,21.89-6.09,21.89L646,165.16Z"/><polygon class="cls-12" points="707.2 155.59 692.27 138.85 646 165.16 707.2 155.59"/><polygon class="cls-13" points="707.2 155.59 687.02 154.47 646 165.16 707.2 155.59"/><polygon class="cls-11" points="687.02 154.47 679.68 179.62 646 165.16 687.02 154.47"/><path class="cls-11" d="M166.31,619C168,620.29,187.07,643,187.07,643l74.25,5.71Z"/><polygon class="cls-12" points="178.16 673.1 187.07 643.01 261.32 648.72 178.16 673.1"/><polygon class="cls-13" points="178.16 673.1 203.03 659.66 261.32 648.72 178.16 673.1"/><polygon class="cls-11" points="203.03 659.66 227.32 687.11 261.32 648.72 203.03 659.66"/><rect class="cls-14" x="558.24" y="394.03" width="922.12" height="501.16" rx="5.66" transform="translate(2038.59 1289.21) rotate(180)"/><rect class="cls-15" x="541.93" y="371.2" width="922.12" height="501.16" rx="5.66" transform="translate(2005.98 1243.56) rotate(180)"/><path class="cls-7" d="M547.55,406h910.88a5.62,5.62,0,0,1,5.62,5.62v461.9a0,0,0,0,1,0,0H541.93a0,0,0,0,1,0,0V411.67A5.62,5.62,0,0,1,547.55,406Z" transform="translate(2005.98 1279.61) rotate(180)"/><path class="cls-16" d="M601.44,388.33a5.47,5.47,0,1,0,5.47-5.46A5.47,5.47,0,0,0,601.44,388.33Z"/><path class="cls-17" d="M589.09,382.87a5.47,5.47,0,1,1-5.46,5.46A5.45,5.45,0,0,1,589.09,382.87Z"/><path class="cls-18" d="M571.27,382.87a5.47,5.47,0,1,1-5.46,5.46A5.45,5.45,0,0,1,571.27,382.87Z"/><path class="cls-19" d="M1406.36,550.12a89.63,89.63,0,1,0-6.07,32.48A89.18,89.18,0,0,0,1406.36,550.12Zm-37,0a51.9,51.9,0,0,1-3.69,19.36,52.58,52.58,0,0,1-49,33.3c-.46,0-.91,0-1.34,0a52.64,52.64,0,1,1,46.91-79A52,52,0,0,1,1369.31,550.12Z"/><path class="cls-20" d="M1316.65,639.81v-37c-.46,0-.91,0-1.34,0a52.61,52.61,0,0,1-34.13-91.5l-24.65-27.64a89.67,89.67,0,0,0,60.12,156.22Z"/><path class="cls-13" d="M1406.35,550.12a89.33,89.33,0,0,0-12.28-45.34l-31.85,19a52.62,52.62,0,0,1,3.41,45.71l34.66,13.13A89.4,89.4,0,0,0,1406.35,550.12Z"/><path class="cls-11" d="M1394.07,504.78a89.69,89.69,0,0,0-137.55-21.19l24.66,27.63a52.62,52.62,0,0,1,81,12.54Z"/><path class="cls-20" d="M870.61,483.55h292a10.87,10.87,0,0,1,10.87,10.87h0a10.87,10.87,0,0,1-10.87,10.86h-292a10.86,10.86,0,0,1-10.86-10.86h0A10.87,10.87,0,0,1,870.61,483.55Zm0,58.87h292a10.87,10.87,0,0,0,10.87-10.86h0a10.87,10.87,0,0,0-10.87-10.86h-292a10.86,10.86,0,0,0-10.86,10.86h0A10.87,10.87,0,0,0,870.61,542.42Zm0,37.14h292a10.87,10.87,0,0,0,10.87-10.87h0a10.87,10.87,0,0,0-10.87-10.86h-292a10.86,10.86,0,0,0-10.86,10.86h0A10.87,10.87,0,0,0,870.61,579.56Zm0,37.13h292a10.87,10.87,0,0,0,10.87-10.86h0A10.87,10.87,0,0,0,1162.58,595h-292a10.86,10.86,0,0,0-10.86,10.86h0A10.86,10.86,0,0,0,870.61,616.69Z"/><path class="cls-20" d="M599.63,684.72v-.32a10.67,10.67,0,0,1,10.67-10.7H814.08a10.67,10.67,0,0,1,10.67,10.7v.32a10.71,10.71,0,0,1-10.7,10.71H610.33A10.71,10.71,0,0,1,599.63,684.72Zm214.42,26.11H610.33a10.7,10.7,0,0,0-10.7,10.7v.32a10.7,10.7,0,0,0,10.7,10.7H814.05a10.7,10.7,0,0,0,10.7-10.7v-.32A10.71,10.71,0,0,0,814.05,710.83ZM599.63,758.68V759a10.7,10.7,0,0,0,10.7,10.7H814.05a10.7,10.7,0,0,0,10.7-10.7v-.32A10.7,10.7,0,0,0,814.05,748H610.33A10.7,10.7,0,0,0,599.63,758.68Zm10.86,48.16h203.4A10.86,10.86,0,0,0,824.75,796h0a10.86,10.86,0,0,0-10.86-10.87H610.49A10.86,10.86,0,0,0,599.63,796h0A10.86,10.86,0,0,0,610.49,806.84Z"/><rect class="cls-20" x="1206.81" y="667.35" width="200.36" height="148.43" rx="8.11" transform="translate(2613.98 1483.14) rotate(180)"/><g class="cls-21"><rect class="cls-20" x="599.63" y="469.24" width="225.13" height="183.39" rx="5.65"/><path class="cls-13" d="M661.69,630.51l108.49-56.69a18.8,18.8,0,0,1,18.87.87l100.86,65.12v18.62h-229Z"/><path class="cls-11" d="M589.43,611.25l72.39-58.45a18.76,18.76,0,0,1,22.7-.67l143.64,102.7H585.07Z"/><circle class="cls-11" cx="739.7" cy="517.08" r="21.12"/></g><path class="cls-20" d="M1032.6,729.28H1068a3.11,3.11,0,0,1,3.11,3.11v79.88a3.11,3.11,0,0,1-3.11,3.11H1032.6a3.11,3.11,0,0,1-3.11-3.11V732.39A3.11,3.11,0,0,1,1032.6,729.28ZM1096,703h35.7a3,3,0,0,1,2.95,2.95V812.43a3,3,0,0,1-2.95,3H1096a3,3,0,0,1-3-3V705.91A3,3,0,0,1,1096,703ZM964,710.37v94.87a10.14,10.14,0,0,0,10.14,10.14h21.32a10.14,10.14,0,0,0,10.14-10.14V710.37a10.14,10.14,0,0,0-10.14-10.14H974.17A10.14,10.14,0,0,0,964,710.37Zm-34-55.32H908.71a10.14,10.14,0,0,0-10.14,10.14v140a10.14,10.14,0,0,0,10.14,10.14H930a10.14,10.14,0,0,0,10.14-10.14v-140A10.14,10.14,0,0,0,930,655.05Z"/><path class="cls-7" d="M1285,777.46V705.68a7.23,7.23,0,0,1,11.2-6l54,35.43a7.23,7.23,0,0,1,.07,12l-54,36.35A7.23,7.23,0,0,1,1285,777.46Z"/><path class="cls-22" d="M1534,984.49H426.19a7.67,7.67,0,0,1-7.67-7.67h0a7.66,7.66,0,0,1,7.67-7.67H1534a7.67,7.67,0,0,1,7.67,7.67h0A7.68,7.68,0,0,1,1534,984.49Z"/><rect class="cls-14" x="787.97" y="240.86" width="211.49" height="147.47" rx="9.45"/><rect class="cls-7" x="774.56" y="232.33" width="211.49" height="147.47" rx="9.45"/><path class="cls-15" d="M783.86,232.33H976.74a9.31,9.31,0,0,1,9.31,9.31v23.72a0,0,0,0,1,0,0H774.56a0,0,0,0,1,0,0V241.64A9.31,9.31,0,0,1,783.86,232.33Z"/><path class="cls-16" d="M798.21,250.07a3.42,3.42,0,1,1-3.42-3.42A3.42,3.42,0,0,1,798.21,250.07Z"/><path class="cls-17" d="M813.4,250.07a3.42,3.42,0,1,1-3.42-3.42A3.42,3.42,0,0,1,813.4,250.07Z"/><path class="cls-18" d="M828.58,250.07a3.42,3.42,0,1,1-3.41-3.42A3.42,3.42,0,0,1,828.58,250.07Z"/><rect class="cls-20" x="790.11" y="355.06" width="180.39" height="6.16" rx="0.87" transform="translate(1760.6 716.27) rotate(180)"/><rect class="cls-23" x="790.11" y="338.16" width="180.39" height="6.16" rx="0.87" transform="translate(1760.6 682.47) rotate(180)"/><rect class="cls-23" x="790.11" y="321.25" width="180.39" height="6.16" rx="0.87" transform="translate(1760.6 648.67) rotate(180)"/><path class="cls-23" d="M921.26,295.43a19.37,19.37,0,1,1-19.37-19.37A19.37,19.37,0,0,1,921.26,295.43Zm28.93-19.37a19.37,19.37,0,1,0,19.37,19.37A19.37,19.37,0,0,0,950.19,276.06Z"/><rect class="cls-14" x="860.59" y="821.68" width="211.49" height="147.47" rx="9.45"/><rect class="cls-7" x="848.59" y="821.68" width="211.49" height="147.47" rx="9.45"/><path class="cls-15" d="M857.9,821.68h192.87a9.31,9.31,0,0,1,9.31,9.31v23.72a0,0,0,0,1,0,0H848.59a0,0,0,0,1,0,0V831A9.31,9.31,0,0,1,857.9,821.68Z"/><path class="cls-16" d="M872.25,839.41a3.42,3.42,0,1,1-3.42-3.42A3.42,3.42,0,0,1,872.25,839.41Z"/><path class="cls-17" d="M887.44,839.41A3.42,3.42,0,1,1,884,836,3.42,3.42,0,0,1,887.44,839.41Z"/><path class="cls-18" d="M902.62,839.41A3.42,3.42,0,1,1,899.2,836,3.42,3.42,0,0,1,902.62,839.41Z"/><rect class="cls-20" x="864.15" y="944.4" width="180.39" height="6.16" rx="0.87" transform="translate(1908.68 1894.97) rotate(180)"/><rect class="cls-20" x="864.15" y="927.5" width="180.39" height="6.16" rx="0.87" transform="translate(1908.68 1861.17) rotate(180)"/><rect class="cls-18" x="864.15" y="910.6" width="180.39" height="6.16" rx="0.87" transform="translate(1908.68 1827.37) rotate(180)"/><circle class="cls-23" cx="1028.26" cy="887.28" r="16.27"/><path class="cls-23" d="M999.82,887.28A16.27,16.27,0,1,1,983.55,871,16.26,16.26,0,0,1,999.82,887.28Z"/><circle class="cls-17" cx="938.84" cy="887.28" r="16.27"/><rect class="cls-14" x="369.45" y="513.7" width="211.49" height="147.47" rx="9.45"/><rect class="cls-7" x="357.46" y="505.56" width="211.49" height="147.47" rx="9.45"/><path class="cls-15" d="M366.77,505.56H559.64a9.31,9.31,0,0,1,9.31,9.31v23.72a0,0,0,0,1,0,0H357.46a0,0,0,0,1,0,0V514.87a9.31,9.31,0,0,1,9.31-9.31Z"/><path class="cls-16" d="M381.12,523.29a3.42,3.42,0,1,1-3.42-3.42A3.42,3.42,0,0,1,381.12,523.29Z"/><path class="cls-17" d="M396.3,523.29a3.42,3.42,0,1,1-3.42-3.42A3.42,3.42,0,0,1,396.3,523.29Z"/><path class="cls-18" d="M411.49,523.29a3.42,3.42,0,1,1-3.42-3.42A3.42,3.42,0,0,1,411.49,523.29Z"/><rect class="cls-20" x="373.01" y="628.28" width="180.39" height="6.16" rx="0.87" transform="translate(926.41 1262.73) rotate(180)"/><rect class="cls-20" x="373.01" y="611.38" width="180.39" height="6.16" rx="0.87" transform="translate(926.41 1228.93) rotate(180)"/><rect class="cls-18" x="373.01" y="594.48" width="180.39" height="6.16" rx="0.87" transform="translate(926.41 1195.13) rotate(180)"/><circle class="cls-23" cx="537.13" cy="571.16" r="16.27"/><circle class="cls-23" cx="492.42" cy="571.16" r="16.27"/><circle class="cls-17" cx="447.7" cy="571.16" r="16.27"/><path class="cls-12" d="M647.81,851.61c-33.6-32.66-9.95-69.07-33.8-91.34-8.49-7.92-20.87-8.91-31.54-5.57-48.67,15.24-82.75,66.39-82.75,118.65,0,29.6,7.62,74.49,26,95.8H729.83c12.32-15.63,24.66-42.93,30.11-67.4C765.32,877.56,701.6,903.89,647.81,851.61Z"/><path class="cls-11" d="M564.85,859.64c-20-29.53-18.75-83.56,14.26-103.81-46.87,16.49-79.39,66.47-79.39,117.52,0,29.6,7.62,74.49,26,95.8H729.83c12.58-12.46,25.36-43.48,30.11-67.4C738.25,909.44,614.51,933.15,564.85,859.64Z"/><path class="cls-24" d="M748.13,885.75c13.79-1.36,22.49.47,22,6.37-.83,9-31.9,10.92-36.62,2.15C731.73,891.07,733.65,887.18,748.13,885.75Z"/><path class="cls-25" d="M642.72,866.37c-8,22.87-5.74,31,12.69,37.22,10.79,3.63,40.07,4.32,60.54,3,52.94-3.3,43.11-36.86,16.21-35.31-5.47.32-11,4.32-23.78.89s-31.48-9.78-31.48-9.78Z"/><path class="cls-26" d="M665.4,788c-3.92.72-8.23,5.21-8.81,9.15-2.52,17,.58,59.38,3.75,65.09,4.36,7.85,53.08,11.22,57.57,11.54,2.83.2,6.79-1.14,9.32-2.16a7.51,7.51,0,0,1,5.14-.16c3.46,1.13,6.51,1,7.79.31,1.86-1-7.7-7.83-12.3-8.73-2.68-.53-10.68,1.09-13.13,2-2,.77-36.14-8.68-39.67-14.31-3.08-4.92,1.55-45.54-.76-56.18C672,784.22,665.4,788,665.4,788Z"/><path class="cls-8" d="M671.37,777.34c-15.85-.61-18.68,32-18.68,32,6,4.52,14.64,6.2,24.63,6.43C676.84,807.64,685.65,777.89,671.37,777.34Z"/><path class="cls-27" d="M705.32,876s43.75,5.3,50.78,11.73c2.49,2.28,4.24,12-3.1,13.27-30.66,5.53-49.2,6.21-49.2,6.21Z"/><path class="cls-28" d="M720.5,888.74c0,21.21-27.56,20.61-43,20.61s-59.35,3-57.5-38c1.4-31,40.11,3.94,55.5,3.94S720.5,871.84,720.5,888.74Z"/><path class="cls-8" d="M673.4,779.24c-12.22-10.4-46.8-10.86-53.83,21.08-11.61,52.8-3.33,68.83-3.33,68.83,21,4.93,68.89,10.41,83.07,2.16,0,0-10.79-13.11-14.47-34.18C681.85,820,683.3,787.66,673.4,779.24Z"/><path class="cls-26" d="M629,788c-3.92.72-8.23,5.21-8.82,9.15-2.51,17,.59,59.38,3.76,65.09,4.35,7.85,53.08,11.22,57.57,11.54,2.83.2,6.79-1.14,9.32-2.16a7.51,7.51,0,0,1,5.14-.16c3.46,1.13,6.51,1,7.79.31,1.86-1-7.7-7.83-12.3-8.73-2.68-.53-10.69,1.09-13.13,2-2,.77-36.15-8.68-39.67-14.31-3.08-4.92,1.55-45.54-.77-56.18C635.59,784.22,629,788,629,788Z"/><path class="cls-8" d="M634.92,777.34c-15.85-.61-18.68,32-18.68,32,6,4.52,14.63,6.2,24.63,6.43C640.39,807.64,649.2,777.89,634.92,777.34Z"/><path class="cls-26" d="M647.77,762.16s-1,3.71,0,13.22c.27,2.56,14.47,8.1,12.76,1.83-2.18-8-1.61-11.57-1.92-11.53Z"/><path class="cls-26" d="M645.59,755.2a6.87,6.87,0,0,1,.25,1.11,17.91,17.91,0,0,0,2.83,7.85,10.25,10.25,0,0,0,7.42,4.54,10.12,10.12,0,0,0,7.39-2.84,17.24,17.24,0,0,0,4.27-6.84c1.46-4,3.14-9,.81-12.54-1.12-1.72-7-4.57-11.15-6.45a6.37,6.37,0,0,0-7.37,1.59L646,746.2a6.39,6.39,0,0,0-1.3,6.25Z"/><path class="cls-29" d="M649.72,755.4c-2.88-9.45-6.33-1.8-2.7,3.1a8.21,8.21,0,0,0,.82,4.31c-2.22-1.41-2.89-1.6-6-5.5s-7.08-20.57,4.42-24.84c12.39-16.17,30.08,8.52,32.86,7.25-.13,3.3-2.88,10.13-9.72,10.92-3,.35-8.95,1-11.7-.17C652.37,748.18,650.1,756.65,649.72,755.4Z"/><path class="cls-11" d="M756.24,876H702.93a1.89,1.89,0,0,1,0-3.77L712.44,822s51.81-.21,52.85,0a1.88,1.88,0,0,1,1.47,2.22Z"/><path class="cls-23" d="M703.39,876h-53.3a1.89,1.89,0,0,1,0-3.77h50.22l9.91-48.81a1.88,1.88,0,0,1,2.22-1.47,1.89,1.89,0,0,1,1.48,2.22Z"/><path class="cls-24" d="M691.1,897.76c13.89.57,24.16,2.45,22.72,7.61-1.92,6.86-37.26,9.08-37.15,1.08C676.74,901.87,676.56,897.17,691.1,897.76Z"/><rect class="cls-23" x="1383.81" y="789.33" width="154.89" height="179.81" rx="1.93"/><rect class="cls-11" x="1393.89" y="800.32" width="134.73" height="48.02" rx="1.93"/><rect class="cls-11" x="1393.89" y="855.23" width="134.73" height="48.02" rx="1.93"/><rect class="cls-11" x="1393.89" y="910.14" width="134.73" height="48.02" rx="1.93"/><path class="cls-30" d="M1489.84,936.33c6.09-14.84,12.22-29.85,14.73-45.69s1.09-32.83-7.14-46.6a17.13,17.13,0,0,0-4.17-5,7.38,7.38,0,0,0-6.19-1.49c-2.7.72-4.46,3.28-5.69,5.79-6.67,13.48-4.88,29.56-1.17,44.14s9.23,28.92,9.61,44"/><g class="cls-31"><path class="cls-32" d="M1491.87,933.86a1.51,1.51,0,0,0,1.49-1.41,387.92,387.92,0,0,0-3.46-80.65,1.51,1.51,0,0,0-1.7-1.26,1.49,1.49,0,0,0-1.26,1.7,385.4,385.4,0,0,1,3.43,80,1.5,1.5,0,0,0,1.41,1.58Z"/></g><path class="cls-8" d="M1494.37,936.48c-3.6-10.35-2.79-21.62-3.2-32.57s-2.48-22.68-10.29-30.36a17.44,17.44,0,0,0-7.88-4.7,10.7,10.7,0,0,0-8.86,1.52c-3.4,2.52-4.54,7.09-4.77,11.32-.64,11.91,4.12,23.61,11,33.33s15.92,17.73,24.85,25.63"/><g class="cls-31"><path class="cls-32" d="M1493.76,939.4a1.49,1.49,0,0,0,1.46-2.43,104.32,104.32,0,0,1-24.31-57,1.5,1.5,0,1,0-3,.29,107.33,107.33,0,0,0,25,58.64A1.45,1.45,0,0,0,1493.76,939.4Z"/></g><path class="cls-33" d="M1493,937.48c5.88-1.8,10.77-5.9,15-10.35a88.87,88.87,0,0,0,18.88-30,33.37,33.37,0,0,0,2.52-11.23,14.89,14.89,0,0,0-3.83-10.6c-4.07-4.13-11-4.56-16.16-1.94s-8.74,7.72-10.71,13.18-2.54,11.3-3.09,17.07q-1.44,15-2.86,30.08"/><g class="cls-31"><path class="cls-32" d="M1491.74,934.37a1.51,1.51,0,0,0,1-.41,85.92,85.92,0,0,0,25-46,1.5,1.5,0,1,0-2.94-.55,82.94,82.94,0,0,1-24.1,44.33,1.5,1.5,0,0,0-.06,2.12A1.53,1.53,0,0,0,1491.74,934.37Z"/></g><polygon class="cls-28" points="1480.53 969.28 1508.21 969.28 1518.16 931.3 1470.59 931.3 1480.53 969.28"/><rect class="cls-23" x="1468.58" y="927.33" width="51.59" height="12.47" transform="translate(2988.75 1867.13) rotate(180)"/><path class="cls-9" d="M482.74,828a45,45,0,0,0-45,45c0,7.74,3.18,16.34,5.41,21.39,6.79,15.38,25.16,52.29,34.72,71.36a6.36,6.36,0,0,0,11.47-.2c8.7-19,25.4-55.37,32.95-71.16,3.11-6.53,5.4-13.65,5.4-21.39A45,45,0,0,0,482.74,828Zm0,66.29A21.31,21.31,0,1,1,504.05,873,21.32,21.32,0,0,1,482.74,894.28Z"/><path class="cls-14" d="M739.22,521.82h68.32a9.73,9.73,0,0,1,9.73,9.73V578a9.73,9.73,0,0,1-9.73,9.72h-5l10.73,10.92-28-10.92H739.22a9.73,9.73,0,0,1-9.73-9.72V531.55A9.73,9.73,0,0,1,739.22,521.82Z"/><rect class="cls-7" x="722.94" y="516.69" width="87.78" height="65.86" rx="3.79" transform="translate(1533.66 1099.25) rotate(180)"/><polyline class="cls-7" points="792.79 579.26 806.76 593.47 770.35 579.26"/><path class="cls-20" d="M801.19,538.8H732.47a2.57,2.57,0,0,1,0-5.13h68.72a2.57,2.57,0,0,1,0,5.13Zm2.56,10.82a2.56,2.56,0,0,0-2.56-2.56H732.47a2.57,2.57,0,0,0,0,5.13h68.72A2.57,2.57,0,0,0,803.75,549.62Zm0,13.39a2.56,2.56,0,0,0-2.56-2.56H732.47a2.56,2.56,0,1,0,0,5.12h68.72A2.56,2.56,0,0,0,803.75,563Z"/><path class="cls-14" d="M1307.13,764.73h-68.32a9.73,9.73,0,0,0-9.73,9.73v46.41a9.73,9.73,0,0,0,9.73,9.73h5L1233,841.51l28-10.91h46.12a9.73,9.73,0,0,0,9.72-9.73V774.46A9.73,9.73,0,0,0,1307.13,764.73Z"/><rect class="cls-7" x="1223.37" y="759.37" width="87.77" height="65.86" rx="3.79"/><polyline class="cls-7" points="1241.3 821.94 1227.33 836.15 1263.74 821.94"/><path class="cls-20" d="M1230.34,778.91a2.56,2.56,0,0,1,2.56-2.56h68.72a2.57,2.57,0,0,1,0,5.13H1232.9A2.57,2.57,0,0,1,1230.34,778.91Zm2.56,16h68.72a2.57,2.57,0,0,0,0-5.13H1232.9a2.57,2.57,0,0,0,0,5.13Zm0,13.38h68.72a2.57,2.57,0,0,0,0-5.13H1232.9a2.57,2.57,0,0,0,0,5.13Z"/><path class="cls-12" d="M805.33,969.15a3,3,0,0,1-.79-.1,3.28,3.28,0,0,1-2.4-4l90.23-363.46a3.28,3.28,0,0,1,6.36,1.58L808.5,966.66A3.27,3.27,0,0,1,805.33,969.15Z"/><path class="cls-12" d="M877.25,969.15a3.13,3.13,0,0,1-.8-.1,3.28,3.28,0,0,1-2.39-4l90.23-363.46a3.28,3.28,0,0,1,6.36,1.58L880.42,966.66A3.28,3.28,0,0,1,877.25,969.15Z"/><path class="cls-12" d="M891.57,906.79l-71.45-.25,0-6.56,71.44.25ZM903,860.51l-71.44-.25,0-6.55,71.45.25Zm11.46-46.28L843,814l0-6.55,71.45.24ZM925.94,768l-71.45-.25,0-6.56,71.44.25Zm11.45-46.28L866,721.42l0-6.55,71.44.25Zm11.46-46.28-71.44-.25,0-6.55,71.45.25Zm11.46-46.28-71.44-.25,0-6.55,71.45.25Z"/><path class="cls-26" d="M912.57,652.55c4.39-1.76,6.74-6.45,11.33-5.78,2.52.37,1.47,7.68-2.34,11.66-.91.94-8,3.13-8,3.13Z"/><polygon class="cls-24" points="879.49 801.12 892.65 800.07 891.82 804.58 908.44 812.69 875.85 810.39 879.49 801.12"/><polygon class="cls-24" points="837.23 846.46 850.39 845.41 849.56 849.92 866.18 858.03 833.59 855.73 837.23 846.46"/><path class="cls-10" d="M915.74,648.79s-18.25,8.13-28.22,8.13c-6.75,0-13.15-36.24-27.53-36.24-1.41,8.82.78,16.7-1.71,25.28,5.34,13.65,13.57,28.73,21,30.74,8.27,2.25,36.49-14.78,36.49-14.78Z"/><path class="cls-28" d="M881.92,693c-13.74,4.09-32.16,11.75-46.53,12,0,3.19,0,6.34,0,8.76-.11,15.21,18.25,75.45,18.25,75.45l-18,58,15.13,1.09,25.25-56.47s-1.24-30.93-5.8-63c5.92,5.13,28,20.72,31,23.54-3.18,8.63-23.35,50-23.35,50l16.58.88s32.23-51.56,31.89-57.13C916.36,727.72,889.31,700,881.92,693Z"/><path class="cls-10" d="M873.49,667.36c-2.59.87-6-1.05-5-4.4,4.32-13.62,1.35-34.7-6-40.63-7.9-6.38-19.26-4.92-28.25-2.61-24.18,16.43-11.49,90.77-3.62,114,32.12-7,46.48-11,64.6-28.63C891.46,693.1,872.2,678,873.49,667.36Z"/><path class="cls-34" d="M865.84,685.58c-31.58,1.09-32.59-24-45.33-30.38.52,4.21-.15,27,10.56,43.66,4.95,7.68,56.33,6.61,63.59,4.79-2.08-5.14-6.61-10.76-10.95-16.3C877.79,687.14,871.91,685.37,865.84,685.58Z"/><path class="cls-26" d="M848.54,610.39c-.06,4.53-.29,5-1.13,7.6,2.76,3.84,7.74,7.45,9.55,7.09s-.35-3.33-.35-3.66c0-3.95.78-5.74,1.7-9.58"/><rect class="cls-11" x="903.25" y="585.84" width="105.88" height="118.26" rx="2.7" transform="translate(1780.56 1451.61) rotate(-169.62)"/><path class="cls-26" d="M868.07,594.53c-.13,10.13-6.31,26.31-16.71,19a27.89,27.89,0,0,1-11.29-19.1S858.25,569.55,868.07,594.53Z"/><path class="cls-26" d="M897.71,688.08c4.72.31,8.68-2.49,11.43-.94s9.45,9.78-3.65,9.47-10.81,0-10.81,0Z"/><path class="cls-10" d="M840.86,620.68c-3.14-4.08-13-.27-16.31,4.43-12.59,17.77,2.83,57.67,5.41,63.54,5.62,12.77,67.68,9.94,67.68,9.94l3.48-11.31s-48-6.18-53.71-10.38C845.17,675.27,852,635.11,840.86,620.68Z"/><path class="cls-29" d="M879.23,584.44a4.52,4.52,0,0,0-6.56-.37,3.65,3.65,0,0,0-5.45-4.84c.51-1.64-1.18-3.29-2.9-3.42s-3.31.76-4.8,1.62a4.13,4.13,0,0,0-7.2-1.65,2.21,2.21,0,0,0-1.83-2.16,5.18,5.18,0,0,0-3,.45,8.87,8.87,0,0,0-4.41,3.36,4.65,4.65,0,0,0,.14,5.27,2.13,2.13,0,0,0-2.84-.39A3.49,3.49,0,0,0,839,585a10.43,10.43,0,0,0,.44,3.13,2.76,2.76,0,0,0-3.8-.66,4.22,4.22,0,0,0-1.61,3.8,9.24,9.24,0,0,0,1.52,4,38.62,38.62,0,0,1,2.23,3.7c-3,7.49,8.84,11.45,11,12.5,1.63-.82,1-6.17.84-6.46-3.91-5.77,2.78-11,2.66-1.92,0,0,.6,2.67,1.94-2.08,0,0,1.09-5.3,11.12-4,.18,0,.33,0,.49,0a2.92,2.92,0,0,0,1.16.53,3.17,3.17,0,0,0,2.79-.88c.44-.11.86-.24,1.26-.38a7.42,7.42,0,0,0,3.62.85,4.65,4.65,0,0,0,3.81-2.14,3.33,3.33,0,0,0-.61-4.14A4.52,4.52,0,0,0,879.23,584.44Z"/><polygon class="cls-24" points="1370.08 879.43 1377.1 864.24 1403.27 861.31 1384.95 875.3 1378.84 882.61 1370.08 879.43"/><polygon class="cls-24" points="1395.66 881.81 1402.67 866.61 1428.85 874.41 1410.52 877.68 1404.41 884.99 1395.66 881.81"/><path class="cls-25" d="M1341.68,934.62c7.19-24.4,9.68-36.94,26.46-56.07,2.24-2.55,14.68-.64,16.63,2.14-18.58,26-22.23,81.62-30.78,85.73s-72.19-.57-104.57-.25c3.85,0,23.92-25.76,24-28.38C1274.1,911.88,1327,928.29,1341.68,934.62Z"/><path class="cls-28" d="M1358.27,946.9c7.19-24.4,18-47.58,34.74-66.71,2.24-2.55,15.44-2,17.38.77-18.58,26-22.65,83.1-31.2,87.22s-72.79,1.2-105.17,1.52c3.85,0-1.09-29.33-.61-31.91C1278.17,912.49,1343.56,940.57,1358.27,946.9Z"/><path class="cls-26" d="M1182.3,919.93c3.92.72,6.28,5.07,5.85,9-2,18.46-.84,31.32-13.83,37.62-8.08,3.91-59.87,1.5-64.35,1.81-2.84.2-6.79-1.14-9.33-2.15a7.48,7.48,0,0,0-5.13-.17c-3.47,1.14-6.51,1-7.79.31-1.86-1,7.7-7.82,12.29-8.72,2.69-.53,10.69,1.08,13.14,2,2,.77,42.89-1,48.9-3.87,7.9-3.69,7.23-13.88,13.56-26C1180.53,920.44,1182.3,919.93,1182.3,919.93Z"/><path class="cls-9" d="M1184.61,917.72c12,4.18-1.34,28.49-1.34,28.49-5.81,1.63-10.74-1.52-18.28-4.27C1167.73,936,1173.77,914,1184.61,917.72Z"/><path class="cls-9" d="M1186.66,959.26c-11.22-6.36-21.59-44.78,10.08-49.83,22.16-3.54,31.84,9.25,48.09,15.24,22.92,8.46,34.45,2.26,34.45,2.26,5.16,21,8.63,33.41-3.69,43,0,0-9.34-1.54-35.65-.34C1222.6,970.41,1207.17,970.87,1186.66,959.26Z"/><path class="cls-26" d="M1210.62,919.17c3.92.72,6.6,5.12,5.85,9-3.83,20-5,29.76-20.23,39.43-7.58,4.81-53.47-.31-58,0-2.84.2-6.79-1.13-9.32-2.15a7.45,7.45,0,0,0-5.14-.16c-3.47,1.13-6.51,1-7.79.31-1.86-1,7.7-7.83,12.29-8.73,2.69-.53,10.69,1.08,13.14,2,2,.77,38.25,1.42,44.27-1.4,7.89-3.7,8.51-18.22,14.85-30.32C1205.51,917.81,1210.62,919.17,1210.62,919.17Z"/><path class="cls-9" d="M1212.07,915.79c15,5.2,1.75,36,1.75,36-7.23,2-12.91-1-22.3-4.42C1194.94,940,1198.57,911.1,1212.07,915.79Z"/><path class="cls-26" d="M1188.88,901.85s1.42,2.35,4.2,10.6c1.86,5.53-9.29,16.8-10,6.49-.57-8.3-2.11-8.49-1.82-8.62Z"/><path class="cls-26" d="M1191.07,895.2a7.31,7.31,0,0,0,.1,1.14,17.89,17.89,0,0,1-.29,8.33,10.26,10.26,0,0,1-5.67,6.6,10.11,10.11,0,0,1-7.9-.44,17.19,17.19,0,0,1-6.17-5.2c-2.61-3.36-5.73-7.58-4.61-11.69.54-2,5.24-6.49,8.64-9.55a6.38,6.38,0,0,1,7.5-.75l5.28,3.11a6.42,6.42,0,0,1,3.15,5.55Z"/><path class="cls-29" d="M1187.12,896.43c-.15-9.88,5.48-3.66,3.53,2.12a8.31,8.31,0,0,1,.54,4.35c1.67-2,2.25-2.41,4-7.07s.44-21.74-11.82-22.29c-16.75-11.6-26,17.33-29.06,17,1.13,3.1,5.85,8.77,12.6,7.42,2.94-.58,8.83-1.79,11.08-3.75C1182.39,890.36,1187.14,897.74,1187.12,896.43Z"/><path class="cls-11" d="M1054,969.15h53.3a1.89,1.89,0,0,0,0-3.77l-9.51-50.28s-51.81-.21-52.85,0a1.89,1.89,0,0,0-1.47,2.22Z"/><path class="cls-23" d="M1106.87,969.15h53.3a1.89,1.89,0,0,0,0-3.77H1110L1100,916.57a1.88,1.88,0,0,0-2.22-1.47,1.89,1.89,0,0,0-1.48,2.22Z"/><path class="cls-29" d="M1182.62,874.8a27.27,27.27,0,0,1,8.63-16.19,21.52,21.52,0,0,1,17.35-5.23,17.86,17.86,0,0,1,13.84,11.26c2.59,7.41-.39,16.07,2.88,23.2,2,4.32,5.93,7.34,9.34,10.65s6.56,7.61,6.13,12.35c-.52,5.59-6.26,9.7-11.88,9.73s-10.81-3.2-14.62-7.31-6.57-9.54-5.63-15c1-5.83,6-10.37,6.94-16.21,1-6.57-3.94-13.24-10.36-15s-15.88,3.62-20.31,8.58"/><path class="cls-20" d="M1437,753.25l0-7.82c0-12-4.76-24.25-13.76-35.29a48.27,48.27,0,0,1-10.19-39.35,49,49,0,1,1,86.11,39.48c-8.91,10.86-13.64,23-13.64,35.15l.11,7.83Z"/><path class="cls-7" d="M1469.08,750.85c.06-1.16.12-2.32.14-3.48,0-1,11.15-38.28,7-45.82a5.82,5.82,0,0,0-3.47-2.89,7.16,7.16,0,0,0-5.25.8,8.71,8.71,0,0,0-6.72-3.55h0a7.16,7.16,0,0,0-6.34,3.66c-.28-.15-.56-.29-.84-.41a6.59,6.59,0,0,0-7,1c-5.08,4.28,6.34,45.76,6.34,46.79v4Zm-19-47.14c.26-.21.58-.51,1.56-.08a5.31,5.31,0,0,1,.91.54c-.54,2.5-.49,5.33,1.23,6.86a4,4,0,0,0,4.45.53,3.72,3.72,0,0,0,2.2-3.61,9,9,0,0,0-2.1-5,7.84,7.84,0,0,1,.66-1.12c.32-.42.93-1.14,1.55-1.11a3.7,3.7,0,0,1,3,1.83,11,11,0,0,0-2.38,3.75,4.28,4.28,0,0,0,2.86,5.85,4.07,4.07,0,0,0,4.14-1c1.64-1.64,1.89-4.57,1.33-7.2a4.22,4.22,0,0,1,1.73-.72,1.12,1.12,0,0,1,.44.5c2.93,5.29-2.08,26.28-6.77,41.36h-7.4C1452.05,726.47,1447.92,706.54,1450.07,703.71Z"/><path class="cls-28" d="M1431.94,757.28h0a6.44,6.44,0,0,0,6.44,6.44h45.76a6.43,6.43,0,0,0,6.43-6.44h0a6.43,6.43,0,0,0-6.43-6.43h-45.76A6.43,6.43,0,0,0,1431.94,757.28Z"/><path class="cls-28" d="M1431.94,770.16h0a6.43,6.43,0,0,0,6.44,6.43h45.76a6.43,6.43,0,0,0,6.43-6.43h0a6.43,6.43,0,0,0-6.43-6.44h-45.76A6.44,6.44,0,0,0,1431.94,770.16Z"/><path class="cls-28" d="M1431.94,783h0a6.44,6.44,0,0,0,6.44,6.44h45.76a6.44,6.44,0,0,0,6.43-6.44h0a6.43,6.43,0,0,0-6.43-6.44h-45.76A6.44,6.44,0,0,0,1431.94,783Z"/><path class="cls-12" d="M417.19,463.92a11.22,11.22,0,1,0,11.22-11.23A11.22,11.22,0,0,0,417.19,463.92Z"/><circle class="cls-12" cx="1659.58" cy="490.62" r="12.17"/><circle class="cls-12" cx="1222.97" cy="167.51" r="11.73"/><path class="cls-12" d="M1605,888.94a8.26,8.26,0,1,0,8.26-8.25A8.26,8.26,0,0,0,1605,888.94Z"/><path class="cls-12" d="M120,832.76a8.26,8.26,0,1,0,8.25-8.25A8.25,8.25,0,0,0,120,832.76Z"/><circle class="cls-12" cx="670.85" cy="252.95" r="9.77"/><circle class="cls-12" cx="420.81" cy="223.81" r="8.38"/><circle class="cls-12" cx="1067.38" cy="313.81" r="8.38"/><circle class="cls-12" cx="270.89" cy="921.74" r="8.38"/><circle class="cls-12" cx="1573.6" cy="632.46" r="8.38"/><circle class="cls-12" cx="1434.86" cy="322.19" r="8.38"/></g></g></svg>