<svg id="Capa_1" data-name="Capa 1" xmlns="http://www.w3.org/2000/svg" xmlns:xlink="http://www.w3.org/1999/xlink" viewBox="0 0 1920 1080"><defs><style>.cls-1{fill:url(#Degradado_sin_nombre);}</style><linearGradient id="Degradado_sin_nombre" x1="927.74" y1="-377.07" x2="971.48" y2="1278.87" gradientTransform="matrix(1, 0, 0, -1, 0, 1080)" gradientUnits="userSpaceOnUse"><stop offset="0" stop-color="#740945"/><stop offset="0.12" stop-color="#870c47"/><stop offset="0.37" stop-color="#aa114a"/><stop offset="0.61" stop-color="#c3154d"/><stop offset="0.83" stop-color="#d3174e"/><stop offset="1" stop-color="#d8184f"/></linearGradient></defs><path class="cls-1" d="M1678.08,693.8c-27.53-41.83-66-77.94-77.72-127.63-11.69-49.5,5.86-100.77,19.19-149.8s21.5-105.9-5.49-147.91c-36.55-56.89-115.07-54.73-177.18-37.06s-129.13,44.42-188,16.83c-69.36-32.48-95.19-125.59-155.81-174.29-68-54.59-176.75-35-224.52,40.42-22.88,36.13-32.58,81.33-59.55,114-36.49,44.25-96.58,55.83-151.49,53.52S547.84,266.2,493.12,271.69s-112.53,36-130.36,92c-13.61,42.73-1,89.93,16.44,131s40.11,80.49,47.77,124.9-4.28,97-41,118.8c-42.76,25.3-97.06-.94-144.23,12.51-53.2,15.16-84.6,82.3-73.84,140.42s55.88,104.16,107.5,124.7,108.78,18.77,163,8.32l916.34,10.54c62.63-3.15,110.92,5,169.9,2.06s119.67-25.51,157.8-74.06C1740.25,889.12,1730,772.59,1678.08,693.8Z"/></svg>