<svg id="CAJA-SLIDER" xmlns="http://www.w3.org/2000/svg" width="1364.002" height="546.003" viewBox="0 0 1364.002 546.003">
  <g id="Grupo_233" data-name="Grupo 233" transform="translate(-3501.6 3492.603)">
    <rect id="Rectángulo_121" data-name="Rectángulo 121" width="1364" height="546" transform="translate(3501.6 -3492.6)" fill="#d90452"/>
    <path id="Trazado_605" data-name="Trazado 605" d="M3501.6-3090.462s160.381,9.9,449.464-221.763,508.865-182.162,685.087-114.841S4849.528-3284.5,4865.6-3235v-257.6h-1364Z" fill="#fbe8f3" opacity="0.27"/>
    <path id="Trazado_606" data-name="Trazado 606" d="M3885.76-3492.6c-23.61,134.77-141.23,237.21-282.77,237.21a286.283,286.283,0,0,1-101.39-18.42V-3492.6Z" fill="#d90452" opacity="0.41"/>
    <g id="Grupo_231" data-name="Grupo 231">
      <path id="Trazado_607" data-name="Trazado 607" d="M4787.17-3292a422.393,422.393,0,0,0-165.47,33.41,423.662,423.662,0,0,0-135.12,91.1,423.517,423.517,0,0,0-91.11,135.12,420.875,420.875,0,0,0-25.97,85.77h1.01a421.107,421.107,0,0,1,25.88-85.38,422.564,422.564,0,0,1,90.89-134.8,422.717,422.717,0,0,1,134.81-90.89A421.386,421.386,0,0,1,4787.17-3291a425.3,425.3,0,0,1,78.43,7.22v-1.02A427.115,427.115,0,0,0,4787.17-3292Z" fill="#fbe8f3"/>
    </g>
    <g id="Grupo_232" data-name="Grupo 232">
      <path id="Trazado_608" data-name="Trazado 608" d="M4019.38-3492.6q-2.4,2.475-4.84,4.92a422.6,422.6,0,0,1-134.81,90.89,421.314,421.314,0,0,1-165.08,33.33,421.385,421.385,0,0,1-165.08-33.33,423.121,423.121,0,0,1-47.97-23.96v1.16a426.08,426.08,0,0,0,47.58,23.73,422.562,422.562,0,0,0,165.47,33.4,422.562,422.562,0,0,0,165.47-33.4,423.894,423.894,0,0,0,135.13-91.11c1.86-1.86,3.71-3.74,5.52-5.63Z" fill="#fbe8f3"/>
    </g>
  </g>
</svg>
