<svg width="375" height="226" viewBox="0 0 375 226" fill="none" xmlns="http://www.w3.org/2000/svg">
<g clip-path="url(#clip0)">
<g opacity="0.526">
<g opacity="0.526">
<g opacity="0.526">
<g opacity="0.526">
<g opacity="0.526">
<path opacity="0.526" d="M333.907 199.109C334.674 192.867 330.237 187.185 323.996 186.419C317.756 185.652 312.075 190.091 311.309 196.333C310.542 202.575 314.979 208.257 321.219 209.023C327.46 209.79 333.14 205.351 333.907 199.109Z" fill="white"/>
<path opacity="0.526" d="M322.869 199.765L326.069 205.265C326.124 205.358 326.196 205.439 326.282 205.505C326.368 205.57 326.466 205.618 326.57 205.645C326.675 205.673 326.783 205.679 326.89 205.665C326.997 205.65 327.1 205.615 327.194 205.56C327.287 205.506 327.369 205.433 327.434 205.347C327.499 205.261 327.547 205.164 327.574 205.059C327.602 204.955 327.608 204.846 327.594 204.739C327.579 204.632 327.544 204.529 327.489 204.436L324.289 198.936C325.393 198.052 326.121 196.783 326.328 195.384C326.535 193.985 326.205 192.56 325.404 191.395C324.604 190.229 323.392 189.41 322.012 189.101C320.632 188.792 319.187 189.016 317.966 189.728C316.744 190.441 315.838 191.589 315.428 192.943C315.019 194.296 315.136 195.754 315.757 197.024C316.378 198.295 317.456 199.283 318.775 199.791C320.095 200.299 321.558 200.29 322.87 199.764L322.869 199.765ZM317.369 196.565C316.974 195.887 316.789 195.107 316.838 194.324C316.886 193.54 317.166 192.789 317.641 192.165C318.117 191.541 318.767 191.071 319.509 190.816C320.251 190.561 321.052 190.533 321.811 190.733C322.57 190.934 323.252 191.354 323.771 191.943C324.29 192.531 324.624 193.26 324.729 194.038C324.834 194.816 324.706 195.607 324.361 196.312C324.016 197.017 323.47 197.603 322.791 197.998C321.882 198.524 320.801 198.669 319.785 198.4C318.768 198.132 317.9 197.472 317.369 196.565Z" fill="#E07070"/>
</g>
<path opacity="0.526" d="M286.921 199.805C288.467 199.805 289.721 198.551 289.721 197.005C289.721 195.458 288.467 194.205 286.921 194.205C285.375 194.205 284.121 195.458 284.121 197.005C284.121 198.551 285.375 199.805 286.921 199.805Z" fill="#B95E89"/>
</g>
</g>
</g>
</g>
<g opacity="0.366">
<g opacity="0.366">
<g opacity="0.366">
<g opacity="0.366">
<path opacity="0.366" d="M262.049 211.782H225.656L228.647 167.91H259.057L262.049 211.782Z" fill="#740945"/>
<path opacity="0.366" d="M266.819 204.757C266.601 204.433 266.307 204.167 265.963 203.983C265.618 203.799 265.233 203.703 264.843 203.703H222.862C222.471 203.703 222.087 203.799 221.742 203.983C221.397 204.167 221.103 204.433 220.886 204.757L215.386 212.957C215.147 213.315 215.009 213.731 214.988 214.161C214.967 214.591 215.063 215.019 215.266 215.399C215.469 215.778 215.771 216.096 216.14 216.318C216.509 216.539 216.931 216.656 217.362 216.657H270.341C270.771 216.656 271.194 216.539 271.563 216.318C271.932 216.096 272.234 215.778 272.437 215.399C272.64 215.019 272.736 214.591 272.714 214.161C272.693 213.731 272.556 213.315 272.317 212.957L266.819 204.757Z" fill="#740945"/>
<path opacity="0.366" d="M334.04 46.376H153.665C148.604 46.376 144.502 50.4784 144.502 55.539V170.41C144.502 175.471 148.604 179.573 153.665 179.573H334.04C339.101 179.573 343.203 175.471 343.203 170.41V55.539C343.203 50.4784 339.101 46.376 334.04 46.376Z" fill="#740945"/>
<path opacity="0.366" d="M334.054 55.2009H153.65V169.37H334.054V55.2009Z" fill="#FEFEFE"/>
<path opacity="0.366" d="M329.547 67.634H158.157V169.369H329.547V67.634Z" fill="#E5E6ED"/>
<path opacity="0.366" d="M329.547 67.634H158.157V76.05H329.547V67.634Z" fill="#00E9D3"/>
<path opacity="0.366" d="M321.228 103.501H268.001V110.527H321.228V103.501Z" fill="#FEFEFE"/>
<path opacity="0.366" d="M321.228 115.922H268.001V122.948H321.228V115.922Z" fill="#FEFEFE"/>
<path opacity="0.366" d="M321.228 128.344H268.001V135.37H321.228V128.344Z" fill="#FEFEFE"/>
<path opacity="0.366" d="M227.191 84.4961H173.964V91.5221H227.191V84.4961Z" fill="#FEFEFE"/>
<path opacity="0.366" d="M227.191 96.918H173.964V103.944H227.191V96.918Z" fill="#FEFEFE"/>
</g>
<path opacity="0.366" d="M224.71 99.0879H124.222C122.532 99.0879 120.911 99.7592 119.716 100.954C118.521 102.149 117.85 103.77 117.85 105.46V137.86C117.85 139.55 118.522 141.17 119.717 142.365C120.912 143.56 122.532 144.231 124.222 144.231H187.178L211.157 164.62L199.77 144.231H224.71C226.4 144.231 228.02 143.56 229.215 142.365C230.41 141.17 231.081 139.55 231.081 137.86V105.46C231.081 104.623 230.917 103.795 230.596 103.022C230.276 102.248 229.807 101.546 229.215 100.954C228.624 100.363 227.921 99.8932 227.148 99.5729C226.375 99.2527 225.547 99.0879 224.71 99.0879V99.0879Z" fill="#4E13D1"/>
<path opacity="0.366" d="M223.436 107.827H155.715V111.726H223.436V107.827Z" fill="white"/>
<path opacity="0.366" d="M223.436 115.782H155.715V119.681H223.436V115.782Z" fill="white"/>
<path opacity="0.366" d="M223.436 123.737H155.715V127.636H223.436V123.737Z" fill="white"/>
<path opacity="0.366" d="M200.662 131.692H155.715V135.591H200.662V131.692Z" fill="white"/>
<path opacity="0.366" d="M150.354 120.966C150.354 124.431 148.977 127.754 146.527 130.205C144.077 132.655 140.753 134.031 137.288 134.031C133.823 134.031 130.5 132.654 128.05 130.204C125.6 127.754 124.224 124.431 124.224 120.966C124.224 117.501 125.6 114.178 128.05 111.728C130.5 109.278 133.823 107.901 137.288 107.901C139.004 107.901 140.703 108.239 142.288 108.895C143.873 109.552 145.314 110.514 146.527 111.727C147.74 112.941 148.703 114.381 149.36 115.966C150.016 117.551 150.354 119.25 150.354 120.966V120.966Z" fill="#110239"/>
<path opacity="0.366" d="M137.288 120.883C139.324 120.883 140.975 119.181 140.975 117.081C140.975 114.981 139.324 113.279 137.288 113.279C135.252 113.279 133.601 114.981 133.601 117.081C133.601 119.181 135.252 120.883 137.288 120.883Z" fill="white"/>
<path opacity="0.366" d="M137.354 121.459H137.222C136.363 121.459 135.511 121.628 134.717 121.957C133.923 122.286 133.201 122.768 132.593 123.376C131.985 123.984 131.503 124.706 131.174 125.5C130.845 126.294 130.676 127.145 130.676 128.005V132.178C132.673 133.381 134.957 134.022 137.288 134.033C139.62 134.022 141.904 133.381 143.901 132.178V128.005C143.901 127.145 143.732 126.294 143.403 125.5C143.074 124.705 142.592 123.984 141.984 123.376C141.376 122.768 140.654 122.286 139.86 121.957C139.065 121.628 138.214 121.459 137.354 121.459Z" fill="white"/>
<path opacity="0.366" d="M346.629 15H246.14C245.303 14.9997 244.475 15.1643 243.701 15.4844C242.928 15.8044 242.226 16.2737 241.634 16.8653C241.042 17.4569 240.573 18.1594 240.252 18.9325C239.932 19.7056 239.767 20.5342 239.767 21.371V53.771C239.767 55.461 240.438 57.0817 241.633 58.2767C242.828 59.4717 244.449 60.143 246.139 60.143H275.239L267.439 80.532L287.828 60.143H346.628C347.465 60.143 348.293 59.9782 349.066 59.658C349.839 59.3377 350.542 58.8683 351.133 58.2766C351.725 57.6849 352.194 56.9825 352.514 56.2094C352.835 55.4363 352.999 54.6077 352.999 53.771V21.371C352.999 19.6815 352.328 18.0612 351.133 16.8664C349.939 15.6716 348.319 15.0003 346.629 15V15Z" fill="#F590CE"/>
<path opacity="0.366" d="M345.354 23.738H277.633V27.637H345.354V23.738Z" fill="white"/>
<path opacity="0.366" d="M345.354 31.6931H277.633V35.5921H345.354V31.6931Z" fill="white"/>
<path opacity="0.366" d="M345.354 39.6479H277.633V43.5469H345.354V39.6479Z" fill="white"/>
<path opacity="0.366" d="M322.58 47.603H277.633V51.502H322.58V47.603Z" fill="white"/>
<path opacity="0.366" d="M272.272 36.877C272.272 40.3422 270.895 43.6653 268.445 46.1154C265.995 48.5656 262.671 49.942 259.206 49.942C257.49 49.9423 255.791 49.6047 254.206 48.9483C252.62 48.2919 251.179 47.3296 249.966 46.1164C248.752 44.9032 247.79 43.4628 247.133 41.8774C246.476 40.2921 246.138 38.593 246.138 36.877C246.138 33.4121 247.515 30.0891 249.964 27.639C252.414 25.1888 255.737 23.8123 259.202 23.812C260.918 23.8115 262.618 24.149 264.203 24.8054C265.789 25.4617 267.23 26.4239 268.443 27.6371C269.657 28.8504 270.62 30.2908 271.277 31.8762C271.934 33.4616 272.272 35.1609 272.272 36.877V36.877Z" fill="#110239"/>
<path opacity="0.366" d="M262.894 32.9931C262.908 33.9858 262.528 34.9436 261.837 35.6561C261.145 36.3686 260.2 36.7776 259.207 36.7932C258.214 36.7774 257.269 36.3683 256.578 35.6558C255.887 34.9433 255.506 33.9856 255.521 32.9931C255.506 32.0006 255.887 31.0429 256.578 30.3304C257.269 29.618 258.214 29.2089 259.207 29.1931C260.2 29.2086 261.145 29.6176 261.837 30.3301C262.528 31.0427 262.908 32.0004 262.894 32.9931Z" fill="white"/>
<path opacity="0.366" d="M259.273 37.3669H259.141C257.405 37.3669 255.74 38.0566 254.512 39.2842C253.285 40.5119 252.595 42.1769 252.595 43.913V48.087C254.592 49.2895 256.876 49.9304 259.207 49.942C261.538 49.9306 263.823 49.2897 265.819 48.087V43.913C265.819 43.0533 265.65 42.202 265.321 41.4078C264.992 40.6135 264.51 39.8918 263.902 39.2839C263.294 38.6761 262.573 38.1939 261.778 37.865C260.984 37.5361 260.133 37.3668 259.273 37.3669V37.3669Z" fill="white"/>
<g opacity="0.366">
<path opacity="0.366" d="M319.068 146.787H277.975C275.075 146.787 272.723 149.139 272.723 152.039V157.91C272.723 160.811 275.075 163.162 277.975 163.162H319.068C321.969 163.162 324.32 160.811 324.32 157.91V152.039C324.32 149.139 321.969 146.787 319.068 146.787Z" fill="#D6184F"/>
</g>
<path opacity="0.366" d="M249.934 94.825C247.276 95.3108 244.563 95.4309 241.872 95.1819C240.907 95.0912 239.956 94.884 239.041 94.5649C239.172 97.9229 239.197 105.791 236.809 109.049C236.809 109.049 237.669 112.919 244.655 113.034C251.641 113.149 252.428 107.878 252.428 107.878C252.428 107.878 250.077 99.775 249.934 94.825Z" fill="#FCCAEA"/>
<path opacity="0.366" d="M236.844 109.17C236.866 109.237 236.901 109.331 236.951 109.444L236.968 109.48C237.033 109.62 237.105 109.756 237.185 109.887L237.196 109.906C237.304 110.08 237.422 110.247 237.551 110.406L237.61 110.476C237.976 110.903 238.402 111.273 238.876 111.576L238.968 111.637C239.271 111.826 239.587 111.993 239.914 112.137C239.959 112.157 240.014 112.175 240.055 112.194C240.453 112.362 240.863 112.502 241.281 112.613C241.495 110.801 242.207 109.085 243.339 107.654C245.284 105.186 248.097 103.553 251.205 103.088C250.539 100.379 250.114 97.6161 249.934 94.832C247.276 95.3179 244.563 95.438 241.872 95.189C240.907 95.0983 239.956 94.8911 239.041 94.572C239.172 97.93 239.197 105.798 236.809 109.056L236.832 109.139L236.844 109.17Z" fill="#FAB4DF"/>
<path opacity="0.366" d="M240.256 75.9799C240.256 75.9799 251.703 72.599 253.526 75.372C255.349 78.145 255.018 82.6219 255.778 84.5939C256.538 86.5659 259.378 88.6469 259.678 89.4359C259.978 90.2249 257.778 91.7359 257.468 92.3489C257.158 92.9619 256.008 99.4429 254.021 100.873C252.034 102.303 241.376 98.508 238.735 93.473C236.094 88.438 237.186 77.6379 240.256 75.9799Z" fill="#FCCAEA"/>
<path opacity="0.366" d="M245.469 77.99C245.607 80.034 245.191 82.0773 244.263 83.904C243.578 85.273 246.997 88.9139 246.046 90.5689C245.411 91.6689 244.486 91.3909 243.646 89.2149C243.252 88.4718 242.591 87.906 241.796 87.6319C238.996 86.4199 238.341 90.69 240.854 91.959C242.613 92.847 241.567 97.2979 241.567 97.2979C239.679 98.7509 233.438 96.9979 234.122 92.4419C234.557 89.5419 234.75 88.436 233.734 87.73C231.894 86.45 229.499 82.9 232.527 79.889C236.7 75.741 232.894 74.423 237.719 73.227C242.544 72.031 246.526 74.976 245.469 77.99Z" fill="#110239"/>
<path opacity="0.366" d="M236.931 75.5501C237.201 74.4981 239.105 73.1411 240.046 72.4391C241.53 71.3798 243.208 70.6227 244.984 70.2111C246.782 69.7495 248.659 69.686 250.484 70.0251C252.049 70.3251 253.361 71.0201 254.963 71.2011C255.646 71.3491 256.352 71.3569 257.038 71.224C257.725 71.0911 258.377 70.8203 258.955 70.4281C259.238 71.6138 259.305 72.8405 259.155 74.0501C258.742 75.5016 258.042 76.8556 257.097 78.0321C254.768 81.4961 248.455 83.4171 244.002 81.5831C241.85 80.6981 239.919 79.9331 238.863 78.0621C238.341 77.1376 237.691 76.2918 236.931 75.5501V75.5501Z" fill="#110239"/>
<path opacity="0.366" d="M298.026 83.0149L309.092 107.575C309.092 107.575 305.852 111.219 304.768 110.409C303.684 109.599 287.089 89.6709 285.468 88.6359C283.847 87.6009 298.026 83.0149 298.026 83.0149Z" fill="#110239"/>
<path opacity="0.366" d="M270.585 86.0731C270.585 86.0731 270.631 93.1351 274.949 94.7541C274.949 94.7541 297.082 85.5841 301.535 84.7041C305.988 83.8241 322.182 83.6881 322.182 83.6881L305.853 54.5391C305.853 54.5391 298.026 70.1941 290.874 75.3231C283.722 80.4521 270.585 86.0731 270.585 86.0731Z" fill="#4E13D1"/>
<path opacity="0.366" d="M284.941 90.7071C286.693 90.0071 288.519 89.2921 290.317 88.5981C287.961 85.7059 286.361 82.2738 285.659 78.6101C283.98 79.5711 282.241 80.4981 280.559 81.3601C281.19 84.8012 282.7 88.0209 284.941 90.7071V90.7071Z" fill="#110239"/>
<path opacity="0.366" d="M328.211 62.0369C332.821 73.1569 331.191 84.395 324.572 87.137C317.953 89.879 308.85 83.093 304.239 71.974C299.628 60.855 301.259 49.616 307.878 46.874C314.497 44.132 323.6 50.9169 328.211 62.0369Z" fill="#00E9D3"/>
<path opacity="0.366" d="M327.317 62.4061C331.238 71.8641 329.852 81.4251 324.217 83.7601C318.582 86.0951 310.842 80.3181 306.917 70.8601C302.992 61.4021 304.381 51.8411 310.017 49.5081C315.653 47.1751 323.395 52.9481 327.317 62.4061Z" fill="#110239"/>
<path opacity="0.366" d="M296.573 100.7C296.047 100.381 296.195 98.4001 296.301 97.8901C296.469 97.0901 297.025 96.0361 296.466 95.2671C295.479 93.9061 294.091 97.5671 293.91 98.0981C293.562 98.8619 293.473 99.7188 293.656 100.538C294.141 101.736 294.861 102.824 295.774 103.738C295.674 104.102 295.559 104.48 295.421 104.884C296.337 105.279 297.228 105.73 298.088 106.234C299.157 106.85 299.101 107.612 300.1 108.298L301.1 106.003C300.68 105.48 297.45 101.232 296.573 100.7Z" fill="#FCCAEA"/>
<path opacity="0.366" d="M303.662 92.6601C302.705 91.6311 301.215 92.0261 300.062 92.8701C299.216 93.4861 296.782 95.4551 297.438 96.8831C297.983 98.0701 301.115 95.4431 301.115 95.4431C299.961 96.4361 297.815 97.2291 298.352 98.2221C298.952 99.3311 301.69 97.7511 302.288 97.3121C301.674 97.4701 298.621 99.3231 299.843 100.291C300.681 100.954 302.926 99.5621 303.599 99.0911C302.699 99.3651 301.472 100.164 301.71 101.414C302.101 102.097 303.463 101.644 304.222 101.336C305.367 100.871 306.444 100.692 306.536 99.2701C306.565 99.0139 306.578 98.756 306.575 98.4981C306.461 97.4075 306.118 96.3532 305.569 95.4041C305.049 94.4143 304.408 93.4926 303.662 92.6601V92.6601Z" fill="#FCCAEA"/>
<path opacity="0.366" d="M187.156 100.815C186.622 99.9618 186.192 99.0476 185.876 98.092C185.591 97.277 185.39 96.4429 185.108 95.6279C184.77 94.8671 184.583 94.0474 184.558 93.215C184.605 92.715 184.706 92.2214 184.858 91.7429C185.021 91.1159 185.251 90.5079 185.381 89.8729C185.495 89.3089 185.445 88.7599 185.552 88.1979C185.706 87.1201 186.036 86.0749 186.528 85.104C186.932 84.4032 187.408 83.747 187.949 83.1459C188.204 82.8231 188.486 82.522 188.791 82.246C189.132 82.0079 189.399 81.6791 189.562 81.2969C189.611 81.1738 189.632 81.0415 189.624 80.9094C189.616 80.7772 189.579 80.6483 189.516 80.5319C189.453 80.4154 189.366 80.3142 189.259 80.2352C189.153 80.1563 189.031 80.1016 188.901 80.075C188.334 79.9649 187.748 80.0014 187.199 80.1812C186.65 80.3609 186.156 80.6778 185.763 81.1019C184.93 82.2489 184.536 83.6539 183.608 84.7589C180.769 88.1409 178.108 84.159 174.792 82.728C173.662 82.1446 172.59 81.4537 171.592 80.6649C171 80.2199 168.458 77.804 167.255 78.434C166.371 78.897 168.102 80.9269 168.939 81.4229C169.269 81.6229 172.107 83.9229 172.476 84.0339C171.64 83.8919 169.467 82.4549 167.718 81.0869C166.463 80.1039 165.244 79.1359 164.56 79.6979C162.452 81.4249 170.722 85.3759 171.367 85.7379C170.678 85.7969 164.203 81.212 163.591 82.898C163.255 83.825 164.598 84.743 165.697 85.34C167.076 86.089 169.387 86.625 169.908 87.03C168.933 87.361 164.647 84.4449 164.644 86.2239C164.644 87.3889 167.307 88.2609 168.308 88.5659C169.34 88.8809 172.372 90.944 173.332 91.401C176.532 92.926 177.853 92.749 179.115 94.666C179.915 95.888 181.352 102.341 182.515 104.796L187.156 100.815Z" fill="#FCCAEA"/>
<path opacity="0.366" d="M294.788 104.004C291.935 112.312 285.832 127.004 283.818 125.977C280.039 124.042 271.906 117.391 265.83 113.324C263.61 111.744 261.244 110.381 258.764 109.252L262.994 129.309C262.994 129.309 283.044 144.536 287.245 142.204C290.545 140.369 298.68 117.213 301.545 107.618C301.547 107.62 294.836 104.041 294.788 104.004Z" fill="#F4C70C"/>
<path opacity="0.366" d="M274.932 132.614C270.835 127.923 266.419 123.52 261.717 119.436L262.39 128.947C262.39 128.947 282.601 144.141 287.074 142.247C283.223 139.768 277.679 136.178 274.932 132.614Z" fill="#E2B90F"/>
<path opacity="0.366" d="M224.743 110.313C224.743 110.313 200.085 120.267 197.403 119.567C194.721 118.867 185.779 93.4441 185.779 93.4441L178.311 96.4781C178.311 96.4781 186.286 133.147 191.42 134.862C196.554 136.577 227.158 127.735 227.158 127.735C227.351 121.833 226.534 115.941 224.743 110.313V110.313Z" fill="#F4C70C"/>
<path opacity="0.366" d="M203.707 132.575C201.534 133.354 199.322 134.123 197.107 134.775C207.566 133.394 227.164 127.734 227.164 127.734C227.256 124.618 227.076 121.499 226.627 118.414C220.551 124.99 211.918 129.628 203.707 132.575Z" fill="#E2B90F"/>
<path opacity="0.366" d="M315.631 69.1769C314.503 65.6979 311.11 63.6819 308.051 64.6769C307.033 65.0176 306.144 65.6613 305.502 66.5219C305.866 68.0025 306.342 69.4536 306.924 70.8629C307.898 73.2318 309.178 75.4633 310.73 77.5009C311.205 77.4903 311.676 77.4135 312.13 77.2729C315.192 76.2779 316.759 72.6499 315.631 69.1769Z" fill="#D0D1DE"/>
<g opacity="0.366">
<path opacity="0.366" d="M224.784 140.309C223.914 148.868 223.236 166.855 222.724 169.37H263.182C263.896 155.932 263.658 136.47 262.993 129.309C261.835 116.83 258.763 109.252 258.763 109.252C258.763 109.252 255.743 108.297 252.163 106.918C252.163 106.918 244.715 111.469 237.783 106.979C237.783 106.979 225.265 109.943 223.752 110.665C222.493 111.266 225.714 131.17 224.784 140.309Z" fill="#F4C70C"/>
<path opacity="0.366" d="M235.485 152.025C235.451 148.023 234.666 144.063 233.171 140.351C232.811 139.514 232.561 138.633 232.428 137.732C232.221 135.653 231.641 133.628 230.714 131.756C229.814 130.39 228.894 129.03 228 127.656C227.5 126.983 226.982 126.271 226.406 125.429C225.489 124.027 224.663 122.567 223.935 121.058C224.41 127.342 225.251 135.733 224.784 140.308C223.914 148.867 223.236 166.854 222.724 169.369H241.553C239.133 166.255 237.681 162.463 236.259 157.84C235.727 155.948 235.466 153.99 235.485 152.025V152.025Z" fill="#E2B90F"/>
</g>
<path opacity="0.366" d="M278.445 153.267C278.423 153.573 278.31 153.814 278.105 153.99C277.902 154.165 277.634 154.253 277.301 154.253C276.936 154.253 276.649 154.131 276.439 153.886C276.231 153.64 276.127 153.303 276.127 152.874V152.7C276.127 152.427 276.175 152.186 276.271 151.978C276.368 151.769 276.505 151.61 276.684 151.499C276.863 151.387 277.072 151.331 277.309 151.331C277.637 151.331 277.901 151.419 278.102 151.595C278.302 151.771 278.418 152.017 278.449 152.335H277.863C277.849 152.152 277.798 152.019 277.709 151.937C277.622 151.853 277.488 151.812 277.309 151.812C277.113 151.812 276.967 151.882 276.869 152.023C276.773 152.162 276.723 152.379 276.721 152.673V152.888C276.721 153.195 276.767 153.42 276.859 153.562C276.953 153.704 277.1 153.775 277.301 153.775C277.482 153.775 277.617 153.734 277.705 153.652C277.795 153.568 277.846 153.44 277.859 153.267H278.445ZM281.166 152.857C281.166 153.137 281.117 153.382 281.018 153.593C280.919 153.804 280.777 153.967 280.592 154.081C280.408 154.196 280.197 154.253 279.959 154.253C279.723 154.253 279.513 154.197 279.328 154.083C279.143 153.97 279 153.809 278.898 153.599C278.797 153.388 278.745 153.146 278.744 152.872V152.732C278.744 152.452 278.794 152.206 278.895 151.993C278.996 151.78 279.139 151.616 279.322 151.503C279.507 151.389 279.718 151.331 279.955 151.331C280.192 151.331 280.402 151.389 280.586 151.503C280.771 151.616 280.913 151.78 281.014 151.993C281.115 152.206 281.166 152.451 281.166 152.73V152.857ZM280.572 152.728C280.572 152.43 280.519 152.203 280.412 152.048C280.305 151.893 280.153 151.816 279.955 151.816C279.758 151.816 279.607 151.892 279.5 152.046C279.393 152.198 279.339 152.422 279.338 152.718V152.857C279.338 153.147 279.391 153.372 279.498 153.532C279.605 153.693 279.758 153.773 279.959 153.773C280.156 153.773 280.307 153.696 280.412 153.542C280.518 153.387 280.571 153.162 280.572 152.866V152.728ZM282.357 151.37L283.088 153.433L283.814 151.37H284.584V154.214H283.996V153.437L284.055 152.095L283.287 154.214H282.885L282.119 152.097L282.178 153.437V154.214H281.592V151.37H282.357ZM285.682 153.212V154.214H285.096V151.37H286.205C286.419 151.37 286.606 151.409 286.768 151.488C286.93 151.566 287.055 151.677 287.143 151.822C287.23 151.965 287.273 152.128 287.273 152.312C287.273 152.59 287.178 152.81 286.986 152.972C286.796 153.132 286.533 153.212 286.195 153.212H285.682ZM285.682 152.738H286.205C286.36 152.738 286.478 152.701 286.559 152.628C286.641 152.555 286.682 152.451 286.682 152.316C286.682 152.176 286.641 152.064 286.559 151.978C286.477 151.892 286.363 151.848 286.219 151.845H285.682V152.738ZM288.73 153.173H288.264V154.214H287.678V151.37H288.734C289.07 151.37 289.329 151.445 289.512 151.595C289.694 151.745 289.785 151.956 289.785 152.23C289.785 152.424 289.743 152.586 289.658 152.716C289.575 152.845 289.448 152.948 289.277 153.025L289.893 154.187V154.214H289.264L288.73 153.173ZM288.264 152.698H288.736C288.883 152.698 288.997 152.661 289.078 152.587C289.159 152.512 289.199 152.408 289.199 152.277C289.199 152.142 289.161 152.037 289.084 151.96C289.008 151.883 288.892 151.845 288.734 151.845H288.264V152.698ZM291.838 153.628H290.811L290.615 154.214H289.992L291.051 151.37H291.594L292.658 154.214H292.035L291.838 153.628ZM290.969 153.154H291.68L291.322 152.089L290.969 153.154ZM293.977 153.173H293.51V154.214H292.924V151.37H293.98C294.316 151.37 294.576 151.445 294.758 151.595C294.94 151.745 295.031 151.956 295.031 152.23C295.031 152.424 294.989 152.586 294.904 152.716C294.821 152.845 294.694 152.948 294.523 153.025L295.139 154.187V154.214H294.51L293.977 153.173ZM293.51 152.698H293.982C294.13 152.698 294.243 152.661 294.324 152.587C294.405 152.512 294.445 152.408 294.445 152.277C294.445 152.142 294.407 152.037 294.33 151.96C294.255 151.883 294.138 151.845 293.98 151.845H293.51V152.698Z" fill="#E4ECF3"/>
</g>
</g>
</g>
<g style="mix-blend-mode:multiply">
<path d="M375 -1H0V226H375V-1Z" fill="#FD7171"/>
</g>
<g opacity="0.625">
<g opacity="0.625">
<path opacity="0.625" d="M152.104 18.1108C152.044 18.338 152 18.5697 151.974 18.8032L150.744 19.0571L151.344 21.957L152.574 21.7041C152.692 21.907 152.823 22.1018 152.967 22.2871L152.278 23.335L154.751 24.9619L155.44 23.9141C155.667 23.9747 155.898 24.018 156.132 24.0439L156.386 25.2739L159.286 24.6738L159.032 23.4438C159.235 23.3263 159.43 23.1954 159.615 23.0513L160.663 23.7402L162.29 21.2681L161.242 20.5781C161.303 20.351 161.346 20.1198 161.372 19.8862L162.602 19.6333L162.002 16.7329L160.772 16.9873C160.655 16.7843 160.523 16.5895 160.379 16.4043L161.069 15.3569L158.596 13.73L157.906 14.7778C157.679 14.7174 157.448 14.6741 157.214 14.6479L156.96 13.418L154.06 14.0181L154.314 15.248C154.111 15.3655 153.916 15.4969 153.731 15.6411L152.683 14.9512L151.056 17.4229L152.104 18.1108ZM154.18 17.7031C154.504 17.2103 154.968 16.8244 155.511 16.5947C156.054 16.3651 156.654 16.3021 157.233 16.4131C157.813 16.524 158.346 16.8041 158.766 17.2183C159.186 17.6324 159.474 18.162 159.594 18.7397C159.713 19.3175 159.658 19.9177 159.436 20.4644C159.214 21.011 158.836 21.4797 158.347 21.811C157.859 22.1424 157.284 22.3214 156.694 22.3257C156.104 22.33 155.526 22.1591 155.033 21.835C154.372 21.4005 153.91 20.7215 153.75 19.9468C153.59 19.1721 153.744 18.3653 154.178 17.7041L154.18 17.7031ZM166.836 21.9341C166.798 22.0765 166.77 22.2217 166.753 22.3682L165.981 22.5293L166.356 24.353L167.128 24.1919C167.201 24.3203 167.284 24.4432 167.375 24.5591L166.941 25.2183L168.496 26.2422L168.93 25.582C169.073 25.6205 169.218 25.6482 169.364 25.665L169.524 26.437L171.348 26.062L171.187 25.29C171.316 25.2172 171.438 25.1346 171.554 25.043L172.213 25.4771L173.237 23.9219L172.578 23.4883C172.616 23.3458 172.644 23.2007 172.66 23.0542L173.432 22.8931L173.057 21.0688L172.285 21.23C172.212 21.1016 172.13 20.9792 172.038 20.8633L172.472 20.2041L170.917 19.1812L170.483 19.8398C170.341 19.8012 170.196 19.7734 170.049 19.7568L169.888 18.9849L168.064 19.3599L168.225 20.1343C168.097 20.207 167.974 20.2892 167.858 20.3809L167.199 19.9473L166.175 21.502L166.836 21.9341ZM168.142 21.6782C168.346 21.3685 168.638 21.1261 168.979 20.9819C169.321 20.8378 169.698 20.7982 170.062 20.8682C170.427 20.9381 170.762 21.1145 171.026 21.375C171.29 21.6355 171.471 21.9682 171.546 22.3315C171.621 22.6948 171.586 23.0723 171.447 23.416C171.307 23.7597 171.069 24.0544 170.762 24.2627C170.455 24.471 170.093 24.5837 169.722 24.5864C169.351 24.5892 168.988 24.4816 168.678 24.2778C168.472 24.1426 168.295 23.9685 168.156 23.7646C168.018 23.5608 167.921 23.3312 167.871 23.0898C167.821 22.8485 167.819 22.6 167.865 22.3579C167.911 22.1158 168.005 21.8851 168.14 21.6792L168.142 21.6782Z" fill="#E9C732"/>
<path opacity="0.625" d="M154.349 34.8201C154.349 35.3015 154.492 35.7719 154.759 36.1721C155.027 36.5724 155.407 36.8844 155.852 37.0686C156.296 37.2528 156.786 37.3012 157.258 37.2073C157.73 37.1134 158.164 36.8817 158.504 36.5413C158.845 36.2009 159.076 35.7673 159.17 35.2952C159.264 34.823 159.216 34.3332 159.032 33.8884C158.848 33.4437 158.536 33.0636 158.135 32.7961C157.735 32.5287 157.264 32.386 156.783 32.386C156.463 32.3859 156.147 32.4488 155.851 32.571C155.556 32.6933 155.288 32.8728 155.062 33.0989C154.835 33.3249 154.656 33.5931 154.534 33.8884C154.412 34.1838 154.349 34.5004 154.349 34.8201V34.8201Z" fill="#B95E89"/>
</g>
</g>
</g>
<defs>
<clipPath id="clip0">
<rect width="375" height="226" fill="white"/>
</clipPath>
</defs>
</svg>
