<svg width="343" height="169" viewBox="0 0 343 169" fill="none" xmlns="http://www.w3.org/2000/svg">
<path d="M111.733 103.58L112.837 105.822L115.316 106.19L113.524 107.929L113.942 110.392L111.733 109.228L109.513 110.392L109.942 107.929L108.139 106.19L110.617 105.822L111.733 103.58Z" fill="#D90452"/>
<path d="M117.021 101.595L117.536 102.649L118.702 102.82L117.855 103.641L118.064 104.805L117.021 104.254L115.966 104.805L116.175 103.641L115.328 102.82L116.494 102.649L117.021 101.595Z" fill="#D90452"/>
<path d="M128.43 45.822L130.074 49.1424L133.742 49.6693L131.092 52.2545L131.718 55.8935L128.43 54.1782L125.154 55.8935L125.78 52.2545L123.13 49.6693L126.798 49.1424L128.43 45.822Z" fill="#D2D9E0"/>
<path d="M30.8487 88.6443L31.8792 90.7394L34.1979 91.0703L32.5171 92.6998L32.922 95.0033L30.8487 93.9128L28.7876 95.0033L29.1802 92.6998L27.5117 91.0703L29.8181 90.7394L30.8487 88.6443Z" fill="#D2D9E0"/>
<path d="M32.1371 70.4373L34.4312 75.0809L39.5593 75.8283L35.8421 79.4428L36.7254 84.5398L32.1371 82.126L27.5488 84.5398L28.4198 79.4428L24.7148 75.8283L29.8429 75.0809L32.1371 70.4373Z" fill="#D2D9E0"/>
<path d="M126.97 60.7944L127.964 62.8038L130.172 63.1224L128.577 64.6784L128.957 66.8716L126.97 65.8424L124.995 66.8716L125.375 64.6784L123.78 63.1224L125.989 62.8038L126.97 60.7944Z" fill="#D2D9E0"/>
<path d="M94.533 28.387L95.5268 30.3964L97.735 30.7149L96.1279 32.271L96.5082 34.4642L94.533 33.435L92.5579 34.4642L92.9382 32.271L91.3311 30.7149L93.5393 30.3964L94.533 28.387Z" fill="#D2D9E0"/>
<path d="M117.143 49.792L117.793 51.103L119.241 51.3113L118.198 52.3282L118.444 53.774L117.143 53.0879L115.855 53.774L116.1 52.3282L115.058 51.3113L116.505 51.103L117.143 49.792Z" fill="#D2D9E0"/>
<path d="M57.4461 115.881L58.7097 118.43L61.5314 118.846L59.4949 120.831L59.9733 123.625L57.4461 122.302L54.9311 123.625L55.4096 120.831L53.373 118.846L56.1947 118.43L57.4461 115.881Z" fill="#D2D9E0"/>
<path d="M60.7829 113.345L61.2981 114.399L62.4636 114.57L61.6171 115.391L61.8256 116.555L60.7829 116.004L59.7401 116.555L59.9363 115.391L59.0898 114.57L60.2553 114.399L60.7829 113.345Z" fill="#D2D9E0"/>
<path d="M105.672 43.2369L106.531 40.5291C105.856 39.1813 105.538 37.6253 105.685 36.0202C106.114 31.3765 110.224 27.9581 114.874 28.3747C119.523 28.8035 122.946 32.8958 122.529 37.5395C122.112 42.1832 118.002 45.6016 113.352 45.1727C111.402 45.0012 109.807 44.3028 108.482 43.0653L105.672 43.2369Z" fill="#FAFAFA"/>
<path d="M105.673 43.2368C105.673 43.2368 105.734 43.2368 105.857 43.2245C105.98 43.2163 106.159 43.2041 106.397 43.1877C106.875 43.151 107.574 43.102 108.482 43.0407H108.495L108.507 43.053C109.304 43.7881 110.519 44.609 112.175 44.9521C112.58 45.0379 113.009 45.1114 113.463 45.1359C113.684 45.144 113.913 45.1522 114.15 45.1604C114.383 45.1604 114.616 45.1359 114.862 45.1236C115.819 45.0379 116.812 44.7806 117.782 44.315C118.738 43.8371 119.659 43.1632 120.431 42.2933C121.192 41.4111 121.818 40.3452 122.161 39.1445C122.505 37.9437 122.591 36.6327 122.37 35.3462C122.333 35.0154 122.235 34.7091 122.149 34.3783C122.112 34.219 122.039 34.072 121.99 33.9127C121.928 33.7534 121.867 33.5941 121.805 33.4471C121.523 32.8345 121.204 32.2341 120.775 31.695C120.579 31.4254 120.333 31.1804 120.1 30.9353C120.002 30.8006 119.855 30.7026 119.732 30.58C119.609 30.4698 119.487 30.3472 119.364 30.2492L118.959 29.9552L118.751 29.8081L118.542 29.6734L118.113 29.4283C117.966 29.3425 117.818 29.2813 117.671 29.2078C116.481 28.6564 115.193 28.3869 113.954 28.4114C112.702 28.4359 111.512 28.7422 110.457 29.2445C109.415 29.7469 108.519 30.4453 107.807 31.2417C107.096 32.0503 106.581 32.9447 106.249 33.8392C106.209 33.9535 106.168 34.0638 106.127 34.17C106.078 34.2803 106.041 34.3905 106.016 34.513C105.959 34.7336 105.906 34.9541 105.857 35.1747C105.796 35.6158 105.71 36.0446 105.697 36.4612C105.636 38.152 106.078 39.5365 106.556 40.5167L106.568 40.529V40.5412C106.274 41.4111 106.053 42.085 105.906 42.5384C105.832 42.7671 105.775 42.9427 105.734 43.0652C105.697 43.1755 105.673 43.2368 105.673 43.2368C105.673 43.2368 105.689 43.1796 105.722 43.0652C105.755 42.9509 105.808 42.7793 105.881 42.5506C106.029 42.085 106.237 41.4111 106.507 40.5167V40.5412C106.016 39.561 105.562 38.1643 105.624 36.4612C105.624 36.0446 105.71 35.6035 105.759 35.1624C105.816 34.9419 105.873 34.7173 105.93 34.4885C105.955 34.366 105.992 34.2557 106.029 34.1455C106.069 34.0311 106.11 33.9168 106.151 33.8024C106.495 32.8957 107.01 31.9891 107.722 31.1804C108.445 30.3595 109.353 29.6488 110.408 29.1342C111.476 28.6196 112.69 28.3133 113.954 28.2888C115.217 28.2521 116.518 28.5339 117.72 29.0975C117.88 29.171 118.027 29.2323 118.174 29.318L118.603 29.5753L118.824 29.6979L119.033 29.8449L119.438 30.1512C119.573 30.2615 119.695 30.3717 119.818 30.482C119.953 30.6045 120.088 30.7148 120.198 30.8373C120.431 31.0946 120.677 31.3397 120.873 31.6215C121.302 32.1606 121.634 32.7732 121.928 33.3858C121.99 33.5451 122.039 33.7044 122.1 33.8637C122.161 34.023 122.235 34.1822 122.272 34.3415C122.358 34.6723 122.456 34.9909 122.492 35.3217C122.726 36.6327 122.627 37.9682 122.284 39.1812C121.928 40.3942 121.29 41.4847 120.517 42.3668C119.732 43.249 118.8 43.9351 117.831 44.4007C116.849 44.8786 115.831 45.1359 114.862 45.2216C114.629 45.2339 114.383 45.2584 114.15 45.2584C113.913 45.2502 113.68 45.238 113.451 45.2216C112.997 45.1971 112.568 45.1236 112.15 45.0379C110.482 44.6703 109.255 43.8371 108.47 43.0897L108.482 43.102C107.562 43.151 106.863 43.1877 106.384 43.2122C106.147 43.2204 105.967 43.2286 105.845 43.2368C105.73 43.2368 105.673 43.2368 105.673 43.2368Z" fill="#263238"/>
<path d="M109.316 36.4612L110.715 35.2605L113.058 37.6619L118.309 33.2878L119.425 34.6724L112.69 40.1492L109.316 36.4612Z" fill="#D90452"/>
<path d="M82.2773 101.717L88.436 134.199L94.0671 123.821L104.728 130.069L93.4046 98.446L82.2773 101.717Z" fill="#D90452"/>
<g opacity="0.3">
<path d="M84.3505 112.647C85.4914 112.879 86.8164 112.475 87.6261 111.642C88.1904 111.066 88.5585 110.27 89.27 109.89C89.908 109.534 90.6809 109.584 91.3801 109.78C92.0794 109.976 92.7419 110.294 93.4412 110.478C94.8152 110.833 96.3365 110.613 97.5388 109.865L95.7721 104.94L87.5279 103.911L83.5898 108.628L84.3505 112.647Z" fill="black"/>
</g>
<path d="M93.6619 122.534C93.6251 122.534 92.7173 119.165 91.6131 114.999C90.5213 110.821 89.6625 107.439 89.687 107.427C89.7238 107.415 90.644 110.796 91.7358 114.962C92.84 119.128 93.6987 122.522 93.6619 122.534Z" fill="#263238"/>
<path d="M83.1851 103.408L77.0265 135.889L71.3954 125.512L60.7344 131.76L72.0579 100.125L83.1851 103.408Z" fill="#D90452"/>
<g opacity="0.3">
<path d="M68.6719 109.596C68.6719 109.596 70.4262 111.029 72.5118 110.368C74.5974 109.706 75.8978 109.559 77.0265 110.368C78.1552 111.164 81.2222 113.786 81.2222 113.786L81.9215 110.037L77.8117 104.401L73.5301 105.271L70.4753 105.577L69.3344 107.721L68.6719 109.596Z" fill="black"/>
</g>
<path d="M119.278 74.0882C119.278 76.4162 116.297 78.4256 115.855 80.631C115.413 82.8977 117.388 85.8873 116.517 87.9702C115.634 90.1021 112.113 90.8127 110.849 92.6996C109.574 94.611 110.248 98.1274 108.641 99.7447C107.022 101.362 103.489 100.676 101.587 101.95C99.6977 103.212 98.9739 106.741 96.8515 107.623C94.7659 108.481 91.7602 106.508 89.4906 106.961C87.2823 107.39 85.2826 110.368 82.9394 110.368C80.6084 110.368 78.5964 107.39 76.3882 106.961C74.1185 106.508 71.1251 108.481 69.0395 107.623C66.9049 106.741 66.1933 103.212 64.304 101.95C62.3902 100.676 58.8692 101.362 57.2498 99.7447C55.6304 98.1274 56.3174 94.611 55.0415 92.6996C53.7779 90.8127 50.2447 90.1021 49.3614 87.9702C48.5026 85.8873 50.4778 82.8977 50.0238 80.631C49.5944 78.4256 46.6133 76.4162 46.6133 74.0882C46.6133 71.7603 49.5944 69.7509 50.0238 67.5455C50.4778 65.2788 48.5026 62.2769 49.3614 60.194C50.2447 58.0743 53.7779 57.3515 55.0415 55.4646C56.3174 53.5655 55.6304 50.0368 57.2498 48.4195C58.8692 46.8144 62.3902 47.4883 64.304 46.214C66.1933 44.952 66.9049 41.4356 69.0395 40.5534C71.1251 39.6835 74.1185 41.6561 76.3882 41.2151C78.5964 40.774 80.6084 37.7966 82.9394 37.7966C85.2826 37.7966 87.2823 40.774 89.4906 41.2151C91.7602 41.6561 94.7659 39.6835 96.8515 40.5534C98.9739 41.4356 99.6977 44.952 101.587 46.214C103.489 47.4883 107.022 46.8144 108.641 48.4195C110.248 50.0368 109.574 53.5655 110.849 55.4646C112.113 57.3515 115.634 58.0743 116.517 60.194C117.388 62.2769 115.413 65.2788 115.855 67.5455C116.297 69.7509 119.278 71.7603 119.278 74.0882Z" fill="#D90452"/>
<path d="M74.4379 53.7494C74.4379 53.7494 74.4174 53.7126 74.3765 53.6391C74.3274 53.5656 74.2702 53.4676 74.2048 53.3451C74.0698 53.0878 73.8613 52.7079 73.6282 52.2301C73.162 51.2744 72.5486 49.9389 71.9474 48.4319C71.3585 46.9126 70.9046 45.5158 70.6102 44.4988C70.463 43.9842 70.3526 43.5677 70.2789 43.2859C70.2462 43.1552 70.2217 43.0449 70.2053 42.955C70.1808 42.8734 70.1726 42.8325 70.1808 42.8325C70.1808 42.8325 70.1972 42.8693 70.2299 42.9428C70.2544 43.0326 70.2871 43.1429 70.328 43.2736C70.4262 43.5677 70.5488 43.9842 70.6961 44.4743C71.015 45.479 71.4812 46.8758 72.0701 48.3829C72.659 49.8899 73.2601 51.2254 73.714 52.1933C73.9349 52.6589 74.1189 53.0388 74.2538 53.3206C74.3111 53.4431 74.3602 53.5452 74.4011 53.6269C74.4338 53.7004 74.446 53.7412 74.4379 53.7494Z" fill="#263238"/>
<path d="M77.6772 52.512C77.6649 52.5242 77.6403 52.4262 77.579 52.2424C77.5299 52.0709 77.4563 51.8136 77.3827 51.495C77.2232 50.8579 77.0147 49.9757 76.8306 48.9833C76.6589 48.0031 76.5239 47.1086 76.4503 46.447C76.4135 46.1285 76.389 45.8589 76.3767 45.6751C76.3645 45.4913 76.3522 45.3933 76.3645 45.3933C76.3767 45.3933 76.389 45.4913 76.4258 45.6751C76.4585 45.8793 76.4953 46.1325 76.5362 46.4348C76.6344 47.0841 76.7816 47.9786 76.9656 48.971C77.1374 49.9512 77.3336 50.8334 77.4686 51.4705C77.534 51.7727 77.5872 52.0259 77.6281 52.2301C77.6649 52.4139 77.6894 52.512 77.6772 52.512Z" fill="#263238"/>
<path d="M83.3816 51.9483C83.3448 51.9483 83.2589 49.2038 83.173 45.8098C83.0994 42.4159 83.0626 39.6714 83.0994 39.6714C83.1362 39.6714 83.2343 42.4159 83.308 45.8098C83.3816 49.2038 83.4184 51.9483 83.3816 51.9483Z" fill="#263238"/>
<path d="M89.1231 46.2999C89.1599 46.3121 88.7551 47.6844 88.2398 49.3752C87.7123 51.0538 87.2584 52.4138 87.2338 52.4016C87.197 52.3893 87.5896 51.0171 88.1171 49.3385C88.6324 47.6477 89.0863 46.2876 89.1231 46.2999Z" fill="#263238"/>
<path d="M91.466 53.4063C91.4578 53.4063 91.466 53.3655 91.4905 53.2838C91.5232 53.2021 91.56 53.0959 91.6009 52.9652C91.6991 52.6834 91.8585 52.2791 92.0426 51.789C92.4351 50.7966 92.9872 49.4365 93.6129 47.9417C94.2386 46.447 94.8274 45.0992 95.2568 44.1313C95.4654 43.6657 95.6371 43.2736 95.7721 42.9918C95.8293 42.8693 95.8784 42.7631 95.9193 42.6732C95.952 42.6079 95.9725 42.5752 95.9807 42.5752C95.9807 42.5752 95.9684 42.612 95.9438 42.6855C95.903 42.7753 95.858 42.8815 95.8089 43.004C95.6985 43.2981 95.5267 43.6902 95.3304 44.168C94.9133 45.1605 94.349 46.5082 93.7233 47.9908C93.1099 49.4855 92.5456 50.8211 92.1284 51.8258C91.9322 52.3036 91.7727 52.6957 91.65 52.9897C91.6009 53.1123 91.5559 53.2144 91.515 53.296C91.4823 53.3696 91.466 53.4063 91.466 53.4063Z" fill="#263238"/>
<path d="M94.5331 54.9992C94.5208 54.9992 94.5699 54.9134 94.6681 54.7541C94.7662 54.5948 94.9134 54.3743 95.0974 54.1047C95.4655 53.5656 95.993 52.8182 96.6064 52.0341C97.2321 51.2377 97.821 50.5515 98.2504 50.0615C98.4712 49.8164 98.6552 49.6204 98.7779 49.4856C98.9128 49.3508 98.9865 49.2896 98.9865 49.2896C98.9987 49.3018 98.9374 49.3753 98.8147 49.5223C98.6838 49.6857 98.5203 49.8858 98.324 50.1227C97.9069 50.6251 97.3303 51.3234 96.7168 52.1076C96.0912 52.904 95.5636 53.6269 95.171 54.1537C94.9911 54.3988 94.8398 54.6071 94.7171 54.7786C94.6067 54.9257 94.5331 55.0114 94.5331 54.9992Z" fill="#263238"/>
<path d="M98.9866 58.6502C98.962 58.6257 100.913 56.7879 103.329 54.5457C105.746 52.2912 107.721 50.4901 107.746 50.5147C107.771 50.5392 105.832 52.3893 103.415 54.6315C100.999 56.8859 99.0111 58.687 98.9866 58.6502Z" fill="#263238"/>
<path d="M106.789 59.4223C106.789 59.4346 106.507 59.5816 106.041 59.8144C105.587 60.0594 104.962 60.4025 104.262 60.7946C103.575 61.1867 102.937 61.5175 102.459 61.738C102.226 61.8483 102.042 61.9341 101.894 61.9831C101.76 62.0443 101.686 62.0688 101.686 62.0566C101.674 62.0443 101.968 61.8973 102.422 61.6522C102.888 61.4195 103.514 61.0764 104.201 60.6843C104.9 60.2922 105.538 59.9614 106.004 59.7409C106.237 59.6306 106.434 59.5448 106.569 59.4836C106.704 59.4346 106.777 59.4101 106.789 59.4223Z" fill="#263238"/>
<path d="M114.002 62.3995C114.015 62.4362 111.696 63.2817 108.838 64.2864C105.979 65.291 103.648 66.0875 103.636 66.0507C103.624 66.0139 105.93 65.1685 108.801 64.1638C111.659 63.1591 113.99 62.375 114.002 62.3995Z" fill="#263238"/>
<path d="M116.297 75.5096C116.297 75.5464 113.782 75.3381 110.69 75.044C107.586 74.7377 105.083 74.4804 105.096 74.4437C105.096 74.4069 107.598 74.6152 110.702 74.9092C113.794 75.2033 116.297 75.4729 116.297 75.5096Z" fill="#263238"/>
<path d="M114.445 87.2596C114.432 87.2964 112.089 86.2182 109.206 84.8581C106.323 83.4981 104.004 82.3709 104.017 82.3342C104.029 82.3096 106.384 83.3756 109.255 84.7356C112.138 86.0956 114.469 87.2229 114.445 87.2596Z" fill="#263238"/>
<path d="M106.727 98.4461C106.703 98.4583 105.01 96.4979 102.949 94.0597C100.876 91.6215 99.2316 89.6121 99.2561 89.5998C99.2807 89.5753 100.974 91.5357 103.035 93.9739C105.108 96.4244 106.752 98.4216 106.727 98.4461Z" fill="#263238"/>
<path d="M100.275 99.9163C100.275 99.9163 100.202 99.8183 100.079 99.6467C99.9439 99.4629 99.7721 99.1934 99.5636 98.8626C99.1342 98.2009 98.5576 97.2698 97.9564 96.2283C97.3553 95.1868 96.84 94.2312 96.472 93.5205C96.3002 93.1775 96.153 92.8957 96.0549 92.6874C95.969 92.4913 95.9199 92.3811 95.9199 92.3811C95.9322 92.3688 95.9935 92.4791 96.1039 92.6629C96.2266 92.8834 96.3779 93.157 96.5579 93.4838C96.9382 94.1699 97.4657 95.1256 98.0669 96.167C98.668 97.2085 99.2323 98.1397 99.6372 98.8136C99.8335 99.1403 99.993 99.4058 100.116 99.61C100.226 99.806 100.287 99.9163 100.275 99.9163Z" fill="#263238"/>
<path d="M96.2752 105.54C96.2671 105.54 96.2466 105.508 96.2139 105.442C96.1648 105.36 96.1117 105.258 96.0544 105.136C95.9072 104.879 95.7232 104.499 95.4901 104.021C95.0484 103.065 94.4596 101.73 93.9075 100.21C93.3554 98.7033 92.9383 97.3066 92.6684 96.2896C92.5335 95.775 92.4353 95.3584 92.374 95.0766C92.3494 94.9378 92.3249 94.8234 92.3004 94.7336C92.2922 94.66 92.2881 94.6233 92.2881 94.6233C92.2963 94.6233 92.3085 94.66 92.3249 94.7336C92.3576 94.8234 92.3903 94.9337 92.423 95.0644C92.5089 95.3584 92.6193 95.7628 92.7543 96.2651C93.0487 97.2698 93.4781 98.6666 94.0302 100.174C94.5822 101.681 95.1466 103.016 95.576 103.984C95.7845 104.45 95.9685 104.83 96.0912 105.124C96.1485 105.246 96.1975 105.348 96.2384 105.43C96.263 105.503 96.2752 105.54 96.2752 105.54Z" fill="#263238"/>
<path d="M88.1658 101.595C88.1413 101.595 88.1167 101.276 88.0554 100.749C87.994 100.223 87.9082 99.4874 87.7732 98.691C87.6383 97.8946 87.491 97.184 87.3684 96.6694C87.2579 96.1425 87.1721 95.824 87.1966 95.824C87.1966 95.824 87.2334 95.8975 87.2825 96.0323C87.3315 96.1793 87.3929 96.3876 87.4542 96.6449C87.6015 97.1595 87.7609 97.8701 87.8959 98.6788C88.0308 99.4752 88.1167 100.21 88.1412 100.737C88.1658 101.007 88.1658 101.215 88.1658 101.362C88.1781 101.509 88.1658 101.595 88.1658 101.595Z" fill="#263238"/>
<path d="M82.8537 108.652C82.8455 108.652 82.8414 108.612 82.8414 108.53C82.8414 108.432 82.8414 108.309 82.8414 108.162C82.8291 107.856 82.8414 107.403 82.8414 106.839C82.8659 105.724 82.915 104.18 83.0009 102.477C83.099 100.774 83.2094 99.2303 83.2953 98.1153C83.3444 97.5517 83.3812 97.0984 83.418 96.7921C83.4344 96.6532 83.4466 96.5348 83.4548 96.4367C83.463 96.3551 83.4712 96.3142 83.4793 96.3142C83.4793 96.3142 83.4793 96.3551 83.4793 96.4367C83.4712 96.5348 83.4671 96.6532 83.4671 96.7921C83.4425 97.1229 83.418 97.5762 83.3812 98.1153C83.3199 99.2548 83.234 100.786 83.1358 102.477C83.05 104.18 82.9763 105.724 82.9395 106.839C82.915 107.39 82.9027 107.831 82.8905 108.162C82.8823 108.309 82.8741 108.432 82.8659 108.53C82.8659 108.612 82.8618 108.652 82.8537 108.652Z" fill="#263238"/>
<path d="M78.535 96.3142C78.5595 96.3142 78.535 96.547 78.4614 96.9391C78.4001 97.3189 78.3019 97.8457 78.167 98.4216C78.032 98.9975 77.8848 99.5121 77.7744 99.8919C77.664 100.259 77.5781 100.492 77.5658 100.48C77.5413 100.48 77.5904 100.247 77.6885 99.8674C77.7867 99.4385 77.9093 98.9484 78.0443 98.3971C78.167 97.8457 78.2774 97.3434 78.3755 96.9146C78.4614 96.5347 78.5227 96.3019 78.535 96.3142Z" fill="#263238"/>
<path d="M70.7456 92.5649C70.7701 92.5894 70.2916 93.2633 69.666 94.0842C69.0525 94.9051 68.525 95.5545 68.4882 95.53C68.4637 95.5054 68.9421 94.8316 69.5678 94.0107C70.1812 93.1898 70.7088 92.5404 70.7456 92.5649Z" fill="#263238"/>
<path d="M66.6479 89.8203C66.6725 89.8448 65.1512 91.6337 63.2497 93.8146C61.3481 95.9955 59.7778 97.7354 59.7532 97.7109C59.7287 97.6864 61.2499 95.9098 63.1515 93.7288C65.0531 91.5479 66.6234 89.7958 66.6479 89.8203Z" fill="#263238"/>
<path d="M64.5984 86.7819C64.6229 86.8064 63.7764 87.5415 62.7091 88.4237C61.6418 89.3059 60.7585 89.992 60.7339 89.9675C60.7094 89.943 61.5559 89.2079 62.6232 88.3257C63.6905 87.4435 64.5739 86.7574 64.5984 86.7819Z" fill="#263238"/>
<path d="M62.2063 82.1995C62.2185 82.224 60.0961 83.2777 57.4707 84.5519C54.8331 85.8139 52.6984 86.8186 52.6739 86.7819C52.6616 86.7574 54.784 85.7036 57.4094 84.4294C60.0471 83.1674 62.194 82.1627 62.2063 82.1995Z" fill="#263238"/>
<path d="M61.25 79.9083C61.25 79.9206 61.1641 79.9451 61.0292 79.9696C60.8819 80.0063 60.6734 80.0554 60.4158 80.1044C59.8882 80.2024 59.1767 80.3004 58.3792 80.3862C57.5695 80.4597 56.8457 80.4964 56.3182 80.5087C56.0606 80.5087 55.8397 80.5087 55.6925 80.5087C55.5453 80.5087 55.4717 80.4964 55.4717 80.4842C55.4717 80.4719 55.7907 80.4474 56.3182 80.4229C56.8457 80.3862 57.5695 80.3372 58.367 80.2636C59.1521 80.1779 59.876 80.0799 60.4035 80.0063C60.9188 79.9328 61.2377 79.8961 61.25 79.9083Z" fill="#263238"/>
<path d="M60.4645 74.6275C60.4645 74.6398 60.3172 74.6398 60.0351 74.6153C59.7406 74.603 59.3481 74.5907 58.8696 74.5662C57.8881 74.5172 56.5264 74.4682 55.0174 74.4805C53.5084 74.4805 52.1466 74.5417 51.1652 74.603C50.6867 74.6275 50.2941 74.652 49.9997 74.6765C49.7298 74.6888 49.5703 74.701 49.5703 74.6888C49.5703 74.6765 49.7175 74.652 49.9997 74.6275C50.2696 74.5907 50.6744 74.554 51.1652 74.5172C52.1466 74.4315 53.5084 74.358 55.0174 74.3457C56.5264 74.3457 57.8881 74.3947 58.8819 74.4682C59.3726 74.505 59.7652 74.5417 60.0473 74.5662C60.3172 74.603 60.4645 74.6275 60.4645 74.6275Z" fill="#263238"/>
<path d="M60.9429 69.9961C60.9429 70.0329 59.3481 69.6163 57.3974 69.065C55.4468 68.5258 53.8765 68.0603 53.8887 68.0235C53.901 67.9867 55.4836 68.4033 57.4343 68.9424C59.3849 69.4938 60.9552 69.9594 60.9429 69.9961Z" fill="#263238"/>
<path d="M61.9736 66.0997C61.9736 66.1079 61.9368 66.0997 61.8632 66.0752C61.7732 66.0507 61.6628 66.018 61.5319 65.9772C61.2497 65.8914 60.8449 65.7567 60.3542 65.5729C59.3604 65.2176 58.0109 64.6662 56.5756 63.9556C55.1279 63.2449 53.8766 62.522 52.981 61.9462C52.5393 61.6644 52.1836 61.4316 51.9382 61.26C51.8319 61.1865 51.7419 61.1212 51.6683 61.064C51.6029 61.0231 51.5742 60.9986 51.5824 60.9905C51.5824 60.9905 51.6151 61.0109 51.6806 61.0517C51.7623 61.0926 51.8605 61.1498 51.975 61.2233C52.2204 61.3826 52.5761 61.6031 53.0301 61.8726C53.9256 62.424 55.1893 63.1346 56.6246 63.8453C58.0723 64.5559 59.4095 65.1073 60.391 65.4994C60.8817 65.6831 61.2743 65.8302 61.5564 65.9404C61.6791 65.9813 61.7814 66.018 61.8632 66.0507C61.9368 66.0834 61.9736 66.0997 61.9736 66.0997Z" fill="#263238"/>
<path d="M64.2803 62.2035C64.268 62.228 63.0289 61.3826 61.5077 60.3289C59.9987 59.263 58.7964 58.3808 58.8087 58.344C58.8332 58.3195 60.0723 59.1527 61.5813 60.2186C63.1026 61.2846 64.3048 62.1668 64.2803 62.2035Z" fill="#263238"/>
<path d="M59.4097 50.282C59.4097 50.282 59.4384 50.3065 59.4956 50.3555C59.561 50.4127 59.6428 50.4821 59.741 50.5638C59.9741 50.7721 60.2808 51.0416 60.6488 51.3724C61.4217 52.0586 62.4645 52.9898 63.6177 54.019C64.7832 55.0359 65.826 55.9671 66.6112 56.6532C66.9792 56.984 67.2859 57.2536 67.5067 57.4496C67.6049 57.5395 67.6867 57.613 67.7521 57.6702C67.8094 57.7274 67.8339 57.7559 67.8257 57.7559C67.8257 57.7641 67.793 57.7437 67.7276 57.6947C67.6621 57.6375 67.5803 57.5681 67.4822 57.4864C67.2491 57.3149 66.9424 57.0453 66.5498 56.7145C65.7647 56.0651 64.6973 55.1462 63.5318 54.117C62.3786 53.0755 61.3358 52.1321 60.5875 51.4337C60.2194 51.0906 59.9127 50.8088 59.7164 50.6005C59.6183 50.5107 59.5406 50.4331 59.4833 50.3678C59.4261 50.3187 59.4016 50.2902 59.4097 50.282Z" fill="#263238"/>
<path d="M67.0523 50.5147C67.0645 50.5025 67.1259 50.5637 67.224 50.674C67.3222 50.7965 67.4694 50.9681 67.6411 51.1764C67.9847 51.6052 68.4386 52.2056 68.9048 52.8917C69.371 53.5778 69.7758 54.2149 70.0457 54.6928C70.1807 54.9256 70.2911 55.1216 70.3524 55.2564C70.426 55.3912 70.4628 55.4647 70.4506 55.4647C70.4383 55.4769 70.2543 55.1951 69.9721 54.7418C69.6777 54.2762 69.2728 53.6513 68.7944 52.9652C68.3282 52.2791 67.8865 51.6665 67.5675 51.2254C67.2486 50.7965 67.04 50.5147 67.0523 50.5147Z" fill="#263238"/>
<g opacity="0.2">
<path d="M57.25 48.4195L67.9233 57.7558L70.5732 55.6361L64.3901 46.165C64.3901 46.165 63.9116 46.5081 62.6725 46.8634C61.4825 47.2065 57.9616 47.2923 57.25 48.4195Z" fill="black"/>
</g>
<g opacity="0.2">
<path d="M69.1377 40.5291L74.3394 53.5534L77.6764 52.512L76.5599 41.2153C76.5599 41.2153 75.9956 41.3501 74.7197 41.1908C73.4806 41.0315 70.4995 39.8675 69.1377 40.5291Z" fill="black"/>
</g>
<g opacity="0.3">
<path d="M83.0254 37.7967L83.3812 51.9482L86.4973 52.0952L89.6625 41.2396C89.6011 41.2396 88.7914 41.0925 87.8223 40.4799C86.7427 39.7938 84.5466 37.6864 83.0254 37.7967Z" fill="black"/>
</g>
<g opacity="0.2">
<path d="M96.643 40.48L91.4658 53.5165L94.2875 54.8643L101.415 46.0793C101.354 46.0548 100.679 45.4912 100.054 44.4865C99.3788 43.396 98.2256 40.9088 96.643 40.48Z" fill="black"/>
</g>
<g opacity="0.2">
<path d="M108.813 48.6157L99.1582 58.6504L101.305 61.5543L110.739 55.2688C110.739 55.2688 110.347 54.6439 110.114 53.4309C109.893 52.2179 109.856 49.988 108.813 48.6157Z" fill="black"/>
</g>
<g opacity="0.2">
<path d="M116.42 59.949L103.428 65.291L104.507 68.5992L115.819 67.3739C115.819 67.3739 115.745 67.0309 115.892 65.7566C116.039 64.5314 117.328 61.7746 116.42 59.949Z" fill="black"/>
</g>
<g opacity="0.2">
<path d="M119.303 74.0884L105.133 74.5785L105.022 77.7028L115.818 80.8517C115.831 80.8027 115.929 80.1901 116.248 79.5652C117.045 78.0704 119.303 75.9507 119.303 74.0884Z" fill="black"/>
</g>
<g opacity="0.2">
<path d="M116.69 87.4558L103.649 82.3833L102.336 85.2136L111.206 92.2465C111.23 92.1852 111.746 91.7074 112.739 91.0703C113.819 90.3841 116.395 89.2692 116.69 87.4558Z" fill="black"/>
</g>
<g opacity="0.2">
<path d="M97.5142 87.2598L94.2754 89.9675C94.5208 90.2248 98.8269 97.5273 101.477 102.036C101.514 102.012 101.55 101.975 101.587 101.95C103.329 100.786 106.433 101.252 108.188 100.1L97.5142 87.2598Z" fill="black"/>
<path d="M91.5763 92.3813L86.7549 94.0232L89.0368 107.084C89.1922 107.035 89.3435 106.994 89.4907 106.962C91.7603 106.508 94.766 108.481 96.8516 107.623C97.1338 107.501 97.4037 107.329 97.6368 107.121L91.5763 92.3813Z" fill="black"/>
<path d="M82.7795 110.368L83.5401 93.3003L79.3812 92.2466L76.2773 106.937C76.3182 106.945 76.355 106.954 76.3878 106.962C78.547 107.378 80.5099 110.233 82.7795 110.368Z" fill="black"/>
<path d="M72.3026 90.3965C72.3026 90.3965 66.7942 97.7602 63.9111 101.73C64.0502 101.795 64.181 101.869 64.3037 101.95C66.193 103.212 66.9046 106.741 69.0392 107.623C69.1374 107.664 69.2355 107.697 69.3337 107.721L77.0258 93.1778L72.3026 90.3965Z" fill="black"/>
<path d="M66.6469 84.4663L54.9062 92.5284C54.9553 92.5896 55.0044 92.6387 55.0412 92.6999C56.3171 94.6113 55.6301 98.1277 57.2495 99.745C57.3967 99.8921 57.5684 100.015 57.7525 100.125C61.8991 95.4567 69.3459 87.0761 69.6158 86.782L66.6469 84.4663Z" fill="black"/>
<path d="M63.9605 78.7075L50.0729 80.9497C50.2938 83.1796 48.5394 85.9854 49.3614 87.9703C49.4186 88.0929 49.48 88.2113 49.5454 88.3256C54.4036 85.9119 64.5494 80.8884 64.9788 80.8517L63.9605 78.7075Z" fill="black"/>
<path d="M63.1999 70.9886L50.0729 67.2026C50.0647 67.317 50.0484 67.4314 50.0238 67.5457C49.5944 69.7511 46.6133 71.7605 46.6133 74.0885C46.6133 74.2437 46.6255 74.3989 46.6501 74.5541H62.6723L63.1999 70.9886Z" fill="black"/>
<path d="M49.4229 60.0962C54.3179 62.7182 63.9116 68.0235 63.9116 68.0235L66.2793 63.5514L55.1889 55.2075C55.1398 55.2933 55.0908 55.3913 55.0417 55.4648C53.7903 57.3272 50.3675 58.0501 49.4229 60.0962Z" fill="black"/>
</g>
<path d="M119.266 73.929C119.254 73.831 119.254 73.6717 119.204 73.4757C119.119 73.0714 118.898 72.4955 118.468 71.8339C118.039 71.16 117.401 70.4004 116.739 69.4447C116.407 68.9546 116.076 68.4155 115.892 67.7661C115.72 67.1045 115.745 66.3693 115.892 65.6219C116.027 64.8745 116.248 64.1149 116.444 63.294C116.628 62.4853 116.824 61.5909 116.64 60.6965C116.542 60.2431 116.334 59.8265 116.027 59.4467C115.72 59.0791 115.34 58.7728 114.935 58.491C114.125 57.9029 113.181 57.4496 112.285 56.8492C111.844 56.5429 111.402 56.1998 111.034 55.771C110.666 55.3422 110.433 54.8153 110.273 54.264C109.954 53.149 109.881 51.9483 109.648 50.7598C109.525 50.1717 109.365 49.5713 109.046 49.0322C108.727 48.4931 108.237 48.0765 107.648 47.8192C107.059 47.5619 106.421 47.4271 105.771 47.3291C105.121 47.2188 104.446 47.1453 103.783 47.0228C103.121 46.9003 102.434 46.741 101.82 46.3979C101.195 46.0671 100.704 45.5157 100.299 44.9399C99.8944 44.3518 99.5509 43.7269 99.1705 43.1143C98.8025 42.4894 98.4099 41.8768 97.8947 41.3499C97.3917 40.8231 96.7046 40.4433 95.9685 40.3942C95.2202 40.3452 94.4596 40.48 93.7235 40.6638C92.9751 40.8353 92.2268 41.0559 91.4539 41.2029C90.681 41.3499 89.859 41.3989 89.0861 41.1539C88.3132 40.8966 87.6384 40.431 86.9882 39.9532C86.338 39.4631 85.7001 38.9607 85.0008 38.5319C84.3015 38.1276 83.5041 37.7845 82.6821 37.8703L82.5226 37.8825C82.4735 37.8907 82.4245 37.9029 82.3754 37.9193C82.2773 37.9438 82.1791 37.956 82.081 37.9928C81.8847 38.054 81.6761 38.1153 81.4921 38.2133C81.1118 38.3849 80.756 38.6176 80.4125 38.8382C79.7132 39.316 79.0507 39.8674 78.3392 40.3575C77.9834 40.6025 77.6031 40.8231 77.2105 41.0069C76.8056 41.1784 76.3763 41.2887 75.9223 41.3254C75.039 41.3744 74.168 41.1661 73.3092 40.9579C72.4504 40.7373 71.5917 40.4923 70.7084 40.4065C70.2667 40.3697 69.8251 40.3942 69.3957 40.4923C68.9663 40.6025 68.5737 40.8476 68.2425 41.1294C67.5554 41.7175 67.0892 42.5139 66.6231 43.2981C66.1446 44.0822 65.7029 44.8909 65.0773 45.6015C64.7706 45.9446 64.4025 46.2631 63.9731 46.4714C63.556 46.6797 63.1021 46.8267 62.6359 46.937C61.7158 47.1331 60.7711 47.2188 59.8387 47.3904C58.9309 47.5496 57.974 47.8192 57.287 48.4808C56.968 48.8116 56.7349 49.2282 56.5631 49.6693C56.3914 50.1104 56.2932 50.5882 56.2074 51.0538C56.0356 52.0095 55.9497 52.9775 55.7289 53.9331C55.6185 54.411 55.4467 54.8766 55.2014 55.3054C54.956 55.7465 54.6125 56.1141 54.2199 56.4204C53.447 57.0452 52.5637 57.4986 51.7172 58.0132C51.3001 58.2827 50.883 58.5523 50.5027 58.8586C50.1224 59.1772 49.7911 59.5447 49.558 59.9736C49.3126 60.3901 49.2022 60.8925 49.2145 61.3826C49.2145 61.8727 49.2881 62.375 49.3863 62.8651C49.5948 63.8331 49.9015 64.801 50.0733 65.8057C50.1592 66.3081 50.1837 66.8349 50.1223 67.3495C50.0487 67.8641 49.8524 68.342 49.6071 68.7953C49.0918 69.6897 48.4293 70.4739 47.8405 71.307C47.5338 71.7236 47.2639 72.1647 47.043 72.618C46.8345 73.0836 46.675 73.5737 46.675 74.0761C46.675 74.5907 46.8222 75.0808 47.043 75.5464C47.2516 75.9997 47.5338 76.4285 47.8282 76.8451C48.4171 77.6783 49.0918 78.4747 49.6071 79.3691C49.8524 79.8102 50.0487 80.3003 50.1223 80.8149C50.1837 81.3295 50.1592 81.8441 50.0733 82.3464C49.9015 83.3634 49.5948 84.3191 49.3863 85.2993C49.2881 85.7894 49.2145 86.2917 49.2145 86.7818C49.2022 87.2719 49.3126 87.7743 49.5457 88.1908C49.7788 88.6197 50.1224 88.9872 50.5027 89.3058C50.883 89.6121 51.3001 89.8939 51.7172 90.1512C52.5637 90.6658 53.4348 91.1192 54.2199 91.744C54.6002 92.0503 54.956 92.4302 55.2014 92.859C55.4467 93.2878 55.6185 93.7657 55.7289 94.2313C55.9497 95.1869 56.0356 96.1671 56.2074 97.1106C56.2932 97.5762 56.3914 98.054 56.5631 98.4951C56.7349 98.9362 56.9557 99.3528 57.287 99.6958C57.9617 100.357 58.9186 100.615 59.8387 100.786C60.7711 100.946 61.7158 101.031 62.6359 101.24C63.0898 101.35 63.5437 101.485 63.9731 101.693C64.4025 101.914 64.7706 102.22 65.0773 102.563C65.7029 103.274 66.1446 104.094 66.6231 104.879C67.0892 105.65 67.5554 106.447 68.2425 107.035C68.5737 107.329 68.9663 107.574 69.3957 107.672C69.8251 107.782 70.2667 107.795 70.7084 107.758C71.5917 107.672 72.4504 107.427 73.3092 107.219C74.168 106.998 75.039 106.802 75.9346 106.839C76.3763 106.876 76.8056 106.986 77.2105 107.17C77.6031 107.354 77.9834 107.574 78.3392 107.819C79.0507 108.309 79.7132 108.848 80.4125 109.326C80.756 109.559 81.1118 109.792 81.4921 109.963C81.6884 110.049 81.8847 110.11 82.081 110.184C82.1791 110.208 82.2773 110.233 82.3754 110.257C82.4245 110.27 82.4735 110.282 82.5349 110.282L82.6821 110.294C83.5041 110.392 84.3015 110.049 85.0008 109.633C85.7001 109.216 86.338 108.701 86.9882 108.223C87.6384 107.746 88.3132 107.28 89.0861 107.011C89.859 106.765 90.6932 106.814 91.4539 106.974C92.2268 107.121 92.9751 107.329 93.7235 107.513C94.4596 107.684 95.2202 107.831 95.9685 107.77C96.7169 107.721 97.3917 107.354 97.8947 106.827C98.4099 106.3 98.8025 105.675 99.1705 105.062C99.5509 104.438 99.8944 103.813 100.299 103.225C100.716 102.649 101.195 102.11 101.82 101.766C102.434 101.423 103.121 101.264 103.783 101.154C104.458 101.031 105.121 100.958 105.771 100.848C106.421 100.737 107.059 100.603 107.648 100.345C108.237 100.088 108.74 99.6713 109.046 99.1322C109.365 98.6054 109.525 98.005 109.648 97.4046C109.893 96.2162 109.954 95.0277 110.273 93.9127C110.433 93.3613 110.666 92.8222 111.046 92.3934C111.402 91.9646 111.844 91.6215 112.298 91.3274C113.193 90.7271 114.125 90.2615 114.935 89.6856C115.34 89.3916 115.72 89.0853 116.027 88.7177C116.334 88.3501 116.542 87.9213 116.64 87.4802C116.739 87.0269 116.714 86.5735 116.677 86.1447C116.628 85.7036 116.53 85.287 116.444 84.8704C116.248 84.0618 116.027 83.2899 115.892 82.5425C115.745 81.7951 115.72 81.0599 115.892 80.4106C116.076 79.7612 116.42 79.2098 116.739 78.732C117.401 77.7763 118.039 77.0167 118.468 76.3428C118.898 75.6689 119.119 75.093 119.204 74.7009C119.254 74.4927 119.254 74.3456 119.266 74.2354C119.254 74.3456 119.266 74.5049 119.217 74.7009C119.143 75.1053 118.922 75.6811 118.481 76.355C118.064 77.0289 117.426 77.7886 116.775 78.7565C116.444 79.2343 116.113 79.7734 115.941 80.4228C115.757 81.0599 115.794 81.7951 115.941 82.5302C116.076 83.2776 116.297 84.0495 116.493 84.8582C116.591 85.2748 116.689 85.6913 116.739 86.1324C116.775 86.5735 116.8 87.0269 116.702 87.4924C116.604 87.9458 116.383 88.3746 116.076 88.7544C115.769 89.1343 115.389 89.4406 114.972 89.7346C114.162 90.3227 113.218 90.7883 112.334 91.3887C111.893 91.6828 111.451 92.0136 111.095 92.4424C110.739 92.859 110.506 93.3858 110.347 93.925C110.04 95.0277 109.967 96.2284 109.721 97.4169C109.611 98.0173 109.439 98.6299 109.12 99.1812C108.801 99.7326 108.274 100.161 107.685 100.419C107.084 100.688 106.433 100.823 105.783 100.933C105.133 101.044 104.47 101.117 103.796 101.24C103.133 101.362 102.458 101.509 101.857 101.852C101.256 102.171 100.79 102.71 100.385 103.286C99.9802 103.862 99.6245 104.487 99.2564 105.111C98.8884 105.724 98.4835 106.349 97.9683 106.888C97.453 107.427 96.7414 107.819 95.9685 107.868C95.2079 107.929 94.4473 107.782 93.6989 107.611C92.9506 107.427 92.2022 107.219 91.4416 107.072C90.681 106.925 89.8713 106.876 89.1229 107.109C88.3745 107.366 87.6998 107.831 87.0496 108.309C86.3994 108.787 85.7614 109.302 85.0621 109.731C84.8781 109.829 84.6941 109.939 84.5101 110.025C84.4119 110.074 84.3138 110.11 84.2279 110.159L83.9212 110.257C83.5286 110.38 83.0992 110.466 82.6698 110.404L82.5103 110.392C82.4613 110.392 82.4122 110.368 82.3509 110.368C82.2527 110.343 82.1423 110.319 82.0442 110.294C81.8479 110.221 81.6393 110.159 81.4553 110.061C81.0627 109.89 80.7069 109.657 80.3512 109.424C79.6396 108.946 78.9771 108.395 78.2778 107.917C77.9221 107.672 77.5417 107.452 77.1614 107.268C76.7688 107.096 76.3517 106.986 75.9223 106.961C75.0636 106.912 74.1925 107.109 73.346 107.329C72.4872 107.537 71.6162 107.795 70.7206 107.88C70.2667 107.917 69.8128 107.893 69.3589 107.782C68.9049 107.684 68.5124 107.427 68.1566 107.133C67.4573 106.52 66.9911 105.724 66.5126 104.94C66.0465 104.156 65.6048 103.335 64.9914 102.649C64.6847 102.306 64.3289 102.012 63.9241 101.803C63.5069 101.595 63.0653 101.46 62.6114 101.362C61.6912 101.154 60.7589 101.068 59.8142 100.897C59.348 100.811 58.8818 100.713 58.4279 100.541C57.9863 100.37 57.5569 100.125 57.2011 99.7816C56.8576 99.4263 56.6245 98.9852 56.4527 98.5318C56.2687 98.0785 56.1706 97.6007 56.0847 97.1351C55.9129 96.1794 55.8271 95.2115 55.6062 94.268C55.4958 93.7902 55.3363 93.3368 55.091 92.9203C54.8579 92.5037 54.5144 92.1484 54.134 91.842C53.3734 91.2294 52.5024 90.7761 51.6559 90.2615C51.2265 89.9919 50.8094 89.7224 50.4168 89.4038C50.0365 89.0853 49.6807 88.7054 49.4353 88.2521C49.19 87.811 49.0796 87.2964 49.0796 86.7818C49.0796 86.2795 49.1532 85.7771 49.2636 85.2748C49.4721 84.2946 49.7788 83.3266 49.9383 82.3342C50.0242 81.8318 50.061 81.3295 49.9874 80.8394C49.9261 80.3371 49.7298 79.8715 49.4844 79.4304C48.9814 78.5482 48.3189 77.764 47.7301 76.9186C47.4233 76.502 47.1412 76.061 46.9204 75.5954C46.6995 75.1298 46.5523 74.6152 46.54 74.0761C46.5523 73.5492 46.7118 73.0346 46.9326 72.569C47.1534 72.0912 47.4356 71.6501 47.7301 71.2335C48.3312 70.4004 48.9937 69.6162 49.4967 68.734C49.742 68.2929 49.9261 67.8274 49.9874 67.325C50.061 66.8349 50.0242 66.3203 49.9383 65.8302C49.7788 64.8378 49.4721 63.8698 49.2636 62.8896C49.1532 62.3873 49.0796 61.8849 49.0796 61.3826C49.0796 60.868 49.19 60.3534 49.4353 59.9123C49.6807 59.459 50.0365 59.0914 50.4291 58.7606C50.8094 58.442 51.2265 58.1725 51.6559 57.9152C52.5024 57.3883 53.3857 56.935 54.1463 56.3224C54.5266 56.016 54.8579 55.6607 55.091 55.2441C55.3363 54.8276 55.4958 54.3742 55.6062 53.8964C55.8271 52.9529 55.9129 51.985 56.0847 51.0416C56.1706 50.5637 56.2687 50.0859 56.4527 49.6325C56.6245 49.1792 56.8576 48.7381 57.2011 48.3828C57.5569 48.0397 57.9863 47.8069 58.4402 47.6354C58.8818 47.4516 59.3603 47.3536 59.8265 47.2678C60.7589 47.0963 61.7035 47.0105 62.6114 46.8145C63.0653 46.7042 63.5069 46.5694 63.9241 46.3734C64.3289 46.1651 64.6847 45.8588 64.9914 45.5157C65.6048 44.8296 66.0465 44.021 66.5126 43.2368C66.9911 42.4526 67.4573 41.644 68.1566 41.0436C68.5124 40.7496 68.9049 40.4923 69.3589 40.382C69.8128 40.2717 70.2667 40.2595 70.7206 40.2962C71.6162 40.382 72.4872 40.627 73.3337 40.8353C74.1925 41.0559 75.0636 41.2519 75.9223 41.2152C76.3517 41.1784 76.7688 41.0804 77.1614 40.8966C77.5417 40.7128 77.9221 40.5045 78.2656 40.2595C78.9771 39.7816 79.6396 39.2303 80.3512 38.7524C80.7069 38.5196 81.0627 38.2868 81.4553 38.1153C81.6393 38.0173 81.8479 37.956 82.0442 37.8825C82.1423 37.8457 82.2527 37.8335 82.3509 37.809C82.4081 37.7927 82.4613 37.7804 82.5103 37.7722L82.6698 37.76C83.0992 37.711 83.5286 37.7845 83.9212 37.907L84.2156 38.0173C84.3138 38.054 84.4119 38.103 84.5101 38.1398C84.6941 38.2256 84.8781 38.3358 85.0499 38.4339C85.7614 38.8749 86.3994 39.3773 87.0496 39.8674C87.6998 40.3452 88.3745 40.7986 89.1106 41.0559C89.8713 41.2887 90.6687 41.2519 91.4293 41.0926C92.2022 40.9579 92.9506 40.7373 93.6989 40.5535C94.4473 40.382 95.2079 40.235 95.9685 40.2962C96.7414 40.3452 97.453 40.7373 97.9683 41.2764C98.4835 41.8155 98.8761 42.4404 99.2564 43.0653C99.6245 43.6779 99.9802 44.3028 100.385 44.8909C100.778 45.4667 101.256 45.9936 101.857 46.3244C102.458 46.6552 103.133 46.8145 103.796 46.937C104.458 47.0473 105.133 47.1331 105.783 47.2311C106.433 47.3413 107.084 47.4761 107.685 47.7457C108.274 48.003 108.801 48.4318 109.12 48.9832C109.439 49.5345 109.598 50.1472 109.721 50.7475C109.967 51.9483 110.04 53.1367 110.347 54.2394C110.506 54.7908 110.739 55.3054 111.095 55.722C111.451 56.1508 111.893 56.4816 112.334 56.7879C113.218 57.3883 114.162 57.8539 114.972 58.4298C115.377 58.7238 115.769 59.0424 116.076 59.41C116.383 59.7898 116.604 60.2309 116.702 60.6842C116.8 61.1375 116.775 61.5909 116.739 62.032C116.689 62.4731 116.591 62.9019 116.493 63.3062C116.297 64.1271 116.076 64.8868 115.941 65.6342C115.794 66.3693 115.757 67.1045 115.941 67.7538C116.113 68.391 116.444 68.9423 116.775 69.4202C117.426 70.3759 118.064 71.1355 118.481 71.8216C118.922 72.4955 119.143 73.0714 119.217 73.4757C119.266 73.6717 119.254 73.831 119.266 73.929Z" fill="#263238"/>
<path d="M76.1312 107.758C76.1681 107.77 75.2602 111.434 74.107 115.955C72.9538 120.464 71.9969 124.115 71.9601 124.115C71.9233 124.103 72.8311 120.439 73.9843 115.918C75.1375 111.409 76.0944 107.746 76.1312 107.758Z" fill="#263238"/>
<path d="M105.219 74.0882C105.219 86.3651 95.2446 96.3263 82.9396 96.3263C70.6469 96.3263 60.6729 86.3651 60.6729 74.0882C60.6729 61.7991 70.6469 51.8379 82.9396 51.8379C95.2446 51.8379 105.219 61.7991 105.219 74.0882Z" fill="white"/>
<path d="M71.5548 54.9621C71.5548 54.9621 71.4689 55.0234 71.2972 55.1337C71.1172 55.248 70.8596 55.4155 70.5243 55.636C70.193 55.8566 69.8005 56.1629 69.322 56.5059C69.0889 56.6897 68.8558 56.898 68.5982 57.1186C68.4673 57.2247 68.3324 57.335 68.1933 57.4494C68.0584 57.5719 67.9234 57.7067 67.7885 57.8292C66.6721 58.8707 65.4084 60.2674 64.243 62.093C64.0957 62.3217 63.9485 62.5545 63.8013 62.7914C63.6418 63.0242 63.5314 63.2815 63.3842 63.5388C63.2492 63.7961 63.102 64.0412 62.9793 64.3107C62.8567 64.5803 62.7299 64.858 62.599 65.1439C62.5377 65.2787 62.4641 65.4134 62.415 65.5605C62.3578 65.7075 62.3005 65.8545 62.2433 66.0015C62.1328 66.2956 62.0102 66.5897 61.912 66.896C61.728 67.5208 61.4949 68.1457 61.3599 68.8196C61.0164 70.1306 60.8324 71.5519 60.7588 73.0344C60.6729 74.517 60.7588 76.073 61.0164 77.6536C61.5317 80.8024 62.7708 84.0861 64.8932 87.0144C66.9788 89.9305 69.9354 92.479 73.4809 94.1575C77.0264 95.8361 81.1608 96.5713 85.3074 96.1424C89.4418 95.7136 93.3308 94.084 96.4347 91.7071C97.2198 91.119 97.9437 90.4573 98.6307 89.7957C98.7943 89.616 98.9578 89.4404 99.1214 89.2688C99.2932 89.0973 99.4567 88.9217 99.6121 88.742C99.7675 88.5623 99.9229 88.3826 100.078 88.2029C100.226 88.015 100.373 87.8312 100.52 87.6515C101.685 86.169 102.606 84.5517 103.329 82.9098C104.053 81.2558 104.532 79.5527 104.826 77.8741C104.986 77.041 105.071 76.2078 105.121 75.3746C105.145 74.9703 105.145 74.5537 105.157 74.1494C105.157 73.7451 105.133 73.3407 105.121 72.9364C105.112 72.7404 105.104 72.5402 105.096 72.336C105.084 72.14 105.047 71.944 105.035 71.7479C104.986 71.364 104.937 70.9801 104.887 70.5962C104.826 70.2164 104.74 69.8365 104.667 69.469C104.593 69.1014 104.532 68.7216 104.409 68.3663C104.311 68.015 104.209 67.6638 104.102 67.3125C104.065 67.1288 104.004 66.9695 103.931 66.798C103.865 66.6264 103.804 66.459 103.747 66.2956C103.612 65.9648 103.501 65.6217 103.354 65.3032C103.207 64.9928 103.064 64.6824 102.925 64.372C101.735 61.9215 100.213 59.9366 98.692 58.4051C97.1585 56.8613 95.6127 55.7953 94.3123 54.9989C93.9851 54.811 93.6743 54.6313 93.3799 54.4598C93.2327 54.374 93.0855 54.3005 92.9382 54.2392C92.7992 54.1657 92.6643 54.1004 92.5334 54.0432C92.2635 53.9125 92.0181 53.7941 91.7973 53.6879C91.5765 53.5776 91.3557 53.5164 91.1716 53.4306C90.7954 53.2917 90.5091 53.1855 90.3129 53.112C90.1288 53.0263 90.0307 52.9895 90.0307 52.9895C90.0307 52.9895 90.1288 53.0263 90.3251 53.0998C90.5214 53.1651 90.8077 53.2713 91.1839 53.4183C91.3679 53.4919 91.5888 53.5531 91.8096 53.6634C92.0304 53.7696 92.2758 53.8839 92.5457 54.0065C92.6765 54.0636 92.8156 54.129 92.9628 54.2025C93.0977 54.2638 93.2572 54.3373 93.4044 54.423C93.6989 54.5864 94.0097 54.762 94.3368 54.9499C95.6495 55.7463 97.1953 56.8123 98.7411 58.3561C100.275 59.8876 101.808 61.8725 102.998 64.3352C103.145 64.6456 103.293 64.9601 103.44 65.2787C103.587 65.585 103.697 65.928 103.832 66.2588C103.898 66.4304 103.963 66.5978 104.029 66.7612C104.09 66.9327 104.151 67.1043 104.2 67.2758C104.299 67.627 104.401 67.9823 104.507 68.3418C104.618 68.6971 104.691 69.0769 104.765 69.4445C104.838 69.8243 104.924 70.1919 104.986 70.5717C105.035 70.9638 105.084 71.3558 105.133 71.7479C105.157 71.944 105.182 72.14 105.194 72.336C105.202 72.5321 105.211 72.7322 105.219 72.9364C105.243 73.3407 105.256 73.7451 105.268 74.1494C105.256 74.5537 105.256 74.9703 105.231 75.3869C105.182 76.22 105.096 77.0532 104.937 77.8986C104.642 79.5895 104.164 81.2925 103.44 82.9589C102.704 84.6129 101.784 86.2302 100.606 87.725C100.467 87.9129 100.324 88.0967 100.176 88.2764C100.013 88.4643 99.8534 88.6481 99.698 88.8278C99.5426 89.0075 99.3831 89.1831 99.2196 89.3546C99.0478 89.5261 98.8801 89.7018 98.7166 89.8815C98.0173 90.5553 97.2935 91.2047 96.5083 91.8051C93.3799 94.1943 89.4786 95.8361 85.3197 96.265C81.1608 96.6938 76.9896 95.9586 73.4318 94.2678C69.8618 92.5892 66.8929 90.0162 64.795 87.0757C62.6726 84.1351 61.4213 80.8392 60.906 77.6658C60.6607 76.0853 60.5625 74.517 60.6607 73.0344C60.7343 71.5396 60.9306 70.1183 61.2741 68.7951C61.409 68.1212 61.6421 67.4963 61.8261 66.8715C61.9365 66.5652 62.0592 66.2711 62.1696 65.9648C62.2269 65.8178 62.2801 65.6707 62.3291 65.5237C62.3905 65.3889 62.4641 65.2419 62.5254 65.1071C62.6563 64.8294 62.7831 64.5517 62.9057 64.274C63.0407 64.0044 63.1879 63.7594 63.3229 63.5021C63.4578 63.2448 63.5805 62.9875 63.74 62.7547C63.8872 62.5178 64.0344 62.2809 64.1816 62.044C65.3594 60.2184 66.6353 58.8339 67.7517 57.7924C67.8989 57.6699 68.0216 57.5351 68.1565 57.4126C68.2956 57.2983 68.4305 57.188 68.5614 57.0818C68.8313 56.8735 69.0644 56.653 69.2975 56.4814C69.7759 56.1384 70.1685 55.8321 70.512 55.6115C70.8473 55.3991 71.105 55.2399 71.2849 55.1337C71.4567 55.0234 71.5548 54.9621 71.5548 54.9621Z" fill="#263238"/>
<path fill-rule="evenodd" clip-rule="evenodd" d="M85.443 81.7979C85.0054 81.7037 84.7097 82.0215 84.4022 82.3157C82.8292 83.8103 80.9725 84.8342 78.8555 85.3991C78.5007 85.4933 78.134 85.5874 77.7674 85.6463C77.3417 85.7169 76.9396 85.4462 76.8686 85.0461C76.7976 84.6224 76.9869 84.3164 77.4008 84.1869C77.7556 84.081 78.1222 84.0222 78.4889 83.9163C80.3929 83.3984 82.0723 82.4687 83.4797 81.0682C84.1775 80.3856 84.9817 80.1032 85.9278 80.3503C86.3773 80.468 86.6374 80.8682 86.5547 81.2448C86.46 81.6684 86.1526 81.845 85.7268 81.8332C85.6558 81.8214 85.573 81.8097 85.443 81.7979ZM74.8226 79.8443C74.4205 79.8443 74.0302 79.8561 73.6281 79.8443C73.0604 79.809 72.8002 79.5618 72.8002 79.0911C72.8002 78.6203 73.0604 78.3614 73.6044 78.3379C74.2076 78.3144 74.8107 78.3379 75.4021 78.3261C77.4599 78.2908 79.0447 77.4317 80.1091 75.6664C80.523 74.9838 80.8897 74.8073 81.3273 75.0662C81.7648 75.3251 81.8122 75.7959 81.4219 76.4431C80.1446 78.5615 78.2641 79.6913 75.7924 79.8443C75.473 79.8561 75.1537 79.8443 74.8226 79.8443ZM91.3681 73.701C91.3681 74.1482 91.38 74.5954 91.3563 75.0427C91.3326 75.5369 91.0488 75.8194 90.6349 75.8312C90.1855 75.8429 89.8898 75.5487 89.8543 75.0191C89.8307 74.6308 89.8307 74.2306 89.8425 73.8305C89.878 72.5006 89.7124 71.2178 89.0856 70.0056C88.92 69.6761 88.8727 69.2878 89.1802 69.0524C89.3812 68.8994 89.7479 68.817 89.9844 68.8876C90.2091 68.9465 90.3983 69.2289 90.5166 69.4525C91.037 70.4646 91.309 71.5356 91.3563 72.6654C91.38 73.0067 91.3563 73.3597 91.3681 73.701ZM87.6072 72.5124C87.2997 72.6889 86.9686 72.5359 86.7675 72.2417C86.6493 72.0887 86.5783 71.9004 86.4955 71.7121C85.9752 70.5235 85.0881 69.7585 83.8227 69.4408C83.7281 69.4172 83.6216 69.4054 83.527 69.3819C83.1131 69.2525 82.912 68.97 82.9712 68.5346C83.0185 68.1227 83.3378 67.8755 83.8227 67.9108C84.0711 67.9344 84.3194 68.005 84.5559 68.0756C86.2472 68.5816 87.347 69.7232 87.9857 71.3355C88.0212 71.4297 88.0448 71.5238 88.0685 71.618C88.0803 71.665 88.0803 71.7121 88.0921 71.771C88.0448 72.1711 87.8556 72.3829 87.6072 72.5124ZM74.7753 72.5477C74.8581 71.3826 75.1774 70.2175 75.7687 69.1348C75.9816 68.7582 76.2654 68.4993 76.7267 68.6169C77.1761 68.7229 77.4363 69.2171 77.1997 69.6644C76.6439 70.7471 76.3364 71.8769 76.2773 73.0891C76.2536 73.5716 75.9343 73.8422 75.5203 73.8305C75.1064 73.8305 74.8226 73.5363 74.7753 73.0537C74.7634 72.9125 74.7753 72.7595 74.7753 72.5477ZM75.8278 82.8335C75.5558 82.8335 75.2838 82.8453 75.0118 82.8218C74.5742 82.7982 74.3259 82.5629 74.3022 82.1157C74.2785 81.6684 74.5151 81.386 75.0118 81.3389C75.6268 81.2801 76.2536 81.2801 76.8686 81.2095C80.6295 80.7505 83.7399 77.2787 83.7754 73.501C83.7754 73.3127 83.8109 72.4182 83.0894 72.4182C82.5572 72.4182 82.3444 73.0773 82.3089 73.195C82.1433 73.701 81.8003 73.9246 81.3746 73.8069C80.9488 73.701 80.7241 73.3244 80.8187 72.8066C80.9843 71.8769 81.5165 71.2296 82.4271 70.9354C83.2668 70.6647 84.2011 70.9589 84.7807 71.665C85.2064 72.1829 85.372 72.7948 85.3483 73.4539C85.2419 78.5615 80.9606 82.7629 75.8278 82.8335ZM80.9843 59.0019C83.8227 58.6135 86.7202 59.0019 89.3103 60.2259C89.4285 60.2808 89.5429 60.3396 89.6533 60.4024C89.9016 60.5201 90.1381 60.6613 90.351 60.8378C90.6467 61.0967 90.694 61.438 90.4811 61.7793C90.2682 62.0971 89.9607 62.2265 89.5705 62.0853C89.3931 62.0147 89.2157 61.9088 89.0383 61.8146C85.0408 59.8453 81.0513 59.8532 77.0696 61.8382C76.9514 61.897 76.8449 61.9559 76.7267 62.0029C76.23 62.2265 75.8633 62.1324 75.6386 61.744C75.4257 61.3792 75.5322 60.9437 75.9934 60.6731C77.1997 59.9669 78.4889 59.4491 79.8726 59.1784C80.2353 59.1078 80.6058 59.049 80.9843 59.0019ZM74.4678 76.855C74.0184 76.855 73.5689 76.8668 73.1195 76.8433C72.5873 76.8197 72.268 76.5137 72.2562 76.1018C72.2562 75.6311 72.5873 75.3369 73.155 75.3251C73.8883 75.3133 74.6097 75.3486 75.3311 75.3251C76.9041 75.2663 77.6846 74.4778 77.7792 72.9243C77.8739 71.2061 78.5953 69.8291 80.0027 68.8288C80.2274 68.664 80.5467 68.5346 80.8187 68.5463C81.3746 68.5463 81.6584 69.1701 81.3509 69.629C81.2445 69.7938 81.0671 69.9115 80.9133 70.0292C79.9435 70.7235 79.435 71.665 79.3167 72.8419C79.0447 75.6546 77.7201 76.855 74.9172 76.855C74.7674 76.855 74.6176 76.855 74.4678 76.855ZM71.7831 72.5006C72.0788 68.6758 73.7818 65.6748 77.0342 63.5682C77.1761 63.474 77.3417 63.3799 77.5072 63.3446C77.8384 63.2622 78.1459 63.3093 78.3469 63.6388C78.548 63.9801 78.5125 64.3096 78.2287 64.5803C78.0986 64.7097 77.9448 64.7921 77.8029 64.8863C74.9763 66.7928 73.4152 69.4172 73.2733 72.8301C73.2733 73.0067 73.2615 73.1832 73.2023 73.3362C73.0959 73.6893 72.8239 73.8658 72.4572 73.8305C72.1024 73.8069 71.8541 73.5951 71.7949 73.242C71.7595 72.9949 71.7831 72.7478 71.7831 72.5006ZM83.0658 64.9216C84.5914 64.9216 86.1644 65.2629 87.5363 66.1102C87.623 66.1573 87.7058 66.2122 87.7846 66.275C88.2577 66.628 88.3878 67.0399 88.1631 67.4048C87.9029 67.8284 87.4653 67.9108 86.9331 67.5578C85.987 66.934 84.9581 66.5339 83.8227 66.4044C82.4981 66.2632 81.2445 66.4633 80.0618 67.0635C79.9081 67.1459 79.7543 67.24 79.6006 67.3106C79.1393 67.4989 78.749 67.393 78.548 67.0517C78.3233 66.6633 78.4179 66.2044 78.891 65.9925C79.8016 65.5924 81.4692 64.9216 83.0658 64.9216ZM88.376 75.125C88.2932 76.2901 87.9739 77.4552 87.3707 78.5262C87.1696 78.9146 86.8858 79.1735 86.4246 79.0558C85.9633 78.9499 85.715 78.4556 85.9515 78.0084C86.5074 76.9256 86.8148 75.7959 86.874 74.5837C86.8976 74.1012 87.217 73.8305 87.6309 73.8423C88.0448 73.8423 88.3287 74.1365 88.376 74.619C88.3878 74.7602 88.376 74.9132 88.376 75.125ZM94.3721 74.2424C94.3721 79.0322 91.7821 83.6927 88.4706 87.0585C88.1276 87.4116 87.5599 87.847 87.1223 88.1059C86.7439 88.3413 86.2826 88.3766 86.0106 88.0235C85.6913 87.5881 85.9752 87.1644 86.3063 86.8467C86.3773 86.7761 86.4955 86.729 86.5783 86.6701C90.1736 83.8103 92.9174 78.4085 92.8819 73.8069C92.8465 73.1361 92.8228 72.4535 92.74 71.7827C92.0896 66.3103 86.602 62.4148 81.1972 63.5446C81.1025 63.5564 81.0079 63.6035 80.9133 63.6152C80.3929 63.6976 79.9554 63.4387 79.8726 63.0033C79.8134 62.6384 80.0736 62.2618 80.5349 62.1559C81.0671 62.0265 81.6111 61.9088 82.1551 61.8735C89.2748 61.3557 94.5377 66.9929 94.3721 73.3597C94.3721 73.3833 94.3721 74.2424 94.3721 74.2424Z" fill="#D90452"/>
<path d="M292.899 102V84.6479H296.043V102H292.899Z" fill="#D90452"/>
<path d="M283.638 102.24C282.582 102.24 281.63 101.976 280.782 101.448C279.934 100.92 279.27 100.2 278.79 99.288C278.31 98.376 278.07 97.352 278.07 96.216C278.07 95.064 278.31 94.032 278.79 93.12C279.27 92.208 279.934 91.488 280.782 90.96C281.63 90.432 282.582 90.168 283.638 90.168C284.47 90.168 285.214 90.336 285.87 90.672C286.526 91.008 287.046 91.48 287.43 92.088C287.83 92.68 288.046 93.352 288.078 94.104V98.28C288.046 99.048 287.83 99.728 287.43 100.32C287.046 100.912 286.526 101.384 285.87 101.736C285.214 102.072 284.47 102.24 283.638 102.24ZM284.214 99.336C285.094 99.336 285.806 99.048 286.35 98.472C286.894 97.88 287.166 97.12 287.166 96.192C287.166 95.584 287.038 95.048 286.782 94.584C286.542 94.104 286.198 93.736 285.75 93.48C285.318 93.208 284.806 93.072 284.214 93.072C283.638 93.072 283.126 93.208 282.678 93.48C282.246 93.736 281.902 94.104 281.646 94.584C281.406 95.048 281.286 95.584 281.286 96.192C281.286 96.816 281.406 97.368 281.646 97.848C281.902 98.312 282.246 98.68 282.678 98.952C283.126 99.208 283.638 99.336 284.214 99.336ZM286.998 102V98.88L287.502 96.048L286.998 93.264V90.408H290.118V102H286.998Z" fill="#D90452"/>
<path d="M271.447 102V85.584H274.591V102H271.447ZM268.735 93.168V90.408H277.303V93.168H268.735Z" fill="#D90452"/>
<path d="M263.79 102V90.408H266.958V102H263.79ZM265.374 88.536C264.862 88.536 264.438 88.368 264.102 88.032C263.766 87.68 263.598 87.248 263.598 86.736C263.598 86.24 263.766 85.816 264.102 85.464C264.438 85.112 264.862 84.936 265.374 84.936C265.902 84.936 266.326 85.112 266.646 85.464C266.982 85.816 267.15 86.24 267.15 86.736C267.15 87.248 266.982 87.68 266.646 88.032C266.326 88.368 265.902 88.536 265.374 88.536Z" fill="#D90452"/>
<path d="M254.74 107.136C253.508 107.136 252.42 106.912 251.476 106.464C250.532 106.032 249.78 105.416 249.22 104.616L251.212 102.624C251.66 103.152 252.156 103.552 252.7 103.824C253.26 104.112 253.932 104.256 254.716 104.256C255.692 104.256 256.46 104.008 257.02 103.512C257.596 103.016 257.884 102.328 257.884 101.448V98.544L258.412 96L257.908 93.456V90.408H261.028V101.4C261.028 102.552 260.756 103.552 260.212 104.4C259.684 105.264 258.948 105.936 258.004 106.416C257.06 106.896 255.972 107.136 254.74 107.136ZM254.596 101.688C253.556 101.688 252.62 101.44 251.788 100.944C250.956 100.432 250.3 99.736 249.82 98.856C249.356 97.976 249.124 96.992 249.124 95.904C249.124 94.816 249.356 93.84 249.82 92.976C250.3 92.112 250.956 91.432 251.788 90.936C252.62 90.424 253.556 90.168 254.596 90.168C255.46 90.168 256.22 90.336 256.876 90.672C257.548 91.008 258.076 91.472 258.46 92.064C258.844 92.64 259.052 93.32 259.084 94.104V97.752C259.052 98.52 258.836 99.208 258.436 99.816C258.052 100.408 257.524 100.872 256.852 101.208C256.196 101.528 255.444 101.688 254.596 101.688ZM255.22 98.832C255.796 98.832 256.292 98.712 256.708 98.472C257.14 98.216 257.476 97.872 257.716 97.44C257.956 96.992 258.076 96.488 258.076 95.928C258.076 95.352 257.956 94.848 257.716 94.416C257.476 93.984 257.14 93.648 256.708 93.408C256.292 93.152 255.796 93.024 255.22 93.024C254.644 93.024 254.14 93.152 253.708 93.408C253.276 93.648 252.94 93.992 252.7 94.44C252.46 94.872 252.34 95.368 252.34 95.928C252.34 96.472 252.46 96.968 252.7 97.416C252.94 97.848 253.276 98.192 253.708 98.448C254.14 98.704 254.644 98.832 255.22 98.832Z" fill="#D90452"/>
<path d="M243.938 102V90.408H247.106V102H243.938ZM245.522 88.536C245.01 88.536 244.586 88.368 244.25 88.032C243.914 87.68 243.746 87.248 243.746 86.736C243.746 86.24 243.914 85.816 244.25 85.464C244.586 85.112 245.01 84.936 245.522 84.936C246.05 84.936 246.474 85.112 246.794 85.464C247.13 85.816 247.298 86.24 247.298 86.736C247.298 87.248 247.13 87.68 246.794 88.032C246.474 88.368 246.05 88.536 245.522 88.536Z" fill="#D90452"/>
<path d="M228.577 102V99.0959H232.873C233.961 99.0959 234.913 98.8719 235.729 98.4239C236.545 97.9599 237.177 97.3119 237.625 96.4799C238.089 95.6479 238.321 94.6639 238.321 93.5279C238.321 92.4239 238.089 91.4639 237.625 90.6479C237.161 89.8159 236.521 89.1759 235.705 88.7279C234.889 88.2639 233.945 88.0319 232.873 88.0319H228.505V85.1279H232.921C234.169 85.1279 235.321 85.3359 236.377 85.7519C237.449 86.1679 238.377 86.7599 239.161 87.5279C239.961 88.2799 240.577 89.1679 241.009 90.1919C241.457 91.2159 241.681 92.3359 241.681 93.5519C241.681 94.7679 241.457 95.8959 241.009 96.9359C240.577 97.9599 239.969 98.8559 239.185 99.6239C238.401 100.376 237.473 100.96 236.401 101.376C235.345 101.792 234.201 102 232.969 102H228.577ZM226.345 102V85.1279H229.609V102H226.345Z" fill="#D90452"/>
<path d="M212.06 102.24C211.004 102.24 210.052 101.976 209.204 101.448C208.356 100.92 207.692 100.2 207.212 99.288C206.732 98.376 206.492 97.352 206.492 96.216C206.492 95.064 206.732 94.032 207.212 93.12C207.692 92.208 208.356 91.488 209.204 90.96C210.052 90.432 211.004 90.168 212.06 90.168C212.892 90.168 213.636 90.336 214.292 90.672C214.948 91.008 215.468 91.48 215.852 92.088C216.252 92.68 216.468 93.352 216.5 94.104V98.28C216.468 99.048 216.252 99.728 215.852 100.32C215.468 100.912 214.948 101.384 214.292 101.736C213.636 102.072 212.892 102.24 212.06 102.24ZM212.636 99.336C213.516 99.336 214.228 99.048 214.772 98.472C215.316 97.88 215.588 97.12 215.588 96.192C215.588 95.584 215.46 95.048 215.204 94.584C214.964 94.104 214.62 93.736 214.172 93.48C213.74 93.208 213.228 93.072 212.636 93.072C212.06 93.072 211.548 93.208 211.1 93.48C210.668 93.736 210.324 94.104 210.068 94.584C209.828 95.048 209.708 95.584 209.708 96.192C209.708 96.816 209.828 97.368 210.068 97.848C210.324 98.312 210.668 98.68 211.1 98.952C211.548 99.208 212.06 99.336 212.636 99.336ZM215.42 102V98.88L215.924 96.048L215.42 93.264V90.408H218.54V102H215.42Z" fill="#D90452"/>
<path d="M201.282 102V84.6479H204.426V102H201.282Z" fill="#D90452"/>
<path d="M195.353 102V84.6479H198.497V102H195.353Z" fill="#D90452"/>
<path d="M187.913 102.24C186.697 102.24 185.617 101.984 184.673 101.472C183.729 100.944 182.977 100.224 182.417 99.312C181.873 98.4 181.601 97.36 181.601 96.192C181.601 95.04 181.865 94.016 182.393 93.12C182.937 92.208 183.673 91.488 184.601 90.96C185.529 90.416 186.561 90.144 187.697 90.144C188.817 90.144 189.801 90.4 190.649 90.912C191.513 91.408 192.185 92.096 192.665 92.976C193.161 93.84 193.409 94.824 193.409 95.928C193.409 96.136 193.393 96.352 193.361 96.576C193.345 96.784 193.305 97.024 193.241 97.296L183.497 97.32V94.968L191.777 94.944L190.505 95.928C190.473 95.24 190.345 94.664 190.121 94.2C189.913 93.736 189.601 93.384 189.185 93.144C188.785 92.888 188.289 92.76 187.697 92.76C187.073 92.76 186.529 92.904 186.065 93.192C185.601 93.464 185.241 93.856 184.985 94.368C184.745 94.864 184.625 95.456 184.625 96.144C184.625 96.848 184.753 97.464 185.009 97.992C185.281 98.504 185.665 98.904 186.161 99.192C186.657 99.464 187.233 99.6 187.889 99.6C188.481 99.6 189.017 99.504 189.497 99.312C189.977 99.104 190.393 98.8 190.745 98.4L192.593 100.248C192.033 100.904 191.345 101.4 190.529 101.736C189.729 102.072 188.857 102.24 187.913 102.24Z" fill="#D90452"/>
<path d="M174.633 102.24C173.609 102.24 172.697 102.024 171.897 101.592C171.113 101.16 170.497 100.56 170.049 99.792C169.601 99.024 169.377 98.136 169.377 97.128V90.408H172.545V97.056C172.545 97.536 172.625 97.952 172.785 98.304C172.945 98.64 173.185 98.896 173.505 99.072C173.825 99.248 174.201 99.336 174.633 99.336C175.289 99.336 175.801 99.136 176.169 98.736C176.537 98.336 176.721 97.776 176.721 97.056V90.408H179.865V97.128C179.865 98.152 179.641 99.048 179.193 99.816C178.761 100.584 178.145 101.184 177.345 101.616C176.561 102.032 175.657 102.24 174.633 102.24Z" fill="#D90452"/>
<path d="M152.728 102V85.1279H155.992V102H152.728ZM163.312 102V85.1279H166.576V102H163.312ZM154.792 94.7279V91.8479H164.224V94.7279H154.792Z" fill="#D90452"/>
<path d="M242.412 72.24C241.356 72.24 240.404 71.976 239.556 71.448C238.708 70.92 238.044 70.2 237.564 69.288C237.084 68.376 236.844 67.352 236.844 66.216C236.844 65.064 237.084 64.032 237.564 63.12C238.044 62.208 238.708 61.488 239.556 60.96C240.404 60.432 241.356 60.168 242.412 60.168C243.244 60.168 243.988 60.336 244.644 60.672C245.3 61.008 245.82 61.48 246.204 62.088C246.604 62.68 246.82 63.352 246.852 64.104V68.28C246.82 69.048 246.604 69.728 246.204 70.32C245.82 70.912 245.3 71.384 244.644 71.736C243.988 72.072 243.244 72.24 242.412 72.24ZM242.988 69.336C243.868 69.336 244.58 69.048 245.124 68.472C245.668 67.88 245.94 67.12 245.94 66.192C245.94 65.584 245.812 65.048 245.556 64.584C245.316 64.104 244.972 63.736 244.524 63.48C244.092 63.208 243.58 63.072 242.988 63.072C242.412 63.072 241.9 63.208 241.452 63.48C241.02 63.736 240.676 64.104 240.42 64.584C240.18 65.048 240.06 65.584 240.06 66.192C240.06 66.816 240.18 67.368 240.42 67.848C240.676 68.312 241.02 68.68 241.452 68.952C241.9 69.208 242.412 69.336 242.988 69.336ZM245.772 72V68.88L246.276 66.048L245.772 63.264V60.408H248.892V72H245.772Z" fill="#100E0F"/>
<path d="M231.61 72V60.408H234.778V72H231.61ZM233.194 58.536C232.682 58.536 232.258 58.368 231.922 58.032C231.586 57.68 231.418 57.248 231.418 56.736C231.418 56.24 231.586 55.816 231.922 55.464C232.258 55.112 232.682 54.936 233.194 54.936C233.722 54.936 234.146 55.112 234.466 55.464C234.802 55.816 234.97 56.24 234.97 56.736C234.97 57.248 234.802 57.68 234.466 58.032C234.146 58.368 233.722 58.536 233.194 58.536Z" fill="#100E0F"/>
<path d="M223.986 72V55.584H227.13V72H223.986ZM221.274 63.168V60.408H229.842V63.168H221.274Z" fill="#100E0F"/>
<path d="M216.746 72V65.352C216.746 64.664 216.53 64.104 216.098 63.672C215.666 63.24 215.106 63.024 214.418 63.024C213.97 63.024 213.57 63.12 213.218 63.312C212.866 63.504 212.586 63.776 212.378 64.128C212.186 64.48 212.09 64.888 212.09 65.352L210.866 64.728C210.866 63.816 211.058 63.024 211.442 62.352C211.842 61.664 212.386 61.128 213.074 60.744C213.778 60.36 214.57 60.168 215.45 60.168C216.298 60.168 217.058 60.384 217.73 60.816C218.402 61.232 218.93 61.784 219.314 62.472C219.698 63.144 219.89 63.872 219.89 64.656V72H216.746ZM208.946 72V60.408H212.09V72H208.946Z" fill="#100E0F"/>
<path d="M199.685 72.24C198.629 72.24 197.677 71.976 196.829 71.448C195.981 70.92 195.317 70.2 194.837 69.288C194.357 68.376 194.117 67.352 194.117 66.216C194.117 65.064 194.357 64.032 194.837 63.12C195.317 62.208 195.981 61.488 196.829 60.96C197.677 60.432 198.629 60.168 199.685 60.168C200.517 60.168 201.261 60.336 201.917 60.672C202.573 61.008 203.093 61.48 203.477 62.088C203.877 62.68 204.093 63.352 204.125 64.104V68.28C204.093 69.048 203.877 69.728 203.477 70.32C203.093 70.912 202.573 71.384 201.917 71.736C201.261 72.072 200.517 72.24 199.685 72.24ZM200.261 69.336C201.141 69.336 201.853 69.048 202.397 68.472C202.941 67.88 203.213 67.12 203.213 66.192C203.213 65.584 203.085 65.048 202.829 64.584C202.589 64.104 202.245 63.736 201.797 63.48C201.365 63.208 200.853 63.072 200.261 63.072C199.685 63.072 199.173 63.208 198.725 63.48C198.293 63.736 197.949 64.104 197.693 64.584C197.453 65.048 197.333 65.584 197.333 66.192C197.333 66.816 197.453 67.368 197.693 67.848C197.949 68.312 198.293 68.68 198.725 68.952C199.173 69.208 199.685 69.336 200.261 69.336ZM203.045 72V68.88L203.549 66.048L203.045 63.264V60.408H206.165V72H203.045Z" fill="#100E0F"/>
<path d="M185.181 72V60.408H188.325V72H185.181ZM188.325 65.592L187.101 64.776C187.245 63.352 187.661 62.232 188.349 61.416C189.037 60.584 190.029 60.168 191.325 60.168C191.885 60.168 192.389 60.264 192.837 60.456C193.285 60.632 193.693 60.928 194.061 61.344L192.093 63.6C191.917 63.408 191.701 63.264 191.445 63.168C191.205 63.072 190.925 63.024 190.605 63.024C189.933 63.024 189.381 63.24 188.949 63.672C188.533 64.088 188.325 64.728 188.325 65.592Z" fill="#100E0F"/>
<path d="M175.92 72.24C174.864 72.24 173.912 71.976 173.064 71.448C172.216 70.92 171.552 70.2 171.072 69.288C170.592 68.376 170.352 67.352 170.352 66.216C170.352 65.064 170.592 64.032 171.072 63.12C171.552 62.208 172.216 61.488 173.064 60.96C173.912 60.432 174.864 60.168 175.92 60.168C176.752 60.168 177.496 60.336 178.152 60.672C178.808 61.008 179.328 61.48 179.712 62.088C180.112 62.68 180.328 63.352 180.36 64.104V68.28C180.328 69.048 180.112 69.728 179.712 70.32C179.328 70.912 178.808 71.384 178.152 71.736C177.496 72.072 176.752 72.24 175.92 72.24ZM176.496 69.336C177.376 69.336 178.088 69.048 178.632 68.472C179.176 67.88 179.448 67.12 179.448 66.192C179.448 65.584 179.32 65.048 179.064 64.584C178.824 64.104 178.48 63.736 178.032 63.48C177.6 63.208 177.088 63.072 176.496 63.072C175.92 63.072 175.408 63.208 174.96 63.48C174.528 63.736 174.184 64.104 173.928 64.584C173.688 65.048 173.568 65.584 173.568 66.192C173.568 66.816 173.688 67.368 173.928 67.848C174.184 68.312 174.528 68.68 174.96 68.952C175.408 69.208 175.92 69.336 176.496 69.336ZM179.28 72V68.88L179.784 66.048L179.28 63.264V60.408H182.4V72H179.28Z" fill="#100E0F"/>
<path d="M160.528 72.24C159.328 72.24 158.2 72.024 157.144 71.592C156.104 71.144 155.184 70.52 154.384 69.72C153.6 68.92 152.984 68 152.536 66.96C152.104 65.904 151.888 64.768 151.888 63.552C151.888 62.32 152.112 61.184 152.56 60.144C153.008 59.088 153.632 58.168 154.432 57.384C155.232 56.584 156.168 55.968 157.24 55.536C158.312 55.088 159.472 54.864 160.72 54.864C162.112 54.864 163.392 55.128 164.56 55.656C165.728 56.168 166.696 56.896 167.464 57.84L165.256 60.048C164.728 59.36 164.072 58.832 163.288 58.464C162.504 58.096 161.64 57.912 160.696 57.912C159.624 57.912 158.672 58.152 157.84 58.632C157.024 59.096 156.384 59.752 155.92 60.6C155.456 61.432 155.224 62.408 155.224 63.528C155.224 64.648 155.448 65.64 155.896 66.504C156.36 67.352 156.984 68.016 157.768 68.496C158.568 68.976 159.48 69.216 160.504 69.216C161.56 69.216 162.464 69.024 163.216 68.64C163.968 68.24 164.544 67.664 164.944 66.912C165.344 66.144 165.544 65.208 165.544 64.104L167.68 65.568L160.312 65.496V62.664H168.904V63.12C168.904 65.136 168.544 66.824 167.824 68.184C167.104 69.528 166.112 70.544 164.848 71.232C163.6 71.904 162.16 72.24 160.528 72.24Z" fill="#100E0F"/>
<path fill-rule="evenodd" clip-rule="evenodd" d="M243.558 0.999941C247.031 16.8603 263.516 27.7246 279.767 24.3395C279.917 24.3209 280.067 24.2743 280.218 24.2277C280.368 24.1811 280.518 24.1346 280.668 24.1159C282.322 23.8551 283.712 24.6748 283.975 26.0534C284.163 27.2085 283.336 28.4008 281.871 28.7361C280.18 29.146 278.452 29.5186 276.723 29.6304C257.056 31.0559 241.848 17.7485 238.56 0.99994L243.558 0.999941ZM248.345 0.999941L253.485 0.999942C253.811 1.97418 254.213 2.9359 254.705 3.88398C255.231 4.92725 255.382 6.15681 254.405 6.902C253.766 7.38637 252.601 7.6472 251.85 7.42364C251.136 7.23735 250.535 6.34312 250.159 5.63519C249.383 4.13115 248.781 2.58607 248.345 0.999941ZM258.776 0.999942C260.865 5.4052 264.201 8.53488 269.096 9.99454C269.847 10.2181 270.636 10.4417 271.425 10.5162C272.966 10.628 273.98 9.84552 274.131 8.54143C274.319 7.16283 273.68 6.26859 272.365 5.85874C272.214 5.82148 272.055 5.79353 271.895 5.76558C271.735 5.73764 271.576 5.7097 271.425 5.67244C268.388 4.91239 266.037 3.34418 264.356 0.999943L258.776 0.999942ZM275.663 0.999944C274.451 1.34803 273.185 1.33312 271.996 0.999943L275.663 0.999944ZM283.534 0.999944L289.142 0.999945C287.976 3.58192 286.128 5.7923 283.562 7.60994C282.848 8.13158 281.833 8.54142 280.969 8.50416C279.203 8.50416 278.301 6.52942 279.278 5.0763C279.566 4.63297 280.016 4.29729 280.444 3.97777C280.52 3.92133 280.595 3.8654 280.668 3.80946C281.827 2.98291 282.778 2.04574 283.534 0.999944ZM294.133 0.999945L299.291 0.999946C298.764 2.92785 298.01 4.82128 297.013 6.64118C296.336 7.83349 295.435 8.65321 293.969 8.28061C292.542 7.94528 291.715 6.38037 292.466 4.9645C293.135 3.66638 293.691 2.34688 294.133 0.999945ZM253.992 34.8467C262.22 38.7217 271.425 39.9513 280.443 38.7217C281.645 38.5727 282.823 38.3864 283.975 38.1628C288.371 37.3058 292.466 35.6664 296.299 33.4308C297.764 32.5739 298.102 31.1953 297.426 30.0402C296.712 28.8107 295.547 28.5126 293.969 29.2205C293.689 29.3318 293.429 29.4639 293.159 29.6013C293.067 29.6478 292.975 29.695 292.88 29.7421C280.23 36.0266 267.555 36.0514 254.856 29.8167C254.715 29.7421 254.574 29.6653 254.433 29.5885C254.01 29.3579 253.588 29.1274 253.165 28.9597C251.925 28.5126 250.948 28.9224 250.272 29.9284C249.595 31.009 249.746 32.0895 250.685 32.9092C251.361 33.4681 252.113 33.9152 252.902 34.2878C253.253 34.4865 253.616 34.6728 253.992 34.8467ZM304.162 0.999946C302.395 8.91182 297.773 15.237 290.55 20.0919C290.443 20.1625 290.335 20.231 290.225 20.2999C289.872 20.5219 289.513 20.7478 289.197 21.0607C288.296 21.9176 288.183 22.9609 288.822 24.0414C289.461 25.0847 290.437 25.2337 291.489 24.9729C292.015 24.8611 292.541 24.5631 292.992 24.265C301.853 18.5455 307.094 10.7435 309 0.999947L304.162 0.999946ZM259.628 16.2169C263.986 18.8996 268.983 19.9801 273.83 19.9801C278.902 19.9801 284.2 17.8563 287.093 16.5895C288.596 15.9188 288.897 14.4657 288.183 13.2361C287.544 12.1556 286.304 11.8203 284.839 12.4164C284.513 12.5655 284.188 12.7476 283.862 12.9298C283.699 13.0209 283.536 13.1119 283.374 13.1989C279.616 15.0991 275.634 15.7325 271.425 15.2854C267.818 14.8756 264.55 13.6087 261.544 11.634C259.853 10.5162 258.463 10.777 257.636 12.1183C256.922 13.2734 257.336 14.5775 258.838 15.6953C259.089 15.894 259.352 16.0679 259.628 16.2169Z" fill="#D2D9E0" fill-opacity="0.3"/>
<path fill-rule="evenodd" clip-rule="evenodd" d="M209.789 168.362C206.316 152.502 189.83 141.637 173.58 145.022C173.43 145.041 173.279 145.088 173.129 145.134C172.979 145.181 172.829 145.227 172.678 145.246C171.025 145.507 169.635 144.687 169.372 143.308C169.184 142.153 170.011 140.961 171.476 140.626C173.167 140.216 174.895 139.843 176.623 139.731C196.291 138.306 211.498 151.613 214.787 168.362H209.789ZM205.002 168.362H199.861C199.536 167.388 199.133 166.426 198.641 165.478C198.115 164.435 197.965 163.205 198.942 162.46C199.581 161.975 200.745 161.715 201.497 161.938C202.211 162.124 202.812 163.019 203.188 163.727C203.964 165.231 204.566 166.776 205.002 168.362ZM194.571 168.362C192.482 163.957 189.146 160.827 184.251 159.367C183.499 159.144 182.71 158.92 181.921 158.846C180.381 158.734 179.366 159.516 179.216 160.82C179.028 162.199 179.667 163.093 180.982 163.503C181.132 163.54 181.292 163.568 181.452 163.596C181.611 163.624 181.771 163.652 181.921 163.689C184.959 164.449 187.31 166.018 188.991 168.362H194.571ZM177.683 168.362C178.895 168.014 180.162 168.029 181.35 168.362H177.683ZM169.812 168.362H164.205C165.371 165.78 167.219 163.57 169.785 161.752C170.499 161.23 171.514 160.82 172.378 160.858C174.144 160.858 175.045 162.832 174.068 164.286C173.781 164.729 173.331 165.065 172.902 165.384C172.827 165.44 172.752 165.496 172.678 165.552C171.52 166.379 170.569 167.316 169.812 168.362ZM159.214 168.362H154.056C154.583 166.434 155.337 164.541 156.334 162.721C157.01 161.528 157.912 160.709 159.377 161.081C160.805 161.417 161.632 162.981 160.88 164.397C160.212 165.695 159.656 167.015 159.214 168.362ZM199.355 134.515C191.127 130.64 181.921 129.411 172.904 130.64C171.701 130.789 170.524 130.975 169.372 131.199C164.976 132.056 160.88 133.695 157.048 135.931C155.583 136.788 155.244 138.167 155.921 139.322C156.635 140.551 157.799 140.849 159.377 140.141C159.658 140.03 159.918 139.898 160.188 139.761C160.279 139.714 160.372 139.667 160.467 139.62C173.117 133.335 185.791 133.31 198.491 139.545C198.632 139.62 198.773 139.697 198.914 139.773C199.336 140.004 199.759 140.234 200.182 140.402C201.422 140.849 202.399 140.439 203.075 139.433C203.751 138.353 203.601 137.272 202.662 136.453C201.985 135.894 201.234 135.447 200.445 135.074C200.094 134.875 199.731 134.689 199.355 134.515ZM149.185 168.362C150.952 160.45 155.574 154.125 162.797 149.27C162.903 149.199 163.012 149.131 163.122 149.062C163.475 148.84 163.834 148.614 164.149 148.301C165.051 147.444 165.164 146.401 164.525 145.32C163.886 144.277 162.909 144.128 161.857 144.389C161.331 144.501 160.805 144.799 160.354 145.097C151.493 150.816 146.252 158.618 144.347 168.362H149.185ZM193.719 153.145C189.361 150.462 184.363 149.382 179.517 149.382C174.444 149.382 169.146 151.505 166.253 152.772C164.75 153.443 164.45 154.896 165.164 156.126C165.802 157.206 167.042 157.542 168.508 156.945C168.833 156.796 169.159 156.614 169.485 156.432C169.647 156.341 169.81 156.25 169.973 156.163C173.73 154.263 177.713 153.629 181.921 154.076C185.528 154.486 188.797 155.753 191.803 157.728C193.494 158.846 194.884 158.585 195.711 157.243C196.424 156.088 196.011 154.784 194.508 153.667C194.258 153.468 193.995 153.294 193.719 153.145Z" fill="#D2D9E0" fill-opacity="0.3"/>
<path fill-rule="evenodd" clip-rule="evenodd" d="M339 1H4C2.34315 1 1 2.34315 1 4V165C1 166.657 2.34315 168 4.00001 168H339C340.657 168 342 166.657 342 165V4C342 2.34315 340.657 1 339 1ZM4 0C1.79086 0 0 1.79086 0 4V165C0 167.209 1.79087 169 4.00001 169H339C341.209 169 343 167.209 343 165V4C343 1.79086 341.209 0 339 0H4Z" fill="#D2D9E0"/>
</svg>
