<svg width="1080" height="177" viewBox="0 0 1080 177" fill="none" xmlns="http://www.w3.org/2000/svg">
<rect x="0.5" y="0.5" width="1079" height="176" rx="3.5" stroke="#D2D9E0"/>
<path d="M464.72 119.295L466.252 122.403L469.691 122.912L467.206 125.323L467.784 128.737L464.72 127.123L461.64 128.737L462.235 125.323L459.733 122.912L463.172 122.403L464.72 119.295Z" fill="#D90452"/>
<path d="M472.057 116.544L472.772 118.004L474.389 118.242L473.214 119.38L473.504 120.993L472.057 120.229L470.593 120.993L470.882 119.38L469.708 118.242L471.325 118.004L472.057 116.544Z" fill="#D90452"/>
<path d="M487.885 39.2446L490.166 43.8466L495.255 44.5768L491.579 48.1599L492.447 53.2033L487.885 50.8259L483.341 53.2033L484.209 48.1599L480.532 44.5768L485.621 43.8466L487.885 39.2446Z" fill="#D2D9E0"/>
<path d="M352.503 98.5945L353.932 101.498L357.149 101.957L354.818 104.215L355.379 107.408L352.503 105.896L349.643 107.408L350.188 104.215L347.873 101.957L351.073 101.498L352.503 98.5945Z" fill="#D2D9E0"/>
<path d="M354.29 73.3601L357.473 79.7961L364.587 80.8319L359.43 85.8414L360.655 92.9057L354.29 89.5604L347.924 92.9057L349.132 85.8414L343.992 80.8319L351.107 79.7961L354.29 73.3601Z" fill="#D2D9E0"/>
<path d="M485.86 59.9958L487.239 62.7808L490.302 63.2223L488.09 65.3789L488.617 68.4186L485.86 66.9922L483.12 68.4186L483.647 65.3789L481.435 63.2223L484.498 62.7808L485.86 59.9958Z" fill="#D2D9E0"/>
<path d="M440.857 15.0801L442.236 17.865L445.3 18.3065L443.07 20.4632L443.598 23.5028L440.857 22.0764L438.117 23.5028L438.645 20.4632L436.415 18.3065L439.479 17.865L440.857 15.0801Z" fill="#D2D9E0"/>
<path d="M472.227 44.7466L473.129 46.5636L475.137 46.8523L473.69 48.2617L474.031 50.2655L472.227 49.3146L470.439 50.2655L470.78 48.2617L469.333 46.8523L471.341 46.5636L472.227 44.7466Z" fill="#D2D9E0"/>
<path d="M389.404 136.344L391.157 139.876L395.072 140.454L392.246 143.205L392.91 147.076L389.404 145.242L385.915 147.076L386.578 143.205L383.753 140.454L387.668 139.876L389.404 136.344Z" fill="#D2D9E0"/>
<path d="M394.033 132.829L394.748 134.289L396.365 134.527L395.191 135.665L395.48 137.278L394.033 136.514L392.587 137.278L392.859 135.665L391.685 134.527L393.302 134.289L394.033 132.829Z" fill="#D2D9E0"/>
<path d="M456.312 35.6617L457.504 31.9088C456.568 30.0408 456.125 27.8842 456.329 25.6596C456.925 19.2237 462.627 14.4859 469.078 15.0633C475.529 15.6576 480.277 21.3294 479.699 27.7653C479.12 34.2013 473.418 38.9391 466.967 38.3447C464.261 38.107 462.048 37.1391 460.21 35.4239L456.312 35.6617Z" fill="#FAFAFA"/>
<path d="M456.312 35.6617C456.312 35.6617 456.397 35.6616 456.567 35.6447C456.738 35.6333 456.987 35.6164 457.316 35.5937C457.98 35.5428 458.95 35.4749 460.21 35.3899H460.227L460.244 35.4069C461.35 36.4258 463.035 37.5636 465.333 38.039C465.895 38.1579 466.491 38.2598 467.12 38.2938C467.427 38.3051 467.744 38.3164 468.073 38.3277C468.397 38.3277 468.72 38.2938 469.061 38.2768C470.388 38.1579 471.767 37.8013 473.112 37.156C474.439 36.4937 475.716 35.5598 476.788 34.3541C477.843 33.1314 478.711 31.654 479.188 29.9899C479.665 28.3257 479.784 26.5087 479.477 24.7256C479.426 24.2671 479.29 23.8426 479.171 23.3841C479.12 23.1634 479.018 22.9596 478.95 22.7388C478.865 22.5181 478.78 22.2973 478.694 22.0935C478.303 21.2445 477.86 20.4124 477.265 19.6652C476.992 19.2916 476.652 18.952 476.329 18.6123C476.192 18.4255 475.988 18.2897 475.818 18.1199C475.648 17.967 475.477 17.7972 475.307 17.6614L474.746 17.2538L474.456 17.0501L474.167 16.8633L473.571 16.5236C473.367 16.4048 473.163 16.3199 472.958 16.218C471.307 15.4538 469.52 15.0802 467.801 15.1142C466.065 15.1481 464.414 15.5727 462.95 16.2689C461.503 16.9651 460.261 17.9331 459.274 19.0369C458.287 20.1576 457.572 21.3973 457.112 22.6369C457.055 22.7954 456.999 22.9483 456.942 23.0954C456.874 23.2483 456.823 23.4011 456.789 23.5709C456.709 23.8766 456.636 24.1822 456.567 24.4879C456.482 25.0992 456.363 25.6936 456.346 26.2709C456.261 28.6144 456.874 30.5333 457.538 31.8918L457.555 31.9088V31.9257C457.146 33.1314 456.84 34.0654 456.636 34.6937C456.533 35.0107 456.454 35.2541 456.397 35.4239C456.346 35.5767 456.312 35.6617 456.312 35.6617C456.312 35.6617 456.335 35.5824 456.38 35.4239C456.426 35.2654 456.499 35.0277 456.602 34.7107C456.806 34.0654 457.095 33.1314 457.47 31.8918V31.9257C456.789 30.5672 456.159 28.6314 456.244 26.2709C456.244 25.6936 456.363 25.0822 456.431 24.4709C456.511 24.1653 456.59 23.8539 456.67 23.5369C456.704 23.3671 456.755 23.2143 456.806 23.0615C456.862 22.903 456.919 22.7445 456.976 22.586C457.453 21.3294 458.167 20.0727 459.155 18.952C460.159 17.8142 461.418 16.8293 462.882 16.1161C464.363 15.4029 466.048 14.9783 467.801 14.9444C469.554 14.8934 471.358 15.284 473.027 16.0651C473.248 16.167 473.452 16.2519 473.656 16.3708L474.252 16.7274L474.558 16.8972L474.848 17.101L475.409 17.5255C475.597 17.6784 475.767 17.8312 475.937 17.984C476.124 18.1538 476.312 18.3067 476.465 18.4765C476.788 18.8331 477.128 19.1727 477.401 19.5633C477.997 20.3105 478.456 21.1595 478.865 22.0086C478.95 22.2294 479.018 22.4501 479.103 22.6709C479.188 22.8916 479.29 23.1124 479.341 23.3332C479.46 23.7917 479.597 24.2332 479.648 24.6917C479.971 26.5087 479.835 28.3597 479.358 30.0408C478.865 31.722 477.98 33.2333 476.907 34.456C475.818 35.6786 474.524 36.6296 473.18 37.2749C471.818 37.9372 470.405 38.2938 469.061 38.4126C468.737 38.4296 468.397 38.4636 468.073 38.4636C467.744 38.4523 467.421 38.4353 467.103 38.4126C466.474 38.3787 465.878 38.2768 465.299 38.1579C462.984 37.6485 461.282 36.4937 460.193 35.4579L460.21 35.4749C458.933 35.5428 457.963 35.5937 457.299 35.6277C456.97 35.639 456.721 35.6503 456.55 35.6617C456.392 35.6617 456.312 35.6617 456.312 35.6617Z" fill="#263238"/>
<path d="M461.367 26.271L463.308 24.6068L466.559 27.9352L473.843 21.8728L475.392 23.7917L466.048 31.3824L461.367 26.271Z" fill="#D90452"/>
<path d="M423.854 116.714L432.398 161.731L440.21 147.348L455.001 156.009L439.291 112.18L423.854 116.714Z" fill="#D90452"/>
<g opacity="0.3">
<path d="M426.73 131.861C428.313 132.184 430.151 131.623 431.275 130.469C432.058 129.671 432.568 128.567 433.555 128.04C434.44 127.548 435.513 127.616 436.483 127.888C437.453 128.159 438.372 128.601 439.342 128.855C441.249 129.348 443.359 129.042 445.027 128.006L442.576 121.18L431.138 119.753L425.675 126.291L426.73 131.861Z" fill="black"/>
</g>
<path d="M439.649 145.565C439.598 145.565 438.339 140.895 436.807 135.121C435.292 129.331 434.1 124.644 434.135 124.627C434.186 124.61 435.462 129.297 436.977 135.071C438.509 140.844 439.7 145.548 439.649 145.565Z" fill="#263238"/>
<path d="M425.114 119.057L416.569 164.075L408.757 149.692L393.966 158.352L409.676 114.506L425.114 119.057Z" fill="#D90452"/>
<g opacity="0.3">
<path d="M404.978 127.633C404.978 127.633 407.412 129.62 410.305 128.703C413.199 127.786 415.003 127.582 416.569 128.703C418.135 129.806 422.39 133.44 422.39 133.44L423.36 128.244L417.658 120.433L411.718 121.638L407.48 122.063L405.897 125.035L404.978 127.633Z" fill="black"/>
</g>
<path d="M475.189 78.4207C475.189 81.6472 471.053 84.4321 470.44 87.4888C469.827 90.6303 472.568 94.7738 471.359 97.6606C470.134 100.615 465.249 101.6 463.495 104.215C461.725 106.865 462.661 111.738 460.432 113.98C458.185 116.221 453.283 115.27 450.645 117.036C448.024 118.785 447.019 123.676 444.075 124.899C441.181 126.087 437.011 123.353 433.862 123.982C430.799 124.576 428.024 128.703 424.773 128.703C421.539 128.703 418.748 124.576 415.684 123.982C412.535 123.353 408.382 126.087 405.489 124.899C402.527 123.676 401.54 118.785 398.919 117.036C396.264 115.27 391.379 116.221 389.132 113.98C386.885 111.738 387.838 106.865 386.068 104.215C384.315 101.6 379.413 100.615 378.188 97.6606C376.996 94.7738 379.737 90.6303 379.107 87.4888C378.511 84.4321 374.375 81.6472 374.375 78.4207C374.375 75.1942 378.511 72.4093 379.107 69.3526C379.737 66.2111 376.996 62.0506 378.188 59.1638C379.413 56.226 384.315 55.2241 386.068 52.609C387.838 49.9769 386.885 45.0862 389.132 42.8447C391.379 40.6201 396.264 41.5541 398.919 39.788C401.54 38.039 402.527 33.1653 405.489 31.9426C408.382 30.737 412.535 33.471 415.684 32.8596C418.748 32.2483 421.539 28.1218 424.773 28.1218C428.024 28.1218 430.799 32.2483 433.862 32.8596C437.011 33.471 441.181 30.737 444.075 31.9426C447.019 33.1653 448.024 38.039 450.645 39.788C453.283 41.5541 458.185 40.6201 460.432 42.8447C462.661 45.0862 461.725 49.9769 463.495 52.609C465.249 55.2241 470.134 56.226 471.359 59.1638C472.568 62.0506 469.827 66.2111 470.44 69.3526C471.053 72.4093 475.189 75.1942 475.189 78.4207Z" fill="#D90452"/>
<path d="M412.978 50.2315C412.978 50.2315 412.949 50.1805 412.893 50.0787C412.825 49.9768 412.745 49.8409 412.654 49.6711C412.467 49.3145 412.178 48.7881 411.854 48.1258C411.208 46.8013 410.357 44.9503 409.523 42.8616C408.706 40.7559 408.076 38.82 407.667 37.4105C407.463 36.6973 407.31 36.12 407.208 35.7294C407.162 35.5483 407.128 35.3954 407.106 35.2709C407.072 35.1577 407.06 35.1011 407.072 35.1011C407.072 35.1011 407.094 35.152 407.14 35.2539C407.174 35.3784 407.219 35.5313 407.276 35.7124C407.412 36.12 407.582 36.6973 407.787 37.3766C408.229 38.7691 408.876 40.7049 409.693 42.7936C410.51 44.8824 411.344 46.7333 411.974 48.0749C412.28 48.7201 412.535 49.2466 412.723 49.6371C412.802 49.807 412.87 49.9485 412.927 50.0617C412.972 50.1636 412.989 50.2202 412.978 50.2315Z" fill="#263238"/>
<path d="M417.471 48.5163C417.454 48.5333 417.42 48.3975 417.335 48.1427C417.267 47.905 417.164 47.5484 417.062 47.1069C416.841 46.2238 416.552 45.0012 416.296 43.6257C416.058 42.2672 415.871 41.0275 415.769 40.1105C415.718 39.669 415.684 39.2954 415.667 39.0407C415.65 38.786 415.633 38.6501 415.65 38.6501C415.667 38.6501 415.684 38.786 415.735 39.0407C415.78 39.3237 415.831 39.6747 415.888 40.0936C416.024 40.9936 416.228 42.2332 416.484 43.6087C416.722 44.9672 416.994 46.1899 417.181 47.0729C417.272 47.4918 417.346 47.8427 417.403 48.1258C417.454 48.3805 417.488 48.5163 417.471 48.5163Z" fill="#263238"/>
<path d="M425.386 47.7353C425.335 47.7353 425.216 43.9315 425.097 39.2276C424.995 34.5238 424.944 30.72 424.995 30.72C425.046 30.72 425.182 34.5238 425.284 39.2276C425.386 43.9315 425.437 47.7353 425.386 47.7353Z" fill="#263238"/>
<path d="M433.351 39.9069C433.402 39.9238 432.84 41.8257 432.126 44.1692C431.394 46.4956 430.764 48.3806 430.73 48.3636C430.679 48.3466 431.223 46.4447 431.955 44.1182C432.67 41.7748 433.3 39.8899 433.351 39.9069Z" fill="#263238"/>
<path d="M436.602 49.7562C436.591 49.7562 436.602 49.6996 436.636 49.5864C436.681 49.4732 436.732 49.326 436.789 49.1448C436.925 48.7543 437.147 48.1939 437.402 47.5146C437.947 46.1391 438.712 44.2542 439.581 42.1825C440.449 40.1107 441.266 38.2428 441.861 36.9013C442.151 36.256 442.389 35.7126 442.576 35.322C442.656 35.1522 442.724 35.005 442.78 34.8805C442.826 34.7899 442.854 34.7446 442.866 34.7446C442.866 34.7446 442.849 34.7956 442.814 34.8975C442.758 35.022 442.695 35.1692 442.627 35.339C442.474 35.7465 442.236 36.2899 441.963 36.9522C441.385 38.3277 440.602 40.1957 439.734 42.2504C438.883 44.3221 438.1 46.1731 437.521 47.5656C437.249 48.2279 437.027 48.7713 436.857 49.1788C436.789 49.3486 436.727 49.4901 436.67 49.6033C436.625 49.7052 436.602 49.7562 436.602 49.7562Z" fill="#263238"/>
<path d="M440.857 51.9636C440.84 51.9636 440.908 51.8447 441.044 51.624C441.18 51.4032 441.385 51.0976 441.64 50.724C442.151 49.9768 442.883 48.9409 443.734 47.8541C444.602 46.7503 445.419 45.7994 446.014 45.1201C446.321 44.7805 446.576 44.5088 446.746 44.322C446.933 44.1352 447.036 44.0503 447.036 44.0503C447.053 44.0673 446.968 44.1692 446.797 44.3729C446.616 44.5994 446.389 44.8767 446.116 45.205C445.538 45.9013 444.738 46.8692 443.887 47.956C443.019 49.0598 442.287 50.0617 441.742 50.7919C441.493 51.1315 441.283 51.4202 441.112 51.658C440.959 51.8617 440.857 51.9806 440.857 51.9636Z" fill="#263238"/>
<path d="M447.036 57.024C447.002 56.9901 449.709 54.4429 453.062 51.3353C456.415 48.2107 459.155 45.7144 459.189 45.7484C459.223 45.7824 456.534 48.3465 453.181 51.4541C449.828 54.5787 447.07 57.075 447.036 57.024Z" fill="#263238"/>
<path d="M457.861 58.0939C457.861 58.1109 457.47 58.3147 456.823 58.6373C456.193 58.977 455.325 59.4524 454.355 59.9958C453.402 60.5392 452.517 60.9977 451.853 61.3034C451.53 61.4562 451.274 61.5751 451.07 61.643C450.883 61.7279 450.781 61.7619 450.781 61.7449C450.764 61.7279 451.172 61.5242 451.802 61.1845C452.449 60.8619 453.317 60.3864 454.27 59.843C455.24 59.2996 456.125 58.8411 456.772 58.5354C457.095 58.3826 457.368 58.2637 457.555 58.1788C457.742 58.1109 457.844 58.0769 457.861 58.0939Z" fill="#263238"/>
<path d="M467.87 62.2205C467.887 62.2714 464.67 63.4432 460.704 64.8356C456.738 66.2281 453.504 67.3319 453.487 67.281C453.47 67.23 456.67 66.0583 460.653 64.6658C464.619 63.2733 467.853 62.1865 467.87 62.2205Z" fill="#263238"/>
<path d="M471.053 80.3904C471.053 80.4414 467.563 80.1527 463.274 79.7451C458.968 79.3206 455.496 78.964 455.513 78.9131C455.513 78.8621 458.985 79.1508 463.291 79.5583C467.58 79.9659 471.053 80.3395 471.053 80.3904Z" fill="#263238"/>
<path d="M468.482 96.6757C468.465 96.7267 465.214 95.2323 461.214 93.3474C457.215 91.4624 453.998 89.9002 454.015 89.8492C454.032 89.8152 457.3 91.2926 461.283 93.1776C465.282 95.0625 468.516 96.6248 468.482 96.6757Z" fill="#263238"/>
<path d="M457.776 112.18C457.742 112.197 455.393 109.48 452.534 106.1C449.657 102.721 447.376 99.936 447.411 99.919C447.445 99.8851 449.793 102.602 452.653 105.981C455.529 109.378 457.81 112.146 457.776 112.18Z" fill="#263238"/>
<path d="M448.824 114.218C448.824 114.218 448.721 114.082 448.551 113.844C448.364 113.589 448.126 113.216 447.836 112.757C447.241 111.84 446.441 110.55 445.607 109.106C444.773 107.663 444.058 106.338 443.547 105.353C443.309 104.878 443.105 104.487 442.968 104.199C442.849 103.927 442.781 103.774 442.781 103.774C442.798 103.757 442.883 103.91 443.037 104.165C443.207 104.47 443.417 104.849 443.666 105.302C444.194 106.253 444.926 107.578 445.76 109.021C446.594 110.465 447.377 111.755 447.939 112.689C448.211 113.142 448.432 113.51 448.602 113.793C448.756 114.065 448.841 114.218 448.824 114.218Z" fill="#263238"/>
<path d="M443.275 122.012C443.264 122.012 443.235 121.967 443.19 121.876C443.122 121.763 443.048 121.621 442.969 121.452C442.764 121.095 442.509 120.569 442.186 119.906C441.573 118.582 440.756 116.731 439.99 114.625C439.224 112.536 438.645 110.601 438.271 109.191C438.084 108.478 437.947 107.9 437.862 107.51C437.828 107.317 437.794 107.159 437.76 107.034C437.749 106.933 437.743 106.882 437.743 106.882C437.755 106.882 437.772 106.933 437.794 107.034C437.84 107.159 437.885 107.312 437.93 107.493C438.05 107.9 438.203 108.461 438.39 109.157C438.798 110.55 439.394 112.485 440.16 114.574C440.926 116.663 441.709 118.514 442.305 119.855C442.594 120.501 442.849 121.027 443.02 121.435C443.099 121.604 443.167 121.746 443.224 121.859C443.258 121.961 443.275 122.012 443.275 122.012Z" fill="#263238"/>
<path d="M432.023 116.544C431.989 116.544 431.955 116.102 431.87 115.372C431.785 114.642 431.666 113.623 431.479 112.519C431.291 111.416 431.087 110.431 430.917 109.717C430.764 108.987 430.645 108.546 430.679 108.546C430.679 108.546 430.73 108.648 430.798 108.834C430.866 109.038 430.951 109.327 431.036 109.683C431.24 110.397 431.462 111.382 431.649 112.502C431.836 113.606 431.955 114.625 431.989 115.355C432.023 115.729 432.023 116.017 432.023 116.221C432.04 116.425 432.023 116.544 432.023 116.544Z" fill="#263238"/>
<path d="M424.653 126.325C424.642 126.325 424.636 126.269 424.636 126.155C424.636 126.019 424.636 125.85 424.636 125.646C424.619 125.221 424.636 124.593 424.636 123.812C424.671 122.267 424.739 120.127 424.858 117.766C424.994 115.406 425.147 113.266 425.266 111.721C425.334 110.94 425.385 110.312 425.436 109.887C425.459 109.695 425.476 109.531 425.488 109.395C425.499 109.281 425.51 109.225 425.522 109.225C425.522 109.225 425.522 109.281 425.522 109.395C425.51 109.531 425.505 109.695 425.505 109.887C425.47 110.346 425.436 110.974 425.385 111.721C425.3 113.3 425.181 115.423 425.045 117.766C424.926 120.127 424.824 122.267 424.773 123.812C424.739 124.576 424.722 125.187 424.705 125.646C424.693 125.85 424.682 126.019 424.671 126.155C424.671 126.269 424.665 126.325 424.653 126.325Z" fill="#263238"/>
<path d="M418.663 109.225C418.697 109.225 418.663 109.548 418.561 110.091C418.476 110.617 418.339 111.348 418.152 112.146C417.965 112.944 417.761 113.657 417.608 114.184C417.454 114.693 417.335 115.016 417.318 114.999C417.284 114.999 417.352 114.676 417.488 114.15C417.625 113.555 417.795 112.876 417.982 112.112C418.152 111.348 418.305 110.651 418.442 110.057C418.561 109.531 418.646 109.208 418.663 109.225Z" fill="#263238"/>
<path d="M407.855 104.029C407.889 104.062 407.225 104.996 406.357 106.134C405.506 107.272 404.774 108.172 404.723 108.138C404.689 108.104 405.353 107.17 406.221 106.032C407.072 104.895 407.804 103.995 407.855 104.029Z" fill="#263238"/>
<path d="M402.17 100.225C402.204 100.259 400.093 102.738 397.455 105.761C394.817 108.783 392.638 111.195 392.604 111.161C392.57 111.127 394.68 108.664 397.319 105.642C399.957 102.619 402.136 100.191 402.17 100.225Z" fill="#263238"/>
<path d="M399.327 96.0133C399.361 96.0473 398.187 97.0662 396.706 98.2888C395.225 99.5115 394 100.462 393.966 100.428C393.932 100.395 395.106 99.3756 396.587 98.153C398.068 96.9303 399.293 95.9794 399.327 96.0133Z" fill="#263238"/>
<path d="M396.008 89.6622C396.025 89.6962 393.081 91.1566 389.438 92.9227C385.779 94.6718 382.817 96.0642 382.783 96.0133C382.766 95.9793 385.711 94.5189 389.353 92.7529C393.013 91.0038 395.991 89.6113 396.008 89.6622Z" fill="#263238"/>
<path d="M394.68 86.4869C394.68 86.5038 394.561 86.5378 394.373 86.5718C394.169 86.6227 393.88 86.6906 393.522 86.7586C392.791 86.8944 391.803 87.0303 390.697 87.1491C389.574 87.251 388.569 87.302 387.838 87.3189C387.48 87.3189 387.174 87.3189 386.969 87.3189C386.765 87.3189 386.663 87.302 386.663 87.285C386.663 87.268 387.106 87.234 387.838 87.2001C388.569 87.1491 389.574 87.0812 390.68 86.9793C391.769 86.8605 392.774 86.7246 393.505 86.6227C394.22 86.5208 394.663 86.4699 394.68 86.4869Z" fill="#263238"/>
<path d="M393.591 79.1679C393.591 79.1849 393.387 79.1849 392.995 79.1509C392.587 79.1339 392.042 79.117 391.378 79.083C390.017 79.0151 388.127 78.9472 386.034 78.9641C383.94 78.9641 382.051 79.049 380.689 79.1339C380.025 79.1679 379.481 79.2019 379.072 79.2358C378.698 79.2528 378.477 79.2698 378.477 79.2528C378.477 79.2358 378.681 79.2019 379.072 79.1679C379.447 79.117 380.008 79.066 380.689 79.0151C382.051 78.8962 383.94 78.7943 386.034 78.7773C388.127 78.7773 390.017 78.8453 391.395 78.9472C392.076 78.9981 392.621 79.049 393.012 79.083C393.387 79.134 393.591 79.1679 393.591 79.1679Z" fill="#263238"/>
<path d="M394.255 72.7489C394.255 72.7998 392.042 72.2224 389.336 71.4583C386.63 70.7111 384.451 70.0658 384.468 70.0148C384.485 69.9639 386.681 70.5413 389.387 71.2885C392.093 72.0526 394.272 72.6979 394.255 72.7489Z" fill="#263238"/>
<path d="M395.684 67.3488C395.684 67.3601 395.633 67.3488 395.531 67.3149C395.406 67.2809 395.253 67.2356 395.071 67.179C394.68 67.0601 394.118 66.8733 393.437 66.6186C392.059 66.1262 390.186 65.362 388.195 64.3771C386.187 63.3922 384.45 62.3902 383.208 61.5921C382.595 61.2016 382.102 60.8789 381.761 60.6412C381.614 60.5393 381.489 60.4487 381.387 60.3695C381.296 60.3129 381.256 60.2789 381.268 60.2676C381.268 60.2676 381.313 60.2959 381.404 60.3525C381.517 60.4091 381.653 60.4883 381.812 60.5902C382.153 60.811 382.646 61.1166 383.276 61.4902C384.518 62.2544 386.272 63.2393 388.263 64.2242C390.271 65.2092 392.127 65.9733 393.488 66.5167C394.169 66.7714 394.714 66.9752 395.105 67.1281C395.276 67.1847 395.417 67.2356 395.531 67.2809C395.633 67.3262 395.684 67.3488 395.684 67.3488Z" fill="#263238"/>
<path d="M398.884 61.9487C398.867 61.9827 397.148 60.811 395.038 59.3506C392.944 57.8732 391.276 56.6506 391.293 56.5996C391.327 56.5656 393.046 57.7204 395.14 59.1978C397.25 60.6751 398.918 61.8978 398.884 61.9487Z" fill="#263238"/>
<path d="M392.127 45.4258C392.127 45.4258 392.167 45.4597 392.246 45.5277C392.337 45.6069 392.451 45.7031 392.587 45.8164C392.91 46.105 393.336 46.4786 393.846 46.9371C394.919 47.8881 396.365 49.1787 397.965 50.6051C399.582 52.0146 401.029 53.3051 402.118 54.2561C402.629 54.7146 403.054 55.0882 403.361 55.3599C403.497 55.4844 403.61 55.5863 403.701 55.6656C403.781 55.7448 403.815 55.7844 403.803 55.7844C403.803 55.7958 403.758 55.7674 403.667 55.6995C403.576 55.6203 403.463 55.5241 403.327 55.4108C403.003 55.1731 402.578 54.7995 402.033 54.341C400.944 53.441 399.463 52.1674 397.846 50.741C396.246 49.2975 394.799 47.99 393.761 47.022C393.25 46.5466 392.825 46.156 392.553 45.8673C392.416 45.7428 392.309 45.6352 392.229 45.5447C392.15 45.4767 392.116 45.4371 392.127 45.4258Z" fill="#263238"/>
<path d="M402.731 45.7485C402.748 45.7315 402.833 45.8164 402.969 45.9692C403.106 46.1391 403.31 46.3768 403.548 46.6655C404.025 47.2598 404.655 48.0919 405.301 49.0429C405.948 49.9938 406.51 50.8769 406.884 51.5391C407.071 51.8618 407.225 52.1335 407.31 52.3203C407.412 52.5071 407.463 52.609 407.446 52.609C407.429 52.6259 407.174 52.2354 406.782 51.6071C406.374 50.9618 405.812 50.0957 405.148 49.1448C404.501 48.1938 403.889 47.3447 403.446 46.7334C403.004 46.1391 402.714 45.7485 402.731 45.7485Z" fill="#263238"/>
<g opacity="0.2">
<path d="M389.132 42.8448L403.94 55.7846L407.616 52.8468L399.038 39.7202C399.038 39.7202 398.374 40.1957 396.655 40.6882C395.004 41.1636 390.119 41.2825 389.132 42.8448Z" fill="black"/>
</g>
<g opacity="0.2">
<path d="M405.625 31.9085L412.842 49.9597L417.471 48.5163L415.923 32.8595C415.923 32.8595 415.14 33.0463 413.369 32.8255C411.65 32.6048 407.514 30.9915 405.625 31.9085Z" fill="black"/>
</g>
<g opacity="0.3">
<path d="M424.892 28.1217L425.385 47.7352L429.708 47.939L434.1 32.8935C434.015 32.8935 432.891 32.6897 431.547 31.8407C430.049 30.8897 427.002 27.9689 424.892 28.1217Z" fill="black"/>
</g>
<g opacity="0.2">
<path d="M443.785 31.8408L436.603 49.909L440.517 51.777L450.406 39.6013C450.321 39.5674 449.385 38.7862 448.517 37.3937C447.581 35.8824 445.981 32.4352 443.785 31.8408Z" fill="black"/>
</g>
<g opacity="0.2">
<path d="M460.67 43.1165L447.274 57.0242L450.253 61.0488L463.342 52.3374C463.342 52.3374 462.797 51.4713 462.474 49.7901C462.168 48.109 462.116 45.0184 460.67 43.1165Z" fill="black"/>
</g>
<g opacity="0.2">
<path d="M471.222 58.8242L453.197 66.2281L454.695 70.8131L470.388 69.1149C470.388 69.1149 470.286 68.6395 470.49 66.8734C470.695 65.1753 472.482 61.3544 471.222 58.8242Z" fill="black"/>
</g>
<g opacity="0.2">
<path d="M475.222 78.4207L455.563 79.0999L455.41 83.4302L470.388 87.7944C470.405 87.7265 470.542 86.8774 470.984 86.0113C472.09 83.9396 475.222 81.0018 475.222 78.4207Z" fill="black"/>
</g>
<g opacity="0.2">
<path d="M471.597 96.9473L453.504 89.917L451.683 93.8397L463.989 103.587C464.023 103.502 464.738 102.84 466.116 101.957C467.614 101.006 471.188 99.4605 471.597 96.9473Z" fill="black"/>
</g>
<g opacity="0.2">
<path d="M444.994 96.6758L440.501 100.429C440.841 100.785 446.816 110.906 450.492 117.155C450.543 117.121 450.594 117.07 450.645 117.036C453.062 115.423 457.369 116.069 459.802 114.472L444.994 96.6758Z" fill="black"/>
<path d="M436.756 103.774L430.066 106.049L433.232 124.152C433.448 124.084 433.658 124.027 433.862 123.982C437.011 123.353 441.181 126.087 444.074 124.899C444.466 124.729 444.84 124.491 445.164 124.203L436.756 103.774Z" fill="black"/>
<path d="M424.552 128.703L425.608 105.048L419.837 103.587L415.531 123.948C415.588 123.959 415.639 123.97 415.684 123.982C418.68 124.559 421.403 128.516 424.552 128.703Z" fill="black"/>
<path d="M410.016 101.023C410.016 101.023 402.374 111.229 398.374 116.731C398.567 116.821 398.748 116.923 398.919 117.036C401.54 118.785 402.527 123.676 405.489 124.899C405.625 124.955 405.761 125.001 405.897 125.035L416.569 104.878L410.016 101.023Z" fill="black"/>
<path d="M402.17 92.804L385.881 103.978C385.949 104.063 386.017 104.131 386.068 104.215C387.838 106.865 386.885 111.738 389.132 113.98C389.336 114.184 389.574 114.353 389.83 114.506C395.583 108.036 405.914 96.421 406.289 96.0134L402.17 92.804Z" fill="black"/>
<path d="M398.443 84.8228L379.175 87.9303C379.482 91.021 377.048 94.9097 378.188 97.6607C378.268 97.8305 378.353 97.9947 378.443 98.1531C385.184 94.8078 399.26 87.8454 399.855 87.7945L398.443 84.8228Z" fill="black"/>
<path d="M397.387 74.1244L379.175 68.8772C379.163 69.0357 379.141 69.1942 379.107 69.3527C378.511 72.4093 374.375 75.1943 374.375 78.4207C374.375 78.6358 374.392 78.8509 374.426 79.066H396.655L397.387 74.1244Z" fill="black"/>
<path d="M378.272 59.028C385.064 62.662 398.374 70.015 398.374 70.015L401.659 63.8168L386.272 52.2524C386.204 52.3713 386.136 52.5072 386.068 52.6091C384.332 55.1902 379.583 56.1921 378.272 59.028Z" fill="black"/>
</g>
<path d="M475.171 78.1999C475.154 78.064 475.154 77.8433 475.086 77.5716C474.967 77.0112 474.661 76.2131 474.065 75.2961C473.469 74.3621 472.584 73.3093 471.665 71.9847C471.205 71.3055 470.746 70.5583 470.491 69.6583C470.252 68.7413 470.286 67.7224 470.491 66.6865C470.678 65.6506 470.984 64.5978 471.257 63.46C471.512 62.3393 471.784 61.0996 471.529 59.86C471.393 59.2317 471.103 58.6543 470.678 58.1279C470.252 57.6185 469.725 57.1939 469.163 56.8033C468.04 55.9882 466.729 55.3599 465.487 54.5278C464.874 54.1033 464.261 53.6278 463.75 53.0335C463.24 52.4391 462.916 51.7089 462.695 50.9448C462.253 49.3995 462.15 47.7353 461.827 46.0881C461.657 45.273 461.436 44.4409 460.993 43.6937C460.551 42.9465 459.87 42.3692 459.053 42.0126C458.236 41.6559 457.351 41.4691 456.449 41.3333C455.546 41.1805 454.61 41.0786 453.691 40.9088C452.772 40.7389 451.819 40.5182 450.968 40.0427C450.1 39.5842 449.419 38.8201 448.857 38.0219C448.296 37.2068 447.819 36.3408 447.291 35.4917C446.781 34.6257 446.236 33.7766 445.521 33.0464C444.823 32.3162 443.87 31.7898 442.849 31.7218C441.811 31.6539 440.755 31.8407 439.734 32.0954C438.696 32.3332 437.658 32.6388 436.585 32.8426C435.513 33.0464 434.373 33.1143 433.3 32.7747C432.228 32.4181 431.292 31.7728 430.39 31.1105C429.488 30.4312 428.603 29.735 427.632 29.1407C426.662 28.5803 425.556 28.1048 424.416 28.2237L424.194 28.2407C424.126 28.252 424.058 28.269 423.99 28.2916C423.854 28.3256 423.718 28.3425 423.581 28.3935C423.309 28.4784 423.02 28.5633 422.764 28.6991C422.237 28.9369 421.743 29.2595 421.267 29.5652C420.296 30.2275 419.377 30.9916 418.39 31.6709C417.897 32.0105 417.369 32.3162 416.824 32.5709C416.263 32.8086 415.667 32.9615 415.037 33.0124C413.812 33.0803 412.603 32.7917 411.412 32.503C410.22 32.1973 409.029 31.8577 407.803 31.7388C407.191 31.6879 406.578 31.7218 405.982 31.8577C405.386 32.0105 404.842 32.3501 404.382 32.7407C403.429 33.5558 402.782 34.6596 402.135 35.7464C401.472 36.8332 400.859 37.954 399.991 38.9389C399.565 39.4144 399.055 39.8559 398.459 40.1446C397.88 40.4333 397.25 40.6371 396.604 40.7899C395.327 41.0616 394.016 41.1805 392.723 41.4182C391.463 41.639 390.136 42.0126 389.183 42.9296C388.74 43.388 388.417 43.9654 388.178 44.5767C387.94 45.1881 387.804 45.8503 387.685 46.4956C387.447 47.8202 387.327 49.1617 387.021 50.4863C386.868 51.1485 386.63 51.7938 386.289 52.3882C385.949 52.9995 385.472 53.509 384.927 53.9335C383.855 54.7995 382.63 55.4278 381.455 56.1411C380.877 56.5147 380.298 56.8882 379.77 57.3128C379.243 57.7543 378.783 58.2637 378.46 58.8581C378.119 59.4355 377.966 60.1317 377.983 60.8109C377.983 61.4902 378.085 62.1864 378.221 62.8657C378.511 64.2072 378.936 65.5488 379.174 66.9412C379.294 67.6375 379.328 68.3677 379.243 69.0809C379.14 69.7941 378.868 70.4564 378.528 71.0847C377.813 72.3243 376.894 73.4111 376.077 74.5659C375.651 75.1432 375.277 75.7546 374.97 76.3829C374.681 77.0282 374.46 77.7074 374.46 78.4037C374.46 79.1169 374.664 79.7961 374.97 80.4414C375.26 81.0697 375.651 81.6641 376.06 82.2415C376.877 83.3962 377.813 84.5 378.528 85.7396C378.868 86.351 379.14 87.0302 379.243 87.7434C379.328 88.4566 379.294 89.1699 379.174 89.8661C378.936 91.2756 378.511 92.6001 378.221 93.9586C378.085 94.6379 377.983 95.3341 377.983 96.0134C377.966 96.6926 378.119 97.3889 378.443 97.9662C378.766 98.5606 379.243 99.07 379.77 99.5115C380.298 99.9361 380.877 100.327 381.455 100.683C382.63 101.396 383.838 102.025 384.927 102.891C385.455 103.315 385.949 103.842 386.289 104.436C386.63 105.03 386.868 105.693 387.021 106.338C387.327 107.663 387.447 109.021 387.685 110.329C387.804 110.974 387.94 111.636 388.178 112.248C388.417 112.859 388.723 113.436 389.183 113.912C390.119 114.829 391.446 115.185 392.723 115.423C394.016 115.644 395.327 115.763 396.604 116.051C397.233 116.204 397.863 116.391 398.459 116.68C399.055 116.985 399.565 117.41 399.991 117.885C400.859 118.87 401.472 120.008 402.135 121.095C402.782 122.165 403.429 123.268 404.382 124.084C404.842 124.491 405.386 124.831 405.982 124.967C406.578 125.119 407.191 125.136 407.803 125.086C409.029 124.967 410.22 124.627 411.412 124.338C412.603 124.033 413.812 123.761 415.054 123.812C415.667 123.863 416.263 124.016 416.824 124.27C417.369 124.525 417.897 124.831 418.39 125.17C419.377 125.85 420.296 126.597 421.267 127.259C421.743 127.582 422.237 127.904 422.764 128.142C423.037 128.261 423.309 128.346 423.581 128.448C423.718 128.482 423.854 128.516 423.99 128.55C424.058 128.567 424.126 128.584 424.211 128.584L424.416 128.601C425.556 128.736 426.662 128.261 427.632 127.684C428.603 127.106 429.488 126.393 430.39 125.731C431.292 125.069 432.228 124.423 433.3 124.05C434.373 123.71 435.53 123.778 436.585 123.999C437.658 124.202 438.696 124.491 439.734 124.746C440.755 124.984 441.811 125.187 442.849 125.102C443.887 125.035 444.823 124.525 445.521 123.795C446.236 123.065 446.781 122.199 447.291 121.35C447.819 120.484 448.296 119.617 448.857 118.802C449.436 118.004 450.1 117.257 450.968 116.782C451.819 116.306 452.772 116.085 453.691 115.933C454.627 115.763 455.546 115.661 456.449 115.508C457.351 115.355 458.236 115.168 459.053 114.812C459.87 114.455 460.568 113.878 460.993 113.131C461.436 112.4 461.657 111.568 461.827 110.736C462.167 109.089 462.253 107.442 462.695 105.897C462.916 105.132 463.24 104.385 463.767 103.791C464.261 103.196 464.874 102.721 465.504 102.313C466.746 101.481 468.04 100.836 469.163 100.038C469.725 99.6304 470.252 99.2059 470.678 98.6964C471.103 98.187 471.393 97.5926 471.529 96.9813C471.665 96.353 471.631 95.7247 471.58 95.1303C471.512 94.519 471.376 93.9416 471.257 93.3643C470.984 92.2435 470.678 91.1737 470.491 90.1378C470.286 89.1019 470.252 88.0831 470.491 87.183C470.746 86.283 471.222 85.5189 471.665 84.8566C472.584 83.532 473.469 82.4792 474.065 81.5452C474.661 80.6112 474.967 79.8131 475.086 79.2697C475.154 78.981 475.154 78.7773 475.171 78.6244C475.154 78.7773 475.171 78.998 475.103 79.2697C475.001 79.8301 474.695 80.6282 474.082 81.5622C473.503 82.4962 472.618 83.549 471.716 84.8906C471.257 85.5528 470.797 86.3 470.559 87.2C470.303 88.0831 470.354 89.1019 470.559 90.1208C470.746 91.1567 471.052 92.2265 471.325 93.3473C471.461 93.9247 471.597 94.502 471.665 95.1134C471.716 95.7247 471.75 96.353 471.614 96.9983C471.478 97.6266 471.171 98.2209 470.746 98.7474C470.32 99.2738 469.793 99.6983 469.214 100.106C468.091 100.921 466.78 101.566 465.555 102.398C464.942 102.806 464.329 103.264 463.835 103.859C463.342 104.436 463.019 105.166 462.797 105.914C462.372 107.442 462.27 109.106 461.929 110.753C461.776 111.585 461.538 112.434 461.095 113.199C460.653 113.963 459.921 114.557 459.104 114.914C458.27 115.287 457.368 115.474 456.466 115.627C455.563 115.78 454.644 115.882 453.708 116.051C452.789 116.221 451.853 116.425 451.019 116.9C450.185 117.342 449.538 118.089 448.976 118.887C448.415 119.685 447.921 120.551 447.411 121.418C446.9 122.267 446.338 123.133 445.623 123.88C444.908 124.627 443.921 125.17 442.849 125.238C441.794 125.323 440.738 125.119 439.7 124.882C438.662 124.627 437.624 124.338 436.568 124.135C435.513 123.931 434.39 123.863 433.351 124.185C432.313 124.542 431.377 125.187 430.475 125.85C429.573 126.512 428.688 127.225 427.718 127.82C427.462 127.955 427.207 128.108 426.952 128.227C426.815 128.295 426.679 128.346 426.56 128.414L426.135 128.55C425.59 128.72 424.994 128.838 424.398 128.753L424.177 128.737C424.109 128.737 424.041 128.703 423.956 128.703C423.82 128.669 423.667 128.635 423.53 128.601C423.258 128.499 422.969 128.414 422.713 128.278C422.169 128.04 421.675 127.718 421.182 127.395C420.194 126.733 419.275 125.969 418.305 125.306C417.811 124.967 417.284 124.661 416.756 124.406C416.212 124.169 415.633 124.016 415.037 123.982C413.846 123.914 412.637 124.185 411.463 124.491C410.271 124.78 409.063 125.136 407.82 125.255C407.191 125.306 406.561 125.272 405.931 125.119C405.301 124.984 404.757 124.627 404.263 124.219C403.293 123.37 402.646 122.267 401.982 121.18C401.335 120.093 400.723 118.955 399.872 118.004C399.446 117.529 398.953 117.121 398.391 116.833C397.812 116.544 397.199 116.357 396.57 116.221C395.293 115.933 393.999 115.814 392.689 115.576C392.042 115.457 391.395 115.321 390.766 115.083C390.153 114.846 389.557 114.506 389.063 114.031C388.587 113.538 388.263 112.927 388.025 112.299C387.77 111.67 387.634 111.008 387.515 110.363C387.276 109.038 387.157 107.697 386.851 106.389C386.698 105.727 386.476 105.098 386.136 104.521C385.813 103.944 385.336 103.451 384.808 103.027C383.753 102.178 382.545 101.549 381.37 100.836C380.774 100.462 380.196 100.089 379.651 99.6474C379.123 99.2059 378.63 98.6795 378.289 98.0511C377.949 97.4398 377.796 96.7266 377.796 96.0134C377.796 95.3171 377.898 94.6209 378.051 93.9247C378.34 92.5661 378.766 91.2246 378.987 89.8491C379.106 89.1529 379.157 88.4567 379.055 87.7774C378.97 87.0812 378.698 86.4359 378.357 85.8245C377.66 84.6019 376.74 83.5151 375.923 82.3434C375.498 81.766 375.106 81.1547 374.8 80.5094C374.494 79.8641 374.289 79.1509 374.272 78.4037C374.289 77.6735 374.511 76.9603 374.817 76.315C375.123 75.6527 375.515 75.0414 375.923 74.464C376.757 73.3092 377.677 72.2224 378.374 70.9998C378.715 70.3885 378.97 69.7432 379.055 69.0469C379.157 68.3677 379.106 67.6544 378.987 66.9752C378.766 65.5997 378.34 64.2582 378.051 62.8997C377.898 62.2034 377.796 61.5072 377.796 60.8109C377.796 60.0977 377.949 59.3845 378.289 58.7732C378.63 58.1449 379.123 57.6354 379.668 57.1769C380.196 56.7354 380.774 56.3618 381.37 56.0052C382.545 55.275 383.77 54.6467 384.825 53.7976C385.353 53.3731 385.813 52.8806 386.136 52.3033C386.476 51.7259 386.698 51.0976 386.851 50.4353C387.157 49.1278 387.276 47.7862 387.515 46.4787C387.634 45.8164 387.77 45.1541 388.025 44.5258C388.263 43.8975 388.587 43.2862 389.063 42.7937C389.557 42.3182 390.153 41.9956 390.783 41.7578C391.395 41.5031 392.059 41.3673 392.706 41.2484C393.999 41.0107 395.31 40.8918 396.57 40.6201C397.199 40.4672 397.812 40.2805 398.391 40.0087C398.953 39.7201 399.446 39.2955 399.872 38.8201C400.723 37.8691 401.335 36.7483 401.982 35.6615C402.646 34.5747 403.293 33.4539 404.263 32.6218C404.757 32.2143 405.301 31.8577 405.931 31.7049C406.561 31.552 407.191 31.535 407.82 31.586C409.063 31.7049 410.271 32.0445 411.446 32.3332C412.637 32.6388 413.846 32.9105 415.037 32.8596C415.633 32.8086 416.212 32.6728 416.756 32.4181C417.284 32.1634 417.811 31.8747 418.288 31.535C419.275 30.8728 420.194 30.1086 421.182 29.4463C421.675 29.1237 422.169 28.801 422.713 28.5633C422.969 28.4274 423.258 28.3425 423.53 28.2407C423.667 28.1897 423.82 28.1727 423.956 28.1388C424.035 28.1161 424.109 28.0991 424.177 28.0878L424.398 28.0708C424.994 28.0029 425.59 28.1048 426.135 28.2746L426.543 28.4274C426.679 28.4784 426.815 28.5463 426.952 28.5973C427.207 28.7161 427.462 28.869 427.701 29.0048C428.688 29.6161 429.573 30.3124 430.475 30.9916C431.377 31.6539 432.313 32.2822 433.334 32.6388C434.39 32.9615 435.496 32.9105 436.551 32.6898C437.624 32.503 438.662 32.1973 439.7 31.9426C440.738 31.7049 441.794 31.5011 442.849 31.586C443.921 31.6539 444.908 32.1973 445.623 32.9445C446.338 33.6917 446.883 34.5577 447.411 35.4238C447.921 36.2728 448.415 37.1389 448.976 37.954C449.521 38.7521 450.185 39.4823 451.019 39.9408C451.853 40.3993 452.789 40.6201 453.708 40.7899C454.627 40.9427 455.563 41.0616 456.466 41.1974C457.368 41.3503 458.27 41.5371 459.104 41.9107C459.921 42.2673 460.653 42.8616 461.095 43.6258C461.538 44.3899 461.759 45.239 461.929 46.0711C462.27 47.7353 462.372 49.3825 462.797 50.9108C463.019 51.675 463.342 52.3882 463.835 52.9656C464.329 53.5599 464.942 54.0184 465.555 54.4429C466.78 55.275 468.091 55.9203 469.214 56.7184C469.776 57.126 470.32 57.5675 470.746 58.0769C471.171 58.6034 471.478 59.2147 471.614 59.843C471.75 60.4713 471.716 61.0996 471.665 61.711C471.597 62.3223 471.461 62.9166 471.325 63.477C471.052 64.6148 470.746 65.6676 470.559 66.7035C470.354 67.7224 470.303 68.7413 470.559 69.6413C470.797 70.5243 471.257 71.2885 471.716 71.9507C472.618 73.2753 473.503 74.3281 474.082 75.2791C474.695 76.2131 475.001 77.0112 475.103 77.5716C475.171 77.8433 475.154 78.064 475.171 78.1999Z" fill="#263238"/>
<path d="M415.327 125.085C415.378 125.102 414.118 130.18 412.518 136.446C410.918 142.695 409.591 147.756 409.54 147.756C409.489 147.739 410.748 142.661 412.348 136.395C413.948 130.146 415.276 125.069 415.327 125.085Z" fill="#263238"/>
<path d="M455.683 78.4207C455.683 95.4361 441.845 109.242 424.773 109.242C407.719 109.242 393.881 95.4361 393.881 78.4207C393.881 61.3884 407.719 47.5825 424.773 47.5825C441.845 47.5825 455.683 61.3884 455.683 78.4207Z" fill="white"/>
<path d="M408.978 51.9127C408.978 51.9127 408.859 51.9976 408.621 52.1505C408.371 52.3089 408.014 52.541 407.548 52.8467C407.089 53.1524 406.544 53.5769 405.88 54.0524C405.557 54.3071 405.234 54.5958 404.876 54.9014C404.695 55.0486 404.507 55.2014 404.314 55.3599C404.127 55.5297 403.94 55.7165 403.753 55.8864C402.204 57.3298 400.451 59.2657 398.834 61.7959C398.63 62.1129 398.425 62.4355 398.221 62.7638C398 63.0865 397.847 63.4431 397.642 63.7997C397.455 64.1563 397.251 64.4959 397.081 64.8695C396.91 65.2431 396.735 65.628 396.553 66.0243C396.468 66.211 396.366 66.3978 396.298 66.6016C396.218 66.8054 396.139 67.0092 396.059 67.2129C395.906 67.6205 395.736 68.0281 395.6 68.4526C395.345 69.3186 395.021 70.1847 394.834 71.1187C394.357 72.9357 394.102 74.9055 394 76.9603C393.881 79.015 394 81.1716 394.357 83.3622C395.072 87.7265 396.791 92.2775 399.736 96.336C402.629 100.378 406.731 103.91 411.65 106.236C416.569 108.563 422.305 109.582 428.058 108.987C433.794 108.393 439.19 106.134 443.496 102.84C444.585 102.025 445.59 101.108 446.543 100.191C446.77 99.9417 446.997 99.6983 447.224 99.4606C447.462 99.2229 447.689 98.9795 447.904 98.7304C448.12 98.4813 448.336 98.2323 448.551 97.9832C448.756 97.7228 448.96 97.4681 449.164 97.2191C450.781 95.1643 452.058 92.9228 453.062 90.6473C454.066 88.3548 454.73 85.9944 455.138 83.6679C455.36 82.5132 455.479 81.3584 455.547 80.2037C455.581 79.6433 455.581 79.066 455.598 78.5056C455.598 77.9452 455.564 77.3848 455.547 76.8244C455.535 76.5527 455.524 76.2753 455.513 75.9923C455.496 75.7206 455.445 75.4489 455.428 75.1772C455.36 74.6451 455.291 74.1131 455.223 73.581C455.138 73.0545 455.019 72.5281 454.917 72.0187C454.815 71.5092 454.73 70.9828 454.56 70.4904C454.423 70.0036 454.282 69.5168 454.134 69.03C454.083 68.7752 453.998 68.5545 453.896 68.3167C453.805 68.079 453.72 67.8469 453.64 67.6205C453.453 67.162 453.3 66.6865 453.096 66.245C452.892 65.8148 452.693 65.3846 452.5 64.9544C450.849 61.5581 448.739 58.8072 446.628 56.6845C444.5 54.5448 442.356 53.0674 440.552 51.9637C440.098 51.7033 439.666 51.4542 439.258 51.2165C439.054 51.0976 438.849 50.9957 438.645 50.9108C438.452 50.8089 438.265 50.7184 438.084 50.6391C437.709 50.458 437.369 50.2938 437.062 50.1467C436.756 49.9938 436.45 49.9089 436.194 49.79C435.672 49.5976 435.275 49.4504 435.003 49.3485C434.747 49.2297 434.611 49.1787 434.611 49.1787C434.611 49.1787 434.747 49.2297 435.02 49.3315C435.292 49.4221 435.689 49.5693 436.211 49.7731C436.467 49.8749 436.773 49.9599 437.079 50.1127C437.386 50.2599 437.726 50.4184 438.101 50.5882C438.282 50.6674 438.475 50.758 438.679 50.8599C438.866 50.9448 439.088 51.0467 439.292 51.1655C439.701 51.392 440.132 51.6354 440.586 51.8957C442.407 52.9995 444.551 54.4769 446.696 56.6166C448.824 58.7392 450.951 61.4902 452.602 64.9035C452.806 65.3337 453.011 65.7695 453.215 66.211C453.419 66.6356 453.572 67.1111 453.76 67.5696C453.85 67.8073 453.941 68.0394 454.032 68.2658C454.117 68.5035 454.202 68.7413 454.27 68.979C454.406 69.4658 454.548 69.9583 454.696 70.4564C454.849 70.9489 454.951 71.4753 455.053 71.9847C455.155 72.5111 455.274 73.0206 455.36 73.547C455.428 74.0904 455.496 74.6338 455.564 75.1772C455.598 75.4489 455.632 75.7206 455.649 75.9923C455.66 76.264 455.672 76.5414 455.683 76.8244C455.717 77.3848 455.734 77.9452 455.751 78.5056C455.734 79.066 455.734 79.6433 455.7 80.2207C455.632 81.3754 455.513 82.5302 455.291 83.7019C454.883 86.0453 454.219 88.4057 453.215 90.7152C452.194 93.0077 450.917 95.2492 449.283 97.321C449.09 97.5813 448.892 97.8361 448.687 98.0851C448.461 98.3455 448.239 98.6002 448.024 98.8493C447.808 99.0983 447.587 99.3417 447.36 99.5795C447.122 99.8172 446.889 100.061 446.662 100.31C445.692 101.244 444.688 102.144 443.598 102.976C439.258 106.287 433.845 108.563 428.075 109.157C422.305 109.751 416.518 108.732 411.582 106.389C406.629 104.063 402.51 100.496 399.6 96.4209C396.655 92.3454 394.919 87.7774 394.204 83.3792C393.864 81.1886 393.728 79.015 393.864 76.9603C393.966 74.8885 394.238 72.9187 394.715 71.0847C394.902 70.1507 395.225 69.2847 395.481 68.4186C395.634 67.9941 395.804 67.5865 395.957 67.162C396.037 66.9582 396.11 66.7545 396.179 66.5507C396.264 66.3639 396.366 66.1601 396.451 65.9733C396.632 65.5884 396.808 65.2035 396.978 64.8186C397.166 64.445 397.37 64.1054 397.557 63.7487C397.744 63.3921 397.915 63.0355 398.136 62.7129C398.34 62.3846 398.544 62.0563 398.749 61.728C400.383 59.1977 402.153 57.2788 403.702 55.8354C403.906 55.6656 404.076 55.4788 404.263 55.309C404.456 55.1505 404.643 54.9977 404.825 54.8505C405.2 54.5618 405.523 54.2561 405.846 54.0184C406.51 53.5429 407.055 53.1184 407.531 52.8127C407.997 52.5184 408.354 52.2976 408.604 52.1505C408.842 51.9976 408.978 51.9127 408.978 51.9127Z" fill="#263238"/>
<path fill-rule="evenodd" clip-rule="evenodd" d="M428.245 89.1058C427.638 88.9753 427.228 89.4157 426.801 89.8235C424.619 91.895 422.043 93.3141 419.106 94.097C418.614 94.2275 418.105 94.358 417.596 94.4395C417.006 94.5374 416.448 94.1622 416.349 93.6077C416.251 93.0205 416.514 92.5964 417.088 92.417C417.58 92.2702 418.089 92.1886 418.597 92.0418C421.239 91.3241 423.569 90.0355 425.522 88.0945C426.49 87.1485 427.605 86.757 428.918 87.0996C429.542 87.2627 429.903 87.8172 429.788 88.3392C429.657 88.9264 429.23 89.1711 428.639 89.1548C428.541 89.1384 428.426 89.1221 428.245 89.1058ZM413.511 86.3982C412.953 86.3982 412.411 86.4145 411.854 86.3982C411.066 86.3493 410.705 86.0067 410.705 85.3543C410.705 84.7018 411.066 84.343 411.821 84.3104C412.658 84.2778 413.494 84.3104 414.315 84.2941C417.17 84.2451 419.369 83.0544 420.845 80.6078C421.42 79.6617 421.928 79.4171 422.535 79.7759C423.142 80.1348 423.208 80.7872 422.667 81.6843C420.895 84.6203 418.286 86.1862 414.856 86.3982C414.413 86.4145 413.97 86.3982 413.511 86.3982ZM436.466 77.8838C436.466 78.5037 436.482 79.1235 436.45 79.7433C436.417 80.4284 436.023 80.8198 435.449 80.8361C434.825 80.8524 434.415 80.4447 434.366 79.7107C434.333 79.1724 434.333 78.6178 434.349 78.0633C434.398 76.2201 434.169 74.4422 433.299 72.7622C433.069 72.3055 433.004 71.7672 433.43 71.441C433.709 71.2289 434.218 71.1148 434.546 71.2126C434.858 71.2942 435.12 71.6857 435.285 71.9956C436.006 73.3983 436.384 74.8826 436.45 76.4485C436.482 76.9215 436.45 77.4108 436.466 77.8838ZM431.248 76.2364C430.821 76.4811 430.362 76.2691 430.083 75.8613C429.919 75.6492 429.821 75.3883 429.706 75.1273C428.984 73.4799 427.753 72.4197 425.997 71.9793C425.866 71.9466 425.719 71.9303 425.587 71.8977C425.013 71.7183 424.734 71.3268 424.816 70.7233C424.882 70.1524 425.325 69.8099 425.997 69.8588C426.342 69.8914 426.687 69.9893 427.015 70.0872C429.361 70.7886 430.887 72.3707 431.773 74.6053C431.822 74.7358 431.855 74.8663 431.888 74.9968C431.904 75.062 431.904 75.1273 431.921 75.2088C431.855 75.7634 431.593 76.057 431.248 76.2364ZM413.445 76.2854C413.56 74.6706 414.003 73.0558 414.823 71.5552C415.119 71.0332 415.513 70.6744 416.153 70.8375C416.776 70.9843 417.137 71.6693 416.809 72.2892C416.038 73.7898 415.611 75.3556 415.529 77.0357C415.496 77.7044 415.053 78.0796 414.479 78.0633C413.905 78.0633 413.511 77.6555 413.445 76.9867C413.429 76.791 413.445 76.579 413.445 76.2854ZM414.906 90.5412C414.528 90.5412 414.151 90.5575 413.773 90.5249C413.166 90.4923 412.822 90.166 412.789 89.5462C412.756 88.9264 413.084 88.5349 413.773 88.4697C414.627 88.3881 415.496 88.3881 416.349 88.2903C421.567 87.6541 425.883 82.8424 425.932 77.6066C425.932 77.3456 425.981 76.1059 424.98 76.1059C424.242 76.1059 423.946 77.0194 423.897 77.1825C423.668 77.8838 423.192 78.1937 422.601 78.0306C422.01 77.8838 421.699 77.3619 421.83 76.6442C422.06 75.3556 422.798 74.4585 424.061 74.0508C425.226 73.6756 426.523 74.0834 427.327 75.062C427.917 75.7797 428.147 76.6279 428.114 77.5413C427.966 84.6203 422.027 90.4433 414.906 90.5412ZM422.06 57.5114C425.997 56.9731 430.017 57.5114 433.611 59.2077C433.775 59.2839 433.934 59.3654 434.087 59.4524C434.431 59.6155 434.759 59.8112 435.055 60.0559C435.465 60.4147 435.531 60.8878 435.235 61.3608C434.94 61.8012 434.513 61.9806 433.972 61.7849C433.726 61.687 433.48 61.5402 433.233 61.4097C427.688 58.6803 422.152 58.6912 416.628 61.4423C416.464 61.5239 416.317 61.6054 416.153 61.6707C415.463 61.9806 414.955 61.8501 414.643 61.3118C414.348 60.8062 414.495 60.2027 415.135 59.8275C416.809 58.8489 418.597 58.1312 420.517 57.756C421.02 57.6582 421.534 57.5766 422.06 57.5114ZM413.019 82.2552C412.395 82.2552 411.772 82.2715 411.148 82.2389C410.41 82.2063 409.967 81.7822 409.95 81.2113C409.95 80.5588 410.41 80.1511 411.197 80.1348C412.215 80.1185 413.215 80.1674 414.216 80.1348C416.399 80.0532 417.482 78.9604 417.613 76.8073C417.744 74.4259 418.745 72.5175 420.698 71.1311C421.009 70.9027 421.452 70.7233 421.83 70.7396C422.601 70.7396 422.995 71.6041 422.568 72.2402C422.42 72.4686 422.174 72.6317 421.961 72.7948C420.616 73.7572 419.91 75.062 419.746 76.6931C419.369 80.5915 417.531 82.2552 413.642 82.2552C413.434 82.2552 413.226 82.2552 413.019 82.2552ZM409.294 76.2201C409.704 70.919 412.067 66.7597 416.579 63.8401C416.776 63.7096 417.006 63.5791 417.235 63.5302C417.695 63.416 418.122 63.4812 418.4 63.9379C418.679 64.4109 418.63 64.8677 418.236 65.2428C418.056 65.4222 417.843 65.5364 417.646 65.6669C413.724 68.3093 411.558 71.9466 411.361 76.6768C411.361 76.9215 411.345 77.1662 411.263 77.3782C411.115 77.8675 410.738 78.1122 410.229 78.0633C409.737 78.0306 409.392 77.737 409.31 77.2477C409.261 76.9052 409.294 76.5627 409.294 76.2201ZM424.947 65.7158C427.064 65.7158 429.246 66.1888 431.15 67.3632C431.27 67.4285 431.385 67.5046 431.494 67.5916C432.151 68.0809 432.331 68.6518 432.019 69.1575C431.658 69.7446 431.051 69.8588 430.313 69.3695C429 68.505 427.573 67.9504 425.997 67.771C424.16 67.5753 422.42 67.8526 420.78 68.6844C420.566 68.7986 420.353 68.9291 420.14 69.027C419.5 69.2879 418.958 69.1411 418.679 68.6681C418.368 68.1299 418.499 67.4937 419.155 67.2001C420.419 66.6456 422.732 65.7158 424.947 65.7158ZM432.315 79.8575C432.2 81.4723 431.757 83.0871 430.92 84.5714C430.641 85.1096 430.247 85.4685 429.607 85.3054C428.967 85.1586 428.623 84.4735 428.951 83.8537C429.722 82.3531 430.149 80.7872 430.231 79.1072C430.264 78.4384 430.707 78.0633 431.281 78.0796C431.855 78.0796 432.249 78.4874 432.315 79.1561C432.331 79.3518 432.315 79.5639 432.315 79.8575ZM440.634 78.6341C440.634 85.2727 437.04 91.7319 432.446 96.3968C431.97 96.8862 431.182 97.4897 430.575 97.8485C430.05 98.1747 429.41 98.2237 429.033 97.7344C428.59 97.1308 428.984 96.5436 429.443 96.1033C429.542 96.0054 429.706 95.9401 429.821 95.8586C434.809 91.895 438.615 84.4082 438.566 78.0306C438.517 77.1009 438.484 76.1549 438.369 75.2252C437.467 67.6405 429.853 62.2416 422.355 63.8074C422.224 63.8238 422.092 63.889 421.961 63.9053C421.239 64.0195 420.632 63.6606 420.517 63.0571C420.435 62.5515 420.796 62.0295 421.436 61.8827C422.174 61.7033 422.929 61.5402 423.684 61.4913C433.562 60.7736 440.863 68.5866 440.634 77.4108C440.634 77.4434 440.634 78.6341 440.634 78.6341Z" fill="#D90452"/>
<path fill-rule="evenodd" clip-rule="evenodd" d="M675.324 176.362C671.38 158.349 652.657 146.01 634.201 149.855C634.03 149.876 633.86 149.929 633.689 149.982C633.518 150.034 633.347 150.087 633.177 150.108C631.299 150.405 629.72 149.474 629.422 147.908C629.208 146.596 630.147 145.242 631.811 144.861C633.732 144.396 635.694 143.973 637.657 143.846C659.994 142.227 677.266 157.34 681 176.362H675.324ZM669.887 176.362H664.049C663.679 175.255 663.222 174.163 662.663 173.086C662.066 171.901 661.895 170.505 663.005 169.659C663.73 169.109 665.053 168.812 665.907 169.066C666.717 169.278 667.4 170.293 667.827 171.097C668.708 172.806 669.392 174.56 669.887 176.362ZM658.04 176.362C655.668 171.359 651.879 167.804 646.32 166.146C645.466 165.893 644.57 165.639 643.674 165.554C641.925 165.427 640.772 166.316 640.602 167.797C640.388 169.362 641.114 170.378 642.607 170.844C642.778 170.886 642.959 170.918 643.141 170.949C643.322 170.981 643.504 171.013 643.674 171.055C647.124 171.918 649.794 173.699 651.703 176.362H658.04ZM638.861 176.362C640.238 175.966 641.676 175.983 643.026 176.362H638.861ZM629.922 176.362H623.553C624.877 173.429 626.977 170.919 629.891 168.855C630.702 168.262 631.854 167.797 632.835 167.839C634.841 167.839 635.865 170.082 634.756 171.732C634.429 172.236 633.918 172.617 633.431 172.98C633.345 173.044 633.26 173.107 633.177 173.171C631.861 174.11 630.781 175.174 629.922 176.362ZM617.885 176.362H612.027C612.625 174.172 613.481 172.022 614.614 169.955C615.382 168.601 616.406 167.67 618.071 168.093C619.692 168.474 620.631 170.251 619.778 171.859C619.018 173.333 618.387 174.832 617.885 176.362ZM663.474 137.921C654.129 133.52 643.674 132.124 633.433 133.52C632.067 133.69 630.73 133.901 629.422 134.155C624.429 135.128 619.778 136.99 615.425 139.529C613.761 140.503 613.377 142.068 614.145 143.38C614.956 144.777 616.278 145.115 618.071 144.311C618.389 144.185 618.684 144.035 618.991 143.879C619.095 143.826 619.2 143.772 619.308 143.719C633.675 136.581 648.069 136.553 662.493 143.634C662.653 143.719 662.813 143.806 662.973 143.893C663.453 144.155 663.933 144.417 664.413 144.607C665.821 145.115 666.931 144.65 667.699 143.507C668.467 142.28 668.296 141.053 667.229 140.122C666.461 139.487 665.608 138.979 664.712 138.556C664.313 138.33 663.901 138.119 663.474 137.921ZM606.495 176.362C608.502 167.376 613.751 160.192 621.954 154.679C622.075 154.598 622.199 154.521 622.323 154.442C622.724 154.19 623.132 153.934 623.49 153.578C624.514 152.605 624.642 151.42 623.917 150.193C623.191 149.008 622.082 148.839 620.887 149.135C620.29 149.262 619.692 149.601 619.18 149.939C609.117 156.435 603.164 165.296 601 176.362H606.495ZM657.073 159.08C652.123 156.033 646.448 154.806 640.943 154.806C635.182 154.806 629.166 157.218 625.88 158.656C624.173 159.418 623.831 161.068 624.642 162.465C625.368 163.692 626.776 164.073 628.44 163.396C628.81 163.227 629.18 163.02 629.55 162.813C629.734 162.709 629.919 162.606 630.104 162.507C634.372 160.349 638.895 159.63 643.674 160.137C647.771 160.603 651.483 162.042 654.897 164.285C656.817 165.554 658.396 165.258 659.335 163.734C660.146 162.423 659.676 160.941 657.969 159.672C657.685 159.446 657.386 159.249 657.073 159.08Z" fill="#D2D9E0" fill-opacity="0.3"/>
<path fill-rule="evenodd" clip-rule="evenodd" d="M1018.32 176.362C1014.38 158.349 995.657 146.01 977.201 149.855C977.03 149.876 976.86 149.929 976.689 149.982C976.518 150.034 976.347 150.087 976.177 150.108C974.299 150.405 972.72 149.474 972.422 147.908C972.208 146.596 973.147 145.242 974.811 144.861C976.732 144.396 978.694 143.973 980.657 143.846C1002.99 142.227 1020.27 157.34 1024 176.362H1018.32ZM1012.89 176.362H1007.05C1006.68 175.255 1006.22 174.163 1005.66 173.086C1005.07 171.901 1004.9 170.505 1006 169.659C1006.73 169.109 1008.05 168.812 1008.91 169.066C1009.72 169.278 1010.4 170.293 1010.83 171.097C1011.71 172.806 1012.39 174.56 1012.89 176.362ZM1001.04 176.362C998.668 171.359 994.879 167.804 989.32 166.146C988.466 165.893 987.57 165.639 986.674 165.554C984.925 165.427 983.772 166.316 983.602 167.797C983.388 169.362 984.114 170.378 985.607 170.844C985.778 170.886 985.959 170.918 986.141 170.949C986.322 170.981 986.504 171.013 986.674 171.055C990.124 171.918 992.794 173.699 994.703 176.362H1001.04ZM981.861 176.362C983.238 175.966 984.676 175.983 986.026 176.362H981.861ZM972.922 176.362H966.553C967.877 173.429 969.977 170.919 972.891 168.855C973.702 168.262 974.854 167.797 975.835 167.839C977.841 167.839 978.865 170.082 977.756 171.732C977.429 172.236 976.918 172.617 976.431 172.98C976.345 173.044 976.26 173.107 976.177 173.171C974.861 174.11 973.781 175.174 972.922 176.362ZM960.885 176.362H955.027C955.625 174.172 956.481 172.022 957.614 169.955C958.382 168.601 959.406 167.67 961.071 168.093C962.692 168.474 963.631 170.251 962.778 171.859C962.018 173.333 961.387 174.832 960.885 176.362ZM1006.47 137.921C997.129 133.52 986.674 132.124 976.433 133.52C975.067 133.69 973.73 133.901 972.422 134.155C967.429 135.128 962.778 136.99 958.425 139.529C956.761 140.503 956.377 142.068 957.145 143.38C957.956 144.777 959.278 145.115 961.071 144.311C961.389 144.185 961.684 144.035 961.991 143.879C962.095 143.826 962.2 143.772 962.308 143.719C976.675 136.581 991.069 136.553 1005.49 143.634C1005.65 143.719 1005.81 143.806 1005.97 143.893C1006.45 144.155 1006.93 144.417 1007.41 144.607C1008.82 145.115 1009.93 144.65 1010.7 143.507C1011.47 142.28 1011.3 141.053 1010.23 140.122C1009.46 139.487 1008.61 138.979 1007.71 138.556C1007.31 138.33 1006.9 138.119 1006.47 137.921ZM949.495 176.362C951.502 167.376 956.751 160.192 964.954 154.679C965.075 154.598 965.199 154.521 965.323 154.442C965.724 154.19 966.132 153.934 966.49 153.578C967.514 152.605 967.642 151.42 966.917 150.193C966.191 149.008 965.082 148.839 963.887 149.135C963.29 149.262 962.692 149.601 962.18 149.939C952.117 156.435 946.164 165.296 944 176.362H949.495ZM1000.07 159.08C995.123 156.033 989.448 154.806 983.943 154.806C978.182 154.806 972.166 157.218 968.88 158.656C967.173 159.418 966.831 161.068 967.642 162.465C968.368 163.692 969.776 164.073 971.44 163.396C971.81 163.227 972.18 163.02 972.55 162.813C972.734 162.709 972.919 162.606 973.104 162.507C977.372 160.349 981.895 159.63 986.674 160.137C990.771 160.603 994.483 162.042 997.897 164.285C999.817 165.554 1001.4 165.258 1002.34 163.734C1003.15 162.423 1002.68 160.941 1000.97 159.672C1000.68 159.446 1000.39 159.249 1000.07 159.08Z" fill="#D2D9E0" fill-opacity="0.3"/>
<path fill-rule="evenodd" clip-rule="evenodd" d="M136.324 176.362C132.38 158.349 113.657 146.01 95.2009 149.855C95.0302 149.876 94.8595 149.929 94.6888 149.982C94.5181 150.034 94.3475 150.087 94.1768 150.108C92.2992 150.405 90.7203 149.474 90.4216 147.908C90.2082 146.596 91.147 145.242 92.8113 144.861C94.7315 144.396 96.6944 143.973 98.6574 143.846C120.994 142.227 138.266 157.34 142 176.362H136.324ZM130.887 176.362H125.049C124.679 175.255 124.222 174.163 123.663 173.086C123.066 171.901 122.895 170.505 124.005 169.659C124.73 169.109 126.053 168.812 126.907 169.066C127.717 169.278 128.4 170.293 128.827 171.097C129.708 172.806 130.392 174.56 130.887 176.362ZM119.04 176.362C116.668 171.359 112.879 167.804 107.32 166.146C106.466 165.893 105.57 165.639 104.674 165.554C102.925 165.427 101.772 166.316 101.602 167.797C101.388 169.362 102.114 170.378 103.607 170.844C103.778 170.886 103.959 170.918 104.141 170.949C104.322 170.981 104.504 171.013 104.674 171.055C108.124 171.918 110.794 173.699 112.703 176.362H119.04ZM99.8609 176.362C101.238 175.966 102.676 175.983 104.026 176.362H99.8609ZM90.922 176.362H84.5532C85.8774 173.429 87.9766 170.919 90.891 168.855C91.7018 168.262 92.8539 167.797 93.8354 167.839C95.841 167.839 96.8651 170.082 95.7556 171.732C95.4293 172.236 94.9179 172.617 94.4312 172.98C94.3453 173.044 94.2601 173.107 94.1768 173.171C92.8611 174.11 91.7807 175.174 90.922 176.362ZM78.8846 176.362H73.0267C73.6253 174.172 74.4815 172.022 75.6142 169.955C76.3823 168.601 77.4065 167.67 79.0707 168.093C80.6923 168.474 81.6311 170.251 80.7776 171.859C80.0181 173.333 79.3871 174.832 78.8846 176.362ZM124.474 137.921C115.129 133.52 104.674 132.124 94.4328 133.52C93.0673 133.69 91.7302 133.901 90.4216 134.155C85.4289 135.128 80.7776 136.99 76.425 139.529C74.7608 140.503 74.3767 142.068 75.1448 143.38C75.9556 144.777 77.2785 145.115 79.0707 144.311C79.3894 144.185 79.6843 144.035 79.991 143.879C80.0949 143.826 80.2002 143.772 80.3082 143.719C94.6746 136.581 109.069 136.553 123.493 143.634C123.653 143.719 123.813 143.806 123.973 143.893C124.453 144.155 124.933 144.417 125.413 144.607C126.821 145.115 127.931 144.65 128.699 143.507C129.467 142.28 129.296 141.053 128.229 140.122C127.461 139.487 126.608 138.979 125.712 138.556C125.313 138.33 124.901 138.119 124.474 137.921ZM67.4951 176.362C69.5018 167.376 74.7509 160.192 82.9539 154.679C83.0751 154.598 83.1988 154.521 83.3231 154.442C83.7239 154.19 84.1319 153.934 84.4901 153.578C85.5143 152.605 85.6423 151.42 84.9168 150.193C84.1914 149.008 83.0819 148.839 81.8871 149.135C81.2897 149.262 80.6923 149.601 80.1802 149.939C70.1167 156.435 64.1643 165.296 62 176.362H67.4951ZM118.073 159.08C113.123 156.033 107.448 154.806 101.943 154.806C96.1824 154.806 90.1655 157.218 86.8798 158.656C85.1729 159.418 84.8315 161.068 85.6423 162.465C86.3677 163.692 87.7759 164.073 89.4401 163.396C89.8099 163.227 90.1797 163.02 90.5496 162.813C90.7345 162.709 90.9194 162.606 91.1044 162.507C95.3716 160.349 99.8949 159.63 104.674 160.137C108.771 160.603 112.483 162.042 115.897 164.285C117.817 165.554 119.396 165.258 120.335 163.734C121.146 162.423 120.676 160.941 118.969 159.672C118.685 159.446 118.386 159.249 118.073 159.08Z" fill="#D2D9E0" fill-opacity="0.3"/>
<path fill-rule="evenodd" clip-rule="evenodd" d="M831.676 1.00001C835.62 19.0129 854.343 31.3518 872.799 27.5072C872.97 27.4861 873.14 27.4332 873.311 27.3803C873.482 27.3274 873.653 27.2745 873.823 27.2533C875.701 26.9571 877.28 27.8881 877.578 29.4538C877.792 30.7656 876.853 32.1197 875.189 32.5006C873.268 32.9661 871.306 33.3892 869.343 33.5162C847.006 35.1351 829.734 20.0217 826 1.00001L831.676 1.00001ZM837.113 1.00001L842.951 1.00001C843.321 2.10648 843.778 3.19873 844.337 4.27548C844.934 5.46035 845.105 6.85678 843.995 7.70311C843.27 8.25323 841.947 8.54945 841.093 8.29555C840.283 8.08397 839.6 7.06838 839.173 6.26436C838.292 4.5562 837.608 2.80141 837.113 1.00001ZM848.96 1.00001C851.332 6.00316 855.121 9.55761 860.68 11.2154C861.534 11.4693 862.43 11.7232 863.326 11.8078C865.075 11.9348 866.228 11.0461 866.398 9.56505C866.612 7.99934 865.886 6.98374 864.393 6.51826C864.222 6.47594 864.041 6.4442 863.859 6.41246C863.678 6.38073 863.496 6.34899 863.326 6.30668C859.876 5.44347 857.206 3.66242 855.297 1.00001L848.96 1.00001ZM868.139 1.00001C866.762 1.39536 865.324 1.37842 863.974 1.00001L868.139 1.00001ZM877.078 1.00001L883.447 1.00001C882.123 3.93242 880.023 6.4428 877.109 8.50714C876.298 9.09957 875.146 9.56503 874.165 9.52272C872.159 9.52272 871.135 7.27997 872.244 5.62962C872.571 5.12614 873.082 4.7449 873.569 4.38203C873.655 4.31792 873.74 4.25438 873.823 4.19085C875.139 3.25212 876.219 2.18776 877.078 1.00001ZM889.115 1.00001L894.973 1.00001C894.375 3.18958 893.519 5.33998 892.386 7.40689C891.618 8.76102 890.594 9.692 888.929 9.26883C887.308 8.88798 886.369 7.11068 887.222 5.50265C887.982 4.02835 888.613 2.52976 889.115 1.00001ZM843.526 39.4405C852.871 43.8414 863.326 45.2379 873.567 43.8414C874.933 43.6721 876.27 43.4606 877.578 43.2067C882.571 42.2334 887.222 40.3715 891.575 37.8325C893.239 36.8592 893.623 35.2935 892.855 33.9817C892.044 32.5852 890.722 32.2467 888.929 33.0507C888.611 33.1771 888.316 33.3271 888.009 33.4831C887.905 33.536 887.8 33.5896 887.692 33.6431C873.325 40.7805 858.931 40.8087 844.507 33.7278C844.347 33.6431 844.187 33.5559 844.027 33.4686C843.547 33.2067 843.067 32.9449 842.587 32.7545C841.179 32.2467 840.069 32.7122 839.301 33.8547C838.533 35.0819 838.704 36.3091 839.771 37.24C840.539 37.8748 841.392 38.3826 842.288 38.8057C842.687 39.0314 843.099 39.243 843.526 39.4405ZM900.505 1.00001C898.498 9.9857 893.249 17.1694 885.046 22.6832C884.925 22.7633 884.801 22.8411 884.677 22.9193C884.276 23.1715 883.868 23.4281 883.51 23.7834C882.486 24.7567 882.358 25.9415 883.083 27.1687C883.809 28.3536 884.918 28.5228 886.113 28.2266C886.71 28.0997 887.308 27.7611 887.82 27.4226C897.883 20.9269 903.836 12.0659 906 1.00002L900.505 1.00001ZM849.927 18.2822C854.877 21.329 860.552 22.5562 866.057 22.5562C871.818 22.5562 877.834 20.1442 881.12 18.7054C882.827 17.9437 883.169 16.2934 882.358 14.8969C881.632 13.6697 880.224 13.2889 878.56 13.9659C878.19 14.1352 877.82 14.3421 877.45 14.549C877.266 14.6524 877.081 14.7559 876.896 14.8546C872.628 17.0128 868.105 17.7321 863.326 17.2243C859.229 16.7588 855.517 15.3201 852.103 13.0773C850.183 11.8078 848.604 12.104 847.665 13.6274C846.854 14.9392 847.324 16.4203 849.031 17.6898C849.315 17.9155 849.614 18.113 849.927 18.2822Z" fill="#D2D9E0" fill-opacity="0.3"/>
<path fill-rule="evenodd" clip-rule="evenodd" d="M187.676 1.00001C191.62 19.0129 210.343 31.3518 228.799 27.5072C228.97 27.4861 229.14 27.4332 229.311 27.3803C229.482 27.3274 229.653 27.2745 229.823 27.2533C231.701 26.9571 233.28 27.8881 233.578 29.4538C233.792 30.7656 232.853 32.1197 231.189 32.5006C229.268 32.9661 227.306 33.3892 225.343 33.5162C203.006 35.1351 185.734 20.0217 182 1.00001L187.676 1.00001ZM193.113 1.00001L198.951 1.00001C199.321 2.10648 199.778 3.19873 200.337 4.27548C200.934 5.46035 201.105 6.85678 199.995 7.70311C199.27 8.25323 197.947 8.54945 197.093 8.29555C196.283 8.08397 195.6 7.06838 195.173 6.26436C194.292 4.5562 193.608 2.80141 193.113 1.00001ZM204.96 1.00001C207.332 6.00316 211.121 9.55761 216.68 11.2154C217.534 11.4693 218.43 11.7232 219.326 11.8078C221.075 11.9348 222.228 11.0461 222.398 9.56505C222.612 7.99934 221.886 6.98374 220.393 6.51826C220.222 6.47594 220.041 6.4442 219.859 6.41246C219.678 6.38073 219.496 6.34899 219.326 6.30668C215.876 5.44347 213.206 3.66242 211.297 1.00001L204.96 1.00001ZM224.139 1.00001C222.762 1.39536 221.324 1.37842 219.974 1.00001L224.139 1.00001ZM233.078 1.00001L239.447 1.00001C238.123 3.93242 236.023 6.4428 233.109 8.50714C232.298 9.09957 231.146 9.56503 230.165 9.52272C228.159 9.52272 227.135 7.27997 228.244 5.62962C228.571 5.12614 229.082 4.7449 229.569 4.38203C229.655 4.31792 229.74 4.25438 229.823 4.19085C231.139 3.25212 232.219 2.18776 233.078 1.00001ZM245.115 1.00001L250.973 1.00001C250.375 3.18958 249.519 5.33998 248.386 7.40689C247.618 8.76102 246.594 9.692 244.929 9.26883C243.308 8.88798 242.369 7.11068 243.222 5.50265C243.982 4.02835 244.613 2.52976 245.115 1.00001ZM199.526 39.4405C208.871 43.8414 219.326 45.2379 229.567 43.8414C230.933 43.6721 232.27 43.4606 233.578 43.2067C238.571 42.2334 243.222 40.3715 247.575 37.8325C249.239 36.8592 249.623 35.2935 248.855 33.9817C248.044 32.5852 246.722 32.2467 244.929 33.0507C244.611 33.1771 244.316 33.3271 244.009 33.4831C243.905 33.536 243.8 33.5896 243.692 33.6431C229.325 40.7805 214.931 40.8087 200.507 33.7278C200.347 33.6431 200.187 33.5559 200.027 33.4686C199.547 33.2067 199.067 32.9449 198.587 32.7545C197.179 32.2467 196.069 32.7122 195.301 33.8547C194.533 35.0819 194.704 36.3091 195.771 37.24C196.539 37.8748 197.392 38.3826 198.288 38.8057C198.687 39.0314 199.099 39.243 199.526 39.4405ZM256.505 1.00001C254.498 9.9857 249.249 17.1694 241.046 22.6832C240.925 22.7633 240.801 22.8411 240.677 22.9193C240.276 23.1715 239.868 23.4281 239.51 23.7834C238.486 24.7567 238.358 25.9415 239.083 27.1687C239.809 28.3536 240.918 28.5228 242.113 28.2266C242.71 28.0997 243.308 27.7611 243.82 27.4226C253.883 20.9269 259.836 12.0659 262 1.00002L256.505 1.00001ZM205.927 18.2822C210.877 21.329 216.552 22.5562 222.057 22.5562C227.818 22.5562 233.834 20.1442 237.12 18.7054C238.827 17.9437 239.169 16.2934 238.358 14.8969C237.632 13.6697 236.224 13.2889 234.56 13.9659C234.19 14.1352 233.82 14.3421 233.45 14.549C233.266 14.6524 233.081 14.7559 232.896 14.8546C228.628 17.0128 224.105 17.7321 219.326 17.2243C215.229 16.7588 211.517 15.3201 208.103 13.0773C206.183 11.8078 204.604 12.104 203.665 13.6274C202.854 14.9392 203.324 16.4203 205.031 17.6898C205.315 17.9155 205.614 18.113 205.927 18.2822Z" fill="#D2D9E0" fill-opacity="0.3"/>
<path d="M603.354 115V93.3101H607.284V115H603.354Z" fill="#D90452"/>
<path d="M591.776 115.3C590.456 115.3 589.266 114.97 588.206 114.31C587.146 113.65 586.316 112.75 585.716 111.61C585.116 110.47 584.816 109.19 584.816 107.77C584.816 106.33 585.116 105.04 585.716 103.9C586.316 102.76 587.146 101.86 588.206 101.2C589.266 100.54 590.456 100.21 591.776 100.21C592.816 100.21 593.746 100.42 594.566 100.84C595.386 101.26 596.036 101.85 596.516 102.61C597.016 103.35 597.286 104.19 597.326 105.13V110.35C597.286 111.31 597.016 112.16 596.516 112.9C596.036 113.64 595.386 114.23 594.566 114.67C593.746 115.09 592.816 115.3 591.776 115.3ZM592.496 111.67C593.596 111.67 594.486 111.31 595.166 110.59C595.846 109.85 596.186 108.9 596.186 107.74C596.186 106.98 596.026 106.31 595.706 105.73C595.406 105.13 594.976 104.67 594.416 104.35C593.876 104.01 593.236 103.84 592.496 103.84C591.776 103.84 591.136 104.01 590.576 104.35C590.036 104.67 589.606 105.13 589.286 105.73C588.986 106.31 588.836 106.98 588.836 107.74C588.836 108.52 588.986 109.21 589.286 109.81C589.606 110.39 590.036 110.85 590.576 111.19C591.136 111.51 591.776 111.67 592.496 111.67ZM595.976 115V111.1L596.606 107.56L595.976 104.08V100.51H599.876V115H595.976Z" fill="#D90452"/>
<path d="M576.538 115V94.48H580.468V115H576.538ZM573.148 103.96V100.51H583.858V103.96H573.148Z" fill="#D90452"/>
<path d="M566.967 115V100.51H570.927V115H566.967ZM568.947 98.1702C568.307 98.1702 567.777 97.9602 567.357 97.5402C566.937 97.1002 566.727 96.5602 566.727 95.9202C566.727 95.3002 566.937 94.7702 567.357 94.3302C567.777 93.8902 568.307 93.6702 568.947 93.6702C569.607 93.6702 570.137 93.8902 570.537 94.3302C570.957 94.7702 571.167 95.3002 571.167 95.9202C571.167 96.5602 570.957 97.1002 570.537 97.5402C570.137 97.9602 569.607 98.1702 568.947 98.1702Z" fill="#D90452"/>
<path d="M555.654 121.42C554.114 121.42 552.754 121.14 551.574 120.58C550.394 120.04 549.454 119.27 548.754 118.27L551.244 115.78C551.804 116.44 552.424 116.94 553.104 117.28C553.804 117.64 554.644 117.82 555.624 117.82C556.844 117.82 557.804 117.51 558.504 116.89C559.224 116.27 559.584 115.41 559.584 114.31V110.68L560.244 107.5L559.614 104.32V100.51H563.514V114.25C563.514 115.69 563.174 116.94 562.494 118C561.834 119.08 560.914 119.92 559.734 120.52C558.554 121.12 557.194 121.42 555.654 121.42ZM555.474 114.61C554.174 114.61 553.004 114.3 551.964 113.68C550.924 113.04 550.104 112.17 549.504 111.07C548.924 109.97 548.634 108.74 548.634 107.38C548.634 106.02 548.924 104.8 549.504 103.72C550.104 102.64 550.924 101.79 551.964 101.17C553.004 100.53 554.174 100.21 555.474 100.21C556.554 100.21 557.504 100.42 558.324 100.84C559.164 101.26 559.824 101.84 560.304 102.58C560.784 103.3 561.044 104.15 561.084 105.13V109.69C561.044 110.65 560.774 111.51 560.274 112.27C559.794 113.01 559.134 113.59 558.294 114.01C557.474 114.41 556.534 114.61 555.474 114.61ZM556.254 111.04C556.974 111.04 557.594 110.89 558.114 110.59C558.654 110.27 559.074 109.84 559.374 109.3C559.674 108.74 559.824 108.11 559.824 107.41C559.824 106.69 559.674 106.06 559.374 105.52C559.074 104.98 558.654 104.56 558.114 104.26C557.594 103.94 556.974 103.78 556.254 103.78C555.534 103.78 554.904 103.94 554.364 104.26C553.824 104.56 553.404 104.99 553.104 105.55C552.804 106.09 552.654 106.71 552.654 107.41C552.654 108.09 552.804 108.71 553.104 109.27C553.404 109.81 553.824 110.24 554.364 110.56C554.904 110.88 555.534 111.04 556.254 111.04Z" fill="#D90452"/>
<path d="M542.152 115V100.51H546.112V115H542.152ZM544.132 98.1702C543.492 98.1702 542.962 97.9602 542.542 97.5402C542.122 97.1002 541.912 96.5602 541.912 95.9202C541.912 95.3002 542.122 94.7702 542.542 94.3302C542.962 93.8902 543.492 93.6702 544.132 93.6702C544.792 93.6702 545.322 93.8902 545.722 94.3302C546.142 94.7702 546.352 95.3002 546.352 95.9202C546.352 96.5602 546.142 97.1002 545.722 97.5402C545.322 97.9602 544.792 98.1702 544.132 98.1702Z" fill="#D90452"/>
<path d="M522.95 115V111.37H528.32C529.68 111.37 530.87 111.09 531.89 110.53C532.91 109.95 533.7 109.14 534.26 108.1C534.84 107.06 535.13 105.83 535.13 104.41C535.13 103.03 534.84 101.83 534.26 100.81C533.68 99.7702 532.88 98.9702 531.86 98.4102C530.84 97.8302 529.66 97.5402 528.32 97.5402H522.86V93.9102H528.38C529.94 93.9102 531.38 94.1702 532.7 94.6902C534.04 95.2102 535.2 95.9502 536.18 96.9102C537.18 97.8502 537.95 98.9602 538.49 100.24C539.05 101.52 539.33 102.92 539.33 104.44C539.33 105.96 539.05 107.37 538.49 108.67C537.95 109.95 537.19 111.07 536.21 112.03C535.23 112.97 534.07 113.7 532.73 114.22C531.41 114.74 529.98 115 528.44 115H522.95ZM520.16 115V93.9102H524.24V115H520.16Z" fill="#D90452"/>
<path d="M724.257 77.3002C722.937 77.3002 721.747 76.9702 720.687 76.3102C719.627 75.6502 718.797 74.7502 718.197 73.6102C717.597 72.4702 717.297 71.1902 717.297 69.7702C717.297 68.3302 717.597 67.0402 718.197 65.9002C718.797 64.7602 719.627 63.8602 720.687 63.2002C721.747 62.5402 722.937 62.2102 724.257 62.2102C725.297 62.2102 726.227 62.4202 727.047 62.8402C727.867 63.2602 728.517 63.8502 728.997 64.6102C729.497 65.3502 729.767 66.1902 729.807 67.1302V72.3502C729.767 73.3102 729.497 74.1602 728.997 74.9002C728.517 75.6402 727.867 76.2302 727.047 76.6702C726.227 77.0902 725.297 77.3002 724.257 77.3002ZM724.977 73.6702C726.077 73.6702 726.967 73.3102 727.647 72.5902C728.327 71.8502 728.667 70.9002 728.667 69.7402C728.667 68.9802 728.507 68.3102 728.187 67.7302C727.887 67.1302 727.457 66.6702 726.897 66.3502C726.357 66.0102 725.717 65.8402 724.977 65.8402C724.257 65.8402 723.617 66.0102 723.057 66.3502C722.517 66.6702 722.087 67.1302 721.767 67.7302C721.467 68.3102 721.317 68.9802 721.317 69.7402C721.317 70.5202 721.467 71.2102 721.767 71.8102C722.087 72.3902 722.517 72.8502 723.057 73.1902C723.617 73.5102 724.257 73.6702 724.977 73.6702ZM728.457 77.0002V73.1002L729.087 69.5602L728.457 66.0802V62.5102H732.357V77.0002H728.457Z" fill="#D90452"/>
<path d="M710.785 77.0001V55.3101H714.715V77.0001H710.785Z" fill="#D90452"/>
<path d="M703.373 77.0001V55.3101H707.303V77.0001H703.373Z" fill="#D90452"/>
<path d="M694.073 77.3002C692.553 77.3002 691.203 76.9802 690.023 76.3402C688.843 75.6802 687.903 74.7802 687.203 73.6402C686.523 72.5002 686.183 71.2002 686.183 69.7402C686.183 68.3002 686.513 67.0202 687.173 65.9002C687.853 64.7602 688.773 63.8602 689.933 63.2002C691.093 62.5202 692.383 62.1802 693.803 62.1802C695.203 62.1802 696.433 62.5002 697.493 63.1402C698.573 63.7602 699.413 64.6202 700.013 65.7202C700.633 66.8002 700.943 68.0302 700.943 69.4102C700.943 69.6702 700.923 69.9402 700.883 70.2202C700.863 70.4802 700.813 70.7802 700.733 71.1202L688.553 71.1502V68.2102L698.903 68.1802L697.313 69.4102C697.273 68.5502 697.113 67.8302 696.833 67.2502C696.573 66.6702 696.183 66.2302 695.663 65.9302C695.163 65.6102 694.543 65.4502 693.803 65.4502C693.023 65.4502 692.343 65.6302 691.763 65.9902C691.183 66.3302 690.733 66.8202 690.413 67.4602C690.113 68.0802 689.963 68.8202 689.963 69.6802C689.963 70.5602 690.123 71.3302 690.443 71.9902C690.783 72.6302 691.263 73.1302 691.883 73.4902C692.503 73.8302 693.223 74.0002 694.043 74.0002C694.783 74.0002 695.453 73.8802 696.053 73.6402C696.653 73.3802 697.173 73.0002 697.613 72.5002L699.923 74.8102C699.223 75.6302 698.363 76.2502 697.343 76.6702C696.343 77.0902 695.253 77.3002 694.073 77.3002Z" fill="#D90452"/>
<path d="M677.473 77.3C676.193 77.3 675.053 77.03 674.053 76.49C673.073 75.95 672.303 75.2 671.743 74.24C671.183 73.28 670.903 72.17 670.903 70.91V62.51H674.863V70.82C674.863 71.42 674.963 71.94 675.163 72.38C675.363 72.8 675.663 73.12 676.063 73.34C676.463 73.56 676.933 73.67 677.473 73.67C678.293 73.67 678.933 73.42 679.393 72.92C679.853 72.42 680.083 71.72 680.083 70.82V62.51H684.013V70.91C684.013 72.19 683.733 73.31 683.173 74.27C682.633 75.23 681.863 75.98 680.863 76.52C679.883 77.04 678.753 77.3 677.473 77.3Z" fill="#D90452"/>
<path d="M650.092 77.0002V55.9102H654.172V77.0002H650.092ZM663.322 77.0002V55.9102H667.402V77.0002H663.322ZM652.672 67.9102V64.3102H664.462V67.9102H652.672Z" fill="#D90452"/>
<path d="M632.235 77.3002C630.915 77.3002 629.725 76.9702 628.665 76.3102C627.605 75.6502 626.775 74.7502 626.175 73.6102C625.575 72.4702 625.275 71.1902 625.275 69.7702C625.275 68.3302 625.575 67.0402 626.175 65.9002C626.775 64.7602 627.605 63.8602 628.665 63.2002C629.725 62.5402 630.915 62.2102 632.235 62.2102C633.275 62.2102 634.205 62.4202 635.025 62.8402C635.845 63.2602 636.495 63.8502 636.975 64.6102C637.475 65.3502 637.745 66.1902 637.785 67.1302V72.3502C637.745 73.3102 637.475 74.1602 636.975 74.9002C636.495 75.6402 635.845 76.2302 635.025 76.6702C634.205 77.0902 633.275 77.3002 632.235 77.3002ZM632.955 73.6702C634.055 73.6702 634.945 73.3102 635.625 72.5902C636.305 71.8502 636.645 70.9002 636.645 69.7402C636.645 68.9802 636.485 68.3102 636.165 67.7302C635.865 67.1302 635.435 66.6702 634.875 66.3502C634.335 66.0102 633.695 65.8402 632.955 65.8402C632.235 65.8402 631.595 66.0102 631.035 66.3502C630.495 66.6702 630.065 67.1302 629.745 67.7302C629.445 68.3102 629.295 68.9802 629.295 69.7402C629.295 70.5202 629.445 71.2102 629.745 71.8102C630.065 72.3902 630.495 72.8502 631.035 73.1902C631.595 73.5102 632.235 73.6702 632.955 73.6702ZM636.435 77.0002V73.1002L637.065 69.5602L636.435 66.0802V62.5102H640.335V77.0002H636.435Z" fill="#100E0F"/>
<path d="M618.764 77.0001V62.5101H622.694V77.0001H618.764ZM618.794 60.6501L617.294 58.7901L621.614 54.1101L624.134 57.1701L618.794 60.6501Z" fill="#100E0F"/>
<path d="M609.234 77.0002V56.4802H613.164V77.0002H609.234ZM605.844 65.9602V62.5102H616.554V65.9602H605.844Z" fill="#100E0F"/>
<path d="M600.184 77.0002V68.6902C600.184 67.8302 599.914 67.1302 599.374 66.5902C598.834 66.0502 598.134 65.7802 597.274 65.7802C596.714 65.7802 596.214 65.9002 595.774 66.1402C595.334 66.3802 594.984 66.7202 594.724 67.1602C594.484 67.6002 594.364 68.1102 594.364 68.6902L592.834 67.9102C592.834 66.7702 593.074 65.7802 593.554 64.9402C594.054 64.0802 594.734 63.4102 595.594 62.9302C596.474 62.4502 597.464 62.2102 598.564 62.2102C599.624 62.2102 600.574 62.4802 601.414 63.0202C602.254 63.5402 602.914 64.2302 603.394 65.0902C603.874 65.9302 604.114 66.8402 604.114 67.8202V77.0002H600.184ZM590.434 77.0002V62.5102H594.364V77.0002H590.434Z" fill="#100E0F"/>
<path d="M578.857 77.3002C577.537 77.3002 576.347 76.9702 575.287 76.3102C574.227 75.6502 573.397 74.7502 572.797 73.6102C572.197 72.4702 571.897 71.1902 571.897 69.7702C571.897 68.3302 572.197 67.0402 572.797 65.9002C573.397 64.7602 574.227 63.8602 575.287 63.2002C576.347 62.5402 577.537 62.2102 578.857 62.2102C579.897 62.2102 580.827 62.4202 581.647 62.8402C582.467 63.2602 583.117 63.8502 583.597 64.6102C584.097 65.3502 584.367 66.1902 584.407 67.1302V72.3502C584.367 73.3102 584.097 74.1602 583.597 74.9002C583.117 75.6402 582.467 76.2302 581.647 76.6702C580.827 77.0902 579.897 77.3002 578.857 77.3002ZM579.577 73.6702C580.677 73.6702 581.567 73.3102 582.247 72.5902C582.927 71.8502 583.267 70.9002 583.267 69.7402C583.267 68.9802 583.107 68.3102 582.787 67.7302C582.487 67.1302 582.057 66.6702 581.497 66.3502C580.957 66.0102 580.317 65.8402 579.577 65.8402C578.857 65.8402 578.217 66.0102 577.657 66.3502C577.117 66.6702 576.687 67.1302 576.367 67.7302C576.067 68.3102 575.917 68.9802 575.917 69.7402C575.917 70.5202 576.067 71.2102 576.367 71.8102C576.687 72.3902 577.117 72.8502 577.657 73.1902C578.217 73.5102 578.857 73.6702 579.577 73.6702ZM583.057 77.0002V73.1002L583.687 69.5602L583.057 66.0802V62.5102H586.957V77.0002H583.057Z" fill="#100E0F"/>
<path d="M560.727 77.0002V62.5102H564.657V77.0002H560.727ZM564.657 68.9902L563.127 67.9702C563.307 66.1902 563.827 64.7902 564.687 63.7702C565.547 62.7302 566.787 62.2102 568.407 62.2102C569.107 62.2102 569.737 62.3302 570.297 62.5702C570.857 62.7902 571.367 63.1602 571.827 63.6802L569.367 66.5002C569.147 66.2602 568.877 66.0802 568.557 65.9602C568.257 65.8402 567.907 65.7802 567.507 65.7802C566.667 65.7802 565.977 66.0502 565.437 66.5902C564.917 67.1102 564.657 67.9102 564.657 68.9902Z" fill="#100E0F"/>
<path d="M549.15 77.3002C547.83 77.3002 546.64 76.9702 545.58 76.3102C544.52 75.6502 543.69 74.7502 543.09 73.6102C542.49 72.4702 542.19 71.1902 542.19 69.7702C542.19 68.3302 542.49 67.0402 543.09 65.9002C543.69 64.7602 544.52 63.8602 545.58 63.2002C546.64 62.5402 547.83 62.2102 549.15 62.2102C550.19 62.2102 551.12 62.4202 551.94 62.8402C552.76 63.2602 553.41 63.8502 553.89 64.6102C554.39 65.3502 554.66 66.1902 554.7 67.1302V72.3502C554.66 73.3102 554.39 74.1602 553.89 74.9002C553.41 75.6402 552.76 76.2302 551.94 76.6702C551.12 77.0902 550.19 77.3002 549.15 77.3002ZM549.87 73.6702C550.97 73.6702 551.86 73.3102 552.54 72.5902C553.22 71.8502 553.56 70.9002 553.56 69.7402C553.56 68.9802 553.4 68.3102 553.08 67.7302C552.78 67.1302 552.35 66.6702 551.79 66.3502C551.25 66.0102 550.61 65.8402 549.87 65.8402C549.15 65.8402 548.51 66.0102 547.95 66.3502C547.41 66.6702 546.98 67.1302 546.66 67.7302C546.36 68.3102 546.21 68.9802 546.21 69.7402C546.21 70.5202 546.36 71.2102 546.66 71.8102C546.98 72.3902 547.41 72.8502 547.95 73.1902C548.51 73.5102 549.15 73.6702 549.87 73.6702ZM553.35 77.0002V73.1002L553.98 69.5602L553.35 66.0802V62.5102H557.25V77.0002H553.35Z" fill="#100E0F"/>
<path d="M529.91 77.3001C528.41 77.3001 527 77.0301 525.68 76.4901C524.38 75.9301 523.23 75.1501 522.23 74.1501C521.25 73.1501 520.48 72.0001 519.92 70.7001C519.38 69.3801 519.11 67.9601 519.11 66.4401C519.11 64.9001 519.39 63.4801 519.95 62.1801C520.51 60.8601 521.29 59.7101 522.29 58.7301C523.29 57.7301 524.46 56.9601 525.8 56.4201C527.14 55.8601 528.59 55.5801 530.15 55.5801C531.89 55.5801 533.49 55.9101 534.95 56.5701C536.41 57.2101 537.62 58.1201 538.58 59.3001L535.82 62.0601C535.16 61.2001 534.34 60.5401 533.36 60.0801C532.38 59.6201 531.3 59.3901 530.12 59.3901C528.78 59.3901 527.59 59.6901 526.55 60.2901C525.53 60.8701 524.73 61.6901 524.15 62.7501C523.57 63.7901 523.28 65.0101 523.28 66.4101C523.28 67.8101 523.56 69.0501 524.12 70.1301C524.7 71.1901 525.48 72.0201 526.46 72.6201C527.46 73.2201 528.6 73.5201 529.88 73.5201C531.2 73.5201 532.33 73.2801 533.27 72.8001C534.21 72.3001 534.93 71.5801 535.43 70.6401C535.93 69.6801 536.18 68.5101 536.18 67.1301L538.85 68.9601L529.64 68.8701V65.3301H540.38V65.9001C540.38 68.4201 539.93 70.5301 539.03 72.2301C538.13 73.9101 536.89 75.1801 535.31 76.0401C533.75 76.8801 531.95 77.3001 529.91 77.3001Z" fill="#100E0F"/>
</svg>
