<svg width="514" height="288" viewBox="0 0 514 288" fill="none" xmlns="http://www.w3.org/2000/svg">
<rect width="514" height="288" rx="4" fill="#F3F6F9"/>
<path fill-rule="evenodd" clip-rule="evenodd" d="M477.872 43.0297C478.11 56.8736 467.043 68.3441 453.198 68.5419C439.354 68.7792 427.93 57.7042 427.731 43.8208C427.493 29.977 438.561 18.546 452.405 18.3087C466.21 18.0713 477.634 29.1859 477.872 43.0297ZM440.822 43.6231C440.901 50.2681 446.375 55.5683 453 55.4496C459.585 55.331 464.901 49.8725 464.782 43.2275C464.663 36.622 459.228 31.3218 452.603 31.4405C445.979 31.5196 440.703 37.0176 440.822 43.6231Z" fill="#EBEBEB"/>
<path d="M477.868 43.0297C478.106 56.8736 467.039 68.3441 453.194 68.5419L452.996 55.4496C459.581 55.331 464.896 49.8725 464.777 43.2275C464.658 36.622 459.224 31.3218 452.599 31.4405L452.401 18.3087C466.205 18.0713 477.63 29.1859 477.868 43.0297Z" fill="#D2D9E0"/>
<path d="M455.454 70.5593C439.27 70.8361 426.377 58.2976 426.1 42.1201L441.412 41.8433C441.531 49.5958 447.441 54.5005 455.177 54.3818L455.454 70.5593Z" fill="#F5F5F5"/>
<path d="M444.451 142.016C446.752 143.479 449.489 144.349 452.424 144.349C462.103 144.349 467.578 136.201 467.26 128.884C468.292 128.172 469.164 127.262 469.839 126.194C468.926 126.629 467.935 126.906 466.864 127.025C467.935 126.392 468.768 125.364 469.164 124.137C468.133 124.731 467.022 125.166 465.832 125.403C464.88 124.414 463.531 123.781 462.024 123.781C458.692 123.781 456.193 126.906 456.946 130.15C452.623 129.952 448.775 127.856 446.236 124.731C444.848 127.064 445.522 130.11 447.823 131.653C446.99 131.613 446.157 131.415 445.482 131.02C445.403 133.433 447.148 135.687 449.647 136.162C448.933 136.36 448.1 136.399 447.307 136.241C447.942 138.337 449.885 139.84 452.186 139.88C449.965 141.581 447.228 142.332 444.451 142.016Z" fill="#EBEBEB"/>
<path fill-rule="evenodd" clip-rule="evenodd" d="M103.496 232.6C103.727 247.343 91.9702 259.493 77.25 259.722C62.5627 259.985 50.4111 248.197 50.1806 233.454C49.9501 218.743 61.7065 206.561 76.3938 206.331C91.114 206.101 103.266 217.889 103.496 232.6ZM64.0775 233.224C64.2093 240.284 70.0051 245.899 77.0524 245.8C84.0667 245.702 89.698 239.857 89.5992 232.83C89.4674 225.77 83.6716 220.155 76.6243 220.254C69.61 220.385 63.9787 226.197 64.0775 233.224Z" fill="#EBEBEB"/>
<path d="M103.494 232.6C103.725 247.343 91.9685 259.493 77.2483 259.723L77.0507 245.8C84.065 245.702 89.6963 239.857 89.5975 232.83C89.4658 225.77 83.6699 220.155 76.6226 220.254L76.3921 206.331C91.1123 206.101 103.264 217.889 103.494 232.6Z" fill="#D2D9E0"/>
<path d="M79.6497 261.89C62.4596 262.153 48.7273 248.854 48.4639 231.615L64.7319 231.353C64.8636 239.595 71.1534 244.783 79.3862 244.651L79.6497 261.89Z" fill="#F5F5F5"/>
<path d="M59.5445 40.4978H65.4154V25.8629H69.5012L69.9376 20.9582H65.4154C65.4154 20.9582 65.4154 19.0992 65.4154 18.1499C65.4154 17.0029 65.6534 16.5282 66.7641 16.5282C67.6765 16.5282 69.9376 16.5282 69.9376 16.5282V11.4258C69.9376 11.4258 66.6054 11.4258 65.8914 11.4258C61.5279 11.4258 59.5445 13.3639 59.5445 17.0424C59.5445 20.2463 59.5445 20.9582 59.5445 20.9582H56.49V25.9024H59.5445V40.4978Z" fill="#EBEBEB"/>
<path d="M103.332 95.3433H51.1281C43.4721 95.3433 37.2441 101.553 37.2441 109.187V140.632C37.2441 148.266 43.4721 154.476 51.1281 154.476H70.2879L77.2299 164.444L84.1718 154.476H103.332C110.988 154.476 117.216 148.266 117.216 140.632V109.187C117.216 101.553 110.988 95.3433 103.332 95.3433Z" fill="white"/>
<path d="M103.33 95.343C103.33 95.343 103.965 95.3034 105.115 95.4221C106.306 95.5407 108.091 95.9363 110.114 97.0042C111.105 97.5975 112.137 98.3095 113.168 99.2983C114.16 100.287 115.112 101.513 115.866 102.977C116.58 104.44 117.135 106.181 117.294 108.04C117.413 109.938 117.333 111.876 117.373 113.973C117.373 118.165 117.373 122.754 117.413 127.698C117.413 130.203 117.413 132.787 117.413 135.45C117.413 136.795 117.413 138.153 117.413 139.525C117.452 140.909 117.373 142.333 117.056 143.757C116.421 146.565 114.874 149.294 112.573 151.272C110.233 153.25 107.178 154.594 103.965 154.674C97.6181 154.753 91.0332 154.713 84.1706 154.753L84.4086 154.634C82.2268 157.759 79.8467 161.16 77.4666 164.602L77.2286 164.918L76.9906 164.602C74.8088 161.437 72.4287 158.075 70.0486 154.634L70.2866 154.753C65.8438 154.753 61.1232 154.753 56.363 154.753C55.2259 154.753 54.0887 154.753 52.9515 154.753C51.8408 154.753 50.6904 154.753 49.5401 154.634C47.2393 154.397 45.0179 153.566 43.1534 152.3C41.289 150.995 39.742 149.294 38.6709 147.317C37.6395 145.339 37.0445 143.163 37.0048 140.948C37.0048 132.365 37.0048 124.059 37.0048 116.148C37.0048 114.171 37.0048 112.219 37.0048 110.294C36.9652 108.356 37.1635 106.378 37.7982 104.599C39.0676 100.999 41.7651 98.0722 45.0179 96.5296C46.6046 95.7781 48.35 95.3034 50.0557 95.1848C51.8012 95.0661 53.4672 95.1452 55.0936 95.1452C58.3729 95.1452 61.5067 95.1452 64.495 95.1452C76.4749 95.1848 86.1936 95.2243 92.8976 95.2639C96.2694 95.2639 98.8479 95.3034 100.633 95.3034C101.506 95.3034 102.18 95.3166 102.656 95.343C103.092 95.343 103.33 95.343 103.33 95.343C103.33 95.343 103.092 95.3825 102.656 95.3825C102.18 95.3825 101.506 95.3957 100.633 95.4221C98.8479 95.4221 96.2694 95.4616 92.8976 95.4616C86.1936 95.5012 76.4749 95.5012 64.495 95.5407C61.5067 95.5671 58.3729 95.5803 55.0936 95.5803C53.4672 95.5803 51.7615 95.5407 50.0954 95.6199C48.4293 95.7781 46.7633 96.2132 45.2162 96.9647C42.0824 98.4282 39.4643 101.276 38.2742 104.757C37.6395 106.497 37.4809 108.356 37.5205 110.294C37.5205 112.219 37.5205 114.171 37.5205 116.148C37.5205 124.059 37.5205 132.326 37.5602 140.948C37.5999 143.045 38.1552 145.181 39.1469 147.079C40.1783 148.938 41.6857 150.6 43.4708 151.826C45.2955 153.052 47.398 153.843 49.5797 154.08C50.6904 154.199 51.8012 154.199 52.9515 154.199C54.0887 154.199 55.2259 154.199 56.363 154.199C61.1232 154.199 65.8438 154.199 70.2866 154.199H70.4056L70.485 154.318C72.9047 157.759 75.2452 161.121 77.4666 164.325H76.9906C79.4104 160.844 81.7508 157.482 83.9722 154.318L84.0516 154.199H84.1706C91.0332 154.199 97.6578 154.238 103.965 154.199C107.059 154.08 109.995 152.815 112.256 150.916C114.517 148.978 115.985 146.367 116.619 143.638C116.937 142.293 117.016 140.909 116.976 139.525C116.976 138.153 116.976 136.795 116.976 135.45C116.976 132.787 116.99 130.203 117.016 127.698C117.016 122.754 117.016 118.165 117.016 113.973C117.016 111.916 117.095 109.899 116.976 108.079C116.857 106.22 116.342 104.519 115.628 103.096C114.914 101.632 113.962 100.445 113.009 99.4566C112.018 98.4677 110.986 97.7558 109.995 97.1625C108.011 96.0945 106.306 95.6594 105.115 95.5407C104.52 95.4221 104.084 95.4616 103.767 95.4221C103.476 95.3957 103.33 95.3693 103.33 95.343Z" fill="#E0E0E0"/>
<path d="M66.477 125.72C66.477 128.172 64.4539 130.19 61.9945 130.19C59.4954 130.19 57.512 128.172 57.512 125.72C57.512 123.228 59.4954 121.25 61.9945 121.25C64.4539 121.25 66.477 123.228 66.477 125.72Z" fill="#E0E0E0"/>
<path d="M81.2341 125.72C81.2341 128.172 79.2507 130.19 76.7516 130.19C74.2921 130.19 72.269 128.172 72.269 125.72C72.269 123.228 74.2921 121.25 76.7516 121.25C79.2507 121.25 81.2341 123.228 81.2341 125.72Z" fill="#E0E0E0"/>
<path d="M96.0308 125.72C96.0308 128.172 94.0078 130.19 91.5483 130.19C89.0492 130.19 87.0261 128.172 87.0261 125.72C87.0261 123.228 89.0492 121.25 91.5483 121.25C94.0078 121.25 96.0308 123.228 96.0308 125.72Z" fill="#E0E0E0"/>
<path d="M462.341 259.128L460.437 252.76C462.5 249.398 463.73 245.442 463.73 241.21C463.73 229.028 453.813 219.139 441.595 219.139C429.377 219.139 419.46 229.028 419.46 241.21C419.46 253.393 429.377 263.281 441.595 263.281C446.672 263.281 451.393 261.541 455.122 258.653L462.341 259.128Z" fill="#FAFAFA"/>
<path d="M462.34 259.128C462.34 259.128 462.194 259.115 461.903 259.089C461.56 259.089 461.097 259.075 460.515 259.049C459.285 258.97 457.461 258.891 455.12 258.772C455.041 258.772 455.001 258.733 455.041 258.653C455.041 258.627 455.041 258.614 455.041 258.614L455.199 258.733C452.938 260.473 449.606 262.411 445.203 263.123C443.021 263.519 440.601 263.519 438.102 263.163C435.564 262.767 432.985 261.897 430.486 260.512C428.027 259.128 425.726 257.15 423.822 254.698C421.957 252.246 420.529 249.279 419.776 246.075C418.268 239.628 419.895 232.034 424.774 226.575C427.194 223.807 430.248 221.631 433.58 220.405C436.912 219.139 440.443 218.704 443.775 219.06C447.147 219.377 450.281 220.484 452.978 222.066C455.675 223.688 457.897 225.784 459.603 228.118C462.974 232.746 464.125 238.085 463.807 242.476C463.53 246.946 462.022 250.426 460.515 252.799V252.76C461.11 254.817 461.586 256.399 461.903 257.506C462.036 258.034 462.141 258.442 462.221 258.733C462.3 258.996 462.34 259.128 462.34 259.128C462.34 259.128 462.3 258.97 462.181 258.693C462.102 258.403 461.983 257.994 461.824 257.467C461.467 256.399 460.991 254.817 460.356 252.799C460.356 252.773 460.356 252.747 460.356 252.72C461.824 250.347 463.292 246.866 463.53 242.476C463.807 238.125 462.657 232.904 459.285 228.316C457.619 226.061 455.437 224.004 452.78 222.422C450.122 220.88 447.028 219.772 443.735 219.456C440.482 219.139 436.992 219.574 433.739 220.84C430.486 222.027 427.471 224.123 425.091 226.852C420.331 232.232 418.705 239.668 420.212 245.996C420.926 249.161 422.314 252.048 424.179 254.461C426.004 256.873 428.265 258.812 430.684 260.196C433.104 261.58 435.683 262.411 438.142 262.807C440.601 263.202 443.021 263.202 445.163 262.846C449.487 262.134 452.819 260.275 455.08 258.574C455.12 258.535 455.16 258.574 455.199 258.614C455.239 258.614 455.239 258.693 455.199 258.733L455.12 258.574C457.447 258.733 459.232 258.864 460.475 258.97C461.057 259.023 461.52 259.062 461.864 259.089C462.181 259.089 462.34 259.128 462.34 259.128Z" fill="#263238"/>
<path d="M435.311 241.21C435.311 242.436 434.32 243.425 433.09 243.425C431.821 243.425 430.829 242.436 430.829 241.21C430.829 239.984 431.821 238.956 433.09 238.956C434.32 238.956 435.311 239.984 435.311 241.21Z" fill="#263238"/>
<path d="M444.332 241.209C444.332 242.436 443.34 243.424 442.111 243.424C440.841 243.424 439.85 242.436 439.85 241.209C439.85 239.983 440.841 238.955 442.111 238.955C443.34 238.955 444.332 239.983 444.332 241.209Z" fill="#263238"/>
<path d="M453.329 240.063C453.924 241.17 453.567 242.515 452.496 243.148C451.425 243.781 450.036 243.385 449.402 242.317C448.807 241.249 449.164 239.865 450.235 239.272C451.306 238.639 452.694 238.995 453.329 240.063Z" fill="#263238"/>
<path d="M205.572 78.6856C195.447 78.6856 187.224 70.4894 187.224 60.3379C187.224 50.2132 195.447 41.9902 205.572 41.9902C215.724 41.9902 223.92 50.2132 223.92 60.3379C223.92 70.4894 215.724 78.6856 205.572 78.6856Z" fill="#D2D9E0"/>
<path d="M197.242 68.534H201.045V56.2397H197.242V68.534Z" fill="white"/>
<path d="M199.144 54.6594C200.376 54.6594 201.394 53.6416 201.394 52.3827C201.394 51.1238 200.376 50.106 199.144 50.106C197.885 50.106 196.894 51.1238 196.894 52.3827C196.894 53.6416 197.885 54.6594 199.144 54.6594Z" fill="white"/>
<path d="M207.126 62.0789C207.126 60.3647 207.929 59.3201 209.429 59.3201C210.822 59.3201 211.518 60.3111 211.518 62.0789C211.518 63.8467 211.518 68.5341 211.518 68.5341H215.295C215.295 68.5341 215.295 64.0342 215.295 60.7665C215.295 57.4719 213.42 55.8916 210.822 55.8916C208.224 55.8916 207.126 57.9005 207.126 57.9005V56.2398H203.483V68.5341H207.126C207.126 68.5341 207.126 63.9806 207.126 62.0789Z" fill="white"/>
<path d="M230.161 23.8032L232.678 28.3834L237.285 30.9012L232.678 33.419L230.161 37.9992L227.67 33.419L223.062 30.9012L227.67 28.3834L230.161 23.8032Z" fill="#D2D9E0" fill-opacity="0.5"/>
<path d="M334.97 148.273L336.872 151.728L340.3 153.603L336.872 155.505L334.97 158.96L333.095 155.505L329.64 153.603L333.095 151.728L334.97 148.273Z" fill="#D2D9E0"/>
<path d="M340.3 131.264L341.157 132.818L342.711 133.675L341.157 134.532L340.3 136.086L339.47 134.532L337.916 133.675L339.47 132.818L340.3 131.264Z" fill="#E0E0E0"/>
<path d="M212.215 25.5176L213.072 27.0711L214.625 27.9282L213.072 28.7853L212.215 30.3389L211.384 28.7853L209.804 27.9282L211.384 27.0711L212.215 25.5176Z" fill="#D2D9E0" fill-opacity="0.5"/>
<path d="M169.6 169.969C171.501 169.138 172.841 167.129 172.841 164.799C172.814 161.719 170.457 159.255 167.564 159.281C164.698 159.308 162.395 161.799 162.421 164.88C162.421 167.237 163.841 169.245 165.796 170.022C157.788 171.335 158.27 180.04 158.27 180.04L177.233 179.879C177.233 179.879 177.555 171.067 169.6 169.969Z" fill="#D2D9E0"/>
<path d="M351.469 227.396C351.202 226.03 349.835 224.958 348.469 225.012C347.077 225.065 345.818 226.19 345.63 227.556C345.443 226.19 344.184 225.065 342.791 225.038C341.398 224.985 340.086 226.083 339.818 227.449C339.63 228.44 339.979 229.458 340.541 230.315C341.104 231.145 341.854 231.842 342.604 232.511C343.675 233.449 344.666 234.333 345.711 235.297C346.755 234.333 347.666 233.449 348.711 232.485C349.461 231.815 350.21 231.119 350.773 230.262C351.335 229.431 351.657 228.387 351.469 227.396Z" fill="#D2D9E0"/>
<path d="M363.817 114.47L365.853 114.068L369.04 106.997L368.237 102.953C368.237 102.953 371.344 102.149 372.04 107.533C372.71 112.917 372.844 111.47 372.844 111.47C372.844 111.47 379.513 110.185 380.183 110.64C380.665 110.988 382.165 117.577 382.942 121.166C383.344 122.961 382.567 124.863 380.987 125.613C380.754 125.72 380.513 125.8 380.263 125.854C378.603 126.175 369.844 126.523 369.844 126.523L366.335 127.22L363.817 114.47Z" fill="#D2D9E0"/>
<path d="M357.764 114.524L361.782 128.157L365.264 127.461L362.558 113.854L357.764 114.524Z" fill="#D2D9E0"/>
<path d="M384.576 262.403C384.576 262.484 331.461 262.564 265.945 262.564C200.402 262.564 147.288 262.484 147.288 262.403C147.288 262.35 200.402 262.269 265.945 262.269C331.461 262.269 384.576 262.35 384.576 262.403Z" fill="#263238"/>
<path d="M343.327 109.113C332.506 114.363 319.488 109.863 314.212 99.0687C308.962 88.2476 313.462 75.2302 324.283 69.9535C335.077 64.7037 348.121 69.2035 353.371 80.0247C358.621 90.819 354.121 103.863 343.327 109.113Z" fill="#D90452"/>
<path d="M328.408 94.4081C328.783 94.3813 328.997 94.1402 328.916 93.7385C328.863 93.4706 328.729 92.8278 328.675 92.5331C328.595 92.1581 328.515 92.051 328.113 91.8903C327.283 91.5153 326.533 90.8725 325.97 89.6939C324.336 86.319 325.381 82.087 329.425 80.1049C333.015 78.3639 336.041 79.596 337.488 82.5156C339.336 86.3726 339.229 90.4439 336.684 91.676C335.291 92.3724 333.684 91.7028 333.336 90.1225C332.907 88.2475 332.8 86.0512 332.211 84.8191C331.675 83.7209 330.658 83.1048 329.425 83.6941C328.006 84.3905 327.577 86.4262 328.541 88.4083C329.158 89.6671 329.988 90.31 329.988 90.31C329.988 90.31 331.541 97.2205 331.809 98.4258C332.345 100.836 334.086 103.274 334.247 103.515C334.354 103.649 334.568 103.595 334.595 103.435C334.648 103.194 335.318 100.274 334.89 97.8901C334.756 97.2205 334.032 93.7652 334.032 93.7652C334.943 94.4349 336.657 94.542 338.104 93.8456C342.389 91.7564 343.407 86.4262 340.863 81.1763C338.934 77.2389 333.791 75.1765 328.702 77.6407C322.354 80.7478 321.363 86.8279 323.211 90.6314C324.309 92.9349 326.184 94.542 328.408 94.4081Z" fill="white"/>
<path d="M365.049 170.504C357.308 167.558 353.425 158.879 356.398 151.139C359.344 143.371 368.022 139.514 375.763 142.46C383.504 145.433 387.388 154.085 384.442 161.853C381.468 169.593 372.79 173.477 365.049 170.504Z" fill="#D90452"/>
<path fill-rule="evenodd" clip-rule="evenodd" d="M378.174 159.228C376.594 163.353 371.933 165.442 367.755 163.835C366.442 163.326 365.317 162.522 364.487 161.504L359.773 161.237L362.692 157.728C362.424 156.335 362.532 154.862 363.067 153.442C363.121 153.335 363.165 153.228 363.201 153.121C364.915 149.21 369.442 147.282 373.487 148.835C377.611 150.415 379.701 154.942 378.254 159.04C378.236 159.094 378.21 159.156 378.174 159.228ZM376.969 158.772C377.04 158.594 377.103 158.424 377.156 158.263C378.12 154.915 376.379 151.326 373.031 150.041C369.737 148.782 366.067 150.255 364.54 153.308C364.451 153.505 364.362 153.71 364.273 153.924C363.764 155.29 363.71 156.737 364.085 158.076L362.398 160.112L365.13 160.272C365.88 161.317 366.924 162.147 368.21 162.629C371.719 163.969 375.656 162.228 376.969 158.772Z" fill="white"/>
<path d="M373.513 159.174C373.353 159.014 372.629 158.21 372.469 158.103C372.335 157.969 372.228 157.889 372.013 158.023C371.826 158.156 371.317 158.451 371.156 158.531C370.995 158.612 370.888 158.585 370.754 158.424C370.594 158.237 370.058 157.835 369.603 156.924C369.228 156.228 369.094 155.505 369.067 155.264C369.013 155.049 369.147 154.969 369.281 154.915C369.388 154.862 369.549 154.782 369.683 154.701C369.719 154.683 369.754 154.665 369.79 154.648C369.844 154.594 369.897 154.54 369.978 154.46C370.085 154.38 370.112 154.246 370.085 154.139C370.085 154.032 370.058 152.987 370.031 152.558C370.031 152.13 369.844 152.13 369.737 152.103C369.629 152.049 369.522 151.996 369.388 151.942C369.281 151.889 369.04 151.862 368.799 151.996C368.585 152.103 367.915 152.371 367.567 153.282C367.487 153.496 367.46 153.71 367.433 153.924C367.38 154.648 367.567 155.344 367.621 155.451C367.647 155.612 368.103 157.996 369.71 159.442C371.317 160.888 371.397 160.647 371.772 160.755C372.12 160.862 373.031 160.728 373.353 160.353C373.674 159.978 373.808 159.63 373.781 159.522C373.754 159.442 373.674 159.335 373.513 159.174Z" fill="white"/>
<path d="M169.868 101.131C163.546 101.131 158.404 95.9884 158.404 89.6671C158.404 83.3459 163.546 78.23 169.868 78.23C176.189 78.23 181.305 83.3459 181.305 89.6671C181.305 95.9884 176.189 101.131 169.868 101.131Z" fill="#D90452"/>
<path d="M163.76 93.5242C164.859 94.2206 166.171 94.6223 167.591 94.6223C172.251 94.6223 174.876 90.7117 174.716 87.2029C175.198 86.8279 175.626 86.3994 175.948 85.8904C175.501 86.0869 175.028 86.2208 174.528 86.2922C175.037 85.9708 175.439 85.4887 175.626 84.8994C175.144 85.194 174.608 85.4083 174.019 85.5155C173.564 85.0333 172.921 84.7119 172.198 84.7119C170.591 84.7119 169.412 86.2387 169.76 87.7922C167.698 87.685 165.85 86.694 164.618 85.1673C163.948 86.2922 164.269 87.7654 165.394 88.5154C164.966 88.5154 164.591 88.4082 164.243 88.2207C164.216 89.3725 165.046 90.4439 166.251 90.6849C165.903 90.7921 165.528 90.8189 165.127 90.7385C165.448 91.7296 166.359 92.4528 167.457 92.4795C166.412 93.3099 165.073 93.6581 163.76 93.5242Z" fill="white"/>
<path d="M190.438 229.351C179.831 231.869 169.198 225.333 166.68 214.753C164.162 204.146 170.698 193.512 181.278 190.995C191.885 188.477 202.518 195.012 205.036 205.619C207.554 216.199 201.018 226.833 190.438 229.351Z" fill="#740646"/>
<path fill-rule="evenodd" clip-rule="evenodd" d="M187.706 198.682C188.831 198.468 189.635 198.468 190.385 198.575C191.135 198.682 191.804 198.896 192.528 199.352C193.251 199.78 193.76 200.289 194.188 200.905C194.59 201.521 194.965 202.244 195.286 203.342C195.608 204.467 195.688 204.816 196.385 207.682C197.054 210.521 197.135 210.896 197.349 212.021C197.563 213.146 197.563 213.949 197.456 214.699C197.349 215.449 197.135 216.119 196.706 216.842C196.251 217.565 195.742 218.074 195.126 218.503C194.51 218.931 193.787 219.28 192.688 219.601C191.563 219.922 191.215 220.003 188.376 220.699C185.51 221.369 185.135 221.449 184.01 221.663C182.885 221.878 182.082 221.878 181.358 221.771C180.582 221.69 179.912 221.449 179.189 221.021C178.466 220.565 177.983 220.056 177.528 219.44C177.126 218.824 176.751 218.101 176.43 217.003C176.108 215.905 176.028 215.53 175.332 212.69C174.662 209.824 174.582 209.476 174.367 208.324C174.153 207.2 174.153 206.396 174.26 205.673C174.367 204.896 174.582 204.226 175.037 203.503C175.466 202.78 175.975 202.298 176.591 201.869C177.207 201.441 177.93 201.066 179.028 200.771C180.153 200.45 180.501 200.343 183.367 199.673C186.206 198.977 186.581 198.923 187.706 198.682ZM179.564 202.619C178.546 202.914 178.037 203.235 177.716 203.45C177.26 203.771 176.966 204.066 176.671 204.521C176.403 204.976 176.269 205.405 176.189 205.941C176.135 206.342 176.082 206.932 176.296 207.976C176.51 209.101 176.564 209.423 177.233 212.235C177.903 215.047 178.01 215.369 178.305 216.467C178.599 217.485 178.894 217.994 179.135 218.342C179.457 218.771 179.751 219.065 180.207 219.36C180.662 219.628 181.064 219.788 181.599 219.842C182.028 219.922 182.617 219.949 183.662 219.762C184.76 219.547 185.108 219.467 187.921 218.797C190.733 218.128 191.054 218.047 192.153 217.726C193.17 217.431 193.679 217.137 194.028 216.896C194.456 216.601 194.751 216.28 195.045 215.824C195.313 215.369 195.474 214.967 195.528 214.431C195.581 214.03 195.635 213.414 195.42 212.396C195.206 211.271 195.153 210.923 194.483 208.137C193.813 205.325 193.733 204.976 193.412 203.878C193.117 202.887 192.822 202.351 192.581 202.03C192.26 201.575 191.965 201.28 191.51 201.012C191.054 200.718 190.653 200.584 190.117 200.503C189.715 200.45 189.099 200.396 188.081 200.61C186.956 200.825 186.608 200.878 183.796 201.548C181.01 202.218 180.662 202.325 179.564 202.619Z" fill="white"/>
<path fill-rule="evenodd" clip-rule="evenodd" d="M191.269 208.887C191.965 211.887 190.117 214.86 187.144 215.583C184.171 216.28 181.171 214.458 180.448 211.458C179.751 208.485 181.599 205.485 184.572 204.789C187.546 204.066 190.546 205.914 191.269 208.887ZM189.367 209.342C188.912 207.414 186.956 206.209 185.028 206.664C183.099 207.146 181.894 209.075 182.349 211.003C182.805 212.958 184.76 214.137 186.688 213.682C188.644 213.226 189.822 211.271 189.367 209.342Z" fill="white"/>
<path d="M191.403 202.941C191.563 203.637 191.135 204.333 190.438 204.494C189.742 204.655 189.046 204.226 188.885 203.53C188.697 202.833 189.126 202.137 189.822 201.976C190.546 201.789 191.242 202.217 191.403 202.941Z" fill="white"/>
<path d="M339.764 211.994C334.702 211.994 330.577 207.896 330.577 202.807C330.577 197.745 334.702 193.62 339.764 193.62C344.854 193.62 348.952 197.745 348.952 202.807C348.952 207.896 344.854 211.994 339.764 211.994Z" fill="#740646"/>
<path d="M338.372 208.378H340.595V202.753H342.175L342.336 200.878H340.595C340.595 200.878 340.595 200.182 340.595 199.807C340.595 199.378 340.702 199.191 341.131 199.191C341.479 199.191 342.336 199.191 342.336 199.191V197.262C342.336 197.262 341.05 197.262 340.782 197.262C339.122 197.262 338.372 197.986 338.372 199.378C338.372 200.611 338.372 200.878 338.372 200.878H337.193V202.78H338.372V208.378Z" fill="white"/>
<path d="M308.399 262.805L234.553 262.752C225.66 262.752 218.455 255.546 218.455 246.654L218.509 61.4896C218.509 52.597 225.714 45.3918 234.607 45.3918L308.453 45.4454C317.345 45.4454 324.55 52.6506 324.55 61.5432L324.497 246.707C324.497 255.6 317.292 262.805 308.399 262.805Z" fill="#100E0F"/>
<path d="M308.399 51.9809H294.069C292.141 51.9809 290.587 53.6148 290.587 55.6236V58.2218C290.587 60.2306 289.034 61.8377 287.105 61.8377H259.195C257.267 61.8377 255.713 60.2039 255.713 58.195V55.5969C255.713 53.588 254.16 51.9541 252.231 51.9541H247.196H234.66C228.446 51.9541 223.384 56.9897 223.384 63.2038L223.357 243.975C223.357 250.189 228.392 255.225 234.607 255.225L308.346 255.279C314.56 255.279 319.622 250.243 319.622 244.002L319.649 63.2573C319.649 57.0432 314.613 51.9809 308.399 51.9809Z" fill="white"/>
<path d="M309.47 66.6859C309.47 66.7127 307.596 66.7663 305.319 66.793C303.015 66.8198 301.14 66.793 301.14 66.7395C301.14 66.6859 303.015 66.6323 305.292 66.6323C307.596 66.6055 309.47 66.6323 309.47 66.6859Z" fill="#100E0F"/>
<path d="M309.471 68.8019C309.471 68.8554 307.622 68.909 305.319 68.9358C303.015 68.9358 301.167 68.909 301.167 68.8822C301.167 68.8287 303.015 68.7751 305.319 68.7483C307.622 68.7215 309.471 68.7483 309.471 68.8019Z" fill="#100E0F"/>
<path d="M309.497 70.9178C309.497 70.9714 307.649 71.025 305.346 71.0518C303.042 71.0785 301.194 71.0518 301.167 70.9982C301.167 70.9446 303.042 70.891 305.346 70.8643C307.649 70.8643 309.497 70.891 309.497 70.9178Z" fill="#100E0F"/>
<path d="M231.124 73.007C231.142 73.007 231.223 72.9981 231.366 72.9802C231.526 72.9802 231.723 72.9802 231.955 72.9802C232.526 72.9624 233.276 72.9445 234.205 72.9267L234.124 72.9802C234.124 72.4803 234.115 71.9356 234.098 71.3464C234.124 71.0517 234.071 70.7839 234.124 70.4357C234.178 70.0875 234.473 69.7661 234.874 69.7393C235.223 69.7393 235.544 69.7125 235.946 69.7393C236.348 69.7661 236.669 70.1678 236.669 70.5964C236.669 71.3464 236.678 72.1321 236.696 72.9535L236.589 72.8463C237.499 72.8463 238.446 72.8374 239.428 72.8195L239.321 72.9267C239.303 71.8017 239.285 70.6321 239.267 69.4179C239.267 69.1143 239.267 68.8197 239.267 68.5339C239.267 68.2393 239.106 68.0518 238.865 67.8643C238.455 67.4536 238.044 67.0429 237.633 66.6322C237.24 66.2394 236.848 65.8465 236.455 65.4537C236.258 65.2751 236.062 65.0876 235.865 64.8912C235.678 64.7037 235.517 64.5162 235.276 64.4626C235.062 64.4091 234.821 64.4359 234.633 64.5698C234.473 64.7305 234.285 64.918 234.124 65.1055C233.767 65.4448 233.428 65.784 233.107 66.1233C232.464 66.7929 231.794 67.3822 231.312 67.9715C231.098 68.2661 231.178 68.6679 231.178 69.0161C231.178 69.3732 231.178 69.7036 231.178 70.0071C231.16 70.6142 231.151 71.1499 231.151 71.6142C231.151 72.0249 231.151 72.3642 231.151 72.632C231.151 72.882 231.142 73.007 231.124 73.007C231.124 73.007 231.124 72.891 231.124 72.6588C231.107 72.391 231.098 72.0606 231.098 71.6678C231.08 71.2035 231.062 70.6589 231.044 70.0339C231.044 69.7125 231.044 69.3732 231.044 69.0161C231.026 68.8375 231.017 68.6589 231.017 68.4804C231.017 68.2661 231.071 68.0518 231.178 67.8911C231.714 67.2483 232.33 66.6858 232.973 65.9894C233.294 65.6501 233.624 65.3108 233.964 64.9716C234.151 64.7841 234.312 64.5966 234.526 64.4091C234.74 64.2484 235.062 64.1948 235.33 64.2484C235.624 64.3287 235.839 64.5698 236.026 64.7573C236.205 64.9358 236.392 65.1233 236.589 65.3198C236.981 65.6947 237.383 66.0876 237.794 66.4983C238.205 66.8911 238.615 67.2929 239.026 67.7036C239.133 67.8108 239.24 67.8911 239.347 68.0518C239.428 68.1857 239.481 68.3465 239.481 68.5072C239.481 68.8107 239.49 69.1143 239.508 69.4179C239.508 70.6321 239.517 71.8017 239.535 72.9267V73.0338H239.428C238.446 73.0517 237.499 73.0606 236.589 73.0606H236.481V72.9535C236.481 72.1321 236.481 71.3464 236.481 70.5964C236.481 70.2482 236.214 69.9535 235.919 69.9C235.571 69.9 235.196 69.9 234.874 69.9C234.58 69.9268 234.312 70.1678 234.285 70.4625C234.258 70.7303 234.258 71.0785 234.258 71.3464C234.258 71.9356 234.258 72.4803 234.258 72.9802V73.0338H234.205C233.258 73.0338 232.499 73.0338 231.928 73.0338C231.696 73.0338 231.499 73.0249 231.339 73.007C231.196 73.007 231.124 73.007 231.124 73.007Z" fill="#100E0F"/>
<path d="M279.873 214.244C279.873 214.271 279.578 214.298 279.096 214.298C278.543 214.315 277.837 214.333 276.98 214.351C275.186 214.378 272.722 214.378 270.016 214.378C267.284 214.378 264.82 214.378 263.052 214.351C262.195 214.333 261.49 214.315 260.936 214.298C260.454 214.298 260.159 214.271 260.159 214.244C260.159 214.217 260.454 214.217 260.936 214.19C261.49 214.173 262.195 214.155 263.052 214.137C264.82 214.137 267.284 214.11 270.016 214.11C272.722 214.11 275.186 214.137 276.98 214.137C277.837 214.155 278.543 214.173 279.096 214.19C279.578 214.217 279.873 214.217 279.873 214.244Z" fill="#455A64"/>
<path d="M310.81 219.092C310.81 219.173 299.48 219.226 285.498 219.226C271.516 219.226 260.159 219.173 260.159 219.092C260.159 219.012 271.516 218.958 285.498 218.958C299.48 218.958 310.81 219.012 310.81 219.092Z" fill="#455A64"/>
<path d="M294.98 223.646C294.98 223.726 287.185 223.78 277.57 223.78C267.954 223.78 260.159 223.726 260.159 223.646C260.159 223.565 267.954 223.512 277.57 223.512C287.185 223.512 294.98 223.565 294.98 223.646Z" fill="#455A64"/>
<path fill-rule="evenodd" clip-rule="evenodd" d="M311.828 232.538L310.247 230.958L308.747 232.431V227.931H311.828V232.538ZM310.247 230.77L310.301 230.797L311.694 232.19V228.065H308.908V232.11L310.247 230.77Z" fill="#100E0F"/>
<path fill-rule="evenodd" clip-rule="evenodd" d="M269.909 231.949L269.347 231.681C269.097 231.824 268.865 231.895 268.65 231.895C267.793 231.922 267.097 231.226 267.097 230.368C267.07 229.538 267.766 228.842 268.623 228.815C269.454 228.815 270.15 229.511 270.177 230.342C270.177 230.743 270.043 231.092 269.775 231.386L269.909 231.949ZM268.623 228.949C267.82 228.949 267.177 229.592 267.204 230.395C267.204 231.172 267.847 231.815 268.65 231.815C268.847 231.815 269.079 231.743 269.347 231.601V231.574L269.775 231.761L269.668 231.36L269.695 231.333C269.936 231.065 270.07 230.717 270.07 230.368C270.07 229.565 269.4 228.922 268.623 228.949Z" fill="#100E0F"/>
<path fill-rule="evenodd" clip-rule="evenodd" d="M273.472 231.708L272.855 230.154L271.65 229.056L274.543 229.029L273.472 231.708ZM271.918 229.163L272.936 230.101L273.472 231.44L274.382 229.163H271.918Z" fill="#100E0F"/>
<path d="M272.963 230.154L272.909 230.074L274.489 229.029L274.543 229.136L272.963 230.154Z" fill="#100E0F"/>
<path d="M265.356 229.377C265.275 228.976 264.874 228.654 264.445 228.654C264.016 228.681 263.641 229.029 263.588 229.431C263.534 229.029 263.133 228.681 262.731 228.681C262.302 228.654 261.9 229.003 261.82 229.404C261.767 229.726 261.874 230.02 262.034 230.288C262.222 230.529 262.436 230.744 262.677 230.958C262.999 231.226 263.293 231.494 263.615 231.788C263.936 231.494 264.204 231.226 264.525 230.931C264.766 230.717 264.981 230.502 265.141 230.261C265.329 229.994 265.409 229.672 265.356 229.377Z" fill="#D90452"/>
<path d="M315.042 236.529C315.042 236.529 315.042 236.342 315.042 236.02C315.042 235.681 315.042 235.19 315.042 234.547C315.015 233.261 315.015 231.36 315.015 228.895C314.988 223.967 314.988 216.815 314.961 207.816L315.042 207.923C294.444 207.923 263.668 207.949 229.384 207.976L229.518 207.816C229.518 217.806 229.518 227.476 229.518 236.529L229.384 236.395C254.026 236.422 275.427 236.422 290.668 236.449C298.301 236.475 304.381 236.475 308.56 236.475C310.676 236.502 312.283 236.502 313.381 236.502C313.917 236.502 314.328 236.502 314.613 236.502C314.899 236.52 315.042 236.529 315.042 236.529C315.042 236.529 314.908 236.529 314.64 236.529C314.354 236.529 313.944 236.529 313.408 236.529C312.31 236.556 310.703 236.556 308.64 236.556C304.462 236.556 298.382 236.583 290.775 236.583C275.507 236.609 254.079 236.636 229.384 236.663H229.25V236.529C229.25 227.476 229.25 217.806 229.223 207.816V207.682H229.384C263.668 207.708 294.444 207.735 315.042 207.735H315.149V207.816C315.122 216.842 315.095 224.02 315.095 228.949C315.069 231.413 315.069 233.288 315.069 234.6C315.069 235.225 315.069 235.708 315.069 236.047C315.051 236.368 315.042 236.529 315.042 236.529Z" fill="#100E0F"/>
<path d="M256.677 212.744L256.57 231.735L232.839 231.601L232.946 212.61L256.677 212.744Z" fill="#D2D9E0" fill-opacity="0.2"/>
<path d="M256.678 212.744C256.678 212.762 256.633 212.771 256.544 212.771C256.454 212.771 256.347 212.771 256.222 212.771C255.901 212.771 255.463 212.771 254.91 212.771C253.785 212.771 252.124 212.771 250.062 212.771C245.883 212.771 239.964 212.771 232.946 212.744L233.053 212.61C233.026 218.262 233 224.744 232.973 231.601C233 231.627 232.705 231.333 232.839 231.44H232.866H232.893L232.919 231.467H233.026H233.241H233.643H234.473C235.009 231.467 235.553 231.467 236.107 231.467C237.178 231.485 238.241 231.493 239.294 231.493C241.401 231.511 243.455 231.52 245.455 231.52C249.446 231.547 253.169 231.574 256.57 231.601L256.436 231.735C256.49 226.029 256.544 221.315 256.597 217.994C256.597 216.333 256.624 215.048 256.624 214.137C256.642 213.69 256.651 213.351 256.651 213.119C256.651 212.878 256.678 212.744 256.678 212.744C256.678 212.744 256.678 212.86 256.678 213.092C256.678 213.324 256.678 213.655 256.678 214.083C256.678 214.994 256.704 216.28 256.704 217.913C256.704 221.262 256.678 226.003 256.678 231.735V231.842H256.57C253.169 231.842 249.446 231.815 245.455 231.788C243.455 231.788 241.401 231.779 239.294 231.761C238.241 231.761 237.169 231.761 236.08 231.761C235.544 231.743 235.009 231.735 234.473 231.735H233.643H233.241H233.026H232.919H232.893H232.866H232.839C232.946 231.868 232.651 231.574 232.678 231.601C232.732 224.744 232.785 218.262 232.812 212.61V212.503H232.946C239.991 212.556 245.937 212.61 250.142 212.664C252.204 212.69 253.838 212.69 254.963 212.717C255.517 212.717 255.945 212.726 256.249 212.744C256.374 212.744 256.481 212.744 256.57 212.744C256.642 212.744 256.678 212.744 256.678 212.744Z" fill="#100E0F"/>
<path d="M233.643 230.395L255.713 230.529L255.821 213.949L233.75 213.815L233.643 230.395Z" fill="#D2D9E0" fill-opacity="0.2"/>
<path d="M233.643 230.395L241.41 220.137L246.151 226.619L249.419 223.19L255.713 230.529L233.643 230.395Z" fill="#D2D9E0"/>
<path d="M248.24 218.905C248.214 219.869 247.437 220.646 246.473 220.646C245.508 220.646 244.758 219.842 244.758 218.905C244.758 217.94 245.535 217.164 246.499 217.164C247.464 217.164 248.24 217.967 248.24 218.905Z" fill="#D2D9E0"/>
<path d="M272.963 89.6674C272.963 89.6852 272.873 89.6942 272.695 89.6942C272.498 89.712 272.257 89.7209 271.972 89.7209C271.302 89.7477 270.391 89.7477 269.293 89.7745C267.043 89.8013 263.936 89.8281 260.481 89.8281C257.052 89.8281 253.919 89.8013 251.669 89.7745C250.57 89.7477 249.66 89.7477 248.99 89.7209C248.704 89.7209 248.463 89.712 248.267 89.6942C248.106 89.6942 248.026 89.6852 248.026 89.6674C248.026 89.6674 248.106 89.6584 248.267 89.6406C248.463 89.6406 248.704 89.6317 248.99 89.6138C249.66 89.6138 250.57 89.587 251.669 89.587C253.919 89.5602 257.052 89.5334 260.481 89.5334C263.936 89.5334 267.043 89.5602 269.293 89.587C270.391 89.587 271.302 89.6138 271.972 89.6138C272.257 89.6317 272.498 89.6406 272.695 89.6406C272.873 89.6584 272.963 89.6674 272.963 89.6674Z" fill="#100E0F"/>
<path fill-rule="evenodd" clip-rule="evenodd" d="M308.024 194.557L305.667 192.2L303.444 194.423L303.471 187.727H308.024V194.557ZM305.694 191.906L305.747 191.986L307.81 194.048L307.837 187.941L303.685 187.915L303.658 193.941L305.694 191.906Z" fill="#100E0F"/>
<path fill-rule="evenodd" clip-rule="evenodd" d="M248.615 193.861L247.544 193.352C247.008 193.646 246.553 193.78 246.124 193.807C244.437 193.807 243.071 192.468 243.071 190.78C243.044 189.12 244.383 187.727 246.071 187.727C247.758 187.7 249.124 189.066 249.124 190.727C249.124 191.477 248.856 192.2 248.374 192.763L248.615 193.861ZM246.071 187.941C244.49 187.941 243.231 189.227 243.258 190.78C243.258 192.334 244.544 193.593 246.097 193.593C246.499 193.593 246.955 193.459 247.463 193.164L247.517 193.138L248.321 193.486L248.133 192.709L248.187 192.655C248.669 192.146 248.91 191.45 248.91 190.754C248.91 189.173 247.624 187.914 246.071 187.941Z" fill="#100E0F"/>
<path fill-rule="evenodd" clip-rule="evenodd" d="M255.66 193.379L254.401 190.325L252.044 188.182L257.749 188.129L255.66 193.379ZM252.606 188.397L254.588 190.218L255.66 192.843L257.454 188.343L252.606 188.397Z" fill="#100E0F"/>
<path d="M254.642 190.325L254.535 190.165L257.642 188.129L257.749 188.316L254.642 190.325Z" fill="#100E0F"/>
<path d="M239.669 188.825C239.508 188.022 238.678 187.379 237.874 187.406C237.044 187.432 236.294 188.129 236.187 188.932C236.053 188.129 235.303 187.459 234.473 187.432C233.642 187.406 232.866 188.075 232.705 188.879C232.598 189.468 232.812 190.084 233.133 190.593C233.482 191.102 233.937 191.504 234.392 191.905C235.035 192.468 235.598 193.004 236.24 193.539C236.857 192.977 237.392 192.441 238.035 191.879C238.464 191.477 238.919 191.048 239.267 190.539C239.589 190.031 239.776 189.414 239.669 188.825Z" fill="#D90452"/>
<path d="M243.017 89.6673C243.017 91.8101 241.276 93.5512 239.133 93.5512C237.017 93.5512 235.276 91.8101 235.276 89.6673C235.276 87.5513 237.017 85.8103 239.133 85.8103C241.276 85.8103 243.017 87.5513 243.017 89.6673Z" fill="#D2D9E0"/>
<path d="M306.551 172.379C306.551 172.46 290.346 172.513 270.365 172.513C250.356 172.513 234.151 172.46 234.151 172.379C234.151 172.299 250.356 172.245 270.365 172.245C290.346 172.245 306.551 172.299 306.551 172.379Z" fill="#455A64"/>
<path d="M306.551 166.353C306.551 166.433 290.346 166.487 270.365 166.487C250.356 166.487 234.151 166.433 234.151 166.353C234.151 166.272 250.356 166.219 270.365 166.219C290.346 166.219 306.551 166.272 306.551 166.353Z" fill="#455A64"/>
<path d="M273.552 178.486C273.552 178.567 264.74 178.62 253.865 178.62C242.964 178.62 234.151 178.567 234.151 178.486C234.151 178.406 242.964 178.352 253.865 178.352C264.74 178.352 273.552 178.406 273.552 178.486Z" fill="#455A64"/>
<path d="M268.704 244.19C268.704 245.047 268.007 245.743 267.15 245.743C266.293 245.743 265.624 245.02 265.624 244.163C265.624 243.306 266.32 242.609 267.177 242.609C268.007 242.609 268.704 243.333 268.704 244.19Z" fill="#100E0F"/>
<path d="M273.472 244.217C273.472 245.074 272.775 245.77 271.918 245.77C271.061 245.743 270.391 245.047 270.391 244.19C270.391 243.333 271.088 242.636 271.918 242.636C272.775 242.636 273.472 243.333 273.472 244.217Z" fill="#100E0F"/>
<path d="M278.239 244.217C278.212 245.101 277.543 245.797 276.686 245.77C275.829 245.77 275.159 245.074 275.159 244.217C275.159 243.359 275.855 242.663 276.686 242.663C277.543 242.663 278.239 243.359 278.239 244.217Z" fill="#100E0F"/>
<path d="M229.893 149.746L315.578 149.719L315.551 97.3279L229.893 97.3547V149.746Z" fill="#D2D9E0" fill-opacity="0.4"/>
<path d="M237.794 149.746L262.356 116.881L277.57 137.425L287.882 126.443L308.105 149.719L237.794 149.746Z" fill="#D2D9E0"/>
<path d="M284.025 112.836C284.025 115.89 281.534 118.381 278.481 118.381C275.427 118.381 272.936 115.917 272.936 112.836C272.936 109.783 275.427 107.319 278.481 107.319C281.534 107.319 284.025 109.783 284.025 112.836Z" fill="#D2D9E0"/>
<path d="M315.336 198.414C315.336 197.289 315.283 149.96 315.203 79.8908L315.336 80.0247C289.489 80.0247 260.374 80.0247 229.678 80.0247H229.652L229.785 79.8908C229.785 124.22 229.785 165.228 229.785 198.414L229.652 198.307C281.614 198.36 314.399 198.414 315.336 198.414C314.399 198.414 281.614 198.468 229.652 198.521H229.544V198.414C229.544 165.228 229.518 124.22 229.518 79.8908V79.7568H229.652H229.678C260.374 79.7568 289.489 79.7568 315.336 79.7836H315.47V79.8908C315.444 114.979 315.417 144.603 315.39 165.495C315.39 175.915 315.363 184.138 315.363 189.789C315.363 192.602 315.336 194.745 315.336 196.218C315.336 196.932 315.336 197.477 315.336 197.852C315.336 198.227 315.336 198.414 315.336 198.414Z" fill="#100E0F"/>
<path d="M350.398 37.7046L350.987 38.8028L352.086 39.4188L350.987 40.0081L350.398 41.1331L349.782 40.0081L348.684 39.4188L349.782 38.8028L350.398 37.7046Z" fill="#D90452"/>
<path d="M363.04 65.1055L363.63 66.2304L364.755 66.8197L363.63 67.4358L363.04 68.5339L362.424 67.4358L361.326 66.8197L362.424 66.2304L363.04 65.1055Z" fill="#D90452"/>
<path d="M160.359 138.255L160.975 139.353L162.073 139.969L160.975 140.559L160.359 141.657L159.743 140.559L158.645 139.969L159.743 139.353L160.359 138.255Z" fill="#D90452"/>
<path d="M333.791 44.5081L335.184 47.0794L337.756 48.4722L335.184 49.865L333.791 52.4096L332.399 49.865L329.854 48.4722L332.399 47.0794L333.791 44.5081Z" fill="#D90452"/>
<path d="M171.689 120.872L173.082 123.416L175.626 124.809L173.082 126.202L171.689 128.747L170.296 126.202L167.751 124.809L170.296 123.416L171.689 120.872Z" fill="#D90452"/>
<path d="M366.469 181.647L367.862 184.191L370.407 185.584L367.862 186.977L366.469 189.548L365.076 186.977L362.532 185.584L365.076 184.191L366.469 181.647Z" fill="#D90452"/>
</svg>
