<svg width="441" height="268" viewBox="0 0 441 268" fill="none" xmlns="http://www.w3.org/2000/svg">
<path fill-rule="evenodd" clip-rule="evenodd" d="M440.872 32.0296C441.11 45.8734 430.043 57.344 416.198 57.5418C402.354 57.7791 390.93 46.7041 390.731 32.8207C390.493 18.9769 401.561 7.54586 415.405 7.30854C429.21 7.07122 440.634 18.1858 440.872 32.0296ZM403.822 32.6229C403.901 39.268 409.375 44.5682 416 44.4495C422.585 44.3308 427.901 38.8724 427.782 32.2274C427.663 25.6219 422.228 20.3217 415.603 20.4404C408.979 20.5195 403.703 26.0175 403.822 32.6229Z" fill="#EBEBEB"/>
<path d="M440.868 32.0297C441.107 45.8736 430.039 57.3441 416.195 57.5419L415.996 44.4496C422.581 44.331 427.897 38.8725 427.778 32.2275C427.659 25.622 422.224 20.3218 415.6 20.4405L415.401 7.30866C429.206 7.07134 440.63 18.1859 440.868 32.0297Z" fill="#D2D9E0"/>
<path d="M418.454 59.5592C402.27 59.8361 389.377 47.2976 389.1 31.1201L404.412 30.8432C404.531 38.5957 410.441 43.5004 418.177 43.3817L418.454 59.5592Z" fill="#F5F5F5"/>
<path d="M407.451 131.016C409.752 132.479 412.489 133.349 415.425 133.349C425.104 133.349 430.578 125.201 430.26 117.884C431.292 117.172 432.165 116.262 432.839 115.194C431.927 115.629 430.935 115.906 429.864 116.025C430.935 115.392 431.768 114.364 432.165 113.137C431.133 113.731 430.022 114.166 428.832 114.403C427.88 113.414 426.532 112.781 425.024 112.781C421.692 112.781 419.193 115.906 419.947 119.15C415.623 118.952 411.775 116.856 409.236 113.731C407.848 116.064 408.522 119.11 410.823 120.653C409.99 120.613 409.157 120.415 408.483 120.02C408.403 122.433 410.149 124.687 412.648 125.162C411.934 125.36 411.101 125.399 410.307 125.241C410.942 127.337 412.886 128.84 415.187 128.88C412.965 130.581 410.228 131.332 407.451 131.016Z" fill="#EBEBEB"/>
<path fill-rule="evenodd" clip-rule="evenodd" d="M66.4956 221.6C66.7261 236.343 54.9697 248.493 40.2495 248.722C25.5622 248.985 13.4106 237.197 13.1801 222.454C12.9496 207.743 24.706 195.561 39.3933 195.331C54.1135 195.101 66.2651 206.889 66.4956 221.6ZM27.077 222.224C27.2088 229.284 33.0046 234.899 40.0519 234.8C47.0662 234.702 52.6975 228.857 52.5987 221.83C52.467 214.77 46.6711 209.155 39.6238 209.254C32.6095 209.385 26.9782 215.197 27.077 222.224Z" fill="#EBEBEB"/>
<path d="M66.4949 221.6C66.7254 236.343 54.969 248.493 40.2488 248.722L40.0512 234.8C47.0655 234.701 52.6968 228.857 52.598 221.83C52.4662 214.77 46.6704 209.155 39.6231 209.254L39.3926 195.331C54.1128 195.101 66.2644 206.889 66.4949 221.6Z" fill="#D2D9E0"/>
<path d="M42.6497 250.89C25.4596 251.153 11.7273 237.854 11.4639 220.615L27.7319 220.353C27.8636 228.595 34.1534 233.783 42.3862 233.651L42.6497 250.89Z" fill="#F5F5F5"/>
<path d="M22.5447 29.4978H28.4156V14.863H32.5015L32.9378 9.95828H28.4156C28.4156 9.95828 28.4156 8.09927 28.4156 7.14998C28.4156 6.00292 28.6536 5.52827 29.7643 5.52827C30.6767 5.52827 32.9378 5.52827 32.9378 5.52827V0.425842C32.9378 0.425842 29.6057 0.425842 28.8916 0.425842C24.5281 0.425842 22.5447 2.36397 22.5447 6.04246C22.5447 9.24632 22.5447 9.95828 22.5447 9.95828H19.4902V14.9025H22.5447V29.4978Z" fill="#EBEBEB"/>
<path d="M66.3317 84.3431H14.1281C6.47208 84.3431 0.244141 90.5531 0.244141 98.1869V129.632C0.244141 137.266 6.47208 143.476 14.1281 143.476H33.2879L40.2299 153.444L47.1718 143.476H66.3317C73.9877 143.476 80.2156 137.266 80.2156 129.632V98.1869C80.2156 90.5531 73.9877 84.3431 66.3317 84.3431Z" fill="white"/>
<path d="M66.3304 84.3429C66.3304 84.3429 66.9651 84.3034 68.1155 84.422C69.3055 84.5407 71.0906 84.9362 73.1137 86.0042C74.1054 86.5975 75.1368 87.3094 76.1681 88.2983C77.1599 89.2871 78.1119 90.5133 78.8656 91.9768C79.5796 93.4403 80.135 95.1807 80.2936 97.0397C80.4127 98.9383 80.3333 100.876 80.373 102.973C80.373 107.165 80.373 111.754 80.4127 116.698C80.4127 119.203 80.4127 121.787 80.4127 124.45C80.4127 125.795 80.4127 127.153 80.4127 128.524C80.4523 129.909 80.373 131.333 80.0556 132.757C79.4209 135.565 77.8739 138.294 75.5731 140.272C73.2327 142.25 70.1782 143.594 66.9651 143.674C60.6181 143.753 54.0332 143.713 47.1706 143.753L47.4086 143.634C45.2268 146.759 42.8467 150.16 40.4666 153.602L40.2286 153.918L39.9906 153.602C37.8088 150.437 35.4287 147.075 33.0486 143.634L33.2866 143.753C28.8438 143.753 24.1232 143.753 19.363 143.753C18.2259 143.753 17.0887 143.753 15.9515 143.753C14.8408 143.753 13.6904 143.753 12.5401 143.634C10.2393 143.397 8.01786 142.566 6.15345 141.3C4.28903 139.995 2.74197 138.294 1.67092 136.317C0.639544 134.339 0.0445177 132.163 0.00484936 129.948C0.00484936 121.365 0.00484936 113.059 0.00484936 105.148C0.00484936 103.171 0.00484936 101.219 0.00484936 99.2942C-0.034819 97.3561 0.163523 95.3784 0.798217 93.5985C2.06761 89.9991 4.76505 87.0721 8.01786 85.5295C9.6046 84.778 11.35 84.3034 13.0557 84.1847C14.8012 84.0661 16.4672 84.1451 18.0936 84.1451C21.3729 84.1451 24.5067 84.1451 27.495 84.1451C39.4749 84.1847 49.1936 84.2242 55.8976 84.2638C59.2694 84.2638 61.8479 84.3034 63.6329 84.3034C64.5056 84.3034 65.18 84.3165 65.656 84.3429C66.0924 84.3429 66.3304 84.3429 66.3304 84.3429C66.3304 84.3429 66.0924 84.3825 65.656 84.3825C65.18 84.3825 64.5056 84.3957 63.6329 84.422C61.8479 84.422 59.2694 84.4616 55.8976 84.4616C49.1936 84.5011 39.4749 84.5011 27.495 84.5407C24.5067 84.5671 21.3729 84.5803 18.0936 84.5803C16.4672 84.5803 14.7615 84.5407 13.0954 84.6198C11.4293 84.778 9.76327 85.2131 8.2162 85.9646C5.0824 87.4281 2.46429 90.276 1.27424 93.7567C0.639544 95.4971 0.48087 97.3561 0.520538 99.2942C0.520538 101.219 0.520538 103.171 0.520538 105.148C0.520538 113.059 0.520539 121.326 0.560207 129.948C0.599876 132.045 1.15523 134.181 2.14694 136.079C3.17832 137.938 4.68572 139.599 6.4708 140.826C8.29554 142.052 10.398 142.843 12.5797 143.08C13.6904 143.199 14.8012 143.199 15.9515 143.199C17.0887 143.199 18.2259 143.199 19.363 143.199C24.1232 143.199 28.8438 143.199 33.2866 143.199H33.4056L33.485 143.318C35.9047 146.759 38.2452 150.121 40.4666 153.325H39.9906C42.4104 149.844 44.7508 146.482 46.9722 143.318L47.0516 143.199H47.1706C54.0332 143.199 60.6578 143.238 66.9651 143.199C70.0592 143.08 72.9947 141.814 75.2558 139.916C77.5169 137.978 78.9846 135.367 79.6193 132.638C79.9366 131.293 80.016 129.909 79.9763 128.524C79.9763 127.153 79.9763 125.795 79.9763 124.45C79.9763 121.787 79.9895 119.203 80.016 116.698C80.016 111.754 80.016 107.165 80.016 102.973C80.016 100.916 80.0953 98.8987 79.9763 97.0792C79.8573 95.2202 79.3416 93.5194 78.6276 92.0955C77.9136 90.632 76.9615 89.4454 76.0095 88.4565C75.0178 87.4677 73.9864 86.7557 72.9947 86.1624C71.0113 85.0944 69.3055 84.6593 68.1155 84.5407C67.5204 84.422 67.0841 84.4616 66.7667 84.422C66.4758 84.3957 66.3304 84.3693 66.3304 84.3429Z" fill="#E0E0E0"/>
<path d="M29.4768 114.72C29.4768 117.172 27.4537 119.19 24.9942 119.19C22.4951 119.19 20.5117 117.172 20.5117 114.72C20.5117 112.228 22.4951 110.25 24.9942 110.25C27.4537 110.25 29.4768 112.228 29.4768 114.72Z" fill="#E0E0E0"/>
<path d="M44.2336 114.72C44.2336 117.172 42.2502 119.19 39.7511 119.19C37.2916 119.19 35.2686 117.172 35.2686 114.72C35.2686 112.228 37.2916 110.251 39.7511 110.251C42.2502 110.251 44.2336 112.228 44.2336 114.72Z" fill="#E0E0E0"/>
<path d="M59.0301 114.72C59.0301 117.172 57.007 119.19 54.5476 119.19C52.0485 119.19 50.0254 117.172 50.0254 114.72C50.0254 112.228 52.0485 110.25 54.5476 110.25C57.007 110.25 59.0301 112.228 59.0301 114.72Z" fill="#E0E0E0"/>
<path d="M425.341 248.128L423.437 241.76C425.5 238.398 426.73 234.442 426.73 230.21C426.73 218.028 416.813 208.139 404.595 208.139C392.377 208.139 382.46 218.028 382.46 230.21C382.46 242.393 392.377 252.281 404.595 252.281C409.672 252.281 414.393 250.541 418.122 247.653L425.341 248.128Z" fill="#FAFAFA"/>
<path d="M425.34 248.128C425.34 248.128 425.194 248.115 424.903 248.089C424.56 248.089 424.097 248.075 423.515 248.049C422.285 247.97 420.461 247.891 418.12 247.772C418.041 247.772 418.001 247.733 418.041 247.653C418.041 247.627 418.041 247.614 418.041 247.614L418.199 247.733C415.938 249.473 412.606 251.411 408.203 252.123C406.021 252.519 403.601 252.519 401.102 252.163C398.564 251.767 395.985 250.897 393.486 249.512C391.027 248.128 388.726 246.15 386.822 243.698C384.957 241.246 383.529 238.279 382.776 235.075C381.268 228.628 382.895 221.034 387.774 215.575C390.194 212.807 393.248 210.631 396.58 209.405C399.912 208.139 403.443 207.704 406.775 208.06C410.147 208.377 413.281 209.484 415.978 211.066C418.675 212.688 420.897 214.784 422.603 217.118C425.974 221.746 427.125 227.085 426.807 231.476C426.53 235.946 425.022 239.426 423.515 241.799V241.76C424.11 243.817 424.586 245.399 424.903 246.506C425.036 247.034 425.141 247.442 425.221 247.733C425.3 247.996 425.34 248.128 425.34 248.128C425.34 248.128 425.3 247.97 425.181 247.693C425.102 247.403 424.983 246.994 424.824 246.467C424.467 245.399 423.991 243.817 423.356 241.799C423.356 241.773 423.356 241.747 423.356 241.72C424.824 239.347 426.292 235.866 426.53 231.476C426.807 227.125 425.657 221.904 422.285 217.316C420.619 215.061 418.437 213.004 415.78 211.422C413.122 209.88 410.028 208.772 406.735 208.456C403.482 208.139 399.992 208.574 396.739 209.84C393.486 211.027 390.471 213.123 388.091 215.852C383.331 221.232 381.705 228.668 383.212 234.996C383.926 238.161 385.314 241.048 387.179 243.461C389.004 245.873 391.265 247.812 393.684 249.196C396.104 250.58 398.683 251.411 401.142 251.807C403.601 252.202 406.021 252.202 408.163 251.846C412.487 251.134 415.819 249.275 418.08 247.574C418.12 247.535 418.16 247.574 418.199 247.614C418.239 247.614 418.239 247.693 418.199 247.733L418.12 247.574C420.447 247.733 422.232 247.864 423.475 247.97C424.057 248.023 424.52 248.062 424.864 248.089C425.181 248.089 425.34 248.128 425.34 248.128Z" fill="#263238"/>
<path d="M398.312 230.21C398.312 231.436 397.32 232.425 396.09 232.425C394.821 232.425 393.829 231.436 393.829 230.21C393.829 228.984 394.821 227.956 396.09 227.956C397.32 227.956 398.312 228.984 398.312 230.21Z" fill="#263238"/>
<path d="M407.332 230.209C407.332 231.436 406.34 232.424 405.111 232.424C403.841 232.424 402.85 231.436 402.85 230.209C402.85 228.983 403.841 227.955 405.111 227.955C406.34 227.955 407.332 228.983 407.332 230.209Z" fill="#263238"/>
<path d="M416.329 229.063C416.924 230.17 416.567 231.515 415.496 232.148C414.425 232.781 413.037 232.385 412.402 231.317C411.807 230.249 412.164 228.865 413.235 228.272C414.306 227.639 415.694 227.995 416.329 229.063Z" fill="#263238"/>
<path d="M168.572 67.6855C158.448 67.6855 150.225 59.4893 150.225 49.3378C150.225 39.2131 158.448 30.9902 168.572 30.9902C178.724 30.9902 186.92 39.2131 186.92 49.3378C186.92 59.4893 178.724 67.6855 168.572 67.6855Z" fill="#D2D9E0"/>
<path d="M160.242 57.534H164.046V45.2397H160.242V57.534Z" fill="white"/>
<path d="M162.143 43.6595C163.376 43.6595 164.393 42.6416 164.393 41.3827C164.393 40.1238 163.376 39.106 162.143 39.106C160.885 39.106 159.894 40.1238 159.894 41.3827C159.894 42.6416 160.885 43.6595 162.143 43.6595Z" fill="white"/>
<path d="M170.125 51.0789C170.125 49.3646 170.929 48.32 172.429 48.32C173.821 48.32 174.518 49.3111 174.518 51.0789C174.518 52.8467 174.518 57.534 174.518 57.534H178.295C178.295 57.534 178.295 53.0342 178.295 49.7664C178.295 46.4719 176.42 44.8915 173.821 44.8915C171.223 44.8915 170.125 46.9004 170.125 46.9004V45.2397H166.482V57.534H170.125C170.125 57.534 170.125 52.9806 170.125 51.0789Z" fill="white"/>
<path d="M193.161 12.8032L195.678 17.3834L200.285 19.9012L195.678 22.419L193.161 26.9992L190.67 22.419L186.062 19.9012L190.67 17.3834L193.161 12.8032Z" fill="#D2D9E0" fill-opacity="0.5"/>
<path d="M297.971 137.273L299.873 140.728L303.301 142.603L299.873 144.505L297.971 147.96L296.096 144.505L292.641 142.603L296.096 140.728L297.971 137.273Z" fill="#D2D9E0"/>
<path d="M303.301 120.264L304.158 121.818L305.711 122.675L304.158 123.532L303.301 125.086L302.471 123.532L300.917 122.675L302.471 121.818L303.301 120.264Z" fill="#E0E0E0"/>
<path d="M175.215 14.5175L176.072 16.071L177.626 16.9281L176.072 17.7852L175.215 19.3387L174.385 17.7852L172.805 16.9281L174.385 16.071L175.215 14.5175Z" fill="#D2D9E0" fill-opacity="0.5"/>
<path d="M132.6 158.969C134.502 158.138 135.841 156.129 135.841 153.799C135.814 150.719 133.457 148.255 130.565 148.281C127.699 148.308 125.395 150.799 125.422 153.879C125.422 156.236 126.841 158.245 128.797 159.022C120.788 160.335 121.27 169.04 121.27 169.04L140.234 168.879C140.234 168.879 140.555 160.067 132.6 158.969Z" fill="#D2D9E0"/>
<path d="M314.47 216.395C314.202 215.029 312.836 213.958 311.47 214.012C310.077 214.065 308.818 215.19 308.631 216.556C308.444 215.19 307.185 214.065 305.792 214.038C304.399 213.985 303.087 215.083 302.819 216.449C302.631 217.44 302.979 218.458 303.542 219.315C304.104 220.145 304.854 220.842 305.604 221.511C306.676 222.449 307.667 223.333 308.711 224.297C309.756 223.333 310.667 222.449 311.711 221.485C312.461 220.815 313.211 220.119 313.774 219.261C314.336 218.431 314.658 217.386 314.47 216.395Z" fill="#D2D9E0"/>
<path d="M326.818 103.47L328.854 103.068L332.041 95.9972L331.238 91.9527C331.238 91.9527 334.345 91.1491 335.041 96.5329C335.711 101.917 335.845 100.47 335.845 100.47C335.845 100.47 342.514 99.1846 343.184 99.64C343.666 99.9882 345.166 106.577 345.943 110.166C346.345 111.961 345.568 113.863 343.987 114.613C343.755 114.72 343.514 114.8 343.264 114.854C341.604 115.175 332.845 115.523 332.845 115.523L329.336 116.22L326.818 103.47Z" fill="#D2D9E0"/>
<path d="M320.765 103.524L324.782 117.157L328.264 116.461L325.559 102.854L320.765 103.524Z" fill="#D2D9E0"/>
<path d="M347.576 251.403C347.576 251.484 294.461 251.564 228.945 251.564C163.403 251.564 110.288 251.484 110.288 251.403C110.288 251.35 163.403 251.269 228.945 251.269C294.461 251.269 347.576 251.35 347.576 251.403Z" fill="#263238"/>
<path d="M306.327 98.1132C295.506 103.363 282.488 98.8632 277.212 88.0689C271.962 77.2477 276.462 64.2303 287.283 58.9536C298.077 53.7038 311.122 58.2037 316.371 69.0248C321.621 79.8191 317.121 92.8634 306.327 98.1132Z" fill="#D90452"/>
<path d="M291.408 83.4083C291.783 83.3815 291.998 83.1404 291.917 82.7386C291.864 82.4708 291.73 81.8279 291.676 81.5333C291.596 81.1583 291.515 81.0512 291.114 80.8905C290.283 80.5155 289.533 79.8726 288.971 78.6941C287.337 75.3192 288.382 71.0872 292.426 69.1051C296.015 67.3641 299.042 68.5962 300.488 71.5158C302.337 75.3728 302.229 79.4441 299.685 80.6762C298.292 81.3726 296.685 80.703 296.337 79.1227C295.908 77.2477 295.801 75.0514 295.212 73.8193C294.676 72.7211 293.658 72.105 292.426 72.6943C291.007 73.3907 290.578 75.4264 291.542 77.4084C292.158 78.6673 292.989 79.3102 292.989 79.3102C292.989 79.3102 294.542 86.2207 294.81 87.426C295.346 89.8366 297.087 92.2741 297.247 92.5151C297.355 92.6491 297.569 92.5955 297.596 92.4348C297.649 92.1937 298.319 89.2742 297.89 86.8903C297.756 86.2207 297.033 82.7654 297.033 82.7654C297.944 83.435 299.658 83.5422 301.104 82.8458C305.39 80.7565 306.408 75.4264 303.863 70.1765C301.935 66.2391 296.792 64.1767 291.703 66.6409C285.355 69.7479 284.364 75.8281 286.212 79.6316C287.31 81.9351 289.185 83.5422 291.408 83.4083Z" fill="white"/>
<path d="M328.05 159.504C320.309 156.558 316.425 147.88 319.398 140.139C322.345 132.371 331.023 128.514 338.764 131.46C346.505 134.434 350.388 143.085 347.442 150.853C344.469 158.594 335.791 162.477 328.05 159.504Z" fill="#D90452"/>
<path fill-rule="evenodd" clip-rule="evenodd" d="M341.175 148.228C339.594 152.353 334.934 154.442 330.755 152.835C329.443 152.326 328.318 151.522 327.488 150.505L322.773 150.237L325.693 146.728C325.425 145.335 325.532 143.862 326.068 142.442C326.122 142.335 326.166 142.228 326.202 142.121C327.916 138.21 332.443 136.282 336.487 137.835C340.612 139.416 342.701 143.942 341.255 148.04C341.237 148.094 341.21 148.156 341.175 148.228ZM339.969 147.772C340.041 147.594 340.103 147.424 340.157 147.264C341.121 143.915 339.38 140.326 336.032 139.041C332.737 137.782 329.068 139.255 327.541 142.308C327.452 142.505 327.363 142.71 327.273 142.924C326.764 144.29 326.711 145.737 327.086 147.076L325.398 149.112L328.13 149.272C328.88 150.317 329.925 151.147 331.211 151.629C334.72 152.969 338.657 151.228 339.969 147.772Z" fill="white"/>
<path d="M336.514 148.174C336.354 148.013 335.631 147.21 335.47 147.103C335.336 146.969 335.229 146.889 335.015 147.022C334.827 147.156 334.318 147.451 334.157 147.531C333.997 147.612 333.89 147.585 333.756 147.424C333.595 147.237 333.059 146.835 332.604 145.924C332.229 145.228 332.095 144.505 332.068 144.264C332.015 144.049 332.149 143.969 332.282 143.915C332.39 143.862 332.55 143.781 332.684 143.701C332.72 143.683 332.756 143.665 332.791 143.648C332.845 143.594 332.899 143.54 332.979 143.46C333.086 143.38 333.113 143.246 333.086 143.139C333.086 143.031 333.059 141.987 333.032 141.558C333.032 141.13 332.845 141.13 332.738 141.103C332.631 141.049 332.524 140.996 332.39 140.942C332.282 140.889 332.041 140.862 331.8 140.996C331.586 141.103 330.916 141.371 330.568 142.282C330.488 142.496 330.461 142.71 330.434 142.924C330.381 143.648 330.568 144.344 330.622 144.451C330.649 144.612 331.104 146.996 332.711 148.442C334.318 149.888 334.398 149.647 334.773 149.754C335.122 149.862 336.032 149.728 336.354 149.353C336.675 148.978 336.809 148.63 336.782 148.522C336.756 148.442 336.675 148.335 336.514 148.174Z" fill="white"/>
<path d="M132.868 90.1313C126.547 90.1313 121.404 84.9886 121.404 78.6673C121.404 72.3461 126.547 67.2302 132.868 67.2302C139.189 67.2302 144.305 72.3461 144.305 78.6673C144.305 84.9886 139.189 90.1313 132.868 90.1313Z" fill="#D90452"/>
<path d="M126.762 82.5243C127.86 83.2207 129.172 83.6225 130.592 83.6225C135.253 83.6225 137.877 79.7119 137.717 76.2031C138.199 75.8281 138.627 75.3995 138.949 74.8906C138.502 75.0871 138.029 75.221 137.529 75.2924C138.038 74.971 138.44 74.4889 138.627 73.8996C138.145 74.1942 137.61 74.4085 137.02 74.5156C136.565 74.0335 135.922 73.7121 135.199 73.7121C133.592 73.7121 132.413 75.2388 132.762 76.7924C130.699 76.6852 128.851 75.6942 127.619 74.1674C126.949 75.2924 127.271 76.7656 128.396 77.5156C127.967 77.5156 127.592 77.4084 127.244 77.2209C127.217 78.3727 128.047 79.4441 129.253 79.6851C128.905 79.7923 128.53 79.8191 128.128 79.7387C128.449 80.7297 129.36 81.4529 130.458 81.4797C129.413 82.3101 128.074 82.6583 126.762 82.5243Z" fill="white"/>
<path d="M153.439 218.351C142.832 220.869 132.199 214.333 129.681 203.753C127.163 193.146 133.699 182.512 144.279 179.995C154.886 177.477 165.519 184.012 168.037 194.619C170.555 205.199 164.019 215.833 153.439 218.351Z" fill="#740646"/>
<path fill-rule="evenodd" clip-rule="evenodd" d="M150.707 187.682C151.832 187.468 152.635 187.468 153.385 187.575C154.135 187.682 154.805 187.896 155.528 188.352C156.251 188.78 156.76 189.289 157.189 189.905C157.591 190.521 157.966 191.244 158.287 192.343C158.608 193.468 158.689 193.816 159.385 196.682C160.055 199.521 160.135 199.896 160.349 201.021C160.564 202.146 160.564 202.949 160.457 203.699C160.349 204.449 160.135 205.119 159.707 205.842C159.251 206.565 158.742 207.074 158.126 207.503C157.51 207.931 156.787 208.28 155.689 208.601C154.564 208.922 154.216 209.003 151.376 209.699C148.51 210.369 148.135 210.449 147.011 210.663C145.886 210.878 145.082 210.878 144.359 210.771C143.582 210.69 142.912 210.449 142.189 210.021C141.466 209.565 140.984 209.056 140.529 208.44C140.127 207.824 139.752 207.101 139.43 206.003C139.109 204.905 139.029 204.53 138.332 201.69C137.663 198.825 137.582 198.476 137.368 197.325C137.154 196.2 137.154 195.396 137.261 194.673C137.368 193.896 137.582 193.226 138.038 192.503C138.466 191.78 138.975 191.298 139.591 190.869C140.207 190.441 140.93 190.066 142.029 189.771C143.153 189.45 143.502 189.343 146.368 188.673C149.207 187.977 149.582 187.923 150.707 187.682ZM142.564 191.619C141.546 191.914 141.037 192.235 140.716 192.45C140.261 192.771 139.966 193.066 139.671 193.521C139.404 193.976 139.27 194.405 139.189 194.941C139.136 195.342 139.082 195.932 139.296 196.976C139.511 198.101 139.564 198.423 140.234 201.235C140.904 204.048 141.011 204.369 141.305 205.467C141.6 206.485 141.895 206.994 142.136 207.342C142.457 207.771 142.752 208.065 143.207 208.36C143.662 208.628 144.064 208.788 144.6 208.842C145.028 208.922 145.618 208.949 146.662 208.762C147.76 208.547 148.109 208.467 150.921 207.797C153.734 207.128 154.055 207.047 155.153 206.726C156.171 206.431 156.68 206.137 157.028 205.896C157.457 205.601 157.751 205.28 158.046 204.824C158.314 204.369 158.474 203.967 158.528 203.432C158.582 203.03 158.635 202.414 158.421 201.396C158.207 200.271 158.153 199.923 157.483 197.137C156.814 194.325 156.733 193.976 156.412 192.878C156.117 191.887 155.823 191.352 155.582 191.03C155.26 190.575 154.966 190.28 154.51 190.012C154.055 189.718 153.653 189.584 153.117 189.503C152.716 189.45 152.1 189.396 151.082 189.61C149.957 189.825 149.609 189.878 146.796 190.548C144.011 191.218 143.662 191.325 142.564 191.619Z" fill="white"/>
<path fill-rule="evenodd" clip-rule="evenodd" d="M154.27 197.887C154.966 200.887 153.118 203.86 150.145 204.583C147.172 205.28 144.172 203.458 143.449 200.458C142.752 197.485 144.6 194.485 147.573 193.789C150.547 193.066 153.546 194.914 154.27 197.887ZM152.368 198.342C151.913 196.414 149.957 195.209 148.029 195.664C146.1 196.146 144.895 198.075 145.35 200.003C145.806 201.958 147.761 203.137 149.689 202.682C151.645 202.226 152.823 200.271 152.368 198.342Z" fill="white"/>
<path d="M154.403 191.941C154.563 192.637 154.135 193.334 153.438 193.494C152.742 193.655 152.046 193.226 151.885 192.53C151.697 191.834 152.126 191.137 152.822 190.976C153.546 190.789 154.242 191.218 154.403 191.941Z" fill="white"/>
<path d="M302.765 200.994C297.703 200.994 293.578 196.896 293.578 191.807C293.578 186.745 297.703 182.62 302.765 182.62C307.854 182.62 311.953 186.745 311.953 191.807C311.953 196.896 307.854 200.994 302.765 200.994Z" fill="#740646"/>
<path d="M301.373 197.378H303.596V191.753H305.176L305.337 189.878H303.596C303.596 189.878 303.596 189.182 303.596 188.807C303.596 188.378 303.703 188.191 304.132 188.191C304.48 188.191 305.337 188.191 305.337 188.191V186.262C305.337 186.262 304.051 186.262 303.784 186.262C302.123 186.262 301.373 186.986 301.373 188.378C301.373 189.61 301.373 189.878 301.373 189.878H300.194V191.78H301.373V197.378Z" fill="white"/>
<path d="M271.4 251.805L197.554 251.752C188.661 251.752 181.456 244.546 181.456 235.654L181.51 50.4896C181.51 41.597 188.715 34.3918 197.607 34.3918L271.453 34.4454C280.346 34.4454 287.551 41.6506 287.551 50.5432L287.498 235.707C287.498 244.6 280.292 251.805 271.4 251.805Z" fill="#100E0F"/>
<path d="M271.4 40.9809H257.07C255.141 40.9809 253.588 42.6148 253.588 44.6237V47.2218C253.588 49.2307 252.034 50.8378 250.106 50.8378H222.196C220.267 50.8378 218.714 49.2039 218.714 47.1951V44.5969C218.714 42.588 217.16 40.9542 215.232 40.9542H210.196H197.661C191.447 40.9542 186.384 45.9897 186.384 52.2038L186.357 232.975C186.357 239.189 191.393 244.225 197.607 244.225L271.346 244.279C277.56 244.279 282.622 239.243 282.622 233.002L282.649 52.2574C282.649 46.0433 277.614 40.9809 271.4 40.9809Z" fill="white"/>
<path d="M272.472 55.6858C272.472 55.7126 270.597 55.7662 268.32 55.793C266.017 55.8198 264.142 55.793 264.142 55.7394C264.142 55.6858 266.017 55.6323 268.293 55.6323C270.597 55.6055 272.472 55.6323 272.472 55.6858Z" fill="#100E0F"/>
<path d="M272.471 57.8019C272.471 57.8554 270.623 57.909 268.32 57.9358C266.016 57.9358 264.168 57.909 264.168 57.8822C264.168 57.8287 266.016 57.7751 268.32 57.7483C270.623 57.7215 272.471 57.7483 272.471 57.8019Z" fill="#100E0F"/>
<path d="M272.498 59.9179C272.498 59.9715 270.65 60.025 268.346 60.0518C266.043 60.0786 264.195 60.0518 264.168 59.9982C264.168 59.9447 266.043 59.8911 268.346 59.8643C270.65 59.8643 272.498 59.8911 272.498 59.9179Z" fill="#100E0F"/>
<path d="M194.126 62.0071C194.144 62.0071 194.224 61.9982 194.367 61.9803C194.527 61.9803 194.724 61.9803 194.956 61.9803C195.527 61.9624 196.277 61.9446 197.206 61.9267L197.126 61.9803C197.126 61.4803 197.117 60.9357 197.099 60.3464C197.126 60.0518 197.072 59.7839 197.126 59.4357C197.179 59.0875 197.474 58.7661 197.876 58.7393C198.224 58.7393 198.545 58.7125 198.947 58.7393C199.349 58.7661 199.67 59.1679 199.67 59.5964C199.67 60.3464 199.679 61.1321 199.697 61.9535L199.59 61.8464C200.501 61.8464 201.447 61.8375 202.429 61.8196L202.322 61.9267C202.304 60.8018 202.286 59.6322 202.268 58.4179C202.268 58.1144 202.268 57.8197 202.268 57.534C202.268 57.2394 202.108 57.0519 201.867 56.8644C201.456 56.4537 201.045 56.043 200.634 55.6323C200.242 55.2394 199.849 54.8466 199.456 54.4537C199.259 54.2752 199.063 54.0877 198.867 53.8913C198.679 53.7038 198.518 53.5163 198.277 53.4627C198.063 53.4091 197.822 53.4359 197.635 53.5698C197.474 53.7305 197.286 53.918 197.126 54.1055C196.768 54.4448 196.429 54.7841 196.108 55.1234C195.465 55.793 194.795 56.3823 194.313 56.9715C194.099 57.2662 194.179 57.6679 194.179 58.0161C194.179 58.3733 194.179 58.7036 194.179 59.0072C194.161 59.6143 194.152 60.15 194.152 60.6143C194.152 61.025 194.152 61.3643 194.152 61.6321C194.152 61.8821 194.144 62.0071 194.126 62.0071C194.126 62.0071 194.126 61.891 194.126 61.6589C194.108 61.391 194.099 61.0607 194.099 60.6678C194.081 60.2036 194.063 59.6589 194.045 59.034C194.045 58.7125 194.045 58.3733 194.045 58.0161C194.027 57.8376 194.019 57.659 194.019 57.4804C194.019 57.2662 194.072 57.0519 194.179 56.8912C194.715 56.2483 195.331 55.6859 195.974 54.9894C196.295 54.6502 196.626 54.3109 196.965 53.9716C197.152 53.7841 197.313 53.5966 197.527 53.4091C197.742 53.2484 198.063 53.1949 198.331 53.2484C198.626 53.3288 198.84 53.5698 199.027 53.7573C199.206 53.9359 199.393 54.1234 199.59 54.3198C199.983 54.6948 200.384 55.0877 200.795 55.4984C201.206 55.8912 201.617 56.293 202.027 56.7037C202.134 56.8108 202.242 56.8912 202.349 57.0519C202.429 57.1858 202.483 57.3465 202.483 57.5072C202.483 57.8108 202.492 58.1144 202.509 58.4179C202.509 59.6322 202.518 60.8018 202.536 61.9267V62.0339H202.429C201.447 62.0517 200.501 62.0607 199.59 62.0607H199.483V61.9535C199.483 61.1321 199.483 60.3464 199.483 59.5964C199.483 59.2482 199.215 58.9536 198.92 58.9C198.572 58.9 198.197 58.9 197.876 58.9C197.581 58.9268 197.313 59.1679 197.286 59.4625C197.26 59.7304 197.26 60.0786 197.26 60.3464C197.26 60.9357 197.26 61.4803 197.26 61.9803V62.0339H197.206C196.26 62.0339 195.501 62.0339 194.929 62.0339C194.697 62.0339 194.501 62.0249 194.34 62.0071C194.197 62.0071 194.126 62.0071 194.126 62.0071Z" fill="#100E0F"/>
<path d="M242.874 203.244C242.874 203.271 242.579 203.298 242.097 203.298C241.544 203.315 240.838 203.333 239.981 203.351C238.187 203.378 235.722 203.378 233.017 203.378C230.285 203.378 227.821 203.378 226.053 203.351C225.196 203.333 224.49 203.315 223.937 203.298C223.455 203.298 223.16 203.271 223.16 203.244C223.16 203.217 223.455 203.217 223.937 203.19C224.49 203.173 225.196 203.155 226.053 203.137C227.821 203.137 230.285 203.11 233.017 203.11C235.722 203.11 238.187 203.137 239.981 203.137C240.838 203.155 241.544 203.173 242.097 203.19C242.579 203.217 242.874 203.217 242.874 203.244Z" fill="#455A64"/>
<path d="M273.81 208.092C273.81 208.172 262.48 208.226 248.499 208.226C234.517 208.226 223.16 208.172 223.16 208.092C223.16 208.012 234.517 207.958 248.499 207.958C262.48 207.958 273.81 208.012 273.81 208.092Z" fill="#455A64"/>
<path d="M257.981 212.646C257.981 212.726 250.186 212.779 240.57 212.779C230.955 212.779 223.16 212.726 223.16 212.646C223.16 212.565 230.955 212.512 240.57 212.512C250.186 212.512 257.981 212.565 257.981 212.646Z" fill="#455A64"/>
<path fill-rule="evenodd" clip-rule="evenodd" d="M274.828 221.538L273.248 219.958L271.748 221.431V216.931H274.828V221.538ZM273.248 219.77L273.302 219.797L274.694 221.19V217.065H271.909V221.11L273.248 219.77Z" fill="#100E0F"/>
<path fill-rule="evenodd" clip-rule="evenodd" d="M232.91 220.949L232.347 220.681C232.097 220.824 231.865 220.895 231.651 220.895C230.794 220.922 230.097 220.226 230.097 219.369C230.071 218.538 230.767 217.842 231.624 217.815C232.455 217.815 233.151 218.511 233.178 219.342C233.178 219.744 233.044 220.092 232.776 220.386L232.91 220.949ZM231.624 217.949C230.821 217.949 230.178 218.592 230.205 219.395C230.205 220.172 230.847 220.815 231.651 220.815C231.847 220.815 232.08 220.743 232.347 220.601V220.574L232.776 220.761L232.669 220.36L232.696 220.333C232.937 220.065 233.071 219.717 233.071 219.369C233.071 218.565 232.401 217.922 231.624 217.949Z" fill="#100E0F"/>
<path fill-rule="evenodd" clip-rule="evenodd" d="M236.473 220.708L235.857 219.154L234.651 218.056L237.544 218.029L236.473 220.708ZM234.919 218.163L235.937 219.101L236.473 220.44L237.383 218.163H234.919Z" fill="#100E0F"/>
<path d="M235.964 219.154L235.91 219.074L237.49 218.029L237.544 218.136L235.964 219.154Z" fill="#100E0F"/>
<path d="M228.356 218.377C228.276 217.976 227.874 217.654 227.445 217.654C227.017 217.681 226.642 218.029 226.588 218.431C226.535 218.029 226.133 217.681 225.731 217.681C225.303 217.654 224.901 218.003 224.821 218.404C224.767 218.726 224.874 219.02 225.035 219.288C225.222 219.529 225.437 219.744 225.678 219.958C225.999 220.226 226.294 220.494 226.615 220.788C226.937 220.494 227.204 220.226 227.526 219.931C227.767 219.717 227.981 219.502 228.142 219.261C228.329 218.994 228.41 218.672 228.356 218.377Z" fill="#D90452"/>
<path d="M278.043 225.529C278.043 225.529 278.043 225.342 278.043 225.02C278.043 224.681 278.043 224.19 278.043 223.547C278.016 222.261 278.016 220.36 278.016 217.895C277.989 212.967 277.989 205.815 277.962 196.816L278.043 196.923C257.445 196.923 226.669 196.95 192.384 196.976L192.518 196.816C192.518 206.806 192.518 216.476 192.518 225.529L192.384 225.395C217.026 225.422 238.428 225.422 253.668 225.449C261.302 225.476 267.382 225.476 271.561 225.476C273.677 225.502 275.284 225.502 276.382 225.502C276.918 225.502 277.328 225.502 277.614 225.502C277.9 225.52 278.043 225.529 278.043 225.529C278.043 225.529 277.909 225.529 277.641 225.529C277.355 225.529 276.944 225.529 276.409 225.529C275.31 225.556 273.703 225.556 271.641 225.556C267.462 225.556 261.382 225.583 253.775 225.583C238.508 225.609 217.08 225.636 192.384 225.663H192.25V225.529C192.25 216.476 192.25 206.806 192.224 196.816V196.682H192.384C226.669 196.708 257.445 196.735 278.043 196.735H278.15V196.816C278.123 205.842 278.096 213.021 278.096 217.949C278.069 220.413 278.069 222.288 278.069 223.601C278.069 224.226 278.069 224.708 278.069 225.047C278.051 225.368 278.043 225.529 278.043 225.529Z" fill="#100E0F"/>
<path d="M219.677 201.744L219.57 220.735L195.839 220.601L195.946 201.61L219.677 201.744Z" fill="#D2D9E0" fill-opacity="0.2"/>
<path d="M219.678 201.744C219.678 201.762 219.633 201.771 219.544 201.771C219.455 201.771 219.347 201.771 219.222 201.771C218.901 201.771 218.464 201.771 217.91 201.771C216.785 201.771 215.124 201.771 213.062 201.771C208.883 201.771 202.964 201.771 195.946 201.744L196.053 201.61C196.027 207.262 196 213.744 195.973 220.601C196 220.627 195.705 220.333 195.839 220.44H195.866H195.893L195.92 220.467H196.027H196.241H196.643H197.473C198.009 220.467 198.553 220.467 199.107 220.467C200.178 220.485 201.241 220.494 202.294 220.494C204.401 220.511 206.455 220.52 208.455 220.52C212.446 220.547 216.169 220.574 219.571 220.601L219.437 220.735C219.49 215.029 219.544 210.315 219.597 206.994C219.597 205.333 219.624 204.048 219.624 203.137C219.642 202.69 219.651 202.351 219.651 202.119C219.651 201.878 219.678 201.744 219.678 201.744C219.678 201.744 219.678 201.86 219.678 202.092C219.678 202.324 219.678 202.655 219.678 203.083C219.678 203.994 219.705 205.28 219.705 206.914C219.705 210.262 219.678 215.003 219.678 220.735V220.842H219.571C216.169 220.842 212.446 220.815 208.455 220.788C206.455 220.788 204.401 220.779 202.294 220.761C201.241 220.761 200.169 220.761 199.08 220.761C198.544 220.744 198.009 220.735 197.473 220.735H196.643H196.241H196.027H195.92H195.893H195.866H195.839C195.946 220.868 195.652 220.574 195.678 220.601C195.732 213.744 195.786 207.262 195.812 201.61V201.503H195.946C202.991 201.557 208.937 201.61 213.142 201.664C215.205 201.69 216.839 201.69 217.964 201.717C218.517 201.717 218.946 201.726 219.249 201.744C219.374 201.744 219.481 201.744 219.571 201.744C219.642 201.744 219.678 201.744 219.678 201.744Z" fill="#100E0F"/>
<path d="M196.643 219.395L218.713 219.529L218.821 202.949L196.75 202.815L196.643 219.395Z" fill="#D2D9E0" fill-opacity="0.2"/>
<path d="M196.643 219.395L204.41 209.137L209.151 215.619L212.419 212.19L218.713 219.529L196.643 219.395Z" fill="#D2D9E0"/>
<path d="M211.241 207.905C211.214 208.869 210.437 209.646 209.473 209.646C208.509 209.646 207.759 208.842 207.759 207.905C207.759 206.94 208.536 206.164 209.5 206.164C210.464 206.164 211.241 206.967 211.241 207.905Z" fill="#D2D9E0"/>
<path d="M235.963 78.6673C235.963 78.6852 235.874 78.6941 235.695 78.6941C235.499 78.7119 235.258 78.7209 234.972 78.7209C234.302 78.7477 233.392 78.7477 232.294 78.7744C230.044 78.8012 226.937 78.828 223.481 78.828C220.053 78.828 216.919 78.8012 214.669 78.7744C213.571 78.7477 212.66 78.7477 211.991 78.7209C211.705 78.7209 211.464 78.7119 211.267 78.6941C211.107 78.6941 211.026 78.6852 211.026 78.6673C211.026 78.6673 211.107 78.6584 211.267 78.6405C211.464 78.6405 211.705 78.6316 211.991 78.6137C212.66 78.6137 213.571 78.587 214.669 78.587C216.919 78.5602 220.053 78.5334 223.481 78.5334C226.937 78.5334 230.044 78.5602 232.294 78.587C233.392 78.587 234.302 78.6137 234.972 78.6137C235.258 78.6316 235.499 78.6405 235.695 78.6405C235.874 78.6584 235.963 78.6673 235.963 78.6673Z" fill="#100E0F"/>
<path fill-rule="evenodd" clip-rule="evenodd" d="M271.025 183.557L268.667 181.2L266.444 183.423L266.471 176.727H271.025V183.557ZM268.694 180.905L268.748 180.986L270.81 183.048L270.837 176.941L266.685 176.914L266.659 182.941L268.694 180.905Z" fill="#100E0F"/>
<path fill-rule="evenodd" clip-rule="evenodd" d="M211.616 182.861L210.545 182.352C210.009 182.646 209.554 182.78 209.125 182.807C207.438 182.807 206.072 181.468 206.072 179.78C206.045 178.12 207.384 176.727 209.072 176.727C210.759 176.7 212.125 178.066 212.125 179.727C212.125 180.477 211.857 181.2 211.375 181.763L211.616 182.861ZM209.072 176.941C207.491 176.941 206.232 178.227 206.259 179.78C206.259 181.334 207.545 182.593 209.098 182.593C209.5 182.593 209.955 182.459 210.464 182.164L210.518 182.138L211.322 182.486L211.134 181.709L211.188 181.655C211.67 181.146 211.911 180.45 211.911 179.754C211.911 178.173 210.625 176.914 209.072 176.941Z" fill="#100E0F"/>
<path fill-rule="evenodd" clip-rule="evenodd" d="M218.66 182.379L217.401 179.325L215.044 177.182L220.749 177.129L218.66 182.379ZM215.606 177.397L217.589 179.218L218.66 181.843L220.454 177.343L215.606 177.397Z" fill="#100E0F"/>
<path d="M217.642 179.325L217.535 179.164L220.642 177.129L220.749 177.316L217.642 179.325Z" fill="#100E0F"/>
<path d="M202.67 177.825C202.509 177.022 201.679 176.379 200.875 176.406C200.045 176.432 199.295 177.129 199.188 177.932C199.054 177.129 198.304 176.459 197.473 176.432C196.643 176.406 195.866 177.075 195.706 177.879C195.598 178.468 195.813 179.084 196.134 179.593C196.482 180.102 196.938 180.504 197.393 180.905C198.036 181.468 198.598 182.004 199.241 182.539C199.857 181.977 200.393 181.441 201.036 180.879C201.464 180.477 201.92 180.048 202.268 179.539C202.589 179.03 202.777 178.414 202.67 177.825Z" fill="#D90452"/>
<path d="M206.018 78.6673C206.018 80.8101 204.277 82.5512 202.134 82.5512C200.018 82.5512 198.277 80.8101 198.277 78.6673C198.277 76.5513 200.018 74.8103 202.134 74.8103C204.277 74.8103 206.018 76.5513 206.018 78.6673Z" fill="#D2D9E0"/>
<path d="M269.552 161.379C269.552 161.46 253.347 161.513 233.366 161.513C213.357 161.513 197.152 161.46 197.152 161.379C197.152 161.299 213.357 161.245 233.366 161.245C253.347 161.245 269.552 161.299 269.552 161.379Z" fill="#455A64"/>
<path d="M269.552 155.353C269.552 155.433 253.347 155.486 233.366 155.486C213.357 155.486 197.152 155.433 197.152 155.353C197.152 155.272 213.357 155.219 233.366 155.219C253.347 155.219 269.552 155.272 269.552 155.353Z" fill="#455A64"/>
<path d="M236.553 167.486C236.553 167.566 227.741 167.62 216.866 167.62C205.965 167.62 197.152 167.566 197.152 167.486C197.152 167.406 205.965 167.352 216.866 167.352C227.741 167.352 236.553 167.406 236.553 167.486Z" fill="#455A64"/>
<path d="M231.704 233.19C231.704 234.047 231.008 234.743 230.151 234.743C229.294 234.743 228.624 234.02 228.624 233.163C228.624 232.306 229.32 231.609 230.178 231.609C231.008 231.609 231.704 232.332 231.704 233.19Z" fill="#100E0F"/>
<path d="M236.472 233.216C236.472 234.073 235.775 234.77 234.918 234.77C234.061 234.743 233.392 234.047 233.392 233.19C233.392 232.332 234.088 231.636 234.918 231.636C235.775 231.636 236.472 232.332 236.472 233.216Z" fill="#100E0F"/>
<path d="M241.239 233.216C241.213 234.1 240.543 234.797 239.686 234.77C238.829 234.77 238.159 234.073 238.159 233.216C238.159 232.359 238.856 231.663 239.686 231.663C240.543 231.663 241.239 232.359 241.239 233.216Z" fill="#100E0F"/>
<path d="M192.894 138.746L278.579 138.719L278.552 86.3278L192.894 86.3546V138.746Z" fill="#D2D9E0" fill-opacity="0.4"/>
<path d="M200.795 138.746L225.357 105.881L240.571 126.425L250.883 115.443L271.105 138.719L200.795 138.746Z" fill="#D2D9E0"/>
<path d="M247.025 101.836C247.025 104.89 244.534 107.381 241.481 107.381C238.428 107.381 235.937 104.917 235.937 101.836C235.937 98.7828 238.428 96.3186 241.481 96.3186C244.534 96.3186 247.025 98.7828 247.025 101.836Z" fill="#D2D9E0"/>
<path d="M278.337 187.414C278.337 186.289 278.284 138.96 278.204 68.8908L278.337 69.0247C252.49 69.0247 223.375 69.0247 192.679 69.0247H192.652L192.786 68.8908C192.786 113.22 192.786 154.228 192.786 187.414L192.652 187.307C244.615 187.361 277.4 187.414 278.337 187.414C277.4 187.414 244.615 187.468 192.652 187.521H192.545V187.414C192.545 154.228 192.519 113.22 192.519 68.8908V68.7569H192.652H192.679C223.375 68.7569 252.49 68.7569 278.337 68.7837H278.471V68.8908C278.445 103.979 278.418 133.603 278.391 154.495C278.391 164.915 278.364 173.138 278.364 178.789C278.364 181.602 278.337 183.745 278.337 185.218C278.337 185.932 278.337 186.477 278.337 186.852C278.337 187.227 278.337 187.414 278.337 187.414Z" fill="#100E0F"/>
<path d="M313.399 26.7046L313.988 27.8028L315.086 28.4188L313.988 29.0081L313.399 30.1331L312.783 29.0081L311.685 28.4188L312.783 27.8028L313.399 26.7046Z" fill="#D90452"/>
<path d="M326.041 54.1056L326.631 55.2306L327.756 55.8198L326.631 56.4359L326.041 57.5341L325.425 56.4359L324.327 55.8198L325.425 55.2306L326.041 54.1056Z" fill="#D90452"/>
<path d="M123.36 127.255L123.976 128.353L125.074 128.969L123.976 129.559L123.36 130.657L122.744 129.559L121.646 128.969L122.744 128.353L123.36 127.255Z" fill="#D90452"/>
<path d="M296.792 33.5079L298.185 36.0793L300.756 37.4721L298.185 38.8649L296.792 41.4095L295.399 38.8649L292.854 37.4721L295.399 36.0793L296.792 33.5079Z" fill="#D90452"/>
<path d="M134.689 109.872L136.082 112.416L138.627 113.809L136.082 115.202L134.689 117.747L133.297 115.202L130.752 113.809L133.297 112.416L134.689 109.872Z" fill="#D90452"/>
<path d="M329.47 170.647L330.862 173.191L333.407 174.584L330.862 175.977L329.47 178.548L328.077 175.977L325.532 174.584L328.077 173.191L329.47 170.647Z" fill="#D90452"/>
</svg>
