<svg width="441" height="294" viewBox="0 0 441 294" fill="none" xmlns="http://www.w3.org/2000/svg">
<path d="M97.4274 83.415H53.3793C51.3091 83.415 49.6211 81.7269 49.6211 79.6567V40.2269C49.6211 38.1248 51.3091 36.4368 53.3793 36.4368H97.4274C99.4976 36.4368 101.186 38.1248 101.186 40.2269V79.6567C101.186 81.7269 99.4976 83.415 97.4274 83.415Z" fill="white"/>
<path d="M101.186 44.431H49.6211V40.3224C49.6211 38.1885 51.341 36.4368 53.4749 36.4368H97.6185C99.5931 36.4368 101.186 38.0292 101.186 40.0039V44.431Z" fill="#D2D9E0"/>
<path d="M57.0415 41.2141C57.0415 41.883 56.4682 42.4244 55.7675 42.4244C55.0668 42.4244 54.5254 41.883 54.5254 41.2141C54.5254 40.5771 55.0668 40.0357 55.7675 40.0357C56.4682 40.0357 57.0415 40.5771 57.0415 41.2141Z" fill="white"/>
<path d="M60.481 41.2141C60.481 41.883 59.9077 42.4244 59.2388 42.4244C58.5381 42.4244 57.9648 41.883 57.9648 41.2141C57.9648 40.5771 58.5381 40.0357 59.2388 40.0357C59.9077 40.0357 60.481 40.5771 60.481 41.2141Z" fill="white"/>
<path d="M63.9204 41.2141C63.9204 41.883 63.379 42.4244 62.6783 42.4244C61.9776 42.4244 61.4043 41.883 61.4043 41.2141C61.4043 40.5771 61.9776 40.0357 62.6783 40.0357C63.379 40.0357 63.9204 40.5771 63.9204 41.2141Z" fill="white"/>
<path d="M97.4265 83.4149C97.4265 83.3831 97.5857 83.3831 97.9042 83.3512C98.2227 83.3194 98.7323 83.192 99.2737 82.8735C99.8152 82.5869 100.42 82.0454 100.803 81.1855C100.994 80.7714 101.121 80.2937 101.121 79.7522C101.153 79.2426 101.121 78.6693 101.121 78.0642C101.121 73.2231 101.089 66.248 101.089 57.6486C101.057 53.3171 101.057 48.6033 101.057 43.5392C101.057 42.9022 101.057 42.2652 101.057 41.6282C101.025 40.9912 101.089 40.2906 101.025 39.6854C100.834 38.4433 99.9426 37.2967 98.7323 36.8508C98.4138 36.7234 98.0953 36.6597 97.7768 36.6278C97.4583 36.596 97.108 36.596 96.7576 36.596C96.0782 36.596 95.3881 36.596 94.6874 36.596C93.3073 36.596 91.9059 36.596 90.4832 36.596C79.0811 36.596 66.5323 36.596 53.3784 36.6278C51.786 36.596 50.289 37.7426 49.9068 39.2714C49.8113 39.6217 49.7794 40.0039 49.7794 40.418V41.6282C49.7794 42.4351 49.7794 43.242 49.7794 44.0488C49.7794 47.255 49.7794 50.4081 49.7794 53.5082C49.7794 59.7188 49.7794 65.7066 49.7794 71.4076C49.7794 74.2529 49.7794 77.0238 49.7794 79.7204C49.7794 81.0262 50.5757 82.2684 51.6904 82.8417C52.2319 83.1283 52.8688 83.2875 53.5058 83.2557C54.1428 83.2557 54.7798 83.2557 55.4168 83.2557C60.4809 83.2875 65.1947 83.2875 69.5262 83.2875C78.1256 83.3194 85.1007 83.3194 89.9418 83.3512C92.3624 83.3512 94.2097 83.3512 95.4836 83.3831C96.1206 83.3831 96.609 83.3831 96.9487 83.3831C97.2672 83.4043 97.4265 83.4149 97.4265 83.4149C97.4265 83.4149 97.2672 83.4149 96.9487 83.4149C96.609 83.4149 96.1206 83.4256 95.4836 83.4468C94.2097 83.4468 92.3624 83.4468 89.9418 83.4786C85.1007 83.4786 78.1256 83.5105 69.5262 83.5105C65.1947 83.5423 60.4809 83.5423 55.4168 83.5423C54.7798 83.5423 54.1428 83.5423 53.5058 83.5423C52.837 83.5742 52.1682 83.4149 51.563 83.0965C50.3527 82.4595 49.4928 81.1536 49.4609 79.7204C49.4609 77.0238 49.4609 74.2529 49.4609 71.4076C49.4609 65.7066 49.4609 59.7188 49.4609 53.5082C49.4609 50.4081 49.4609 47.255 49.4609 44.0488C49.4609 43.242 49.4609 42.4351 49.4609 41.6282V40.418C49.4609 40.0039 49.4609 39.5899 49.5883 39.1758C50.0024 37.5196 51.6586 36.2457 53.3784 36.2775C66.5323 36.2775 79.0811 36.2775 90.4832 36.3093C91.9059 36.3093 93.3073 36.3093 94.6874 36.3093C95.3881 36.3093 96.0782 36.3093 96.7576 36.3093C97.108 36.3093 97.4583 36.3093 97.8087 36.3093C98.159 36.373 98.5094 36.4367 98.8279 36.5641C100.134 37.0737 101.121 38.284 101.28 39.6536C101.376 40.3224 101.312 40.9594 101.344 41.6282C101.344 42.2652 101.344 42.9022 101.344 43.5392C101.312 48.6033 101.312 53.3171 101.312 57.6486C101.28 66.248 101.28 73.2231 101.248 78.0642C101.248 78.6693 101.248 79.2426 101.248 79.7841C101.217 80.3255 101.089 80.8033 100.898 81.2492C100.484 82.1091 99.847 82.6506 99.3056 82.9372C98.7323 83.2557 98.2546 83.3512 97.9361 83.3831C97.5857 83.4149 97.4265 83.4149 97.4265 83.4149Z" fill="#EBEBEB"/>
<path d="M94.4649 79.2744H56.2135C54.6529 79.2744 53.3789 78.0323 53.3789 76.4398V50.8646C53.3789 49.304 54.6529 48.03 56.2135 48.03H94.4649C96.0256 48.03 97.2995 49.304 97.2995 50.8646V76.4398C97.2995 78.0323 96.0256 79.2744 94.4649 79.2744Z" fill="#F5F5F5"/>
<path d="M57.0738 77.3316L67.7752 62.0757C68.253 61.4068 69.2085 61.375 69.7181 62.012L77.1072 71.1528C77.5531 71.6942 78.3812 71.7579 78.8908 71.2483L83.1905 67.1079C83.7001 66.6302 84.5281 66.662 84.974 67.2034L93.446 77.2361C94.083 78.0323 93.5416 79.2426 92.4906 79.2426H58.0611C57.0738 79.2426 56.5005 78.1279 57.0738 77.3316Z" fill="#D2D9E0"/>
<path d="M81.5332 57.5531C81.9154 60.0692 79.7815 62.2031 77.2335 61.8209C75.6729 61.598 74.3989 60.2921 74.1441 58.7315C73.7619 56.2154 75.8959 54.0815 78.412 54.4637C80.0045 54.6866 81.2784 55.9924 81.5332 57.5531Z" fill="#D2D9E0"/>
<path d="M385.223 226.07H356.909C354.838 226.07 353.15 224.382 353.15 222.28V197.214C353.15 195.144 354.838 193.456 356.909 193.456H385.223C387.293 193.456 388.981 195.144 388.981 197.214V222.28C388.981 224.382 387.293 226.07 385.223 226.07Z" fill="white"/>
<path d="M388.981 198.998H353.15V197.31C353.15 195.176 354.87 193.456 357.004 193.456H385.414C387.389 193.456 388.981 195.049 388.981 197.023V198.998Z" fill="#D2D9E0" fill-opacity="0.5"/>
<path d="M358.31 196.768C358.31 197.214 357.928 197.596 357.419 197.596C356.941 197.596 356.559 197.214 356.559 196.768C356.559 196.323 356.941 195.94 357.419 195.94C357.928 195.94 358.31 196.323 358.31 196.768Z" fill="white"/>
<path d="M360.699 196.768C360.699 197.214 360.317 197.596 359.839 197.596C359.329 197.596 358.947 197.214 358.947 196.768C358.947 196.323 359.329 195.94 359.839 195.94C360.317 195.94 360.699 196.323 360.699 196.768Z" fill="white"/>
<path d="M363.088 196.768C363.088 197.214 362.705 197.596 362.228 197.596C361.718 197.596 361.336 197.214 361.336 196.768C361.336 196.323 361.718 195.94 362.228 195.94C362.705 195.94 363.088 196.323 363.088 196.768Z" fill="white"/>
<path d="M385.224 226.07C385.192 226.006 385.67 226.102 386.498 225.783C386.88 225.624 387.358 225.369 387.803 224.923C388.249 224.478 388.663 223.872 388.823 223.044C388.918 222.662 388.918 222.248 388.886 221.77C388.886 221.324 388.886 220.847 388.886 220.337C388.886 219.339 388.886 218.246 388.886 217.057C388.886 214.732 388.855 212.056 388.855 209.094C388.855 206.164 388.854 202.915 388.823 199.444C388.823 198.584 388.854 197.692 388.823 196.832C388.727 195.972 388.313 195.144 387.644 194.539C386.307 193.201 384.204 193.679 382.293 193.615C374.49 193.615 365.923 193.615 356.909 193.615C355.826 193.615 354.775 194.125 354.107 194.953C353.788 195.367 353.533 195.845 353.438 196.354C353.278 196.864 353.31 197.405 353.31 197.979C353.31 200.166 353.31 202.321 353.31 204.444C353.31 208.68 353.31 212.789 353.31 216.674C353.31 218.628 353.31 220.528 353.31 222.376C353.31 223.267 353.693 224.127 354.266 224.764C354.839 225.369 355.667 225.783 356.495 225.879C359.903 225.943 363.184 225.911 366.114 225.943C372.006 225.974 376.784 225.975 380.096 226.006C381.72 226.006 382.994 226.006 383.886 226.006C384.311 226.028 384.64 226.038 384.873 226.038C385.086 226.038 385.202 226.049 385.224 226.07C385.202 226.07 385.086 226.07 384.873 226.07C384.64 226.07 384.311 226.081 383.886 226.102C382.994 226.102 381.72 226.102 380.096 226.134C376.784 226.134 372.006 226.166 366.114 226.166C363.152 226.166 359.935 226.229 356.463 226.166C355.572 226.07 354.68 225.624 354.043 224.955C353.438 224.255 353.024 223.331 353.024 222.376C353.002 220.528 352.992 218.628 352.992 216.674C352.992 212.789 352.992 208.68 352.992 204.444C352.992 202.321 352.992 200.166 352.992 197.979C352.992 197.437 352.96 196.864 353.087 196.291C353.247 195.717 353.501 195.208 353.852 194.73C354.584 193.838 355.731 193.265 356.909 193.297C365.923 193.297 374.49 193.297 382.293 193.297C383.27 193.297 384.236 193.297 385.192 193.297C386.179 193.297 387.135 193.679 387.835 194.316C388.536 194.985 388.982 195.877 389.077 196.8C389.141 197.724 389.109 198.584 389.109 199.444C389.109 202.915 389.109 206.164 389.077 209.094C389.077 212.056 389.077 214.732 389.077 217.057C389.056 218.246 389.046 219.339 389.046 220.337C389.046 220.847 389.046 221.324 389.046 221.77C389.046 222.216 389.046 222.662 388.95 223.076C388.759 223.904 388.345 224.541 387.899 225.019C387.421 225.465 386.912 225.72 386.529 225.847C386.115 226.006 385.765 226.038 385.542 226.07C385.33 226.07 385.224 226.07 385.224 226.07Z" fill="#E0E0E0"/>
<path d="M383.441 223.204H358.598C357.038 223.204 355.764 221.93 355.764 220.369V204.349C355.764 202.756 357.038 201.482 358.598 201.482H383.441C385.002 201.482 386.276 202.756 386.276 204.349V220.369C386.276 221.93 385.002 223.204 383.441 223.204Z" fill="#D2D9E0" fill-opacity="0.5"/>
<path d="M358.343 221.834L365.764 211.228C366.083 210.782 366.784 210.75 367.134 211.196L372.23 217.534C372.548 217.917 373.122 217.948 373.472 217.63L376.466 214.732C376.816 214.413 377.389 214.445 377.708 214.795L383.568 221.77C384.046 222.344 383.664 223.172 382.931 223.172H359.012C358.343 223.172 357.929 222.407 358.343 221.834Z" fill="#D2D9E0"/>
<path d="M375.319 208.107C375.574 209.859 374.109 211.356 372.357 211.069C371.242 210.91 370.35 210.018 370.191 208.935C369.936 207.183 371.401 205.686 373.153 205.941C374.268 206.132 375.16 207.024 375.319 208.107Z" fill="#D2D9E0"/>
<path d="M81.0251 248.332H42.2641C40.1939 248.332 38.5059 246.644 38.5059 244.574V201.673C38.5059 199.602 40.1939 197.914 42.2641 197.914H81.0251C83.1272 197.914 84.8152 199.602 84.8152 201.673V244.574C84.8152 246.644 83.1272 248.332 81.0251 248.332Z" fill="white"/>
<path d="M84.8152 206.514H38.5059V201.8C38.5059 199.666 40.2257 197.914 42.3597 197.914H81.2481C83.2227 197.914 84.8152 199.507 84.8152 201.481V206.514Z" fill="#D2D9E0"/>
<path d="M46.4689 203.042C46.4689 203.743 45.8638 204.316 45.0994 204.316C44.3669 204.316 43.7617 203.743 43.7617 203.042C43.7617 202.341 44.3669 201.768 45.0994 201.768C45.8638 201.768 46.4689 202.341 46.4689 203.042Z" fill="white"/>
<path d="M50.1642 203.042C50.1642 203.743 49.5591 204.316 48.8266 204.316C48.0622 204.316 47.457 203.743 47.457 203.042C47.457 202.341 48.0622 201.768 48.8266 201.768C49.5591 201.768 50.1642 202.341 50.1642 203.042Z" fill="white"/>
<path d="M53.8576 203.042C53.8576 203.743 53.2525 204.316 52.5199 204.316C51.7555 204.316 51.1504 203.743 51.1504 203.042C51.1504 202.341 51.7555 201.768 52.5199 201.768C53.2525 201.768 53.8576 202.341 53.8576 203.042Z" fill="white"/>
<path d="M81.0248 248.332C81.0248 248.332 81.2159 248.332 81.5344 248.3C81.821 248.237 82.2988 248.141 82.8402 247.823C83.3817 247.536 83.9868 247.026 84.369 246.198C84.5601 245.784 84.7194 245.307 84.7194 244.797C84.7512 244.287 84.7512 243.714 84.7512 243.141C84.7194 238.395 84.7193 231.548 84.6875 223.107C84.6875 218.871 84.6875 214.253 84.6557 209.253C84.6557 206.769 84.6557 204.21 84.6557 201.577C84.6238 200.271 83.8276 199.029 82.6491 198.456C82.0758 198.169 81.407 198.042 80.7381 198.074C80.0375 198.074 79.3368 198.074 78.6361 198.074C67.4569 198.074 55.1629 198.074 42.2638 198.074C40.7032 198.074 39.2381 199.156 38.824 200.653C38.6011 201.354 38.6966 202.182 38.6648 202.978C38.6648 203.764 38.6648 204.55 38.6648 205.335C38.6648 208.478 38.6648 211.567 38.6648 214.604C38.6648 220.687 38.6648 226.579 38.6329 232.153C38.6329 234.955 38.6329 237.684 38.6329 240.338C38.6329 241.654 38.6329 242.96 38.6329 244.256C38.5693 245.53 39.1107 246.74 40.0662 247.472C40.5439 247.823 41.1172 248.077 41.6905 248.141C42.2638 248.237 42.9008 248.205 43.4741 248.205C44.6844 248.205 45.8628 248.205 47.0094 248.205C49.3238 248.205 51.5427 248.205 53.666 248.205C62.1061 248.237 68.9538 248.269 73.6994 248.269C76.0563 248.3 77.8717 248.3 79.1457 248.3C79.7614 248.3 80.2286 248.311 80.5471 248.332C80.8655 248.332 81.0248 248.332 81.0248 248.332C81.0248 248.332 80.8655 248.343 80.5471 248.364C80.2286 248.364 79.7614 248.364 79.1457 248.364C77.8717 248.364 76.0563 248.396 73.6994 248.396C68.9538 248.428 62.1061 248.428 53.666 248.46C51.5427 248.46 49.3238 248.46 47.0094 248.46C45.8628 248.46 44.6844 248.46 43.4741 248.46C42.9008 248.46 42.2957 248.523 41.6587 248.428C41.0217 248.332 40.4165 248.077 39.9069 247.695C38.8559 246.931 38.2826 245.561 38.3463 244.256C38.3463 242.96 38.3463 241.654 38.3463 240.338C38.3463 237.684 38.3463 234.955 38.3463 232.153C38.3463 226.579 38.3463 220.687 38.3463 214.604C38.3463 211.567 38.3463 208.478 38.3463 205.335C38.3463 204.55 38.3463 203.764 38.3463 202.978L38.3145 201.768C38.3463 201.354 38.3782 200.94 38.5056 200.558C38.9514 198.934 40.5758 197.723 42.2638 197.755C55.1629 197.755 67.4569 197.755 78.6361 197.755C79.3368 197.755 80.0375 197.755 80.7381 197.755C81.4388 197.755 82.1714 197.851 82.8084 198.201C84.0505 198.838 84.9104 200.176 84.9423 201.545C84.9423 204.199 84.9423 206.769 84.9423 209.253C84.9423 214.253 84.9423 218.871 84.9105 223.107C84.9105 231.548 84.8786 238.395 84.8786 243.141C84.8468 243.714 84.8786 244.287 84.8467 244.829C84.8149 245.338 84.6557 245.816 84.4646 246.23C84.0505 247.09 83.4135 247.6 82.8721 247.886C82.3306 248.205 81.8529 248.3 81.5344 248.332C81.2159 248.364 81.0248 248.332 81.0248 248.332Z" fill="#D2D9E0"/>
<path d="M59.8449 226.897L48.2198 215.081C49.6212 213.712 51.2455 212.597 53.0291 211.769C61.31 208.042 71.2152 211.769 74.9735 220.082C78.6999 228.363 74.9735 238.268 66.6926 242.026C58.3798 245.752 48.4746 242.026 44.7482 233.713C44.4721 233.119 44.228 232.492 44.0156 231.834L59.8449 226.897Z" fill="#D2D9E0" fill-opacity="0.5"/>
<path d="M57.1701 226.324L43.3473 230.465C42.9333 229.127 42.7422 227.726 42.7422 226.324C42.7422 222.534 44.2391 218.903 46.9145 216.196L57.1701 226.324Z" fill="#D2D9E0" fill-opacity="0.5"/>
<path d="M280.976 52.2654H253.044C250.56 52.2654 248.521 50.2271 248.521 47.7109V19.8107C248.521 17.2946 250.56 15.288 253.044 15.288H280.976C283.461 15.288 285.499 17.2946 285.499 19.8107V47.7109C285.499 50.2271 283.461 52.2654 280.976 52.2654Z" fill="#D2D9E0" fill-opacity="0.4"/>
<path d="M254.254 34.3023L257.948 30.5758L265.146 36.9776L277.154 24.9066L280.625 28.633L264.605 44.1438L254.254 34.3023Z" fill="white"/>
<path d="M378.66 44.1756L378.214 18.887C378.362 18.887 378.511 18.887 378.66 18.887C392.514 18.887 403.916 30.2892 403.916 44.1756C403.916 58.0302 392.514 69.4324 378.66 69.4324C367.608 69.4324 357.798 62.2344 354.518 51.6921L378.66 44.1756Z" fill="#D2D9E0" fill-opacity="0.4"/>
<path d="M376.047 42.3602L354.39 49.2078C353.466 46.7554 352.988 44.1437 352.988 41.5002C352.988 29.4292 362.925 19.524 374.996 19.524C375.187 19.524 375.379 19.524 375.57 19.524L376.047 42.3602Z" fill="#D2D9E0" fill-opacity="0.4"/>
<path d="M430.799 275.245C430.799 275.34 336.906 275.404 221.133 275.404C105.328 275.404 11.4668 275.34 11.4668 275.245C11.4668 275.149 105.328 275.085 221.133 275.085C336.906 275.085 430.799 275.149 430.799 275.245Z" fill="#263238"/>
<path d="M212.157 88.2568H154.382C152.28 88.2568 150.592 86.5688 150.592 84.4986V32.5518C150.592 30.4816 152.28 28.7936 154.382 28.7936H212.157C214.227 28.7936 215.915 30.4816 215.915 32.5518V84.4986C215.915 86.5688 214.227 88.2568 212.157 88.2568Z" fill="white"/>
<path d="M215.915 38.9218H150.592V32.6474C150.592 30.5135 152.344 28.7936 154.477 28.7936H212.348C214.323 28.7936 215.915 30.3861 215.915 32.3607V38.9218Z" fill="#D2D9E0" fill-opacity="0.3"/>
<path d="M160.02 34.845C160.02 35.6731 159.287 36.3419 158.395 36.3419C157.535 36.3419 156.803 35.6731 156.803 34.845C156.803 34.0169 157.535 33.3162 158.395 33.3162C159.287 33.3162 160.02 34.0169 160.02 34.845Z" fill="white"/>
<path d="M164.383 34.845C164.383 35.6731 163.65 36.3419 162.758 36.3419C161.899 36.3419 161.166 35.6731 161.166 34.845C161.166 34.0169 161.899 33.3162 162.758 33.3162C163.65 33.3162 164.383 34.0169 164.383 34.845Z" fill="white"/>
<path d="M168.746 34.845C168.746 35.6731 168.014 36.3419 167.122 36.3419C166.262 36.3419 165.529 35.6731 165.529 34.845C165.529 34.0169 166.262 33.3162 167.122 33.3162C168.014 33.3162 168.746 34.0169 168.746 34.845Z" fill="white"/>
<path d="M157.789 44.2407C157.789 44.2407 157.789 80.9633 157.789 80.6129C157.789 80.2626 210.277 80.6129 210.277 80.6129" fill="white"/>
<path d="M210.278 80.6129C210.278 80.6129 210.204 80.6235 210.055 80.6448C209.885 80.6448 209.662 80.6448 209.386 80.6448C208.77 80.6448 207.91 80.6448 206.806 80.6448C204.513 80.6448 201.265 80.6448 197.283 80.6448C189.225 80.6448 178.11 80.6448 165.848 80.6448C164.319 80.6448 162.801 80.6554 161.293 80.6766C160.55 80.6766 159.818 80.6872 159.096 80.7085C158.713 80.7085 158.363 80.7085 157.981 80.7403L157.885 80.7722C157.864 80.7722 157.853 80.7722 157.853 80.7722C158.236 80.7403 157.567 80.5811 157.631 80.6129V80.5492V80.2626V79.7211C157.631 76.8228 157.631 74.0519 157.631 71.3765C157.662 66.0577 157.662 61.2802 157.662 57.2672C157.694 53.2541 157.726 50.0054 157.726 47.7441C157.747 46.6188 157.758 45.7482 157.758 45.1325C157.758 44.8564 157.758 44.6335 157.758 44.4636C157.779 44.315 157.79 44.2407 157.79 44.2407C157.79 44.2407 157.79 44.315 157.79 44.4636C157.811 44.6335 157.822 44.8564 157.822 45.1325C157.822 45.7482 157.832 46.6188 157.853 47.7441C157.853 50.0054 157.885 53.2541 157.917 57.2672C157.917 61.2802 157.917 66.0577 157.949 71.3765C157.949 74.0519 157.949 76.8228 157.949 79.7211V80.2626V80.5492V80.6129C158.013 80.6766 157.344 80.4537 157.726 80.4537H157.758C157.79 80.4218 157.822 80.4218 157.822 80.4218H157.981C158.331 80.39 158.713 80.39 159.064 80.3581C159.807 80.3581 160.55 80.3475 161.293 80.3263C162.801 80.3263 164.319 80.3157 165.848 80.2944C178.11 80.2944 189.225 80.3581 197.283 80.4218C201.265 80.4537 204.513 80.5174 206.806 80.5174C207.91 80.5386 208.77 80.5598 209.386 80.5811C209.662 80.5811 209.885 80.5811 210.055 80.5811C210.204 80.6023 210.278 80.6129 210.278 80.6129Z" fill="#263238"/>
<path d="M174.352 76.5362H163.141V61.949H174.352V76.5362Z" fill="#740646"/>
<path d="M189.545 76.5362H178.334V54.1459H189.545V76.5362Z" fill="#740646"/>
<path d="M204.77 76.5361H193.559V47.5848H204.77V76.5361Z" fill="#740646"/>
<path d="M212.158 88.2568C212.158 88.225 212.381 88.2568 212.763 88.1613C213.177 88.0976 213.782 87.9383 214.419 87.4287C215.056 86.951 215.693 86.0911 215.852 84.9126C215.884 83.766 215.852 82.3647 215.852 80.8359C215.852 74.6889 215.82 65.8029 215.789 54.7829C215.789 49.3048 215.789 43.2852 215.789 36.8197C215.789 36.0128 215.789 35.1954 215.789 34.3673C215.789 33.9639 215.789 33.5498 215.789 33.1251C215.757 32.7111 215.789 32.2971 215.725 31.9149C215.47 30.3224 213.973 28.9847 212.285 28.9528C208.845 28.9528 205.31 28.9528 201.679 28.9528C187.124 28.9528 171.167 28.9528 154.382 28.9528C153.363 28.9528 152.376 29.3987 151.707 30.1313C151.038 30.8638 150.72 31.883 150.783 32.9022C150.783 34.9618 150.783 37.0214 150.783 39.081C150.783 43.1578 150.783 47.1708 150.783 51.1202C150.752 59.0507 150.752 66.6946 150.752 73.9564C150.752 77.5872 150.752 81.1225 150.752 84.5623C150.752 85.3904 151.102 86.2185 151.612 86.8236C152.153 87.4606 152.886 87.8746 153.682 88.0339C154.064 88.1294 154.478 88.0976 154.892 88.0976C155.296 88.0976 155.71 88.0976 156.134 88.0976C156.941 88.0976 157.759 88.0976 158.587 88.0976C165.052 88.1294 171.072 88.1294 176.55 88.1294C187.538 88.1613 196.456 88.1613 202.603 88.1931C205.66 88.1931 208.049 88.1931 209.673 88.225C210.48 88.225 211.096 88.225 211.521 88.225C211.945 88.2462 212.158 88.2568 212.158 88.2568C212.158 88.2568 211.945 88.2568 211.521 88.2568C211.096 88.2568 210.48 88.2674 209.673 88.2887C208.049 88.2887 205.66 88.2887 202.603 88.3205C196.456 88.3205 187.538 88.3524 176.55 88.3524C171.072 88.3842 165.052 88.3842 158.587 88.3842C157.759 88.3842 156.941 88.3842 156.134 88.3842C155.71 88.3842 155.296 88.3842 154.892 88.3842C154.478 88.3842 154.032 88.4161 153.618 88.3205C152.758 88.1294 151.962 87.6835 151.389 87.0147C150.815 86.3459 150.465 85.4859 150.465 84.5941C150.465 81.1331 150.465 77.5872 150.465 73.9564C150.465 66.6946 150.433 59.0507 150.433 51.1202C150.433 47.1708 150.433 43.1578 150.433 39.081C150.433 37.0214 150.433 34.9618 150.433 32.9022C150.369 31.8512 150.72 30.7046 151.452 29.9083C152.185 29.1121 153.268 28.6025 154.382 28.6343C171.167 28.6343 187.124 28.6343 201.679 28.6343C205.31 28.6343 208.856 28.645 212.317 28.6662C214.132 28.698 215.725 30.1313 215.98 31.8512C216.075 32.2971 216.043 32.7111 216.043 33.1251C216.043 33.5498 216.043 33.9639 216.043 34.3673C216.043 35.1954 216.043 36.0128 216.043 36.8197C216.043 43.2852 216.043 49.3048 216.043 54.7829C216.012 65.8029 215.98 74.6889 215.98 80.8359C215.948 82.3965 216.012 83.7342 215.948 84.9445C215.789 86.1229 215.12 87.0147 214.451 87.4924C213.814 88.002 213.177 88.1294 212.795 88.1931C212.572 88.2568 212.413 88.2568 212.317 88.2568C212.211 88.2568 212.158 88.2568 212.158 88.2568Z" fill="#263238"/>
<path d="M374.084 164.511L373.224 158.682C370.357 156.071 368.192 152.567 367.268 148.427C365.166 138.904 370.517 129.126 379.689 125.845C390.805 121.832 402.844 128.457 405.424 139.955C407.59 149.573 402.08 159.447 392.748 162.664C388.129 164.256 383.352 164.033 379.18 162.377H379.212L374.084 164.511Z" fill="white"/>
<path d="M375.963 143.745L378.893 140.783L384.594 145.847L394.085 136.324L396.793 139.254L384.148 151.516L375.963 143.745Z" fill="#D90452"/>
<path d="M374.084 164.511C374.084 164.511 374.179 164.447 374.402 164.352C374.657 164.245 374.986 164.097 375.39 163.906C376.282 163.555 377.556 163.014 379.18 162.313L379.148 162.441C379.116 162.409 379.116 162.377 379.116 162.345C379.148 162.313 379.18 162.313 379.212 162.313C381.473 163.173 384.722 163.937 388.575 163.492C389.531 163.396 390.518 163.205 391.506 162.918C392.015 162.791 392.493 162.568 393.003 162.409C393.512 162.249 394.022 162.026 394.531 161.772C396.538 160.848 398.513 159.479 400.264 157.695C401.984 155.911 403.449 153.682 404.405 151.134C405.392 148.618 405.87 145.751 405.647 142.853C405.488 139.955 404.532 136.993 402.972 134.349C402.239 133.011 401.22 131.801 400.169 130.655C399.022 129.572 397.812 128.521 396.41 127.724C395.073 126.864 393.608 126.259 392.143 125.75C390.646 125.336 389.117 124.985 387.588 124.922C384.562 124.731 381.537 125.208 378.893 126.355C376.218 127.47 373.893 129.158 372.077 131.164C370.262 133.139 368.924 135.432 368.096 137.757C366.44 142.439 366.79 147.153 368.096 150.752C369.37 154.414 371.504 156.994 373.319 158.65C373.574 160.53 373.765 161.963 373.893 162.982C373.957 163.449 373.999 163.821 374.02 164.097C374.052 164.351 374.084 164.511 374.084 164.511C374.084 164.511 374.063 164.383 374.02 164.129C373.978 163.874 373.914 163.513 373.829 163.046C373.67 162.026 373.447 160.593 373.16 158.714L373.192 158.746C371.345 157.09 369.179 154.51 367.841 150.847C366.504 147.216 366.122 142.439 367.81 137.662C368.638 135.305 369.975 132.948 371.823 130.909C373.67 128.903 376.027 127.183 378.734 126.036C381.441 124.858 384.531 124.348 387.62 124.539C389.181 124.603 390.741 124.954 392.27 125.368C393.767 125.909 395.264 126.514 396.633 127.374C398.035 128.202 399.277 129.285 400.424 130.368C401.506 131.546 402.557 132.789 403.322 134.158C404.914 136.865 405.838 139.859 406.029 142.821C406.22 145.783 405.742 148.681 404.755 151.261C403.736 153.841 402.239 156.102 400.487 157.918C398.704 159.733 396.697 161.103 394.659 162.026C394.149 162.281 393.64 162.504 393.098 162.663C392.589 162.855 392.079 163.046 391.569 163.173C390.55 163.46 389.563 163.651 388.607 163.746C384.69 164.16 381.441 163.364 379.18 162.441L379.244 162.313C379.275 162.345 379.307 162.409 379.275 162.441C379.254 162.441 379.244 162.451 379.244 162.472C377.556 163.109 376.282 163.651 375.39 164.001C374.965 164.15 374.636 164.277 374.402 164.383C374.19 164.468 374.084 164.511 374.084 164.511Z" fill="#263238"/>
<path d="M66.2422 150.735L66.3696 144.906C71.4336 139.109 73.1535 130.191 68.0576 120.541C50.2218 101.654 23.3407 120.891 35.4754 143.855C43.6289 152.518 53.6297 153.219 60.9551 149.238V149.269L66.2422 150.735Z" fill="white"/>
<path d="M66.2414 150.735C66.2414 150.735 66.114 150.671 65.8911 150.607C65.6363 150.543 65.2965 150.448 64.8719 150.32C63.9482 150.034 62.6424 149.652 60.9544 149.174L60.9862 149.301C61.0075 149.301 61.0181 149.301 61.0181 149.301C61.0499 149.269 61.0499 149.238 61.0181 149.206C60.9862 149.174 60.9544 149.174 60.9225 149.174C58.7886 150.289 55.6992 151.435 51.8772 151.435C50.9217 151.435 49.9344 151.372 48.9152 151.212C48.4056 151.149 47.896 150.989 47.3864 150.894C46.845 150.798 46.3354 150.639 45.8258 150.448C43.7237 149.779 41.6217 148.696 39.7107 147.136C37.7997 145.575 36.1117 143.568 34.8695 141.18C33.5956 138.791 32.7993 136.052 32.6401 133.185C32.5127 130.287 33.0541 127.293 34.2962 124.49C34.8695 123.089 35.6976 121.783 36.6213 120.541C37.6086 119.331 38.6596 118.152 39.9336 117.197C41.1758 116.21 42.5453 115.445 43.9148 114.776C45.3481 114.171 46.7813 113.662 48.2782 113.439C51.2402 112.865 54.266 113.025 57.0369 113.821C59.7759 114.617 62.2602 115.987 64.2667 117.738C66.3051 119.458 67.8657 121.56 68.9486 123.758C71.1463 128.153 71.3373 132.835 70.5093 136.53C69.6493 140.256 67.8976 143.059 66.3051 144.874C66.2733 146.753 66.2414 148.218 66.2414 149.206C66.2414 149.694 66.2414 150.066 66.2414 150.32C66.2414 150.575 66.2414 150.735 66.2414 150.735C66.2414 150.735 66.252 150.607 66.2733 150.352C66.2733 150.098 66.2839 149.737 66.3051 149.269C66.337 148.25 66.4007 146.785 66.4644 144.906L66.4325 144.97C68.0568 143.122 69.8723 140.352 70.7322 136.561C71.624 132.835 71.4647 128.089 69.2353 123.63C68.1524 121.369 66.5599 119.235 64.4897 117.484C62.4513 115.7 59.9352 114.267 57.1324 113.47C54.3297 112.642 51.2402 112.483 48.2145 113.056C46.6857 113.279 45.2207 113.821 43.7556 114.426C42.3542 115.127 40.9528 115.891 39.7107 116.91C38.4048 117.898 37.322 119.076 36.3346 120.318C35.3791 121.592 34.5192 122.898 33.9459 124.363C32.7038 127.198 32.1305 130.255 32.2897 133.185C32.449 136.116 33.2771 138.918 34.551 141.339C35.825 143.759 37.5768 145.798 39.5196 147.358C41.4624 148.951 43.6282 150.034 45.7303 150.735C46.2717 150.894 46.7813 151.085 47.3227 151.18C47.8642 151.276 48.3738 151.403 48.8834 151.467C49.9026 151.626 50.9217 151.69 51.8772 151.69C55.7629 151.658 58.8841 150.48 60.9862 149.301L60.8907 149.206C60.8588 149.238 60.8588 149.269 60.8907 149.301C60.9119 149.323 60.9225 149.333 60.9225 149.333C62.6424 149.779 63.9801 150.129 64.9037 150.384C65.3284 150.49 65.6575 150.575 65.8911 150.639C66.1246 150.703 66.2414 150.735 66.2414 150.735Z" fill="#263238"/>
<path d="M58.2146 130.797C56.3037 133.313 59.1701 136.179 61.6862 134.236C63.5972 131.72 60.7626 128.886 58.2146 130.797Z" fill="#263238"/>
<path d="M50.0294 130.797C48.1184 133.313 50.953 136.179 53.4692 134.236C55.412 131.72 52.5455 128.886 50.0294 130.797Z" fill="#263238"/>
<path d="M41.8439 130.797C39.9329 133.313 42.7675 136.179 45.2836 134.236C47.2264 131.72 44.36 128.886 41.8439 130.797Z" fill="#263238"/>
<path d="M317.574 275.245H120.392C115.01 275.245 110.646 270.881 110.646 265.499V120.806C110.646 115.423 115.01 111.06 120.392 111.06H317.574C322.956 111.06 327.319 115.423 327.319 120.806V265.499C327.319 270.881 322.956 275.245 317.574 275.245Z" fill="white"/>
<path d="M327.415 133.227H110.646V120.678C110.646 115.36 114.946 111.06 120.233 111.06H317.382C322.924 111.06 327.415 115.551 327.415 121.092V133.227Z" fill="#D2D9E0"/>
<path d="M318.05 275.213C318.21 275.181 318.433 275.181 318.656 275.149C318.889 275.128 319.165 275.085 319.484 275.022C319.802 274.958 320.153 274.873 320.535 274.767C320.885 274.608 321.299 274.512 321.713 274.289C322.573 273.875 323.497 273.302 324.389 272.41C325.28 271.55 326.077 270.403 326.618 268.97C326.682 268.8 326.756 268.62 326.841 268.429C326.873 268.238 326.937 268.047 326.968 267.855C327.096 267.473 327.128 267.059 327.191 266.645C327.287 265.817 327.287 264.957 327.287 264.065C327.255 260.435 327.255 256.23 327.255 251.517C327.255 232.662 327.223 205.398 327.191 171.701C327.191 163.261 327.191 154.439 327.191 145.234C327.191 140.648 327.191 135.966 327.191 131.189C327.191 128.789 327.191 126.369 327.191 123.927C327.191 122.717 327.223 121.506 327.159 120.296C327.096 119.086 326.809 117.876 326.299 116.761C325.248 114.563 323.337 112.748 321.012 111.856C319.866 111.41 318.624 111.187 317.35 111.219C316.097 111.219 314.823 111.219 313.528 111.219C308.411 111.219 303.219 111.219 297.953 111.219C287.379 111.219 276.519 111.219 265.371 111.219C220.814 111.219 171.829 111.219 120.392 111.219C118.831 111.251 117.27 111.633 115.869 112.366C114.468 113.13 113.289 114.213 112.397 115.519C111.538 116.825 110.996 118.353 110.869 119.914C110.805 120.678 110.805 121.475 110.805 122.271V124.66C110.805 131.008 110.805 137.315 110.805 143.578C110.805 156.095 110.805 168.453 110.805 180.556C110.805 204.825 110.805 228.203 110.805 250.497C110.805 253.279 110.805 256.05 110.805 258.81C110.805 260.169 110.805 261.539 110.805 262.919C110.805 264.288 110.709 265.658 110.932 266.964C111.315 269.607 112.875 272.028 115.073 273.493C116.188 274.225 117.43 274.703 118.704 274.926C120.01 275.181 121.315 275.085 122.653 275.085C133.195 275.085 143.451 275.085 153.356 275.117C173.167 275.117 191.639 275.117 208.488 275.117C242.185 275.149 269.448 275.149 288.303 275.181C297.73 275.181 305.056 275.213 310.024 275.213C312.477 275.213 314.388 275.213 315.662 275.213C316.936 275.245 317.573 275.245 317.573 275.245C317.573 275.245 316.936 275.245 315.662 275.245C314.388 275.276 312.477 275.276 310.024 275.276C305.056 275.276 297.73 275.276 288.303 275.308C269.448 275.308 242.185 275.34 208.488 275.372C191.639 275.372 173.167 275.372 153.356 275.372C143.451 275.372 133.195 275.372 122.653 275.372C121.347 275.372 120.01 275.468 118.672 275.213C117.334 274.99 116.06 274.48 114.914 273.748C112.652 272.251 111.028 269.735 110.614 266.996C110.423 265.626 110.518 264.288 110.486 262.919C110.486 261.539 110.486 260.169 110.486 258.81C110.486 256.05 110.486 253.279 110.486 250.497C110.486 228.203 110.486 204.825 110.486 180.556C110.486 168.453 110.486 156.095 110.486 143.578C110.486 137.315 110.486 131.008 110.486 124.66V122.271C110.486 121.475 110.455 120.678 110.518 119.882C110.678 118.258 111.251 116.697 112.143 115.328C113.034 113.99 114.277 112.843 115.71 112.079C117.143 111.315 118.767 110.901 120.392 110.901C171.829 110.901 220.814 110.901 265.371 110.901C276.519 110.901 287.379 110.901 297.953 110.932C303.219 110.932 308.411 110.932 313.528 110.932C314.823 110.932 316.097 110.932 317.35 110.932C318.656 110.932 319.93 111.124 321.108 111.601C323.497 112.493 325.471 114.372 326.522 116.665C327.064 117.78 327.382 119.022 327.446 120.264C327.478 121.507 327.446 122.717 327.446 123.927C327.446 126.369 327.446 128.789 327.446 131.189C327.446 135.966 327.446 140.648 327.446 145.234C327.446 154.439 327.446 163.261 327.446 171.701C327.414 205.398 327.414 232.662 327.382 251.517C327.382 256.23 327.382 260.435 327.382 264.065C327.382 264.957 327.382 265.849 327.287 266.677C327.223 267.091 327.191 267.505 327.064 267.887C327 268.078 326.968 268.27 326.905 268.461C326.841 268.652 326.777 268.832 326.714 269.002C326.172 270.435 325.312 271.614 324.42 272.474C323.529 273.334 322.605 273.939 321.745 274.321C321.331 274.544 320.885 274.671 320.535 274.799C320.153 274.905 319.802 274.99 319.484 275.054C319.186 275.117 318.91 275.16 318.656 275.181C318.433 275.213 318.21 275.213 318.05 275.213Z" fill="#263238"/>
<path d="M124.851 123.481C124.851 124.883 123.705 126.029 122.303 126.029C120.902 126.029 119.787 124.883 119.787 123.481C119.787 122.08 120.902 120.933 122.303 120.933C123.705 120.933 124.851 122.08 124.851 123.481Z" fill="white"/>
<path d="M132.463 123.481C132.463 124.883 131.348 126.029 129.915 126.029C128.513 126.029 127.398 124.883 127.398 123.481C127.398 122.08 128.513 120.933 129.915 120.933C131.348 120.933 132.463 122.08 132.463 123.481Z" fill="white"/>
<path d="M140.076 123.481C140.076 124.883 138.961 126.029 137.56 126.029C136.158 126.029 135.012 124.883 135.012 123.481C135.012 122.08 136.158 120.933 137.56 120.933C138.961 120.933 140.076 122.08 140.076 123.481Z" fill="white"/>
<path fill-rule="evenodd" clip-rule="evenodd" d="M134.182 159.885C135.297 159.216 136.475 158.707 137.685 158.357L138.386 154.917L144.214 154.789L145.074 158.229C146.285 158.516 147.495 158.994 148.61 159.631L151.54 157.688L155.744 161.733L153.929 164.758C154.597 165.873 155.107 167.051 155.457 168.262L158.897 168.962L158.993 174.791L155.585 175.651C155.266 176.861 154.82 178.071 154.183 179.186L156.126 182.148L152.049 186.32L149.056 184.505C147.941 185.174 146.762 185.684 145.552 186.034L144.82 189.474L138.991 189.569L138.163 186.161C136.921 185.843 135.742 185.397 134.628 184.76L131.666 186.703L127.462 182.626L129.309 179.632C128.64 178.517 128.13 177.339 127.78 176.129L124.34 175.428L124.213 169.568L127.653 168.74C127.939 167.529 128.417 166.319 129.054 165.204L127.111 162.242L131.156 158.038L134.182 159.885ZM137.303 167.657C134.914 170.173 134.978 174.122 137.462 176.511C139.947 178.931 143.896 178.868 146.317 176.352C148.705 173.867 148.642 169.918 146.157 167.529C143.673 165.109 139.692 165.172 137.303 167.657Z" fill="#D2D9E0"/>
<path fill-rule="evenodd" clip-rule="evenodd" d="M297.731 225.687C298.368 225.273 299.1 224.954 299.833 224.763L300.247 222.661L303.782 222.597L304.292 224.667C305.024 224.858 305.757 225.145 306.425 225.527L308.209 224.349L310.757 226.801L309.642 228.617C310.056 229.286 310.343 229.986 310.566 230.719L312.636 231.165L312.7 234.7L310.63 235.21C310.47 235.942 310.184 236.643 309.802 237.344L310.948 239.127L308.528 241.643L306.68 240.56C306.011 240.943 305.311 241.261 304.578 241.484L304.164 243.554L300.629 243.618L300.119 241.548C299.387 241.357 298.654 241.07 297.985 240.72L296.202 241.866L293.654 239.414L294.769 237.598C294.354 236.929 294.068 236.229 293.845 235.496L291.775 235.05L291.711 231.547L293.781 231.037C293.94 230.305 294.227 229.572 294.609 228.903L293.431 227.12L295.883 224.572L297.731 225.687ZM299.61 230.368C298.176 231.897 298.208 234.286 299.705 235.719C301.202 237.184 303.623 237.152 305.056 235.624C306.521 234.127 306.457 231.738 304.96 230.273C303.463 228.84 301.075 228.872 299.61 230.368Z" fill="#D2D9E0"/>
<path fill-rule="evenodd" clip-rule="evenodd" d="M205.462 224.54C206.577 223.871 207.756 223.362 208.966 223.011L209.698 219.571L215.527 219.476L216.355 222.884C217.597 223.202 218.776 223.648 219.89 224.285L222.852 222.342L227.057 226.419L225.209 229.413C225.878 230.528 226.388 231.706 226.738 232.916L230.178 233.617L230.305 239.478L226.865 240.306C226.579 241.516 226.101 242.726 225.464 243.841L227.407 246.803L223.362 251.007L220.336 249.16C219.222 249.829 218.075 250.338 216.833 250.689L216.132 254.128L210.304 254.256L209.444 250.816C208.233 250.497 207.055 250.052 205.908 249.415L202.978 251.357L198.774 247.313L200.589 244.287C199.921 243.172 199.411 241.994 199.061 240.783L195.621 240.083L195.525 234.254L198.933 233.394C199.252 232.184 199.698 230.974 200.335 229.859L198.392 226.897L202.469 222.725L205.462 224.54ZM208.552 232.311C206.163 234.796 206.227 238.745 208.711 241.166C211.195 243.554 215.177 243.491 217.565 241.006C219.986 238.522 219.89 234.541 217.406 232.152C214.922 229.732 210.972 229.827 208.552 232.311Z" fill="#D2D9E0" fill-opacity="0.5"/>
<path fill-rule="evenodd" clip-rule="evenodd" d="M237.821 246.293C238.458 245.911 239.116 245.614 239.795 245.402L240.21 243.427L243.554 243.363L244.063 245.338C244.764 245.508 245.433 245.773 246.07 246.134L247.79 245.019L250.178 247.344L249.127 249.096C249.51 249.712 249.807 250.37 250.019 251.071L251.994 251.485L252.058 254.829L250.083 255.339C249.913 256.039 249.648 256.708 249.287 257.345L250.401 259.033L248.076 261.454L246.325 260.403C245.688 260.785 245.019 261.072 244.318 261.263L243.904 263.269L240.56 263.301L240.082 261.358C239.381 261.188 238.702 260.923 238.044 260.562L236.356 261.677L233.967 259.32L235.018 257.6C234.636 256.963 234.339 256.294 234.126 255.593L232.152 255.179L232.088 251.835L234.063 251.357C234.232 250.657 234.498 249.977 234.859 249.319L233.744 247.631L236.069 245.242L237.821 246.293ZM239.604 250.752C238.235 252.154 238.267 254.447 239.7 255.816C241.133 257.186 243.394 257.154 244.796 255.721C246.165 254.319 246.134 252.026 244.7 250.657C243.267 249.287 241.006 249.319 239.604 250.752Z" fill="#D2D9E0" fill-opacity="0.5"/>
<path fill-rule="evenodd" clip-rule="evenodd" d="M165.204 245.179C165.608 244.945 166.022 244.765 166.447 244.637L166.701 243.395L168.835 243.363L169.122 244.605C169.568 244.711 169.993 244.871 170.396 245.083L171.479 244.382L173.008 245.879L172.339 246.962C172.572 247.366 172.753 247.78 172.88 248.204L174.122 248.491L174.154 250.593L172.944 250.88C172.817 251.326 172.647 251.761 172.434 252.186L173.135 253.237L171.67 254.765L170.555 254.096C170.173 254.33 169.759 254.511 169.313 254.638L169.058 255.88L166.924 255.944L166.638 254.702C166.192 254.595 165.767 254.426 165.364 254.192L164.281 254.893L162.752 253.428L163.421 252.345C163.187 251.941 163.007 251.517 162.879 251.071L161.637 250.816L161.605 248.682L162.816 248.395C162.943 247.95 163.113 247.525 163.325 247.121L162.625 246.039L164.09 244.542L165.204 245.179ZM166.351 247.981C165.459 248.873 165.491 250.306 166.383 251.166C167.307 252.058 168.74 252.026 169.6 251.134C170.46 250.211 170.428 248.778 169.536 247.918C168.644 247.058 167.211 247.09 166.351 247.981Z" fill="#D2D9E0" fill-opacity="0.5"/>
<path fill-rule="evenodd" clip-rule="evenodd" d="M268.205 158.134C269.288 157.465 270.467 156.955 271.677 156.637L272.409 153.165L278.238 153.069L279.066 156.509C280.308 156.796 281.487 157.274 282.601 157.879L285.563 155.968L289.767 160.013L287.952 163.038C288.589 164.121 289.099 165.3 289.449 166.51L292.921 167.243L293.016 173.071L289.576 173.899C289.29 175.141 288.812 176.32 288.175 177.434L290.118 180.396L286.073 184.601L283.047 182.753C281.964 183.422 280.786 183.932 279.576 184.282L278.843 187.754L273.015 187.849L272.186 184.409C270.944 184.123 269.766 183.645 268.619 183.008L265.689 184.951L261.485 180.906L263.3 177.88C262.632 176.797 262.122 175.619 261.803 174.409L258.332 173.676L258.236 167.848L261.676 166.988C261.963 165.777 262.44 164.599 263.046 163.452L261.135 160.522L265.18 156.318L268.205 158.134ZM271.327 165.905C268.906 168.389 268.97 172.37 271.454 174.759C273.97 177.148 277.919 177.084 280.308 174.6C282.729 172.116 282.665 168.134 280.181 165.746C277.665 163.357 273.715 163.421 271.327 165.905Z" fill="#D2D9E0" fill-opacity="0.4"/>
<path fill-rule="evenodd" clip-rule="evenodd" d="M144.182 233.49C144.756 233.15 145.361 232.895 145.998 232.725L146.38 230.91L149.438 230.846L149.852 232.63C150.51 232.8 151.136 233.044 151.731 233.362L153.259 232.343L155.457 234.477L154.502 236.07C154.863 236.643 155.128 237.248 155.298 237.885L157.113 238.267L157.145 241.325L155.362 241.771C155.213 242.408 154.969 243.023 154.629 243.618L155.648 245.147L153.514 247.344L151.954 246.389C151.359 246.75 150.743 247.015 150.106 247.185L149.756 249.001L146.698 249.064L146.253 247.249C145.616 247.1 145 246.856 144.405 246.516L142.845 247.535L140.647 245.433L141.602 243.841C141.263 243.268 140.997 242.662 140.806 242.025L139.023 241.643L138.959 238.586L140.743 238.14C140.912 237.503 141.157 236.887 141.475 236.293L140.456 234.732L142.59 232.534L144.182 233.49ZM145.807 237.567C144.565 238.872 144.596 240.943 145.902 242.217C147.208 243.459 149.278 243.427 150.52 242.121C151.794 240.815 151.731 238.745 150.457 237.503C149.151 236.229 147.081 236.261 145.807 237.567Z" fill="#D2D9E0" fill-opacity="0.4"/>
<path d="M140.871 237.917C136.157 236.77 132.292 235.231 129.277 233.299L135.775 218.138C138.641 219.837 141.837 221.207 145.361 222.247C148.907 223.266 152.305 223.776 155.553 223.776C158.356 223.776 160.352 223.5 161.541 222.948C162.751 222.374 163.356 221.536 163.356 220.432C163.356 219.136 162.571 218.17 161 217.533C159.428 216.875 156.838 216.164 153.228 215.399C148.621 214.401 144.777 213.329 141.699 212.182C138.62 211.036 135.934 209.157 133.641 206.545C131.369 203.933 130.233 200.387 130.233 195.907C130.233 192.043 131.284 188.518 133.386 185.333C135.488 182.169 138.641 179.675 142.845 177.849C147.028 176.023 152.124 175.109 158.133 175.109C162.231 175.109 166.265 175.566 170.236 176.479C174.207 177.392 177.699 178.73 180.714 180.492L174.631 195.557C168.771 192.499 163.208 190.971 157.942 190.971C152.761 190.971 150.171 192.266 150.171 194.856C150.171 196.088 150.935 197.011 152.464 197.627C154.014 198.243 156.551 198.912 160.076 199.634C164.641 200.504 168.495 201.513 171.637 202.659C174.78 203.806 177.508 205.675 179.823 208.265C182.137 210.855 183.294 214.38 183.294 218.839C183.294 222.725 182.233 226.239 180.109 229.381C178.007 232.524 174.854 235.019 170.65 236.866C166.467 238.713 161.382 239.637 155.394 239.637C150.425 239.637 145.584 239.064 140.871 237.917Z" fill="#D90452"/>
<path d="M239.094 222.534V238.235H189.281V176.543H237.979V192.213H209.124V199.443H234.476V214.444H209.124V222.534H239.094Z" fill="#D90452"/>
<path d="M278.111 206.895L255.816 183.55C258.491 180.842 261.612 178.645 265.02 177.052C280.913 169.663 299.928 177.052 307.094 193.423C314.292 209.794 307.094 229.349 291.201 236.738C275.308 244.128 256.325 236.738 249.127 220.368C248.597 219.157 248.14 217.915 247.758 216.641L278.111 206.895Z" fill="#D90452"/>
<path d="M278.11 206.959L247.757 216.705C246.802 213.552 246.324 210.271 246.324 206.959C246.324 198.009 249.891 189.442 256.166 183.263L278.11 206.959Z" fill="#D90452"/>
<g opacity="0.3">
<path d="M278.11 206.959L247.757 216.705C246.802 213.552 246.324 210.271 246.324 206.959C246.324 198.009 249.891 189.442 256.166 183.263L278.11 206.959Z" fill="black"/>
</g>
<path d="M278.111 206.959L254.574 228.872C254.574 228.872 249.637 223.585 247.758 216.705L278.111 206.959Z" fill="#E0E0E0"/>
<path fill-rule="evenodd" clip-rule="evenodd" d="M184.729 147.05C185.323 146.689 185.939 146.424 186.576 146.254L186.958 144.438L190.016 144.375L190.43 146.158C191.088 146.328 191.714 146.572 192.309 146.891L193.838 145.903L196.035 148.005L195.08 149.598C195.419 150.171 195.685 150.776 195.876 151.413L197.691 151.795L197.723 154.853L195.94 155.299C195.791 155.936 195.547 156.552 195.207 157.146L196.226 158.675L194.092 160.873L192.532 159.917C191.937 160.278 191.321 160.544 190.684 160.713L190.334 162.529L187.277 162.592L186.831 160.777C186.194 160.628 185.578 160.395 184.983 160.076L183.423 161.064L181.225 158.962L182.181 157.369C181.841 156.796 181.575 156.191 181.384 155.554L179.569 155.172L179.537 152.114L181.321 151.668C181.491 151.031 181.735 150.415 182.053 149.821L181.034 148.26L183.168 146.063L184.729 147.05ZM186.353 151.127C185.079 152.432 185.143 154.503 186.448 155.777C187.722 157.019 189.825 156.987 191.067 155.681C192.341 154.375 192.277 152.305 190.971 151.063C189.697 149.789 187.595 149.821 186.353 151.127Z" fill="#D2D9E0"/>
<path d="M243.458 159.025L243.331 160.713C243.203 162.178 241.388 163.198 239.7 162.815L208.137 159.599L208.71 154.598L240.591 155.713C242.725 155.681 243.585 157.114 243.458 159.025Z" fill="#455A64"/>
<path fill-rule="evenodd" clip-rule="evenodd" d="M196.385 173.358C192.722 174.791 188.613 175.141 184.536 174.09C179.504 172.816 175.268 169.663 172.625 165.236C169.981 160.777 169.217 155.554 170.491 150.522C173.102 140.17 183.677 133.864 194.06 136.476C199.092 137.75 203.296 140.903 205.971 145.362C208.615 149.821 209.379 155.012 208.105 160.045C206.513 166.351 201.99 171.128 196.385 173.358ZM182.689 138.451C177.434 140.489 173.23 144.98 171.733 150.84C170.555 155.554 171.255 160.395 173.739 164.567C176.224 168.708 180.173 171.67 184.855 172.848C189.537 174.027 194.41 173.326 198.582 170.842C202.723 168.357 205.653 164.408 206.863 159.726C208.042 155.044 207.309 150.171 204.857 146.031C202.372 141.858 198.423 138.928 193.741 137.75C189.919 136.763 186.097 137.113 182.689 138.451Z" fill="#263238"/>
<path fill-rule="evenodd" clip-rule="evenodd" d="M196.257 172.211C192.626 173.644 188.517 173.995 184.44 172.944C179.408 171.67 175.172 168.517 172.529 164.058C169.853 159.631 169.089 154.407 170.363 149.375C173.006 138.992 183.58 132.686 193.932 135.329C198.964 136.603 203.2 139.756 205.843 144.183C208.519 148.642 209.251 153.866 208.009 158.898C206.417 165.172 201.894 169.982 196.257 172.211ZM182.593 137.272C177.338 139.342 173.134 143.833 171.637 149.693C170.458 154.375 171.159 159.248 173.643 163.421C176.096 167.561 180.045 170.491 184.759 171.702C189.441 172.88 194.314 172.147 198.454 169.695C202.595 167.211 205.557 163.261 206.735 158.579C207.914 153.898 207.213 149.025 204.729 144.852C202.244 140.712 198.327 137.782 193.613 136.571C189.823 135.616 185.969 135.934 182.593 137.272Z" fill="#455A64"/>
<path d="M199.569 141.795C199.569 141.795 199.485 141.731 199.315 141.604C199.155 141.476 198.932 141.253 198.582 141.062C197.945 140.585 196.958 140.011 195.62 139.47C194.983 139.215 194.251 138.992 193.422 138.801C192.626 138.61 191.766 138.451 190.811 138.387C189.887 138.291 188.9 138.259 187.912 138.355C186.893 138.419 185.842 138.578 184.791 138.833C183.74 139.088 182.753 139.47 181.861 139.916C180.937 140.362 180.109 140.871 179.345 141.413C177.848 142.527 176.701 143.769 175.873 144.916C175.045 146.063 174.504 147.082 174.185 147.814C174.026 148.165 173.93 148.451 173.835 148.642C173.75 148.834 173.708 148.929 173.708 148.929C173.686 148.929 173.718 148.823 173.803 148.611C173.867 148.42 173.962 148.133 174.122 147.783C174.408 147.018 174.918 145.999 175.746 144.82C176.574 143.674 177.721 142.4 179.249 141.253C180.014 140.712 180.842 140.17 181.766 139.725C182.689 139.279 183.676 138.896 184.759 138.642C185.81 138.355 186.861 138.228 187.881 138.132C188.9 138.068 189.887 138.1 190.843 138.196C191.766 138.259 192.658 138.451 193.486 138.61C194.282 138.833 195.047 139.088 195.684 139.342C197.021 139.884 198.009 140.489 198.614 140.999C198.964 141.221 199.187 141.444 199.346 141.572C199.495 141.699 199.569 141.774 199.569 141.795Z" fill="white"/>
<path d="M199.059 167.466C199.028 167.402 199.856 166.924 200.939 165.905C201.087 165.777 201.236 165.639 201.385 165.491C201.512 165.363 201.671 165.172 201.799 165.013C202.117 164.695 202.404 164.312 202.69 163.93C203.295 163.102 203.837 162.178 204.315 161.127C204.792 160.076 205.111 159.025 205.302 158.07C205.398 157.56 205.493 157.114 205.525 156.669C205.557 156.446 205.589 156.223 205.589 156.032C205.61 155.819 205.62 155.617 205.62 155.426C205.652 153.929 205.461 153.006 205.493 153.006C205.525 153.006 205.557 153.229 205.62 153.643C205.684 153.866 205.716 154.121 205.716 154.407C205.748 154.726 205.78 155.044 205.748 155.426C205.748 155.617 205.748 155.819 205.748 156.032C205.748 156.254 205.716 156.446 205.716 156.669C205.684 157.114 205.589 157.592 205.493 158.102C205.302 159.089 204.984 160.14 204.506 161.223C204.028 162.274 203.455 163.23 202.85 164.026C202.531 164.44 202.244 164.822 201.926 165.14C201.767 165.3 201.639 165.459 201.48 165.618C201.331 165.746 201.193 165.873 201.066 166C200.779 166.287 200.493 166.478 200.27 166.669C200.015 166.86 199.824 167.02 199.633 167.115C199.282 167.338 199.059 167.466 199.059 167.466Z" fill="white"/>
<path d="M197.849 149.248C197.849 149.311 194.281 149.693 189.886 150.076C185.491 150.458 181.924 150.744 181.924 150.681C181.924 150.617 185.459 150.267 189.854 149.885C194.25 149.47 197.817 149.216 197.849 149.248Z" fill="white"/>
<path d="M199.888 154.789C199.888 154.789 199.803 154.8 199.634 154.821C199.442 154.821 199.198 154.832 198.901 154.853C198.232 154.885 197.34 154.949 196.194 154.981C193.932 155.108 190.779 155.267 187.308 155.49C183.804 155.713 180.683 155.936 178.39 156.095C177.275 156.191 176.351 156.255 175.683 156.318C175.385 156.339 175.141 156.35 174.95 156.35C174.78 156.371 174.695 156.371 174.695 156.35C174.695 156.35 174.78 156.339 174.95 156.318C175.141 156.297 175.385 156.265 175.683 156.223C176.32 156.159 177.243 156.063 178.39 155.968C180.651 155.745 183.804 155.49 187.276 155.267C190.748 155.044 193.901 154.917 196.194 154.853C197.34 154.789 198.264 154.789 198.901 154.758C199.198 154.758 199.442 154.758 199.634 154.758C199.803 154.758 199.888 154.768 199.888 154.789Z" fill="white"/>
<g opacity="0.3">
<path d="M171.477 152.082L206.575 149.916C206.575 149.916 207.467 153.101 207.276 155.203L171.349 157.401C171.349 157.401 170.84 154.694 171.477 152.082Z" fill="white"/>
</g>
<g opacity="0.3">
<path d="M172.4 160.873L206.734 158.58C206.734 158.58 206.957 158.484 206.257 159.981L172.974 162.179C172.974 162.179 172.56 161.701 172.4 160.873Z" fill="white"/>
</g>
<path d="M342.83 120.678H292.348C290.278 120.678 288.59 118.99 288.59 116.888V71.63C288.59 69.5279 290.278 67.8399 292.348 67.8399H342.83C344.932 67.8399 346.62 69.5279 346.62 71.63V116.888C346.62 118.99 344.932 120.678 342.83 120.678Z" fill="white"/>
<path d="M346.62 76.8533H288.59V71.7256C288.59 69.5916 290.342 67.8399 292.476 67.8399H343.053C345.027 67.8399 346.62 69.4324 346.62 71.4071V76.8533Z" fill="#D2D9E0" fill-opacity="0.5"/>
<path d="M296.934 73.2225C296.934 73.955 296.297 74.5601 295.533 74.5601C294.737 74.5601 294.1 73.955 294.1 73.2225C294.1 72.4899 294.737 71.8848 295.533 71.8848C296.297 71.8848 296.934 72.4899 296.934 73.2225Z" fill="white"/>
<path d="M300.819 73.2225C300.819 73.955 300.182 74.5601 299.418 74.5601C298.621 74.5601 297.984 73.955 297.984 73.2225C297.984 72.4899 298.621 71.8848 299.418 71.8848C300.182 71.8848 300.819 72.4899 300.819 73.2225Z" fill="white"/>
<path d="M304.706 73.2225C304.706 73.955 304.069 74.5601 303.272 74.5601C302.508 74.5601 301.871 73.955 301.871 73.2225C301.871 72.4899 302.508 71.8848 303.272 71.8848C304.069 71.8848 304.706 72.4899 304.706 73.2225Z" fill="white"/>
<path d="M342.829 120.678C342.829 120.647 343.02 120.647 343.402 120.615C343.753 120.551 344.294 120.424 344.899 120.01C345.472 119.627 346.11 118.959 346.396 117.939C346.555 117.462 346.555 116.888 346.555 116.283C346.555 115.689 346.555 115.041 346.555 114.34C346.524 108.894 346.524 101.027 346.492 91.3131C346.492 86.4401 346.492 81.0893 346.46 75.3883C346.46 74.6663 346.46 73.9444 346.46 73.2225C346.46 72.8615 346.46 72.49 346.46 72.1078C346.46 71.7574 346.492 71.3752 346.428 71.0249C346.205 69.6235 345.058 68.3814 343.593 68.0947C342.893 67.9355 342.096 68.031 341.332 67.9992C340.568 67.9992 339.793 67.9992 339.007 67.9992C337.436 67.9992 335.843 67.9992 334.23 67.9992C321.362 67.9992 307.221 67.9992 292.379 68.031C291.487 68.031 290.596 68.3495 289.959 68.9546C289.29 69.5598 288.876 70.3879 288.78 71.2478C288.748 73.0632 288.78 74.9105 288.748 76.6941C288.748 80.325 288.748 83.8921 288.748 87.3956C288.748 94.4025 288.748 101.155 288.748 107.588C288.748 110.794 288.748 113.926 288.748 116.984C288.748 118.481 289.768 119.818 291.105 120.296C291.774 120.583 292.507 120.519 293.239 120.519C293.961 120.519 294.683 120.519 295.405 120.519C301.138 120.519 306.457 120.551 311.33 120.551C321.076 120.583 328.943 120.583 334.389 120.615C337.096 120.615 339.23 120.615 340.663 120.647C341.364 120.647 341.905 120.647 342.288 120.647C342.649 120.647 342.829 120.657 342.829 120.678C342.829 120.678 342.649 120.678 342.288 120.678C341.905 120.678 341.364 120.689 340.663 120.71C339.23 120.71 337.096 120.71 334.389 120.742C328.943 120.742 321.076 120.774 311.33 120.774C306.457 120.774 301.138 120.806 295.405 120.806C294.683 120.806 293.961 120.806 293.239 120.806C292.538 120.806 291.742 120.87 291.01 120.583C289.576 120.073 288.462 118.608 288.462 116.984C288.462 113.948 288.451 110.816 288.43 107.588C288.43 101.155 288.43 94.4025 288.43 87.3956C288.43 83.8921 288.43 80.325 288.43 76.6941C288.43 74.8787 288.398 73.0951 288.462 71.216C288.557 70.2605 289.003 69.3687 289.736 68.6998C290.436 68.0629 291.392 67.6807 292.379 67.6807C307.221 67.6807 321.362 67.7125 334.23 67.7125C335.843 67.7125 337.436 67.7125 339.007 67.7125C339.793 67.7125 340.568 67.7125 341.332 67.7125C341.714 67.7125 342.107 67.7125 342.51 67.7125C342.861 67.7125 343.275 67.7125 343.657 67.8081C345.218 68.1266 346.46 69.4642 346.683 70.993C346.746 71.3752 346.746 71.7574 346.746 72.1078C346.746 72.49 346.746 72.8615 346.746 73.2225C346.746 73.9444 346.746 74.6663 346.746 75.3883C346.746 81.0893 346.715 86.4401 346.715 91.3131C346.715 101.027 346.683 108.894 346.683 114.34C346.662 115.041 346.651 115.689 346.651 116.283C346.683 116.888 346.651 117.462 346.492 117.971C346.205 118.99 345.536 119.691 344.931 120.073C344.326 120.455 343.753 120.583 343.402 120.647C343.02 120.678 342.829 120.678 342.829 120.678Z" fill="#263238"/>
<path d="M339.388 116.028H295.659C294.098 116.028 292.824 114.754 292.824 113.194V83.7329C292.824 82.1722 294.098 80.8983 295.659 80.8983H339.388C340.949 80.8983 342.223 82.1722 342.223 83.7329V113.194C342.223 114.754 340.949 116.028 339.388 116.028Z" fill="#D90452"/>
<g opacity="0.3">
<path d="M296.965 113.831L309.036 96.6638C309.545 95.9313 310.66 95.8994 311.202 96.6001L319.514 106.888C319.992 107.493 320.947 107.556 321.521 107.015L326.362 102.333C326.935 101.792 327.859 101.855 328.368 102.46L337.86 113.735C338.624 114.627 337.987 115.997 336.84 115.997H298.079C296.997 115.997 296.328 114.754 296.965 113.831Z" fill="black"/>
</g>
<g opacity="0.3">
<path d="M324.547 92.2685C324.547 94.5617 322.668 96.4408 320.343 96.4408C318.018 96.4408 316.139 94.5617 316.139 92.2685C316.139 89.9435 318.018 88.0644 320.343 88.0644C322.668 88.0644 324.547 89.9435 324.547 92.2685Z" fill="black"/>
</g>
</svg>
