<svg width="432" height="256" viewBox="0 0 432 256" fill="none" xmlns="http://www.w3.org/2000/svg">
<path d="M25.0156 218.314C25.0156 218.229 108.478 218.172 211.409 218.172C314.369 218.172 397.803 218.229 397.803 218.314C397.803 218.399 314.369 218.485 211.409 218.485C108.478 218.485 25.0156 218.399 25.0156 218.314Z" fill="#263238"/>
<path d="M90.8481 142.606H36.0865C34.0941 142.606 32.4941 141.03 32.4941 139.097V90.593C32.4941 88.66 34.0941 87.0839 36.0865 87.0839H90.8481C92.8104 87.0839 94.4103 88.66 94.4103 90.593V139.097C94.4103 141.03 92.8104 142.606 90.8481 142.606Z" fill="white"/>
<path d="M94.4103 96.5408H32.4941V90.6822C32.4941 88.6898 34.1545 87.0839 36.1771 87.0839H91.0293C92.9009 87.0839 94.4103 88.5708 94.4103 90.4146V96.5408Z" fill="#D2D9E0" fill-opacity="0.3"/>
<path d="M41.4299 92.7342C41.4299 93.5074 40.7355 94.1319 39.8903 94.1319C39.0752 94.1319 38.3809 93.5074 38.3809 92.7342C38.3809 91.961 39.0752 91.3068 39.8903 91.3068C40.7355 91.3068 41.4299 91.961 41.4299 92.7342Z" fill="white"/>
<path d="M45.5656 92.7341C45.5656 93.5073 44.8713 94.1318 44.026 94.1318C43.2109 94.1318 42.5166 93.5073 42.5166 92.7341C42.5166 91.9609 43.2109 91.3066 44.026 91.3066C44.8713 91.3066 45.5656 91.9609 45.5656 92.7341Z" fill="white"/>
<path d="M49.7014 92.7341C49.7014 93.5073 49.007 94.1318 48.1618 94.1318C47.3467 94.1318 46.6523 93.5073 46.6523 92.7341C46.6523 91.9609 47.3467 91.3066 48.1618 91.3066C49.007 91.3066 49.7014 91.9609 49.7014 92.7341Z" fill="white"/>
<path d="M39.3164 101.507C39.3164 101.507 39.3164 135.796 39.3164 135.469C39.3164 135.142 89.0667 135.469 89.0667 135.469" fill="white"/>
<path d="M89.0667 135.469C89.0667 135.469 88.9963 135.479 88.8554 135.498C88.6944 135.498 88.4831 135.498 88.2215 135.498C87.6378 135.498 86.8227 135.498 85.7762 135.498C83.6026 135.498 80.5234 135.498 76.7499 135.498C69.1123 135.498 58.5765 135.498 46.9541 135.498C45.505 135.498 44.066 135.508 42.6371 135.528C41.9327 135.528 41.2384 135.538 40.5541 135.558C40.1919 135.558 39.8598 135.558 39.4975 135.588L39.407 135.617C39.3869 135.617 39.3768 135.617 39.3768 135.617C39.739 135.588 39.1051 135.439 39.1655 135.469V135.409V135.142V134.636C39.1655 131.93 39.1655 129.343 39.1655 126.844C39.1957 121.878 39.1957 117.417 39.1957 113.67C39.2258 109.923 39.256 106.89 39.256 104.778C39.2762 103.728 39.2862 102.915 39.2862 102.34C39.2862 102.082 39.2862 101.874 39.2862 101.715C39.3064 101.576 39.3164 101.507 39.3164 101.507C39.3164 101.507 39.3164 101.576 39.3164 101.715C39.3365 101.874 39.3466 102.082 39.3466 102.34C39.3466 102.915 39.3567 103.728 39.3768 104.778C39.3768 106.89 39.407 109.923 39.4372 113.67C39.4372 117.417 39.4372 121.878 39.4674 126.844C39.4674 129.343 39.4674 131.93 39.4674 134.636V135.142V135.409V135.469C39.5277 135.528 38.8938 135.32 39.256 135.32H39.2862C39.3164 135.29 39.3466 135.29 39.3466 135.29H39.4975C39.8296 135.261 40.1919 135.261 40.5239 135.231C41.2283 135.231 41.9327 135.221 42.6371 135.201C44.066 135.201 45.505 135.191 46.9541 135.171C58.5765 135.171 69.1123 135.231 76.7499 135.29C80.5234 135.32 83.6026 135.379 85.7762 135.379C86.8227 135.399 87.6378 135.419 88.2215 135.439C88.4831 135.439 88.6944 135.439 88.8554 135.439C88.9963 135.459 89.0667 135.469 89.0667 135.469Z" fill="#263238"/>
<path d="M55.014 131.662H44.3877V118.042H55.014V131.662Z" fill="#740646"/>
<path d="M69.4144 131.662H58.7881V110.756H69.4144V131.662Z" fill="#740646"/>
<path d="M83.8441 131.662H73.2178V104.63H83.8441V131.662Z" fill="#740646"/>
<path d="M90.8478 142.606C90.8478 142.577 91.0592 142.606 91.4214 142.517C91.8139 142.458 92.3874 142.309 92.9912 141.833C93.595 141.387 94.1987 140.584 94.3497 139.484C94.3799 138.413 94.3497 137.105 94.3497 135.677C94.3497 129.938 94.3195 121.64 94.2893 111.351C94.2893 106.236 94.2893 100.615 94.2893 94.5782C94.2893 93.8249 94.2893 93.0616 94.2893 92.2884C94.2893 91.9117 94.2893 91.5251 94.2893 91.1286C94.2591 90.742 94.2893 90.3554 94.2289 89.9985C93.9874 88.5116 92.5686 87.2625 90.9686 87.2328C87.7082 87.2328 84.3574 87.2328 80.9159 87.2328C67.1198 87.2328 51.9955 87.2328 36.0863 87.2328C35.1202 87.2328 34.1844 87.6491 33.5504 88.3331C32.9165 89.0171 32.6146 89.9687 32.675 90.9204C32.675 92.8435 32.675 94.7666 32.675 96.6897C32.675 100.496 32.675 104.243 32.675 107.931C32.6448 115.336 32.6448 122.473 32.6448 129.254C32.6448 132.644 32.6448 135.945 32.6448 139.157C32.6448 139.93 32.9769 140.703 33.4599 141.268C33.9731 141.863 34.6674 142.249 35.4221 142.398C35.7844 142.487 36.1768 142.458 36.5693 142.458C36.9517 142.458 37.3441 142.458 37.7466 142.458C38.5114 142.458 39.2862 142.458 40.0711 142.458C46.1993 142.487 51.9049 142.487 57.0973 142.487C67.5123 142.517 75.965 142.517 81.7914 142.547C84.6894 142.547 86.9535 142.547 88.4931 142.577C89.2579 142.577 89.8416 142.577 90.2441 142.577C90.6466 142.596 90.8478 142.606 90.8478 142.606C90.8478 142.606 90.6466 142.606 90.2441 142.606C89.8416 142.606 89.2579 142.616 88.4931 142.636C86.9535 142.636 84.6894 142.636 81.7914 142.666C75.965 142.666 67.5123 142.695 57.0973 142.695C51.9049 142.725 46.1993 142.725 40.0711 142.725C39.2862 142.725 38.5114 142.725 37.7466 142.725C37.3441 142.725 36.9517 142.725 36.5693 142.725C36.1768 142.725 35.7542 142.755 35.3617 142.666C34.5467 142.487 33.792 142.071 33.2486 141.446C32.7052 140.822 32.3731 140.019 32.3731 139.186C32.3731 135.955 32.3731 132.644 32.3731 129.254C32.3731 122.473 32.3429 115.336 32.3429 107.931C32.3429 104.243 32.3429 100.496 32.3429 96.6897C32.3429 94.7666 32.3429 92.8435 32.3429 90.9204C32.2825 89.939 32.6146 88.8684 33.3089 88.1249C34.0033 87.3815 35.0297 86.9057 36.0863 86.9354C51.9955 86.9354 67.1198 86.9354 80.9159 86.9354C84.3574 86.9354 87.7183 86.9453 90.9988 86.9651C92.7195 86.9949 94.2289 88.3331 94.4704 89.939C94.561 90.3554 94.5308 90.742 94.5308 91.1286C94.5308 91.5251 94.5308 91.9117 94.5308 92.2884C94.5308 93.0616 94.5308 93.8249 94.5308 94.5782C94.5308 100.615 94.5308 106.236 94.5308 111.351C94.5006 121.64 94.4704 129.938 94.4704 135.677C94.4403 137.134 94.5006 138.383 94.4402 139.513C94.2893 140.614 93.6553 141.446 93.0214 141.893C92.4176 142.368 91.8139 142.487 91.4516 142.547C91.2403 142.606 91.0894 142.606 90.9988 142.606C90.8982 142.606 90.8478 142.606 90.8478 142.606Z" fill="#263238"/>
<path d="M338.567 18H111.616C107.696 18 104.524 21.1337 104.524 24.9768V183.374C104.524 187.217 107.696 190.351 111.616 190.351H198.716L194.497 218.021H257.631L254.13 190.351H338.567C342.457 190.351 345.629 187.217 345.629 183.374V24.9768C345.629 21.1337 342.457 18 338.567 18Z" fill="#D2D9E0"/>
<path d="M228.129 173.707C231.211 178.053 226.363 182.842 221.965 179.797C221.815 179.678 221.666 179.56 221.576 179.412C218.494 175.067 223.311 170.278 227.74 173.322C227.889 173.441 228.009 173.559 228.129 173.707Z" fill="#100E0F"/>
<path d="M339.316 161.379H110.868V29.766C110.868 26.6028 113.471 24.0309 116.673 24.0309H333.511C336.713 24.0309 339.316 26.6028 339.316 29.766V161.379Z" fill="#100E0F"/>
<path d="M277.528 190.35C277.528 190.439 258.498 190.498 235.04 190.498C211.582 190.498 192.552 190.439 192.552 190.35C192.552 190.291 211.582 190.232 235.04 190.232C258.498 190.232 277.528 190.291 277.528 190.35Z" fill="#100E0F"/>
<path d="M333.391 155.703H117.062V29.707H333.391V155.703Z" fill="white"/>
<path d="M333.391 40.1722H117.062V29.707H333.391V40.1722Z" fill="#D2D9E0"/>
<path d="M125.469 35.176C125.469 35.9742 124.811 36.6246 123.973 36.6246C123.135 36.6246 122.447 35.9742 122.447 35.176C122.447 34.3778 123.135 33.7274 123.973 33.7274C124.811 33.7274 125.469 34.3778 125.469 35.176Z" fill="white"/>
<path d="M130.018 35.1759C130.018 35.9741 129.33 36.6245 128.492 36.6245C127.654 36.6245 126.966 35.9741 126.966 35.1759C126.966 34.3777 127.654 33.7274 128.492 33.7274C129.33 33.7274 130.018 34.3777 130.018 35.1759Z" fill="white"/>
<path d="M134.326 35.1759C134.326 35.9741 133.638 36.6245 132.8 36.6245C131.963 36.6245 131.274 35.9741 131.274 35.1759C131.274 34.3777 131.963 33.7274 132.8 33.7274C133.638 33.7274 134.326 34.3777 134.326 35.1759Z" fill="white"/>
<path d="M333.451 100.835H117.031V55.7813H333.451V100.835Z" fill="#D2D9E0"/>
<path d="M147.072 51.613H125.918V46.2917H147.072V51.613Z" fill="#D90452"/>
<path d="M295.241 50.4302H279.922V45.1089H295.241V50.4302Z" fill="#D2D9E0"/>
<path d="M270.198 50.2826H254.908V44.9613H270.198V50.2826Z" fill="#D2D9E0"/>
<path d="M217.147 94.538C217.147 95.5727 216.31 96.4004 215.232 96.4004C214.185 96.4004 213.317 95.5727 213.317 94.538C213.317 93.5328 214.185 92.7051 215.232 92.7051C216.31 92.7051 217.147 93.5328 217.147 94.538Z" fill="#D90452"/>
<path d="M224.807 94.538C224.807 95.5727 223.97 96.4005 222.892 96.4005C221.845 96.4005 220.978 95.5727 220.978 94.538C220.978 93.5329 221.845 92.7051 222.892 92.7051C223.97 92.7051 224.807 93.5329 224.807 94.538Z" fill="white"/>
<path d="M232.137 94.538C232.137 95.5727 231.269 96.4005 230.222 96.4005C229.145 96.4005 228.277 95.5727 228.277 94.538C228.277 93.5329 229.145 92.7051 230.222 92.7051C231.269 92.7051 232.137 93.5329 232.137 94.538Z" fill="white"/>
<path d="M172.475 137.197H139.771V109.024H172.475V137.197Z" fill="#E0E0E0"/>
<path d="M237.793 135.748H210.235V108.521H237.793V135.748Z" fill="#E0E0E0"/>
<path d="M302.752 136.606H273.489V107.664H302.752V136.606Z" fill="#E0E0E0"/>
<path d="M176.246 116.03C176.246 116.03 168.047 106.865 167 106.304C166.491 106.008 165.564 105.801 164.756 105.653C164.397 105.565 163.918 105.505 163.38 105.446C163.32 105.446 163.29 105.446 163.29 105.446C160.776 105.239 156.976 105.328 156.976 105.328C156.976 105.328 156.917 108.639 152.638 110.029C148.269 110.975 146.504 108.166 146.504 108.166C146.504 108.166 143.153 109.969 141.118 111.418C141.118 111.418 141.088 111.438 141.028 111.477C140.61 111.773 140.221 112.068 139.951 112.334C139.353 112.837 138.665 113.487 138.366 114.02C137.767 115.025 135.403 127.027 135.403 127.027L144.17 128.771L145.068 122.859L149.825 142.104L160.238 139.296L161.135 139.059L171.698 136.221L165.743 117.271L169.573 121.942L176.246 116.03Z" fill="#D90452"/>
<path d="M146.385 127.589C146.355 127.589 146.145 126.938 145.846 125.845C145.547 124.78 145.128 123.243 144.709 121.558V121.588C144.549 121.371 144.38 121.154 144.2 120.937C143.003 119.341 141.926 117.922 141.178 116.887C140.789 116.355 140.49 115.941 140.281 115.645C140.071 115.35 139.981 115.172 139.981 115.143C140.011 115.143 140.161 115.291 140.37 115.557C140.61 115.852 140.939 116.237 141.358 116.769C142.166 117.774 143.243 119.163 144.44 120.73C144.619 120.967 144.789 121.193 144.948 121.41L144.978 121.44V121.469C145.427 123.184 145.786 124.721 146.026 125.815C146.295 126.909 146.414 127.589 146.385 127.589Z" fill="#100E0F"/>
<path d="M167.03 122.031C166.97 122.031 166.761 121.38 166.401 120.316C166.072 119.252 165.594 117.744 165.085 116.059V116.03V116C165.105 115.724 165.135 115.448 165.175 115.172C165.384 113.221 165.624 111.447 165.803 110.176C165.863 109.526 165.953 109.023 166.013 108.669C166.072 108.314 166.102 108.107 166.132 108.107C166.162 108.107 166.162 108.314 166.132 108.669C166.102 109.023 166.072 109.555 166.013 110.206C165.893 111.477 165.683 113.251 165.474 115.202C165.434 115.478 165.404 115.754 165.384 116.03L165.354 115.97C165.863 117.685 166.312 119.193 166.611 120.257C166.88 121.351 167.06 122.031 167.03 122.031Z" fill="#100E0F"/>
<path d="M162.062 121.439L161.434 121.617C159.848 122.031 158.232 121.114 157.783 119.547L156.706 115.586L163.049 113.871L164.126 117.862C164.545 119.399 163.618 121.025 162.062 121.439Z" fill="white"/>
<path fill-rule="evenodd" clip-rule="evenodd" d="M160.656 121.735C160.118 121.735 159.609 121.587 159.16 121.321C158.472 120.937 157.993 120.316 157.784 119.548L156.677 115.557H156.707L163.05 113.842V113.872L164.157 117.833C164.576 119.4 163.648 121.026 162.063 121.44L161.434 121.617C161.175 121.696 160.916 121.735 160.656 121.735ZM156.707 115.586L157.814 119.548C158.023 120.287 158.502 120.907 159.19 121.321C159.878 121.706 160.656 121.794 161.404 121.587L162.033 121.41C163.618 120.996 164.546 119.4 164.127 117.863L163.02 113.901L156.707 115.586Z" fill="#100E0F"/>
<path d="M162.243 121.351C162.243 121.321 162.452 121.262 162.811 121.055C163.14 120.878 163.619 120.494 163.888 119.814C164.038 119.489 164.128 119.075 164.098 118.661C164.068 118.247 163.888 117.803 163.769 117.301C163.47 116.325 163.17 115.232 162.841 114.079L163.021 114.167C161.944 114.463 160.747 114.788 159.52 115.113C158.622 115.35 157.765 115.586 156.947 115.823L157.037 115.645C157.396 116.917 157.725 118.129 158.024 119.222C158.084 119.489 158.144 119.755 158.233 119.991C158.323 120.228 158.473 120.435 158.592 120.642C158.892 120.996 159.281 121.262 159.64 121.41C160.418 121.735 161.106 121.588 161.525 121.469C161.974 121.381 162.243 121.321 162.243 121.351C162.243 121.351 162.003 121.44 161.555 121.588C161.136 121.706 160.418 121.913 159.58 121.588C159.161 121.44 158.772 121.174 158.443 120.76C158.263 120.553 158.114 120.346 158.024 120.08C157.904 119.814 157.844 119.548 157.755 119.282C157.455 118.188 157.126 117.005 156.767 115.705L156.737 115.586L156.857 115.527C157.695 115.31 158.553 115.084 159.43 114.847C160.657 114.522 161.854 114.197 162.961 113.901L163.081 113.872L163.11 113.99C163.44 115.172 163.739 116.266 164.008 117.242C164.128 117.715 164.277 118.188 164.307 118.661C164.307 119.104 164.218 119.548 164.068 119.873C163.739 120.582 163.2 120.967 162.841 121.144C162.662 121.243 162.512 121.302 162.392 121.321C162.293 121.341 162.243 121.351 162.243 121.351Z" fill="#100E0F"/>
<path d="M170.83 146.864H142.285V143.08H170.83V146.864Z" fill="#E0E0E0"/>
<path d="M237.643 146.864H209.099V143.08H237.643V146.864Z" fill="#E0E0E0"/>
<path d="M303.021 146.746H275.942V143.168H303.021V146.746Z" fill="#E0E0E0"/>
<path d="M308.736 130.841C308.377 129.659 306.821 129.629 305.714 129.156C302.842 127.914 300.179 126.288 297.785 124.308L273.489 122.652L273.399 123.628C278.965 131.521 289.198 137.345 298.922 136.842C301.495 136.695 304.158 136.192 306.372 134.891C307.659 134.123 309.125 132.231 308.736 130.841Z" fill="#D90452"/>
<g opacity="0.3">
<path d="M308.736 130.841C308.377 129.659 306.821 129.629 305.714 129.156C302.842 127.914 300.179 126.288 297.785 124.308L273.489 122.652L273.399 123.628C278.965 131.521 289.198 137.345 298.922 136.842C301.495 136.695 304.158 136.192 306.372 134.891C307.659 134.123 309.125 132.231 308.736 130.841Z" fill="#100E0F"/>
</g>
<path d="M299.072 118.07C297.845 115.232 296.17 112.571 292.968 111.152C288.869 109.349 284.171 109.94 280.521 112.039C276.901 114.138 274.058 119.312 273.43 123.037C281.778 130.575 298.414 131.905 301.017 127.264C301.346 124.337 300.299 120.908 299.072 118.07Z" fill="#D90452"/>
<path d="M308.647 130.398C308.318 129.215 307.001 128.653 305.864 128.151C303.022 126.909 300.359 125.283 297.965 123.332L273.43 123.036C278.995 130.93 289.378 136.369 299.072 135.837C301.675 135.719 304.308 135.216 306.552 133.886C307.809 133.147 309.066 131.787 308.647 130.398Z" fill="#D90452"/>
<path d="M301.286 125.727C301.306 125.727 301.296 125.835 301.256 126.052C301.226 126.259 301.166 126.554 301.016 126.909C300.717 127.619 300.059 128.653 298.772 129.333C298.144 129.688 297.396 129.925 296.588 130.102C296.169 130.191 295.75 130.25 295.301 130.279C294.863 130.338 294.414 130.368 293.955 130.368C292.07 130.427 290.005 130.25 287.911 129.806C283.662 128.979 280.072 127.353 277.618 125.963C276.421 125.283 275.464 124.633 274.835 124.189C274.536 123.973 274.297 123.785 274.117 123.628C273.958 123.509 273.878 123.44 273.878 123.421C273.878 123.421 273.968 123.47 274.147 123.569C274.347 123.707 274.596 123.874 274.895 124.071C275.554 124.515 276.511 125.106 277.738 125.786C280.191 127.087 283.782 128.683 287.971 129.511C290.065 129.954 292.1 130.132 293.925 130.102C294.384 130.102 294.833 130.072 295.272 130.013C295.72 129.984 296.139 129.925 296.528 129.865C297.336 129.688 298.054 129.452 298.683 129.156C299.909 128.506 300.597 127.56 300.897 126.85C301.226 126.17 301.256 125.727 301.286 125.727Z" fill="#100E0F"/>
<path d="M295.841 130.102C295.821 130.102 295.811 129.964 295.811 129.688C295.811 129.373 295.821 128.969 295.841 128.476C295.871 127.441 295.841 125.904 295.751 124.042C295.631 122.179 295.362 119.962 294.674 117.597C294.494 117.006 294.315 116.415 294.045 115.823C293.806 115.202 293.477 114.641 293.178 114.05C292.489 112.897 291.562 111.803 290.365 111.093C290.215 111.005 290.066 110.945 289.946 110.886H290.036C288.66 111.182 287.403 111.744 286.356 112.542C285.308 113.34 284.471 114.286 283.693 115.232C282.137 117.094 281.03 118.987 280.282 120.642C279.504 122.298 278.995 123.687 278.636 124.633C278.456 125.086 278.317 125.461 278.217 125.756C278.117 125.993 278.068 126.111 278.068 126.111C278.048 126.111 278.077 125.983 278.157 125.727C278.257 125.431 278.377 125.057 278.516 124.603C278.845 123.628 279.324 122.238 280.072 120.553C280.82 118.868 281.897 116.947 283.483 115.055C284.231 114.109 285.099 113.133 286.176 112.305C287.253 111.478 288.57 110.886 289.976 110.591H290.036H290.066C290.225 110.65 290.375 110.729 290.515 110.827C291.801 111.596 292.729 112.719 293.417 113.902C293.746 114.493 294.075 115.084 294.315 115.705C294.584 116.296 294.763 116.917 294.943 117.508C295.631 119.903 295.871 122.15 295.99 124.042C296.05 125.904 296.05 127.441 295.96 128.476C295.92 128.969 295.891 129.373 295.871 129.688C295.851 129.964 295.841 130.102 295.841 130.102Z" fill="#100E0F"/>
<path d="M290.844 111.152L289.348 110.916L289.437 110.384C289.497 110.029 289.856 109.792 290.215 109.851L290.365 109.881C290.724 109.94 290.993 110.265 290.933 110.65L290.844 111.152Z" fill="#100E0F"/>
<path d="M289.676 122.15L289.048 124.869C289.048 124.869 292.698 126.82 296.109 126.141C298.383 125.697 299.311 124.396 299.311 124.396L299.101 122.031C299.101 122.031 298.114 123.125 295.182 123.214C293.027 123.243 289.676 122.15 289.676 122.15Z" fill="white"/>
<path d="M307.51 133.088C307.53 133.088 307.47 133.147 307.33 133.265C307.21 133.383 307.001 133.561 306.732 133.738C306.193 134.123 305.355 134.596 304.248 135.009C302.034 135.837 298.713 136.399 295.122 136.015C291.502 135.63 288.42 134.448 286.266 133.472C285.218 132.97 284.381 132.497 283.812 132.171C283.513 132.024 283.303 131.876 283.154 131.787C283.014 131.689 282.944 131.639 282.944 131.639C282.944 131.61 283.273 131.787 283.872 132.083C284.44 132.378 285.308 132.792 286.385 133.265C288.51 134.211 291.592 135.335 295.152 135.719C298.713 136.074 301.974 135.542 304.158 134.802C306.403 134.034 307.48 132.999 307.51 133.088Z" fill="#100E0F"/>
<path d="M206.734 117.39C206.734 117.39 209.996 111.3 213.945 110.886C213.945 110.886 221.276 115.025 222.383 114.759C223.49 114.493 221.874 112.423 223.4 111.241C224.956 110.058 226.482 111.389 227.111 112.276C227.739 113.192 232.167 123.125 235.878 125.667C239.618 128.21 245.482 133.265 244.525 135.541C243.807 137.256 244.016 136.635 240.695 137.256C237.404 137.877 226.452 132.644 222.922 129.126C217.386 123.569 210.355 117.686 206.734 117.39Z" fill="#D90452"/>
<path d="M243.209 137.906C243.957 137.551 243.538 136.369 242.73 136.546C242.55 136.566 242.351 136.586 242.131 136.605C239.917 136.665 237.015 135.837 233.454 134.3C229.894 132.762 228.577 131.757 224.059 128.357C219.541 124.987 215.771 119.134 212.21 118.129C209.278 117.301 207.453 117.331 206.914 117.36C206.795 117.36 206.685 117.39 206.585 117.449C204.102 118.927 199.524 124.78 201.917 126.318C203.563 127.382 209.248 128.062 213.258 129.451C217.237 130.811 226.094 134.654 231.12 136.369C236.117 138.084 241.204 138.852 243.149 137.936C243.169 137.936 243.189 137.926 243.209 137.906Z" fill="white"/>
<path d="M243.208 137.906C243.208 137.926 243.129 137.965 242.969 138.025C242.81 138.103 242.57 138.172 242.251 138.231C241.593 138.379 240.605 138.409 239.349 138.32C236.865 138.113 233.275 137.345 229.086 135.748C224.867 134.211 219.99 132.112 214.454 130.043C211.702 128.949 208.65 128.387 205.508 127.648C204.73 127.471 203.922 127.264 203.144 127.027C202.755 126.879 202.366 126.732 201.977 126.525C201.588 126.347 201.259 125.963 201.169 125.519C200.96 124.603 201.289 123.775 201.618 123.007C201.977 122.238 202.456 121.529 202.965 120.819C203.463 120.129 204.012 119.489 204.61 118.897C205.209 118.306 205.837 117.715 206.585 117.271C206.854 117.183 207.064 117.212 207.273 117.183C207.473 117.183 207.682 117.193 207.902 117.212C208.32 117.232 208.729 117.271 209.128 117.331C209.966 117.419 210.774 117.597 211.552 117.804C212.33 117.981 213.108 118.277 213.796 118.691C214.484 119.104 215.083 119.607 215.681 120.11C216.848 121.144 217.865 122.268 218.883 123.302C220.917 125.46 222.892 127.441 225.046 128.949C227.141 130.516 229.086 131.994 231.031 133.028C235.01 135.039 238.481 136.251 240.964 136.487C241.593 136.546 242.131 136.576 242.61 136.517C242.849 136.458 243.119 136.487 243.268 136.605C243.448 136.724 243.568 136.901 243.597 137.079C243.687 137.404 243.538 137.67 243.418 137.788C243.358 137.847 243.308 137.877 243.268 137.877C243.228 137.896 243.208 137.906 243.208 137.906C243.179 137.906 243.268 137.877 243.388 137.758C243.508 137.64 243.627 137.404 243.538 137.079C243.508 136.931 243.388 136.783 243.238 136.665C243.089 136.546 242.849 136.546 242.64 136.605C242.131 136.665 241.593 136.665 240.964 136.605C239.708 136.517 238.182 136.162 236.506 135.571C234.831 134.98 232.946 134.24 230.941 133.235C228.936 132.201 226.991 130.693 224.867 129.126C223.82 128.387 222.742 127.53 221.725 126.554C220.708 125.608 219.69 124.573 218.673 123.509C217.656 122.445 216.639 121.351 215.472 120.346C214.903 119.843 214.305 119.341 213.646 118.957C212.988 118.543 212.27 118.247 211.462 118.07C210.684 117.892 209.906 117.715 209.098 117.626C208.699 117.567 208.291 117.528 207.872 117.508C207.672 117.508 207.473 117.508 207.273 117.508C207.064 117.508 206.854 117.508 206.735 117.567C206.046 117.951 205.418 118.513 204.82 119.104C204.241 119.696 203.703 120.326 203.204 120.996C202.695 121.676 202.246 122.386 201.917 123.125C201.588 123.864 201.289 124.692 201.468 125.431C201.618 126.199 202.516 126.465 203.234 126.732C204.012 126.968 204.79 127.175 205.598 127.352C208.709 128.091 211.791 128.683 214.544 129.777C220.079 131.875 224.987 133.974 229.146 135.541C233.335 137.167 236.895 137.965 239.379 138.202C240.605 138.32 241.593 138.291 242.221 138.172C242.56 138.113 242.8 138.054 242.939 137.995C243.119 137.936 243.208 137.906 243.208 137.906Z" fill="#100E0F"/>
<path d="M231.509 120.317C231.509 120.405 230.731 120.524 229.863 120.878C228.966 121.203 228.307 121.617 228.278 121.558C228.218 121.499 228.816 120.937 229.744 120.583C230.671 120.228 231.509 120.228 231.509 120.317Z" fill="white"/>
<path d="M233.065 122.445C233.125 122.534 232.467 122.977 231.599 123.45C230.731 123.953 229.983 124.278 229.953 124.219C229.923 124.13 230.581 123.687 231.449 123.184C232.317 122.711 233.035 122.386 233.065 122.445Z" fill="white"/>
<path d="M234.861 124.574C234.891 124.662 234.412 125.135 233.814 125.727C233.215 126.288 232.707 126.761 232.647 126.702C232.587 126.673 232.976 126.081 233.604 125.49C234.203 124.899 234.801 124.514 234.861 124.574Z" fill="white"/>
<path d="M210.655 124.573L206.585 123.421C206.256 123.332 206.077 123.007 206.167 122.681L206.196 122.563C206.286 122.238 206.615 122.061 206.945 122.149L211.014 123.332C211.343 123.421 211.522 123.746 211.433 124.041L211.403 124.189C211.313 124.485 210.984 124.662 210.655 124.573Z" fill="#D90452"/>
<path d="M213.077 111.359C212.988 110.886 212.808 110.383 212.509 109.97C212.359 109.792 212.21 109.615 211.97 109.556C211.731 109.526 211.492 109.674 211.282 109.792C211.083 109.91 210.893 110.029 210.714 110.147C210.594 110.236 210.444 110.324 210.444 110.443C210.444 110.561 210.504 110.65 210.534 110.738C210.813 111.152 211.093 111.576 211.372 112.009" fill="#D90452"/>
<path d="M213.945 110.886C213.975 110.945 213.436 111.093 212.599 111.507C211.791 111.921 210.744 112.601 209.726 113.547C208.709 114.463 207.961 115.468 207.482 116.237C207.003 117.006 206.764 117.508 206.734 117.508C206.704 117.479 206.854 116.946 207.303 116.119C207.722 115.32 208.47 114.286 209.517 113.31C210.564 112.335 211.671 111.655 212.509 111.3C213.377 110.945 213.945 110.856 213.945 110.886Z" fill="#100E0F"/>
<path d="M211.761 111.832C211.672 111.862 211.522 111.448 211.163 111.093C210.834 110.709 210.475 110.502 210.505 110.413C210.505 110.324 211.013 110.443 211.402 110.886C211.821 111.33 211.821 111.832 211.761 111.832Z" fill="#100E0F"/>
<g opacity="0.3">
<path d="M222.713 114.493C222.803 114.227 226.004 119.4 228.159 121.44C225.735 119.696 223.282 116.858 221.396 114.581C221.396 114.581 222.533 115.143 222.713 114.493Z" fill="#100E0F"/>
</g>
<path d="M235.938 127.027C235.938 127.027 235.788 127.145 235.489 127.234C235.19 127.323 234.741 127.382 234.173 127.323C233.634 127.264 232.976 127.086 232.347 126.702C231.689 126.347 231.091 125.786 230.522 125.165C230.243 124.849 229.984 124.544 229.744 124.248C229.525 123.933 229.315 123.627 229.116 123.332C228.717 122.76 228.348 122.238 228.009 121.765C227.41 120.878 227.021 120.287 227.081 120.287C227.111 120.257 227.53 120.76 228.188 121.617C228.527 122.09 228.906 122.603 229.325 123.154C229.545 123.45 229.764 123.746 229.984 124.041C230.223 124.357 230.482 124.662 230.762 124.958C231.3 125.579 231.899 126.111 232.497 126.465C233.065 126.85 233.694 127.027 234.202 127.116C235.28 127.293 235.908 126.968 235.938 127.027Z" fill="#100E0F"/>
<path d="M230.372 120.553C230.372 120.553 230.312 120.346 230.252 119.962C230.192 119.578 230.162 119.016 230.192 118.336C230.222 117.626 230.372 116.828 230.641 115.941C230.781 115.508 230.97 115.064 231.21 114.611C231.299 114.375 231.419 114.168 231.569 113.931C231.659 113.842 231.748 113.724 231.898 113.635C232.018 113.547 232.227 113.488 232.407 113.547C232.766 113.695 232.855 114.049 232.915 114.286C232.945 114.581 232.945 114.818 232.945 115.054C232.945 115.567 232.905 116.05 232.825 116.503C232.676 117.419 232.347 118.188 232.018 118.809C231.688 119.4 231.329 119.844 231.09 120.139C230.821 120.435 230.671 120.553 230.641 120.553C230.581 120.524 231.24 119.903 231.838 118.691C232.137 118.099 232.407 117.331 232.556 116.444C232.616 116.01 232.646 115.557 232.646 115.084C232.646 114.848 232.646 114.581 232.586 114.345C232.556 114.138 232.466 113.902 232.287 113.842C232.137 113.783 231.958 113.931 231.838 114.108C231.718 114.315 231.569 114.552 231.479 114.759C231.24 115.192 231.05 115.616 230.91 116.03C230.611 116.887 230.492 117.686 230.402 118.336C230.282 119.696 230.432 120.524 230.372 120.553Z" fill="white"/>
<path d="M230.432 120.405C230.402 120.405 230.522 120.228 230.791 119.932C231.061 119.607 231.42 119.193 231.928 118.661C232.437 118.159 233.065 117.567 233.843 117.065C234.262 116.799 234.681 116.533 235.19 116.326C235.429 116.237 235.668 116.119 235.968 116.089C236.267 116.06 236.626 116.148 236.835 116.444C237.015 116.739 237.015 117.065 236.925 117.36C236.805 117.626 236.656 117.863 236.506 118.07C236.147 118.484 235.758 118.809 235.369 119.075C234.561 119.607 233.724 119.873 233.035 120.051C232.317 120.228 231.749 120.317 231.36 120.346C230.941 120.405 230.731 120.435 230.731 120.405C230.702 120.346 231.599 120.228 232.976 119.844C233.634 119.637 234.442 119.371 235.19 118.838C235.579 118.572 235.938 118.277 236.237 117.892C236.566 117.508 236.805 117.006 236.566 116.621C236.446 116.444 236.237 116.385 235.998 116.414C235.758 116.414 235.519 116.503 235.309 116.621C234.831 116.799 234.412 117.035 234.023 117.301C233.245 117.804 232.587 118.336 232.078 118.838C231.061 119.814 230.462 120.464 230.432 120.405Z" fill="white"/>
<path d="M324.804 62.4919H308.527C307.27 62.4919 306.223 61.4868 306.223 60.2156V44.1335C306.223 42.8919 307.27 41.8867 308.527 41.8867H324.804C326.09 41.8867 327.108 42.8919 327.108 44.1335V60.2156C327.108 61.4868 326.09 62.4919 324.804 62.4919Z" fill="#D90452"/>
<path d="M320.166 53.9777H313.254C313.105 53.9777 312.955 53.8594 312.955 53.682C312.955 53.5342 313.105 53.3864 313.254 53.3864H319.897L320.615 49.3955H312.596C312.446 49.3955 312.297 49.2476 312.297 49.0998C312.297 48.9225 312.446 48.8042 312.596 48.8042H320.974C321.064 48.8042 321.154 48.8338 321.213 48.8929C321.273 48.9816 321.273 49.0703 321.273 49.159L320.435 53.7412C320.435 53.889 320.286 53.9777 320.166 53.9777Z" fill="white"/>
<path d="M319.927 55.6037L313.344 55.5741C313.195 55.5741 313.075 55.4558 313.075 55.308L312.147 48.1834H310.292C310.113 48.1834 309.993 48.0356 309.993 47.8878C309.993 47.7104 310.113 47.5922 310.292 47.5922H312.387C312.536 47.5922 312.686 47.6809 312.686 47.8287L313.614 54.9828L319.927 55.0124C320.077 55.0124 320.226 55.1307 320.226 55.308C320.226 55.4558 320.077 55.6037 319.927 55.6037Z" fill="white"/>
<path fill-rule="evenodd" clip-rule="evenodd" d="M314.422 57.9094C313.823 57.9094 313.314 57.4068 313.314 56.786C313.314 56.1948 313.823 55.6922 314.422 55.6922C315.05 55.6922 315.559 56.1948 315.559 56.786C315.559 57.4068 315.05 57.9094 314.422 57.9094ZM314.422 56.2835C314.152 56.2835 313.913 56.52 313.913 56.786C313.913 57.0817 314.152 57.3181 314.422 57.3181C314.721 57.3181 314.96 57.0817 314.96 56.786C314.96 56.52 314.721 56.2835 314.422 56.2835Z" fill="white"/>
<path fill-rule="evenodd" clip-rule="evenodd" d="M318.969 57.9094C318.341 57.9094 317.832 57.4068 317.832 56.786C317.832 56.1948 318.341 55.6922 318.969 55.6922C319.567 55.6922 320.076 56.1948 320.076 56.786C320.076 57.4068 319.567 57.9094 318.969 57.9094ZM318.969 56.2835C318.67 56.2835 318.43 56.52 318.43 56.786C318.43 57.0817 318.67 57.3181 318.969 57.3181C319.238 57.3181 319.478 57.0817 319.478 56.786C319.478 56.52 319.238 56.2835 318.969 56.2835Z" fill="white"/>
<path d="M315.379 53.9775C315.229 53.9775 315.11 53.8593 315.08 53.7114L314.811 49.277C314.811 49.0997 314.93 48.9518 315.08 48.9518C315.259 48.9518 315.409 49.0701 315.409 49.2179L315.678 53.6819C315.708 53.8297 315.559 53.9775 315.409 53.9775C315.409 53.9775 315.399 53.9775 315.379 53.9775Z" fill="white"/>
<path d="M317.922 53.9775C317.902 53.9775 317.892 53.9775 317.892 53.9775C317.712 53.9775 317.593 53.8297 317.623 53.6819L317.862 49.2179C317.862 49.0701 318.012 48.9518 318.161 48.9518C318.341 48.9518 318.461 49.0997 318.461 49.2475L318.191 53.7114C318.191 53.8593 318.072 53.9775 317.922 53.9775Z" fill="white"/>
<path d="M312.866 51.7605C312.686 51.7605 312.566 51.6422 312.566 51.4649C312.566 51.3171 312.686 51.1692 312.866 51.1692L320.555 51.1101C320.735 51.1101 320.855 51.2284 320.855 51.4057C320.855 51.5535 320.735 51.7014 320.555 51.7014L312.866 51.7605Z" fill="white"/>
<path d="M188.115 76.4749L157.745 87.1175C157.177 87.3245 156.519 87.0288 156.309 86.4376C156.1 85.8759 156.429 85.2255 156.997 85.0481L186.5 74.7012L183.208 55.3967L147.602 67.8722C147.034 68.0791 146.375 67.7835 146.196 67.1922C145.986 66.6306 146.286 66.0097 146.854 65.8028L183.717 52.8543C184.046 52.7656 184.375 52.7952 184.674 52.943C184.944 53.1204 185.153 53.3865 185.213 53.7116L188.863 75.2333C188.953 75.7654 188.624 76.268 188.115 76.4749Z" fill="white"/>
<path d="M189.671 83.8953L160.678 93.9466C160.169 94.124 159.57 93.8875 159.331 93.4145L143.802 63.1423L135.454 66.069C134.856 66.2759 134.227 65.9803 134.018 65.389C133.808 64.8273 134.108 64.2065 134.706 63.9996L143.982 60.7181C144.52 60.5407 145.119 60.7772 145.358 61.2798L160.887 91.552L188.923 81.8259C189.492 81.6189 190.15 81.9146 190.329 82.4763C190.539 83.0675 190.24 83.6883 189.671 83.8953Z" fill="white"/>
<path fill-rule="evenodd" clip-rule="evenodd" d="M169.115 102.549C166.542 103.466 163.7 102.136 162.802 99.5931C161.875 97.0507 163.221 94.2718 165.794 93.3554C168.367 92.4685 171.21 93.7988 172.108 96.3412C173.005 98.8541 171.659 101.663 169.115 102.549ZM166.542 95.4543C165.136 95.9274 164.418 97.4646 164.897 98.8541C165.405 100.244 166.961 100.983 168.367 100.48C169.774 99.9774 170.492 98.4402 170.013 97.0507C169.504 95.6908 167.949 94.9518 166.542 95.4543Z" fill="white"/>
<path fill-rule="evenodd" clip-rule="evenodd" d="M189.073 95.5429C186.5 96.4594 183.687 95.1291 182.759 92.5867C181.862 90.0443 183.208 87.2654 185.782 86.3489C188.325 85.462 191.167 86.7924 192.065 89.3348C192.993 91.8476 191.646 94.656 189.073 95.5429ZM186.53 88.4479C185.123 88.9209 184.375 90.4581 184.884 91.8476C185.363 93.237 186.919 93.9761 188.325 93.4735C189.731 92.971 190.479 91.4633 189.97 90.0738C189.462 88.6844 187.936 87.9453 186.53 88.4479Z" fill="white"/>
<path d="M167.14 83.8359C166.572 84.0133 165.943 83.7473 165.734 83.2151L157.446 64.0585C157.206 63.4968 157.476 62.8464 158.044 62.6099C158.613 62.3143 159.271 62.6395 159.51 63.2012L167.769 82.3578C168.008 82.9195 167.769 83.5699 167.2 83.8064C167.18 83.8064 167.16 83.8162 167.14 83.8359Z" fill="white"/>
<path d="M178.241 79.9337C178.221 79.9337 178.201 79.9337 178.181 79.9337C177.583 80.1111 176.954 79.7859 176.775 79.1946L170.85 59.2102C170.671 58.619 170.97 57.9982 171.598 57.8503C172.197 57.673 172.825 57.9982 173.005 58.5894L178.929 78.5738C179.109 79.1355 178.779 79.7267 178.241 79.9337Z" fill="white"/>
<path d="M152.479 77.9235C151.911 78.1304 151.282 77.8348 151.073 77.2731C150.863 76.6819 151.163 76.0611 151.731 75.8541L185.542 63.6152C186.14 63.4082 186.769 63.7038 186.978 64.2951C187.188 64.8568 186.888 65.4776 186.32 65.6845L152.509 77.9235C152.489 77.9235 152.479 77.9235 152.479 77.9235Z" fill="white"/>
<path d="M386.292 148.49H306.971C304.547 148.49 302.572 146.539 302.572 144.115V45.2568C302.572 42.8622 304.547 40.8815 306.971 40.8815H386.292C388.715 40.8815 390.69 42.8622 390.69 45.2568V144.115C390.69 146.539 388.715 148.49 386.292 148.49Z" fill="white"/>
<path d="M390.69 53.5048H302.572V44.5473C302.572 42.537 304.218 40.8815 306.253 40.8815H387.01C389.044 40.8815 390.69 42.537 390.69 44.5473V53.5048Z" fill="#D2D9E0"/>
<path d="M387.07 148.49C387.09 148.49 387.179 148.48 387.339 148.46C387.489 148.46 387.758 148.431 388.057 148.342C388.685 148.165 389.643 147.692 390.271 146.539C390.411 146.263 390.521 145.957 390.6 145.622C390.66 145.267 390.66 144.883 390.66 144.499C390.66 143.71 390.66 142.843 390.66 141.897C390.66 140.045 390.65 137.906 390.63 135.482C390.63 125.756 390.6 111.743 390.6 94.4195C390.6 85.7281 390.57 76.2384 390.57 66.0393C390.57 60.9545 390.57 55.6924 390.57 50.2528C390.57 48.8929 390.57 47.5232 390.57 46.1436C390.57 45.4637 390.6 44.7542 390.54 44.1038C390.481 43.4238 390.181 42.803 389.763 42.2709C389.314 41.7683 388.745 41.384 388.087 41.1771C387.429 40.9701 386.711 41.0588 385.992 41.0293C384.556 41.0293 383.12 41.0293 381.684 41.0293C358.465 41.0293 332.972 41.0588 306.193 41.0588C305.385 41.0588 304.607 41.3249 303.979 41.8275C303.38 42.33 302.931 43.0395 302.782 43.8377C302.692 44.222 302.722 44.6064 302.722 45.0202V46.2619C302.722 47.0699 302.722 47.8878 302.722 48.7156C302.722 51.9675 302.722 55.2095 302.722 58.4417C302.722 64.8864 302.722 71.2325 302.722 77.4801C302.722 89.926 302.722 101.958 302.722 113.428C302.722 119.164 302.712 124.751 302.692 130.19C302.692 132.91 302.692 135.581 302.692 138.202C302.692 139.522 302.692 140.833 302.692 142.134C302.692 142.784 302.692 143.425 302.692 144.055C302.692 144.706 302.662 145.356 302.842 145.918C303.231 147.1 304.248 148.046 305.445 148.283C306.043 148.401 306.701 148.342 307.33 148.371C307.948 148.371 308.567 148.371 309.185 148.371C311.678 148.371 314.122 148.371 316.516 148.371C321.303 148.371 325.891 148.371 330.279 148.371C347.843 148.401 362.026 148.401 371.84 148.431C376.747 148.431 380.547 148.46 383.15 148.46C384.447 148.46 385.424 148.46 386.082 148.46C386.74 148.46 387.07 148.49 387.07 148.49C387.07 148.49 386.74 148.49 386.082 148.49C385.424 148.509 384.447 148.519 383.15 148.519C380.547 148.519 376.747 148.519 371.84 148.549C362.026 148.549 347.843 148.578 330.279 148.608C325.891 148.608 321.303 148.608 316.516 148.608C314.122 148.608 311.678 148.608 309.185 148.608C308.567 148.608 307.948 148.608 307.33 148.608C306.701 148.578 306.073 148.667 305.415 148.519C304.128 148.253 302.991 147.278 302.602 146.006C302.393 145.356 302.453 144.706 302.453 144.055C302.453 143.425 302.443 142.784 302.423 142.134C302.423 140.833 302.423 139.522 302.423 138.202C302.423 135.581 302.423 132.91 302.423 130.19C302.423 124.751 302.423 119.164 302.423 113.428C302.423 101.958 302.423 89.926 302.423 77.4801C302.423 71.2325 302.423 64.8864 302.423 58.4417C302.423 55.2095 302.423 51.9675 302.423 48.7156C302.423 47.8878 302.423 47.0699 302.423 46.2619V45.0202C302.423 44.6359 302.393 44.1925 302.483 43.7786C302.632 42.9213 303.111 42.1527 303.799 41.591C304.457 41.0588 305.325 40.7336 306.193 40.7336C332.972 40.7336 358.465 40.7632 381.684 40.7632C383.12 40.7632 384.556 40.7632 385.992 40.7632H387.07C387.429 40.7632 387.818 40.7928 388.147 40.911C388.865 41.118 389.493 41.5318 389.972 42.0935C390.451 42.6552 390.75 43.3352 390.81 44.0742C390.87 44.7837 390.84 45.4637 390.84 46.1436C390.84 47.5232 390.84 48.8929 390.84 50.2528C390.84 55.6924 390.84 60.9545 390.84 66.0393C390.84 76.2384 390.81 85.7281 390.81 94.4195C390.78 111.743 390.78 125.756 390.78 135.482C390.76 137.906 390.75 140.045 390.75 141.897C390.75 142.843 390.75 143.71 390.75 144.499C390.75 144.883 390.75 145.267 390.66 145.622C390.58 145.977 390.471 146.292 390.331 146.568C389.673 147.721 388.685 148.194 388.087 148.371C387.758 148.46 387.518 148.46 387.339 148.49C387.179 148.49 387.09 148.49 387.07 148.49Z" fill="#263238"/>
<path d="M311.548 47.2079C311.548 48.3017 310.621 49.2182 309.484 49.2182C308.377 49.2182 307.449 48.3017 307.449 47.2079C307.449 46.0845 308.377 45.1681 309.484 45.1681C310.621 45.1681 311.548 46.0845 311.548 47.2079Z" fill="white"/>
<path d="M317.443 47.2078C317.443 48.3016 316.515 49.2181 315.378 49.2181C314.271 49.2181 313.344 48.3016 313.344 47.2078C313.344 46.0844 314.271 45.168 315.378 45.168C316.515 45.168 317.443 46.0844 317.443 47.2078Z" fill="white"/>
<path d="M323.337 47.2078C323.337 48.3016 322.41 49.2181 321.273 49.2181C320.166 49.2181 319.238 48.3016 319.238 47.2078C319.238 46.0844 320.166 45.168 321.273 45.168C322.41 45.168 323.337 46.0844 323.337 47.2078Z" fill="white"/>
<path d="M358.046 84.8707H338.388C337.131 84.8707 336.084 83.836 336.084 82.5944V63.1421C336.084 61.9005 337.131 60.8953 338.388 60.8953H358.046C359.333 60.8953 360.35 61.9005 360.35 63.1421V82.5944C360.35 83.836 359.333 84.8707 358.046 84.8707Z" fill="#D90452"/>
<path fill-rule="evenodd" clip-rule="evenodd" d="M343.093 69.2911C343.093 69.0668 343.277 68.8849 343.504 68.8849H353.228C353.35 68.8849 353.465 68.9381 353.543 69.0302C353.621 69.1224 353.654 69.244 353.633 69.3623L352.675 74.6836C352.64 74.8775 352.47 75.0187 352.271 75.0187H344.252C344.025 75.0187 343.841 74.8368 343.841 74.6124C343.841 74.3881 344.025 74.2062 344.252 74.2062H351.926L352.738 69.6974H343.504C343.277 69.6974 343.093 69.5155 343.093 69.2911Z" fill="white"/>
<path fill-rule="evenodd" clip-rule="evenodd" d="M340.37 67.8723C340.37 67.648 340.554 67.4661 340.781 67.4661H343.235C343.441 67.4661 343.615 67.6174 343.642 67.8197L344.733 76.0702L352.003 76.0984C352.23 76.0993 352.413 76.2819 352.413 76.5062C352.412 76.7306 352.227 76.9118 352 76.9109L344.37 76.8813C344.164 76.8805 343.991 76.7294 343.964 76.5277L342.874 68.2786H340.781C340.554 68.2786 340.37 68.0967 340.37 67.8723Z" fill="white"/>
<path fill-rule="evenodd" clip-rule="evenodd" d="M345.598 77.709C345.325 77.709 345.082 77.9327 345.082 78.2488C345.082 78.5268 345.316 78.7589 345.598 78.7589C345.919 78.7589 346.145 78.5184 346.145 78.2488C346.145 77.9412 345.91 77.709 345.598 77.709ZM344.26 78.2488C344.26 77.5006 344.854 76.8965 345.598 76.8965C346.364 76.8965 346.967 77.4921 346.967 78.2488C346.967 78.9842 346.355 79.5715 345.598 79.5715C344.863 79.5715 344.26 78.9759 344.26 78.2488Z" fill="white"/>
<path fill-rule="evenodd" clip-rule="evenodd" d="M350.865 77.709C350.592 77.709 350.348 77.9327 350.348 78.2488C350.348 78.5268 350.583 78.7589 350.865 78.7589C351.185 78.7589 351.411 78.5184 351.411 78.2488C351.411 77.9412 351.177 77.709 350.865 77.709ZM349.526 78.2488C349.526 77.5006 350.121 76.8965 350.865 76.8965C351.63 76.8965 352.233 77.4921 352.233 78.2488C352.233 78.9842 351.622 79.5715 350.865 79.5715C350.129 79.5715 349.526 78.9759 349.526 78.2488Z" fill="white"/>
<path fill-rule="evenodd" clip-rule="evenodd" d="M346.38 69.0336C346.607 69.0195 346.802 69.1896 346.816 69.4136L347.145 74.587C347.16 74.811 346.988 75.0039 346.761 75.018C346.535 75.0321 346.339 74.862 346.325 74.638L345.996 69.4645C345.982 69.2406 346.154 69.0477 346.38 69.0336Z" fill="white"/>
<path fill-rule="evenodd" clip-rule="evenodd" d="M349.958 69.0333C350.185 69.0449 350.359 69.2358 350.348 69.4599L350.078 74.6334C350.067 74.8575 349.873 75.0298 349.647 75.0182C349.42 75.0067 349.246 74.8157 349.257 74.5916L349.527 69.4182C349.538 69.1941 349.732 69.0218 349.958 69.0333Z" fill="white"/>
<path fill-rule="evenodd" clip-rule="evenodd" d="M353.16 71.9478C353.162 72.1721 352.98 72.3558 352.753 72.3581L343.807 72.4468C343.58 72.449 343.394 72.269 343.392 72.0446C343.389 71.8203 343.572 71.6366 343.798 71.6343L352.745 71.5456C352.972 71.5434 353.158 71.7234 353.16 71.9478Z" fill="white"/>
<path d="M356.341 68.4043C356.341 69.8529 355.174 71.0058 353.708 71.0058C352.271 71.0058 351.104 69.8529 351.104 68.4043C351.104 66.9853 352.271 65.8323 353.708 65.8323C355.174 65.8323 356.341 66.9853 356.341 68.4043Z" fill="white"/>
<path d="M343.415 95.4543H316.336V91.8773H343.415V95.4543Z" fill="#D2D9E0"/>
<path d="M376.927 95.4543H366.395V91.8773H376.927V95.4543Z" fill="#D2D9E0"/>
<path d="M351.344 103.022H316.336V99.4453H351.344V103.022Z" fill="#D2D9E0"/>
<path d="M376.927 103.022H366.395V99.4453H376.927V103.022Z" fill="#D2D9E0"/>
<path d="M332.733 110.62H316.336V107.043H332.733V110.62Z" fill="#D2D9E0"/>
<path d="M376.927 110.62H366.395V107.043H376.927V110.62Z" fill="#D2D9E0"/>
<path d="M376.927 117.833H366.395V114.286H376.927V117.833Z" fill="#100E0F"/>
<path d="M355.413 138.734H335.815C332.673 138.734 330.13 136.221 330.13 133.117V132.526C330.13 129.422 332.673 126.909 335.815 126.909H355.413C358.555 126.909 361.098 129.422 361.098 132.526V133.117C361.098 136.221 358.555 138.734 355.413 138.734Z" fill="#D90452"/>
<path d="M62 54.8242L62.7188 56.1156L64 56.84L62.7188 57.5329L62 58.8242L61.2812 57.5329L60 56.84L61.2812 56.1156L62 54.8242Z" fill="#D90452"/>
<path d="M74.5 36.8242L76.0918 39.4093L79 40.8242L76.0918 42.2392L74.5 44.8242L72.9082 42.2392L70 40.8242L72.9082 39.4093L74.5 36.8242Z" fill="#D90452"/>
<path d="M408 53.8242L410.141 57.7039L414 59.8092L410.141 61.9445L408 65.8242L405.889 61.9445L402 59.8092L405.889 57.7039L408 53.8242Z" fill="#D2D9E0"/>
<path d="M383.85 26.7671L384.748 28.3739L386.378 29.2603L384.748 30.1468L383.85 31.7536L382.979 30.1468L381.35 29.2603L382.979 28.3739L383.85 26.7671Z" fill="#E0E0E0"/>
<path d="M398.266 195.551H371.791C369.436 195.551 367.504 193.648 367.504 191.298V165.247C367.504 162.898 369.436 161.024 371.791 161.024H398.266C400.62 161.024 402.553 162.898 402.553 165.247V191.298C402.553 193.648 400.62 195.551 398.266 195.551Z" fill="#D2D9E0" fill-opacity="0.4"/>
<path d="M372.938 178.778L376.439 175.299L383.262 181.276L394.643 170.005L397.933 173.485L382.749 187.968L372.938 178.778Z" fill="white"/>
</svg>
