<svg width="434" height="257" viewBox="0 0 434 257" fill="none" xmlns="http://www.w3.org/2000/svg">
<path d="M312.67 237.072H95.6533C88.8667 237.072 83.3838 231.567 83.3838 224.8V48.7449C83.3838 41.9779 88.8667 36.5109 95.6533 36.5109H312.67C319.456 36.5109 324.977 41.9779 324.977 48.7449V224.8C324.977 231.567 319.456 237.072 312.67 237.072Z" fill="white"/>
<path fill-rule="evenodd" clip-rule="evenodd" d="M312.669 237.455H95.6529C88.6746 237.455 83 231.758 83 224.8V48.7449C83 41.7868 88.6746 36.1286 95.6529 36.1286H312.669C319.686 36.1286 325.36 41.7868 325.36 48.7449V224.8C325.36 231.758 319.686 237.455 312.669 237.455ZM95.6529 36.8932C89.0964 36.8932 83.7668 42.2074 83.7668 48.7449V224.8C83.7668 231.338 89.0964 236.69 95.6529 236.69H312.669C319.264 236.69 324.594 231.338 324.594 224.8V48.7449C324.594 42.2074 319.264 36.8932 312.669 36.8932H95.6529Z" fill="#100E0F"/>
<path d="M126.71 220.824H121.61V185.536H126.71V220.824Z" fill="#D90452"/>
<path d="M117.048 220.824H111.948V211.992H117.048V220.824Z" fill="#D90452"/>
<path d="M135.567 220.824H130.468V203.199H135.567V220.824Z" fill="#D90452"/>
<path d="M144.232 220.824H139.133V192.915H144.232V220.824Z" fill="#D90452"/>
<path d="M154.278 220.824H149.141V213.369H154.278V220.824Z" fill="#D90452"/>
<path fill-rule="evenodd" clip-rule="evenodd" d="M309.333 212.604C309.129 212.4 309.026 212.12 309.026 211.763C309.026 211.406 309.129 211.126 309.333 210.922C309.512 210.693 309.755 210.578 310.062 210.578C310.368 210.578 310.624 210.693 310.828 210.922C311.007 211.126 311.097 211.406 311.097 211.763C311.097 212.12 311.007 212.4 310.828 212.604C310.624 212.834 310.368 212.948 310.062 212.948C309.755 212.948 309.512 212.834 309.333 212.604ZM310.445 212.337C310.547 212.184 310.598 211.992 310.598 211.763C310.598 211.534 310.547 211.355 310.445 211.228C310.368 211.075 310.241 210.998 310.062 210.998C309.908 210.998 309.78 211.075 309.678 211.228C309.576 211.355 309.525 211.534 309.525 211.763C309.525 211.992 309.576 212.171 309.678 212.298C309.78 212.451 309.908 212.528 310.062 212.528C310.241 212.528 310.368 212.464 310.445 212.337ZM312.669 210.616H313.282L310.33 214.936H309.717L312.669 210.616ZM312.17 214.63C311.966 214.427 311.864 214.146 311.864 213.789C311.864 213.432 311.966 213.139 312.17 212.91C312.349 212.706 312.592 212.604 312.899 212.604C313.206 212.604 313.461 212.706 313.666 212.91C313.845 213.139 313.934 213.432 313.934 213.789C313.934 214.146 313.845 214.427 313.666 214.63C313.461 214.86 313.206 214.974 312.899 214.974C312.592 214.974 312.349 214.86 312.17 214.63ZM313.282 214.325C313.385 214.197 313.436 214.019 313.436 213.789C313.436 213.56 313.385 213.369 313.282 213.216C313.206 213.088 313.078 213.025 312.899 213.025C312.746 213.025 312.618 213.088 312.516 213.216C312.413 213.369 312.362 213.56 312.362 213.789C312.362 214.019 312.413 214.197 312.516 214.325C312.618 214.477 312.746 214.554 312.899 214.554C313.078 214.554 313.206 214.477 313.282 214.325Z" fill="#740646"/>
<path d="M284.181 191.042H301.013C301.703 191.042 302.086 190.201 301.588 189.704L293.153 181.14C292.846 180.834 292.347 180.834 292.041 181.14L283.605 189.704C283.107 190.201 283.49 191.042 284.181 191.042Z" fill="#EBEBEB"/>
<path d="M298.252 206.525H287.439V189.436H298.252V206.525Z" fill="#EBEBEB"/>
<path d="M294.61 220.862V224.341H283.912V221.589L288.743 217.116C289.178 216.733 289.459 216.402 289.587 216.121C289.715 215.841 289.779 215.574 289.779 215.319C289.779 214.987 289.676 214.72 289.472 214.516C289.242 214.337 288.922 214.248 288.513 214.248C288.104 214.248 287.721 214.363 287.363 214.592C287.005 214.796 286.724 215.102 286.52 215.51L283.146 213.789C283.657 212.846 284.398 212.094 285.369 211.534C286.341 210.999 287.529 210.731 288.935 210.731C289.983 210.731 290.916 210.897 291.734 211.228C292.552 211.585 293.191 212.069 293.651 212.681C294.111 213.318 294.341 214.057 294.341 214.898C294.341 215.637 294.175 216.325 293.843 216.963C293.536 217.6 292.936 218.326 292.041 219.142L290.124 220.862H294.61Z" fill="#740646"/>
<path fill-rule="evenodd" clip-rule="evenodd" d="M298.444 223.806C297.55 223.271 296.847 222.481 296.335 221.436C295.799 220.391 295.53 219.142 295.53 217.689C295.53 216.236 295.799 214.987 296.335 213.942C296.847 212.897 297.55 212.094 298.444 211.534C299.364 210.999 300.413 210.731 301.588 210.731C302.79 210.731 303.838 210.999 304.732 211.534C305.653 212.094 306.368 212.897 306.88 213.942C307.391 214.987 307.646 216.236 307.646 217.689C307.646 219.142 307.391 220.391 306.88 221.436C306.368 222.481 305.653 223.271 304.732 223.806C303.838 224.367 302.79 224.647 301.588 224.647C300.413 224.647 299.364 224.367 298.444 223.806ZM303.122 217.689C303.122 215.446 302.611 214.325 301.588 214.325C300.566 214.325 300.055 215.446 300.055 217.689C300.055 219.932 300.566 221.053 301.588 221.053C302.611 221.053 303.122 219.932 303.122 217.689Z" fill="#740646"/>
<path fill-rule="evenodd" clip-rule="evenodd" d="M133.075 116.452C132.896 116.223 132.807 115.93 132.807 115.573C132.807 115.216 132.896 114.936 133.075 114.732C133.28 114.503 133.535 114.388 133.842 114.388C134.149 114.388 134.391 114.503 134.57 114.732C134.775 114.936 134.877 115.216 134.877 115.573C134.877 115.93 134.775 116.223 134.57 116.452C134.391 116.656 134.149 116.758 133.842 116.758C133.535 116.758 133.28 116.656 133.075 116.452ZM134.225 116.147C134.328 116.019 134.379 115.828 134.379 115.573C134.379 115.344 134.328 115.165 134.225 115.038C134.123 114.91 133.995 114.847 133.842 114.847C133.663 114.847 133.535 114.91 133.458 115.038C133.356 115.165 133.305 115.344 133.305 115.573C133.305 115.803 133.356 115.994 133.458 116.147C133.535 116.274 133.663 116.338 133.842 116.338C133.995 116.338 134.123 116.274 134.225 116.147ZM136.411 114.426H137.024L134.072 118.746H133.458L136.411 114.426ZM135.912 118.441C135.733 118.237 135.644 117.956 135.644 117.599C135.644 117.243 135.733 116.962 135.912 116.758C136.117 116.529 136.372 116.414 136.679 116.414C136.986 116.414 137.229 116.529 137.408 116.758C137.612 116.962 137.714 117.243 137.714 117.599C137.714 117.956 137.612 118.237 137.408 118.441C137.229 118.67 136.986 118.785 136.679 118.785C136.372 118.785 136.117 118.67 135.912 118.441ZM137.063 118.135C137.139 118.007 137.178 117.829 137.178 117.599C137.178 117.37 137.139 117.192 137.063 117.064C136.96 116.911 136.833 116.835 136.679 116.835C136.5 116.835 136.36 116.911 136.257 117.064C136.181 117.192 136.142 117.37 136.142 117.599C136.142 117.829 136.181 118.02 136.257 118.173C136.36 118.3 136.5 118.364 136.679 118.364C136.833 118.364 136.96 118.288 137.063 118.135Z" fill="#740646"/>
<path d="M91.6274 115.42H107.041C107.693 115.42 107.999 114.656 107.578 114.197L99.8709 106.321C99.5642 106.054 99.1041 106.054 98.8357 106.321L91.1289 114.197C90.6688 114.656 91.0139 115.42 91.6274 115.42Z" fill="#EBEBEB"/>
<path d="M104.51 129.566H94.6182V113.929H104.51V129.566Z" fill="#EBEBEB"/>
<path d="M117.891 115V128.342H113.405V118.402H111.104V115H117.891Z" fill="#740646"/>
<path fill-rule="evenodd" clip-rule="evenodd" d="M122.454 127.807C121.534 127.246 120.818 126.444 120.307 125.399C119.796 124.354 119.54 123.105 119.54 121.652C119.54 120.225 119.796 118.988 120.307 117.943C120.818 116.898 121.534 116.096 122.454 115.535C123.374 114.974 124.422 114.694 125.598 114.694C126.774 114.694 127.822 114.974 128.742 115.535C129.637 116.096 130.353 116.898 130.889 117.943C131.401 118.988 131.656 120.225 131.656 121.652C131.656 123.105 131.401 124.354 130.889 125.399C130.353 126.444 129.637 127.246 128.742 127.807C127.822 128.368 126.774 128.648 125.598 128.648C124.422 128.648 123.374 128.368 122.454 127.807ZM127.132 121.652C127.132 119.409 126.621 118.288 125.598 118.288C124.576 118.288 124.064 119.409 124.064 121.652C124.064 123.92 124.576 125.054 125.598 125.054C126.621 125.054 127.132 123.92 127.132 121.652Z" fill="#740646"/>
<path d="M157.115 221.015C157.115 221.092 146.724 221.206 133.88 221.206C121.073 221.206 110.683 221.092 110.683 221.015C110.683 220.9 121.073 220.786 133.88 220.786C146.724 220.786 157.115 220.9 157.115 221.015Z" fill="#100E0F"/>
<path d="M346.141 67.2488H243.231C239.78 67.2488 237.02 64.4579 237.02 61.0171V6.42284C237.02 2.98202 239.78 0.22937 243.231 0.22937H346.141C349.592 0.22937 352.391 2.98202 352.391 6.42284V61.0171C352.391 64.4579 349.592 67.2488 346.141 67.2488Z" fill="white"/>
<path d="M346.142 67.2488C346.142 67.2106 346.487 67.2488 347.062 67.1341C347.675 67.0577 348.557 66.8283 349.554 66.1783C350.513 65.5667 351.586 64.4579 352.085 62.814C352.353 61.9729 352.353 61.0554 352.315 60.0613C352.315 59.0673 352.315 58.0096 352.315 56.8881C352.315 47.942 352.276 35.0199 352.276 19.0392C352.251 15.0376 352.238 10.8449 352.238 6.46109C352.276 4.32014 351.049 2.17918 349.094 1.10871C348.097 0.611701 346.985 0.344082 345.835 0.382313C344.685 0.382313 343.522 0.382313 342.346 0.382313C332.914 0.382313 322.83 0.382313 312.247 0.382313C291.044 0.382313 267.732 0.420545 243.232 0.420545C241.775 0.420545 240.318 0.955783 239.206 1.9498C238.094 2.94381 237.403 4.32014 237.25 5.77292C237.173 8.75496 237.212 11.7752 237.212 14.719C237.212 20.6831 237.212 26.5325 237.212 32.2672C237.212 38.0274 237.212 43.6729 237.212 49.2037C237.186 51.9818 237.173 54.7217 237.173 57.4234C237.212 58.7997 237.173 60.1378 237.212 61.4759C237.288 62.7375 237.825 63.9992 238.669 64.9549C239.512 65.949 240.663 66.6371 241.89 66.9047C242.541 67.0577 243.155 67.0577 243.807 67.0577C244.446 67.0577 245.097 67.0577 245.762 67.0577C248.344 67.0577 250.887 67.0577 253.392 67.0577C258.428 67.0577 263.297 67.0577 268 67.0577C277.433 67.0959 286.213 67.0959 294.226 67.0959C310.292 67.1341 323.251 67.1341 332.224 67.1724C336.71 67.1724 340.199 67.2106 342.576 67.2106C343.752 67.2106 344.646 67.2106 345.26 67.2106C345.835 67.2106 346.142 67.2488 346.142 67.2488C346.142 67.2488 345.835 67.2488 345.26 67.2488C344.646 67.2743 343.752 67.2871 342.576 67.2871C340.199 67.2871 336.71 67.2871 332.224 67.3253C323.251 67.3253 310.292 67.3635 294.226 67.3635C286.213 67.4017 277.433 67.4018 268 67.4018C263.297 67.4018 258.428 67.4018 253.392 67.4018C250.887 67.4018 248.344 67.4018 245.762 67.4018C245.097 67.4272 244.446 67.44 243.807 67.44C243.155 67.44 242.465 67.4017 241.813 67.2488C240.509 66.9812 239.282 66.2548 238.4 65.2226C237.48 64.1903 236.943 62.8522 236.828 61.4759C236.79 60.1378 236.828 58.7997 236.828 57.4234C236.828 54.7217 236.828 51.9818 236.828 49.2037C236.803 43.6729 236.79 38.0274 236.79 32.2672C236.79 26.5325 236.79 20.6831 236.79 14.719C236.828 11.737 236.752 8.79319 236.828 5.73469C237.02 4.16721 237.787 2.71442 238.937 1.68218C240.087 0.611701 241.659 0 243.232 0C267.732 0 291.044 0.0382322 312.247 0.0382322C322.83 0.0382322 332.914 0.0382322 342.346 0.0382322C343.522 0.0382322 344.685 0.0382322 345.835 0.0382322C347.024 8.74475e-07 348.212 0.267619 349.247 0.841089C351.318 1.9498 352.583 4.24367 352.545 6.46109C352.545 10.8449 352.545 15.0376 352.545 19.0392C352.506 35.0199 352.506 47.942 352.468 56.8881C352.468 58.0096 352.468 59.0673 352.468 60.0613C352.468 61.0554 352.468 62.0111 352.2 62.8522C351.663 64.5344 350.551 65.6431 349.592 66.2548C348.557 66.9047 347.675 67.0959 347.062 67.1724C346.755 67.2488 346.525 67.2488 346.372 67.2488C346.218 67.2488 346.142 67.2488 346.142 67.2488Z" fill="#263238"/>
<path d="M255.08 54.5943H251.782V42.6279H255.08V54.5943Z" fill="#D90452"/>
<path d="M266.889 54.5943H263.554V32.9171H266.889V54.5943Z" fill="#D90452"/>
<path d="M261.367 54.5942H257.265V18.6951H261.367V54.5942Z" fill="#100E0F"/>
<path d="M278.66 54.5942H275.362V46.4127H278.66V54.5942Z" fill="#D90452"/>
<path d="M272.755 54.5942H269.458V46.4127H272.755V54.5942Z" fill="#100E0F"/>
<path d="M290.47 54.5943H287.134V41.1751H290.47V54.5943Z" fill="#D90452"/>
<path d="M284.565 54.5942H281.268V29.5145H284.565V54.5942Z" fill="#100E0F"/>
<path d="M308.145 54.5942H304.848V29.5145H308.145V54.5942Z" fill="#100E0F"/>
<path d="M296.374 54.5943H293.038V16.8218H296.374V54.5943Z" fill="#100E0F"/>
<path d="M302.241 54.5943H298.943V45.2276H302.241V54.5943Z" fill="#D90452"/>
<path d="M331.726 54.5943H328.429V47.7127H331.726V54.5943Z" fill="#100E0F"/>
<path d="M319.955 54.5942H316.619V17.5099H319.955V54.5942Z" fill="#100E0F"/>
<path d="M325.821 54.5943H322.523V25.118H325.821V54.5943Z" fill="#D90452"/>
<path d="M314.05 54.5943H310.714V24.0475H314.05V54.5943Z" fill="#D90452"/>
<path d="M337.63 54.5942H334.333V29.5145H337.63V54.5942Z" fill="#D90452"/>
<path d="M259.182 59.5261H252.319C252.088 59.5261 251.858 59.2967 251.858 59.0291V58.6086C251.858 58.3409 252.088 58.1498 252.319 58.1498H259.182C259.45 58.1498 259.642 58.3409 259.642 58.6086V59.0291C259.642 59.2967 259.45 59.5261 259.182 59.5261Z" fill="#E0E0E0"/>
<path d="M281.728 59.5261H274.864C274.596 59.5261 274.404 59.2967 274.404 59.0291V58.6086C274.404 58.3409 274.596 58.1498 274.864 58.1498H281.728C281.958 58.1498 282.188 58.3409 282.188 58.6086V59.0291C282.188 59.2967 281.958 59.5261 281.728 59.5261Z" fill="#E0E0E0"/>
<path d="M301.589 59.5261H294.764C294.495 59.5261 294.304 59.2967 294.304 59.0291V58.6086C294.304 58.3409 294.495 58.1498 294.764 58.1498H301.589C301.857 58.1498 302.087 58.3409 302.087 58.6086V59.0291C302.087 59.2967 301.857 59.5261 301.589 59.5261Z" fill="#E0E0E0"/>
<path d="M322.102 59.5261H315.238C315.008 59.5261 314.778 59.2967 314.778 59.0291V58.6086C314.778 58.3409 315.008 58.1498 315.238 58.1498H322.102C322.37 58.1498 322.562 58.3409 322.562 58.6086V59.0291C322.562 59.2967 322.37 59.5261 322.102 59.5261Z" fill="#E0E0E0"/>
<path d="M339.471 59.5261H332.608C332.339 59.5261 332.147 59.2967 332.147 59.0291V58.6086C332.147 58.3409 332.339 58.1498 332.608 58.1498H339.471C339.701 58.1498 339.931 58.3409 339.931 58.6086V59.0291C339.931 59.2967 339.701 59.5261 339.471 59.5261Z" fill="#E0E0E0"/>
<path d="M341.847 54.5943C341.847 54.709 320.568 54.7855 294.303 54.7855C268.001 54.7855 246.721 54.709 246.721 54.5943C246.721 54.4796 268.001 54.4031 294.303 54.4031C320.568 54.4031 341.847 54.4796 341.847 54.5943Z" fill="#263238"/>
<path d="M249.827 9.67254C249.827 10.7048 249.022 11.5076 248.025 11.5076C247.028 11.5076 246.223 10.7048 246.223 9.67254C246.223 8.67853 247.028 7.87567 248.025 7.87567C249.022 7.87567 249.827 8.67853 249.827 9.67254Z" fill="#E0E0E0"/>
<path d="M254.772 9.67254C254.772 10.7048 253.967 11.5076 252.97 11.5076C251.973 11.5076 251.13 10.7048 251.13 9.67254C251.13 8.67853 251.973 7.87567 252.97 7.87567C253.967 7.87567 254.772 8.67853 254.772 9.67254Z" fill="#E0E0E0"/>
<path d="M259.681 9.67254C259.681 10.7048 258.837 11.5076 257.84 11.5076C256.843 11.5076 256.038 10.7048 256.038 9.67254C256.038 8.67853 256.843 7.87567 257.84 7.87567C258.837 7.87567 259.681 8.67853 259.681 9.67254Z" fill="#E0E0E0"/>
<path d="M159.876 155.792L171.187 179.266L177.092 177.737L214.859 210.004L226.016 189.054C226.016 189.054 203.509 178.731 199.483 170.473C195.457 162.215 199.253 162.483 199.253 162.483L189.898 148.031L159.876 155.792Z" fill="#263238"/>
<path d="M174.484 124.481C174.484 124.481 186.332 121.002 205.311 107.621C219.153 97.8338 229.965 86.1733 234.796 80.6297C237.135 77.9535 241.123 77.533 243.845 79.7886C248.024 83.3059 253.737 92.0991 260.026 114.464C271.068 153.843 263.131 161.336 259.796 160.762C256.498 160.151 234.643 152.963 220.265 152.352C205.887 151.74 183.955 156.022 183.955 156.022L174.484 124.481Z" fill="#EFF3F6"/>
<path d="M174.484 124.481C174.484 124.481 174.535 124.647 174.638 124.978C174.74 125.386 174.881 125.921 175.06 126.584C175.481 127.998 176.095 130.063 176.862 132.739C178.472 138.206 180.811 146.12 183.725 156.098L183.801 156.289L184.032 156.251C190.243 155.142 197.375 154.034 205.273 153.269C209.184 152.887 213.325 152.619 217.619 152.619C221.914 152.657 226.323 153.193 230.847 153.996C239.934 155.601 249.328 158.354 259.259 161.03L259.757 161.145H260.294C260.677 161.183 261.022 160.992 261.368 160.915C261.674 160.724 262.019 160.571 262.288 160.342L263.055 159.616C263.898 158.545 264.55 157.322 264.895 156.022C265.7 153.46 266.007 150.746 266.045 148.031C266.16 142.603 265.432 137.136 264.473 131.707C264.243 130.483 264.013 129.273 263.783 128.075C263.515 126.89 263.246 125.704 262.978 124.519C262.441 122.111 261.866 119.779 261.214 117.485C260.026 112.82 258.645 108.309 257.188 103.913C255.693 99.516 254.083 95.2341 252.127 91.2198C250.172 87.2055 247.986 83.3059 244.88 80.2474C244.114 79.521 243.232 78.7946 242.197 78.4123C241.161 78.03 240.049 77.8771 238.976 78.03C237.902 78.1447 236.829 78.527 235.947 79.1387C235.065 79.7122 234.375 80.5915 233.723 81.3179C231.077 84.3381 228.393 87.1673 225.748 89.8052C220.418 95.1194 215.127 99.7453 210.104 103.683C199.944 111.482 191.01 116.758 184.645 119.97C181.463 121.614 178.894 122.722 177.168 123.411C176.286 123.793 175.635 124.022 175.175 124.213C174.753 124.366 174.484 124.481 174.484 124.481C174.523 124.481 174.753 124.443 175.213 124.29C175.673 124.137 176.363 123.908 177.245 123.563C179.009 122.914 181.578 121.843 184.76 120.276C191.202 117.102 200.212 111.903 210.449 104.142C215.51 100.242 220.84 95.6164 226.208 90.3022C228.892 87.626 231.576 84.7969 234.26 81.7766C234.95 81.012 235.525 80.2474 236.368 79.7504C237.135 79.1769 238.094 78.8711 239.052 78.7564C241.008 78.4888 242.963 79.2916 244.382 80.7826C247.334 83.7264 249.52 87.5496 251.437 91.5256C253.354 95.5399 254.964 99.7836 256.421 104.18C257.917 108.539 259.259 113.05 260.447 117.676C261.061 119.97 261.674 122.302 262.173 124.672C262.441 125.857 262.748 127.042 262.978 128.228C263.208 129.426 263.438 130.623 263.668 131.821C264.627 137.25 265.355 142.679 265.24 148.031C265.24 150.669 264.895 153.307 264.128 155.754C263.821 157.016 263.17 158.125 262.441 159.119L261.789 159.73C261.559 159.883 261.329 160.036 261.061 160.189C260.524 160.342 260.064 160.495 259.412 160.265C249.597 157.589 240.088 154.875 231.001 153.269C226.438 152.466 221.952 151.931 217.619 151.931C213.287 151.931 209.146 152.237 205.196 152.619C197.298 153.422 190.166 154.569 183.917 155.754L184.223 155.945C181.194 146.082 178.779 138.244 177.13 132.815C176.286 130.139 175.635 128.075 175.213 126.622C174.983 125.959 174.804 125.424 174.676 125.016C174.574 124.659 174.51 124.481 174.484 124.481Z" fill="#263238"/>
<path d="M143.581 157.857L151.288 156.672L146.84 146.502L140.36 149.943L143.581 157.857Z" fill="#740646"/>
<path d="M145.805 145.47L149.256 153.384L151.135 157.704C153.704 163.668 160.452 166.497 166.472 164.242L197.721 155.678L184.991 116.223L153.397 127.884C147.301 130.598 143.198 137.786 145.805 145.47Z" fill="#D2D9E0"/>
<g opacity="0.3">
<path d="M257.419 116.567C263.17 137.594 264.052 155.678 259.413 156.939C254.773 158.239 246.338 142.259 240.625 121.231C234.874 100.242 233.992 82.159 238.631 80.8592C243.271 79.5593 251.706 95.5782 257.419 116.567Z" fill="black"/>
</g>
<path d="M237.673 108.921C237.673 108.921 248.83 104.142 252.243 118.899C255.655 133.657 244.613 134.23 244.613 134.23C241.315 126.698 238.976 118.288 237.673 108.921Z" fill="white"/>
<path d="M178.779 131.592C178.818 131.783 173.45 133.771 166.778 135.989C160.107 138.244 154.624 139.888 154.547 139.659C154.509 139.468 159.877 137.48 166.548 135.262C173.22 133.007 178.703 131.363 178.779 131.592Z" fill="#263238"/>
<path d="M180.159 135.912C180.198 136.142 174.83 138.091 168.158 140.347C161.487 142.564 156.004 144.208 155.927 144.017C155.889 143.826 161.257 141.838 167.928 139.621C174.6 137.365 180.082 135.721 180.159 135.912Z" fill="#263238"/>
<path d="M181.54 140.27C181.578 140.462 176.21 142.45 169.539 144.705C162.867 146.923 157.385 148.567 157.308 148.376C157.269 148.146 162.637 146.196 169.309 143.941C175.98 141.723 181.463 140.079 181.54 140.27Z" fill="#263238"/>
<path d="M182.92 144.629C182.958 144.82 177.59 146.808 170.919 149.025C164.247 151.281 158.764 152.925 158.688 152.696C158.649 152.504 164.017 150.516 170.689 148.299C177.36 146.043 182.843 144.399 182.92 144.629Z" fill="#263238"/>
<path d="M277.28 127.769C277.242 127.922 283.684 130.292 291.697 133.083C299.672 135.874 306.19 138.015 306.267 137.862C306.305 137.747 299.864 135.377 291.85 132.586C283.875 129.795 277.357 127.654 277.28 127.769Z" fill="#263238"/>
<path d="M274.712 112.706C274.712 112.82 284.988 111.406 297.679 109.494C310.332 107.583 320.569 105.939 320.569 105.786C320.531 105.671 310.255 107.086 297.602 108.997C284.911 110.909 274.674 112.553 274.712 112.706Z" fill="#263238"/>
<path d="M272.411 97.2221C272.488 97.3368 276.092 94.1254 280.463 90.0346C284.795 85.9821 288.246 82.6178 288.17 82.5031C288.055 82.4266 284.45 85.5998 280.118 89.6905C275.747 93.7431 272.296 97.1074 272.411 97.2221Z" fill="#263238"/>
<path d="M236.445 83.153C236.407 83.153 236.368 83.4206 236.33 83.9176C236.279 84.5039 236.215 85.2303 236.138 86.0968C236.1 87.0526 236.023 88.2378 236.023 89.5759C236.023 90.9522 235.947 92.4815 236.023 94.2019C236.1 97.6044 236.407 101.695 236.944 106.168C237.557 110.641 238.477 115.535 239.781 120.581C241.123 125.628 242.733 130.33 244.382 134.536C246.107 138.741 247.833 142.412 249.443 145.432C250.21 146.961 251.015 148.261 251.705 149.446C252.357 150.631 252.971 151.587 253.507 152.39C253.993 153.104 254.402 153.715 254.734 154.225C255.003 154.646 255.156 154.837 255.194 154.837C255.233 154.798 255.118 154.569 254.849 154.11C254.568 153.601 254.21 152.976 253.776 152.237C253.277 151.396 252.702 150.402 252.089 149.217C251.437 148.032 250.67 146.693 249.942 145.164C248.408 142.144 246.721 138.435 245.072 134.268C243.462 130.101 241.89 125.399 240.548 120.39C239.244 115.382 238.324 110.527 237.672 106.054C237.097 101.619 236.713 97.5662 236.598 94.1636C236.483 92.4815 236.483 90.9522 236.483 89.5759C236.445 88.2378 236.445 87.0526 236.483 86.0968C236.483 85.2303 236.483 84.5039 236.483 83.9176C236.483 83.4206 236.445 83.153 236.445 83.153Z" fill="#263238"/>
<path d="M339.854 180.91C324.901 180.91 312.746 168.829 312.746 153.881C312.746 138.932 324.901 126.851 339.854 126.851C354.846 126.851 367 138.932 367 153.881C367 168.829 354.846 180.91 339.854 180.91Z" fill="#740646"/>
<path fill-rule="evenodd" clip-rule="evenodd" d="M352.814 153.613C352.814 157.13 352.775 157.551 352.737 158.927C352.66 160.304 352.43 161.259 352.123 162.062C351.778 162.903 351.357 163.63 350.628 164.356C349.9 165.082 349.209 165.503 348.328 165.847C347.522 166.153 346.564 166.382 345.222 166.459C343.841 166.497 343.381 166.535 339.854 166.535C336.365 166.535 335.905 166.497 334.524 166.459C333.144 166.382 332.224 166.153 331.419 165.847C330.537 165.503 329.847 165.082 329.118 164.356C328.39 163.63 327.93 162.903 327.623 162.062C327.316 161.259 327.086 160.304 327.009 158.927C326.971 157.551 326.933 157.13 326.933 153.613C326.933 150.134 326.971 149.675 327.009 148.299C327.086 146.923 327.316 146.005 327.623 145.164C327.93 144.323 328.39 143.596 329.118 142.908C329.847 142.182 330.537 141.723 331.419 141.417C332.224 141.073 333.144 140.882 334.524 140.806C335.905 140.729 336.365 140.729 339.854 140.729C343.381 140.729 343.841 140.729 345.222 140.806C346.564 140.882 347.522 141.073 348.328 141.417C349.209 141.723 349.9 142.182 350.628 142.908C351.357 143.596 351.778 144.323 352.123 145.164C352.43 146.005 352.66 146.923 352.737 148.299C352.775 149.675 352.814 150.134 352.814 153.613ZM350.475 153.613C350.475 150.172 350.475 149.79 350.398 148.414C350.36 147.152 350.13 146.464 349.938 146.005C349.708 145.432 349.439 144.973 348.979 144.552C348.519 144.093 348.097 143.788 347.484 143.558C347.062 143.405 346.372 143.176 345.107 143.138L339.854 143.061C336.403 143.061 336.02 143.061 334.639 143.138C333.374 143.176 332.684 143.405 332.262 143.558C331.649 143.788 331.227 144.093 330.767 144.552C330.307 144.973 330.038 145.432 329.808 146.005C329.617 146.464 329.387 147.152 329.348 148.414C329.272 149.79 329.271 150.172 329.271 153.613C329.271 157.054 329.272 157.474 329.348 158.851C329.387 160.074 329.617 160.762 329.808 161.221C330.038 161.833 330.307 162.253 330.767 162.712C331.227 163.171 331.649 163.439 332.262 163.668C332.684 163.859 333.374 164.05 334.639 164.127C336.02 164.165 336.403 164.203 339.854 164.203C343.343 164.203 343.726 164.165 345.107 164.127C346.372 164.05 347.062 163.859 347.484 163.668C348.097 163.439 348.519 163.171 348.979 162.712C349.439 162.253 349.708 161.833 349.938 161.221C350.13 160.762 350.36 160.074 350.398 158.851C350.475 157.474 350.475 157.054 350.475 153.613Z" fill="white"/>
<path fill-rule="evenodd" clip-rule="evenodd" d="M346.525 153.613C346.525 157.283 343.535 160.227 339.854 160.227C336.211 160.227 333.221 157.283 333.221 153.613C333.221 149.981 336.211 146.999 339.854 146.999C343.535 146.999 346.525 149.981 346.525 153.613ZM344.187 153.613C344.187 151.243 342.269 149.331 339.854 149.331C337.477 149.331 335.56 151.243 335.56 153.613C335.56 155.983 337.477 157.933 339.854 157.933C342.269 157.933 344.187 155.983 344.187 153.613Z" fill="white"/>
<path d="M346.794 145.202C345.912 145.202 345.222 145.89 345.222 146.731C345.222 147.611 345.912 148.299 346.794 148.299C347.637 148.299 348.327 147.611 348.327 146.731C348.327 145.89 347.637 145.202 346.794 145.202Z" fill="white"/>
<path d="M315.967 155.295L280.002 154.76V153.995L315.967 154.531V155.295Z" fill="#740646"/>
<path d="M281.497 152.39C282.609 153.231 282.839 154.798 281.995 155.907C281.19 157.016 279.58 157.245 278.468 156.404C277.356 155.563 277.164 153.995 277.969 152.887C278.813 151.778 280.385 151.549 281.497 152.39Z" fill="#740646"/>
<path d="M251.59 256.073C236.599 256.073 224.482 243.954 224.482 229.044C224.482 214.095 236.599 201.976 251.59 201.976C266.582 201.976 278.698 214.095 278.698 229.044C278.698 243.954 266.582 256.073 251.59 256.073Z" fill="#740646"/>
<path d="M239.32 238.487C241.544 239.901 244.19 240.742 247.027 240.742C256.383 240.742 261.674 232.867 261.367 225.794C262.326 225.106 263.207 224.188 263.859 223.194C262.977 223.615 261.98 223.882 260.984 223.997C262.019 223.385 262.824 222.391 263.169 221.206C262.211 221.78 261.137 222.2 259.987 222.43C259.066 221.436 257.763 220.824 256.306 220.824C253.047 220.824 250.67 223.882 251.398 227.017C247.219 226.788 243.5 224.8 241.007 221.78C239.704 224.035 240.317 226.979 242.579 228.47C241.736 228.432 240.969 228.203 240.279 227.858C240.241 230.152 241.928 232.332 244.343 232.829C243.615 233.02 242.848 233.058 242.043 232.905C242.694 234.931 244.573 236.346 246.759 236.422C244.65 238.066 241.966 238.793 239.32 238.487Z" fill="white"/>
<path d="M248.599 206.64L241.468 182.401L242.196 182.21L249.366 206.411L248.599 206.64Z" fill="#740646"/>
<path d="M244.343 181.79C244.343 183.166 243.193 184.275 241.813 184.275C240.432 184.275 239.32 183.166 239.32 181.79C239.32 180.375 240.432 179.266 241.813 179.266C243.193 179.266 244.343 180.375 244.343 181.79Z" fill="#740646"/>
<path d="M184.722 63.1581C169.385 63.1581 156.924 50.7712 156.924 35.4787C156.924 20.1862 169.385 7.76099 184.722 7.76099C200.059 7.76099 212.52 20.1862 212.52 35.4787C212.52 50.7712 200.059 63.1581 184.722 63.1581Z" fill="#740646"/>
<path d="M181.155 47.8656H186.83V33.6818H190.818L191.239 28.9412H186.83C186.83 28.9412 186.83 27.1443 186.83 26.2267C186.83 25.118 187.06 24.6593 188.172 24.6593C189.016 24.6593 191.239 24.6593 191.239 24.6593V19.7274C191.239 19.7274 187.98 19.7274 187.29 19.7274C183.073 19.7274 181.155 21.6007 181.155 25.1563C181.155 28.253 181.155 28.9412 181.155 28.9412H178.203V33.7201H181.155V47.8656Z" fill="white"/>
<path d="M185.719 90.6082H184.952V58.188H185.719V90.6082Z" fill="#740646"/>
<path d="M182.766 91.2199C183.111 89.8818 184.492 89.0789 185.834 89.423C187.176 89.7671 187.981 91.1434 187.636 92.4815C187.291 93.8196 185.949 94.6224 184.607 94.2784C183.226 93.9343 182.421 92.558 182.766 91.2199Z" fill="#740646"/>
<path d="M119.693 107.659C104.739 107.659 92.585 95.54 92.585 80.6298C92.585 65.6813 104.739 53.562 119.693 53.562C134.685 53.562 146.839 65.6813 146.839 80.6298C146.839 95.54 134.685 107.659 119.693 107.659Z" fill="#D90452"/>
<path fill-rule="evenodd" clip-rule="evenodd" d="M134.454 79.8651C134.454 87.8554 127.936 94.3547 119.846 94.3547C117.315 94.3547 114.9 93.6665 112.791 92.5196L107.691 94.1636C106.464 94.5459 105.314 93.3989 105.697 92.1755L107.346 87.3584C106.004 85.1792 105.237 82.6177 105.237 79.8651C105.263 79.6612 105.276 79.4573 105.276 79.2534C105.621 71.5689 112.024 65.4136 119.846 65.4136C127.821 65.4136 134.262 71.6836 134.454 79.521C134.454 79.6484 134.454 79.7631 134.454 79.8651ZM132.153 79.8651C132.153 79.5592 132.141 79.2534 132.115 78.9475C131.617 72.6776 126.325 67.7457 119.846 67.7457C113.481 67.7457 108.228 72.5629 107.653 78.7181C107.602 79.1004 107.576 79.4827 107.576 79.8651C107.576 82.5413 108.458 84.9881 109.915 87.0143L108.381 91.5256L113.097 90.0346C115.053 91.2962 117.353 92.0226 119.846 92.0226C126.632 92.0226 132.153 86.5938 132.153 79.8651Z" fill="white"/>
<path d="M126.555 82.809C126.21 82.6178 124.446 81.7767 124.101 81.662C123.794 81.5091 123.526 81.4709 123.296 81.8149C123.066 82.1973 122.376 82.9619 122.146 83.2295C121.954 83.4589 121.762 83.4589 121.379 83.306C121.034 83.1148 119.884 82.7707 118.503 81.5473C117.43 80.5915 116.74 79.4446 116.509 79.1005C116.318 78.7564 116.509 78.5653 116.663 78.3741C116.855 78.2212 117.046 77.9536 117.2 77.7624C117.251 77.686 117.302 77.6222 117.353 77.5713C117.43 77.4566 117.506 77.3419 117.583 77.1507C117.698 76.9213 117.621 76.7302 117.545 76.539C117.468 76.3479 116.74 74.6275 116.433 73.9011C116.126 73.2129 115.858 73.3276 115.628 73.3276C115.436 73.3276 115.168 73.2894 114.937 73.2894C114.707 73.2894 114.324 73.3658 113.979 73.7099C113.672 74.0922 112.752 74.9333 112.752 76.6919C112.752 77.1125 112.829 77.4948 112.905 77.8771C113.289 79.1388 114.056 80.171 114.209 80.3622C114.362 80.5915 116.663 84.2617 120.305 85.7145C123.948 87.1291 123.948 86.6321 124.6 86.5938C125.251 86.5174 126.747 85.7145 127.015 84.9117C127.322 84.0706 127.322 83.3442 127.245 83.2295C127.13 83.0766 126.9 82.9619 126.555 82.809Z" fill="white"/>
<path d="M147.606 114.159L131.042 95.0812L131.617 94.5842L148.181 113.662L147.606 114.159Z" fill="#D90452"/>
<path d="M145.842 115.42C145.266 114.159 145.803 112.668 147.069 112.094C148.334 111.521 149.829 112.094 150.404 113.356C150.979 114.617 150.443 116.108 149.177 116.682C147.912 117.255 146.417 116.682 145.842 115.42Z" fill="#D90452"/>
<path fill-rule="evenodd" clip-rule="evenodd" d="M433.153 40.5658C433.36 52.6408 423.707 62.6458 411.632 62.8183C399.556 63.0253 389.591 53.3653 389.418 41.2558C389.211 29.1808 398.864 19.2103 410.94 19.0033C422.98 18.7963 432.945 28.4908 433.153 40.5658ZM400.836 41.0833C400.906 46.8793 405.68 51.5023 411.459 51.3988C417.202 51.2953 421.839 46.5343 421.735 40.7383C421.631 34.9768 416.891 30.3538 411.113 30.4573C405.334 30.5263 400.733 35.3218 400.836 41.0833Z" fill="#EBEBEB"/>
<path d="M433.153 40.5658C433.36 52.6408 423.707 62.6458 411.631 62.8183L411.458 51.3988C417.202 51.2953 421.838 46.5343 421.735 40.7383C421.631 34.9768 416.891 30.3538 411.112 30.4573L410.939 19.0033C422.98 18.7963 432.945 28.4908 433.153 40.5658Z" fill="#D2D9E0"/>
<path d="M413.604 64.5778C399.487 64.8193 388.242 53.8828 388 39.7723L401.356 39.5308C401.459 46.2928 406.615 50.5708 413.362 50.4673L413.604 64.5778Z" fill="#F5F5F5"/>
<path d="M404 126.905C406.007 128.181 408.394 128.94 410.955 128.94C419.397 128.94 424.172 121.833 423.895 115.45C424.795 114.829 425.556 114.036 426.144 113.105C425.348 113.484 424.483 113.725 423.549 113.829C424.483 113.277 425.21 112.38 425.556 111.31C424.656 111.828 423.687 112.208 422.649 112.415C421.819 111.552 420.643 111 419.328 111C416.421 111 414.242 113.726 414.899 116.555C411.128 116.382 407.771 114.553 405.557 111.828C404.346 113.863 404.934 116.52 406.941 117.865C406.214 117.831 405.488 117.658 404.9 117.313C404.83 119.418 406.353 121.384 408.533 121.798C407.91 121.971 407.183 122.005 406.491 121.867C407.045 123.696 408.74 125.007 410.747 125.041C408.809 126.525 406.422 127.181 404 126.905Z" fill="#EBEBEB"/>
<path fill-rule="evenodd" clip-rule="evenodd" d="M57.9966 205.915C58.1977 218.775 47.9434 229.372 35.1039 229.573C22.2932 229.802 11.6942 219.52 11.4931 206.66C11.2921 193.829 21.5464 183.203 34.3571 183.003C47.1966 182.802 57.7955 193.084 57.9966 205.915ZM23.6145 206.46C23.7294 212.617 28.7847 217.515 34.9316 217.429C41.0497 217.343 45.9614 212.245 45.8753 206.116C45.7604 199.958 40.705 195.061 34.5582 195.147C28.4401 195.261 23.5283 200.33 23.6145 206.46Z" fill="#EBEBEB"/>
<path d="M57.9969 205.915C58.198 218.775 47.9437 229.372 35.1042 229.573L34.9319 217.429C41.05 217.343 45.9617 212.245 45.8756 206.116C45.7607 199.958 40.7053 195.061 34.5585 195.147L34.3574 183.003C47.1969 182.802 57.7959 193.084 57.9969 205.915Z" fill="#D2D9E0"/>
<path d="M37.2012 231.463C22.2075 231.692 10.2298 220.092 10 205.056L24.1894 204.827C24.3043 212.016 29.7905 216.541 36.9714 216.426L37.2012 231.463Z" fill="#F5F5F5"/>
<path d="M19.6642 38.3575H24.785V25.5925H28.3488L28.7294 21.3145H24.785C24.785 21.3145 24.785 19.693 24.785 18.865C24.785 17.8645 24.9926 17.4505 25.9614 17.4505C26.7572 17.4505 28.7294 17.4505 28.7294 17.4505V13C28.7294 13 25.823 13 25.2002 13C21.3942 13 19.6642 14.6905 19.6642 17.899C19.6642 20.6935 19.6642 21.3145 19.6642 21.3145H17V25.627H19.6642V38.3575Z" fill="#EBEBEB"/>
<path d="M57.8555 86.195H12.3219C5.64411 86.195 0.211914 91.6115 0.211914 98.27V125.698C0.211914 132.356 5.64411 137.773 12.3219 137.773H29.0337L35.0887 146.467L41.1437 137.773H57.8555C64.5333 137.773 69.9655 132.356 69.9655 125.698V98.27C69.9655 91.6115 64.5333 86.195 57.8555 86.195Z" fill="white"/>
<path d="M57.8554 86.195C57.8554 86.195 58.409 86.1605 59.4124 86.264C60.4504 86.3675 62.0074 86.7125 63.772 87.644C64.637 88.1615 65.5366 88.7825 66.4362 89.645C67.3012 90.5075 68.1316 91.577 68.789 92.8535C69.4118 94.13 69.8962 95.648 70.0346 97.2695C70.1384 98.9255 70.0692 100.616 70.1038 102.445C70.1038 106.102 70.1038 110.104 70.1384 114.416C70.1384 116.601 70.1384 118.855 70.1384 121.178C70.1384 122.351 70.1384 123.536 70.1384 124.732C70.173 125.939 70.1038 127.181 69.827 128.423C69.2734 130.873 67.924 133.253 65.9172 134.978C63.8758 136.703 61.2116 137.876 58.409 137.945C52.873 138.014 47.1294 137.98 41.1436 138.014L41.3512 137.911C39.4482 140.636 37.3722 143.603 35.2962 146.605L35.0886 146.881L34.881 146.605C32.978 143.845 30.902 140.912 28.826 137.911L29.0336 138.014C25.1584 138.014 21.041 138.014 16.889 138.014C15.8972 138.014 14.9053 138.014 13.9134 138.014C12.9446 138.014 11.9412 138.014 10.9378 137.911C8.93103 137.704 6.99343 136.979 5.36723 135.875C3.74103 134.737 2.39163 133.253 1.45743 131.528C0.55783 129.803 0.0388298 127.906 0.00422976 125.974C0.00422976 118.487 0.00422976 111.242 0.00422976 104.342C0.00422976 102.617 0.00422976 100.915 0.00422976 99.236C-0.0303702 97.5455 0.14263 95.8205 0.69623 94.268C1.80343 91.1285 4.15623 88.5755 6.99343 87.23C8.37743 86.5745 9.89983 86.1605 11.3876 86.057C12.91 85.9535 14.3632 86.0225 15.7818 86.0225C18.6421 86.0225 21.3755 86.0225 23.982 86.0225C34.4312 86.057 42.9082 86.0915 48.7556 86.126C51.6966 86.126 53.9456 86.1605 55.5026 86.1605C56.2638 86.1605 56.852 86.172 57.2672 86.195C57.6478 86.195 57.8554 86.195 57.8554 86.195C57.8554 86.195 57.6478 86.2295 57.2672 86.2295C56.852 86.2295 56.2638 86.241 55.5026 86.264C53.9456 86.264 51.6966 86.2985 48.7556 86.2985C42.9082 86.333 34.4312 86.333 23.982 86.3675C21.3755 86.3905 18.6421 86.402 15.7818 86.402C14.3632 86.402 12.8754 86.3675 11.4222 86.4365C9.96903 86.5745 8.51583 86.954 7.16643 87.6095C4.43303 88.886 2.14943 91.37 1.11143 94.406C0.55783 95.924 0.41943 97.5455 0.45403 99.236C0.45403 100.915 0.45403 102.617 0.45403 104.342C0.45403 111.242 0.45403 118.453 0.48863 125.974C0.52323 127.802 1.00763 129.665 1.87263 131.321C2.77223 132.943 4.08703 134.392 5.64403 135.461C7.23563 136.531 9.06943 137.221 10.9724 137.428C11.9412 137.531 12.91 137.531 13.9134 137.531C14.9053 137.531 15.8972 137.531 16.889 137.531C21.041 137.531 25.1584 137.531 29.0336 137.531H29.1374L29.2066 137.635C31.3172 140.636 33.3586 143.569 35.2962 146.363H34.881C36.9916 143.327 39.033 140.395 40.9706 137.635L41.0398 137.531H41.1436C47.1294 137.531 52.9076 137.566 58.409 137.531C61.1078 137.428 63.6682 136.324 65.6404 134.668C67.6126 132.977 68.8928 130.7 69.4464 128.32C69.7232 127.147 69.7924 125.939 69.7578 124.732C69.7578 123.536 69.7578 122.351 69.7578 121.178C69.7578 118.855 69.7694 116.601 69.7924 114.416C69.7924 110.104 69.7924 106.102 69.7924 102.445C69.7924 100.651 69.8616 98.891 69.7578 97.304C69.654 95.6825 69.2042 94.199 68.5814 92.957C67.9586 91.6805 67.1282 90.6455 66.2978 89.783C65.4328 88.9205 64.5332 88.2995 63.6682 87.782C61.9382 86.8505 60.4504 86.471 59.4124 86.3675C58.8934 86.264 58.5128 86.2985 58.236 86.264C57.9823 86.241 57.8554 86.218 57.8554 86.195Z" fill="#E0E0E0"/>
<path d="M25.7122 112.691C25.7122 114.83 23.9476 116.59 21.8024 116.59C19.6226 116.59 17.8926 114.83 17.8926 112.691C17.8926 110.518 19.6226 108.793 21.8024 108.793C23.9476 108.793 25.7122 110.518 25.7122 112.691Z" fill="#E0E0E0"/>
<path d="M38.5833 112.691C38.5833 114.83 36.8533 116.59 34.6735 116.59C32.5283 116.59 30.7637 114.83 30.7637 112.691C30.7637 110.518 32.5283 108.793 34.6735 108.793C36.8533 108.793 38.5833 110.518 38.5833 112.691Z" fill="#E0E0E0"/>
<path d="M51.489 112.691C51.489 114.83 49.7244 116.59 47.5792 116.59C45.3994 116.59 43.6348 114.83 43.6348 112.691C43.6348 110.518 45.3994 108.793 47.5792 108.793C49.7244 108.793 51.489 110.518 51.489 112.691Z" fill="#E0E0E0"/>
<path d="M419.599 229.053L417.938 223.498C419.737 220.566 420.81 217.116 420.81 213.424C420.81 202.798 412.16 194.173 401.503 194.173C390.846 194.173 382.196 202.798 382.196 213.424C382.196 224.05 390.846 232.675 401.503 232.675C405.932 232.675 410.049 231.157 413.302 228.639L419.599 229.053Z" fill="#FAFAFA"/>
<path d="M419.599 229.053C419.599 229.053 419.472 229.041 419.218 229.018C418.918 229.018 418.515 229.007 418.007 228.984C416.934 228.915 415.343 228.846 413.301 228.742C413.232 228.742 413.198 228.708 413.232 228.639C413.232 228.616 413.232 228.604 413.232 228.604L413.371 228.708C411.398 230.226 408.492 231.916 404.651 232.537C402.748 232.882 400.638 232.882 398.458 232.572C396.244 232.227 393.995 231.468 391.815 230.26C389.67 229.053 387.663 227.328 386.002 225.189C384.376 223.05 383.13 220.462 382.473 217.668C381.158 212.044 382.577 205.42 386.832 200.659C388.943 198.244 391.607 196.347 394.514 195.277C397.42 194.173 400.499 193.794 403.406 194.104C406.347 194.38 409.08 195.346 411.433 196.726C413.786 198.141 415.723 199.969 417.211 202.005C420.152 206.041 421.156 210.699 420.879 214.528C420.637 218.427 419.322 221.463 418.007 223.533V223.498C418.526 225.292 418.941 226.672 419.218 227.638C419.333 228.098 419.426 228.455 419.495 228.708C419.564 228.938 419.599 229.053 419.599 229.053C419.599 229.053 419.564 228.915 419.46 228.673C419.391 228.42 419.287 228.064 419.149 227.604C418.837 226.672 418.422 225.292 417.869 223.533C417.869 223.51 417.869 223.487 417.869 223.464C419.149 221.394 420.429 218.358 420.637 214.528C420.879 210.733 419.875 206.179 416.934 202.177C415.481 200.211 413.578 198.417 411.26 197.037C408.942 195.691 406.243 194.725 403.371 194.449C400.534 194.173 397.489 194.553 394.652 195.657C391.815 196.692 389.185 198.52 387.109 200.901C382.957 205.593 381.539 212.079 382.853 217.599C383.476 220.359 384.687 222.877 386.313 224.982C387.905 227.086 389.877 228.777 391.988 229.984C394.098 231.192 396.347 231.916 398.493 232.261C400.638 232.606 402.748 232.606 404.617 232.296C408.388 231.675 411.295 230.053 413.267 228.57C413.301 228.535 413.336 228.57 413.371 228.604C413.405 228.604 413.405 228.673 413.371 228.708L413.301 228.57C415.331 228.708 416.888 228.823 417.972 228.915C418.48 228.961 418.884 228.995 419.183 229.018C419.46 229.018 419.599 229.053 419.599 229.053Z" fill="#263238"/>
<path d="M396.036 213.424C396.036 214.494 395.171 215.356 394.098 215.356C392.991 215.356 392.126 214.494 392.126 213.424C392.126 212.355 392.991 211.458 394.098 211.458C395.171 211.458 396.036 212.355 396.036 213.424Z" fill="#263238"/>
<path d="M403.89 213.424C403.89 214.494 403.025 215.356 401.953 215.356C400.845 215.356 399.98 214.494 399.98 213.424C399.98 212.355 400.845 211.458 401.953 211.458C403.025 211.458 403.89 212.355 403.89 213.424Z" fill="#263238"/>
<path d="M411.744 212.424C412.263 213.39 411.951 214.563 411.017 215.115C410.083 215.667 408.872 215.322 408.318 214.39C407.799 213.459 408.111 212.251 409.045 211.734C409.979 211.182 411.19 211.492 411.744 212.424Z" fill="#263238"/>
</svg>
