<svg width="514" height="288" viewBox="0 0 514 288" fill="none" xmlns="http://www.w3.org/2000/svg">
<rect width="514" height="288" rx="4" fill="#F3F6F9"/>
<path d="M66.0156 234.314C66.0156 234.229 149.478 234.172 252.409 234.172C355.369 234.172 438.803 234.229 438.803 234.314C438.803 234.399 355.369 234.485 252.409 234.485C149.478 234.485 66.0156 234.399 66.0156 234.314Z" fill="#263238"/>
<path d="M131.848 158.606H77.0868C75.0944 158.606 73.4944 157.03 73.4944 155.097V106.593C73.4944 104.66 75.0944 103.084 77.0868 103.084H131.848C133.811 103.084 135.411 104.66 135.411 106.593V155.097C135.411 157.03 133.811 158.606 131.848 158.606Z" fill="white"/>
<path d="M135.411 112.541H73.4944V106.682C73.4944 104.69 75.1547 103.084 77.1774 103.084H132.029C133.901 103.084 135.411 104.571 135.411 106.415V112.541Z" fill="#D2D9E0" fill-opacity="0.3"/>
<path d="M82.4299 108.734C82.4299 109.508 81.7355 110.132 80.8903 110.132C80.0752 110.132 79.3809 109.508 79.3809 108.734C79.3809 107.961 80.0752 107.307 80.8903 107.307C81.7355 107.307 82.4299 107.961 82.4299 108.734Z" fill="white"/>
<path d="M86.5659 108.734C86.5659 109.508 85.8715 110.132 85.0263 110.132C84.2112 110.132 83.5168 109.508 83.5168 108.734C83.5168 107.961 84.2112 107.307 85.0263 107.307C85.8715 107.307 86.5659 107.961 86.5659 108.734Z" fill="white"/>
<path d="M90.7016 108.734C90.7016 109.508 90.0073 110.132 89.162 110.132C88.3469 110.132 87.6526 109.508 87.6526 108.734C87.6526 107.961 88.3469 107.307 89.162 107.307C90.0073 107.307 90.7016 107.961 90.7016 108.734Z" fill="white"/>
<path d="M80.3171 117.507C80.3171 117.507 80.3171 151.796 80.3171 151.469C80.3171 151.142 130.067 151.469 130.067 151.469" fill="white"/>
<path d="M130.067 151.469C130.067 151.469 129.997 151.479 129.856 151.498C129.695 151.498 129.484 151.498 129.222 151.498C128.638 151.498 127.823 151.498 126.777 151.498C124.603 151.498 121.524 151.498 117.75 151.498C110.113 151.498 99.577 151.498 87.9545 151.498C86.5055 151.498 85.0665 151.508 83.6376 151.528C82.9332 151.528 82.2389 151.538 81.5546 151.558C81.1924 151.558 80.8603 151.558 80.498 151.588L80.4075 151.617C80.3873 151.617 80.3773 151.617 80.3773 151.617C80.7395 151.588 80.1056 151.439 80.166 151.469V151.409V151.142V150.636C80.166 147.93 80.166 145.343 80.166 142.844C80.1962 137.878 80.1961 133.417 80.1961 129.67C80.2263 125.923 80.2565 122.89 80.2565 120.778C80.2766 119.728 80.2867 118.915 80.2867 118.34C80.2867 118.082 80.2867 117.874 80.2867 117.715C80.3068 117.576 80.3169 117.507 80.3169 117.507C80.3169 117.507 80.3169 117.576 80.3169 117.715C80.337 117.874 80.3471 118.082 80.3471 118.34C80.3471 118.915 80.3572 119.728 80.3773 120.778C80.3773 122.89 80.4075 125.923 80.4377 129.67C80.4377 133.417 80.4377 137.878 80.4678 142.844C80.4678 145.343 80.4678 147.93 80.4678 150.636V151.142V151.409V151.469C80.5282 151.528 79.8943 151.32 80.2565 151.32H80.2867C80.3169 151.29 80.3471 151.29 80.3471 151.29H80.498C80.8301 151.261 81.1924 151.261 81.5244 151.231C82.2288 151.231 82.9332 151.221 83.6376 151.201C85.0665 151.201 86.5055 151.191 87.9545 151.171C99.577 151.171 110.113 151.231 117.75 151.29C121.524 151.32 124.603 151.379 126.777 151.379C127.823 151.399 128.638 151.419 129.222 151.439C129.484 151.439 129.695 151.439 129.856 151.439C129.997 151.459 130.067 151.469 130.067 151.469Z" fill="#263238"/>
<path d="M96.0147 147.662H85.3884V134.042H96.0147V147.662Z" fill="#740646"/>
<path d="M110.415 147.662H99.7883V126.756H110.415V147.662Z" fill="#740646"/>
<path d="M124.845 147.662H114.219V120.63H124.845V147.662Z" fill="#740646"/>
<path d="M131.848 158.606C131.848 158.577 132.06 158.606 132.422 158.517C132.814 158.458 133.388 158.309 133.992 157.833C134.595 157.387 135.199 156.584 135.35 155.484C135.38 154.413 135.35 153.105 135.35 151.677C135.35 145.938 135.32 137.64 135.29 127.351C135.29 122.236 135.29 116.615 135.29 110.578C135.29 109.825 135.29 109.062 135.29 108.288C135.29 107.912 135.29 107.525 135.29 107.129C135.26 106.742 135.29 106.355 135.229 105.998C134.988 104.512 133.569 103.263 131.969 103.233C128.709 103.233 125.358 103.233 121.916 103.233C108.12 103.233 92.996 103.233 77.0868 103.233C76.1207 103.233 75.1849 103.649 74.5509 104.333C73.917 105.017 73.6151 105.969 73.6755 106.92C73.6755 108.843 73.6755 110.767 73.6755 112.69C73.6755 116.496 73.6755 120.243 73.6755 123.931C73.6453 131.336 73.6453 138.473 73.6453 145.254C73.6453 148.644 73.6453 151.945 73.6453 155.157C73.6453 155.93 73.9774 156.703 74.4604 157.268C74.9736 157.863 75.6679 158.249 76.4226 158.398C76.7849 158.487 77.1773 158.458 77.5698 158.458C77.9522 158.458 78.3446 158.458 78.7471 158.458C79.5119 158.458 80.2867 158.458 81.0716 158.458C87.1998 158.487 92.9054 158.487 98.0978 158.487C108.513 158.517 116.965 158.517 122.792 158.547C125.69 158.547 127.954 158.547 129.494 158.577C130.258 158.577 130.842 158.577 131.245 158.577C131.647 158.596 131.848 158.606 131.848 158.606C131.848 158.606 131.647 158.606 131.245 158.606C130.842 158.606 130.258 158.616 129.494 158.636C127.954 158.636 125.69 158.636 122.792 158.666C116.965 158.666 108.513 158.695 98.0978 158.695C92.9054 158.725 87.1998 158.725 81.0716 158.725C80.2867 158.725 79.5119 158.725 78.7471 158.725C78.3446 158.725 77.9522 158.725 77.5698 158.725C77.1773 158.725 76.7547 158.755 76.3622 158.666C75.5472 158.487 74.7924 158.071 74.2491 157.446C73.7057 156.822 73.3736 156.019 73.3736 155.186C73.3736 151.955 73.3736 148.644 73.3736 145.254C73.3736 138.473 73.3434 131.336 73.3434 123.931C73.3434 120.243 73.3434 116.496 73.3434 112.69C73.3434 110.767 73.3434 108.843 73.3434 106.92C73.283 105.939 73.6151 104.868 74.3094 104.125C75.0038 103.381 76.0302 102.906 77.0868 102.935C92.996 102.935 108.12 102.935 121.916 102.935C125.358 102.935 128.719 102.945 131.999 102.965C133.72 102.995 135.229 104.333 135.471 105.939C135.561 106.355 135.531 106.742 135.531 107.129C135.531 107.525 135.531 107.912 135.531 108.288C135.531 109.062 135.531 109.825 135.531 110.578C135.531 116.615 135.531 122.236 135.531 127.351C135.501 137.64 135.471 145.938 135.471 151.677C135.441 153.134 135.501 154.383 135.441 155.513C135.29 156.614 134.656 157.446 134.022 157.893C133.418 158.368 132.814 158.487 132.452 158.547C132.241 158.606 132.09 158.606 131.999 158.606C131.899 158.606 131.848 158.606 131.848 158.606Z" fill="#263238"/>
<path d="M379.567 34H152.615C148.696 34 145.524 37.1337 145.524 40.9768V199.374C145.524 203.217 148.696 206.351 152.615 206.351H239.716L235.497 234.021H298.631L295.13 206.351H379.567C383.457 206.351 386.629 203.217 386.629 199.374V40.9768C386.629 37.1337 383.457 34 379.567 34Z" fill="#D2D9E0"/>
<path d="M269.128 189.707C272.21 194.053 267.363 198.842 262.964 195.797C262.815 195.679 262.665 195.56 262.575 195.413C259.494 191.067 264.311 186.278 268.739 189.323C268.889 189.441 269.008 189.559 269.128 189.707Z" fill="#100E0F"/>
<path d="M380.315 177.379H151.867V45.7662C151.867 42.603 154.471 40.031 157.672 40.031H374.511C377.712 40.031 380.315 42.603 380.315 45.7662V177.379Z" fill="#100E0F"/>
<path d="M318.528 206.35C318.528 206.439 299.498 206.498 276.04 206.498C252.582 206.498 233.552 206.439 233.552 206.35C233.552 206.291 252.582 206.232 276.04 206.232C299.498 206.232 318.528 206.291 318.528 206.35Z" fill="#100E0F"/>
<path d="M374.391 171.703H158.061V45.707H374.391V171.703Z" fill="white"/>
<path d="M374.391 56.1722H158.061V45.707H374.391V56.1722Z" fill="#D2D9E0"/>
<path d="M166.469 51.1761C166.469 51.9743 165.811 52.6247 164.973 52.6247C164.135 52.6247 163.447 51.9743 163.447 51.1761C163.447 50.3779 164.135 49.7275 164.973 49.7275C165.811 49.7275 166.469 50.3779 166.469 51.1761Z" fill="white"/>
<path d="M171.017 51.1761C171.017 51.9743 170.329 52.6247 169.491 52.6247C168.653 52.6247 167.965 51.9743 167.965 51.1761C167.965 50.3779 168.653 49.7275 169.491 49.7275C170.329 49.7275 171.017 50.3779 171.017 51.1761Z" fill="white"/>
<path d="M175.326 51.1761C175.326 51.9743 174.637 52.6247 173.8 52.6247C172.962 52.6247 172.274 51.9743 172.274 51.1761C172.274 50.3779 172.962 49.7275 173.8 49.7275C174.637 49.7275 175.326 50.3779 175.326 51.1761Z" fill="white"/>
<path d="M374.45 116.835H158.031V71.7812H374.45V116.835Z" fill="#D2D9E0"/>
<path d="M188.072 67.613H166.918V62.2917H188.072V67.613Z" fill="#D90452"/>
<path d="M336.241 66.4302H320.922V61.1089H336.241V66.4302Z" fill="#D2D9E0"/>
<path d="M311.197 66.2827H295.908V60.9614H311.197V66.2827Z" fill="#D2D9E0"/>
<path d="M258.147 110.538C258.147 111.573 257.31 112.4 256.232 112.4C255.185 112.4 254.317 111.573 254.317 110.538C254.317 109.533 255.185 108.705 256.232 108.705C257.31 108.705 258.147 109.533 258.147 110.538Z" fill="#D90452"/>
<path d="M265.807 110.538C265.807 111.573 264.969 112.4 263.892 112.4C262.845 112.4 261.977 111.573 261.977 110.538C261.977 109.533 262.845 108.705 263.892 108.705C264.969 108.705 265.807 109.533 265.807 110.538Z" fill="white"/>
<path d="M273.138 110.538C273.138 111.573 272.27 112.4 271.223 112.4C270.146 112.4 269.278 111.573 269.278 110.538C269.278 109.533 270.146 108.705 271.223 108.705C272.27 108.705 273.138 109.533 273.138 110.538Z" fill="white"/>
<path d="M213.475 153.197H180.771V125.024H213.475V153.197Z" fill="#E0E0E0"/>
<path d="M278.793 151.748H251.236V124.521H278.793V151.748Z" fill="#E0E0E0"/>
<path d="M343.751 152.606H314.489V123.664H343.751V152.606Z" fill="#E0E0E0"/>
<path d="M217.245 132.03C217.245 132.03 209.047 122.865 208 122.304C207.491 122.008 206.563 121.801 205.755 121.653C205.396 121.565 204.918 121.506 204.379 121.446C204.319 121.446 204.289 121.446 204.289 121.446C201.776 121.24 197.976 121.328 197.976 121.328C197.976 121.328 197.916 124.639 193.637 126.029C189.269 126.975 187.504 124.166 187.504 124.166C187.504 124.166 184.152 125.97 182.118 127.418C182.118 127.418 182.088 127.438 182.028 127.477C181.609 127.773 181.22 128.069 180.951 128.335C180.352 128.837 179.664 129.488 179.365 130.02C178.767 131.025 176.403 143.027 176.403 143.027L185.17 144.771L186.067 138.859L190.825 158.104L201.237 155.296L202.135 155.059L212.697 152.221L206.743 133.272L210.573 137.942L217.245 132.03Z" fill="#D90452"/>
<path d="M187.384 143.589C187.354 143.589 187.144 142.939 186.845 141.845C186.546 140.781 186.127 139.243 185.708 137.558V137.588C185.549 137.371 185.379 137.154 185.2 136.937C184.003 135.341 182.926 133.922 182.178 132.887C181.789 132.355 181.489 131.941 181.28 131.646C181.07 131.35 180.981 131.173 180.981 131.143C181.011 131.143 181.16 131.291 181.37 131.557C181.609 131.853 181.938 132.237 182.357 132.769C183.165 133.774 184.242 135.164 185.439 136.73C185.618 136.967 185.788 137.194 185.948 137.41L185.978 137.44V137.469C186.426 139.184 186.785 140.721 187.025 141.815C187.294 142.909 187.414 143.589 187.384 143.589Z" fill="#100E0F"/>
<path d="M208.029 138.031C207.97 138.031 207.76 137.381 207.401 136.316C207.072 135.252 206.593 133.744 206.084 132.059V132.03V132C206.104 131.724 206.134 131.448 206.174 131.172C206.384 129.221 206.623 127.448 206.803 126.176C206.862 125.526 206.952 125.023 207.012 124.669C207.072 124.314 207.102 124.107 207.132 124.107C207.162 124.107 207.162 124.314 207.132 124.669C207.102 125.023 207.072 125.555 207.012 126.206C206.892 127.477 206.683 129.251 206.473 131.202C206.434 131.478 206.404 131.754 206.384 132.03L206.354 131.971C206.862 133.685 207.311 135.193 207.61 136.257C207.88 137.351 208.059 138.031 208.029 138.031Z" fill="#100E0F"/>
<path d="M203.062 137.439L202.434 137.617C200.848 138.031 199.233 137.114 198.784 135.547L197.707 131.586L204.05 129.871L205.127 133.862C205.546 135.4 204.618 137.026 203.062 137.439Z" fill="white"/>
<path fill-rule="evenodd" clip-rule="evenodd" d="M201.656 137.735C201.118 137.735 200.609 137.587 200.16 137.321C199.472 136.937 198.993 136.316 198.784 135.548L197.677 131.557H197.707L204.05 129.842V129.872L205.157 133.833C205.576 135.4 204.648 137.026 203.063 137.44L202.434 137.617C202.175 137.696 201.916 137.735 201.656 137.735ZM197.707 131.586L198.814 135.548C199.023 136.287 199.502 136.908 200.19 137.321C200.878 137.706 201.656 137.794 202.404 137.587L203.033 137.41C204.618 136.996 205.546 135.4 205.127 133.863L204.02 129.901L197.707 131.586Z" fill="#100E0F"/>
<path d="M203.242 137.351C203.242 137.322 203.452 137.262 203.811 137.056C204.14 136.878 204.618 136.494 204.888 135.814C205.037 135.489 205.127 135.075 205.097 134.661C205.067 134.247 204.888 133.804 204.768 133.301C204.469 132.326 204.17 131.232 203.84 130.079L204.02 130.167C202.943 130.463 201.746 130.788 200.519 131.113C199.622 131.35 198.764 131.586 197.946 131.823L198.036 131.646C198.395 132.917 198.724 134.129 199.023 135.223C199.083 135.489 199.143 135.755 199.233 135.991C199.322 136.228 199.472 136.435 199.592 136.642C199.891 136.996 200.28 137.263 200.639 137.41C201.417 137.736 202.105 137.588 202.524 137.469C202.973 137.381 203.242 137.322 203.242 137.351C203.242 137.351 203.003 137.44 202.554 137.588C202.135 137.706 201.417 137.913 200.579 137.588C200.16 137.44 199.771 137.174 199.442 136.76C199.263 136.553 199.113 136.346 199.023 136.08C198.903 135.814 198.844 135.548 198.754 135.282C198.455 134.188 198.126 133.005 197.766 131.705L197.737 131.586L197.856 131.527C198.694 131.311 199.552 131.084 200.429 130.847C201.656 130.522 202.853 130.197 203.96 129.901L204.08 129.872L204.11 129.99C204.439 131.173 204.738 132.266 205.007 133.242C205.127 133.715 205.277 134.188 205.307 134.661C205.307 135.104 205.217 135.548 205.067 135.873C204.738 136.583 204.2 136.967 203.84 137.144C203.661 137.243 203.511 137.302 203.392 137.322C203.292 137.341 203.242 137.351 203.242 137.351Z" fill="#100E0F"/>
<path d="M211.829 162.864H183.285V159.08H211.829V162.864Z" fill="#E0E0E0"/>
<path d="M278.643 162.864H250.098V159.08H278.643V162.864Z" fill="#E0E0E0"/>
<path d="M344.021 162.746H316.942V159.168H344.021V162.746Z" fill="#E0E0E0"/>
<path d="M349.736 146.841C349.376 145.658 347.821 145.629 346.713 145.156C343.841 143.914 341.178 142.288 338.784 140.308L314.488 138.652L314.399 139.628C319.964 147.521 330.197 153.345 339.921 152.842C342.495 152.694 345.158 152.192 347.372 150.891C348.658 150.122 350.125 148.23 349.736 146.841Z" fill="#D90452"/>
<g opacity="0.3">
<path d="M349.736 146.841C349.376 145.658 347.821 145.629 346.713 145.156C343.841 143.914 341.178 142.288 338.784 140.308L314.488 138.652L314.399 139.628C319.964 147.521 330.197 153.345 339.921 152.842C342.495 152.694 345.158 152.192 347.372 150.891C348.658 150.122 350.125 148.23 349.736 146.841Z" fill="#100E0F"/>
</g>
<path d="M340.071 134.07C338.844 131.232 337.169 128.571 333.967 127.152C329.868 125.349 325.17 125.94 321.52 128.039C317.9 130.138 315.057 135.312 314.429 139.036C322.777 146.575 339.413 147.905 342.016 143.264C342.345 140.337 341.298 136.908 340.071 134.07Z" fill="#D90452"/>
<path d="M349.646 146.397C349.317 145.215 348 144.653 346.863 144.151C344.021 142.909 341.358 141.283 338.964 139.332L314.429 139.036C319.994 146.93 330.377 152.369 340.071 151.837C342.674 151.719 345.307 151.216 347.551 149.886C348.808 149.147 350.065 147.787 349.646 146.397Z" fill="#D90452"/>
<path d="M342.285 141.727C342.305 141.727 342.295 141.835 342.255 142.052C342.225 142.259 342.166 142.554 342.016 142.909C341.717 143.619 341.058 144.653 339.772 145.333C339.143 145.688 338.395 145.924 337.588 146.102C337.169 146.191 336.75 146.25 336.301 146.279C335.862 146.338 335.413 146.368 334.955 146.368C333.069 146.427 331.005 146.25 328.91 145.806C324.662 144.978 321.071 143.352 318.618 141.963C317.421 141.283 316.463 140.633 315.835 140.189C315.536 139.972 315.296 139.785 315.117 139.628C314.957 139.509 314.877 139.44 314.877 139.421C314.877 139.421 314.967 139.47 315.147 139.568C315.346 139.706 315.596 139.874 315.895 140.071C316.553 140.514 317.51 141.106 318.737 141.786C321.191 143.086 324.781 144.683 328.97 145.511C331.065 145.954 333.099 146.131 334.925 146.102C335.383 146.102 335.832 146.072 336.271 146.013C336.72 145.984 337.139 145.924 337.528 145.865C338.336 145.688 339.054 145.451 339.682 145.156C340.909 144.505 341.597 143.559 341.896 142.85C342.225 142.17 342.255 141.727 342.285 141.727Z" fill="#100E0F"/>
<path d="M336.84 146.102C336.82 146.102 336.81 145.964 336.81 145.688C336.81 145.373 336.82 144.969 336.84 144.476C336.87 143.441 336.84 141.904 336.75 140.042C336.63 138.179 336.361 135.962 335.673 133.597C335.493 133.006 335.314 132.414 335.044 131.823C334.805 131.202 334.476 130.641 334.177 130.049C333.489 128.896 332.561 127.803 331.364 127.093C331.214 127.004 331.065 126.945 330.945 126.886H331.035C329.659 127.182 328.402 127.744 327.355 128.542C326.307 129.34 325.47 130.286 324.692 131.232C323.136 133.094 322.029 134.986 321.281 136.642C320.503 138.297 319.994 139.687 319.635 140.633C319.455 141.086 319.316 141.461 319.216 141.756C319.116 141.993 319.067 142.111 319.067 142.111C319.047 142.111 319.077 141.983 319.156 141.727C319.256 141.431 319.376 141.057 319.515 140.603C319.844 139.628 320.323 138.238 321.071 136.553C321.819 134.868 322.896 132.947 324.482 131.055C325.23 130.109 326.098 129.133 327.175 128.305C328.252 127.477 329.569 126.886 330.975 126.591H331.035H331.065C331.224 126.65 331.374 126.729 331.514 126.827C332.8 127.596 333.728 128.719 334.416 129.902C334.745 130.493 335.074 131.084 335.314 131.705C335.583 132.296 335.763 132.917 335.942 133.508C336.63 135.903 336.87 138.15 336.989 140.042C337.049 141.904 337.049 143.441 336.959 144.476C336.919 144.969 336.89 145.373 336.87 145.688C336.85 145.964 336.84 146.102 336.84 146.102Z" fill="#100E0F"/>
<path d="M331.843 127.152L330.347 126.916L330.436 126.383C330.496 126.029 330.855 125.792 331.214 125.851L331.364 125.881C331.723 125.94 331.992 126.265 331.932 126.65L331.843 127.152Z" fill="#100E0F"/>
<path d="M330.676 138.15L330.048 140.869C330.048 140.869 333.698 142.82 337.109 142.14C339.383 141.697 340.311 140.396 340.311 140.396L340.101 138.031C340.101 138.031 339.114 139.125 336.181 139.214C334.027 139.243 330.676 138.15 330.676 138.15Z" fill="white"/>
<path d="M348.509 149.088C348.529 149.088 348.469 149.147 348.329 149.265C348.21 149.383 348 149.561 347.731 149.738C347.192 150.122 346.355 150.595 345.247 151.009C343.033 151.837 339.712 152.399 336.122 152.014C332.501 151.63 329.419 150.448 327.265 149.472C326.218 148.97 325.38 148.497 324.811 148.171C324.512 148.023 324.303 147.876 324.153 147.787C324.013 147.688 323.944 147.639 323.944 147.639C323.944 147.61 324.273 147.787 324.871 148.083C325.44 148.378 326.307 148.792 327.385 149.265C329.509 150.211 332.591 151.335 336.151 151.719C339.712 152.074 342.973 151.541 345.158 150.802C347.402 150.034 348.479 148.999 348.509 149.088Z" fill="#100E0F"/>
<path d="M247.735 133.39C247.735 133.39 250.996 127.3 254.946 126.886C254.946 126.886 262.276 131.025 263.383 130.759C264.49 130.493 262.875 128.423 264.401 127.241C265.957 126.058 267.483 127.389 268.111 128.276C268.739 129.192 273.168 139.125 276.878 141.667C280.618 144.21 286.482 149.265 285.525 151.541C284.807 153.256 285.016 152.635 281.695 153.256C278.404 153.877 267.453 148.644 263.922 145.126C258.387 139.569 251.355 133.686 247.735 133.39Z" fill="#D90452"/>
<path d="M284.209 153.906C284.957 153.551 284.538 152.369 283.73 152.546C283.55 152.566 283.351 152.586 283.131 152.605C280.917 152.665 278.015 151.837 274.454 150.3C270.894 148.762 269.577 147.757 265.059 144.357C260.541 140.987 256.771 135.134 253.21 134.129C250.278 133.301 248.453 133.331 247.914 133.36C247.795 133.36 247.685 133.39 247.585 133.449C245.102 134.927 240.524 140.78 242.917 142.318C244.563 143.382 250.248 144.062 254.258 145.451C258.237 146.811 267.094 150.654 272.12 152.369C277.117 154.084 282.204 154.852 284.149 153.936C284.169 153.936 284.189 153.926 284.209 153.906Z" fill="white"/>
<path d="M284.208 153.906C284.208 153.926 284.129 153.965 283.969 154.025C283.81 154.103 283.57 154.172 283.251 154.232C282.593 154.379 281.605 154.409 280.349 154.32C277.865 154.113 274.275 153.345 270.086 151.748C265.867 150.211 260.99 148.112 255.454 146.043C252.702 144.949 249.65 144.387 246.508 143.648C245.73 143.471 244.922 143.264 244.144 143.027C243.755 142.879 243.366 142.732 242.977 142.525C242.588 142.347 242.259 141.963 242.169 141.52C241.96 140.603 242.289 139.775 242.618 139.007C242.977 138.238 243.456 137.529 243.965 136.819C244.463 136.129 245.012 135.489 245.61 134.898C246.209 134.306 246.837 133.715 247.585 133.272C247.854 133.183 248.064 133.212 248.273 133.183C248.473 133.183 248.682 133.193 248.902 133.212C249.32 133.232 249.729 133.272 250.128 133.331C250.966 133.419 251.774 133.597 252.552 133.804C253.33 133.981 254.108 134.277 254.796 134.691C255.484 135.104 256.083 135.607 256.681 136.11C257.848 137.144 258.865 138.268 259.883 139.302C261.917 141.46 263.892 143.441 266.046 144.949C268.141 146.516 270.086 147.994 272.031 149.028C276.01 151.039 279.481 152.251 281.964 152.487C282.593 152.546 283.131 152.576 283.61 152.517C283.849 152.458 284.119 152.487 284.268 152.606C284.448 152.724 284.568 152.901 284.597 153.079C284.687 153.404 284.538 153.67 284.418 153.788C284.358 153.847 284.308 153.877 284.268 153.877C284.228 153.896 284.208 153.906 284.208 153.906C284.179 153.906 284.268 153.877 284.388 153.759C284.508 153.64 284.627 153.404 284.538 153.079C284.508 152.931 284.388 152.783 284.238 152.665C284.089 152.546 283.849 152.546 283.64 152.606C283.131 152.665 282.593 152.665 281.964 152.606C280.708 152.517 279.182 152.162 277.506 151.571C275.831 150.98 273.946 150.241 271.941 149.235C269.936 148.201 267.991 146.693 265.867 145.126C264.82 144.387 263.742 143.53 262.725 142.554C261.708 141.608 260.69 140.574 259.673 139.509C258.656 138.445 257.639 137.351 256.472 136.346C255.903 135.844 255.305 135.341 254.646 134.957C253.988 134.543 253.27 134.247 252.462 134.07C251.684 133.892 250.906 133.715 250.098 133.626C249.699 133.567 249.291 133.528 248.872 133.508C248.672 133.508 248.473 133.508 248.273 133.508C248.064 133.508 247.854 133.508 247.735 133.567C247.046 133.951 246.418 134.513 245.82 135.104C245.241 135.696 244.703 136.326 244.204 136.996C243.695 137.676 243.246 138.386 242.917 139.125C242.588 139.864 242.289 140.692 242.468 141.431C242.618 142.199 243.516 142.466 244.234 142.732C245.012 142.968 245.79 143.175 246.598 143.352C249.709 144.091 252.791 144.683 255.544 145.777C261.079 147.876 265.987 149.974 270.146 151.541C274.335 153.167 277.895 153.965 280.379 154.202C281.605 154.32 282.593 154.291 283.221 154.172C283.56 154.113 283.8 154.054 283.939 153.995C284.119 153.936 284.208 153.906 284.208 153.906Z" fill="#100E0F"/>
<path d="M272.509 136.317C272.509 136.405 271.731 136.524 270.864 136.878C269.966 137.203 269.308 137.617 269.278 137.558C269.218 137.499 269.816 136.937 270.744 136.583C271.671 136.228 272.509 136.228 272.509 136.317Z" fill="white"/>
<path d="M274.065 138.445C274.125 138.534 273.467 138.977 272.599 139.45C271.732 139.953 270.984 140.278 270.954 140.219C270.924 140.13 271.582 139.687 272.45 139.184C273.317 138.711 274.035 138.386 274.065 138.445Z" fill="white"/>
<path d="M275.861 140.574C275.891 140.662 275.412 141.135 274.813 141.727C274.215 142.288 273.706 142.761 273.646 142.702C273.587 142.673 273.976 142.081 274.604 141.49C275.202 140.899 275.801 140.514 275.861 140.574Z" fill="white"/>
<path d="M251.655 140.574L247.585 139.421C247.256 139.332 247.077 139.007 247.166 138.682L247.196 138.563C247.286 138.238 247.615 138.061 247.944 138.149L252.014 139.332C252.343 139.421 252.522 139.746 252.432 140.041L252.403 140.189C252.313 140.485 251.984 140.662 251.655 140.574Z" fill="#D90452"/>
<path d="M254.078 127.359C253.988 126.886 253.809 126.384 253.509 125.97C253.36 125.792 253.21 125.615 252.971 125.556C252.731 125.526 252.492 125.674 252.283 125.792C252.083 125.911 251.894 126.029 251.714 126.147C251.594 126.236 251.445 126.324 251.445 126.443C251.445 126.561 251.505 126.65 251.535 126.738C251.814 127.152 252.093 127.576 252.372 128.01" fill="#D90452"/>
<path d="M254.946 126.886C254.976 126.945 254.437 127.093 253.599 127.507C252.791 127.921 251.744 128.601 250.727 129.547C249.709 130.463 248.961 131.468 248.483 132.237C248.004 133.006 247.765 133.508 247.735 133.508C247.705 133.479 247.854 132.946 248.303 132.119C248.722 131.321 249.47 130.286 250.517 129.31C251.565 128.335 252.672 127.655 253.509 127.3C254.377 126.945 254.946 126.857 254.946 126.886Z" fill="#100E0F"/>
<path d="M252.762 127.832C252.672 127.862 252.522 127.448 252.163 127.093C251.834 126.709 251.475 126.502 251.505 126.413C251.505 126.324 252.014 126.443 252.403 126.886C252.821 127.33 252.821 127.832 252.762 127.832Z" fill="#100E0F"/>
<g opacity="0.3">
<path d="M263.713 130.493C263.802 130.227 267.004 135.4 269.158 137.44C266.735 135.696 264.281 132.858 262.396 130.581C262.396 130.581 263.533 131.143 263.713 130.493Z" fill="#100E0F"/>
</g>
<path d="M276.938 143.027C276.938 143.027 276.788 143.145 276.489 143.234C276.19 143.323 275.741 143.382 275.172 143.323C274.634 143.264 273.975 143.086 273.347 142.702C272.689 142.347 272.09 141.786 271.522 141.165C271.243 140.849 270.983 140.544 270.744 140.248C270.525 139.933 270.315 139.627 270.116 139.332C269.717 138.76 269.348 138.238 269.009 137.765C268.41 136.878 268.021 136.287 268.081 136.287C268.111 136.257 268.53 136.76 269.188 137.617C269.527 138.09 269.906 138.603 270.325 139.154C270.545 139.45 270.764 139.746 270.983 140.041C271.223 140.357 271.482 140.662 271.761 140.958C272.3 141.579 272.898 142.111 273.497 142.465C274.065 142.85 274.694 143.027 275.202 143.116C276.279 143.293 276.908 142.968 276.938 143.027Z" fill="#100E0F"/>
<path d="M271.372 136.553C271.372 136.553 271.313 136.346 271.253 135.962C271.193 135.578 271.163 135.016 271.193 134.336C271.223 133.626 271.372 132.828 271.642 131.941C271.781 131.508 271.971 131.064 272.21 130.611C272.3 130.375 272.42 130.168 272.569 129.931C272.659 129.842 272.749 129.724 272.898 129.635C273.018 129.547 273.228 129.488 273.407 129.547C273.766 129.695 273.856 130.049 273.916 130.286C273.946 130.581 273.946 130.818 273.946 131.054C273.946 131.567 273.906 132.05 273.826 132.503C273.676 133.419 273.347 134.188 273.018 134.809C272.689 135.4 272.33 135.844 272.091 136.139C271.821 136.435 271.672 136.553 271.642 136.553C271.582 136.524 272.24 135.903 272.839 134.691C273.138 134.099 273.407 133.331 273.557 132.444C273.616 132.01 273.646 131.557 273.646 131.084C273.646 130.848 273.646 130.581 273.587 130.345C273.557 130.138 273.467 129.902 273.287 129.842C273.138 129.783 272.958 129.931 272.839 130.108C272.719 130.315 272.569 130.552 272.479 130.759C272.24 131.192 272.051 131.616 271.911 132.03C271.612 132.887 271.492 133.686 271.402 134.336C271.283 135.696 271.432 136.524 271.372 136.553Z" fill="white"/>
<path d="M271.432 136.405C271.402 136.405 271.522 136.228 271.791 135.932C272.061 135.607 272.42 135.193 272.928 134.661C273.437 134.159 274.065 133.567 274.843 133.065C275.262 132.799 275.681 132.533 276.19 132.326C276.429 132.237 276.668 132.119 276.968 132.089C277.267 132.06 277.626 132.148 277.835 132.444C278.015 132.739 278.015 133.065 277.925 133.36C277.805 133.626 277.656 133.863 277.506 134.07C277.147 134.484 276.758 134.809 276.369 135.075C275.561 135.607 274.724 135.873 274.035 136.051C273.317 136.228 272.749 136.317 272.36 136.346C271.941 136.405 271.731 136.435 271.731 136.405C271.702 136.346 272.599 136.228 273.976 135.844C274.634 135.637 275.442 135.371 276.19 134.838C276.579 134.572 276.938 134.277 277.237 133.892C277.566 133.508 277.805 133.006 277.566 132.621C277.446 132.444 277.237 132.385 276.998 132.414C276.758 132.414 276.519 132.503 276.309 132.621C275.831 132.799 275.412 133.035 275.023 133.301C274.245 133.804 273.587 134.336 273.078 134.838C272.061 135.814 271.462 136.464 271.432 136.405Z" fill="white"/>
<path d="M365.803 78.4919H349.526C348.27 78.4919 347.222 77.4868 347.222 76.2156V60.1335C347.222 58.8919 348.27 57.8867 349.526 57.8867H365.803C367.09 57.8867 368.107 58.8919 368.107 60.1335V76.2156C368.107 77.4868 367.09 78.4919 365.803 78.4919Z" fill="#D90452"/>
<path d="M361.166 69.9779H354.254C354.104 69.9779 353.955 69.8597 353.955 69.6823C353.955 69.5345 354.104 69.3867 354.254 69.3867H360.896L361.614 65.3957H353.596C353.446 65.3957 353.296 65.2479 353.296 65.1001C353.296 64.9227 353.446 64.8044 353.596 64.8044H361.974C362.063 64.8044 362.153 64.834 362.213 64.8931C362.273 64.9818 362.273 65.0705 362.273 65.1592L361.435 69.7414C361.435 69.8892 361.285 69.9779 361.166 69.9779Z" fill="white"/>
<path d="M360.926 71.6038L354.344 71.5742C354.194 71.5742 354.075 71.456 354.075 71.3082L353.147 64.1835H351.292C351.112 64.1835 350.993 64.0357 350.993 63.8879C350.993 63.7105 351.112 63.5923 351.292 63.5923H353.386C353.536 63.5923 353.686 63.681 353.686 63.8288L354.613 70.983L360.926 71.0125C361.076 71.0125 361.226 71.1308 361.226 71.3082C361.226 71.456 361.076 71.6038 360.926 71.6038Z" fill="white"/>
<path fill-rule="evenodd" clip-rule="evenodd" d="M355.421 73.9096C354.822 73.9096 354.314 73.407 354.314 72.7862C354.314 72.195 354.822 71.6924 355.421 71.6924C356.049 71.6924 356.558 72.195 356.558 72.7862C356.558 73.407 356.049 73.9096 355.421 73.9096ZM355.421 72.2836C355.152 72.2836 354.912 72.5201 354.912 72.7862C354.912 73.0818 355.152 73.3183 355.421 73.3183C355.72 73.3183 355.959 73.0818 355.959 72.7862C355.959 72.5201 355.72 72.2836 355.421 72.2836Z" fill="white"/>
<path fill-rule="evenodd" clip-rule="evenodd" d="M359.969 73.9096C359.341 73.9096 358.832 73.407 358.832 72.7862C358.832 72.195 359.341 71.6924 359.969 71.6924C360.567 71.6924 361.076 72.195 361.076 72.7862C361.076 73.407 360.567 73.9096 359.969 73.9096ZM359.969 72.2836C359.67 72.2836 359.43 72.5201 359.43 72.7862C359.43 73.0818 359.67 73.3183 359.969 73.3183C360.238 73.3183 360.478 73.0818 360.478 72.7862C360.478 72.5201 360.238 72.2836 359.969 72.2836Z" fill="white"/>
<path d="M356.378 69.9776C356.229 69.9776 356.109 69.8593 356.079 69.7115L355.81 65.2771C355.81 65.0997 355.93 64.9519 356.079 64.9519C356.259 64.9519 356.408 65.0702 356.408 65.218L356.678 69.6819C356.707 69.8298 356.558 69.9776 356.408 69.9776C356.408 69.9776 356.398 69.9776 356.378 69.9776Z" fill="white"/>
<path d="M358.922 69.9776C358.902 69.9776 358.892 69.9776 358.892 69.9776C358.712 69.9776 358.593 69.8298 358.623 69.6819L358.862 65.218C358.862 65.0702 359.011 64.9519 359.161 64.9519C359.341 64.9519 359.46 65.0997 359.46 65.2475L359.191 69.7115C359.191 69.8593 359.071 69.9776 358.922 69.9776Z" fill="white"/>
<path d="M353.865 67.7605C353.686 67.7605 353.566 67.6422 353.566 67.4649C353.566 67.3171 353.686 67.1692 353.865 67.1692L361.555 67.1101C361.734 67.1101 361.854 67.2284 361.854 67.4057C361.854 67.5535 361.734 67.7014 361.555 67.7014L353.865 67.7605Z" fill="white"/>
<path d="M229.115 92.4752L198.745 103.118C198.177 103.325 197.519 103.029 197.309 102.438C197.1 101.876 197.429 101.226 197.997 101.048L227.5 90.7014L224.208 71.397L188.602 83.8724C188.034 84.0794 187.375 83.7837 187.196 83.1925C186.986 82.6308 187.286 82.01 187.854 81.803L224.717 68.8546C225.046 68.7659 225.375 68.7954 225.674 68.9433C225.944 69.1206 226.153 69.3867 226.213 69.7119L229.863 91.2335C229.953 91.7657 229.624 92.2682 229.115 92.4752Z" fill="white"/>
<path d="M230.671 99.8954L201.678 109.947C201.169 110.124 200.571 109.888 200.331 109.415L184.802 79.1424L176.454 82.0691C175.856 82.276 175.228 81.9804 175.018 81.3891C174.809 80.8274 175.108 80.2066 175.706 79.9997L184.982 76.7182C185.52 76.5409 186.119 76.7774 186.358 77.2799L201.887 107.552L229.923 97.826C230.492 97.6191 231.15 97.9147 231.33 98.4764C231.539 99.0676 231.24 99.6884 230.671 99.8954Z" fill="white"/>
<path fill-rule="evenodd" clip-rule="evenodd" d="M210.115 118.55C207.542 119.466 204.7 118.136 203.802 115.593C202.875 113.051 204.221 110.272 206.794 109.356C209.367 108.469 212.21 109.799 213.108 112.341C214.005 114.854 212.659 117.663 210.115 118.55ZM207.542 111.454C206.136 111.927 205.418 113.465 205.897 114.854C206.405 116.244 207.961 116.983 209.367 116.48C210.774 115.978 211.492 114.44 211.013 113.051C210.504 111.691 208.949 110.952 207.542 111.454Z" fill="white"/>
<path fill-rule="evenodd" clip-rule="evenodd" d="M230.073 111.543C227.5 112.46 224.687 111.129 223.759 108.587C222.862 106.045 224.208 103.266 226.782 102.349C229.325 101.462 232.167 102.793 233.065 105.335C233.993 107.848 232.646 110.656 230.073 111.543ZM227.53 104.448C226.123 104.921 225.375 106.458 225.884 107.848C226.363 109.237 227.919 109.976 229.325 109.474C230.731 108.971 231.479 107.464 230.97 106.074C230.462 104.685 228.936 103.946 227.53 104.448Z" fill="white"/>
<path d="M208.141 99.836C207.572 100.013 206.944 99.7473 206.734 99.2152L198.446 80.0586C198.207 79.4969 198.476 78.8465 199.044 78.61C199.613 78.3144 200.271 78.6395 200.511 79.2012L208.769 98.3579C209.008 98.9196 208.769 99.5699 208.2 99.8064C208.18 99.8064 208.16 99.8163 208.141 99.836Z" fill="white"/>
<path d="M219.241 95.9339C219.221 95.9339 219.201 95.9339 219.182 95.9339C218.583 96.1113 217.955 95.7861 217.775 95.1949L211.851 75.2105C211.671 74.6192 211.971 73.9984 212.599 73.8506C213.197 73.6732 213.826 73.9984 214.005 74.5897L219.93 94.574C220.109 95.1357 219.78 95.727 219.241 95.9339Z" fill="white"/>
<path d="M193.479 93.9238C192.911 94.1307 192.282 93.8351 192.073 93.2734C191.864 92.6821 192.163 92.0613 192.731 91.8544L226.542 79.6154C227.141 79.4085 227.769 79.7041 227.978 80.2953C228.188 80.857 227.889 81.4779 227.32 81.6848L193.509 93.9238C193.489 93.9238 193.479 93.9238 193.479 93.9238Z" fill="white"/>
<path d="M427.291 164.49H347.97C345.547 164.49 343.572 162.539 343.572 160.115V61.2569C343.572 58.8623 345.547 56.8816 347.97 56.8816H427.291C429.715 56.8816 431.69 58.8623 431.69 61.2569V160.115C431.69 162.539 429.715 164.49 427.291 164.49Z" fill="white"/>
<path d="M431.69 69.5049H343.572V60.5474C343.572 58.5371 345.218 56.8816 347.252 56.8816H428.009C430.044 56.8816 431.69 58.5371 431.69 60.5474V69.5049Z" fill="#D2D9E0"/>
<path d="M428.069 164.49C428.089 164.49 428.179 164.48 428.338 164.46C428.488 164.46 428.757 164.431 429.057 164.342C429.685 164.165 430.642 163.692 431.271 162.539C431.41 162.263 431.52 161.957 431.6 161.622C431.66 161.267 431.66 160.883 431.66 160.499C431.66 159.71 431.66 158.843 431.66 157.897C431.66 156.045 431.65 153.906 431.63 151.482C431.63 141.756 431.6 127.743 431.6 110.42C431.6 101.728 431.57 92.2384 431.57 82.0393C431.57 76.9545 431.57 71.6924 431.57 66.2528C431.57 64.8929 431.57 63.5232 431.57 62.1436C431.57 61.4637 431.6 60.7542 431.54 60.1038C431.48 59.4238 431.181 58.803 430.762 58.2709C430.313 57.7683 429.745 57.384 429.086 57.1771C428.428 56.9701 427.71 57.0588 426.992 57.0293C425.556 57.0293 424.12 57.0293 422.683 57.0293C399.465 57.0293 373.972 57.0588 347.192 57.0588C346.384 57.0588 345.607 57.3249 344.978 57.8275C344.38 58.33 343.931 59.0395 343.781 59.8377C343.692 60.222 343.721 60.6064 343.721 61.0202V62.2619C343.721 63.0699 343.721 63.8878 343.721 64.7156C343.721 67.9675 343.721 71.2095 343.721 74.4417C343.721 80.8864 343.721 87.2325 343.721 93.4801C343.721 105.926 343.721 117.958 343.721 129.428C343.721 135.164 343.712 140.751 343.692 146.19C343.692 148.91 343.692 151.581 343.692 154.202C343.692 155.522 343.692 156.833 343.692 158.134C343.692 158.784 343.692 159.425 343.692 160.055C343.692 160.706 343.662 161.356 343.841 161.918C344.23 163.1 345.247 164.046 346.444 164.283C347.043 164.401 347.701 164.342 348.329 164.371C348.948 164.371 349.566 164.371 350.184 164.371C352.678 164.371 355.121 164.371 357.515 164.371C362.303 164.371 366.89 164.371 371.279 164.371C388.843 164.401 403.025 164.401 412.839 164.431C417.746 164.431 421.546 164.46 424.149 164.46C425.446 164.46 426.423 164.46 427.082 164.46C427.74 164.46 428.069 164.49 428.069 164.49C428.069 164.49 427.74 164.49 427.082 164.49C426.423 164.509 425.446 164.519 424.149 164.519C421.546 164.519 417.746 164.519 412.839 164.549C403.025 164.549 388.843 164.578 371.279 164.608C366.89 164.608 362.303 164.608 357.515 164.608C355.121 164.608 352.678 164.608 350.184 164.608C349.566 164.608 348.948 164.608 348.329 164.608C347.701 164.578 347.073 164.667 346.414 164.519C345.128 164.253 343.991 163.278 343.602 162.006C343.392 161.356 343.452 160.706 343.452 160.055C343.452 159.425 343.442 158.784 343.422 158.134C343.422 156.833 343.422 155.522 343.422 154.202C343.422 151.581 343.422 148.91 343.422 146.19C343.422 140.751 343.422 135.164 343.422 129.428C343.422 117.958 343.422 105.926 343.422 93.4801C343.422 87.2325 343.422 80.8864 343.422 74.4417C343.422 71.2095 343.422 67.9675 343.422 64.7156C343.422 63.8878 343.422 63.0699 343.422 62.2619V61.0202C343.422 60.6359 343.392 60.1925 343.482 59.7786C343.632 58.9213 344.11 58.1527 344.799 57.591C345.457 57.0588 346.325 56.7336 347.192 56.7336C373.972 56.7336 399.465 56.7632 422.683 56.7632C424.12 56.7632 425.556 56.7632 426.992 56.7632H428.069C428.428 56.7632 428.817 56.7928 429.146 56.911C429.864 57.118 430.493 57.5318 430.971 58.0935C431.45 58.6552 431.749 59.3352 431.809 60.0742C431.869 60.7837 431.839 61.4637 431.839 62.1436C431.839 63.5232 431.839 64.8929 431.839 66.2528C431.839 71.6924 431.839 76.9545 431.839 82.0393C431.839 92.2384 431.809 101.728 431.809 110.42C431.779 127.743 431.779 141.756 431.779 151.482C431.759 153.906 431.749 156.045 431.749 157.897C431.749 158.843 431.749 159.71 431.749 160.499C431.749 160.883 431.749 161.267 431.66 161.622C431.58 161.977 431.47 162.292 431.331 162.568C430.672 163.721 429.685 164.194 429.086 164.371C428.757 164.46 428.518 164.46 428.338 164.49C428.179 164.49 428.089 164.49 428.069 164.49Z" fill="#263238"/>
<path d="M352.548 63.208C352.548 64.3019 351.621 65.2183 350.484 65.2183C349.377 65.2183 348.449 64.3019 348.449 63.208C348.449 62.0847 349.377 61.1682 350.484 61.1682C351.621 61.1682 352.548 62.0847 352.548 63.208Z" fill="white"/>
<path d="M358.443 63.208C358.443 64.3019 357.515 65.2183 356.378 65.2183C355.271 65.2183 354.344 64.3019 354.344 63.208C354.344 62.0847 355.271 61.1682 356.378 61.1682C357.515 61.1682 358.443 62.0847 358.443 63.208Z" fill="white"/>
<path d="M364.337 63.208C364.337 64.3019 363.41 65.2183 362.273 65.2183C361.166 65.2183 360.238 64.3019 360.238 63.208C360.238 62.0847 361.166 61.1682 362.273 61.1682C363.41 61.1682 364.337 62.0847 364.337 63.208Z" fill="white"/>
<path d="M399.046 100.871H379.387C378.131 100.871 377.083 99.8359 377.083 98.5943V79.142C377.083 77.9004 378.131 76.8953 379.387 76.8953H399.046C400.332 76.8953 401.35 77.9004 401.35 79.142V98.5943C401.35 99.8359 400.332 100.871 399.046 100.871Z" fill="#D90452"/>
<path fill-rule="evenodd" clip-rule="evenodd" d="M384.093 85.291C384.093 85.0667 384.277 84.8848 384.504 84.8848H394.228C394.35 84.8848 394.465 84.938 394.543 85.0301C394.622 85.1222 394.654 85.2438 394.633 85.3622L393.676 90.6835C393.641 90.8773 393.47 91.0186 393.271 91.0186H385.252C385.025 91.0186 384.841 90.8367 384.841 90.6123C384.841 90.3879 385.025 90.2061 385.252 90.2061H392.927L393.738 85.6973H384.504C384.277 85.6973 384.093 85.5154 384.093 85.291Z" fill="white"/>
<path fill-rule="evenodd" clip-rule="evenodd" d="M381.37 83.8723C381.37 83.648 381.554 83.4661 381.781 83.4661H384.235C384.441 83.4661 384.615 83.6174 384.642 83.8197L385.733 92.0702L393.003 92.0984C393.23 92.0993 393.413 92.2819 393.413 92.5062C393.412 92.7306 393.227 92.9118 393 92.9109L385.37 92.8813C385.164 92.8805 384.991 92.7294 384.964 92.5277L383.874 84.2786H381.781C381.554 84.2786 381.37 84.0967 381.37 83.8723Z" fill="white"/>
<path fill-rule="evenodd" clip-rule="evenodd" d="M386.598 93.709C386.325 93.709 386.082 93.9327 386.082 94.2488C386.082 94.5268 386.316 94.7589 386.598 94.7589C386.919 94.7589 387.145 94.5184 387.145 94.2488C387.145 93.9412 386.91 93.709 386.598 93.709ZM385.26 94.2488C385.26 93.5006 385.854 92.8965 386.598 92.8965C387.364 92.8965 387.967 93.4921 387.967 94.2488C387.967 94.9842 387.355 95.5715 386.598 95.5715C385.863 95.5715 385.26 94.9759 385.26 94.2488Z" fill="white"/>
<path fill-rule="evenodd" clip-rule="evenodd" d="M391.864 93.709C391.591 93.709 391.348 93.9327 391.348 94.2488C391.348 94.5268 391.583 94.7589 391.864 94.7589C392.185 94.7589 392.411 94.5184 392.411 94.2488C392.411 93.9412 392.176 93.709 391.864 93.709ZM390.526 94.2488C390.526 93.5006 391.12 92.8965 391.864 92.8965C392.63 92.8965 393.233 93.4921 393.233 94.2488C393.233 94.9842 392.621 95.5715 391.864 95.5715C391.129 95.5715 390.526 94.9759 390.526 94.2488Z" fill="white"/>
<path fill-rule="evenodd" clip-rule="evenodd" d="M387.38 85.0335C387.607 85.0194 387.802 85.1896 387.816 85.4135L388.145 90.587C388.16 90.8109 387.988 91.0038 387.761 91.0179C387.535 91.032 387.339 90.8619 387.325 90.638L386.996 85.4645C386.982 85.2406 387.154 85.0476 387.38 85.0335Z" fill="white"/>
<path fill-rule="evenodd" clip-rule="evenodd" d="M390.958 85.0333C391.185 85.0448 391.359 85.2358 391.347 85.4599L391.078 90.6333C391.066 90.8574 390.873 91.0297 390.646 91.0182C390.42 91.0067 390.245 90.8157 390.257 90.5916L390.526 85.4181C390.538 85.194 390.731 85.0217 390.958 85.0333Z" fill="white"/>
<path fill-rule="evenodd" clip-rule="evenodd" d="M394.161 87.9478C394.163 88.1722 393.981 88.3559 393.754 88.3582L384.807 88.4468C384.58 88.4491 384.394 88.269 384.392 88.0447C384.39 87.8203 384.572 87.6366 384.799 87.6344L393.745 87.5457C393.972 87.5434 394.158 87.7235 394.161 87.9478Z" fill="white"/>
<path d="M397.34 84.4042C397.34 85.8528 396.173 87.0057 394.707 87.0057C393.271 87.0057 392.104 85.8528 392.104 84.4042C392.104 82.9852 393.271 81.8323 394.707 81.8323C396.173 81.8323 397.34 82.9852 397.34 84.4042Z" fill="white"/>
<path d="M384.414 111.454H357.335V107.877H384.414V111.454Z" fill="#D2D9E0"/>
<path d="M417.926 111.454H407.394V107.877H417.926V111.454Z" fill="#D2D9E0"/>
<path d="M392.343 119.022H357.335V115.445H392.343V119.022Z" fill="#D2D9E0"/>
<path d="M417.926 119.022H407.394V115.445H417.926V119.022Z" fill="#D2D9E0"/>
<path d="M373.732 126.62H357.335V123.043H373.732V126.62Z" fill="#D2D9E0"/>
<path d="M417.926 126.62H407.394V123.043H417.926V126.62Z" fill="#D2D9E0"/>
<path d="M417.926 133.833H407.394V130.286H417.926V133.833Z" fill="#100E0F"/>
<path d="M396.413 154.734H376.814C373.672 154.734 371.129 152.221 371.129 149.117V148.526C371.129 145.422 373.672 142.909 376.814 142.909H396.413C399.554 142.909 402.098 145.422 402.098 148.526V149.117C402.098 152.221 399.554 154.734 396.413 154.734Z" fill="#D90452"/>
<path d="M103 70.8242L103.719 72.1156L105 72.84L103.719 73.5329L103 74.8242L102.281 73.5329L101 72.84L102.281 72.1156L103 70.8242Z" fill="#D90452"/>
<path d="M115.5 52.8242L117.092 55.4093L120 56.8242L117.092 58.2392L115.5 60.8242L113.908 58.2392L111 56.8242L113.908 55.4093L115.5 52.8242Z" fill="#D90452"/>
<path d="M449 69.8242L451.141 73.7039L455 75.8092L451.141 77.9445L449 81.8242L446.889 77.9445L443 75.8092L446.889 73.7039L449 69.8242Z" fill="#D2D9E0"/>
<path d="M424.849 42.7671L425.748 44.3739L427.377 45.2603L425.748 46.1468L424.849 47.7536L423.978 46.1468L422.349 45.2603L423.978 44.3739L424.849 42.7671Z" fill="#E0E0E0"/>
<path d="M439.266 211.551H412.791C410.436 211.551 408.504 209.648 408.504 207.298V181.247C408.504 178.898 410.436 177.024 412.791 177.024H439.266C441.621 177.024 443.553 178.898 443.553 181.247V207.298C443.553 209.648 441.621 211.551 439.266 211.551Z" fill="#D2D9E0" fill-opacity="0.4"/>
<path d="M413.938 194.778L417.44 191.299L424.262 197.276L435.643 186.005L438.934 189.485L423.749 203.968L413.938 194.778Z" fill="white"/>
</svg>
