<svg width="403" height="267" viewBox="0 0 403 267" fill="none" xmlns="http://www.w3.org/2000/svg">
<path fill-rule="evenodd" clip-rule="evenodd" d="M167.488 194.723C168.912 193.842 170.443 193.201 172.028 192.747L172.942 188.315L180.518 188.182L181.593 192.587C183.178 192.988 184.736 193.575 186.187 194.376L190.002 191.893L195.456 197.126L193.092 200.998C193.951 202.413 194.596 203.935 195.053 205.51L199.54 206.418L199.674 213.947L195.214 215.015C194.838 216.59 194.22 218.139 193.414 219.581L195.913 223.372L190.674 228.792L186.751 226.443C185.327 227.297 183.796 227.938 182.238 228.392L181.297 232.851L173.748 232.984L172.646 228.552C171.061 228.178 169.53 227.564 168.052 226.763L164.237 229.246L158.783 224.04L161.174 220.141C160.288 218.726 159.643 217.204 159.186 215.656L154.726 214.721L154.592 207.219L159.025 206.124C159.428 204.549 160.019 203.027 160.825 201.558L158.326 197.767L163.592 192.347L167.488 194.723ZM171.518 204.762C168.401 207.966 168.482 213.066 171.706 216.163C174.93 219.26 180.088 219.154 183.178 215.95C186.294 212.746 186.214 207.646 182.99 204.549C179.766 201.451 174.634 201.532 171.518 204.762Z" fill="#D2D9E0"/>
<path fill-rule="evenodd" clip-rule="evenodd" d="M89.1182 31.3725C90.4346 30.5715 91.8048 29.9841 93.2288 29.5836L94.0885 25.5519L100.939 25.4184L101.934 29.4234C103.384 29.7972 104.781 30.3312 106.098 31.0521L109.591 28.8093L114.534 33.5352L112.358 37.0596C113.164 38.3679 113.755 39.7296 114.158 41.1447L118.215 41.9991L118.349 48.8343L114.319 49.7955C113.943 51.2373 113.406 52.6257 112.68 53.934L114.937 57.405L110.182 62.3178L106.635 60.1818C105.319 60.9561 103.949 61.5435 102.525 61.944L101.665 65.9757L94.787 66.1092L93.8198 62.1042C92.369 61.7304 90.972 61.1964 89.6555 60.4755L86.1628 62.7183L81.2194 57.9924L83.3687 54.468C82.5896 53.1597 81.9985 51.798 81.5955 50.3829L77.5386 49.5285L77.4043 42.72L81.4343 41.7321C81.8104 40.2903 82.3478 38.9019 83.0732 37.5936L80.8164 34.1226L85.5718 29.2098L89.1182 31.3725ZM92.7989 40.4772C89.951 43.3875 90.0316 48.0333 92.9601 50.8368C95.8886 53.6403 100.563 53.5602 103.384 50.6499C106.205 47.7396 106.125 43.0938 103.196 40.2903C100.268 37.4868 95.6199 37.5669 92.7989 40.4772Z" fill="#D2D9E0"/>
<path d="M311.438 103.382L208.539 43.788L208.808 43.3341L311.734 102.929L311.438 103.382Z" fill="#D2D9E0"/>
<path d="M70.5793 160.307L70.2031 159.933C70.6061 159.506 112.787 116.572 130.599 97.2147C143.522 83.1972 181.109 44.2953 181.485 43.8948L181.888 44.2686C181.512 44.6691 143.925 83.571 131.002 97.5885C113.163 116.946 71.0091 159.88 70.5793 160.307Z" fill="#D2D9E0"/>
<path d="M58.5962 168.424C60.1008 167.783 61.1754 166.234 61.1754 164.419C61.1754 162.016 59.3754 160.093 57.1186 160.067C54.8618 160.067 53.0348 161.989 53.0348 164.365C53.008 166.208 54.1095 167.783 55.614 168.424C49.3541 169.358 49.6228 176.14 49.6228 176.14L64.48 176.193C64.48 176.193 64.8024 169.358 58.5962 168.424Z" fill="#740646"/>
<path fill-rule="evenodd" clip-rule="evenodd" d="M57.0385 184.871C48.0382 184.871 40.7305 177.608 40.7305 168.637C40.7305 159.693 48.0382 152.43 57.0385 152.43C66.0657 152.43 73.3735 159.693 73.3735 168.637C73.3735 177.608 66.0657 184.871 57.0385 184.871ZM57.0385 152.884C48.3069 152.884 41.1872 159.96 41.1872 168.637C41.1872 177.341 48.3069 184.417 57.0385 184.417C65.7971 184.417 72.9167 177.341 72.9167 168.637C72.9167 159.96 65.7971 152.884 57.0385 152.884Z" fill="#740646"/>
<path d="M326.834 109.977C328.284 109.363 329.332 107.841 329.359 106.079C329.359 103.756 327.586 101.861 325.383 101.834C323.207 101.834 321.407 103.703 321.407 106.026C321.38 107.841 322.454 109.363 323.932 109.977C317.806 110.885 318.102 117.48 318.102 117.48L332.556 117.56C332.556 117.56 332.879 110.885 326.834 109.977Z" fill="#740646"/>
<path fill-rule="evenodd" clip-rule="evenodd" d="M327.048 125.944C316.919 127.012 308.429 118.548 309.504 108.482C310.283 101.14 316.221 95.2389 323.609 94.4646C333.738 93.3966 342.228 101.861 341.153 111.926C340.374 119.269 334.436 125.143 327.048 125.944ZM326.994 94.9185C317.161 93.8772 308.913 102.101 309.934 111.873C310.713 119.002 316.463 124.742 323.636 125.49C333.496 126.531 341.744 118.308 340.696 108.536C339.944 101.407 334.168 95.6661 326.994 94.9185Z" fill="#740646"/>
<path d="M193.092 31.773C194.463 31.2123 195.457 29.7972 195.457 28.1151C195.457 25.9257 193.791 24.1368 191.722 24.1368C189.68 24.1368 187.988 25.899 187.988 28.0884C187.961 29.7705 188.955 31.2123 190.352 31.773C184.602 32.6541 184.871 38.8485 184.871 38.8485L198.466 38.9286C198.466 38.9286 198.788 32.6274 193.092 31.773Z" fill="#740646"/>
<path fill-rule="evenodd" clip-rule="evenodd" d="M193.306 46.8051C183.769 47.793 175.762 39.8631 176.783 30.3846C177.509 23.496 183.097 17.9424 190.055 17.2215C199.566 16.2069 207.573 24.1368 206.552 33.6153C205.826 40.5039 200.238 46.0575 193.306 46.8051ZM193.253 17.622C183.984 16.6608 176.219 24.3771 177.213 33.5619C177.912 40.2636 183.339 45.657 190.082 46.3779C199.351 47.3391 207.116 39.6228 206.122 30.438C205.423 23.7363 199.996 18.3429 193.253 17.622Z" fill="#740646"/>
<path d="M111.067 223.826C112.357 223.292 113.27 221.957 113.297 220.409C113.297 218.379 111.739 216.724 109.831 216.724C107.897 216.697 106.339 218.353 106.339 220.382C106.312 221.957 107.252 223.292 108.542 223.826C103.195 224.627 103.437 230.421 103.437 230.421L116.091 230.474C116.091 230.474 116.387 224.627 111.067 223.826Z" fill="#740646"/>
<path fill-rule="evenodd" clip-rule="evenodd" d="M109.778 237.87C102.094 237.87 95.834 231.676 95.834 224.04C95.834 216.404 102.094 210.182 109.778 210.182C117.435 210.182 123.695 216.404 123.695 224.04C123.695 231.676 117.435 237.87 109.778 237.87ZM109.778 210.583C102.309 210.583 96.237 216.617 96.237 224.04C96.237 231.436 102.309 237.47 109.778 237.47C117.22 237.47 123.292 231.436 123.292 224.04C123.292 216.617 117.22 210.583 109.778 210.583Z" fill="#740646"/>
<path d="M100.644 214.134L65.4219 182.681L65.7711 182.281L100.993 213.734L100.644 214.134Z" fill="#D2D9E0"/>
<path d="M341.746 61.4367H257.922V22.3212H341.746V61.4367Z" fill="#FAFAFA"/>
<path d="M341.745 61.4367C341.745 61.4367 341.719 61.1964 341.719 60.7425C341.719 60.2797 341.719 59.6033 341.719 58.7133C341.692 56.9244 341.692 54.2811 341.692 50.9169C341.665 44.1618 341.665 34.3896 341.638 22.3212L341.745 22.428C319.957 22.428 290.403 22.4547 257.921 22.4547L258.056 22.3212C258.056 36.0984 258.056 49.3149 258.056 61.4367L257.921 61.3032C282.316 61.3299 303.246 61.3566 318.103 61.3566C325.518 61.3833 331.429 61.41 335.485 61.41C337.5 61.41 339.059 61.41 340.107 61.41C340.644 61.4278 341.047 61.4367 341.316 61.4367C341.584 61.4367 341.728 61.4367 341.745 61.4367C341.745 61.4367 341.611 61.4367 341.342 61.4367C341.074 61.4367 340.68 61.4456 340.16 61.4634C339.086 61.4634 337.554 61.4634 335.539 61.4634C331.482 61.4901 325.599 61.4901 318.183 61.5168C303.326 61.5168 282.37 61.5435 257.921 61.5702H257.787V61.4367C257.787 49.3149 257.787 36.0984 257.787 22.3212V22.1877H257.921C290.403 22.1877 319.957 22.2144 341.745 22.2144H341.826V22.3212C341.799 34.4163 341.799 44.1885 341.772 50.9703C341.772 54.3345 341.772 56.9511 341.745 58.74C341.745 59.63 341.745 60.3064 341.745 60.7692C341.745 61.2142 341.745 61.4367 341.745 61.4367Z" fill="#100E0F"/>
<path d="M341.853 34.1226C341.853 34.2027 323.074 34.2561 299.888 34.2561C276.729 34.2561 257.922 34.2027 257.922 34.1226C257.922 34.0425 276.729 33.9891 299.888 33.9891C323.074 33.9891 341.853 34.0425 341.853 34.1226Z" fill="#100E0F"/>
<path d="M266.197 26.4597C266.251 26.5131 265.23 27.5277 263.913 28.7292C262.597 29.904 261.495 30.8385 261.441 30.7851C261.388 30.7317 262.409 29.7171 263.725 28.5156C265.042 27.3141 266.143 26.3796 266.197 26.4597Z" fill="#100E0F"/>
<path d="M266.01 30.972C265.956 31.0254 264.935 30.0108 263.726 28.7025C262.517 27.4209 261.577 26.2995 261.657 26.2461C261.711 26.2194 262.732 27.2073 263.914 28.5156C265.123 29.8239 266.063 30.9186 266.01 30.972Z" fill="#100E0F"/>
<path d="M274.526 30.8652C274.508 30.8652 274.499 30.7495 274.499 30.5181C274.481 30.2689 274.463 29.9574 274.445 29.5836C274.445 28.8093 274.418 27.6879 274.392 26.3529L274.526 26.4864C273.183 26.4864 271.624 26.4864 269.959 26.4864C269.932 26.5131 270.227 26.2194 270.12 26.3529V26.3796V26.433V26.5131V26.6733V26.967C270.102 27.1806 270.093 27.3853 270.093 27.5811C270.093 27.9727 270.093 28.3643 270.093 28.7559C270.093 29.5035 270.093 30.2066 270.093 30.8652L269.959 30.7584C271.302 30.7584 272.43 30.7851 273.236 30.8118C273.595 30.8296 273.908 30.8385 274.177 30.8385C274.392 30.8563 274.508 30.8652 274.526 30.8652C274.526 30.8919 274.096 30.9186 273.317 30.9453C272.511 30.9453 271.356 30.972 269.959 30.9987H269.851V30.8652C269.851 30.2066 269.842 29.5035 269.824 28.7559C269.824 28.3643 269.824 27.9727 269.824 27.5811C269.824 27.3853 269.824 27.1806 269.824 26.967V26.6733V26.5131V26.433V26.3796V26.3529C269.69 26.4864 269.985 26.1927 269.959 26.2194C271.624 26.2194 273.183 26.2194 274.526 26.2461H274.633V26.3529C274.633 27.7413 274.607 28.8894 274.58 29.6637C274.553 30.4647 274.526 30.8919 274.526 30.8652Z" fill="#100E0F"/>
<path d="M283.015 30.4647C283.015 30.5448 281.913 30.6249 280.57 30.6249C279.227 30.6249 278.125 30.5448 278.125 30.4647C278.125 30.4113 279.227 30.3312 280.57 30.3312C281.913 30.3312 283.015 30.4113 283.015 30.4647Z" fill="#100E0F"/>
<path d="M117.382 122.5H41.3496V69.4467H117.382V122.5Z" fill="#FAFAFA"/>
<path d="M117.381 122.5C117.381 122.5 117.381 122.179 117.381 121.538C117.381 120.898 117.372 119.963 117.355 118.735C117.355 116.252 117.355 112.647 117.328 108.028C117.328 98.79 117.301 85.5468 117.274 69.4467L117.381 69.5535C96.2373 69.5535 69.8542 69.5535 41.3487 69.5802L41.483 69.4467C41.483 88.4037 41.483 106.426 41.4562 122.5L41.3487 122.366C63.7824 122.393 82.7771 122.42 96.1567 122.446C102.873 122.446 108.166 122.473 111.793 122.473C113.62 122.473 114.99 122.473 115.957 122.5C116.423 122.5 116.781 122.5 117.032 122.5C116.799 122.517 116.45 122.526 115.984 122.526C115.044 122.526 113.647 122.526 111.847 122.526C108.22 122.553 102.954 122.553 96.2642 122.58C82.8308 122.58 63.8092 122.606 41.3487 122.633H41.2144V122.5C41.2144 106.426 41.2144 88.4037 41.1875 69.4467V69.2865H41.3487C69.8542 69.3132 96.2373 69.3132 117.381 69.3132H117.516V69.4467C117.489 85.5735 117.462 98.8434 117.435 108.108C117.435 112.701 117.435 116.305 117.408 118.762C117.408 119.99 117.408 120.924 117.408 121.565C117.39 122.188 117.381 122.5 117.381 122.5Z" fill="#100E0F"/>
<path d="M117.517 80.1534C117.517 80.2335 100.456 80.2869 79.4197 80.2869C58.3831 80.2869 41.3496 80.2335 41.3496 80.1534C41.3496 80.0733 58.3831 80.0199 79.4197 80.0199C100.456 80.0199 117.517 80.0733 117.517 80.1534Z" fill="#100E0F"/>
<path d="M48.8439 73.1847C48.8976 73.2381 47.9573 74.1726 46.7752 75.2406C45.593 76.3353 44.599 77.163 44.5452 77.1096C44.4915 77.0562 45.405 76.1217 46.5871 75.0537C47.7692 73.959 48.7902 73.1313 48.8439 73.1847Z" fill="#100E0F"/>
<path d="M48.655 77.2965C48.6013 77.3232 47.6878 76.4154 46.5863 75.2406C45.4847 74.0658 44.6519 73.0512 44.7056 72.9978C44.7593 72.9444 45.6997 73.8789 46.8012 75.0537C47.8759 76.2285 48.7087 77.2431 48.655 77.2965Z" fill="#100E0F"/>
<path d="M56.3949 77.1897C56.368 77.1897 56.368 76.7625 56.3411 76.0416C56.3143 75.3207 56.2874 74.3061 56.2605 73.1046L56.3949 73.2114C55.1859 73.2114 53.7619 73.2381 52.2574 73.2381C52.2305 73.2648 52.5261 72.9711 52.3917 73.1046V73.1313V73.158V73.2381V73.3716V73.6653C52.3917 73.8433 52.3917 74.0213 52.3917 74.1993C52.3917 74.5553 52.3917 74.9113 52.3917 75.2673C52.3917 75.9437 52.3917 76.5845 52.3917 77.1897L52.2574 77.0829C53.4664 77.0829 54.4873 77.1096 55.2127 77.1363C55.9381 77.163 56.368 77.1897 56.3949 77.1897C56.4217 77.2164 56.0187 77.2431 55.2933 77.2698C54.5679 77.2698 53.5201 77.2965 52.2574 77.3232H52.1499V77.1897C52.132 76.5845 52.1231 75.9437 52.1231 75.2673C52.1231 74.9113 52.1231 74.5553 52.1231 74.1993C52.1231 74.0213 52.1231 73.8433 52.1231 73.6653V73.3716V73.2381V73.158V73.1313V73.1046C51.9887 73.2114 52.2843 72.9177 52.2574 72.9444C53.7619 72.9711 55.1859 72.9711 56.3949 72.9711H56.5023V73.1046C56.5023 74.3595 56.4755 75.4008 56.4486 76.095C56.4217 76.8159 56.4217 77.2164 56.3949 77.1897Z" fill="#100E0F"/>
<path d="M64.1049 76.8426C64.1049 76.9227 63.1108 76.9761 61.8749 76.9761C60.6659 76.9761 59.6719 76.9227 59.6719 76.8426C59.6719 76.7625 60.6659 76.6824 61.8749 76.6824C63.1108 76.6824 64.1049 76.7625 64.1049 76.8426Z" fill="#100E0F"/>
<path fill-rule="evenodd" clip-rule="evenodd" d="M84.7119 102.902V102.929C84.282 103.623 83.1536 104.958 83.1536 104.958L77.0549 112.994C76.3026 114.009 74.7443 114.009 73.9921 112.994L67.7859 104.824C67.2754 104.103 66.7649 103.623 66.3619 102.929L66.3082 102.902H66.3351C65.0992 100.819 64.5619 98.3094 65.0186 95.6661C65.7709 91.3941 69.1829 87.9231 73.4547 87.1221C80.252 85.8672 86.1895 90.9936 86.1895 97.5351C86.1895 99.4842 85.6522 101.327 84.7119 102.902ZM80.2251 97.4817C80.2251 94.9185 78.1295 92.8092 75.5235 92.8092C72.9174 92.8092 70.8218 94.9185 70.8218 97.4817C70.8218 100.072 72.9174 102.154 75.5235 102.154C78.1295 102.154 80.2251 100.072 80.2251 97.4817Z" fill="#D2D9E0"/>
<path d="M359.585 211.224H261.951V143.085H359.585V211.224Z" fill="#FAFAFA"/>
<path d="M359.584 211.224C359.584 211.224 359.584 210.796 359.557 209.969C359.557 209.168 359.557 207.94 359.557 206.364C359.557 203.214 359.53 198.568 359.53 192.64C359.504 180.812 359.504 163.778 359.477 143.085L359.584 143.219C332.422 143.219 298.57 143.219 261.951 143.245L262.085 143.085C262.085 167.462 262.085 190.585 262.085 211.224L261.951 211.09C290.779 211.117 315.174 211.144 332.341 211.144C340.966 211.17 347.763 211.17 352.411 211.197C354.721 211.197 356.521 211.197 357.73 211.197C358.339 211.197 358.796 211.197 359.101 211.197C359.423 211.215 359.584 211.224 359.584 211.224C359.584 211.224 359.432 211.224 359.127 211.224C358.823 211.224 358.366 211.224 357.757 211.224C356.548 211.224 354.775 211.25 352.465 211.25C347.817 211.25 341.019 211.277 332.422 211.277C315.227 211.304 290.806 211.33 261.951 211.33H261.816V211.224C261.816 190.585 261.816 167.462 261.816 143.085V142.952H261.951C298.57 142.978 332.422 142.978 359.584 142.978H359.692V143.085C359.665 163.804 359.638 180.866 359.638 192.721C359.611 198.648 359.611 203.267 359.611 206.418C359.611 207.993 359.584 209.194 359.584 209.995C359.584 210.814 359.584 211.224 359.584 211.224Z" fill="#100E0F"/>
<path d="M359.719 156.862C359.719 156.916 337.85 156.996 310.849 156.996C283.848 156.996 261.951 156.916 261.951 156.862C261.951 156.782 283.848 156.702 310.849 156.702C337.85 156.702 359.719 156.782 359.719 156.862Z" fill="#100E0F"/>
<path d="M271.597 147.891C271.624 147.971 270.442 149.146 268.91 150.535C267.379 151.923 266.116 153.018 266.062 152.938C266.009 152.884 267.191 151.709 268.722 150.321C270.254 148.933 271.543 147.838 271.597 147.891Z" fill="#100E0F"/>
<path d="M271.355 153.178C271.301 153.231 270.119 152.03 268.722 150.508C267.325 149.013 266.224 147.731 266.277 147.678C266.331 147.624 267.513 148.826 268.937 150.321C270.334 151.843 271.409 153.124 271.355 153.178Z" fill="#100E0F"/>
<path d="M281.267 153.071C281.267 153.044 281.267 152.911 281.24 152.644C281.24 152.359 281.231 152.003 281.213 151.576C281.186 150.641 281.159 149.333 281.159 147.784L281.267 147.918C279.736 147.918 277.909 147.918 275.974 147.918C275.947 147.971 276.243 147.678 276.109 147.784V147.811V147.838V147.891V147.971V148.158V148.505C276.109 148.737 276.109 148.977 276.109 149.226C276.109 149.689 276.109 150.143 276.109 150.588C276.109 151.46 276.109 152.288 276.109 153.071L275.974 152.938C277.532 152.964 278.849 152.991 279.789 152.991C280.219 153.009 280.577 153.027 280.864 153.044C281.133 153.044 281.267 153.044 281.267 153.071C281.285 153.071 281.168 153.08 280.918 153.098C280.631 153.098 280.282 153.107 279.87 153.124C278.93 153.151 277.586 153.178 275.974 153.178H275.867V153.071C275.849 152.288 275.84 151.46 275.84 150.588C275.84 150.143 275.84 149.689 275.84 149.226C275.84 148.977 275.84 148.737 275.84 148.505V148.158V147.971V147.891V147.838V147.811V147.784C275.706 147.918 276.001 147.624 275.974 147.651C277.909 147.651 279.736 147.678 281.267 147.678H281.401V147.784C281.374 149.386 281.348 150.721 281.348 151.656C281.33 152.065 281.312 152.412 281.294 152.697C281.294 152.946 281.285 153.071 281.267 153.071Z" fill="#100E0F"/>
<path d="M291.155 152.59C291.155 152.671 289.892 152.724 288.334 152.724C286.749 152.724 285.486 152.671 285.486 152.59C285.486 152.51 286.749 152.457 288.334 152.457C289.892 152.457 291.155 152.51 291.155 152.59Z" fill="#100E0F"/>
<path d="M348.247 199.502H313.348V164.819H348.247V199.502Z" fill="#D2D9E0"/>
<path d="M299.59 196.245H97.5527V41.8923H299.59V196.245Z" fill="white"/>
<path d="M299.59 196.245C299.59 195.284 299.536 135.155 299.455 41.8923L299.59 41.9991C242.256 41.9991 172.618 41.9991 97.5792 42.0258H97.5523L97.6866 41.8923C97.6866 97.4817 97.6866 150.081 97.6866 196.245L97.5523 196.112C217.405 196.192 298.461 196.245 299.59 196.245C298.461 196.245 217.405 196.298 97.5523 196.352H97.418V196.245C97.418 150.081 97.418 97.4817 97.418 41.8923V41.7321H97.5523H97.5792C172.618 41.7588 242.256 41.7588 299.59 41.7588H299.697V41.8923C299.617 135.155 299.59 195.284 299.59 196.245Z" fill="#100E0F"/>
<path d="M251.65 175.89C251.65 175.89 251.838 175.65 252.187 175.196C252.277 175.089 252.375 174.965 252.483 174.822C252.563 174.689 252.671 174.502 252.778 174.315C252.993 173.941 253.235 173.54 253.423 173.007C253.531 172.74 253.665 172.473 253.772 172.179C253.844 171.876 253.934 171.556 254.041 171.218C254.148 170.897 254.202 170.55 254.256 170.176C254.31 169.803 254.39 169.402 254.417 169.002C254.578 167.373 254.471 165.477 254.148 163.395C253.504 159.176 251.704 154.236 248.963 148.843C246.223 143.476 242.435 137.656 237.814 131.621C233.166 125.587 227.604 119.339 221.183 113.065C214.762 106.79 207.508 100.516 199.367 94.5352C195.284 91.5715 190.985 88.6879 186.444 85.9645C181.931 83.2411 177.149 80.7046 172.125 78.4885C167.074 76.3258 161.781 74.4301 156.166 73.5223C153.372 73.0951 150.497 72.8815 147.676 73.3087C146.252 73.5223 144.855 73.9228 143.565 74.5102C142.276 75.1243 141.094 75.952 140.099 77.02C139.159 78.088 138.461 79.3429 138.004 80.7046C137.547 82.0396 137.332 83.4547 137.278 84.8965C137.171 87.7267 137.708 90.5569 138.434 93.2536C139.992 98.7004 142.491 103.72 145.231 108.446C147.998 113.172 151.088 117.604 154.339 121.742C157.563 125.908 160.948 129.833 164.387 133.517C171.265 140.886 178.384 147.348 185.37 152.955C192.382 158.589 199.26 163.368 205.815 167.266C212.398 171.164 218.604 174.235 224.326 176.317C229.995 178.427 235.154 179.628 239.426 179.788C241.575 179.868 243.482 179.762 245.068 179.414C245.497 179.334 245.847 179.201 246.223 179.121C246.599 179.014 246.948 178.907 247.244 178.774C247.566 178.649 247.88 178.525 248.184 178.4C248.453 178.266 248.721 178.106 248.963 177.973C249.474 177.732 249.85 177.439 250.199 177.172C250.36 177.065 250.548 176.958 250.683 176.825C250.808 176.7 250.924 176.593 251.032 176.504C251.435 176.104 251.65 175.89 251.65 175.89C251.65 175.89 251.462 176.104 251.059 176.531C250.951 176.62 250.835 176.727 250.71 176.851C250.575 176.985 250.414 177.092 250.226 177.225C249.904 177.465 249.501 177.786 248.99 178.053C248.748 178.186 248.48 178.32 248.211 178.48C247.924 178.587 247.62 178.711 247.297 178.854C246.975 178.987 246.626 179.094 246.25 179.201C245.874 179.281 245.497 179.441 245.094 179.495C243.482 179.868 241.575 180.002 239.426 179.922C235.127 179.762 229.968 178.587 224.246 176.504C218.523 174.422 212.29 171.351 205.708 167.48C199.099 163.581 192.221 158.802 185.209 153.168C178.196 147.561 171.05 141.1 164.145 133.731C160.706 130.046 157.321 126.121 154.07 121.956C150.819 117.791 147.73 113.359 144.935 108.606C142.195 103.88 139.67 98.8339 138.111 93.3604C137.386 90.6103 136.822 87.7801 136.929 84.8698C136.983 83.428 137.225 81.9862 137.681 80.5978C138.165 79.2094 138.89 77.9011 139.858 76.7797C140.879 75.685 142.088 74.8306 143.404 74.1898C144.747 73.6024 146.171 73.2019 147.622 72.9883C150.497 72.5611 153.398 72.7747 156.219 73.2019C161.861 74.1097 167.208 76.0054 172.259 78.1948C177.31 80.4109 182.092 82.9474 186.606 85.6975C191.146 88.4209 195.472 91.3045 199.529 94.2949C207.696 100.276 214.95 106.577 221.371 112.851C227.792 119.153 233.354 125.427 238.002 131.488C242.623 137.549 246.384 143.369 249.124 148.763C251.865 154.183 253.638 159.149 254.283 163.368C254.605 165.477 254.713 167.373 254.525 169.002C254.498 169.429 254.39 169.803 254.337 170.176C254.283 170.55 254.229 170.924 254.122 171.244C254.014 171.583 253.916 171.903 253.826 172.205C253.719 172.499 253.611 172.766 253.504 173.033C253.316 173.567 253.02 173.968 252.805 174.341C252.698 174.528 252.617 174.689 252.51 174.849C252.402 174.991 252.304 175.116 252.214 175.223C251.838 175.676 251.65 175.89 251.65 175.89Z" fill="#D2D9E0"/>
<path d="M272.283 126.415C272.283 126.415 272.256 126.121 272.203 125.534C272.203 125.391 272.194 125.231 272.176 125.053C272.149 124.893 272.095 124.706 272.068 124.493C271.961 124.065 271.88 123.585 271.665 123.077C271.585 122.81 271.477 122.517 271.37 122.223C271.226 121.956 271.083 121.662 270.94 121.342C270.779 121.048 270.591 120.728 270.376 120.407C270.161 120.114 269.999 119.767 269.731 119.446C268.764 118.111 267.42 116.776 265.781 115.415C262.477 112.718 257.802 110.208 252.16 108.019C246.518 105.803 239.801 103.96 232.306 102.518C224.783 101.077 216.454 100.115 207.454 99.6616C198.48 99.2344 188.835 99.3679 178.76 100.302C173.736 100.783 168.578 101.45 163.393 102.438C158.18 103.4 152.915 104.654 147.676 106.337C142.463 108.045 137.251 110.155 132.469 113.172C130.078 114.694 127.794 116.456 125.967 118.645C125.054 119.74 124.275 120.941 123.71 122.25C123.146 123.558 122.824 124.973 122.797 126.388C122.824 127.83 123.146 129.245 123.684 130.553C124.275 131.862 125.054 133.063 125.967 134.158C127.794 136.347 130.078 138.11 132.442 139.631C137.224 142.675 142.463 144.758 147.676 146.467C152.915 148.175 158.18 149.43 163.393 150.392C168.578 151.353 173.736 152.047 178.76 152.528C188.835 153.462 198.48 153.569 207.454 153.142C216.454 152.714 224.783 151.727 232.306 150.285C239.801 148.843 246.518 147.027 252.16 144.811C257.802 142.595 262.477 140.112 265.781 137.389C267.42 136.054 268.764 134.719 269.731 133.384C269.999 133.063 270.161 132.716 270.376 132.396C270.591 132.075 270.779 131.782 270.94 131.461C271.083 131.159 271.226 130.865 271.37 130.58C271.477 130.286 271.585 130.019 271.665 129.752C271.88 129.218 271.961 128.738 272.068 128.337C272.095 128.124 272.149 127.937 272.176 127.75C272.194 127.572 272.203 127.412 272.203 127.269C272.256 126.709 272.283 126.415 272.283 126.415C272.283 126.415 272.283 126.709 272.256 127.269C272.238 127.412 272.229 127.572 272.229 127.75C272.203 127.937 272.149 128.124 272.122 128.337C272.014 128.765 271.934 129.245 271.746 129.779C271.638 130.046 271.558 130.313 271.45 130.607C271.307 130.892 271.155 131.194 270.994 131.515C270.859 131.808 270.671 132.129 270.456 132.449C270.241 132.77 270.08 133.117 269.811 133.437C268.844 134.772 267.501 136.134 265.862 137.495C262.557 140.219 257.883 142.755 252.241 144.971C246.572 147.214 239.855 149.057 232.332 150.525C224.837 151.994 216.481 152.955 207.481 153.409C198.48 153.863 188.835 153.756 178.733 152.821C173.682 152.367 168.551 151.673 163.339 150.712C158.1 149.751 152.834 148.469 147.568 146.787C142.356 145.078 137.09 142.969 132.281 139.898C129.89 138.377 127.579 136.614 125.699 134.372C124.785 133.25 123.979 132.022 123.388 130.687C122.824 129.325 122.501 127.883 122.475 126.388C122.501 124.92 122.824 123.478 123.388 122.116C124.006 120.781 124.785 119.553 125.725 118.432C127.579 116.216 129.89 114.453 132.281 112.905C137.09 109.834 142.356 107.725 147.595 106.016C152.834 104.334 158.127 103.079 163.339 102.118C168.551 101.157 173.682 100.463 178.733 99.982C188.835 99.0475 198.48 98.9674 207.481 99.3946C216.454 99.8485 224.81 100.836 232.332 102.305C239.855 103.747 246.572 105.616 252.241 107.832C257.883 110.048 262.557 112.584 265.862 115.308C267.501 116.669 268.844 118.031 269.811 119.393C270.08 119.687 270.241 120.06 270.456 120.381C270.671 120.701 270.859 120.995 270.994 121.315C271.155 121.636 271.307 121.929 271.45 122.196C271.558 122.49 271.638 122.784 271.746 123.051C271.934 123.585 272.014 124.065 272.122 124.493C272.149 124.679 272.203 124.893 272.229 125.053C272.229 125.231 272.238 125.391 272.256 125.534C272.283 126.121 272.283 126.415 272.283 126.415Z" fill="#D2D9E0"/>
<path d="M244.962 64.7914C244.962 64.7914 244.693 64.6312 244.209 64.3375C244.102 64.2485 243.967 64.1595 243.806 64.0705C243.672 63.9637 243.484 63.9103 243.296 63.8035C242.893 63.6166 242.463 63.403 241.926 63.2428C241.657 63.1627 241.361 63.0559 241.066 62.9758C240.761 62.9046 240.439 62.8334 240.099 62.7622C239.776 62.6821 239.4 62.6554 239.024 62.6287C238.648 62.602 238.245 62.5219 237.842 62.5486C236.203 62.4952 234.295 62.7088 232.227 63.1894C228.036 64.1239 223.2 66.2332 217.987 69.3304C212.775 72.4276 207.214 76.5661 201.464 81.5857C195.715 86.6053 189.831 92.5594 183.974 99.3412C178.117 106.15 172.314 113.786 166.887 122.25C164.173 126.495 161.567 130.954 159.176 135.653C156.731 140.326 154.528 145.239 152.648 150.365C150.821 155.518 149.289 160.911 148.752 166.518C148.537 169.322 148.51 172.179 149.155 174.956C149.451 176.344 149.934 177.706 150.606 178.961C151.331 180.189 152.245 181.31 153.373 182.218C154.528 183.072 155.845 183.66 157.215 184.06C158.612 184.381 160.036 184.514 161.46 184.488C164.335 184.381 167.129 183.66 169.789 182.725C175.135 180.83 180.025 178.026 184.565 174.956C189.133 171.885 193.351 168.521 197.3 165.023C201.249 161.526 204.957 157.921 208.423 154.263C215.328 146.921 221.319 139.418 226.504 132.102C231.663 124.786 235.988 117.631 239.454 110.849C242.893 104.067 245.553 97.6858 247.245 91.8919C248.965 86.098 249.824 80.8915 249.69 76.6462C249.636 74.5369 249.395 72.6412 248.938 71.0926C248.83 70.6921 248.669 70.3183 248.562 69.9712C248.427 69.6241 248.32 69.277 248.132 68.9566C247.989 68.654 247.845 68.3603 247.702 68.0755C247.541 67.8085 247.38 67.5682 247.245 67.3279C246.95 66.8473 246.627 66.4735 246.332 66.1531C246.197 65.9929 246.09 65.8327 245.956 65.7259C245.83 65.6013 245.714 65.4856 245.606 65.3788C245.176 65.005 244.962 64.7914 244.962 64.7914C244.962 64.7914 245.176 64.9783 245.633 65.3521C245.741 65.4589 245.857 65.5657 245.982 65.6725C246.117 65.806 246.224 65.9662 246.385 66.1264C246.654 66.4468 247.003 66.8206 247.299 67.3012C247.433 67.5415 247.621 67.7818 247.783 68.0488C247.926 68.3336 248.069 68.6273 248.212 68.9299C248.374 69.2503 248.508 69.5707 248.642 69.9445C248.75 70.2916 248.938 70.6654 249.018 71.0659C249.502 72.6412 249.771 74.5102 249.824 76.6462C249.986 80.9182 249.126 86.1247 247.433 91.9453C245.741 97.7392 243.108 104.147 239.669 110.956C236.203 117.738 231.877 124.92 226.719 132.262C221.561 139.605 215.569 147.108 208.638 154.477C205.172 158.135 201.491 161.766 197.515 165.264C193.566 168.788 189.321 172.152 184.753 175.249C180.186 178.293 175.296 181.15 169.896 183.046C167.209 183.98 164.388 184.728 161.487 184.808C160.036 184.861 158.558 184.728 157.134 184.381C155.71 183.98 154.34 183.366 153.158 182.458C152.003 181.551 151.063 180.376 150.31 179.121C149.612 177.839 149.128 176.451 148.806 175.036C148.188 172.206 148.188 169.322 148.43 166.492C148.94 160.831 150.498 155.411 152.352 150.258C154.206 145.105 156.436 140.192 158.881 135.493C161.299 130.821 163.905 126.335 166.618 122.09C172.072 113.599 177.902 105.963 183.759 99.1543C189.643 92.3725 195.527 86.4184 201.303 81.3988C207.08 76.4059 212.641 72.2674 217.907 69.1702C223.119 66.0997 227.982 63.9904 232.2 63.0559C234.295 62.602 236.203 62.3617 237.842 62.4418C238.272 62.4418 238.648 62.5219 239.024 62.5486C239.4 62.5753 239.776 62.602 240.126 62.6821C240.466 62.7533 240.788 62.8245 241.093 62.8957C241.388 62.9758 241.684 63.0826 241.952 63.1894C242.49 63.3229 242.92 63.5632 243.323 63.7501C243.511 63.8569 243.672 63.937 243.833 64.0171C243.976 64.1239 244.111 64.2218 244.236 64.3108C244.72 64.6312 244.962 64.7914 244.962 64.7914Z" fill="#D2D9E0"/>
<path d="M121.831 157.093C122.905 158.188 122.905 159.923 121.831 161.018C120.729 162.086 118.983 162.086 117.908 161.018C116.807 159.923 116.807 158.188 117.908 157.093C118.983 156.025 120.729 156.025 121.831 157.093Z" fill="#D2D9E0"/>
<path d="M278.624 71.5198C278.624 73.0417 277.361 74.2699 275.83 74.2699C274.298 74.2699 273.062 73.0417 273.062 71.5198C273.062 69.9979 274.298 68.7697 275.83 68.7697C277.361 68.7697 278.624 69.9979 278.624 71.5198Z" fill="#D2D9E0"/>
<path d="M139.375 166.171C139.375 166.572 139.053 166.892 138.677 166.892C138.274 166.892 137.951 166.572 137.951 166.171C137.951 165.798 138.274 165.477 138.677 165.477C139.053 165.477 139.375 165.798 139.375 166.171Z" fill="#D2D9E0"/>
<path d="M154.447 88.7947C154.447 89.1685 154.125 89.4889 153.749 89.4889C153.346 89.4889 153.023 89.1685 153.023 88.7947C153.023 88.3942 153.346 88.1005 153.749 88.1005C154.125 88.1005 154.447 88.3942 154.447 88.7947Z" fill="#D2D9E0"/>
<path d="M264.655 126.415C264.655 126.789 264.332 127.109 263.956 127.109C263.553 127.109 263.258 126.789 263.258 126.415C263.258 126.014 263.553 125.694 263.956 125.694C264.332 125.694 264.655 126.014 264.655 126.415Z" fill="#D2D9E0"/>
<path d="M274.46 93.6808C274.46 94.0813 274.164 94.4017 273.761 94.4017C273.385 94.4017 273.062 94.0813 273.062 93.6808C273.062 93.307 273.385 92.9866 273.761 92.9866C274.164 92.9866 274.46 93.307 274.46 93.6808Z" fill="#D2D9E0"/>
<path d="M245.202 117.844C245.202 142.328 225.375 162.166 200.899 162.166C176.451 162.166 156.623 142.328 156.623 117.844C156.623 93.3871 176.451 73.549 200.899 73.549C225.375 73.549 245.202 93.3871 245.202 117.844Z" fill="#D90452"/>
<g opacity="0.3">
<path d="M184.511 137.602C184.726 135.68 186.257 133.731 185.37 131.969C184.403 130.046 181.555 130.34 179.567 129.485C176.773 128.257 175.913 124.813 174.086 122.383C172.474 120.221 168.659 117.818 165.758 118.485C163.662 118.966 162.937 120.194 162.722 121.742C162.632 121.725 162.543 121.707 162.453 121.689C161.674 121.609 160.761 121.582 160.331 120.941C159.847 120.194 160.331 119.072 159.82 118.352C159.552 117.951 159.095 117.791 158.719 117.524C158.316 117.257 157.993 116.75 158.235 116.349C158.423 116.002 158.907 115.949 159.175 115.628C159.363 115.388 159.363 114.987 159.149 114.747C158.343 113.813 157.456 115.735 157.026 116.189C156.901 116.313 156.775 116.42 156.65 116.509V116.536C156.65 116.607 156.65 116.687 156.65 116.776C156.65 117.043 156.65 117.31 156.623 117.577C156.623 117.826 156.623 118.085 156.623 118.352C156.623 118.565 156.623 118.779 156.623 118.992C156.623 119.224 156.632 119.446 156.65 119.66C157.107 119.82 157.563 120.06 157.993 120.327C158.88 120.808 159.82 121.475 159.874 122.463C159.901 122.624 159.874 122.784 159.981 122.917C160.062 123.051 160.223 123.104 160.384 123.131C161.137 123.291 161.889 123.398 162.641 123.451C162.641 124.332 162.722 125.24 162.695 126.121C162.668 127.403 162.265 128.658 162.399 129.913C162.614 131.702 163.85 133.17 164.925 134.612C169.062 140.085 171.292 146.387 173.71 152.821C174.167 153.195 174.812 153.649 175.269 153.996C175.618 154.236 175.967 154.477 176.343 154.717C176.719 154.984 177.042 155.198 177.418 155.411C177.687 155.598 177.74 155.625 178.036 155.785C177.982 155.732 178.063 155.865 178.009 155.785C177.042 153.649 177.042 150.712 179.137 149.644C179.54 149.457 179.997 149.35 180.319 149.03C181.26 148.149 180.481 146.36 181.421 145.479C181.958 144.998 182.764 145.025 183.409 144.731C184.591 144.197 184.967 142.702 184.887 141.42C184.779 140.139 184.349 138.884 184.511 137.602Z" fill="#100E0F"/>
</g>
<g opacity="0.3">
<path d="M159.364 105.162C160.197 104.468 161.62 104.388 162.265 105.269C162.722 105.883 162.615 106.737 162.507 107.511C162.346 108.544 162.176 109.576 161.997 110.609C161.943 110.902 161.916 111.249 162.05 111.543C162.346 112.184 163.421 112.05 163.85 111.463C164.253 110.876 164.227 110.101 164.092 109.38C163.985 108.66 163.85 107.912 164.119 107.244C164.818 105.589 167.316 105.829 168.767 104.761C169.654 104.094 170.057 102.972 170.594 101.985C171.131 100.997 172.018 100.009 173.119 100.062C173.496 100.089 173.872 100.222 174.248 100.196C175.376 100.169 176.021 98.5669 175.215 97.7926C175.054 97.6057 174.839 97.4989 174.731 97.2853C174.543 96.9115 174.758 96.4309 175.081 96.1906C175.43 95.9503 175.86 95.8702 176.263 95.8168C177.212 95.6566 178.161 95.5053 179.111 95.3629C180.132 95.2027 181.475 94.6687 181.341 93.6274C181.206 92.7463 179.97 92.3458 179.809 91.438C179.755 91.2244 179.782 90.9841 179.675 90.7972C179.406 90.2098 178.52 90.4501 177.982 90.7438C177.74 89.9161 176.558 89.5423 175.887 90.103C175.349 90.5569 175.269 91.3579 175.081 92.0521C174.597 93.7075 173.281 94.9891 171.991 96.1639C171.561 96.5644 171.078 96.9649 170.513 96.9916C169.922 97.0183 169.304 96.4042 169.573 95.8969C169.761 95.5498 170.272 95.3362 170.218 94.9624C170.137 94.4818 169.277 94.5085 169.116 94.0279C169.466 92.6662 171.051 92.0788 172.26 91.3579C173.737 90.4501 174.919 89.0617 175.484 87.433C175.591 87.166 175.672 86.8723 175.537 86.6053C175.349 86.2582 174.866 86.2048 174.463 86.2048C173.522 86.2048 172.367 86.3116 172.018 87.1927C171.83 87.6733 171.964 88.1806 171.857 88.6879C171.534 90.1297 169.546 90.2899 168.31 91.1443C167.827 91.4914 167.477 91.9453 166.94 92.2123C166.376 92.4793 165.704 92.4526 165.086 92.506C164.979 92.506 164.683 92.506 164.576 92.506C164.173 93.04 163.877 93.5473 163.528 94.0813C163.152 94.642 162.803 95.2561 162.48 95.8168C160.895 98.4868 159.686 101.37 158.719 104.361C158.37 105.402 158.074 106.524 157.805 107.592C157.537 108.686 157.349 109.701 157.188 110.796C157.617 109.914 157.805 108.82 157.967 108.019C158.208 106.977 158.558 105.883 159.364 105.162Z" fill="#100E0F"/>
</g>
<g opacity="0.3">
<path d="M196.574 85.2703C197.004 84.7096 196.87 83.9353 197.139 83.2945C197.595 82.2532 198.992 81.8794 199.476 80.8381C199.664 80.4643 199.718 79.957 200.04 79.6633C200.309 79.423 200.712 79.3696 201.007 79.156C201.679 78.6487 201.384 77.5273 200.712 77.1001C198.966 75.9787 195.768 77.2603 194.264 78.3283C192.329 79.7167 190.449 81.3988 187.896 81.2386C187.171 81.1852 186.446 80.9983 185.774 81.2386C185.129 81.5056 184.699 82.4935 185.29 82.894C185.586 83.1343 186.043 83.0542 186.419 83.2411C187.064 83.5348 187.144 84.496 186.822 85.1368C186.499 85.7776 185.908 86.2849 185.532 86.899C185.156 87.4864 184.995 88.2073 185.049 88.9015C185.102 89.3821 185.264 89.8894 185.64 90.2098C186.446 90.8239 187.655 90.2899 188.326 89.5423C189.025 88.768 189.482 87.7801 190.368 87.2728C190.798 87.0058 191.309 86.8723 191.792 86.7655C192.903 86.4985 194.022 86.2315 195.15 85.9645C195.688 85.8577 196.252 85.6975 196.574 85.2703Z" fill="#100E0F"/>
</g>
<g opacity="0.3">
<path d="M245.176 117.524C245.176 116.883 245.158 116.251 245.123 115.628C245.096 115.014 245.069 114.373 245.015 113.759C244.961 113.252 244.908 112.745 244.827 112.264C244.773 111.73 244.693 111.143 244.612 110.609C244.343 109.06 244.075 107.698 243.645 106.203C243.484 105.616 243.188 105.002 243 104.441C242.821 103.871 242.624 103.311 242.409 102.759C242.194 102.332 241.952 101.922 241.684 101.531C239.239 97.6591 235.666 94.6153 232.952 90.904C232.065 89.7025 231.394 88.7146 229.835 88.4743C227.525 88.1272 226.343 89.4355 224.704 87.2461C224.274 86.6587 223.495 86.1247 222.85 86.4718C223.011 86.9346 223.181 87.3974 223.361 87.8602C223.387 87.967 223.414 88.0738 223.414 88.1806C223.361 88.501 222.877 88.6078 222.608 88.4209C222.313 88.234 222.178 87.8869 221.99 87.6199C221.265 86.5786 219.546 86.4451 218.659 87.3529C218.632 86.9257 218.337 86.4985 217.907 86.3116C217.826 87.1927 216.832 87.8068 216.026 87.5398C215.892 87.1126 216.644 87.0325 216.913 86.6854C217.154 86.3383 216.859 85.8577 216.536 85.5907C215.704 84.8431 214.602 84.4426 213.501 84.4159C212.802 84.3892 212.023 84.5227 211.405 84.1489C211.056 83.962 210.814 83.6149 210.438 83.4013C209.659 82.9741 208.691 83.3746 207.912 83.8018C206.838 84.3892 205.709 85.1368 205.333 86.2849C204.957 87.4597 205.817 89.0083 207.026 88.8748C207.321 88.8214 207.644 88.6879 207.966 88.768C208.396 88.8748 208.584 89.3821 208.611 89.836C208.665 90.2632 208.611 90.7438 208.826 91.1443C209.041 91.5181 209.685 91.7317 209.927 91.3579C210.491 90.7972 210.411 89.8894 210.277 89.1151C210.142 88.3408 209.981 87.4864 210.438 86.8456C210.894 86.2048 212.238 86.4184 212.157 87.1927C212.103 87.6466 211.566 87.9937 211.593 88.4476C211.62 88.9282 212.184 89.1685 212.668 89.1685C213.151 89.1418 213.635 88.9816 214.092 89.0884C214.548 89.1952 214.924 89.8093 214.602 90.1564C214.011 90.7972 212.506 89.6758 212.184 90.5035C212.103 90.7171 212.184 90.9307 212.184 91.171C212.13 91.8385 211.244 92.1055 210.572 92.1856C209.874 92.2657 209.148 92.3191 208.53 92.0254C207.912 91.7317 207.482 90.9307 207.832 90.3433C207.482 90.103 206.945 90.3433 206.757 90.7438C206.569 91.1176 206.623 91.5715 206.676 91.9987C205.951 91.8385 205.306 92.4526 204.903 93.0667C204.473 93.6808 204.07 94.375 203.372 94.5886C202.646 94.8022 201.679 94.5085 201.303 95.1493C200.819 96.0037 202.217 97.045 201.733 97.8727C201.437 98.3533 200.766 98.3266 200.255 98.4868C198.831 98.8873 198.348 100.917 199.315 102.011C200.255 103.106 202.19 103.053 203.211 102.011C203.909 101.29 204.205 100.276 204.715 99.4213C205.226 98.5669 206.193 97.7659 207.16 98.0596C207.536 98.1664 207.859 98.4334 208.154 98.6737C208.62 99.0653 209.085 99.4569 209.551 99.8485C209.874 100.116 210.196 100.436 210.169 100.81C210.142 101.13 209.9 101.37 209.793 101.664C209.497 102.519 210.706 103.32 211.486 102.839C212.265 102.385 212.345 101.21 211.808 100.489C211.083 99.4747 209.444 98.9941 209.497 97.7392C210.33 97.0717 211.647 97.7659 212.13 98.7538C212.641 99.715 212.641 100.836 213.071 101.851C213.474 102.839 214.629 103.72 215.596 103.239C215.345 102.385 215.095 101.531 214.844 100.676C215.462 100.196 216.16 101.557 216.913 101.317C217.342 101.184 217.396 100.543 217.208 100.116C217.02 99.6883 216.671 99.3145 216.59 98.8606C216.456 98.0062 217.396 97.2319 218.256 97.3921C219.116 97.5256 219.734 98.3266 219.895 99.181C219.975 99.5014 219.975 99.8752 220.137 100.169C220.459 100.836 221.292 101.05 221.964 101.317C222.662 101.611 223.387 102.278 223.092 102.972C222.958 103.266 222.635 103.56 222.743 103.854C222.85 104.147 223.253 104.254 223.253 104.548C223.253 104.735 223.065 104.868 222.877 104.948C222.42 105.135 221.91 105.189 221.453 105.429C220.996 105.616 220.593 106.07 220.647 106.55C220.701 107.244 221.534 107.565 221.91 108.152C222.286 108.713 222.232 109.434 222.474 110.048C222.716 110.635 223.173 111.089 223.549 111.597C224.704 113.172 224.973 115.174 225.537 117.043C225.805 117.898 226.262 118.832 227.122 118.992C227.606 119.073 228.089 118.886 228.519 118.725C229.782 118.218 231.071 117.711 231.958 116.696C232.845 115.682 233.14 114.026 232.227 113.038C232.119 112.905 231.985 112.771 231.797 112.745C231.555 112.718 231.367 112.878 231.152 112.985C230.507 113.279 229.728 113.038 229.191 112.558C228.68 112.104 228.358 111.463 228.035 110.822C227.695 110.146 227.346 109.452 226.988 108.74C227.417 108.393 228.062 108.553 228.492 108.9C228.922 109.22 229.164 109.728 229.513 110.155C230.561 111.436 232.28 112.024 233.946 112.211C234.349 112.264 234.779 112.291 235.182 112.451C236.418 113.038 236.794 114.854 238.084 115.228C238.46 115.335 238.863 115.335 239.212 115.495C239.722 115.735 239.991 116.322 240.125 116.856C240.421 117.898 240.528 118.966 240.958 119.954C241.388 120.915 242.248 121.796 243.323 121.823C243.994 121.823 244.585 121.529 245.069 121.048C245.123 120.087 245.203 119.099 245.203 118.111C245.203 117.916 245.194 117.72 245.176 117.524Z" fill="#100E0F"/>
</g>
<g opacity="0.3">
<path d="M227.255 135.787C226.61 135.92 226.476 136.294 226.1 136.775C225.643 137.415 224.971 138.056 224.541 138.67C223.843 139.738 224.488 141.367 223.52 142.275C223.332 142.435 223.09 142.568 222.929 142.755C222.526 143.209 222.687 143.957 223.144 144.304C223.601 144.651 224.299 144.624 224.783 144.331C225.294 144.037 225.643 143.503 225.804 142.969C225.938 142.568 225.992 142.115 226.314 141.848C226.852 141.367 227.712 141.714 228.41 141.607C231.446 141.18 230.156 135.226 227.255 135.787Z" fill="#100E0F"/>
</g>
<g opacity="0.3">
<path d="M228.277 127.483C230.05 125.961 230.748 122.57 228.572 121.796C227.739 121.502 226.799 121.742 225.993 121.422C224.918 121.022 224.435 119.82 224.032 118.752C223.029 115.957 222.026 113.154 221.023 110.342C220.405 108.659 219.491 106.71 217.691 106.47C216.697 106.31 215.703 106.79 214.709 106.977C211.243 107.618 205.413 99.2878 202.78 104.895C202.431 103.373 199.932 103.934 199.126 105.295C198.347 106.63 198.186 108.419 196.923 109.38C195.956 110.075 194.532 110.128 193.753 111.036C193.216 111.677 193.108 112.558 193.028 113.412C192.902 115.014 192.777 116.616 192.652 118.218C192.544 119.5 192.437 120.888 193.081 122.009C193.726 123.131 195.419 123.745 196.359 122.891C196.816 122.49 197.004 121.876 197.353 121.395C197.944 120.621 199.019 120.274 199.959 120.514C200.738 120.728 201.356 121.289 201.921 121.903C206.407 126.709 208.019 133.571 208.234 140.139C208.261 141.34 208.261 142.595 208.718 143.717C209.228 145.025 210.33 146.066 210.652 147.455C210.921 148.496 210.679 149.671 211.136 150.659C211.969 152.474 214.763 152.554 216.294 151.246C217.826 149.938 218.336 147.855 218.658 145.879C218.954 143.903 219.169 141.821 220.27 140.165C220.969 139.124 221.99 138.296 222.447 137.175C223.145 135.573 222.635 133.677 223.253 132.075C224.086 129.913 226.53 128.978 228.277 127.483Z" fill="#100E0F"/>
</g>
<path d="M245.149 117.898C245.149 117.898 245.122 117.657 245.095 117.177C245.069 116.696 245.095 116.002 245.015 115.094C244.907 113.252 244.585 110.529 243.752 107.111C243.322 105.429 242.758 103.533 241.952 101.557C241.173 99.5815 240.179 97.4722 238.889 95.3362C236.364 91.0642 232.71 86.5786 227.713 82.7605C225.214 80.8381 222.393 79.1026 219.277 77.6608C216.16 76.2457 212.748 75.0976 209.094 74.4301C205.44 73.7626 201.598 73.4956 197.676 73.7893C195.688 73.9228 193.726 74.2432 191.738 74.6437C189.75 75.0709 187.762 75.6316 185.801 76.3258C178.009 79.1827 170.621 84.496 165.328 91.8118C163.958 93.6274 162.803 95.5765 161.728 97.6057C161.191 98.6203 160.734 99.6883 160.277 100.73C159.848 101.798 159.418 102.892 159.068 103.987C158.343 106.203 157.752 108.473 157.403 110.795C157.027 113.145 156.839 115.495 156.812 117.898C156.839 120.274 157.027 122.65 157.403 124.973C157.752 127.323 158.343 129.592 159.068 131.808C159.418 132.903 159.848 133.971 160.277 135.066C160.734 136.107 161.191 137.175 161.728 138.19C162.803 140.219 163.958 142.168 165.301 143.984C170.621 151.299 178.009 156.613 185.801 159.47C187.762 160.164 189.75 160.724 191.738 161.152C193.726 161.552 195.688 161.873 197.676 162.006C201.598 162.3 205.467 162.033 209.094 161.365C212.748 160.698 216.16 159.55 219.277 158.135C222.393 156.693 225.214 154.957 227.713 153.035C232.71 149.217 236.364 144.731 238.889 140.459C240.179 138.323 241.173 136.214 241.952 134.211C242.758 132.236 243.322 130.367 243.752 128.685C244.585 125.267 244.907 122.544 245.015 120.701C245.095 119.793 245.069 119.072 245.095 118.619C245.122 118.138 245.149 117.898 245.149 117.898C245.149 117.898 245.149 118.138 245.149 118.619C245.122 119.099 245.149 119.793 245.069 120.728C244.988 122.57 244.692 125.294 243.86 128.711C243.43 130.393 242.892 132.289 242.086 134.265C241.307 136.267 240.313 138.377 239.024 140.539C236.498 144.838 232.844 149.35 227.847 153.195C225.349 155.144 222.501 156.88 219.357 158.322C216.241 159.763 212.802 160.911 209.148 161.579C205.467 162.273 201.598 162.54 197.649 162.246C195.661 162.113 193.673 161.793 191.685 161.392C189.67 160.992 187.708 160.404 185.72 159.71C177.875 156.853 170.433 151.513 165.087 144.144C163.743 142.328 162.561 140.352 161.486 138.297C160.949 137.282 160.492 136.214 160.009 135.173C159.579 134.078 159.149 133.01 158.8 131.889C158.074 129.646 157.483 127.376 157.107 125.027C156.758 122.677 156.57 120.301 156.543 117.898C156.57 115.495 156.758 113.092 157.107 110.769C157.483 108.419 158.074 106.123 158.8 103.907C159.149 102.785 159.579 101.717 160.009 100.623C160.492 99.5548 160.949 98.5135 161.486 97.4989C162.561 95.443 163.743 93.4672 165.087 91.6516C170.433 84.2824 177.875 78.9424 185.72 76.0855C187.708 75.3913 189.67 74.8039 191.685 74.4034C193.673 74.0029 195.661 73.6825 197.649 73.549C201.598 73.2553 205.467 73.5223 209.121 74.2165C212.802 74.884 216.214 76.0321 219.357 77.4739C222.501 78.9157 225.348 80.6512 227.82 82.6003C232.844 86.4451 236.498 90.9574 239.024 95.2561C240.313 97.4188 241.307 99.5281 242.086 101.531C242.892 103.506 243.43 105.375 243.86 107.084C244.692 110.502 244.988 113.225 245.069 115.068C245.149 116.002 245.122 116.696 245.149 117.177C245.149 117.657 245.149 117.898 245.149 117.898Z" fill="#100E0F"/>
<path d="M202.591 162.246C202.511 162.246 202.457 142.569 202.457 118.325C202.457 94.0546 202.511 74.3767 202.591 74.3767C202.672 74.3767 202.753 94.0546 202.753 118.325C202.753 142.569 202.672 162.246 202.591 162.246Z" fill="#100E0F"/>
<path d="M205.145 162.006C205.145 162.006 205.216 161.953 205.359 161.846C205.521 161.739 205.736 161.597 206.004 161.419C206.595 161.018 207.428 160.431 208.476 159.63C210.545 158.001 213.419 155.411 216.375 151.727C219.303 148.042 222.312 143.209 224.435 137.335C226.557 131.488 227.847 124.68 228.008 117.497C228.142 110.315 227.417 103.453 225.724 97.4455C224.059 91.438 221.265 86.4451 218.309 82.7872C216.832 80.9449 215.22 79.5031 213.742 78.3817C212.237 77.2603 210.813 76.4593 209.631 75.8986C208.422 75.3379 207.482 74.9641 206.81 74.7505C206.488 74.6259 206.237 74.5369 206.058 74.4835C205.897 74.4301 205.807 74.3945 205.789 74.3767C205.807 74.3767 205.897 74.4034 206.058 74.4568C206.237 74.5102 206.497 74.5903 206.837 74.6971C207.482 74.884 208.476 75.2311 209.685 75.7918C210.867 76.3525 212.318 77.1268 213.822 78.2482C215.354 79.3696 216.966 80.8381 218.444 82.6804C221.479 86.3116 224.274 91.3579 225.993 97.3654C227.686 103.4 228.411 110.315 228.277 117.524C228.116 124.733 226.826 131.568 224.677 137.442C222.527 143.316 219.491 148.149 216.536 151.86C213.554 155.545 210.652 158.108 208.557 159.71C207.482 160.511 206.649 161.098 206.031 161.445C205.745 161.623 205.521 161.766 205.359 161.873C205.216 161.962 205.145 162.006 205.145 162.006Z" fill="#100E0F"/>
<path d="M201.061 162.166C201.061 162.166 200.981 162.122 200.819 162.033C200.658 161.926 200.434 161.784 200.148 161.606C199.53 161.232 198.67 160.618 197.595 159.843C195.419 158.215 192.41 155.678 189.24 152.047C187.655 150.231 186.043 148.122 184.511 145.746C182.953 143.369 181.529 140.673 180.428 137.656C179.299 134.692 178.413 131.461 177.768 128.044C177.15 124.626 176.774 121.048 176.693 117.39C176.532 110.048 177.284 102.999 179.084 96.8848C179.971 93.8143 181.126 91.0108 182.496 88.5277C183.84 86.0179 185.479 83.8819 187.144 82.1464C190.529 78.6754 194.076 76.7797 196.548 75.7117C197.783 75.2044 198.778 74.8573 199.449 74.6437C199.79 74.5369 200.049 74.4568 200.228 74.4034C200.407 74.3678 200.497 74.35 200.497 74.35C200.497 74.35 200.416 74.3767 200.255 74.4301C200.058 74.5013 199.798 74.5903 199.476 74.6971C198.804 74.9107 197.81 75.2845 196.574 75.8185C194.13 76.9132 190.637 78.8089 187.279 82.2799C185.64 84.0154 184.028 86.1247 182.711 88.6345C181.341 91.0909 180.213 93.9211 179.326 96.9649C177.553 103.052 176.827 110.075 176.962 117.39C177.069 121.048 177.419 124.599 178.036 127.99C178.681 131.381 179.568 134.612 180.669 137.576C181.771 140.566 183.168 143.236 184.699 145.612C186.204 147.989 187.816 150.098 189.374 151.913C192.518 155.571 195.527 158.108 197.649 159.737C198.724 160.564 199.584 161.178 200.175 161.552C200.461 161.748 200.685 161.899 200.846 162.006C200.99 162.113 201.061 162.166 201.061 162.166Z" fill="#100E0F"/>
<path d="M245.203 117.123C245.203 117.203 225.483 117.257 201.195 117.257C176.881 117.257 157.188 117.203 157.188 117.123C157.188 117.043 176.881 116.99 201.195 116.99C225.483 116.99 245.203 117.043 245.203 117.123Z" fill="#100E0F"/>
<path d="M238.432 94.5352C238.432 94.6153 221.614 94.6954 200.873 94.6954C180.132 94.6954 163.34 94.6153 163.34 94.5352C163.34 94.4818 180.132 94.4017 200.873 94.4017C221.614 94.4017 238.432 94.4818 238.432 94.5352Z" fill="#100E0F"/>
<path d="M238.915 140.112C238.915 140.192 221.721 140.246 200.496 140.246C179.298 140.246 162.104 140.192 162.104 140.112C162.104 140.032 179.298 139.979 200.496 139.979C221.721 139.979 238.915 140.032 238.915 140.112Z" fill="#100E0F"/>
<path d="M228.196 133.624H172.824C164.979 133.624 158.611 127.323 158.611 119.526C158.611 111.73 164.979 105.402 172.824 105.402H228.196C236.041 105.402 242.382 111.73 242.382 119.526C242.382 127.323 236.041 133.624 228.196 133.624Z" fill="white"/>
<path d="M228.195 133.624C228.195 133.624 228.357 133.624 228.706 133.597C229.028 133.544 229.566 133.571 230.21 133.437C231.5 133.25 233.461 132.796 235.611 131.461C236.175 131.168 236.685 130.74 237.223 130.313C237.491 130.082 237.76 129.841 238.029 129.592C238.297 129.352 238.539 129.058 238.781 128.791C239.802 127.643 240.715 126.228 241.36 124.573C242.005 122.917 242.354 120.995 242.274 118.992C242.193 116.99 241.656 114.881 240.608 112.905C239.533 110.956 237.948 109.14 235.906 107.805C235.369 107.485 234.858 107.164 234.267 106.897C233.73 106.604 233.112 106.417 232.521 106.203C231.312 105.856 230.022 105.562 228.706 105.536C223.386 105.509 217.717 105.536 211.726 105.536C199.771 105.536 186.633 105.536 172.823 105.536C169.411 105.562 166.053 106.844 163.554 109.033C162.318 110.101 161.271 111.41 160.465 112.825C159.685 114.266 159.175 115.815 158.933 117.417C158.718 118.992 158.691 120.594 159.014 122.143C159.309 123.692 159.874 125.16 160.653 126.495C162.184 129.192 164.629 131.221 167.342 132.396C168.713 132.956 170.137 133.304 171.587 133.437C173.011 133.544 174.462 133.49 175.886 133.517C178.716 133.517 181.456 133.517 184.107 133.517C189.427 133.517 194.397 133.517 198.911 133.544C207.938 133.544 215.273 133.571 220.324 133.571C222.849 133.597 224.81 133.597 226.154 133.597C226.816 133.597 227.318 133.606 227.658 133.624C228.016 133.624 228.195 133.624 228.195 133.624C228.195 133.624 228.016 133.633 227.658 133.651C227.318 133.651 226.816 133.651 226.154 133.651C224.81 133.651 222.849 133.677 220.324 133.677C215.273 133.704 207.938 133.704 198.911 133.731C194.397 133.731 189.427 133.731 184.107 133.757C181.456 133.757 178.716 133.757 175.886 133.757C174.462 133.731 173.038 133.811 171.561 133.704C170.083 133.544 168.632 133.197 167.235 132.636C164.468 131.435 161.969 129.379 160.411 126.629C159.632 125.267 159.068 123.772 158.745 122.196C158.423 120.621 158.423 118.966 158.665 117.364C158.906 115.762 159.444 114.16 160.223 112.718C161.029 111.249 162.103 109.914 163.366 108.82C165.919 106.577 169.331 105.269 172.823 105.269C186.633 105.269 199.771 105.269 211.726 105.269C217.717 105.295 223.386 105.269 228.706 105.322C230.049 105.322 231.366 105.616 232.602 105.989C233.193 106.203 233.811 106.417 234.375 106.71C234.966 106.951 235.476 107.298 236.014 107.618C238.082 108.98 239.694 110.822 240.796 112.798C241.844 114.827 242.381 116.963 242.462 118.992C242.515 121.022 242.166 122.944 241.494 124.626C240.85 126.281 239.909 127.723 238.888 128.871C238.62 129.138 238.405 129.432 238.109 129.672C237.841 129.922 237.572 130.162 237.303 130.393C236.739 130.82 236.229 131.248 235.664 131.568C233.488 132.876 231.527 133.33 230.21 133.49C229.566 133.624 229.055 133.597 228.706 133.624C228.366 133.624 228.195 133.624 228.195 133.624Z" fill="#100E0F"/>
<path d="M191.845 112.664L187.466 124.893H183.301L180.991 118.245L178.573 124.893H174.409L170.029 112.664H174.113L176.612 120.06L179.245 112.664H182.898L185.451 120.14L188.057 112.664H191.845Z" fill="#100E0F"/>
<path d="M213.124 112.664L208.772 124.893H204.581L202.27 118.245L199.879 124.893H195.688L191.309 112.664H195.392L197.918 120.06L200.524 112.664H204.205L206.73 120.14L209.363 112.664H213.124Z" fill="#100E0F"/>
<path d="M234.429 112.664L230.05 124.893H225.885L223.575 118.245L221.157 124.893H216.993L212.613 112.664H216.697L219.222 120.06L221.829 112.664H225.509L228.035 120.14L230.641 112.664H234.429Z" fill="#100E0F"/>
<path d="M177.741 146.707L158.559 152.261C157.806 152.474 157.564 153.435 158.129 153.969L171.213 166.545C171.777 167.079 172.69 166.839 172.905 166.145L179.004 148.015C179.273 147.214 178.547 146.467 177.741 146.707Z" fill="#100E0F"/>
<path d="M151.143 167.373L164.683 154.877L170.057 160.084L156.597 172.9L151.143 167.373Z" fill="#100E0F"/>
<path d="M299.59 56.0967C299.59 56.1768 254.588 56.2569 199.108 56.2569C143.602 56.2569 98.627 56.1768 98.627 56.0967C98.627 56.0166 143.602 55.9632 199.108 55.9632C254.588 55.9632 299.59 56.0166 299.59 56.0967Z" fill="#100E0F"/>
<path d="M108.621 47.4192C108.675 47.4726 107.305 48.8076 105.559 50.4096C103.785 52.0116 102.335 53.2665 102.281 53.2131C102.227 53.1597 103.597 51.8247 105.344 50.2227C107.117 48.6207 108.568 47.3658 108.621 47.4192Z" fill="#100E0F"/>
<path d="M108.38 53.4801C108.326 53.5335 106.956 52.1451 105.344 50.4096C103.732 48.6741 102.469 47.2056 102.523 47.1522C102.577 47.0988 103.947 48.4872 105.559 50.2227C107.171 51.9582 108.434 53.4267 108.38 53.4801Z" fill="#100E0F"/>
<path d="M119.797 53.3466C119.77 53.3466 119.77 53.1864 119.77 52.8927C119.752 52.5545 119.735 52.1362 119.717 51.6378C119.717 50.5698 119.69 49.0746 119.663 47.2857L119.797 47.3925C117.997 47.4192 115.902 47.4192 113.699 47.4192C113.645 47.4459 113.94 47.1522 113.833 47.2857V47.3124V47.3391V47.3925V47.4993V47.6862V48.1134C113.833 48.3804 113.833 48.6474 113.833 48.9144C113.833 49.4484 113.833 49.9735 113.833 50.4897C113.806 51.5043 113.806 52.4655 113.806 53.3466L113.699 53.2398C115.499 53.2398 117.003 53.2665 118.078 53.2932C118.579 53.311 118.991 53.3199 119.314 53.3199C119.609 53.3199 119.77 53.3466 119.797 53.3466C119.797 53.3466 119.663 53.3733 119.367 53.3733C119.045 53.3911 118.642 53.4 118.158 53.4C117.084 53.4267 115.552 53.4534 113.699 53.4801H113.564V53.3466C113.564 52.4655 113.564 51.5043 113.564 50.4897C113.546 49.9735 113.537 49.4484 113.537 48.9144C113.537 48.6474 113.537 48.3804 113.537 48.1134V47.6862V47.4993V47.3925V47.3391V47.3124V47.2857C113.43 47.4192 113.725 47.1255 113.699 47.1522C115.902 47.1522 117.997 47.1522 119.797 47.1522H119.905V47.2857C119.905 49.128 119.878 50.6499 119.851 51.7179C119.833 52.2163 119.824 52.6257 119.824 52.9461C119.797 53.2131 119.797 53.3466 119.797 53.3466Z" fill="#100E0F"/>
<path d="M131.163 52.8126C131.163 52.8927 129.712 52.9461 127.885 52.9461C126.085 52.9461 124.607 52.8927 124.607 52.8126C124.607 52.7325 126.085 52.6791 127.885 52.6791C129.712 52.6791 131.163 52.7325 131.163 52.8126Z" fill="#100E0F"/>
</svg>
