<svg width="514" height="288" viewBox="0 0 514 288" fill="none" xmlns="http://www.w3.org/2000/svg">
<rect width="514" height="288" rx="4" fill="#F3F6F9"/>
<path d="M363.669 250.072H146.653C139.866 250.072 134.383 244.567 134.383 237.8V61.745C134.383 54.9781 139.866 49.511 146.653 49.511H363.669C370.456 49.511 375.977 54.9781 375.977 61.745V237.8C375.977 244.567 370.456 250.072 363.669 250.072Z" fill="white"/>
<path fill-rule="evenodd" clip-rule="evenodd" d="M363.669 250.455H146.653C139.675 250.455 134 244.758 134 237.8V61.745C134 54.7869 139.675 49.1287 146.653 49.1287H363.669C370.686 49.1287 376.36 54.7869 376.36 61.745V237.8C376.36 244.758 370.686 250.455 363.669 250.455ZM146.653 49.8933C140.096 49.8933 134.767 55.2074 134.767 61.745V237.8C134.767 244.338 140.096 249.69 146.653 249.69H363.669C370.264 249.69 375.594 244.338 375.594 237.8V61.745C375.594 55.2074 370.264 49.8933 363.669 49.8933H146.653Z" fill="#100E0F"/>
<path d="M177.71 233.824H172.61V198.537H177.71V233.824Z" fill="#D90452"/>
<path d="M168.048 233.824H162.948V224.993H168.048V233.824Z" fill="#D90452"/>
<path d="M186.567 233.824H181.467V216.199H186.567V233.824Z" fill="#D90452"/>
<path d="M195.232 233.824H190.133V205.915H195.232V233.824Z" fill="#D90452"/>
<path d="M205.278 233.824H200.14V226.369H205.278V233.824Z" fill="#D90452"/>
<path fill-rule="evenodd" clip-rule="evenodd" d="M360.334 225.604C360.129 225.4 360.027 225.12 360.027 224.763C360.027 224.406 360.129 224.126 360.334 223.922C360.513 223.693 360.755 223.578 361.062 223.578C361.369 223.578 361.624 223.693 361.829 223.922C362.008 224.126 362.097 224.406 362.097 224.763C362.097 225.12 362.008 225.4 361.829 225.604C361.624 225.834 361.369 225.948 361.062 225.948C360.755 225.948 360.513 225.834 360.334 225.604ZM361.446 225.337C361.548 225.184 361.599 224.993 361.599 224.763C361.599 224.534 361.548 224.355 361.446 224.228C361.369 224.075 361.241 223.999 361.062 223.999C360.909 223.999 360.781 224.075 360.679 224.228C360.576 224.355 360.525 224.534 360.525 224.763C360.525 224.993 360.576 225.171 360.679 225.298C360.781 225.451 360.909 225.528 361.062 225.528C361.241 225.528 361.369 225.464 361.446 225.337ZM363.669 223.616H364.283L361.33 227.936H360.717L363.669 223.616ZM363.171 227.631C362.966 227.427 362.864 227.146 362.864 226.789C362.864 226.433 362.966 226.14 363.171 225.91C363.35 225.706 363.593 225.604 363.899 225.604C364.206 225.604 364.462 225.706 364.666 225.91C364.845 226.14 364.935 226.433 364.935 226.789C364.935 227.146 364.845 227.427 364.666 227.631C364.462 227.86 364.206 227.975 363.899 227.975C363.593 227.975 363.35 227.86 363.171 227.631ZM364.283 227.325C364.385 227.197 364.436 227.019 364.436 226.789C364.436 226.56 364.385 226.369 364.283 226.216C364.206 226.089 364.078 226.025 363.899 226.025C363.746 226.025 363.618 226.089 363.516 226.216C363.414 226.369 363.363 226.56 363.363 226.789C363.363 227.019 363.414 227.197 363.516 227.325C363.618 227.478 363.746 227.554 363.899 227.554C364.078 227.554 364.206 227.478 364.283 227.325Z" fill="#740646"/>
<path d="M335.181 204.042H352.013C352.703 204.042 353.087 203.201 352.588 202.704L344.153 194.14C343.846 193.834 343.348 193.834 343.041 194.14L334.606 202.704C334.107 203.201 334.491 204.042 335.181 204.042Z" fill="#EBEBEB"/>
<path d="M349.252 219.525H338.44V202.436H349.252V219.525Z" fill="#EBEBEB"/>
<path d="M345.61 233.862V237.341H334.913V234.589L339.744 230.116C340.179 229.733 340.46 229.402 340.587 229.122C340.715 228.841 340.779 228.574 340.779 228.319C340.779 227.987 340.677 227.72 340.472 227.516C340.242 227.337 339.923 227.248 339.514 227.248C339.105 227.248 338.721 227.363 338.364 227.592C338.006 227.796 337.725 228.102 337.52 228.51L334.146 226.789C334.657 225.846 335.398 225.095 336.37 224.534C337.341 223.999 338.53 223.731 339.936 223.731C340.984 223.731 341.917 223.897 342.735 224.228C343.553 224.585 344.192 225.069 344.652 225.681C345.112 226.318 345.342 227.057 345.342 227.898C345.342 228.637 345.176 229.325 344.843 229.963C344.537 230.6 343.936 231.326 343.041 232.142L341.124 233.862H345.61Z" fill="#740646"/>
<path fill-rule="evenodd" clip-rule="evenodd" d="M349.445 236.806C348.55 236.271 347.847 235.481 347.336 234.436C346.799 233.391 346.531 232.142 346.531 230.689C346.531 229.236 346.799 227.987 347.336 226.942C347.847 225.897 348.55 225.095 349.445 224.534C350.365 223.999 351.413 223.731 352.589 223.731C353.79 223.731 354.838 223.999 355.733 224.534C356.653 225.095 357.369 225.897 357.88 226.942C358.391 227.987 358.647 229.236 358.647 230.689C358.647 232.142 358.391 233.391 357.88 234.436C357.369 235.481 356.653 236.271 355.733 236.806C354.838 237.367 353.79 237.647 352.589 237.647C351.413 237.647 350.365 237.367 349.445 236.806ZM354.123 230.689C354.123 228.446 353.611 227.325 352.589 227.325C351.566 227.325 351.055 228.446 351.055 230.689C351.055 232.932 351.566 234.053 352.589 234.053C353.611 234.053 354.123 232.932 354.123 230.689Z" fill="#740646"/>
<path fill-rule="evenodd" clip-rule="evenodd" d="M184.075 129.453C183.896 129.223 183.806 128.93 183.806 128.573C183.806 128.216 183.896 127.936 184.075 127.732C184.279 127.503 184.535 127.388 184.841 127.388C185.148 127.388 185.391 127.503 185.57 127.732C185.774 127.936 185.877 128.216 185.877 128.573C185.877 128.93 185.774 129.223 185.57 129.453C185.391 129.656 185.148 129.758 184.841 129.758C184.535 129.758 184.279 129.656 184.075 129.453ZM185.225 129.147C185.327 129.019 185.378 128.828 185.378 128.573C185.378 128.344 185.327 128.165 185.225 128.038C185.123 127.911 184.995 127.847 184.841 127.847C184.662 127.847 184.535 127.911 184.458 128.038C184.356 128.165 184.305 128.344 184.305 128.573C184.305 128.803 184.356 128.994 184.458 129.147C184.535 129.274 184.662 129.338 184.841 129.338C184.995 129.338 185.123 129.274 185.225 129.147ZM187.41 127.426H188.024L185.071 131.746H184.458L187.41 127.426ZM186.912 131.441C186.733 131.237 186.643 130.956 186.643 130.599C186.643 130.243 186.733 129.962 186.912 129.758C187.116 129.529 187.372 129.414 187.679 129.414C187.985 129.414 188.228 129.529 188.407 129.758C188.612 129.962 188.714 130.243 188.714 130.599C188.714 130.956 188.612 131.237 188.407 131.441C188.228 131.67 187.985 131.785 187.679 131.785C187.372 131.785 187.116 131.67 186.912 131.441ZM188.062 131.135C188.139 131.007 188.177 130.829 188.177 130.599C188.177 130.37 188.139 130.192 188.062 130.064C187.96 129.911 187.832 129.835 187.679 129.835C187.5 129.835 187.359 129.911 187.257 130.064C187.18 130.192 187.142 130.37 187.142 130.599C187.142 130.829 187.18 131.02 187.257 131.173C187.359 131.3 187.5 131.364 187.679 131.364C187.832 131.364 187.96 131.288 188.062 131.135Z" fill="#740646"/>
<path d="M142.627 128.42H158.04C158.692 128.42 158.999 127.656 158.577 127.197L150.87 119.321C150.564 119.054 150.104 119.054 149.835 119.321L142.128 127.197C141.668 127.656 142.013 128.42 142.627 128.42Z" fill="#EBEBEB"/>
<path d="M155.51 142.566H145.618V126.929H155.51V142.566Z" fill="#EBEBEB"/>
<path d="M168.892 128V141.342H164.406V131.402H162.105V128H168.892Z" fill="#740646"/>
<path fill-rule="evenodd" clip-rule="evenodd" d="M173.455 140.807C172.534 140.247 171.819 139.444 171.307 138.399C170.796 137.354 170.541 136.105 170.541 134.652C170.541 133.225 170.796 131.989 171.307 130.944C171.819 129.899 172.534 129.096 173.455 128.535C174.375 127.974 175.423 127.694 176.599 127.694C177.774 127.694 178.822 127.974 179.743 128.535C180.637 129.096 181.353 129.899 181.89 130.944C182.401 131.989 182.657 133.225 182.657 134.652C182.657 136.105 182.401 137.354 181.89 138.399C181.353 139.444 180.637 140.247 179.743 140.807C178.822 141.368 177.774 141.648 176.599 141.648C175.423 141.648 174.375 141.368 173.455 140.807ZM178.132 134.652C178.132 132.409 177.621 131.288 176.599 131.288C175.576 131.288 175.065 132.409 175.065 134.652C175.065 136.92 175.576 138.055 176.599 138.055C177.621 138.055 178.132 136.92 178.132 134.652Z" fill="#740646"/>
<path d="M208.115 234.015C208.115 234.092 197.725 234.206 184.88 234.206C172.074 234.206 161.683 234.092 161.683 234.015C161.683 233.9 172.074 233.786 184.88 233.786C197.725 233.786 208.115 233.9 208.115 234.015Z" fill="#100E0F"/>
<path d="M397.142 80.2488H294.231C290.781 80.2488 288.02 77.4579 288.02 74.0171V19.4228C288.02 15.982 290.781 13.2294 294.231 13.2294H397.142C400.592 13.2294 403.391 15.982 403.391 19.4228V74.0171C403.391 77.4579 400.592 80.2488 397.142 80.2488Z" fill="white"/>
<path d="M397.142 80.2488C397.142 80.2106 397.487 80.2488 398.062 80.1341C398.675 80.0577 399.557 79.8283 400.554 79.1783C401.513 78.5667 402.586 77.4579 403.085 75.814C403.353 74.9729 403.353 74.0554 403.315 73.0613C403.315 72.0673 403.315 71.0096 403.315 69.8881C403.315 60.942 403.276 48.0199 403.276 32.0392C403.251 28.0376 403.238 23.8449 403.238 19.4611C403.276 17.3201 402.049 15.1792 400.094 14.1087C399.097 13.6117 397.985 13.3441 396.835 13.3823C395.685 13.3823 394.522 13.3823 393.346 13.3823C383.914 13.3823 373.83 13.3823 363.247 13.3823C342.044 13.3823 318.732 13.4205 294.232 13.4205C292.775 13.4205 291.318 13.9558 290.206 14.9498C289.094 15.9438 288.403 17.3201 288.25 18.7729C288.173 21.755 288.212 24.7752 288.212 27.719C288.212 33.6831 288.212 39.5325 288.212 45.2672C288.212 51.0274 288.212 56.6729 288.212 62.2037C288.186 64.9818 288.173 67.7217 288.173 70.4234C288.212 71.7997 288.173 73.1378 288.212 74.4759C288.288 75.7375 288.825 76.9992 289.669 77.9549C290.512 78.949 291.663 79.6371 292.89 79.9047C293.541 80.0577 294.155 80.0577 294.807 80.0577C295.446 80.0577 296.097 80.0577 296.762 80.0577C299.344 80.0577 301.887 80.0577 304.392 80.0577C309.428 80.0577 314.297 80.0577 319 80.0577C328.433 80.0959 337.213 80.0959 345.226 80.0959C361.292 80.1341 374.251 80.1341 383.224 80.1724C387.71 80.1724 391.199 80.2106 393.576 80.2106C394.752 80.2106 395.646 80.2106 396.26 80.2106C396.835 80.2106 397.142 80.2488 397.142 80.2488C397.142 80.2488 396.835 80.2488 396.26 80.2488C395.646 80.2743 394.752 80.2871 393.576 80.2871C391.199 80.2871 387.71 80.2871 383.224 80.3253C374.251 80.3253 361.292 80.3635 345.226 80.3635C337.213 80.4017 328.433 80.4018 319 80.4018C314.297 80.4018 309.428 80.4018 304.392 80.4018C301.887 80.4018 299.344 80.4018 296.762 80.4018C296.097 80.4272 295.446 80.44 294.807 80.44C294.155 80.44 293.465 80.4017 292.813 80.2488C291.509 79.9812 290.282 79.2548 289.4 78.2226C288.48 77.1903 287.943 75.8522 287.828 74.4759C287.79 73.1378 287.828 71.7997 287.828 70.4234C287.828 67.7217 287.828 64.9818 287.828 62.2037C287.803 56.6729 287.79 51.0274 287.79 45.2672C287.79 39.5325 287.79 33.6831 287.79 27.719C287.828 24.737 287.752 21.7932 287.828 18.7347C288.02 17.1672 288.787 15.7144 289.937 14.6822C291.087 13.6117 292.659 13 294.232 13C318.732 13 342.044 13.0382 363.247 13.0382C373.83 13.0382 383.914 13.0382 393.346 13.0382C394.522 13.0382 395.685 13.0382 396.835 13.0382C398.024 13 399.212 13.2676 400.247 13.8411C402.318 14.9498 403.583 17.2437 403.545 19.4611C403.545 23.8449 403.545 28.0376 403.545 32.0392C403.506 48.0199 403.506 60.942 403.468 69.8881C403.468 71.0096 403.468 72.0673 403.468 73.0613C403.468 74.0554 403.468 75.0111 403.2 75.8522C402.663 77.5344 401.551 78.6431 400.592 79.2548C399.557 79.9047 398.675 80.0959 398.062 80.1724C397.755 80.2488 397.525 80.2488 397.372 80.2488C397.218 80.2488 397.142 80.2488 397.142 80.2488Z" fill="#263238"/>
<path d="M306.079 67.5943H302.782V55.6279H306.079V67.5943Z" fill="#D90452"/>
<path d="M317.889 67.5943H314.553V45.9171H317.889V67.5943Z" fill="#D90452"/>
<path d="M312.367 67.5942H308.265V31.6951H312.367V67.5942Z" fill="#100E0F"/>
<path d="M329.66 67.5942H326.362V59.4127H329.66V67.5942Z" fill="#D90452"/>
<path d="M323.755 67.5942H320.458V59.4127H323.755V67.5942Z" fill="#100E0F"/>
<path d="M341.469 67.5942H338.133V54.175H341.469V67.5942Z" fill="#D90452"/>
<path d="M335.565 67.5942H332.267V42.5145H335.565V67.5942Z" fill="#100E0F"/>
<path d="M359.145 67.5942H355.847V42.5145H359.145V67.5942Z" fill="#100E0F"/>
<path d="M347.373 67.5943H344.038V29.8218H347.373V67.5943Z" fill="#100E0F"/>
<path d="M353.24 67.5942H349.943V58.2275H353.24V67.5942Z" fill="#D90452"/>
<path d="M382.725 67.5943H379.428V60.7126H382.725V67.5943Z" fill="#100E0F"/>
<path d="M370.954 67.5942H367.618V30.5099H370.954V67.5942Z" fill="#100E0F"/>
<path d="M376.82 67.5942H373.523V38.1179H376.82V67.5942Z" fill="#D90452"/>
<path d="M365.049 67.5943H361.713V37.0475H365.049V67.5943Z" fill="#D90452"/>
<path d="M388.63 67.5942H385.333V42.5145H388.63V67.5942Z" fill="#D90452"/>
<path d="M310.182 72.5261H303.319C303.088 72.5261 302.858 72.2967 302.858 72.0291V71.6086C302.858 71.3409 303.088 71.1498 303.319 71.1498H310.182C310.45 71.1498 310.642 71.3409 310.642 71.6086V72.0291C310.642 72.2967 310.45 72.5261 310.182 72.5261Z" fill="#E0E0E0"/>
<path d="M332.727 72.5261H325.864C325.596 72.5261 325.404 72.2967 325.404 72.0291V71.6086C325.404 71.3409 325.596 71.1498 325.864 71.1498H332.727C332.957 71.1498 333.187 71.3409 333.187 71.6086V72.0291C333.187 72.2967 332.957 72.5261 332.727 72.5261Z" fill="#E0E0E0"/>
<path d="M352.588 72.5261H345.763C345.495 72.5261 345.303 72.2967 345.303 72.0291V71.6086C345.303 71.3409 345.495 71.1498 345.763 71.1498H352.588C352.857 71.1498 353.087 71.3409 353.087 71.6086V72.0291C353.087 72.2967 352.857 72.5261 352.588 72.5261Z" fill="#E0E0E0"/>
<path d="M373.101 72.5261H366.238C366.008 72.5261 365.778 72.2967 365.778 72.0291V71.6086C365.778 71.3409 366.008 71.1498 366.238 71.1498H373.101C373.37 71.1498 373.561 71.3409 373.561 71.6086V72.0291C373.561 72.2967 373.37 72.5261 373.101 72.5261Z" fill="#E0E0E0"/>
<path d="M390.47 72.5261H383.607C383.338 72.5261 383.146 72.2967 383.146 72.0291V71.6086C383.146 71.3409 383.338 71.1498 383.607 71.1498H390.47C390.7 71.1498 390.93 71.3409 390.93 71.6086V72.0291C390.93 72.2967 390.7 72.5261 390.47 72.5261Z" fill="#E0E0E0"/>
<path d="M392.847 67.5942C392.847 67.7089 371.568 67.7854 345.303 67.7854C319.001 67.7854 297.721 67.7089 297.721 67.5942C297.721 67.4795 319.001 67.4031 345.303 67.4031C371.568 67.4031 392.847 67.4795 392.847 67.5942Z" fill="#263238"/>
<path d="M300.826 22.6725C300.826 23.7047 300.021 24.5076 299.024 24.5076C298.027 24.5076 297.222 23.7047 297.222 22.6725C297.222 21.6785 298.027 20.8756 299.024 20.8756C300.021 20.8756 300.826 21.6785 300.826 22.6725Z" fill="#E0E0E0"/>
<path d="M305.772 22.6725C305.772 23.7047 304.967 24.5076 303.97 24.5076C302.973 24.5076 302.13 23.7047 302.13 22.6725C302.13 21.6785 302.973 20.8756 303.97 20.8756C304.967 20.8756 305.772 21.6785 305.772 22.6725Z" fill="#E0E0E0"/>
<path d="M310.68 22.6725C310.68 23.7047 309.837 24.5076 308.84 24.5076C307.843 24.5076 307.038 23.7047 307.038 22.6725C307.038 21.6785 307.843 20.8756 308.84 20.8756C309.837 20.8756 310.68 21.6785 310.68 22.6725Z" fill="#E0E0E0"/>
<path d="M210.876 168.793L222.187 192.267L228.092 190.737L265.859 223.005L277.016 202.054C277.016 202.054 254.509 191.731 250.483 183.473C246.457 175.215 250.253 175.483 250.253 175.483L240.898 161.032L210.876 168.793Z" fill="#263238"/>
<path d="M225.484 137.481C225.484 137.481 237.332 134.002 256.311 120.621C270.153 110.834 280.965 99.1734 285.796 93.6298C288.135 90.9537 292.123 90.5331 294.845 92.7888C299.024 96.306 304.737 105.099 311.026 127.465C322.068 166.843 314.131 174.336 310.796 173.763C307.498 173.151 285.643 165.963 271.265 165.352C256.887 164.74 234.955 169.022 234.955 169.022L225.484 137.481Z" fill="#EFF3F6"/>
<path d="M225.484 137.481C225.484 137.481 225.535 137.647 225.638 137.978C225.74 138.386 225.881 138.921 226.06 139.584C226.481 140.998 227.095 143.063 227.862 145.739C229.472 151.206 231.811 159.12 234.725 169.098L234.801 169.289L235.032 169.251C241.243 168.143 248.375 167.034 256.273 166.269C260.184 165.887 264.325 165.619 268.619 165.619C272.914 165.657 277.323 166.193 281.847 166.996C290.934 168.601 300.328 171.354 310.259 174.03L310.757 174.145H311.294C311.677 174.183 312.022 173.992 312.368 173.915C312.674 173.724 313.019 173.571 313.288 173.342L314.055 172.616C314.898 171.545 315.55 170.322 315.895 169.022C316.7 166.46 317.007 163.746 317.045 161.032C317.16 155.603 316.432 150.136 315.473 144.707C315.243 143.483 315.013 142.273 314.783 141.075C314.515 139.89 314.246 138.704 313.978 137.519C313.441 135.111 312.866 132.779 312.214 130.485C311.026 125.821 309.645 121.309 308.188 116.913C306.693 112.516 305.083 108.234 303.127 104.22C301.172 100.206 298.986 96.306 295.88 93.2475C295.114 92.5211 294.232 91.7947 293.197 91.4123C292.161 91.03 291.049 90.8771 289.976 91.03C288.902 91.1447 287.829 91.527 286.947 92.1387C286.065 92.7122 285.375 93.5915 284.723 94.3179C282.077 97.3382 279.393 100.167 276.748 102.805C271.418 108.119 266.127 112.745 261.104 116.683C250.944 124.482 242.01 129.758 235.645 132.97C232.463 134.614 229.894 135.722 228.168 136.411C227.286 136.793 226.635 137.022 226.175 137.213C225.753 137.366 225.484 137.481 225.484 137.481C225.523 137.481 225.753 137.443 226.213 137.29C226.673 137.137 227.363 136.908 228.245 136.563C230.009 135.914 232.578 134.843 235.76 133.276C242.202 130.102 251.212 124.903 261.449 117.142C266.51 113.242 271.84 108.616 277.208 103.302C279.892 100.626 282.576 97.797 285.26 94.7767C285.95 94.0121 286.525 93.2475 287.368 92.7504C288.135 92.177 289.094 91.8711 290.052 91.7564C292.008 91.4888 293.963 92.2917 295.382 93.7827C298.334 96.7265 300.52 100.55 302.437 104.526C304.354 108.54 305.964 112.784 307.421 117.18C308.917 121.539 310.259 126.05 311.447 130.676C312.061 132.97 312.674 135.302 313.173 137.672C313.441 138.857 313.748 140.043 313.978 141.228C314.208 142.426 314.438 143.624 314.668 144.821C315.627 150.25 316.355 155.679 316.24 161.032C316.24 163.669 315.895 166.307 315.128 168.754C314.821 170.016 314.17 171.125 313.441 172.119L312.789 172.73C312.559 172.883 312.329 173.036 312.061 173.189C311.524 173.342 311.064 173.495 310.412 173.266C300.597 170.589 291.088 167.875 282.001 166.269C277.438 165.466 272.952 164.931 268.619 164.931C264.287 164.931 260.146 165.237 256.196 165.619C248.298 166.422 241.166 167.569 234.917 168.754L235.223 168.945C232.194 159.082 229.779 151.244 228.13 145.815C227.286 143.139 226.635 141.075 226.213 139.622C225.983 138.959 225.804 138.424 225.676 138.016C225.574 137.659 225.51 137.481 225.484 137.481Z" fill="#263238"/>
<path d="M194.581 170.857L202.287 169.672L197.84 159.502L191.36 162.943L194.581 170.857Z" fill="#740646"/>
<path d="M196.804 158.47L200.255 166.384L202.134 170.704C204.703 176.668 211.451 179.497 217.471 177.242L248.72 168.678L235.99 129.223L204.396 140.884C198.3 143.598 194.197 150.786 196.804 158.47Z" fill="#D2D9E0"/>
<g opacity="0.3">
<path d="M308.418 129.567C314.17 150.594 315.052 168.678 310.412 169.939C305.773 171.239 297.338 155.259 291.625 134.231C285.873 113.242 284.991 95.1591 289.631 93.8592C294.27 92.5594 302.705 108.578 308.418 129.567Z" fill="black"/>
</g>
<path d="M288.672 121.921C288.672 121.921 299.829 117.142 303.242 131.899C306.654 146.657 295.612 147.23 295.612 147.23C292.314 139.699 289.976 131.288 288.672 121.921Z" fill="white"/>
<path d="M229.779 144.592C229.817 144.783 224.449 146.771 217.778 148.989C211.106 151.244 205.623 152.888 205.547 152.659C205.508 152.468 210.876 150.48 217.548 148.262C224.219 146.007 229.702 144.363 229.779 144.592Z" fill="#263238"/>
<path d="M231.159 148.912C231.198 149.142 225.83 151.091 219.158 153.347C212.487 155.564 207.004 157.208 206.927 157.017C206.889 156.826 212.257 154.838 218.928 152.621C225.6 150.365 231.082 148.721 231.159 148.912Z" fill="#263238"/>
<path d="M232.539 153.27C232.577 153.462 227.21 155.45 220.538 157.705C213.866 159.923 208.384 161.567 208.307 161.376C208.269 161.146 213.636 159.196 220.308 156.941C226.979 154.723 232.462 153.079 232.539 153.27Z" fill="#263238"/>
<path d="M233.919 157.629C233.958 157.82 228.59 159.808 221.918 162.026C215.247 164.281 209.764 165.925 209.687 165.696C209.649 165.505 215.017 163.517 221.688 161.299C228.36 159.043 233.843 157.4 233.919 157.629Z" fill="#263238"/>
<path d="M328.279 140.769C328.241 140.922 334.683 143.292 342.696 146.083C350.671 148.874 357.189 151.015 357.266 150.862C357.304 150.747 350.863 148.377 342.849 145.586C334.874 142.795 328.356 140.654 328.279 140.769Z" fill="#263238"/>
<path d="M325.711 125.706C325.711 125.82 335.986 124.406 348.677 122.494C361.33 120.583 371.568 118.939 371.568 118.786C371.529 118.671 361.254 120.086 348.601 121.997C335.91 123.909 325.672 125.553 325.711 125.706Z" fill="#263238"/>
<path d="M323.41 110.222C323.487 110.337 327.091 107.125 331.462 103.035C335.795 98.9821 339.245 95.6178 339.169 95.5031C339.054 95.4266 335.449 98.5998 331.117 102.691C326.746 106.743 323.295 110.107 323.41 110.222Z" fill="#263238"/>
<path d="M287.445 96.1531C287.407 96.1531 287.368 96.4207 287.33 96.9177C287.279 97.5039 287.215 98.2303 287.138 99.0969C287.1 100.053 287.023 101.238 287.023 102.576C287.023 103.952 286.947 105.482 287.023 107.202C287.1 110.605 287.407 114.695 287.944 119.168C288.557 123.641 289.477 128.535 290.781 133.582C292.123 138.628 293.733 143.33 295.382 147.536C297.107 151.741 298.833 155.412 300.443 158.432C301.21 159.961 302.015 161.261 302.705 162.446C303.357 163.631 303.971 164.587 304.507 165.39C304.993 166.104 305.402 166.715 305.734 167.225C306.003 167.646 306.156 167.837 306.194 167.837C306.233 167.798 306.118 167.569 305.849 167.11C305.568 166.601 305.21 165.976 304.776 165.237C304.277 164.396 303.702 163.402 303.089 162.217C302.437 161.032 301.67 159.693 300.942 158.164C299.408 155.144 297.721 151.436 296.072 147.268C294.462 143.101 292.89 138.399 291.548 133.39C290.244 128.382 289.324 123.527 288.672 119.054C288.097 114.619 287.713 110.566 287.598 107.164C287.483 105.482 287.483 103.952 287.483 102.576C287.445 101.238 287.445 100.053 287.483 99.0969C287.483 98.2303 287.483 97.5039 287.483 96.9177C287.483 96.4207 287.445 96.1531 287.445 96.1531Z" fill="#263238"/>
<path d="M390.853 193.91C375.9 193.91 363.746 181.829 363.746 166.881C363.746 151.932 375.9 139.851 390.853 139.851C405.845 139.851 418 151.932 418 166.881C418 181.829 405.845 193.91 390.853 193.91Z" fill="#100E0F"/>
<path fill-rule="evenodd" clip-rule="evenodd" d="M403.813 166.613C403.813 170.13 403.775 170.551 403.736 171.927C403.66 173.304 403.43 174.259 403.123 175.062C402.778 175.903 402.356 176.63 401.628 177.356C400.899 178.082 400.209 178.503 399.327 178.847C398.522 179.153 397.563 179.382 396.221 179.459C394.841 179.497 394.381 179.535 390.853 179.535C387.364 179.535 386.904 179.497 385.524 179.459C384.144 179.382 383.223 179.153 382.418 178.847C381.536 178.503 380.846 178.082 380.118 177.356C379.389 176.63 378.929 175.903 378.622 175.062C378.316 174.259 378.085 173.304 378.009 171.927C377.97 170.551 377.932 170.13 377.932 166.613C377.932 163.134 377.97 162.675 378.009 161.299C378.085 159.923 378.316 159.005 378.622 158.164C378.929 157.323 379.389 156.596 380.118 155.908C380.846 155.182 381.536 154.723 382.418 154.417C383.223 154.073 384.144 153.882 385.524 153.806C386.904 153.729 387.364 153.729 390.853 153.729C394.381 153.729 394.841 153.729 396.221 153.806C397.563 153.882 398.522 154.073 399.327 154.417C400.209 154.723 400.899 155.182 401.628 155.908C402.356 156.596 402.778 157.323 403.123 158.164C403.43 159.005 403.66 159.923 403.736 161.299C403.775 162.675 403.813 163.134 403.813 166.613ZM401.474 166.613C401.474 163.172 401.474 162.79 401.397 161.414C401.359 160.152 401.129 159.464 400.937 159.005C400.707 158.432 400.439 157.973 399.979 157.552C399.519 157.093 399.097 156.788 398.483 156.558C398.062 156.405 397.372 156.176 396.106 156.138L390.853 156.061C387.403 156.061 387.019 156.061 385.639 156.138C384.374 156.176 383.683 156.405 383.262 156.558C382.648 156.788 382.226 157.093 381.766 157.552C381.306 157.973 381.038 158.432 380.808 159.005C380.616 159.464 380.386 160.152 380.348 161.414C380.271 162.79 380.271 163.172 380.271 166.613C380.271 170.054 380.271 170.474 380.348 171.851C380.386 173.074 380.616 173.762 380.808 174.221C381.038 174.833 381.306 175.253 381.766 175.712C382.226 176.171 382.648 176.439 383.262 176.668C383.683 176.859 384.374 177.05 385.639 177.127C387.019 177.165 387.403 177.203 390.853 177.203C394.343 177.203 394.726 177.165 396.106 177.127C397.372 177.05 398.062 176.859 398.483 176.668C399.097 176.439 399.519 176.171 399.979 175.712C400.439 175.253 400.707 174.833 400.937 174.221C401.129 173.762 401.359 173.074 401.397 171.851C401.474 170.474 401.474 170.054 401.474 166.613Z" fill="white"/>
<path fill-rule="evenodd" clip-rule="evenodd" d="M397.525 166.613C397.525 170.283 394.534 173.227 390.853 173.227C387.211 173.227 384.22 170.283 384.22 166.613C384.22 162.981 387.211 159.999 390.853 159.999C394.534 159.999 397.525 162.981 397.525 166.613ZM395.186 166.613C395.186 164.243 393.269 162.331 390.853 162.331C388.476 162.331 386.559 164.243 386.559 166.613C386.559 168.983 388.476 170.933 390.853 170.933C393.269 170.933 395.186 168.983 395.186 166.613Z" fill="white"/>
<path d="M397.793 158.202C396.911 158.202 396.221 158.89 396.221 159.732C396.221 160.611 396.911 161.299 397.793 161.299C398.637 161.299 399.327 160.611 399.327 159.732C399.327 158.89 398.637 158.202 397.793 158.202Z" fill="white"/>
<path d="M366.966 168.295L331.001 167.76V166.995L366.966 167.531V168.295Z" fill="#100E0F"/>
<path d="M332.497 165.39C333.609 166.231 333.839 167.798 332.995 168.907C332.19 170.016 330.58 170.245 329.468 169.404C328.356 168.563 328.164 166.995 328.969 165.887C329.813 164.778 331.385 164.549 332.497 165.39Z" fill="#100E0F"/>
<path d="M302.59 269.073C287.599 269.073 275.482 256.954 275.482 242.044C275.482 227.095 287.599 214.976 302.59 214.976C317.582 214.976 329.698 227.095 329.698 242.044C329.698 256.954 317.582 269.073 302.59 269.073Z" fill="#100E0F"/>
<path d="M290.321 251.487C292.545 252.901 295.19 253.742 298.028 253.742C307.383 253.742 312.674 245.867 312.368 238.794C313.326 238.106 314.208 237.188 314.86 236.194C313.978 236.615 312.981 236.882 311.984 236.997C313.019 236.385 313.825 235.391 314.17 234.206C313.211 234.78 312.137 235.2 310.987 235.43C310.067 234.436 308.763 233.824 307.306 233.824C304.047 233.824 301.67 236.882 302.399 240.017C298.219 239.788 294.5 237.8 292.008 234.78C290.704 237.035 291.318 239.979 293.58 241.47C292.736 241.432 291.97 241.203 291.279 240.859C291.241 243.152 292.928 245.332 295.344 245.829C294.615 246.02 293.848 246.058 293.043 245.905C293.695 247.931 295.574 249.346 297.759 249.422C295.65 251.066 292.966 251.793 290.321 251.487Z" fill="white"/>
<path d="M299.6 219.64L292.468 195.401L293.197 195.21L300.367 219.411L299.6 219.64Z" fill="#100E0F"/>
<path d="M295.344 194.79C295.344 196.166 294.193 197.275 292.813 197.275C291.433 197.275 290.321 196.166 290.321 194.79C290.321 193.375 291.433 192.266 292.813 192.266C294.193 192.266 295.344 193.375 295.344 194.79Z" fill="#100E0F"/>
<path d="M235.721 76.1581C220.385 76.1581 207.923 63.7712 207.923 48.4787C207.923 33.1862 220.385 20.761 235.721 20.761C251.058 20.761 263.519 33.1862 263.519 48.4787C263.519 63.7712 251.058 76.1581 235.721 76.1581Z" fill="#100E0F"/>
<path d="M232.155 60.8656H237.83V46.6818H241.818L242.239 41.9412H237.83C237.83 41.9412 237.83 40.1443 237.83 39.2267C237.83 38.118 238.06 37.6593 239.172 37.6593C240.016 37.6593 242.239 37.6593 242.239 37.6593V32.7274C242.239 32.7274 238.98 32.7274 238.29 32.7274C234.073 32.7274 232.155 34.6007 232.155 38.1563C232.155 41.253 232.155 41.9412 232.155 41.9412H229.203V46.7201H232.155V60.8656Z" fill="white"/>
<path d="M236.719 103.608H235.952V71.1881H236.719V103.608Z" fill="#100E0F"/>
<path d="M233.766 104.22C234.111 102.882 235.491 102.079 236.833 102.423C238.175 102.767 238.98 104.143 238.635 105.482C238.29 106.82 236.948 107.622 235.606 107.278C234.226 106.934 233.421 105.558 233.766 104.22Z" fill="#100E0F"/>
<path d="M170.693 120.659C155.74 120.659 143.585 108.54 143.585 93.6298C143.585 78.6813 155.74 66.562 170.693 66.562C185.685 66.562 197.84 78.6813 197.84 93.6298C197.84 108.54 185.685 120.659 170.693 120.659Z" fill="#D90452"/>
<path fill-rule="evenodd" clip-rule="evenodd" d="M185.455 92.8651C185.455 100.855 178.937 107.355 170.847 107.355C168.316 107.355 165.9 106.667 163.792 105.52L158.692 107.164C157.465 107.546 156.315 106.399 156.698 105.176L158.347 100.358C157.005 98.1793 156.238 95.6178 156.238 92.8651C156.264 92.6612 156.277 92.4573 156.277 92.2534C156.622 84.5689 163.025 78.4137 170.847 78.4137C178.822 78.4137 185.263 84.6836 185.455 92.521C185.455 92.6485 185.455 92.7632 185.455 92.8651ZM183.154 92.8651C183.154 92.5593 183.142 92.2534 183.116 91.9476C182.618 85.6776 177.326 80.7458 170.847 80.7458C164.482 80.7458 159.229 85.5629 158.654 91.7182C158.603 92.1005 158.577 92.4828 158.577 92.8651C158.577 95.5413 159.459 97.9881 160.916 100.014L159.382 104.526L164.098 103.035C166.054 104.296 168.354 105.023 170.847 105.023C177.633 105.023 183.154 99.5938 183.154 92.8651Z" fill="white"/>
<path d="M177.557 95.809C177.212 95.6179 175.448 94.7768 175.103 94.6621C174.796 94.5092 174.528 94.4709 174.298 94.815C174.067 95.1973 173.377 95.9619 173.147 96.2296C172.956 96.459 172.764 96.459 172.38 96.306C172.035 96.1149 170.885 95.7708 169.505 94.5474C168.431 93.5916 167.741 92.4447 167.511 92.1006C167.319 91.7565 167.511 91.5653 167.664 91.3742C167.856 91.2213 168.048 90.9536 168.201 90.7625C168.252 90.686 168.303 90.6223 168.354 90.5713C168.431 90.4566 168.508 90.3419 168.585 90.1508C168.7 89.9214 168.623 89.7302 168.546 89.5391C168.469 89.3479 167.741 87.6275 167.434 86.9011C167.128 86.213 166.859 86.3277 166.629 86.3277C166.437 86.3277 166.169 86.2894 165.939 86.2894C165.709 86.2894 165.325 86.3659 164.98 86.71C164.674 87.0923 163.753 87.9334 163.753 89.692C163.753 90.1126 163.83 90.4949 163.907 90.8772C164.29 92.1388 165.057 93.1711 165.21 93.3622C165.364 93.5916 167.664 97.2618 171.307 98.7146C174.949 100.129 174.949 99.6321 175.601 99.5939C176.253 99.5174 177.748 98.7146 178.017 97.9117C178.323 97.0706 178.323 96.3443 178.247 96.2296C178.132 96.0766 177.902 95.9619 177.557 95.809Z" fill="white"/>
<path d="M198.606 127.159L182.042 108.081L182.618 107.584L199.181 126.662L198.606 127.159Z" fill="#D90452"/>
<path d="M196.843 128.42C196.267 127.159 196.804 125.668 198.069 125.094C199.335 124.521 200.83 125.094 201.405 126.356C201.98 127.617 201.444 129.108 200.178 129.682C198.913 130.255 197.418 129.682 196.843 128.42Z" fill="#D90452"/>
<path fill-rule="evenodd" clip-rule="evenodd" d="M484.153 53.5658C484.361 65.6408 474.707 75.6458 462.632 75.8183C450.557 76.0253 440.592 66.3653 440.419 54.2558C440.211 42.1808 449.865 32.2103 461.94 32.0033C473.981 31.7963 483.946 41.4908 484.153 53.5658ZM451.837 54.0833C451.906 59.8793 456.681 64.5023 462.459 64.3988C468.203 64.2953 472.839 59.5343 472.735 53.7383C472.631 47.9768 467.891 43.3538 462.113 43.4573C456.335 43.5263 451.733 48.3218 451.837 54.0833Z" fill="#EBEBEB"/>
<path d="M484.153 53.5658C484.361 65.6408 474.707 75.6458 462.632 75.8183L462.459 64.3988C468.203 64.2953 472.839 59.5343 472.735 53.7383C472.631 47.9768 467.891 43.3538 462.113 43.4573L461.94 32.0033C473.981 31.7963 483.946 41.4908 484.153 53.5658Z" fill="#D2D9E0"/>
<path d="M464.604 77.5778C450.487 77.8193 439.242 66.8828 439 52.7723L452.356 52.5308C452.459 59.2928 457.615 63.5708 464.362 63.4673L464.604 77.5778Z" fill="#F5F5F5"/>
<path d="M455 139.905C457.007 141.181 459.394 141.94 461.955 141.94C470.397 141.94 475.172 134.833 474.895 128.45C475.795 127.829 476.556 127.036 477.144 126.105C476.348 126.484 475.483 126.725 474.549 126.829C475.483 126.277 476.21 125.38 476.556 124.31C475.656 124.828 474.687 125.208 473.649 125.415C472.819 124.552 471.643 124 470.328 124C467.421 124 465.242 126.726 465.899 129.555C462.128 129.382 458.771 127.553 456.557 124.828C455.346 126.863 455.934 129.52 457.941 130.865C457.214 130.831 456.488 130.658 455.9 130.313C455.83 132.418 457.353 134.384 459.533 134.798C458.91 134.971 458.183 135.005 457.491 134.867C458.045 136.696 459.74 138.007 461.747 138.041C459.809 139.525 457.422 140.181 455 139.905Z" fill="#EBEBEB"/>
<path fill-rule="evenodd" clip-rule="evenodd" d="M108.997 218.915C109.198 231.775 98.9439 242.372 86.1044 242.572C73.2937 242.802 62.6947 232.52 62.4936 219.66C62.2926 206.829 72.5469 196.203 85.3576 196.003C98.197 195.802 108.796 206.084 108.997 218.915ZM74.615 219.46C74.7299 225.617 79.7852 230.515 85.9321 230.429C92.0502 230.343 96.9619 225.245 96.8758 219.116C96.7609 212.958 91.7055 208.061 85.5587 208.146C79.4405 208.261 74.5288 213.33 74.615 219.46Z" fill="#EBEBEB"/>
<path d="M108.997 218.915C109.198 231.775 98.9437 242.372 86.1042 242.572L85.9319 230.429C92.05 230.343 96.9617 225.245 96.8756 219.116C96.7607 212.958 91.7053 208.061 85.5585 208.146L85.3574 196.003C98.1969 195.802 108.796 206.084 108.997 218.915Z" fill="#D2D9E0"/>
<path d="M88.2012 244.463C73.2075 244.692 61.2298 233.092 61 218.056L75.1894 217.827C75.3043 225.016 80.7905 229.541 87.9714 229.426L88.2012 244.463Z" fill="#F5F5F5"/>
<path d="M45.6642 55.3575H50.785V42.5925H54.3488L54.7294 38.3145H50.785C50.785 38.3145 50.785 36.693 50.785 35.865C50.785 34.8645 50.9926 34.4505 51.9614 34.4505C52.7572 34.4505 54.7294 34.4505 54.7294 34.4505V30C54.7294 30 51.823 30 51.2002 30C47.3942 30 45.6642 31.6905 45.6642 34.899C45.6642 37.6935 45.6642 38.3145 45.6642 38.3145H43V42.627H45.6642V55.3575Z" fill="#EBEBEB"/>
<path d="M86.8555 100.195H41.3219C34.6441 100.195 29.2119 105.612 29.2119 112.27V139.698C29.2119 146.356 34.6441 151.773 41.3219 151.773H58.0337L64.0887 160.467L70.1437 151.773H86.8555C93.5333 151.773 98.9655 146.356 98.9655 139.698V112.27C98.9655 105.612 93.5333 100.195 86.8555 100.195Z" fill="white"/>
<path d="M86.8554 100.195C86.8554 100.195 87.409 100.161 88.4124 100.264C89.4504 100.368 91.0074 100.713 92.772 101.644C93.637 102.162 94.5366 102.783 95.4362 103.645C96.3012 104.508 97.1316 105.577 97.789 106.854C98.4118 108.13 98.8962 109.648 99.0346 111.27C99.1384 112.926 99.0692 114.616 99.1038 116.445C99.1038 120.102 99.1038 124.104 99.1384 128.416C99.1384 130.601 99.1384 132.855 99.1384 135.178C99.1384 136.351 99.1384 137.536 99.1384 138.732C99.173 139.939 99.1038 141.181 98.827 142.423C98.2734 144.873 96.924 147.253 94.9172 148.978C92.8758 150.703 90.2116 151.876 87.409 151.945C81.873 152.014 76.1294 151.98 70.1436 152.014L70.3512 151.911C68.4482 154.636 66.3722 157.603 64.2962 160.605L64.0886 160.881L63.881 160.605C61.978 157.845 59.902 154.912 57.826 151.911L58.0336 152.014C54.1584 152.014 50.041 152.014 45.889 152.014C44.8972 152.014 43.9053 152.014 42.9134 152.014C41.9446 152.014 40.9412 152.014 39.9378 151.911C37.931 151.704 35.9934 150.979 34.3672 149.875C32.741 148.737 31.3916 147.253 30.4574 145.528C29.5578 143.803 29.0388 141.906 29.0042 139.974C29.0042 132.487 29.0042 125.242 29.0042 118.342C29.0042 116.617 29.0042 114.915 29.0042 113.236C28.9696 111.546 29.1426 109.821 29.6962 108.268C30.8034 105.129 33.1562 102.576 35.9934 101.23C37.3774 100.575 38.8998 100.161 40.3876 100.057C41.91 99.9535 43.3632 100.023 44.7818 100.023C47.6421 100.023 50.3755 100.023 52.982 100.023C63.4312 100.057 71.9082 100.092 77.7556 100.126C80.6966 100.126 82.9456 100.161 84.5026 100.161C85.2638 100.161 85.852 100.172 86.2672 100.195C86.6478 100.195 86.8554 100.195 86.8554 100.195C86.8554 100.195 86.6478 100.23 86.2672 100.23C85.852 100.23 85.2638 100.241 84.5026 100.264C82.9456 100.264 80.6966 100.299 77.7556 100.299C71.9082 100.333 63.4312 100.333 52.982 100.368C50.3755 100.391 47.6421 100.402 44.7818 100.402C43.3632 100.402 41.8754 100.368 40.4222 100.437C38.969 100.575 37.5158 100.954 36.1664 101.61C33.433 102.886 31.1494 105.37 30.1114 108.406C29.5578 109.924 29.4194 111.546 29.454 113.236C29.454 114.915 29.454 116.617 29.454 118.342C29.454 125.242 29.454 132.453 29.4886 139.974C29.5232 141.802 30.0076 143.665 30.8726 145.321C31.7722 146.943 33.087 148.392 34.644 149.461C36.2356 150.531 38.0694 151.221 39.9724 151.428C40.9412 151.531 41.91 151.531 42.9134 151.531C43.9053 151.531 44.8972 151.531 45.889 151.531C50.041 151.531 54.1584 151.531 58.0336 151.531H58.1374L58.2066 151.635C60.3172 154.636 62.3586 157.569 64.2962 160.363H63.881C65.9916 157.327 68.033 154.395 69.9706 151.635L70.0398 151.531H70.1436C76.1294 151.531 81.9076 151.566 87.409 151.531C90.1078 151.428 92.6682 150.324 94.6404 148.668C96.6126 146.977 97.8928 144.7 98.4464 142.32C98.7232 141.147 98.7924 139.939 98.7578 138.732C98.7578 137.536 98.7578 136.351 98.7578 135.178C98.7578 132.855 98.7694 130.601 98.7924 128.416C98.7924 124.104 98.7924 120.102 98.7924 116.445C98.7924 114.651 98.8616 112.891 98.7578 111.304C98.654 109.683 98.2042 108.199 97.5814 106.957C96.9586 105.681 96.1282 104.646 95.2978 103.783C94.4328 102.921 93.5332 102.3 92.6682 101.782C90.9382 100.851 89.4504 100.471 88.4124 100.368C87.8934 100.264 87.5128 100.299 87.236 100.264C86.9823 100.241 86.8554 100.218 86.8554 100.195Z" fill="#E0E0E0"/>
<path d="M54.7122 126.691C54.7122 128.83 52.9476 130.589 50.8024 130.589C48.6226 130.589 46.8926 128.83 46.8926 126.691C46.8926 124.517 48.6226 122.792 50.8024 122.792C52.9476 122.792 54.7122 124.517 54.7122 126.691Z" fill="#E0E0E0"/>
<path d="M67.5833 126.691C67.5833 128.83 65.8533 130.589 63.6735 130.589C61.5283 130.589 59.7637 128.83 59.7637 126.691C59.7637 124.517 61.5283 122.792 63.6735 122.792C65.8533 122.792 67.5833 124.517 67.5833 126.691Z" fill="#E0E0E0"/>
<path d="M80.489 126.691C80.489 128.83 78.7244 130.589 76.5792 130.589C74.3994 130.589 72.6348 128.83 72.6348 126.691C72.6348 124.517 74.3994 122.792 76.5792 122.792C78.7244 122.792 80.489 124.517 80.489 126.691Z" fill="#E0E0E0"/>
<path d="M470.599 242.053L468.938 236.498C470.737 233.566 471.81 230.116 471.81 226.424C471.81 215.798 463.16 207.173 452.503 207.173C441.846 207.173 433.196 215.798 433.196 226.424C433.196 237.05 441.846 245.675 452.503 245.675C456.932 245.675 461.049 244.157 464.302 241.639L470.599 242.053Z" fill="#FAFAFA"/>
<path d="M470.599 242.053C470.599 242.053 470.472 242.041 470.218 242.018C469.918 242.018 469.515 242.007 469.007 241.984C467.934 241.915 466.343 241.846 464.301 241.742C464.232 241.742 464.198 241.708 464.232 241.639C464.232 241.616 464.232 241.604 464.232 241.604L464.371 241.708C462.398 243.226 459.492 244.916 455.651 245.537C453.748 245.882 451.638 245.882 449.458 245.572C447.244 245.227 444.995 244.468 442.815 243.26C440.67 242.053 438.663 240.328 437.002 238.189C435.376 236.05 434.13 233.462 433.473 230.668C432.158 225.044 433.577 218.42 437.832 213.659C439.943 211.244 442.607 209.347 445.514 208.277C448.42 207.173 451.499 206.794 454.406 207.104C457.347 207.38 460.08 208.346 462.433 209.726C464.786 211.141 466.723 212.969 468.211 215.005C471.152 219.041 472.156 223.699 471.879 227.528C471.637 231.427 470.322 234.463 469.007 236.533V236.498C469.526 238.292 469.941 239.672 470.218 240.638C470.333 241.098 470.426 241.455 470.495 241.708C470.564 241.938 470.599 242.053 470.599 242.053C470.599 242.053 470.564 241.915 470.46 241.673C470.391 241.42 470.287 241.064 470.149 240.604C469.837 239.672 469.422 238.292 468.869 236.533C468.869 236.51 468.869 236.487 468.869 236.464C470.149 234.394 471.429 231.358 471.637 227.528C471.879 223.733 470.875 219.179 467.934 215.177C466.481 213.211 464.578 211.417 462.26 210.037C459.942 208.691 457.243 207.725 454.371 207.449C451.534 207.173 448.489 207.553 445.652 208.657C442.815 209.692 440.185 211.52 438.109 213.901C433.957 218.593 432.539 225.079 433.853 230.599C434.476 233.359 435.687 235.877 437.313 237.982C438.905 240.086 440.877 241.777 442.988 242.984C445.098 244.192 447.347 244.916 449.493 245.261C451.638 245.606 453.748 245.606 455.617 245.296C459.388 244.675 462.295 243.053 464.267 241.57C464.301 241.535 464.336 241.57 464.371 241.604C464.405 241.604 464.405 241.673 464.371 241.708L464.301 241.57C466.331 241.708 467.888 241.823 468.972 241.915C469.48 241.961 469.884 241.995 470.183 242.018C470.46 242.018 470.599 242.053 470.599 242.053Z" fill="#263238"/>
<path d="M447.036 226.424C447.036 227.494 446.171 228.356 445.099 228.356C443.991 228.356 443.126 227.494 443.126 226.424C443.126 225.355 443.991 224.458 445.099 224.458C446.171 224.458 447.036 225.355 447.036 226.424Z" fill="#263238"/>
<path d="M454.89 226.424C454.89 227.494 454.025 228.356 452.953 228.356C451.845 228.356 450.98 227.494 450.98 226.424C450.98 225.355 451.845 224.458 452.953 224.458C454.025 224.458 454.89 225.355 454.89 226.424Z" fill="#263238"/>
<path d="M462.745 225.424C463.264 226.39 462.952 227.563 462.018 228.115C461.084 228.667 459.873 228.322 459.319 227.39C458.8 226.459 459.112 225.251 460.046 224.734C460.98 224.182 462.191 224.492 462.745 225.424Z" fill="#263238"/>
</svg>
