<svg width="511" height="287" viewBox="0 0 511 287" fill="none" xmlns="http://www.w3.org/2000/svg">
<rect width="511" height="287" rx="4" fill="#F3F6F9"/>
<path fill-rule="evenodd" clip-rule="evenodd" d="M218.371 221.436C219.993 220.43 221.737 219.698 223.542 219.179L224.583 214.116L233.212 213.964L234.436 218.996C236.241 219.454 238.016 220.125 239.668 221.04L244.014 218.203L250.225 224.181L247.533 228.604C248.512 230.22 249.246 231.959 249.766 233.758L254.877 234.795L255.03 243.396L249.95 244.616C249.522 246.416 248.818 248.185 247.9 249.832L250.746 254.163L244.779 260.354L240.311 257.67C238.689 258.646 236.945 259.378 235.17 259.897L234.099 264.99L225.501 265.143L224.246 260.08C222.441 259.653 220.696 258.951 219.013 258.036L214.668 260.873L208.456 254.925L211.18 250.472C210.17 248.856 209.436 247.117 208.915 245.348L203.836 244.281L203.683 235.71L208.732 234.46C209.191 232.66 209.864 230.922 210.782 229.244L207.936 224.913L213.934 218.722L218.371 221.436ZM222.961 232.904C219.411 236.564 219.503 242.39 223.175 245.928C226.847 249.466 232.722 249.344 236.241 245.684C239.791 242.024 239.699 236.198 236.027 232.66C232.355 229.122 226.51 229.214 222.961 232.904Z" fill="#D2D9E0"/>
<path fill-rule="evenodd" clip-rule="evenodd" d="M129.111 34.8374C130.61 33.9224 132.171 33.2514 133.792 32.7939L134.772 28.1884L142.575 28.0359L143.707 32.6109C145.359 33.0379 146.95 33.6479 148.45 34.4714L152.428 31.9094L158.058 37.3079L155.58 41.3339C156.498 42.8284 157.171 44.3839 157.63 46.0004L162.25 46.9764L162.403 54.7844L157.813 55.8824C157.385 57.5294 156.773 59.1154 155.947 60.6099L158.517 64.5749L153.101 70.1869L149.062 67.7469C147.562 68.6314 146.002 69.3024 144.38 69.7599L143.401 74.3654L135.567 74.5179L134.466 69.9429C132.813 69.5159 131.222 68.9059 129.723 68.0824L125.745 70.6444L120.114 65.2459L122.562 61.2199C121.675 59.7254 121.002 58.1699 120.543 56.5534L115.922 55.5774L115.769 47.7999L120.359 46.6714C120.787 45.0244 121.399 43.4384 122.226 41.9439L119.655 37.9789L125.071 32.3669L129.111 34.8374ZM133.303 45.2379C130.059 48.5624 130.151 53.8694 133.486 57.0719C136.822 60.2744 142.146 60.1829 145.359 56.8584C148.572 53.5339 148.48 48.2269 145.145 45.0244C141.81 41.8219 136.516 41.9134 133.303 45.2379Z" fill="#D2D9E0"/>
<path d="M382.326 117.096L265.128 49.02L265.434 48.5015L382.662 116.577L382.326 117.096Z" fill="#D2D9E0"/>
<path d="M107.997 182.122L107.568 181.695C108.027 181.207 156.069 132.163 176.357 110.05C191.076 94.0378 233.885 49.5993 234.313 49.1418L234.772 49.5688C234.344 50.0263 191.535 94.4648 176.816 110.477C156.498 132.59 108.486 181.634 107.997 182.122Z" fill="#D2D9E0"/>
<path d="M94.349 191.394C96.0626 190.662 97.2866 188.893 97.2866 186.819C97.2866 184.074 95.2364 181.878 92.666 181.848C90.0956 181.848 88.0148 184.044 88.0148 186.758C87.9842 188.863 89.2388 190.662 90.9524 191.394C83.8226 192.462 84.1286 200.209 84.1286 200.209L101.05 200.27C101.05 200.27 101.418 192.462 94.349 191.394Z" fill="#100E0F"/>
<path fill-rule="evenodd" clip-rule="evenodd" d="M92.5742 210.182C82.3232 210.182 74 201.886 74 191.638C74 181.42 82.3232 173.125 92.5742 173.125C102.856 173.125 111.179 181.42 111.179 191.638C111.179 201.886 102.856 210.182 92.5742 210.182ZM92.5742 173.643C82.6292 173.643 74.5202 181.725 74.5202 191.638C74.5202 201.581 82.6292 209.664 92.5742 209.664C102.55 209.664 110.659 201.581 110.659 191.638C110.659 181.725 102.55 173.643 92.5742 173.643Z" fill="#100E0F"/>
<path d="M399.859 124.629C401.512 123.928 402.705 122.189 402.736 120.176C402.736 117.523 400.716 115.357 398.207 115.327C395.728 115.327 393.678 117.462 393.678 120.115C393.648 122.189 394.872 123.928 396.555 124.629C389.578 125.666 389.914 133.2 389.914 133.2L406.377 133.291C406.377 133.291 406.744 125.666 399.859 124.629Z" fill="#100E0F"/>
<path fill-rule="evenodd" clip-rule="evenodd" d="M400.104 142.868C388.568 144.088 378.898 134.42 380.122 122.921C381.01 114.534 387.772 107.793 396.187 106.909C407.724 105.689 417.393 115.357 416.169 126.856C415.282 135.243 408.519 141.953 400.104 142.868ZM400.043 107.427C388.843 106.238 379.449 115.632 380.612 126.795C381.499 134.938 388.048 141.496 396.218 142.35C407.448 143.539 416.842 134.145 415.649 122.982C414.792 114.839 408.213 108.281 400.043 107.427Z" fill="#100E0F"/>
<path d="M247.533 35.295C249.093 34.6545 250.225 33.038 250.225 31.1165C250.225 28.6155 248.328 26.572 245.972 26.572C243.646 26.572 241.719 28.585 241.719 31.086C241.688 33.0075 242.82 34.6545 244.411 35.295C237.863 36.3015 238.169 43.3775 238.169 43.3775L253.653 43.469C253.653 43.469 254.02 36.271 247.533 35.295Z" fill="#100E0F"/>
<path fill-rule="evenodd" clip-rule="evenodd" d="M247.777 52.4665C236.914 53.595 227.796 44.5365 228.958 33.709C229.785 25.84 236.149 19.496 244.075 18.6725C254.907 17.5135 264.026 26.572 262.863 37.3995C262.037 45.2685 255.672 51.6125 247.777 52.4665ZM247.716 19.13C237.159 18.032 228.316 26.8465 229.448 37.3385C230.244 44.994 236.425 51.155 244.105 51.9785C254.662 53.0765 263.506 44.262 262.374 33.77C261.578 26.1145 255.397 19.9535 247.716 19.13Z" fill="#100E0F"/>
<path d="M154.111 254.682C155.58 254.072 156.62 252.547 156.651 250.778C156.651 248.46 154.876 246.569 152.703 246.569C150.5 246.538 148.725 248.429 148.725 250.747C148.695 252.547 149.766 254.072 151.234 254.682C145.145 255.597 145.42 262.215 145.42 262.215L159.833 262.276C159.833 262.276 160.17 255.597 154.111 254.682Z" fill="#740646"/>
<path fill-rule="evenodd" clip-rule="evenodd" d="M152.642 270.725C143.89 270.725 136.76 263.649 136.76 254.926C136.76 246.203 143.89 239.096 152.642 239.096C161.363 239.096 168.493 246.203 168.493 254.926C168.493 263.649 161.363 270.725 152.642 270.725ZM152.642 239.554C144.135 239.554 137.219 246.447 137.219 254.926C137.219 263.374 144.135 270.267 152.642 270.267C161.118 270.267 168.034 263.374 168.034 254.926C168.034 246.447 161.118 239.554 152.642 239.554Z" fill="#740646"/>
<path d="M142.238 243.61L102.121 207.681L102.519 207.224L142.636 243.153L142.238 243.61Z" fill="#D2D9E0"/>
<path d="M416.842 69.1805H321.37V24.498H416.842V69.1805Z" fill="#FAFAFA"/>
<path d="M416.842 69.1805C416.842 69.1805 416.812 68.906 416.812 68.3875C416.812 67.8588 416.812 67.0861 416.812 66.0695C416.781 64.026 416.781 61.0065 416.781 57.1635C416.75 49.447 416.75 38.284 416.72 24.498L416.842 24.62C392.026 24.62 358.366 24.6505 321.37 24.6505L321.523 24.498C321.523 40.236 321.523 55.3335 321.523 69.1805L321.37 69.028C349.155 69.0585 372.992 69.089 389.914 69.089C398.36 69.1195 405.092 69.15 409.712 69.15C412.007 69.15 413.782 69.15 414.976 69.15C415.588 69.1703 416.047 69.1805 416.353 69.1805C416.659 69.1805 416.822 69.1805 416.842 69.1805C416.842 69.1805 416.689 69.1805 416.383 69.1805C416.077 69.1805 415.628 69.1906 415.037 69.211C413.813 69.211 412.069 69.211 409.774 69.211C405.153 69.2415 398.452 69.2415 390.006 69.272C373.084 69.272 349.216 69.3025 321.37 69.333H321.217V69.1805C321.217 55.3335 321.217 40.236 321.217 24.498V24.3455H321.37C358.366 24.3455 392.026 24.376 416.842 24.376H416.934V24.498C416.903 38.3145 416.903 49.4775 416.873 57.2245C416.873 61.0675 416.873 64.0565 416.842 66.1C416.842 67.1166 416.842 67.8893 416.842 68.418C416.842 68.9263 416.842 69.1805 416.842 69.1805Z" fill="#100E0F"/>
<path d="M416.965 37.9789C416.965 38.0704 395.575 38.1314 369.168 38.1314C342.79 38.1314 321.37 38.0704 321.37 37.9789C321.37 37.8874 342.79 37.8264 369.168 37.8264C395.575 37.8264 416.965 37.8874 416.965 37.9789Z" fill="#100E0F"/>
<path d="M330.795 29.2254C330.856 29.2864 329.693 30.4454 328.194 31.8179C326.695 33.1599 325.44 34.2274 325.379 34.1664C325.318 34.1054 326.48 32.9464 327.98 31.5739C329.479 30.2014 330.734 29.1339 330.795 29.2254Z" fill="#100E0F"/>
<path d="M330.581 34.3801C330.52 34.4411 329.357 33.2821 327.98 31.7876C326.603 30.3236 325.532 29.0426 325.624 28.9816C325.685 28.9511 326.848 30.0796 328.194 31.5741C329.571 33.0686 330.642 34.3191 330.581 34.3801Z" fill="#100E0F"/>
<path d="M340.281 34.2579C340.261 34.2579 340.25 34.1258 340.25 33.8614C340.23 33.5768 340.21 33.2209 340.189 32.7939C340.189 31.9094 340.159 30.6284 340.128 29.1034L340.281 29.2559C338.751 29.2559 336.976 29.2559 335.079 29.2559C335.048 29.2864 335.385 28.9509 335.263 29.1034V29.1339V29.1949V29.2864V29.4694V29.8049C335.242 30.0489 335.232 30.2828 335.232 30.5064C335.232 30.9538 335.232 31.4011 335.232 31.8484C335.232 32.7024 335.232 33.5056 335.232 34.2579L335.079 34.1359C336.609 34.1359 337.894 34.1664 338.812 34.1969C339.22 34.2173 339.577 34.2274 339.883 34.2274C340.128 34.2478 340.261 34.2579 340.281 34.2579C340.281 34.2884 339.791 34.3189 338.904 34.3494C337.986 34.3494 336.67 34.3799 335.079 34.4104H334.957V34.2579C334.957 33.5056 334.946 32.7024 334.926 31.8484C334.926 31.4011 334.926 30.9538 334.926 30.5064C334.926 30.2828 334.926 30.0489 334.926 29.8049V29.4694V29.2864V29.1949V29.1339V29.1034C334.773 29.2559 335.11 28.9204 335.079 28.9509C336.976 28.9509 338.751 28.9509 340.281 28.9814H340.403V29.1034C340.403 30.6894 340.373 32.0009 340.342 32.8854C340.312 33.8004 340.281 34.2884 340.281 34.2579Z" fill="#100E0F"/>
<path d="M349.951 33.8004C349.951 33.8919 348.696 33.9834 347.166 33.9834C345.636 33.9834 344.381 33.8919 344.381 33.8004C344.381 33.7394 345.636 33.6479 347.166 33.6479C348.696 33.6479 349.951 33.7394 349.951 33.8004Z" fill="#100E0F"/>
<path d="M161.302 138.934H74.7036V78.3306H161.302V138.934Z" fill="#FAFAFA"/>
<path d="M161.302 138.934C161.302 138.934 161.302 138.568 161.302 137.836C161.302 137.104 161.291 136.036 161.271 134.633C161.271 131.797 161.271 127.679 161.24 122.403C161.24 111.85 161.21 96.722 161.179 78.3305L161.302 78.4525C137.219 78.4525 107.17 78.4525 74.7036 78.483L74.8566 78.3305C74.8566 99.9855 74.8566 120.573 74.826 138.934L74.7036 138.781C100.255 138.812 121.889 138.842 137.128 138.873C144.778 138.873 150.806 138.903 154.937 138.903C157.018 138.903 158.578 138.903 159.68 138.934C160.21 138.934 160.618 138.934 160.904 138.934C160.639 138.954 160.241 138.964 159.71 138.964C158.639 138.964 157.048 138.964 154.998 138.964C150.867 138.995 144.869 138.995 137.25 139.025C121.95 139.025 100.285 139.056 74.7036 139.086H74.5506V138.934C74.5506 120.573 74.5506 99.9855 74.52 78.3305V78.1475H74.7036C107.17 78.178 137.219 78.178 161.302 78.178H161.455V78.3305C161.424 96.7525 161.393 111.911 161.363 122.494C161.363 127.74 161.363 131.858 161.332 134.664C161.332 136.067 161.332 137.134 161.332 137.866C161.312 138.578 161.302 138.934 161.302 138.934Z" fill="#100E0F"/>
<path d="M161.455 90.5609C161.455 90.6524 142.024 90.7134 118.064 90.7134C94.104 90.7134 74.7036 90.6524 74.7036 90.5609C74.7036 90.4694 94.104 90.4084 118.064 90.4084C142.024 90.4084 161.455 90.4694 161.455 90.5609Z" fill="#100E0F"/>
<path d="M83.2411 82.6004C83.3023 82.6614 82.2313 83.7289 80.8849 84.9489C79.5385 86.1994 78.4063 87.1449 78.3451 87.0839C78.2839 87.0229 79.3243 85.9554 80.6707 84.7354C82.0171 83.4849 83.1799 82.5394 83.2411 82.6004Z" fill="#100E0F"/>
<path d="M83.0269 87.2975C82.9657 87.328 81.9253 86.291 80.6707 84.949C79.4161 83.607 78.4675 82.448 78.5287 82.387C78.5899 82.326 79.6609 83.3935 80.9155 84.7355C82.1395 86.0775 83.0881 87.2365 83.0269 87.2975Z" fill="#100E0F"/>
<path d="M91.8396 87.1754C91.809 87.1754 91.809 86.6874 91.7784 85.8639C91.7478 85.0404 91.7172 83.8814 91.6866 82.5089L91.8396 82.6309C90.4626 82.6309 88.8408 82.6614 87.1272 82.6614C87.0966 82.6919 87.4332 82.3564 87.2802 82.5089V82.5394V82.5699V82.6614V82.8139V83.1494C87.2802 83.3528 87.2802 83.5561 87.2802 83.7594C87.2802 84.1661 87.2802 84.5728 87.2802 84.9794C87.2802 85.7521 87.2802 86.4841 87.2802 87.1754L87.1272 87.0534C88.5042 87.0534 89.667 87.0839 90.4932 87.1144C91.3194 87.1449 91.809 87.1754 91.8396 87.1754C91.8702 87.2059 91.4112 87.2364 90.585 87.2669C89.7588 87.2669 88.5654 87.2974 87.1272 87.3279H87.0048V87.1754C86.9844 86.4841 86.9742 85.7521 86.9742 84.9794C86.9742 84.5728 86.9742 84.1661 86.9742 83.7594C86.9742 83.5561 86.9742 83.3528 86.9742 83.1494V82.8139V82.6614V82.5699V82.5394V82.5089C86.8212 82.6309 87.1578 82.2954 87.1272 82.3259C88.8408 82.3564 90.4626 82.3564 91.8396 82.3564H91.962V82.5089C91.962 83.9424 91.9314 85.1319 91.9008 85.9249C91.8702 86.7484 91.8702 87.2059 91.8396 87.1754Z" fill="#100E0F"/>
<path d="M100.622 86.7789C100.622 86.8704 99.4896 86.9314 98.082 86.9314C96.705 86.9314 95.5728 86.8704 95.5728 86.7789C95.5728 86.6874 96.705 86.5959 98.082 86.5959C99.4896 86.5959 100.622 86.6874 100.622 86.7789Z" fill="#100E0F"/>
<path fill-rule="evenodd" clip-rule="evenodd" d="M124.092 116.547V116.577C123.603 117.37 122.317 118.895 122.317 118.895L115.371 128.076C114.514 129.235 112.74 129.235 111.883 128.076L104.814 118.743C104.233 117.919 103.651 117.37 103.192 116.577L103.131 116.547H103.162C101.754 114.168 101.142 111.301 101.662 108.281C102.519 103.401 106.405 99.4364 111.271 98.5214C119.013 97.0879 125.775 102.944 125.775 110.416C125.775 112.643 125.163 114.747 124.092 116.547ZM118.982 110.355C118.982 107.427 116.595 105.018 113.627 105.018C110.659 105.018 108.272 107.427 108.272 110.355C108.272 113.314 110.659 115.693 113.627 115.693C116.595 115.693 118.982 113.314 118.982 110.355Z" fill="#D2D9E0"/>
<path d="M437.161 240.285H325.96V162.449H437.161V240.285Z" fill="#FAFAFA"/>
<path d="M437.161 240.285C437.161 240.285 437.161 239.797 437.13 238.852C437.13 237.937 437.13 236.534 437.13 234.734C437.13 231.135 437.099 225.828 437.099 219.057C437.069 205.546 437.069 186.087 437.038 162.449L437.161 162.602C406.224 162.602 367.668 162.602 325.96 162.632L326.113 162.449C326.113 190.296 326.113 216.709 326.113 240.285L325.96 240.133C358.794 240.163 386.579 240.194 406.132 240.194C415.955 240.224 423.697 240.224 428.99 240.255C431.622 240.255 433.672 240.255 435.049 240.255C435.743 240.255 436.263 240.255 436.61 240.255C436.977 240.275 437.161 240.285 437.161 240.285C437.161 240.285 436.987 240.285 436.64 240.285C436.294 240.285 435.773 240.285 435.08 240.285C433.703 240.285 431.683 240.316 429.052 240.316C423.758 240.316 416.016 240.346 406.224 240.346C386.64 240.377 358.825 240.407 325.96 240.407H325.807V240.285C325.807 216.709 325.807 190.296 325.807 162.449V162.297H325.96C367.668 162.327 406.224 162.327 437.161 162.327H437.283V162.449C437.252 186.117 437.222 205.607 437.222 219.149C437.191 225.92 437.191 231.196 437.191 234.795C437.191 236.595 437.161 237.967 437.161 238.882C437.161 239.818 437.161 240.285 437.161 240.285Z" fill="#100E0F"/>
<path d="M437.314 178.187C437.314 178.248 412.405 178.34 381.652 178.34C350.899 178.34 325.96 178.248 325.96 178.187C325.96 178.096 350.899 178.004 381.652 178.004C412.405 178.004 437.314 178.096 437.314 178.187Z" fill="#100E0F"/>
<path d="M336.946 167.939C336.976 168.031 335.63 169.373 333.886 170.959C332.141 172.545 330.703 173.795 330.642 173.704C330.581 173.643 331.927 172.301 333.671 170.715C335.416 169.129 336.884 167.878 336.946 167.939Z" fill="#100E0F"/>
<path d="M336.67 173.978C336.609 174.039 335.262 172.667 333.671 170.928C332.08 169.22 330.825 167.756 330.887 167.695C330.948 167.634 332.294 169.007 333.916 170.715C335.507 172.453 336.731 173.917 336.67 173.978Z" fill="#100E0F"/>
<path d="M347.962 173.857C347.962 173.826 347.962 173.674 347.931 173.369C347.931 173.043 347.921 172.637 347.9 172.149C347.87 171.081 347.839 169.587 347.839 167.818L347.962 167.97C346.217 167.97 344.137 167.97 341.933 167.97C341.903 168.031 342.239 167.696 342.086 167.818V167.848V167.879V167.94V168.031V168.245V168.641C342.086 168.905 342.086 169.18 342.086 169.465C342.086 169.993 342.086 170.512 342.086 171.02C342.086 172.016 342.086 172.962 342.086 173.857L341.933 173.704C343.708 173.735 345.208 173.765 346.279 173.765C346.768 173.785 347.176 173.806 347.503 173.826C347.809 173.826 347.962 173.826 347.962 173.857C347.982 173.857 347.849 173.867 347.564 173.887C347.237 173.887 346.84 173.897 346.37 173.918C345.299 173.948 343.769 173.979 341.933 173.979H341.811V173.857C341.791 172.962 341.78 172.016 341.78 171.02C341.78 170.512 341.78 169.993 341.78 169.465C341.78 169.18 341.78 168.905 341.78 168.641V168.245V168.031V167.94V167.879V167.848V167.818C341.627 167.97 341.964 167.635 341.933 167.665C344.137 167.665 346.217 167.696 347.962 167.696H348.115V167.818C348.084 169.648 348.053 171.173 348.053 172.24C348.033 172.708 348.013 173.104 347.992 173.43C347.992 173.714 347.982 173.857 347.962 173.857Z" fill="#100E0F"/>
<path d="M359.222 173.307C359.222 173.399 357.784 173.46 356.009 173.46C354.204 173.46 352.766 173.399 352.766 173.307C352.766 173.216 354.204 173.155 356.009 173.155C357.784 173.155 359.222 173.216 359.222 173.307Z" fill="#100E0F"/>
<path d="M424.247 226.896H384.498V187.276H424.247V226.896Z" fill="#D2D9E0"/>
<path d="M368.831 223.175H138.719V46.8545H368.831V223.175Z" fill="white"/>
<path d="M368.831 223.175C368.831 222.077 368.77 153.391 368.678 46.8544L368.831 46.9764C303.531 46.9764 224.215 46.9764 138.75 47.0069H138.719L138.872 46.8544C138.872 110.355 138.872 170.44 138.872 223.175L138.719 223.022C275.226 223.114 367.546 223.175 368.831 223.175C367.546 223.175 275.226 223.236 138.719 223.297H138.566V223.175C138.566 170.44 138.566 110.355 138.566 46.8544V46.6714H138.719H138.75C224.215 46.7019 303.531 46.7019 368.831 46.7019H368.953V46.8544C368.862 153.391 368.831 222.077 368.831 223.175Z" fill="#100E0F"/>
<path d="M314.23 199.923C314.23 199.923 314.444 199.648 314.842 199.13C314.944 199.008 315.056 198.866 315.178 198.703C315.27 198.55 315.393 198.337 315.515 198.123C315.76 197.696 316.035 197.239 316.249 196.629C316.372 196.324 316.525 196.019 316.647 195.683C316.729 195.338 316.831 194.972 316.953 194.585C317.076 194.219 317.137 193.823 317.198 193.396C317.259 192.969 317.351 192.511 317.382 192.054C317.565 190.193 317.443 188.028 317.076 185.649C316.341 180.83 314.291 175.187 311.17 169.026C308.049 162.896 303.734 156.247 298.471 149.354C293.177 142.461 286.843 135.324 279.529 128.156C272.216 120.989 263.954 113.821 254.682 106.989C250.031 103.604 245.135 100.31 239.964 97.1989C234.823 94.0879 229.376 91.1904 223.654 88.6589C217.901 86.1884 211.873 84.0229 205.477 82.9859C202.295 82.4979 199.021 82.2539 195.808 82.7419C194.186 82.9859 192.595 83.4434 191.126 84.1144C189.657 84.8159 188.311 85.7614 187.179 86.9814C186.108 88.2014 185.312 89.6349 184.792 91.1904C184.272 92.7154 184.027 94.3319 183.966 95.9789C183.843 99.2119 184.455 102.445 185.281 105.525C187.056 111.747 189.902 117.481 193.023 122.88C196.175 128.278 199.694 133.341 203.397 138.069C207.069 142.827 210.924 147.31 214.841 151.519C222.675 159.937 230.784 167.318 238.74 173.723C246.726 180.159 254.56 185.618 262.026 190.071C269.523 194.524 276.592 198.032 283.11 200.411C289.566 202.82 295.441 204.193 300.307 204.376C302.755 204.467 304.927 204.345 306.733 203.949C307.222 203.857 307.62 203.705 308.049 203.613C308.477 203.491 308.875 203.369 309.211 203.217C309.579 203.075 309.936 202.932 310.282 202.79C310.588 202.637 310.894 202.454 311.17 202.302C311.751 202.027 312.18 201.692 312.577 201.387C312.761 201.265 312.975 201.143 313.128 200.99C313.271 200.848 313.404 200.726 313.526 200.624C313.985 200.167 314.23 199.923 314.23 199.923C314.23 199.923 314.016 200.167 313.557 200.655C313.434 200.757 313.302 200.879 313.159 201.021C313.006 201.173 312.822 201.295 312.608 201.448C312.241 201.722 311.782 202.088 311.2 202.393C310.925 202.546 310.619 202.698 310.313 202.881C309.987 203.003 309.64 203.146 309.273 203.308C308.905 203.461 308.508 203.583 308.079 203.705C307.651 203.796 307.222 203.979 306.763 204.04C304.927 204.467 302.755 204.62 300.307 204.528C295.411 204.345 289.536 203.003 283.018 200.624C276.5 198.245 269.401 194.738 261.904 190.315C254.376 185.862 246.543 180.403 238.556 173.967C230.569 167.562 222.43 160.181 214.566 151.763C210.649 147.554 206.793 143.071 203.091 138.313C199.388 133.555 195.869 128.492 192.687 123.063C189.565 117.664 186.689 111.9 184.914 105.647C184.088 102.506 183.445 99.2729 183.568 95.9484C183.629 94.3014 183.904 92.6544 184.425 91.0684C184.975 89.4824 185.802 87.9879 186.903 86.7069C188.066 85.4564 189.443 84.4804 190.942 83.7484C192.472 83.0774 194.094 82.6199 195.747 82.3759C199.021 81.8879 202.326 82.1319 205.539 82.6199C211.965 83.6569 218.054 85.8224 223.807 88.3234C229.56 90.8549 235.006 93.7524 240.147 96.8939C245.319 100.005 250.245 103.299 254.866 106.715C264.168 113.547 272.43 120.745 279.744 127.912C287.057 135.11 293.391 142.278 298.685 149.201C303.948 156.125 308.232 162.774 311.353 168.935C314.475 175.126 316.494 180.799 317.229 185.618C317.596 188.028 317.718 190.193 317.504 192.054C317.473 192.542 317.351 192.969 317.29 193.396C317.229 193.823 317.167 194.25 317.045 194.616C316.923 195.002 316.81 195.368 316.708 195.714C316.586 196.049 316.464 196.354 316.341 196.659C316.127 197.269 315.79 197.727 315.546 198.154C315.423 198.367 315.331 198.55 315.209 198.733C315.087 198.896 314.974 199.038 314.872 199.16C314.444 199.679 314.23 199.923 314.23 199.923Z" fill="#D2D9E0"/>
<path d="M337.731 143.406C337.731 143.406 337.7 143.071 337.639 142.4C337.639 142.237 337.629 142.054 337.608 141.851C337.578 141.668 337.516 141.454 337.486 141.21C337.363 140.722 337.272 140.173 337.027 139.594C336.935 139.289 336.813 138.953 336.69 138.618C336.527 138.313 336.364 137.977 336.201 137.611C336.017 137.276 335.803 136.91 335.558 136.544C335.313 136.208 335.13 135.812 334.824 135.446C333.722 133.921 332.192 132.396 330.325 130.84C326.562 127.76 321.237 124.893 314.811 122.392C308.385 119.86 300.735 117.756 292.198 116.109C283.63 114.462 274.144 113.364 263.893 112.845C253.672 112.357 242.687 112.51 231.212 113.577C225.49 114.126 219.615 114.889 213.709 116.017C207.772 117.115 201.775 118.549 195.808 120.47C189.871 122.422 183.935 124.832 178.488 128.278C175.765 130.017 173.164 132.03 171.083 134.531C170.043 135.781 169.155 137.154 168.513 138.648C167.87 140.143 167.503 141.759 167.472 143.376C167.503 145.023 167.87 146.639 168.482 148.134C169.155 149.628 170.043 151.001 171.083 152.251C173.164 154.752 175.765 156.765 178.458 158.504C183.904 161.981 189.871 164.36 195.808 166.312C201.775 168.264 207.772 169.697 213.709 170.795C219.615 171.893 225.49 172.686 231.212 173.235C242.687 174.303 253.672 174.425 263.893 173.937C274.144 173.449 283.63 172.32 292.198 170.673C300.735 169.026 308.385 166.952 314.811 164.421C321.237 161.889 326.562 159.053 330.325 155.942C332.192 154.417 333.722 152.892 334.824 151.367C335.13 151.001 335.313 150.604 335.558 150.238C335.803 149.872 336.017 149.537 336.201 149.171C336.364 148.825 336.527 148.49 336.69 148.164C336.813 147.829 336.935 147.524 337.027 147.219C337.272 146.609 337.363 146.06 337.486 145.602C337.516 145.358 337.578 145.145 337.608 144.931C337.629 144.728 337.639 144.545 337.639 144.382C337.7 143.742 337.731 143.406 337.731 143.406C337.731 143.406 337.731 143.742 337.7 144.382C337.68 144.545 337.669 144.728 337.669 144.931C337.639 145.145 337.578 145.358 337.547 145.602C337.425 146.09 337.333 146.639 337.119 147.249C336.996 147.554 336.904 147.859 336.782 148.195C336.619 148.52 336.445 148.866 336.262 149.232C336.109 149.567 335.895 149.933 335.65 150.299C335.405 150.665 335.221 151.062 334.915 151.428C333.814 152.953 332.284 154.508 330.417 156.064C326.653 159.175 321.329 162.072 314.903 164.604C308.446 167.166 300.796 169.27 292.228 170.948C283.691 172.625 274.174 173.723 263.923 174.242C253.672 174.76 242.687 174.638 231.181 173.571C225.429 173.052 219.584 172.259 213.648 171.161C207.681 170.063 201.683 168.599 195.685 166.678C189.749 164.726 183.751 162.316 178.274 158.809C175.551 157.07 172.919 155.057 170.777 152.495C169.737 151.214 168.819 149.811 168.145 148.286C167.503 146.731 167.136 145.084 167.105 143.376C167.136 141.698 167.503 140.051 168.145 138.496C168.849 136.971 169.737 135.568 170.808 134.287C172.919 131.755 175.551 129.742 178.274 127.973C183.751 124.466 189.749 122.056 195.716 120.104C201.683 118.183 207.711 116.749 213.648 115.651C219.584 114.553 225.429 113.76 231.181 113.211C242.687 112.144 253.672 112.052 263.923 112.54C274.144 113.059 283.66 114.187 292.228 115.865C300.796 117.512 308.446 119.647 314.903 122.178C321.329 124.71 326.653 127.607 330.417 130.718C332.284 132.274 333.814 133.829 334.915 135.385C335.221 135.72 335.405 136.147 335.65 136.513C335.895 136.879 336.109 137.215 336.262 137.581C336.445 137.947 336.619 138.282 336.782 138.587C336.904 138.923 336.996 139.258 337.119 139.563C337.333 140.173 337.425 140.722 337.547 141.21C337.578 141.424 337.639 141.668 337.669 141.851C337.669 142.054 337.68 142.237 337.7 142.4C337.731 143.071 337.731 143.406 337.731 143.406Z" fill="#D2D9E0"/>
<path d="M306.61 73.0124C306.61 73.0124 306.304 72.8294 305.753 72.4939C305.631 72.3923 305.478 72.2906 305.294 72.1889C305.141 72.0669 304.927 72.0059 304.713 71.8839C304.254 71.6704 303.764 71.4264 303.152 71.2434C302.846 71.1519 302.51 71.0299 302.173 70.9384C301.826 70.8571 301.459 70.7758 301.072 70.6944C300.704 70.6029 300.276 70.5724 299.848 70.5419C299.419 70.5114 298.96 70.4199 298.501 70.4504C296.635 70.3894 294.462 70.6334 292.106 71.1824C287.332 72.2499 281.824 74.6594 275.888 78.1974C269.951 81.7354 263.617 86.4629 257.069 92.1969C250.52 97.9309 243.819 104.732 237.148 112.479C230.477 120.257 223.868 128.98 217.687 138.648C214.596 143.498 211.628 148.591 208.904 153.959C206.12 159.297 203.611 164.909 201.469 170.765C199.388 176.651 197.644 182.812 197.032 189.217C196.787 192.42 196.756 195.683 197.491 198.855C197.827 200.441 198.378 201.997 199.143 203.43C199.969 204.833 201.01 206.114 202.295 207.151C203.611 208.127 205.11 208.798 206.671 209.256C208.262 209.622 209.884 209.774 211.505 209.744C214.78 209.622 217.962 208.798 220.991 207.731C227.081 205.565 232.65 202.363 237.821 198.855C243.023 195.348 247.828 191.505 252.326 187.509C256.824 183.514 261.047 179.396 264.994 175.218C272.858 166.83 279.682 158.26 285.588 149.903C291.463 141.546 296.39 133.372 300.337 125.625C304.254 117.878 307.283 110.588 309.211 103.97C311.17 97.3514 312.149 91.4039 311.996 86.5544C311.935 84.1449 311.659 81.9794 311.139 80.2104C311.017 79.7529 310.833 79.3259 310.711 78.9294C310.558 78.5329 310.435 78.1364 310.221 77.7704C310.058 77.4248 309.895 77.0893 309.731 76.7639C309.548 76.4589 309.364 76.1844 309.211 75.9099C308.875 75.3609 308.507 74.9339 308.171 74.5679C308.018 74.3849 307.895 74.2019 307.742 74.0799C307.6 73.9376 307.467 73.8054 307.345 73.6834C306.855 73.2564 306.61 73.0124 306.61 73.0124C306.61 73.0124 306.855 73.2259 307.375 73.6529C307.498 73.7749 307.63 73.8969 307.773 74.0189C307.926 74.1714 308.048 74.3544 308.232 74.5374C308.538 74.9034 308.936 75.3304 309.272 75.8794C309.425 76.1539 309.64 76.4284 309.823 76.7334C309.986 77.0588 310.15 77.3943 310.313 77.7399C310.496 78.1059 310.649 78.4719 310.802 78.8989C310.925 79.2954 311.139 79.7224 311.231 80.1799C311.782 81.9794 312.088 84.1144 312.149 86.5544C312.332 91.4344 311.353 97.3819 309.425 104.031C307.498 110.649 304.499 117.969 300.582 125.747C296.635 133.494 291.708 141.698 285.833 150.086C279.958 158.473 273.134 167.044 265.239 175.462C261.292 179.64 257.099 183.788 252.571 187.784C248.072 191.81 243.238 195.653 238.036 199.191C232.834 202.668 227.264 205.931 221.114 208.097C218.054 209.164 214.841 210.018 211.536 210.11C209.884 210.171 208.201 210.018 206.579 209.622C204.957 209.164 203.396 208.463 202.05 207.426C200.734 206.389 199.663 205.047 198.806 203.613C198.011 202.149 197.46 200.563 197.093 198.947C196.389 195.714 196.389 192.42 196.664 189.187C197.246 182.721 199.021 176.529 201.132 170.643C203.243 164.756 205.783 159.144 208.568 153.776C211.322 148.439 214.29 143.315 217.381 138.465C223.592 128.766 230.233 120.043 236.903 112.266C243.605 104.519 250.306 97.7174 256.885 91.9834C263.464 86.2799 269.798 81.5524 275.796 78.0144C281.732 74.5069 287.271 72.0974 292.075 71.0299C294.462 70.5114 296.635 70.2369 298.501 70.3284C298.991 70.3284 299.419 70.4199 299.848 70.4504C300.276 70.4809 300.704 70.5114 301.102 70.6029C301.49 70.6843 301.857 70.7656 302.204 70.8469C302.54 70.9384 302.877 71.0604 303.183 71.1824C303.795 71.3349 304.285 71.6094 304.744 71.8229C304.958 71.9449 305.141 72.0364 305.325 72.1279C305.488 72.2499 305.641 72.3618 305.784 72.4634C306.335 72.8294 306.61 73.0124 306.61 73.0124Z" fill="#D2D9E0"/>
<path d="M166.37 178.451C167.594 179.702 167.594 181.684 166.37 182.935C165.116 184.155 163.127 184.155 161.903 182.935C160.648 181.684 160.648 179.702 161.903 178.451C163.127 177.231 165.116 177.231 166.37 178.451Z" fill="#D2D9E0"/>
<path d="M344.952 80.6984C344.952 82.4369 343.514 83.8399 341.77 83.8399C340.026 83.8399 338.618 82.4369 338.618 80.6984C338.618 78.9599 340.026 77.5569 341.77 77.5569C343.514 77.5569 344.952 78.9599 344.952 80.6984Z" fill="#D2D9E0"/>
<path d="M186.352 188.821C186.352 189.278 185.985 189.644 185.557 189.644C185.098 189.644 184.73 189.278 184.73 188.821C184.73 188.394 185.098 188.028 185.557 188.028C185.985 188.028 186.352 188.394 186.352 188.821Z" fill="#D2D9E0"/>
<path d="M203.519 100.432C203.519 100.859 203.152 101.225 202.723 101.225C202.264 101.225 201.897 100.859 201.897 100.432C201.897 99.9747 202.264 99.6392 202.723 99.6392C203.152 99.6392 203.519 99.9747 203.519 100.432Z" fill="#D2D9E0"/>
<path d="M329.04 143.407C329.04 143.834 328.673 144.2 328.245 144.2C327.786 144.2 327.449 143.834 327.449 143.407C327.449 142.949 327.786 142.583 328.245 142.583C328.673 142.583 329.04 142.949 329.04 143.407Z" fill="#D2D9E0"/>
<path d="M340.209 106.013C340.209 106.471 339.873 106.837 339.414 106.837C338.985 106.837 338.618 106.471 338.618 106.013C338.618 105.586 338.985 105.22 339.414 105.22C339.873 105.22 340.209 105.586 340.209 106.013Z" fill="#D2D9E0"/>
<path d="M306.886 133.616C306.886 161.584 284.303 184.246 256.426 184.246C228.58 184.246 205.998 161.584 205.998 133.616C205.998 105.678 228.58 83.0164 256.426 83.0164C284.303 83.0164 306.886 105.678 306.886 133.616Z" fill="#D90452"/>
<g opacity="0.3">
<path d="M237.76 156.186C238.005 153.99 239.749 151.764 238.74 149.751C237.638 147.555 234.394 147.89 232.13 146.914C228.948 145.511 227.968 141.577 225.888 138.801C224.052 136.331 219.706 133.586 216.402 134.348C214.015 134.897 213.189 136.3 212.944 138.069C212.842 138.049 212.74 138.028 212.638 138.008C211.75 137.917 210.71 137.886 210.22 137.154C209.67 136.3 210.22 135.019 209.639 134.196C209.333 133.738 208.813 133.555 208.384 133.25C207.925 132.945 207.558 132.366 207.834 131.908C208.048 131.512 208.599 131.451 208.905 131.085C209.119 130.81 209.119 130.353 208.874 130.078C207.956 129.011 206.946 131.207 206.457 131.725C206.314 131.867 206.171 131.989 206.028 132.091V132.122C206.028 132.203 206.028 132.294 206.028 132.396C206.028 132.701 206.028 133.006 205.998 133.311C205.998 133.596 205.998 133.891 205.998 134.196C205.998 134.44 205.998 134.684 205.998 134.928C205.998 135.192 206.008 135.446 206.028 135.69C206.548 135.873 207.069 136.148 207.558 136.453C208.568 137.002 209.639 137.764 209.7 138.893C209.731 139.076 209.7 139.259 209.823 139.411C209.914 139.564 210.098 139.625 210.282 139.655C211.138 139.838 211.995 139.96 212.852 140.021C212.852 141.028 212.944 142.065 212.913 143.071C212.883 144.535 212.424 145.968 212.577 147.402C212.821 149.445 214.229 151.123 215.453 152.77C220.165 159.023 222.705 166.221 225.459 173.571C225.979 173.998 226.714 174.517 227.234 174.913C227.632 175.188 228.03 175.462 228.458 175.737C228.886 176.042 229.254 176.285 229.682 176.529C229.988 176.743 230.049 176.774 230.386 176.957C230.325 176.896 230.416 177.048 230.355 176.957C229.254 174.517 229.254 171.162 231.64 169.942C232.099 169.728 232.62 169.606 232.987 169.24C234.058 168.234 233.17 166.19 234.241 165.184C234.853 164.635 235.771 164.665 236.506 164.329C237.852 163.719 238.281 162.012 238.189 160.548C238.066 159.084 237.577 157.65 237.76 156.186Z" fill="#100E0F"/>
</g>
<g opacity="0.3">
<path d="M209.119 119.128C210.067 118.335 211.689 118.244 212.424 119.25C212.944 119.952 212.821 120.928 212.699 121.812C212.515 122.991 212.322 124.171 212.118 125.35C212.056 125.686 212.026 126.082 212.179 126.418C212.515 127.15 213.739 126.997 214.229 126.326C214.688 125.655 214.657 124.771 214.504 123.947C214.382 123.124 214.229 122.27 214.535 121.507C215.331 119.616 218.176 119.891 219.829 118.671C220.839 117.908 221.298 116.627 221.91 115.499C222.522 114.37 223.531 113.242 224.786 113.303C225.214 113.333 225.643 113.486 226.071 113.455C227.356 113.425 228.091 111.595 227.173 110.71C226.989 110.497 226.744 110.375 226.622 110.131C226.408 109.704 226.653 109.155 227.02 108.88C227.418 108.606 227.907 108.514 228.366 108.453C229.447 108.27 230.529 108.097 231.61 107.935C232.773 107.752 234.303 107.142 234.15 105.952C233.997 104.946 232.589 104.488 232.405 103.451C232.344 103.207 232.375 102.933 232.252 102.719C231.946 102.048 230.937 102.323 230.325 102.658C230.049 101.713 228.703 101.286 227.938 101.926C227.326 102.445 227.234 103.36 227.02 104.153C226.469 106.044 224.97 107.508 223.501 108.85C223.011 109.307 222.46 109.765 221.818 109.795C221.145 109.826 220.441 109.124 220.747 108.545C220.961 108.148 221.542 107.904 221.481 107.477C221.389 106.928 220.41 106.959 220.227 106.41C220.624 104.854 222.43 104.183 223.807 103.36C225.49 102.323 226.836 100.737 227.479 98.8761C227.601 98.5711 227.693 98.2356 227.54 97.9306C227.326 97.5341 226.775 97.4731 226.316 97.4731C225.245 97.4731 223.929 97.5951 223.531 98.6016C223.317 99.1506 223.47 99.7302 223.348 100.31C222.981 101.957 220.716 102.14 219.309 103.116C218.758 103.512 218.36 104.031 217.748 104.336C217.105 104.641 216.34 104.61 215.637 104.671C215.514 104.671 215.178 104.671 215.055 104.671C214.596 105.281 214.26 105.861 213.862 106.471C213.433 107.111 213.036 107.813 212.668 108.453C210.863 111.503 209.486 114.797 208.384 118.213C207.987 119.403 207.65 120.684 207.344 121.904C207.038 123.154 206.824 124.313 206.64 125.564C207.13 124.557 207.344 123.307 207.528 122.392C207.803 121.202 208.201 119.952 209.119 119.128Z" fill="#100E0F"/>
</g>
<g opacity="0.3">
<path d="M251.5 96.4059C251.989 95.7654 251.836 94.8809 252.142 94.1489C252.663 92.9594 254.254 92.5324 254.805 91.3429C255.019 90.9159 255.08 90.3364 255.447 90.0009C255.753 89.7264 256.212 89.6654 256.549 89.4214C257.314 88.8419 256.977 87.5609 256.212 87.0729C254.223 85.7919 250.582 87.2559 248.868 88.4759C246.665 90.0619 244.523 91.9834 241.616 91.8004C240.79 91.7394 239.964 91.5259 239.199 91.8004C238.464 92.1054 237.975 93.2339 238.648 93.6914C238.984 93.9659 239.505 93.8744 239.933 94.0879C240.667 94.4234 240.759 95.5214 240.392 96.2534C240.025 96.9854 239.352 97.5649 238.923 98.2664C238.495 98.9374 238.311 99.7609 238.372 100.554C238.434 101.103 238.617 101.682 239.046 102.048C239.964 102.75 241.341 102.14 242.106 101.286C242.901 100.401 243.421 99.2729 244.431 98.6934C244.921 98.3884 245.502 98.2359 246.053 98.1139C247.318 97.8089 248.593 97.5039 249.878 97.1989C250.49 97.0769 251.133 96.8939 251.5 96.4059Z" fill="#100E0F"/>
</g>
<g opacity="0.3">
<path d="M306.855 133.25C306.855 132.518 306.835 131.796 306.794 131.084C306.763 130.383 306.733 129.651 306.671 128.949C306.61 128.37 306.549 127.79 306.457 127.241C306.396 126.631 306.304 125.96 306.212 125.35C305.906 123.581 305.6 122.026 305.111 120.318C304.927 119.647 304.591 118.945 304.376 118.305C304.172 117.654 303.948 117.013 303.703 116.383C303.458 115.895 303.183 115.427 302.877 114.98C300.092 110.558 296.023 107.081 292.932 102.841C291.922 101.469 291.157 100.34 289.382 100.066C286.751 99.6691 285.404 101.164 283.538 98.6626C283.048 97.9916 282.161 97.3816 281.426 97.7781C281.61 98.3068 281.804 98.8355 282.008 99.3641C282.038 99.4861 282.069 99.6081 282.069 99.7301C282.008 100.096 281.457 100.218 281.151 100.005C280.814 99.7911 280.661 99.3946 280.447 99.0896C279.621 97.9001 277.663 97.7476 276.653 98.7846C276.622 98.2966 276.286 97.8086 275.796 97.5951C275.704 98.6016 274.572 99.3031 273.654 98.9981C273.501 98.5101 274.358 98.4186 274.664 98.0221C274.939 97.6256 274.603 97.0766 274.235 96.7716C273.287 95.9176 272.032 95.4601 270.778 95.4296C269.982 95.3991 269.095 95.5516 268.391 95.1246C267.993 94.9111 267.718 94.5146 267.289 94.2706C266.402 93.7826 265.3 94.2401 264.413 94.7281C263.189 95.3991 261.904 96.2531 261.475 97.5646C261.047 98.9066 262.026 100.676 263.403 100.523C263.74 100.462 264.107 100.31 264.474 100.401C264.964 100.523 265.178 101.103 265.208 101.621C265.27 102.109 265.208 102.658 265.453 103.116C265.698 103.543 266.432 103.787 266.708 103.36C267.35 102.719 267.259 101.682 267.106 100.798C266.953 99.9131 266.769 98.9371 267.289 98.2051C267.809 97.4731 269.339 97.7171 269.248 98.6016C269.186 99.1201 268.574 99.5166 268.605 100.035C268.636 100.584 269.278 100.859 269.829 100.859C270.38 100.828 270.931 100.645 271.451 100.767C271.971 100.889 272.399 101.591 272.032 101.987C271.359 102.719 269.645 101.438 269.278 102.384C269.186 102.628 269.278 102.872 269.278 103.146C269.217 103.909 268.207 104.214 267.442 104.305C266.647 104.397 265.82 104.458 265.117 104.122C264.413 103.787 263.923 102.872 264.321 102.201C263.923 101.926 263.311 102.201 263.097 102.658C262.883 103.085 262.944 103.604 263.005 104.092C262.179 103.909 261.445 104.61 260.986 105.312C260.496 106.013 260.037 106.806 259.241 107.05C258.415 107.294 257.314 106.959 256.885 107.691C256.334 108.667 257.926 109.856 257.375 110.802C257.038 111.351 256.273 111.32 255.692 111.503C254.07 111.961 253.519 114.279 254.621 115.529C255.692 116.78 257.895 116.719 259.058 115.529C259.853 114.706 260.19 113.547 260.771 112.571C261.353 111.595 262.454 110.68 263.556 111.015C263.984 111.137 264.352 111.442 264.688 111.717C265.219 112.164 265.749 112.611 266.279 113.059C266.647 113.364 267.014 113.73 266.983 114.157C266.953 114.523 266.677 114.797 266.555 115.133C266.218 116.109 267.595 117.024 268.483 116.475C269.37 115.956 269.462 114.614 268.85 113.791C268.024 112.632 266.157 112.083 266.218 110.649C267.167 109.887 268.666 110.68 269.217 111.808C269.798 112.906 269.798 114.187 270.288 115.346C270.747 116.475 272.063 117.481 273.164 116.932C272.879 115.956 272.593 114.98 272.308 114.004C273.011 113.455 273.807 115.011 274.664 114.736C275.153 114.584 275.215 113.852 275 113.364C274.786 112.876 274.388 112.449 274.297 111.93C274.144 110.954 275.215 110.07 276.194 110.253C277.173 110.405 277.877 111.32 278.06 112.296C278.152 112.662 278.152 113.089 278.336 113.425C278.703 114.187 279.652 114.431 280.417 114.736C281.212 115.072 282.038 115.834 281.702 116.627C281.549 116.963 281.182 117.298 281.304 117.634C281.426 117.969 281.885 118.091 281.885 118.427C281.885 118.64 281.671 118.793 281.457 118.884C280.937 119.098 280.355 119.159 279.835 119.433C279.315 119.647 278.856 120.165 278.917 120.714C278.978 121.507 279.927 121.873 280.355 122.544C280.784 123.185 280.723 124.008 280.998 124.71C281.273 125.381 281.794 125.899 282.222 126.479C283.538 128.278 283.844 130.566 284.486 132.701C284.792 133.677 285.313 134.744 286.292 134.927C286.843 135.019 287.393 134.805 287.883 134.622C289.321 134.043 290.79 133.463 291.8 132.304C292.81 131.145 293.146 129.254 292.106 128.126C291.983 127.973 291.83 127.821 291.616 127.79C291.341 127.76 291.127 127.943 290.882 128.065C290.147 128.4 289.26 128.126 288.648 127.577C288.067 127.058 287.699 126.326 287.332 125.594C286.945 124.821 286.547 124.028 286.139 123.215C286.628 122.819 287.363 123.002 287.852 123.398C288.342 123.764 288.617 124.344 289.015 124.832C290.209 126.296 292.167 126.967 294.064 127.18C294.523 127.241 295.013 127.272 295.472 127.455C296.879 128.126 297.308 130.2 298.777 130.627C299.205 130.749 299.664 130.749 300.062 130.932C300.643 131.206 300.949 131.877 301.102 132.487C301.439 133.677 301.561 134.897 302.051 136.025C302.54 137.123 303.52 138.13 304.744 138.16C305.509 138.16 306.182 137.825 306.733 137.276C306.794 136.178 306.886 135.049 306.886 133.921C306.886 133.697 306.875 133.473 306.855 133.25Z" fill="#100E0F"/>
</g>
<g opacity="0.3">
<path d="M286.445 154.112C285.711 154.264 285.558 154.691 285.129 155.24C284.609 155.972 283.844 156.704 283.354 157.406C282.559 158.626 283.293 160.486 282.192 161.523C281.977 161.706 281.702 161.859 281.518 162.072C281.059 162.591 281.243 163.445 281.763 163.841C282.283 164.238 283.079 164.207 283.63 163.872C284.211 163.536 284.609 162.926 284.793 162.316C284.946 161.859 285.007 161.34 285.374 161.035C285.986 160.486 286.965 160.883 287.761 160.761C291.219 160.273 289.75 153.471 286.445 154.112Z" fill="#100E0F"/>
</g>
<g opacity="0.3">
<path d="M287.608 144.626C289.627 142.888 290.423 139.014 287.944 138.13C286.996 137.794 285.925 138.069 285.007 137.703C283.783 137.245 283.232 135.873 282.773 134.653C281.631 131.46 280.488 128.258 279.346 125.045C278.642 123.124 277.602 120.897 275.551 120.623C274.419 120.44 273.287 120.989 272.155 121.202C268.207 121.934 261.567 112.418 258.568 118.823C258.171 117.085 255.325 117.725 254.407 119.281C253.519 120.806 253.336 122.849 251.898 123.947C250.796 124.74 249.174 124.801 248.287 125.838C247.675 126.57 247.552 127.577 247.461 128.553C247.318 130.383 247.175 132.213 247.032 134.043C246.91 135.507 246.787 137.093 247.522 138.374C248.256 139.655 250.184 140.356 251.255 139.38C251.775 138.923 251.989 138.221 252.387 137.672C253.06 136.788 254.284 136.391 255.355 136.666C256.243 136.91 256.947 137.55 257.589 138.252C262.699 143.742 264.535 151.58 264.78 159.083C264.811 160.456 264.811 161.889 265.331 163.17C265.912 164.665 267.167 165.854 267.534 167.44C267.84 168.63 267.565 169.972 268.085 171.1C269.034 173.174 272.216 173.266 273.96 171.771C275.704 170.277 276.286 167.898 276.653 165.641C276.99 163.384 277.234 161.005 278.489 159.114C279.285 157.924 280.447 156.979 280.968 155.698C281.763 153.868 281.182 151.702 281.886 149.872C282.834 147.402 285.619 146.334 287.608 144.626Z" fill="#100E0F"/>
</g>
<path d="M306.825 133.677C306.825 133.677 306.794 133.403 306.763 132.854C306.733 132.305 306.763 131.512 306.672 130.475C306.549 128.37 306.182 125.259 305.233 121.355C304.744 119.434 304.101 117.268 303.183 115.011C302.296 112.754 301.164 110.345 299.695 107.905C296.818 103.025 292.657 97.9005 286.965 93.539C284.119 91.343 280.906 89.3605 277.357 87.7135C273.807 86.097 269.921 84.7855 265.759 84.023C261.598 83.2605 257.222 82.9555 252.754 83.291C250.49 83.4435 248.256 83.8095 245.992 84.267C243.727 84.755 241.463 85.3955 239.229 86.1885C230.355 89.452 221.94 95.5215 215.912 103.879C214.351 105.953 213.036 108.179 211.812 110.497C211.2 111.656 210.679 112.876 210.159 114.066C209.67 115.286 209.18 116.536 208.782 117.787C207.956 120.318 207.283 122.911 206.885 125.564C206.457 128.248 206.242 130.932 206.212 133.677C206.242 136.392 206.457 139.106 206.885 141.76C207.283 144.444 207.956 147.036 208.782 149.568C209.18 150.818 209.67 152.038 210.159 153.289C210.679 154.478 211.2 155.698 211.812 156.857C213.036 159.175 214.351 161.402 215.881 163.476C221.94 171.833 230.355 177.902 239.229 181.166C241.463 181.959 243.727 182.599 245.992 183.087C248.256 183.545 250.49 183.911 252.754 184.063C257.222 184.399 261.628 184.094 265.759 183.331C269.921 182.569 273.807 181.257 277.357 179.641C280.906 177.994 284.119 176.011 286.965 173.815C292.657 169.454 296.818 164.33 299.695 159.45C301.164 157.01 302.296 154.6 303.183 152.313C304.101 150.056 304.744 147.921 305.233 145.999C306.182 142.095 306.549 138.984 306.672 136.88C306.763 135.843 306.733 135.019 306.763 134.501C306.794 133.952 306.825 133.677 306.825 133.677C306.825 133.677 306.825 133.952 306.825 134.501C306.794 135.05 306.825 135.843 306.733 136.91C306.641 139.015 306.304 142.126 305.356 146.03C304.866 147.951 304.254 150.117 303.336 152.374C302.449 154.661 301.317 157.071 299.848 159.541C296.971 164.452 292.81 169.606 287.118 173.998C284.272 176.225 281.029 178.207 277.449 179.854C273.899 181.501 269.982 182.813 265.821 183.575C261.628 184.368 257.222 184.673 252.724 184.338C250.459 184.185 248.195 183.819 245.931 183.362C243.636 182.904 241.402 182.233 239.137 181.44C230.202 178.177 221.726 172.077 215.637 163.659C214.107 161.585 212.76 159.328 211.536 156.979C210.924 155.82 210.404 154.6 209.853 153.411C209.364 152.16 208.874 150.94 208.476 149.659C207.65 147.097 206.977 144.505 206.548 141.821C206.151 139.137 205.936 136.422 205.906 133.677C205.936 130.932 206.151 128.187 206.548 125.534C206.977 122.85 207.65 120.227 208.476 117.695C208.874 116.414 209.364 115.194 209.853 113.944C210.404 112.724 210.924 111.534 211.536 110.375C212.76 108.027 214.107 105.77 215.637 103.696C221.726 95.2775 230.202 89.1775 239.137 85.914C241.402 85.121 243.636 84.45 245.931 83.9925C248.195 83.535 250.459 83.169 252.724 83.0165C257.222 82.681 261.628 82.986 265.79 83.779C269.982 84.5415 273.868 85.853 277.449 87.5C281.029 89.147 284.272 91.1295 287.088 93.356C292.81 97.748 296.971 102.903 299.848 107.813C301.317 110.284 302.449 112.693 303.336 114.981C304.254 117.238 304.866 119.373 305.356 121.325C306.304 125.229 306.641 128.34 306.733 130.444C306.825 131.512 306.794 132.305 306.825 132.854C306.825 133.403 306.825 133.677 306.825 133.677Z" fill="#100E0F"/>
<path d="M258.354 184.337C258.262 184.337 258.201 161.859 258.201 134.165C258.201 106.44 258.262 83.9619 258.354 83.9619C258.446 83.9619 258.538 106.44 258.538 134.165C258.538 161.859 258.446 184.337 258.354 184.337Z" fill="#100E0F"/>
<path d="M261.261 184.063C261.261 184.063 261.343 184.002 261.506 183.88C261.69 183.758 261.934 183.595 262.24 183.392C262.914 182.934 263.862 182.263 265.056 181.348C267.412 179.488 270.686 176.529 274.052 172.32C277.387 168.111 280.815 162.591 283.232 155.881C285.649 149.201 287.118 141.424 287.302 133.219C287.455 125.015 286.629 117.176 284.701 110.314C282.804 103.451 279.621 97.7479 276.255 93.5694C274.572 91.4649 272.736 89.8179 271.053 88.5369C269.34 87.2559 267.718 86.3409 266.371 85.7004C264.994 85.0599 263.923 84.6329 263.158 84.3889C262.791 84.2466 262.506 84.1449 262.302 84.0839C262.118 84.0229 262.016 83.9822 261.996 83.9619C262.016 83.9619 262.118 83.9924 262.302 84.0534C262.506 84.1144 262.801 84.2059 263.189 84.3279C263.923 84.5414 265.056 84.9379 266.433 85.5784C267.779 86.2189 269.431 87.1034 271.145 88.3844C272.889 89.6654 274.725 91.3429 276.408 93.4474C279.866 97.5954 283.048 103.36 285.007 110.222C286.935 117.115 287.761 125.015 287.608 133.25C287.424 141.485 285.955 149.293 283.507 156.003C281.059 162.713 277.602 168.233 274.236 172.473C270.839 176.682 267.534 179.61 265.147 181.44C263.923 182.355 262.975 183.026 262.271 183.422C261.945 183.626 261.69 183.788 261.506 183.91C261.343 184.012 261.261 184.063 261.261 184.063Z" fill="#100E0F"/>
<path d="M256.61 184.246C256.61 184.246 256.518 184.195 256.335 184.093C256.151 183.971 255.896 183.809 255.57 183.605C254.866 183.178 253.887 182.477 252.663 181.592C250.184 179.732 246.757 176.834 243.146 172.686C241.341 170.612 239.505 168.203 237.76 165.488C235.986 162.774 234.364 159.693 233.109 156.247C231.824 152.861 230.814 149.171 230.08 145.267C229.376 141.363 228.948 137.276 228.856 133.097C228.672 124.71 229.529 116.658 231.579 109.673C232.589 106.166 233.905 102.963 235.465 100.127C236.995 97.2599 238.862 94.8199 240.759 92.8374C244.615 88.8724 248.654 86.7069 251.469 85.4869C252.877 84.9074 254.009 84.5109 254.774 84.2669C255.162 84.1449 255.457 84.0534 255.661 83.9924C255.865 83.9517 255.967 83.9314 255.967 83.9314C255.967 83.9314 255.876 83.9619 255.692 84.0229C255.468 84.1042 255.172 84.2059 254.805 84.3279C254.04 84.5719 252.907 84.9989 251.5 85.6089C248.715 86.8594 244.737 89.0249 240.912 92.9899C239.046 94.9724 237.21 97.3819 235.71 100.249C234.15 103.055 232.864 106.288 231.855 109.765C229.835 116.719 229.009 124.74 229.162 133.097C229.284 137.276 229.682 141.332 230.386 145.206C231.12 149.079 232.13 152.77 233.385 156.155C234.639 159.571 236.23 162.621 237.975 165.336C239.688 168.05 241.524 170.46 243.299 172.534C246.879 176.712 250.306 179.61 252.724 181.47C253.948 182.416 254.927 183.117 255.6 183.544C255.927 183.768 256.182 183.941 256.365 184.063C256.528 184.185 256.61 184.246 256.61 184.246Z" fill="#100E0F"/>
<path d="M306.886 132.793C306.886 132.884 284.425 132.945 256.763 132.945C229.07 132.945 206.64 132.884 206.64 132.793C206.64 132.701 229.07 132.64 256.763 132.64C284.425 132.64 306.886 132.701 306.886 132.793Z" fill="#100E0F"/>
<path d="M299.174 106.989C299.174 107.081 280.019 107.172 256.396 107.172C232.772 107.172 213.647 107.081 213.647 106.989C213.647 106.928 232.772 106.837 256.396 106.837C280.019 106.837 299.174 106.928 299.174 106.989Z" fill="#100E0F"/>
<path d="M299.725 159.053C299.725 159.144 280.141 159.205 255.967 159.205C231.824 159.205 212.24 159.144 212.24 159.053C212.24 158.961 231.824 158.9 255.967 158.9C280.141 158.9 299.725 158.961 299.725 159.053Z" fill="#100E0F"/>
<path d="M287.516 151.641H224.449C215.514 151.641 208.262 144.443 208.262 135.537C208.262 126.631 215.514 119.403 224.449 119.403H287.516C296.451 119.403 303.673 126.631 303.673 135.537C303.673 144.443 296.451 151.641 287.516 151.641Z" fill="white"/>
<path d="M287.516 151.641C287.516 151.641 287.699 151.641 288.097 151.611C288.464 151.55 289.076 151.58 289.811 151.428C291.28 151.214 293.513 150.696 295.961 149.171C296.604 148.835 297.185 148.347 297.797 147.859C298.103 147.595 298.409 147.321 298.715 147.036C299.021 146.761 299.297 146.426 299.572 146.121C300.735 144.809 301.775 143.193 302.51 141.302C303.244 139.411 303.642 137.215 303.55 134.927C303.458 132.64 302.846 130.23 301.653 127.973C300.429 125.747 298.624 123.673 296.298 122.148C295.686 121.782 295.105 121.416 294.431 121.111C293.819 120.775 293.116 120.562 292.442 120.318C291.065 119.921 289.597 119.586 288.097 119.555C282.038 119.525 275.582 119.555 268.758 119.555C255.141 119.555 240.178 119.555 224.449 119.555C220.563 119.586 216.738 121.05 213.892 123.551C212.485 124.771 211.291 126.265 210.373 127.882C209.486 129.529 208.904 131.298 208.629 133.128C208.384 134.927 208.354 136.757 208.721 138.526C209.057 140.295 209.7 141.973 210.587 143.498C212.332 146.578 215.116 148.896 218.207 150.238C219.767 150.879 221.389 151.275 223.042 151.428C224.663 151.55 226.316 151.489 227.938 151.519C231.161 151.519 234.282 151.519 237.301 151.519C243.36 151.519 249.021 151.519 254.162 151.55C264.443 151.55 272.797 151.58 278.55 151.58C281.426 151.611 283.66 151.611 285.19 151.611C285.945 151.611 286.516 151.621 286.904 151.641C287.312 151.641 287.516 151.641 287.516 151.641C287.516 151.641 287.312 151.652 286.904 151.672C286.516 151.672 285.945 151.672 285.19 151.672C283.66 151.672 281.426 151.702 278.55 151.702C272.797 151.733 264.443 151.733 254.162 151.763C249.021 151.763 243.36 151.763 237.301 151.794C234.282 151.794 231.161 151.794 227.938 151.794C226.316 151.763 224.694 151.855 223.011 151.733C221.328 151.55 219.676 151.153 218.084 150.513C214.933 149.14 212.087 146.792 210.312 143.65C209.425 142.095 208.782 140.387 208.415 138.587C208.048 136.788 208.048 134.897 208.323 133.067C208.598 131.237 209.21 129.407 210.098 127.76C211.016 126.082 212.24 124.557 213.678 123.307C216.585 120.745 220.471 119.25 224.449 119.25C240.178 119.25 255.141 119.25 268.758 119.25C275.582 119.281 282.038 119.25 288.097 119.311C289.627 119.311 291.127 119.647 292.534 120.074C293.207 120.318 293.911 120.562 294.554 120.897C295.227 121.172 295.808 121.568 296.42 121.934C298.777 123.49 300.613 125.594 301.867 127.851C303.061 130.169 303.673 132.609 303.764 134.927C303.826 137.245 303.428 139.441 302.663 141.363C301.928 143.254 300.857 144.901 299.695 146.212C299.389 146.517 299.144 146.853 298.807 147.127C298.501 147.412 298.195 147.687 297.889 147.951C297.247 148.439 296.665 148.927 296.023 149.293C293.544 150.787 291.31 151.306 289.811 151.489C289.076 151.641 288.495 151.611 288.097 151.641C287.71 151.641 287.516 151.641 287.516 151.641Z" fill="#100E0F"/>
<path d="M246.114 127.699L241.126 141.668H236.383L233.752 134.074L230.998 141.668H226.255L221.267 127.699H225.918L228.764 136.148L231.763 127.699H235.924L238.831 136.239L241.799 127.699H246.114Z" fill="#100E0F"/>
<path d="M270.349 127.699L265.392 141.668H260.618L257.987 134.074L255.263 141.668H250.49L245.502 127.699H250.153L253.03 136.148L255.998 127.699H260.19L263.066 136.239L266.065 127.699H270.349Z" fill="#100E0F"/>
<path d="M294.615 127.699L289.627 141.668H284.884L282.253 134.074L279.499 141.668H274.756L269.768 127.699H274.419L277.295 136.148L280.264 127.699H284.456L287.332 136.239L290.3 127.699H294.615Z" fill="#100E0F"/>
<path d="M230.049 166.586L208.201 172.93C207.344 173.174 207.068 174.272 207.711 174.882L222.613 189.248C223.256 189.858 224.296 189.583 224.541 188.79L231.487 168.081C231.793 167.166 230.967 166.312 230.049 166.586Z" fill="#100E0F"/>
<path d="M199.755 190.193L215.178 175.919L221.298 181.867L205.967 196.507L199.755 190.193Z" fill="#100E0F"/>
<path d="M368.831 63.0805C368.831 63.172 317.576 63.2635 254.387 63.2635C191.167 63.2635 139.943 63.172 139.943 63.0805C139.943 62.989 191.167 62.928 254.387 62.928C317.576 62.928 368.831 62.989 368.831 63.0805Z" fill="#100E0F"/>
<path d="M151.326 53.1679C151.387 53.2289 149.827 54.7539 147.838 56.5839C145.818 58.4139 144.166 59.8474 144.105 59.7864C144.043 59.7254 145.604 58.2004 147.593 56.3704C149.613 54.5404 151.265 53.1069 151.326 53.1679Z" fill="#100E0F"/>
<path d="M151.051 60.0913C150.989 60.1523 149.429 58.5663 147.593 56.5838C145.757 54.6013 144.319 52.9238 144.38 52.8628C144.441 52.8018 146.002 54.3878 147.838 56.3703C149.674 58.3528 151.112 60.0303 151.051 60.0913Z" fill="#100E0F"/>
<path d="M164.056 59.9388C164.025 59.9388 164.025 59.7558 164.025 59.4203C164.005 59.034 163.984 58.5561 163.964 57.9868C163.964 56.7668 163.933 55.0588 163.903 53.0153L164.056 53.1373C162.005 53.1678 159.619 53.1678 157.109 53.1678C157.048 53.1983 157.385 52.8628 157.262 53.0153V53.0458V53.0763V53.1373V53.2593V53.4728V53.9608C157.262 54.2658 157.262 54.5708 157.262 54.8758C157.262 55.4858 157.262 56.0856 157.262 56.6753C157.232 57.8343 157.232 58.9323 157.232 59.9388L157.109 59.8168C159.16 59.8168 160.873 59.8473 162.097 59.8778C162.668 59.8981 163.138 59.9083 163.505 59.9083C163.841 59.9083 164.025 59.9388 164.056 59.9388C164.056 59.9388 163.903 59.9693 163.566 59.9693C163.199 59.9896 162.74 59.9998 162.189 59.9998C160.965 60.0303 159.221 60.0608 157.109 60.0913H156.956V59.9388C156.956 58.9323 156.956 57.8343 156.956 56.6753C156.936 56.0856 156.926 55.4858 156.926 54.8758C156.926 54.5708 156.926 54.2658 156.926 53.9608V53.4728V53.2593V53.1373V53.0763V53.0458V53.0153C156.803 53.1678 157.14 52.8323 157.109 52.8628C159.619 52.8628 162.005 52.8628 164.056 52.8628H164.178V53.0153C164.178 55.1198 164.147 56.8583 164.117 58.0783C164.096 58.6476 164.086 59.1153 164.086 59.4813C164.056 59.7863 164.056 59.9388 164.056 59.9388Z" fill="#100E0F"/>
<path d="M177 59.3288C177 59.4203 175.347 59.4813 173.266 59.4813C171.216 59.4813 169.533 59.4203 169.533 59.3288C169.533 59.2373 171.216 59.1763 173.266 59.1763C175.347 59.1763 177 59.2373 177 59.3288Z" fill="#100E0F"/>
</svg>
