<svg width="473" height="288" viewBox="0 0 473 288" fill="none" xmlns="http://www.w3.org/2000/svg">
<rect x="0.5" width="472" height="288" rx="4" fill="#F3F6F9"/>
<path d="M119.289 83.443H77.3381C75.3664 83.443 73.7588 81.8354 73.7588 79.8637V42.3115C73.7588 40.3096 75.3664 38.7019 77.3381 38.7019H119.289C121.26 38.7019 122.868 40.3096 122.868 42.3115V79.8637C122.868 81.8354 121.26 83.443 119.289 83.443Z" fill="white"/>
<path d="M122.868 46.3155H73.7588V42.4025C73.7588 40.3702 75.3968 38.7019 77.4291 38.7019H119.471C121.351 38.7019 122.868 40.2186 122.868 42.0992V46.3155Z" fill="#D2D9E0"/>
<path d="M80.8265 43.2517C80.8265 43.8887 80.2805 44.4044 79.6132 44.4044C78.9458 44.4044 78.4302 43.8887 78.4302 43.2517C78.4302 42.6451 78.9458 42.1294 79.6132 42.1294C80.2805 42.1294 80.8265 42.6451 80.8265 43.2517Z" fill="white"/>
<path d="M84.1024 43.2517C84.1024 43.8887 83.5564 44.4044 82.9194 44.4044C82.252 44.4044 81.7061 43.8887 81.7061 43.2517C81.7061 42.6451 82.252 42.1294 82.9194 42.1294C83.5564 42.1294 84.1024 42.6451 84.1024 43.2517Z" fill="white"/>
<path d="M87.3785 43.2517C87.3785 43.8887 86.8628 44.4044 86.1955 44.4044C85.5282 44.4044 84.9822 43.8887 84.9822 43.2517C84.9822 42.6451 85.5282 42.1294 86.1955 42.1294C86.8628 42.1294 87.3785 42.6451 87.3785 43.2517Z" fill="white"/>
<path d="M119.289 83.4429C119.289 83.4126 119.44 83.4126 119.744 83.3823C120.047 83.3519 120.532 83.2306 121.048 82.9273C121.564 82.6543 122.14 82.1386 122.504 81.3196C122.686 80.9253 122.807 80.4703 122.807 79.9546C122.838 79.4693 122.807 78.9233 122.807 78.347C122.807 73.7364 122.777 67.0934 122.777 58.9035C122.747 54.7783 122.747 50.289 122.747 45.466C122.747 44.8594 122.747 44.2527 122.747 43.6461C122.716 43.0394 122.777 42.3721 122.716 41.7957C122.534 40.6128 121.685 39.5208 120.532 39.0961C120.229 38.9748 119.926 38.9141 119.622 38.8838C119.319 38.8534 118.985 38.8534 118.652 38.8534C118.005 38.8534 117.347 38.8534 116.68 38.8534C115.366 38.8534 114.031 38.8534 112.676 38.8534C101.817 38.8534 89.8656 38.8534 77.3381 38.8838C75.8215 38.8534 74.3958 39.9454 74.0318 41.4014C73.9408 41.7351 73.9105 42.0991 73.9105 42.4934V43.6461C73.9105 44.4145 73.9105 45.1829 73.9105 45.9514C73.9105 49.0049 73.9105 52.0078 73.9105 54.9603C73.9105 60.8752 73.9105 66.5778 73.9105 72.0074C73.9105 74.7171 73.9105 77.3561 73.9105 79.9243C73.9105 81.1679 74.6688 82.3509 75.7305 82.8969C76.2461 83.1699 76.8528 83.3216 77.4595 83.2913C78.0661 83.2913 78.6728 83.2913 79.2794 83.2913C84.1024 83.3216 88.5917 83.3216 92.717 83.3216C100.907 83.3519 107.55 83.3519 112.16 83.3823C114.466 83.3823 116.225 83.3823 117.438 83.4126C118.045 83.4126 118.51 83.4126 118.834 83.4126C119.137 83.4328 119.289 83.4429 119.289 83.4429C119.289 83.4429 119.137 83.4429 118.834 83.4429C118.51 83.4429 118.045 83.453 117.438 83.4733C116.225 83.4733 114.466 83.4733 112.16 83.5036C107.55 83.5036 100.907 83.5339 92.717 83.5339C88.5917 83.5643 84.1024 83.5643 79.2794 83.5643C78.6728 83.5643 78.0661 83.5643 77.4595 83.5643C76.8225 83.5946 76.1855 83.4429 75.6092 83.1396C74.4565 82.5329 73.6375 81.2893 73.6072 79.9243C73.6072 77.3561 73.6072 74.7171 73.6072 72.0074C73.6072 66.5778 73.6072 60.8752 73.6072 54.9603C73.6072 52.0078 73.6072 49.0049 73.6072 45.9514C73.6072 45.1829 73.6072 44.4145 73.6072 43.6461V42.4934C73.6072 42.0991 73.6072 41.7047 73.7285 41.3104C74.1228 39.7331 75.7001 38.5198 77.3381 38.5501C89.8656 38.5501 101.817 38.5501 112.676 38.5804C114.031 38.5804 115.366 38.5804 116.68 38.5804C117.347 38.5804 118.005 38.5804 118.652 38.5804C118.985 38.5804 119.319 38.5804 119.653 38.5804C119.986 38.6411 120.32 38.7018 120.623 38.8231C121.867 39.3084 122.807 40.4611 122.959 41.7654C123.05 42.4024 122.989 43.0091 123.02 43.6461C123.02 44.2527 123.02 44.8594 123.02 45.466C122.989 50.289 122.989 54.7783 122.989 58.9035C122.959 67.0934 122.959 73.7364 122.929 78.347C122.929 78.9233 122.929 79.4693 122.929 79.985C122.898 80.5006 122.777 80.9556 122.595 81.3803C122.201 82.1993 121.594 82.7149 121.078 82.9879C120.532 83.2913 120.077 83.3823 119.774 83.4126C119.44 83.4429 119.289 83.4429 119.289 83.4429Z" fill="#EBEBEB"/>
<path d="M116.468 79.4996H80.0378C78.5515 79.4996 77.3381 78.3166 77.3381 76.7999V52.4426C77.3381 50.9562 78.5515 49.7429 80.0378 49.7429H116.468C117.954 49.7429 119.167 50.9562 119.167 52.4426V76.7999C119.167 78.3166 117.954 79.4996 116.468 79.4996Z" fill="#F5F5F5"/>
<path d="M80.8569 77.6494L91.0487 63.1199C91.5037 62.4829 92.4137 62.4526 92.899 63.0592L99.9363 71.7648C100.361 72.2804 101.15 72.3411 101.635 71.8558L105.73 67.9125C106.215 67.4575 107.004 67.4878 107.429 68.0035L115.497 77.5584C116.104 78.3167 115.588 79.4694 114.587 79.4694H81.7972C80.8569 79.4694 80.3109 78.4077 80.8569 77.6494Z" fill="#D2D9E0"/>
<path d="M104.152 58.8126C104.516 61.2089 102.484 63.2412 100.057 62.8772C98.5711 62.6649 97.3578 61.4212 97.1152 59.9349C96.7512 57.5386 98.7835 55.5063 101.18 55.8703C102.696 56.0826 103.91 57.3263 104.152 58.8126Z" fill="#D2D9E0"/>
<path d="M393.381 219.305H366.415C364.443 219.305 362.836 217.697 362.836 215.695V191.823C362.836 189.852 364.443 188.244 366.415 188.244H393.381C395.353 188.244 396.96 189.852 396.96 191.823V215.695C396.96 217.697 395.353 219.305 393.381 219.305Z" fill="white"/>
<path d="M396.96 193.522H362.836V191.914C362.836 189.882 364.474 188.244 366.506 188.244H393.563C395.444 188.244 396.96 189.761 396.96 191.641V193.522Z" fill="#D2D9E0" fill-opacity="0.5"/>
<path d="M367.75 191.399C367.75 191.823 367.386 192.187 366.9 192.187C366.445 192.187 366.081 191.823 366.081 191.399C366.081 190.974 366.445 190.61 366.9 190.61C367.386 190.61 367.75 190.974 367.75 191.399Z" fill="white"/>
<path d="M370.025 191.399C370.025 191.823 369.66 192.187 369.206 192.187C368.72 192.187 368.356 191.823 368.356 191.399C368.356 190.974 368.72 190.61 369.206 190.61C369.66 190.61 370.025 190.974 370.025 191.399Z" fill="white"/>
<path d="M372.299 191.399C372.299 191.823 371.935 192.187 371.48 192.187C370.995 192.187 370.631 191.823 370.631 191.399C370.631 190.974 370.995 190.61 371.48 190.61C371.935 190.61 372.299 190.974 372.299 191.399Z" fill="white"/>
<path d="M393.381 219.305C393.351 219.244 393.806 219.335 394.594 219.032C394.958 218.88 395.413 218.638 395.838 218.213C396.263 217.788 396.657 217.212 396.809 216.423C396.9 216.059 396.9 215.665 396.869 215.21C396.869 214.785 396.869 214.33 396.869 213.845C396.869 212.895 396.869 211.853 396.869 210.721C396.869 208.506 396.839 205.958 396.839 203.137C396.839 200.347 396.839 197.253 396.809 193.947C396.809 193.128 396.839 192.278 396.809 191.459C396.718 190.64 396.323 189.852 395.686 189.275C394.412 188.001 392.41 188.456 390.59 188.396C383.159 188.396 374.999 188.396 366.415 188.396C365.384 188.396 364.383 188.881 363.746 189.67C363.442 190.064 363.2 190.519 363.109 191.004C362.957 191.49 362.987 192.005 362.987 192.551C362.987 194.634 362.987 196.687 362.987 198.709C362.987 202.743 362.987 206.656 362.987 210.357C362.987 212.217 362.987 214.027 362.987 215.786C362.987 216.636 363.351 217.455 363.897 218.061C364.443 218.638 365.232 219.032 366.021 219.123C369.266 219.184 372.391 219.153 375.181 219.184C380.793 219.214 385.343 219.214 388.497 219.244C390.044 219.244 391.258 219.244 392.107 219.244C392.511 219.264 392.825 219.275 393.047 219.275C393.25 219.275 393.361 219.285 393.381 219.305C393.361 219.305 393.25 219.305 393.047 219.305C392.825 219.305 392.511 219.315 392.107 219.335C391.258 219.335 390.044 219.335 388.497 219.366C385.343 219.366 380.793 219.396 375.181 219.396C372.36 219.396 369.297 219.457 365.99 219.396C365.141 219.305 364.292 218.88 363.685 218.243C363.109 217.576 362.714 216.696 362.714 215.786C362.694 214.027 362.684 212.217 362.684 210.357C362.684 206.656 362.684 202.743 362.684 198.709C362.684 196.687 362.684 194.634 362.684 192.551C362.684 192.036 362.654 191.49 362.775 190.944C362.927 190.398 363.169 189.912 363.503 189.457C364.201 188.608 365.293 188.062 366.415 188.092C374.999 188.092 383.159 188.092 390.59 188.092C391.521 188.092 392.441 188.092 393.351 188.092C394.291 188.092 395.201 188.456 395.868 189.063C396.536 189.7 396.96 190.549 397.051 191.429C397.112 192.309 397.082 193.128 397.082 193.947C397.082 197.253 397.082 200.347 397.051 203.137C397.051 205.958 397.051 208.506 397.051 210.721C397.031 211.853 397.021 212.895 397.021 213.845C397.021 214.33 397.021 214.785 397.021 215.21C397.021 215.635 397.021 216.059 396.93 216.454C396.748 217.242 396.354 217.849 395.929 218.304C395.474 218.729 394.989 218.971 394.625 219.093C394.23 219.244 393.897 219.275 393.684 219.305C393.482 219.305 393.381 219.305 393.381 219.305Z" fill="#E0E0E0"/>
<path d="M391.682 216.575H368.023C366.536 216.575 365.323 215.362 365.323 213.875V198.618C365.323 197.101 366.536 195.888 368.023 195.888H391.682C393.169 195.888 394.382 197.101 394.382 198.618V213.875C394.382 215.362 393.169 216.575 391.682 216.575Z" fill="#D2D9E0" fill-opacity="0.5"/>
<path d="M367.78 215.271L374.848 205.17C375.151 204.745 375.818 204.715 376.152 205.139L381.005 211.176C381.309 211.54 381.855 211.57 382.188 211.267L385.04 208.506C385.373 208.203 385.919 208.233 386.223 208.567L391.804 215.21C392.259 215.756 391.895 216.545 391.197 216.545H368.417C367.78 216.545 367.386 215.817 367.78 215.271Z" fill="#D2D9E0"/>
<path d="M383.947 202.197C384.19 203.865 382.795 205.291 381.126 205.018C380.065 204.866 379.215 204.017 379.064 202.986C378.821 201.317 380.216 199.892 381.885 200.134C382.946 200.316 383.796 201.166 383.947 202.197Z" fill="#D2D9E0"/>
<path d="M103.667 240.507H66.7521C64.7805 240.507 63.1729 238.899 63.1729 236.928V196.069C63.1729 194.098 64.7805 192.49 66.7521 192.49H103.667C105.669 192.49 107.277 194.098 107.277 196.069V236.928C107.277 238.899 105.669 240.507 103.667 240.507Z" fill="white"/>
<path d="M107.277 200.68H63.1729V196.191C63.1729 194.158 64.8108 192.49 66.8431 192.49H103.88C105.76 192.49 107.277 194.007 107.277 195.887V200.68Z" fill="#D2D9E0"/>
<path d="M70.756 197.373C70.756 198.041 70.1797 198.587 69.4517 198.587C68.7541 198.587 68.1777 198.041 68.1777 197.373C68.1777 196.706 68.7541 196.16 69.4517 196.16C70.1797 196.16 70.756 196.706 70.756 197.373Z" fill="white"/>
<path d="M74.2746 197.373C74.2746 198.041 73.6983 198.587 73.0006 198.587C72.2726 198.587 71.6963 198.041 71.6963 197.373C71.6963 196.706 72.2726 196.16 73.0006 196.16C73.6983 196.16 74.2746 196.706 74.2746 197.373Z" fill="white"/>
<path d="M77.7934 197.373C77.7934 198.041 77.2171 198.587 76.5194 198.587C75.7914 198.587 75.2151 198.041 75.2151 197.373C75.2151 196.706 75.7914 196.16 76.5194 196.16C77.2171 196.16 77.7934 196.706 77.7934 197.373Z" fill="white"/>
<path d="M103.667 240.507C103.667 240.507 103.849 240.507 104.153 240.477C104.426 240.416 104.881 240.325 105.396 240.022C105.912 239.749 106.488 239.263 106.852 238.475C107.034 238.08 107.186 237.625 107.186 237.14C107.216 236.655 107.216 236.109 107.216 235.563C107.186 231.043 107.186 224.522 107.156 216.483C107.156 212.449 107.156 208.051 107.125 203.288C107.125 200.922 107.125 198.486 107.125 195.978C107.095 194.735 106.337 193.552 105.214 193.006C104.668 192.733 104.031 192.611 103.394 192.642C102.727 192.642 102.06 192.642 101.392 192.642C90.7454 192.642 79.0369 192.642 66.752 192.642C65.2657 192.642 63.8704 193.673 63.476 195.099C63.2637 195.766 63.3547 196.555 63.3244 197.313C63.3244 198.061 63.3244 198.809 63.3244 199.557C63.3244 202.55 63.3244 205.493 63.3244 208.384C63.3244 214.178 63.3244 219.79 63.2941 225.098C63.2941 227.767 63.2941 230.366 63.2941 232.893C63.2941 234.147 63.2941 235.391 63.2941 236.624C63.2334 237.838 63.749 238.99 64.659 239.688C65.114 240.022 65.66 240.264 66.206 240.325C66.752 240.416 67.3587 240.386 67.9047 240.386C69.0573 240.386 70.1796 240.386 71.2716 240.386C73.4758 240.386 75.589 240.386 77.6112 240.386C85.6495 240.416 92.171 240.446 96.6907 240.446C98.9353 240.477 100.664 240.477 101.878 240.477C102.464 240.477 102.909 240.487 103.212 240.507C103.516 240.507 103.667 240.507 103.667 240.507C103.667 240.507 103.516 240.517 103.212 240.537C102.909 240.537 102.464 240.537 101.878 240.537C100.664 240.537 98.9353 240.568 96.6907 240.568C92.171 240.598 85.6495 240.598 77.6112 240.628C75.589 240.628 73.4758 240.628 71.2716 240.628C70.1796 240.628 69.0573 240.628 67.9047 240.628C67.3587 240.628 66.7823 240.689 66.1757 240.598C65.569 240.507 64.9927 240.264 64.5074 239.9C63.5064 239.172 62.9604 237.868 63.0211 236.624C63.0211 235.391 63.0211 234.147 63.0211 232.893C63.0211 230.366 63.0211 227.767 63.0211 225.098C63.0211 219.79 63.0211 214.178 63.0211 208.384C63.0211 205.493 63.0211 202.55 63.0211 199.557C63.0211 198.809 63.0211 198.061 63.0211 197.313L62.9907 196.16C63.0211 195.766 63.0514 195.372 63.1727 195.008C63.5974 193.461 65.1444 192.308 66.752 192.338C79.0369 192.338 90.7454 192.338 101.392 192.338C102.06 192.338 102.727 192.338 103.394 192.338C104.062 192.338 104.759 192.429 105.366 192.763C106.549 193.37 107.368 194.644 107.398 195.948C107.398 198.476 107.398 200.922 107.398 203.288C107.398 208.051 107.398 212.449 107.368 216.483C107.368 224.522 107.338 231.043 107.338 235.563C107.307 236.109 107.338 236.655 107.307 237.17C107.277 237.656 107.125 238.111 106.943 238.505C106.549 239.324 105.942 239.809 105.427 240.082C104.911 240.386 104.456 240.477 104.153 240.507C103.849 240.537 103.667 240.507 103.667 240.507Z" fill="#D2D9E0"/>
<path d="M83.4959 220.093L72.4244 208.839C73.759 207.535 75.306 206.473 77.0046 205.685C84.8912 202.136 94.3248 205.685 97.9041 213.602C101.453 221.488 97.9041 230.922 90.0175 234.501C82.1006 238.05 72.667 234.501 69.1181 226.584C68.8552 226.018 68.6226 225.421 68.4204 224.795L83.4959 220.093Z" fill="#D2D9E0" fill-opacity="0.5"/>
<path d="M80.9479 219.547L67.7834 223.49C67.389 222.216 67.207 220.881 67.207 219.547C67.207 215.937 68.6327 212.479 71.1807 209.901L80.9479 219.547Z" fill="#D2D9E0" fill-opacity="0.5"/>
<path d="M294.098 53.7766H267.496C265.13 53.7766 263.188 51.8353 263.188 49.439V22.8673C263.188 20.471 265.13 18.5601 267.496 18.5601H294.098C296.464 18.5601 298.405 20.471 298.405 22.8673V49.439C298.405 51.8353 296.464 53.7766 294.098 53.7766Z" fill="#D2D9E0" fill-opacity="0.4"/>
<path d="M268.648 36.6689L272.167 33.12L279.022 39.2169L290.458 27.7207L293.764 31.2697L278.507 46.0418L268.648 36.6689Z" fill="white"/>
<path d="M387.129 46.0722L386.704 21.9878C386.845 21.9878 386.987 21.9878 387.129 21.9878C400.323 21.9878 411.183 32.847 411.183 46.0722C411.183 59.267 400.323 70.1262 387.129 70.1262C376.603 70.1262 367.261 63.271 364.136 53.2308L387.129 46.0722Z" fill="#D2D9E0" fill-opacity="0.4"/>
<path d="M384.641 44.3432L364.015 50.8648C363.135 48.5292 362.68 46.0419 362.68 43.5242C362.68 32.028 372.144 22.5945 383.64 22.5945C383.822 22.5945 384.005 22.5945 384.187 22.5945L384.641 44.3432Z" fill="#D2D9E0" fill-opacity="0.4"/>
<path d="M436.784 266.138C436.784 266.229 347.362 266.289 237.102 266.289C126.811 266.289 37.4199 266.229 37.4199 266.138C37.4199 266.047 126.811 265.986 237.102 265.986C347.362 265.986 436.784 266.047 436.784 266.138Z" fill="#263238"/>
<path d="M228.555 88.0543H173.531C171.529 88.0543 169.921 86.4466 169.921 84.475V35.0019C169.921 33.0303 171.529 31.4226 173.531 31.4226H228.555C230.527 31.4226 232.134 33.0303 232.134 35.0019V84.475C232.134 86.4466 230.527 88.0543 228.555 88.0543Z" fill="white"/>
<path d="M232.134 41.0685H169.921V35.0929C169.921 33.0606 171.59 31.4226 173.622 31.4226H228.737C230.618 31.4226 232.134 32.9393 232.134 34.8199V41.0685Z" fill="#D2D9E0" fill-opacity="0.3"/>
<path d="M178.9 37.1857C178.9 37.9744 178.202 38.6114 177.353 38.6114C176.534 38.6114 175.836 37.9744 175.836 37.1857C175.836 36.3971 176.534 35.7297 177.353 35.7297C178.202 35.7297 178.9 36.3971 178.9 37.1857Z" fill="white"/>
<path d="M183.056 37.1857C183.056 37.9744 182.358 38.6114 181.509 38.6114C180.69 38.6114 179.992 37.9744 179.992 37.1857C179.992 36.3971 180.69 35.7297 181.509 35.7297C182.358 35.7297 183.056 36.3971 183.056 37.1857Z" fill="white"/>
<path d="M187.211 37.1857C187.211 37.9744 186.513 38.6114 185.664 38.6114C184.845 38.6114 184.147 37.9744 184.147 37.1857C184.147 36.3971 184.845 35.7297 185.664 35.7297C186.513 35.7297 187.211 36.3971 187.211 37.1857Z" fill="white"/>
<path d="M176.777 46.134C176.777 46.134 176.777 81.108 176.777 80.7743C176.777 80.4406 226.766 80.7743 226.766 80.7743" fill="white"/>
<path d="M226.765 80.7743C226.765 80.7743 226.695 80.7844 226.553 80.8046C226.391 80.8046 226.179 80.8046 225.916 80.8046C225.33 80.8046 224.511 80.8046 223.459 80.8046C221.275 80.8046 218.181 80.8046 214.39 80.8046C206.715 80.8046 196.129 80.8046 184.451 80.8046C182.995 80.8046 181.549 80.8147 180.113 80.835C179.406 80.835 178.708 80.8451 178.02 80.8653C177.656 80.8653 177.323 80.8653 176.959 80.8956L176.868 80.926C176.847 80.926 176.837 80.926 176.837 80.926C177.201 80.8956 176.564 80.744 176.625 80.7743V80.7136V80.4406V79.925C176.625 77.1647 176.625 74.5257 176.625 71.9777C176.655 66.9121 176.655 62.3622 176.655 58.5402C176.686 54.7183 176.716 51.6243 176.716 49.4707C176.736 48.3989 176.746 47.5698 176.746 46.9834C176.746 46.7205 176.746 46.5081 176.746 46.3464C176.767 46.2048 176.777 46.134 176.777 46.134C176.777 46.134 176.777 46.2048 176.777 46.3464C176.797 46.5081 176.807 46.7205 176.807 46.9834C176.807 47.5698 176.817 48.3989 176.837 49.4707C176.837 51.6243 176.868 54.7183 176.898 58.5402C176.898 62.3622 176.898 66.9121 176.928 71.9777C176.928 74.5257 176.928 77.1647 176.928 79.925V80.4406V80.7136V80.7743C176.989 80.835 176.352 80.6226 176.716 80.6226H176.746C176.777 80.5923 176.807 80.5923 176.807 80.5923H176.959C177.292 80.562 177.656 80.562 177.99 80.5316C178.698 80.5316 179.406 80.5215 180.113 80.5013C181.549 80.5013 182.995 80.4912 184.451 80.471C196.129 80.471 206.715 80.5316 214.39 80.5923C218.181 80.6226 221.275 80.6833 223.459 80.6833C224.511 80.7035 225.33 80.7237 225.916 80.744C226.179 80.744 226.391 80.744 226.553 80.744C226.695 80.7642 226.765 80.7743 226.765 80.7743Z" fill="#263238"/>
<path d="M192.55 76.8918H181.873V62.9993H192.55V76.8918Z" fill="#740646"/>
<path d="M207.019 76.8917H196.341V55.5676H207.019V76.8917Z" fill="#740646"/>
<path d="M221.518 76.8918H210.841V49.3191H221.518V76.8918Z" fill="#740646"/>
<path d="M228.555 88.0542C228.555 88.0239 228.767 88.0542 229.131 87.9632C229.526 87.9025 230.102 87.7509 230.709 87.2655C231.315 86.8106 231.922 85.9916 232.074 84.8692C232.104 83.7773 232.074 82.4426 232.074 80.9866C232.074 75.1324 232.043 66.6695 232.013 56.1742C232.013 50.957 232.013 45.224 232.013 39.0664C232.013 38.298 232.013 37.5195 232.013 36.7308C232.013 36.3466 232.013 35.9523 232.013 35.5478C231.983 35.1535 232.013 34.7592 231.952 34.3952C231.71 32.8785 230.284 31.6045 228.676 31.5742C225.4 31.5742 222.033 31.5742 218.575 31.5742C204.713 31.5742 189.516 31.5742 173.531 31.5742C172.56 31.5742 171.62 31.9989 170.983 32.6965C170.346 33.3942 170.043 34.3648 170.103 35.3355C170.103 37.297 170.103 39.2586 170.103 41.2201C170.103 45.1027 170.103 48.9247 170.103 52.686C170.073 60.2389 170.073 67.5188 170.073 74.4347C170.073 77.8927 170.073 81.2596 170.073 84.5356C170.073 85.3242 170.407 86.1129 170.892 86.6892C171.408 87.2959 172.105 87.6902 172.864 87.8419C173.228 87.9329 173.622 87.9025 174.016 87.9025C174.401 87.9025 174.795 87.9025 175.199 87.9025C175.968 87.9025 176.746 87.9025 177.535 87.9025C183.693 87.9329 189.425 87.9329 194.643 87.9329C205.108 87.9632 213.601 87.9632 219.455 87.9935C222.367 87.9935 224.642 87.9935 226.189 88.0239C226.957 88.0239 227.544 88.0239 227.948 88.0239C228.353 88.0441 228.555 88.0542 228.555 88.0542C228.555 88.0542 228.353 88.0542 227.948 88.0542C227.544 88.0542 226.957 88.0643 226.189 88.0845C224.642 88.0845 222.367 88.0845 219.455 88.1149C213.601 88.1149 205.108 88.1452 194.643 88.1452C189.425 88.1755 183.693 88.1755 177.535 88.1755C176.746 88.1755 175.968 88.1755 175.199 88.1755C174.795 88.1755 174.401 88.1755 174.016 88.1755C173.622 88.1755 173.197 88.2059 172.803 88.1149C171.984 87.9329 171.226 87.5082 170.68 86.8712C170.134 86.2342 169.8 85.4152 169.8 84.5659C169.8 81.2697 169.8 77.8927 169.8 74.4347C169.8 67.5188 169.77 60.2389 169.77 52.686C169.77 48.9247 169.77 45.1027 169.77 41.2201C169.77 39.2586 169.77 37.297 169.77 35.3355C169.709 34.3345 170.043 33.2425 170.74 32.4842C171.438 31.7259 172.469 31.2405 173.531 31.2709C189.516 31.2709 204.713 31.2709 218.575 31.2709C222.033 31.2709 225.41 31.281 228.707 31.3012C230.436 31.3315 231.952 32.6965 232.195 34.3345C232.286 34.7592 232.256 35.1535 232.256 35.5478C232.256 35.9523 232.256 36.3466 232.256 36.7308C232.256 37.5195 232.256 38.298 232.256 39.0664C232.256 45.224 232.256 50.957 232.256 56.1742C232.225 66.6695 232.195 75.1324 232.195 80.9866C232.165 82.4729 232.225 83.7469 232.165 84.8996C232.013 86.0219 231.376 86.8712 230.739 87.3262C230.132 87.8115 229.526 87.9329 229.162 87.9935C228.949 88.0542 228.798 88.0542 228.707 88.0542C228.606 88.0542 228.555 88.0542 228.555 88.0542Z" fill="#263238"/>
<path d="M382.77 160.677L381.951 155.126C379.221 152.639 377.158 149.302 376.278 145.359C374.276 136.289 379.372 126.977 388.108 123.853C398.695 120.031 410.16 126.34 412.617 137.29C414.68 146.451 409.432 155.854 400.545 158.918C396.147 160.434 391.597 160.222 387.623 158.645H387.653L382.77 160.677Z" fill="white"/>
<path d="M384.559 140.9L387.35 138.079L392.78 142.902L401.819 133.832L404.397 136.623L392.355 148.301L384.559 140.9Z" fill="#D90452"/>
<path d="M382.77 160.677C382.77 160.677 382.861 160.616 383.073 160.525C383.316 160.424 383.629 160.283 384.013 160.101C384.863 159.767 386.076 159.251 387.623 158.584L387.593 158.705C387.562 158.675 387.562 158.645 387.562 158.614C387.593 158.584 387.623 158.584 387.653 158.584C389.807 159.403 392.901 160.131 396.571 159.706C397.481 159.615 398.422 159.433 399.362 159.16C399.847 159.039 400.302 158.827 400.787 158.675C401.273 158.523 401.758 158.311 402.243 158.068C404.154 157.189 406.035 155.884 407.703 154.186C409.341 152.487 410.737 150.364 411.647 147.937C412.587 145.541 413.042 142.811 412.83 140.051C412.678 137.29 411.768 134.469 410.282 131.952C409.584 130.678 408.613 129.525 407.612 128.433C406.52 127.402 405.368 126.401 404.033 125.642C402.759 124.823 401.364 124.247 399.969 123.762C398.543 123.367 397.087 123.034 395.631 122.973C392.749 122.791 389.868 123.246 387.35 124.338C384.802 125.4 382.588 127.007 380.859 128.918C379.13 130.799 377.856 132.983 377.067 135.197C375.49 139.656 375.823 144.145 377.067 147.573C378.28 151.061 380.313 153.518 382.042 155.096C382.284 156.885 382.466 158.25 382.588 159.221C382.648 159.666 382.689 160.02 382.709 160.283C382.739 160.525 382.77 160.677 382.77 160.677C382.77 160.677 382.749 160.556 382.709 160.313C382.669 160.07 382.608 159.727 382.527 159.282C382.375 158.311 382.163 156.946 381.89 155.156L381.92 155.187C380.161 153.609 378.098 151.152 376.824 147.664C375.55 144.206 375.186 139.656 376.794 135.106C377.583 132.862 378.857 130.617 380.616 128.676C382.375 126.765 384.62 125.127 387.198 124.035C389.777 122.912 392.719 122.427 395.661 122.609C397.148 122.67 398.634 123.003 400.09 123.398C401.515 123.913 402.941 124.49 404.245 125.309C405.58 126.097 406.763 127.129 407.855 128.16C408.886 129.282 409.887 130.465 410.615 131.77C412.132 134.348 413.012 137.199 413.194 140.02C413.376 142.841 412.921 145.601 411.98 148.058C411.01 150.515 409.584 152.669 407.916 154.398C406.217 156.127 404.306 157.431 402.365 158.311C401.879 158.554 401.394 158.766 400.878 158.918C400.393 159.1 399.908 159.282 399.422 159.403C398.452 159.676 397.511 159.858 396.602 159.949C392.871 160.343 389.777 159.585 387.623 158.705L387.684 158.584C387.714 158.614 387.744 158.675 387.714 158.705C387.694 158.705 387.684 158.715 387.684 158.736C386.076 159.342 384.863 159.858 384.013 160.192C383.609 160.333 383.295 160.455 383.073 160.556C382.871 160.637 382.77 160.677 382.77 160.677Z" fill="#263238"/>
<path d="M89.587 147.557L89.7083 142.006C94.5312 136.485 96.1692 127.992 91.3159 118.801C74.3295 100.814 48.7285 119.135 60.2853 141.005C68.0506 149.255 77.5751 149.923 84.5517 146.131V146.162L89.587 147.557Z" fill="white"/>
<path d="M89.587 147.557C89.587 147.557 89.4657 147.496 89.2534 147.435C89.0107 147.375 88.6872 147.284 88.2827 147.162C87.4031 146.889 86.1594 146.525 84.5518 146.07L84.5821 146.192C84.6023 146.192 84.6124 146.192 84.6124 146.192C84.6428 146.161 84.6428 146.131 84.6124 146.101C84.5821 146.07 84.5518 146.07 84.5214 146.07C82.4891 147.132 79.5468 148.224 75.9069 148.224C74.9969 148.224 74.0566 148.163 73.0859 148.012C72.6006 147.951 72.1153 147.799 71.6299 147.708C71.1143 147.617 70.6289 147.466 70.1436 147.284C68.1416 146.647 66.1397 145.615 64.3197 144.129C62.4997 142.643 60.8921 140.732 59.7091 138.457C58.4958 136.182 57.7374 133.573 57.5858 130.843C57.4644 128.083 57.9801 125.232 59.1631 122.562C59.7091 121.228 60.4977 119.984 61.3774 118.801C62.3177 117.648 63.3187 116.526 64.532 115.616C65.715 114.676 67.0193 113.948 68.3236 113.311C69.6886 112.734 71.0536 112.249 72.4793 112.037C75.3002 111.491 78.1819 111.643 80.8208 112.401C83.4295 113.159 85.7954 114.463 87.7064 116.132C89.6477 117.77 91.134 119.772 92.1653 121.865C94.2583 126.051 94.4403 130.51 93.6517 134.028C92.8327 137.577 91.1644 140.246 89.6477 141.975C89.6174 143.765 89.587 145.16 89.587 146.101C89.587 146.566 89.587 146.92 89.587 147.162C89.587 147.405 89.587 147.557 89.587 147.557C89.587 147.557 89.5972 147.435 89.6174 147.193C89.6174 146.95 89.6275 146.606 89.6477 146.161C89.678 145.191 89.7387 143.795 89.7994 142.006L89.769 142.066C91.316 140.307 93.045 137.668 93.864 134.059C94.7133 130.51 94.5617 125.99 92.4383 121.743C91.407 119.59 89.8904 117.557 87.9187 115.889C85.9774 114.19 83.5811 112.825 80.9118 112.067C78.2425 111.279 75.3002 111.127 72.4186 111.673C70.9626 111.885 69.5673 112.401 68.172 112.977C66.8373 113.644 65.5027 114.372 64.3197 115.343C63.076 116.283 62.0447 117.406 61.1044 118.589C60.1944 119.802 59.3754 121.046 58.8294 122.441C57.6464 125.141 57.1004 128.053 57.2521 130.843C57.4038 133.634 58.1924 136.303 59.4057 138.609C60.6191 140.914 62.2874 142.855 64.1377 144.341C65.988 145.858 68.0506 146.889 70.0526 147.557C70.5683 147.708 71.0536 147.89 71.5693 147.981C72.0849 148.072 72.5703 148.194 73.0556 148.254C74.0262 148.406 74.9969 148.467 75.9069 148.467C79.6075 148.436 82.5801 147.314 84.5821 146.192L84.4911 146.101C84.4608 146.131 84.4608 146.161 84.4911 146.192C84.5113 146.212 84.5214 146.222 84.5214 146.222C86.1594 146.647 87.4334 146.98 88.3131 147.223C88.7175 147.324 89.0309 147.405 89.2534 147.466C89.4758 147.526 89.587 147.557 89.587 147.557Z" fill="#263238"/>
<path d="M81.943 128.568C80.123 130.965 82.853 133.695 85.2493 131.844C87.0693 129.448 84.3697 126.748 81.943 128.568Z" fill="#263238"/>
<path d="M74.1475 128.568C72.3275 130.965 75.0272 133.695 77.4235 131.844C79.2738 129.448 76.5438 126.748 74.1475 128.568Z" fill="#263238"/>
<path d="M66.3518 128.568C64.5319 130.965 67.2315 133.695 69.6278 131.844C71.4781 129.448 68.7482 126.748 66.3518 128.568Z" fill="#263238"/>
<path d="M328.95 266.138H141.159C136.033 266.138 131.877 261.982 131.877 256.856V119.053C131.877 113.927 136.033 109.771 141.159 109.771H328.95C334.077 109.771 338.232 113.927 338.232 119.053V256.856C338.232 261.982 334.077 266.138 328.95 266.138Z" fill="white"/>
<path d="M338.323 130.883H131.877V118.932C131.877 113.866 135.972 109.771 141.007 109.771H328.768C334.046 109.771 338.323 114.048 338.323 119.326V130.883Z" fill="#D2D9E0"/>
<path d="M329.405 266.107C329.557 266.077 329.769 266.077 329.982 266.047C330.204 266.027 330.467 265.986 330.77 265.925C331.074 265.865 331.407 265.784 331.771 265.683C332.105 265.531 332.499 265.44 332.894 265.228C333.713 264.833 334.592 264.287 335.442 263.438C336.291 262.619 337.049 261.527 337.565 260.162C337.626 260 337.696 259.828 337.777 259.646C337.808 259.464 337.868 259.282 337.899 259.1C338.02 258.736 338.05 258.342 338.111 257.948C338.202 257.159 338.202 256.34 338.202 255.491C338.172 252.033 338.172 248.029 338.172 243.54C338.172 225.583 338.141 199.618 338.111 167.525C338.111 159.487 338.111 151.085 338.111 142.319C338.111 137.951 338.111 133.492 338.111 128.942C338.111 126.657 338.111 124.351 338.111 122.026C338.111 120.873 338.141 119.721 338.081 118.568C338.02 117.415 337.747 116.263 337.262 115.201C336.261 113.108 334.441 111.379 332.226 110.53C331.134 110.105 329.951 109.893 328.738 109.923C327.545 109.923 326.332 109.923 325.098 109.923C320.225 109.923 315.28 109.923 310.265 109.923C300.195 109.923 289.851 109.923 279.235 109.923C236.799 109.923 190.147 109.923 141.159 109.923C139.673 109.953 138.186 110.317 136.852 111.015C135.517 111.743 134.395 112.774 133.545 114.018C132.726 115.262 132.211 116.718 132.089 118.204C132.029 118.932 132.029 119.69 132.029 120.449V122.723C132.029 128.77 132.029 134.776 132.029 140.741C132.029 152.662 132.029 164.431 132.029 175.958C132.029 199.072 132.029 221.336 132.029 242.569C132.029 245.218 132.029 247.857 132.029 250.486C132.029 251.78 132.029 253.084 132.029 254.399C132.029 255.703 131.938 257.008 132.15 258.251C132.514 260.769 134 263.074 136.093 264.469C137.155 265.167 138.338 265.622 139.551 265.834C140.795 266.077 142.039 265.986 143.313 265.986C153.353 265.986 163.12 265.986 172.554 266.016C191.421 266.016 209.014 266.016 225.06 266.016C257.152 266.047 283.117 266.047 301.074 266.077C310.053 266.077 317.029 266.107 321.761 266.107C324.097 266.107 325.917 266.107 327.13 266.107C328.344 266.138 328.95 266.138 328.95 266.138C328.95 266.138 328.344 266.138 327.13 266.138C325.917 266.168 324.097 266.168 321.761 266.168C317.029 266.168 310.053 266.168 301.074 266.198C283.117 266.198 257.152 266.229 225.06 266.259C209.014 266.259 191.421 266.259 172.554 266.259C163.12 266.259 153.353 266.259 143.313 266.259C142.069 266.259 140.795 266.35 139.521 266.107C138.247 265.895 137.034 265.41 135.942 264.712C133.788 263.286 132.241 260.89 131.847 258.282C131.665 256.977 131.756 255.703 131.725 254.399C131.725 253.084 131.725 251.78 131.725 250.486C131.725 247.857 131.725 245.218 131.725 242.569C131.725 221.336 131.725 199.072 131.725 175.958C131.725 164.431 131.725 152.662 131.725 140.741C131.725 134.776 131.725 128.77 131.725 122.723V120.449C131.725 119.69 131.695 118.932 131.756 118.174C131.907 116.627 132.453 115.14 133.303 113.836C134.152 112.562 135.335 111.47 136.7 110.742C138.065 110.014 139.612 109.62 141.159 109.62C190.147 109.62 236.799 109.62 279.235 109.62C289.851 109.62 300.195 109.62 310.265 109.65C315.28 109.65 320.225 109.65 325.098 109.65C326.332 109.65 327.545 109.65 328.738 109.65C329.982 109.65 331.195 109.832 332.317 110.287C334.592 111.136 336.473 112.926 337.474 115.11C337.99 116.172 338.293 117.355 338.354 118.538C338.384 119.721 338.354 120.873 338.354 122.026C338.354 124.351 338.354 126.657 338.354 128.942C338.354 133.492 338.354 137.951 338.354 142.319C338.354 151.085 338.354 159.487 338.354 167.525C338.323 199.618 338.323 225.583 338.293 243.54C338.293 248.029 338.293 252.033 338.293 255.491C338.293 256.34 338.293 257.19 338.202 257.978C338.141 258.373 338.111 258.767 337.99 259.131C337.929 259.313 337.899 259.495 337.838 259.677C337.777 259.859 337.717 260.031 337.656 260.192C337.14 261.557 336.321 262.68 335.472 263.499C334.623 264.318 333.743 264.894 332.924 265.258C332.53 265.47 332.105 265.592 331.771 265.713C331.407 265.814 331.074 265.895 330.77 265.956C330.487 266.016 330.224 266.057 329.982 266.077C329.769 266.107 329.557 266.107 329.405 266.107Z" fill="#263238"/>
<path d="M145.405 121.601C145.405 122.936 144.313 124.028 142.979 124.028C141.644 124.028 140.583 122.936 140.583 121.601C140.583 120.267 141.644 119.175 142.979 119.175C144.313 119.175 145.405 120.267 145.405 121.601Z" fill="white"/>
<path d="M152.655 121.601C152.655 122.936 151.593 124.028 150.228 124.028C148.894 124.028 147.832 122.936 147.832 121.601C147.832 120.267 148.894 119.175 150.228 119.175C151.593 119.175 152.655 120.267 152.655 121.601Z" fill="white"/>
<path d="M159.904 121.601C159.904 122.936 158.843 124.028 157.508 124.028C156.174 124.028 155.082 122.936 155.082 121.601C155.082 120.267 156.174 119.175 157.508 119.175C158.843 119.175 159.904 120.267 159.904 121.601Z" fill="white"/>
<path fill-rule="evenodd" clip-rule="evenodd" d="M154.293 156.272C155.355 155.635 156.477 155.149 157.63 154.816L158.297 151.54L163.848 151.418L164.667 154.694C165.82 154.967 166.972 155.422 168.034 156.029L170.825 154.179L174.828 158.031L173.099 160.913C173.736 161.974 174.222 163.097 174.555 164.249L177.831 164.917L177.922 170.468L174.677 171.287C174.373 172.439 173.949 173.592 173.342 174.654L175.192 177.474L171.31 181.448L168.459 179.719C167.397 180.356 166.275 180.841 165.122 181.175L164.424 184.451L158.873 184.542L158.085 181.296C156.902 180.993 155.779 180.568 154.718 179.962L151.897 181.812L147.893 177.929L149.652 175.078C149.015 174.017 148.53 172.894 148.196 171.742L144.92 171.074L144.799 165.493L148.075 164.704C148.348 163.552 148.803 162.399 149.409 161.337L147.559 158.516L151.411 154.512L154.293 156.272ZM157.266 163.673C154.991 166.069 155.051 169.831 157.417 172.106C159.783 174.411 163.545 174.35 165.85 171.954C168.125 169.588 168.064 165.827 165.698 163.552C163.332 161.246 159.541 161.307 157.266 163.673Z" fill="#D2D9E0"/>
<path fill-rule="evenodd" clip-rule="evenodd" d="M310.053 218.94C310.659 218.545 311.357 218.242 312.055 218.06L312.449 216.058L315.816 215.997L316.301 217.969C316.999 218.151 317.697 218.424 318.334 218.788L320.032 217.666L322.459 220.001L321.397 221.73C321.792 222.367 322.065 223.035 322.277 223.732L324.249 224.157L324.309 227.524L322.338 228.009C322.186 228.707 321.913 229.374 321.549 230.041L322.641 231.74L320.336 234.136L318.576 233.105C317.939 233.469 317.272 233.772 316.574 233.985L316.18 235.956L312.813 236.017L312.328 234.045C311.63 233.863 310.932 233.59 310.295 233.257L308.597 234.349L306.17 232.013L307.232 230.284C306.837 229.647 306.564 228.98 306.352 228.282L304.38 227.858L304.32 224.521L306.291 224.036C306.443 223.338 306.716 222.64 307.08 222.003L305.958 220.305L308.293 217.878L310.053 218.94ZM311.842 223.399C310.477 224.855 310.508 227.13 311.933 228.495C313.359 229.89 315.664 229.859 317.029 228.404C318.425 226.978 318.364 224.703 316.938 223.308C315.513 221.943 313.238 221.973 311.842 223.399Z" fill="#D2D9E0"/>
<path fill-rule="evenodd" clip-rule="evenodd" d="M222.178 217.848C223.24 217.211 224.362 216.725 225.515 216.392L226.213 213.116L231.763 213.025L232.552 216.27C233.735 216.574 234.857 216.998 235.919 217.605L238.74 215.755L242.744 219.637L240.985 222.489C241.622 223.55 242.107 224.673 242.441 225.825L245.717 226.492L245.838 232.074L242.562 232.862C242.289 234.015 241.834 235.168 241.227 236.229L243.078 239.05L239.225 243.054L236.344 241.295C235.282 241.932 234.19 242.417 233.007 242.751L232.34 246.027L226.789 246.148L225.97 242.872C224.817 242.569 223.695 242.144 222.603 241.538L219.812 243.388L215.808 239.536L217.537 236.654C216.9 235.592 216.415 234.47 216.081 233.317L212.805 232.65L212.714 227.099L215.96 226.28C216.263 225.128 216.688 223.975 217.295 222.913L215.444 220.092L219.327 216.119L222.178 217.848ZM225.121 225.249C222.846 227.615 222.906 231.376 225.272 233.681C227.638 235.956 231.43 235.896 233.705 233.53C236.01 231.164 235.919 227.372 233.553 225.097C231.187 222.792 227.426 222.883 225.121 225.249Z" fill="#D2D9E0" fill-opacity="0.5"/>
<path fill-rule="evenodd" clip-rule="evenodd" d="M252.997 238.565C253.603 238.201 254.23 237.918 254.877 237.716L255.272 235.835L258.456 235.774L258.942 237.655C259.609 237.817 260.246 238.07 260.853 238.413L262.491 237.352L264.766 239.566L263.765 241.234C264.129 241.821 264.412 242.448 264.614 243.115L266.495 243.509L266.555 246.694L264.675 247.18C264.513 247.847 264.26 248.484 263.916 249.091L264.978 250.698L262.764 253.004L261.095 252.003C260.489 252.367 259.852 252.64 259.184 252.822L258.79 254.733L255.605 254.763L255.15 252.913C254.483 252.751 253.836 252.498 253.209 252.154L251.601 253.216L249.326 250.971L250.327 249.333C249.963 248.727 249.68 248.09 249.478 247.422L247.597 247.028L247.537 243.843L249.417 243.388C249.579 242.721 249.832 242.074 250.176 241.447L249.114 239.839L251.328 237.564L252.997 238.565ZM254.695 242.812C253.391 244.146 253.421 246.33 254.786 247.635C256.151 248.939 258.305 248.909 259.639 247.544C260.944 246.209 260.913 244.025 259.548 242.721C258.183 241.416 256.03 241.447 254.695 242.812Z" fill="#D2D9E0" fill-opacity="0.5"/>
<path fill-rule="evenodd" clip-rule="evenodd" d="M183.837 237.503C184.222 237.281 184.616 237.109 185.02 236.988L185.263 235.805L187.295 235.774L187.568 236.957C187.993 237.058 188.397 237.21 188.782 237.412L189.813 236.745L191.269 238.171L190.632 239.202C190.854 239.586 191.026 239.981 191.148 240.385L192.331 240.658L192.361 242.66L191.208 242.933C191.087 243.358 190.925 243.772 190.723 244.177L191.39 245.178L189.995 246.634L188.933 245.997C188.569 246.219 188.175 246.391 187.75 246.512L187.508 247.695L185.475 247.756L185.202 246.573C184.778 246.472 184.373 246.31 183.989 246.088L182.958 246.755L181.502 245.36L182.139 244.328C181.916 243.944 181.744 243.54 181.623 243.115L180.44 242.872L180.41 240.84L181.562 240.567C181.684 240.142 181.845 239.738 182.048 239.354L181.38 238.322L182.776 236.897L183.837 237.503ZM184.929 240.173C184.08 241.022 184.11 242.387 184.96 243.206C185.839 244.055 187.204 244.025 188.023 243.176C188.842 242.296 188.812 240.931 187.963 240.112C187.113 239.293 185.748 239.323 184.929 240.173Z" fill="#D2D9E0" fill-opacity="0.5"/>
<path fill-rule="evenodd" clip-rule="evenodd" d="M281.934 154.603C282.965 153.966 284.088 153.481 285.24 153.178L285.938 149.872L291.489 149.781L292.278 153.056C293.461 153.329 294.583 153.784 295.645 154.361L298.466 152.541L302.47 156.393L300.741 159.275C301.347 160.306 301.833 161.428 302.166 162.581L305.473 163.279L305.564 168.83L302.288 169.618C302.015 170.801 301.56 171.924 300.953 172.985L302.803 175.806L298.951 179.81L296.069 178.051C295.038 178.688 293.916 179.173 292.763 179.507L292.065 182.813L286.514 182.904L285.726 179.628C284.543 179.355 283.42 178.9 282.328 178.294L279.538 180.144L275.534 176.292L277.263 173.41C276.626 172.379 276.141 171.256 275.837 170.104L272.531 169.406L272.44 163.855L275.716 163.036C275.989 161.883 276.444 160.761 277.02 159.669L275.2 156.878L279.053 152.874L281.934 154.603ZM284.907 162.005C282.601 164.371 282.662 168.162 285.028 170.437C287.424 172.712 291.186 172.652 293.461 170.286C295.766 167.92 295.705 164.128 293.339 161.853C290.943 159.578 287.182 159.639 284.907 162.005Z" fill="#D2D9E0" fill-opacity="0.4"/>
<path fill-rule="evenodd" clip-rule="evenodd" d="M163.818 226.371C164.364 226.048 164.94 225.805 165.547 225.643L165.911 223.914L168.823 223.854L169.217 225.552C169.844 225.714 170.44 225.946 171.007 226.25L172.463 225.279L174.555 227.311L173.646 228.828C173.989 229.374 174.242 229.95 174.404 230.557L176.133 230.921L176.163 233.833L174.464 234.258C174.323 234.864 174.09 235.451 173.767 236.017L174.738 237.473L172.705 239.566L171.219 238.656C170.653 239 170.066 239.253 169.46 239.414L169.126 241.143L166.214 241.204L165.789 239.475C165.183 239.333 164.596 239.101 164.03 238.777L162.544 239.748L160.451 237.746L161.361 236.229C161.037 235.683 160.784 235.107 160.602 234.5L158.904 234.136L158.843 231.224L160.542 230.8C160.703 230.193 160.936 229.607 161.239 229.04L160.269 227.554L162.301 225.461L163.818 226.371ZM165.365 230.254C164.182 231.497 164.212 233.469 165.456 234.682C166.699 235.865 168.671 235.835 169.854 234.591C171.067 233.348 171.007 231.376 169.793 230.193C168.55 228.98 166.578 229.01 165.365 230.254Z" fill="#D2D9E0" fill-opacity="0.4"/>
<path d="M160.663 230.588C156.174 229.496 152.493 228.03 149.622 226.189L155.81 211.751C158.54 213.369 161.583 214.673 164.94 215.664C168.317 216.634 171.553 217.12 174.647 217.12C177.316 217.12 179.217 216.857 180.349 216.331C181.502 215.785 182.078 214.986 182.078 213.935C182.078 212.701 181.33 211.781 179.833 211.174C178.337 210.548 175.87 209.87 172.432 209.142C168.044 208.192 164.384 207.171 161.452 206.079C158.519 204.987 155.961 203.197 153.777 200.71C151.614 198.222 150.532 194.845 150.532 190.578C150.532 186.898 151.533 183.541 153.535 180.508C155.537 177.495 158.54 175.119 162.544 173.38C166.527 171.641 171.381 170.771 177.103 170.771C181.006 170.771 184.849 171.206 188.63 172.075C192.412 172.945 195.738 174.219 198.61 175.897L192.816 190.245C187.235 187.333 181.937 185.877 176.921 185.877C171.987 185.877 169.52 187.11 169.52 189.577C169.52 190.75 170.248 191.63 171.704 192.216C173.18 192.803 175.597 193.44 178.954 194.127C183.302 194.956 186.972 195.917 189.965 197.009C192.958 198.101 195.556 199.881 197.76 202.348C199.964 204.815 201.067 208.172 201.067 212.418C201.067 216.119 200.055 219.466 198.033 222.458C196.031 225.451 193.028 227.827 189.024 229.587C185.041 231.346 180.197 232.226 174.495 232.226C169.763 232.226 165.152 231.68 160.663 230.588Z" fill="#D90452"/>
<path d="M254.21 215.937V230.891H206.769V172.136H253.148V187.06H225.666V193.945H249.812V208.232H225.666V215.937H254.21Z" fill="#D90452"/>
<path d="M291.368 201.043L270.135 178.809C272.683 176.231 275.655 174.138 278.901 172.621C294.037 165.584 312.146 172.621 318.971 188.212C325.826 203.803 318.971 222.428 303.835 229.465C288.698 236.502 270.62 229.465 263.765 213.874C263.259 212.721 262.824 211.538 262.46 210.325L291.368 201.043Z" fill="#D90452"/>
<path d="M291.368 201.104L262.46 210.386C261.55 207.383 261.095 204.259 261.095 201.104C261.095 192.58 264.493 184.421 270.468 178.536L291.368 201.104Z" fill="#D90452"/>
<g opacity="0.3">
<path d="M291.368 201.104L262.46 210.386C261.55 207.383 261.095 204.259 261.095 201.104C261.095 192.58 264.493 184.421 270.468 178.536L291.368 201.104Z" fill="black"/>
</g>
<path d="M291.368 201.104L268.952 221.973C268.952 221.973 264.25 216.938 262.46 210.386L291.368 201.104Z" fill="#E0E0E0"/>
<path fill-rule="evenodd" clip-rule="evenodd" d="M202.432 144.047C202.998 143.704 203.584 143.451 204.191 143.289L204.555 141.56L207.467 141.5L207.861 143.198C208.488 143.36 209.085 143.592 209.651 143.896L211.107 142.955L213.2 144.957L212.29 146.474C212.613 147.02 212.866 147.596 213.048 148.203L214.777 148.567L214.807 151.479L213.109 151.904C212.967 152.51 212.735 153.097 212.411 153.663L213.382 155.119L211.349 157.212L209.863 156.302C209.297 156.646 208.711 156.899 208.104 157.06L207.77 158.789L204.858 158.85L204.434 157.121C203.827 156.979 203.24 156.757 202.674 156.454L201.188 157.394L199.095 155.392L200.005 153.875C199.681 153.329 199.429 152.753 199.247 152.146L197.518 151.782L197.487 148.87L199.186 148.446C199.348 147.839 199.58 147.253 199.884 146.686L198.913 145.2L200.945 143.107L202.432 144.047ZM203.979 147.93C202.765 149.174 202.826 151.145 204.07 152.359C205.283 153.542 207.285 153.511 208.468 152.268C209.681 151.024 209.62 149.052 208.377 147.869C207.164 146.656 205.162 146.686 203.979 147.93Z" fill="#D2D9E0"/>
<path d="M258.366 155.453L258.244 157.06C258.123 158.456 256.394 159.426 254.786 159.062L224.726 155.999L225.272 151.236L255.636 152.298C257.668 152.268 258.487 153.633 258.366 155.453Z" fill="#455A64"/>
<path fill-rule="evenodd" clip-rule="evenodd" d="M213.533 169.102C210.045 170.467 206.132 170.801 202.25 169.8C197.457 168.587 193.423 165.584 190.905 161.368C188.387 157.121 187.659 152.146 188.873 147.354C191.36 137.496 201.431 131.49 211.319 133.977C216.112 135.19 220.116 138.193 222.664 142.44C225.181 146.686 225.909 151.631 224.696 156.423C223.179 162.429 218.872 166.979 213.533 169.102ZM200.49 135.858C195.485 137.799 191.481 142.076 190.056 147.657C188.933 152.146 189.601 156.757 191.967 160.731C194.333 164.674 198.094 167.495 202.553 168.617C207.012 169.739 211.653 169.072 215.626 166.706C219.57 164.34 222.36 160.579 223.513 156.12C224.635 151.661 223.938 147.02 221.602 143.077C219.236 139.103 215.475 136.313 211.016 135.19C207.376 134.25 203.736 134.584 200.49 135.858Z" fill="#263238"/>
<path fill-rule="evenodd" clip-rule="evenodd" d="M213.412 168.011C209.954 169.376 206.041 169.709 202.159 168.708C197.366 167.495 193.332 164.492 190.814 160.245C188.266 156.029 187.538 151.054 188.751 146.262C191.269 136.373 201.34 130.367 211.198 132.885C215.99 134.098 220.025 137.101 222.542 141.318C225.09 145.564 225.788 150.539 224.605 155.331C223.088 161.307 218.781 165.887 213.412 168.011ZM200.399 134.735C195.394 136.707 191.39 140.984 189.965 146.565C188.842 151.024 189.51 155.665 191.876 159.639C194.211 163.582 197.973 166.373 202.462 167.525C206.921 168.648 211.562 167.95 215.505 165.614C219.448 163.248 222.269 159.487 223.392 155.028C224.514 150.569 223.847 145.928 221.481 141.954C219.115 138.011 215.384 135.221 210.895 134.068C207.285 133.158 203.615 133.461 200.399 134.735Z" fill="#455A64"/>
<path d="M216.567 139.043C216.567 139.043 216.486 138.982 216.324 138.861C216.173 138.739 215.96 138.527 215.627 138.345C215.02 137.89 214.08 137.344 212.806 136.828C212.199 136.586 211.501 136.373 210.713 136.191C209.954 136.009 209.135 135.858 208.225 135.797C207.346 135.706 206.405 135.676 205.465 135.767C204.494 135.827 203.493 135.979 202.492 136.222C201.491 136.464 200.551 136.828 199.702 137.253C198.822 137.678 198.033 138.163 197.305 138.679C195.88 139.74 194.788 140.923 193.999 142.015C193.21 143.107 192.695 144.078 192.391 144.775C192.24 145.109 192.149 145.382 192.058 145.564C191.977 145.746 191.936 145.837 191.936 145.837C191.916 145.837 191.947 145.736 192.027 145.534C192.088 145.352 192.179 145.079 192.331 144.745C192.604 144.017 193.089 143.047 193.878 141.924C194.666 140.832 195.758 139.619 197.214 138.527C197.942 138.011 198.731 137.496 199.611 137.071C200.49 136.646 201.431 136.282 202.462 136.04C203.463 135.767 204.464 135.645 205.435 135.554C206.405 135.494 207.346 135.524 208.256 135.615C209.135 135.676 209.985 135.858 210.773 136.009C211.532 136.222 212.26 136.464 212.866 136.707C214.14 137.223 215.081 137.799 215.657 138.284C215.991 138.497 216.203 138.709 216.355 138.83C216.496 138.952 216.567 139.022 216.567 139.043Z" fill="white"/>
<path d="M216.081 163.491C216.051 163.43 216.84 162.975 217.871 162.005C218.013 161.883 218.154 161.752 218.296 161.61C218.417 161.489 218.569 161.307 218.69 161.155C218.993 160.852 219.266 160.488 219.539 160.124C220.116 159.335 220.631 158.456 221.086 157.455C221.541 156.454 221.845 155.453 222.027 154.543C222.118 154.057 222.209 153.633 222.239 153.208C222.269 152.996 222.3 152.783 222.3 152.601C222.32 152.399 222.33 152.207 222.33 152.025C222.36 150.599 222.178 149.72 222.209 149.72C222.239 149.72 222.269 149.932 222.33 150.326C222.391 150.539 222.421 150.781 222.421 151.054C222.451 151.358 222.482 151.661 222.451 152.025C222.451 152.207 222.451 152.399 222.451 152.601C222.451 152.814 222.421 152.996 222.421 153.208C222.391 153.633 222.3 154.088 222.209 154.573C222.027 155.513 221.723 156.514 221.268 157.546C220.813 158.547 220.267 159.457 219.691 160.215C219.388 160.609 219.115 160.973 218.811 161.277C218.66 161.428 218.538 161.58 218.387 161.732C218.245 161.853 218.114 161.974 217.992 162.096C217.719 162.369 217.446 162.551 217.234 162.733C216.991 162.915 216.809 163.066 216.627 163.157C216.294 163.37 216.081 163.491 216.081 163.491Z" fill="white"/>
<path d="M214.929 146.14C214.929 146.201 211.532 146.565 207.346 146.929C203.16 147.293 199.762 147.566 199.762 147.505C199.762 147.445 203.129 147.111 207.315 146.747C211.501 146.353 214.899 146.11 214.929 146.14Z" fill="white"/>
<path d="M216.87 151.418C216.87 151.418 216.789 151.428 216.627 151.449C216.445 151.449 216.213 151.459 215.93 151.479C215.293 151.509 214.443 151.57 213.351 151.6C211.198 151.722 208.195 151.873 204.889 152.086C201.552 152.298 198.579 152.51 196.395 152.662C195.334 152.753 194.454 152.814 193.817 152.874C193.534 152.894 193.301 152.905 193.119 152.905C192.958 152.925 192.877 152.925 192.877 152.905C192.877 152.905 192.958 152.894 193.119 152.874C193.301 152.854 193.534 152.824 193.817 152.783C194.424 152.723 195.303 152.632 196.395 152.541C198.549 152.328 201.552 152.086 204.858 151.873C208.165 151.661 211.167 151.54 213.351 151.479C214.443 151.418 215.323 151.418 215.93 151.388C216.213 151.388 216.445 151.388 216.627 151.388C216.789 151.388 216.87 151.398 216.87 151.418Z" fill="white"/>
<g opacity="0.3">
<path d="M189.813 148.84L223.24 146.777C223.24 146.777 224.089 149.811 223.907 151.813L189.692 153.906C189.692 153.906 189.207 151.327 189.813 148.84Z" fill="white"/>
</g>
<g opacity="0.3">
<path d="M190.693 157.212L223.392 155.028C223.392 155.028 223.604 154.937 222.937 156.363L191.239 158.456C191.239 158.456 190.845 158.001 190.693 157.212Z" fill="white"/>
</g>
<path d="M353.004 118.932H304.927C302.955 118.932 301.347 117.324 301.347 115.322V72.219C301.347 70.217 302.955 68.6094 304.927 68.6094H353.004C355.006 68.6094 356.614 70.217 356.614 72.219V115.322C356.614 117.324 355.006 118.932 353.004 118.932Z" fill="white"/>
<path d="M356.614 77.1936H301.347V72.31C301.347 70.2777 303.016 68.6094 305.048 68.6094H353.217C355.097 68.6094 356.614 70.126 356.614 72.0067V77.1936Z" fill="#D2D9E0" fill-opacity="0.5"/>
<path d="M309.294 73.7357C309.294 74.4333 308.688 75.0096 307.96 75.0096C307.201 75.0096 306.595 74.4333 306.595 73.7357C306.595 73.038 307.201 72.4617 307.96 72.4617C308.688 72.4617 309.294 73.038 309.294 73.7357Z" fill="white"/>
<path d="M312.995 73.7357C312.995 74.4333 312.388 75.0096 311.66 75.0096C310.902 75.0096 310.295 74.4333 310.295 73.7357C310.295 73.038 310.902 72.4617 311.66 72.4617C312.388 72.4617 312.995 73.038 312.995 73.7357Z" fill="white"/>
<path d="M316.695 73.7357C316.695 74.4333 316.089 75.0096 315.331 75.0096C314.603 75.0096 313.996 74.4333 313.996 73.7357C313.996 73.038 314.603 72.4617 315.331 72.4617C316.089 72.4617 316.695 73.038 316.695 73.7357Z" fill="white"/>
<path d="M353.004 118.932C353.004 118.901 353.186 118.901 353.55 118.871C353.884 118.81 354.4 118.689 354.976 118.295C355.522 117.931 356.129 117.294 356.402 116.323C356.553 115.868 356.553 115.322 356.553 114.746C356.553 114.18 356.553 113.563 356.553 112.896C356.523 107.709 356.523 100.216 356.493 90.9648C356.493 86.3239 356.493 81.2279 356.462 75.7983C356.462 75.1108 356.462 74.4232 356.462 73.7357C356.462 73.3919 356.462 73.038 356.462 72.674C356.462 72.3404 356.493 71.9764 356.432 71.6427C356.22 70.3081 355.128 69.1251 353.732 68.8521C353.065 68.7004 352.307 68.7914 351.579 68.7611C350.851 68.7611 350.113 68.7611 349.364 68.7611C347.868 68.7611 346.351 68.7611 344.814 68.7611C332.56 68.7611 319.092 68.7611 304.957 68.7914C304.108 68.7914 303.258 69.0948 302.652 69.6711C302.015 70.2474 301.62 71.0361 301.529 71.8551C301.499 73.584 301.529 75.3433 301.499 77.042C301.499 80.5 301.499 83.8972 301.499 87.2339C301.499 93.9071 301.499 100.338 301.499 106.465C301.499 109.518 301.499 112.501 301.499 115.413C301.499 116.839 302.47 118.113 303.744 118.568C304.381 118.841 305.078 118.78 305.776 118.78C306.463 118.78 307.151 118.78 307.838 118.78C313.298 118.78 318.364 118.811 323.005 118.811C332.287 118.841 339.779 118.841 344.966 118.871C347.544 118.871 349.577 118.871 350.942 118.901C351.609 118.901 352.125 118.901 352.489 118.901C352.832 118.901 353.004 118.912 353.004 118.932C353.004 118.932 352.832 118.932 352.489 118.932C352.125 118.932 351.609 118.942 350.942 118.962C349.577 118.962 347.544 118.962 344.966 118.993C339.779 118.993 332.287 119.023 323.005 119.023C318.364 119.023 313.298 119.053 307.838 119.053C307.151 119.053 306.463 119.053 305.776 119.053C305.109 119.053 304.35 119.114 303.653 118.841C302.288 118.356 301.226 116.96 301.226 115.413C301.226 112.521 301.216 109.539 301.196 106.465C301.196 100.338 301.196 93.9071 301.196 87.2339C301.196 83.8972 301.196 80.5 301.196 77.042C301.196 75.313 301.165 73.6144 301.226 71.8247C301.317 70.9147 301.742 70.0654 302.439 69.4284C303.107 68.8218 304.017 68.4578 304.957 68.4578C319.092 68.4578 332.56 68.4881 344.814 68.4881C346.351 68.4881 347.868 68.4881 349.364 68.4881C350.113 68.4881 350.851 68.4881 351.579 68.4881C351.943 68.4881 352.317 68.4881 352.701 68.4881C353.035 68.4881 353.429 68.4881 353.793 68.5791C355.279 68.8824 356.462 70.1564 356.675 71.6124C356.735 71.9764 356.735 72.3404 356.735 72.674C356.735 73.038 356.735 73.3919 356.735 73.7357C356.735 74.4232 356.735 75.1108 356.735 75.7983C356.735 81.2279 356.705 86.3239 356.705 90.9648C356.705 100.216 356.675 107.709 356.675 112.896C356.654 113.563 356.644 114.18 356.644 114.746C356.675 115.322 356.644 115.868 356.493 116.354C356.22 117.324 355.583 117.992 355.006 118.356C354.43 118.72 353.884 118.841 353.55 118.901C353.186 118.932 353.004 118.932 353.004 118.932Z" fill="#263238"/>
<path d="M349.728 114.503H308.081C306.595 114.503 305.382 113.29 305.382 111.804V83.7455C305.382 82.2592 306.595 81.0459 308.081 81.0459H349.728C351.215 81.0459 352.428 82.2592 352.428 83.7455V111.804C352.428 113.29 351.215 114.503 349.728 114.503Z" fill="#D90452"/>
<g opacity="0.3">
<path d="M309.325 112.41L320.821 96.0608C321.306 95.3632 322.368 95.3328 322.884 96.0002L330.801 105.798C331.256 106.374 332.165 106.435 332.711 105.919L337.322 101.46C337.868 100.944 338.748 101.005 339.233 101.581L348.272 112.319C349 113.169 348.394 114.473 347.302 114.473H310.386C309.355 114.473 308.718 113.29 309.325 112.41Z" fill="black"/>
</g>
<g opacity="0.3">
<path d="M335.593 91.8748C335.593 94.0588 333.803 95.8484 331.589 95.8484C329.375 95.8484 327.585 94.0588 327.585 91.8748C327.585 89.6605 329.375 87.8708 331.589 87.8708C333.803 87.8708 335.593 89.6605 335.593 91.8748Z" fill="black"/>
</g>
</svg>
