<svg xmlns="http://www.w3.org/2000/svg" xmlns:xlink="http://www.w3.org/1999/xlink" width="2008.754" height="864" viewBox="0 0 2008.754 864">
  <defs>
    <linearGradient id="linear-gradient" x1="0.5" x2="0.5" y2="1.428" gradientUnits="objectBoundingBox">
      <stop offset="0" stop-color="#d90452"/>
      <stop offset="0.97" stop-color="#740646"/>
      <stop offset="1" stop-color="#3a0323"/>
    </linearGradient>
    <clipPath id="clip-path">
      <rect id="Rectángulo_928" data-name="Rectángulo 928" width="1941" height="150" transform="translate(-10 6718)" fill="#fff"/>
    </clipPath>
  </defs>
  <g id="Grupo_785" data-name="Grupo 785" transform="translate(77.754 -6718)">
    <path id="Trazado_17" data-name="Trazado 17" d="M539.876,386.443s241.564,46.983,477.142-26.1,483.006,40.023,540.789,48.725,158.532,17.4,337.808-26.1S2248.022,330.4,2480.4,401.337V1173.5H539.876Z" transform="translate(-549.64 6408.504)" fill="url(#linear-gradient)"/>
    <g id="Grupo_33" data-name="Grupo 33" transform="translate(-3611.481 5500.806)">
      <path id="Trazado_24" data-name="Trazado 24" d="M5034.752,1381.324q75.27,3.975,150.54,7.96c58.9,3.12,118.74,6.41,174.37,26s107.48,58.08,129.1,112.95,4.93,126.3-46.32,155.49" fill="none" stroke="#fff" stroke-linecap="round" stroke-miterlimit="10" stroke-width="0.951" stroke-dasharray="4.509"/>
      <g id="Grupo_32" data-name="Grupo 32">
        <path id="Trazado_25" data-name="Trazado 25" d="M5046.852,1343.194c-.7,1.39-6.1,21.89-6.1,21.89l-46.27,26.31Z" fill="#fcb6e1"/>
        <path id="Trazado_26" data-name="Trazado 26" d="M5055.682,1381.824l-14.93-16.74-46.27,26.31Z" fill="#d35e8d"/>
        <path id="Trazado_27" data-name="Trazado 27" d="M5055.682,1381.824l-20.17-1.12-41.03,10.69Z" fill="#e09bc6"/>
        <path id="Trazado_28" data-name="Trazado 28" d="M5035.512,1380.7l-7.35,25.15-33.68-14.46Z" fill="#fcb6e1"/>
      </g>
    </g>
    <g id="Grupo_35" data-name="Grupo 35" transform="translate(-5337.643 5340.605)">
      <path id="Trazado_29" data-name="Trazado 29" d="M5943.892,1939.874c-24.8,42.69-70.35,70.67-118.36,82.18s-98.47,8.03-147.02-.93a668.048,668.048,0,0,1-184.12-62.84c-29.91-15.39-59.36-33.31-92.44-39.38-54.03-9.92-112.89,16.49-141.41,63.45" fill="none" stroke="#fff" stroke-linecap="round" stroke-miterlimit="10" stroke-width="0.951" stroke-dasharray="4.509"/>
      <g id="Grupo_34" data-name="Grupo 34">
        <path id="Trazado_30" data-name="Trazado 30" d="M6003.642,1909.014c-2.01-.38-67.32-2.62-67.32-2.62l-2.96,9.63Z" fill="#fcb6e1"/>
        <path id="Trazado_31" data-name="Trazado 31" d="M5933.362,1916.024l8.76,26.88,61.52-33.89Z" fill="#d35e8d"/>
        <path id="Trazado_32" data-name="Trazado 32" d="M5942.122,1942.9l61.52-33.89-74.42,18.13Z" fill="#e09bc6"/>
        <path id="Trazado_33" data-name="Trazado 33" d="M5929.222,1927.144l74.42-18.13-78.62,34.89Z" fill="#fcb6e1"/>
      </g>
    </g>
    <path id="Trazado_34" data-name="Trazado 34" d="M5788.6,2921.4a25.188,25.188,0,0,0,2.147-3.165l6.653,1.414,3.313-15.788-6.653-1.414a26.368,26.368,0,0,0-.689-3.769l5.69-3.725-8.756-13.522-5.69,3.725a25.013,25.013,0,0,0-3.146-2.159l1.4-6.695-15.692-3.333-1.405,6.694a25.73,25.73,0,0,0-3.746.694l-3.711-5.725-13.439,8.809,3.711,5.725a25.172,25.172,0,0,0-2.147,3.165l-6.653-1.414-3.313,15.788,6.653,1.414a26.471,26.471,0,0,0,.689,3.769l-5.69,3.734,8.756,13.521,5.69-3.725a25.088,25.088,0,0,0,3.146,2.16l-1.4,6.694,15.692,3.333,1.405-6.694a25.81,25.81,0,0,0,3.746-.694l3.7,5.725,13.439-8.809Zm-11.186-2.5a16.109,16.109,0,0,1-22.363-4.748,16.327,16.327,0,0,1,4.718-22.5,16.108,16.108,0,0,1,22.363,4.748A16.325,16.325,0,0,1,5777.411,2918.9Zm-53.668-48.733a16.96,16.96,0,0,0,1.352-1.991l4.188.889,2.085-9.929-4.188-.889a16.964,16.964,0,0,0-.433-2.373l3.579-2.347-5.5-8.508-3.579,2.347a15.681,15.681,0,0,0-1.979-1.36l.883-4.214-9.869-2.1-.884,4.214a16.7,16.7,0,0,0-2.359.436l-2.332-3.6-8.456,5.538,2.333,3.6a15.846,15.846,0,0,0-1.352,1.99l-4.188-.889-2.085,9.93,4.188.889a16.968,16.968,0,0,0,.433,2.374l-3.579,2.347,5.5,8.5,3.579-2.347a15.679,15.679,0,0,0,1.979,1.36l-.883,4.214,9.87,2.1.884-4.214a16.669,16.669,0,0,0,2.359-.436l2.333,3.6,8.447-5.538Zm-7.033-1.573a10.119,10.119,0,0,1-14.058-2.987,10.256,10.256,0,0,1,2.969-14.143,10.119,10.119,0,0,1,14.057,2.987A10.256,10.256,0,0,1,5716.71,2868.591Z" transform="translate(-5151.954 3930.309)" fill="#fff" opacity="0.63" style="isolation: isolate"/>
    <path id="Trazado_35" data-name="Trazado 35" d="M4552.814,2870.921a25.571,25.571,0,0,0,1.49,3.57l-4.89,4.89,11.53,11.53,4.89-4.89a26.583,26.583,0,0,0,3.57,1.49v6.9h16.3v-6.9a25.562,25.562,0,0,0,3.57-1.49l4.89,4.89,11.53-11.53-4.89-4.89a26.681,26.681,0,0,0,1.49-3.57h6.9v-16.3h-6.9a25.628,25.628,0,0,0-1.49-3.57l4.89-4.89-11.53-11.531-4.89,4.89a26.452,26.452,0,0,0-3.57-1.489v-6.9h-16.3v6.9a25.441,25.441,0,0,0-3.57,1.489l-4.89-4.89-11.53,11.531,4.89,4.89a26.62,26.62,0,0,0-1.49,3.57h-6.9v16.3Zm8.32-8.15a16.43,16.43,0,1,1,16.43,16.43A16.42,16.42,0,0,1,4561.134,2862.771Z" transform="translate(-2902.914 4496.87)" fill="#fff" opacity="0.63" style="isolation: isolate"/>
    <g id="Enmascarar_grupo_14" data-name="Enmascarar grupo 14" clip-path="url(#clip-path)">
      <path id="Trazado_22" data-name="Trazado 22" d="M539.876,41.009S967.717,189.227,1425.85,92.982s483.154-1.926,704.519,9.625,460.954-13.475,614.5-50.049" transform="translate(-681.372 6699.279)" fill="none" stroke="#d2d9e0" stroke-miterlimit="10" stroke-width="2"/>
    </g>
  </g>
</svg>
