<svg width="34" height="34" viewBox="0 0 34 34" fill="none" xmlns="http://www.w3.org/2000/svg">
<path fill-rule="evenodd" clip-rule="evenodd" d="M32 17.5C32 26.0604 25.0604 33 16.5 33C7.93959 33 1 26.0604 1 17.5C1 8.93959 7.93959 2 16.5 2C25.0604 2 32 8.93959 32 17.5ZM20.8348 11.0745L20.644 11.0505C19.8541 10.9656 19.0564 10.9878 18.2724 11.1164C16.3181 11.4335 13.9861 12.4739 12.1806 15.0872C11.9775 15.1068 11.7702 15.0996 11.562 15.0923L11.5449 15.0917L11.3803 15.0864C11.1066 15.0789 10.8344 15.0834 10.5726 15.1582C10.079 15.3003 9.75361 15.8067 9.52026 16.2794L9.41032 16.5112L9.27794 16.8104L9.19566 17.0154C8.99373 17.5449 8.85237 18.1814 9.2712 18.5995C9.61599 18.945 10.1709 19.1141 10.69 19.2711L10.8972 19.3347C11.0281 19.3743 11.1575 19.4185 11.2853 19.4671L11.3332 19.4865L11.2734 19.5441C11.0153 19.8022 10.8351 20.1874 10.7095 20.5052C10.5718 20.8508 10.4522 21.2427 10.3534 21.6047L10.2831 21.874L10.1904 22.2554L10.0752 22.7775L10.0109 23.0998C9.98859 23.2203 9.99592 23.3444 10.0323 23.4614C10.0686 23.5785 10.1329 23.6849 10.2195 23.7715C10.3062 23.8582 10.4126 23.9224 10.5296 23.9588C10.6466 23.9951 10.7707 24.0025 10.8912 23.9802L11.1328 23.933L11.5194 23.8508L11.8425 23.776L12.1993 23.687L12.3855 23.6376C12.7483 23.5389 13.1402 23.4192 13.4865 23.2823C13.8036 23.1559 14.1888 22.9757 14.4468 22.7176C14.5002 22.6641 14.5509 22.608 14.5986 22.5494C14.642 22.6615 14.6824 22.773 14.7198 22.8822C14.7798 23.0724 14.8298 23.2656 14.8694 23.4611L14.9045 23.6159C14.9995 24.0295 15.1162 24.4454 15.4004 24.7289C15.8738 25.203 16.6292 24.9592 17.1887 24.7214L17.4878 24.5897L17.7197 24.4798C18.1931 24.2464 18.6995 23.9211 18.8416 23.4274C18.9328 23.1103 18.9208 22.7835 18.9089 22.4566L18.9014 22.2442C18.8984 22.1021 18.8992 21.96 18.9134 21.8194C21.5258 20.0138 22.5662 17.6818 22.8833 15.7274C23.0441 14.7371 23.0194 13.8456 22.9252 13.165L22.8833 12.8763C22.8123 12.4275 22.6933 11.9249 22.3837 11.616C22.006 11.2375 21.3389 11.144 20.8348 11.0745ZM12.9008 20.3849C13.0471 20.3929 13.1878 20.4435 13.3055 20.5307L13.3758 20.5905L13.3937 20.6077L13.4551 20.678C13.565 20.822 13.6189 21.001 13.6068 21.1818C13.5947 21.3625 13.5174 21.5327 13.3892 21.6608C13.0946 21.9263 12.6151 22.0572 12.1828 22.1582L11.8702 22.23L11.7274 22.2644L11.7655 22.1051L11.8463 21.755C11.9323 21.3916 12.043 21.0026 12.2374 20.7214L12.3309 20.6032L12.4005 20.5411L12.4828 20.4858C12.6093 20.412 12.7546 20.3769 12.9008 20.3849ZM18.1925 14.9902C18.374 15.0654 18.5389 15.1756 18.6778 15.3145C18.9582 15.5951 19.1158 15.9757 19.1157 16.3724C19.1156 16.7691 18.958 17.1496 18.6774 17.4301C18.3968 17.7106 18.0163 17.8681 17.6196 17.868C17.2228 17.868 16.8424 17.7103 16.5619 17.4297C16.423 17.2908 16.3129 17.1259 16.2377 16.9444C16.1626 16.7628 16.1239 16.5683 16.124 16.3719C16.124 16.1754 16.1627 15.9809 16.2379 15.7994C16.3131 15.6179 16.4234 15.4531 16.5623 15.3142C16.7012 15.1753 16.8661 15.0651 17.0476 14.99C17.2291 14.9148 17.4237 14.8762 17.6201 14.8762C17.8165 14.8763 18.0111 14.915 18.1925 14.9902Z" fill="#D90452"/>
</svg>
