<svg width="34" height="34" viewBox="0 0 34 34" fill="none" xmlns="http://www.w3.org/2000/svg">
<path fill-rule="evenodd" clip-rule="evenodd" d="M16.5 33C25.0604 33 32 26.0604 32 17.5C32 8.93959 25.0604 2 16.5 2C7.93959 2 1 8.93959 1 17.5C1 26.0604 7.93959 33 16.5 33ZM24.0588 13.9872V14.0464C24.0588 14.7435 24.0588 15.0929 23.903 15.3783C23.7478 15.6624 23.4658 15.8315 22.9046 16.1682L22.9046 16.1682L22.897 16.1727L22.3 16.5294C22.7111 15.0313 22.8488 13.4213 22.8993 12.0448L22.9068 11.8657L22.9083 11.8235C23.3985 12.0067 23.6741 12.1437 23.8457 12.3999C24.0588 12.7185 24.0588 13.1417 24.0588 13.9872ZM9 13.9872V14.0464C9 14.7435 9 15.0929 9.15586 15.3783C9.31103 15.6624 9.59306 15.8315 10.1543 16.1682L10.1618 16.1727L10.7596 16.5294C10.3478 15.0313 10.21 13.4213 10.1595 12.0448L10.152 11.8657L10.1512 11.8235C9.66033 12.0067 9.38475 12.1437 9.21308 12.3999C9 12.7185 9 13.1425 9 13.9872ZM16.5293 9.00018C17.7143 8.9954 18.8977 9.0849 20.0671 9.26775C20.9876 9.41579 21.4475 9.48981 21.8323 9.94166C22.2163 10.3919 22.1961 10.8797 22.1558 11.8522L22.1556 11.8578C22.0165 15.2112 21.2576 19.3989 17.1355 19.769V22.494H18.2913C18.4781 22.4941 18.6591 22.5559 18.8035 22.669C18.9479 22.782 19.0468 22.9392 19.0834 23.114L19.237 23.8434H21.3788C21.5396 23.8434 21.6938 23.9043 21.8075 24.0128C21.9212 24.1212 21.985 24.2683 21.985 24.4217C21.985 24.5751 21.9212 24.7222 21.8075 24.8306C21.6938 24.9391 21.5396 25 21.3788 25H11.6799C11.5191 25 11.3649 24.9391 11.2512 24.8306C11.1375 24.7222 11.0737 24.5751 11.0737 24.4217C11.0737 24.2683 11.1375 24.1212 11.2512 24.0128C11.3649 23.9043 11.5191 23.8434 11.6799 23.8434H13.8217L13.9753 23.114C14.0119 22.9392 14.1108 22.782 14.2552 22.669C14.3996 22.5559 14.5806 22.4941 14.7674 22.494H15.9232V19.769C11.8011 19.3989 11.043 15.2104 10.9031 11.8578C10.8627 10.8816 10.8425 10.3935 11.2264 9.94166C11.6112 9.48981 12.071 9.41579 12.9916 9.26775C13.9001 9.12124 15.0882 9.00018 16.5293 9.00018ZM17.4375 12.1487C17.3709 12.0536 17.2762 11.9794 17.1654 11.9357C17.0547 11.892 16.9328 11.8806 16.8153 11.903C16.6978 11.9254 16.5898 11.9805 16.5051 12.0614L15.2927 13.218C15.2332 13.2709 15.1854 13.3348 15.1523 13.4057C15.1191 13.4766 15.1013 13.5532 15.0999 13.6309C15.0984 13.7085 15.1134 13.7856 15.1439 13.8576C15.1744 13.9297 15.2198 13.9951 15.2773 14.05C15.3349 14.1049 15.4035 14.1482 15.4789 14.1773C15.5544 14.2064 15.6353 14.2206 15.7167 14.2193C15.7981 14.2179 15.8783 14.2009 15.9527 14.1693C16.027 14.1377 16.094 14.0921 16.1495 14.0353L16.3273 13.8657V15.5543C16.3273 15.7077 16.3911 15.8548 16.5048 15.9632C16.6185 16.0717 16.7727 16.1326 16.9335 16.1326C17.0942 16.1326 17.2484 16.0717 17.3621 15.9632C17.4758 15.8548 17.5397 15.7077 17.5397 15.5543V12.47C17.5397 12.3556 17.5041 12.2438 17.4375 12.1487Z" fill="#D90452"/>
</svg>
