<svg width="34" height="34" viewBox="0 0 34 34" fill="none" xmlns="http://www.w3.org/2000/svg">
<path fill-rule="evenodd" clip-rule="evenodd" d="M32 17.5C32 26.0604 25.0604 33 16.5 33C7.93959 33 1 26.0604 1 17.5C1 8.93959 7.93959 2 16.5 2C25.0604 2 32 8.93959 32 17.5ZM23.084 10.1096C23.2613 10.1838 23.4217 10.2935 23.5557 10.4321H23.5549C23.696 10.5686 23.8081 10.7326 23.8845 10.9141C23.9608 11.0956 23.9998 11.2909 23.9991 11.4881V18.208C24.0284 20.1564 23.3245 22.0435 22.0293 23.4893C20.7342 24.9352 18.9439 25.8323 17.0191 26H16.5035C14.601 25.9992 12.7697 25.2701 11.3796 23.96C10.6279 23.2527 10.0288 22.3968 9.61937 21.4458C9.20999 20.4947 8.99915 19.4689 9 18.432V11.4721C8.99958 11.2788 9.03733 11.0873 9.11105 10.9089C9.22242 10.6404 9.40982 10.4109 9.6498 10.2493C9.88978 10.0877 10.1717 10.001 10.4603 10.0001H13.046C13.2377 9.99942 13.4277 10.0373 13.6047 10.1115C13.7817 10.1856 13.9424 10.2946 14.0772 10.4321C14.3469 10.7105 14.4976 11.0833 14.4976 11.4721V18.432C14.4964 18.6957 14.5477 18.9569 14.6485 19.2001C14.7494 19.4434 14.8976 19.6637 15.0845 19.848C15.4638 20.2133 15.968 20.4172 16.4924 20.4172C17.0168 20.4172 17.5211 20.2133 17.9003 19.848C18.0858 19.6626 18.2331 19.4421 18.3338 19.1991C18.4346 18.9561 18.4867 18.6954 18.4873 18.432V11.4721C18.4873 11.0833 18.6382 10.71 18.9077 10.4321C19.0425 10.2946 19.2031 10.1856 19.3802 10.1115C19.5572 10.0373 19.7471 9.99942 19.9388 10.0001H22.5246C22.7165 9.99806 22.9068 10.0353 23.084 10.1096ZM10.1898 15.2321H13.307L13.2991 11.4801C13.3004 11.4442 13.294 11.4084 13.2803 11.3753C13.2666 11.3421 13.246 11.3124 13.2197 11.2881C13.1717 11.2382 13.1062 11.2095 13.0373 11.2081H10.4595C10.3882 11.2091 10.32 11.2377 10.2691 11.2881C10.2429 11.3124 10.2222 11.3421 10.2085 11.3753C10.1948 11.4084 10.1884 11.4442 10.1898 11.4801V15.2321ZM19.708 15.2321H22.8252L22.8244 11.4801C22.8258 11.4445 22.8196 11.409 22.8062 11.3761C22.7848 11.3267 22.7498 11.2846 22.7054 11.2548C22.6609 11.225 22.6089 11.2088 22.5555 11.2081H19.9697C19.8988 11.2106 19.8312 11.2391 19.7794 11.2881C19.7317 11.3402 19.706 11.4091 19.708 11.4801V15.2321Z" fill="#D90452"/>
</svg>
