<svg width="34" height="34" viewBox="0 0 34 34" fill="none" xmlns="http://www.w3.org/2000/svg">
<path fill-rule="evenodd" clip-rule="evenodd" d="M16.5 33C25.0604 33 32 26.0604 32 17.5C32 8.93959 25.0604 2 16.5 2C7.93959 2 1 8.93959 1 17.5C1 26.0604 7.93959 33 16.5 33ZM9.71282 12.7128C9.638 12.7876 9.59596 12.8891 9.59596 12.9949V15.7879H23.9596V12.9949C23.9596 12.9872 23.9594 12.9796 23.9589 12.972C23.9589 12.9709 23.9588 12.9698 23.9587 12.9687C23.9532 12.8825 23.9202 12.8038 23.8685 12.7412C23.8604 12.7313 23.8518 12.7218 23.8427 12.7128C23.775 12.6451 23.6831 12.6016 23.5811 12.5965C23.5743 12.5961 23.5675 12.596 23.5606 12.596H9.99495C9.88913 12.596 9.78765 12.638 9.71282 12.7128ZM23.9596 17.3838H9.59596V23.3687C9.59596 23.589 9.77459 23.7677 9.99495 23.7677H23.5606C23.781 23.7677 23.9596 23.589 23.9596 23.3687V17.3838ZM8 17.3838V12.9949C8 12.4495 8.21889 11.9552 8.57362 11.5951L8.58431 11.5843L8.59508 11.5736C8.95521 11.2189 9.44952 11 9.99495 11H23.5606C24.1038 11 24.5964 11.2171 24.9561 11.5694L24.9712 11.5843L24.9862 11.5994C25.3384 11.9592 25.5556 12.4517 25.5556 12.9949V17.3838V23.3687C25.5556 24.4705 24.6624 25.3636 23.5606 25.3636H9.99495C8.89317 25.3636 8 24.4705 8 23.3687V17.3838ZM10.3939 14.1919C10.3939 13.7512 10.7512 13.3939 11.1919 13.3939C11.6326 13.3939 11.9899 13.7512 11.9899 14.1919C11.9899 14.6326 11.6326 14.9899 11.1919 14.9899C10.7512 14.9899 10.3939 14.6326 10.3939 14.1919ZM13.5861 13.3939C13.1453 13.3939 12.7881 13.7512 12.7881 14.1919C12.7881 14.6326 13.1453 14.9899 13.5861 14.9899C14.0268 14.9899 14.384 14.6326 14.384 14.1919C14.384 13.7512 14.0268 13.3939 13.5861 13.3939Z" fill="#D90452"/>
</svg>
