<svg width="34" height="34" viewBox="0 0 34 34" fill="none" xmlns="http://www.w3.org/2000/svg">
<path fill-rule="evenodd" clip-rule="evenodd" d="M32 17.5C32 26.0604 25.0604 33 16.5 33C7.93959 33 1 26.0604 1 17.5C1 8.93959 7.93959 2 16.5 2C25.0604 2 32 8.93959 32 17.5ZM8.38301 11.3728C8.62825 11.1341 8.96087 11 9.30769 11H23.6923C24.0391 11 24.3717 11.1341 24.617 11.3728C24.8622 11.6115 25 11.9352 25 12.2727V23.7273C25 24.0648 24.8622 24.3885 24.617 24.6272C24.3717 24.8659 24.0391 25 23.6923 25H9.30769C8.96087 25 8.62825 24.8659 8.38301 24.6272C8.13777 24.3885 8 24.0648 8 23.7273V12.2727C8 11.9352 8.13777 11.6115 8.38301 11.3728ZM13.878 19.8191C13.8535 19.652 13.7618 19.5013 13.6231 19.4L11.7049 18L13.6231 16.6C13.7618 16.4987 13.8535 16.348 13.878 16.1809C13.9026 16.0138 13.8579 15.8441 13.7538 15.7091C13.6498 15.5741 13.4949 15.4848 13.3232 15.4609C13.1516 15.4371 12.9772 15.4806 12.8385 15.5818L10.2231 17.4909C10.1419 17.5502 10.076 17.627 10.0306 17.7154C9.98517 17.8038 9.96154 17.9012 9.96154 18C9.96154 18.0988 9.98517 18.1962 10.0306 18.2846C10.076 18.373 10.1419 18.4498 10.2231 18.5091L12.8385 20.4182C12.9772 20.5194 13.1516 20.5629 13.3232 20.5391C13.4949 20.5152 13.6498 20.4259 13.7538 20.2909C13.8579 20.1559 13.9026 19.9862 13.878 19.8191ZM15.8208 22.6295L18.4362 13.7205C18.4801 13.5594 18.4573 13.388 18.3728 13.2431C18.2883 13.0981 18.1487 12.9913 17.9841 12.9455C17.8194 12.8996 17.6429 12.9185 17.4924 12.9979C17.3419 13.0774 17.2295 13.2112 17.1792 13.3705L14.5638 22.2795C14.5383 22.3604 14.5296 22.4454 14.5382 22.5296C14.5469 22.6138 14.5727 22.6955 14.6141 22.7698C14.6556 22.8442 14.7118 22.9098 14.7796 22.9627C14.8474 23.0157 14.9254 23.0549 15.009 23.0782C15.0926 23.1015 15.1801 23.1083 15.2664 23.0982C15.3527 23.0882 15.4361 23.0615 15.5117 23.0197C15.5873 22.978 15.6535 22.9219 15.7066 22.8549C15.7597 22.7879 15.7985 22.7113 15.8208 22.6295ZM20.1615 20.4182L22.7769 18.5091C22.8581 18.4498 22.924 18.373 22.9694 18.2846C23.0148 18.1962 23.0385 18.0988 23.0385 18C23.0385 17.9012 23.0148 17.8038 22.9694 17.7154C22.924 17.627 22.8581 17.5502 22.7769 17.4909L20.1615 15.5818C20.0928 15.5317 20.0147 15.4952 19.9315 15.4745C19.8483 15.4537 19.7618 15.4491 19.6768 15.4609C19.5918 15.4728 19.51 15.5008 19.4361 15.5433C19.3622 15.5859 19.2977 15.6422 19.2462 15.7091C19.1946 15.7759 19.1572 15.852 19.1358 15.933C19.1145 16.0139 19.1098 16.0982 19.122 16.1809C19.1341 16.2636 19.1629 16.3432 19.2066 16.4151C19.2504 16.487 19.3082 16.5499 19.3769 16.6L21.2951 18L19.3769 19.4C19.2382 19.5013 19.1465 19.652 19.122 19.8191C19.0974 19.9862 19.1421 20.1559 19.2462 20.2909C19.3502 20.4259 19.5051 20.5152 19.6768 20.5391C19.8484 20.5629 20.0228 20.5194 20.1615 20.4182Z" fill="#D90452"/>
</svg>
