<svg width="34" height="34" viewBox="0 0 34 34" fill="none" xmlns="http://www.w3.org/2000/svg">
<path fill-rule="evenodd" clip-rule="evenodd" d="M32 17.5C32 26.0604 25.0604 33 16.5 33C7.93959 33 1 26.0604 1 17.5C1 8.93959 7.93959 2 16.5 2C25.0604 2 32 8.93959 32 17.5ZM15.0111 24.0895C15.1142 23.9895 15.2541 23.9333 15.4 23.9333H17.6C17.7458 23.9333 17.8857 23.9895 17.9889 24.0895C18.092 24.1896 18.15 24.3252 18.15 24.4667C18.15 24.6081 18.092 24.7438 17.9889 24.8438C17.8857 24.9438 17.7458 25 17.6 25H15.4C15.2541 25 15.1142 24.9438 15.0111 24.8438C14.9079 24.7438 14.85 24.6081 14.85 24.4667C14.85 24.3252 14.9079 24.1896 15.0111 24.0895ZM14.85 22.3333H18.15C18.2958 22.3333 18.4357 22.3895 18.5389 22.4895C18.642 22.5896 18.7 22.7252 18.7 22.8667C18.7 23.0081 18.642 23.1438 18.5389 23.2438C18.4357 23.3438 18.2958 23.4 18.15 23.4H14.85C14.7041 23.4 14.5642 23.3438 14.4611 23.2438C14.3579 23.1438 14.3 23.0081 14.3 22.8667C14.3 22.7252 14.3579 22.5896 14.4611 22.4895C14.5642 22.3895 14.7041 22.3333 14.85 22.3333ZM16.5 9.00002C17.9805 9.00002 19.3651 9.55268 20.3988 10.5563C20.9097 11.0521 21.3143 11.6412 21.5891 12.2895C21.8639 12.9378 22.0036 13.6324 21.9999 14.3333C21.9999 15.9203 21.4183 17.3 20.3176 18.319L20.1489 18.4743L20.148 18.4751C19.5366 19.0364 18.7 19.8043 18.7 20.4667V21.2667C18.7 21.4081 18.642 21.5438 18.5389 21.6438C18.4357 21.7438 18.2958 21.8 18.15 21.8H17.325C17.252 21.8 17.1821 21.7719 17.1305 21.7219C17.0789 21.6719 17.05 21.6041 17.05 21.5333V17.6263C17.05 17.5724 17.0668 17.5197 17.0983 17.4753C17.1298 17.4308 17.1744 17.3967 17.2263 17.3773C17.5439 17.252 17.8456 17.0919 18.1256 16.9C18.2348 16.8146 18.3062 16.692 18.3252 16.5572C18.3442 16.4224 18.3094 16.2857 18.2279 16.175C18.1464 16.0643 18.0244 15.9879 17.8867 15.9616C17.7491 15.9353 17.6063 15.9609 17.4876 16.0333C17.2325 16.2073 16.7427 16.4667 16.5 16.4667C16.2573 16.4667 15.7674 16.208 15.5131 16.0333C15.4547 15.9882 15.3875 15.9551 15.3155 15.9361C15.2435 15.917 15.1682 15.9123 15.0943 15.9223C15.0204 15.9323 14.9493 15.9568 14.8855 15.9943C14.8216 16.0318 14.7663 16.0815 14.7229 16.1404C14.6795 16.1993 14.6489 16.2661 14.633 16.3369C14.6171 16.4076 14.6162 16.4807 14.6304 16.5518C14.6446 16.6228 14.6735 16.6903 14.7155 16.7502C14.7574 16.8101 14.8115 16.8611 14.8744 16.9C15.1543 17.0922 15.456 17.2527 15.7736 17.3783C15.8255 17.3977 15.8702 17.4318 15.9017 17.4763C15.9332 17.5207 15.95 17.5734 15.95 17.6273V21.5333C15.95 21.6041 15.921 21.6719 15.8694 21.7219C15.8179 21.7719 15.7479 21.8 15.675 21.8H14.85C14.7041 21.8 14.5642 21.7438 14.4611 21.6438C14.3579 21.5438 14.3 21.4081 14.3 21.2667V20.4667C14.3 19.788 13.4533 19.019 12.8343 18.4577L12.6844 18.3213C11.6143 17.341 11 15.8873 11 14.3333C10.9983 13.6325 11.1394 12.9382 11.4152 12.2904C11.691 11.6426 12.096 11.054 12.6071 10.5584C13.1181 10.0628 13.7251 9.67002 14.3932 9.40259C15.0613 9.13516 15.7772 8.99834 16.5 9.00002Z" fill="#D90452"/>
</svg>
