<svg width="34" height="34" viewBox="0 0 34 34" fill="none" xmlns="http://www.w3.org/2000/svg">
<path fill-rule="evenodd" clip-rule="evenodd" d="M16.5 33C25.0604 33 32 26.0604 32 17.5C32 8.93959 25.0604 2 16.5 2C7.93959 2 1 8.93959 1 17.5C1 26.0604 7.93959 33 16.5 33ZM11.1667 18.0279V13.8057H9.58333C9.16341 13.8057 8.76068 13.9725 8.46375 14.2694C8.16682 14.5663 8 14.9691 8 15.389V24.889C8.00079 24.987 8.02885 25.0829 8.08105 25.1658C8.13326 25.2488 8.20753 25.3156 8.29556 25.3587C8.38036 25.3973 8.47386 25.4127 8.56656 25.4034C8.65925 25.3942 8.74785 25.3605 8.82333 25.3059L11.5414 23.3057H18.6347C18.8348 23.3116 19.0339 23.2764 19.2197 23.2022C19.4056 23.128 19.5743 23.0165 19.7153 22.8745C19.8563 22.7325 19.9666 22.563 20.0395 22.3767C20.1124 22.1903 20.1462 21.9909 20.1389 21.7909V21.1946H14.3333C13.4935 21.1946 12.688 20.8609 12.0942 20.2671C11.5003 19.6732 11.1667 18.8677 11.1667 18.0279ZM14.3333 10.1111H23.3056C23.7163 10.1248 24.1056 10.2976 24.3912 10.5931C24.6768 10.8885 24.8363 11.2835 24.8361 11.6944V21.1522C24.8358 21.2517 24.8074 21.349 24.7542 21.4331C24.701 21.5171 24.6251 21.5844 24.5353 21.6272C24.45 21.665 24.3563 21.6796 24.2636 21.6694C24.1708 21.6592 24.0825 21.6246 24.0075 21.5691L21.4847 19.6111H14.3333C13.9134 19.6111 13.5107 19.4443 13.2137 19.1473C12.9168 18.8504 12.75 18.4477 12.75 18.0278V11.6944C12.75 11.2745 12.9168 10.8718 13.2137 10.5748C13.5107 10.2779 13.9134 10.1111 14.3333 10.1111Z" fill="#D90452"/>
</svg>
