<svg width="34" height="34" viewBox="0 0 34 34" fill="none" xmlns="http://www.w3.org/2000/svg">
<path fill-rule="evenodd" clip-rule="evenodd" d="M16.5 33C25.0604 33 32 26.0604 32 17.5C32 8.93959 25.0604 2 16.5 2C7.93959 2 1 8.93959 1 17.5C1 26.0604 7.93959 33 16.5 33ZM23.9571 14.0429C24.3476 14.4334 24.3476 15.0666 23.9571 15.4571L20.2071 19.2071C19.8166 19.5976 19.1834 19.5976 18.7929 19.2071L16.5 16.9142L14.9571 18.4571C14.5666 18.8476 13.9334 18.8476 13.5429 18.4571C13.1524 18.0666 13.1524 17.4334 13.5429 17.0429L15.7929 14.7929C16.1834 14.4024 16.8166 14.4024 17.2071 14.7929L19.5 17.0858L22.5429 14.0429C22.9334 13.6524 23.5666 13.6524 23.9571 14.0429ZM12.25 10.25C12.25 9.69772 11.8023 9.25 11.25 9.25C10.6977 9.25 10.25 9.69772 10.25 10.25V23.75C10.25 24.3023 10.6977 24.75 11.25 24.75H24.75C25.3023 24.75 25.75 24.3023 25.75 23.75C25.75 23.1977 25.3023 22.75 24.75 22.75H12.25V10.25Z" fill="#D90452"/>
</svg>
