<svg width="34" height="34" viewBox="0 0 34 34" fill="none" xmlns="http://www.w3.org/2000/svg">
<path fill-rule="evenodd" clip-rule="evenodd" d="M32 17.5C32 26.0604 25.0604 33 16.5 33C7.93959 33 1 26.0604 1 17.5C1 8.93959 7.93959 2 16.5 2C25.0604 2 32 8.93959 32 17.5ZM18.5 10.5C18.5 9.67157 17.8284 9 17 9C16.1716 9 15.5 9.67157 15.5 10.5V23.5C15.5 24.3284 16.1716 25 17 25C17.8284 25 18.5 24.3284 18.5 23.5V10.5ZM12 15.375C12 14.5466 11.3284 13.875 10.5 13.875C9.67157 13.875 9 14.5466 9 15.375V23.5C9 24.3284 9.67157 25 10.5 25C11.3284 25 12 24.3284 12 23.5V15.375ZM25 20.25C25 19.4216 24.3284 18.75 23.5 18.75C22.6716 18.75 22 19.4216 22 20.25V23.5C22 24.3284 22.6716 25 23.5 25C24.3284 25 25 24.3284 25 23.5V20.25Z" fill="#D90452"/>
</svg>
