<svg width="34" height="34" viewBox="0 0 34 34" fill="none" xmlns="http://www.w3.org/2000/svg">
<path fill-rule="evenodd" clip-rule="evenodd" d="M32 17.5C32 26.0604 25.0604 33 16.5 33C7.93959 33 1 26.0604 1 17.5C1 8.93959 7.93959 2 16.5 2C25.0604 2 32 8.93959 32 17.5ZM23.242 10.2611C23.4843 10.2818 23.7177 10.3617 23.9219 10.4937C24.1221 10.6291 24.2862 10.8112 24.4 11.0244C24.5139 11.2375 24.5739 11.4752 24.575 11.7169V21.8225C24.5682 22.0581 24.5054 22.2886 24.3919 22.4951C24.2783 22.7016 24.1172 22.8781 23.9219 23.01C23.6759 23.1757 23.3872 23.2665 23.0906 23.2712C22.8995 23.2713 22.7101 23.235 22.5325 23.1644L15.3125 20.2788V23.2831C15.3125 23.6748 15.1578 24.0505 14.8819 24.3286C14.6061 24.6066 14.2316 24.7644 13.84 24.7675H13.0919C12.8104 24.7656 12.5352 24.6844 12.2979 24.5332C12.0605 24.3819 11.8706 24.1668 11.75 23.9125L9.96875 20.1362C9.58116 20.1364 9.20891 19.9849 8.93154 19.7142C8.65416 19.4434 8.49368 19.075 8.48438 18.6875V18.5331H7V14.9706H8.48438V14.8519C8.48438 14.4582 8.64076 14.0806 8.91914 13.8023C9.19751 13.5239 9.57507 13.3675 9.96875 13.3675H14.6594C14.8467 13.3675 15.0322 13.3312 15.2056 13.2606L22.5325 10.375C22.7561 10.2795 22.9997 10.2404 23.242 10.2611ZM13.8281 18.6875V14.8519H9.96875V18.6875H13.8281ZM15.3125 18.6875C15.4639 18.734 15.6109 18.7936 15.7519 18.8656L23.0906 21.7869V11.7169L15.7519 14.6381C15.6094 14.6941 15.4624 14.7378 15.3125 14.7687V18.6875ZM24.6106 18.2362V15.2675C25.0043 15.2675 25.3819 15.4239 25.6602 15.7023C25.9386 15.9806 26.095 16.3582 26.095 16.7519C26.095 17.1456 25.9386 17.5231 25.6602 17.8015C25.3819 18.0799 25.0043 18.2362 24.6106 18.2362Z" fill="#D90452"/>
</svg>
