<svg width="34" height="34" viewBox="0 0 34 34" fill="none" xmlns="http://www.w3.org/2000/svg">
<path fill-rule="evenodd" clip-rule="evenodd" d="M32 17.5C32 26.0604 25.0604 33 16.5 33C7.93959 33 1 26.0604 1 17.5C1 8.93959 7.93959 2 16.5 2C25.0604 2 32 8.93959 32 17.5ZM9 11.6667C9 10.75 9.75 10 10.6667 10H22.3333C23.25 10 24 10.75 24 11.6667V23.3333C24 24.25 23.25 25 22.3333 25H10.6667C9.75 25 9 24.25 9 23.3333V11.6667ZM13.1667 21.6667H17.3333C17.7917 21.6667 18.1667 21.2917 18.1667 20.8333C18.1667 20.375 17.7917 20 17.3333 20H13.1667C12.7083 20 12.3333 20.375 12.3333 20.8333C12.3333 21.2917 12.7083 21.6667 13.1667 21.6667ZM13.1667 18.3333H19.8333C20.2917 18.3333 20.6667 17.9583 20.6667 17.5C20.6667 17.0417 20.2917 16.6667 19.8333 16.6667H13.1667C12.7083 16.6667 12.3333 17.0417 12.3333 17.5C12.3333 17.9583 12.7083 18.3333 13.1667 18.3333ZM13.1667 15H19.8333C20.2917 15 20.6667 14.625 20.6667 14.1667C20.6667 13.7083 20.2917 13.3333 19.8333 13.3333H13.1667C12.7083 13.3333 12.3333 13.7083 12.3333 14.1667C12.3333 14.625 12.7083 15 13.1667 15Z" fill="#D90452"/>
</svg>
