<svg width="34" height="34" viewBox="0 0 34 34" fill="none" xmlns="http://www.w3.org/2000/svg">
<path fill-rule="evenodd" clip-rule="evenodd" d="M32 17.5C32 26.0604 25.0604 33 16.5 33C7.93959 33 1 26.0604 1 17.5C1 8.93959 7.93959 2 16.5 2C25.0604 2 32 8.93959 32 17.5ZM12.0622 22.3418C12.1877 22.6498 12.5074 22.8333 12.8515 22.8333H13.4805C13.872 22.8331 14.2609 22.8935 14.6324 23.0122L17.1533 23.8211C17.5249 23.9394 17.9138 23.9998 18.3052 24H21.5563C22.0566 24 22.5415 23.8079 22.8556 23.433C24.2464 21.7765 25.0033 19.7116 25 17.5833C25 17.245 24.9814 16.9121 24.9449 16.5839C24.8567 15.7898 24.1128 15.25 23.2822 15.25H20.7516C20.2513 15.25 19.9494 14.6869 20.1647 14.2529C20.5395 13.4946 20.75 12.646 20.75 11.75C20.75 11.2859 20.5581 10.8408 20.2165 10.5126C19.8749 10.1844 19.4116 10 18.9286 10C18.7675 10 18.6131 10.0615 18.4993 10.1709C18.3854 10.2803 18.3214 10.4286 18.3214 10.5833V11.0757C18.3215 11.5211 18.233 11.9625 18.0608 12.3761C17.8155 12.9664 17.3079 13.4113 16.7226 13.71C15.8238 14.1706 15.035 14.8064 14.4066 15.5767C14.1459 15.8956 13.8083 16.153 13.4254 16.2953C13.2417 16.3638 13.062 16.4548 12.9397 16.6041C12.0977 17.6311 11.6408 18.901 11.6429 20.2083C11.6421 20.9385 11.7843 21.6622 12.0622 22.3418ZM8.00001 20.2083C7.99838 19.0376 8.22661 17.8771 8.67272 16.7877C8.92044 16.1857 9.55267 15.8333 10.2262 15.8333H11.077C11.4591 15.8333 11.6801 16.2658 11.4818 16.5792C10.8131 17.6378 10.4278 18.8799 10.4278 20.2083C10.4261 21.281 10.6821 22.3395 11.1758 23.3016C11.3352 23.6127 11.1126 24 10.7524 24H10.019C9.29929 24 8.63144 23.5971 8.42096 22.936C8.14085 22.0518 7.99899 21.1326 8.00001 20.2083Z" fill="#D90452"/>
</svg>
