<svg width="34" height="34" viewBox="0 0 34 34" fill="none" xmlns="http://www.w3.org/2000/svg">
<path fill-rule="evenodd" clip-rule="evenodd" d="M32 17.5C32 26.0604 25.0604 33 16.5 33C7.93959 33 1 26.0604 1 17.5C1 8.93959 7.93959 2 16.5 2C25.0604 2 32 8.93959 32 17.5ZM17.5607 8.41622C17.2794 8.14972 16.8978 8 16.5 8C16.1022 8 15.7206 8.14972 15.4393 8.41622C15.158 8.68272 15 9.04417 15 9.42105V9.44C12.822 9.96105 11 11.5867 11 13.8415C11 16.6021 13.73 18.4211 16.5 18.4211C18.148 18.4211 19 19.4309 19 20.1585C19 20.8861 18.148 21.8941 16.5 21.8941C14.852 21.8941 14 20.8861 14 20.1585C14 19.7816 13.842 19.4202 13.5607 19.1537C13.2794 18.8872 12.8978 18.7375 12.5 18.7375C12.1022 18.7375 11.7206 18.8872 11.4393 19.1537C11.158 19.4202 11 19.7816 11 20.1585C11 22.4133 12.822 24.0408 15 24.56V24.5789C15 24.9558 15.158 25.3173 15.4393 25.5838C15.7206 25.8503 16.1022 26 16.5 26C16.8978 26 17.2794 25.8503 17.5607 25.5838C17.842 25.3173 18 24.9558 18 24.5789V24.56C20.178 24.0408 22 22.4133 22 20.1585C22 17.3979 19.27 15.5789 16.5 15.5789C14.852 15.5789 14 14.5691 14 13.8415C14 13.1139 14.852 12.1059 16.5 12.1059C18.148 12.1059 19 13.1139 19 13.8415C19 14.2184 19.158 14.5798 19.4393 14.8463C19.7206 15.1128 20.1022 15.2625 20.5 15.2625C20.8978 15.2625 21.2794 15.1128 21.5607 14.8463C21.842 14.5798 22 14.2184 22 13.8415C22 11.5867 20.178 9.96105 18 9.44V9.42105C18 9.04417 17.842 8.68272 17.5607 8.41622Z" fill="#D90452"/>
</svg>
