<svg width="34" height="34" viewBox="0 0 34 34" fill="none" xmlns="http://www.w3.org/2000/svg">
<path fill-rule="evenodd" clip-rule="evenodd" d="M16.5 33C25.0604 33 32 26.0604 32 17.5C32 8.93959 25.0604 2 16.5 2C7.93959 2 1 8.93959 1 17.5C1 26.0604 7.93959 33 16.5 33ZM19.3751 13.625C19.3751 14.1773 19.8228 14.625 20.3751 14.625H22.2664L18.3024 18.5891L18.3023 18.5892C18.1668 18.7245 17.9832 18.8005 17.7918 18.8005C17.6003 18.8005 17.4167 18.7245 17.2812 18.5892L17.2811 18.5891L14.5498 15.8577L14.5497 15.8576C14.0392 15.3473 13.3469 15.0606 12.6251 15.0606C11.9032 15.0606 11.211 15.3473 10.7005 15.8576L10.7004 15.8577L6.75131 19.8068C6.36079 20.1973 6.36079 20.8305 6.75131 21.221C7.14184 21.6115 7.775 21.6115 8.16553 21.221L12.1145 17.272L12.1146 17.2719C12.25 17.1366 12.4336 17.0606 12.6251 17.0606C12.8165 17.0606 13.0002 17.1366 13.1356 17.2719L13.1357 17.272L15.867 20.0034L15.8671 20.0035C16.3776 20.5138 17.0699 20.8005 17.7918 20.8005C18.5136 20.8005 19.2059 20.5138 19.7164 20.0035L19.7165 20.0034L23.6806 16.0392V17.9306C23.6806 18.4828 24.1284 18.9306 24.6806 18.9306C25.2329 18.9306 25.6806 18.4828 25.6806 17.9306V13.625C25.6806 13.0727 25.2329 12.625 24.6806 12.625H20.3751C19.8228 12.625 19.3751 13.0727 19.3751 13.625Z" fill="#D90452"/>
</svg>
