<svg width="34" height="34" viewBox="0 0 34 34" fill="none" xmlns="http://www.w3.org/2000/svg">
<path fill-rule="evenodd" clip-rule="evenodd" d="M32 17.5C32 26.0604 25.0604 33 16.5 33C7.93959 33 1 26.0604 1 17.5C1 8.93959 7.93959 2 16.5 2C25.0604 2 32 8.93959 32 17.5ZM23.0417 15.7083H24.2292C24.7541 15.7083 25.2575 15.9169 25.6286 16.288C25.9998 16.6592 26.2083 17.1626 26.2083 17.6875C26.2083 18.2124 25.9998 18.7158 25.6286 19.087C25.2575 19.4581 24.7541 19.6667 24.2292 19.6667H23.0417V22.8333C23.0417 23.2533 22.8749 23.656 22.5779 23.9529C22.281 24.2499 21.8783 24.4167 21.4583 24.4167H18.45V23.2292C18.45 22.0417 17.5 21.0917 16.3125 21.0917C15.125 21.0917 14.175 22.0417 14.175 23.2292V24.4167H11.1667C10.7467 24.4167 10.344 24.2499 10.0471 23.9529C9.75015 23.656 9.58333 23.2533 9.58333 22.8333V19.825H10.7708C11.9583 19.825 12.9083 18.875 12.9083 17.6875C12.9083 16.5 11.9583 15.55 10.7708 15.55H9.58333V12.5417C9.58333 12.1217 9.75015 11.719 10.0471 11.4221C10.344 11.1251 10.7467 10.9583 11.1667 10.9583H14.3333V9.77083C14.3333 9.24593 14.5419 8.74252 14.913 8.37135C15.2842 8.00019 15.7876 7.79167 16.3125 7.79167C16.8374 7.79167 17.3408 8.00019 17.712 8.37135C18.0831 8.74252 18.2917 9.24593 18.2917 9.77083V10.9583H21.4583C21.8783 10.9583 22.281 11.1251 22.5779 11.4221C22.8749 11.719 23.0417 12.1217 23.0417 12.5417V15.7083Z" fill="#D90452"/>
</svg>
