<svg width="34" height="34" viewBox="0 0 34 34" fill="none" xmlns="http://www.w3.org/2000/svg">
<path fill-rule="evenodd" clip-rule="evenodd" d="M32 17.5C32 26.0604 25.0604 33 16.5 33C7.93959 33 1 26.0604 1 17.5C1 8.93959 7.93959 2 16.5 2C25.0604 2 32 8.93959 32 17.5ZM22.7412 13C22.7412 14.4525 21.5775 15.625 20.125 15.625C18.6725 15.625 17.5 14.4525 17.5 13C17.5 11.5475 18.6725 10.375 20.125 10.375C21.5775 10.375 22.7412 11.5475 22.7412 13ZM15.7413 13C15.7413 14.4525 14.5775 15.625 13.125 15.625C11.6725 15.625 10.5 14.4525 10.5 13C10.5 11.5475 11.6725 10.375 13.125 10.375C14.5775 10.375 15.7413 11.5475 15.7413 13ZM7 20.4375C7 18.3988 11.0863 17.375 13.125 17.375C15.1637 17.375 19.25 18.3988 19.25 20.4375V22.625H7V20.4375ZM19.2762 17.4187C19.5825 17.3925 19.8713 17.375 20.125 17.375C22.1637 17.375 26.25 18.3988 26.25 20.4375V22.625H21V20.4375C21 19.1425 20.2913 18.1537 19.2762 17.4187Z" fill="#D90452"/>
</svg>
