<svg width="34" height="34" viewBox="0 0 34 34" fill="none" xmlns="http://www.w3.org/2000/svg">
<path fill-rule="evenodd" clip-rule="evenodd" d="M32 17.5C32 26.0604 25.0604 33 16.5 33C7.93959 33 1 26.0604 1 17.5C1 8.93959 7.93959 2 16.5 2C25.0604 2 32 8.93959 32 17.5ZM19.2121 13.0151C19.606 13.0713 19.9613 13.2817 20.2 13.6L21.25 14.9995L22.3 13.6C22.5387 13.2817 22.894 13.0713 23.2879 13.0151C23.4829 12.9872 23.6814 12.998 23.8723 13.0469C24.0631 13.0958 24.2424 13.1818 24.4 13.3C24.7183 13.5387 24.9287 13.894 24.9849 14.2879C25.0412 14.6817 24.9387 15.0817 24.7 15.4L23.125 17.5L24.7 19.6C24.8182 19.7576 24.9042 19.9369 24.9531 20.1277C25.002 20.3185 25.0128 20.5171 24.9849 20.7121C24.9571 20.9071 24.8911 21.0947 24.7907 21.2642C24.6903 21.4337 24.5576 21.5818 24.4 21.7C24.2424 21.8182 24.0631 21.9042 23.8723 21.9531C23.6814 22.002 23.4829 22.0128 23.2879 21.9849C22.894 21.9287 22.5387 21.7183 22.3 21.4L21.25 20.0005L20.2 21.4C19.9613 21.7183 19.606 21.9287 19.2121 21.9849C18.8183 22.0412 18.4183 21.9387 18.1 21.7C17.7817 21.4613 17.5713 21.106 17.5151 20.7121C17.4588 20.3183 17.5613 19.9183 17.8 19.6L19.375 17.5L17.8 15.4C17.5613 15.0817 17.4588 14.6817 17.5151 14.2879C17.5713 13.894 17.7817 13.5387 18.1 13.3C18.4183 13.0613 18.8183 12.9588 19.2121 13.0151ZM9.56066 13.4393C9.84196 13.7206 10 14.1022 10 14.5V17.5C10.0079 17.8566 10.1183 18.2034 10.318 18.499C10.489 18.7375 10.789 19 11.5 19C12.211 19 12.511 18.7375 12.682 18.499C12.91 18.184 13 17.7595 13 17.5V14.5C13 14.1022 13.158 13.7206 13.4393 13.4393C13.7206 13.158 14.1022 13 14.5 13C14.8978 13 15.2794 13.158 15.5607 13.4393C15.842 13.7206 16 14.1022 16 14.5V17.5C16 18.241 15.79 19.3165 15.118 20.251C14.389 21.262 13.189 22 11.5 22C9.811 22 8.611 21.265 7.882 20.251C7.21 19.3165 7 18.2395 7 17.5V14.5C7 14.1022 7.15804 13.7206 7.43934 13.4393C7.72064 13.158 8.10217 13 8.5 13C8.89782 13 9.27935 13.158 9.56066 13.4393Z" fill="#D90452"/>
</svg>
