<svg width="34" height="34" viewBox="0 0 34 34" fill="none" xmlns="http://www.w3.org/2000/svg">
<path fill-rule="evenodd" clip-rule="evenodd" d="M32 17.5C32 26.0604 25.0604 33 16.5 33C7.93959 33 1 26.0604 1 17.5C1 8.93959 7.93959 2 16.5 2C25.0604 2 32 8.93959 32 17.5ZM9.88889 11C8.84528 11 8 11.8325 8 12.859V21.2241C8 22.2507 8.84528 23.0832 9.88889 23.0832H11.7778V24.6019C11.7778 25.8281 13.2681 26.4571 14.1701 25.6143L16.8778 23.0832H23.1111C23.3582 23.0844 23.603 23.0373 23.8317 22.9445C24.0604 22.8517 24.2684 22.715 24.4439 22.5424C24.6193 22.3697 24.7587 22.1644 24.8541 21.9382C24.9496 21.712 24.9991 21.4694 25 21.2241V12.859C25 11.8325 24.1547 11 23.1111 11H9.88889ZM13.0822 16.2272C13.1969 16.2741 13.3011 16.343 13.389 16.4299C13.4769 16.5168 13.5466 16.62 13.5943 16.7337C13.642 16.8474 13.6666 16.9693 13.6669 17.0924C13.6671 17.2156 13.6429 17.3375 13.5956 17.4514C13.5483 17.5652 13.4789 17.6687 13.3914 17.7559C13.3038 17.8432 13.1998 17.9124 13.0853 17.9597C12.9707 18.0071 12.8479 18.0315 12.7239 18.0317C12.5998 18.032 12.477 18.0079 12.3623 17.961C12.2476 17.9141 12.1433 17.8452 12.0554 17.7583C11.9676 17.6714 11.8978 17.5681 11.8501 17.4544C11.8025 17.3408 11.7778 17.2189 11.7776 17.0957C11.7774 16.9726 11.8016 16.8506 11.8489 16.7368C11.8961 16.6229 11.9655 16.5194 12.0531 16.4322C12.1406 16.345 12.2447 16.2757 12.3592 16.2284C12.4737 16.1811 12.5965 16.1566 12.7206 16.1564C12.8446 16.1562 12.9675 16.1802 13.0822 16.2272ZM16.3134 16.1741C16.1303 16.2107 15.9622 16.3003 15.8304 16.4317C15.6537 16.6079 15.5548 16.8465 15.5553 17.0951C15.5558 17.3437 15.6558 17.5819 15.8332 17.7573C15.9656 17.8882 16.134 17.9772 16.3173 18.013C16.5006 18.0488 16.6905 18.0298 16.8629 17.9585C17.0354 17.8872 17.1826 17.7667 17.2861 17.6123C17.3896 17.458 17.4446 17.2766 17.4442 17.0912C17.4438 16.9057 17.388 16.7246 17.2839 16.5706C17.1798 16.4167 17.032 16.2968 16.8592 16.2262C16.6865 16.1557 16.4965 16.1375 16.3134 16.1741ZM20.2761 16.1564C20.5266 16.156 20.7671 16.2543 20.9446 16.4299C21.0324 16.5168 21.1022 16.62 21.1499 16.7337C21.1975 16.8474 21.2222 16.9693 21.2224 17.0924C21.2226 17.2156 21.1984 17.3375 21.1511 17.4514C21.1039 17.5652 21.0345 17.6687 20.9469 17.7559C20.8594 17.8432 20.7553 17.9124 20.6408 17.9597C20.5263 18.0071 20.4035 18.0315 20.2794 18.0317C20.1554 18.032 20.0325 18.0079 19.9178 17.961C19.8031 17.9141 19.6989 17.8452 19.611 17.7583C19.4335 17.5827 19.3336 17.3444 19.3331 17.0957C19.3327 16.847 19.4318 16.6084 19.6086 16.4322C19.7855 16.2561 20.0256 16.1568 20.2761 16.1564Z" fill="#D90452"/>
</svg>
