<svg width="18" height="17" viewBox="0 0 18 17" fill="none" xmlns="http://www.w3.org/2000/svg">
<path fill-rule="evenodd" clip-rule="evenodd" d="M2.45468 2.35068C2.82585 1.97951 3.32926 1.771 3.85417 1.771H7.8125C8.24973 1.771 8.60417 2.12544 8.60417 2.56266C8.60417 2.99989 8.24973 3.35433 7.8125 3.35433H3.85417C3.74918 3.35433 3.6485 3.39603 3.57427 3.47027C3.50004 3.5445 3.45833 3.64518 3.45833 3.75016V11.271H14.5417V8.10433C14.5417 7.6671 14.8961 7.31266 15.3333 7.31266C15.7706 7.31266 16.125 7.6671 16.125 8.10433V12.0627C16.125 12.4999 15.7706 12.8543 15.3333 12.8543H2.66667C2.22944 12.8543 1.875 12.4999 1.875 12.0627V3.75016C1.875 3.22526 2.08352 2.72185 2.45468 2.35068Z" fill="#100E0F"/>
<path fill-rule="evenodd" clip-rule="evenodd" d="M0.291748 12.0627C0.291748 11.6254 0.646189 11.271 1.08341 11.271H16.9167C17.354 11.271 17.7084 11.6254 17.7084 12.0627V12.8543C17.7084 13.6942 17.3748 14.4996 16.7809 15.0935C16.1871 15.6874 15.3816 16.021 14.5417 16.021H3.45842C2.61856 16.021 1.81311 15.6874 1.21924 15.0935C0.625378 14.4996 0.291748 13.6942 0.291748 12.8543V12.0627ZM1.87508 12.8543C1.87508 13.2743 2.0419 13.677 2.33883 13.9739C2.63576 14.2708 3.03849 14.4377 3.45842 14.4377H14.5417C14.9617 14.4377 15.3644 14.2708 15.6613 13.9739C15.9583 13.677 16.1251 13.2743 16.1251 12.8543H1.87508Z" fill="#100E0F"/>
<path fill-rule="evenodd" clip-rule="evenodd" d="M12.2836 0.979264C12.6161 0.977986 12.9442 1.05539 13.2412 1.20518C13.2795 1.22452 13.3172 1.245 13.3542 1.26657C13.3911 1.245 13.4288 1.22452 13.4672 1.20518C13.7641 1.05539 14.0922 0.977986 14.4248 0.979264C15.5609 0.980246 16.5208 1.8808 16.5208 3.03958C16.5208 3.98683 15.9585 4.78471 15.4076 5.3248C14.8466 5.87486 14.1501 6.3042 13.5974 6.48264C13.4393 6.53369 13.2691 6.53369 13.1109 6.48264C12.5582 6.30418 11.8616 5.87469 11.3007 5.32462C10.7499 4.78454 10.1875 3.98667 10.1875 3.03958C10.1875 1.88065 11.148 0.980247 12.2836 0.979264ZM12.5281 2.61883C12.454 2.58147 12.3721 2.56219 12.2892 2.56259L12.2854 2.5626V2.5626C11.9794 2.5626 11.7708 2.79789 11.7708 3.03958C11.7708 3.36073 11.9803 3.77352 12.4092 4.19412C12.7237 4.50247 13.0788 4.73786 13.3542 4.87406C13.6296 4.73787 13.9847 4.50253 14.2991 4.19424C14.728 3.77375 14.9375 3.36096 14.9375 3.03958C14.9375 2.79773 14.7292 2.5626 14.4229 2.5626H14.4192V2.56259C14.3362 2.56219 14.2543 2.58147 14.1803 2.61883C14.1062 2.65619 14.0421 2.71058 13.9931 2.77752C13.844 2.98129 13.6067 3.10172 13.3542 3.10172C13.1017 3.10172 12.8643 2.98129 12.7153 2.77752C12.6663 2.71058 12.6021 2.65619 12.5281 2.61883Z" fill="#100E0F"/>
</svg>
