<svg width="18" height="17" viewBox="0 0 18 17" fill="none" xmlns="http://www.w3.org/2000/svg">
<path fill-rule="evenodd" clip-rule="evenodd" d="M2.66689 2.04798C2.42544 2.04798 2.19387 2.1439 2.02313 2.31464C1.8524 2.48537 1.75648 2.71694 1.75648 2.9584V14.0417C1.75648 14.2832 1.8524 14.5148 2.02313 14.6855C2.19387 14.8562 2.42544 14.9521 2.66689 14.9521H14.9377C15.1599 14.9521 15.5082 14.88 15.7815 14.6831C16.0206 14.511 16.244 14.2182 16.244 13.6459V2.9584C16.244 2.71694 16.1481 2.48537 15.9773 2.31464C15.8066 2.1439 15.575 2.04798 15.3336 2.04798H2.66689ZM1.07148 1.36299C1.49461 0.93986 2.0685 0.702148 2.66689 0.702148H15.3336C15.932 0.702148 16.5058 0.93986 16.929 1.36299C17.3521 1.78612 17.5898 2.36 17.5898 2.9584V13.6459C17.5898 14.6569 17.1535 15.3537 16.5679 15.7753C16.0166 16.1723 15.3753 16.298 14.9377 16.298H2.66689C2.0685 16.298 1.49461 16.0603 1.07148 15.6371C0.648356 15.214 0.410645 14.6401 0.410645 14.0417V2.9584C0.410645 2.36 0.648356 1.78612 1.07148 1.36299Z" fill="#100E0F"/>
<path fill-rule="evenodd" clip-rule="evenodd" d="M3.91913 2.45967C4.19412 2.70967 4.21439 3.13525 3.96439 3.41024L3.95648 3.41895C3.70648 3.69394 3.2809 3.71421 3.00591 3.46421C2.73091 3.21422 2.71065 2.78863 2.96065 2.51364L2.96856 2.50493C3.21856 2.22994 3.64414 2.20968 3.91913 2.45967ZM6.29413 2.45967C6.56912 2.70967 6.58939 3.13525 6.33939 3.41024L6.33148 3.41895C6.08148 3.69394 5.6559 3.71421 5.38091 3.46421C5.10591 3.21422 5.08565 2.78863 5.33564 2.51364L5.34356 2.50493C5.59356 2.22994 6.01914 2.20968 6.29413 2.45967ZM8.66913 2.45967C8.94412 2.70967 8.96439 3.13525 8.71439 3.41024L8.70648 3.41895C8.45648 3.69394 8.0309 3.71421 7.75591 3.46421C7.48091 3.21422 7.46065 2.78863 7.71065 2.51364L7.71856 2.50493C7.96856 2.22994 8.39414 2.20968 8.66913 2.45967ZM0.410645 4.54171C0.410645 4.17007 0.71192 3.8688 1.08356 3.8688H16.9169C17.2885 3.8688 17.5898 4.17007 17.5898 4.54171C17.5898 4.91336 17.2885 5.21463 16.9169 5.21463H1.08356C0.71192 5.21463 0.410645 4.91336 0.410645 4.54171Z" fill="#100E0F"/>
</svg>
