<svg width="28" height="28" viewBox="0 0 28 28" fill="none" xmlns="http://www.w3.org/2000/svg">
<path d="M13.1516 23.6985C13.0463 23.8099 12.9641 23.9409 12.9094 24.0841C12.8548 24.2272 12.8289 24.3798 12.8333 24.533C12.8376 24.6862 12.8721 24.837 12.9347 24.9769C12.9973 25.1167 13.0869 25.2429 13.1983 25.3481C13.3096 25.4534 13.4407 25.5357 13.5839 25.5903C13.727 25.6449 13.8796 25.6708 14.0328 25.6665C14.1859 25.6621 14.3368 25.6277 14.4766 25.565C14.6165 25.5024 14.7427 25.4129 14.8479 25.3015L24.7646 14.8015C24.9694 14.5849 25.0835 14.2981 25.0835 14C25.0835 13.7019 24.9694 13.4151 24.7646 13.1985L14.8479 2.6973C14.7434 2.58348 14.6172 2.49157 14.4769 2.42691C14.3365 2.36225 14.1846 2.32612 14.0302 2.32064C13.8757 2.31515 13.7217 2.34041 13.5771 2.39494C13.4325 2.44948 13.3001 2.53221 13.1878 2.63832C13.0754 2.74443 12.9852 2.87182 12.9225 3.01307C12.8598 3.15433 12.8257 3.30664 12.8224 3.46117C12.819 3.61569 12.8464 3.76934 12.9029 3.91319C12.9594 4.05704 13.044 4.18823 13.1516 4.29914L22.3123 14L13.1516 23.6985Z" fill="black"/>
</svg>
