<svg width="28" height="29" viewBox="0 0 28 29" fill="none" xmlns="http://www.w3.org/2000/svg">
<path d="M22.8035 21.4464C23.0501 21.693 23.1886 22.0274 23.1886 22.3761C23.1886 22.7248 23.0501 23.0592 22.8035 23.3058C22.557 23.5524 22.2226 23.6909 21.8739 23.6909C21.5252 23.6909 21.1907 23.5524 20.9442 23.3058L14 16.3594L7.05355 23.3036C6.80698 23.5502 6.47256 23.6887 6.12386 23.6887C5.77516 23.6887 5.44074 23.5502 5.19417 23.3036C4.9476 23.057 4.80908 22.7226 4.80908 22.3739C4.80908 22.0252 4.9476 21.6908 5.19417 21.4442L12.1406 14.5L5.19636 7.5536C4.94979 7.30703 4.81127 6.97262 4.81127 6.62391C4.81127 6.27521 4.94979 5.9408 5.19636 5.69423C5.44293 5.44766 5.77735 5.30914 6.12605 5.30914C6.47475 5.30914 6.80917 5.44766 7.05573 5.69423L14 12.6406L20.9464 5.69313C21.1929 5.44656 21.5273 5.30804 21.876 5.30804C22.2247 5.30804 22.5592 5.44656 22.8057 5.69313C23.0523 5.9397 23.1908 6.27412 23.1908 6.62282C23.1908 6.97152 23.0523 7.30594 22.8057 7.55251L15.8593 14.5L22.8035 21.4464Z" fill="black"/>
</svg>
