<svg width="19" height="18" viewBox="0 0 19 18" fill="none" xmlns="http://www.w3.org/2000/svg">
<path fill-rule="evenodd" clip-rule="evenodd" d="M3.16689 2.04798C2.92544 2.04798 2.69387 2.1439 2.52313 2.31464C2.3524 2.48537 2.25648 2.71694 2.25648 2.9584V14.0417C2.25648 14.2832 2.3524 14.5148 2.52313 14.6855C2.69387 14.8562 2.92544 14.9521 3.16689 14.9521H10.2919C10.6635 14.9521 10.9648 15.2534 10.9648 15.6251C10.9648 15.9967 10.6635 16.298 10.2919 16.298H3.16689C2.5685 16.298 1.99461 16.0603 1.57148 15.6371C1.14836 15.214 0.910645 14.6401 0.910645 14.0417V2.9584C0.910645 2.36 1.14836 1.78612 1.57148 1.36299C1.99461 0.93986 2.5685 0.702148 3.16689 0.702148H15.8336C16.432 0.702148 17.0058 0.93986 17.429 1.36299C17.8521 1.78612 18.0898 2.36 18.0898 2.9584V10.0834C18.0898 10.455 17.7885 10.7563 17.4169 10.7563C17.0453 10.7563 16.744 10.455 16.744 10.0834V2.9584C16.744 2.71694 16.6481 2.48537 16.4773 2.31464C16.3066 2.1439 16.075 2.04798 15.8336 2.04798H3.16689Z" fill="#D90452"/>
<path fill-rule="evenodd" clip-rule="evenodd" d="M4.41913 2.45967C4.69412 2.70967 4.71439 3.13525 4.46439 3.41024L4.45648 3.41895C4.20648 3.69394 3.7809 3.71421 3.50591 3.46421C3.23091 3.21422 3.21065 2.78863 3.46065 2.51364L3.46856 2.50493C3.71856 2.22994 4.14414 2.20968 4.41913 2.45967ZM6.79413 2.45967C7.06912 2.70967 7.08939 3.13525 6.83939 3.41024L6.83148 3.41895C6.58148 3.69394 6.1559 3.71421 5.88091 3.46421C5.60591 3.21422 5.58565 2.78863 5.83564 2.51364L5.84356 2.50493C6.09356 2.22994 6.51914 2.20968 6.79413 2.45967ZM9.16913 2.45967C9.44412 2.70967 9.46439 3.13525 9.21439 3.41024L9.20648 3.41895C8.95648 3.69394 8.5309 3.71421 8.25591 3.46421C7.98091 3.21422 7.96065 2.78863 8.21065 2.51364L8.21856 2.50493C8.46856 2.22994 8.89414 2.20968 9.16913 2.45967ZM0.910645 4.54171C0.910645 4.17007 1.21192 3.8688 1.58356 3.8688H17.4169C17.7885 3.8688 18.0898 4.17007 18.0898 4.54171C18.0898 4.91336 17.7885 5.21463 17.4169 5.21463H1.58356C1.21192 5.21463 0.910645 4.91336 0.910645 4.54171ZM14.2475 10.1891C14.6498 10.1869 15.0486 10.2644 15.4208 10.4172C15.793 10.5699 16.1313 10.7948 16.4161 11.0789C16.701 11.363 16.9268 11.7007 17.0805 12.0725C17.2341 12.4444 17.3127 12.8429 17.3116 13.2452C17.3105 13.6475 17.2298 14.0457 17.0741 14.4166C17.0066 14.5773 16.9257 14.7315 16.8323 14.8777L17.8934 15.9415C18.1558 16.2047 18.1552 16.6307 17.8921 16.8932C17.6289 17.1556 17.2029 17.155 16.9404 16.8919L15.8753 15.8239C15.3931 16.1243 14.8324 16.2864 14.2554 16.2848C13.4513 16.2826 12.6806 15.9628 12.1113 15.3949C11.542 14.8271 11.2201 14.0572 11.2158 13.2531C11.2116 12.449 11.5252 11.6758 12.0885 11.1019C12.3703 10.8148 12.7062 10.5863 13.0767 10.4296C13.4473 10.273 13.8452 10.1912 14.2475 10.1891ZM14.9099 11.6623C14.702 11.577 14.4793 11.5337 14.2547 11.5349C14.03 11.5361 13.8078 11.5817 13.6008 11.6692C13.3939 11.7567 13.2064 11.8843 13.049 12.0447C12.7344 12.3651 12.5593 12.7969 12.5617 13.246C12.564 13.695 12.7438 14.1249 13.0617 14.442C13.3797 14.7592 13.81 14.9378 14.2591 14.939C14.7081 14.9402 15.1395 14.7639 15.4591 14.4486C15.6191 14.2908 15.7462 14.1029 15.8331 13.8957C15.9201 13.6886 15.9652 13.4662 15.9658 13.2416C15.9664 13.0169 15.9225 12.7943 15.8367 12.5867C15.7509 12.3791 15.6248 12.1905 15.4657 12.0318C15.3066 11.8731 15.1177 11.7476 14.9099 11.6623Z" fill="#D90452"/>
</svg>
