<svg width="28" height="29" viewBox="0 0 28 29" fill="none" xmlns="http://www.w3.org/2000/svg">
<path fill-rule="evenodd" clip-rule="evenodd" d="M3.5 8.8125C3.5 8.08763 4.08763 7.5 4.8125 7.5H23.1875C23.9124 7.5 24.5 8.08763 24.5 8.8125C24.5 9.53737 23.9124 10.125 23.1875 10.125H4.8125C4.08763 10.125 3.5 9.53737 3.5 8.8125ZM3.5 14.5C3.5 13.7751 4.08763 13.1875 4.8125 13.1875H23.1875C23.9124 13.1875 24.5 13.7751 24.5 14.5C24.5 15.2249 23.9124 15.8125 23.1875 15.8125H4.8125C4.08763 15.8125 3.5 15.2249 3.5 14.5ZM3.5 20.1875C3.5 19.4626 4.08763 18.875 4.8125 18.875H23.1875C23.9124 18.875 24.5 19.4626 24.5 20.1875C24.5 20.9124 23.9124 21.5 23.1875 21.5H4.8125C4.08763 21.5 3.5 20.9124 3.5 20.1875Z" fill="#100E0F"/>
</svg>
