<svg width="22" height="22" viewBox="0 0 22 22" fill="none" xmlns="http://www.w3.org/2000/svg">
<path fill-rule="evenodd" clip-rule="evenodd" d="M13.4438 5.29626C12.9938 5.29626 12.629 4.93145 12.629 4.48144C12.629 4.03143 12.9938 3.66663 13.4438 3.66663H17.5179C17.9679 3.66663 18.3327 4.03143 18.3327 4.48144V8.55551C18.3327 9.00552 17.9679 9.37033 17.5179 9.37033C17.0679 9.37033 16.7031 9.00552 16.7031 8.55551V6.44858L10.7607 12.3909C10.4425 12.7091 9.92658 12.7091 9.60837 12.3909C9.29017 12.0727 9.29017 11.5568 9.60837 11.2386L15.5507 5.29626H13.4438ZM4.38198 6.01222C4.8404 5.55379 5.46215 5.29626 6.11046 5.29626H10.9993C11.4494 5.29626 11.8142 5.66106 11.8142 6.11107C11.8142 6.56108 11.4494 6.92589 10.9993 6.92589H6.11046C5.89436 6.92589 5.68711 7.01173 5.5343 7.16454C5.38149 7.31735 5.29565 7.5246 5.29565 7.7407V15.8888C5.29565 16.105 5.38149 16.3122 5.5343 16.465C5.68711 16.6178 5.89436 16.7037 6.11046 16.7037H14.2586C14.4747 16.7037 14.682 16.6178 14.8348 16.465C14.9876 16.3122 15.0734 16.1049 15.0734 15.8888V11C15.0734 10.5499 15.4382 10.1851 15.8882 10.1851C16.3382 10.1851 16.7031 10.5499 16.7031 11V15.8888C16.7031 16.5372 16.4455 17.1589 15.9871 17.6173C15.5287 18.0758 14.9069 18.3333 14.2586 18.3333H6.11046C5.46215 18.3333 4.8404 18.0758 4.38198 17.6173C3.92355 17.1589 3.66602 16.5372 3.66602 15.8888V7.7407C3.66602 7.09239 3.92355 6.47064 4.38198 6.01222Z" fill="#186AE5"/>
</svg>
