<svg width="19" height="17" viewBox="0 0 19 17" fill="none" xmlns="http://www.w3.org/2000/svg">
<path fill-rule="evenodd" clip-rule="evenodd" d="M3.16689 2.04798C2.92544 2.04798 2.69387 2.1439 2.52313 2.31464C2.3524 2.48537 2.25648 2.71694 2.25648 2.9584V14.0417C2.25648 14.2832 2.3524 14.5148 2.52313 14.6855C2.69387 14.8562 2.92544 14.9521 3.16689 14.9521H15.4377C15.6599 14.9521 16.0082 14.88 16.2815 14.6831C16.5206 14.511 16.744 14.2182 16.744 13.6459V2.9584C16.744 2.71694 16.6481 2.48537 16.4773 2.31464C16.3066 2.1439 16.075 2.04798 15.8336 2.04798H3.16689ZM1.57148 1.36299C1.99461 0.93986 2.5685 0.702148 3.16689 0.702148H15.8336C16.432 0.702148 17.0058 0.93986 17.429 1.36299C17.8521 1.78612 18.0898 2.36 18.0898 2.9584V13.6459C18.0898 14.6569 17.6535 15.3537 17.0679 15.7753C16.5166 16.1723 15.8753 16.298 15.4377 16.298H3.16689C2.5685 16.298 1.99461 16.0603 1.57148 15.6371C1.14836 15.214 0.910645 14.6401 0.910645 14.0417V2.9584C0.910645 2.36 1.14836 1.78612 1.57148 1.36299Z" fill="#D90452"/>
<path fill-rule="evenodd" clip-rule="evenodd" d="M4.41913 2.45967C4.69412 2.70967 4.71439 3.13525 4.46439 3.41024L4.45648 3.41895C4.20648 3.69394 3.7809 3.71421 3.50591 3.46421C3.23091 3.21422 3.21065 2.78863 3.46065 2.51364L3.46856 2.50493C3.71856 2.22994 4.14414 2.20968 4.41913 2.45967ZM6.79413 2.45967C7.06912 2.70967 7.08939 3.13525 6.83939 3.41024L6.83148 3.41895C6.58148 3.69394 6.1559 3.71421 5.88091 3.46421C5.60591 3.21422 5.58565 2.78863 5.83564 2.51364L5.84356 2.50493C6.09356 2.22994 6.51914 2.20968 6.79413 2.45967ZM9.16913 2.45967C9.44412 2.70967 9.46439 3.13525 9.21439 3.41024L9.20648 3.41895C8.95648 3.69394 8.5309 3.71421 8.25591 3.46421C7.98091 3.21422 7.96065 2.78863 8.21065 2.51364L8.21856 2.50493C8.46856 2.22994 8.89414 2.20968 9.16913 2.45967ZM0.910645 4.54171C0.910645 4.17007 1.21192 3.8688 1.58356 3.8688H17.4169C17.7885 3.8688 18.0898 4.17007 18.0898 4.54171C18.0898 4.91336 17.7885 5.21463 17.4169 5.21463H1.58356C1.21192 5.21463 0.910645 4.91336 0.910645 4.54171Z" fill="#D90452"/>
</svg>
