<svg width="17" height="17" viewBox="0 0 17 17" fill="none" xmlns="http://www.w3.org/2000/svg">
<path fill-rule="evenodd" clip-rule="evenodd" d="M12.1793 0.583268C12.5118 0.58199 12.84 0.659398 13.1369 0.80918C13.1753 0.828522 13.2129 0.849001 13.2499 0.870577C13.2869 0.849001 13.3246 0.828522 13.3629 0.80918C13.6598 0.659399 13.988 0.581991 14.3205 0.583268C15.4567 0.58425 16.4166 1.4848 16.4166 2.64358C16.4166 3.59084 15.8542 4.38871 15.3034 4.9288C14.7424 5.47886 14.0458 5.9082 13.4932 6.08664C13.335 6.1377 13.1648 6.1377 13.0067 6.08664C12.4539 5.90818 11.7574 5.4787 11.1964 4.92862C10.6457 4.38854 10.0833 3.59067 10.0833 2.64358C10.0833 1.48465 11.0437 0.584251 12.1793 0.583268ZM12.4238 2.22283C12.3497 2.18547 12.2679 2.1662 12.1849 2.16659L12.1812 2.1666C11.8752 2.1666 11.6666 2.40189 11.6666 2.64358C11.6666 2.96474 11.8761 3.37752 12.305 3.79813C12.6194 4.10648 12.9746 4.34187 13.2499 4.47807C13.5253 4.34188 13.8805 4.10654 14.1949 3.79825C14.6237 3.37775 14.8333 2.96497 14.8333 2.64358C14.8333 2.40174 14.6249 2.1666 14.3187 2.1666L14.3149 2.16659C14.232 2.1662 14.1501 2.18547 14.076 2.22283C14.002 2.2602 13.9378 2.31458 13.8888 2.38153C13.7397 2.58529 13.5024 2.70572 13.2499 2.70572C12.9974 2.70572 12.7601 2.58529 12.611 2.38153C12.562 2.31458 12.4979 2.2602 12.4238 2.22283ZM1.16294 1.16295C1.5341 0.791786 2.03751 0.583267 2.56242 0.583267H7.70825C8.14548 0.583267 8.49992 0.937708 8.49992 1.37493C8.49992 1.81216 8.14548 2.1666 7.70825 2.1666H2.56242C2.45744 2.1666 2.35676 2.2083 2.28252 2.28254C2.20829 2.35677 2.16659 2.45745 2.16659 2.56243V11.2708C2.16659 11.3757 2.20829 11.4764 2.28252 11.5507C2.35676 11.6249 2.45744 11.6666 2.56242 11.6666H14.4374C14.5424 11.6666 14.6431 11.6249 14.7173 11.5507C14.7915 11.4764 14.8333 11.3757 14.8333 11.2708V7.70827C14.8333 7.27104 15.1877 6.9166 15.6249 6.9166C16.0621 6.9166 16.4166 7.27104 16.4166 7.70827V11.2708C16.4166 11.7957 16.2081 12.2991 15.8369 12.6702C15.4657 13.0414 14.9623 13.2499 14.4374 13.2499H9.29158V14.8333H12.4583C12.8955 14.8333 13.2499 15.1877 13.2499 15.6249C13.2499 16.0622 12.8955 16.4166 12.4583 16.4166H4.54158C4.10436 16.4166 3.74992 16.0622 3.74992 15.6249C3.74992 15.1877 4.10436 14.8333 4.54158 14.8333H7.70825V13.2499H2.56242C2.03751 13.2499 1.5341 13.0414 1.16294 12.6702C0.791771 12.2991 0.583252 11.7957 0.583252 11.2708V2.56243C0.583252 2.03753 0.791771 1.53412 1.16294 1.16295Z" fill="#D90452"/>
</svg>
