<svg width="28" height="28" viewBox="0 0 28 28" fill="none" xmlns="http://www.w3.org/2000/svg">
<path d="M4.30146 8.32951C4.19008 8.22426 4.05906 8.14198 3.91587 8.08736C3.77269 8.03274 3.62015 8.00686 3.46697 8.01119C3.31378 8.01552 3.16295 8.04999 3.02308 8.11261C2.88321 8.17524 2.75705 8.2648 2.6518 8.37618C2.54654 8.48756 2.46426 8.61859 2.40964 8.76177C2.35502 8.90495 2.32914 9.05749 2.33347 9.21068C2.33781 9.36386 2.37227 9.5147 2.4349 9.65456C2.49752 9.79443 2.58708 9.92059 2.69846 10.0258L13.1985 19.9425C13.4151 20.1473 13.7019 20.2614 14 20.2614C14.2981 20.2614 14.5849 20.1473 14.8015 19.9425L25.3026 10.0258C25.4165 9.92129 25.5084 9.79515 25.573 9.65477C25.6377 9.51439 25.6738 9.36256 25.6793 9.2081C25.6848 9.05364 25.6595 8.89963 25.605 8.75501C25.5505 8.6104 25.4677 8.47806 25.3616 8.36568C25.2555 8.25331 25.1281 8.16314 24.9869 8.10041C24.8456 8.03769 24.6933 8.00365 24.5388 8.00029C24.3843 7.99692 24.2306 8.02429 24.0867 8.08081C23.9429 8.13733 23.8117 8.22187 23.7008 8.32951L14 17.4902L4.30146 8.32951Z" fill="black"/>
</svg>
