<svg width="41" height="41" viewBox="0 0 41 41" fill="none" xmlns="http://www.w3.org/2000/svg">
<path d="M32.9384 31.1248C33.0575 31.2438 33.1519 31.3851 33.2163 31.5407C33.2808 31.6962 33.3139 31.8629 33.3139 32.0313C33.3139 32.1996 33.2808 32.3663 33.2163 32.5218C33.1519 32.6774 33.0575 32.8187 32.9384 32.9377C32.8194 33.0568 32.6781 33.1512 32.5225 33.2156C32.367 33.2801 32.2003 33.3132 32.032 33.3132C31.8636 33.3132 31.6969 33.2801 31.5414 33.2156C31.3858 33.1512 31.2445 33.0568 31.1255 32.9377L20.5007 22.3114L9.87595 32.9377C9.63553 33.1782 9.30946 33.3132 8.96946 33.3132C8.62946 33.3132 8.30339 33.1782 8.06298 32.9377C7.82256 32.6973 7.6875 32.3713 7.6875 32.0313C7.6875 31.6913 7.82256 31.3652 8.06298 31.1248L18.6893 20.5L8.06298 9.87524C7.82256 9.63483 7.6875 9.30876 7.6875 8.96876C7.6875 8.62876 7.82256 8.30269 8.06298 8.06228C8.30339 7.82186 8.62946 7.6868 8.96946 7.6868C9.30946 7.6868 9.63553 7.82186 9.87595 8.06228L20.5007 18.6886L31.1255 8.06228C31.3659 7.82186 31.692 7.6868 32.032 7.6868C32.372 7.6868 32.698 7.82186 32.9384 8.06228C33.1789 8.30269 33.3139 8.62876 33.3139 8.96876C33.3139 9.30876 33.1789 9.63483 32.9384 9.87524L22.3121 20.5L32.9384 31.1248Z" fill="black"/>
</svg>
