<svg width="59" height="58" viewBox="0 0 59 58" fill="none" xmlns="http://www.w3.org/2000/svg">
<path fill-rule="evenodd" clip-rule="evenodd" d="M29.4988 2.33333C33.0013 2.32923 36.4701 3.01712 39.706 4.35752C42.9416 5.69781 45.8806 7.66409 48.3542 10.1434C50.834 12.6173 52.8006 15.5567 54.1411 18.7928C55.4815 22.0287 56.1694 25.4975 56.1654 29C56.1695 32.5025 55.4816 35.9713 54.1412 39.2073C52.8008 42.4432 50.8343 45.3823 48.3547 47.856C45.8811 50.3356 42.9419 52.3021 39.706 53.6425C36.47 54.9829 33.0012 55.6708 29.4987 55.6667C25.9962 55.6707 22.5274 54.9828 19.2915 53.6424C16.0554 52.3019 13.116 50.3353 10.6421 47.8554C8.1628 45.3819 6.19653 42.4429 4.85623 39.2073C3.51584 35.9714 2.82794 32.5025 2.83205 29C2.828 25.4975 3.51592 22.0287 4.85633 18.7928C6.19672 15.5569 8.16315 12.6177 10.6427 10.144C13.1164 7.66444 16.0556 5.698 19.2915 4.35761C22.5274 3.0172 25.9962 2.32928 29.4988 2.33333ZM37.7925 8.97689C35.1643 7.8882 32.3468 7.32965 29.502 7.33333H29.4955C26.6507 7.3297 23.8332 7.88829 21.205 8.97698C18.5767 10.0657 16.1895 11.663 14.1805 13.6772L14.1759 13.6818C12.1617 15.6908 10.5644 18.078 9.4757 20.7063C8.38701 23.3345 7.82842 26.152 7.83205 28.9968V29.0032C7.82836 31.848 8.38692 34.6655 9.47561 37.2938C10.5643 39.922 12.1617 42.3092 14.1759 44.3181L14.1805 44.3228C16.1895 46.337 18.5767 47.9343 21.205 49.023C23.8332 50.1117 26.6507 50.6703 29.4955 50.6667H29.502C32.3468 50.6703 35.1643 50.1118 37.7925 49.0231C40.4207 47.9344 42.8079 46.337 44.8169 44.3228L44.8215 44.3181C46.8358 42.3092 48.4331 39.922 49.5218 37.2938C50.6105 34.6655 51.1691 31.848 51.1654 29.0032V28.9968C51.169 26.152 50.6104 23.3345 49.5217 20.7063C48.433 18.078 46.8357 15.6908 44.8215 13.6818L44.8169 13.6772C42.8079 11.6629 40.4208 10.0656 37.7925 8.97689ZM43.3498 19.9822C44.3261 20.9585 44.3261 22.5415 43.3498 23.5178L28.8498 38.0178C28.381 38.4866 27.7451 38.75 27.0821 38.75C26.419 38.75 25.7831 38.4866 25.3143 38.0178L18.0643 30.7678C17.088 29.7915 17.088 28.2085 18.0643 27.2322C19.0406 26.2559 20.6235 26.2559 21.5998 27.2322L27.0821 32.7145L39.8143 19.9822C40.7906 19.0059 42.3735 19.0059 43.3498 19.9822Z" fill="#27BBA3"/>
</svg>
