<svg width="18" height="18" viewBox="0 0 18 18" fill="none" xmlns="http://www.w3.org/2000/svg">
<path fill-rule="evenodd" clip-rule="evenodd" d="M2.66689 2.04798C2.42544 2.04798 2.19387 2.1439 2.02313 2.31464C1.8524 2.48537 1.75648 2.71694 1.75648 2.9584V14.0417C1.75648 14.2832 1.8524 14.5148 2.02313 14.6855C2.19387 14.8562 2.42544 14.9521 2.66689 14.9521H9.79189C10.1635 14.9521 10.4648 15.2534 10.4648 15.6251C10.4648 15.9967 10.1635 16.298 9.79189 16.298H2.66689C2.0685 16.298 1.49461 16.0603 1.07148 15.6371C0.648356 15.214 0.410645 14.6401 0.410645 14.0417V2.9584C0.410645 2.36 0.648356 1.78612 1.07148 1.36299C1.49461 0.93986 2.0685 0.702148 2.66689 0.702148H15.3336C15.932 0.702148 16.5058 0.93986 16.929 1.36299C17.3521 1.78612 17.5898 2.36 17.5898 2.9584V10.0834C17.5898 10.455 17.2885 10.7563 16.9169 10.7563C16.5453 10.7563 16.244 10.455 16.244 10.0834V2.9584C16.244 2.71694 16.1481 2.48537 15.9773 2.31464C15.8066 2.1439 15.575 2.04798 15.3336 2.04798H2.66689Z" fill="#0F0D0E"/>
<path fill-rule="evenodd" clip-rule="evenodd" d="M3.91913 2.45967C4.19412 2.70967 4.21439 3.13525 3.96439 3.41024L3.95648 3.41895C3.70648 3.69394 3.2809 3.71421 3.00591 3.46421C2.73091 3.21422 2.71065 2.78863 2.96065 2.51364L2.96856 2.50493C3.21856 2.22994 3.64414 2.20968 3.91913 2.45967ZM6.29413 2.45967C6.56912 2.70967 6.58939 3.13525 6.33939 3.41024L6.33148 3.41895C6.08148 3.69394 5.6559 3.71421 5.38091 3.46421C5.10591 3.21422 5.08565 2.78863 5.33564 2.51364L5.34356 2.50493C5.59356 2.22994 6.01914 2.20968 6.29413 2.45967ZM8.66913 2.45967C8.94412 2.70967 8.96439 3.13525 8.71439 3.41024L8.70648 3.41895C8.45648 3.69394 8.0309 3.71421 7.75591 3.46421C7.48091 3.21422 7.46065 2.78863 7.71065 2.51364L7.71856 2.50493C7.96856 2.22994 8.39414 2.20968 8.66913 2.45967ZM0.410645 4.54171C0.410645 4.17007 0.71192 3.8688 1.08356 3.8688H16.9169C17.2885 3.8688 17.5898 4.17007 17.5898 4.54171C17.5898 4.91336 17.2885 5.21463 16.9169 5.21463H1.08356C0.71192 5.21463 0.410645 4.91336 0.410645 4.54171ZM13.7475 10.1891C14.1498 10.1869 14.5486 10.2644 14.9208 10.4172C15.293 10.5699 15.6313 10.7948 15.9161 11.0789C16.201 11.363 16.4268 11.7007 16.5805 12.0725C16.7341 12.4444 16.8127 12.8429 16.8116 13.2452C16.8105 13.6475 16.7298 14.0457 16.5741 14.4166C16.5066 14.5773 16.4257 14.7315 16.3323 14.8777L17.3934 15.9415C17.6558 16.2047 17.6552 16.6307 17.3921 16.8932C17.1289 17.1556 16.7029 17.155 16.4404 16.8919L15.3753 15.8239C14.8931 16.1243 14.3324 16.2864 13.7554 16.2848C12.9513 16.2826 12.1806 15.9628 11.6113 15.3949C11.042 14.8271 10.7201 14.0572 10.7158 13.2531C10.7116 12.449 11.0252 11.6758 11.5885 11.1019C11.8703 10.8148 12.2062 10.5863 12.5767 10.4296C12.9473 10.273 13.3452 10.1912 13.7475 10.1891ZM14.4099 11.6623C14.202 11.577 13.9793 11.5337 13.7547 11.5349C13.53 11.5361 13.3078 11.5817 13.1008 11.6692C12.8939 11.7567 12.7064 11.8843 12.549 12.0447C12.2344 12.3651 12.0593 12.7969 12.0617 13.246C12.064 13.695 12.2438 14.1249 12.5617 14.442C12.8797 14.7592 13.31 14.9378 13.7591 14.939C14.2081 14.9402 14.6395 14.7639 14.9591 14.4486C15.1191 14.2908 15.2462 14.1029 15.3331 13.8957C15.4201 13.6886 15.4652 13.4662 15.4658 13.2416C15.4664 13.0169 15.4225 12.7943 15.3367 12.5867C15.2509 12.3791 15.1248 12.1905 14.9657 12.0318C14.8066 11.8731 14.6177 11.7476 14.4099 11.6623Z" fill="#0F0D0E"/>
</svg>
