<svg width="12" height="17" viewBox="0 0 12 17" fill="none" xmlns="http://www.w3.org/2000/svg">
<path d="M9.31235 1.177H2.68768C1.8976 1.177 1.25635 1.83646 1.25635 2.6495V14.3503C1.25635 15.1634 1.8976 15.8228 2.68768 15.8228H9.31235C10.1024 15.8228 10.7437 15.1634 10.7437 14.3503V2.6495C10.7437 1.83646 10.1024 1.177 9.31235 1.177Z" stroke="#D90452" stroke-width="1.5" stroke-linecap="round" stroke-linejoin="round"/>
<path d="M4.41895 3.17358H7.58086M5.9999 13.8619C6.05601 13.8654 6.11223 13.8573 6.1651 13.8382C6.21798 13.8192 6.26639 13.7895 6.30735 13.751C6.34831 13.7125 6.38095 13.666 6.40326 13.6144C6.42558 13.5628 6.43709 13.5072 6.43709 13.451C6.43709 13.3948 6.42558 13.3392 6.40326 13.2876C6.38095 13.236 6.34831 13.1895 6.30735 13.151C6.26639 13.1125 6.21798 13.0828 6.1651 13.0638C6.11223 13.0447 6.05601 13.0366 5.9999 13.0401C5.89534 13.0466 5.79719 13.0927 5.72544 13.1691C5.6537 13.2454 5.61376 13.3462 5.61376 13.451C5.61376 13.5558 5.6537 13.6566 5.72544 13.7329C5.79719 13.8093 5.89534 13.8554 5.9999 13.8619Z" stroke="#D90452" stroke-width="1.5" stroke-linecap="round" stroke-linejoin="round"/>
</svg>
