<svg width="18" height="17" viewBox="0 0 18 17" fill="none" xmlns="http://www.w3.org/2000/svg">
<path fill-rule="evenodd" clip-rule="evenodd" d="M2.45468 2.35044C2.82585 1.97927 3.32926 1.77075 3.85417 1.77075H7.8125C8.24973 1.77075 8.60417 2.12519 8.60417 2.56242C8.60417 2.99964 8.24973 3.35409 7.8125 3.35409H3.85417C3.74918 3.35409 3.6485 3.39579 3.57427 3.47002C3.50004 3.54425 3.45833 3.64494 3.45833 3.74992V11.2708H14.5417V8.10409C14.5417 7.66686 14.8961 7.31242 15.3333 7.31242C15.7706 7.31242 16.125 7.66686 16.125 8.10409V12.0624C16.125 12.4996 15.7706 12.8541 15.3333 12.8541H2.66667C2.22944 12.8541 1.875 12.4996 1.875 12.0624V3.74992C1.875 3.22501 2.08352 2.7216 2.45468 2.35044Z" fill="#D90452"/>
<path fill-rule="evenodd" clip-rule="evenodd" d="M0.291504 12.0624C0.291504 11.6252 0.645945 11.2708 1.08317 11.2708H16.9165C17.3537 11.2708 17.7082 11.6252 17.7082 12.0624V12.8541C17.7082 13.6939 17.3745 14.4994 16.7807 15.0933C16.1868 15.6871 15.3814 16.0208 14.5415 16.0208H3.45817C2.61832 16.0208 1.81286 15.6871 1.219 15.0933C0.625134 14.4994 0.291504 13.6939 0.291504 12.8541V12.0624ZM1.87484 12.8541C1.87484 13.274 2.04165 13.6767 2.33859 13.9737C2.63552 14.2706 3.03824 14.4374 3.45817 14.4374H14.5415C14.9614 14.4374 15.3642 14.2706 15.6611 13.9737C15.958 13.6767 16.1248 13.274 16.1248 12.8541H1.87484Z" fill="#D90452"/>
<path fill-rule="evenodd" clip-rule="evenodd" d="M12.2836 0.979142C12.6161 0.977864 12.9442 1.05527 13.2412 1.20505C13.2795 1.2244 13.3172 1.24488 13.3542 1.26645C13.3911 1.24488 13.4288 1.2244 13.4672 1.20505C13.7641 1.05527 14.0922 0.977864 14.4248 0.979142C15.5609 0.980124 16.5208 1.88068 16.5208 3.03945C16.5208 3.98671 15.9585 4.78458 15.4076 5.32467C14.8466 5.87473 14.1501 6.30408 13.5974 6.48252C13.4393 6.53357 13.2691 6.53357 13.1109 6.48252C12.5582 6.30406 11.8616 5.87457 11.3007 5.3245C10.7499 4.78442 10.1875 3.98654 10.1875 3.03945C10.1875 1.88053 11.148 0.980125 12.2836 0.979142ZM12.5281 2.61871C12.454 2.58135 12.3721 2.56207 12.2892 2.56247L12.2854 2.56248V2.56247C11.9794 2.56247 11.7708 2.79776 11.7708 3.03945C11.7708 3.36061 11.9803 3.7734 12.4092 4.194C12.7237 4.50235 13.0788 4.73774 13.3542 4.87394C13.6296 4.73775 13.9847 4.50241 14.2991 4.19412C14.728 3.77362 14.9375 3.36084 14.9375 3.03945C14.9375 2.79761 14.7292 2.56247 14.4229 2.56247H14.4192V2.56247C14.3362 2.56207 14.2543 2.58135 14.1803 2.61871C14.1062 2.65607 14.0421 2.71045 13.9931 2.7774C13.844 2.98117 13.6067 3.1016 13.3542 3.1016C13.1017 3.1016 12.8643 2.98117 12.7153 2.7774C12.6663 2.71045 12.6021 2.65607 12.5281 2.61871Z" fill="#D90452"/>
</svg>
