<svg width="20" height="19" viewBox="0 0 20 19" fill="none" xmlns="http://www.w3.org/2000/svg">
<path fill-rule="evenodd" clip-rule="evenodd" d="M13.6793 1.58327C14.0118 1.58199 14.34 1.6594 14.6369 1.80918C14.6753 1.82852 14.7129 1.849 14.7499 1.87058C14.7869 1.849 14.8246 1.82852 14.8629 1.80918C15.1598 1.6594 15.488 1.58199 15.8205 1.58327C16.9567 1.58425 17.9166 2.4848 17.9166 3.64358C17.9166 4.59084 17.3542 5.38871 16.8034 5.9288C16.2424 6.47886 15.5458 6.9082 14.9932 7.08664C14.835 7.1377 14.6648 7.1377 14.5067 7.08664C13.9539 6.90818 13.2574 6.4787 12.6964 5.92862C12.1457 5.38854 11.5833 4.59067 11.5833 3.64358C11.5833 2.48465 12.5437 1.58425 13.6793 1.58327ZM13.9238 3.22283C13.8497 3.18547 13.7679 3.1662 13.6849 3.16659L13.6812 3.1666C13.3752 3.1666 13.1666 3.40189 13.1666 3.64358C13.1666 3.96474 13.3761 4.37752 13.805 4.79813C14.1194 5.10648 14.4746 5.34187 14.7499 5.47807C15.0253 5.34188 15.3805 5.10654 15.6949 4.79825C16.1237 4.37775 16.3333 3.96497 16.3333 3.64358C16.3333 3.40174 16.1249 3.1666 15.8187 3.1666L15.8149 3.16659C15.732 3.1662 15.6501 3.18547 15.576 3.22283C15.502 3.2602 15.4378 3.31458 15.3888 3.38153C15.2397 3.58529 15.0024 3.70572 14.7499 3.70572C14.4974 3.70572 14.2601 3.58529 14.111 3.38153C14.062 3.31458 13.9979 3.2602 13.9238 3.22283ZM2.66294 2.16295C3.0341 1.79179 3.53751 1.58327 4.06242 1.58327H9.20825C9.64548 1.58327 9.99992 1.93771 9.99992 2.37493C9.99992 2.81216 9.64548 3.1666 9.20825 3.1666H4.06242C3.95744 3.1666 3.85676 3.2083 3.78252 3.28254C3.70829 3.35677 3.66659 3.45745 3.66659 3.56243V12.2708C3.66659 12.3757 3.70829 12.4764 3.78252 12.5507C3.85676 12.6249 3.95744 12.6666 4.06242 12.6666H15.9374C16.0424 12.6666 16.1431 12.6249 16.2173 12.5507C16.2915 12.4764 16.3333 12.3757 16.3333 12.2708V8.70827C16.3333 8.27104 16.6877 7.9166 17.1249 7.9166C17.5621 7.9166 17.9166 8.27104 17.9166 8.70827V12.2708C17.9166 12.7957 17.7081 13.2991 17.3369 13.6702C16.9657 14.0414 16.4623 14.2499 15.9374 14.2499H10.7916V15.8333H13.9583C14.3955 15.8333 14.7499 16.1877 14.7499 16.6249C14.7499 17.0622 14.3955 17.4166 13.9583 17.4166H6.04158C5.60436 17.4166 5.24992 17.0622 5.24992 16.6249C5.24992 16.1877 5.60436 15.8333 6.04158 15.8333H9.20825V14.2499H4.06242C3.53751 14.2499 3.0341 14.0414 2.66294 13.6702C2.29177 13.2991 2.08325 12.7957 2.08325 12.2708V3.56243C2.08325 3.03753 2.29177 2.53412 2.66294 2.16295Z" fill="#0F0D0E"/>
</svg>
