<svg width="35" height="37" viewBox="0 0 35 37" fill="none" xmlns="http://www.w3.org/2000/svg">
<path d="M17.5002 2.8999C9.1375 2.8999 2.3335 9.8983 2.3335 18.4999C2.3335 27.1015 9.1375 34.0999 17.5002 34.0999C25.8628 34.0999 32.6668 27.1015 32.6668 18.4999C32.6668 9.8983 25.8628 2.8999 17.5002 2.8999ZM13.6105 7.6999H21.3875C25.0334 7.6999 28.0002 10.7503 28.0002 14.4991V22.4983C28.0002 26.2483 25.0345 29.2999 21.3898 29.2999H13.6128C9.96696 29.2999 7.00016 26.2495 7.00016 22.5007V14.5015C7.00016 10.7515 9.96585 7.6999 13.6105 7.6999ZM13.6105 10.0999C11.2527 10.0999 9.3335 12.0751 9.3335 14.5015V22.5007C9.3335 24.9259 11.2538 26.8999 13.6128 26.8999H21.3898C23.7476 26.8999 25.6668 24.9247 25.6668 22.4983V14.4991C25.6668 12.0739 23.7465 10.0999 21.3875 10.0999H13.6105ZM22.9461 12.0991C23.3755 12.0991 23.7231 12.4567 23.7231 12.8983C23.7231 13.3399 23.3755 13.6999 22.9461 13.6999C22.5168 13.6999 22.1668 13.3399 22.1668 12.8983C22.1668 12.4567 22.5168 12.0991 22.9461 12.0991ZM17.5002 12.4999C20.7167 12.4999 23.3335 15.1915 23.3335 18.4999C23.3335 21.8083 20.7167 24.4999 17.5002 24.4999C14.2837 24.4999 11.6668 21.8083 11.6668 18.4999C11.6668 15.1915 14.2837 12.4999 17.5002 12.4999ZM17.5002 14.8999C16.5719 14.8999 15.6817 15.2792 15.0253 15.9543C14.3689 16.6294 14.0002 17.5451 14.0002 18.4999C14.0002 19.4547 14.3689 20.3704 15.0253 21.0455C15.6817 21.7206 16.5719 22.0999 17.5002 22.0999C18.4284 22.0999 19.3187 21.7206 19.975 21.0455C20.6314 20.3704 21.0002 19.4547 21.0002 18.4999C21.0002 17.5451 20.6314 16.6294 19.975 15.9543C19.3187 15.2792 18.4284 14.8999 17.5002 14.8999Z" fill="#100E0F"/>
</svg>
