<svg width="36" height="37" viewBox="0 0 36 37" fill="none" xmlns="http://www.w3.org/2000/svg">
<path d="M18.0001 4.1001C10.0477 4.1001 3.6001 10.5477 3.6001 18.5001C3.6001 26.4525 10.0477 32.9001 18.0001 32.9001C25.9525 32.9001 32.4001 26.4525 32.4001 18.5001C32.4001 10.5477 25.9525 4.1001 18.0001 4.1001ZM12.5953 10.5837C13.6057 10.5837 14.2789 11.2569 14.2789 12.1545C14.2789 13.0521 13.6057 13.7253 12.4837 13.7253C11.4733 13.7265 10.8001 13.0521 10.8001 12.1545C10.8001 11.2569 11.4733 10.5837 12.5953 10.5837ZM14.4001 24.5001H10.8001V14.9001H14.4001V24.5001ZM26.4001 24.5001H23.0113V19.2537C23.0113 17.8029 22.1077 17.4681 21.7693 17.4681C21.4309 17.4681 20.3005 17.6913 20.3005 19.2537C20.3005 19.4769 20.3005 24.5001 20.3005 24.5001H16.8001V14.9001H20.3017V16.2393C20.7529 15.4581 21.6565 14.9001 23.3509 14.9001C25.0453 14.9001 26.4001 16.2393 26.4001 19.2537V24.5001Z" fill="#100E0F"/>
</svg>
