<svg xmlns="http://www.w3.org/2000/svg" width="73.925" height="71.959" viewBox="0 0 73.925 71.959">
  <g id="Grupo_163" data-name="Grupo 163" transform="translate(191.927 -1339.087)">
    <path id="Trazado_441" data-name="Trazado 441" d="M-191.927,1352.354c.373-.48.8-.854,1.462-.6s.707.829.707,1.432q-.006,14.115,0,28.226c0,.97,0,.972.949.972h52.628a1.373,1.373,0,0,0,.43-.008c.184-.066.439-.156.495-.3a.644.644,0,0,0-.146-.565c-1.417-1.334-2.854-2.646-4.274-3.955-3.732,2.122-7.209,1.627-9.44-1.31a6.6,6.6,0,0,1,.6-8.693,6.721,6.721,0,0,1,9.265-.186c.143-.094.306-.184.454-.3,2.569-1.944,5.132-3.9,7.712-5.832a.653.653,0,0,0,.268-.889,5.16,5.16,0,0,1,1.342-5.76,5.12,5.12,0,0,1,5.616-1.152,5.15,5.15,0,0,1,3.509,4.689,5.054,5.054,0,0,1-2.578,4.978,5.187,5.187,0,0,1-5.792-.085c-.182-.116-.353-.251-.529-.375a.672.672,0,0,0-.111-.032l-8.549,6.52a6.805,6.805,0,0,1-.336,6.8l3.047,2.777c0-1.342,0-2.488,0-3.633,0-1.107-.009-2.214.011-3.321a.959.959,0,0,1,.942-1,.978.978,0,0,1,1.135.777,3,3,0,0,1,.075.786c0,2.6-.015,5.2.024,7.8a1.7,1.7,0,0,0,.454,1.034c.589.632,1.257,1.188,1.931,1.807a7.685,7.685,0,0,1,6.584-1.531,7.677,7.677,0,0,1,4.633,3.1,7.673,7.673,0,0,1-1,10.005,7.722,7.722,0,0,1-10.1.52,7.808,7.808,0,0,1-1.614-10.493l-1.28-1.225c-.737,1.16-1.863,1.231-3.055,1.229q-26.063-.016-52.123.017a3.191,3.191,0,0,1-3.347-1.9Zm60.63,36.581a5.569,5.569,0,0,0,5.58,5.6,5.627,5.627,0,0,0,5.554-5.507,5.6,5.6,0,0,0-5.571-5.629A5.54,5.54,0,0,0-131.3,1388.935Zm-8.038-16.609a4.457,4.457,0,0,0-4.432-4.541,4.494,4.494,0,0,0-4.541,4.364,4.539,4.539,0,0,0,4.477,4.605A4.535,4.535,0,0,0-139.335,1372.326Zm10.35-13.911a3.249,3.249,0,0,0,3.237,3.34,3.319,3.319,0,0,0,3.27-3.186,3.284,3.284,0,0,0-3.263-3.328A3.232,3.232,0,0,0-128.985,1358.415Z" transform="translate(0 14.362)" fill="#fff"/>
    <path id="Trazado_442" data-name="Trazado 442" d="M-191.927,1341.014a3.053,3.053,0,0,1,3.248-1.921q26.239.048,52.474-.006a2.883,2.883,0,0,1,3.19,3.229c-.043,9.864-.021,19.728-.021,29.592a3.969,3.969,0,0,1-.047.861,1.009,1.009,0,0,1-1.156.856.985.985,0,0,1-.953-.993c-.017-.24-.009-.482-.009-.722v-16.281h-54.562v.655c0,1.565-.009,3.128,0,4.691.006.61-.043,1.173-.709,1.43s-1.086-.124-1.46-.6Zm56.667,12.36a2.182,2.182,0,0,0,.054-.33c0-3.7,0-7.41.013-11.117,0-.584-.306-.653-.779-.653q-26.5.01-52.992-.007c-.651,0-.811.225-.807.84.024,3.539.011,7.076.013,10.613,0,.208.026.418.041.653Z" transform="translate(0 0)" fill="#fff"/>
    <path id="Trazado_443" data-name="Trazado 443" d="M-168.272,1357.729c1.923,0,3.8,0,5.674,0a3.963,3.963,0,0,1,3.982,5.372,1.17,1.17,0,0,0,.111.788,3.71,3.71,0,0,1-.46,4.421,1.141,1.141,0,0,0-.274.681,3.974,3.974,0,0,1-1.488,3.434.875.875,0,0,0-.246.6,3.618,3.618,0,0,1-3.826,3.781q-8.7.026-17.4.049c-2.1,0-2.918-.82-2.92-2.927q0-4.727,0-9.457c0-1.867.869-2.723,2.749-2.728.844,0,1.687.052,2.524,0a1.068,1.068,0,0,0,.754-.46c1.143-2.113,2.267-4.237,3.338-6.387a3.2,3.2,0,0,0,.261-1.518c-.056-1.15-.208-2.3-.323-3.445a1.545,1.545,0,0,1,1.06-1.754,4.454,4.454,0,0,1,5.327,1.552,7.3,7.3,0,0,1,1.379,4.824C-168.09,1355.594-168.19,1356.622-168.272,1357.729Zm-14.652,16.966c.349,0,.632,0,.914,0l17.033-.047c1.462,0,2.015-.668,1.721-2.092a1.268,1.268,0,0,1,.655-1.531,1.982,1.982,0,0,0,1.133-2.445,1.436,1.436,0,0,1,.606-1.507,1.506,1.506,0,0,0,.208-2.426,1.493,1.493,0,0,1-.223-1.9,1.8,1.8,0,0,0-1.7-2.848c-2.068,0-4.137,0-6.207,0-1.49,0-1.91-.5-1.76-2.006.131-1.338.261-2.678.308-4.021a4.351,4.351,0,0,0-1.015-2.94,2.142,2.142,0,0,0-2.345-.8c.083.953.128,1.886.255,2.809a5.073,5.073,0,0,1-.6,3.261c-1.023,1.848-1.974,3.739-2.955,5.61-1.182,2.259-.869,2.137-3.659,2.126-.782,0-1.565,0-2.368,0Z" transform="translate(7.772 9.998)" fill="#fff"/>
    <path id="Trazado_444" data-name="Trazado 444" d="M-184.047,1346.144a2.113,2.113,0,0,1-2.133-2.081,2.135,2.135,0,0,1,2.1-2.12,2.115,2.115,0,0,1,2.122,2.09A2.088,2.088,0,0,1-184.047,1346.144Z" transform="translate(6.558 3.259)" fill="#fff"/>
    <path id="Trazado_445" data-name="Trazado 445" d="M-181.059,1346.148a2.076,2.076,0,0,1-2.111-2.087,2.091,2.091,0,0,1,2.083-2.118,2.121,2.121,0,0,1,2.124,2.092A2.111,2.111,0,0,1-181.059,1346.148Z" transform="translate(9.993 3.259)" fill="#fff"/>
    <path id="Trazado_446" data-name="Trazado 446" d="M-187.107,1346.144a2.083,2.083,0,0,1-2.062-2.133,2.09,2.09,0,0,1,2.135-2.068,2.1,2.1,0,0,1,2.066,2.141A2.089,2.089,0,0,1-187.107,1346.144Z" transform="translate(3.147 3.259)" fill="#fff"/>
  </g>
</svg>
