<svg width="349" height="231" viewBox="0 0 349 231" fill="none" xmlns="http://www.w3.org/2000/svg">
<rect width="349" height="231" rx="4" fill="#F3F6F9"/>
<path d="M116.068 35.498C115.141 35.7411 114.28 36.161 113.552 36.7135C113.302 36.9198 113.03 37.0818 112.736 37.1997L109.448 23.8071C109.205 22.8126 108.212 22.2159 107.219 22.459L93.3169 25.8845L93.692 27.4536C93.7803 27.8293 93.9568 28.1608 94.1554 28.4702C94.6188 29.089 94.9498 29.7962 95.1264 30.5697C95.9649 33.9289 93.8465 37.3102 90.4262 37.9953C87.4251 38.6141 84.3578 36.824 83.431 33.8847C83.1 32.8681 83.0559 31.8294 83.2545 30.8349C83.3428 30.415 83.3428 29.9509 83.2324 29.531L82.9676 28.426L68.845 31.8294C67.6534 32.1388 66.9031 33.3543 67.19 34.5698L70.2352 46.99L69.2642 47.2331C69.1613 47.2626 69.0509 47.2847 68.9332 47.2994C67.521 46.7248 65.9322 46.5701 64.3434 46.9679C60.3714 47.9403 57.944 51.9625 58.915 55.9405C59.8859 59.9406 63.902 62.3716 67.8961 61.3992C69.198 61.0677 70.3234 60.4268 71.2282 59.5649C71.4047 59.4765 71.596 59.4102 71.8019 59.366L73.0376 59.0566L76.4359 72.9354C76.7228 74.1288 77.9585 74.8802 79.1501 74.5708L117.679 65.112C118.672 64.8689 119.267 63.8744 119.025 62.902L115.56 48.7801C115.81 48.7801 116.06 48.8022 116.31 48.8464C117.634 49.1337 119.069 49.0453 120.459 48.4265C123.195 47.2331 124.85 44.2938 124.453 41.2882C123.901 37.1776 119.973 34.5477 116.068 35.498Z" fill="#D2D9E0"/>
<path d="M287.614 109.577C288.166 109.842 288.739 109.975 289.335 109.975C289.526 109.989 289.718 110.019 289.909 110.063L286.268 117.953C286.003 118.55 286.246 119.235 286.82 119.5L295.028 123.301L295.448 122.373C295.551 122.167 295.609 121.938 295.624 121.688C295.646 121.224 295.757 120.737 295.977 120.273C296.882 118.306 299.265 117.489 301.207 118.483C302.928 119.367 303.723 121.467 303.039 123.257C302.796 123.898 302.399 124.428 301.913 124.826C301.692 125.025 301.516 125.224 301.406 125.489L301.097 126.152L309.394 130.019C310.1 130.351 310.96 130.042 311.291 129.334L314.69 122.019L315.241 122.284C315.315 122.314 315.381 122.351 315.44 122.395C315.903 123.235 316.632 123.942 317.558 124.362C319.897 125.445 322.678 124.428 323.759 122.086C324.862 119.743 323.847 116.958 321.508 115.875C320.736 115.522 319.92 115.389 319.125 115.456C319.007 115.426 318.89 115.382 318.772 115.323L318.044 114.991L321.839 106.837C322.17 106.107 321.861 105.267 321.133 104.936L298.471 94.3943C297.897 94.1291 297.191 94.3722 296.926 94.9468L293.086 103.256C292.954 103.168 292.836 103.057 292.733 102.925C292.204 102.262 291.454 101.754 290.549 101.51C288.717 101.002 286.753 101.798 285.76 103.433C284.414 105.665 285.319 108.516 287.614 109.577Z" fill="#D2D9E0"/>
<path d="M301.472 197.911C301.847 197.58 302.112 197.204 302.31 196.784C302.369 196.651 302.45 196.519 302.553 196.386L307.033 201.513C307.364 201.911 307.937 201.933 308.312 201.602L313.653 196.939L313.123 196.342C312.991 196.195 312.843 196.077 312.682 195.988C312.351 195.834 312.042 195.591 311.777 195.303C310.651 194.021 310.828 192.055 312.152 190.972C313.344 189.999 315.087 190.11 316.168 191.171C316.543 191.546 316.786 191.988 316.918 192.474C316.985 192.673 317.095 192.872 317.227 193.049L317.602 193.469L323.009 188.74C323.472 188.342 323.538 187.635 323.119 187.17L318.971 182.419L319.346 182.087C319.39 182.058 319.434 182.021 319.478 181.977C320.206 181.911 320.957 181.623 321.552 181.093C323.075 179.767 323.229 177.446 321.905 175.922C320.559 174.375 318.242 174.242 316.72 175.568C316.234 176.01 315.881 176.54 315.683 177.137C315.624 177.211 315.558 177.284 315.484 177.358L314.999 177.756L310.365 172.452C309.967 171.988 309.261 171.944 308.798 172.341L294.035 185.27C293.66 185.601 293.638 186.176 293.969 186.552L298.691 191.966C298.574 192.025 298.456 192.069 298.338 192.099C297.698 192.276 297.08 192.651 296.617 193.226C295.69 194.375 295.624 196.055 296.485 197.27C297.654 198.95 299.993 199.215 301.472 197.911Z" fill="#F5F5F5"/>
<path d="M248.909 45.0675C248.159 44.8686 247.431 44.8244 246.702 44.9349C246.452 44.9643 246.202 44.9643 245.952 44.9349L248.865 34.4595C249.064 33.686 248.622 32.8904 247.85 32.6694L236.971 29.6417L236.618 30.8793C236.53 31.1666 236.508 31.476 236.552 31.7633C236.618 32.36 236.574 32.9788 236.419 33.5755C235.691 36.2054 232.933 37.7082 230.307 36.8684C228.012 36.1391 226.6 33.7081 227.085 31.3434C227.262 30.5036 227.637 29.7743 228.144 29.1776C228.365 28.9124 228.542 28.603 228.63 28.2715L228.873 27.4096L217.861 24.2935C216.912 24.0283 215.919 24.5808 215.655 25.5311L212.962 35.2551L212.212 35.0562C212.124 35.0267 212.036 34.9972 211.947 34.9678C211.219 34.0175 210.182 33.3103 208.924 32.9567C205.813 32.0948 202.591 33.9291 201.731 37.0452C200.87 40.1613 202.701 43.3879 205.813 44.2498C206.828 44.5371 207.843 44.515 208.814 44.2719C208.976 44.2866 209.13 44.3161 209.277 44.3603L210.248 44.6255L207.247 55.4766C206.982 56.4269 207.534 57.3993 208.483 57.6645L238.604 66.0404C239.376 66.2614 240.171 65.7973 240.391 65.0238L243.459 53.9959C243.62 54.0843 243.782 54.1948 243.944 54.3274C244.738 55.0346 245.754 55.5208 246.945 55.6313C249.284 55.8744 251.557 54.4821 252.44 52.2721C253.653 49.2444 251.954 45.9073 248.909 45.0675Z" fill="#F5F5F5"/>
<path d="M23.4758 157.932C24.1378 158.197 24.8439 158.286 25.528 158.242C25.7634 158.227 25.9988 158.242 26.2341 158.286L22.6593 167.877C22.3945 168.584 22.7697 169.358 23.4537 169.623L33.4058 173.336L33.8251 172.209C33.9354 171.944 33.9795 171.656 33.9575 171.391C33.9575 170.816 34.0457 170.242 34.2443 169.689C35.127 167.303 37.8412 166.109 40.2023 167.104C42.2987 167.988 43.4241 170.352 42.7842 172.54C42.5635 173.314 42.1663 173.955 41.6367 174.485C41.3939 174.706 41.2174 174.993 41.085 175.303L40.7982 176.076L50.8605 179.877C51.7211 180.209 52.6921 179.767 53.001 178.905L56.311 170.021L57.0172 170.286C57.0907 170.316 57.1643 170.345 57.2378 170.374C57.8557 171.303 58.7604 172.076 59.9079 172.496C62.7545 173.557 65.91 172.098 66.9692 169.247C68.0284 166.419 66.572 163.236 63.7475 162.175C62.8207 161.844 61.8498 161.755 60.923 161.91C60.7758 161.881 60.6361 161.844 60.5037 161.8L59.621 161.468L63.3062 151.567C63.6151 150.683 63.1738 149.733 62.3132 149.402L34.796 139.147C34.0899 138.882 33.3175 139.236 33.0527 139.943L29.3014 150.042C29.1396 149.925 28.9925 149.799 28.8601 149.667C28.176 148.937 27.2713 148.407 26.1679 148.208C23.9833 147.788 21.7546 148.915 20.7395 150.904C19.3714 153.645 20.6954 156.916 23.4758 157.932Z" fill="#F5F5F5"/>
<path d="M167.35 136.517C169.8 136.362 171.918 137.025 173.97 137.975C174.897 138.395 175.978 138.705 176.994 138.705L179.686 138.661L179.708 108.737C179.708 105.908 177.413 103.61 174.566 103.61L146.166 103.72V103.102C146.166 101.908 146.475 100.715 147.005 99.632C148.373 96.8032 148.947 93.5103 148.351 90.0406C147.159 83.1233 141.4 77.7309 134.427 76.9795C124.806 75.9408 116.663 83.4106 116.663 92.7589C116.663 95.0573 117.149 97.201 118.009 99.1679C118.451 100.184 118.715 101.267 118.715 102.372L118.892 103.72H117.171H84.6445C81.82 103.72 79.503 105.997 79.503 108.826V138.086H77.0757C75.9282 138.086 74.8249 137.799 73.8098 137.312C71.1177 136.009 67.8518 135.456 64.5639 136.031C58.0321 137.136 52.9347 142.594 52.2286 149.224C51.2356 158.352 58.2969 166.065 67.1457 166.065C69.2861 166.065 71.3383 165.6 73.1919 164.783C74.1408 164.341 75.1559 164.098 76.2151 164.098H79.3485L79.4147 199.9C79.4147 202.198 81.2904 204.054 83.5853 204.054H175.228C177.523 204.054 179.355 201.159 179.355 198.861V166.33H175.647C174.787 166.33 173.926 166.484 173.132 166.816C171.543 167.457 169.8 167.81 167.968 167.81C160.113 167.81 153.779 161.313 154.088 153.423C154.375 146.484 160.377 137.003 167.35 136.517Z" fill="#D2D9E0"/>
<path d="M167.35 136.517C167.35 136.517 167.269 136.532 167.107 136.561C166.931 136.583 166.688 136.583 166.379 136.672C165.761 136.782 164.813 137.047 163.687 137.622C161.458 138.771 158.524 141.379 156.317 145.733C155.236 147.899 154.265 150.506 154.154 153.49C154.11 154.993 154.309 156.54 154.772 158.087C155.258 159.634 156.03 161.159 157.133 162.529C158.215 163.899 159.627 165.114 161.26 166.021C162.893 166.927 164.79 167.523 166.776 167.678C168.762 167.877 170.859 167.612 172.845 166.86C173.816 166.418 174.919 166.197 176.022 166.242C177.111 166.242 178.222 166.242 179.354 166.242H179.421V166.33C179.421 171.457 179.421 176.938 179.421 182.706C179.421 185.594 179.421 188.555 179.421 191.59C179.421 193.108 179.421 194.64 179.421 196.187C179.421 196.968 179.421 197.749 179.421 198.53C179.443 198.927 179.421 199.347 179.354 199.723C179.266 200.121 179.178 200.519 179.023 200.894C178.737 201.646 178.317 202.353 177.744 202.928C177.192 203.524 176.464 203.988 175.625 204.121C175.206 204.165 174.809 204.143 174.389 204.143C173.992 204.143 173.588 204.143 173.176 204.143C172.352 204.143 171.528 204.143 170.704 204.143C167.394 204.158 164.018 204.165 160.576 204.165C153.713 204.165 146.585 204.165 139.215 204.165C124.497 204.165 108.851 204.165 92.4559 204.165C90.4111 204.165 88.3515 204.165 86.2772 204.165C85.2401 204.165 84.225 204.187 83.1658 204.143C82.1066 204.055 81.0695 203.524 80.3634 202.707C79.6572 201.911 79.26 200.828 79.3042 199.745C79.2895 198.699 79.2821 197.646 79.2821 196.585C79.2821 194.463 79.2821 192.334 79.2821 190.198C79.26 181.645 79.238 172.938 79.238 164.098L79.3483 164.208C78.701 164.208 78.0464 164.208 77.3844 164.208C76.7444 164.23 76.0824 164.186 75.4425 164.253C74.8026 164.341 74.1626 164.496 73.5448 164.739C72.949 165.004 72.3311 165.269 71.6912 165.468C69.1314 166.286 66.329 166.396 63.6589 165.755C61.0109 165.092 58.4953 163.766 56.5314 161.777C55.5163 160.827 54.7219 159.678 53.9937 158.484C53.6848 157.844 53.3317 157.247 53.111 156.584C52.9786 156.252 52.8462 155.943 52.7359 155.589L52.4711 154.573C51.6546 151.236 51.9636 147.655 53.3979 144.561C54.8102 141.445 57.2816 138.882 60.2827 137.357C61.7832 136.583 63.3941 136.075 65.0491 135.832C66.7041 135.611 68.4032 135.655 70.0362 135.942C70.8453 136.104 71.6397 136.325 72.4194 136.605C72.8166 136.738 73.2064 136.893 73.5889 137.07C73.964 137.246 74.3171 137.423 74.6922 137.556C76.2148 138.152 77.8919 137.931 79.5028 137.976L79.3924 138.086C79.3924 131.766 79.3924 125.519 79.3924 119.345C79.3924 116.266 79.3924 113.209 79.3924 110.174C79.4145 109.422 79.3483 108.649 79.5028 107.875C79.6352 107.124 79.9441 106.395 80.4075 105.776C81.2902 104.538 82.7686 103.699 84.2912 103.632C96.2293 103.61 107.792 103.61 118.892 103.61L118.781 103.721C118.737 103.257 118.671 102.815 118.627 102.373C118.627 101.555 118.473 100.737 118.208 99.9415C118.075 99.5658 117.899 99.1901 117.744 98.8144C117.582 98.4314 117.443 98.0409 117.325 97.6431C116.818 96.0519 116.553 94.4165 116.553 92.7811L116.619 91.5435C116.641 91.3446 116.641 91.1457 116.663 90.9468L116.751 90.328C116.84 89.9302 116.862 89.5324 116.972 89.1346L117.303 87.9633C117.347 87.7865 117.413 87.5876 117.502 87.4108L117.722 86.8362C117.855 86.4605 118.009 86.0848 118.208 85.7312L118.759 84.6704L119.421 83.6759C120.348 82.3941 121.407 81.2007 122.665 80.2504L123.107 79.8747L123.614 79.5653C123.945 79.3443 124.254 79.1233 124.585 78.9244C125.291 78.5708 125.953 78.173 126.681 77.9299C128.116 77.3332 129.638 77.0238 131.139 76.8691C131.889 76.8249 132.661 76.7586 133.412 76.8249C133.787 76.847 134.162 76.8691 134.537 76.8912C134.905 76.9502 135.273 77.0091 135.64 77.068C138.575 77.6426 141.312 79.0128 143.43 80.9797C145.57 82.9245 147.159 85.3997 147.954 88.0738C148.792 90.7479 148.858 93.5988 148.285 96.2066C147.998 97.5326 147.512 98.7923 146.939 99.9636C146.674 100.56 146.475 101.179 146.365 101.798C146.232 102.439 146.232 103.08 146.254 103.721L146.166 103.632C153.867 103.61 161.083 103.588 167.769 103.566C169.447 103.551 171.087 103.544 172.69 103.544C173.088 103.544 173.485 103.544 173.882 103.544C174.279 103.544 174.676 103.544 175.074 103.566C175.868 103.654 176.64 103.92 177.302 104.317C178.626 105.113 179.531 106.527 179.708 108.008C179.818 108.759 179.752 109.467 179.774 110.196C179.774 110.918 179.774 111.625 179.774 112.318C179.752 123.5 179.73 132.406 179.708 138.661V138.683H179.685C178.604 138.705 177.589 138.749 176.64 138.727C175.713 138.661 174.853 138.396 174.125 138.064C172.69 137.379 171.433 136.959 170.417 136.76C169.402 136.539 168.608 136.517 168.1 136.517C167.85 136.502 167.659 136.502 167.527 136.517C167.409 136.517 167.35 136.517 167.35 136.517C167.35 136.517 167.593 136.495 168.1 136.495C168.63 136.495 169.402 136.517 170.417 136.716C171.455 136.915 172.712 137.357 174.147 138.02C174.875 138.351 175.713 138.617 176.64 138.683C177.589 138.683 178.604 138.639 179.685 138.617L179.641 138.661C179.641 132.406 179.641 123.5 179.641 112.318C179.641 111.625 179.641 110.918 179.641 110.196C179.641 109.489 179.685 108.737 179.597 108.03C179.399 106.594 178.538 105.201 177.236 104.428C176.574 104.03 175.846 103.765 175.074 103.699C174.676 103.676 174.279 103.676 173.882 103.676C173.485 103.676 173.088 103.676 172.69 103.676C171.087 103.691 169.447 103.699 167.769 103.699C161.083 103.743 153.867 103.765 146.166 103.787H146.078V103.721C146.078 103.08 146.078 102.417 146.21 101.776C146.321 101.135 146.519 100.494 146.784 99.8973C147.38 98.7039 147.821 97.4663 148.108 96.1845C148.682 93.5767 148.616 90.77 147.799 88.1401C147.005 85.4881 145.416 83.035 143.32 81.1123C141.201 79.1675 138.509 77.8194 135.596 77.2448C135.243 77.2006 134.883 77.1491 134.515 77.0901C134.14 77.0459 133.765 77.0459 133.39 77.0238C132.661 76.9354 131.911 77.0238 131.161 77.0459C129.66 77.2227 128.16 77.51 126.77 78.1067C126.041 78.3498 125.379 78.7476 124.695 79.1012C124.364 79.3001 124.033 79.5211 123.724 79.72L123.239 80.0294L122.776 80.4051C121.54 81.3333 120.503 82.5267 119.576 83.7864L118.936 84.7809L118.384 85.8196C118.186 86.1732 118.053 86.5489 117.899 86.9246L117.678 87.4771C117.612 87.6539 117.546 87.8307 117.502 88.0296L117.171 89.1788C117.06 89.5766 117.038 89.9744 116.95 90.3722L116.862 90.9689C116.84 91.1678 116.84 91.3667 116.818 91.5656L116.751 92.7811C116.751 94.3944 117.016 96.0077 117.502 97.5768C117.634 97.9599 117.781 98.343 117.943 98.726C118.097 99.1017 118.274 99.4774 118.406 99.8752C118.671 100.671 118.826 101.511 118.826 102.373V102.35C118.87 102.792 118.936 103.234 119.002 103.699V103.809H118.892C107.792 103.831 96.2293 103.831 84.2912 103.853C82.8348 103.92 81.4446 104.715 80.584 105.909C80.1427 106.505 79.8338 107.19 79.7014 107.92C79.569 108.649 79.6352 109.422 79.6131 110.174C79.6278 113.209 79.6352 116.266 79.6352 119.345C79.6352 125.519 79.6352 131.766 79.6352 138.086V138.219H79.5028C78.6937 138.219 77.8846 138.219 77.0754 138.219C76.2369 138.219 75.3984 138.042 74.626 137.777C74.2288 137.644 73.8537 137.445 73.4786 137.291C73.1108 137.114 72.7357 136.959 72.3532 136.826C71.5882 136.546 70.8012 136.333 69.992 136.186C68.3812 135.876 66.7262 135.832 65.0932 136.053C63.4603 136.296 61.8494 136.782 60.393 137.556C57.4361 139.059 54.9867 141.6 53.5965 144.65C52.2063 147.7 51.8974 151.236 52.6918 154.529L52.9566 155.523C53.0669 155.855 53.1993 156.164 53.3317 156.495C53.5524 157.158 53.9054 157.755 54.2144 158.352C54.9205 159.545 55.6928 160.672 56.7079 161.623C58.6277 163.567 61.1212 164.893 63.7251 165.534C66.351 166.153 69.1094 166.065 71.625 165.247C72.2649 165.048 72.8607 164.783 73.4786 164.54C74.0964 164.275 74.7584 164.12 75.4204 164.032C76.0824 163.965 76.7444 163.987 77.3844 163.987C78.0464 163.987 78.701 163.987 79.3483 163.987H79.4586V164.098C79.4807 172.938 79.4807 181.645 79.5028 190.198C79.5028 192.334 79.5028 194.463 79.5028 196.585C79.5175 197.646 79.5248 198.699 79.5248 199.745C79.5028 200.784 79.8558 201.8 80.5399 202.574C81.2019 203.347 82.1728 203.834 83.1879 203.922C84.203 203.966 85.2622 203.944 86.2772 203.944C88.3515 203.944 90.4111 203.944 92.4559 203.944C108.851 203.966 124.497 203.966 139.215 203.966C146.585 203.966 153.713 203.966 160.576 203.966C164.018 203.966 167.394 203.966 170.704 203.966C171.528 203.966 172.352 203.966 173.176 203.966C173.588 203.966 173.992 203.966 174.389 203.966C174.809 203.966 175.206 203.988 175.603 203.944C176.375 203.834 177.082 203.392 177.611 202.817C178.163 202.242 178.582 201.557 178.869 200.828C179.001 200.452 179.112 200.077 179.178 199.701C179.244 199.325 179.266 198.927 179.266 198.53C179.266 197.749 179.266 196.968 179.266 196.187C179.266 194.64 179.266 193.108 179.266 191.59C179.266 188.555 179.266 185.594 179.266 182.706C179.266 176.938 179.266 171.457 179.266 166.33L179.354 166.396C178.222 166.396 177.111 166.396 176.022 166.396C174.919 166.352 173.86 166.551 172.889 166.971C170.881 167.722 168.785 168.01 166.776 167.811C164.768 167.656 162.849 167.037 161.194 166.131C159.539 165.225 158.148 163.987 157.045 162.617C155.942 161.225 155.169 159.678 154.684 158.131C154.198 156.562 154 154.993 154.044 153.49C154.198 150.484 155.169 147.876 156.251 145.689C158.479 141.335 161.436 138.727 163.687 137.578C164.813 137.003 165.739 136.76 166.379 136.65C166.688 136.583 166.931 136.561 167.107 136.539C167.269 136.524 167.35 136.517 167.35 136.517Z" fill="#263238"/>
<path d="M287.371 137.754C285.164 137.754 283.046 138.219 281.126 139.08C280.464 139.368 279.758 139.589 279.052 139.699V108.229C279.052 105.908 277.176 104.03 274.859 104.03H242.178V107.743C242.178 108.605 242.355 109.466 242.664 110.262C243.326 111.853 243.679 113.599 243.679 115.433C243.679 123.301 237.147 129.644 229.225 129.312C222.252 129.047 216.426 123.389 215.941 116.406C215.786 113.953 216.25 111.632 217.221 109.577C217.662 108.649 217.905 107.654 217.905 106.638V104.03L184.783 103.941C181.958 103.941 179.641 106.24 179.641 109.091L179.619 138.263H177.346C177.096 138.263 176.839 138.255 176.574 138.241C173.794 136.185 170.351 134.97 166.622 134.97C157.288 134.97 149.697 142.572 149.697 151.92C149.697 161.269 157.288 168.871 166.622 168.871C169.667 168.871 172.536 168.054 175.007 166.639C175.463 166.536 175.919 166.484 176.375 166.484H179.288V199.038C179.288 201.889 181.583 204.187 184.43 204.187H274.859C277.176 204.187 279.052 202.308 279.052 199.988V166.838C279.611 166.985 280.148 167.184 280.662 167.435C283.443 168.783 286.665 169.335 290.041 168.761C296.771 167.611 302.045 161.976 302.773 155.125C303.81 145.71 296.506 137.754 287.371 137.754Z" fill="#EAECEF"/>
<path d="M287.371 137.754C287.371 137.754 287.702 137.754 288.364 137.799C288.673 137.799 289.092 137.821 289.577 137.909C289.813 137.953 290.07 137.998 290.35 138.042C290.615 138.064 290.923 138.152 291.232 138.241C291.527 138.314 291.85 138.403 292.203 138.506C292.534 138.616 292.887 138.771 293.262 138.904C293.439 138.992 293.638 139.058 293.836 139.125C294.013 139.228 294.197 139.331 294.388 139.434C294.763 139.633 295.182 139.81 295.579 140.097C297.168 141.092 298.867 142.55 300.236 144.605C301.604 146.661 302.707 149.291 302.861 152.318C302.884 152.694 302.928 153.092 302.928 153.468C302.898 153.851 302.876 154.241 302.861 154.639C302.839 154.838 302.839 155.037 302.817 155.236C302.788 155.427 302.759 155.626 302.729 155.832C302.7 156.039 302.67 156.237 302.641 156.429C302.582 156.635 302.531 156.834 302.486 157.026C302.111 158.639 301.449 160.252 300.5 161.755C299.551 163.258 298.316 164.672 296.815 165.844C295.293 166.993 293.505 167.921 291.563 168.473C291.078 168.628 290.57 168.694 290.063 168.827C289.555 168.893 289.026 168.982 288.518 169.004C287.459 169.092 286.4 169.07 285.318 168.915C284.259 168.783 283.178 168.518 282.141 168.142C281.082 167.788 280.133 167.17 279.029 166.904L279.118 166.838C279.118 171.943 279.118 177.336 279.118 183.037C279.132 185.881 279.14 188.798 279.14 191.789C279.14 193.292 279.14 194.809 279.14 196.342C279.14 197.108 279.14 197.874 279.14 198.64C279.14 199.023 279.14 199.413 279.14 199.811C279.14 200.01 279.118 200.209 279.118 200.408C279.096 200.607 279.074 200.806 279.007 200.983C278.654 202.552 277.352 203.878 275.742 204.187C275.344 204.275 274.925 204.275 274.528 204.275C274.116 204.275 273.711 204.275 273.314 204.275C272.505 204.275 271.696 204.275 270.887 204.275C267.636 204.275 264.318 204.275 260.935 204.275C254.16 204.275 247.165 204.298 239.927 204.298C225.474 204.298 210.115 204.298 194.029 204.298C192.028 204.298 190.005 204.298 187.96 204.298C186.945 204.298 185.93 204.298 184.915 204.298C184.408 204.298 183.878 204.298 183.371 204.187C182.863 204.077 182.355 203.9 181.892 203.657C180.987 203.148 180.215 202.353 179.73 201.402C179.487 200.938 179.332 200.43 179.244 199.922C179.156 199.391 179.178 198.861 179.178 198.353C179.178 196.275 179.178 194.183 179.178 192.076C179.178 183.7 179.178 175.148 179.178 166.484L179.288 166.595C178.604 166.595 177.92 166.595 177.192 166.595C176.839 166.595 176.464 166.595 176.111 166.595C175.757 166.61 175.397 166.661 175.029 166.75L175.073 166.728C172.999 167.921 170.638 168.694 168.189 168.915C165.739 169.114 163.224 168.805 160.863 167.965C158.523 167.103 156.317 165.733 154.529 163.921C152.742 162.109 151.374 159.899 150.535 157.468C149.94 155.722 149.608 153.91 149.586 152.075C149.608 150.241 149.873 148.429 150.425 146.683C150.955 144.937 151.837 143.324 152.896 141.865C153.404 141.114 154.022 140.451 154.64 139.788L155.655 138.882C155.986 138.594 156.361 138.329 156.714 138.064C158.17 137.025 159.803 136.207 161.502 135.655C163.202 135.125 164.989 134.881 166.754 134.859C170.307 134.881 173.816 136.053 176.64 138.13L176.596 138.108C177.589 138.174 178.604 138.13 179.619 138.152L179.509 138.263C179.509 132.031 179.516 125.879 179.531 119.809C179.531 116.774 179.531 113.761 179.531 110.77V109.643C179.531 109.29 179.531 108.914 179.575 108.516C179.641 107.765 179.906 107.035 180.281 106.395C181.054 105.091 182.4 104.14 183.9 103.897C184.65 103.787 185.379 103.831 186.107 103.831C186.842 103.831 187.571 103.831 188.291 103.831C189.748 103.846 191.197 103.853 192.639 103.853C195.522 103.853 198.383 103.86 201.222 103.875C206.886 103.89 212.447 103.912 217.905 103.941H217.993V104.03C217.993 104.811 217.993 105.592 217.993 106.372C218.015 107.146 217.905 107.942 217.684 108.693C217.552 109.069 217.397 109.422 217.243 109.776C217.088 110.129 216.934 110.483 216.802 110.837C216.559 111.544 216.36 112.273 216.228 113.025C215.676 116.008 216.206 119.102 217.552 121.71C218.236 123.014 219.096 124.229 220.156 125.224C221.193 126.24 222.362 127.102 223.642 127.743C226.18 129.069 229.093 129.467 231.829 129.069C234.587 128.671 237.147 127.412 239.111 125.599C240.082 124.671 240.964 123.655 241.626 122.505C242.288 121.378 242.84 120.163 243.127 118.903C243.811 116.384 243.723 113.732 242.973 111.345C242.796 110.748 242.509 110.196 242.355 109.577C242.178 108.958 242.09 108.339 242.09 107.698C242.09 106.476 242.09 105.253 242.09 104.03V103.964H242.178C250.762 103.964 258.772 103.964 266.098 103.964C267.937 103.964 269.732 103.964 271.483 103.964C272.351 103.964 273.211 103.964 274.064 103.964C274.484 103.964 274.925 103.964 275.344 104.008C275.764 104.052 276.183 104.162 276.58 104.339C277.352 104.671 277.992 105.245 278.434 105.953C278.897 106.638 279.118 107.455 279.118 108.251C279.118 109.842 279.11 111.382 279.096 112.87C279.096 124.804 279.074 133.887 279.074 139.699L279.052 139.655C280.508 139.478 281.633 138.749 282.67 138.462C283.708 138.13 284.59 137.975 285.296 137.865C285.98 137.777 286.51 137.754 286.863 137.754C287.216 137.732 287.371 137.754 287.371 137.754C287.371 137.754 287.202 137.754 286.863 137.754C286.51 137.777 286.003 137.799 285.296 137.909C284.59 137.998 283.708 138.174 282.693 138.506C281.655 138.793 280.53 139.522 279.052 139.721H279.029V139.699C279.007 133.887 279.007 124.804 278.985 112.87C278.985 111.382 278.985 109.842 278.985 108.251C278.985 107.477 278.765 106.682 278.345 106.019C277.904 105.334 277.264 104.781 276.514 104.45C276.139 104.295 275.742 104.185 275.322 104.14C274.925 104.096 274.484 104.096 274.064 104.096C273.211 104.096 272.351 104.096 271.483 104.096C269.732 104.096 267.937 104.104 266.098 104.118C258.772 104.118 250.762 104.118 242.178 104.118L242.266 104.03C242.266 105.253 242.266 106.476 242.266 107.698C242.266 108.317 242.333 108.936 242.509 109.533C242.686 110.107 242.951 110.682 243.127 111.301C243.899 113.71 243.988 116.406 243.304 118.947C242.995 120.229 242.465 121.445 241.781 122.594C241.119 123.765 240.214 124.804 239.243 125.732C237.235 127.588 234.653 128.848 231.873 129.268C229.093 129.666 226.136 129.268 223.554 127.92C222.252 127.257 221.06 126.395 220.001 125.378C218.964 124.34 218.081 123.124 217.375 121.798C216.007 119.168 215.478 116.008 216.029 113.002C216.162 112.229 216.36 111.5 216.625 110.77C216.757 110.395 216.89 110.041 217.044 109.687C217.221 109.334 217.375 109.002 217.486 108.627C217.706 107.897 217.817 107.146 217.795 106.372C217.795 105.592 217.795 104.811 217.795 104.03L217.905 104.14C212.447 104.126 206.886 104.111 201.222 104.096C198.383 104.081 195.522 104.074 192.639 104.074C191.197 104.059 189.748 104.052 188.291 104.052C187.571 104.052 186.842 104.052 186.107 104.052C185.379 104.052 184.628 104.008 183.922 104.118C182.51 104.339 181.208 105.245 180.48 106.505C180.105 107.124 179.862 107.831 179.796 108.538C179.766 108.907 179.752 109.275 179.752 109.643V110.77C179.752 113.761 179.752 116.774 179.752 119.809C179.737 125.879 179.73 132.031 179.73 138.263V138.373H179.619C178.604 138.351 177.611 138.395 176.574 138.351H176.552L176.508 138.329C173.727 136.274 170.263 135.102 166.754 135.102C165.011 135.125 163.246 135.368 161.569 135.876C159.892 136.406 158.303 137.224 156.846 138.241C156.493 138.528 156.118 138.771 155.787 139.058L154.816 139.964C154.198 140.605 153.581 141.268 153.073 141.998C152.036 143.434 151.175 145.025 150.624 146.749C150.094 148.473 149.829 150.263 149.829 152.075C149.851 153.865 150.16 155.678 150.734 157.401C151.572 159.788 152.941 161.976 154.684 163.766C156.471 165.556 158.634 166.904 160.951 167.744C163.268 168.584 165.761 168.871 168.167 168.672C170.572 168.451 172.911 167.7 174.963 166.529L174.985 166.507C175.353 166.433 175.728 166.389 176.111 166.374C176.486 166.352 176.839 166.374 177.192 166.374C177.92 166.374 178.604 166.374 179.288 166.374H179.399V166.484C179.399 175.148 179.399 183.7 179.399 192.076C179.399 194.183 179.399 196.275 179.399 198.353C179.399 198.861 179.376 199.369 179.465 199.878C179.553 200.364 179.707 200.872 179.928 201.314C180.391 202.22 181.12 202.972 182.002 203.458C182.444 203.701 182.929 203.878 183.415 203.966C183.9 204.077 184.408 204.077 184.915 204.077C185.93 204.077 186.945 204.077 187.96 204.077C190.005 204.077 192.028 204.077 194.029 204.077C210.115 204.077 225.474 204.077 239.927 204.099C247.165 204.099 254.16 204.099 260.935 204.099C264.318 204.099 267.636 204.099 270.887 204.099C271.696 204.099 272.505 204.099 273.314 204.099C273.711 204.099 274.116 204.099 274.528 204.099C274.925 204.099 275.3 204.077 275.697 204.01C277.242 203.701 278.5 202.441 278.853 200.938C278.941 200.585 278.963 200.187 278.963 199.811C278.963 199.413 278.963 199.023 278.963 198.64C278.963 197.874 278.963 197.108 278.963 196.342C278.963 194.809 278.963 193.292 278.963 191.789C278.963 188.798 278.963 185.881 278.963 183.037C278.963 177.336 278.963 171.943 278.985 166.838V166.75L279.074 166.772C280.199 167.037 281.148 167.656 282.185 168.009C283.222 168.385 284.281 168.65 285.341 168.783C286.4 168.915 287.459 168.96 288.496 168.871C289.026 168.849 289.533 168.783 290.041 168.694C290.526 168.584 291.034 168.496 291.519 168.363C293.461 167.81 295.226 166.882 296.727 165.733C298.25 164.584 299.463 163.192 300.412 161.689C301.361 160.208 302.001 158.595 302.398 157.004C302.442 156.812 302.486 156.613 302.53 156.407C302.56 156.215 302.589 156.016 302.619 155.81C302.648 155.619 302.678 155.427 302.707 155.236C302.751 155.037 302.751 154.838 302.751 154.639C302.781 154.241 302.803 153.851 302.817 153.468C302.817 153.092 302.795 152.716 302.773 152.318C302.619 149.313 301.515 146.683 300.169 144.65C298.801 142.594 297.124 141.136 295.535 140.141C295.16 139.854 294.741 139.677 294.366 139.478C294.175 139.375 293.991 139.279 293.814 139.191C293.616 139.103 293.417 139.036 293.24 138.948C292.865 138.815 292.534 138.661 292.181 138.55C291.843 138.447 291.519 138.351 291.21 138.263C290.901 138.174 290.615 138.108 290.328 138.064C290.063 138.02 289.805 137.975 289.555 137.931C289.092 137.843 288.673 137.821 288.364 137.821C287.702 137.777 287.371 137.754 287.371 137.754Z" fill="#263238"/>
<path d="M177.17 143.545C177.17 143.545 178.648 142.794 179.972 143.081C181.274 143.368 186.041 146.462 186.041 146.462L189.858 145.755L192.131 156.584L177.17 162.816V143.545Z" fill="#AE7461"/>
<path d="M166.093 147.325C166.093 147.325 169.535 146.905 170.771 146.286C172.006 145.645 174.963 143.015 175.581 143.081C176.221 143.126 178.45 143.545 178.45 143.545L177.545 146.286C177.545 146.286 182.047 149.004 183.371 149.999C184.717 151.015 188.909 155.502 189.108 156.607C189.285 157.712 188.954 158.993 188.446 159.435C187.916 159.855 185.997 158.993 185.997 158.993C185.997 158.993 186.284 160.01 185.577 160.96C184.849 161.911 183.194 161.579 183.194 161.579C183.194 161.579 183.04 163.148 182.267 163.435C181.517 163.723 179.796 162.861 179.796 162.861C179.796 162.861 179.266 164.209 178.648 164.342C178.031 164.496 176.265 163.435 176.265 163.435C176.265 163.435 168.63 157.955 166.909 157.137C165.188 156.319 164.658 156.275 164.658 156.275L166.093 147.325Z" fill="#FFBE9D"/>
<path d="M179.796 162.861C179.752 162.861 179.73 162.728 179.664 162.529C179.575 162.33 179.443 162.065 179.266 161.778C178.935 161.181 178.626 160.717 178.693 160.673C178.737 160.651 179.112 161.048 179.465 161.645C179.641 161.955 179.774 162.264 179.818 162.485C179.862 162.728 179.818 162.883 179.796 162.861Z" fill="#EB996E"/>
<path d="M182.973 161.932C182.907 161.977 182.532 161.291 182.003 160.496C181.473 159.7 180.921 159.17 180.965 159.126C181.01 159.059 181.649 159.546 182.201 160.363C182.731 161.181 183.018 161.91 182.973 161.932Z" fill="#EB996E"/>
<path d="M186.041 159.17C185.974 159.192 185.754 158.374 185.224 157.468C184.695 156.584 184.099 155.988 184.143 155.943C184.165 155.899 184.871 156.43 185.423 157.358C185.974 158.286 186.085 159.17 186.041 159.17Z" fill="#EB996E"/>
<path d="M183.79 153.203C183.856 153.203 184.011 153.778 184.055 154.485C184.077 155.214 183.966 155.811 183.9 155.789C183.834 155.789 183.856 155.214 183.812 154.507C183.79 153.8 183.724 153.225 183.79 153.203Z" fill="#EB996E"/>
<path d="M172.69 148.915C172.69 148.915 173.882 145.092 174.301 144.606C174.743 144.12 178.715 143.081 178.715 143.081L179.972 146.286L179.068 147.214L177.17 147.081C177.17 147.081 175.978 150.241 172.69 148.915Z" fill="#AE7461"/>
<path d="M165.364 156.474C165.364 156.474 164.813 156.893 165.364 157.888C165.894 158.904 167.372 158.175 167.858 157.888C167.858 157.888 167.152 159.567 168.056 160.098C168.961 160.628 170.065 160.474 170.065 160.474C170.065 160.474 169.998 161.49 171.3 162.153C172.58 162.816 172.911 162.153 172.911 162.153C172.911 162.153 173.066 163.833 174.544 163.965C176.023 164.12 176.552 163.612 176.552 163.612L175.868 162.617C175.868 162.617 176.729 160.871 176.067 160.098C175.405 159.324 174.301 159.435 174.301 159.435C174.301 159.435 174.588 157.866 173.75 157.446C172.161 156.628 171.477 158.131 171.477 158.131C171.477 158.131 171.389 156.429 170.153 156.474C168.917 156.518 168.233 157.269 168.233 157.269L165.364 156.474Z" fill="#AE7461"/>
<path d="M171.477 158.131C171.543 158.153 171.3 158.75 170.925 159.413C170.528 160.076 170.131 160.562 170.087 160.518C170.02 160.496 170.329 159.943 170.727 159.302C171.102 158.639 171.433 158.109 171.477 158.131Z" fill="#6F4439"/>
<path d="M174.323 159.634C174.39 159.678 174.147 160.297 173.683 160.96C173.22 161.645 172.735 162.087 172.69 162.043C172.646 161.999 173.043 161.49 173.485 160.827C173.948 160.186 174.279 159.612 174.323 159.634Z" fill="#6F4439"/>
<path d="M144.754 177.689H137.516L135.662 204.055H142.922C144.158 200.055 147.247 179.104 147.247 179.104L144.754 177.689Z" fill="#100E0F"/>
<path d="M103.754 177.689C103.754 177.689 99.0978 188.563 99.5612 192.983C100.025 197.381 102.629 204.055 102.629 204.055H138.509C138.509 204.055 139.502 200.386 140.274 194.95C141.047 189.491 143.143 177.689 143.143 177.689H103.754Z" fill="#100E0F"/>
<path d="M151.153 72.6483C149.94 71.1013 148.439 69.6427 148.13 67.6979C147.843 65.9299 148.616 63.9851 147.821 62.3718C146.85 60.4049 144.026 60.0071 142.812 58.1728C142.238 57.2667 142.084 56.1396 141.51 55.2556C140.517 53.7086 138.487 53.2224 136.656 53.3329C134.846 53.4434 133.081 53.9959 131.249 54.0401C128.756 54.0843 126.218 53.1561 123.791 53.7528C121.121 54.4158 119.399 56.67 117.568 58.8579L115.207 61.3552C114.721 61.7972 114.214 62.1729 113.662 62.5044C112.691 63.0569 111.588 63.4326 110.749 64.1619C108.94 65.7531 108.918 68.9576 110.727 70.5488C108.785 71.0571 107.307 73.0019 107.329 75.013C107.329 76.118 107.748 77.1788 108.013 78.2617C108.3 79.3225 108.454 80.5159 107.947 81.5104C107.461 82.5049 106.137 83.1458 105.188 82.5491C105.475 84.0077 106.424 85.3116 107.726 85.9967C107.197 86.505 106.446 86.7923 105.696 86.7702C107.483 91.6322 112.868 94.3947 118.009 94.6599C123.173 94.9251 128.182 93.2013 133.059 91.5217L147.115 88.5603C148.351 88.3393 148.925 86.8807 148.969 85.621C149.013 84.3834 148.748 83.0574 149.256 81.9082C149.94 80.3391 151.837 79.5877 152.544 78.0186C153.36 76.2506 152.345 74.1732 151.153 72.6483Z" fill="#263238"/>
<path d="M117.722 83.7421C116.861 80.5597 116.023 77.3552 115.714 74.0623C115.427 70.7694 115.692 67.3881 116.994 64.3604C117.192 63.8963 118.847 60.8244 119.333 60.8907C119.686 60.957 118.627 63.83 118.803 64.1615C120.348 67.1892 120.635 70.7473 120.193 74.1507C119.752 77.532 118.869 80.5376 117.722 83.7421Z" fill="#263238"/>
<path d="M118.031 71.1672C118.186 62.8797 123.129 56.0729 131.404 56.4707L132.154 56.537C139.811 57.3547 145.57 63.9184 145.372 71.6092C145.195 78.7917 144.909 86.7256 144.467 90.5268C143.54 98.4165 135.53 98.8143 135.53 98.8143C135.508 98.8143 135.31 111.853 135.31 111.853L116.531 98.8143L118.031 71.1672Z" fill="#FFBE9D"/>
<path d="M135.53 98.8143C135.53 98.8143 130.521 98.5712 125.578 94.6816C125.578 94.6816 127.432 101.356 135.376 101.488L135.53 98.8143Z" fill="#EB996E"/>
<path d="M118.075 77.0679C117.943 77.0016 112.823 74.9021 112.426 80.3166C112.029 85.7311 117.546 85.0239 117.568 84.8692C117.59 84.7145 118.075 77.0679 118.075 77.0679Z" fill="#FFBE9D"/>
<path d="M116.045 82.6813C116.023 82.6592 115.957 82.7476 115.802 82.8139C115.626 82.8581 115.361 82.9023 115.096 82.7697C114.523 82.5266 114.125 81.5763 114.17 80.6039C114.192 80.0956 114.324 79.6315 114.523 79.2558C114.721 78.8801 114.986 78.6149 115.295 78.5928C115.582 78.5486 115.758 78.7254 115.825 78.9022C115.891 79.0569 115.847 79.1453 115.869 79.1674C115.891 79.1895 116.001 79.079 115.957 78.858C115.957 78.7475 115.891 78.6149 115.78 78.5044C115.648 78.3939 115.471 78.3276 115.273 78.3276C114.854 78.3276 114.434 78.6812 114.214 79.1011C113.971 79.4989 113.816 80.0293 113.772 80.5818C113.728 81.6647 114.214 82.7476 114.986 83.0128C115.361 83.1454 115.692 83.057 115.869 82.9465C116.045 82.8139 116.067 82.7034 116.045 82.6813Z" fill="#EB996E"/>
<path d="M142.459 62.4158C143.364 61.9738 140.914 58.9682 138.818 57.8632C135.662 56.1615 130.764 54.946 127.696 55.5869C124.011 56.3825 120.9 57.9958 118.87 61.1782C116.862 64.3385 115.935 68.1397 115.78 71.8967C115.736 73.0459 115.78 74.2614 116.332 75.278C117.016 76.5156 118.428 77.3554 118.252 79.0129C118.186 79.6096 118.318 80.2284 118.715 80.7146C119.62 81.8196 120.9 80.9135 121.518 79.9632C122.842 77.9079 123.151 75.3885 123.415 72.9575C123.592 71.2337 123.769 69.4657 123.393 67.764C123.195 66.8579 122.82 65.9739 122.665 65.0457C122.511 64.1175 122.599 63.0788 123.217 62.3495C123.327 62.239 123.482 62.1064 123.68 61.9296C125.313 60.692 127.476 60.4268 129.351 61.2224C132.33 62.5042 137.45 64.449 138.862 63.5208C140.914 62.1506 141.444 61.2003 141.444 61.2003L142.459 62.4158Z" fill="#263238"/>
<path d="M128.028 54.8797C131.073 54.062 134.449 54.3493 137.141 55.9626C138.575 56.8245 139.833 58.1505 140.186 59.7859C140.517 61.4213 139.723 63.344 138.134 63.8744L138.024 63.9407C135.663 64.5595 134.184 64.1617 131.933 63.2114C130.036 62.4158 128.381 61.1119 126.483 60.3163C124.475 59.4765 122.202 59.2776 120.062 59.7196C122.29 57.4875 124.982 55.6753 128.028 54.8797Z" fill="#263238"/>
<path d="M129.396 53.9297C129.396 53.9297 129.594 53.9297 129.947 53.996C130.3 54.0623 130.808 54.1728 131.404 54.3938C131.999 54.6148 132.706 54.9463 133.412 55.4104C134.096 55.8966 134.824 56.5154 135.398 57.311C135.971 58.1287 136.28 59.0348 136.479 59.8525C136.678 60.6702 136.766 61.4216 136.81 62.0625C136.854 62.7034 136.854 63.2117 136.854 63.5653C136.854 63.941 136.832 64.1178 136.81 64.1178C136.788 64.1178 136.788 63.941 136.766 63.5653C136.744 63.2117 136.722 62.7034 136.655 62.0846C136.589 61.4437 136.479 60.7144 136.28 59.8967C136.06 59.1011 135.751 58.2171 135.199 57.4436C134.647 56.6701 133.963 56.0734 133.279 55.5872C132.595 55.1231 131.933 54.7695 131.337 54.5485C130.168 54.0623 129.396 53.9739 129.396 53.9297Z" fill="#455A64"/>
<path d="M134.383 53.6424C134.383 53.6203 134.559 53.6645 134.846 53.7529C135.001 53.8192 135.177 53.8634 135.376 53.9739C135.582 54.077 135.81 54.1875 136.06 54.3054C137.031 54.88 138.222 56.0071 138.862 57.6204C139.039 58.0182 139.149 58.4159 139.26 58.8137C139.348 59.2115 139.436 59.5872 139.436 59.9629C139.48 60.3386 139.458 60.6922 139.458 61.0237C139.414 61.3552 139.414 61.6646 139.348 61.9299C139.282 62.2172 139.215 62.4602 139.127 62.6591C139.061 62.8801 138.995 63.0569 138.929 63.1895C138.774 63.4768 138.686 63.6316 138.664 63.6095C138.62 63.5874 138.995 62.9906 139.171 61.9077C139.237 61.6425 139.237 61.3331 139.282 61.0016C139.26 60.6922 139.282 60.3387 139.237 59.9851C139.215 59.6094 139.127 59.2557 139.039 58.8579C138.929 58.4822 138.818 58.0844 138.664 57.7087C138.024 56.1396 136.898 55.0346 135.972 54.4379C135.736 54.3053 135.523 54.1875 135.332 54.0844C135.133 53.9739 134.957 53.9075 134.824 53.8412C134.537 53.7307 134.383 53.6424 134.383 53.6424Z" fill="#455A64"/>
<path d="M137.913 110.527C137.913 111.279 141.642 127.655 143.055 131.677C144.489 135.699 148.991 176.032 148.395 178.905C147.799 181.778 146.254 181.667 146.254 181.667C146.254 181.667 109.822 179.369 105.895 179.7C101.989 180.054 100.312 179.944 99.3628 175.457C98.4139 170.971 99.4069 147.678 98.5684 142.042C97.7298 136.429 97.7298 133.688 97.3988 125.334C97.134 118.086 98.767 112.273 102.209 108.074C105.652 103.875 113.287 99.6322 113.287 99.6322L115.979 95.6763L135.111 105.82L135.552 103.5L136.722 107.102L137.913 110.527Z" fill="#455A64"/>
<g opacity="0.3">
<path d="M146.144 160.451C145.813 159.634 144.776 159.413 143.915 159.324C135.817 158.418 127.365 156.407 121.452 150.794C119.135 148.584 117.303 145.932 115.56 143.258C111.698 137.445 108.079 131.456 104.482 125.489L101.658 126.55C103.379 134.992 105.078 141.092 107.881 148.009C110.683 154.926 112.868 161.623 119.973 163.899C124.563 165.358 133.301 164.231 138.09 163.855C140.098 163.7 142.128 163.501 144.048 162.927C144.644 162.75 145.217 162.529 145.659 162.109C146.1 161.667 146.365 161.004 146.144 160.451Z" fill="black"/>
</g>
<path d="M100.687 124.34C100.885 124.716 117.104 159.413 124.342 160.849C131.58 162.264 154.088 162.617 158.479 161.777C162.871 160.938 167.174 160.164 167.174 160.164C167.174 160.164 170.351 152.606 167.461 146.153L161.414 146.352C161.414 146.352 144.6 145.446 142.216 144.783C139.855 144.142 137.803 141.91 135.663 142.02L122.886 112.229C122.886 112.229 114.567 104.494 108.631 106.881C102.695 109.246 98.9436 121.246 100.687 124.34Z" fill="#455A64"/>
<path d="M161.878 161.38C161.856 161.358 161.9 161.159 161.988 160.783C162.099 160.407 162.209 159.877 162.341 159.214C162.474 158.551 162.584 157.733 162.65 156.849C162.739 155.943 162.761 154.949 162.716 153.91C162.628 151.833 162.253 149.976 161.9 148.672C161.723 148.009 161.547 147.479 161.437 147.125C161.304 146.772 161.238 146.551 161.26 146.551C161.282 146.551 161.37 146.75 161.503 147.103C161.657 147.457 161.856 147.965 162.054 148.628C162.452 149.932 162.871 151.811 162.959 153.91C162.981 154.949 162.959 155.965 162.871 156.849C162.783 157.755 162.65 158.573 162.496 159.236C162.341 159.921 162.209 160.452 162.077 160.805C161.966 161.181 161.9 161.38 161.878 161.38Z" fill="#263238"/>
<path d="M122.886 112.229C122.886 112.229 122.952 112.406 123.129 112.759C123.276 113.113 123.497 113.629 123.791 114.306C124.387 115.677 125.269 117.688 126.395 120.273C128.623 125.445 131.823 132.893 135.751 141.998L135.663 141.931C136.678 141.887 137.627 142.329 138.487 142.815C139.37 143.302 140.23 143.854 141.157 144.296C142.084 144.76 143.143 144.871 144.202 145.003C145.284 145.114 146.365 145.224 147.468 145.313C151.882 145.666 156.56 145.976 161.414 146.241C163.312 146.175 165.364 146.108 167.461 146.042H167.527L167.549 146.108C168.498 148.252 168.873 150.661 168.763 153.048C168.674 155.457 168.167 157.888 167.284 160.208L167.262 160.274H167.196C165.982 160.495 164.68 160.739 163.356 160.982C161.944 161.247 160.539 161.512 159.142 161.777C157.751 162.042 156.339 162.153 154.927 162.197C152.146 162.33 149.388 162.352 146.674 162.33C143.96 162.308 141.312 162.241 138.708 162.153C136.104 162.064 133.566 161.932 131.073 161.733C129.837 161.645 128.601 161.534 127.41 161.402C126.196 161.247 125.004 161.136 123.857 160.805C123.283 160.584 122.776 160.274 122.312 159.921C121.849 159.567 121.408 159.169 121.01 158.772C120.172 157.954 119.444 157.092 118.76 156.23C116.023 152.738 113.861 149.202 111.941 145.976C108.146 139.456 105.387 134.02 103.512 130.241C102.585 128.362 101.857 126.881 101.393 125.887C100.908 124.892 100.687 124.34 100.687 124.34C100.687 124.34 100.753 124.472 100.864 124.738C100.996 124.988 101.187 125.364 101.437 125.865C101.923 126.859 102.651 128.318 103.6 130.196C105.498 133.953 108.256 139.39 112.073 145.887C114.015 149.114 116.178 152.65 118.914 156.12C119.598 156.982 120.326 157.821 121.143 158.617C121.54 159.015 121.959 159.413 122.423 159.766C122.886 160.098 123.372 160.407 123.923 160.606C125.027 160.915 126.24 161.026 127.432 161.181C128.623 161.313 129.859 161.446 131.095 161.534C133.566 161.711 136.104 161.843 138.708 161.932C141.312 162.02 143.982 162.087 146.674 162.109C149.388 162.109 152.146 162.109 154.927 161.976C156.317 161.91 157.707 161.821 159.097 161.534C160.495 161.284 161.9 161.026 163.312 160.761C164.636 160.518 165.938 160.274 167.152 160.053L167.064 160.12C167.946 157.843 168.432 155.435 168.542 153.048C168.652 150.661 168.277 148.296 167.35 146.197L167.461 146.263C165.364 146.329 163.312 146.396 161.414 146.462C156.538 146.175 151.86 145.887 147.446 145.512C146.343 145.423 145.262 145.313 144.18 145.202C143.651 145.136 143.121 145.07 142.592 144.959C142.062 144.893 141.554 144.672 141.091 144.473C140.142 144.031 139.282 143.456 138.399 142.97C137.538 142.484 136.612 142.064 135.663 142.108L135.596 142.13L135.574 142.064C131.691 132.959 128.513 125.489 126.284 120.318C125.203 117.732 124.342 115.699 123.747 114.329C123.467 113.651 123.247 113.128 123.085 112.759C122.952 112.406 122.886 112.229 122.886 112.229Z" fill="#263238"/>
<path d="M121.187 109.887C121.165 109.887 120.966 109.666 120.547 109.29C120.15 108.914 119.532 108.406 118.694 107.898C117.855 107.389 116.796 106.881 115.538 106.527C114.302 106.196 112.868 106.019 111.389 106.174C109.889 106.329 108.521 106.771 107.373 107.345C106.204 107.942 105.255 108.649 104.549 109.312C103.821 109.997 103.313 110.616 103.004 111.058C102.673 111.5 102.519 111.765 102.497 111.743C102.497 111.743 102.533 111.677 102.607 111.544C102.673 111.434 102.761 111.235 102.938 111.014C103.225 110.528 103.732 109.887 104.438 109.202C105.145 108.494 106.093 107.765 107.263 107.168C108.433 106.55 109.845 106.108 111.345 105.931C112.868 105.798 114.346 105.975 115.604 106.329C116.884 106.682 117.943 107.213 118.782 107.765C119.62 108.295 120.238 108.826 120.613 109.246C120.812 109.423 120.944 109.599 121.055 109.71C121.143 109.813 121.187 109.872 121.187 109.887Z" fill="#263238"/>
<path d="M135.618 142.042C135.685 142.064 135.31 143.192 134.802 144.562C134.294 145.932 133.831 147.037 133.765 147.015C133.699 146.993 134.074 145.866 134.581 144.495C135.089 143.125 135.552 142.02 135.618 142.042Z" fill="#263238"/>
<path d="M164.989 147.766C164.989 147.744 165.055 147.744 165.166 147.766C165.276 147.81 165.408 147.921 165.497 148.097C165.563 148.252 165.629 148.539 165.475 148.782C165.32 149.003 165.033 149.18 164.702 149.136C164.371 149.07 164.173 148.782 164.128 148.517C164.084 148.252 164.195 147.987 164.349 147.876C164.504 147.722 164.68 147.722 164.79 147.722C164.879 147.744 164.945 147.766 164.945 147.766C164.945 147.81 164.68 147.766 164.459 147.987C164.349 148.097 164.283 148.296 164.327 148.473C164.371 148.672 164.526 148.871 164.746 148.915C164.945 148.937 165.188 148.827 165.298 148.672C165.408 148.517 165.386 148.296 165.342 148.164C165.232 147.832 164.989 147.788 164.989 147.766Z" fill="#263238"/>
<path d="M135.574 106.969C135.574 106.969 135.42 106.903 135.133 106.748C134.839 106.571 134.434 106.336 133.919 106.041L134.008 106.019C133.787 107.212 133.544 109.002 133.147 111.124L133.103 111.257L132.992 111.19C131.205 110.063 129.087 108.781 126.814 107.411C125.115 106.395 123.526 105.378 122.069 104.494C120.613 103.61 119.267 102.836 118.142 102.218C117.016 101.599 116.111 101.091 115.449 100.715C115.155 100.553 114.912 100.42 114.721 100.317C114.559 100.214 114.479 100.162 114.479 100.162C114.493 100.148 114.581 100.184 114.743 100.273C114.935 100.361 115.185 100.486 115.494 100.649C116.156 100.958 117.082 101.444 118.208 102.063C119.355 102.682 120.701 103.433 122.18 104.295C123.636 105.201 125.247 106.174 126.924 107.212C129.197 108.582 131.337 109.886 133.103 111.013L132.948 111.08C133.368 108.98 133.632 107.19 133.897 105.997L133.919 105.908L133.985 105.953C134.486 106.262 134.883 106.505 135.177 106.682C135.442 106.859 135.574 106.947 135.574 106.969Z" fill="#263238"/>
<g opacity="0.3">
<path d="M117.17 101.577C120.495 104.067 123.827 106.55 127.167 109.025C129.351 110.682 131.602 112.34 134.206 113.18C134.162 110.867 134.118 108.546 134.073 106.218L133.036 111.102L117.17 101.577Z" fill="black"/>
</g>
<path d="M219.979 66.7918C218.236 67.0128 216.427 65.7752 216.007 64.0514C215.61 62.3497 216.669 60.427 218.324 59.8524C217.221 58.7474 216.912 56.9352 217.596 55.5429C218.28 54.1506 219.913 53.2887 221.436 53.4876C221.48 51.9627 222.363 50.482 223.687 49.7085C225.033 48.9571 226.754 48.9571 228.1 49.7085C229.755 48.2278 232.469 48.1173 234.257 49.4654C235.735 49.156 237.368 49.9295 238.096 51.2555C238.824 52.5815 238.582 54.3716 237.522 55.4545" fill="#263238"/>
<path d="M219.45 67.3002C219.935 59.3884 226.401 53.1783 234.301 53.0015H235.095C243.569 53.3109 248.048 60.7144 247.496 69.2008L247.982 99.4778L227.372 106.881L227.195 95.986C227.195 95.986 219.008 94.881 218.744 86.7261C218.633 82.7923 219.008 74.6595 219.45 67.3002Z" fill="#AE7461"/>
<path d="M227.129 95.9641C227.129 95.9641 232.337 96.1851 237.743 92.627C237.743 92.627 235.338 98.5498 227.195 97.9752L227.129 95.9641Z" fill="#6F4439"/>
<path d="M220.178 63.5432C220.178 63.5432 222.208 58.3939 224.657 57.1342C227.592 55.6314 228.938 58.8801 231.763 58.0403C234.587 57.1784 237.412 55.7419 240.347 57.8856C243.569 60.2061 242.112 61.9299 242.377 65.5543C243.48 80.2066 246.239 84.2951 246.857 77.3778C246.923 76.6264 249.019 75.9634 249.262 72.7589C249.593 68.6041 249.637 63.5653 248.644 60.6481C247.827 58.1729 246.371 56.4933 243.811 54.659C239.751 51.7418 234.256 51.8081 230.527 52.2501C226.798 52.6921 219.692 57.1563 220.178 63.5432Z" fill="#263238"/>
<path d="M246.349 77.1569C246.371 75.8972 247.43 74.8806 248.688 74.9911C250.211 75.1016 251.91 75.9193 251.888 79.0796C251.822 84.6488 246.239 83.4333 246.217 83.2786C246.217 83.1681 246.283 79.4995 246.349 77.1569Z" fill="#AE7461"/>
<path d="M247.452 81.2013C247.474 81.1792 247.562 81.2676 247.717 81.3339C247.871 81.4223 248.158 81.4665 248.445 81.356C249.041 81.1571 249.548 80.2289 249.57 79.2123C249.593 78.704 249.504 78.2178 249.328 77.82C249.151 77.4001 248.909 77.1128 248.6 77.0686C248.313 77.0023 248.092 77.1791 248.026 77.3338C247.96 77.4885 247.982 77.599 247.96 77.599C247.938 77.6211 247.827 77.5106 247.893 77.2675C247.916 77.157 247.982 77.0244 248.114 76.936C248.247 76.8255 248.445 76.7592 248.644 76.8034C249.085 76.8255 249.46 77.2233 249.659 77.6653C249.857 78.1073 249.99 78.6598 249.968 79.2344C249.924 80.3615 249.328 81.4002 248.533 81.6212C248.136 81.7317 247.805 81.5991 247.629 81.4665C247.474 81.3339 247.43 81.2013 247.452 81.2013Z" fill="#6F4439"/>
<path d="M246.018 66.3718C245.29 66.8801 244.539 67.3884 243.679 67.4989C242.796 67.6094 241.803 67.1232 241.627 66.2613C241.56 65.8635 241.649 65.4215 241.384 65.1342C241.075 64.7806 240.523 64.8911 240.038 64.9574C238.427 65.1563 236.75 64.0513 236.309 62.4822C235.911 63.101 234.94 63.101 234.3 62.7032C233.683 62.3275 233.263 61.6645 232.756 61.112C232.248 60.5595 231.564 60.0733 230.836 60.2059C230.417 60.2722 230.042 60.5153 229.622 60.4932C228.894 60.449 228.519 59.5871 228.387 58.8578C228.254 58.1506 228.166 57.2887 227.526 56.913C226.952 56.5594 226.202 56.7804 225.54 56.8909C224.878 57.0014 223.995 56.8688 223.819 56.2058C223.708 55.8743 223.863 55.4986 224.039 55.1892C224.878 53.819 226.754 53.156 228.276 53.7527C228.784 51.8963 230.461 50.4156 232.381 50.1725C234.278 49.9294 236.286 50.946 237.235 52.6035C238.383 51.5206 240.082 51.0344 241.649 51.3659C243.193 51.6753 244.561 52.8024 245.201 54.261C246.547 53.8853 248.092 54.3715 248.975 55.4544C249.857 56.5594 250.012 58.1727 249.372 59.4103C250.365 59.9628 251.248 60.9573 251.292 62.1065C251.336 63.2557 250.233 64.427 249.129 64.1397C249.593 65.0458 249.24 66.2613 248.379 66.7917C247.54 67.3 246.283 67.0348 245.709 66.2171" fill="#263238"/>
<path d="M227.879 55.3882C227.879 55.3882 227.887 55.425 227.901 55.4987C227.901 55.565 227.901 55.6534 227.924 55.786C227.99 56.0512 228.1 56.4269 228.365 56.8468C228.63 57.2888 229.027 57.775 229.623 58.1507C230.218 58.5485 231.013 58.8137 231.918 58.7474L231.829 58.6369C231.653 59.1231 231.719 59.6756 231.962 60.1618C232.204 60.6701 232.558 61.1121 232.955 61.532C233.131 61.7309 233.308 61.974 233.573 62.1508C233.837 62.3276 234.146 62.4381 234.477 62.4602C235.095 62.5265 235.801 62.3276 236.243 61.7751L236.044 61.7309C236.199 62.8359 236.861 63.9188 237.876 64.5818C238.405 64.9575 239.067 65.1785 239.707 65.1564C240.347 65.1343 240.943 64.9354 241.495 64.7144L241.362 64.6481C241.671 65.3332 242.134 65.9299 242.708 66.3498C243.26 66.7697 244.01 67.0128 244.65 66.836C245.974 66.5266 246.813 65.4216 246.967 64.3829L246.857 64.4492C247.497 64.7807 248.203 64.8028 248.777 64.6923C249.328 64.5818 249.77 64.3166 250.078 64.0735C250.409 63.8083 250.586 63.5431 250.696 63.3663C250.807 63.1895 250.829 63.079 250.829 63.079C250.807 63.0569 250.652 63.4989 250.034 63.9851C249.725 64.2282 249.284 64.4492 248.732 64.5597C248.203 64.6481 247.541 64.626 246.923 64.2945L246.813 64.2282V64.3608C246.636 65.3111 245.82 66.3498 244.606 66.6371C244.01 66.7918 243.37 66.5708 242.841 66.173C242.311 65.7752 241.87 65.2006 241.561 64.5597L241.517 64.4492L241.428 64.4934C240.877 64.6923 240.303 64.8912 239.707 64.9133C239.111 64.9354 238.516 64.7365 238.008 64.3829C237.037 63.7641 236.441 62.7254 236.265 61.6867L236.243 61.4215L236.066 61.6425C235.691 62.0845 235.051 62.2834 234.499 62.2392C234.213 62.195 233.926 62.1287 233.705 61.974C233.484 61.8193 233.308 61.5762 233.109 61.3773C232.712 60.9574 232.359 60.5375 232.138 60.0734C231.918 59.6314 231.851 59.1231 232.006 58.7032L232.05 58.5485L231.896 58.5706C231.057 58.6369 230.285 58.3938 229.711 58.0181C229.115 57.6645 228.718 57.2004 228.453 56.8026C227.924 55.9628 227.924 55.3882 227.879 55.3882Z" fill="#455A64"/>
<path d="M188.049 144.54C188.755 144.252 212.079 141.446 212.079 141.446L221.546 133.423L220.663 156.65L190.873 159.523L188.049 144.54Z" fill="#D90452"/>
<path opacity="0.3" d="M217.353 136.959C217.089 137.114 214.75 139.192 214.75 139.192L215.456 157.07L217.353 136.959Z" fill="black"/>
<path d="M257.096 179.038H217.707C217.707 179.038 219.781 190.154 220.553 195.281C221.325 200.43 222.473 204.055 222.473 204.055H258.155C258.155 204.055 260.803 197.602 261.266 193.447C261.73 189.292 257.096 179.038 257.096 179.038Z" fill="#263238"/>
<path d="M214.772 180.363C214.772 180.363 213.668 193.071 214.772 204.054H228.409V193.933L214.772 180.363Z" fill="#263238"/>
<path d="M222.362 118.174L226.599 108.848L227.129 103.102C227.129 103.102 235.271 97.9747 239.133 96.052C242.995 94.1072 248.202 92.3613 248.202 92.3613V97.7979L222.362 118.174Z" fill="#EBEBEB"/>
<path d="M257.846 165.733C257.846 165.733 260.141 134.683 260.295 132.384C260.295 132.384 261.663 115.787 258.728 109.489C255.771 103.168 249.196 97.6212 249.196 97.6212L248.6 94.3062L235.757 102.417L229.799 107.588C229.799 107.588 226.445 111.146 224.194 114.572C222.517 116.914 220.641 119.92 219.803 123.699C219.494 125.069 215.963 141.6 215.853 153.114C215.853 153.114 215.323 163.17 214.727 168.849C214.021 175.899 212.918 191.966 213.161 201.469L254.8 200.187C265.106 198.618 263.296 197.602 263.296 197.602L257.846 165.733Z" fill="#D90452"/>
<path d="M248.203 97.7979C248.203 97.7979 248.092 97.8421 247.916 97.9305C247.71 98.0041 247.423 98.122 247.055 98.2841C246.702 98.4609 246.261 98.6819 245.731 98.9471C245.246 99.2565 244.65 99.588 244.032 100.008C241.538 101.687 238.228 104.538 234.874 108.494L234.852 108.516H234.83C233.55 108.759 232.204 109.003 230.814 109.268L230.902 109.157C230.858 111.014 230.792 112.958 230.704 114.992V115.036L230.682 115.058C228.674 116.959 226.643 119.102 224.812 121.511C224.062 122.506 223.378 123.522 222.782 124.561L222.561 124.959L222.407 125.357C222.296 125.644 222.186 125.909 222.098 126.196C221.921 126.771 221.745 127.323 221.612 127.898C220.994 130.152 220.487 132.34 220.001 134.44C219.052 138.639 218.258 142.418 217.618 145.6C216.294 151.987 215.566 155.943 215.566 155.943C215.566 155.943 215.588 155.678 215.654 155.214C215.72 154.75 215.853 154.042 216.007 153.136C216.338 151.346 216.824 148.76 217.442 145.578C218.082 142.396 218.854 138.594 219.803 134.395C220.266 132.296 220.774 130.086 221.392 127.832C221.524 127.257 221.7 126.705 221.899 126.13C221.965 125.843 222.076 125.555 222.186 125.268L222.362 124.848L222.583 124.45C223.179 123.39 223.863 122.373 224.613 121.379C226.467 118.948 228.519 116.804 230.527 114.903L230.483 114.97C230.571 112.958 230.637 111.014 230.704 109.157V109.069L230.792 109.047C232.182 108.804 233.506 108.561 234.786 108.317L234.72 108.362C238.118 104.406 241.428 101.577 243.966 99.9195C244.584 99.4996 245.179 99.1681 245.687 98.8808C246.217 98.6156 246.658 98.3946 247.033 98.2178C247.401 98.0852 247.688 97.9747 247.894 97.8863C248.092 97.82 248.203 97.7979 248.203 97.7979Z" fill="#263238"/>
<path d="M234.212 122.307L234.72 163.722L228.409 204.055H245.025C245.025 204.055 252.572 173.446 254.315 166.993C256.014 160.761 258.574 129.291 258.817 127.744C258.905 127.147 260.692 116.274 255.396 111.146" fill="#D90452"/>
<path d="M255.396 111.146C255.396 111.146 255.514 111.264 255.749 111.5C255.97 111.743 256.279 112.097 256.654 112.627C257.382 113.644 258.243 115.368 258.728 117.732C259.214 120.075 259.39 123.058 259.037 126.462C258.795 128.163 258.662 129.976 258.486 131.898C258.309 133.828 258.125 135.869 257.934 138.02C257.537 142.307 257.095 146.993 256.544 152.031C256.279 154.551 255.992 157.159 255.617 159.833C255.264 162.507 254.911 165.291 254.161 168.054C251.38 179.104 248.335 191.281 245.135 204.099L245.113 204.187H245.025C244.451 204.187 243.833 204.187 243.238 204.187C238.184 204.187 233.241 204.187 228.409 204.165H228.276L228.298 204.055C230.637 189.159 232.778 175.435 234.632 163.722H234.61C234.477 151.192 234.367 140.827 234.301 133.622C234.256 129.998 234.234 127.191 234.212 125.246C234.212 124.289 234.212 123.559 234.212 123.058C234.212 122.572 234.212 122.307 234.212 122.307C234.212 122.307 234.234 122.572 234.234 123.058C234.249 123.559 234.264 124.289 234.279 125.246C234.301 127.191 234.345 129.998 234.411 133.622C234.499 140.827 234.632 151.192 234.808 163.722V163.744C232.977 175.457 230.836 189.204 228.519 204.077L228.409 203.944C233.241 203.944 238.184 203.944 243.238 203.944C243.833 203.944 244.451 203.944 245.025 203.944L244.915 204.033C248.114 191.237 251.182 179.06 253.962 167.988C254.712 165.247 255.065 162.485 255.418 159.811C255.793 157.137 256.08 154.529 256.367 152.009C256.897 146.993 257.36 142.285 257.78 137.998C257.971 135.862 258.155 133.828 258.331 131.898C258.53 129.976 258.662 128.119 258.905 126.44C259.28 123.058 259.126 120.097 258.64 117.732C258.155 115.39 257.316 113.688 256.61 112.649C256.257 112.119 255.948 111.765 255.727 111.522C255.507 111.279 255.396 111.146 255.396 111.146Z" fill="#263238"/>
<path d="M242.995 167.811C242.995 167.833 242.487 167.7 241.715 167.435C240.92 167.17 239.861 166.75 238.714 166.241C237.566 165.733 236.551 165.225 235.823 164.805C235.095 164.407 234.676 164.142 234.698 164.12C234.698 164.076 235.161 164.297 235.911 164.672C236.639 165.026 237.655 165.534 238.802 166.043C239.949 166.551 241.009 166.971 241.759 167.28C242.531 167.59 242.995 167.766 242.995 167.811Z" fill="#263238"/>
<path d="M214.573 170.551C214.573 170.551 214.573 170.514 214.573 170.441C214.573 170.352 214.573 170.249 214.573 170.131C214.587 169.822 214.61 169.409 214.639 168.894C214.705 167.833 214.815 166.308 214.926 164.43C215.191 160.65 215.544 155.435 216.051 149.667C216.559 143.899 217.155 138.705 217.64 134.948C217.883 133.07 218.081 131.545 218.236 130.506C218.309 129.99 218.368 129.585 218.412 129.291C218.427 129.173 218.442 129.07 218.456 128.981C218.471 128.907 218.486 128.871 218.501 128.871C218.501 128.871 218.493 128.907 218.479 128.981C218.479 129.07 218.471 129.18 218.456 129.313C218.427 129.607 218.383 130.005 218.324 130.506C218.192 131.589 218.015 133.114 217.794 134.97C217.353 138.727 216.801 143.943 216.294 149.689C215.786 155.435 215.389 160.673 215.102 164.43C214.948 166.308 214.815 167.833 214.727 168.916C214.683 169.431 214.646 169.837 214.617 170.131C214.617 170.249 214.61 170.352 214.595 170.441C214.58 170.514 214.573 170.551 214.573 170.551Z" fill="#263238"/>
<path d="M248.203 105.931C248.114 105.953 247.717 104.34 246.636 102.638C245.555 100.914 244.297 99.8533 244.341 99.787C244.363 99.7649 244.694 100.008 245.18 100.472C245.665 100.936 246.283 101.643 246.835 102.505C247.364 103.389 247.739 104.229 247.938 104.87C248.159 105.511 248.225 105.931 248.203 105.931Z" fill="#263238"/>
<path d="M218.898 157.379C218.92 157.379 218.964 157.49 218.942 157.689C218.92 157.888 218.832 158.175 218.589 158.44C218.346 158.705 217.861 158.882 217.375 158.705C217.155 158.639 216.934 158.484 216.757 158.263C216.603 158.065 216.515 157.777 216.515 157.49C216.515 157.136 216.625 156.783 216.846 156.518C216.934 156.385 217.066 156.274 217.221 156.23C217.375 156.164 217.508 156.142 217.64 156.098H217.662C217.971 156.098 218.258 156.164 218.457 156.319C218.677 156.473 218.788 156.672 218.832 156.849C218.942 157.181 218.92 157.379 218.898 157.379C218.876 157.402 218.854 157.181 218.721 156.893C218.655 156.739 218.545 156.562 218.368 156.451C218.192 156.341 217.927 156.297 217.662 156.297L217.684 156.274C217.574 156.319 217.419 156.363 217.309 156.407C217.199 156.473 217.088 156.562 217.022 156.672C216.846 156.893 216.757 157.181 216.757 157.49C216.735 157.976 217.066 158.374 217.464 158.507C217.839 158.661 218.236 158.529 218.479 158.308C218.721 158.109 218.81 157.844 218.854 157.667C218.898 157.49 218.876 157.379 218.898 157.379Z" fill="#263238"/>
<path d="M218.28 172.032C218.302 172.032 218.346 172.12 218.324 172.319C218.302 172.518 218.214 172.828 217.971 173.071C217.729 173.336 217.243 173.535 216.758 173.358C216.537 173.27 216.316 173.115 216.14 172.916C215.985 172.695 215.897 172.408 215.897 172.142C215.897 171.767 216.007 171.435 216.228 171.17C216.316 171.037 216.449 170.927 216.603 170.861C216.758 170.816 216.89 170.772 217.022 170.728H217.044C217.353 170.728 217.64 170.794 217.839 170.971C218.06 171.104 218.17 171.325 218.214 171.479C218.324 171.833 218.302 172.032 218.28 172.032C218.258 172.032 218.236 171.833 218.104 171.524C218.037 171.391 217.927 171.214 217.751 171.104C217.574 170.971 217.309 170.927 217.044 170.927H217.067C216.956 170.971 216.802 171.015 216.691 171.06C216.581 171.104 216.471 171.192 216.405 171.303C216.228 171.524 216.14 171.833 216.14 172.142C216.118 172.629 216.449 173.004 216.846 173.159C217.221 173.314 217.618 173.181 217.861 172.96C218.104 172.739 218.192 172.496 218.236 172.319C218.28 172.142 218.258 172.032 218.28 172.032Z" fill="#263238"/>
<path d="M253.521 108.715C253.499 108.737 252.969 108.384 251.998 108.03C251.513 107.831 250.917 107.654 250.233 107.522C249.571 107.389 248.82 107.323 248.026 107.323C247.232 107.345 246.503 107.433 245.819 107.588C245.157 107.743 244.562 107.92 244.098 108.141C243.127 108.538 242.598 108.892 242.576 108.848C242.554 108.848 242.686 108.737 242.929 108.583C243.061 108.494 243.216 108.406 243.392 108.295C243.569 108.207 243.789 108.074 244.032 107.986C244.495 107.765 245.091 107.544 245.775 107.367C246.459 107.212 247.232 107.102 248.026 107.102C248.843 107.08 249.593 107.168 250.277 107.323C250.961 107.478 251.557 107.654 252.042 107.875C252.307 107.964 252.506 108.074 252.682 108.185C252.881 108.273 253.035 108.362 253.168 108.45C253.41 108.605 253.543 108.693 253.521 108.715Z" fill="#263238"/>
<g opacity="0.3">
<path d="M217.177 147.434C218.964 144.827 219.626 142.351 220.597 139.324C222.009 134.815 222.407 129.732 224.657 125.577C225.981 123.124 227.526 120.605 229.821 119.036C232.05 117.511 232.381 115.566 232.337 110.284C233.947 110.306 235.624 109.069 235.823 108.848C236.926 107.677 237.721 105.82 237.787 105.179C236.684 106.395 234.808 108.428 234.808 108.428C234.808 108.428 230.748 109.179 230.814 109.157C230.704 111.168 230.704 112.958 230.593 114.992C230.593 114.992 222.826 123.257 222.208 124.914C221.612 126.572 217.177 147.434 217.177 147.434Z" fill="black"/>
</g>
<g opacity="0.3">
<path d="M246.062 199.06C255.926 180.363 258.993 155.788 258.397 132.384C258.397 132.384 255.573 160.849 254.602 165.733C253.675 170.573 246.062 199.06 246.062 199.06Z" fill="black"/>
</g>
<path d="M247.563 94.77C247.563 94.7848 247.489 94.8437 247.342 94.9468C247.165 95.0647 246.945 95.212 246.68 95.3888C246.084 95.7866 245.268 96.3391 244.253 97.0021C242.156 98.3502 239.31 100.185 236.154 102.218C234.941 103.013 233.749 103.765 232.668 104.45C232.285 104.744 231.91 105.032 231.542 105.312C231.189 105.599 230.858 105.864 230.549 106.174C229.931 106.77 229.402 107.345 228.916 107.853L228.828 107.942L228.762 107.831C228.232 106.616 227.813 105.599 227.504 104.892C227.357 104.553 227.239 104.28 227.151 104.074C227.077 103.897 227.048 103.802 227.063 103.787C227.063 103.787 227.107 103.875 227.195 104.052C227.298 104.258 227.423 104.523 227.57 104.848C227.901 105.555 228.365 106.549 228.916 107.765L228.784 107.743C229.269 107.212 229.799 106.638 230.417 106.019C230.704 105.732 231.057 105.422 231.432 105.157C231.785 104.862 232.153 104.568 232.535 104.273C233.639 103.566 234.808 102.814 236.022 102.041C239.199 100.03 242.046 98.1955 244.164 96.8695C245.179 96.2286 246.018 95.6982 246.636 95.3225C246.915 95.1605 247.143 95.0205 247.32 94.9026C247.482 94.8142 247.563 94.77 247.563 94.77Z" fill="#263238"/>
<path d="M206.85 74.3721L201.355 73.7312C199.127 75.9854 196.28 77.6871 192.97 78.4827C183.481 80.8253 173.904 75.013 171.565 65.51C169.226 56.007 175.03 46.4156 184.518 44.073C194.007 41.7304 203.606 47.5427 205.923 57.0457C206.916 61.0237 206.453 65.0017 204.908 68.4714H204.93L206.85 74.3721Z" fill="white"/>
<path d="M206.85 74.3721C206.85 74.3721 206.806 74.2395 206.718 73.9743C206.63 73.7239 206.504 73.3482 206.343 72.8472C206.012 71.8527 205.504 70.3941 204.864 68.4714L204.975 68.4935L204.952 68.5156C204.952 68.5377 204.908 68.5377 204.886 68.5156C204.864 68.4935 204.864 68.4714 204.864 68.4493C205.791 66.3277 206.607 63.3663 206.299 59.8303C206.232 58.9684 206.078 58.0623 205.857 57.1341C205.592 56.228 205.35 55.2777 204.93 54.3716C204.136 52.5152 202.966 50.703 201.422 49.0897C199.877 47.4764 197.935 46.0841 195.707 45.1338C193.478 44.1614 190.962 43.631 188.358 43.6973C183.173 43.7415 177.722 46.4156 174.434 51.1008C172.779 53.4876 171.654 56.2059 171.345 58.9905C170.97 61.7751 171.301 64.5597 172.139 67.057C173 69.5764 174.434 71.7864 176.155 73.5544C177.877 75.3224 179.907 76.6484 181.981 77.5324C184.077 78.3943 186.218 78.8363 188.248 78.8805C188.498 78.8952 188.748 78.9026 188.998 78.9026C189.263 78.9026 189.506 78.9026 189.749 78.8805C190.234 78.8363 190.712 78.7921 191.183 78.7479C192.11 78.5711 193.036 78.4385 193.875 78.1512C197.273 77.1346 199.723 75.3003 201.311 73.687C201.326 73.6723 201.341 73.6723 201.356 73.687C203.121 73.908 204.489 74.0627 205.438 74.1953C205.894 74.2543 206.247 74.2985 206.497 74.3279C206.74 74.35 206.85 74.3721 206.85 74.3721C206.865 74.3721 206.755 74.3647 206.519 74.35C206.269 74.3205 205.916 74.2837 205.46 74.2395C204.511 74.129 203.143 73.9743 201.334 73.7754H201.378C199.789 75.3887 197.339 77.2672 193.919 78.3059C193.081 78.5932 192.154 78.7258 191.205 78.9247C190.734 78.9689 190.249 79.0131 189.749 79.0573C189.506 79.0794 189.263 79.1015 188.998 79.0794C188.748 79.0794 188.498 79.0794 188.248 79.0794C186.196 79.0131 184.033 78.5932 181.915 77.7092C179.796 76.8473 177.744 75.4992 176.001 73.7091C174.258 71.919 172.779 69.6869 171.919 67.1233C171.058 64.6039 170.727 61.7751 171.102 58.9684C171.411 56.1396 172.537 53.3771 174.236 50.9682C174.412 50.6588 174.655 50.3715 174.876 50.1063L175.56 49.2665L176.31 48.5151C176.575 48.2499 176.817 48.0068 177.104 47.7858C177.369 47.5648 177.641 47.3438 177.921 47.1228C178.186 46.8797 178.495 46.7029 178.781 46.504C179.068 46.3272 179.355 46.1062 179.664 45.9294C179.958 45.7674 180.26 45.6053 180.569 45.4432C183.04 44.1614 185.732 43.4984 188.358 43.4542C190.984 43.41 193.544 43.9404 195.795 44.9128C198.046 45.9073 200.01 47.2996 201.576 48.935C203.143 50.5704 204.313 52.4268 205.085 54.3053C205.526 55.2335 205.769 56.1838 206.034 57.0899C206.254 58.0181 206.387 58.9463 206.475 59.8303C206.762 63.3884 205.923 66.3719 204.975 68.4935L204.886 68.4272C204.908 68.4051 204.93 68.4051 204.952 68.4272C204.967 68.4272 204.975 68.4346 204.975 68.4493C205.592 70.372 206.078 71.8527 206.387 72.8693C206.549 73.3555 206.666 73.7312 206.74 73.9964C206.828 74.2469 206.865 74.3721 206.85 74.3721Z" fill="#263238"/>
<path d="M180.591 61.6868L182.709 59.3442L187.211 62.9686L193.875 55.2778L196.06 57.4215L187.1 67.2781L180.591 61.6868Z" fill="#100E0F"/>
<path d="M158.303 75.8967C159.098 75.8083 160.267 75.6536 161.79 75.4768C161.804 75.4768 161.819 75.4768 161.834 75.4768C163.202 76.8691 165.298 78.4382 168.211 79.3222C168.939 79.5432 169.712 79.6537 170.506 79.8084C170.918 79.8526 171.33 79.8894 171.742 79.9189C171.962 79.9631 172.161 79.9631 172.382 79.941C172.602 79.941 172.816 79.941 173.022 79.941C174.765 79.8747 176.596 79.5211 178.406 78.7697C178.862 78.5782 179.311 78.3572 179.752 78.1067C179.62 78.0625 179.487 78.0109 179.355 77.952C177.28 77.0901 175.272 75.7641 173.551 74.0182C171.852 72.2723 170.418 70.0844 169.557 67.5871C168.719 65.0898 168.388 62.3273 168.741 59.5648C169.072 56.8023 170.175 54.084 171.83 51.7193C172.007 51.432 172.249 51.1447 172.47 50.8795L173.132 50.0618L173.419 49.7745C173.257 49.7745 173.095 49.7671 172.933 49.7524C170.705 49.7082 168.542 50.1723 166.622 50.99C164.725 51.8077 163.047 53.0011 161.723 54.3934C160.399 55.7636 159.406 57.3327 158.744 58.9239C158.369 59.6974 158.149 60.5151 157.928 61.2886C157.729 62.0842 157.619 62.8577 157.553 63.6091C157.288 66.6147 157.994 69.1783 158.789 70.9905C158.789 71.0052 158.781 71.02 158.767 71.0347C158.215 72.6701 157.796 73.9077 157.509 74.7696C157.376 75.1821 157.266 75.5063 157.178 75.742C157.112 75.9409 157.067 76.0735 157.067 76.0735C157.067 76.0735 157.178 76.0514 157.376 76.0293C157.597 75.9998 157.906 75.9556 158.303 75.8967Z" fill="#EAECEF"/>
<path d="M158.303 75.8968C158.303 75.9115 158.2 75.9336 157.994 75.9631C157.774 75.9925 157.465 76.0368 157.068 76.0957H157.023L157.046 76.0515C157.399 75.0128 157.95 73.3111 158.701 71.0127L158.723 70.9906L158.678 70.9243L158.634 70.7696C158.59 70.6812 158.546 70.5854 158.502 70.4823C158.428 70.276 158.355 70.0697 158.281 69.8635C158.134 69.4362 158.002 68.9942 157.884 68.5375C157.641 67.5872 157.465 66.5706 157.443 65.4656C157.377 64.3827 157.465 63.2114 157.685 62.018C157.774 61.4213 157.972 60.8246 158.149 60.2279C158.325 59.6091 158.59 59.0124 158.855 58.4157C159.958 56.0289 161.834 53.7084 164.372 52.073C166.909 50.4376 170.109 49.4873 173.419 49.6641L173.684 49.6862L173.507 49.863C173.419 49.9514 173.323 50.0472 173.22 50.1503C171.19 52.4266 169.646 55.3217 169.028 58.5041C168.211 62.8578 169.072 67.3662 171.212 70.8138C173.331 74.3056 176.508 76.7587 179.796 78.0184L180.017 78.1068L179.818 78.1952C179.002 78.593 178.23 78.9908 177.413 79.2339C176.619 79.4991 175.824 79.698 175.03 79.8306C173.441 80.0958 171.896 80.0737 170.506 79.8969H170.484C169.977 79.7864 169.491 79.698 169.006 79.6096C168.498 79.4991 168.057 79.3444 167.593 79.1897C166.711 78.8803 165.894 78.5046 165.188 78.1068C163.732 77.2891 162.628 76.3609 161.812 75.5211C161.812 75.499 161.724 75.5211 161.657 75.5211C161.584 75.5358 161.51 75.5432 161.437 75.5432C161.304 75.5727 161.179 75.5947 161.062 75.6095C160.797 75.6389 160.554 75.661 160.333 75.6758C159.892 75.7347 159.517 75.7789 159.208 75.8084C158.914 75.8378 158.686 75.8673 158.524 75.8968C158.377 75.9115 158.303 75.9115 158.303 75.8968C158.303 75.8968 158.377 75.8894 158.524 75.8747C158.686 75.8452 158.914 75.8084 159.208 75.7642C159.517 75.72 159.892 75.6684 160.333 75.6095C160.554 75.58 160.789 75.5506 161.04 75.5211C161.172 75.5063 161.304 75.4916 161.437 75.4769C161.51 75.4621 161.577 75.4548 161.635 75.4548L161.746 75.4327C161.768 75.4327 161.768 75.4327 161.812 75.4327C161.827 75.4327 161.841 75.44 161.856 75.4548L161.878 75.4769C162.695 76.2725 163.798 77.2007 165.254 77.9963C166.689 78.7919 168.454 79.4328 170.528 79.7422H170.506C171.212 79.7864 171.941 79.8748 172.691 79.8527C173.441 79.8527 174.206 79.7864 174.986 79.6538C175.78 79.5212 176.575 79.3223 177.369 79.0571C178.163 78.814 178.914 78.4162 179.708 78.0184L179.73 78.1952C176.398 76.9576 173.154 74.4603 171.014 70.9243C168.851 67.4325 167.969 62.8799 168.807 58.4599C169.425 55.2333 170.992 52.294 173.044 49.9956C173.147 49.8925 173.25 49.7967 173.353 49.7083L173.419 49.8851C170.153 49.7083 166.998 50.6365 164.482 52.2498C161.966 53.8631 160.135 56.1394 159.032 58.5041C158.745 59.0787 158.502 59.6754 158.325 60.2721C158.127 60.8909 157.95 61.4655 157.84 62.0622C157.619 63.2335 157.553 64.3827 157.575 65.4656C157.619 66.5485 157.774 67.5651 158.016 68.4933C158.119 68.9647 158.244 69.4067 158.392 69.8193C158.465 70.0255 158.539 70.2318 158.612 70.4381C158.656 70.5412 158.701 70.637 158.745 70.7254L158.789 70.8801L158.833 70.9464C158.833 70.9685 158.855 71.0569 158.811 71.079V71.0569C158.039 73.3553 157.465 75.057 157.09 76.0736L157.068 76.0515C157.465 75.9925 157.774 75.9557 157.994 75.941C158.2 75.9115 158.303 75.8968 158.303 75.8968Z" fill="#263238"/>
<path d="M306.613 78.5709H301.118C300.037 78.5709 299.154 77.6869 299.154 76.604V46.548C299.154 45.4651 300.037 44.5811 301.118 44.5811H306.613C307.694 44.5811 308.577 45.4651 308.577 46.548V76.604C308.577 77.6869 307.694 78.5709 306.613 78.5709Z" fill="#100E0F"/>
<path d="M277.022 80.0073H271.682C270.556 80.0073 269.651 79.1012 269.651 77.9741V66.6147C269.651 65.4876 270.556 64.5815 271.682 64.5815H277.022C278.147 64.5815 279.052 65.4876 279.052 66.6147V77.9741C279.052 79.1012 278.147 80.0073 277.022 80.0073Z" fill="#100E0F"/>
<path d="M291.453 80.0074H286.356C285.164 80.0074 284.193 79.035 284.193 77.8416V58.3715C284.193 57.156 285.164 56.1836 286.356 56.1836H291.453C292.645 56.1836 293.616 57.156 293.616 58.3715V77.8416C293.616 79.035 292.645 80.0074 291.453 80.0074Z" fill="#100E0F"/>
<path d="M305.09 33.3542C305.09 33.3542 305.017 33.45 304.87 33.6415C304.678 33.8625 304.443 34.1425 304.163 34.4813C303.524 35.2106 302.619 36.2493 301.493 37.5311C299.176 40.1389 295.977 43.7633 292.27 47.9402L292.159 48.0728L292.027 47.9844C290.217 46.791 288.275 45.5092 286.245 44.2053L286.488 44.1611C286.429 44.2495 286.356 44.3379 286.267 44.4263C281.523 50.0176 277.198 55.0785 274.065 58.7913L273.976 58.8797L273.866 58.8134C271.968 57.3769 270.401 56.2277 269.276 55.3879C268.761 54.9901 268.349 54.6734 268.04 54.4376C267.753 54.2166 267.621 54.1061 267.621 54.084C267.621 54.084 267.798 54.1724 268.084 54.3934C268.408 54.6144 268.835 54.9091 269.364 55.2774C270.49 56.073 272.079 57.2001 274.02 58.5924L273.844 58.6145C276.977 54.9017 281.258 49.7966 285.981 44.1832C286.069 44.0948 286.142 44.0064 286.201 43.918L286.312 43.7854L286.466 43.8959C288.474 45.1998 290.416 46.4816 292.225 47.675L292.005 47.7192C295.734 43.5644 299 39.9621 301.339 37.3764C302.486 36.1167 303.413 35.1222 304.075 34.3929C304.369 34.0688 304.612 33.8036 304.803 33.5973C304.98 33.4205 305.076 33.3395 305.09 33.3542Z" fill="#263238"/>
<path d="M305.377 40.5148C305.333 40.5148 305.289 39.6971 305.245 38.349C305.223 37.0009 305.201 35.1445 305.201 33.0892L305.422 33.2881C305.363 33.2881 305.296 33.2954 305.223 33.3102C303.149 33.6417 301.273 33.9511 299.905 34.1279C298.537 34.3268 297.698 34.4152 297.698 34.371C297.676 34.3047 298.515 34.1279 299.861 33.8627C301.229 33.6196 303.082 33.2881 305.157 32.9345C305.23 32.9197 305.296 32.9124 305.355 32.9124L305.576 32.8682V33.0892C305.576 35.1445 305.554 37.0009 305.51 38.349C305.488 39.6971 305.444 40.5148 305.377 40.5148Z" fill="#263238"/>
</svg>
