<svg width="349" height="231" viewBox="0 0 349 231" fill="none" xmlns="http://www.w3.org/2000/svg">
<rect width="349" height="231" rx="4" fill="#F3F6F9"/>
<path d="M149.705 183.675H145.183V182.775H149.705V183.675ZM142.01 183.675H137.465V182.775H142.01V183.675ZM134.293 183.675H129.77V182.775H134.293V183.675ZM126.598 183.675H122.075V182.775H126.598V183.675ZM118.903 183.675H114.358V182.775H118.903V183.675ZM111.185 183.675H106.663V182.775H111.185V183.675ZM103.49 183.675H98.9676V182.775H103.49V183.675ZM95.7951 183.675H95.7501C94.1301 183.675 92.5776 183.18 91.2501 182.213L91.7901 181.493C92.9376 182.325 94.3101 182.775 95.7501 182.775L95.7951 183.675ZM152.99 182.978L152.608 182.145C153.89 181.56 154.97 180.548 155.668 179.31L156.455 179.738C155.668 181.155 154.453 182.303 152.99 182.978ZM89.0676 179.693C88.4376 178.59 88.1226 177.308 88.1226 176.025V175.103H89.0226V176.025C89.0226 177.173 89.3151 178.275 89.8551 179.265L89.0676 179.693ZM157.4 176.543L156.5 176.475C156.515 176.325 156.523 176.175 156.523 176.025V171.975H157.423V176.025C157.423 176.19 157.415 176.363 157.4 176.543ZM89.0226 171.93H88.1226V167.408H89.0226V171.93ZM157.423 168.803H156.523V164.258H157.423V168.803ZM89.0226 164.235H88.1226V159.69H89.0226V164.235ZM157.423 161.13H156.523V156.585H157.423V161.13ZM89.0226 156.563H88.1226V152.018H89.0226V156.563ZM157.423 153.435H156.523V148.913H157.423V153.435ZM89.0226 148.868H88.1226V144.323H89.0226V148.868ZM157.423 145.74H156.523V141.218H157.423V145.74ZM89.0226 141.15H88.1226V136.628H89.0226V141.15ZM157.423 138.023H156.523V133.5H157.423V138.023ZM89.0226 133.433H88.1226V128.91H89.0226V133.433ZM157.423 130.305H156.523V125.783H157.423V130.305ZM89.0226 125.715H88.1226V121.193H89.0226V125.715ZM157.423 122.588H156.523V118.043H157.423V122.588ZM89.0226 118.02H88.1226V113.498H89.0226V118.02ZM157.423 114.893H156.523V110.348H157.423V114.893ZM89.0226 110.325H88.1226V105.78H89.0226V110.325ZM157.423 107.198H156.523V102.675H157.423V107.198ZM89.0226 102.63H88.1226V98.0851H89.0226V102.63ZM157.423 99.5026H156.523V94.9801H157.423V99.5026ZM89.0226 94.9126H88.1226V90.3901H89.0226V94.9126ZM157.423 91.7851H156.523V87.2626H157.423V91.7851ZM89.0226 87.1951H88.1226V82.6726H89.0226V87.1951ZM157.423 84.0676H156.523V79.5451H157.423V84.0676ZM89.0226 79.4776H88.1226V74.9551H89.0226V79.4776ZM157.423 76.3501H156.523V71.8051H157.423V76.3501ZM89.0226 71.7826H88.1226V71.6026C88.1226 70.0501 88.5951 68.5426 89.4726 67.2601L90.2151 67.7776C89.4276 68.9026 89.0226 70.2301 89.0226 71.6026V71.7826ZM155.96 68.9251C155.398 67.6201 154.43 66.5176 153.193 65.7976L153.665 65.0101C155.038 65.8201 156.163 67.0801 156.793 68.5651L155.96 68.9251ZM92.3751 65.7751L91.9251 64.9876C93.0951 64.3126 94.4226 63.9526 95.7726 63.9526H96.5151V64.8526H95.7726C94.5801 64.8526 93.4101 65.1676 92.3751 65.7751ZM150.38 64.8751C150.185 64.8601 149.983 64.8526 149.773 64.8526H145.903V63.9526H149.773C149.998 63.9526 150.23 63.9601 150.47 63.9751L150.38 64.8751ZM142.73 64.8526H138.185V63.9526H142.73V64.8526ZM135.013 64.8526H130.49V63.9526H135.013V64.8526ZM127.318 64.8526H122.773V63.9526H127.318V64.8526ZM119.6 64.8526H115.078V63.9526H119.6V64.8526ZM111.905 64.8526H107.383V63.9526H111.905V64.8526ZM104.21 64.8526H99.6651V63.9526H104.21V64.8526Z" fill="#D2D9E0"/>
<path d="M192.185 77.0928H138.185C132.987 77.0928 128.735 81.3228 128.735 86.5428V197.243C128.735 202.463 132.987 206.693 138.185 206.693H192.185C197.405 206.693 201.635 202.463 201.635 197.243V86.5428C201.635 81.3228 197.405 77.0928 192.185 77.0928Z" fill="white"/>
<path d="M138.185 200.843C134.225 200.843 130.985 197.625 130.985 193.643V89.2205C130.985 85.2605 134.225 82.0205 138.185 82.0205H192.185C196.167 82.0205 199.385 85.2605 199.385 89.2205V193.643C199.385 197.625 196.167 200.843 192.185 200.843H138.185Z" fill="#2A4869"/>
<path d="M148.782 176.723H136.587C135.035 176.723 133.775 177.983 133.775 179.535V191.73C133.775 193.283 135.035 194.543 136.587 194.543H148.782C150.335 194.543 151.595 193.283 151.595 191.73V179.535C151.595 177.983 150.335 176.723 148.782 176.723Z" fill="#9AD8C6"/>
<path d="M171.282 176.723H159.11C157.557 176.723 156.297 177.983 156.297 179.535V191.73C156.297 193.283 157.557 194.543 159.11 194.543H171.282C172.835 194.543 174.095 193.283 174.095 191.73V179.535C174.095 177.983 172.835 176.723 171.282 176.723Z" fill="#D95A58"/>
<path d="M193.805 176.723H181.61C180.057 176.723 178.797 177.983 178.797 179.535V191.73C178.797 193.283 180.057 194.543 181.61 194.543H193.805C195.357 194.543 196.617 193.283 196.617 191.73V179.535C196.617 177.983 195.357 176.723 193.805 176.723Z" fill="#E6F8EA"/>
<path d="M148.782 154.223H136.587C135.035 154.223 133.775 155.483 133.775 157.035V169.208C133.775 170.76 135.035 172.02 136.587 172.02H148.782C150.335 172.02 151.595 170.76 151.595 169.208V157.035C151.595 155.483 150.335 154.223 148.782 154.223Z" fill="white"/>
<path d="M171.282 154.223H159.11C157.557 154.223 156.297 155.483 156.297 157.035V169.208C156.297 170.76 157.557 172.02 159.11 172.02H171.282C172.835 172.02 174.095 170.76 174.095 169.208V157.035C174.095 155.483 172.835 154.223 171.282 154.223Z" fill="#F0D03D"/>
<path d="M193.805 154.223H181.61C180.057 154.223 178.797 155.483 178.797 157.035V169.208C178.797 170.76 180.057 172.02 181.61 172.02H193.805C195.357 172.02 196.617 170.76 196.617 169.208V157.035C196.617 155.483 195.357 154.223 193.805 154.223Z" fill="#9AD8C6"/>
<path d="M148.782 131.7H136.587C135.035 131.7 133.775 132.96 133.775 134.513V146.708C133.775 148.26 135.035 149.52 136.587 149.52H148.782C150.335 149.52 151.595 148.26 151.595 146.708V134.513C151.595 132.96 150.335 131.7 148.782 131.7Z" fill="#7D9BCF"/>
<path d="M171.282 131.7H159.11C157.557 131.7 156.297 132.96 156.297 134.513V146.708C156.297 148.26 157.557 149.52 159.11 149.52H171.282C172.835 149.52 174.095 148.26 174.095 146.708V134.513C174.095 132.96 172.835 131.7 171.282 131.7Z" fill="#9AD8C6"/>
<path d="M193.805 131.7H181.61C180.057 131.7 178.797 132.96 178.797 134.513V146.708C178.797 148.26 180.057 149.52 181.61 149.52H193.805C195.357 149.52 196.617 148.26 196.617 146.708V134.513C196.617 132.96 195.357 131.7 193.805 131.7Z" fill="#D95A58"/>
<path d="M148.782 109.2H136.587C135.035 109.2 133.775 110.46 133.775 112.013V124.208C133.775 125.76 135.035 127.02 136.587 127.02H148.782C150.335 127.02 151.595 125.76 151.595 124.208V112.013C151.595 110.46 150.335 109.2 148.782 109.2Z" fill="#BF2A68"/>
<path d="M171.282 109.2H159.11C157.557 109.2 156.297 110.46 156.297 112.013V124.208C156.297 125.76 157.557 127.02 159.11 127.02H171.282C172.835 127.02 174.095 125.76 174.095 124.208V112.013C174.095 110.46 172.835 109.2 171.282 109.2Z" fill="white"/>
<path d="M193.805 109.2H181.61C180.057 109.2 178.797 110.46 178.797 112.013V124.208C178.797 125.76 180.057 127.02 181.61 127.02H193.805C195.357 127.02 196.617 125.76 196.617 124.208V112.013C196.617 110.46 195.357 109.2 193.805 109.2Z" fill="#E6F8EA"/>
<path d="M148.782 86.7002H136.587C135.035 86.7002 133.775 87.9602 133.775 89.5127V101.708C133.775 103.26 135.035 104.52 136.587 104.52H148.782C150.335 104.52 151.595 103.26 151.595 101.708V89.5127C151.595 87.9602 150.335 86.7002 148.782 86.7002Z" fill="#D95A58"/>
<path d="M171.282 86.7002H159.11C157.557 86.7002 156.297 87.9602 156.297 89.5127V101.708C156.297 103.26 157.557 104.52 159.11 104.52H171.282C172.835 104.52 174.095 103.26 174.095 101.708V89.5127C174.095 87.9602 172.835 86.7002 171.282 86.7002Z" fill="#7D9BCF"/>
<path d="M193.805 86.7002H181.61C180.057 86.7002 178.797 87.9602 178.797 89.5127V101.708C178.797 103.26 180.057 104.52 181.61 104.52H193.805C195.357 104.52 196.617 103.26 196.617 101.708V89.5127C196.617 87.9602 195.357 86.7002 193.805 86.7002Z" fill="#BF2A68"/>
<path d="M146.308 150.825H99.6426C97.6401 150.825 95.9976 152.445 95.9976 154.448V168.15C95.9976 170.153 97.6401 171.773 99.6426 171.773H144.62L149.93 180.705V154.448C149.93 152.445 148.31 150.825 146.308 150.825Z" fill="white"/>
<path d="M141.56 155.1H101.308V154.312H141.56V155.1Z" fill="#EDBBAD"/>
<path d="M141.56 158.25H101.308V157.462H141.56V158.25Z" fill="#EDBBAD"/>
<path d="M141.56 161.422H101.308V160.635H141.56V161.422Z" fill="#EDBBAD"/>
<path d="M141.56 164.573H101.308V163.785H141.56V164.573Z" fill="#EDBBAD"/>
<path d="M141.56 167.723H101.308V166.935H141.56V167.723Z" fill="#EDBBAD"/>
<path d="M166.13 185.993C162.17 185.993 158.93 182.753 158.93 178.793V74.3704C158.93 70.3879 162.17 67.1704 166.13 67.1704H220.13C224.09 67.1704 227.33 70.3879 227.33 74.3704V178.793C227.33 182.753 224.09 185.993 220.13 185.993H166.13Z" fill="white"/>
<path d="M185.885 93.9454H166.535V77.0029H185.885V93.9454Z" fill="#D95A58"/>
<path d="M188.562 84.4277V86.5202H219.725V84.4277H188.562Z" fill="#7D9BCF"/>
<path d="M219.725 78.6679V77.0029H188.562V78.6679H219.725Z" fill="#7D9BCF"/>
<path d="M188.562 80.5127V82.6052H219.725V80.5127H188.562Z" fill="#7D9BCF"/>
<path d="M188.562 92.2803V93.9453H219.725V92.2803H188.562Z" fill="#7D9BCF"/>
<path d="M219.725 90.4353V88.3428H188.562V90.4353H219.725Z" fill="#7D9BCF"/>
<path d="M185.885 114.173H166.535V97.2529H185.885V114.173Z" fill="#F0D03D"/>
<path d="M188.562 104.655V106.748H219.725V104.655H188.562Z" fill="#7D9BCF"/>
<path d="M219.725 98.9179V97.2529H188.562V98.9179H219.725Z" fill="#7D9BCF"/>
<path d="M188.562 100.74V102.833H219.725V100.74H188.562Z" fill="#7D9BCF"/>
<path d="M188.562 112.508V114.173H219.725V112.508H188.562Z" fill="#7D9BCF"/>
<path d="M219.725 110.685V108.593H188.562V110.685H219.725Z" fill="#7D9BCF"/>
<path d="M185.885 134.4H166.535V117.48H185.885V134.4Z" fill="#7D9BCF"/>
<path d="M188.562 124.905V126.998H219.725V124.905H188.562Z" fill="#7D9BCF"/>
<path d="M219.725 119.145V117.48H188.562V119.145H219.725Z" fill="#7D9BCF"/>
<path d="M188.562 120.968V123.06H219.725V120.968H188.562Z" fill="#7D9BCF"/>
<path d="M188.562 132.735V134.4H219.725V132.735H188.562Z" fill="#7D9BCF"/>
<path d="M219.725 130.913V128.82H188.562V130.913H219.725Z" fill="#7D9BCF"/>
<path d="M185.885 154.651H166.535V137.708H185.885V154.651Z" fill="#EDBBAD"/>
<path d="M188.562 145.133V147.225H219.725V145.133H188.562Z" fill="#7D9BCF"/>
<path d="M219.725 139.373V137.708H188.562V139.373H219.725Z" fill="#7D9BCF"/>
<path d="M188.562 141.218V143.31H219.725V141.218H188.562Z" fill="#7D9BCF"/>
<path d="M188.562 152.985V154.65H219.725V152.985H188.562Z" fill="#7D9BCF"/>
<path d="M219.725 151.14V149.048H188.562V151.14H219.725Z" fill="#7D9BCF"/>
<path d="M185.885 174.878H166.535V157.958H185.885V174.878Z" fill="#D95A58"/>
<path d="M188.562 165.36V167.453H219.725V165.36H188.562Z" fill="#7D9BCF"/>
<path d="M219.725 159.623V157.958H188.562V159.623H219.725Z" fill="#7D9BCF"/>
<path d="M188.562 161.445V163.538H219.725V161.445H188.562Z" fill="#7D9BCF"/>
<path d="M188.562 173.213V174.878H219.725V173.213H188.562Z" fill="#7D9BCF"/>
<path d="M219.725 171.39V169.298H188.562V171.39H219.725Z" fill="#7D9BCF"/>
<path d="M253.205 151.793H248.66V150.893H253.205V151.793ZM245.488 151.793H240.965V150.893H245.488V151.793ZM237.793 151.793H233.248V150.893H237.793V151.793ZM230.075 151.793H225.553V150.893H230.075V151.793ZM222.38 151.793H217.858V150.893H222.38V151.793ZM214.685 151.793H210.14V150.893H214.685V151.793ZM206.968 151.793H202.445V150.893H206.968V151.793ZM199.273 151.793H199.25C197.608 151.793 196.055 151.275 194.75 150.33L195.268 149.588C196.438 150.443 197.81 150.893 199.25 150.893L199.273 151.793ZM256.445 151.073L256.063 150.263C257.345 149.655 258.448 148.665 259.123 147.428L259.91 147.855C259.145 149.25 257.908 150.398 256.445 151.073ZM192.523 147.81C191.915 146.685 191.578 145.425 191.578 144.143V143.22H192.478V144.143C192.478 145.268 192.77 146.393 193.31 147.383L192.523 147.81ZM260.878 144.638L259.978 144.593C259.978 144.443 259.978 144.293 259.978 144.143V140.093H260.878V144.143C260.878 144.308 260.878 144.473 260.878 144.638ZM192.478 140.048H191.578V135.503H192.478V140.048ZM260.878 136.92H259.978V132.398H260.878V136.92ZM192.478 132.33H191.578V127.808H192.478V132.33ZM260.878 129.203H259.978V124.68H260.878V129.203ZM192.478 124.613H191.578V120.09H192.478V124.613ZM260.878 121.485H259.978V116.963H260.878V121.485ZM192.478 116.895H191.578V112.373H192.478V116.895ZM260.878 113.768H259.978V109.223H260.878V113.768ZM192.478 109.2H191.578V104.678H192.478V109.2ZM260.878 106.073H259.978V101.528H260.878V106.073ZM192.478 101.505H191.578V96.9603H192.478V101.505ZM260.878 98.4003H259.978V93.8553H260.878V98.4003ZM192.478 93.8328H191.578V89.2878H192.478V93.8328ZM260.878 90.7053H259.978V86.1828H260.878V90.7053ZM192.478 86.1153H191.578V81.5928H192.478V86.1153ZM260.878 82.9878H259.978V78.4653H260.878V82.9878ZM192.478 78.3978H191.578V73.8753H192.478V78.3978ZM260.878 75.2703H259.978V70.7478H260.878V75.2703ZM192.478 70.6803H191.578V66.1578H192.478V70.6803ZM260.878 67.5528H259.978V63.0303H260.878V67.5528ZM192.478 62.9628H191.578V58.4403H192.478V62.9628ZM260.878 59.8353H259.978V55.2903H260.878V59.8353ZM192.478 55.2678H191.578V50.7228H192.478V55.2678ZM260.878 52.1628H259.978V47.6178H260.878V52.1628ZM192.478 47.5953H191.578V43.0503H192.478V47.5953ZM260.878 44.4678H259.978V39.9453H260.878V44.4678ZM192.478 39.9003H191.578V39.7203C191.578 38.1453 192.05 36.6378 192.95 35.3553L193.693 35.8728C192.905 36.9978 192.478 38.3253 192.478 39.7203V39.9003ZM259.438 37.0203C258.875 35.7378 257.885 34.6128 256.67 33.8928L257.12 33.1278C258.493 33.9378 259.618 35.1978 260.248 36.6603L259.438 37.0203ZM195.853 33.8703L195.403 33.1053C196.573 32.4078 197.9 32.0703 199.25 32.0703H199.993V32.9703H199.25C198.058 32.9703 196.888 33.2853 195.853 33.8703ZM253.88 32.9928C253.67 32.9778 253.46 32.9703 253.25 32.9703H249.38V32.0703H253.25C253.49 32.0703 253.723 32.0778 253.948 32.0928L253.88 32.9928ZM246.23 32.9703H241.708V32.0703H246.23V32.9703ZM238.535 32.9703H233.99V32.0703H238.535V32.9703ZM230.818 32.9703H226.295V32.0703H230.818V32.9703ZM223.123 32.9703H218.578V32.0703H223.123V32.9703ZM215.405 32.9703H210.883V32.0703H215.405V32.9703ZM207.71 32.9703H203.188V32.0703H207.71V32.9703Z" fill="#D2D9E0"/>
<path d="M186.965 171.03C183.005 171.03 179.765 167.79 179.765 163.83V59.4075C179.765 55.425 183.005 52.2075 186.965 52.2075H240.965C244.948 52.2075 248.165 55.425 248.165 59.4075V163.83C248.165 167.79 244.948 171.03 240.965 171.03H186.965Z" fill="#DEE6F4"/>
<path d="M241.325 61.0952H186.627C185.997 61.0952 185.502 61.5902 185.502 62.2202V70.3877C185.502 71.0177 185.997 71.5127 186.627 71.5127H241.325C241.955 71.5127 242.45 71.0177 242.45 70.3877V62.2202C242.45 61.5902 241.955 61.0952 241.325 61.0952Z" fill="#7D9BCF"/>
<path d="M185.502 127.2V128.708H242.45V127.2H185.502Z" fill="#7D9BCF"/>
<path d="M185.502 131.092V132.6H242.45V131.092H185.502Z" fill="#7D9BCF"/>
<path d="M185.502 134.985V136.492H242.45V134.985H185.502Z" fill="#7D9BCF"/>
<path d="M185.502 138.877V140.385H242.45V138.877H185.502Z" fill="#7D9BCF"/>
<path d="M185.502 142.77V144.278H242.45V142.77H185.502Z" fill="#7D9BCF"/>
<path d="M185.502 146.663V148.17H242.45V146.663H185.502Z" fill="#7D9BCF"/>
<path d="M241.325 74.0776C234.057 74.0776 193.872 74.0776 186.627 74.0776C185.997 74.0776 185.502 74.5951 185.502 75.2026V123.105C185.502 123.713 185.997 124.23 186.627 124.23H241.325C241.955 124.23 242.45 123.713 242.45 123.105V75.2026C242.45 74.5951 241.955 74.0776 241.325 74.0776Z" fill="#7D9BCF"/>
<path d="M239.728 119.415H188.225V78.6899H239.728V119.415Z" fill="white"/>
<path d="M199.003 115.658H192.5V99.1426H199.003V115.658Z" fill="#D95A58"/>
<path d="M208.115 115.658H201.612V94.9351H208.115V115.658Z" fill="#7D9BCF"/>
<path d="M217.228 115.658H210.725V91.2451H217.228V115.658Z" fill="#F0D03D"/>
<path d="M226.317 115.657H219.837V86.8574H226.317V115.657Z" fill="#EDBBAD"/>
<path d="M235.43 115.658H228.95V83.145H235.43V115.658Z" fill="#7D9BCF"/>
<path d="M230.278 110.933H252.35C254.353 110.933 255.973 112.553 255.973 114.578V128.258C255.973 130.26 254.353 131.903 252.35 131.903H231.965L226.655 140.835V114.578C226.655 112.553 228.275 110.933 230.278 110.933Z" fill="#D95A58"/>
<path d="M237.568 114.825C240.56 114.712 241.325 117.705 241.325 117.705C241.325 117.705 242.068 114.712 245.06 114.825C246.928 114.915 249.583 116.535 249.043 120.562C248.548 124.252 244.948 126.457 242.833 127.425C241.865 127.875 240.763 127.875 239.795 127.425C237.68 126.457 234.08 124.252 233.585 120.562C233.045 116.535 235.7 114.915 237.568 114.825Z" fill="white"/>
<path d="M145.16 92.3926H99.8002C97.4827 92.3926 95.6152 94.2601 95.6152 96.5776V141.938C95.6152 144.255 97.4827 146.123 99.8002 146.123H145.16C147.478 146.123 149.345 144.255 149.345 141.938V96.5776C149.345 94.2601 147.478 92.3926 145.16 92.3926Z" fill="#DEE6F4"/>
<path d="M146.78 124.073H98.1802V96.9829H146.78V124.073Z" fill="white"/>
<path d="M107.27 130.845C107.27 132.78 105.717 134.333 103.782 134.333C101.87 134.333 100.317 132.78 100.317 130.845C100.317 128.933 101.87 127.38 103.782 127.38C105.717 127.38 107.27 128.933 107.27 130.845Z" fill="#7D9BCF"/>
<path d="M106.168 134.805H101.42C100.137 134.805 99.125 135.84 99.125 137.1V141.51H108.463V137.1C108.463 135.84 107.428 134.805 106.168 134.805Z" fill="#7D9BCF"/>
<path d="M145.858 128.91H115.865V128.325H145.858V128.91Z" fill="#7D9BCF"/>
<path d="M145.858 131.363H115.865V130.8H145.858V131.363Z" fill="#7D9BCF"/>
<path d="M145.858 133.838H115.865V133.253H145.858V133.838Z" fill="#7D9BCF"/>
<path d="M145.858 136.29H115.865V135.705H145.858V136.29Z" fill="#7D9BCF"/>
<path d="M145.858 138.765H115.865V138.18H145.858V138.765Z" fill="#7D9BCF"/>
<path d="M145.858 141.218H115.865V140.633H145.858V141.218Z" fill="#7D9BCF"/>
<path fill-rule="evenodd" clip-rule="evenodd" d="M220.873 199.785C220.723 200.34 220.513 200.858 220.243 201.338L221.368 202.44C221.593 202.665 221.593 203.025 221.368 203.25L219.613 205.005C219.388 205.23 219.028 205.23 218.803 205.005L217.678 203.903C217.198 204.173 216.688 204.383 216.148 204.533V206.108C216.148 206.423 215.9 206.693 215.585 206.693H213.088C212.773 206.693 212.525 206.423 212.525 206.108V204.533C211.97 204.383 211.453 204.173 210.973 203.903L209.87 205.005C209.645 205.23 209.285 205.23 209.06 205.005L207.305 203.25C207.08 203.025 207.08 202.665 207.305 202.44L208.408 201.338C208.138 200.858 207.928 200.34 207.778 199.785H206.203C205.888 199.785 205.64 199.538 205.64 199.223V196.748C205.64 196.433 205.888 196.163 206.203 196.163H207.778C207.928 195.623 208.138 195.113 208.408 194.633L207.305 193.508C207.08 193.283 207.08 192.923 207.305 192.698L209.06 190.943C209.285 190.718 209.645 190.718 209.87 190.943L210.973 192.068C211.453 191.798 211.97 191.588 212.525 191.438V189.84C212.525 189.525 212.773 189.278 213.088 189.278H215.585C215.9 189.278 216.148 189.525 216.148 189.84V191.438C216.688 191.588 217.198 191.798 217.678 192.068L218.803 190.943C219.028 190.718 219.388 190.718 219.613 190.943L221.368 192.698C221.593 192.923 221.593 193.283 221.368 193.508L220.243 194.633C220.513 195.113 220.723 195.623 220.873 196.163H223.033V199.785H220.873ZM213.763 193.688C211.828 193.935 210.275 195.488 210.028 197.423C209.668 200.258 212.053 202.643 214.888 202.283C216.823 202.035 218.375 200.483 218.623 198.548C218.983 195.713 216.598 193.328 213.763 193.688Z" fill="#F0D03D"/>
<path d="M217.272 197.985C217.272 199.605 215.967 200.933 214.325 200.933C212.705 200.933 211.377 199.605 211.377 197.985C211.377 196.343 212.705 195.038 214.325 195.038C215.967 195.038 217.272 196.343 217.272 197.985Z" fill="#F0D03D"/>
<path fill-rule="evenodd" clip-rule="evenodd" d="M245.915 197.085C245.705 197.835 245.405 198.548 245.015 199.223L246.59 200.775C246.882 201.09 246.882 201.585 246.59 201.9L244.137 204.353C243.822 204.668 243.305 204.668 243.012 204.353L241.437 202.8C240.777 203.175 240.065 203.468 239.3 203.678V205.883C239.3 206.333 238.94 206.693 238.512 206.693H235.047C234.597 206.693 234.237 206.333 234.237 205.883V203.678C233.487 203.468 232.775 203.175 232.1 202.8L230.547 204.353C230.232 204.668 229.737 204.668 229.422 204.353L226.97 201.9C226.655 201.585 226.655 201.09 226.97 200.775L228.522 199.223C228.147 198.548 227.855 197.835 227.645 197.085H225.44C224.99 197.085 224.63 196.725 224.63 196.275V192.81C224.63 192.383 224.99 192.023 225.44 192.023H227.645C227.855 191.258 228.147 190.545 228.522 189.885L226.97 188.31C226.655 187.995 226.655 187.5 226.97 187.185L229.422 184.733C229.737 184.418 230.232 184.418 230.547 184.733L232.1 186.308C232.775 185.918 233.487 185.618 234.237 185.408V183.203C234.237 182.775 234.597 182.415 235.047 182.415H238.512C238.94 182.415 239.3 182.775 239.3 183.203V185.408C240.065 185.618 240.777 185.918 241.437 186.308L243.012 184.733C243.305 184.418 243.822 184.418 244.137 184.733L246.59 187.185C246.882 187.5 246.882 187.995 246.59 188.31L245.015 189.885C245.405 190.545 245.705 191.258 245.915 192.023H248.907V197.085H245.915ZM235.992 188.558C233.315 188.895 231.132 191.078 230.795 193.755C230.3 197.715 233.607 201.045 237.567 200.528C240.267 200.19 242.427 198.03 242.765 195.33C243.282 191.37 239.952 188.063 235.992 188.558Z" fill="#D2D9E0"/>
<path fill-rule="evenodd" clip-rule="evenodd" d="M151.1 51.3978C151.1 53.4228 149.457 55.0878 147.41 55.0878C145.497 55.0878 143.922 53.6028 143.742 51.7353L136.182 48.5853C135.552 49.1028 134.742 49.4178 133.842 49.4178C131.817 49.4178 130.152 47.7753 130.152 45.7278C130.152 43.7028 131.817 42.0378 133.842 42.0378C134.742 42.0378 135.552 42.3528 136.182 42.8928L143.765 39.7428C144.035 37.9653 145.565 36.5928 147.41 36.5928C149.457 36.5928 151.1 38.2353 151.1 40.2828C151.1 42.3078 149.457 43.9728 147.41 43.9728C146.465 43.9728 145.61 43.5903 144.957 43.0053L138.387 45.7278L145.092 48.5178C145.722 48.0003 146.532 47.7078 147.41 47.7078C149.457 47.7078 151.1 49.3503 151.1 51.3978ZM144.192 49.6203L137.397 46.7853C137.322 47.0403 137.217 47.2803 137.082 47.5053L143.877 50.3178C143.967 50.0778 144.072 49.8453 144.192 49.6203ZM144.102 41.9028C144.102 41.8728 144.095 41.8503 144.08 41.8353C144.05 41.7603 144.02 41.6853 143.99 41.6103C143.975 41.5653 143.96 41.5203 143.945 41.4753C143.915 41.4003 143.885 41.3253 143.855 41.2503C143.855 41.2203 143.847 41.1903 143.832 41.1603L137.082 43.9728C137.217 44.1978 137.322 44.4378 137.397 44.6928L144.102 41.9028ZM145.07 40.2603V40.2828C145.07 40.4328 145.085 40.5753 145.115 40.7103C145.13 40.7703 145.145 40.8228 145.16 40.8678C145.175 40.9578 145.197 41.0478 145.227 41.1378C145.257 41.1828 145.287 41.2353 145.317 41.2953C145.347 41.3703 145.385 41.4453 145.43 41.5203C145.46 41.5653 145.497 41.6178 145.542 41.6778C145.97 42.2403 146.645 42.6228 147.41 42.6228C148.692 42.6228 149.75 41.5653 149.75 40.2828C149.75 38.9778 148.692 37.9428 147.41 37.9428C146.127 37.9428 145.07 38.9778 145.07 40.2603ZM133.842 48.0678C134.472 48.0678 135.057 47.8203 135.485 47.3928H135.507C135.552 47.3253 135.597 47.2803 135.642 47.2128C135.687 47.1453 135.755 47.0778 135.8 47.0103C135.815 46.9803 135.837 46.9428 135.867 46.8978C136.025 46.6053 136.115 46.2903 136.16 45.9528C136.16 45.8853 136.182 45.8403 136.182 45.7728V45.7278V45.7053C136.182 45.6378 136.16 45.5928 136.16 45.5253C136.115 45.1878 136.025 44.8728 135.867 44.5803C135.837 44.5353 135.815 44.4978 135.8 44.4678C135.755 44.4003 135.687 44.3328 135.642 44.2653C135.597 44.1978 135.552 44.1528 135.507 44.0853H135.485C135.057 43.6578 134.472 43.4103 133.842 43.4103C132.537 43.4103 131.502 44.4453 131.502 45.7278C131.502 47.0328 132.537 48.0678 133.842 48.0678ZM149.75 51.3978C149.75 50.0928 148.692 49.0578 147.41 49.0578C146.757 49.0578 146.172 49.3053 145.767 49.7328L145.745 49.7553C145.7 49.8003 145.655 49.8453 145.61 49.9128C145.565 49.9803 145.497 50.0478 145.452 50.1153C145.437 50.1453 145.422 50.1753 145.407 50.2053C145.272 50.4153 145.182 50.6403 145.137 50.8803C145.137 50.8803 145.13 50.8803 145.115 50.8803C145.115 50.9703 145.092 51.0828 145.092 51.1728C145.092 51.2403 145.07 51.2853 145.07 51.3528V51.3978C145.07 52.6803 146.127 53.7378 147.41 53.7378C148.692 53.7378 149.75 52.6803 149.75 51.3978Z" fill="#2A4869"/>
<path d="M127.115 196.365C127.115 202.058 122.502 206.693 116.787 206.693C111.095 206.693 106.482 202.058 106.482 196.365C106.482 190.673 111.095 186.06 116.787 186.06C122.502 186.06 127.115 190.673 127.115 196.365Z" fill="#F0D03D"/>
<path d="M125.067 196.365C125.067 200.932 121.377 204.645 116.787 204.645C112.22 204.645 108.507 200.932 108.507 196.365C108.507 191.797 112.22 188.085 116.787 188.085C121.377 188.085 125.067 191.797 125.067 196.365Z" fill="#E2B542"/>
<path fill-rule="evenodd" clip-rule="evenodd" d="M120.59 198.345C120.59 199.14 120.297 199.777 119.712 200.257C119.142 200.737 118.332 201.03 117.282 201.135V202.687H116.247V201.157C115.017 201.142 113.945 200.925 113.03 200.505V198.525C113.465 198.735 113.99 198.922 114.605 199.087C115.22 199.252 115.767 199.35 116.247 199.38V197.062L115.752 196.86C114.747 196.47 114.042 196.042 113.637 195.577C113.217 195.112 113.007 194.542 113.007 193.867C113.007 193.147 113.292 192.547 113.862 192.067C114.432 191.602 115.227 191.317 116.247 191.212V190.065H117.282V191.19C118.437 191.235 119.48 191.467 120.41 191.887L119.69 193.642C118.91 193.327 118.107 193.132 117.282 193.057V195.285C118.272 195.66 118.97 195.982 119.375 196.252C119.795 196.537 120.102 196.845 120.297 197.175C120.492 197.505 120.59 197.895 120.59 198.345ZM115.28 193.867C115.28 194.092 115.355 194.272 115.505 194.407C115.655 194.557 115.902 194.707 116.247 194.857V193.08C115.602 193.185 115.28 193.447 115.28 193.867ZM118.317 198.457C118.317 198.232 118.227 198.052 118.047 197.917C117.882 197.767 117.627 197.617 117.282 197.467V199.335C117.972 199.215 118.317 198.922 118.317 198.457Z" fill="#F0D03D"/>
<path d="M116.653 196.365C116.653 202.058 112.04 206.693 106.348 206.693C100.633 206.693 96.02 202.058 96.02 196.365C96.02 190.673 100.633 186.06 106.348 186.06C112.04 186.06 116.653 190.673 116.653 196.365Z" fill="#F0D03D"/>
<path d="M114.627 196.365C114.627 200.932 110.915 204.645 106.347 204.645C101.757 204.645 98.0674 200.932 98.0674 196.365C98.0674 191.797 101.757 188.085 106.347 188.085C110.915 188.085 114.627 191.797 114.627 196.365Z" fill="#E2B542"/>
<path fill-rule="evenodd" clip-rule="evenodd" d="M110.127 198.345C110.127 199.14 109.835 199.777 109.25 200.257C108.68 200.737 107.87 201.03 106.82 201.135V202.687H105.785V201.157C104.57 201.142 103.497 200.925 102.567 200.505V198.525C103.002 198.735 103.527 198.922 104.142 199.087C104.757 199.252 105.305 199.35 105.785 199.38V197.062L105.29 196.86C104.3 196.47 103.595 196.042 103.175 195.577C102.755 195.112 102.545 194.542 102.545 193.867C102.545 193.147 102.83 192.547 103.4 192.067C103.97 191.602 104.765 191.317 105.785 191.212V190.065H106.82V191.19C107.975 191.235 109.017 191.467 109.947 191.887L109.25 193.642C108.455 193.327 107.645 193.132 106.82 193.057V195.285C107.81 195.66 108.507 195.982 108.912 196.252C109.332 196.537 109.64 196.845 109.835 197.175C110.03 197.505 110.127 197.895 110.127 198.345ZM104.817 193.867C104.817 194.092 104.892 194.272 105.042 194.407C105.207 194.557 105.455 194.707 105.785 194.857V193.08C105.14 193.185 104.817 193.447 104.817 193.867ZM107.855 198.457C107.855 198.232 107.772 198.052 107.607 197.917C107.427 197.767 107.165 197.617 106.82 197.467V199.335C107.51 199.215 107.855 198.922 107.855 198.457Z" fill="#F0D03D"/>
<path d="M118.25 171.345C118.25 176.183 114.335 180.098 109.52 180.098C104.683 180.098 100.79 176.183 100.79 171.345C100.79 166.53 104.683 162.615 109.52 162.615C114.335 162.615 118.25 166.53 118.25 171.345Z" fill="#D95A58"/>
<path d="M106.64 166.373C108.935 166.283 109.52 168.578 109.52 168.578C109.52 168.578 110.105 166.283 112.4 166.373C113.84 166.44 115.888 167.7 115.46 170.783C115.1 173.618 112.31 175.328 110.69 176.07C109.948 176.43 109.093 176.43 108.35 176.07C106.73 175.328 103.94 173.618 103.58 170.783C103.153 167.7 105.2 166.44 106.64 166.373Z" fill="white"/>
<path fill-rule="evenodd" clip-rule="evenodd" d="M118.295 79.5004C118.295 86.0029 113.007 91.2904 106.505 91.2904C100.002 91.2904 94.7148 86.0029 94.7148 79.5004C94.7148 72.9979 100.002 67.7104 106.505 67.7104C113.007 67.7104 118.295 72.9979 118.295 79.5004ZM106.505 69.0604C105.11 69.0604 103.647 70.7929 102.77 73.7179C103.962 74.1679 105.222 74.3929 106.505 74.3929C107.81 74.3929 109.07 74.1679 110.24 73.7179C109.385 70.7929 107.922 69.0604 106.505 69.0604ZM111.477 73.1554C112.197 72.7654 112.865 72.2854 113.48 71.7154C112.4 70.7479 111.117 70.0054 109.7 69.5554C110.42 70.4779 111.027 71.6929 111.477 73.1554ZM111.005 78.8254C110.96 77.4304 110.825 76.1704 110.577 75.0229C109.295 75.4954 107.922 75.7429 106.505 75.7429C105.11 75.7429 103.737 75.4954 102.455 75.0229C102.207 76.1704 102.05 77.4304 102.027 78.8254H111.005ZM102.005 80.1754C102.05 81.5479 102.207 82.8079 102.432 83.9554C103.715 83.4829 105.087 83.2354 106.505 83.2354C107.922 83.2354 109.295 83.4829 110.577 83.9554C110.802 82.8079 110.96 81.5479 111.005 80.1754H102.005ZM103.31 69.5554C101.892 70.0054 100.61 70.7479 99.5298 71.7154C100.145 72.2854 100.812 72.7654 101.532 73.1554C101.982 71.6929 102.59 70.4779 103.31 69.5554ZM98.5848 72.683C97.1448 74.3705 96.2223 76.4854 96.0648 78.8254H100.632C100.677 77.2729 100.857 75.8105 101.172 74.483C100.227 74.0105 99.3723 73.403 98.5848 72.683ZM96.0648 80.1754C96.2223 82.4929 97.1448 84.6304 98.5848 86.2955C99.3723 85.5755 100.227 84.968 101.172 84.4955C100.857 83.168 100.677 81.7279 100.632 80.1754H96.0648ZM99.5298 87.2629C100.61 88.2304 101.892 88.9729 103.31 89.4454C102.59 88.5229 101.982 87.2854 101.532 85.8454C100.812 86.2355 100.145 86.7079 99.5298 87.2629ZM106.482 89.9404C107.9 89.9404 109.362 88.1854 110.217 85.2604C109.047 84.8329 107.787 84.5854 106.482 84.5854C105.2 84.5854 103.94 84.8329 102.77 85.2604C103.625 88.1854 105.087 89.9404 106.482 89.9404ZM109.677 89.4454C111.095 88.9729 112.377 88.2304 113.457 87.2629C112.842 86.7079 112.175 86.2355 111.455 85.8454C111.005 87.2854 110.397 88.5229 109.677 89.4454ZM114.402 86.2955C115.842 84.6304 116.765 82.4929 116.9 80.1754H112.332C112.31 81.7279 112.107 83.168 111.815 84.4955C112.737 84.968 113.615 85.5755 114.402 86.2955ZM116.9 78.8254C116.765 76.4854 115.842 74.3705 114.402 72.683C113.615 73.403 112.737 74.0105 111.815 74.483C112.107 75.8105 112.31 77.2729 112.332 78.8254H116.9Z" fill="#2A4869"/>
<path d="M194.143 50.1152L190.678 64.5377C190.453 65.5277 191.06 66.5177 192.05 66.7652L194.773 67.4177C195.763 67.6427 196.753 67.0352 197 66.0452L200.443 51.6227L194.143 50.1152Z" fill="#E2B542"/>
<path d="M162.665 26.625V62.445C179.9 51.1275 197.99 49.485 197.99 49.485V39.5625C197.99 39.5625 179.9 37.9425 162.665 26.625Z" fill="#E2B542"/>
<path d="M197.99 44.445V39.5625C197.99 39.5625 179.9 37.9425 162.665 26.625V44.445H197.99Z" fill="#F0D03D"/>
<path d="M160.663 23.4077C158.75 23.4077 157.198 24.9602 157.198 26.8952V62.1752C157.198 64.0877 158.75 65.6402 160.663 65.6402C162.575 65.6402 164.15 64.0877 164.15 62.1752V26.8952C164.15 24.9602 162.575 23.4077 160.663 23.4077Z" fill="#D95A58"/>
<path d="M203.053 36.8403H188.945V52.2303H203.053C205.483 52.2303 207.463 50.2503 207.463 47.8203V41.2503C207.463 38.8203 205.483 36.8403 203.053 36.8403Z" fill="#D95A58"/>
<path d="M192.028 40.6201C191.713 40.6201 191.465 40.8676 191.465 41.1826V46.4476C191.465 46.7401 191.713 46.9876 192.028 46.9876C192.343 46.9876 192.59 46.7401 192.59 46.4476V41.1826C192.59 40.8676 192.343 40.6201 192.028 40.6201Z" fill="#AC393F"/>
<path d="M193.625 40.6201C193.31 40.6201 193.063 40.8676 193.063 41.1826V46.4476C193.063 46.7401 193.31 46.9876 193.625 46.9876C193.94 46.9876 194.188 46.7401 194.188 46.4476V41.1826C194.188 40.8676 193.94 40.6201 193.625 40.6201Z" fill="#AC393F"/>
<path d="M195.223 40.6201C194.908 40.6201 194.66 40.8676 194.66 41.1826V46.4476C194.66 46.7401 194.908 46.9876 195.223 46.9876C195.515 46.9876 195.763 46.7401 195.763 46.4476V41.1826C195.763 40.8676 195.515 40.6201 195.223 40.6201Z" fill="#AC393F"/>
<path d="M196.798 40.6201C196.505 40.6201 196.258 40.8676 196.258 41.1826V46.4476C196.258 46.7401 196.505 46.9876 196.798 46.9876C197.113 46.9876 197.36 46.7401 197.36 46.4476V41.1826C197.36 40.8676 197.113 40.6201 196.798 40.6201Z" fill="#AC393F"/>
<path d="M198.396 40.6201C198.081 40.6201 197.833 40.8676 197.833 41.1826V46.4476C197.833 46.7401 198.081 46.9876 198.396 46.9876C198.711 46.9876 198.958 46.7401 198.958 46.4476V41.1826C198.958 40.8676 198.711 40.6201 198.396 40.6201Z" fill="#AC393F"/>
<path fill-rule="evenodd" clip-rule="evenodd" d="M118.655 54.1428H116.337C115.685 54.1428 115.145 53.6028 115.145 52.9503V51.9603C114.92 51.8853 114.71 51.7953 114.515 51.6903L113.817 52.3878C113.345 52.8603 112.557 52.8603 112.107 52.3878L110.465 50.7453C109.992 50.2728 109.992 49.5078 110.465 49.0578L111.162 48.3603C111.057 48.1503 110.967 47.9403 110.892 47.7303H109.902C109.25 47.7303 108.71 47.1903 108.71 46.5153V44.1978C108.71 43.5228 109.25 42.9828 109.902 42.9828H110.892C110.967 42.7728 111.057 42.5628 111.162 42.3528L110.465 41.6553C109.992 41.1828 109.992 40.4178 110.465 39.9678L112.107 38.3253C112.557 37.8528 113.345 37.8528 113.817 38.3253L114.515 39.0003C114.71 38.9103 114.92 38.8278 115.145 38.7528V37.7628C115.145 37.1103 115.685 36.5703 116.337 36.5703H118.655C119.33 36.5703 119.87 37.1103 119.87 37.7628V38.7528C120.08 38.8278 120.29 38.9103 120.5 39.0003L121.197 38.3253C121.647 37.8528 122.435 37.8528 122.907 38.3253L124.55 39.9678C125.022 40.4178 125.022 41.1828 124.55 41.6553L123.852 42.3528C123.942 42.5628 124.025 42.7728 124.1 42.9828H126.305V47.7303H124.1C124.025 47.9403 123.942 48.1503 123.852 48.3603L124.55 49.0578C125.022 49.5078 125.022 50.2728 124.55 50.7453L122.907 52.3878C122.435 52.8603 121.647 52.8603 121.197 52.3878L120.5 51.6903C120.29 51.7953 120.08 51.8853 119.87 51.9603V52.9503C119.87 53.6028 119.33 54.1428 118.655 54.1428ZM116.495 52.7928H118.52V50.9478L119.015 50.8128C119.465 50.6928 119.892 50.5203 120.297 50.2953L120.747 50.0253L122.052 51.3303L123.492 49.8903L122.187 48.5853L122.435 48.1578C122.66 47.7528 122.832 47.3253 122.952 46.8753L123.087 46.3803H124.955V44.3328H123.087L122.952 43.8378C122.832 43.3878 122.66 42.9603 122.435 42.5553L122.187 42.1278L123.492 40.8003L122.052 39.3603L120.747 40.6878L120.297 40.4178C119.892 40.1928 119.465 40.0203 119.015 39.9003L118.52 39.7653V37.9203H116.495V39.7653L116 39.9003C115.535 40.0203 115.107 40.1928 114.717 40.4178L114.267 40.6878L112.962 39.3603L111.522 40.8003L112.827 42.1278L112.58 42.5553C112.34 42.9603 112.16 43.3878 112.04 43.8378L111.905 44.3328H110.06V46.3803H111.905L112.04 46.8753C112.16 47.3253 112.34 47.7528 112.58 48.1578L112.827 48.5853L111.522 49.8903L112.962 51.3303L114.267 50.0253L114.717 50.2953C115.107 50.5203 115.535 50.6928 116 50.8128L116.495 50.9478V52.7928ZM117.507 48.5178C116.585 48.5178 115.73 48.1353 115.122 47.4603C114.515 46.7628 114.245 45.8628 114.357 44.9403C114.537 43.5228 115.685 42.3753 117.102 42.1953C118.137 42.0828 119.195 42.4653 119.892 43.2528C120.477 43.9278 120.77 44.8503 120.657 45.7728C120.477 47.1678 119.33 48.3153 117.912 48.4953C117.777 48.5103 117.642 48.5178 117.507 48.5178Z" fill="#D2D9E0"/>
<path fill-rule="evenodd" clip-rule="evenodd" d="M126.17 79.14H124.753C124.37 79.14 124.033 78.825 124.033 78.42V77.8125C123.898 77.7675 123.77 77.715 123.65 77.655L123.245 78.0825C122.953 78.3525 122.48 78.3525 122.21 78.0825L121.22 77.0925C120.928 76.8 120.928 76.35 121.22 76.0575L121.625 75.6525C121.58 75.5175 121.528 75.39 121.468 75.27H120.883C120.478 75.27 120.163 74.9325 120.163 74.5275V73.1325C120.163 72.7275 120.478 72.4125 120.883 72.4125H121.468C121.528 72.2775 121.58 72.15 121.625 72.03L121.22 71.6025C120.928 71.3325 120.928 70.86 121.22 70.59L122.21 69.6C122.48 69.3075 122.953 69.3075 123.245 69.6L123.65 70.005C123.77 69.945 123.898 69.8925 124.033 69.8475V69.2625C124.033 68.8575 124.37 68.5425 124.753 68.5425H126.17C126.553 68.5425 126.89 68.8575 126.89 69.2625V69.8475C127.025 69.8925 127.153 69.945 127.273 70.005L127.678 69.6C127.97 69.3075 128.443 69.3075 128.713 69.6L129.703 70.59C129.995 70.86 129.995 71.3325 129.703 71.6025L129.298 72.03C129.343 72.15 129.395 72.2775 129.455 72.4125H130.76V75.27H129.455C129.395 75.39 129.343 75.5175 129.298 75.6525L129.703 76.0575C129.995 76.35 129.995 76.8 129.703 77.0925L128.713 78.0825C128.443 78.3525 127.97 78.3525 127.678 78.0825L127.273 77.655C127.153 77.715 127.025 77.7675 126.89 77.8125V78.42C126.89 78.825 126.553 79.14 126.17 79.14ZM124.843 78.33H126.08V77.205L126.373 77.1375C126.643 77.0625 126.898 76.9575 127.138 76.8225L127.408 76.665L128.195 77.4525L129.073 76.575L128.285 75.7875L128.443 75.5175C128.578 75.2775 128.683 75.0225 128.758 74.7525L128.848 74.46H129.95V73.2225H128.848L128.758 72.93C128.683 72.66 128.578 72.405 128.443 72.165L128.285 71.895L129.073 71.1075L128.195 70.23L127.408 71.0175L127.138 70.86C126.898 70.725 126.643 70.62 126.373 70.545L126.08 70.455V69.3525H124.843V70.455L124.55 70.545C124.28 70.62 124.025 70.725 123.785 70.86L123.515 71.0175L122.728 70.23L121.85 71.1075L122.638 71.895L122.48 72.165C122.345 72.405 122.24 72.66 122.165 72.93L122.075 73.2225H120.973V74.46H122.075L122.165 74.7525C122.24 75.0225 122.345 75.2775 122.48 75.5175L122.638 75.7875L121.85 76.575L122.728 77.4525L123.515 76.665L123.785 76.8225C124.025 76.9575 124.28 77.0625 124.55 77.1375L124.843 77.205V78.33ZM125.473 76.6875C124.64 76.6875 123.875 76.35 123.335 75.72C122.795 75.1125 122.548 74.3025 122.638 73.47C122.795 72.21 123.83 71.175 125.09 71.0175C126.035 70.905 126.98 71.265 127.588 71.9625C128.128 72.57 128.398 73.4025 128.285 74.2125C128.128 75.4725 127.093 76.5075 125.833 76.665C125.713 76.68 125.593 76.6875 125.473 76.6875ZM125.473 71.8275C125.383 71.8275 125.293 71.8275 125.203 71.8275C124.303 71.94 123.56 72.6825 123.448 73.5825C123.38 74.1675 123.538 74.7525 123.943 75.18C124.393 75.6975 125.045 75.945 125.72 75.855C126.62 75.7425 127.363 75.0225 127.475 74.1225C127.543 73.515 127.385 72.9525 126.98 72.5025C126.598 72.075 126.035 71.8275 125.473 71.8275Z" fill="#7D9BCF"/>
</svg>
