<svg width="67" height="86" viewBox="0 0 67 86" fill="none" xmlns="http://www.w3.org/2000/svg">
<path fill-rule="evenodd" clip-rule="evenodd" d="M40.4132 67.0404C39.1353 66.7652 38.2719 67.6938 37.3739 68.5536C32.7804 72.9214 27.3581 75.9135 21.1759 77.5643C20.1398 77.8394 19.0691 78.1146 17.9985 78.2866C16.7551 78.4929 15.5808 77.7019 15.3736 76.5325C15.1664 75.2944 15.719 74.4002 16.9278 74.0219C17.9639 73.7124 19.0346 73.5405 20.1052 73.2309C25.6657 71.7177 30.5701 69.0007 34.68 64.908C36.7177 62.9133 39.0662 62.0879 41.8292 62.8101C43.1416 63.1541 43.9015 64.3234 43.6597 65.4239C43.3834 66.662 42.4854 67.1779 41.2421 67.1435C41.0349 67.1091 40.7931 67.0747 40.4132 67.0404ZM9.39865 61.3313C8.22438 61.3313 7.08465 61.3657 5.91038 61.3313C4.25259 61.2281 3.49276 60.5059 3.49276 59.1302C3.49276 57.7545 4.25259 56.9979 5.84131 56.9291C7.60272 56.8603 9.36411 56.9291 11.091 56.8947C17.1005 56.7915 21.7285 54.2809 24.8369 49.1221C26.0457 47.1274 27.1163 46.6115 28.3942 47.3681C29.6721 48.1247 29.8102 49.5004 28.6705 51.392C24.9405 57.5825 19.449 60.8842 12.2307 61.3313C11.2982 61.3657 10.3657 61.3313 9.39865 61.3313ZM57.7164 43.3786C57.7164 44.6855 57.751 45.9924 57.6819 47.2993C57.6128 48.7438 56.7839 49.5692 55.5751 49.6036C54.2627 49.638 53.3992 48.7782 53.2956 47.2305C53.2266 46.0956 53.2266 44.9263 53.2611 43.7569C53.3647 39.8706 52.8812 36.1219 51.0507 32.5795C50.5672 31.6165 50.429 30.4816 51.327 29.7938C51.9141 29.3467 52.9848 29.1059 53.6755 29.3123C54.3317 29.4842 54.8843 30.3096 55.2297 30.9631C56.7494 33.9208 57.5437 37.0505 57.6819 40.3521C57.751 41.3495 57.6819 42.3813 57.7164 43.3786ZM46.7335 39.905C45.8356 40.4209 44.8685 39.9738 44.2814 39.114C43.936 38.6669 43.7288 38.1166 43.487 37.5664C41.9674 34.0928 39.3771 31.8573 35.6816 30.9287C35.4053 30.8599 35.0944 30.8255 34.8181 30.7567C33.6093 30.3784 33.0222 29.553 33.1949 28.2805C33.333 27.0768 34.2655 26.3546 35.6816 26.4577C36.4069 26.5265 37.1322 26.7329 37.8229 26.9392C42.7617 28.4181 45.9737 31.7541 47.8387 36.4658C47.9423 36.7409 48.0114 37.0161 48.0805 37.2912C48.115 37.4288 48.115 37.5664 48.1496 37.7383C48.0114 38.9076 47.4588 39.5267 46.7335 39.905ZM9.26051 40.0082C9.50227 36.6034 10.4348 33.1986 12.1616 30.0345C12.7833 28.934 13.6122 28.1773 14.9592 28.5213C16.2716 28.8308 17.0314 30.2753 16.3407 31.5822C14.7174 34.7462 13.8194 38.0479 13.6468 41.5902C13.5777 43.0003 12.6452 43.7913 11.4364 43.7569C10.2275 43.7569 9.39865 42.8971 9.26051 41.4871C9.22597 41.0744 9.26051 40.6273 9.26051 40.0082ZM12.3343 70.0668C11.54 70.0668 10.7456 70.1012 9.95125 70.0325C8.67337 69.9637 7.94809 69.2758 7.87901 67.9689C7.80994 66.662 8.50068 65.8366 9.95125 65.6991C11.7472 65.5271 13.5777 65.5271 15.3736 65.3207C26.3565 63.9795 35.4398 53.8338 35.5434 42.794C35.5434 42.2437 35.647 39.6299 33.5403 39.6299C31.9861 39.6299 31.3644 41.5559 31.2608 41.8998C30.7773 43.3786 29.7757 44.0321 28.5323 43.6881C27.289 43.3786 26.6328 42.2781 26.9091 40.7648C27.3926 38.0478 28.9468 36.1563 31.6062 35.2965C34.0583 34.5055 36.7868 35.3653 38.4791 37.4288C39.7225 38.9421 40.206 40.7304 40.1369 42.6564C39.8261 57.5825 27.3235 69.8605 12.3343 70.0668ZM27.3926 0.422951C35.6816 -0.711987 44.1432 0.422959 51.7069 3.99973C52.0523 4.16023 52.3861 4.33219 52.7085 4.51561C53.4338 4.85953 54.1245 5.27224 54.7462 5.78812C55.6096 6.54475 55.7478 7.54212 55.1261 8.53949C54.5044 9.46807 53.6065 9.84638 52.4667 9.43367C51.9487 9.22732 51.4306 8.91779 50.9126 8.64266C39.2389 2.88772 27.5883 2.91066 15.9607 8.71145C15.6154 8.88341 15.3045 9.05535 14.9592 9.19292C13.5086 9.84637 12.4379 9.57123 11.7817 8.43629C11.1601 7.37014 11.4709 6.09764 12.8178 5.30663C16.3407 3.2431 20.1052 1.72985 24.1461 0.938832C25.2053 0.732479 26.2874 0.560519 27.3926 0.422951ZM8.36253 52.5957C7.05011 52.5957 5.7377 52.6301 4.42528 52.5613C2.8711 52.4925 1.93859 51.5983 1.90405 50.3946C1.90405 49.0189 2.87109 48.1591 4.52888 48.1247C6.6702 48.0903 8.77699 48.1935 10.8838 48.1247C15.4772 47.9528 17.7567 45.6485 18.033 41.1087C18.3093 36.0875 20.4161 32.0636 24.526 29.1403C25.1822 28.6588 26.1147 28.2805 26.9091 28.3149C28.5324 28.3149 29.3612 30.1377 28.4633 31.479C28.1524 31.9605 27.6344 32.3044 27.1854 32.6483C24.3533 34.6774 22.8682 37.4288 22.5228 40.868C21.7285 49.0877 17.8603 52.5957 9.67496 52.5957C9.23748 52.5957 8.80001 52.5957 8.36253 52.5957ZM0.52256 39.8706C1.38599 28.6932 6.35937 19.9232 15.8571 13.7671C16.2716 13.4919 16.7551 13.2168 17.2386 13.1136C18.2057 12.8729 19.1037 13.0104 19.6908 13.9734C20.2779 14.9708 20.1743 15.9338 19.3454 16.7248C18.9655 17.1031 18.5165 17.3438 18.1021 17.619C9.84764 23.1905 5.28871 30.8599 4.87426 40.8336C4.87426 41.3495 4.83973 41.8654 4.66704 42.3125C4.35621 43.3442 3.56184 43.8601 2.49118 43.7569C1.45506 43.6881 0.729776 43.0691 0.557089 42.0373C0.453477 41.3151 0.52256 40.5929 0.52256 39.8706ZM33.4712 17.7221C37.9265 17.7221 42.52 18.7195 46.5263 21.1958C46.7796 21.3333 47.0213 21.4938 47.2516 21.6772C48.6331 22.709 49.013 23.9127 48.3568 24.9789C47.597 26.217 46.3191 26.4577 44.7649 25.426C42.0019 23.6032 38.9972 22.4339 35.6816 22.0556C31.8134 21.6429 28.1524 22.2275 24.6987 23.9815C24.2497 24.2222 23.8007 24.4974 23.3517 24.7037C22.0048 25.254 20.8651 24.9445 20.2779 23.9471C19.6217 22.8122 19.898 21.4709 21.2795 20.8518C23.9389 19.6825 28.8086 17.7221 33.4712 17.7221ZM48.9785 47.5401C48.7367 50.9449 47.8042 54.3497 46.0428 57.4794C45.4557 58.6143 44.6268 59.3709 43.2798 59.027C41.9328 58.7175 41.2076 57.273 41.8983 55.9661C43.5216 52.802 44.4195 49.5004 44.5922 45.958C44.6613 44.548 45.5938 43.7569 46.8026 43.7913C48.0114 43.7913 48.8403 44.6511 48.9785 46.0612C49.013 46.4739 48.9785 46.921 48.9785 47.5401ZM66.4889 44.9607C66.4889 58.9582 58.9252 72.5775 49.2548 82.4136C48.2532 83.4454 46.5954 84.7179 45.3175 85.4745C44.2123 86.1623 42.8653 86.2655 42.071 85.2337C41.1385 83.9612 41.9674 82.7231 42.9344 81.7945C43.1417 81.5882 43.487 81.4506 43.7288 81.2787C54.2281 72.9214 62.2408 57.1354 62.1372 43.6881C62.0336 41.7278 61.9645 39.7331 61.7227 37.7727C59.8232 21.7804 43.7979 10.3967 28.0143 13.6983C27.738 13.7327 27.4617 13.8702 27.1854 13.9046C25.6657 14.1454 24.3879 13.3888 24.1461 12.1162C23.9734 11.0501 24.7332 9.94954 26.0802 9.64001C27.6344 9.2617 29.2231 8.91779 30.8118 8.81462C51.6033 7.30137 66.9724 23.7752 66.4889 42.3812C66.4889 42.45 66.4889 44.9607 66.4889 44.9607Z" fill="white"/>
</svg>
