<svg width="341" height="228" viewBox="0 0 341 228" fill="none" xmlns="http://www.w3.org/2000/svg">
<path d="M216.993 56.4912H183.764C181.332 56.4912 179.365 58.4853 179.365 60.9036V79.0409V80.3985V91.9385C179.365 92.1506 179.492 92.3203 179.661 92.4052C179.851 92.4688 180.063 92.4264 180.211 92.2991L187.677 84.7896H216.993C219.404 84.7896 221.371 82.8168 221.371 80.3985V60.9036C221.371 58.4853 219.404 56.4912 216.993 56.4912Z" fill="#5E8DB7"/>
<path d="M134.186 192.128H174.902L176.425 228H132.049L134.186 192.128Z" fill="#EFC9CD"/>
<path d="M133.721 199.871L175.727 211.475L174.902 192.128H134.186L133.721 199.871Z" fill="#DCA6AB"/>
<path d="M145.946 117.924C145.607 123.715 140.996 130.376 136.914 132.837L138.775 145.098C138.775 145.098 138.881 145.629 139.304 145.862C139.727 146.095 140.277 145.989 141.039 145.332C141.779 144.653 167.097 119.43 167.097 119.43L193.324 158.251C193.324 158.251 191.823 171.106 190.765 172.739C189.708 174.373 179.936 195.183 174.098 200.783C168.281 206.405 157.092 204.771 151.255 200.083C151.255 200.083 135.518 201.016 129.702 190.728C123.864 180.44 119.909 159.757 119.549 156.363C119.211 152.99 121.008 137.313 120.543 129.719C120.543 129.719 119.782 124.628 124.393 122.124C129.004 119.621 140.933 111.433 140.933 111.433C145.628 108.399 146.136 114.785 145.946 117.924Z" fill="#EFC9CD"/>
<path fill-rule="evenodd" clip-rule="evenodd" d="M139.251 145.027C139.251 145.027 139.251 145.027 139.251 145.027L138.776 145.099C139.251 145.027 139.251 145.027 139.251 145.027L139.251 145.028L139.252 145.035C139.253 145.042 139.255 145.053 139.257 145.067C139.262 145.095 139.269 145.139 139.28 145.195C139.301 145.308 139.335 145.473 139.383 145.678C139.48 146.088 139.637 146.652 139.872 147.268C140.348 148.516 141.122 149.904 142.32 150.702C142.541 150.849 142.601 151.147 142.454 151.368C142.307 151.589 142.009 151.649 141.788 151.502C140.342 150.539 139.477 148.925 138.975 147.611C138.721 146.947 138.553 146.34 138.449 145.9C138.397 145.679 138.36 145.499 138.336 145.373C138.324 145.31 138.316 145.261 138.31 145.226C138.307 145.209 138.305 145.196 138.303 145.186L138.302 145.175L138.301 145.171L138.301 145.17C138.301 145.17 138.301 145.17 138.776 145.099" fill="#DF9FA6"/>
<path fill-rule="evenodd" clip-rule="evenodd" d="M151.171 165.466C151.333 165.256 151.635 165.218 151.845 165.38L151.551 165.76C151.845 165.38 151.845 165.38 151.845 165.38L151.847 165.382L151.853 165.387L151.874 165.403C151.892 165.418 151.919 165.439 151.953 165.466C152.021 165.521 152.12 165.603 152.246 165.71C152.498 165.923 152.857 166.238 153.291 166.649C154.16 167.47 155.333 168.674 156.551 170.211C158.985 173.28 161.624 177.702 162.37 183.068C162.406 183.331 162.223 183.573 161.96 183.61C161.697 183.647 161.455 183.463 161.418 183.2C160.705 178.065 158.172 173.801 155.799 170.808C154.614 169.314 153.475 168.144 152.632 167.348C152.211 166.95 151.865 166.646 151.625 166.443C151.505 166.341 151.412 166.265 151.349 166.214C151.318 166.189 151.294 166.17 151.279 166.157L151.262 166.144L151.258 166.141L151.257 166.141C151.048 165.978 151.009 165.676 151.171 165.466Z" fill="#DCA6AB"/>
<path fill-rule="evenodd" clip-rule="evenodd" d="M157.722 171.833C157.722 171.833 157.722 171.833 157.722 171.833L157.727 171.836L157.744 171.847C157.759 171.857 157.781 171.872 157.811 171.892C157.87 171.932 157.959 171.991 158.074 172.066C158.305 172.217 158.643 172.435 159.071 172.702C159.928 173.236 161.142 173.965 162.573 174.743C165.442 176.304 169.151 178.045 172.576 178.826C172.835 178.885 172.997 179.142 172.938 179.401C172.879 179.66 172.622 179.822 172.363 179.763C168.809 178.952 165.008 177.162 162.114 175.588C160.663 174.799 159.432 174.06 158.563 173.518C158.129 173.247 157.785 173.025 157.549 172.871C157.43 172.793 157.339 172.733 157.278 172.692C157.247 172.671 157.223 172.655 157.207 172.644L157.189 172.632L157.182 172.628C157.182 172.627 157.182 172.627 157.452 172.23L157.182 172.628C156.963 172.478 156.906 172.179 157.055 171.96C157.205 171.74 157.503 171.684 157.722 171.833Z" fill="#DCA6AB"/>
<path d="M181.311 99.0658L190.363 90.1138C197.237 84.0468 204.429 93.8898 196.793 103.266C191.082 110.288 184.547 117.755 184.547 117.755L181.311 99.0658Z" fill="#EFC9CD"/>
<path d="M146.073 69.1553H182.897C185.837 69.1553 188.248 71.5736 188.248 74.5434V162.43C188.248 165.4 185.837 167.818 182.897 167.818H146.073C143.111 167.818 140.7 165.4 140.7 162.43V74.5434C140.7 71.5736 143.111 69.1553 146.073 69.1553Z" fill="white"/>
<path d="M145.184 82.5405H183.764C184.314 82.5405 184.758 82.986 184.758 83.5163V153.456C184.758 153.987 184.314 154.453 183.764 154.453H145.184C144.655 154.453 144.211 153.987 144.211 153.456V83.5163C144.211 82.986 144.655 82.5405 145.184 82.5405Z" fill="#191851"/>
<path d="M164.474 156.914C166.864 156.914 168.789 158.844 168.789 161.242C168.789 163.617 166.864 165.569 164.474 165.569C162.105 165.569 160.181 163.617 160.181 161.242C160.181 158.844 162.105 156.914 164.474 156.914Z" fill="#D4CFE6"/>
<path d="M161.809 78.2131C161.555 78.2131 161.344 77.9798 161.344 77.7252C161.344 77.4494 161.555 77.2373 161.809 77.2373H169.677C169.952 77.2373 170.164 77.4494 170.164 77.7252C170.164 77.9798 169.952 78.2131 169.677 78.2131H161.809ZM159.271 78.2131C159.017 78.2131 158.806 77.9798 158.806 77.7252C158.806 77.4494 159.017 77.2373 159.271 77.2373H159.863C160.117 77.2373 160.35 77.4494 160.35 77.7252C160.35 77.9798 160.117 78.2131 159.863 78.2131H159.271Z" fill="#D4CFE6"/>
<path d="M193.726 145.056C193.726 145.056 197.703 148.217 198.337 150.953C198.972 153.711 198.443 157.339 196.709 163.83C196.709 163.83 195.715 166.863 193.325 168.497C190.934 170.13 182.072 173.694 182.072 173.694C182.072 173.694 179.872 173.864 178.984 172.358C178.117 170.83 177.757 168.794 179.745 166.333C181.734 163.872 187.741 159.205 187.741 159.205L188.248 157.614V154.517L193.726 145.056Z" fill="#EFC9CD"/>
<path d="M190.702 125.773C190.702 125.773 194.847 129.465 195.609 130.568C196.349 131.671 197.111 133.728 197.576 137.632C198.041 141.556 198.041 145.247 194.953 148.387C191.865 151.547 187.846 155.875 185.52 158.102C183.193 160.309 179.449 158.463 178.878 156.448C178.286 154.454 178.582 151.017 180.972 147.92C183.362 144.823 188.248 138.798 188.248 138.798V131.162L190.702 125.773Z" fill="#EFC9CD"/>
<path d="M188.248 114.7C188.248 114.7 193.451 115.4 194.72 115.803C196.011 116.206 196.941 117.161 197.576 118.9C198.21 120.661 199.627 124.458 198.105 127.152C196.582 129.825 190.3 136.21 188.248 136.677C186.218 137.144 182.537 134.98 182.135 130.822C181.734 126.686 184.927 121.701 188.248 119.07V114.7Z" fill="#EFC9CD"/>
<path d="M145.946 117.924C145.671 122.57 142.667 127.767 139.368 130.928V112.494C140.341 111.836 140.933 111.433 140.933 111.433C145.628 108.399 146.136 114.785 145.946 117.924Z" fill="#F0CCDC"/>
<path fill-rule="evenodd" clip-rule="evenodd" d="M128.214 130.722C128.398 130.531 128.702 130.525 128.893 130.709C130.775 132.527 132.733 132.938 134.218 132.906C134.965 132.889 135.596 132.76 136.038 132.636C136.259 132.574 136.431 132.513 136.547 132.469C136.604 132.447 136.648 132.429 136.675 132.417C136.689 132.412 136.699 132.407 136.705 132.405L136.71 132.402" fill="#DF9FA6"/>
<path fill-rule="evenodd" clip-rule="evenodd" d="M137.26 133.079C137.49 133.212 137.568 133.506 137.435 133.735L137.036 133.504C137.435 133.735 137.435 133.736 137.435 133.736L137.435 133.736L137.434 133.738L137.432 133.742L137.425 133.753C137.419 133.763 137.411 133.775 137.401 133.791C137.382 133.822 137.354 133.865 137.317 133.917C137.243 134.023 137.135 134.168 136.989 134.336C136.696 134.672 136.252 135.105 135.637 135.499C134.394 136.294 132.488 136.909 129.81 136.319C129.551 136.262 129.387 136.005 129.444 135.746C129.501 135.487 129.757 135.323 130.016 135.38C132.436 135.914 134.083 135.352 135.119 134.689C135.643 134.354 136.02 133.986 136.264 133.706C136.385 133.565 136.474 133.447 136.53 133.367C136.558 133.327 136.578 133.296 136.59 133.276C136.596 133.267 136.601 133.26 136.603 133.256L136.604 133.253L136.604 133.254C136.604 133.254 136.605 133.253 136.605 133.253C136.738 133.024 137.031 132.946 137.26 133.079Z" fill="#DF9FA6"/>
<path fill-rule="evenodd" clip-rule="evenodd" d="M192.01 116.884C192.081 117.14 191.931 117.405 191.676 117.476C191.152 117.62 190.39 118.087 189.714 118.562C189.386 118.792 189.095 119.013 188.886 119.175C188.782 119.257 188.698 119.324 188.641 119.37C188.612 119.393 188.59 119.411 188.576 119.423L188.559 119.436L188.555 119.439L188.554 119.44C188.554 119.44 188.554 119.44 188.554 119.44M192.01 116.884C191.94 116.629 191.675 116.479 191.42 116.549L192.01 116.884ZM191.42 116.549C190.716 116.744 189.829 117.306 189.162 117.775L191.42 116.549ZM189.162 117.775C188.818 118.017 188.514 118.247 188.296 118.417L189.162 117.775ZM188.296 118.417C188.187 118.502 188.099 118.572 188.038 118.621L188.296 118.417ZM188.038 118.621C188.008 118.646 187.984 118.665 187.968 118.679L188.038 118.621ZM187.968 118.679L187.949 118.694L187.968 118.679ZM187.949 118.694L187.944 118.698L187.949 118.694ZM187.944 118.698L187.942 118.699L187.944 118.698ZM187.942 118.699L187.942 118.7L187.942 118.699ZM187.942 118.7C187.942 118.7 187.942 118.7 188.248 119.07L187.942 118.7Z" fill="#D289AC"/>
<path d="M185.139 128.743C185.139 128.743 185.329 129.295 185.752 129.762C186.154 130.207 188.967 133.007 189.348 134.895C189.348 134.895 189.412 135.277 189.814 134.98C190.215 134.662 194.128 129.974 194.128 129.974C194.128 129.974 194.573 129.231 194.488 128.595C194.403 127.98 193.769 124.246 190.152 124.543C190.152 124.543 189.665 124.586 189.179 124.883C188.714 125.158 185.329 128.319 185.329 128.319C185.329 128.319 185.076 128.531 185.139 128.743Z" fill="#F0DCE4"/>
<path d="M180.697 152.735C180.697 152.735 180.866 153.202 181.205 153.563C181.543 153.945 183.849 156.257 184.166 157.827C184.166 157.827 184.229 158.124 184.568 157.869C184.885 157.614 188.967 153.075 188.967 153.075C188.967 153.075 189.327 152.46 189.263 151.951C189.2 151.441 188.671 148.344 185.71 148.599C185.71 148.599 185.287 148.641 184.906 148.875C184.504 149.108 180.866 152.375 180.866 152.375C180.866 152.375 180.634 152.544 180.697 152.735Z" fill="#F0DCE4"/>
<path d="M184.822 165.633L180.465 168.242C180.465 168.242 180.105 168.433 180.105 169.154C180.126 169.854 180.782 171.488 181.734 171.976C182.685 172.485 183.891 171.7 184.801 171.191C185.71 170.703 186.683 170.151 186.683 170.151C186.683 170.151 187.487 169.579 187.423 168.73C187.339 167.882 185.943 165.124 184.822 165.633Z" fill="#F0DCE4"/>
<path d="M132.451 117.119C136.808 114.255 140.933 111.433 140.933 111.433C142.583 110.373 143.704 110.458 144.465 111.158C144.634 111.582 144.634 112.006 144.423 112.239C144 112.727 134.693 118.179 133.699 118.582C132.726 119.007 132.155 118.731 132.113 118.349C132.049 117.946 132.451 117.119 132.451 117.119Z" fill="#F0DCE4"/>
<path d="M192.647 108.294L189.052 91.4082L188.248 92.1931V113.449C189.538 111.964 191.061 110.182 192.647 108.294Z" fill="#DCA6AB"/>
<path d="M188.248 114.7V119.07C188.248 119.07 188.925 118.519 189.729 117.967L188.735 114.764C188.438 114.721 188.248 114.7 188.248 114.7Z" fill="#DCA6AB"/>
<path d="M195.545 130.483C193.049 133.262 189.644 136.359 188.248 136.677V138.798L196.582 132.71C196.286 131.756 195.947 131.056 195.609 130.568C195.58 130.539 195.559 130.511 195.545 130.483Z" fill="#DCA6AB"/>
<path d="M188.248 155.344V157.635L187.741 159.205L188.248 158.76L191.696 155.832L198.126 150.317C197.703 149.235 196.836 148.111 195.99 147.177C195.694 147.587 195.348 147.99 194.953 148.386C193.452 149.935 191.738 151.738 190.088 153.456C189.454 154.114 188.841 154.75 188.248 155.344Z" fill="#DCA6AB"/>
<path d="M178.794 167.818H146.073C145.988 167.818 145.897 167.811 145.798 167.797L188.989 176.155C189.898 174.352 190.533 173.1 190.765 172.74C191.04 172.294 191.358 171.042 191.675 169.452C188.248 171.212 182.072 173.694 182.072 173.694C182.072 173.694 179.872 173.864 178.984 172.358C178.307 171.149 177.927 169.621 178.794 167.818Z" fill="#DCA6AB"/>
<path d="M133.615 135.871L138.353 142.341L137.02 133.495C137.02 133.495 136.005 135.256 133.615 135.871Z" fill="#DCA6AB"/>
<path fill-rule="evenodd" clip-rule="evenodd" d="M160.583 192.308C160.8 192.461 160.853 192.76 160.7 192.977C158.253 196.465 155.941 198.359 154.218 199.383C153.357 199.895 152.645 200.187 152.141 200.353C151.889 200.436 151.689 200.487 151.548 200.518C151.478 200.533 151.423 200.543 151.383 200.55C151.363 200.553 151.347 200.556 151.335 200.558L151.321 200.56L151.315 200.56L151.314 200.56L151.313 200.561C151.312 200.561 151.312 200.561 151.255 200.084L151.312 200.561C151.049 200.592 150.81 200.404 150.778 200.141C150.746 199.878 150.933 199.639 151.195 199.607C151.196 199.607 151.196 199.607 151.197 199.606C151.197 199.606 151.197 199.606 151.197 199.606C151.197 199.606 151.197 199.606 151.197 199.606L151.197 199.606L151.196 199.607L151.195 199.607L151.199 199.606C151.203 199.606 151.211 199.604 151.224 199.602C151.248 199.598 151.289 199.591 151.343 199.579C151.453 199.555 151.621 199.512 151.841 199.44C152.281 199.295 152.928 199.031 153.727 198.557C155.324 197.608 157.539 195.811 159.914 192.425C160.067 192.208 160.366 192.155 160.583 192.308Z" fill="#DCA6AB"/>
<path d="M146.834 151.717C147.088 151.717 147.3 151.505 147.3 151.229C147.3 150.974 147.088 150.762 146.834 150.762H146.242C145.988 150.762 145.777 150.974 145.777 151.229C145.777 151.505 145.988 151.717 146.242 151.717H146.834Z" fill="#D4CFE6"/>
<path d="M149.753 151.717C150.028 151.717 150.24 151.505 150.24 151.229C150.24 150.974 150.028 150.762 149.753 150.762H149.182C148.907 150.762 148.696 150.974 148.696 151.229C148.696 151.505 148.907 151.717 149.182 151.717H149.753Z" fill="#D4CFE6"/>
<path d="M182.728 151.717C182.982 151.717 183.193 151.505 183.193 151.229C183.193 150.974 182.982 150.762 182.728 150.762H182.136C181.882 150.762 181.649 150.974 181.649 151.229C181.649 151.505 181.882 151.717 182.136 151.717H182.728Z" fill="#D4CFE6"/>
<path d="M182.136 85.2349C181.882 85.2349 181.649 85.0227 181.649 84.7682C181.649 84.4924 181.882 84.2803 182.136 84.2803H182.728C182.982 84.2803 183.193 84.4924 183.193 84.7682C183.193 85.0227 182.982 85.2349 182.728 85.2349H182.136Z" fill="#D4CFE6"/>
<path d="M179.196 85.2349C178.942 85.2349 178.73 85.0227 178.73 84.7682C178.73 84.4924 178.942 84.2803 179.196 84.2803H179.788C180.042 84.2803 180.253 84.4924 180.253 84.7682C180.253 85.0227 180.042 85.2349 179.788 85.2349H179.196Z" fill="#D4CFE6"/>
<path d="M146.242 85.2349C145.988 85.2349 145.777 85.0227 145.777 84.7682C145.777 84.4924 145.988 84.2803 146.242 84.2803H146.834C147.088 84.2803 147.3 84.4924 147.3 84.7682C147.3 85.0227 147.088 85.2349 146.834 85.2349H146.242Z" fill="#D4CFE6"/>
<path d="M148.569 91.896H180.401C181.099 91.896 181.649 92.4475 181.649 93.1476V97.8145C181.649 98.4933 181.099 99.0661 180.401 99.0661H148.569C147.871 99.0661 147.321 98.4933 147.321 97.8145V93.1476C147.321 92.4475 147.871 91.896 148.569 91.896Z" fill="white"/>
<path d="M175.811 91.896H180.422C181.099 91.896 181.649 92.4475 181.649 93.1264V97.8145C181.649 98.4933 181.099 99.0661 180.422 99.0661H175.811C175.113 99.0661 174.563 98.4933 174.563 97.8145V93.1264C174.563 92.4475 175.113 91.896 175.811 91.896Z" fill="#D90452"/>
<path fill-rule="evenodd" clip-rule="evenodd" d="M176.213 93.5717C176.425 93.3808 176.657 93.2111 176.911 93.1263C177.165 92.999 177.44 92.9565 177.736 92.9565C178.011 92.9565 178.286 92.999 178.54 93.1263C178.793 93.2111 179.026 93.3808 179.238 93.5717C179.428 93.7839 179.597 94.0172 179.703 94.2718C179.809 94.5263 179.851 94.8021 179.851 95.0991C179.851 95.3749 179.809 95.6506 179.703 95.9052C179.604 96.1173 179.477 96.3153 179.322 96.4992L179.513 96.6689C179.597 96.6264 179.703 96.6689 179.788 96.7325L180.486 97.4325C180.612 97.5598 180.612 97.7507 180.486 97.8568C180.38 97.9841 180.189 97.9841 180.063 97.8568L179.365 97.1568C179.301 97.0719 179.259 96.9658 179.301 96.881L179.132 96.6901C178.949 96.8456 178.751 96.9658 178.54 97.0507V97.0719C178.286 97.178 178.011 97.2204 177.736 97.2204C177.44 97.2204 177.165 97.178 176.911 97.0507C176.657 96.9658 176.425 96.7961 176.213 96.6052C176.023 96.3931 175.853 96.1597 175.769 95.9052C175.642 95.6506 175.6 95.3749 175.6 95.0991C175.6 94.8021 175.642 94.5263 175.769 94.2718C175.853 94.0172 176.023 93.7839 176.213 93.5717ZM177.736 93.3596C177.503 93.3596 177.271 93.402 177.059 93.4869C176.848 93.5717 176.664 93.699 176.509 93.8687C176.34 94.0384 176.213 94.2223 176.128 94.4203C176.044 94.6324 176.001 94.8657 176.001 95.0991C176.001 95.3254 176.044 95.5446 176.128 95.7567C176.213 95.9688 176.34 96.1527 176.509 96.3082C176.657 96.4779 176.848 96.6052 177.059 96.6901C177.271 96.7749 177.503 96.8386 177.736 96.8386C177.947 96.8386 178.18 96.7749 178.392 96.6901C178.603 96.6052 178.793 96.4779 178.941 96.3082C179.111 96.1597 179.238 95.9688 179.322 95.7567C179.407 95.5446 179.456 95.3254 179.47 95.0991C179.47 94.8657 179.407 94.6324 179.322 94.4203C179.238 94.2081 179.111 94.0243 178.941 93.8687C178.786 93.699 178.603 93.5717 178.392 93.4869C178.18 93.402 177.947 93.3596 177.736 93.3596Z" fill="white"/>
<g style="mix-blend-mode:multiply" opacity="0.3">
<path d="M148.949 104.645H155.062C155.95 104.645 156.691 105.366 156.691 106.278V112.473C156.691 113.364 155.95 114.106 155.062 114.106H148.949C148.061 114.106 147.321 113.364 147.321 112.473V106.278C147.321 105.366 148.061 104.645 148.949 104.645Z" fill="#84ABD3"/>
</g>
<path d="M161.428 104.645H167.541C168.429 104.645 169.17 105.366 169.17 106.278V112.473C169.17 113.364 168.429 114.106 167.541 114.106H161.428C160.54 114.106 159.8 113.364 159.8 112.473V106.278C159.8 105.366 160.54 104.645 161.428 104.645Z" fill="#F0DCE4"/>
<path d="M173.908 104.645H179.999C180.909 104.645 181.628 105.366 181.628 106.278V112.473C181.628 113.364 180.909 114.106 179.999 114.106H173.908C173.02 114.106 172.279 113.364 172.279 112.473V106.278C172.279 105.366 173.02 104.645 173.908 104.645Z" fill="#E5C2D1"/>
<path d="M148.949 117.627H155.062C155.95 117.627 156.691 118.37 156.691 119.261V125.455C156.691 126.367 155.95 127.089 155.062 127.089H148.949C148.061 127.089 147.321 126.367 147.321 125.455V119.261C147.321 118.37 148.061 117.627 148.949 117.627Z" fill="#EDCA32"/>
<g style="mix-blend-mode:multiply" opacity="0.3">
<path d="M161.428 117.627H167.541C168.429 117.627 169.17 118.37 169.17 119.261V125.455C169.17 126.367 168.429 127.089 167.541 127.089H161.428C160.54 127.089 159.8 126.367 159.8 125.455V119.261C159.8 118.37 160.54 117.627 161.428 117.627Z" fill="#84ABD3"/>
</g>
<path d="M173.908 117.627H179.999C180.909 117.627 181.628 118.37 181.628 119.261V125.455C181.628 126.367 180.909 127.089 179.999 127.089H173.908C173.02 127.089 172.279 126.367 172.279 125.455V119.261C172.279 118.37 173.02 117.627 173.908 117.627Z" fill="#D289AC"/>
<path d="M148.949 130.61H155.062C155.95 130.61 156.691 131.352 156.691 132.243V138.459C156.691 139.35 155.95 140.092 155.062 140.092H148.949C148.061 140.092 147.321 139.35 147.321 138.459V132.243C147.321 131.352 148.061 130.61 148.949 130.61Z" fill="white"/>
<path d="M161.428 130.61H167.541C168.429 130.61 169.17 131.352 169.17 132.243V138.459C169.17 139.35 168.429 140.092 167.541 140.092H161.428C160.54 140.092 159.8 139.35 159.8 138.459V132.243C159.8 131.352 160.54 130.61 161.428 130.61Z" fill="#E2AB32"/>
<g style="mix-blend-mode:multiply" opacity="0.3">
<path d="M173.908 130.61H179.999C180.909 130.61 181.628 131.352 181.628 132.243V138.459C181.628 139.35 180.909 140.092 179.999 140.092H173.908C173.02 140.092 172.279 139.35 172.279 138.459V132.243C172.279 131.352 173.02 130.61 173.908 130.61Z" fill="#84ABD3"/>
</g>
<path d="M214.962 54.603H181.733C179.322 54.603 177.334 56.5759 177.334 58.9942V77.1527V78.4891V90.0503C177.334 90.2624 177.461 90.4321 177.651 90.4958C177.842 90.5806 178.032 90.5382 178.18 90.3897L185.646 82.9015H214.962C217.373 82.9015 219.34 80.9074 219.34 78.4891V58.9942C219.34 56.5759 217.373 54.603 214.962 54.603Z" fill="#EDCA32"/>
<path d="M184.314 70.1733H185.816C186.218 70.1733 186.556 70.5128 186.556 70.9158V77.1525C186.556 77.5555 186.218 77.8949 185.816 77.8949H184.314C183.912 77.8949 183.574 77.5555 183.574 77.1525V70.9158C183.574 70.5128 183.912 70.1733 184.314 70.1733Z" fill="white"/>
<path d="M189.856 65.9097H191.336C191.738 65.9097 192.076 66.2491 192.076 66.6521V77.1527C192.076 77.5557 191.738 77.8951 191.336 77.8951H189.856C189.454 77.8951 189.115 77.5557 189.115 77.1527V66.6521C189.115 66.2491 189.454 65.9097 189.856 65.9097Z" fill="#171533"/>
<path d="M195.376 67.9463H196.878C197.28 67.9463 197.618 68.2857 197.618 68.6888V77.1528C197.618 77.5559 197.28 77.8953 196.878 77.8953H195.376C194.974 77.8953 194.636 77.5559 194.636 77.1528V68.6888C194.636 68.2857 194.974 67.9463 195.376 67.9463Z" fill="white"/>
<path d="M200.918 61.7095H202.398C202.8 61.7095 203.138 62.0489 203.138 62.4731V77.1527C203.138 77.5557 202.8 77.8952 202.398 77.8952H200.918C200.516 77.8952 200.177 77.5557 200.177 77.1527V62.4731C200.177 62.0489 200.516 61.7095 200.918 61.7095Z" fill="#171533"/>
<path d="M206.459 65.3794H207.94C208.342 65.3794 208.68 65.6976 208.68 66.1219V77.1527C208.68 77.5558 208.342 77.8952 207.94 77.8952H206.459C206.036 77.8952 205.698 77.5558 205.698 77.1527V66.1219C205.698 65.6976 206.036 65.3794 206.459 65.3794Z" fill="white"/>
<path d="M211.98 58.4639H213.461C213.884 58.4639 214.201 58.8033 214.201 59.2063V77.1527C214.201 77.5558 213.884 77.8952 213.461 77.8952H211.98C211.578 77.8952 211.24 77.5558 211.24 77.1527V59.2063C211.24 58.8033 211.578 58.4639 211.98 58.4639Z" fill="#D90452"/>
<path d="M129.744 45.0996H102.966C101.021 45.0996 99.4131 46.6906 99.4131 48.6422V63.2793V64.3612V73.6738C99.4131 73.8435 99.5188 73.9708 99.6669 74.0344C99.815 74.0981 99.9842 74.0769 100.09 73.9496L106.118 67.9038H129.744C131.69 67.9038 133.297 66.3128 133.297 64.3612V48.6422C133.297 46.6906 131.69 45.0996 129.744 45.0996Z" fill="#5E8DB7"/>
<path d="M92.5181 122.677C92.5181 122.677 103.263 123.419 104.553 123.589C105.843 123.759 106.964 126.347 106.287 128.15C105.611 129.953 103.538 133.623 93.7025 133.347L92.5181 122.677Z" fill="#EFC9CD"/>
<path d="M99.8361 159.333L95.3943 174.331C95.3943 174.331 94.3791 176.261 92.1159 175.582C89.8739 174.904 87.9703 170.831 88.4144 167.012C88.8586 163.173 94.3368 154.369 94.3368 154.369L99.8361 159.333Z" fill="#EFC9CD"/>
<path d="M91.6509 152.566C91.6509 152.566 95.8177 162.897 99.4134 164.7C103.009 166.503 105.59 165.082 105.991 163.682C106.372 162.261 106.034 160.627 105.188 158.315C104.363 156.003 100.534 147.836 100.534 147.836C100.534 147.836 99.7095 146.202 97.9116 145.354C96.1138 144.505 93.3853 143.126 93.3853 143.126L91.6509 152.566Z" fill="#EFC9CD"/>
<path d="M46.7892 83.602C46.7892 83.602 46.2181 82.308 44.7587 82.5413C43.2992 82.7747 40.5919 89.3084 37.3346 97.0936C37.3346 97.0936 36.2136 99.7453 35.706 103.458C35.1983 107.191 31.7718 120.831 31.7718 123.759C31.7718 126.686 31.5392 143.275 31.095 145.629C30.6508 148.005 27.8377 180.249 27.1609 192.892C26.9494 196.881 24.8131 210.839 22 228H63.6255C63.5409 213.321 63.4986 202.693 63.6044 202.014C63.9217 199.766 70.2247 192.893 72.4667 175.286C72.4667 175.286 77.2046 167.734 77.4161 164.573C77.6488 161.433 46.7892 136.614 46.7892 136.614L44.9279 122.91L46.7892 104.37V83.602Z" fill="#EFC9CD"/>
<path fill-rule="evenodd" clip-rule="evenodd" d="M47.0286 137.03L47.0266 137.032L47.0128 137.04C46.9998 137.048 46.9793 137.06 46.9521 137.077C46.8977 137.112 46.8166 137.165 46.715 137.237C46.5115 137.38 46.2268 137.597 45.9095 137.887C45.2726 138.467 44.5169 139.328 44.0125 140.458C43.9044 140.701 43.6205 140.81 43.3783 140.701C43.1362 140.593 43.0275 140.309 43.1356 140.067C43.7099 138.779 44.5617 137.815 45.2627 137.176C45.6142 136.856 45.931 136.614 46.1618 136.451C46.2773 136.37 46.3715 136.308 46.4382 136.265C46.4715 136.244 46.498 136.228 46.5168 136.217C46.5262 136.211 46.5337 136.207 46.5392 136.203L46.5459 136.199L46.5481 136.198L46.5492 136.197C46.5494 136.197 46.5495 136.197 46.7771 136.593L46.5492 136.197C46.7791 136.065 47.0729 136.144 47.2052 136.374C47.3374 136.604 47.2585 136.897 47.0292 137.03C47.029 137.03 47.0287 137.03 47.0286 137.03Z" fill="#DCA6AB"/>
<path d="M52.1615 69.1558H88.9857C91.9257 69.1558 94.3369 71.5741 94.3369 74.5439V162.43C94.3369 165.4 91.9257 167.818 88.9857 167.818H52.1615C49.2003 167.818 46.7891 165.4 46.7891 162.43V74.5439C46.7891 71.5741 49.2003 69.1558 52.1615 69.1558Z" fill="#191851"/>
<path d="M51.2729 82.541H89.8527C90.4026 82.541 90.8468 82.9865 90.8468 83.5168V153.457C90.8468 153.987 90.4026 154.454 89.8527 154.454H51.2729C50.7441 154.454 50.2788 153.987 50.2788 153.457V83.5168C50.2788 82.9865 50.7441 82.541 51.2729 82.541Z" fill="white"/>
<path d="M70.5629 156.915C72.953 156.915 74.8777 158.845 74.8777 161.242C74.8777 163.618 72.953 165.57 70.5629 165.57C68.194 165.57 66.248 163.618 66.248 161.242C66.248 158.845 68.194 156.915 70.5629 156.915Z" fill="#D4CFE6"/>
<path d="M67.898 78.2136C67.6442 78.2136 67.4327 77.9803 67.4327 77.7257C67.4327 77.4499 67.6442 77.2378 67.898 77.2378H75.7662C76.0412 77.2378 76.2527 77.4499 76.2527 77.7257C76.2527 77.9803 76.0412 78.2136 75.7662 78.2136H67.898ZM65.3599 78.2136C65.106 78.2136 64.8945 77.9803 64.8945 77.7257C64.8945 77.4499 65.106 77.2378 65.3599 77.2378H65.9521C66.2059 77.2378 66.4174 77.4499 66.4174 77.7257C66.4174 77.9803 66.2059 78.2136 65.9521 78.2136H65.3599Z" fill="#D4CFE6"/>
<path d="M36.8057 166.546L53.5574 147.729C53.5574 147.729 56.709 144.272 60.1989 146.754C63.6677 149.236 67.771 153.415 67.771 153.415C67.771 153.415 70.986 154.878 72.0013 155.387C73.0165 155.897 75.597 157.254 76.3796 159.503C77.1622 161.751 76.5488 163.851 75.5758 164.382C75.5758 164.382 74.4125 167.267 69.8016 167.543C65.1906 167.818 60.2412 166.418 60.2412 166.418C60.2412 166.418 59.5221 166.885 58.7395 166.8C58.7395 166.8 54.8688 173.737 54.2554 174.819C54.2554 174.819 54.7631 179.316 50.8289 180.334C46.8948 181.352 25.7648 178.637 36.8057 166.546Z" fill="#EFC9CD"/>
<path fill-rule="evenodd" clip-rule="evenodd" d="M42.4221 122.543C42.4605 122.281 42.7043 122.099 42.9667 122.137L44.9972 122.434C45.2596 122.473 45.4412 122.717 45.4029 122.979C45.3645 123.242 45.1207 123.424 44.8583 123.385L42.8278 123.088C42.5654 123.05 42.3838 122.806 42.4221 122.543Z" fill="#DCA6AB"/>
<path fill-rule="evenodd" clip-rule="evenodd" d="M43.7931 103.418C43.8734 103.165 44.1433 103.025 44.3961 103.106L46.9342 103.912C47.187 103.992 47.3269 104.262 47.2467 104.515C47.1664 104.768 46.8965 104.908 46.6437 104.828L44.1056 104.022C43.8528 103.941 43.7129 103.671 43.7931 103.418Z" fill="#D289AC"/>
<path fill-rule="evenodd" clip-rule="evenodd" d="M56.1435 170.568C56.3705 170.431 56.6657 170.503 56.8029 170.731C58.6484 173.787 63.0482 182.359 63.0482 194.102C63.0482 194.367 62.8332 194.582 62.568 194.582C62.3028 194.582 62.0878 194.367 62.0878 194.102C62.0878 182.595 57.7734 174.196 55.9809 171.228C55.8437 171.001 55.9165 170.705 56.1435 170.568Z" fill="#DCA6AB"/>
<path fill-rule="evenodd" clip-rule="evenodd" d="M63.5305 198.543C63.7957 198.537 64.0152 198.747 64.0208 199.013L64.0843 202.004C64.0899 202.269 63.8795 202.489 63.6144 202.495C63.3492 202.5 63.1297 202.29 63.1241 202.024L63.0607 199.033C63.055 198.768 63.2654 198.548 63.5305 198.543Z" fill="#DCA6AB"/>
<path fill-rule="evenodd" clip-rule="evenodd" d="M60.2929 201.044C60.5472 201.12 60.6923 201.387 60.617 201.642L60.1566 201.505L59.6962 201.369C59.7715 201.114 60.0387 200.969 60.2929 201.044ZM60.1566 201.505C59.6962 201.369 59.6962 201.369 59.6962 201.369L59.6678 201.464C59.6492 201.527 59.6217 201.619 59.5863 201.738C59.5156 201.975 59.4135 202.317 59.2877 202.734C59.0361 203.57 58.6902 204.709 58.3126 205.926C57.5543 208.37 56.6779 211.094 56.18 212.311C56.0795 212.557 56.197 212.838 56.4424 212.938C56.6879 213.039 56.9683 212.921 57.0688 212.676C57.5861 211.411 58.4758 208.641 59.2298 206.211C59.6084 204.991 59.9551 203.849 60.2072 203.012C60.3333 202.593 60.4357 202.251 60.5066 202.013C60.5421 201.894 60.5697 201.801 60.5884 201.738L60.617 201.642C60.6171 201.641 60.617 201.642 60.1566 201.505Z" fill="#DCA6AB"/>
<path fill-rule="evenodd" clip-rule="evenodd" d="M56.9265 160.555C57.1535 160.418 57.4487 160.491 57.5857 160.718C58.4212 162.104 58.8268 163.626 59.0254 164.789C59.1251 165.372 59.1737 165.872 59.1974 166.226C59.2093 166.404 59.2149 166.546 59.2176 166.644C59.2189 166.694 59.2195 166.732 59.2198 166.759C59.2199 166.772 59.22 166.783 59.22 166.79L59.22 166.799L59.22 166.802L59.22 166.803C59.22 166.803 59.22 166.803 58.7398 166.8L59.22 166.803C59.2182 167.068 59.0018 167.282 58.7366 167.281C58.4715 167.279 58.258 167.063 58.2596 166.797C58.2596 166.797 58.2596 166.797 58.2596 166.797C58.2596 166.797 58.2596 166.797 58.2596 166.797L58.2596 166.791C58.2596 166.787 58.2596 166.779 58.2595 166.768C58.2593 166.747 58.2588 166.714 58.2576 166.67C58.2552 166.583 58.2501 166.454 58.2392 166.291C58.2173 165.963 58.172 165.497 58.0787 164.951C57.8914 163.854 57.5143 162.46 56.7635 161.215C56.6264 160.988 56.6994 160.692 56.9265 160.555Z" fill="#DCA6AB"/>
<path fill-rule="evenodd" clip-rule="evenodd" d="M60.728 161.483C60.9932 161.483 61.2081 161.698 61.2081 161.963C61.2081 162.488 61.0815 163.635 60.9613 164.615C60.9002 165.113 60.8392 165.581 60.7934 165.923C60.7706 166.094 60.7515 166.235 60.7381 166.332L60.7226 166.445L60.7171 166.485C60.7171 166.485 60.717 166.485 60.2415 166.418L59.7659 166.352L59.7713 166.313L59.7866 166.202C59.7999 166.105 59.8188 165.966 59.8415 165.796C59.887 165.455 59.9476 164.992 60.0081 164.498C60.1311 163.495 60.2478 162.415 60.2478 161.963C60.2478 161.698 60.4627 161.483 60.728 161.483ZM60.1749 166.894C59.9123 166.857 59.7292 166.614 59.7659 166.352L60.2415 166.418L60.7171 166.485C60.6803 166.747 60.4376 166.931 60.1749 166.894Z" fill="#DCA6AB"/>
<path d="M40.9517 88.6297C41.9035 88.5872 42.8553 87.866 43.384 86.8902C43.8705 85.9568 44.6954 84.0476 45.33 82.5203C45.1607 82.5061 44.9704 82.5132 44.7589 82.5415C43.8917 82.6687 42.5592 85.0658 40.9517 88.6297Z" fill="#F0DCE4"/>
<path d="M106.139 162.664C106.203 161.476 105.843 160.097 105.188 158.315C104.913 157.53 104.278 156.066 103.559 154.454C103.559 154.454 103.157 154.603 103.199 155.133C103.263 155.663 105.145 161.985 105.145 162.197C105.145 162.43 106.097 162.261 106.139 162.664Z" fill="#F0DCE4"/>
<path d="M97.2557 167.988L95.3944 174.331C95.204 173.122 93.4485 172.634 93.2793 172.443C93.1101 172.252 92.9409 171.934 93.6177 170.279C94.2945 168.604 95.2252 165.697 96.3251 166.079C97.4038 166.44 97.2769 167.967 97.2557 167.988Z" fill="#F0DCE4"/>
<path d="M67.7921 153.415C67.771 153.415 70.986 154.878 72.0012 155.387C73.0165 155.896 75.5969 157.254 76.3795 159.503C77.1621 161.751 76.5487 163.851 75.5758 164.382C74.4125 163.682 71.5994 161.03 70.986 158.421C70.3726 155.833 67.771 153.415 67.771 153.415H67.7921Z" fill="#F0DCE4"/>
<path fill-rule="evenodd" clip-rule="evenodd" d="M47.341 154.689C47.5392 154.865 47.557 155.169 47.3807 155.367L37.1647 166.865C36.9885 167.063 36.685 167.081 36.4868 166.905C36.2886 166.728 36.2708 166.425 36.447 166.226L46.6631 154.729C46.8393 154.53 47.1428 154.512 47.341 154.689ZM59.9817 166.014C60.204 165.871 60.5003 165.935 60.6443 166.157C60.7886 166.379 60.7252 166.677 60.5027 166.821L60.2414 166.418C60.5027 166.821 60.5025 166.822 60.5024 166.822L60.5022 166.822L60.5016 166.822L60.5003 166.823L60.4968 166.825L60.4867 166.832C60.4786 166.837 60.4677 166.843 60.4542 166.851C60.4271 166.867 60.3894 166.889 60.3424 166.914C60.2488 166.964 60.1161 167.028 59.9553 167.09C59.7112 167.183 59.3829 167.277 59.0173 167.289L58.9927 167.334C58.8862 167.526 58.7333 167.801 58.5479 168.134C58.177 168.802 57.6759 169.703 57.155 170.638C56.1858 172.377 55.1431 174.242 54.7461 174.931C54.7472 174.949 54.7483 174.969 54.7493 174.99C54.7561 175.126 54.7608 175.319 54.7534 175.553C54.7386 176.018 54.6755 176.654 54.4786 177.329C54.0817 178.691 53.1272 180.236 50.9493 180.799C50.6926 180.866 50.4306 180.711 50.3642 180.454C50.2978 180.197 50.4521 179.935 50.7089 179.869C52.4651 179.414 53.2239 178.202 53.5567 177.06C53.7247 176.484 53.7805 175.932 53.7935 175.522C53.8 175.318 53.7958 175.151 53.7901 175.038C53.7873 174.981 53.7842 174.937 53.7818 174.909C53.7806 174.895 53.7797 174.885 53.7791 174.879L53.7785 174.873L53.7784 174.872L53.7784 174.872C53.7784 174.872 53.7785 174.873 54.2556 174.819M58.7397 166.8L58.3199 166.567C58.4136 166.398 58.5994 166.301 58.7914 166.322C59.0784 166.353 59.373 166.284 59.6127 166.192C59.7295 166.147 59.8255 166.101 59.8912 166.066C59.9238 166.048 59.9484 166.034 59.9638 166.025C59.9694 166.022 59.9738 166.019 59.9768 166.017C59.9779 166.016 59.9788 166.016 59.9795 166.015L59.9801 166.015C59.9802 166.015 59.9803 166.015 59.9804 166.015C59.9804 166.015 59.9805 166.015 59.9806 166.015C59.9807 166.015 59.9808 166.015 59.9809 166.015C59.9811 166.014 59.9813 166.014 59.9815 166.014C59.9815 166.014 59.9816 166.014 59.9817 166.014" fill="#DCA6AB"/>
<path d="M57.7456 168.582L72.4668 175.285C72.4668 175.285 75.0261 171.234 76.4644 167.818H58.1686C58.0417 168.045 57.9007 168.299 57.7456 168.582Z" fill="#DCA6AB"/>
<path d="M52.8594 179.231L58.0414 174.076C57.428 172.761 56.8358 171.722 56.3916 171C55.461 172.676 54.5303 174.331 54.2554 174.819C54.2554 174.819 54.5726 177.534 52.8594 179.231Z" fill="#DCA6AB"/>
<path d="M97.9538 133.177L95.5425 122.889C95.1054 122.86 94.7035 122.832 94.3369 122.804V133.347C95.6906 133.368 96.8962 133.304 97.9538 133.177Z" fill="#DCA6AB"/>
<path d="M94.3369 160.776L97.6577 166.694L98.4402 164.021C97.002 162.791 95.5425 160.479 94.3369 158.251V160.776Z" fill="#DCA6AB"/>
<path d="M94.4638 154.475L96.5155 144.675C95.7329 144.293 94.9291 143.911 94.3369 143.614V154.369V155.027L94.4638 154.475Z" fill="#DCA6AB"/>
<path d="M127.735 43.1904H100.936C98.9902 43.1904 97.4038 44.8026 97.4038 46.7543V61.3914V62.4732V71.7858C97.4038 71.9343 97.4884 72.0828 97.6365 72.1465C97.7845 72.2101 97.9537 72.1677 98.0595 72.0616L104.109 66.0158H127.735C129.681 66.0158 131.267 64.4249 131.267 62.4732V46.7543C131.267 44.8026 129.681 43.1904 127.735 43.1904Z" fill="#D90452"/>
<path d="M68.0249 113.576V104.773C68.0249 104.369 68.3845 104.051 68.8498 104.051C69.0825 104.051 69.294 104.136 69.442 104.263L74.4972 108.655C74.8356 108.952 74.8356 109.397 74.4972 109.673L69.442 114.085C69.1248 114.361 68.596 114.361 68.2576 114.085C68.1095 113.937 68.0249 113.767 68.0249 113.576Z" fill="#5E90CC"/>
<path fill-rule="evenodd" clip-rule="evenodd" d="M62.5891 100.907C61.8557 100.907 61.2537 101.509 61.2537 102.248V116.1C61.2537 116.823 61.8605 117.441 62.5891 117.441H78.5582C79.2607 117.441 79.8724 116.828 79.8724 116.1V102.248C79.8724 101.504 79.2655 100.907 78.5582 100.907H62.5891ZM59.7788 102.248C59.7788 100.696 61.0381 99.4312 62.5891 99.4312H78.5582C80.0929 99.4312 81.3473 100.701 81.3473 102.248V116.1C81.3473 117.621 80.0977 118.917 78.5582 118.917H62.5891C61.0333 118.917 59.7788 117.626 59.7788 116.1V102.248Z" fill="#171533"/>
<path d="M87.4629 91.0264H75.5125C74.6453 91.0264 73.9473 91.7476 73.9473 92.6174V99.1298V99.6177V103.776C73.9473 103.839 73.9896 103.903 74.053 103.924C74.1165 103.966 74.2011 103.945 74.2434 103.903L76.9296 101.209H87.4629C88.3301 101.209 89.0492 100.487 89.0492 99.6177V92.6174C89.0492 91.7476 88.3301 91.0264 87.4629 91.0264Z" fill="#D90452"/>
<path d="M76.5911 95.6509H82.6192C82.8942 95.6509 83.1057 95.8842 83.1057 96.16C83.1057 96.4358 82.8942 96.6479 82.6192 96.6479H76.5911C76.3162 96.6479 76.0835 96.4358 76.0835 96.16C76.0835 95.8842 76.3162 95.6509 76.5911 95.6509Z" fill="white"/>
<path d="M84.8401 95.6509H86.4053C86.6803 95.6509 86.8918 95.8842 86.8918 96.16C86.8918 96.4358 86.6803 96.6479 86.4053 96.6479H84.8401C84.5652 96.6479 84.3325 96.4358 84.3325 96.16C84.3325 95.8842 84.5652 95.6509 84.8401 95.6509Z" fill="white"/>
<path d="M80.3773 97.9844H86.4053C86.6803 97.9844 86.8918 98.2177 86.8918 98.4935C86.8918 98.7693 86.6803 98.9814 86.4053 98.9814H80.3773C80.1023 98.9814 79.8696 98.7693 79.8696 98.4935C79.8696 98.2177 80.1023 97.9844 80.3773 97.9844Z" fill="white"/>
<path d="M76.5911 93.3174H82.6192C82.8942 93.3174 83.1057 93.5507 83.1057 93.8265C83.1057 94.1023 82.8942 94.3356 82.6192 94.3356H76.5911C76.3162 94.3356 76.0835 94.1023 76.0835 93.8265C76.0835 93.5507 76.3162 93.3174 76.5911 93.3174Z" fill="white"/>
<path d="M53.4519 127.365H64.1756C65.0428 127.365 65.7619 126.643 65.7619 125.774V119.24V118.773V114.616C65.7619 114.531 65.7196 114.467 65.6561 114.446C65.5927 114.425 65.5081 114.446 65.4658 114.488L62.7796 117.182H53.4519C52.5847 117.182 51.8867 117.904 51.8867 118.773V125.774C51.8867 126.643 52.5847 127.365 53.4519 127.365Z" fill="#E2AB32"/>
<path d="M63.7315 122.719H57.7034C57.4285 122.719 57.1958 122.507 57.1958 122.231C57.1958 121.956 57.4285 121.722 57.7034 121.722H63.7315C64.0065 121.722 64.218 121.956 64.218 122.231C64.218 122.507 64.0065 122.719 63.7315 122.719Z" fill="white"/>
<path d="M55.4825 122.719H53.9173C53.6423 122.719 53.4097 122.507 53.4097 122.231C53.4097 121.956 53.6423 121.722 53.9173 121.722H55.4825C55.7575 121.722 55.969 121.956 55.969 122.231C55.969 122.507 55.7575 122.719 55.4825 122.719Z" fill="white"/>
<path d="M59.9454 120.407H53.9173C53.6423 120.407 53.4097 120.174 53.4097 119.898C53.4097 119.622 53.6423 119.389 53.9173 119.389H59.9454C60.2203 119.389 60.4319 119.622 60.4319 119.898C60.4319 120.174 60.2203 120.407 59.9454 120.407Z" fill="white"/>
<path d="M63.7315 125.053H57.7034C57.4285 125.053 57.1958 124.841 57.1958 124.565C57.1958 124.289 57.4285 124.056 57.7034 124.056H63.7315C64.0065 124.056 64.218 124.289 64.218 124.565C64.218 124.841 64.0065 125.053 63.7315 125.053Z" fill="white"/>
<path d="M71.3461 95.6509H65.318C65.0431 95.6509 64.8315 95.8842 64.8315 96.16C64.8315 96.4358 65.0431 96.6479 65.318 96.6479H71.3461C71.6211 96.6479 71.8537 96.4358 71.8537 96.16C71.8537 95.8842 71.6211 95.6509 71.3461 95.6509Z" fill="#171533"/>
<path d="M63.0971 95.6509H61.553C61.2781 95.6509 61.0454 95.8842 61.0454 96.16C61.0454 96.4358 61.2781 96.6479 61.553 96.6479H63.0971C63.372 96.6479 63.6047 96.4358 63.6047 96.16C63.6047 95.8842 63.372 95.6509 63.0971 95.6509Z" fill="#171533"/>
<path d="M71.3461 93.3174H65.318C65.0431 93.3174 64.8315 93.5507 64.8315 93.8265C64.8315 94.1023 65.0431 94.3356 65.318 94.3356H71.3461C71.6211 94.3356 71.8537 94.1023 71.8537 93.8265C71.8537 93.5507 71.6211 93.3174 71.3461 93.3174Z" fill="#171533"/>
<path d="M68.3636 122.189H74.3917C74.6666 122.189 74.8993 121.955 74.8993 121.68C74.8993 121.404 74.6666 121.17 74.3917 121.17H68.3636C68.0886 121.17 67.856 121.404 67.856 121.68C67.856 121.955 68.0886 122.189 68.3636 122.189Z" fill="#171533"/>
<path d="M76.6125 122.189H78.1776C78.4526 122.189 78.6641 121.955 78.6641 121.68C78.6641 121.404 78.4526 121.17 78.1776 121.17H76.6125C76.3375 121.17 76.126 121.404 76.126 121.68C76.126 121.955 76.3375 122.189 76.6125 122.189Z" fill="#171533"/>
<path d="M68.3636 124.522H74.3917C74.6666 124.522 74.8993 124.289 74.8993 124.013C74.8993 123.737 74.6666 123.504 74.3917 123.504H68.3636C68.0886 123.504 67.856 123.737 67.856 124.013C67.856 124.289 68.0886 124.522 68.3636 124.522Z" fill="#171533"/>
<path d="M88.1186 85.2349C87.8648 85.2349 87.6533 85.0227 87.6533 84.7682C87.6533 84.4924 87.8648 84.2803 88.1186 84.2803H88.7109C88.9647 84.2803 89.1762 84.4924 89.1762 84.7682C89.1762 85.0227 88.9647 85.2349 88.7109 85.2349H88.1186Z" fill="#D4CFE6"/>
<path d="M85.1999 85.2349C84.9249 85.2349 84.7134 85.0227 84.7134 84.7682C84.7134 84.4924 84.9249 84.2803 85.1999 84.2803H85.7709C86.0459 84.2803 86.2574 84.4924 86.2574 84.7682C86.2574 85.0227 86.0459 85.2349 85.7709 85.2349H85.1999Z" fill="#D4CFE6"/>
<path d="M52.2251 85.2349C51.9713 85.2349 51.7598 85.0227 51.7598 84.7682C51.7598 84.4924 51.9713 84.2803 52.2251 84.2803H52.8173C53.0711 84.2803 53.3038 84.4924 53.3038 84.7682C53.3038 85.0227 53.0711 85.2349 52.8173 85.2349H52.2251Z" fill="#D4CFE6"/>
<path d="M88.1186 151.717C87.8648 151.717 87.6533 151.505 87.6533 151.229C87.6533 150.975 87.8648 150.763 88.1186 150.763H88.7109C88.9647 150.763 89.1762 150.975 89.1762 151.229C89.1762 151.505 88.9647 151.717 88.7109 151.717H88.1186Z" fill="#D4CFE6"/>
<path d="M85.1999 151.717C84.9249 151.717 84.7134 151.505 84.7134 151.229C84.7134 150.975 84.9249 150.763 85.1999 150.763H85.7709C86.0459 150.763 86.2574 150.975 86.2574 151.229C86.2574 151.505 86.0459 151.717 85.7709 151.717H85.1999Z" fill="#D4CFE6"/>
<path d="M53.7268 132.01H87.3995C87.7168 132.01 87.9706 132.265 87.9706 132.583C87.9706 132.901 87.7168 133.156 87.3995 133.156H53.7268C53.4096 133.156 53.1558 132.901 53.1558 132.583C53.1558 132.265 53.4096 132.01 53.7268 132.01Z" fill="#D4CFE6"/>
<path d="M53.7268 135.744H87.3995C87.7168 135.744 87.9706 135.998 87.9706 136.316C87.9706 136.635 87.7168 136.889 87.3995 136.889H53.7268C53.4096 136.889 53.1558 136.635 53.1558 136.316C53.1558 135.998 53.4096 135.744 53.7268 135.744Z" fill="#D4CFE6"/>
<path d="M56.3284 139.456H84.7979C85.1152 139.456 85.3901 139.711 85.3901 140.029C85.3901 140.347 85.1152 140.602 84.7979 140.602H56.3284C56.0111 140.602 55.7573 140.347 55.7573 140.029C55.7573 139.711 56.0111 139.456 56.3284 139.456Z" fill="#D4CFE6"/>
<path d="M63.7311 144.611H77.416C77.8601 144.611 78.2197 144.971 78.2197 145.417V147.899C78.2197 148.366 77.8601 148.726 77.416 148.726H63.7311C63.287 148.726 62.9062 148.366 62.9062 147.899V145.417C62.9062 144.971 63.287 144.611 63.7311 144.611Z" fill="#D90452"/>
<path fill-rule="evenodd" clip-rule="evenodd" d="M105.085 54.3702C105.085 49.276 109.242 45.1045 114.325 45.1045C119.431 45.1045 123.565 49.2772 123.565 54.3702C123.565 59.4632 119.431 63.6359 114.325 63.6359C109.242 63.6359 105.085 59.4644 105.085 54.3702ZM114.325 46.5805C110.06 46.5805 106.56 50.0882 106.56 54.3702C106.56 58.6522 110.06 62.1599 114.325 62.1599C118.611 62.1599 122.091 58.6534 122.091 54.3702C122.091 50.087 118.611 46.5805 114.325 46.5805Z" fill="white"/>
<path fill-rule="evenodd" clip-rule="evenodd" d="M109.665 47.9364C110.792 46.26 112.427 45.1045 114.325 45.1045C116.233 45.1045 117.868 46.259 118.993 47.9371C120.121 49.62 120.794 51.8993 120.794 54.3702C120.794 56.8411 120.121 59.1204 118.993 60.8033C117.868 62.4814 116.233 63.6359 114.325 63.6359C112.427 63.6359 110.792 62.4804 109.665 60.804C108.534 59.1217 107.855 56.8424 107.855 54.3702C107.855 51.898 108.534 49.6187 109.665 47.9364ZM110.889 48.7602C109.942 50.1698 109.33 52.1542 109.33 54.3702C109.33 56.5862 109.942 58.5706 110.889 59.9802C111.84 61.3956 113.071 62.1599 114.325 62.1599C115.59 62.1599 116.82 61.3947 117.768 59.9809C118.713 58.572 119.319 56.5874 119.319 54.3702C119.319 52.153 118.713 50.1685 117.768 48.7595C116.82 47.3457 115.59 46.5805 114.325 46.5805C113.071 46.5805 111.84 47.3448 110.889 48.7602Z" fill="white"/>
<path fill-rule="evenodd" clip-rule="evenodd" d="M105.085 54.3703C105.085 53.9627 105.415 53.6323 105.822 53.6323H122.828C123.235 53.6323 123.565 53.9627 123.565 54.3703C123.565 54.7779 123.235 55.1083 122.828 55.1083H105.822C105.415 55.1083 105.085 54.7779 105.085 54.3703Z" fill="white"/>
<path fill-rule="evenodd" clip-rule="evenodd" d="M112.844 46.1349C113.131 45.6591 113.609 45.1045 114.325 45.1045C115.04 45.1045 115.52 45.6574 115.808 46.1328C116.124 46.6538 116.383 47.3585 116.591 48.1636C117.01 49.785 117.262 51.9817 117.262 54.3702C117.262 56.7587 117.01 58.9554 116.591 60.5768C116.383 61.3819 116.124 62.0866 115.808 62.6076C115.52 63.083 115.04 63.6359 114.325 63.6359C113.609 63.6359 113.131 63.0813 112.844 62.6055C112.531 62.0842 112.274 61.3793 112.069 60.5745C111.656 58.9536 111.409 56.7575 111.409 54.3702C111.409 51.9829 111.656 49.7868 112.069 48.1659C112.274 47.3611 112.531 46.6562 112.844 46.1349ZM113.498 48.5307C113.124 50.0016 112.884 52.0694 112.884 54.3702C112.884 56.671 113.124 58.7388 113.498 60.2097C113.687 60.9508 113.9 61.4988 114.108 61.8439C114.207 62.0087 114.281 62.0907 114.326 62.1304C114.371 62.0907 114.446 62.0083 114.547 61.8418C114.757 61.4964 114.972 60.9482 115.163 60.2074C115.543 58.737 115.787 56.6698 115.787 54.3702C115.787 52.0706 115.543 50.0034 115.163 48.533C114.972 47.7922 114.757 47.244 114.547 46.8986C114.446 46.7321 114.371 46.6497 114.326 46.61C114.281 46.6497 114.207 46.7317 114.108 46.8965C113.9 47.2416 113.687 47.7896 113.498 48.5307Z" fill="white"/>
<path d="M295.972 41.6206H274.101C272.515 41.6206 271.204 42.9146 271.204 44.5056V56.4486V57.3396V64.9339C271.204 65.0824 271.288 65.1885 271.415 65.2309C271.542 65.2946 271.669 65.2521 271.754 65.1673L276.682 60.2246H295.972C297.558 60.2246 298.848 58.9306 298.848 57.3396V44.5056C298.848 42.9146 297.558 41.6206 295.972 41.6206Z" fill="#5E8DB7"/>
<path d="M306.378 162.303H265.662L262.87 228H310.587L306.378 162.303Z" fill="#EFC9CD"/>
<path d="M283.598 65.125C283.598 65.125 275.497 67.1403 275.497 77.7469C275.497 88.3535 276.618 90.6021 277.972 95.0145C279.325 99.4056 279.664 100.975 279.664 100.975C279.664 100.975 279.262 112.431 279.093 113.725C278.923 115.019 273.932 120.492 269.215 135.383C264.477 150.254 273.022 170.788 286.749 176.431C300.455 182.052 307.203 171.234 306.314 159.969C305.405 148.684 301.365 117.904 301.365 117.904C301.365 117.904 300.688 113.831 298.319 108.421C295.971 103.012 292.82 88.799 292.037 86.1049C291.255 83.3896 288.272 76.856 287.363 72.0618C286.474 67.2676 285.84 64.722 283.598 65.125Z" fill="#EFC9CD"/>
<path d="M249.185 155.451C249.185 155.451 256.398 179.019 271.457 182.858C286.517 186.677 293.264 174.055 293.264 174.055C293.264 174.055 270.675 151.272 249.185 155.451Z" fill="#EFC9CD"/>
<path fill-rule="evenodd" clip-rule="evenodd" d="M274.173 165.297C274.394 165.15 274.692 165.21 274.839 165.431C278.015 170.209 282.156 174.016 286.932 175.986C291.147 177.715 294.637 177.839 297.408 176.914C300.178 175.988 302.29 173.994 303.713 171.365C303.84 171.132 304.131 171.045 304.364 171.172C304.597 171.298 304.684 171.59 304.558 171.823C303.041 174.625 300.753 176.809 297.712 177.825C294.672 178.841 290.939 178.668 286.567 176.875L286.566 176.875C281.571 174.815 277.293 170.858 274.039 165.963C273.893 165.742 273.952 165.444 274.173 165.297Z" fill="#DCA6AB"/>
<path d="M270.146 69.1558H233.3C230.36 69.1558 227.949 71.5741 227.949 74.5439V162.43C227.949 165.4 230.36 167.818 233.3 167.818H270.146C273.086 167.818 275.497 165.4 275.497 162.43V74.5439C275.497 71.5741 273.086 69.1558 270.146 69.1558Z" fill="#191851"/>
<path d="M271.013 82.541H232.433C231.883 82.541 231.439 82.9865 231.439 83.5168V153.457C231.439 153.987 231.883 154.454 232.433 154.454H271.013C271.563 154.454 272.007 153.987 272.007 153.457V83.5168C272.007 82.9865 271.563 82.541 271.013 82.541Z" fill="white"/>
<path d="M251.723 156.915C249.333 156.915 247.408 158.845 247.408 161.242C247.408 163.618 249.333 165.57 251.723 165.57C254.113 165.57 256.038 163.618 256.038 161.242C256.038 158.845 254.113 156.915 251.723 156.915Z" fill="#281E59"/>
<path d="M254.388 78.2136C254.663 78.2136 254.875 77.9803 254.875 77.7257C254.875 77.4499 254.663 77.2378 254.388 77.2378H246.52C246.266 77.2378 246.055 77.4499 246.055 77.7257C246.055 77.9803 246.266 78.2136 246.52 78.2136H254.388ZM256.926 78.2136C257.201 78.2136 257.413 77.9803 257.413 77.7257C257.413 77.4499 257.201 77.2378 256.926 77.2378H256.334C256.08 77.2378 255.869 77.4499 255.869 77.7257C255.869 77.9803 256.08 78.2136 256.334 78.2136H256.926Z" fill="#12131F"/>
<path d="M283.598 65.125C283.598 65.125 283.09 65.2523 282.329 65.5917C282.329 65.6129 281.969 65.9311 282.054 66.7372C282.139 67.5646 284.106 74.8831 284.846 76.0711C285.565 77.259 288.442 77.5772 288.695 76.8984C288.124 75.2225 287.638 73.5679 287.363 72.0618C286.474 67.2676 285.84 64.722 283.598 65.125Z" fill="#F0DCE4"/>
<path d="M227.949 141.684C227.949 141.684 222.429 143.784 221.308 145.014C220.187 146.266 219.743 149.257 220.356 151.569C220.969 153.86 224.629 156.3 228.393 158.039C232.158 159.8 236.6 153.245 233.068 149.129C233.068 149.129 229.641 145.926 227.949 145.247V141.684Z" fill="#EFC9CD"/>
<path fill-rule="evenodd" clip-rule="evenodd" d="M279.752 100.503C279.752 100.503 279.752 100.503 279.752 100.503L279.664 100.975C279.752 100.503 279.752 100.503 279.752 100.503L279.754 100.503L279.765 100.505C279.775 100.507 279.791 100.51 279.812 100.513C279.855 100.52 279.918 100.53 280.001 100.541C280.165 100.564 280.401 100.591 280.685 100.61C281.255 100.648 282.001 100.652 282.732 100.523C282.993 100.477 283.242 100.652 283.288 100.913C283.334 101.175 283.16 101.424 282.898 101.47C282.064 101.617 281.234 101.61 280.62 101.569C280.312 101.548 280.053 101.518 279.871 101.494C279.78 101.481 279.708 101.47 279.657 101.462C279.632 101.458 279.613 101.454 279.599 101.452L279.582 101.449L279.578 101.448L279.576 101.448L279.576 101.448C279.576 101.448 279.575 101.448 279.664 100.975" fill="#D289AC"/>
<path fill-rule="evenodd" clip-rule="evenodd" d="M279.544 113.559C279.453 113.31 279.178 113.182 278.929 113.273C278.68 113.363 278.551 113.639 278.642 113.889L279.093 113.724C278.642 113.889 278.642 113.889 278.642 113.889L278.642 113.889L278.643 113.891L278.644 113.893L278.646 113.901C278.649 113.907 278.652 113.915 278.655 113.924C278.663 113.944 278.674 113.97 278.688 114.004C278.717 114.07 278.76 114.163 278.818 114.277C278.934 114.502 279.113 114.81 279.369 115.147C279.882 115.822 280.709 116.624 281.962 117.12C282.209 117.217 282.488 117.096 282.585 116.85C282.683 116.603 282.562 116.324 282.315 116.226C281.263 115.81 280.568 115.137 280.134 114.566C279.917 114.28 279.767 114.022 279.672 113.837C279.625 113.745 279.591 113.672 279.57 113.623C279.56 113.599 279.553 113.581 279.549 113.571C279.546 113.565 279.545 113.562 279.544 113.56" fill="#D289AC"/>
<path d="M231.016 150.826C231.016 150.826 231.016 151.335 230.805 151.802C230.614 152.269 229.134 155.281 229.345 156.893C229.345 156.893 229.409 157.211 229.007 157.063C228.605 156.914 224.629 154.539 224.629 154.539C224.629 154.539 224.057 154.051 223.952 153.542C223.846 153.032 223.338 149.872 226.299 149.129C226.299 149.129 226.701 149.023 227.167 149.129C227.611 149.214 230.741 150.529 230.741 150.529C230.741 150.529 231.016 150.635 231.016 150.826Z" fill="#F0DCE4"/>
<path d="M227.949 127.874V132.392C227.949 132.392 234.971 136.168 236.833 138.926C238.673 141.683 238.461 146.647 236.367 147.941C234.294 149.256 232.56 149.744 229.134 148.005C225.686 146.265 220.356 142.765 220.356 142.765C220.356 142.765 217.818 141.238 218.156 138.141C218.494 135.044 220.863 128.786 227.949 127.874Z" fill="#EFC9CD"/>
<path d="M234.887 140.835C234.887 140.835 234.887 141.45 234.633 142.023C234.4 142.596 232.603 146.266 232.856 148.238C232.856 148.238 232.92 148.62 232.433 148.451C231.947 148.281 226.553 145.056 226.553 145.056C226.553 145.056 225.877 144.462 225.75 143.847C225.623 143.211 225.009 139.371 228.605 138.438C228.605 138.438 229.092 138.311 229.663 138.438C230.234 138.544 234.57 140.474 234.57 140.474C234.57 140.474 234.887 140.602 234.887 140.835Z" fill="#F0DCE4"/>
<path d="M227.949 109.545L219.108 115.082C219.108 115.082 217.374 115.931 216.929 118.794C216.464 121.679 217.437 124.373 220.969 127.534C224.523 130.695 227.04 132.901 229.916 133.347C232.772 133.792 234.633 130.08 234.464 126.41C234.294 122.74 231.883 119.367 227.949 116.312V109.545Z" fill="#EFC9CD"/>
<path d="M231.63 124.161C231.63 124.161 231.566 124.819 231.27 125.413C230.953 126.007 228.732 129.74 228.838 131.861C228.838 131.861 228.88 132.286 228.372 132.052C227.865 131.84 222.429 127.937 222.429 127.937C222.429 127.937 221.752 127.258 221.667 126.579C221.583 125.922 221.244 121.764 225.157 121.085C225.157 121.085 225.686 121 226.278 121.17C226.87 121.34 231.312 123.758 231.312 123.758C231.312 123.758 231.651 123.907 231.63 124.161Z" fill="#F0DCE4"/>
<path d="M227.949 94.8872C227.949 94.8872 223.507 96.9873 221.815 98.3874C220.123 99.7875 219.51 103.691 219.573 107.53C219.616 111.349 220.419 113.725 224.015 113.958C227.611 114.17 227.949 111.073 227.949 109.546C227.949 108.039 227.949 94.8872 227.949 94.8872Z" fill="#EFC9CD"/>
<path d="M219.785 103.415C219.616 104.709 219.552 106.109 219.573 107.53C219.594 109.545 219.827 111.136 220.567 112.261C219.721 110.5 221.456 108.803 221.688 108.442C221.9 108.06 221.879 107.615 221.731 105.727C221.604 103.839 221.435 102.884 220.885 102.821C220.356 102.757 219.806 103.415 219.785 103.415Z" fill="#F0DCE4"/>
<path d="M271.457 182.859C276.449 184.131 280.531 183.58 283.746 182.307L264.181 197.474L264.921 179.74C266.91 181.162 269.088 182.243 271.457 182.859Z" fill="#DCA6AB"/>
<path d="M227.949 109.545V116.312L219.954 114.552L221.815 113.385C222.386 113.703 223.106 113.894 224.015 113.958C227.611 114.17 227.949 111.073 227.949 109.545Z" fill="#DCA6AB"/>
<path d="M223.275 129.55C224.967 130.992 226.447 132.095 227.949 132.753C228.457 132.979 228.971 133.149 229.493 133.262C230.064 133.602 230.741 134.005 231.439 134.471C231.622 134.584 231.806 134.705 231.989 134.832L231.439 134.662L227.949 133.708L220.842 131.777C221.498 130.95 222.302 130.186 223.275 129.55Z" fill="#DCA6AB"/>
<path d="M231.439 149.214L227.949 148.175L220.694 146.032C220.864 145.629 221.075 145.29 221.308 145.014C221.54 144.759 221.985 144.462 222.513 144.144C224.036 145.099 226.13 146.371 227.949 147.39C228.358 147.616 228.753 147.821 229.134 148.005C230.001 148.45 230.762 148.747 231.439 148.917C232.031 149.087 232.56 149.15 233.068 149.129C233.265 149.37 233.441 149.61 233.597 149.85L231.439 149.214Z" fill="#DCA6AB"/>
<path d="M265.429 167.818H270.146C270.844 167.818 271.521 167.67 272.134 167.415L265.302 170.767L258.893 173.906C257.307 171.955 255.911 169.855 254.727 167.818H265.429Z" fill="#DCA6AB"/>
<path d="M281.06 116.1L275.497 157.106V120.131C277.549 116.291 279.008 114.403 279.093 113.725C279.093 113.725 279.6 115.103 281.06 116.1Z" fill="#DCA6AB"/>
<path d="M293.941 39.7114H272.07C270.484 39.7114 269.194 41.0266 269.194 42.6176V54.5607V55.4516V63.046C269.194 63.1732 269.257 63.3005 269.384 63.3429C269.511 63.3854 269.638 63.3642 269.744 63.2793L274.651 58.3366H293.941C295.527 58.3366 296.817 57.0426 296.817 55.4516V42.6176C296.817 41.0266 295.527 39.7114 293.941 39.7114Z" fill="#D90452"/>
<path d="M237.002 151.717C237.277 151.717 237.488 151.505 237.488 151.229C237.488 150.975 237.277 150.763 237.002 150.763H236.431C236.156 150.763 235.944 150.975 235.944 151.229C235.944 151.505 236.156 151.717 236.431 151.717H237.002Z" fill="#D4CFE6"/>
<path d="M269.956 151.717C270.23 151.717 270.442 151.505 270.442 151.229C270.442 150.975 270.23 150.763 269.956 150.763H269.384C269.109 150.763 268.898 150.975 268.898 151.229C268.898 151.505 269.109 151.717 269.384 151.717H269.956Z" fill="#D4CFE6"/>
<path d="M269.384 85.2349C269.109 85.2349 268.898 85.0227 268.898 84.7682C268.898 84.4924 269.109 84.2803 269.384 84.2803H269.956C270.23 84.2803 270.442 84.4924 270.442 84.7682C270.442 85.0227 270.23 85.2349 269.956 85.2349H269.384Z" fill="#D4CFE6"/>
<path d="M266.444 85.2349C266.17 85.2349 265.958 85.0227 265.958 84.7682C265.958 84.4924 266.17 84.2803 266.444 84.2803H267.037C267.291 84.2803 267.502 84.4924 267.502 84.7682C267.502 85.0227 267.291 85.2349 267.016 85.2349H266.444Z" fill="#D4CFE6"/>
<path d="M233.491 85.2349C233.216 85.2349 233.004 85.0227 233.004 84.7682C233.004 84.4924 233.216 84.2803 233.491 84.2803H234.062C234.337 84.2803 234.548 84.4924 234.548 84.7682C234.548 85.0227 234.337 85.2349 234.062 85.2349H233.491Z" fill="#D4CFE6"/>
<path d="M247.514 111.985C248.952 111.985 250.116 113.173 250.116 114.594V121.297C250.116 122.74 248.952 123.907 247.514 123.907C246.097 123.907 244.913 122.74 244.913 121.297V114.594C244.913 113.173 246.097 111.985 247.514 111.985Z" fill="#171533"/>
<path d="M240.259 106.724H248.424C249.058 106.724 249.587 107.233 249.587 107.87V112.261C249.587 112.897 249.058 113.406 248.424 113.406H240.259C239.646 113.406 239.117 112.897 239.117 112.261V107.87C239.117 107.233 239.646 106.724 240.259 106.724Z" fill="#D90452"/>
<path d="M245.759 110.076L250.983 106.109L263.145 101.782C263.145 101.782 264.308 101.569 264.308 102.672C264.308 103.776 264.308 110.076 264.308 110.076C264.308 110.076 264.308 116.355 264.308 117.458C264.308 118.561 263.145 118.349 263.145 118.349L250.983 114.022L245.759 110.076Z" fill="#EDCA32"/>
<path d="M243.432 104.963H251.596C252.231 104.963 252.738 105.472 252.738 106.109V114.021C252.738 114.658 252.231 115.167 251.596 115.167H243.432C242.797 115.167 242.29 114.658 242.29 114.021V106.109C242.29 105.472 242.797 104.963 243.432 104.963Z" fill="white"/>
<path fill-rule="evenodd" clip-rule="evenodd" d="M243.432 105.702C243.206 105.702 243.027 105.879 243.027 106.109V114.022C243.027 114.252 243.206 114.429 243.432 114.429H251.596C251.822 114.429 252.001 114.252 252.001 114.022V106.109C252.001 105.879 251.822 105.702 251.596 105.702H243.432ZM241.552 106.109C241.552 105.067 242.388 104.226 243.432 104.226H251.596C252.64 104.226 253.476 105.067 253.476 106.109V114.022C253.476 115.064 252.64 115.905 251.596 115.905H243.432C242.388 115.905 241.552 115.064 241.552 114.022V106.109Z" fill="#171533"/>
<path d="M234.887 132.01H268.56C268.877 132.01 269.131 132.265 269.131 132.583C269.131 132.901 268.877 133.156 268.56 133.156H234.887C234.57 133.156 234.316 132.901 234.316 132.583C234.316 132.265 234.57 132.01 234.887 132.01Z" fill="#D4CFE6"/>
<path d="M235.923 135.744H268.559C268.877 135.744 269.13 135.998 269.13 136.316C269.13 136.635 268.877 136.889 268.559 136.889H235.923C235.606 136.889 235.352 136.635 235.352 136.316C235.352 135.998 235.606 135.744 235.923 135.744Z" fill="#D4CFE6"/>
<path d="M239.223 139.456H265.958C266.275 139.456 266.529 139.711 266.529 140.029C266.529 140.347 266.275 140.602 265.958 140.602H239.223C238.906 140.602 238.652 140.347 238.652 140.029C238.652 139.711 238.906 139.456 239.223 139.456Z" fill="#D4CFE6"/>
<path d="M242.311 144.611H261.135C261.579 144.611 261.939 144.971 261.939 145.417V147.899C261.939 148.366 261.579 148.726 261.135 148.726H242.311C241.866 148.726 241.507 148.366 241.507 147.899V145.417C241.507 144.971 241.866 144.611 242.311 144.611Z" fill="#D90452"/>
<path fill-rule="evenodd" clip-rule="evenodd" d="M266.447 110.076C266.447 109.668 266.777 109.338 267.185 109.338H269.342C269.749 109.338 270.08 109.668 270.08 110.076C270.08 110.483 269.749 110.814 269.342 110.814H267.185C266.777 110.814 266.447 110.483 266.447 110.076Z" fill="#D90452"/>
<path fill-rule="evenodd" clip-rule="evenodd" d="M268.817 104.084C269.021 104.436 268.901 104.888 268.549 105.093L266.688 106.174C266.336 106.379 265.885 106.259 265.68 105.907C265.475 105.555 265.595 105.103 265.947 104.898L267.809 103.816C268.161 103.612 268.612 103.731 268.817 104.084Z" fill="#D90452"/>
<path fill-rule="evenodd" clip-rule="evenodd" d="M265.68 114.224C265.885 113.871 266.336 113.752 266.688 113.956L268.549 115.038C268.901 115.243 269.021 115.695 268.817 116.047C268.612 116.4 268.161 116.519 267.809 116.315L265.947 115.233C265.595 115.028 265.475 114.576 265.68 114.224Z" fill="#D90452"/>
<path d="M254.092 89.3931H242.141C241.274 89.3931 240.576 90.0931 240.576 90.9628V97.4965V97.9844V102.142C240.576 102.206 240.618 102.269 240.682 102.291C240.745 102.333 240.83 102.312 240.872 102.248L243.559 99.5542H254.092C254.959 99.5542 255.678 98.8542 255.678 97.9844V90.9628C255.678 90.0931 254.959 89.3931 254.092 89.3931Z" fill="#5E90CC"/>
<path d="M243.22 94.0176H249.249C249.524 94.0176 249.735 94.2509 249.735 94.5267C249.735 94.8025 249.524 95.0146 249.249 95.0146H243.22C242.946 95.0146 242.713 94.8025 242.713 94.5267C242.713 94.2509 242.946 94.0176 243.22 94.0176Z" fill="white"/>
<path d="M251.47 94.0176H253.035C253.31 94.0176 253.521 94.2509 253.521 94.5267C253.521 94.8025 253.31 95.0146 253.035 95.0146H251.47C251.195 95.0146 250.962 94.8025 250.962 94.5267C250.962 94.2509 251.195 94.0176 251.47 94.0176Z" fill="white"/>
<path d="M247.007 96.3511H253.035C253.31 96.3511 253.521 96.5632 253.521 96.839C253.521 97.1148 253.31 97.3481 253.035 97.3481H247.007C246.732 97.3481 246.499 97.1148 246.499 96.839C246.499 96.5632 246.732 96.3511 247.007 96.3511Z" fill="white"/>
<path d="M243.22 91.6841H249.249C249.524 91.6841 249.735 91.9174 249.735 92.1932C249.735 92.469 249.524 92.6811 249.249 92.6811H243.22C242.946 92.6811 242.713 92.469 242.713 92.1932C242.713 91.9174 242.946 91.6841 243.22 91.6841Z" fill="white"/>
<path fill-rule="evenodd" clip-rule="evenodd" d="M281.493 46.5621C281.869 46.7199 282.045 47.1525 281.888 47.5283L280.428 51.0072C280.271 51.383 279.838 51.5598 279.463 51.402C279.087 51.2442 278.911 50.8117 279.068 50.4359L280.528 46.9569C280.686 46.5811 281.118 46.4043 281.493 46.5621ZM280.513 52.9666C280.515 52.559 280.846 52.2302 281.254 52.2322L285.653 52.2534C286.06 52.2553 286.389 52.5873 286.387 52.9949C286.385 53.4025 286.053 53.7313 285.646 53.7294L281.247 53.7081C280.839 53.7062 280.511 53.3742 280.513 52.9666Z" fill="white"/>
<path fill-rule="evenodd" clip-rule="evenodd" d="M281.108 43.6688C280.374 44.2462 280.241 45.3107 280.798 46.0502C281.374 46.7868 282.431 46.9167 283.165 46.3427L283.172 46.337C283.897 45.7841 284.037 44.7256 283.46 43.9833L283.454 43.976C282.904 43.2491 281.848 43.1077 281.108 43.6688ZM284.627 43.0804C283.57 41.6904 281.584 41.4506 280.211 42.4974L280.204 42.5031C278.827 43.5801 278.58 45.5654 279.626 46.9458L279.632 46.9531C280.705 48.3335 282.689 48.5848 284.069 47.5084C285.455 46.4494 285.695 44.458 284.627 43.0804Z" fill="white"/>
<path fill-rule="evenodd" clip-rule="evenodd" d="M289.4 51.9561C288.824 51.2196 287.768 51.0896 287.034 51.6637L287.027 51.6693C286.302 52.2219 286.16 53.2825 286.721 54.0267C287.296 54.7626 288.355 54.8951 289.091 54.3375C289.825 53.7602 289.958 52.6956 289.4 51.9561ZM286.129 50.4979C287.509 49.4216 289.494 49.6729 290.567 51.0532L290.573 51.0605C291.619 52.441 291.372 54.4263 289.995 55.5033L289.988 55.5089C288.61 56.5594 286.628 56.3106 285.554 54.9296L285.548 54.9223C284.506 53.5466 284.744 51.5574 286.129 50.4979Z" fill="white"/>
<path fill-rule="evenodd" clip-rule="evenodd" d="M280.16 51.9172C279.587 51.1799 278.546 51.042 277.786 51.6254L277.784 51.6267L277.784 51.6267C277.058 52.1797 276.919 53.2381 277.496 53.9805L277.502 53.9878C278.06 54.7247 279.115 54.8681 279.844 54.2978C280.591 53.7134 280.728 52.6468 280.16 51.9172ZM276.889 50.4532C278.286 49.3827 280.248 49.6269 281.324 51.0106C282.407 52.4023 282.12 54.3905 280.752 55.4607C279.368 56.544 277.379 56.2646 276.329 54.8834C275.26 53.5048 275.502 51.5117 276.889 50.4532Z" fill="white"/>
</svg>
