<svg width="801" height="347" viewBox="0 0 801 347" fill="none" xmlns="http://www.w3.org/2000/svg">
<path d="M769.685 338.634C769.685 338.794 605.694 338.9 403.415 338.9C201.135 338.9 37.144 338.794 37.144 338.634C37.144 338.475 201.135 338.368 403.415 338.368C605.694 338.368 769.685 338.475 769.685 338.634Z" fill="#263238"/>
<path d="M534.298 293.382C533.924 294.446 524.152 338.901 524.152 338.901H554.643L565.537 289.128L534.298 293.382Z" fill="#FFBF9D"/>
<path d="M614.024 151.244L604.839 84.615C601.902 65.844 610.446 48.5088 629.349 46.1159L631.112 46.0095C648.84 44.7865 664.54 57.3359 667.21 74.8307C669.613 91.1556 672.123 109.182 672.603 117.956C673.671 136.142 655.569 140.237 655.569 140.237C655.515 140.237 656.69 151.244 657.278 156.562L634.262 178.576L614.024 151.244Z" fill="#FFBF9D"/>
<path d="M655.516 140.29C655.516 140.29 644.088 141.725 631.272 134.866C631.272 134.866 637.947 148.16 656.05 145.288L655.516 140.29Z" fill="#FF9A6C"/>
<path d="M664.594 90.7835C664.327 91.1557 662.244 89.8263 659.414 90.039C656.637 90.1985 654.661 91.7406 654.341 91.4216C654.181 91.3152 654.448 90.6771 655.302 89.9327C656.156 89.2414 657.598 88.4969 659.361 88.3906C661.123 88.2842 662.618 88.816 663.526 89.4541C664.434 90.039 664.754 90.6239 664.594 90.7835Z" fill="#263238"/>
<path d="M634.476 93.6546C634.636 95.0372 633.568 96.2602 632.126 96.4729C630.738 96.6324 629.456 95.6752 629.296 94.2927C629.136 92.9101 630.204 91.6871 631.646 91.4744C633.088 91.3149 634.316 92.272 634.476 93.6546Z" fill="#263238"/>
<path d="M636.291 85.0403C636.024 85.4126 633.942 84.0832 631.112 84.2959C628.335 84.4554 626.359 85.9975 626.039 85.6785C625.878 85.5189 626.145 84.934 627 84.1895C627.854 83.4982 629.296 82.7538 631.058 82.6474C632.82 82.5411 634.316 83.0728 635.223 83.6578C636.131 84.2959 636.452 84.8808 636.291 85.0403Z" fill="#263238"/>
<path d="M647.879 105.832C647.826 105.673 649.535 105.247 652.365 104.715C653.059 104.556 653.753 104.396 653.807 103.918C653.967 103.386 653.593 102.642 653.219 101.791C652.401 100.125 651.564 98.3699 650.71 96.5265C647.239 88.9755 644.675 82.754 644.996 82.6476C645.263 82.4881 648.36 88.497 651.831 96.0479C652.65 97.8913 653.451 99.6638 654.234 101.365C654.554 102.163 655.088 103.014 654.768 104.131C654.608 104.662 654.127 105.088 653.7 105.247C653.219 105.407 652.846 105.46 652.472 105.513C649.642 105.832 647.879 105.992 647.879 105.832Z" fill="#263238"/>
<path d="M636.612 76.2132C636.292 76.9577 633.515 76.4259 630.204 76.5323C626.893 76.6386 624.17 77.4363 623.743 76.6918C623.583 76.3727 624.117 75.6815 625.238 75.0433C626.359 74.3521 628.122 73.7671 630.097 73.714C632.073 73.6608 633.889 74.0862 635.01 74.6711C636.185 75.256 636.772 75.8941 636.612 76.2132Z" fill="#263238"/>
<path d="M663.953 82.4878C663.419 83.1259 661.069 82.7005 658.346 82.86C655.569 82.9664 653.273 83.7108 652.686 83.1259C652.419 82.8069 652.739 82.1156 653.7 81.4243C654.661 80.7862 656.317 80.1481 658.186 80.0417C660.055 79.9354 661.764 80.3608 662.778 80.9457C663.793 81.5307 664.167 82.1156 663.953 82.4878Z" fill="#263238"/>
<path d="M607.189 97.377C606.868 97.2706 594.373 94.5055 595.654 106.949C596.882 119.338 609.111 115.563 609.111 115.191C609.111 114.819 607.189 97.377 607.189 97.377Z" fill="#FFBF9D"/>
<path d="M604.839 110.884C604.786 110.831 604.625 111.043 604.305 111.256C603.931 111.416 603.344 111.628 602.65 111.416C601.315 111.097 599.98 109.129 599.713 106.896C599.552 105.779 599.659 104.662 599.98 103.705C600.3 102.801 600.781 102.11 601.475 101.897C602.116 101.684 602.596 102.057 602.81 102.376C603.023 102.695 602.97 102.961 603.023 102.961C603.077 103.014 603.237 102.748 603.13 102.216C603.023 102.004 602.863 101.738 602.543 101.525C602.222 101.312 601.742 101.206 601.315 101.312C600.353 101.472 599.552 102.429 599.232 103.439C598.858 104.503 598.645 105.726 598.805 107.002C599.179 109.501 600.674 111.681 602.543 112.054C603.451 112.16 604.145 111.841 604.465 111.522C604.839 111.15 604.892 110.884 604.839 110.884Z" fill="#FF9A6C"/>
<path d="M690.439 55.1557C690.172 54.4644 689.585 53.8795 688.891 53.5604C687.395 52.8691 685.74 53.135 684.138 53.2946C680.186 53.6136 676.182 52.9755 672.444 51.5397C673.618 50.7953 674.686 49.9445 675.594 48.881C677.41 46.7008 678.264 43.5102 677.089 40.9046C676.876 40.4261 676.502 39.9475 675.968 39.8411C675.167 39.6284 674.526 40.5324 673.992 41.2237C672.337 43.4571 670.735 44.5206 667.958 44.4674C666.196 44.4674 664.487 44.2547 663.045 43.5634C663.009 43.4925 662.956 43.4393 662.885 43.4039C662.173 42.8012 661.479 42.2163 660.802 41.6491C655.622 37.5014 651.297 34.6831 646.972 33.4069C640.67 31.5989 630.364 31.5989 624.223 33.8855C618.029 36.172 612.849 41.8086 612.582 48.4024C608.737 45.7436 603.397 46.2754 599.232 48.4556L599.125 48.4024C594.479 50.5826 592.237 55.9533 591.275 61.005C591.24 61.2532 591.186 61.519 591.115 61.8026C589.78 64.5678 587.751 66.9607 585.295 68.7686C584.814 69.0877 584.333 69.4599 584.333 69.9917C584.333 70.5234 584.814 70.9488 585.295 71.2147C586.523 71.906 587.911 72.3314 589.353 72.4378C589.033 73.6608 588.605 74.8306 588.071 76.0005C587.644 76.9577 587.11 78.1275 587.644 79.0315C588.071 79.7228 589.086 79.9355 589.887 79.7228C590.688 79.5633 591.382 79.0315 592.023 78.4998C591.596 79.8469 591.186 81.1763 590.795 82.4879C592.557 82.6475 594.373 82.3284 596.028 81.6371C597.47 86.157 599.072 94.5588 600.567 97.5366C603.878 97.2707 604.679 96.8453 606.388 97.2176C608.63 97.6961 608.15 101.631 610.873 100.249C612.262 99.5573 613.917 93.9739 614.237 92.4318C616.48 82.5411 616.48 72.1187 614.344 62.1749C616.16 59.8351 618.403 57.8676 620.912 56.3787L620.752 56.5914C625.665 54.3581 631.219 52.0183 636.292 53.9326C640.243 55.4216 642.86 59.0907 645.957 61.909C651.831 67.2265 658.186 69.779 666.142 69.3536C667.37 74.7775 668.492 83.711 669.24 88.7626L672.604 78.1275V78.1807C672.924 77.5426 673.138 76.9045 673.351 76.2664L673.458 76.0537C673.778 75.0434 674.152 74.033 674.633 72.9695C674.633 73.005 674.651 73.0227 674.686 73.0227C677.677 75.2029 681.415 71.0552 678.905 68.2901C678.406 67.7583 677.837 67.2974 677.196 66.9075C678.638 67.971 680.56 68.3432 682.162 67.652C683.818 67.0138 684.939 65.2059 684.619 63.5043C684.405 62.3344 683.444 61.3241 682.323 60.9518C684.565 60.9518 686.861 60.2074 688.677 58.9311C689.905 58.0272 691.027 56.751 690.439 55.1557Z" fill="#263238"/>
<path d="M618.509 49.8911C618.563 49.9443 617.815 50.476 616.854 51.7523C615.946 53.0285 614.931 55.2087 614.664 58.0802C614.504 59.4627 614.504 61.058 614.664 62.7064C614.825 64.408 615.145 66.1628 615.412 68.0772C615.732 69.9383 616.053 71.9058 616.16 73.9797C616.213 75.0432 616.16 76.1067 616.053 77.1702C615.946 78.2337 615.786 79.4036 615.092 80.3607C614.504 81.1584 613.49 81.5838 612.582 81.4774C611.674 81.3711 610.82 80.9988 610.125 80.4139C608.844 79.1377 608.363 77.4361 607.936 75.9471H608.31C607.829 77.3829 607.295 78.8186 606.494 79.9885C605.64 81.1584 604.412 82.0092 603.13 82.2219C602.436 82.3814 601.795 82.3282 601.208 82.1155C600.62 81.9028 600.14 81.4242 599.819 80.9988C599.499 80.4671 599.285 79.9353 599.232 79.4036C599.232 78.8718 599.392 78.34 599.712 77.9146L599.926 78.0742C598.644 79.829 597.256 80.8393 596.295 81.4242C595.761 81.6901 595.387 81.8496 595.12 82.0092C594.835 82.1155 594.693 82.151 594.693 82.1155C594.693 82.1155 594.818 82.0446 595.067 81.9028C595.334 81.7965 595.707 81.5838 596.188 81.2647C597.149 80.6798 598.484 79.6694 599.712 77.9146L599.926 78.0742C599.339 78.8186 599.445 79.9353 600.033 80.7861C600.353 81.2115 600.78 81.6369 601.314 81.7965C601.848 82.0092 602.436 82.0092 603.023 81.9028C604.252 81.6901 605.373 80.8925 606.174 79.7758C606.975 78.6591 607.455 77.2765 607.936 75.8408L608.15 75.2027L608.31 75.8408C608.737 77.3297 609.218 78.9782 610.446 80.0948C611.033 80.6266 611.781 80.9988 612.635 81.052C613.436 81.1052 614.237 80.7861 614.718 80.0948C615.359 79.244 615.519 78.1805 615.626 77.117C615.733 76.1067 615.786 75.0432 615.732 74.0328C615.679 71.959 615.359 69.9915 615.038 68.1303C614.718 66.216 614.451 64.4612 614.291 62.7596C614.131 61.058 614.184 59.4627 614.344 58.027C614.664 55.1555 615.732 52.9221 616.747 51.6459C617.762 50.3697 618.509 49.8911 618.509 49.8911Z" fill="#455A64"/>
<path d="M676.716 62.0688C676.716 62.0688 676.662 62.1042 676.555 62.1751C676.449 62.2815 676.306 62.4233 676.128 62.6005C675.95 62.7423 675.719 62.9196 675.434 63.1323C675.114 63.345 674.793 63.6108 674.366 63.8235C672.764 64.7807 670.094 65.8442 666.676 66.0037C663.312 66.1633 659.147 65.3656 655.302 63.0259C651.404 60.7925 647.826 57.2298 644.782 53.0821C643.234 51.0082 641.899 48.8812 640.51 46.9137C639.122 44.9462 637.627 43.1383 635.918 41.8089C634.156 40.4263 632.233 39.4691 630.311 39.1501C629.35 38.9374 628.442 38.9906 627.534 39.0969C626.626 39.2033 625.772 39.4691 625.024 39.7882C623.529 40.4795 622.354 41.4898 621.447 42.447C620.592 43.4573 620.005 44.4676 619.684 45.3185C618.99 47.0732 619.044 48.1368 618.99 48.1368C618.99 48.1368 618.99 48.0659 618.99 47.9241C618.99 47.7823 618.99 47.605 618.99 47.3923C619.044 46.9137 619.204 46.1693 619.524 45.2653C619.845 44.3613 620.379 43.351 621.286 42.2874C622.141 41.2771 623.369 40.2668 624.918 39.5223C625.665 39.2032 626.52 38.8842 627.481 38.7778C628.389 38.6183 629.403 38.6183 630.364 38.7778C632.394 39.0969 634.369 40.0541 636.132 41.4898C637.947 42.8724 639.442 44.6803 640.884 46.701C642.273 48.6685 643.554 50.7955 645.103 52.8694C648.147 56.9639 651.671 60.4735 655.516 62.7069C659.307 64.9934 663.366 65.791 666.676 65.6847C670.041 65.5783 672.657 64.6212 674.313 63.7172C675.915 62.76 676.662 62.0156 676.716 62.0688Z" fill="#455A64"/>
<path d="M677.57 53.9327C677.57 53.9327 677.356 54.1454 676.982 54.4113C676.555 54.7304 675.914 55.1558 675.113 55.5812C674.312 56.0598 673.298 56.4852 672.176 56.9106C671.002 57.2828 669.667 57.6018 668.278 57.8146C666.89 57.9741 665.555 58.0272 664.327 57.9209C663.098 57.8145 661.977 57.655 661.123 57.4423C660.215 57.2296 659.521 56.9637 659.04 56.751C658.559 56.5915 658.292 56.432 658.292 56.432C658.346 56.3788 659.414 56.751 661.176 57.1233C662.084 57.336 663.152 57.4423 664.327 57.5487C665.555 57.6018 666.836 57.5487 668.225 57.3891C669.613 57.1764 670.895 56.9106 672.016 56.5383C673.191 56.1661 674.152 55.7407 675.007 55.3153C676.609 54.5177 677.516 53.8264 677.57 53.9327Z" fill="#455A64"/>
<path d="M648.52 114.34C648.36 113.915 645.53 115.35 642.272 113.968C639.015 112.638 637.787 109.501 637.36 109.661C637.199 109.714 637.199 110.618 637.787 111.894C638.428 113.17 639.763 114.765 641.738 115.563C643.714 116.414 645.69 116.201 646.865 115.669C648.093 115.191 648.627 114.5 648.52 114.34Z" fill="#263238"/>
<path d="M747.257 119.871L729.208 126.996L744.267 188.361L711.906 161.986L693.857 197.986C693.857 197.986 737.325 228.402 753.184 230.529C768.991 232.709 775.559 222.234 775.399 204.632C775.345 197.188 747.257 119.871 747.257 119.871Z" fill="#FFBF9D"/>
<path d="M750.728 85.5192C750.514 83.1794 749.713 77.5428 749.286 74.5118C749.073 72.9697 747.364 71.9062 745.922 72.5975C745.335 72.9166 744.854 73.4483 744.64 74.4055C744 77.4365 744.961 85.0406 744.961 85.0406L741.169 92.0598L735.669 65.1529C735.669 65.1529 730.383 63.1854 730.436 69.8324C730.436 76.4261 733.907 90.6772 733.106 90.8899C732.305 91.1026 730.65 91.7407 730.169 88.4438C729.688 85.1469 722.426 66.4291 722.426 66.4291C722.426 66.4291 716.499 65.5783 717.834 72.0658C718.848 77.3301 723.334 91.6344 723.601 92.9106C723.814 94.1336 723.174 96.5265 723.174 96.5265C723.174 96.5265 718.635 90.1454 715.858 91.528C713.081 92.9638 709.557 96.8987 708.916 99.3448C708.382 101.472 710.678 103.014 711.799 102.642C712.867 102.269 715.698 98.9726 715.698 98.9726L720.29 103.812L720.343 111.522L716.926 114.553L718.314 124.922C723.547 127.475 728.994 128.698 728.994 128.698L747.844 122.104L746.616 98.3345C746.616 98.3345 751.102 88.8161 750.728 85.5192Z" fill="#FFBF9D"/>
<path d="M734.761 118.701C734.601 118.754 734.121 118.063 733.159 117.052C732.198 116.095 730.65 114.978 728.727 114.181C726.751 113.436 724.829 113.224 723.494 113.277C722.106 113.33 721.251 113.543 721.198 113.383C721.144 113.277 721.945 112.851 723.441 112.639C724.882 112.373 726.965 112.479 729.048 113.33C731.13 114.128 732.732 115.457 733.64 116.627C734.548 117.797 734.815 118.647 734.761 118.701Z" fill="#FF9A6C"/>
<path d="M716.338 113.277C715.217 112.692 714.256 111.682 713.935 110.458C713.615 109.342 713.829 108.066 713.829 106.896C713.775 105.407 713.081 103.705 711.639 103.439C710.731 103.227 709.824 103.652 709.183 104.343C708.542 104.981 708.222 105.885 708.008 106.789C706.78 111.469 708.222 116.627 711.372 120.455C712.654 121.998 716.605 124.444 718.741 125.082L719.97 114.553C718.741 114.234 717.46 113.915 716.338 113.277Z" fill="#FFBF9D"/>
<path d="M741.757 98.9728C741.757 99.026 740.742 98.8664 739.14 98.6537C737.538 98.441 735.295 98.1752 732.839 98.122C730.329 98.0688 728.14 98.2283 726.484 98.3879C724.882 98.5474 723.868 98.7069 723.868 98.6006C723.868 98.5474 724.829 98.2815 726.431 98.0156C728.086 97.7498 730.329 97.5371 732.839 97.5902C735.349 97.6434 737.592 97.9093 739.194 98.2815C740.796 98.6006 741.757 98.9196 741.757 98.9728Z" fill="#FF9A6C"/>
<path d="M612.796 150.34C612.796 150.34 633.889 165.708 637.253 164.697C640.617 163.74 657.118 150.34 657.118 150.34L684.619 176.928L694.551 338.475L593.572 338.635L596.776 197.134L612.796 150.34Z" fill="#EBEBEB"/>
<path d="M623.102 224.467C624.117 214.682 625.879 194.263 621.393 182.032C616.854 169.749 613.009 159.326 613.704 152.999C614.398 146.617 612.102 140.875 612.102 140.875L603.985 152.254L574.882 161.241V161.188C574.882 161.188 574.615 161.241 574.241 161.4C571.144 162.57 557.153 168.579 553.201 182.086C548.769 197.241 529.278 296.36 529.278 296.36C529.278 296.36 524.365 301.199 524.152 303.379C523.938 305.506 560.41 312.366 562.867 312.632C565.27 312.898 570.129 305.772 568.901 301.624C567.726 297.53 566.445 298.966 566.445 298.966C568.581 293.701 571.571 275.462 573.44 262.806L578.139 338.847H618.029C618.029 338.847 614.878 286.363 617.976 267.539C621.019 248.661 622.034 234.57 623.102 224.467Z" fill="#100E0F"/>
<path d="M774.491 187.775C771.447 185.329 770.272 188.041 761.355 185.914C752.49 183.787 741.063 175.279 739.834 177.3C738.553 179.374 741.757 182.032 741.757 182.032C741.757 182.032 724.402 169.696 714.363 160.603C708.809 155.657 695.833 154.594 695.833 154.594C695.833 154.594 668.599 151.084 668.172 151.084C667.691 151.084 656.05 143.161 656.05 143.161C656.05 143.161 653.487 157.891 651.938 167.728C650.389 177.566 652.258 186.021 654.448 196.549C656.637 207.078 662.832 238.877 664.647 249.725C666.516 260.573 671.803 330.658 672.604 338.9H720.13C718.902 327.414 710.518 239.196 710.518 238.292C710.518 237.814 709.503 223.509 708.489 209.843C718.902 216.012 748.165 233.028 755.641 234.357C764.826 235.953 775.826 229.199 776.574 220.478C777.268 212.502 777.535 190.221 774.491 187.775Z" fill="#100E0F"/>
<path d="M707.527 172.939C707.563 172.939 707.599 173.134 707.634 173.524C707.67 173.985 707.705 174.57 707.741 175.279C707.794 176.928 707.901 179.108 708.008 181.767C708.222 187.297 708.489 194.848 708.756 203.143C709.023 211.492 709.396 219.043 709.717 224.52C709.877 227.179 709.984 229.412 710.091 231.007C710.126 231.716 710.162 232.301 710.197 232.762C710.197 233.152 710.197 233.365 710.197 233.4C710.162 233.4 710.126 233.187 710.091 232.762C710.019 232.301 709.948 231.716 709.877 231.007C709.717 229.518 709.503 227.285 709.29 224.573C708.916 219.096 708.489 211.545 708.222 203.196C707.901 194.848 707.741 187.244 707.634 181.767C707.581 179.108 707.527 176.928 707.527 175.279C707.527 174.57 707.527 173.985 707.527 173.524C707.527 173.134 707.527 172.939 707.527 172.939Z" fill="#263238"/>
<path d="M754.573 197.613C754.519 197.666 753.505 196.869 751.956 195.433C750.407 193.997 748.378 191.87 746.349 189.424C744.266 186.925 742.611 184.585 741.49 182.777C740.368 181.022 739.728 179.852 739.781 179.852C739.888 179.799 740.582 180.863 741.81 182.564C743.038 184.266 744.747 186.606 746.776 189.052C748.806 191.498 750.781 193.625 752.223 195.167C753.718 196.656 754.626 197.56 754.573 197.613Z" fill="#263238"/>
<path d="M749.233 207.61C749.179 207.663 748.912 207.344 748.378 206.812C747.898 206.281 747.204 205.43 746.403 204.366C745.602 203.303 744.747 201.92 743.946 200.378C743.145 198.836 742.344 197.028 741.703 195.114C741.063 193.146 740.635 191.285 740.368 189.53C740.155 187.775 739.995 186.18 740.048 184.851C740.048 183.521 740.101 182.458 740.208 181.713C740.262 180.969 740.315 180.597 740.368 180.597C740.475 180.597 740.315 182.245 740.422 184.851C740.475 186.18 740.635 187.722 740.902 189.424C741.169 191.179 741.597 193.04 742.237 194.954C742.878 196.815 743.626 198.57 744.373 200.165C745.174 201.707 745.975 203.037 746.723 204.153C748.218 206.334 749.286 207.557 749.233 207.61Z" fill="#263238"/>
<path d="M618.616 176.874C618.581 176.874 618.403 176.662 618.082 176.236C617.762 175.775 617.352 175.173 616.854 174.428C615.733 172.727 614.237 170.44 612.422 167.675L612.796 167.622C611.461 170.653 610.286 174.428 609.752 178.629L609.645 179.48L609.218 178.735C608.951 178.151 608.577 177.566 608.257 176.928C605.106 170.812 603.878 164.644 603.558 160.177C603.397 157.944 603.451 156.136 603.504 154.913C603.557 154.275 603.611 153.796 603.611 153.477C603.646 153.158 603.682 152.999 603.718 152.999C603.771 152.999 603.718 153.69 603.718 154.913C603.718 156.136 603.718 157.944 603.931 160.177C604.358 164.538 605.64 170.653 608.737 176.662C609.058 177.3 609.432 177.885 609.699 178.47L609.218 178.576C609.752 174.322 610.98 170.493 612.369 167.462L612.582 167.037L612.796 167.409C614.558 170.227 616 172.567 617.068 174.269C617.53 175.049 617.922 175.687 618.243 176.183C618.492 176.644 618.616 176.874 618.616 176.874Z" fill="#263238"/>
<path d="M667.371 152.573C667.371 152.573 667.388 152.733 667.424 153.052C667.424 153.371 667.477 153.849 667.477 154.488C667.531 155.657 667.531 157.412 667.371 159.592C667.05 163.9 665.982 169.855 663.526 176.024C663.259 176.768 662.885 177.513 662.618 178.257L662.404 178.682L662.137 178.31C659.467 174.801 657.011 171.61 654.928 168.951L655.356 168.845C654.608 171.663 654.021 173.95 653.593 175.705C653.38 176.449 653.202 177.069 653.059 177.566C652.953 177.991 652.881 178.204 652.846 178.204C652.846 178.204 652.881 177.973 652.953 177.513C653.059 177.016 653.184 176.378 653.326 175.598C653.754 173.897 654.288 171.557 654.875 168.739L654.982 168.313L655.302 168.685C657.385 171.344 659.841 174.482 662.565 177.938L662.084 177.991C662.404 177.3 662.725 176.555 662.992 175.811C665.448 169.696 666.516 163.793 666.943 159.539C667.157 157.412 667.21 155.657 667.264 154.488C667.317 153.265 667.317 152.573 667.371 152.573Z" fill="#263238"/>
<path d="M565.537 178.948C565.572 178.948 565.608 179.09 565.643 179.374C565.679 179.657 565.75 180.065 565.857 180.597C565.999 181.66 566.231 183.202 566.551 185.223C567.139 189.211 567.94 195.06 568.687 202.239C570.343 216.703 572.051 236.697 573.6 258.765C575.095 280.886 576.27 300.88 577.071 315.397C577.498 322.629 577.819 328.478 578.032 332.572C578.139 334.558 578.228 336.118 578.299 337.252C578.299 337.748 578.317 338.138 578.353 338.422C578.353 338.705 578.353 338.847 578.353 338.847C578.317 338.847 578.299 338.705 578.299 338.422C578.264 338.138 578.228 337.748 578.192 337.252C578.086 336.153 577.961 334.593 577.819 332.572C577.552 328.478 577.178 322.629 576.697 315.397C575.789 300.933 574.561 280.939 573.013 258.818C571.464 236.697 569.862 216.756 568.313 202.292C567.566 195.06 566.872 189.264 566.338 185.223C566.088 183.238 565.893 181.696 565.75 180.597C565.679 180.1 565.626 179.693 565.59 179.374C565.554 179.125 565.537 178.984 565.537 178.948Z" fill="#263238"/>
<path d="M511.87 110.99C511.656 106.151 511.015 101.312 510.375 96.5264C510.232 95.3566 510.001 94.2044 509.68 93.07C508.239 87.5929 505.302 82.4881 501.884 77.915C498.413 73.2887 493.287 70.3641 487.626 68.9815C481.966 67.5989 478.708 66.0568 470.912 66.3759C457.081 66.9076 445.494 73.2887 436.95 84.1365C435.187 86.3699 433.746 88.8692 432.517 91.6343C421.624 110.99 419.968 145.023 420.983 167.144C444.426 171.079 478.281 166.24 506.103 164.857L505.729 155.658C505.729 155.658 511.282 164.644 512.617 164.591C517.797 164.272 522.817 163.953 527.516 163.687C519.239 150.872 514.7 130.825 511.87 110.99Z" fill="#263238"/>
<path d="M483.087 74.2461L476.786 73.6611L452.97 83.6581C449.499 83.924 446.829 86.7955 446.775 90.2519L451.208 159.487L452.329 172.887L465.999 188.946L487.947 173.418L486.505 158.795C486.505 158.795 502.525 156.881 506.21 138.057C507.972 128.698 508.025 113.277 507.651 100.621C507.278 89.2416 497.185 73.9802 483.087 74.2461Z" fill="#FFBF9D"/>
<path d="M486.558 158.795C486.558 158.795 473.155 159.221 460.125 150.872C460.125 150.872 467.121 165.761 487.092 164.538L486.558 158.795Z" fill="#FF9A6C"/>
<path d="M450.78 121.891C450.78 120.508 449.285 117.105 447.897 116.892C444.159 116.148 437.43 116.254 437.056 125.666C436.522 138.588 449.659 136.408 449.712 136.036C449.712 135.77 450.62 126.783 450.78 121.891Z" fill="#FFBF9D"/>
<path d="M446.295 131.197C446.241 131.144 446.081 131.356 445.707 131.516C445.333 131.675 444.639 131.782 443.998 131.463C442.663 130.931 441.595 128.698 441.595 126.411C441.595 125.241 441.916 124.125 442.343 123.221C442.824 122.263 443.411 121.625 444.159 121.519C444.799 121.413 445.28 121.838 445.44 122.21C445.6 122.582 445.494 122.848 445.6 122.848C445.6 122.902 445.867 122.636 445.761 122.104C445.761 121.838 445.6 121.572 445.28 121.306C445.013 121.04 444.532 120.881 444.052 120.934C443.037 120.934 442.129 121.838 441.649 122.795C441.061 123.805 440.741 125.082 440.688 126.411C440.688 128.964 441.916 131.463 443.785 132.101C444.692 132.367 445.44 132.101 445.867 131.835C446.295 131.516 446.348 131.25 446.295 131.197Z" fill="#FF9A6C"/>
<path d="M447.363 116.893L450.727 120.243C466.693 114.074 491.631 71.9062 490.083 73.98C490.083 73.98 480.31 70.2045 469.791 72.2252C459.217 74.2459 439.353 79.9357 439.94 92.3256C440.527 104.716 447.363 116.893 447.363 116.893Z" fill="#263238"/>
<path d="M499.481 116.361C499.481 117.637 498.413 118.701 497.078 118.754C495.69 118.754 494.622 117.743 494.622 116.467C494.622 115.191 495.69 114.127 497.025 114.127C498.36 114.074 499.481 115.085 499.481 116.361Z" fill="#263238"/>
<path d="M503.486 107.055C503.166 107.321 501.35 105.938 498.734 105.832C496.117 105.726 494.141 107.002 493.874 106.683C493.714 106.523 494.034 105.991 494.889 105.407C495.743 104.822 497.185 104.29 498.84 104.343C500.442 104.396 501.831 105.034 502.578 105.672C503.379 106.311 503.646 106.895 503.486 107.055Z" fill="#263238"/>
<path d="M487.092 127.847C487.092 127.74 488.694 127.475 491.364 127.262C492.059 127.209 492.699 127.102 492.806 126.624C492.966 126.145 492.753 125.401 492.432 124.656C491.863 123.026 491.258 121.306 490.617 119.498C488.107 112.16 486.291 106.151 486.612 106.045C486.879 105.992 489.175 111.841 491.685 119.126C492.29 120.934 492.877 122.671 493.447 124.337C493.661 125.082 494.034 125.932 493.661 126.943C493.5 127.421 492.966 127.794 492.539 127.9C492.112 128.006 491.738 128.006 491.418 128.006C488.748 128.059 487.092 128.006 487.092 127.847Z" fill="#263238"/>
<path d="M502.595 103.748C501.906 104.088 500.342 102.634 498.109 101.593C495.975 100.486 493.898 100.027 493.728 99.2538C493.631 98.8902 494.228 98.497 495.288 98.3703C496.274 98.263 497.816 98.4754 499.349 99.2357C500.836 99.9694 501.917 101.084 502.437 101.998C502.956 102.911 502.94 103.578 502.595 103.748Z" fill="#263238"/>
<path d="M471.072 115.776C471.019 117.052 472.087 118.169 473.422 118.222C474.757 118.275 475.878 117.318 475.932 116.042C475.985 114.766 474.917 113.649 473.582 113.596C472.194 113.543 471.072 114.5 471.072 115.776Z" fill="#263238"/>
<path d="M467.975 106.789C468.295 107.108 470.111 105.779 472.728 105.726C475.344 105.726 477.32 107.055 477.587 106.736C477.747 106.577 477.427 105.992 476.572 105.407C475.718 104.822 474.33 104.237 472.674 104.237C471.072 104.237 469.684 104.875 468.883 105.46C468.082 106.098 467.815 106.683 467.975 106.789Z" fill="#263238"/>
<path d="M469.807 99.8572C470.392 100.442 472.574 99.7378 475.241 99.5529C477.881 99.3218 480.153 99.733 480.64 99.0836C480.838 98.7856 480.491 98.1866 479.457 97.6768C478.468 97.1405 476.845 96.7855 475.012 96.9201C473.179 97.0546 471.612 97.65 470.768 98.3209C469.85 98.9724 469.528 99.588 469.807 99.8572Z" fill="#263238"/>
<path d="M489.124 133.458C489.231 133.671 488.911 134.149 488.11 134.628C487.309 135.053 486.027 135.479 484.639 135.426C483.197 135.319 481.969 134.841 481.221 134.309C480.473 133.777 480.206 133.245 480.313 133.086C480.634 132.714 482.396 133.671 484.692 133.724C487.042 133.884 488.857 133.086 489.124 133.458Z" fill="#263238"/>
<g opacity="0.2">
<path d="M463.063 122.582C462.849 124.071 465.839 125.773 469.844 126.464C473.849 127.155 477.267 126.517 477.481 125.028C477.748 123.593 474.704 121.891 470.752 121.2C466.747 120.508 463.33 121.147 463.063 122.582Z" fill="#FF725E"/>
</g>
<g opacity="0.2">
<path d="M496.971 125.507C496.758 126.943 498.146 128.432 500.175 128.751C502.151 129.07 503.967 128.166 504.234 126.73C504.447 125.294 503.059 123.806 501.03 123.487C499.054 123.114 497.238 124.018 496.971 125.507Z" fill="#FF725E"/>
</g>
<path d="M407.633 338.688L416.017 305.4C416.017 305.4 522.443 310.877 522.123 311.994C521.802 313.11 532.109 338.741 532.109 338.741L407.633 338.688Z" fill="#263238"/>
<path d="M488.161 168.473C488.801 168.686 523.565 178.045 523.565 178.045C523.565 178.045 509.894 277.377 509.894 278.121C509.894 278.812 527.783 320.396 527.143 321.512C526.502 322.576 409.075 323.905 409.075 322.257C409.075 320.661 416.978 291.096 417.192 282.96C417.406 274.877 414.522 174.269 414.522 174.269L450.62 167.144C450.62 167.144 456.174 175.014 468.189 175.545C481.592 176.183 488.161 168.473 488.161 168.473Z" fill="#D90452"/>
<g opacity="0.3">
<path d="M522.07 307.74C493.394 305.985 464.184 302.795 435.722 298.966C434.173 298.753 432.571 298.541 431.343 297.583C429.901 296.467 429.207 294.499 429.261 292.638C429.261 290.83 429.848 289.022 430.382 287.267C425.79 288.012 421.144 288.384 416.498 288.225L418.527 279.344L457.723 271.581L517.104 294.925L522.07 307.74Z" fill="black"/>
</g>
<path d="M522.016 178.044C522.016 178.044 537.074 178.044 541.186 206.759C544.604 230.848 546.313 269.932 544.123 286.204C543.162 293.382 538.463 296.147 537.235 296.892C529.812 301.518 444.158 292 438.658 290.83L442.556 268.602C442.556 268.602 495.85 270.783 516.088 262.647C516.088 262.647 512.777 228.189 513.845 224.254C514.86 220.319 522.016 178.044 522.016 178.044Z" fill="#D90452"/>
<path d="M515.18 252.384C515.18 252.384 509.573 250.417 502.792 248.502C496.651 246.747 490.403 245.471 490.403 245.471L493.18 264.987C493.18 264.987 498.787 266.369 499.855 266.582C503.219 267.167 516.088 262.647 516.088 262.647L515.18 252.384Z" fill="#FFBF9D"/>
<path d="M522.389 206.493C522.389 206.529 522.354 206.759 522.283 207.184C522.176 207.645 522.051 208.266 521.909 209.046C521.535 210.694 521.001 213.087 520.36 215.958C518.972 221.861 517.103 230.05 514.967 239.303V239.249C515.127 241.376 515.234 243.557 515.394 245.79C515.714 251.639 516.035 257.17 516.302 262.115V262.328L516.142 262.381C509.734 265.518 503.806 266.847 499.588 267.326C495.369 267.751 492.913 267.379 492.913 267.379C492.913 267.379 493.073 267.379 493.393 267.379C493.714 267.379 494.141 267.379 494.675 267.379C495.796 267.326 497.505 267.273 499.588 267.007C503.699 266.422 509.627 265.039 515.928 261.902L515.768 262.168C515.501 257.169 515.18 251.639 514.807 245.843C514.7 243.61 514.54 241.376 514.433 239.303V239.249V239.196C516.676 229.944 518.598 221.808 519.986 215.852C520.734 212.981 521.268 210.641 521.695 208.992C521.909 208.213 522.069 207.592 522.176 207.131C522.283 206.706 522.354 206.493 522.389 206.493Z" fill="#263238"/>
<path d="M440.047 282.96C440.082 282.995 440.065 283.173 439.993 283.492C439.958 283.917 439.887 284.431 439.78 285.034C439.566 286.47 439.192 288.384 438.819 290.83L438.658 290.67C446.668 291.734 460.125 293.382 475.344 294.924C487.68 296.148 498.894 296.998 507.01 297.424C511.069 297.69 514.38 297.796 516.622 297.902C517.726 297.938 518.598 297.973 519.239 298.009C519.844 298.044 520.147 298.062 520.147 298.062C520.147 298.097 519.844 298.115 519.239 298.115C518.598 298.115 517.726 298.115 516.622 298.115C514.326 298.115 511.069 298.009 507.01 297.849C498.894 297.477 487.68 296.679 475.291 295.456C460.018 293.967 446.615 292.213 438.658 290.989L438.445 290.936L438.498 290.777C438.979 288.331 439.353 286.416 439.62 285.034C439.726 284.396 439.833 283.882 439.94 283.492C440.011 283.137 440.047 282.96 440.047 282.96Z" fill="#263238"/>
<path d="M489.869 244.408C489.869 244.408 493.607 267.273 493.821 271.368C493.821 271.368 440.154 284.077 419.648 285.246C403.842 286.15 396.526 281.471 395.725 278.121C394.924 274.718 389.424 246.588 391.987 216.969C394.55 187.35 407.58 174.96 415.109 174.216L417.459 245.418L489.869 244.408Z" fill="#D90452"/>
<path d="M415.91 196.177C416.071 196.177 416.444 204.26 416.818 214.257C417.192 224.254 417.352 232.337 417.192 232.337C417.032 232.39 416.605 224.254 416.284 214.257C415.91 204.26 415.75 196.177 415.91 196.177Z" fill="#263238"/>
<path d="M431.396 245.418C431.396 245.418 424.401 233.453 423.173 232.124C422.105 230.954 412.119 220.479 410.784 221.276C409.449 222.074 408.968 224.945 410.303 226.753C411.692 228.561 413.988 231.114 413.988 231.114C413.988 231.114 401.706 224.148 400.371 225.158C399.036 226.168 402.293 230.529 402.293 230.529C402.293 230.529 400.585 232.496 403.842 236.272C407.099 240.047 412.546 245.418 412.546 245.418H431.396Z" fill="#FFBF9D"/>
<path d="M418.527 285.246C418.527 285.246 418.652 285.246 418.901 285.246C419.15 285.211 419.524 285.193 420.022 285.193C420.983 285.14 422.479 285.14 424.348 284.927C428.139 284.661 433.639 283.864 440.368 282.747C453.931 280.407 472.675 276.366 493.768 271.102L493.554 271.368C493.518 270.871 493.465 270.357 493.394 269.825C493.323 269.294 493.251 268.762 493.18 268.23C493.002 267.167 492.842 266.103 492.7 265.04C492.379 262.913 492.059 260.732 491.738 258.499C490.991 253.713 490.297 248.981 489.602 244.461L489.869 244.673C468.456 244.939 449.606 245.152 436.042 245.311C429.314 245.365 423.92 245.418 420.129 245.471C418.313 245.471 416.889 245.471 415.857 245.471C415.394 245.471 415.02 245.471 414.736 245.471C414.486 245.436 414.362 245.418 414.362 245.418C414.362 245.418 414.486 245.418 414.736 245.418C415.02 245.382 415.394 245.365 415.857 245.365C416.854 245.329 418.278 245.294 420.129 245.258C423.92 245.205 429.314 245.099 436.042 244.939C449.606 244.78 468.456 244.461 489.869 244.142H490.136V244.407C490.831 248.927 491.525 253.66 492.272 258.446C492.593 260.644 492.913 262.824 493.234 264.986C493.412 266.05 493.572 267.113 493.714 268.177C493.785 268.709 493.857 269.24 493.928 269.772C493.999 270.304 494.052 270.818 494.088 271.314V271.58L493.874 271.633C472.781 276.898 454.038 280.886 440.474 283.066C433.639 284.183 428.192 284.927 424.401 285.087C422.479 285.299 420.983 285.246 420.022 285.3C419.524 285.3 419.15 285.3 418.901 285.3C418.652 285.3 418.527 285.282 418.527 285.246Z" fill="#263238"/>
<path d="M415.963 233.028C416.017 232.975 416.658 233.507 417.619 234.464C418.58 235.474 419.862 236.857 421.09 238.558C422.318 240.207 423.333 241.855 424.027 243.025C424.668 244.248 424.988 244.993 424.935 245.046C424.774 245.152 423.119 242.174 420.663 238.877C418.206 235.58 415.857 233.134 415.963 233.028Z" fill="#FF9A6C"/>
<path d="M402.026 230.848C402.026 230.794 402.293 230.582 402.934 230.475C403.522 230.369 404.429 230.475 405.444 230.901C407.473 231.752 409.769 233.666 412.066 236.006C414.308 238.345 416.124 240.632 417.459 242.28C418.794 243.982 419.595 244.992 419.542 245.045C419.488 245.099 418.58 244.141 417.192 242.546C415.75 240.951 413.881 238.718 411.638 236.378C409.396 234.091 407.153 232.177 405.284 231.273C404.376 230.794 403.522 230.688 402.934 230.688C402.347 230.741 402.08 230.901 402.026 230.848Z" fill="#FF9A6C"/>
<path d="M194.994 64.1427C194.674 58.9847 190.081 54.4116 184.902 54.1989C187.945 49.2535 185.382 42.0748 180.256 39.3629C175.076 36.6509 168.348 38.0335 164.022 41.9153C161.512 37.7144 155.959 35.5874 151.206 36.97C146.507 38.4057 143.036 43.1915 143.196 48.0837C138.444 46.5948 133.104 50.4766 132.196 55.3156C131.235 60.1545 134.011 65.2062 138.07 68.0777C135.667 69.8857 135.88 73.8207 137.856 76.1072C139.832 78.4469 142.929 79.4041 145.92 79.9358L164.716 85.4661C169.202 87.9654 174.756 89.2416 179.615 87.3804C184.421 85.5725 187.892 79.8827 186.076 75.0969C191.149 74.2992 195.261 69.2476 194.994 64.1427Z" fill="#263238"/>
<path d="M187.678 105.886C190.829 101.259 190.562 94.6124 187.038 90.252C185.703 88.5504 183.887 87.2742 181.858 86.4766C181.537 83.0202 180.469 79.6169 178.173 77.0645C174.809 73.289 168.348 72.066 164.663 75.5224C161.886 69.5136 153.449 66.908 147.789 70.3644C142.929 64.6746 132.676 65.0468 128.244 71.0557C125.307 69.0882 121.249 69.035 118.258 70.8961C115.268 72.7573 113.613 76.4796 114.147 79.936C110.729 79.4042 107.044 80.7868 104.855 83.4456C102.666 86.1043 102.025 89.9862 103.253 93.2299C100.369 93.3894 97.6461 95.4632 96.7383 98.1752C95.8305 100.94 96.6849 104.184 98.9277 106.045C95.1363 110.406 96.2577 117.957 101.117 121.041C100.156 125.135 102.826 129.761 106.938 130.931L167.547 155.498C179.028 152.733 179.989 145.714 180.416 139.599C182.872 138.748 185.916 134.654 187.038 132.314C188.746 128.698 187.305 124.763 185.97 122.317C188.693 120.615 190.562 117.637 190.882 114.5C191.203 111.31 189.975 108.066 187.678 105.886Z" fill="#263238"/>
<path d="M109.661 191.604L133.157 181.714L167.76 173.578L178.067 172.195C178.067 172.195 176.465 195.167 156.813 201.389C137.162 207.663 101.384 213.938 109.661 191.604Z" fill="#AE7461"/>
<path d="M108.807 150.925C106.404 141.3 105.549 125.241 105.282 112.054C105.015 100.196 114.681 83.7644 129.366 83.2858L135.88 82.3818L161.192 91.528C164.77 91.5812 167.76 94.3995 167.974 98.0155L167.066 178.789L166.532 181.182L132.89 190.169L130.327 171.451C130.327 171.451 113.559 170.281 108.807 150.925Z" fill="#AE7461"/>
<path d="M138.07 145.501C137.91 144.491 137.269 143.587 136.521 142.949C135.026 141.779 132.89 141.726 131.342 142.842C129.793 143.959 128.992 146.193 129.312 148.213C130.274 149.383 131.609 150.181 133.104 150.287C133.353 150.287 133.584 150.287 133.798 150.287C134.919 150.181 136.094 149.808 136.895 148.958C137.75 148.107 138.23 146.777 138.07 145.501Z" fill="#6F4439"/>
<path d="M114.841 128.007C114.894 129.336 116.122 130.399 117.511 130.346C118.899 130.293 119.967 129.176 119.914 127.847C119.86 126.518 118.686 125.507 117.297 125.507C115.855 125.56 114.787 126.677 114.841 128.007Z" fill="#263238"/>
<path d="M110.996 118.488C111.316 118.807 113.132 117.212 115.855 116.999C118.579 116.733 120.661 117.956 120.928 117.637C121.088 117.477 120.715 116.893 119.807 116.361C118.899 115.776 117.35 115.297 115.642 115.457C113.986 115.616 112.598 116.361 111.85 117.052C111.049 117.743 110.836 118.381 110.996 118.488Z" fill="#263238"/>
<path d="M128.084 139.28C128.084 139.12 126.375 138.96 123.599 138.854C122.904 138.854 122.21 138.748 122.05 138.322C121.836 137.844 122.103 137.046 122.37 136.195C122.869 134.494 123.403 132.686 123.972 130.771C126.215 123.008 127.764 116.68 127.443 116.574C127.123 116.52 125.04 122.742 122.851 130.452C122.317 132.367 121.801 134.192 121.302 135.929C121.089 136.727 120.715 137.684 121.196 138.695C121.409 139.173 121.943 139.492 122.424 139.599C122.851 139.705 123.278 139.652 123.599 139.652C126.375 139.599 128.084 139.439 128.084 139.28Z" fill="#263238"/>
<path d="M130.327 171.398C130.327 171.398 143.677 171.132 156.172 162.198C156.172 162.198 151.046 177.3 131.128 177.141L130.327 171.398Z" fill="#6F4439"/>
<path d="M136.254 140.503C135.827 140.503 136.041 143.428 133.691 145.767C131.342 148.054 128.191 148.001 128.191 148.426C128.191 148.586 128.939 148.905 130.274 148.851C131.609 148.798 133.478 148.213 134.919 146.778C136.308 145.395 136.842 143.587 136.842 142.417C136.842 141.141 136.468 140.45 136.254 140.503Z" fill="#263238"/>
<path d="M112.385 108.97C112.865 109.608 114.948 108.97 117.404 108.97C119.861 108.863 121.943 109.448 122.424 108.81C122.637 108.491 122.317 107.853 121.409 107.268C120.501 106.683 119.006 106.205 117.351 106.205C115.642 106.258 114.2 106.79 113.292 107.428C112.438 108.013 112.171 108.651 112.385 108.97Z" fill="#263238"/>
<path d="M144.371 125.986C144.478 127.315 143.41 128.485 142.021 128.645C140.633 128.751 139.405 127.794 139.298 126.464C139.191 125.135 140.259 123.965 141.647 123.806C143.036 123.646 144.264 124.656 144.371 125.986Z" fill="#263238"/>
<path d="M146.827 116.361C146.507 116.733 144.531 115.404 141.808 115.51C139.084 115.617 137.162 117.106 136.841 116.786C136.681 116.68 136.948 116.042 137.803 115.351C138.657 114.713 140.099 114.021 141.808 113.968C143.463 113.862 144.958 114.447 145.813 115.032C146.667 115.617 146.987 116.202 146.827 116.361Z" fill="#263238"/>
<path d="M147.041 107.747C146.507 108.385 144.371 107.8 141.861 107.906C139.298 107.906 137.162 108.544 136.628 107.906C136.415 107.64 136.735 107.002 137.643 106.364C138.551 105.726 140.046 105.194 141.808 105.141C143.57 105.141 145.065 105.62 145.973 106.205C146.934 106.79 147.255 107.428 147.041 107.747Z" fill="#263238"/>
<path d="M126.535 81.9565C126.535 82.0983 126.518 82.2401 126.482 82.3819H126.589C126.589 82.2401 126.571 82.0983 126.535 81.9565Z" fill="#263238"/>
<path d="M165.945 127.368C165.838 126.092 166.692 124.976 167.974 124.71C171.178 124.018 176.838 124.018 177.372 132.048C178.173 143.108 166.852 141.566 166.799 141.247C166.746 141.035 166.212 131.623 165.945 127.368Z" fill="#AE7461"/>
<path d="M169.896 136.833C169.95 136.78 170.11 136.94 170.43 137.099C170.751 137.206 171.338 137.259 171.872 136.993C173.047 136.514 173.901 134.6 173.794 132.579C173.741 131.569 173.474 130.612 173.047 129.868C172.673 129.07 172.086 128.538 171.498 128.485C170.911 128.379 170.537 128.751 170.377 129.07C170.27 129.389 170.377 129.602 170.323 129.655C170.27 129.655 170.056 129.495 170.11 129.017C170.163 128.804 170.27 128.538 170.484 128.272C170.751 128.06 171.124 127.9 171.552 127.953C172.406 127.953 173.26 128.644 173.688 129.495C174.168 130.346 174.542 131.41 174.595 132.526C174.649 134.813 173.688 136.94 172.086 137.525C171.338 137.791 170.644 137.578 170.323 137.365C169.95 137.099 169.843 136.887 169.896 136.833Z" fill="#6F4439"/>
<path d="M176.518 89.4543L166.799 82.382L148.109 85.732C144.691 82.9669 140.313 81.4248 135.88 80.9994C129.793 80.4676 123.705 81.9565 117.885 83.924C114.467 85.0407 110.996 86.4233 108.486 88.9757C105.709 91.6877 104.321 95.4631 102.986 99.0791C102.025 101.738 101.01 104.397 100.583 107.162C100.156 109.927 100.263 112.852 101.437 115.457C101.687 115.457 101.936 115.475 102.185 115.51L103.253 116.255C105.282 116.308 107.365 115.351 108.7 113.756C109.981 112.16 110.569 109.98 110.142 107.959C112.331 108.013 114.574 106.949 115.962 105.194C117.351 103.439 117.831 101.047 117.19 98.8664C119.593 100.036 122.584 100.089 124.987 98.9196C127.39 97.8029 129.259 95.5163 129.846 92.9107C129.846 93.8147 130.487 94.6123 131.235 95.0377C132.036 95.4632 132.997 95.5695 133.851 95.5163C136.842 95.3036 139.565 93.3361 140.793 90.6242C142.555 93.6552 146.721 94.9846 149.978 93.602C150.12 93.5311 150.263 93.4425 150.405 93.3361C151.58 96.8989 154.784 99.8235 158.575 100.408C156.172 101.312 154.677 104.184 155.425 106.63C156.119 109.076 158.896 110.778 161.406 110.299C160.765 111.894 160.071 113.543 160.124 115.298C160.177 117.052 161.139 118.86 162.794 119.392C161.993 120.456 160.338 125.029 160.872 126.73C161.245 128.007 162.42 132.314 164.983 132.314C166.639 132.314 168.508 124.922 170.163 124.603C172.566 124.125 175.183 124.922 176.945 126.624L179.028 105.992L176.518 89.4543Z" fill="#263238"/>
<path d="M181.057 91.0496C181.057 90.9964 180.309 91.1559 179.134 90.8369C177.96 90.571 176.144 89.6138 175.396 87.5932L174.916 86.3701L174.756 87.6995C174.542 89.0821 173.741 90.6242 172.353 91.7409C171.018 92.8575 168.988 93.2829 167.119 92.7512C165.891 92.4321 164.823 91.794 164.022 90.89L163.648 90.5178L163.381 90.9432C162.313 92.6448 160.711 93.7615 159.109 94.3465C157.561 94.9314 155.959 94.9314 154.731 94.7187C152.221 94.2933 150.993 93.1766 150.939 93.2829C150.886 93.3361 151.153 93.602 151.794 94.0274C152.381 94.4528 153.342 94.9846 154.624 95.2504C155.959 95.5695 157.614 95.6227 159.376 95.0377C161.085 94.4528 162.847 93.2298 164.076 91.4218H163.435C164.289 92.4853 165.517 93.2298 166.906 93.5488C169.042 94.1869 171.338 93.602 172.887 92.3258C174.435 91.1027 175.236 89.348 175.396 87.7527L174.756 87.859C175.717 90.1456 177.746 90.9964 179.028 91.2091C180.363 91.4218 181.11 91.1028 181.057 91.0496Z" fill="#455A64"/>
<path d="M151.954 69.4071C151.901 69.5666 153.716 70.0452 156.066 71.6405C157.187 72.4913 158.415 73.7143 159.11 75.4691C159.804 77.1707 159.644 79.4041 158.255 80.9462C157.775 81.478 157.187 81.8502 156.6 82.0629L156.119 82.2224L156.386 82.6478C157.401 84.1899 157.134 86.1574 156.493 87.5932C155.799 89.0289 154.731 90.0392 153.77 90.8369C151.794 92.3258 150.459 93.0702 150.512 93.1766C150.566 93.2298 150.886 93.1234 151.527 92.8044C152.168 92.4853 153.075 92.0067 154.09 91.2623C155.105 90.5178 156.333 89.5075 157.134 87.9122C157.935 86.3701 158.309 84.1367 157.08 82.2224L156.867 82.8605C157.614 82.5946 158.309 82.1161 158.843 81.478C160.498 79.67 160.605 77.0112 159.804 75.2032C159.056 73.2889 157.668 72.0127 156.386 71.1619C155.158 70.3643 153.983 69.9389 153.182 69.673C152.435 69.4603 151.954 69.3539 151.954 69.4071Z" fill="#455A64"/>
<path d="M75.9655 153.106C75.5917 153.372 81.3589 147.309 85.4173 144.544C86.0581 144.119 93.0535 143.959 93.0535 143.959L90.8641 141.247C90.8641 141.247 81.6793 141.141 80.8783 140.503C78.2617 138.536 80.3443 135.451 80.3443 135.451C80.3443 135.451 79.4365 133.59 81.6793 132.846C83.9755 132.101 88.4077 135.451 88.4077 135.451C88.4077 135.451 95.3497 135.292 96.3109 135.664C97.2721 136.036 107.845 142.098 108.433 143.747C108.967 145.342 111.37 162.252 111.37 162.252L122.263 179.853L109.981 190.275C109.981 190.275 98.1799 185.649 96.4711 183.575C94.8157 181.555 92.3593 178.364 86.1649 177.407C79.9171 176.503 77.1403 178.896 75.8053 177.035C74.4703 175.174 75.2179 173.685 80.3443 171.239C85.4173 168.792 92.1457 173.312 94.0681 169.909C95.9371 166.559 94.6021 156.828 94.6021 156.828C94.6021 156.828 89.5291 153.425 87.6601 152.68C85.7911 151.936 81.1453 156.243 79.4365 156.137C76.7665 155.977 75.9655 153.106 75.9655 153.106Z" fill="#AE7461"/>
<path d="M101.224 163.847C101.224 163.847 101.206 163.67 101.17 163.315C101.135 162.89 101.099 162.358 101.064 161.72C101.01 160.284 100.957 158.37 100.85 155.977C100.797 155.392 100.743 154.754 100.476 154.222C100.156 153.69 99.6752 153.265 99.0878 152.946C98.447 152.574 97.8062 152.308 97.112 151.936C96.4178 151.563 95.7236 151.138 95.1362 150.553C94.5488 149.968 94.0148 149.277 93.5876 148.532C93.1604 147.788 92.84 146.937 92.7866 145.98C92.7866 145.501 92.84 145.023 93.107 144.544C93.3206 144.119 93.8012 143.747 94.3352 143.693C95.4566 143.587 96.2576 144.172 97.112 144.544C100.423 146.246 103.627 147.735 106.35 149.489C107.044 149.915 107.685 150.34 108.273 150.925C108.86 151.457 109.234 152.148 109.447 152.893C109.928 154.275 109.875 155.658 109.768 156.881C109.554 159.327 109.341 161.241 109.447 162.624C109.447 163.297 109.43 163.811 109.394 164.166C109.394 164.52 109.376 164.698 109.341 164.698C109.287 164.698 109.341 163.953 109.234 162.624C109.074 161.241 109.234 159.274 109.394 156.881C109.447 155.658 109.447 154.328 109.02 152.999C108.807 152.361 108.433 151.776 107.899 151.244C107.418 150.766 106.724 150.34 106.083 149.915C103.36 148.213 100.156 146.724 96.845 145.076C96.044 144.651 95.1896 144.172 94.442 144.225C93.641 144.331 93.2672 145.182 93.3206 145.98C93.3206 146.778 93.6944 147.575 94.0682 148.266C94.442 149.011 94.9226 149.649 95.4566 150.181C96.044 150.713 96.6848 151.191 97.3256 151.51C97.9664 151.882 98.6606 152.148 99.3014 152.521C99.9422 152.893 100.53 153.371 100.85 154.063C101.17 154.701 101.224 155.392 101.224 155.977C101.277 158.317 101.277 160.284 101.277 161.72C101.277 162.358 101.277 162.872 101.277 163.262C101.277 163.652 101.259 163.847 101.224 163.847Z" fill="#6F4439"/>
<path d="M80.3447 135.558C80.3447 135.398 82.3205 135.186 84.7769 135.239C87.2867 135.292 89.2625 135.345 89.2625 135.505C89.2625 135.664 87.2333 135.877 84.7769 135.824C82.3205 135.717 80.3447 135.664 80.3447 135.558Z" fill="#6F4439"/>
<path d="M100.369 146.14C100.263 146.14 100.263 145.501 99.7287 144.651C99.1947 143.8 97.9665 143.002 96.4713 142.47C93.5343 141.407 90.8643 141.46 90.8643 141.247C90.8643 141.141 93.5343 140.875 96.6849 141.992C98.2335 142.524 99.5151 143.428 100.049 144.438C100.583 145.448 100.369 146.193 100.369 146.14Z" fill="#6F4439"/>
<path d="M80.1309 150.287C80.2911 149.543 77.8347 140.928 72.0141 142.364C66.1935 143.8 60.6933 145.448 60.6933 145.448L59.8389 145.289C59.8389 145.289 59.8389 136.143 61.7079 134.547C63.5769 132.952 71.2665 137.153 74.3103 134.547C77.3541 131.942 75.6453 130.506 75.3249 130.081C75.0579 129.655 62.7759 126.518 60.4797 126.837C60.4797 126.837 63.6303 122.37 63.6303 121.094C63.7905 117.744 59.6787 118.488 58.2369 119.392C56.7951 120.243 47.0229 129.283 46.2753 132.739C45.7947 134.76 46.0617 145.129 44.8869 145.076C43.7121 145.023 41.5761 140.184 41.4159 135.983C41.2557 131.782 41.5761 127.581 40.4013 127.05C39.2265 126.465 36.1293 126.89 36.1293 130.347C36.1293 133.803 36.0225 143.8 36.9303 146.406C37.7847 148.958 38.4789 150.447 38.4789 151.298C38.4789 152.149 27.3183 164.007 26.4639 169.324C25.6095 174.695 27.7455 231.646 27.7455 231.646L50.5473 217.342L41.6829 178.47C41.6829 178.47 53.3241 177.726 55.8873 174.961C58.5039 172.249 68.9703 178.47 72.1743 178.577C75.3249 178.736 76.9269 173.259 71.6937 170.494C66.5139 167.782 60.8535 168.208 60.4263 166.027C59.9457 163.847 62.7225 155.764 63.0429 154.329C63.3099 152.893 70.0383 149.33 71.3199 149.915C72.6549 150.5 75.8055 156.562 78.5823 154.967C81.3057 153.425 80.1309 150.287 80.1309 150.287Z" fill="#AE7461"/>
<path d="M52.9505 145.342C52.8437 145.449 52.7903 144.013 52.8437 141.886C52.8437 140.769 52.8971 139.493 53.0039 138.004C53.1641 136.568 53.2709 134.973 53.9651 133.378C54.6593 131.782 55.8341 130.559 56.8487 129.549C57.9167 128.539 58.8779 127.741 59.6789 126.997C61.2809 125.508 62.0285 124.391 62.1353 124.444C62.1353 124.444 61.9751 124.763 61.6547 125.295C61.2809 125.774 60.7469 126.465 59.9459 127.263C59.1983 128.06 58.2371 128.911 57.2225 129.921C56.2079 130.932 55.1399 132.101 54.4991 133.59C53.8583 135.079 53.6981 136.675 53.5379 138.057C53.3777 139.493 53.2709 140.769 53.2175 141.886C53.0573 144.013 53.0039 145.449 52.9505 145.342Z" fill="#6F4439"/>
<path d="M42.4306 153.265C42.3772 153.212 43.2316 152.893 44.6734 152.468C46.1152 152.042 48.1444 151.617 50.3872 151.298C52.6834 151.032 54.766 150.925 56.2078 150.979C57.703 151.032 58.6642 151.138 58.6642 151.191C58.6642 151.351 54.9796 151.298 50.494 151.883C46.0084 152.414 42.484 153.425 42.4306 153.265Z" fill="#6F4439"/>
<path d="M41.7364 172.196C41.683 172.196 42.1636 171.292 43.1248 170.069C44.1394 168.846 45.688 167.303 47.7172 165.974C49.7464 164.645 51.829 163.847 53.3242 163.422C54.8728 163.049 55.834 162.943 55.834 162.996C55.8874 163.209 51.9892 163.847 48.0376 166.453C44.0326 169.005 41.8966 172.355 41.7364 172.196Z" fill="#6F4439"/>
<path d="M91.8787 197.188C85.1503 203.41 58.3969 235.528 58.3969 235.528L52.3627 216.172L26.3569 232.497C29.1337 251.906 35.7019 270.783 50.2801 276.686C50.2801 276.686 55.0861 277.909 58.3435 276.101C66.1399 271.9 99.1411 245.472 99.1411 245.472L104.161 193.147C104.161 193.147 98.6071 190.967 91.8787 197.188Z" fill="#D90452"/>
<path d="M219.398 338.742C219.398 338.742 202.737 298.222 201.509 289.98C200.334 281.791 203.912 213.832 203.912 213.832L187.732 171.93L175.076 171.239C174.489 174.004 149.978 207.398 136.041 205.058C122.103 202.719 118.365 187.457 118.365 187.457L98.7675 193.147C98.7675 193.147 93.6945 252.704 97.6995 265.944C101.544 278.813 117.992 301.147 117.992 308.166C117.992 315.185 111.797 339.22 111.797 339.22L219.398 338.742Z" fill="#D90452"/>
<path d="M122.263 179.853C124.293 181.874 162.153 225.69 162.153 225.69C162.153 225.69 160.925 262.275 146.08 250.045L108.059 187.989L122.263 179.853Z" fill="#AE7461"/>
<path d="M79.2765 147.31C79.3299 147.31 79.8105 147.948 80.3979 149.224C80.6649 149.809 80.9853 150.606 80.9853 151.564C81.0387 152.468 80.8251 153.584 80.0241 154.435C79.2231 155.286 78.0483 155.499 77.1405 155.392C76.1793 155.286 75.4317 154.807 74.8977 154.329C73.8831 153.372 73.6161 152.521 73.6695 152.468C73.7763 152.414 74.1501 153.212 75.1647 154.063C75.6453 154.435 76.3395 154.807 77.1939 154.861C77.9949 154.967 78.9561 154.701 79.5969 154.063C80.2911 153.372 80.5047 152.414 80.5047 151.564C80.5047 150.713 80.2911 149.968 80.0241 149.33C79.5435 148.107 79.1697 147.363 79.2765 147.31Z" fill="#6F4439"/>
<path d="M98.9279 218.458C98.9279 218.458 98.8745 218.937 98.7677 219.788C98.5897 220.78 98.3939 222.004 98.1803 223.457C97.6997 226.488 97.1657 230.742 96.7385 235.422C96.3647 240.154 96.2045 244.408 96.1511 247.546C96.1155 248.999 96.0977 250.222 96.0977 251.215C96.0977 252.065 96.0443 252.544 96.0443 252.544C95.9909 252.544 95.9375 252.065 95.8841 251.215C95.8307 250.311 95.7773 249.088 95.7773 247.546C95.7239 244.408 95.7773 240.101 96.2045 235.368C96.5783 230.689 97.2191 226.435 97.8065 223.351C98.0735 221.862 98.3405 220.586 98.5541 219.788C98.7143 218.937 98.8745 218.458 98.9279 218.458Z" fill="#263238"/>
<path d="M187.198 172.036C187.198 172.036 204.927 173.685 208.184 190.169C211.922 208.887 201.616 266.795 186.29 277.271C170.11 288.278 148.002 252.225 148.002 252.225L158.576 220.798L169.629 229.253L187.198 172.036Z" fill="#D90452"/>
<path d="M204.286 231.646C204.286 231.646 204.286 231.735 204.286 231.912C204.25 232.089 204.233 232.337 204.233 232.656C204.126 233.294 204.019 234.252 203.805 235.528C203.378 238.027 202.631 241.59 201.509 245.95C200.441 250.311 198.999 255.469 197.13 261.105C196.668 262.523 196.169 263.977 195.635 265.466C195.048 266.901 194.3 268.337 193.446 269.72C191.684 272.485 189.334 275.037 186.344 276.898C184.902 277.856 183.246 278.547 181.591 278.866C179.882 279.185 178.12 279.132 176.518 278.76C173.314 278.068 170.484 276.42 168.027 274.718C163.168 271.209 159.323 267.433 156.333 264.03C153.342 260.627 151.313 257.596 149.978 255.469C149.284 254.405 148.803 253.554 148.483 252.969C148.341 252.686 148.216 252.455 148.109 252.278C148.038 252.136 148.002 252.065 148.002 252.065C148.038 252.065 148.091 252.136 148.163 252.278C148.269 252.42 148.412 252.633 148.59 252.916C148.91 253.448 149.444 254.299 150.138 255.309C151.527 257.436 153.663 260.414 156.653 263.764C159.644 267.114 163.488 270.836 168.348 274.293C170.751 275.994 173.528 277.537 176.678 278.228C178.227 278.547 179.829 278.6 181.484 278.334C183.086 278.015 184.635 277.324 186.077 276.42C188.907 274.612 191.256 272.113 192.965 269.454C194.781 266.795 195.689 263.764 196.65 260.946C198.519 255.309 200.014 250.204 201.135 245.844C202.31 241.483 203.111 237.921 203.592 235.475C203.859 234.252 204.019 233.294 204.072 232.656C204.144 232.337 204.197 232.089 204.233 231.912C204.268 231.735 204.286 231.646 204.286 231.646Z" fill="#263238"/>
<path d="M176.785 236.91C176.732 236.963 175.717 236.059 174.115 234.624C172.46 233.028 170.324 231.114 167.974 228.934C165.571 226.807 163.435 224.839 161.726 223.297C160.124 221.862 159.163 220.958 159.216 220.904C159.27 220.851 160.338 221.649 161.993 223.031C163.649 224.361 165.891 226.328 168.348 228.508C170.751 230.742 172.887 232.816 174.435 234.358C175.931 235.847 176.838 236.857 176.785 236.91Z" fill="#263238"/>
<path d="M181.804 194.689C181.965 194.742 179.348 202.559 175.984 212.077C172.62 221.596 169.789 229.306 169.629 229.253C169.522 229.2 172.086 221.436 175.45 211.918C178.814 202.346 181.644 194.636 181.804 194.689Z" fill="#263238"/>
<path d="M340.937 68.6622C345.049 69.0876 349.267 66.3756 350.549 62.4938C350.923 61.324 351.083 59.9946 350.656 58.8779C350.228 57.708 349.107 56.7509 347.879 56.6977C349.481 55.5278 350.709 53.7198 350.923 51.7523C351.19 49.7848 350.389 47.6578 348.787 46.4348C347.238 45.2118 344.835 45.1054 343.18 46.2753C343.18 44.0951 341.791 42.0212 339.815 41.1704L331.004 43.457L340.937 68.6622Z" fill="#263238"/>
<path d="M330.364 160.656L329.723 135.078C329.723 135.078 348.093 131.516 347.559 113.117C347.345 104.237 345.369 85.9442 343.393 69.4598C341.257 51.6991 325.771 38.5648 307.829 39.256L306.067 39.3624C286.896 41.2236 277.765 58.4524 280.168 77.4893L288.658 148.532L305.052 159.752L330.364 160.656Z" fill="#FFBF9D"/>
<path d="M329.723 135.132C329.723 135.132 318.082 136.514 305.426 130.931C305.426 130.931 311.46 142.204 329.83 139.811L329.723 135.132Z" fill="#FF9A6C"/>
<path d="M335.009 86.9549C335.116 88.3374 333.995 89.5605 332.553 89.6668C331.111 89.8264 329.883 88.816 329.776 87.4334C329.669 86.0509 330.737 84.8279 332.179 84.6683C333.621 84.562 334.902 85.5723 335.009 86.9549Z" fill="#263238"/>
<path d="M339.762 78.6061C339.442 78.9783 337.413 77.5958 334.529 77.7021C331.699 77.7553 329.67 79.2974 329.349 78.9783C329.189 78.8188 329.509 78.1807 330.417 77.4894C331.272 76.7981 332.767 76.1068 334.529 76.0537C336.291 76.0005 337.84 76.5854 338.694 77.2235C339.602 77.8616 339.922 78.4466 339.762 78.6061Z" fill="#263238"/>
<path d="M310.339 87.699C310.445 89.0816 309.324 90.3046 307.882 90.4641C306.44 90.5705 305.159 89.5601 305.052 88.1776C304.945 86.795 306.067 85.572 307.508 85.4125C308.95 85.3061 310.232 86.3164 310.339 87.699Z" fill="#263238"/>
<path d="M311.887 80.2013C311.566 80.5735 309.484 79.191 306.654 79.2973C303.823 79.4037 301.794 80.8926 301.474 80.5735C301.314 80.414 301.634 79.8291 302.489 79.0846C303.396 78.4465 304.891 77.7021 306.654 77.6489C308.416 77.5957 309.911 78.1806 310.819 78.8187C311.727 79.4569 312.047 80.0418 311.887 80.2013Z" fill="#263238"/>
<path d="M322.994 100.78C322.994 100.621 324.757 100.249 327.587 99.77C328.281 99.6637 328.975 99.5042 329.082 99.0256C329.242 98.4938 328.922 97.7494 328.495 96.8986C327.747 95.1615 326.964 93.3535 326.145 91.4746C322.888 83.7642 320.485 77.4363 320.805 77.2768C321.072 77.1704 324.009 83.2856 327.266 90.9961C328.085 92.9104 328.851 94.7361 329.563 96.4731C329.883 97.2708 330.364 98.1748 330.043 99.2915C329.883 99.8232 329.349 100.249 328.922 100.408C328.441 100.568 328.014 100.568 327.694 100.621C324.81 100.887 322.994 100.94 322.994 100.78Z" fill="#263238"/>
<path d="M314.717 103.067C315.198 103.014 315.305 106.098 318.028 108.172C320.752 110.246 324.009 109.767 324.062 110.193C324.116 110.405 323.368 110.831 321.98 110.937C320.591 111.043 318.616 110.671 316.96 109.395C315.251 108.119 314.504 106.364 314.344 105.141C314.183 103.812 314.504 103.067 314.717 103.067Z" fill="#263238"/>
<path d="M312.154 69.1406C311.94 69.8851 309.057 69.6192 305.746 70.151C302.435 70.6295 299.765 71.6931 299.338 71.055C299.124 70.7359 299.552 69.9914 300.62 69.1938C301.634 68.3962 303.343 67.6517 305.319 67.3327C307.348 67.0136 309.164 67.2795 310.392 67.7049C311.62 68.1835 312.261 68.7684 312.154 69.1406Z" fill="#263238"/>
<path d="M338.427 70.47C337.946 71.1613 335.97 70.5232 333.567 70.6295C331.218 70.5764 329.242 71.2145 328.761 70.5764C328.548 70.2573 328.868 69.566 329.723 68.9279C330.524 68.2898 331.965 67.7581 333.567 67.7581C335.169 67.7049 336.611 68.2366 337.466 68.8748C338.32 69.5129 338.587 70.151 338.427 70.47Z" fill="#263238"/>
<path d="M341.257 61.1115C341.257 61.1115 335.971 49.7851 330.257 47.2859C323.368 44.308 320.752 51.8058 314.237 50.2637C307.775 48.7216 301.207 45.8501 294.799 51.0613C287.804 56.7511 291.328 60.4202 291.221 68.6093C290.687 101.791 284.974 111.362 282.677 95.8352C282.41 94.1335 277.604 92.9637 276.59 85.785C275.308 76.4792 274.507 65.0997 276.376 58.3995C277.925 52.7098 280.969 48.7216 286.522 44.2549C295.333 37.1825 307.829 36.5444 316.319 37.0762C324.81 37.5547 341.471 46.6477 341.257 61.1115Z" fill="#263238"/>
<path d="M283.799 95.3034C283.585 92.4319 281.022 90.3049 278.192 90.6771C274.774 91.1557 271.036 93.2295 271.517 100.302C272.424 112.904 284.92 109.395 284.92 109.023C284.92 108.81 284.226 100.568 283.799 95.3034Z" fill="#FFBF9D"/>
<path d="M281.823 104.503C281.769 104.45 281.609 104.662 281.235 104.875C280.915 105.088 280.274 105.247 279.633 105.035C278.245 104.609 276.963 102.589 276.75 100.355C276.643 99.1853 276.803 98.1218 277.124 97.1646C277.444 96.2074 278.031 95.5161 278.672 95.3566C279.313 95.1439 279.847 95.5161 280.007 95.8884C280.221 96.2074 280.167 96.4733 280.221 96.4733C280.274 96.5265 280.488 96.2606 280.328 95.7289C280.274 95.5162 280.114 95.1971 279.794 94.9844C279.473 94.7717 278.993 94.6654 278.565 94.7717C277.551 94.8781 276.75 95.8352 276.376 96.8987C275.949 97.9091 275.735 99.1321 275.895 100.408C276.109 102.961 277.604 105.247 279.473 105.62C280.381 105.779 281.075 105.46 281.449 105.141C281.823 104.822 281.876 104.503 281.823 104.503Z" fill="#FF9A6C"/>
<path d="M346.17 36.5974C344.888 33.4601 341.738 31.333 338.427 30.6418C335.116 29.9505 331.645 30.4822 328.388 31.4926C328.388 26.9195 323.155 23.7821 318.562 24.2075C314.023 24.6861 310.125 27.6107 306.494 30.3759C300.673 27.3449 292.503 30.4291 290.207 36.4911C286.736 34.8958 282.464 35.268 279.313 37.4482C276.216 39.6284 274.4 43.5102 274.721 47.2857C271.784 48.0302 269.327 50.5294 268.633 53.4541C267.939 56.4319 269.007 59.7288 271.303 61.7495C269.274 63.1852 268.366 66.0567 269.167 68.3964C269.968 70.7893 272.425 72.4909 274.934 72.4378L283.478 63.7701C288.551 64.3019 293.571 59.782 293.464 54.7303C297.416 55.9533 302.008 54.5708 304.625 51.3802C305.586 53.6668 307.775 55.4216 310.232 55.847C312.688 56.2724 315.358 55.4216 317.12 53.6668C317.654 57.0168 320.271 59.9415 323.582 60.8455C326.839 61.7495 330.631 60.5796 332.82 58.0272C336.184 60.4201 341.364 59.782 343.981 56.5914C346.597 53.4541 346.33 48.296 343.34 45.4246C346.33 43.8293 347.398 39.7348 346.17 36.5974Z" fill="#263238"/>
<path d="M292.984 56.8575C293.037 56.8575 293.037 57.2297 292.823 57.921C292.61 58.5591 292.129 59.5162 291.221 60.4202C290.314 61.271 288.818 62.1218 287.056 62.175C285.294 62.2282 283.265 61.5369 281.823 59.9948L282.571 59.8885C281.983 60.8456 281.236 61.6964 280.221 62.3345C278.192 63.7703 275.629 64.0893 273.546 63.5044C271.463 62.8663 270.022 61.4306 269.221 60.1012C268.366 58.7186 268.153 57.3892 268.099 56.5384C268.099 55.6344 268.206 55.209 268.259 55.209C268.473 55.1558 268.099 57.2297 269.755 59.7289C270.556 60.952 271.944 62.175 273.813 62.6536C275.629 63.1853 277.871 62.8131 279.74 61.5901C280.595 61.0051 281.289 60.2607 281.77 59.4631L282.09 58.9313L282.517 59.3567C283.745 60.7393 285.508 61.3774 287.056 61.3774C288.605 61.3774 289.94 60.6861 290.794 59.9416C292.61 58.3996 292.823 56.8043 292.984 56.8575Z" fill="#455A64"/>
<path d="M283.585 147.735L287.43 138.535L310.872 152.361L330.203 139.014L335.383 150.34C335.383 150.34 347.024 156.774 347.184 157.253C347.345 157.678 355.675 321.353 355.675 321.991C355.675 322.576 356.209 338.954 356.209 338.954H279.58L284.333 237.92L278.298 150.181L283.585 147.735Z" fill="white"/>
<path d="M311.246 153.956C311.299 153.956 311.62 154.222 312.207 154.807C312.848 155.445 313.667 156.243 314.664 157.2C316.746 159.22 319.576 162.145 322.941 165.229H322.62C323.225 164.804 323.866 164.379 324.543 163.953C328.815 161.135 332.553 158.37 335.062 156.136C336.344 155.073 337.305 154.116 337.946 153.424C338.587 152.733 338.907 152.361 338.961 152.361C339.014 152.414 338.694 152.839 338.106 153.584C337.519 154.275 336.611 155.339 335.329 156.455C332.873 158.742 329.135 161.56 324.863 164.432C324.187 164.857 323.528 165.265 322.887 165.655L322.727 165.814L322.567 165.655C319.203 162.517 316.426 159.54 314.397 157.466C313.382 156.402 312.581 155.551 312.047 154.913C311.513 154.328 311.246 153.956 311.246 153.956Z" fill="#455A64"/>
<path d="M302.222 163.528L307.295 170.281C307.295 170.281 314.931 170.44 314.557 170.44C314.183 170.44 318.989 162.039 318.989 162.039L311.246 154.381L302.222 163.528Z" fill="#D90452"/>
<path d="M308.256 165.867C307.989 166.665 300.833 201.069 300.299 208.993C299.765 216.916 294.372 338.741 294.372 338.741H311.78H325.611C325.611 338.741 322.46 217.979 321.125 205.962C319.737 193.997 313.702 167.462 313.702 167.462L308.256 165.867Z" fill="#D90452"/>
<path d="M311.246 154.381C311.299 154.381 311.032 154.701 310.445 155.339C309.911 155.924 309.11 156.774 308.149 157.838C306.12 159.965 303.343 162.89 299.979 166.027L299.818 166.186L299.605 166.08C299 165.655 298.359 165.229 297.682 164.804C293.357 161.986 289.672 159.114 287.163 156.828C285.934 155.711 285.027 154.701 284.386 153.956C283.798 153.212 283.531 152.786 283.585 152.786C283.585 152.733 283.959 153.158 284.546 153.85C285.24 154.488 286.148 155.498 287.43 156.562C289.993 158.742 293.731 161.507 297.949 164.378C298.626 164.804 299.284 165.212 299.925 165.602L299.605 165.655C302.969 162.517 305.799 159.646 307.882 157.572C308.843 156.615 309.662 155.817 310.338 155.179C310.926 154.647 311.246 154.328 311.246 154.381Z" fill="#455A64"/>
<path d="M230.666 166.239C230.345 167.888 208.612 242.546 208.612 242.546C208.612 242.546 201.83 248.289 200.174 253.341C198.466 258.393 200.815 258.074 198.466 258.393C196.063 258.765 163.862 275.621 163.168 276.632C162.527 277.642 173.688 314.493 173.688 314.493C173.688 314.493 223.19 294.233 231.36 280.726C239.477 267.22 244.603 250.629 244.603 249.3C244.603 247.97 230.666 166.239 230.666 166.239Z" fill="#263238"/>
<path d="M283.905 142.257C282.891 142.895 273.065 152.361 273.065 152.361L230.666 166.239C230.666 166.239 248.982 301.625 248.661 303.007C248.288 304.336 242.253 338.954 242.253 338.954H286.896C286.896 338.954 288.338 335.763 289.673 309.388C291.061 283.066 293.09 275.303 289.673 248.608C286.308 221.968 283.905 142.257 283.905 142.257Z" fill="#263238"/>
<path d="M273.065 152.361C273.065 152.361 272.976 152.503 272.798 152.786C272.584 153.07 272.317 153.442 271.997 153.903C271.249 154.913 270.128 156.402 268.793 158.263L268.74 158.051C270.555 158.689 272.798 159.486 275.308 160.337L275.735 160.497L275.308 160.656C273.439 161.56 271.356 162.571 269.06 163.687L269.22 163.528C268.846 166.24 268.9 169.377 268.953 172.621C269.007 175.918 269.22 179.374 269.594 182.99C269.968 186.606 270.502 190.381 271.249 194.263C271.997 198.092 273.118 202.027 274.186 206.068C278.672 223.244 282.41 238.878 285.133 250.204C286.468 255.841 287.536 260.414 288.284 263.604C288.64 265.164 288.907 266.387 289.085 267.273C289.156 267.663 289.227 267.982 289.299 268.23C289.334 268.443 289.352 268.549 289.352 268.549C289.352 268.549 289.316 268.443 289.245 268.23C289.174 267.982 289.085 267.663 288.978 267.273C288.765 266.422 288.462 265.217 288.07 263.657C287.269 260.467 286.148 255.894 284.76 250.31C281.929 238.984 278.138 223.35 273.652 206.175C272.584 202.186 271.463 198.251 270.715 194.316C269.968 190.488 269.434 186.659 269.113 183.043C268.74 179.374 268.526 175.918 268.473 172.621C268.419 169.324 268.419 166.293 268.793 163.421V163.368L268.9 163.315C271.196 162.251 273.332 161.241 275.201 160.337V160.656C272.691 159.752 270.448 158.955 268.633 158.263L268.473 158.21L268.579 158.104C269.968 156.243 271.089 154.86 271.89 153.85C272.246 153.389 272.531 153.017 272.745 152.733C272.958 152.485 273.065 152.361 273.065 152.361Z" fill="#455A64"/>
<path d="M204.606 256.638C204.606 256.602 204.749 256.62 205.033 256.691C205.318 256.762 205.728 256.886 206.262 257.063C207.33 257.435 208.878 257.967 210.694 258.818C212.509 259.669 214.592 260.786 216.781 262.328C217.885 263.072 218.989 263.905 220.092 264.827C220.68 265.305 221.214 265.837 221.534 266.635C221.694 267.007 221.748 267.486 221.641 267.911C221.534 268.336 221.214 268.709 220.84 268.921C220.092 269.4 219.131 269.347 218.437 269.081C217.689 268.762 217.048 268.336 216.461 267.964C215.251 267.22 214.076 266.493 212.937 265.784C210.747 264.348 208.718 263.125 207.009 262.009C205.407 260.945 204.072 260.094 203.058 259.456C202.15 258.818 201.616 258.446 201.669 258.446C201.669 258.393 202.203 258.712 203.164 259.243C204.232 259.882 205.567 260.679 207.223 261.69C208.985 262.753 211.014 263.976 213.204 265.359C214.343 266.032 215.518 266.759 216.728 267.539C217.369 267.911 217.956 268.283 218.597 268.549C219.238 268.815 219.985 268.815 220.573 268.443C221.107 268.124 221.267 267.432 221 266.848C220.786 266.209 220.252 265.678 219.772 265.252C218.668 264.331 217.582 263.48 216.514 262.7C214.378 261.211 212.296 260.041 210.534 259.19C208.718 258.286 207.223 257.701 206.208 257.276C205.14 256.851 204.553 256.691 204.606 256.638Z" fill="#455A64"/>
<path d="M164.289 278.333C164.289 278.333 159.27 273.814 154.891 269.985C150.459 266.156 140.313 265.89 137.216 264.88C134.118 263.817 120.768 258.446 118.953 262.806C117.191 267.22 122.637 272.325 130.754 273.494C138.818 274.664 139.886 275.994 137.963 278.333C136.041 280.673 121.196 294.765 118.846 296.839C116.069 299.178 109.074 305.293 110.302 308.963C111.103 311.249 114.147 312.632 116.176 311.462C118.259 310.292 119.113 309.388 119.113 309.388C119.113 309.388 122.21 311.302 127.977 309.282C127.977 309.282 141.327 311.462 142.823 310.398C144.264 309.388 145.172 308.218 145.172 308.218C145.172 308.218 155.585 310.983 159.75 309.547C163.862 308.059 172.246 302.209 172.246 302.209L175.931 301.039C175.931 301.039 178.12 299.125 175.931 290.192C173.688 281.258 165.144 278.28 164.289 278.333Z" fill="#FFBF9D"/>
<path d="M134.385 295.562C134.492 295.615 133.584 296.626 131.715 297.689C130.807 298.274 129.739 298.859 128.511 299.497C127.87 299.816 127.283 300.189 126.589 300.561C125.895 300.88 125.147 301.146 124.399 301.412C122.851 301.943 121.409 302.475 120.394 303.326C119.433 304.177 118.899 305.4 118.792 306.357C118.632 307.367 118.792 308.165 118.953 308.75C119.113 309.282 119.22 309.601 119.166 309.601C119.166 309.601 118.953 309.335 118.739 308.803C118.525 308.271 118.258 307.367 118.365 306.304C118.525 305.187 119.006 303.964 120.074 302.901C121.195 301.943 122.691 301.465 124.186 300.88C124.933 300.614 125.681 300.348 126.322 300.082C126.998 299.728 127.639 299.391 128.244 299.072C129.526 298.434 130.647 297.849 131.555 297.37C133.424 296.413 134.332 295.509 134.385 295.562Z" fill="#FF9A6C"/>
<path d="M139.672 300.082C139.725 300.136 138.978 300.721 137.643 301.252C136.254 301.837 134.225 302.263 132.249 303.113C131.235 303.539 130.327 304.124 129.686 304.762C129.045 305.4 128.618 306.144 128.351 306.783C127.87 308.165 128.191 309.069 128.084 309.069C128.084 309.122 127.55 308.218 127.977 306.676C128.191 305.985 128.618 305.134 129.312 304.39C130.006 303.645 130.968 303.06 131.982 302.582C134.118 301.731 136.094 301.359 137.482 300.88C138.871 300.455 139.618 299.976 139.672 300.082Z" fill="#FF9A6C"/>
<path d="M152.915 300.88C152.915 300.88 152.648 301.039 152.114 301.252C151.527 301.465 150.726 301.731 149.711 301.943C148.696 302.156 147.415 302.262 146.026 302.262C144.638 302.262 143.089 301.997 141.648 302.422C140.953 302.635 140.313 303.06 139.939 303.645C139.565 304.177 139.512 304.868 139.725 305.506C140.099 306.729 141.167 307.474 142.128 307.74C143.089 308.005 143.944 308.059 144.478 308.059C145.065 308.059 145.386 308.059 145.386 308.112C145.439 308.165 145.119 308.218 144.531 308.271C143.944 308.325 143.036 308.378 142.021 308.112C140.953 307.846 139.725 307.048 139.191 305.613C138.978 304.921 139.031 304.017 139.512 303.326C139.939 302.635 140.686 302.156 141.487 301.89C143.143 301.412 144.691 301.731 146.026 301.784C147.415 301.784 148.643 301.678 149.658 301.518C151.687 301.252 152.915 300.774 152.915 300.88Z" fill="#FF9A6C"/>
<path d="M152.648 298.806C152.648 298.913 151.58 299.125 149.764 299.178C148.002 299.232 145.546 299.125 142.876 298.54C140.206 297.902 137.91 296.998 136.308 296.201C134.759 295.35 133.851 294.712 133.905 294.658C133.958 294.605 134.866 295.137 136.521 295.828C138.07 296.52 140.366 297.37 142.983 297.955C145.599 298.54 148.002 298.753 149.764 298.753C151.527 298.806 152.595 298.753 152.648 298.806Z" fill="#FF9A6C"/>
<path d="M158.896 288.065C158.949 288.118 158.736 288.278 158.309 288.49C157.935 288.756 157.294 289.075 156.493 289.447C154.944 290.085 152.595 290.67 149.978 290.564C147.308 290.458 145.012 289.713 143.517 288.969C142.716 288.597 142.128 288.224 141.755 287.905C141.381 287.639 141.167 287.48 141.221 287.427C141.274 287.32 142.128 287.958 143.677 288.597C145.172 289.288 147.415 289.926 149.978 290.032C152.541 290.086 154.784 289.607 156.386 289.075C157.935 288.49 158.843 287.958 158.896 288.065Z" fill="#FF9A6C"/>
<path d="M233.335 181.767C233.335 181.767 233.371 182.015 233.442 182.511C233.513 183.078 233.62 183.823 233.762 184.744C234.029 186.765 234.403 189.53 234.884 192.933C235.952 199.899 237.34 209.418 238.889 219.947C240.384 230.529 241.452 240.1 241.879 247.119C242.093 250.576 242.2 253.447 242.253 255.362C242.253 256.319 242.253 257.081 242.253 257.648C242.253 258.144 242.253 258.393 242.253 258.393C242.217 258.393 242.182 258.144 242.146 257.648C242.111 257.081 242.075 256.319 242.039 255.362C241.933 253.447 241.772 250.629 241.505 247.119C240.971 240.153 239.85 230.582 238.355 220.053C236.806 209.471 235.365 199.953 234.51 192.987C234.083 189.53 233.762 186.712 233.549 184.798C233.478 183.84 233.406 183.078 233.335 182.511C233.3 182.015 233.3 181.767 233.335 181.767Z" fill="#455A64"/>
<path d="M388.89 166.984C389.21 168.686 410.891 243.291 410.891 243.291C410.891 243.291 417.673 249.034 419.381 254.139C421.09 259.19 418.687 258.871 421.09 259.19C423.44 259.509 455.693 276.419 456.334 277.43C457.028 278.44 445.868 315.237 445.868 315.237C445.868 315.237 396.313 294.977 388.196 281.471C380.026 267.964 374.953 251.427 374.953 250.044C374.953 248.715 388.89 166.984 388.89 166.984Z" fill="#263238"/>
<path d="M333.995 144.384C335.49 145.022 349.641 153.956 349.641 153.956L388.89 167.835C388.89 167.835 372.176 282.269 372.496 283.651C372.816 284.981 382.001 338.954 382.001 338.954H339.388C339.388 338.954 335.49 337.997 334.262 311.568C332.98 285.14 331.111 277.323 334.262 250.523C337.412 223.775 333.995 144.384 333.995 144.384Z" fill="#263238"/>
<path d="M348.626 153.796C348.626 153.796 348.68 153.903 348.786 154.115C348.893 154.364 349.053 154.7 349.267 155.126C349.659 156.012 350.228 157.271 350.976 158.901L351.029 159.008L350.922 159.061C349.107 159.699 346.917 160.496 344.354 161.454V161.135C346.223 161.985 348.359 162.996 350.655 164.059L350.709 164.112L350.762 164.219C351.136 167.09 351.083 170.174 351.083 173.471C350.976 176.821 350.816 180.331 350.442 184.053C350.068 187.776 349.481 191.657 348.733 195.592C347.932 199.581 346.757 203.622 345.743 207.716C343.66 216.224 341.951 224.414 340.403 231.805C338.854 239.25 337.519 245.95 336.344 251.586C335.223 257.17 334.315 261.69 333.674 264.88C333.389 266.44 333.158 267.645 332.98 268.496C332.873 268.886 332.802 269.205 332.766 269.453C332.695 269.666 332.66 269.772 332.66 269.772C332.66 269.772 332.677 269.666 332.713 269.453C332.749 269.205 332.784 268.886 332.82 268.496C332.998 267.61 333.211 266.405 333.461 264.88C334.048 261.69 334.902 257.117 335.97 251.48C337.038 245.843 338.373 239.143 339.869 231.699C341.417 224.307 343.126 216.118 345.209 207.61C346.223 203.462 347.398 199.421 348.199 195.486C348.947 191.551 349.534 187.722 349.908 184C350.282 180.331 350.495 176.821 350.602 173.471C350.655 170.174 350.655 167.037 350.335 164.325L350.442 164.432C348.146 163.315 346.063 162.304 344.194 161.454L343.874 161.241L344.247 161.135C346.811 160.231 349.053 159.433 350.816 158.848L350.762 159.008C350.05 157.341 349.498 156.065 349.107 155.179C348.964 154.754 348.84 154.417 348.733 154.169C348.626 153.92 348.591 153.796 348.626 153.796Z" fill="#455A64"/>
<path d="M414.949 257.382C414.949 257.435 414.362 257.648 413.347 258.074C412.279 258.446 410.784 259.084 409.022 259.935C407.259 260.839 405.177 262.009 403.041 263.498C401.973 264.242 400.887 265.075 399.783 265.997C399.249 266.475 398.769 267.007 398.502 267.592C398.235 268.177 398.395 268.921 398.982 269.24C399.57 269.56 400.264 269.56 400.905 269.294C401.599 269.081 402.186 268.656 402.774 268.283C404.02 267.539 405.195 266.812 406.298 266.103C408.541 264.774 410.57 263.498 412.279 262.434C413.934 261.477 415.323 260.679 416.337 260.041C417.299 259.456 417.886 259.19 417.886 259.19C417.886 259.243 417.405 259.616 416.498 260.201C415.43 260.892 414.095 261.743 412.493 262.806C410.784 263.87 408.808 265.146 406.565 266.529C405.462 267.238 404.305 267.982 403.094 268.762C402.453 269.134 401.866 269.56 401.118 269.825C400.371 270.144 399.463 270.144 398.715 269.719C398.342 269.453 398.021 269.081 397.914 268.656C397.808 268.23 397.861 267.752 398.021 267.379C398.342 266.635 398.876 266.103 399.41 265.625C400.549 264.667 401.652 263.817 402.72 263.072C404.91 261.583 407.046 260.413 408.861 259.563C410.677 258.765 412.226 258.18 413.294 257.861C413.828 257.684 414.237 257.56 414.522 257.489C414.807 257.418 414.949 257.382 414.949 257.382Z" fill="#455A64"/>
<path d="M455.266 279.131C455.266 279.131 460.232 274.558 464.665 270.729C469.097 266.954 479.243 266.635 482.34 265.625C485.384 264.614 498.787 259.19 500.549 263.604C502.312 267.964 496.865 273.122 488.801 274.292C480.685 275.462 479.67 276.738 481.592 279.131C483.515 281.471 498.36 295.562 500.71 297.583C503.433 299.923 510.482 306.038 509.254 309.707C508.453 312.047 505.409 313.376 503.38 312.206C501.297 311.037 500.389 310.186 500.389 310.186C500.389 310.186 497.292 312.1 491.578 310.026C491.578 310.026 478.228 312.206 476.733 311.196C475.238 310.186 474.383 308.963 474.383 308.963C474.383 308.963 463.917 311.781 459.805 310.292C455.693 308.856 447.31 303.007 447.31 303.007L443.625 301.837C443.625 301.837 441.436 299.923 443.625 290.989C445.814 282.056 454.358 279.025 455.266 279.131Z" fill="#FFBF9D"/>
<path d="M485.116 296.36C485.17 296.307 486.131 297.158 488 298.168C488.908 298.647 490.029 299.179 491.257 299.817C491.898 300.136 492.539 300.473 493.18 300.827C493.874 301.146 494.622 301.412 495.369 301.678C496.864 302.21 498.36 302.741 499.481 303.698C500.549 304.709 501.03 305.985 501.136 307.049C501.297 308.165 501.03 309.016 500.816 309.548C500.549 310.133 500.389 310.399 500.335 310.399C500.335 310.345 500.442 310.08 500.602 309.495C500.709 308.963 500.923 308.112 500.763 307.102C500.602 306.145 500.068 304.922 499.161 304.071C498.146 303.22 496.651 302.741 495.156 302.21C494.408 301.944 493.66 301.678 492.966 301.306C492.272 300.933 491.685 300.614 491.044 300.295C489.816 299.604 488.694 299.019 487.786 298.487C485.971 297.424 485.063 296.413 485.116 296.36Z" fill="#FF9A6C"/>
<path d="M479.83 300.827C479.883 300.774 480.684 301.199 482.073 301.678C483.408 302.156 485.437 302.475 487.52 303.379C488.588 303.858 489.549 304.443 490.243 305.187C490.937 305.932 491.364 306.729 491.578 307.474C491.952 308.963 491.471 309.92 491.418 309.867C491.311 309.813 491.685 308.909 491.204 307.58C490.937 306.942 490.51 306.197 489.869 305.506C489.175 304.868 488.321 304.336 487.306 303.911C485.277 303.007 483.301 302.635 481.913 302.05C480.524 301.465 479.83 300.88 479.83 300.827Z" fill="#FF9A6C"/>
<path d="M466.587 301.625C466.64 301.571 467.869 301.997 469.898 302.316C470.912 302.475 472.141 302.582 473.529 302.529C474.864 302.529 476.413 302.156 478.068 302.688C478.869 302.954 479.617 303.433 480.044 304.124C480.524 304.815 480.578 305.719 480.311 306.41C479.83 307.846 478.549 308.644 477.534 308.857C476.466 309.122 475.612 309.069 475.024 309.069C474.437 309.016 474.116 308.91 474.116 308.91C474.116 308.857 474.437 308.857 475.024 308.803C475.612 308.803 476.466 308.803 477.427 308.484C478.388 308.218 479.456 307.474 479.83 306.251C480.044 305.666 479.99 304.975 479.617 304.39C479.243 303.858 478.602 303.433 477.908 303.22C476.466 302.741 474.917 303.06 473.529 303.06C472.141 303.06 470.859 302.901 469.844 302.688C468.776 302.475 467.975 302.263 467.441 302.05C466.907 301.837 466.587 301.678 466.587 301.625Z" fill="#FF9A6C"/>
<path d="M466.907 299.604C466.907 299.497 468.029 299.604 469.791 299.55C471.5 299.497 473.956 299.338 476.573 298.753C479.189 298.168 481.432 297.317 483.034 296.573C484.636 295.881 485.597 295.35 485.651 295.456C485.704 295.509 484.796 296.147 483.194 296.945C481.646 297.743 479.349 298.7 476.679 299.285C474.009 299.87 471.553 300.029 469.791 299.923C467.975 299.87 466.907 299.657 466.907 299.604Z" fill="#FF9A6C"/>
<path d="M460.606 288.809C460.659 288.756 461.567 289.287 463.169 289.819C464.718 290.404 467.014 290.883 469.577 290.776C472.087 290.723 474.33 290.032 475.878 289.394C477.427 288.703 478.281 288.118 478.335 288.224C478.335 288.224 478.175 288.384 477.747 288.703C477.374 288.968 476.786 289.341 476.039 289.713C474.543 290.511 472.194 291.255 469.577 291.361C466.961 291.415 464.611 290.883 463.009 290.191C462.208 289.872 461.621 289.553 461.247 289.287C460.82 289.022 460.606 288.862 460.606 288.809Z" fill="#FF9A6C"/>
<path d="M386.22 182.511C386.255 182.511 386.255 182.777 386.22 183.309C386.149 183.876 386.077 184.621 386.006 185.542C385.793 187.51 385.472 190.328 385.045 193.784C384.137 200.697 382.695 210.269 381.2 220.798C379.705 231.38 378.584 240.951 378.05 247.917C377.783 251.374 377.622 254.192 377.516 256.159C377.444 257.081 377.391 257.826 377.355 258.393C377.32 258.925 377.302 259.19 377.302 259.19C377.266 259.19 377.249 258.925 377.249 258.393C377.284 257.826 377.302 257.081 377.302 256.159C377.302 254.192 377.462 251.374 377.676 247.864C378.103 240.898 379.118 231.273 380.666 220.744C382.215 210.216 383.603 200.697 384.618 193.731C385.098 190.328 385.472 187.51 385.793 185.542C385.899 184.621 385.988 183.876 386.06 183.309C386.166 182.777 386.22 182.511 386.22 182.511Z" fill="#455A64"/>
</svg>
