<svg xmlns="http://www.w3.org/2000/svg" xmlns:xlink="http://www.w3.org/1999/xlink" width="375" height="765" viewBox="0 0 375 765">
  <defs>
    <clipPath id="clip-path">
      <rect id="Rect치ngulo_947" data-name="Rect치ngulo 947" width="375" height="765" transform="translate(0 2425)" fill="#4e01d4"/>
    </clipPath>
    <linearGradient id="linear-gradient" x1="0.5" x2="0.5" y2="1.428" gradientUnits="objectBoundingBox">
      <stop offset="0" stop-color="#d90452"/>
      <stop offset="0.325" stop-color="#740646"/>
      <stop offset="1" stop-color="#3a0323"/>
    </linearGradient>
  </defs>
  <g id="Enmascarar_grupo_20" data-name="Enmascarar grupo 20" transform="translate(0 -2425)" clip-path="url(#clip-path)">
    <g id="Grupo_910" data-name="Grupo 910">
      <path id="Uni칩n_1" data-name="Uni칩n 1" d="M925.5,2102.894v-1560h-44V313.725s54.835,13.68,108.311-7.6,109.642,11.653,122.76,14.187,35.986,5.067,76.682-7.6,80-15.305,132.747,5.35V542.894h-21.5v1560Z" transform="translate(-925.5 2137.106)" stroke="rgba(0,0,0,0)" stroke-miterlimit="10" stroke-width="1" fill="url(#linear-gradient)"/>
      <g id="Grupo_909" data-name="Grupo 909">
        <path id="Trazado_1669" data-name="Trazado 1669" d="M539.876,41.009S642.52,76.568,752.43,53.478s115.914-.462,169.021,2.309,110.588-3.233,147.424-12.007" transform="translate(-595.876 2396.991)" fill="none" stroke="#d2d9e0" stroke-miterlimit="10" stroke-width="1"/>
        <g id="Grupo_799" data-name="Grupo 799" transform="translate(-4774.481 1163.121)">
          <path id="Trazado_24" data-name="Trazado 24" d="M5034.752,1381.324q31.1,1.642,62.193,3.289c24.333,1.289,49.056,2.648,72.039,10.741s44.4,24,53.336,46.664,2.037,52.179-19.137,64.239" transform="translate(-23.633 -22.377)" fill="none" stroke="#fff" stroke-linecap="round" stroke-miterlimit="10" stroke-width="0.951" stroke-dasharray="4.509"/>
          <g id="Grupo_32" data-name="Grupo 32" transform="translate(4994.481 1343.194)">
            <path id="Trazado_25" data-name="Trazado 25" d="M5016.118,1343.194c-.289.574-2.521,9.044-2.521,9.044l-19.116,10.87Z" transform="translate(-4994.481 -1343.194)" fill="#fcb6e1"/>
            <path id="Trazado_26" data-name="Trazado 26" d="M5019.766,1372l-6.168-6.916-19.116,10.87Z" transform="translate(-4994.481 -1356.04)" fill="#d35e8d"/>
            <path id="Trazado_27" data-name="Trazado 27" d="M5019.766,1381.167l-8.333-.463-16.951,4.416Z" transform="translate(-4994.481 -1365.207)" fill="#e09bc6"/>
            <path id="Trazado_28" data-name="Trazado 28" d="M5011.433,1380.7l-3.037,10.39-13.914-5.974Z" transform="translate(-4994.481 -1365.207)" fill="#fcb6e1"/>
          </g>
        </g>
        <g id="Grupo_800" data-name="Grupo 800" transform="translate(-5304.542 865.499)">
          <path id="Trazado_29" data-name="Trazado 29" d="M5422.3,1922.285c-5.871,10.105-16.653,16.729-28.018,19.454s-23.31,1.9-34.8-.22a158.142,158.142,0,0,1-43.585-14.875c-7.081-3.643-14.052-7.885-21.882-9.322a33.174,33.174,0,0,0-33.475,15.02" transform="translate(0 -7.966)" fill="none" stroke="#fff" stroke-linecap="round" stroke-miterlimit="10" stroke-width="0.951" stroke-dasharray="4.509"/>
          <g id="Grupo_34" data-name="Grupo 34" transform="translate(5417.838 1906.394)">
            <path id="Trazado_30" data-name="Trazado 30" d="M5950,1907.014c-.476-.09-15.937-.62-15.937-.62l-.7,2.28Z" transform="translate(-5931.388 -1906.394)" fill="#fcb6e1"/>
            <path id="Trazado_31" data-name="Trazado 31" d="M5933.362,1910.673l2.073,6.363,14.563-8.022Z" transform="translate(-5931.388 -1908.394)" fill="#d35e8d"/>
            <path id="Trazado_32" data-name="Trazado 32" d="M5932.275,1917.036l14.563-8.022-17.617,4.292Z" transform="translate(-5928.228 -1908.394)" fill="#e09bc6"/>
            <path id="Trazado_33" data-name="Trazado 33" d="M5926.016,1913.306l17.617-4.292-18.611,8.259Z" transform="translate(-5925.021 -1908.394)" fill="#fcb6e1"/>
          </g>
        </g>
        <path id="Trazado_1673" data-name="Trazado 1673" d="M5718.766,2862.962a7.124,7.124,0,0,0,.612-.9l1.9.4.944-4.5-1.9-.4a7.527,7.527,0,0,0-.2-1.073l1.62-1.061-2.494-3.852-1.62,1.061a7.11,7.11,0,0,0-.9-.615l.4-1.907-4.47-.949-.4,1.907a7.3,7.3,0,0,0-1.067.2l-1.057-1.631-3.828,2.509,1.057,1.63a7.067,7.067,0,0,0-.611.9l-1.9-.4-.944,4.5,1.9.4a7.463,7.463,0,0,0,.2,1.074l-1.621,1.063,2.494,3.851,1.62-1.061a7.058,7.058,0,0,0,.9.615l-.4,1.907,4.469.95.4-1.907a7.286,7.286,0,0,0,1.067-.2l1.054,1.631,3.828-2.509Zm-3.187-.712a4.588,4.588,0,0,1-6.369-1.352,4.65,4.65,0,0,1,1.344-6.408,4.588,4.588,0,0,1,6.37,1.352A4.65,4.65,0,0,1,5715.579,2862.251Zm-15.285-13.88a4.929,4.929,0,0,0,.385-.567l1.193.253.594-2.828-1.193-.253a4.9,4.9,0,0,0-.123-.676l1.019-.668-1.568-2.423-1.019.668a4.556,4.556,0,0,0-.564-.388l.252-1.2-2.812-.6-.252,1.2a4.721,4.721,0,0,0-.672.124l-.664-1.026-2.408,1.577.665,1.025a4.457,4.457,0,0,0-.385.567l-1.193-.253-.593,2.829,1.193.253a4.638,4.638,0,0,0,.123.676l-1.02.668,1.567,2.42,1.02-.668a4.458,4.458,0,0,0,.563.388l-.251,1.2,2.812.6.251-1.2a4.677,4.677,0,0,0,.671-.124l.665,1.026,2.406-1.577Zm-2-.448a2.882,2.882,0,0,1-4-.851,2.921,2.921,0,0,1,.845-4.029,2.882,2.882,0,0,1,4,.851A2.921,2.921,0,0,1,5698.29,2847.922Z" transform="translate(-5552.217 -379.69)" fill="#fff" opacity="0.63" style="isolation: isolate"/>
        <path id="Trazado_1674" data-name="Trazado 1674" d="M4548.734,2847.395a10.419,10.419,0,0,0,.609,1.459l-2,2,4.713,4.713,2-2a10.9,10.9,0,0,0,1.459.609V2857h6.663v-2.82a10.488,10.488,0,0,0,1.459-.609l2,2,4.713-4.713-2-2a10.9,10.9,0,0,0,.609-1.459h2.82v-6.663h-2.82a10.472,10.472,0,0,0-.609-1.459l2-2-4.713-4.713-2,2a10.8,10.8,0,0,0-1.459-.609v-2.821h-6.663v2.821a10.4,10.4,0,0,0-1.459.609l-2-2-4.713,4.713,2,2a10.835,10.835,0,0,0-.609,1.459h-2.82v6.663Zm3.4-3.331a6.716,6.716,0,1,1,6.716,6.716A6.712,6.712,0,0,1,4552.135,2844.063Z" transform="translate(-4237.914 112.87)" fill="#fff" opacity="0.63" style="isolation: isolate"/>
      </g>
    </g>
  </g>
</svg>
