<svg xmlns="http://www.w3.org/2000/svg" width="675.626" height="423.093" viewBox="0 0 675.626 423.093">
  <g id="Grupo_519" data-name="Grupo 519" transform="translate(-262.749 -406.768)">
    <path id="Trazado_939" data-name="Trazado 939" d="M804.46,1259.137s33.92,7.113,32.206,13.343-37.225-10.651-37.225-10.651-26.183,23.417-29.827,35.353c0,0,38.24-5.409,35.046.207s-42.725,13.094-42.725,13.094-17.976,27.685-2.2,39.859,27.88,8.081,30.831,4.1,14.39-32.64,17.785-30.365,1.343,23.978-6.436,33.333c0,0,34.152.27,39.113-15.891s-2.671-24.962.576-34.893,8.753-15.892,9.35-10.006-7.893,21.453-4.5,31.964,4.853,18.493,13.8,5.282,17.827-39.891,8.869-49.674l-1.12-1.223a6.341,6.341,0,0,1,1.12,1.223c2.657-2.02,11.721-2.944,18.554-3.361,1.131.006,2.728-.065,4.931-.24h0c.977-.036,1.775-.058,2.33-.072,14.842.186,35.714,11.992,35.714,11.992l2.106-2.741c-19.329-16.016-42.5-11.57-42.5-11.57-17.658,1.792-30.091-3.792-30.091-3.792s-4.045-34.205-30.514-29.991C829.643,1244.415,812.393,1249.412,804.46,1259.137Z" transform="translate(-316.159 -539.682)" fill="#4e01d4" opacity="0.31"/>
    <path id="Trazado_940" data-name="Trazado 940" d="M1751.8,431.248c-9.036-33.364-65.338-22.938-65.338-22.938s-38.23,58.387-49.351,59.778,22.938-56.3,22.938-56.3c-21.547-2.085-76.459,24.328-76.459,24.328s3.475,68.119-7.646,66.729,0-60.473,0-60.473c-20.853,6.256-40.315,30.584-40.315,30.584-24.328,39.62,27.8,68.814,27.8,68.814s.7,23.632-13.9,50.741h0a80.442,80.442,0,0,0-6.643,13.513h5.685q.7-2.287,1.542-4.413a.033.033,0,0,1,.011-.026c.008-.021.017-.041.025-.061.39-.879.949-2.128,1.647-3.651l0-.006s0,0,0-.007c1.737-3.4,2.911-5.912,3.653-7.725a.114.114,0,0,0,.005-.017c5.2-10.673,12.7-24.579,17.7-27.5a11.015,11.015,0,0,1-1.217-2.608l1.217,2.608c9.731,20.853,58.387,24.328,85.5,18.767s15.292-13.207.695-25.616-45.181-9.138-54.217-14,4.171-9.731,22.243-8.341,27.109,19.462,56.3,22.243,51.437-52.132,51.437-52.132c-20.158,6.256-56.3-4.866-57.692-11.817s52.132-6.256,60.473-8.341S1760.84,464.612,1751.8,431.248Z" transform="translate(-816.28)" fill="#4e01d4" opacity="0.31"/>
    <path id="Trazado_941" data-name="Trazado 941" d="M623.665,465.461c12.446-19.921,47.013-2.055,47.013-2.055s13.369,45.5,20.329,48.6-3.834-41.135-3.834-41.135c14.425,2.886,44.94,30.877,44.94,30.877s-15.672,43.621-8.165,44.906,11.907-39.332,11.907-39.332c12.331,8.174,20.2,27.829,20.2,27.829,8.023,30.559-31.632,39.283-31.632,39.283s-5.105,15.234-.949,35.739h0a54.666,54.666,0,0,1,1.66,10.1l-3.7-1.119c0-1.083-.045-2.142-.135-3.174a.024.024,0,0,0,0-.019c0-.015,0-.03,0-.045-.08-.648-.2-1.571-.352-2.7v0s0,0,0-.005c-.46-2.553-.729-4.418-.854-5.744a.045.045,0,0,1,0-.012c-1.284-7.966-3.422-18.487-6.1-21.369a7.492,7.492,0,0,0,1.3-1.456l-1.3,1.456c-10.435,11.647-42.766,4.327-59.3-4.627s-7.346-11.6,4.591-16.8,31.185,2.952,38.02,1.567-.8-7.151-12.825-9.8-21.464,7.321-41,3.381-23.191-44.034-23.191-44.034c11.879,8.038,37.577,7.921,39.85,3.674S627.457,505.1,622.443,502.1,611.219,485.382,623.665,465.461Z" transform="translate(-227.936 -31.759)" fill="#4e01d4" opacity="0.31"/>
    <path id="Trazado_942" data-name="Trazado 942" d="M1283.125,463.076c-8.711-14.509-33.838-2.08-33.838-2.08s-10.211,32.606-15.264,34.746,3.287-29.582,3.287-29.582c-10.428,1.895-32.766,21.668-32.766,21.668s10.732,31.621,5.308,32.451-8.074-28.484-8.074-28.484c-8.987,5.731-14.906,19.788-14.906,19.788-6.169,21.91,22.284,28.7,22.284,28.7s3.483,11.039.227,25.756h0a39.4,39.4,0,0,0-1.325,7.252l2.677-.759c.015-.78.06-1.543.138-2.284a.016.016,0,0,1,0-.013c0-.011,0-.022,0-.032.066-.466.163-1.129.288-1.94v0s0,0,0,0c.364-1.834.581-3.173.688-4.126a.019.019,0,0,0,0-.009c1.026-5.722,2.7-13.273,4.667-15.315a5.389,5.389,0,0,1-.921-1.066l.921,1.066c7.368,8.522,30.75,3.663,42.776-2.576s5.439-8.262-3.093-12.159-22.5,1.728-27.407.643.666-5.14,9.363-6.9,15.367,5.548,29.49,2.959,17.267-31.423,17.267-31.423c-8.659,5.638-27.169,5.226-28.752,2.137s23.72-9.907,27.37-12S1291.836,477.585,1283.125,463.076Z" transform="translate(-595.089 -31.759)" fill="#4e01d4" opacity="0.31"/>
    <path id="Trazado_943" data-name="Trazado 943" d="M263.83,1554.776c-.278.078-.634.157-1.081.235C263.11,1554.925,263.466,1554.847,263.83,1554.776Z" transform="translate(0 -739.96)" fill="#00ebd5"/>
    <path id="Trazado_944" data-name="Trazado 944" d="M1233.758,985.344l-17.1,203.274s-1.791,12.322,7.374,12.344c15.07.036,75.008,0,75.008,0s-11.342-2.565-11.2-8.336c.162-6.8,19.982-209.2,19.982-209.2Z" transform="translate(-614.763 -371.687)" fill="#d34242"/>
    <path id="Trazado_945" data-name="Trazado 945" d="M1312.842,1190.584c-2.964.009-60.212.188-74.888,0-6.4-.08-7.517-5.687-7.571-9.316a18.2,18.2,0,0,1,.194-3.026l.445-5.283,1.133-13.466,1-11.9,1.286-15.288,1.083-12.9,12.147-144.44,74.064-1.922s-8.347,84.7-14.252,146.362c-.659,6.87-1.286,13.457-1.866,19.606q-.283,2.945-.544,5.751c-.548,5.833-1.048,11.191-1.484,15.921-.23,2.493-.442,4.81-.633,6.932-.754,8.315-1.195,13.625-1.2,14.634a8.557,8.557,0,0,0,.144,1.645C1303.117,1190.373,1311.729,1190.584,1312.842,1190.584Z" transform="translate(-623.697 -364.998)" fill="#ea6c6c"/>
    <path id="Trazado_946" data-name="Trazado 946" d="M758.975,677.629,800.617,844.9l5.7,22.908,19.4,77.909h360.328l-71.487-268.086Z" transform="translate(-319.847 -174.587)" fill="#ff7171"/>
    <path id="Trazado_947" data-name="Trazado 947" d="M748.507,677.629l-5.771,1.924,64.838,271.982,7.673-5.819Z" transform="translate(-309.381 -174.586)" fill="#ff7171"/>
    <path id="Trazado_948" data-name="Trazado 948" d="M925.153,1437.688h358.11l9.889-5.819H932.826Z" transform="translate(-426.959 -660.739)" fill="#d34242"/>
    <rect id="Rectángulo_188" data-name="Rectángulo 188" width="77.536" height="3.685" transform="translate(701.488 829.352) rotate(180)" fill="#ea6c6c"/>
    <path id="Trazado_949" data-name="Trazado 949" d="M1168.585,896.316l-58.468-215.143H759.856l-.882-3.544h355.58l58.272,218.209Z" transform="translate(-319.847 -174.586)" fill="#ff7171"/>
    <path id="Trazado_950" data-name="Trazado 950" d="M1308.692,1448.235l-.4,2.817-72.919,14.731,1-11.9.477-5.651Z" transform="translate(-626.914 -671.288)" fill="#d34242"/>
    <path id="Trazado_951" data-name="Trazado 951" d="M1312.846,1543.423c-2.964.009-60.212.188-74.888,0-6.4-.08-7.517-5.687-7.571-9.316l72.575-13.654c-.754,8.315-1.195,13.625-1.2,14.635a8.558,8.558,0,0,0,.144,1.645C1303.121,1543.211,1311.733,1543.423,1312.846,1543.423Z" transform="translate(-623.701 -717.837)" fill="#ff7171"/>
    <path id="Trazado_952" data-name="Trazado 952" d="M1069.855,1236.315l-158.286,54.271-19.4-77.91Z" transform="translate(-405.701 -519.457)" fill="#d34242"/>
    <path id="Trazado_953" data-name="Trazado 953" d="M758.973,677.629h355.581l57.693,215.457H812.611Z" transform="translate(-319.846 -174.586)" fill="#d2d9e0"/>
    <ellipse id="Elipse_98" data-name="Elipse 98" cx="8.683" cy="10.542" rx="8.683" ry="10.542" transform="translate(672.374 745.081) rotate(-47.777)" fill="#d34242"/>
    <path id="Trazado_954" data-name="Trazado 954" d="M1182.188,904.678H849.256l-37.7-150.2-2.89-11.518-2.467-9.825L800.413,710.1h328.133l6.35,23.037,2.709,9.825,3.175,11.518Z" transform="translate(-346.557 -195.515)" fill="#e4edf9"/>
    <path id="Trazado_955" data-name="Trazado 955" d="M1134.9,733.136H806.2L800.413,710.1h328.133Z" transform="translate(-346.557 -195.515)" fill="#bad4f4"/>
    <g id="Grupo_467" data-name="Grupo 467" transform="translate(467.342 522.115)">
      <path id="Trazado_956" data-name="Trazado 956" d="M838.442,734.167a2.176,2.176,0,0,1,2.162-2.88,3.934,3.934,0,0,1,3.6,2.88,2.176,2.176,0,0,1-2.162,2.88A3.934,3.934,0,0,1,838.442,734.167Z" transform="translate(-838.353 -731.287)" fill="#e9f3fe"/>
      <path id="Trazado_957" data-name="Trazado 957" d="M865.363,734.167a2.176,2.176,0,0,1,2.162-2.88,3.934,3.934,0,0,1,3.6,2.88,2.176,2.176,0,0,1-2.162,2.88A3.933,3.933,0,0,1,865.363,734.167Z" transform="translate(-855.705 -731.287)" fill="#e9f3fe"/>
      <path id="Trazado_958" data-name="Trazado 958" d="M894.351,734.167a2.176,2.176,0,0,1,2.162-2.88,3.934,3.934,0,0,1,3.6,2.88,2.176,2.176,0,0,1-2.162,2.88A3.933,3.933,0,0,1,894.351,734.167Z" transform="translate(-874.39 -731.287)" fill="#e9f3fe"/>
    </g>
    <path id="Trazado_959" data-name="Trazado 959" d="M1152.9,952.966H906.285l-37.53-147.279h243.133Z" transform="translate(-390.607 -257.128)" fill="#cae0ff"/>
    <path id="Trazado_960" data-name="Trazado 960" d="M1638,839.956h-55.9l-10.219-34.269h56.572Z" transform="translate(-843.818 -257.128)" fill="#d2e3fc"/>
    <path id="Trazado_961" data-name="Trazado 961" d="M1273.267,837.1h-31.98l-1.316-4.931h31.98Z" transform="translate(-629.878 -274.197)" fill="#1c468a"/>
    <path id="Trazado_962" data-name="Trazado 962" d="M1395.91,837.1h-52.319l-1.316-4.931h52.319Z" transform="translate(-695.819 -274.197)" fill="#78acea"/>
    <path id="Trazado_963" data-name="Trazado 963" d="M1243.533,874.476h-56.715l-1.316-4.931h56.715Z" transform="translate(-594.769 -298.288)" fill="#78acea"/>
    <path id="Trazado_964" data-name="Trazado 964" d="M1390.135,874.476h-29.4l-1.316-4.931h29.4Z" transform="translate(-706.871 -298.288)" fill="#ff7171"/>
    <path id="Trazado_965" data-name="Trazado 965" d="M1300.419,938.825h-31.98l-1.316-4.931h31.98Z" transform="translate(-647.379 -339.765)" fill="#699dee"/>
    <path id="Trazado_966" data-name="Trazado 966" d="M1423.061,938.825h-52.318l-1.316-4.931h52.318Z" transform="translate(-713.32 -339.765)" fill="#78acea"/>
    <path id="Trazado_967" data-name="Trazado 967" d="M1270.684,976.2h-56.715l-1.316-4.93h56.715Z" transform="translate(-612.27 -363.856)" fill="#fff"/>
    <path id="Trazado_968" data-name="Trazado 968" d="M1417.286,976.2h-29.4l-1.316-4.93h29.4Z" transform="translate(-724.372 -363.856)" fill="#fff"/>
    <path id="Trazado_969" data-name="Trazado 969" d="M1080.709,1034.055h-108.2l-1.316-4.931h108.2Z" transform="translate(-456.636 -401.146)" fill="#1c468a"/>
    <path id="Trazado_970" data-name="Trazado 970" d="M1328.357,1034.055h-31.98l-1.316-4.931h31.98Z" transform="translate(-665.387 -401.146)" fill="#699dee"/>
    <path id="Trazado_971" data-name="Trazado 971" d="M1451,1034.055H1398.68l-1.316-4.931h52.319Z" transform="translate(-731.328 -401.146)" fill="#78acea"/>
    <path id="Trazado_972" data-name="Trazado 972" d="M1014.467,1071.431h-31.98l-1.316-4.931h31.98Z" transform="translate(-463.066 -425.237)" fill="#fff"/>
    <path id="Trazado_973" data-name="Trazado 973" d="M1298.622,1071.431h-56.715l-1.316-4.931h56.716Z" transform="translate(-630.278 -425.237)" fill="#ff7171"/>
    <path id="Trazado_974" data-name="Trazado 974" d="M1137.109,1071.431h-52.319l-1.316-4.931h52.319Z" transform="translate(-529.007 -425.237)" fill="#78acea"/>
    <path id="Trazado_975" data-name="Trazado 975" d="M1445.224,1071.431h-29.4l-1.316-4.931h29.4Z" transform="translate(-742.38 -425.237)" fill="#78acea"/>
    <path id="Trazado_976" data-name="Trazado 976" d="M1115.267,1137.239h-108.2l-1.316-4.93h108.2Z" transform="translate(-478.911 -467.655)" fill="#1c468a"/>
    <path id="Trazado_977" data-name="Trazado 977" d="M1362.915,1137.239h-31.98l-1.316-4.93h31.98Z" transform="translate(-687.661 -467.655)" fill="#699dee"/>
    <path id="Trazado_978" data-name="Trazado 978" d="M1049.026,1174.616h-31.98l-1.316-4.93h31.98Z" transform="translate(-485.341 -491.746)" fill="#fff"/>
    <path id="Trazado_979" data-name="Trazado 979" d="M1333.181,1174.616h-56.716l-1.316-4.93h56.715Z" transform="translate(-652.553 -491.746)" fill="#ff7171"/>
    <path id="Trazado_980" data-name="Trazado 980" d="M1171.668,1174.616h-52.319l-1.316-4.93h52.319Z" transform="translate(-551.282 -491.746)" fill="#78acea"/>
    <path id="Trazado_981" data-name="Trazado 981" d="M1479.783,1174.616h-29.4l-1.316-4.93h29.4Z" transform="translate(-764.655 -491.746)" fill="#78acea"/>
    <g id="Grupo_468" data-name="Grupo 468" transform="translate(741.214 591.099)">
      <path id="Trazado_982" data-name="Trazado 982" d="M1634.01,927.876l-24.6.076-.544-2.234,24.6-.076Z" transform="translate(-1608.868 -925.544)" fill="#78acea"/>
      <path id="Trazado_983" data-name="Trazado 983" d="M1698.341,927.763l-9.249.029-.545-2.234,9.249-.028Z" transform="translate(-1660.226 -925.472)" fill="#78acea"/>
      <path id="Trazado_984" data-name="Trazado 984" d="M1738.214,927.6l-16.347.05-.544-2.234,16.347-.05Z" transform="translate(-1681.352 -925.367)" fill="#78acea"/>
      <path id="Trazado_985" data-name="Trazado 985" d="M1626.772,943.864l-13.485.042-.544-2.234,13.485-.042Z" transform="translate(-1611.365 -935.85)" fill="#78acea"/>
      <path id="Trazado_986" data-name="Trazado 986" d="M1674.965,943.693l-17.415.054-.544-2.234,17.415-.054Z" transform="translate(-1639.896 -935.739)" fill="#78acea"/>
      <path id="Trazado_987" data-name="Trazado 987" d="M1735.538,943.493l-19.958.062-.544-2.234,19.958-.061Z" transform="translate(-1677.299 -935.61)" fill="#78acea"/>
    </g>
    <g id="Grupo_469" data-name="Grupo 469" transform="translate(744.155 603.167)">
      <path id="Trazado_988" data-name="Trazado 988" d="M1642.287,961.83l-24.6.076-.545-2.234,24.6-.076Z" transform="translate(-1617.145 -959.498)" fill="#78acea"/>
      <path id="Trazado_989" data-name="Trazado 989" d="M1706.617,961.717l-9.249.028-.544-2.234,9.249-.029Z" transform="translate(-1668.502 -959.426)" fill="#78acea"/>
      <path id="Trazado_990" data-name="Trazado 990" d="M1746.491,961.555l-16.347.051-.544-2.234,16.347-.05Z" transform="translate(-1689.629 -959.321)" fill="#78acea"/>
      <path id="Trazado_991" data-name="Trazado 991" d="M1635.048,977.818l-13.486.042-.544-2.234,13.485-.041Z" transform="translate(-1619.641 -969.804)" fill="#78acea"/>
      <path id="Trazado_992" data-name="Trazado 992" d="M1683.241,977.648l-17.415.054-.545-2.234,17.416-.054Z" transform="translate(-1648.172 -969.694)" fill="#78acea"/>
      <path id="Trazado_993" data-name="Trazado 993" d="M1743.815,977.447l-19.958.062-.544-2.234,19.958-.061Z" transform="translate(-1685.576 -969.564)" fill="#78acea"/>
    </g>
    <g id="Grupo_470" data-name="Grupo 470" transform="translate(734.867 551.913)">
      <path id="Trazado_994" data-name="Trazado 994" d="M1606.154,816.632l-14.812.046-.328-1.345,14.813-.046Z" transform="translate(-1591.014 -815.228)" fill="#fff"/>
      <path id="Trazado_995" data-name="Trazado 995" d="M1644.893,816.564l-5.57.017-.328-1.345,5.57-.017Z" transform="translate(-1621.941 -815.184)" fill="#fff"/>
      <path id="Trazado_996" data-name="Trazado 996" d="M1668.9,816.466l-9.844.03-.328-1.345,9.844-.03Z" transform="translate(-1634.662 -815.121)" fill="#fff"/>
      <path id="Trazado_997" data-name="Trazado 997" d="M1601.794,826.26l-8.121.025-.328-1.345,8.121-.025Z" transform="translate(-1592.517 -821.433)" fill="#fff"/>
      <path id="Trazado_998" data-name="Trazado 998" d="M1630.816,826.157l-10.487.032-.328-1.345,10.487-.032Z" transform="translate(-1609.698 -821.367)" fill="#fff"/>
      <path id="Trazado_999" data-name="Trazado 999" d="M1667.293,826.036l-12.019.037-.328-1.345,12.019-.037Z" transform="translate(-1632.222 -821.289)" fill="#fff"/>
    </g>
    <g id="Grupo_471" data-name="Grupo 471" transform="translate(736.639 559.18)">
      <path id="Trazado_1000" data-name="Trazado 1000" d="M1611.138,837.079l-14.812.046-.328-1.345,14.813-.046Z" transform="translate(-1595.997 -835.675)" fill="#fff"/>
      <path id="Trazado_1001" data-name="Trazado 1001" d="M1649.877,837.011l-5.57.017-.328-1.345,5.57-.017Z" transform="translate(-1626.924 -835.631)" fill="#fff"/>
      <path id="Trazado_1002" data-name="Trazado 1002" d="M1673.888,836.913l-9.844.03-.328-1.345,9.844-.03Z" transform="translate(-1639.647 -835.568)" fill="#fff"/>
      <path id="Trazado_1003" data-name="Trazado 1003" d="M1606.779,846.707l-8.121.025-.328-1.345,8.121-.025Z" transform="translate(-1597.501 -841.88)" fill="#fff"/>
      <path id="Trazado_1004" data-name="Trazado 1004" d="M1635.8,846.6l-10.487.032-.328-1.345,10.487-.032Z" transform="translate(-1614.682 -841.814)" fill="#fff"/>
      <path id="Trazado_1005" data-name="Trazado 1005" d="M1672.277,846.483l-12.019.037-.328-1.345,12.019-.037Z" transform="translate(-1637.206 -841.736)" fill="#fff"/>
    </g>
    <g id="Grupo_472" data-name="Grupo 472" transform="translate(749.181 623.788)">
      <path id="Trazado_1006" data-name="Trazado 1006" d="M1656.428,1019.845l-24.6.076-.545-2.234,24.6-.076Z" transform="translate(-1631.285 -1017.513)" fill="#78acea"/>
      <path id="Trazado_1007" data-name="Trazado 1007" d="M1720.757,1019.733l-9.249.029-.544-2.234,9.249-.029Z" transform="translate(-1682.643 -1017.441)" fill="#78acea"/>
      <path id="Trazado_1008" data-name="Trazado 1008" d="M1760.632,1019.57l-16.347.05-.545-2.234,16.347-.051Z" transform="translate(-1703.769 -1017.336)" fill="#78acea"/>
      <path id="Trazado_1009" data-name="Trazado 1009" d="M1649.189,1035.833l-13.485.042-.545-2.234,13.485-.042Z" transform="translate(-1633.782 -1027.819)" fill="#78acea"/>
      <path id="Trazado_1010" data-name="Trazado 1010" d="M1697.383,1035.663l-17.415.054-.544-2.234,17.415-.054Z" transform="translate(-1662.313 -1027.709)" fill="#78acea"/>
      <path id="Trazado_1011" data-name="Trazado 1011" d="M1757.956,1035.462l-19.958.062-.545-2.234,19.958-.061Z" transform="translate(-1699.717 -1027.58)" fill="#78acea"/>
    </g>
    <g id="Grupo_473" data-name="Grupo 473" transform="translate(754.108 643.999)">
      <path id="Trazado_1012" data-name="Trazado 1012" d="M1670.287,1076.707l-24.6.076-.545-2.234,24.6-.076Z" transform="translate(-1645.146 -1074.375)" fill="#78acea"/>
      <path id="Trazado_1013" data-name="Trazado 1013" d="M1734.618,1076.593l-9.249.029-.544-2.234,9.249-.028Z" transform="translate(-1696.503 -1074.302)" fill="#78acea"/>
      <path id="Trazado_1014" data-name="Trazado 1014" d="M1774.491,1076.431l-16.347.05-.544-2.234,16.347-.05Z" transform="translate(-1717.629 -1074.197)" fill="#78acea"/>
      <path id="Trazado_1015" data-name="Trazado 1015" d="M1663.049,1092.695l-13.485.042-.544-2.234,13.485-.041Z" transform="translate(-1647.642 -1084.68)" fill="#78acea"/>
      <path id="Trazado_1016" data-name="Trazado 1016" d="M1711.243,1092.524l-17.415.054-.544-2.234,17.415-.054Z" transform="translate(-1676.173 -1084.57)" fill="#78acea"/>
      <path id="Trazado_1017" data-name="Trazado 1017" d="M1771.815,1092.323l-19.958.061-.545-2.234,19.958-.061Z" transform="translate(-1713.576 -1084.44)" fill="#78acea"/>
    </g>
    <g id="Grupo_474" data-name="Grupo 474" transform="translate(758.547 662.208)">
      <path id="Trazado_1018" data-name="Trazado 1018" d="M1682.775,1127.935l-24.6.076-.544-2.234,24.6-.076Z" transform="translate(-1657.633 -1125.603)" fill="#78acea"/>
      <path id="Trazado_1019" data-name="Trazado 1019" d="M1747.1,1127.823l-9.25.028-.545-2.234,9.25-.028Z" transform="translate(-1708.99 -1125.531)" fill="#78acea"/>
      <path id="Trazado_1020" data-name="Trazado 1020" d="M1786.978,1127.66l-16.347.05-.544-2.234,16.347-.05Z" transform="translate(-1730.116 -1125.426)" fill="#78acea"/>
      <path id="Trazado_1021" data-name="Trazado 1021" d="M1675.536,1143.924l-13.485.042-.544-2.234,13.485-.042Z" transform="translate(-1660.129 -1135.909)" fill="#78acea"/>
      <path id="Trazado_1022" data-name="Trazado 1022" d="M1723.729,1143.752l-17.415.054-.545-2.234,17.415-.054Z" transform="translate(-1688.66 -1135.799)" fill="#78acea"/>
      <path id="Trazado_1023" data-name="Trazado 1023" d="M1784.3,1143.551l-19.958.061-.544-2.234,19.958-.062Z" transform="translate(-1726.064 -1135.669)" fill="#78acea"/>
    </g>
    <g id="Grupo_481" data-name="Grupo 481" transform="translate(785.715 677.285)">
      <g id="Grupo_477" data-name="Grupo 477" transform="translate(0)">
        <g id="Grupo_475" data-name="Grupo 475">
          <path id="Trazado_1024" data-name="Trazado 1024" d="M1743.632,1182.182a10.355,10.355,0,0,1-9.262-7.169c-1.154-3.953,1.123-7.169,5.076-7.169a10.355,10.355,0,0,1,9.262,7.169C1749.862,1178.966,1747.585,1182.182,1743.632,1182.182Zm-3.8-13.029c-3.231,0-5.093,2.629-4.149,5.86a8.463,8.463,0,0,0,7.571,5.859c3.23,0,5.092-2.628,4.149-5.859A8.464,8.464,0,0,0,1739.829,1169.153Z" transform="translate(-1734.07 -1167.844)" fill="#05d6bd"/>
        </g>
        <g id="Grupo_476" data-name="Grupo 476" transform="translate(2.994 4.209)">
          <path id="Trazado_1025" data-name="Trazado 1025" d="M1747.888,1186.292a1.489,1.489,0,0,1-.8-.334l-4.022-3.221a1.179,1.179,0,0,1-.416-1.542,1.1,1.1,0,0,1,1.553.034l2.842,2.276,1.458-3.369c.211-.488.861-.6,1.452-.244a1.324,1.324,0,0,1,.688,1.524l-1.916,4.428a.765.765,0,0,1-.678.448A1.185,1.185,0,0,1,1747.888,1186.292Z" transform="translate(-1742.493 -1179.686)" fill="#05d6bd"/>
        </g>
      </g>
      <g id="Grupo_480" data-name="Grupo 480" transform="translate(19.79)">
        <g id="Grupo_478" data-name="Grupo 478">
          <path id="Trazado_1026" data-name="Trazado 1026" d="M1799.31,1182.182a10.355,10.355,0,0,1-9.262-7.169c-1.154-3.953,1.123-7.169,5.076-7.169a10.355,10.355,0,0,1,9.262,7.169C1805.54,1178.966,1803.263,1182.182,1799.31,1182.182Zm-3.8-13.029c-3.231,0-5.093,2.629-4.149,5.86a8.464,8.464,0,0,0,7.571,5.859c3.231,0,5.092-2.628,4.149-5.859A8.463,8.463,0,0,0,1795.507,1169.153Z" transform="translate(-1789.748 -1167.844)" fill="#ff7171"/>
        </g>
        <g id="Grupo_479" data-name="Grupo 479" transform="translate(5.57 3.268)">
          <path id="Trazado_1027" data-name="Trazado 1027" d="M1807.661,1182.113h0a1.469,1.469,0,0,1-1.31-1.014l-.889-3.045a.736.736,0,0,1,.718-1.014h0a1.468,1.468,0,0,1,1.31,1.014l.889,3.045A.736.736,0,0,1,1807.661,1182.113Z" transform="translate(-1805.419 -1177.039)" fill="#ff7171"/>
          <path id="Trazado_1028" data-name="Trazado 1028" d="M1811.412,1194.758h-.219a1.308,1.308,0,0,1-1.168-.9h0a.656.656,0,0,1,.64-.9h.219a1.309,1.309,0,0,1,1.168.9h0A.656.656,0,0,1,1811.412,1194.758Z" transform="translate(-1808.364 -1187.294)" fill="#ff7171"/>
        </g>
      </g>
    </g>
    <g id="Grupo_494" data-name="Grupo 494" transform="translate(745.087 571.667)">
      <g id="Grupo_484" data-name="Grupo 484" transform="translate(22.896 0)">
        <g id="Grupo_482" data-name="Grupo 482">
          <path id="Trazado_1029" data-name="Trazado 1029" d="M1689.422,878.558a5.677,5.677,0,0,1-5.078-3.931,2.848,2.848,0,0,1,2.783-3.93,5.678,5.678,0,0,1,5.078,3.93A2.848,2.848,0,0,1,1689.422,878.558Zm-2.085-7.143a2.328,2.328,0,0,0-2.275,3.213,4.64,4.64,0,0,0,4.151,3.213,2.328,2.328,0,0,0,2.274-3.213A4.639,4.639,0,0,0,1687.338,871.415Z" transform="translate(-1684.18 -870.697)" fill="#05d6bd"/>
        </g>
        <g id="Grupo_483" data-name="Grupo 483" transform="translate(1.641 2.308)">
          <path id="Trazado_1030" data-name="Trazado 1030" d="M1691.755,880.812a.816.816,0,0,1-.441-.183l-2.205-1.766a.646.646,0,0,1-.229-.846.6.6,0,0,1,.852.019l1.558,1.248.8-1.847c.115-.267.472-.327.8-.134a.726.726,0,0,1,.377.836l-1.05,2.428a.419.419,0,0,1-.372.246A.628.628,0,0,1,1691.755,880.812Z" transform="translate(-1688.798 -877.19)" fill="#05d6bd"/>
        </g>
      </g>
      <g id="Grupo_487" data-name="Grupo 487" transform="translate(11.649 0)">
        <g id="Grupo_485" data-name="Grupo 485">
          <path id="Trazado_1031" data-name="Trazado 1031" d="M1657.781,878.558a5.677,5.677,0,0,1-5.078-3.931,2.848,2.848,0,0,1,2.783-3.93,5.677,5.677,0,0,1,5.078,3.93A2.848,2.848,0,0,1,1657.781,878.558Zm-2.085-7.143a2.328,2.328,0,0,0-2.275,3.213,4.64,4.64,0,0,0,4.15,3.213,2.328,2.328,0,0,0,2.275-3.213A4.641,4.641,0,0,0,1655.7,871.415Z" transform="translate(-1652.539 -870.697)" fill="#05d6bd"/>
        </g>
        <g id="Grupo_486" data-name="Grupo 486" transform="translate(1.641 2.308)">
          <path id="Trazado_1032" data-name="Trazado 1032" d="M1660.115,880.812a.817.817,0,0,1-.441-.183l-2.205-1.766a.645.645,0,0,1-.228-.846.6.6,0,0,1,.851.019l1.558,1.248.8-1.847c.116-.267.472-.327.8-.134a.727.727,0,0,1,.377.836l-1.05,2.428a.42.42,0,0,1-.372.246A.621.621,0,0,1,1660.115,880.812Z" transform="translate(-1657.157 -877.19)" fill="#05d6bd"/>
        </g>
      </g>
      <g id="Grupo_490" data-name="Grupo 490" transform="translate(0 0)">
        <g id="Grupo_488" data-name="Grupo 488">
          <path id="Trazado_1033" data-name="Trazado 1033" d="M1625.007,878.558a5.677,5.677,0,0,1-5.078-3.931,2.848,2.848,0,0,1,2.783-3.93,5.677,5.677,0,0,1,5.078,3.93A2.848,2.848,0,0,1,1625.007,878.558Zm-2.085-7.143a2.328,2.328,0,0,0-2.275,3.213,4.64,4.64,0,0,0,4.151,3.213,2.328,2.328,0,0,0,2.275-3.213A4.64,4.64,0,0,0,1622.922,871.415Z" transform="translate(-1619.765 -870.697)" fill="#05d6bd"/>
        </g>
        <g id="Grupo_489" data-name="Grupo 489" transform="translate(1.641 2.308)">
          <path id="Trazado_1034" data-name="Trazado 1034" d="M1627.341,880.812a.817.817,0,0,1-.441-.183l-2.2-1.766a.646.646,0,0,1-.228-.846.6.6,0,0,1,.851.019l1.558,1.248.8-1.847c.115-.267.472-.327.8-.134a.726.726,0,0,1,.377.836l-1.05,2.428a.418.418,0,0,1-.372.246A.622.622,0,0,1,1627.341,880.812Z" transform="translate(-1624.383 -877.19)" fill="#05d6bd"/>
        </g>
      </g>
      <g id="Grupo_493" data-name="Grupo 493" transform="translate(33.746 0)">
        <g id="Grupo_491" data-name="Grupo 491">
          <path id="Trazado_1035" data-name="Trazado 1035" d="M1719.948,878.558a5.678,5.678,0,0,1-5.078-3.931,2.848,2.848,0,0,1,2.783-3.93,5.677,5.677,0,0,1,5.078,3.93A2.848,2.848,0,0,1,1719.948,878.558Zm-2.085-7.143a2.328,2.328,0,0,0-2.275,3.213,4.64,4.64,0,0,0,4.15,3.213,2.328,2.328,0,0,0,2.275-3.213A4.64,4.64,0,0,0,1717.864,871.415Z" transform="translate(-1714.706 -870.697)" fill="#ff7171"/>
        </g>
        <g id="Grupo_492" data-name="Grupo 492" transform="translate(3.054 1.792)">
          <path id="Trazado_1036" data-name="Trazado 1036" d="M1724.527,878.521h0a.8.8,0,0,1-.718-.556l-.488-1.67a.4.4,0,0,1,.394-.556h0a.8.8,0,0,1,.718.556l.488,1.67A.4.4,0,0,1,1724.527,878.521Z" transform="translate(-1723.298 -875.739)" fill="#ff7171"/>
          <path id="Trazado_1037" data-name="Trazado 1037" d="M1726.584,885.454h-.12a.719.719,0,0,1-.641-.5h0a.36.36,0,0,1,.352-.5h.12a.717.717,0,0,1,.64.5h0A.36.36,0,0,1,1726.584,885.454Z" transform="translate(-1724.912 -881.361)" fill="#ff7171"/>
        </g>
      </g>
    </g>
    <g id="Grupo_495" data-name="Grupo 495" transform="translate(354.314 630.334)">
      <path id="Trazado_1038" data-name="Trazado 1038" d="M658.965,1199.137s5.925,1.521,9.691.387,10.249.729,11.293,2.1.66,1.919-1.2,2.393-8.462,3.289-12.8,1.66a34.555,34.555,0,0,0-9.995-1.688Z" transform="translate(-607.757 -1141.063)" fill="#fab4df"/>
      <path id="Trazado_1039" data-name="Trazado 1039" d="M520.36,1042.357s6.656,47.307,17.677,51.544c5.438,2.09,29.473,6.83,36.582,7.306,0,0,1.742-1.413,1.317-7.164,0,0-25.181-9.245-28.758-14.272-5.324-7.482,3.305-30.567-3.375-37.594S525.871,1032.128,520.36,1042.357Z" transform="translate(-520.36 -1035.752)" fill="#4e01d4"/>
    </g>
    <rect id="Rectángulo_189" data-name="Rectángulo 189" width="9.205" height="80.557" rx="4.602" transform="translate(364.369 824.502) rotate(180)" fill="#2b478b"/>
    <path id="Trazado_1040" data-name="Trazado 1040" d="M455.785,1577.417c2.978-6.163,14.565-10.759,28.4-10.759s25.428,4.6,28.405,10.759Z" transform="translate(-124.423 -747.619)" fill="#2b478b"/>
    <path id="Rectángulo_190" data-name="Rectángulo 190" d="M1.623,0h40.03a1.623,1.623,0,0,1,1.623,1.623v0a1.623,1.623,0,0,1-1.623,1.623H1.623A1.623,1.623,0,0,1,0,1.623v0A1.623,1.623,0,0,1,1.623,0Z" transform="translate(381.404 808.9) rotate(180)" fill="#2b478b"/>
    <path id="Trazado_1041" data-name="Trazado 1041" d="M511.26,1284.364a82.964,82.964,0,0,0,6.5,9.3c7.154,9.031,14.941,16.477,16.3,23.516a31.93,31.93,0,0,0,1.258,4.505c.567,1.612,1.267,3.308,2.075,5.061a155.883,155.883,0,0,0,12.108,20.7c7.836,11.61,15.2,21.3,15.2,21.3l13.512-.576c-.541-1.355-6.435-17.386-14.318-36.977-3.2-7.953-6.605-16.412-9.89-24.571q-.656-1.634-1.308-3.25c-1-2.5-1.992-4.954-2.957-7.347-7.4-18.4-13.3-33.044-13.3-33.044s-29.587-11.208-32.66-3.945C501.251,1265.023,503.314,1270.89,511.26,1284.364Z" transform="translate(-154.703 -547.76)" fill="#2b478b"/>
    <path id="Trazado_1042" data-name="Trazado 1042" d="M678.219,1558.718s.691,11.15,2.848,11.31c.287.021,10.942.021,10.942.021l13.6-.079s-.089-3.277-4.064-3.97-10.63-3.487-13.038-8.741C685.973,1551.731,678.219,1558.718,678.219,1558.718Z" transform="translate(-267.795 -740.189)" fill="#163560"/>
    <path id="Trazado_1043" data-name="Trazado 1043" d="M574.688,1475.6s-9.4,6.039-8.486,8c.121.261,5.315,9.564,5.315,9.564l6.7,11.837s2.818-1.675,1.485-5.484-2.137-10.981,1.276-15.645C584.569,1478.97,574.688,1475.6,574.688,1475.6Z" transform="translate(-195.553 -688.93)" fill="#163560"/>
    <rect id="Rectángulo_191" data-name="Rectángulo 191" width="81.534" height="20.729" rx="7.776" transform="translate(400.534 760.335) rotate(180)" fill="#ff7171"/>
    <path id="Trazado_1044" data-name="Trazado 1044" d="M545.033,996.954a20.964,20.964,0,0,1,5.657,5.127c-8.9,2.3-23.646-5.943-23.646-5.943a21.821,21.821,0,0,0,7.848-12.3q.162-.64.292-1.312a26.719,26.719,0,0,0,.482-4.63l4.087,3.661,6.8,6.089a58.4,58.4,0,0,1-1,6.872Q545.323,995.653,545.033,996.954Z" transform="translate(-170.354 -368.125)" fill="#fab4df"/>
    <path id="Trazado_1045" data-name="Trazado 1045" d="M500.107,1065.659c1.274,17.14-.4,43.209,1.044,47.723,1.248,3.9,15.464,1.58,21.138.279,2.1-.481,4.645-1.169,7.272-1.981,7.329-2.27,15.315-5.51,16.171-7.916a2.056,2.056,0,0,0,.079-.277,2.2,2.2,0,0,0-.015-1.008c-.286-1.226-1.386-2.553-1.516-5.589-.145-3.39-.123-7.381-.251-11.674-.006-.484-.013-1.01-.066-1.492l0-.176c0-.092,0-.182-.007-.274-.123-4.787-.373-9.82-.663-14.812-.185-3.135-.4-6.239-.644-9.214-.639-7.678-1.5-14.506-2.641-18.823-1.863-7.037-5.971-11.626-9.71-14.99l-2.7-2.32a15.639,15.639,0,0,1-9.814-1.307c-3.493-1.659-4.7-2.847-5.307-2.4C504.4,1025.635,498.6,1044.706,500.107,1065.659Z" transform="translate(-152.838 -394.824)" fill="#4e01d4"/>
    <path id="Trazado_1046" data-name="Trazado 1046" d="M559.216,1204.9c7.329-2.27,15.315-5.51,16.171-7.916a2.013,2.013,0,0,0,.079-.276c0-.336-.009-.673-.015-1.008-.286-1.226-1.386-2.553-1.516-5.589-.145-3.39-.123-7.381-.251-11.674-.006-.483-.013-1.01-.066-1.492l0-.176c0-.092,0-.182-.007-.274l-27.683-12.555S544.332,1186.247,559.216,1204.9Z" transform="translate(-182.493 -488.04)" fill="#320499"/>
    <path id="Trazado_1047" data-name="Trazado 1047" d="M560.038,994.283a58.465,58.465,0,0,1-1,6.872c-6.636-2.144-9.647-8.138-10.652-10.681-.286-.718-.409-1.162-.409-1.162l.7-.149,4.569-.969Z" transform="translate(-183.843 -374.764)" fill="#f590ce"/>
    <path id="Trazado_1048" data-name="Trazado 1048" d="M559.672,961.179s-14.58,1.645-15.464-7.451-3.362-15.008,5.909-16.443,11.42,1.86,12.454,4.824S563.441,960.517,559.672,961.179Z" transform="translate(-180.79 -341.727)" fill="#fab4df"/>
    <path id="Trazado_1049" data-name="Trazado 1049" d="M537.333,943.776s.925-12.073,14.2-13.323c9.09-.857,4.022-8.68,3.053-9.928,0,0-6.964.955-14.1,2.134C525.494,925.134,535.861,941.9,537.333,943.776Z" transform="translate(-173.853 -331.147)" fill="#740646"/>
    <g id="Grupo_496" data-name="Grupo 496" transform="translate(398.465 666.845)">
      <rect id="Rectángulo_192" data-name="Rectángulo 192" width="1.342" height="35.137" transform="translate(36.866 33.833) rotate(-162.008)" fill="#4a75cb"/>
      <rect id="Rectángulo_193" data-name="Rectángulo 193" width="36.872" height="2.206" transform="translate(36.864 33.833) rotate(-178.777)" fill="#4a75cb"/>
    </g>
    <g id="Grupo_497" data-name="Grupo 497" transform="translate(357.252 633.371)">
      <path id="Trazado_1050" data-name="Trazado 1050" d="M649.449,1219.6s5.721,2.166,9.59,1.453,10.106,1.854,10.992,3.334.445,1.98-1.459,2.246-8.773,2.336-12.9.239a34.557,34.557,0,0,0-9.748-2.78Z" transform="translate(-604.228 -1157.29)" fill="#fab4df"/>
      <path id="Trazado_1051" data-name="Trazado 1051" d="M528.624,1049.805s1.4,47.752,11.887,53.178c5.174,2.678,28.54,10.038,35.554,11.295,0,0,1.887-1.213,2.1-6.975,0,0-24.008-11.964-27.009-17.355-4.467-8.024,6.655-30.017.79-37.738S535.229,1040.247,528.624,1049.805Z" transform="translate(-528.624 -1044.297)" fill="#4e01d4"/>
    </g>
    <g id="Grupo_498" data-name="Grupo 498" transform="translate(813.645 598.64)">
      <path id="Trazado_1053" data-name="Trazado 1053" d="M1958.918,1575.392a25.933,25.933,0,0,1,1.775-6.651c1.24-2.48,9.131-.9,9.131-.9s1.578,1.352,1.917,7.665Z" transform="translate(-1906.928 -1346.702)" fill="#280575"/>
      <path id="Trazado_1054" data-name="Trazado 1054" d="M1837.755,1565.911c1.854-1.132.8-9.574.8-9.574s-8.639-6.911-9.827-1.62-8.207,7.668-12.2,8.316c-2.759.448-3.613,1.975-3.877,2.879Z" transform="translate(-1812.648 -1337.276)" fill="#280575"/>
      <path id="Trazado_1055" data-name="Trazado 1055" d="M1880.257,1300.228a39.9,39.9,0,0,0-.634,4.667c-.8,15.665-13.187,51.483-15.4,52.318-3.428,1.294-8.824-1.456-11.648-2.355a2.422,2.422,0,0,1-1.7-2.751c6.132-28.192,8.386-68.788,9.207-92.823a109.045,109.045,0,0,1,2.492-20.469s30.2-8.059,30.382,2.136C1893.114,1249.97,1882.951,1285.347,1880.257,1300.228Z" transform="translate(-1837.255 -1132.995)" fill="#2d2e2f"/>
      <path id="Trazado_1056" data-name="Trazado 1056" d="M1897.043,1300.228l-20.176-40.944a109.059,109.059,0,0,1,2.492-20.469s30.2-8.059,30.382,2.136C1909.9,1249.97,1899.736,1285.347,1897.043,1300.228Z" transform="translate(-1854.041 -1132.995)"/>
      <path id="Trazado_1057" data-name="Trazado 1057" d="M1914.725,1243.731l15.967,115.719s7.011,1.691,12.464.338c0,0,4.675-61.545,4.285-76.424s3.354-39.814-.855-42.563S1914.725,1243.731,1914.725,1243.731Z" transform="translate(-1878.442 -1135.74)" fill="#2d2e2f"/>
      <path id="Trazado_1058" data-name="Trazado 1058" d="M1925.944,1088.766l1.99,27.783a2.216,2.216,0,0,1-1.6,2.289c-2.227.646-4.8,1.1-9.747,2.122a94.554,94.554,0,0,1-18.6,1.869c-12.23.078-16.86-4.138-16.86-4.138-.527.01.278-2.55,1-14.72.246-4.122.483-9.349.654-15.953.155-5.943.258-13,.268-21.378.013-10.075,15.608-20.915,15.9-20.915l0,.005c0,1.451,2.286,4.128,5.807,4.358,4.18.273,9.308-1.807,9.308-4.214,0-.024,7.555,12.087,10.239,24.992.342,1.636.6,3.362.815,5.179,0,.027.007.055.01.083q.058.5.109,1c.007.059.011.119.018.177.031.305.062.615.089.925.008.088.015.179.023.267.026.285.051.568.074.855,0,.027,0,.052.006.078.018.213.032.428.049.643.011.151.023.306.034.459.018.252.034.5.052.758.008.127.016.253.024.382.014.241.029.483.044.729.007.107.013.216.02.325.019.351.039.706.057,1.063,0,.03,0,.057.005.086q.027.515.05,1.038c0,.086.009.171.012.257.016.327.031.655.044.987,0,.049,0,.1.006.146q.052,1.21.1,2.461c0,.021,0,.042,0,.064Z" transform="translate(-1856.678 -1010.486)" fill="#4e01d4"/>
      <path id="Trazado_1059" data-name="Trazado 1059" d="M1883.944,1045.727s-14.5-.123-17.991,4.771-11.142,31.226-7.149,39.988,11.465-3.624,15.612-8.991S1883.944,1045.727,1883.944,1045.727Z" transform="translate(-1841.673 -1010.487)" fill="#4e01d4"/>
      <path id="Trazado_1060" data-name="Trazado 1060" d="M1931.081,1023.818l.008,1.5s-.408,4.688,5.365,5.372,10.146-1.828,9.99-5.446a42.452,42.452,0,0,1-1.129-7.043,16.283,16.283,0,0,1,.205-2.807l-11.187-.224-3.295.539Z" transform="translate(-1888.957 -990.792)" fill="#fab4df"/>
      <path id="Trazado_1061" data-name="Trazado 1061" d="M1931.038,1015.708l.043,8.109a9.464,9.464,0,0,0,4.032.89c5.141,0,8.464-3.77,10.2-6.506a16.283,16.283,0,0,1,.205-2.807l-11.187-.224Z" transform="translate(-1888.957 -990.792)" fill="#de99c4"/>
      <path id="Trazado_1062" data-name="Trazado 1062" d="M1940.7,978.832c-1.3,6.985-10.311,6.756-14.206,6.317-1.1-.122-1.786-.262-1.786-.262-1.236-.331-1.926-2.277-2.246-4.827-.636-5.047.168-12.455,1.02-14.349,1.283-2.851,3.7-5.934,12.777-3.71S1942.369,969.882,1940.7,978.832Z" transform="translate(-1883.285 -956.03)" fill="#fab4df"/>
      <path id="Trazado_1063" data-name="Trazado 1063" d="M1917.749,949.615a30.013,30.013,0,0,0,8.708-2.356c3.825-1.663,8.65.169,10.217.994a2.33,2.33,0,0,0-.382-.943,2.1,2.1,0,0,1,.807,1.2c.073.053.1.09.086.1a2.7,2.7,0,0,1,1.31.085s-.359-.052-.487.179a.222.222,0,0,1-.058.063c5.966,2.883,6.517,12.312,4.6,14.494-2.31,2.625-5.08,8.536-5.08,8.536a5.066,5.066,0,0,1-.59-3.707c.42-2.31-1.575-2.31-4.095-3.36s-.42-3.99-2.625-5.775-10.29-.735-10.185-2.1C1916.972,955.932,1917.749,949.923,1917.749,949.615Z" transform="translate(-1880.333 -946.584)" fill="#2d2e2f"/>
      <path id="Trazado_1064" data-name="Trazado 1064" d="M1918.052,1165.246c-2.368,9.508-27.973,14.421-33.794,15.419.246-4.122.483-9.348.654-15.953Z" transform="translate(-1858.805 -1087.181)" fill="#280575"/>
      <path id="Trazado_1065" data-name="Trazado 1065" d="M1960.648,1156.739a45.115,45.115,0,0,0,6.668-1.3c.976-.488,5.439-6.83,2.516-8.457s-10.769,4.879-10.769,4.879Z" transform="translate(-1907.021 -1075.583)" fill="#fab4df"/>
      <path id="Trazado_1066" data-name="Trazado 1066" d="M1869.933,1159.566s21.072,1.143,35.213-1.884a6.078,6.078,0,0,0-4.087-5.9s-22.04-4.672-27.334-3.37S1869.933,1159.566,1869.933,1159.566Z" transform="translate(-1849.444 -1076.527)" fill="#4e01d4"/>
      <path id="Trazado_1067" data-name="Trazado 1067" d="M1973.8,1077.261c-4.374,5.273-10.09,9.577-16.392,10.586h0a11.747,11.747,0,0,1-1.56-7.037,14.083,14.083,0,0,1,2.295-6.46,14.3,14.3,0,0,0,1.239-2.5c3.441-8.781,2.929-25.7,2.929-25.7s14.614,1.531,19.168,8.036C1984.268,1058.165,1980.711,1068.924,1973.8,1077.261Z" transform="translate(-1904.921 -1010.757)" fill="#4e01d4"/>
      <path id="Trazado_1068" data-name="Trazado 1068" d="M1926.913,1019.278c-1.1-.122-1.786-.262-1.786-.262-1.236-.331-1.925-2.277-2.246-4.827a6.1,6.1,0,0,1,3.822,3.124A4.477,4.477,0,0,1,1926.913,1019.278Z" transform="translate(-1883.7 -990.159)" fill="#de99c4"/>
      <path id="Trazado_1069" data-name="Trazado 1069" d="M1912.913,1023.8s-5.048-8.329-1.123-8.691a5.936,5.936,0,0,1,6.069,3.27c.567.976-.148,5.377-.148,5.377Z" transform="translate(-1875.588 -990.731)" fill="#fab4df"/>
      <path id="Trazado_1070" data-name="Trazado 1070" d="M1934.859,1073.634a10.868,10.868,0,0,1-.86,2.892,13.847,13.847,0,0,1-3.214,4.427h0c-13.108-5.917-15.761-26.235-16.2-37.4-.179-4.487,0-7.5,0-7.5,5.913-1.958,7.575,1.444,7.575,1.444s6.982,16.6,10.6,27.454C1934.144,1069.108,1935.037,1072.419,1934.859,1073.634Z" transform="translate(-1878.297 -1003.864)" fill="#280575"/>
      <path id="Trazado_1071" data-name="Trazado 1071" d="M1947.322,1085.062c-4.374,5.273-10.09,9.577-16.392,10.586h0c-13.108-5.917-15.761-26.235-16.2-37.4,0,0,6.2,22.5,14.645,30.361a9.214,9.214,0,0,0,4.775,2.612s10.646-3.009,12.879-5.842A1.2,1.2,0,0,1,1947.322,1085.062Z" transform="translate(-1878.442 -1018.558)" fill="#4e01d4"/>
    </g>
    <g id="Grupo_502" data-name="Grupo 502" transform="translate(644.716 470.638)">
      <path id="Trazado_1072" data-name="Trazado 1072" d="M1583.458,643.823H1354.9l-17.516-57.361h228.56Z" transform="translate(-1337.382 -586.462)" fill="#fafdff"/>
      <g id="Grupo_500" data-name="Grupo 500" transform="translate(19.277 13.907)">
        <path id="Trazado_1073" data-name="Trazado 1073" d="M1592.2,631.077l2.1,6.861c.922,3.019-.794,5.489-3.813,5.489H1401.124a8.083,8.083,0,0,1-7.165-5.489l-2.1-6.861c-.922-3.019.794-5.489,3.813-5.489h189.358A8.082,8.082,0,0,1,1592.2,631.077Z" transform="translate(-1391.615 -625.588)" fill="#bdd5f1"/>
        <g id="Grupo_499" data-name="Grupo 499" transform="translate(159.488 5.931)">
          <path id="Trazado_1074" data-name="Trazado 1074" d="M1843.5,643.444h-2.906l-.273-.891h4.062l.234.768-1.078,5.01H1842.4Z" transform="translate(-1840.32 -642.454)" fill="#699dee"/>
          <path id="Trazado_1075" data-name="Trazado 1075" d="M1855.916,645.263c-.5-1.651.094-2.988,1.613-2.988a3.942,3.942,0,0,1,3.422,2.988c.5,1.651-.094,2.988-1.613,2.988A3.934,3.934,0,0,1,1855.916,645.263Zm3.987,0c-.347-1.139-1.218-2.072-2.109-2.072s-1.184.908-.828,2.072c.347,1.139,1.209,2.071,2.109,2.071S1860.255,646.418,1859.9,645.263Z" transform="translate(-1850.259 -642.275)" fill="#699dee"/>
          <path id="Trazado_1076" data-name="Trazado 1076" d="M1871.437,643.845c-.244-.8.1-1.477.918-1.477a2.029,2.029,0,0,1,1.8,1.477c.245.8-.1,1.478-.918,1.478A2.03,2.03,0,0,1,1871.437,643.845Zm4.38-1.411h.817l-2.462,5.778h-.817Zm-2.391,1.411a1.1,1.1,0,0,0-.892-.842c-.389,0-.5.38-.362.842a1.093,1.093,0,0,0,.892.842C1873.452,644.687,1873.567,644.308,1873.426,643.845Zm2.4,2.956c-.244-.8.1-1.478.919-1.478a2.03,2.03,0,0,1,1.805,1.478c.244.8-.1,1.477-.919,1.477A2.031,2.031,0,0,1,1875.83,646.8Zm1.99,0a1.1,1.1,0,0,0-.892-.842c-.388,0-.5.38-.362.842a1.092,1.092,0,0,0,.893.842C1877.845,647.642,1877.961,647.262,1877.82,646.8Z" transform="translate(-1860.327 -642.335)" fill="#699dee"/>
        </g>
        <path id="Trazado_1077" data-name="Trazado 1077" d="M1523.718,625.588l5.448,17.838H1401.124a8.059,8.059,0,0,1-6.518-4.029,6.778,6.778,0,0,1-.647-1.459l-2.1-6.861c-.922-3.019.794-5.489,3.813-5.489Z" transform="translate(-1391.615 -625.588)" fill="#d34242"/>
        <path id="Trazado_1078" data-name="Trazado 1078" d="M1423.765,625.588l-5.4,17.838h-11.819a8.059,8.059,0,0,1-6.518-4.029l4.177-13.809Z" transform="translate(-1397.039 -625.588)" fill="#ff7171"/>
        <path id="Trazado_1079" data-name="Trazado 1079" d="M1515.831,625.588l-5.4,17.838H1490.88l5.4-17.838Z" transform="translate(-1455.597 -625.588)" fill="#ff7171"/>
        <path id="Trazado_1080" data-name="Trazado 1080" d="M1610.108,625.588l-5.4,17.838h-19.558l5.4-17.838Z" transform="translate(-1516.361 -625.588)" fill="#ff7171"/>
        <path id="Trazado_1081" data-name="Trazado 1081" d="M1704.394,625.588l-5.4,17.838h-19.558l5.4-17.838Z" transform="translate(-1577.135 -625.588)" fill="#ff7171"/>
      </g>
      <g id="Grupo_501" data-name="Grupo 501" transform="translate(28.596 39.953)">
        <path id="Trazado_1082" data-name="Trazado 1082" d="M1452.753,701.225h-34.2l-.72-2.359h34.2Z" transform="translate(-1417.834 -698.866)" fill="#afcdfb"/>
        <path id="Trazado_1083" data-name="Trazado 1083" d="M1449.071,719.784h-24.849l-.72-2.359h24.848Z" transform="translate(-1421.488 -710.829)" fill="#afcdfb"/>
        <path id="Trazado_1084" data-name="Trazado 1084" d="M1513.3,719.784h-14.853l-.72-2.359h14.853Z" transform="translate(-1469.327 -710.829)" fill="#afcdfb"/>
        <path id="Trazado_1085" data-name="Trazado 1085" d="M1570.147,719.784h-22.69l-.72-2.359h22.69Z" transform="translate(-1500.92 -710.829)" fill="#afcdfb"/>
        <path id="Trazado_1086" data-name="Trazado 1086" d="M1532.358,701.225H1522l-.72-2.359h10.355Z" transform="translate(-1484.513 -698.866)" fill="#afcdfb"/>
        <path id="Trazado_1087" data-name="Trazado 1087" d="M1598.758,701.225H1561.1l-.72-2.359h37.653Z" transform="translate(-1509.717 -698.866)" fill="#afcdfb"/>
      </g>
    </g>
    <g id="Grupo_518" data-name="Grupo 518" transform="translate(396.507 532.731)">
      <path id="Trazado_1088" data-name="Trazado 1088" d="M824.846,843H664.057l-24.992-81.843H799.854Z" transform="translate(-639.065 -761.155)" fill="#fafdff"/>
      <path id="Trazado_1089" data-name="Trazado 1089" d="M824.044,813.208H683.651l-10.622-34.783H813.423Z" transform="translate(-660.957 -772.287)" fill="#bad4f4"/>
      <g id="Grupo_503" data-name="Grupo 503" transform="translate(21.43 11.353)">
        <path id="Trazado_1090" data-name="Trazado 1090" d="M723.7,794.95H699.923l-.567-1.855h23.782Z" transform="translate(-699.356 -793.095)" fill="#cae0ff"/>
        <path id="Trazado_1091" data-name="Trazado 1091" d="M802.529,794.95H782.75l-.567-1.855h19.779Z" transform="translate(-752.743 -793.095)" fill="#cae0ff"/>
        <path id="Trazado_1092" data-name="Trazado 1092" d="M893.775,794.95h-40.88l-.567-1.855h40.88Z" transform="translate(-797.956 -793.095)" fill="#cae0ff"/>
        <path id="Trazado_1093" data-name="Trazado 1093" d="M729.417,813.655H705.635l-.566-1.855H728.85Z" transform="translate(-703.038 -805.151)" fill="#cae0ff"/>
        <path id="Trazado_1094" data-name="Trazado 1094" d="M808.241,813.655H788.462L787.9,811.8h19.779Z" transform="translate(-756.425 -805.151)" fill="#cae0ff"/>
        <path id="Trazado_1095" data-name="Trazado 1095" d="M873.96,813.655H854.181l-.566-1.855h19.779Z" transform="translate(-798.785 -805.151)" fill="#cae0ff"/>
        <path id="Trazado_1096" data-name="Trazado 1096" d="M967.564,815.83h-40.88l-.567-1.856H967Z" transform="translate(-845.517 -806.553)" fill="#cae0ff"/>
      </g>
      <g id="Grupo_504" data-name="Grupo 504" transform="translate(26.034 26.43)">
        <path id="Trazado_1097" data-name="Trazado 1097" d="M736.658,837.37H712.877l-.567-1.856h23.782Z" transform="translate(-712.31 -835.515)" fill="#cae0ff"/>
        <path id="Trazado_1098" data-name="Trazado 1098" d="M815.483,837.37H795.7l-.567-1.856h19.779Z" transform="translate(-765.697 -835.515)" fill="#cae0ff"/>
        <path id="Trazado_1099" data-name="Trazado 1099" d="M906.729,837.37h-40.88l-.567-1.856h40.88Z" transform="translate(-810.909 -835.515)" fill="#cae0ff"/>
        <path id="Trazado_1100" data-name="Trazado 1100" d="M742.37,856.076H718.589l-.567-1.855H741.8Z" transform="translate(-715.992 -847.572)" fill="#cae0ff"/>
        <path id="Trazado_1101" data-name="Trazado 1101" d="M821.195,856.076H801.416l-.567-1.855h19.779Z" transform="translate(-769.379 -847.572)" fill="#cae0ff"/>
        <path id="Trazado_1102" data-name="Trazado 1102" d="M886.913,856.076H867.134l-.567-1.855h19.779Z" transform="translate(-811.738 -847.572)" fill="#cae0ff"/>
        <path id="Trazado_1103" data-name="Trazado 1103" d="M980.518,858.25h-40.88l-.566-1.855h40.88Z" transform="translate(-858.471 -848.973)" fill="#cae0ff"/>
      </g>
      <g id="Grupo_517" data-name="Grupo 517" transform="translate(45.912 49.971)">
        <g id="Grupo_507" data-name="Grupo 507" transform="translate(57.569)">
          <g id="Grupo_505" data-name="Grupo 505">
            <path id="Trazado_1104" data-name="Trazado 1104" d="M943.552,921.51c-5.449,0-11.237-4.433-12.9-9.883s1.416-9.883,6.865-9.883,11.237,4.433,12.9,9.883S949,921.51,943.552,921.51Zm-5.485-17.961c-4.454,0-6.972,3.624-5.611,8.078s6.09,8.078,10.545,8.078,6.971-3.624,5.611-8.078S942.522,903.549,938.068,903.549Z" transform="translate(-930.2 -901.744)" fill="#05d6bd"/>
          </g>
          <g id="Grupo_506" data-name="Grupo 506" transform="translate(4.147 5.803)">
            <path id="Trazado_1105" data-name="Trazado 1105" d="M949.391,927.177a2.079,2.079,0,0,1-1.115-.46l-5.6-4.441a1.637,1.637,0,0,1-.6-2.126,1.514,1.514,0,0,1,2.141.047l3.96,3.138,1.946-4.644c.282-.672,1.177-.821,2-.335a1.849,1.849,0,0,1,.977,2.1l-2.558,6.1a1.037,1.037,0,0,1-.927.618A1.5,1.5,0,0,1,949.391,927.177Z" transform="translate(-941.868 -918.071)" fill="#05d6bd"/>
          </g>
        </g>
        <g id="Grupo_510" data-name="Grupo 510" transform="translate(29.291)">
          <g id="Grupo_508" data-name="Grupo 508">
            <path id="Trazado_1106" data-name="Trazado 1106" d="M863.995,921.51c-5.449,0-11.236-4.433-12.9-9.883s1.415-9.883,6.865-9.883,11.237,4.433,12.9,9.883S869.444,921.51,863.995,921.51Zm-5.485-17.961c-4.454,0-6.971,3.624-5.611,8.078s6.09,8.078,10.545,8.078,6.972-3.624,5.611-8.078S862.965,903.549,858.51,903.549Z" transform="translate(-850.642 -901.744)" fill="#05d6bd"/>
          </g>
          <g id="Grupo_509" data-name="Grupo 509" transform="translate(4.147 5.803)">
            <path id="Trazado_1107" data-name="Trazado 1107" d="M869.833,927.177a2.079,2.079,0,0,1-1.115-.46l-5.6-4.441a1.637,1.637,0,0,1-.6-2.126,1.514,1.514,0,0,1,2.141.047l3.96,3.138,1.947-4.644c.282-.672,1.177-.821,2-.335a1.849,1.849,0,0,1,.977,2.1l-2.559,6.1a1.035,1.035,0,0,1-.927.618A1.507,1.507,0,0,1,869.833,927.177Z" transform="translate(-862.31 -918.071)" fill="#05d6bd"/>
          </g>
        </g>
        <g id="Grupo_513" data-name="Grupo 513">
          <g id="Grupo_511" data-name="Grupo 511">
            <path id="Trazado_1108" data-name="Trazado 1108" d="M781.587,921.51c-5.449,0-11.236-4.433-12.9-9.883s1.416-9.883,6.865-9.883,11.237,4.433,12.9,9.883S787.036,921.51,781.587,921.51ZM776.1,903.549c-4.454,0-6.972,3.624-5.611,8.078s6.091,8.078,10.545,8.078,6.972-3.624,5.611-8.078S780.557,903.549,776.1,903.549Z" transform="translate(-768.234 -901.744)" fill="#05d6bd"/>
          </g>
          <g id="Grupo_512" data-name="Grupo 512" transform="translate(4.147 5.803)">
            <path id="Trazado_1109" data-name="Trazado 1109" d="M787.425,927.177a2.079,2.079,0,0,1-1.115-.46l-5.6-4.441a1.637,1.637,0,0,1-.6-2.126,1.514,1.514,0,0,1,2.141.047l3.96,3.138,1.946-4.644c.282-.672,1.177-.821,2-.335a1.849,1.849,0,0,1,.977,2.1l-2.558,6.1a1.037,1.037,0,0,1-.927.618A1.505,1.505,0,0,1,787.425,927.177Z" transform="translate(-779.902 -918.071)" fill="#05d6bd"/>
          </g>
        </g>
        <g id="Grupo_516" data-name="Grupo 516" transform="translate(84.851)">
          <g id="Grupo_514" data-name="Grupo 514">
            <path id="Trazado_1110" data-name="Trazado 1110" d="M1020.308,921.51c-5.449,0-11.236-4.433-12.9-9.883s1.415-9.883,6.865-9.883,11.236,4.433,12.9,9.883S1025.757,921.51,1020.308,921.51Zm-5.485-17.961c-4.454,0-6.971,3.624-5.611,8.078s6.09,8.078,10.545,8.078,6.972-3.624,5.611-8.078S1019.278,903.549,1014.823,903.549Z" transform="translate(-1006.956 -901.744)" fill="#f1a34f"/>
          </g>
          <g id="Grupo_515" data-name="Grupo 515" transform="translate(7.658 4.506)">
            <path id="Trazado_1111" data-name="Trazado 1111" d="M1031.671,921.416h0a2.058,2.058,0,0,1-1.824-1.4l-1.282-4.2a1,1,0,0,1,.971-1.4h0a2.057,2.057,0,0,1,1.824,1.4l1.282,4.2A1,1,0,0,1,1031.671,921.416Z" transform="translate(-1028.502 -914.422)" fill="#f1a34f"/>
            <path id="Trazado_1112" data-name="Trazado 1112" d="M1037.074,938.848h-.3a1.836,1.836,0,0,1-1.627-1.247h0a.893.893,0,0,1,.866-1.246h.3a1.837,1.837,0,0,1,1.628,1.246h0A.893.893,0,0,1,1037.074,938.848Z" transform="translate(-1032.747 -928.559)" fill="#f1a34f"/>
          </g>
        </g>
      </g>
    </g>
    <path id="Trazado_1113" data-name="Trazado 1113" d="M546.969,1260.543s36.619,22.8,40.765,38.347-49.4,48.71-49.4,48.71-5.873-5.182-6.909-8.982c0,0,24.2-29,29.455-35.5,3.224-3.992-47.677-13.82-53.9-23.493s-3.992-17.812-3.992-17.812Z" transform="translate(-154.6 -550.309)" fill="#00a7cc"/>
  </g>
</svg>
