<svg xmlns="http://www.w3.org/2000/svg" width="77.788" height="58.909" viewBox="0 0 77.788 58.909">
  <g id="Grupo_161" data-name="Grupo 161" transform="translate(451.78 -1330.641)">
    <g id="Grupo_160" data-name="Grupo 160" transform="translate(-451.78 1330.641)">
      <path id="Trazado_428" data-name="Trazado 428" d="M-378.556,1330.641c.357.113.721.209,1.069.344a5.433,5.433,0,0,1,3.482,5.138q.025,12.786,0,25.572a5.4,5.4,0,0,1-5.54,5.354c-2,.031-4,.006-6,.006h-.914c.186,1.36.363,2.648.536,3.937.091.677.194,1.352.248,2.032a2.226,2.226,0,0,1-1.273,2.366,2.3,2.3,0,0,1-2.722-.468q-3.749-3.656-7.461-7.352a1.583,1.583,0,0,0-1.255-.527c-1.591.033-3.182.012-4.869.012v.881c0,2.4.009,4.805,0,7.208-.015,3.57-2.217,5.771-5.782,5.774q-9.15.011-18.3-.009a1.626,1.626,0,0,0-1.261.519c-2.438,2.428-4.9,4.831-7.348,7.25a2.358,2.358,0,0,1-2.391.787,2.281,2.281,0,0,1-1.779-2.625c.209-1.756.475-3.5.715-5.258.026-.194.039-.389.067-.663-2.048,0-4.042.006-6.038,0a11.936,11.936,0,0,1-1.894-.071,5.22,5.22,0,0,1-4.177-3.446c-.121-.3-.223-.606-.333-.908v-8.2c.392-.509.842-.9,1.54-.63s.746.869.742,1.507c-.011,2.024-.006,4.049,0,6.071a3.106,3.106,0,0,0,3.384,3.4c2.583,0,5.164-.006,7.746,0,1.178,0,1.6.494,1.458,1.664-.106.852-.244,1.7-.362,2.551-.2,1.417-.388,2.833-.609,4.453.339-.3.527-.457.7-.627,2.475-2.427,4.963-4.843,7.413-7.3a2.436,2.436,0,0,1,1.882-.76c6.279.021,12.556.012,18.834.012,2.292,0,3.517-1.211,3.519-3.5q.007-12.37,0-24.741c0-2.35-1.21-3.538-3.558-3.538-12.251,0-24.5.032-36.756-.031a3.422,3.422,0,0,0-3.682,3.693c.117,4.2.036,8.4.03,12.6,0,1-.613,1.6-1.435,1.347a3.312,3.312,0,0,1-.84-.58v-14.878c1.1-3.634,3.534-4.5,6.563-4.459,7.231.1,14.466.03,21.7.03h.993v-.885c0-2.527.012-5.055,0-7.584a4.985,4.985,0,0,1,1.933-4.177,14.1,14.1,0,0,1,2.69-1.3h2.886c.522.375.939.813.681,1.519s-.849.759-1.5.769a9.282,9.282,0,0,0-2.251.174,2.6,2.6,0,0,0-2.1,2.422c-.1,2.978-.032,5.962-.032,9.058h.837q5.164,0,10.33,0c3.562.008,5.771,2.2,5.784,5.784.015,4.479,0,8.957,0,13.436v.972c1.734,0,3.375.062,5.01-.021a3.128,3.128,0,0,1,2.591,1.072c2.319,2.368,4.715,4.663,7.081,6.984.159.156.327.3.674.622-.167-1.255-.3-2.306-.447-3.355-.17-1.226-.36-2.451-.518-3.679-.151-1.182.251-1.619,1.473-1.622,2.557,0,5.114,0,7.672,0a3.173,3.173,0,0,0,3.444-3.452q0-12.45,0-24.9a3.17,3.17,0,0,0-3.532-3.506q-14.66,0-29.318,0c-.177,0-.356-.009-.531,0-.651.036-1.238-.071-1.49-.769s.159-1.143.69-1.511Z" transform="translate(451.78 -1330.641)" fill="#fff"/>
      <path id="Trazado_429" data-name="Trazado 429" d="M-406.807,1340.871a2.724,2.724,0,0,1,2.74,2.666,2.735,2.735,0,0,1-2.695,2.793,2.769,2.769,0,0,1-2.757-2.75A2.754,2.754,0,0,1-406.807,1340.871Z" transform="translate(473.503 -1325.382)" fill="#fff"/>
      <path id="Trazado_430" data-name="Trazado 430" d="M-414.959,1340.871a2.747,2.747,0,0,1,2.7,2.789,2.755,2.755,0,0,1-2.751,2.671,2.755,2.755,0,0,1-2.7-2.795A2.743,2.743,0,0,1-414.959,1340.871Z" transform="translate(469.293 -1325.383)" fill="#fff"/>
      <path id="Trazado_431" data-name="Trazado 431" d="M-429.345,1369.07q-7.631,0-15.263,0a3.376,3.376,0,0,1-3.658-3.631q-.009-9.3,0-18.591a3.363,3.363,0,0,1,3.5-3.484q15.452-.009,30.9,0a3.315,3.315,0,0,1,3.446,3.216c.068.983.038,1.971.038,2.958q0,7.892,0,15.784a3.418,3.418,0,0,1-2.577,3.638,4.73,4.73,0,0,1-1.126.106Q-421.714,1369.075-429.345,1369.07Zm.056-23.431q-7.517,0-15.033,0c-1.391,0-1.667.285-1.667,1.7q0,8.914,0,17.83c0,1.305.307,1.622,1.594,1.623q15.071,0,30.141,0c1.291,0,1.594-.309,1.594-1.625q0-8.955,0-17.907c0-1.313-.3-1.619-1.6-1.62Q-421.773,1345.637-429.289,1345.639Z" transform="translate(453.584 -1324.104)" fill="#fff"/>
      <path id="Trazado_432" data-name="Trazado 432" d="M-431.325,1359.505c-2.254,1.048-4.347.692-5.77-.954a4.542,4.542,0,0,1-.385-5.363c1.223-1.926,3.164-2.462,6.052-1.609,0-.821-.009-1.612,0-2.4.012-.884.444-1.4,1.145-1.4s1.129.5,1.131,1.39c0,3.16-.008,6.319.008,9.479,0,.6-.083,1.128-.692,1.382A1.2,1.2,0,0,1-431.325,1359.505Zm-2.347-6.116a2.2,2.2,0,0,0-2.224,2.2,2.23,2.23,0,0,0,2.251,2.254,2.22,2.22,0,0,0,2.217-2.206A2.2,2.2,0,0,0-433.671,1353.389Z" transform="translate(458.772 -1321.834)" fill="#fff"/>
      <path id="Trazado_433" data-name="Trazado 433" d="M-438.874,1358.231c-2.315.754-4.142.279-5.29-1.329a4.136,4.136,0,0,1,.061-4.943c1.154-1.546,2.971-2,5.14-1.267a.819.819,0,0,0,.2-.173,1.093,1.093,0,0,1,1.351-.559,1.2,1.2,0,0,1,.811,1.308c-.009,2.07-.015,4.139,0,6.209.006.656-.1,1.249-.777,1.487A1.169,1.169,0,0,1-438.874,1358.231Zm-1.914-1.886a1.9,1.9,0,0,0,1.9-1.867,1.889,1.889,0,0,0-1.885-1.875,1.891,1.891,0,0,0-1.9,1.861A1.9,1.9,0,0,0-440.788,1356.345Z" transform="translate(455.289 -1320.744)" fill="#fff"/>
      <path id="Trazado_434" data-name="Trazado 434" d="M-428.482,1352.6c.818.338,1.438.592,2.058.851a2.85,2.85,0,0,1,2.082,2.45,2.955,2.955,0,0,1-3.229,3.037,4.257,4.257,0,0,1-2.83-1.125,1.2,1.2,0,0,1-.265-1.74c.459-.536,1.064-.547,1.735,0a1.869,1.869,0,0,0,1.808.5c.189-.061.442-.257.46-.415s-.2-.4-.377-.481c-.592-.281-1.213-.5-1.817-.757a2.444,2.444,0,0,1-1.7-2.568,2.692,2.692,0,0,1,2.118-2.3,4.031,4.031,0,0,1,3.311.7,1.13,1.13,0,0,1,.412,1.637,1.126,1.126,0,0,1-1.665.255A1.709,1.709,0,0,0-428.482,1352.6Z" transform="translate(462.495 -1320.714)" fill="#fff"/>
    </g>
  </g>
</svg>
