<svg xmlns="http://www.w3.org/2000/svg" width="74.56" height="74.531" viewBox="0 0 74.56 74.531">
  <g id="Grupo_162" data-name="Grupo 162" transform="translate(336.778 -1421.054)">
    <path id="Trazado_435" data-name="Trazado 435" d="M-262.217,1479.572a1.593,1.593,0,0,1-1.64.941q-20.145-.018-40.291,0a16.578,16.578,0,0,1-8.082-2.046q-10.467-5.7-20.93-11.413a6.8,6.8,0,0,1-3.541-6.96,6.847,6.847,0,0,1,5.46-5.856,6.868,6.868,0,0,1,4.565.718q7.173,3.591,14.349,7.177c.189.094.379.183.493.238a22.873,22.873,0,0,1,.016-2.682,6.147,6.147,0,0,1,5.867-5.251c3.065-.036,6.132,0,9.2-.022a1.793,1.793,0,0,0,.869-.232,19.958,19.958,0,0,1,13.252-2.655,18.941,18.941,0,0,1,8.954,3.635,2.507,2.507,0,0,0,1.648.536c2.736-.03,5.473.007,8.208-.025a1.509,1.509,0,0,1,1.606.963Zm-12.481-1.532c.019-.189.046-.321.046-.451q0-9.836-.012-19.673a.944.944,0,0,0-.334-.658,16.671,16.671,0,0,0-7.344-3.18,17.324,17.324,0,0,0-12.5,2.391,2.714,2.714,0,0,1-1.532.425c-3.047-.018-6.094-.024-9.14,0a3.726,3.726,0,0,0-3.748,4.825,3.692,3.692,0,0,0,3.763,2.619q7.6.011,15.2,0h.7v2.523h-.731c-5.744,0-11.487.012-17.231-.016a3.918,3.918,0,0,1-1.658-.4q-9.294-4.611-18.561-9.276a4.623,4.623,0,0,0-2.577-.566,4.408,4.408,0,0,0-3.811,3.416,4.318,4.318,0,0,0,2.123,4.806q10.532,5.759,21.078,11.5a14.3,14.3,0,0,0,6.98,1.721q14.321,0,28.642,0Zm2.589-19.875v19.844h7.371v-19.844Z" transform="translate(0 15.072)" fill="#fff"/>
    <path id="Trazado_436" data-name="Trazado 436" d="M-292.9,1421.054c.971.589,1.118,1.1.607,2.123q-1.831,3.665-3.666,7.329c-.085.172-.166.346-.283.59.526.108,1.008.2,1.488.307a15.967,15.967,0,0,1,12.59,14.477c.058.773.09,1.549.091,2.323q.011,7.773,0,15.543v.724h-2.476v-.691q0-8.148,0-16.3a13.57,13.57,0,0,0-2.151-7.672,13.069,13.069,0,0,0-10.949-6.27c-4.44-.127-8.888-.09-13.33-.019a13.538,13.538,0,0,0-12.68,9.426,13.4,13.4,0,0,0-.664,4.231q.016,10.914,0,21.828c0,.135-.012.27-.021.447h-2.452v-.595c0-7.413-.142-14.828.039-22.236.151-6.2,3.246-10.783,8.662-13.784a15.289,15.289,0,0,1,5.119-1.652c.091-.015.18-.039.34-.075-.1-.226-.178-.417-.27-.6q-1.829-3.665-3.66-7.332c-.514-1.031-.37-1.535.6-2.124Zm-2.409,2.5h-18.232c.057.151.088.259.136.357,1.116,2.235,2.244,4.463,3.341,6.705.168.342.391.358.694.358,3.3-.006,6.595-.012,9.89.007a.71.71,0,0,0,.742-.476c1.05-2.138,2.121-4.265,3.183-6.4C-295.474,1423.944-295.4,1423.771-295.311,1423.554Z" transform="translate(4.947)" fill="#fff"/>
    <path id="Trazado_437" data-name="Trazado 437" d="M-315.562,1452.551h3.817c1.552,0,3.105.015,4.658-.006a2.5,2.5,0,0,0,2.374-1.4,2.369,2.369,0,0,0-.268-2.625,2.348,2.348,0,0,0-1.964-.957c-1.706-.011-3.416.024-5.122-.015a4.905,4.905,0,0,1-4.572-3.522,4.875,4.875,0,0,1,1.808-5.423,4.638,4.638,0,0,1,2.756-.951c.442,0,.885,0,1.405,0v-2.494h2.508v2.487h4.918v2.464h-.637q-3.9,0-7.8,0a2.5,2.5,0,0,0-2.7,2.438,2.54,2.54,0,0,0,2.679,2.545c1.571.019,3.144-.009,4.716.009a4.89,4.89,0,0,1,4.941,4.138,4.949,4.949,0,0,1-4.707,5.768c-.442.017-.885,0-1.4,0v2.436h-2.5v-2.417h-4.917Z" transform="translate(9.921 7.026)" fill="#fff"/>
    <path id="Trazado_438" data-name="Trazado 438" d="M-320.176,1433.174l1.772,1.666c-.385.487-.782.935-1.116,1.425a8.457,8.457,0,0,0-1.488,4.869v4.917h-2.436c-.013-.183-.037-.352-.037-.52,0-1.59-.033-3.181.006-4.77A10.8,10.8,0,0,1-320.176,1433.174Z" transform="translate(6.616 6.037)" fill="#fff"/>
    <path id="Trazado_439" data-name="Trazado 439" d="M-316.974,1431.2l.623,2.406-2.181.9-1.252-2.159Z" transform="translate(8.464 5.053)" fill="#fff"/>
    <path id="Trazado_440" data-name="Trazado 440" d="M-289.563,1467.451h-2.388v-2.437h2.388Z" transform="translate(22.327 21.896)" fill="#fff"/>
  </g>
</svg>
