<svg xmlns="http://www.w3.org/2000/svg" width="75.27" height="75.233" viewBox="0 0 75.27 75.233">
  <path id="Trazado_424" data-name="Trazado 424" d="M-637.838,1314.818l3.649-.9c6.728.555,8.957,5.333,9.9,11.187,5.731-1.42,11.047-2.721,16.353-4.059,1.947-.491,3.153.055,3.651,2.12q2.141,8.905,4.4,17.78c.5,1.944-.245,3-2.08,3.471s-3.656.873-5.463,1.38c-2.768.776-4.128,2.908-3.544,5.441.6,2.625,2.892,3.97,5.785,3.338,1.833-.4,3.652-.88,5.472-1.344,1.747-.446,2.885.069,3.338,1.916q2.232,9.125,4.509,18.236a2.288,2.288,0,0,1-1.9,3.143q-9.117,2.255-18.233,4.521c-1.847.463-2.832-.309-3.251-2.058-.439-1.828-.864-3.658-1.367-5.469-.79-2.851-3.05-4.247-5.651-3.556-2.514.665-3.761,2.859-3.157,5.67.411,1.913.943,3.8,1.368,5.709a2.34,2.34,0,0,1-1.913,3.16q-9.122,2.239-18.234,4.516a2.368,2.368,0,0,1-3.219-1.832c-.219-.75-.387-1.515-.575-2.275-1.18-4.76-2.358-9.522-3.6-14.542-5.759,1.93-10.914,2.091-14.51-3.524l-.9-3.651c.65-6.595,5.327-8.806,11.217-9.772-1.389-5.61-2.719-10.907-4.007-16.215-.6-2.467-.117-3.26,2.345-3.886,4.551-1.156,9.114-2.26,13.668-3.4.8-.2,1.576-.465,2.288-.677a6.4,6.4,0,0,0-.017-.759,8.838,8.838,0,0,0-.247-1.147C-643.41,1322.239-642.474,1317.948-637.838,1314.818Zm-17.718,22.3c1.424,5.75,2.721,11.153,4.114,16.531.5,1.928-.149,3.029-2,3.509-1.9.492-3.811.9-5.691,1.449a4.41,4.41,0,0,0-3.383,5.339,4.5,4.5,0,0,0,5.527,3.449c1.534-.3,3.042-.74,4.565-1.111,3.623-.888,3.919-.707,4.829,2.961q1.884,7.6,3.765,15.2l15.171-3.758c-.346-1.8-.722-3.4-.952-5.021a8.56,8.56,0,0,1,6.229-9.717,8.52,8.52,0,0,1,10.187,5.017c.752,1.768,1.254,3.64,1.871,5.47l14.885-3.687-3.589-14.5c-3.139.094-6.127.6-8.962.156a7.054,7.054,0,0,1-5.874-6.011,11.5,11.5,0,0,1,.568-5.9c1.671-4.293,5.988-4.8,9.878-5.9l-3.768-15.221c-5.46,1.351-10.764,2.678-16.075,3.974-2.545.622-3.164.237-3.844-2.331-.441-1.666-.8-3.352-1.256-5.012-.779-2.833-3.062-4.269-5.636-3.6-2.509.65-3.78,2.863-3.188,5.658.34,1.609.795,3.191,1.166,4.793.688,2.96.314,3.575-2.605,4.3C-644.855,1334.474-650.083,1335.763-655.556,1337.118Z" transform="translate(667.013 -1313.914)" fill="#fff"/>
</svg>
