<svg id="mkt" xmlns="http://www.w3.org/2000/svg" viewBox="0 0 1200 1200"><defs><style>.cls-1{fill:#740945;}.cls-2{fill:#fefefe;}.cls-3{fill:#e5e6ed;}.cls-4{fill:#00e9d3;}.cls-5{fill:#4e13d1;}.cls-6{fill:#fff;}.cls-7{fill:#110239;}.cls-8{fill:#f590ce;}.cls-9{fill:#d6184f;}.cls-10{fill:#fccaea;}.cls-11{fill:#fab4df;}.cls-12{fill:#f4c70c;}.cls-13{fill:#e2b90f;}.cls-14{fill:#d0d1de;}.cls-15{font-size:38.38px;fill:#e4ecf3;font-family:FivoSans-Bold, Fivo Sans;font-weight:700;}</style></defs><polygon class="cls-1" points="718.75 1026.31 556.42 1026.31 569.77 831.38 705.41 831.38 718.75 1026.31"/><path class="cls-1" d="M740,995.1a10.61,10.61,0,0,0-8.81-4.69H544a10.63,10.63,0,0,0-8.81,4.69l-24.52,36.45a10.56,10.56,0,0,0,8.81,16.45H755.73a10.57,10.57,0,0,0,8.82-16.45Z"/><path class="cls-1" d="M1035,883.21H240.14a45.6,45.6,0,0,1-45.68-45.51V336.91a45.59,45.59,0,0,1,45.68-45.5H1035a45.59,45.59,0,0,1,45.68,45.5V837.7A45.6,45.6,0,0,1,1035,883.21Z"/><rect class="cls-2" x="235.26" y="330.61" width="804.65" height="507.26"/><rect class="cls-3" x="255.36" y="385.86" width="764.44" height="452.01"/><rect class="cls-4" x="255.36" y="385.86" width="764.44" height="37.39"/><rect class="cls-2" x="745.3" y="545.21" width="237.41" height="31.22"/><rect class="cls-2" x="745.3" y="600.4" width="237.41" height="31.22"/><rect class="cls-2" x="745.3" y="655.59" width="237.41" height="31.22"/><rect class="cls-2" x="325.87" y="460.77" width="237.41" height="31.22"/><rect class="cls-2" x="325.87" y="515.96" width="237.41" height="31.22"/><path class="cls-5" d="M552.21,525.61H104a28.37,28.37,0,0,0-28.42,28.31v144A28.37,28.37,0,0,0,104,726.2H384.8l107,90.59L441,726.2H552.21a28.37,28.37,0,0,0,28.42-28.31v-144A28.37,28.37,0,0,0,552.21,525.61Z"/><rect class="cls-6" x="244.47" y="564.43" width="302.05" height="17.32"/><rect class="cls-6" x="244.47" y="599.78" width="302.05" height="17.32"/><rect class="cls-6" x="244.47" y="635.12" width="302.05" height="17.32"/><rect class="cls-6" x="244.47" y="670.47" width="200.48" height="17.32"/><path class="cls-7" d="M220.56,622.81a58.28,58.28,0,1,1-58.27-58A58.16,58.16,0,0,1,220.56,622.81Z"/><ellipse class="cls-6" cx="162.29" cy="605.55" rx="16.44" ry="16.89"/><path class="cls-6" d="M162.58,625H162a29.14,29.14,0,0,0-29.19,29.08v18.55a56.89,56.89,0,0,0,59,0V654.07A29.14,29.14,0,0,0,162.58,625Z"/><path class="cls-8" d="M1096,152H647.79a28.36,28.36,0,0,0-28.42,28.31v144a28.36,28.36,0,0,0,28.42,28.31H777.56l-34.77,90.59,90.94-90.59H1096a28.37,28.37,0,0,0,28.42-28.31v-144A28.37,28.37,0,0,0,1096,152Z"/><rect class="cls-6" x="788.26" y="190.82" width="302.05" height="17.32"/><rect class="cls-6" x="788.26" y="226.17" width="302.05" height="17.32"/><rect class="cls-6" x="788.26" y="261.51" width="302.05" height="17.32"/><rect class="cls-6" x="788.26" y="296.86" width="200.48" height="17.32"/><path class="cls-7" d="M764.35,249.2a58.28,58.28,0,1,1-58.28-58A58.16,58.16,0,0,1,764.35,249.2Z"/><path class="cls-6" d="M722.52,231.94a16.45,16.45,0,1,1-16.45-16.89A16.68,16.68,0,0,1,722.52,231.94Z"/><path class="cls-6" d="M706.37,251.38h-.59a29.14,29.14,0,0,0-29.2,29.08V299a56.89,56.89,0,0,0,59,0V280.46A29.14,29.14,0,0,0,706.37,251.38Z"/><path class="cls-9" d="M970.31,810.29H792.54a26.13,26.13,0,0,1-26.18-26.08V763.62a26.13,26.13,0,0,1,26.18-26.09H970.31a26.14,26.14,0,0,1,26.19,26.09v20.59A26.14,26.14,0,0,1,970.31,810.29Z"/><path class="cls-10" d="M664.71,506.66a132.41,132.41,0,0,1-36,1.58,53.28,53.28,0,0,1-12.63-2.74c.59,14.92.7,49.88-10,64.36,0,0,3.83,17.19,35,17.7s34.67-22.91,34.67-22.91S665.35,528.66,664.71,506.66Z"/><path class="cls-11" d="M606.33,570.4a11.79,11.79,0,0,0,.48,1.22l.07.16a18.82,18.82,0,0,0,1,1.81l0,.08a20.67,20.67,0,0,0,1.58,2.2l.27.32a25.38,25.38,0,0,0,5.65,4.89l.41.27a33.6,33.6,0,0,0,4.21,2.2c.2.09.43.17.63.25a40.62,40.62,0,0,0,5.47,1.86,43.6,43.6,0,0,1,9.18-22,55,55,0,0,1,35.08-20.29c-2.66-11.64-5.35-25.85-5.67-36.68a132.41,132.41,0,0,1-36,1.58,53.28,53.28,0,0,1-12.63-2.74c.59,14.92.7,49.88-10,64.36l.1.37Z"/><path class="cls-10" d="M621.55,422.94s51.06-15,59.19-2.7,6.65,32.21,10,41,16.05,18,17.41,21.51-8.49,10.2-9.86,12.94-6.51,31.52-15.37,37.88-56.4-10.52-68.18-32.88S607.85,430.3,621.55,422.94Z"/><path class="cls-7" d="M644.8,431.86a50.35,50.35,0,0,1-5.38,26.28c-3,6.08,12.2,22.26,8,29.61-2.83,4.9-7,3.66-10.71-6-1.29-3.31-4.94-5.6-8.25-7-12.5-5.38-15.41,13.59-4.2,19.22,7.84,3.95,3.18,23.73,3.18,23.73-8.43,6.45-36.26-1.33-33.21-21.58,1.94-12.89,2.8-17.79-1.73-20.93-8.21-5.69-18.89-21.46-5.38-34.84,18.6-18.43,1.63-24.29,23.15-29.6S649.52,418.47,644.8,431.86Z"/><path class="cls-7" d="M606.71,421c1.21-4.68,9.7-10.7,13.9-13.82,6.48-4.82,14-7.86,22-9.9a57.1,57.1,0,0,1,24.54-.83c7,1.33,12.83,4.42,20,5.23,6.6.75,13.17.45,17.8-3.44,1.45,4.36,1.43,13.09.88,16.09-1.16,6.35-5.37,12-9.18,17.69-10.35,15.4-38.53,23.92-58.4,15.78-9.59-3.93-18.21-7.33-22.92-15.64C612.62,427.41,610.56,425.09,606.71,421Z"/><path class="cls-7" d="M879.22,454.19l49.35,109.13s-14.44,16.19-19.26,12.59-78.85-92.14-86.07-96.74S879.22,454.19,879.22,454.19Z"/><path class="cls-5" d="M756.83,467.78s.2,31.38,19.46,38.57c0,0,98.71-40.74,118.58-44.65S987,457.19,987,457.19L914.13,327.67S879.22,397.23,847.31,420,756.83,467.78,756.83,467.78Z"/><path class="cls-7" d="M820.85,488.37c7.81-3.09,16-6.29,24-9.37-12.09-13.56-18.37-32.48-20.77-44.38-7.49,4.27-15.25,8.39-22.76,12.22C804.66,463.83,811.86,478,820.85,488.37Z"/><path class="cls-4" d="M1013.84,361c20.57,49.4,13.3,99.34-16.22,111.53s-70.13-18-90.69-67.37-13.3-99.34,16.23-111.53S993.28,311.58,1013.84,361Z"/><path class="cls-7" d="M1009.86,362.63c17.49,42,11.31,84.5-13.8,94.87s-59.66-15.28-77.15-57.31-11.31-84.5,13.8-94.87S992.37,320.6,1009.86,362.63Z"/><path class="cls-10" d="M872.73,532.77c-2.35-1.42-1.68-10.2-1.21-12.49.75-3.57,3.23-8.23.74-11.65-4.4-6.05-10.6,10.22-11.4,12.58-1.55,4.52-2.1,7.6-1.13,10.84.81,2.71,5.68,11.17,9.44,14.21-.45,1.62-1,3.3-1.57,5.09a108.55,108.55,0,0,1,11.89,6c4.77,2.74,4.52,6.12,9,9.18l4.45-10.2C891.06,554,876.65,535.13,872.73,532.77Z"/><path class="cls-10" d="M904.35,497.06c-4.26-4.58-10.91-2.82-16.07.93-3.77,2.74-14.63,11.49-11.7,17.83,2.43,5.27,16.4-6.4,16.4-6.4-5.14,4.41-14.73,7.94-12.32,12.35,2.69,4.92,14.88-2.09,17.55-4-2.74.69-16.36,8.93-10.9,13.23,3.74,2.94,13.75-3.24,16.75-5.34-4,1.22-9.49,4.77-8.43,10.32,1.75,3,7.82,1,11.2-.35,5.11-2.06,9.91-2.85,10.32-9.17a27.63,27.63,0,0,0,.18-3.43c-.22-4.57-2.31-9.74-4.49-13.75A59.57,59.57,0,0,0,904.35,497.06Z"/><path class="cls-10" d="M384.71,533.28a55.32,55.32,0,0,1-5.71-12.1c-1.27-3.62-2.17-7.32-3.43-10.94s-2.65-7-2.45-10.72a30.81,30.81,0,0,1,1.32-6.55c.73-2.78,1.75-5.49,2.33-8.3.51-2.51.29-4.95.76-7.45.89-4.64,2-9.6,4.35-13.75a51.65,51.65,0,0,1,6.34-8.7,32.78,32.78,0,0,1,3.76-4,10,10,0,0,0,3.44-4.22,4,4,0,0,0-2.95-5.43c-4.39-1.11-11.32.9-14,4.56C374.76,450.8,373,457,368.86,462c-12.66,15-24.54-2.67-39.31-9-4.24-1.82-10.6-6.41-14.28-9.16-2.64-2-14-12.72-19.35-9.92-3.94,2.06,3.78,11.08,7.52,13.28,1.47.87,14.13,11.11,15.77,11.6-3.72-.63-13.42-7-21.22-13.09-5.6-4.37-11-8.67-14.09-6.18-9.4,7.67,27.49,25.23,30.37,26.84-3.07.26-31.95-20.11-34.68-12.62-1.51,4.12,4.48,8.2,9.39,10.85,6.15,3.33,16.45,5.71,18.78,7.51-4.35,1.47-23.47-11.49-23.48-3.58,0,5.18,11.87,9.05,16.34,10.41s18.13,10.56,22.41,12.59c14.28,6.77,20.17,6,25.8,14.5,3.59,5.43,10,34.1,15.15,45Z"/><path class="cls-12" d="M864.78,547.45c-12.73,36.91-39.95,102.21-48.93,97.63-16.86-8.6-53.13-38.15-80.24-56.22-21-14-31.51-18.09-31.51-18.09L723,659.88s89.42,67.66,108.16,57.29c14.73-8.16,51-111,63.79-153.67C894.92,563.5,865,547.61,864.78,547.45Z"/><path class="cls-13" d="M776.21,674.56c-10.07-13-48.54-50.55-58.94-58.55l3,42.26s90.15,67.51,110.1,59.08C813.19,706.35,788.46,690.4,776.21,674.56Z"/><path class="cls-12" d="M552.36,575.49s-110,44.22-121.95,41.11-51.84-116.07-51.84-116.07L345.26,514s35.57,162.92,58.47,170.54,159.4-31.66,159.4-31.66S565.37,613.33,552.36,575.49Z"/><path class="cls-13" d="M458.53,674.39c-9.7,3.46-19.56,6.88-29.46,9.78,46.65-6.14,134.06-31.28,134.06-31.28a237.94,237.94,0,0,0-2.39-41.41C533.66,640.69,495.15,661.3,458.53,674.39Z"/><path class="cls-14" d="M957.74,392.71c-5-15.46-20.17-24.41-33.81-20a23.47,23.47,0,0,0-11.36,8.2,134.06,134.06,0,0,0,6.34,19.29,130.81,130.81,0,0,0,17,29.49,23,23,0,0,0,6.27-1C955.79,424.26,962.77,408.16,957.74,392.71Z"/><path class="cls-12" d="M552.54,708.75c-3.88,38-6.91,118-9.19,129.12H723.81c3.18-59.71,2.12-146.17-.84-178-5.17-55.44-18.87-89.11-18.87-89.11s-13.47-4.24-29.46-10.37c0,0-33.21,20.22-64.14.27,0,0-55.83,13.17-62.58,16.38C542.32,579.71,556.69,668.15,552.54,708.75Z"/><path class="cls-13" d="M600.27,760.81a141.57,141.57,0,0,0-10.33-51.87,46.82,46.82,0,0,1-3.31-11.63c-1.57-11.95-4.14-19.77-7.64-26.55-4-6.07-8.12-12.12-12.11-18.22-2.21-3-4.54-6.16-7.11-9.9a172.33,172.33,0,0,1-11-19.42c2.12,27.92,5.87,65.21,3.79,85.53-3.88,38-6.91,118-9.19,129.12h84c-10.79-13.84-17.27-30.68-23.61-51.22C601.15,778.3,600.4,769.59,600.27,760.81Z"/><text class="cls-15" transform="translate(780.79 787)">COMPRAR</text></svg>