<svg id="pub" xmlns="http://www.w3.org/2000/svg" viewBox="0 0 1200 1200"><defs><style>.cls-1{fill:#00e9d3;}.cls-2{fill:#00a7cc;}.cls-3{fill:#d0d7de;}.cls-4{fill:#4e13d1;}.cls-5{fill:#e5e6ed;}.cls-6{fill:#fc7171;}.cls-7{fill:#fccaea;}.cls-8{fill:#f24f5e;}.cls-9{fill:#110239;}.cls-10{fill:#e2acd0;}.cls-11{fill:#d0d1de;}</style></defs><path class="cls-1" d="M446.58,634.91l-3.72,385.18c-.19,20-5.85,31.61-34.44,35.3-35.56,4.58-46.33-1.69-51.6-11.46-9.9-18.38-106.93-386.48-122.95-411.52S446.58,634.91,446.58,634.91Z"/><path class="cls-2" d="M445.78,717.88l.8-83s-228.73-27.53-212.71-2.5c3.78,5.91,18.71,53.38,29.88,90.1Z"/><path class="cls-3" d="M86.39,502.29a43.25,43.25,0,0,0-42.52,33.39A208.58,208.58,0,0,0,39,580.47c-.19,21.95,1.45,36.22,6.84,48.22,6.54,14.58,21.4,23.59,37.36,24.17,78.2,2.83,359.8,13.87,418.52,27.68C570.08,696.6,799,798.22,799,798.22L755.38,283.27s-210.31,170.46-343.84,197C307.68,500.86,150.9,502.55,86.39,502.29Z"/><path class="cls-4" d="M229.64,659c29.11,1.38,59.43,2.93,89.2,4.66-18.69-60.33-11.3-129.3-1.76-170.46-29.78,2.81-60.21,4.75-89.42,6.12C213.79,558,216.23,613.08,229.64,659Z"/><path class="cls-5" d="M1022.44,523.57c1.47,186.17-87.2,337.8-198,338.67S622.54,712.9,621.07,526.73s87.2-337.8,198-338.67S1021,337.4,1022.44,523.57Z"/><path class="cls-4" d="M1007.49,523.69C1008.73,682.05,933.31,811,839,811.78s-171.73-127-173-285.41S740.23,239,834.51,238.28,1006.24,365.32,1007.49,523.69Z"/><path class="cls-6" d="M800.64,552.83c4.05-56.42-32.88-105-82.49-108.59-17-1.22-33,3.32-47.25,11.63a473.34,473.34,0,0,0-4.85,70.5,455.29,455.29,0,0,0,16,117.25,79.09,79.09,0,0,0,21.46,4.91C753.1,652.09,796.6,609.24,800.64,552.83Z"/><path class="cls-7" d="M502.72,346.81c-.64-5.95-1.11-11.5,2.17-17.22-2.9.48-7.21.92-7-.78.33-2.3.83-5.59-.84-5.29a12.17,12.17,0,0,0-4.34,2.18c-3,2-6.43,2.23-10,2.45-1.18,3.94-4.53,10-2.38,14.26,1.11,2.19,7,1.16,9.6,2.15C494.24,346.19,499.11,346.59,502.72,346.81Z"/><path class="cls-6" d="M420.31,165s-24.8-1.39-58.37,14.48l15.65,68.11a71.54,71.54,0,0,1,38.13-8.38Z"/><path class="cls-8" d="M403.92,200.77c.15-11.35.86-22.71,1.12-34.06A103.32,103.32,0,0,1,420.31,165l-4.59,74.21c-6.39-9.74-9.43-7.58-10.7-8.77C405.07,220.62,403.8,210.5,403.92,200.77Z"/><path class="cls-6" d="M555.81,168.55s-88.78-34.91-147-23L405,230.43s51.6-11.41,123,19.87Z"/><rect class="cls-9" x="414.16" y="265.17" width="212.86" height="7.64" transform="translate(95.71 672.54) rotate(-70.85)"/><path class="cls-1" d="M487.24,347.29v-24s-71.71.55-101.78-8.07-70.35-44-86.39-38.26-26.27,22.06-6.36,37.7,67.18,29.15,87.68,32.28C394.6,349.09,475.94,347.28,487.24,347.29Z"/><path class="cls-2" d="M367.29,332.3c-25.32-10.53-49.24-33.44-69.63-54.79-15.2,6.17-24.26,22-5,37.13,19.91,15.64,67.18,29.15,87.68,32.28,7,1.07,30.19,1.17,53.33,1C410.81,345.65,388.24,341,367.29,332.3Z"/><path class="cls-9" d="M366.65,625.68s-14,22.62-12,28,50.76,33.65,57.32,31.39,7.82-10-.9-17.77c-7.84-7-15.49-9-20.75-15.81-4.6-6,0-21.26,0-21.26Z"/><path class="cls-6" d="M284.8,433.8s9.75,8,20,6.65,110.6,9.08,120.88,17.58-31.8,178.2-31.8,178.2L359,630.42s12.51-124.07,10.42-125-54.76-.7-144.57-.7c-21.92,0-46.36-46.06-18.64-78.26Z"/><path class="cls-7" d="M300.43,244.77a39.17,39.17,0,0,1-9.39-5.91c-1.38,10.31-5.26,29.34-15.77,39.27,0,0,21.76,9,39.61,5,0,0-2.1-24.21,1.59-36.07A35.28,35.28,0,0,1,300.43,244.77Z"/><path class="cls-10" d="M289.77,274.23c3.41-10.68,14.17-17.32,25-17.44a48.75,48.75,0,0,1,1.71-9.69,35.28,35.28,0,0,1-16-2.33,39.17,39.17,0,0,1-9.39-5.91c-1.38,10.31-5.26,29.34-15.77,39.27a91.78,91.78,0,0,0,12.89,3.95A32.94,32.94,0,0,1,289.77,274.23Z"/><path class="cls-7" d="M294.21,186s25.71-8.08,33.84-3,14.46,21,13.05,30.36,9.31,20.17,9.59,23.55c.22,2.71-8.14,4.66-8.41,5.69s-.76,18-12,20.93c-15.86,4-37.06-8.71-44.35-18.31S270,191.74,294.21,186Z"/><path class="cls-9" d="M342.1,187.07c-1.36-1.36-4.84-3.56-5.7-5.3-.71-1.47-1-3.13-1.95-4.45-2.85-4.18-3.54-7.24-15.29-10.92-10.21-3.2-23.24.49-31.35,7a29.75,29.75,0,0,0-7.47,8.64c-.56,1-2.33,3.77-1.91,4.82.54,1.33,4.34,2.24,5.53,2.93,2.12,1.23,3.88,3.14,5.79,4.69,11.73,9.53,30.07,19.73,43,6.5a54.57,54.57,0,0,0,4.84-5.57c2.36,5.24,4.12,11.29,3.56,17.09a15.32,15.32,0,0,0,5.24-8.27C348.14,195.59,345.34,190.32,342.1,187.07Z"/><path class="cls-9" d="M287.72,186.28c-3.11-1.68-9-1.13-12.18-.43-6.75,1.46-10.4,6.4-11.59,13a62.68,62.68,0,0,0-1.21,12.06c.11,7.13.45,11.61,3,18.27,2.41,6.28,5.69,12.49,10.74,17.06,4.55,4.13,13.49,8.88,17.95,7.09,1.72-.7,4.22-13.11,3.76-16.34s-2-3.14-4.41-4.52c-4.11-2.33-8.69-6.91-5.69-11.88,4.28-7.08,12.22-3.83,15.08,6,0,0,3.11,5.5,4.88,4.62S317.73,202.47,287.72,186.28Z"/><path class="cls-10" d="M291,221.56a6.8,6.8,0,0,1,7.62,2c3.07,3.58,1.62,9.35-1.41,7.18s-1.82-4-2.34-5.82A5.61,5.61,0,0,0,291,221.56Z"/><path class="cls-1" d="M193.86,424.39S230.18,452.57,305.5,440c0,0-.21-21.62,6.12-42.77s15.79-62.37,16.07-84.13c.31-24.57-13.17-35.64-13.17-35.64s-14.14,13.26-35.22-4c0,0-39.94,9.46-58.64,54.88S193.86,424.39,193.86,424.39Z"/><path class="cls-2" d="M284.55,308.89c-19.43,21-.63,72.7,23.95,101.55a131.86,131.86,0,0,1,3.12-13.19c3.33-11.15,7.51-27.84,10.78-44.34a39.15,39.15,0,0,1-15.73-18.73C299.12,315.88,294.21,303.49,284.55,308.89Z"/><path class="cls-7" d="M442.11,453.39c2.86,2.19,5.64,4.25,9.15,4.72a11.69,11.69,0,0,1,4.66,1.2,25.35,25.35,0,0,0,5.22,1.86c1.63.51,3.68.9,4.93,2.36,1.5,1.74-1.38,2.29-3.35,2.38-2.14.1-7.75-3.57-9.43-2s5.44,5.56,6.86,6.34c3.37,1.85,5.85.38,9.33.43,2,0,3,.66,1.56,2.55-1.05,1.4-3.1,1.45-4.69,1.57a20.92,20.92,0,0,1-10-1.63c2.22,1.39,6.56,2.28,9.17,2.48,1.81.14,9.62-.61,9.65,2.25.06,5.75-17.26,2.08-19.81.09,2.75,1.73,5.92,2.37,9.07,3.09,1.85.43,6.27,1.24,3.84,3.63-3.59,3.52-12.12-2.3-16.39-4.22,2.34,2.17,4.8,3.06,7.82,4.67,3.58,1.9.94,3.86-3.06,2.55a45.32,45.32,0,0,1-5.52-2.58c-7.16-4-9.83-7.64-13.67-14.52-1.38-2.47-6.5-5.54-6-7.93C432.44,458,438.76,455.61,442.11,453.39Z"/><path class="cls-1" d="M447.43,449.88l-14.58,19.77s-93.36-40.42-101.75-51.1-35.83-49.79-40.12-60.2c-10-24.16-22.3-53,0-58,12.16-2.75,20,.31,27.57,18.23,10.28,24.36,32.14,63,41,74.69C363,397.78,447.43,449.88,447.43,449.88Z"/><path class="cls-7" d="M513.13,330c1.33,2.1-2.3,11.1-5.77,14.88-2.73,3-5.95,2.1-8.65.62-2.92-1.76-6.39-2.39-6.83-4.1-.62-6.71,5.6-1.66,8.35-.68,0,0-7.5-3.73-7.4-6.95.29-6.06,9.52.93,12.12,2.1-2.62-.72-6.78-3.64-7.14-4.75a2.32,2.32,0,0,1-.27-3.54c2-1.87,9.86,3.78,9.86,3.78-1.41-1-7.16-3.08-4.84-5.73,1.53-1.76,3.84-.29,5.23.12C510.49,326.55,512.7,328.5,513.13,330Z"/><path class="cls-7" d="M495.44,329.72c.87-.36,1.7-.53,2.55-.8,0,0-.07-.06-.07-.11.33-2.3,9.07-2.88,11-3.89,5.86-3.07,3.5-6.75.84-5.91-1.82.57-5.94,1.79-7.51,2.48s-4.4.39-6.07.7-6.12,4.3-7.53,5.22C485.66,329.39,492.25,331,495.44,329.72Z"/><path class="cls-11" d="M1148,398.47c1.93,5.26-15.49,16.5-38.9,25.1s-44,11.32-45.9,6.06,15.48-16.5,38.9-25.11S1146.1,393.21,1148,398.47Z"/><path class="cls-11" d="M1105.43,293.05c2.23,5.15-14.52,17.35-37.42,27.27s-43.25,13.79-45.48,8.65,14.53-17.35,37.42-27.27S1103.2,287.91,1105.43,293.05Z"/><path class="cls-11" d="M1137,679.92c-1.66,5.35-22.32,3.7-46.15-3.69s-41.8-17.71-40.14-23.06,22.32-3.7,46.15,3.68S1138.62,674.57,1137,679.92Z"/><path class="cls-11" d="M1093.64,794c-2.09,5.2-22.55,1.86-45.69-7.46s-40.21-21.08-38.12-26.28,22.55-1.86,45.69,7.46S1095.73,788.78,1093.64,794Z"/><path class="cls-11" d="M1161,540.51c-.29,5.6-20.73,9.08-45.64,7.79s-44.87-6.88-44.58-12.48,20.72-9.08,45.63-7.79S1161.29,534.91,1161,540.51Z"/></svg>