<svg id="WEB" xmlns="http://www.w3.org/2000/svg" viewBox="0 0 1200 1200"><defs><style>.cls-1{fill:#3f062a;}.cls-2{fill:#740945;}.cls-3{fill:#fefefe;}.cls-4{fill:#9c9eb9;}.cls-5{fill:#d0d1de;}.cls-6{fill:#110239;}.cls-7{fill:#4e13d1;}.cls-8{fill:#fd425f;}.cls-9{fill:#fff;}.cls-10{isolation:isolate;}.cls-11{fill:#d60050;}.cls-12{fill:#00a7cc;}.cls-13{fill:#fc7171;}.cls-14{fill:#fccaea;}.cls-15{fill:#e5e6ed;}.cls-16{fill:#abadc4;}</style></defs><rect class="cls-1" x="188.37" y="794.36" width="823.26" height="120.88"/><rect class="cls-2" x="110.25" y="220.45" width="979.49" height="656.59" rx="50.49"/><rect class="cls-3" x="155.35" y="263.95" width="889.3" height="562.79"/><path class="cls-2" d="M14.78,1052.35v18c0,9.93,10.81,18,24.15,18H1161.07c13.34,0,24.15-8,24.15-18v-18Z"/><path class="cls-2" d="M600,913.87H119.6C118,915.59,42.46,983.2,19.39,1033.42c-9.86,21.47-3.42,32.76,14.94,32.76H1165.67c18.36,0,24.81-11.29,14.95-32.76C1157.55,983.2,1082,915.59,1080.4,913.87Z"/><polygon class="cls-4" points="1124.43 1040.5 100.81 1040.5 171.75 935.49 1053.49 935.49 1124.43 1040.5"/><path class="cls-5" d="M1112,1022.07l-2.22-3.28h-68.31l-12.71-25.48h63.82l-2.22-3.28H1027.1l-12.72-25.48h58.75l-2.22-3.28h-58.17l-12.88-25.78H994l12.67,25.78H933.51l-10.26-25.78h-5.9l10,25.78H854.27l-7.63-25.78h-5.9l7.43,25.78H775l-5-25.78h-5.9l4.81,25.78H695.81l-2.39-25.78h-5.9l2.19,25.78H620.3V935.49h-6.5v25.78H541.86l2.19-25.78h-5.9l-2.4,25.78H462.63l4.81-25.78h-5.9l-5,25.78H383.4l7.43-25.78h-5.9l-7.64,25.78H304.17l10.05-25.78h-5.9l-10.26,25.78H224.94l12.67-25.78H231.7l-12.87,25.78h-64.5l-2.22,3.28h65.08L204.47,990H134.91l-2.22,3.28h70.14l-12.72,25.48H115.48l-2.22,3.28h75.21l-9.2,18.43H186l9.06-18.43h78.83l-7.33,18.43h6.72l7.19-18.43h78.83l-5.46,18.43h6.72l5.32-18.43h78.82l-3.58,18.43h6.72l3.44-18.43H530.1l-1.71,18.43h6.72l1.57-18.43H613.8v18.43h6.5v-18.43h74.58l1.57,18.43h6.73l-1.71-18.43h78.82l3.44,18.43h6.73l-3.59-18.43H865.7L871,1040.5h6.73l-5.46-18.43h78.83l7.18,18.43H965l-7.33-18.43h78.83l9,18.43h6.73l-9.2-18.43ZM302.89,964.55h73.43L368.78,990H293Zm-79.57,0h73.44L286.62,990H210.8Zm51.87,54.24H196.67l12.52-25.48h76.13Zm85.07,0H281.74l9.93-25.48H367.8Zm85.07,0H366.82l7.34-25.48h76.13Zm5.6-28.76H375.11l7.34-25.48h73.43Zm79.48,28.76H451.89l4.75-25.48h76.13ZM533.08,990H457.26L462,964.55h73.44Zm80.72,28.76H537l2.17-25.48H613.8Zm0-28.76H539.41l2.17-25.48H613.8Zm6.5-25.48H690L692.16,990H620.3Zm0,54.24V993.31h72.14l2.17,25.48Zm388-54.24L1020.77,990H944.94l-10.13-25.48Zm-79.57,0L938.61,990H862.79l-7.54-25.48Zm-232.56,0h73.43L774.31,990H698.49Zm5,54.24-2.37-25.48h76.13l4.76,25.48Zm74.52-54.24h73.44L856.46,990H780.64Zm10.55,54.24-5-25.48h76.13l7.34,25.48Zm85.08,0-7.55-25.48h76.13l9.94,25.48Zm85.07,0-10.13-25.48h76.13l12.52,25.48Z"/><path class="cls-6" d="M600,1066.18H550.29c0,.13-.13,4.39,2.47,6.88a5.42,5.42,0,0,0,3.77,1.4h86.94a5.38,5.38,0,0,0,3.76-1.4c2.61-2.49,2.46-6.75,2.48-6.88Z"/><rect class="cls-3" x="155.35" y="264" width="889.23" height="562.75"/><polygon class="cls-7" points="616.47 551.07 536.23 586.75 434.75 485.27 155.35 698.17 155.35 826.75 1044.58 826.75 1044.58 165.47 673.06 615.08 616.47 551.07"/><rect class="cls-3" x="330.71" y="654.98" width="28.38" height="21.51"/><rect class="cls-3" x="370.73" y="654.98" width="28.38" height="21.51"/><rect class="cls-8" x="410.75" y="654.98" width="28.38" height="21.51"/><rect class="cls-3" x="450.77" y="654.98" width="28.38" height="21.51"/><rect class="cls-3" x="490.79" y="654.98" width="28.38" height="21.51"/><rect class="cls-8" x="530.81" y="654.98" width="28.38" height="21.51"/><rect class="cls-3" x="330.71" y="691.71" width="28.38" height="21.52"/><rect class="cls-3" x="370.73" y="691.71" width="28.38" height="21.52"/><rect class="cls-3" x="410.75" y="691.71" width="28.38" height="21.52"/><rect class="cls-3" x="450.77" y="691.71" width="28.38" height="21.52"/><rect class="cls-8" x="490.79" y="691.71" width="28.38" height="21.52"/><rect class="cls-3" x="530.81" y="691.71" width="28.38" height="21.52"/><rect class="cls-3" x="330.71" y="728.45" width="28.38" height="21.52"/><rect class="cls-8" x="370.73" y="728.45" width="28.38" height="21.52"/><rect class="cls-3" x="410.75" y="728.45" width="28.38" height="21.52"/><rect class="cls-3" x="450.77" y="728.45" width="28.38" height="21.52"/><rect class="cls-3" x="490.79" y="728.45" width="28.38" height="21.52"/><rect class="cls-3" x="530.81" y="728.45" width="28.38" height="21.52"/><rect class="cls-3" x="330.71" y="765.19" width="28.38" height="21.52"/><rect class="cls-3" x="370.73" y="765.19" width="28.38" height="21.52"/><rect class="cls-8" x="410.75" y="765.19" width="28.38" height="21.52"/><rect class="cls-3" x="450.77" y="765.19" width="28.38" height="21.52"/><polygon class="cls-9" points="626.08 594.1 623.24 591.29 619.63 592.8 617.35 587.23 624.42 584.25 630.05 589.8 626.08 594.1"/><path class="cls-9" d="M561.42,617.28l-2.28-5.6,9.74-4.09,2.28,5.6Zm19.45-8.19-2.28-5.58,9.71-4.08,2.29,5.58Zm19.4-8.16L598,595.35l9.68-4.06,2.29,5.57Z"/><polygon class="cls-9" points="544.63 624.34 538.75 619.2 542.5 614.62 545.63 617.35 549.39 615.78 551.67 621.38 544.63 624.34"/><path class="cls-9" d="M530.14,611.68l-8.61-7.51,3.76-4.57,8.61,7.51Zm-17.21-15-8.61-7.51,3.77-4.57,8.6,7.51Zm-17.23-15-8.61-7.51,3.78-4.56,8.6,7.51Zm-17.22-15-8.61-7.52,3.78-4.56,8.61,7.52Zm-17.22-15L452.65,544l3.79-4.55,8.61,7.51Z"/><polygon class="cls-9" points="444.03 536.51 441.26 534.09 438.27 536.17 434.89 531.19 441.58 526.5 447.83 531.97 444.03 536.51"/><path class="cls-9" d="M175.39,720.84l-3.46-5.11,10.34-7.26,3.46,5.1Zm20.66-14.51-3.46-5.1,10.3-7.23,3.46,5.09Zm20.58-14.47-3.45-5.08,10.28-7.21,3.44,5.08Zm20.52-14.41-3.45-5.07,10.23-7.18,3.45,5.07Zm20.44-14.35L254.14,658l10.21-7.15,3.44,5.06ZM278,648.79l-3.44-5.06,10.15-7.12,3.44,5Zm20.29-14.25-3.44-5,10.12-7.1,3.43,5Zm20.22-14.21-3.43-5,10.09-7.08,3.42,5Zm20.15-14.15-3.43-5,10.05-7.06,3.42,5Zm20.08-14.1-3.42-5,10-7,3.42,5Zm20-14.05-3.42-5,10-7,3.41,5Zm19.92-14-3.39-5,9.95-7,3.39,5Zm19.88-13.95-3.41-5,9.9-7,3.41,5Z"/><path class="cls-9" d="M695.12,633.31l-4.36-4.06,7.63-8.88,4.36,4.06Zm15.24-17.75-4.36-4,7.6-8.85,4.35,4.06Zm15.18-17.68-4.35-4,7.57-8.81,4.34,4Zm15.12-17.62-4.34-4,7.54-8.78,4.34,4Zm15.07-17.57-4.33-4,7.52-8.75,4.33,4Zm15-17.49-4.32-4,7.49-8.72,4.32,4Zm15-17.44-4.32-4,7.47-8.69,4.31,4Zm14.91-17.38-4.31-4,7.44-8.67,4.31,4Zm14.86-17.32-4.3-4,7.42-8.64,4.3,4Zm14.82-17.25-4.3-4,7.39-8.61,4.29,4Zm14.76-17.2-4.29-4,7.36-8.58,4.29,4Zm14.7-17.14-4.28-4,7.34-8.55,4.28,4Zm14.66-17.08-4.27-4,7.31-8.52,4.27,4Zm14.61-17-4.27-4,7.29-8.49,4.26,3.95Zm14.57-17-4.26-4,7.26-8.45,4.26,4Zm14.5-16.9-4.25-4,7.24-8.42,4.25,3.95Zm14.46-16.85-4.24-3.95,7.21-8.39,4.24,3.95ZM947,339.89l-4.24-3.95,7.19-8.36,4.23,3.94Zm14.36-16.73-4.23-3.94,7.16-8.34,4.23,3.94Zm14.31-16.67-4.23-3.93,7.14-8.31,4.22,3.93Zm14.25-16.62L985.69,286l7.12-8.28,4.21,3.92Zm14.22-16.56-4.21-3.91,7.09-8.26,4.2,3.92Zm13.23-15.68-4.2-3.92,7.09-8.25,4.2,3.91Zm13.24-15.69-4.21-3.92,7.09-8.25,4.2,3.92Z"/><polygon class="cls-9" points="681.7 648.93 675.26 642.59 679.21 638.27 681.27 640.3 683.11 638.15 687.48 642.2 681.7 648.93"/><path class="cls-9" d="M665.42,632.89l-9.83-9.7,4-4.31,9.83,9.69ZM645.75,613.5l-9.83-9.7,4-4.3,9.83,9.69Z"/><g class="cls-10"><path class="cls-11" d="M1021,99.79,674.32,539.19l-56.09-67.7-82.1,38.95L431.83,399.16,155.35,623.94v27L430.81,427,533.55,536.65l81.63-38.72,59.35,71.65,359.73-456A146.36,146.36,0,0,1,1021,99.79Z"/><polygon class="cls-11" points="1074.66 60 992.86 87.69 1046.96 141.79 1074.66 60"/></g><path class="cls-12" d="M262.36,335.65c18.48,1.38,35.34,9.28,35.45,27.75l-30.8.18c-.2-7-7.37-8.44-11.87-8.41-2.83,0-12,.07-11.95,5.72.07,12.66,56.76-.83,57,35,.13,21.47-16.63,29.57-37.27,31.18l1.47,22.81-18.81.11,1-23c-19.16-1.88-37-10.76-37.13-30.08l30.79-.18v.67c.22,8.49,9.72,10.1,14.54,10.07,4.67,0,13.82-.41,13.78-6.57-.07-13.16-56.77-.83-57-35.46-.11-20,15.33-27.73,34.46-29.5l-1.29-23,18.8-.11Z"/><path class="cls-6" d="M732.15,954.82s1.28,25-2.36,28.76-53.22,9.13-57.86,4.91-2.73-12.1,7.7-15.9c11.19-4.08,17-1.4,24-5s4.15-14.7,4.15-14.7Z"/><path class="cls-6" d="M894.69,954.82s-1.28,25,2.36,28.76,53.22,9.13,57.86,4.91,2.73-12.1-7.71-15.9c-11.19-4.08-17-1.4-24-5s-4.14-14.7-4.14-14.7Z"/><path class="cls-13" d="M897.41,810C892,782.74,863,708.29,852.18,682.48c-4.32-1.46-9.06-2.9-13.87-4.3,1.26-5.81,2.1-10.81,3-15.19-8.43,2.23-17.39,3.31-26.45,6.19-1.23.39-2.6.8-4,1.22-1.43-.42-2.81-.83-4-1.22-9.06-2.88-18-4-26.44-6.19.93,4.38,1.77,9.38,3,15.19-4.8,1.4-9.54,2.84-13.87,4.3C758.78,708.29,729.73,782.74,724.32,810c-7.49,37.74-20,149.6-20,149.6l31.9,4.2s32-150.29,36.61-158.62c8.22-14.93,16.83-28.14,24.51-39.84a16.15,16.15,0,0,1,27,0c7.67,11.7,16.29,24.91,24.5,39.84,4.58,8.33,36.62,158.62,36.62,158.62l31.89-4.2S904.89,847.75,897.41,810Z"/><path class="cls-14" d="M906.19,344.94C904.31,332,902.38,330,898,327.44c-2-1.19-4.06-2.23-5.47-4.11s-3.83-3.64-5.82-5.3-4.35-3.19-5.2-5.79c-1-3.11,3.07-2.26,5.7-1.3,2.87,1,8.24,8.92,11.28,7.83s-4.1-10.27-5.55-12.08c-3.42-4.26-7.48-3.69-12-5.65-2.65-1.15-3.52-2.49-.65-4.2,2.14-1.28,4.86-.22,7,.5A29.73,29.73,0,0,1,899.58,305c-2.15-3-7.36-6.58-10.69-8.28-2.29-1.18-13-4.45-11.44-8.22,3.07-7.59,23.81,6.7,26.07,10.71-2.67-3.77-6.47-6.35-10.22-9-2.2-1.57-7.55-5-3.06-6.86,6.63-2.66,14.65,9.64,19.22,14.5-1.9-4.13-4.63-6.65-7.72-10.41-3.66-4.45.88-5.59,5.41-1.68a63,63,0,0,1,5.83,6.41c7.24,9.12,7.51,15.24,8.79,26.36.46,4,.56,10.52,1.88,22.16C924.4,347.32,911.79,343.86,906.19,344.94Z"/><path class="cls-14" d="M595.76,525.93c-12.25-4.6-13.76-9.52-15.32-14.31-.72-2.25-1.31-4.45-2.85-6.23s-2.74-4.51-3.93-6.82c-1.12-2.16-2.19-4.93-4.55-6.31-2.81-1.65-2.85,2.51-2.48,5.29.4,3,7,9.95,5.24,12.69s-9.16-6.2-10.62-8c-3.43-4.25-2-8.09-3-12.95-.56-2.84-1.68-4-4-1.53-1.71,1.81-1.26,4.69-1,7a29.56,29.56,0,0,0,4.82,13.6c-2.51-2.75-4.86-8.59-5.81-12.21-.65-2.49-1.57-13.61-5.59-12.93-8.06,1.37,1.47,24.69,4.9,27.76-3.12-3.42-4.82-7.69-6.63-11.92-1.06-2.48-3.32-8.45-6-4.45-4,5.91,6.28,16.37,10,21.87-3.63-2.73-5.51-6-8.52-9.77-3.56-4.52-5.64-.33-2.8,4.93a64.26,64.26,0,0,0,5,7.07c7.37,9,13.29,10.6,23.88,14.22,3.81,1.31,7.84,1.62,20.4,7.71C593.06,543.54,593.51,531.18,595.76,525.93Z"/><path class="cls-14" d="M826.59,501.67a76.58,76.58,0,0,1-20.89,1,30.89,30.89,0,0,1-7.32-1.57c.31,8.7.31,28.86-5.82,37.14,0,0,2.18,9.73,19.94,10s20-10,20-10S825.94,523.74,826.59,501.67Z"/><path class="cls-15" d="M894.93,550.81c-4.84-6.17-27.81-19.78-43.37-22.24a243.94,243.94,0,0,0-76.28,0c-15.56,2.46-31,6.4-35.87,12.58-6.07,7.74,12.08,51.17,15.1,91,2.5,33,7,58.57,7,58.57,10,18.31,87.88,18.81,97.84.5,0,0,1.88-28.24,7.28-59.07C873.68,592,901.07,558.65,894.93,550.81Z"/><path class="cls-16" d="M769.77,623c.51-10.72,4.05-29.92.1-39.76-5.65-14.05-18.41-19.31-30.2-25.73,3.52,18,12.75,47.07,14.84,74.67,2.5,33,7,58.57,7,58.57,1.84,3.38,6.16,6.08,11.8,8.23C762.24,677.76,768.79,643.88,769.77,623Z"/><path class="cls-14" d="M850.51,453.3S813.7,431.64,808.12,437s-14.32,23.44-18.55,26.2-10.84,5.38-10.25,8.64,2.73,3.47,2.55,6.76-7.63,19-3.56,23.61,30.82,14.85,46.89,4.16S868.64,463,850.51,453.3Z"/><path class="cls-6" d="M858.63,461.26l-31,.49s-5.84,15.33-19.07,25.18c0,0,.74,4.57,4.06,3.64s5.36-1.32,7.58-4.8,8.92-12.51,13.47-4.58-5.18,10.65-9.26,10.59c0,0-14.12,17.11-3.14,20.32,0,0,12.26-1.82,30.91-21.62S867,459.71,858.63,461.26Z"/><path class="cls-6" d="M800,425s-15.07,9.15,2.38,27.49,58.53,8.67,58.53,8.67,4.37-11.95-10.48-24.48c-11.09-9.37-23.27-14.14-33-9.65C800.75,434.67,800,425,800,425Z"/><path class="cls-15" d="M591.71,520.06l-13.17,21s33.92,32.57,72.9,58.41c22.69,15.06,100.42-9,112.44-12.62,17.15-5.15,30-41.46,1.43-55-16.77-7.9-84,43.22-100.52,34.55C644.14,555.58,591.71,520.06,591.71,520.06Z"/><path class="cls-15" d="M900.49,339.5l26.17-4.38s17.28,75.56,16.25,102.78S898.61,564,888.74,571.74c-11.86,9.29-44.76-17.56-20.91-46.5s39.29-88.56,39.92-91S900.49,339.5,900.49,339.5Z"/><rect class="cls-5" x="359.42" y="296.39" width="211.07" height="18.98"/><rect class="cls-5" x="359.42" y="326.39" width="211.07" height="18.98"/><rect class="cls-5" x="359.42" y="356.39" width="159.75" height="18.98"/></svg>