<svg width="72" height="66" viewBox="0 0 72 66" fill="none" xmlns="http://www.w3.org/2000/svg">
<path d="M37.6965 0.163523C46.5737 0.168817 55.0852 3.59799 61.3587 9.69667C67.6322 15.7953 71.1537 24.0639 71.1485 32.6835C71.1378 50.6323 58.1727 65.1757 39.6863 65.1647L33.6006 65.1611C24.7234 65.1558 16.2119 61.7266 9.93839 55.628C3.66491 49.5293 0.143396 41.2607 0.148536 32.6411C0.153676 24.0216 3.68505 15.7572 9.9658 9.66602C16.2465 3.57483 24.7622 0.15581 33.6393 0.161104L37.6965 0.163523ZM26.3033 55.7642C28.0045 55.5158 29.5701 54.7189 30.7483 53.5017C36.2599 48.3493 41.6074 43.0393 47.0237 37.7883C54.5338 30.5049 54.5338 30.5049 47.1166 23.2983C41.5324 17.8698 35.948 12.4409 30.3632 7.01172C28.3094 5.02406 25.9018 4.44846 23.7118 6.51533C21.5217 8.58221 22.0762 10.9088 24.0711 12.9584C24.8485 13.7546 25.6625 14.5194 26.4583 15.293L42.2203 30.5311C35.8044 36.6934 29.7234 42.326 23.9526 48.2475C23.3884 48.9714 22.9821 49.7995 22.7587 50.6811C22.5353 51.5627 22.4995 52.4793 22.6533 53.3748C22.8454 54.3972 24.9848 55.7635 26.2577 55.7642L26.3033 55.7642Z" fill="white"/>
</svg>
