<svg xmlns="http://www.w3.org/2000/svg" width="70" height="66" viewBox="0 0 70 66"><defs><style>.a{fill:#d90452;}</style></defs><path class="a" d="M35,62A33,33,0,0,1,2,29C2,10.775,14.774-4,33-4h6a33,33,0,1,1,0,66ZM46.2,5.537a7.557,7.557,0,0,0-4.381,2.3c-5.431,5.235-10.7,10.63-16.037,15.965-7.4,7.4-7.4,7.4-.083,14.713q8.263,8.263,16.527,16.527c2.026,2.017,4.4,2.6,6.558.5S50.394,51.08,48.426,49c-.767-.808-1.57-1.584-2.355-2.369L30.522,31.168c6.322-6.261,12.314-11.984,18-18A6.779,6.779,0,0,0,49.8,7.961c-.19-1.038-2.3-2.424-3.555-2.424Z" transform="translate(-2 4)"/></svg>