<svg xmlns="http://www.w3.org/2000/svg" width="28.842" height="29.248" viewBox="0 0 28.842 29.248"><defs><style>.a{fill:#d2d9e0;}</style></defs><g transform="translate(-38.001 -173.5)"><g transform="translate(38.001 173.5)"><circle class="a" cx="2" cy="2" r="2" transform="translate(12.42 12.624)"/><path class="a" d="M63.756,178.184a14.924,14.924,0,0,0-12.2-4.629,14.731,14.731,0,0,0-13.467,12.911,14.548,14.548,0,0,0,3.695,11.412,14.988,14.988,0,0,0,11.119,4.87,1.672,1.672,0,0,0,1.5-.892,1.737,1.737,0,0,0-1.522-2.549,10.892,10.892,0,0,1-4.944-1.015,11.266,11.266,0,1,1,13.25-17.769,8.089,8.089,0,0,1,2.155,5.589v3.32a1.7,1.7,0,0,1-1.133,1.646,1.688,1.688,0,0,1-2.239-1.572v-6.46a1.779,1.779,0,0,0-1.316-1.752,1.758,1.758,0,0,0-1.9.749,7.627,7.627,0,0,0-5.738-1.228,7.427,7.427,0,0,0,1.405,14.743A7.583,7.583,0,0,0,58,193.116a5.225,5.225,0,0,0,4.5,1.424,5.475,5.475,0,0,0,4.334-5.215v-3.213A11.484,11.484,0,0,0,63.756,178.184Zm-10.233,13.79a4.04,4.04,0,0,1-5.014-4.936,3.972,3.972,0,0,1,2.81-2.765,4.04,4.04,0,0,1,5.014,4.936A3.971,3.971,0,0,1,53.523,191.974Z" transform="translate(-38.001 -173.5)"/></g></g></svg>