<svg width="72" height="66" viewBox="0 0 72 66" fill="none" xmlns="http://www.w3.org/2000/svg">
<path d="M33.4711 65.1527C24.594 65.112 16.0962 61.6489 9.84707 55.5253C3.59795 49.4017 0.109414 41.1191 0.148905 32.4997C0.231141 14.551 13.2542 0.0593623 31.7403 0.144061L37.826 0.171943C46.7031 0.212616 55.2009 3.67568 61.45 9.79931C67.6991 15.9229 71.1877 24.2055 71.1482 32.825C71.1087 41.4444 67.5444 49.6947 61.2394 55.7608C54.9344 61.8269 46.4053 65.2119 37.5282 65.1713L33.4711 65.1527ZM45.0857 9.59781C43.3836 9.83948 41.8148 10.6301 40.6318 11.8426C35.0997 16.973 29.7311 22.2617 24.2938 27.491C16.7548 34.7444 16.7548 34.7444 24.1433 41.9805C29.7057 47.4313 35.2685 52.8823 40.8316 58.3338C42.8774 60.3296 45.2827 60.9148 47.481 58.8566C49.6793 56.7985 49.1341 54.4698 47.1474 52.4122C46.3731 51.6129 45.5621 50.8449 44.7695 50.0681L29.0683 34.7673C35.5088 28.6306 41.6121 23.0223 47.4064 17.1239C47.9736 16.4022 48.3831 15.5758 48.61 14.6951C48.8369 13.8144 48.8765 12.8979 48.7262 12.0018C48.5382 10.9786 46.4043 9.60385 45.1314 9.59801L45.0857 9.59781Z" fill="white"/>
</svg>
