<svg xmlns="http://www.w3.org/2000/svg" width="70" height="66" viewBox="0 0 70 66"><defs><style>.a{fill:#d90452;}</style></defs><path class="a" d="M33,64A33,33,0,1,1,33-2h4a33,33,0,1,1,0,66ZM21.614,6.856c-2.164,2.1-1.607,4.463.36,6.54.767.807,1.57,1.583,2.355,2.369L39.878,31.232c-6.321,6.262-12.314,11.985-18,18A6.784,6.784,0,0,0,20.6,54.439c.192,1.05,2.351,2.456,3.6,2.424a7.546,7.546,0,0,0,4.381-2.3c5.431-5.234,10.7-10.629,16.038-15.964,7.4-7.4,7.4-7.4.082-14.714Q36.434,15.621,28.172,7.358a5.373,5.373,0,0,0-3.665-1.82A4.118,4.118,0,0,0,21.614,6.856Z" transform="translate(0 2)"/></svg>