<svg xmlns="http://www.w3.org/2000/svg" width="23.272" height="19.978" viewBox="0 0 23.272 19.978"><defs><style>.a{fill:#d90452;}</style></defs><path class="a" d="M3696.133-2322.531c-.29-.043-.586-.062-.87-.132a3.684,3.684,0,0,1-2.852-3.592q-.021-5.452,0-10.9a3.676,3.676,0,0,1,3.434-3.651q.305-.025.612-.025,4.317,0,8.633,0c.5,0,.612.112.613.615,0,.182,0,.364,0,.545-.007.367-.149.506-.514.506-2.976,0-5.951.006-8.927,0a2.1,2.1,0,0,0-1.789.852,1.885,1.885,0,0,0-.4,1.068c0,.091-.007.181-.007.272,0,3.521.005,7.042,0,10.563a2.1,2.1,0,0,0,1.013,1.907,1.816,1.816,0,0,0,.988.29q5.475,0,10.95,0a2.078,2.078,0,0,0,2.01-2.123c.007-1.31,0-2.62,0-3.93,0-.491.105-.595.6-.6.2,0,.409-.006.613,0,.295.014.435.151.435.441,0,1.484.028,2.969-.016,4.452a3.711,3.711,0,0,1-3.382,3.4c-.112.006-.224.028-.335.043Z" transform="translate(-3692.401 2342.51)"/><path class="a" d="M3902.187-2369.936c-.025.053-.052.106-.077.16a.806.806,0,0,1-1.256.3c-.28-.23-.527-.5-.784-.756-.525-.523-1.048-1.049-1.587-1.59-.287.291-.561.572-.839.85l-7.469,7.468c-.054.053-.105.109-.162.159a.384.384,0,0,1-.585-.011c-.492-.482-.981-.967-1.463-1.46-.225-.231-.2-.438.068-.705q2.039-2.04,4.081-4.079,2.056-2.056,4.113-4.11c.053-.053.117-.1.195-.16-.085-.09-.145-.155-.207-.217-.68-.68-1.364-1.356-2.039-2.04a.8.8,0,0,1,.068-1.308,1.19,1.19,0,0,1,.62-.155c1.9-.011,3.8-.007,5.7-.007.189,0,.38.013.568,0a.939.939,0,0,1,1.056.662Z" transform="translate(-3878.914 2377.601)"/></svg>