<svg xmlns="http://www.w3.org/2000/svg" width="1513.58" height="106.228" viewBox="0 0 1513.58 106.228">
  <g id="Grupo_109" data-name="Grupo 109" transform="translate(718.841 -636.927)" style="isolation: isolate">
    <g id="Grupo_106" data-name="Grupo 106" transform="translate(-503.099 636.927)">
      <path id="Trazado_281" data-name="Trazado 281" d="M685.287,743.028c-56.23,0-84.481-24.035-111.8-47.277-26.391-22.457-51.32-43.666-101.976-43.666S395.93,673.293,369.537,695.75c-27.319,23.242-55.566,47.277-111.8,47.277s-84.481-24.035-111.8-47.277c-26.391-22.457-51.321-43.666-101.976-43.666S-31.621,673.293-58.014,695.75c-27.319,23.242-55.566,47.277-111.8,47.277S-254.3,718.992-281.621,695.75c-26.392-22.457-51.324-43.666-101.982-43.666s-75.591,21.209-101.985,43.666c-27.319,23.242-55.57,47.277-111.805,47.277a7.579,7.579,0,0,1-7.579-7.578,7.579,7.579,0,0,1,7.579-7.579c50.661,0,75.589-21.211,101.983-43.666,27.321-23.244,55.57-47.277,111.807-47.277s84.484,24.034,111.8,47.277c26.394,22.455,51.324,43.666,101.985,43.666S-94.228,706.66-67.836,684.2c27.319-23.244,55.566-47.277,111.8-47.277s84.481,24.034,111.8,47.277c26.393,22.455,51.32,43.666,101.976,43.666S333.325,706.66,359.716,684.2c27.319-23.244,55.566-47.277,111.8-47.277s84.481,24.034,111.8,47.277c26.393,22.455,51.32,43.666,101.976,43.666a7.579,7.579,0,1,1,0,15.157Z" transform="translate(604.972 -636.927)" fill="#d90452"/>
    </g>
    <g id="Grupo_108" data-name="Grupo 108" transform="translate(-718.841 637.054)">
      <g id="Grupo_107" data-name="Grupo 107">
        <path id="Trazado_282" data-name="Trazado 282" d="M357.629,743.095c-56.233,0-84.486-24.034-111.805-47.277C219.431,673.36,194.5,652.151,143.84,652.151S68.255,673.36,41.861,695.817c-27.319,23.244-55.566,47.277-111.8,47.277s-84.481-24.034-111.8-47.277c-26.391-22.457-51.319-43.666-101.974-43.666S-359.3,673.36-385.689,695.817c-27.319,23.244-55.568,47.277-111.8,47.277s-84.479-24.034-111.8-47.277c-26.393-22.457-51.32-43.666-101.976-43.666a7.579,7.579,0,0,1-7.578-7.579,7.579,7.579,0,0,1,7.578-7.578c56.231,0,84.479,24.035,111.8,47.277,26.393,22.457,51.32,43.666,101.976,43.666s75.585-21.209,101.976-43.666c27.319-23.242,55.57-47.277,111.8-47.277s84.479,24.035,111.8,47.277c26.393,22.457,51.321,43.666,101.976,43.666s75.585-21.209,101.98-43.666c27.317-23.242,55.568-47.277,111.8-47.277s84.484,24.035,111.805,47.277c26.394,22.457,51.324,43.666,101.984,43.666s75.591-21.209,101.984-43.666c27.321-23.242,55.57-47.277,111.805-47.277a7.579,7.579,0,1,1,0,15.157c-50.659,0-75.589,21.209-101.984,43.666C442.114,719.061,413.864,743.095,357.629,743.095Z" transform="translate(718.841 -636.994)" fill="#d90452"/>
      </g>
    </g>
  </g>
</svg>
