<svg xmlns="http://www.w3.org/2000/svg" width="27.227" height="27.248" viewBox="0 0 27.227 27.248">
  <g id="Grupo_21" data-name="Grupo 21" transform="translate(-175.077 -107.065)">
    <g id="Grupo_20" data-name="Grupo 20" transform="translate(175.077 107.065)">
      <g id="Grupo_19" data-name="Grupo 19">
        <g id="Grupo_18" data-name="Grupo 18">
          <path id="Trazado_20" data-name="Trazado 20" d="M200.918,126.6l-3.47-1.869c-.845-.455-1.5-.126-2.229.875-1.6,2.2-2.372,2.632-4.332,1.538a21.145,21.145,0,0,1-4.781-3.877,21.145,21.145,0,0,1-3.877-4.781c-1.094-1.96-.66-2.734,1.538-4.332,1-.727,1.33-1.384.876-2.229l-1.87-3.47c-.764-1.476-1.848-1.644-3.45-1.1-2.211.748-4.351,3.94-4.242,5.456.318,4.427,2.534,9.745,7.147,14.358s9.932,6.829,14.359,7.147c1.515.109,4.686-2.052,5.434-4.263C202.563,128.444,202.394,127.36,200.918,126.6Z" transform="translate(-175.077 -107.065)" fill="#d2d9e0"/>
          <path id="Trazado_21" data-name="Trazado 21" d="M192.421,113.322a1.324,1.324,0,0,0,.01,2.648h.036a2.931,2.931,0,0,1,2.939,2.963,1.323,1.323,0,0,0,1.313,1.335h.011a1.324,1.324,0,0,0,1.323-1.312,5.552,5.552,0,0,0-1.634-4A5.672,5.672,0,0,0,192.421,113.322Zm7.9-2.271a11.078,11.078,0,0,0-7.9-3.253,1.324,1.324,0,0,0,.005,2.648h.036a8.461,8.461,0,0,1,8.462,8.494,1.324,1.324,0,0,0,1.32,1.328h0a1.323,1.323,0,0,0,1.324-1.319A11.034,11.034,0,0,0,200.325,111.05Z" transform="translate(-176.958 -107.151)" fill="#d2d9e0"/>
        </g>
      </g>
    </g>
  </g>
</svg>
