<svg width="1626" height="81" viewBox="0 0 1626 81" fill="none" xmlns="http://www.w3.org/2000/svg">
<path d="M223.626 80.2171C188.052 80.7996 153.336 73.8302 125.985 60.6149C117.137 56.3474 108.329 52.0216 100.079 47.384C80.7853 35.5272 54.2656 28.5208 26.1884 27.8623C10.5056 27.6195 -0.793331 23.2368 0.0436126 13.6262C0.940338 3.43742 13.1956 0.30318 29.9345 0.499786C63.4324 0.943391 95.5785 8.25279 120.682 21.1325C133.615 27.4586 145.754 34.3848 159.165 40.3408C176.851 48.471 198.778 52.8632 221.34 52.7938C243.902 52.7245 265.754 48.1981 283.291 39.9596C293.952 35.137 303.773 29.6906 313.936 24.5094C341.771 8.83638 379.008 0.0489051 417.79 0.00143839C456.573 -0.0460283 493.871 8.64913 521.82 24.2539C532.521 29.6895 542.841 35.3913 554.06 40.4453C571.511 48.4181 593.063 52.7666 615.272 52.7938C637.481 52.8211 659.064 48.5263 676.572 40.5963C693.171 33.1715 708.04 24.4055 724.799 17.1542C750.127 6.03768 781.009 0.0146352 812.764 2.66409e-05C844.519 -0.0145819 875.414 5.97912 900.773 17.0723C915.937 23.6297 929.487 31.4137 944.174 38.3643C962.448 47.6757 985.938 52.8094 1010.26 52.8094C1034.57 52.8094 1058.06 47.6757 1076.33 38.3643C1088.91 32.3968 1100.42 25.6416 1113.16 19.8591C1140.01 6.91518 1173.88 -0.0987165 1208.79 0.0579084C1243.69 0.214533 1277.38 7.5327 1303.88 20.716C1316.99 26.9149 1329.09 33.8541 1342.38 39.9257C1359.88 48.195 1381.71 52.7529 1404.28 52.8475C1426.84 52.9421 1448.79 48.5669 1466.49 40.4453C1483.11 33.0552 1498.19 24.4863 1514.67 16.9806C1538.89 5.95575 1568.95 0.147427 1599.72 0.546374C1602.95 0.281259 1606.22 0.417378 1609.35 0.947311C1612.47 1.47724 1615.36 2.38782 1617.83 3.61834C1620.29 4.84887 1622.28 6.37192 1623.66 8.08371C1625.03 9.7955 1625.75 11.6578 1625.79 13.5458C1626.23 15.3332 1625.98 17.1548 1625.07 18.8808C1624.16 20.6068 1622.6 22.1946 1620.5 23.5297C1618.41 24.8647 1615.83 25.9138 1612.95 26.603C1610.08 27.2923 1606.97 27.6046 1603.86 27.5164C1570.46 28.8604 1539.23 37.6094 1516.64 51.9524C1442.45 90.8573 1365.88 90.6836 1292.58 51.4202C1264.05 36.1312 1233.64 24.1624 1192.95 29.0891C1176.05 31.4629 1159.94 35.4193 1145.24 40.8038C1133.15 45.8203 1121.82 51.4263 1111.37 57.5613C1083.95 72.3053 1047.97 80.5131 1010.6 80.5474C973.221 80.5817 937.194 72.4398 909.7 57.7463C899.956 52.8774 890.612 47.7433 880.748 42.9554C862.253 33.168 838.134 27.732 813.105 27.7084C788.075 27.6849 763.933 33.0758 745.383 42.8283C734.463 48.102 724.376 53.9535 713.357 59.1693C685.793 73.1942 650.263 80.8017 613.608 80.5263C576.954 80.2508 541.772 72.1115 514.843 57.6771C503.544 52.0449 492.805 46.0201 481.148 40.6655C463.582 32.478 441.774 27.9615 419.245 27.844C396.716 27.7265 374.775 32.0145 356.958 40.0175C343.567 45.9966 331.274 52.8086 318.48 59.2272C292.256 72.631 258.57 80.0846 223.626 80.2171Z" fill="#D90452"/>
</svg>
