<svg width="426" height="30" viewBox="0 0 426 30" fill="none" xmlns="http://www.w3.org/2000/svg">
<path d="M58.5885 29.71C49.2683 29.9258 40.1728 27.3445 33.0071 22.45C30.6891 20.8694 28.3813 19.2673 26.2199 17.5496C21.1652 13.1582 14.2172 10.5633 6.86116 10.3194C2.7524 10.2294 -0.207847 8.60622 0.0114262 5.04676C0.246362 1.27312 3.45714 0.112289 7.8426 0.185106C16.6188 0.349404 25.0409 3.05659 31.6178 7.82686C35.0061 10.1699 38.1864 12.7351 41.7 14.941C46.3337 17.9522 52.0783 19.579 57.9894 19.5533C63.9005 19.5276 69.6256 17.8511 74.2203 14.7999C77.0134 13.0137 79.5864 10.9965 82.249 9.07756C89.5415 3.27273 99.2973 0.018113 109.458 0.000532737C119.619 -0.0170475 129.391 3.20338 136.713 8.98292C139.516 10.9961 142.22 13.1079 145.16 14.9797C149.732 17.9326 155.378 19.5432 161.197 19.5533C167.015 19.5634 172.67 17.9727 177.257 15.0357C181.606 12.2858 185.501 9.03907 189.892 6.35341C196.528 2.23618 204.618 0.00542044 212.938 9.867e-06C221.258 -0.0054007 229.352 2.21449 235.996 6.32308C239.969 8.75174 243.519 11.6347 247.367 14.209C252.154 17.6577 258.308 19.559 264.68 19.559C271.051 19.559 277.204 17.6577 281.991 14.209C285.286 11.9988 288.303 9.49691 291.639 7.35523C298.674 2.56118 307.549 -0.0365617 316.694 0.0214476C325.838 0.0794568 334.663 2.78989 341.607 7.67261C345.042 9.96849 348.212 12.5385 351.694 14.7873C356.279 17.85 361.998 19.5381 367.91 19.5731C373.822 19.6082 379.572 17.9878 384.21 14.9797C388.564 12.2427 392.516 9.06899 396.833 6.2891C403.178 2.20583 411.054 0.0546025 419.116 0.202361C419.96 0.10417 420.819 0.154585 421.637 0.350856C422.455 0.547127 423.212 0.884377 423.859 1.34013C424.505 1.79588 425.026 2.35997 425.386 2.99397C425.745 3.62796 425.935 4.31771 425.944 5.01695C426.06 5.67895 425.996 6.35362 425.757 6.99288C425.517 7.63214 425.109 8.22022 424.56 8.71469C424.011 9.20916 423.335 9.5977 422.582 9.85298C421.828 10.1083 421.015 10.2239 420.201 10.1913C411.45 10.6891 403.268 13.9294 397.349 19.2416C377.912 33.6508 357.849 33.5865 338.647 19.0445C331.171 13.3819 323.204 8.94905 312.544 10.7738C308.117 11.6529 303.896 13.1182 300.045 15.1125C296.876 16.9705 293.908 19.0468 291.17 21.319C283.987 26.7797 274.561 29.8197 264.769 29.8324C254.977 29.8451 245.538 26.8296 238.335 21.3875C235.782 19.5842 233.334 17.6827 230.75 15.9094C225.904 12.2845 219.585 10.2711 213.027 10.2624C206.47 10.2537 200.145 12.2503 195.285 15.8623C192.424 17.8155 189.781 19.9828 186.894 21.9146C179.673 27.109 170.364 29.9266 160.761 29.8245C151.158 29.7225 141.94 26.708 134.885 21.3619C131.925 19.2759 129.111 17.0445 126.057 15.0613C121.455 12.0289 115.742 10.3561 109.839 10.3126C103.937 10.2691 98.1882 11.8572 93.5203 14.8213C90.012 17.0358 86.7912 19.5587 83.4395 21.936C76.5688 26.9004 67.7435 29.661 58.5885 29.71V29.71Z" fill="#D90452"/>
</svg>
