<svg width="852" height="87" viewBox="0 0 852 87" fill="none" xmlns="http://www.w3.org/2000/svg">
<rect width="852" height="87" fill="white"/>
<path d="M111.538 86.3524C93.7947 86.8342 76.4791 81.0694 62.8376 70.1383C58.4246 66.6084 54.031 63.0302 49.9162 59.1942C40.2933 49.3867 27.0661 43.5913 13.062 43.0466C5.2399 42.8457 -0.39569 39.2206 0.0217526 31.2711C0.469012 22.8433 6.58156 20.2508 14.9304 20.4134C31.6382 20.7803 47.6717 26.8264 60.1926 37.48C66.6431 42.7127 72.6975 48.4417 79.3865 53.3683C88.2081 60.0933 99.1444 63.7264 110.398 63.669C121.651 63.6116 132.55 59.8676 141.297 53.053C146.615 49.0639 151.513 44.5589 156.582 40.2732C170.465 27.3091 189.038 20.0405 208.381 20.0012C227.725 19.9619 246.328 27.1542 260.268 40.0619C265.605 44.558 270.753 49.2743 276.349 53.4547C285.052 60.0495 295.802 63.6464 306.879 63.669C317.957 63.6915 328.721 60.139 337.454 53.5797C345.733 47.4382 353.149 40.1873 361.508 34.1893C374.141 24.9941 389.544 20.0121 405.382 20C421.221 19.9879 436.63 24.9457 449.278 34.1215C456.842 39.5456 463.6 45.9842 470.926 51.7335C480.04 59.4355 491.756 63.6818 503.885 63.6818C516.014 63.6818 527.728 59.4355 536.842 51.7335C543.114 46.7973 548.858 41.2098 555.209 36.4267C568.602 25.72 585.498 19.9183 602.907 20.0479C620.317 20.1775 637.117 26.2308 650.336 37.1355C656.876 42.263 662.911 48.0028 669.54 53.025C678.267 59.865 689.156 63.6351 700.411 63.7133C711.665 63.7916 722.612 60.1726 731.441 53.4547C739.73 47.3419 747.254 40.2541 755.474 34.0456C767.553 24.9264 782.546 20.1219 797.894 20.4519C799.501 20.2326 801.137 20.3452 802.694 20.7836C804.251 21.2219 805.693 21.9751 806.923 22.9929C808.154 24.0108 809.146 25.2706 809.83 26.6865C810.515 28.1024 810.877 29.6429 810.893 31.2045C811.113 32.683 810.992 34.1898 810.537 35.6174C810.081 37.0451 809.303 38.3585 808.258 39.4628C807.213 40.5671 805.926 41.4349 804.492 42.005C803.058 42.5751 801.509 42.8335 799.959 42.7605C783.299 43.8722 767.723 51.109 756.456 62.973C719.453 95.1536 681.258 95.0099 644.702 62.5328C630.469 49.8863 615.302 39.9862 595.007 44.0614C586.58 46.0248 578.543 49.2974 571.212 53.7513C565.18 57.9007 559.528 62.5378 554.316 67.6124C540.643 79.8081 522.697 86.5973 504.055 86.6257C485.413 86.654 467.444 79.9194 453.731 67.7654C448.871 63.7381 444.211 59.4914 439.291 55.531C430.066 47.4353 418.036 42.9388 405.552 42.9193C393.068 42.8999 381.027 47.359 371.775 55.4259C366.328 59.788 361.297 64.6282 355.801 68.9425C342.053 80.5434 324.331 86.836 306.049 86.6081C287.768 86.3803 270.22 79.6478 256.788 67.7082C251.153 63.0495 245.796 58.066 239.982 53.6369C231.221 46.8645 220.344 43.1286 209.107 43.0314C197.87 42.9343 186.926 46.4811 178.04 53.1009C171.361 58.0466 165.229 63.6812 158.848 68.9904C145.768 80.0775 128.967 86.2428 111.538 86.3524V86.3524Z" fill="#D90452"/>
</svg>
