<svg xmlns="http://www.w3.org/2000/svg" width="34.479" height="34.479" viewBox="0 0 34.479 34.479">
  <g id="Grupo_782" data-name="Grupo 782" transform="translate(-1546.905 -7225.165)">
    <path id="Trazado_13" data-name="Trazado 13" d="M108.527,216.909h0a17.239,17.239,0,0,1-17.24-17.239h0a17.239,17.239,0,0,1,17.24-17.24h0a17.239,17.239,0,0,1,17.239,17.24h0A17.239,17.239,0,0,1,108.527,216.909Z" transform="translate(1455.618 7042.735)" fill="#d2d9e0"/>
    <g id="Grupo_11" data-name="Grupo 11" transform="translate(1555.037 7232.001)">
      <g id="Grupo_10" data-name="Grupo 10">
        <rect id="Rectángulo_2" data-name="Rectángulo 2" width="3.939" height="12.724" transform="translate(0.378 6.362)" fill="#d90452"/>
        <path id="Trazado_14" data-name="Trazado 14" d="M103.639,195.552a2.348,2.348,0,1,0-2.329-2.348A2.339,2.339,0,0,0,103.639,195.552Z" transform="translate(-101.31 -190.857)" fill="#d90452"/>
      </g>
      <path id="Trazado_15" data-name="Trazado 15" d="M111.923,203.263c0-1.788.823-2.854,2.4-2.854,1.448,0,2.144,1.023,2.144,2.854v6.679h3.92v-8.056c0-3.408-1.932-5.056-4.63-5.056a4.435,4.435,0,0,0-3.834,2.1v-1.713h-3.778v12.723h3.778Z" transform="translate(-101.31 -190.857)" fill="#d90452"/>
    </g>
  </g>
</svg>
