<svg width="53" height="105" viewBox="0 0 53 105" fill="none" xmlns="http://www.w3.org/2000/svg">
<path d="M5.05747 30.0353C3.96314 26.7941 2.89114 23.5529 2.35514 20.1785C1.84147 16.8041 1.88614 13.2743 3.04747 10.0775C3.22614 9.58907 4.72247 6.32568 5.23614 6.37008C5.61581 6.39228 4.70014 9.43367 4.90114 9.74447C6.71014 12.7859 7.24614 16.4267 7.00047 19.9565C6.7548 23.4641 6.06247 26.6387 5.05747 30.0353Z" fill="#263238"/>
<path d="M5.41497 47.6622L4.56631 17.0262C4.18664 8.4792 8.87665 1.131 17.475 0.997803L18.2566 1.02C26.2743 1.353 32.684 7.7466 32.9966 15.6942C33.287 23.109 33.5103 31.2786 33.3093 35.2524C32.8626 43.4442 24.5546 44.3766 24.5546 44.3766C24.5323 44.3766 24.4876 52.9014 24.4876 55.299L18.6363 61.4928L18.9713 59.6058L5.41497 47.6622Z" fill="#FFBF9D"/>
<path d="M24.5546 44.3767C24.5546 44.3767 19.351 44.4655 13.9463 40.7803C13.9463 40.7803 16.269 47.0407 24.5323 46.6411L24.5546 44.3767Z" fill="#FF9A6C"/>
<path d="M30.2716 22.5319C30.2493 23.1535 29.7356 23.6641 29.088 23.6863C28.4403 23.6863 27.9043 23.1979 27.9043 22.5763C27.9043 21.9547 28.4403 21.4441 29.088 21.4441C29.7356 21.4219 30.2716 21.9325 30.2716 22.5319Z" fill="#263238"/>
<path d="M31.0983 19.2462C30.9419 19.4016 30.0709 18.6913 28.7979 18.6469C27.5472 18.5803 26.5869 19.2018 26.4529 19.0242C26.3859 18.9576 26.5423 18.6913 26.9666 18.4249C27.3686 18.1363 28.0609 17.892 28.8649 17.9142C29.6466 17.9586 30.2943 18.2694 30.6739 18.5802C31.0536 18.891 31.1653 19.1796 31.0983 19.2462Z" fill="#263238"/>
<path d="M18.9936 22.5319C18.9936 23.1535 18.4576 23.6641 17.81 23.6863C17.1623 23.6863 16.6263 23.1979 16.6486 22.5763C16.6486 21.9547 17.1846 21.4441 17.8323 21.4441C18.48 21.4219 18.9936 21.9325 18.9936 22.5319Z" fill="#263238"/>
<path d="M18.6583 19.0241C18.502 19.1795 17.631 18.4913 16.3803 18.4247C15.1073 18.3581 14.147 18.9797 14.013 18.8243C13.946 18.7355 14.1023 18.4691 14.5266 18.2027C14.951 17.9141 15.6433 17.6699 16.425 17.6921C17.2066 17.7365 17.8543 18.0473 18.234 18.3581C18.6136 18.6689 18.7253 18.9575 18.6583 19.0241Z" fill="#263238"/>
<path d="M22.8127 28.9032C22.7903 28.8144 23.5943 28.7256 24.8673 28.6146C25.2023 28.5924 25.515 28.548 25.582 28.326C25.649 28.0818 25.5373 27.7488 25.4033 27.3492C25.1204 26.5648 24.8301 25.736 24.5323 24.8628C23.3487 21.333 22.5223 18.4248 22.6563 18.3804C22.8127 18.336 23.8847 21.1554 25.0683 24.7074C25.3512 25.5806 25.6192 26.4168 25.8723 27.216C25.984 27.5712 26.185 27.993 25.984 28.4814C25.8947 28.7034 25.649 28.881 25.448 28.9254C25.2247 28.9698 25.046 28.9698 24.8897 28.9698C23.5943 28.992 22.8127 28.9698 22.8127 28.9032Z" fill="#263238"/>
<path d="M19.2392 15.0948C19.0382 15.4278 17.8322 15.0282 16.3359 14.9394C14.8395 14.8062 13.5889 15.0282 13.4325 14.673C13.3879 14.5176 13.6559 14.2512 14.1919 14.007C14.7279 13.7628 15.5319 13.5852 16.4252 13.6518C17.3185 13.7184 18.1002 14.007 18.5915 14.3178C19.0829 14.6286 19.3062 14.9616 19.2392 15.0948Z" fill="#263238"/>
<path d="M31.2992 15.5389C31.0312 15.8275 30.0039 15.4945 28.7755 15.4501C27.5249 15.3613 26.4752 15.5833 26.2295 15.2725C26.1402 15.1393 26.2965 14.8507 26.7655 14.5843C27.2345 14.3401 27.9939 14.1403 28.8425 14.1847C29.6912 14.2291 30.4282 14.4955 30.8525 14.8063C31.2992 15.1171 31.4332 15.4057 31.2992 15.5389Z" fill="#263238"/>
<path d="M4.99044 23.1312C4.85644 23.0646 -0.615227 21.222 -0.659894 26.8386C-0.704561 32.4552 4.9681 31.3452 4.9681 31.1898C4.99044 31.0122 4.99044 23.1312 4.99044 23.1312Z" fill="#FFBF9D"/>
<path d="M3.27086 29.0363C3.24853 29.0141 3.18153 29.1029 3.00286 29.1695C2.84653 29.2583 2.55619 29.3027 2.26586 29.1917C1.68519 28.9697 1.19386 28.0151 1.17153 27.0161C1.1492 26.5055 1.26087 26.0171 1.46187 25.6175C1.64053 25.1957 1.90853 24.9071 2.19886 24.8627C2.51153 24.7961 2.71253 24.9737 2.77953 25.1513C2.84653 25.3067 2.8242 25.4177 2.84653 25.4177C2.86886 25.4399 2.95819 25.3289 2.93586 25.0847C2.91353 24.9737 2.84653 24.8405 2.71253 24.7517C2.57853 24.6407 2.37753 24.5741 2.15419 24.5963C1.72986 24.6185 1.32787 25.0181 1.12687 25.4621C0.903533 25.9061 0.769531 26.4389 0.769531 27.0161C0.791865 28.1483 1.37253 29.2139 2.17653 29.4581C2.57853 29.5691 2.91353 29.4359 3.0922 29.3027C3.27086 29.1695 3.29319 29.0585 3.27086 29.0363Z" fill="#FF9A6C"/>
<path d="M29.3561 6.39239C30.2717 5.90399 27.5247 2.95139 25.2691 1.93019C21.8744 0.398391 16.6931 -0.534011 13.5664 0.331789C9.8144 1.39739 6.6654 3.26219 4.7894 6.68099C2.89107 10.0776 2.1764 14.0514 2.28807 17.9364C2.3104 19.1352 2.4444 20.3562 3.06973 21.3774C3.87373 22.6206 5.37007 23.3976 5.30307 25.107C5.28073 25.7286 5.4594 26.3724 5.88373 26.8164C6.9334 27.9042 8.18406 26.883 8.76473 25.8618C10.0154 23.664 10.1494 21.0444 10.2611 18.5136C10.3504 16.7376 10.4174 14.895 9.90373 13.1856C9.63573 12.2532 9.18906 11.3652 8.96573 10.4106C8.7424 9.45599 8.76473 8.39039 9.36773 7.61339C9.45707 7.48019 9.63574 7.32479 9.83674 7.14719C11.4224 5.74859 13.6781 5.34899 15.6657 6.03719C18.8594 7.16939 24.2864 8.83439 25.6934 7.76879C27.7481 6.21479 28.2171 5.21579 28.2171 5.21579L29.3561 6.39239Z" fill="#263238"/>
<path d="M18.815 29.6802C19.016 29.658 19.016 30.9457 20.1326 31.8559C21.2493 32.7661 22.634 32.6329 22.634 32.8105C22.6563 32.8771 22.3437 33.0547 21.7407 33.0769C21.1823 33.0991 20.3337 32.9215 19.6637 32.3665C18.9713 31.8115 18.681 31.0567 18.6363 30.5239C18.5916 29.9911 18.7257 29.658 18.815 29.6802Z" fill="#263238"/>
<path d="M3.76239 46.1304C3.76239 46.1304 -9.50361 42.7338 -17.0969 51.2808C-19.9333 54.4776 -21.251 58.74 -20.9606 62.9802C-20.7596 65.9106 -20.4693 70.1064 -20.2236 73.9692C-19.7546 80.8068 -18.2583 97.6566 -14.6403 101.675C-10.9999 105.693 -1.24028 103.739 2.17672 102.407C5.61605 101.075 10.9314 101.453 13.5444 98.9664C16.1797 96.5022 20.1104 94.9704 24.2421 93.3498C28.3514 91.707 26.6987 89.5314 26.6987 89.5314L20.5571 76.5888L-1.77628 81.0288C-1.77628 81.0288 -2.69195 72.4818 -1.73162 69.9066C-0.771282 67.3314 0.836721 63.9792 1.35039 60.0498C1.86406 56.1204 3.76239 46.1304 3.76239 46.1304Z" fill="#D90452"/>
<path d="M-0.347168 44.9759H2.08716L4.87883 40.9355L15.5765 49.6379L19.1052 54.8549L20.8248 49.7045L24.5545 47.8619L25.5148 50.6814L28.6415 52.1021L24.7332 61.8035L21.6065 65.5775C21.6065 65.5775 16.7378 69.1518 10.3058 63.2688C3.87383 57.408 3.87383 57.4079 3.87383 57.4079L-0.347168 44.9759Z" fill="white"/>
<path d="M-0.346941 44.9758C-0.346941 44.9758 12.4501 64.2232 17.6314 62.4028C22.8127 60.5824 27.9494 51.5914 27.9494 51.5914C27.9494 51.5914 39.2277 55.1212 42.7341 58.9174C46.2404 62.7136 52.0917 84.9136 52.0917 84.9136L-1.77627 81.0286C-1.77627 81.0286 -9.79395 69.0628 -9.79395 68.1526C-9.79395 67.2424 -7.42661 45.9526 -7.42661 45.9526L-0.346941 44.9758Z" fill="#D90452"/>
<path d="M20.8696 77.0771C20.8696 77.0771 28.128 74.3909 31.344 74.7239C34.56 75.0569 47.1113 84.9137 47.1113 84.9137L30.7633 84.8249L29.3563 83.5373L25.716 87.4445L20.8696 77.0771Z" fill="#FFBF9D"/>
<path d="M23.6169 93.4386C23.6392 93.4608 23.3712 93.6162 22.9022 93.8826L22.8352 93.9048L22.8129 93.8604C22.3439 92.6616 21.3389 90.1308 20.2222 87.156C19.4405 85.0914 18.7482 83.2044 18.2569 81.828C18.0335 81.1768 17.8474 80.6366 17.6985 80.2074C17.5645 79.83 17.4975 79.608 17.5199 79.608C17.5199 79.5858 17.6092 79.8078 17.7655 80.1852C17.9442 80.5996 18.1601 81.1324 18.4132 81.7836C18.9492 83.1378 19.6639 85.0026 20.4455 87.0894C21.5622 90.042 22.5002 92.6172 22.9245 93.816L22.8352 93.7938C23.3489 93.5496 23.6169 93.4386 23.6169 93.4386Z" fill="#263238"/>
<path d="M27.0335 90.2417C27.0335 90.2417 26.9889 90.1603 26.8995 89.9975C26.8102 89.8199 26.6911 89.5757 26.5422 89.2649C26.2072 88.5989 25.7382 87.6443 25.1575 86.4455C23.9962 84.0257 22.3659 80.6291 20.4452 76.6331L20.5792 76.6997C17.6535 77.2769 14.4375 77.9207 11.0652 78.5867C6.35286 79.5191 1.95319 80.3849 -1.75414 81.1175L-1.84348 81.1397L-1.86581 81.0287C-2.58048 77.5877 -3.16114 74.7239 -3.56314 72.6815C-3.76414 71.6825 -3.92047 70.9055 -4.03214 70.3505C-4.07681 70.0989 -4.11403 69.8917 -4.14381 69.7289C-4.17358 69.5957 -4.18848 69.5291 -4.18848 69.5291C-4.17359 69.5143 -4.15125 69.5809 -4.12147 69.7289C-4.07681 69.8769 -4.0247 70.0767 -3.96514 70.3283C-3.85348 70.8833 -3.67481 71.6825 -3.45147 72.6593C-3.02714 74.6795 -2.40181 77.5655 -1.66481 81.0065L-1.77647 80.9177C1.90853 80.1851 6.30819 79.2971 11.0205 78.3647C14.3929 77.6987 17.6089 77.0549 20.5345 76.4777H20.6015L20.6462 76.5443C22.5445 80.5625 24.1302 83.9591 25.2915 86.4011C25.8499 87.5999 26.2742 88.5545 26.5869 89.2205C26.7357 89.5461 26.8549 89.7977 26.9442 89.9753C27.0186 90.1529 27.0484 90.2417 27.0335 90.2417Z" fill="#263238"/>
<path d="M2.0874 44.9758C2.10229 44.9758 2.16929 45.0276 2.2884 45.1312C2.43729 45.2348 2.6234 45.3754 2.84673 45.553C3.31573 45.9526 3.98574 46.5076 4.7674 47.2624C5.5714 47.995 6.5094 48.883 7.53673 49.882C8.56407 50.881 9.70307 51.9688 10.9761 53.0122C11.5344 53.4562 12.0927 53.8558 12.6734 54.1888L12.5171 54.211C13.5444 52.8568 14.7504 51.8578 15.5321 50.77L15.6214 50.659L15.7107 50.77C16.6041 52.0798 17.3411 53.1676 17.8994 53.9446C18.1376 54.3146 18.3386 54.618 18.5024 54.8548C18.6364 55.0546 18.7034 55.1656 18.6811 55.1656C18.6811 55.1878 18.5917 55.0768 18.4577 54.877C18.2791 54.655 18.0632 54.3664 17.8101 54.0112C17.2517 53.2342 16.4701 52.1686 15.5321 50.881H15.7107C14.9067 52.0132 13.7007 53.0344 12.7181 54.3442L12.6511 54.433L12.5617 54.3886C11.9811 54.0334 11.4004 53.6338 10.8421 53.1898C9.54674 52.1464 8.40774 51.0364 7.3804 50.0374C6.3754 49.0384 5.45974 48.1282 4.65574 47.3734C3.87407 46.6186 3.2264 46.0414 2.77974 45.6196C2.57129 45.4272 2.40007 45.2718 2.26607 45.1534C2.14696 45.0498 2.0874 44.9906 2.0874 44.9758Z" fill="#263238"/>
<path d="M25.9169 51.9912C25.9392 52.0134 25.6265 52.191 25.1129 52.4352C24.5769 52.7016 23.8176 53.0568 22.9466 53.4564L22.8349 53.5008L22.8126 53.412C22.5892 52.857 22.2766 52.302 21.9192 51.747C21.7108 51.451 21.5023 51.1772 21.2939 50.9256L21.4726 50.9034C21.0036 51.9912 20.6016 52.9458 20.2889 53.634C19.9762 54.3 19.7752 54.6996 19.7529 54.6996C19.7305 54.6774 19.8646 54.2556 20.1549 53.5674C20.4229 52.8792 20.8026 51.9024 21.2716 50.8146L21.3386 50.637L21.4726 50.7924C21.6959 51.044 21.9043 51.3178 22.0979 51.6138C22.4775 52.191 22.7902 52.7682 23.0136 53.3232L22.8572 53.2566C23.7506 52.8792 24.5099 52.5462 25.0459 52.3242C25.5819 52.1022 25.9169 51.969 25.9169 51.9912Z" fill="#263238"/>
</svg>
