<svg xmlns="http://www.w3.org/2000/svg" xmlns:xlink="http://www.w3.org/1999/xlink" width="389" height="227" viewBox="0 0 389 227">
  <defs>
    <linearGradient id="linear-gradient" y1="0.5" x2="1" y2="0.5" gradientUnits="objectBoundingBox">
      <stop offset="0" stop-color="#d42150"/>
      <stop offset="1" stop-color="#741045"/>
    </linearGradient>
  </defs>
  <g id="Grupo_930" data-name="Grupo 930" transform="translate(0 -27)">
    <g id="Grupo_839" data-name="Grupo 839" transform="translate(-56 -113)" opacity="0.672">
      <g id="Grupo_838" data-name="Grupo 838" transform="translate(133 289)">
        <g id="RELOJ-ELEMENTO_AUX" data-name="RELOJ-ELEMENTO AUX" transform="translate(0 0)">
          <g id="Grupo_145" data-name="Grupo 145">
            <g id="Grupo_143" data-name="Grupo 143" transform="translate(0 21.136)">
              <path id="Trazado_344" data-name="Trazado 344" d="M2865.854,6059.314a8.944,8.944,0,1,0,8.943-8.946A8.941,8.941,0,0,0,2865.854,6059.314Z" transform="translate(-2865.854 -6050.368)" fill="#fff"/>
              <path id="Trazado_345" data-name="Trazado 345" d="M2886.936,6061.378a19.753,19.753,0,0,0-.561,3.4,33.791,33.791,0,0,0-.127,3.4l.688-.689c-1,.014-2,.056-3,.166a1.544,1.544,0,1,0,0,1.047c1,.11,2,.151,3,.166l.682.01.007-.7c.014-1.133-.028-2.262-.127-3.4A19.676,19.676,0,0,0,2886.936,6061.378Z" transform="translate(-2877.99 -6059.222)" fill="#83e9d4"/>
            </g>
            <g id="Grupo_144" data-name="Grupo 144" transform="translate(32.28)">
              <path id="Trazado_346" data-name="Trazado 346" d="M3030.715,5942.421c.589.461,7.152,8.285,7.152,8.285l25.568,1.966Z" transform="translate(-3030.715 -5942.421)" fill="#e9b4de"/>
              <path id="Trazado_347" data-name="Trazado 347" d="M3051.555,5995.11l3.072-10.358,25.564,1.963Z" transform="translate(-3047.475 -5976.463)" fill="#b95e89"/>
              <path id="Trazado_348" data-name="Trazado 348" d="M3051.555,6003.171l8.564-4.628,20.072-3.767Z" transform="translate(-3047.475 -5984.525)" fill="#cd99c2"/>
              <path id="Trazado_349" data-name="Trazado 349" d="M3095.293,5998.543l8.364,9.453,11.708-13.22Z" transform="translate(-3082.649 -5984.525)" fill="#e9b4de"/>
            </g>
            <path id="Trazado_350" data-name="Trazado 350" d="M3032.8,6166.48a7.819,7.819,0,0,0,.451,1.078l-1.474,1.474,3.478,3.478,1.474-1.474a7.8,7.8,0,0,0,1.078.451v2.083h4.917v-2.083a7.817,7.817,0,0,0,1.078-.451l1.474,1.474,3.478-3.478-1.474-1.474a7.82,7.82,0,0,0,.451-1.078h2.083v-4.917h-2.083a7.82,7.82,0,0,0-.451-1.078l1.474-1.474-3.478-3.478-1.474,1.474a7.878,7.878,0,0,0-1.078-.451v-2.083h-4.917v2.083a7.865,7.865,0,0,0-1.078.451l-1.474-1.474-3.478,3.478,1.474,1.474a7.819,7.819,0,0,0-.451,1.078h-2.083v4.917Zm2.51-2.458a4.955,4.955,0,1,1,4.955,4.955A4.954,4.954,0,0,1,3035.309,6164.022Z" transform="translate(-2998.435 -6112.953)" fill="#00ebd5" style="isolation: isolate"/>
            <circle id="Elipse_23" data-name="Elipse 23" cx="3.364" cy="3.364" r="3.364" transform="translate(14.525 1.761)" fill="#b95e89"/>
            <path id="Trazado_351" data-name="Trazado 351" d="M2954.667,6187.373a3.864,3.864,0,1,0,3.864-3.864A3.863,3.863,0,0,0,2954.667,6187.373Z" transform="translate(-2937.277 -6136.304)" fill="#b95e89"/>
          </g>
        </g>
      </g>
    </g>
    <g id="Grupo_840" data-name="Grupo 840" transform="translate(22 -300)" opacity="0.672">
      <g id="AVION_TUERCAS" data-name="AVION+TUERCAS" transform="translate(242 344)">
        <path id="Trazado_353" data-name="Trazado 353" d="M4192.388,6445.547a7.508,7.508,0,0,0,.642-.94l1.99.42.99-4.691-1.989-.42a7.892,7.892,0,0,0-.206-1.12l1.7-1.107-2.618-4.019-1.7,1.107a7.5,7.5,0,0,0-.94-.643l.42-1.989-4.691-.99-.42,1.989a7.758,7.758,0,0,0-1.12.206l-1.11-1.7-4.018,2.618,1.109,1.7a7.366,7.366,0,0,0-.642.94l-1.99-.42-.991,4.692,1.99.419a7.723,7.723,0,0,0,.206,1.121l-1.7,1.109,2.618,4.018,1.7-1.107a7.375,7.375,0,0,0,.941.642l-.42,1.99,4.692.99.419-1.989a7.9,7.9,0,0,0,1.121-.206l1.107,1.7,4.019-2.618Zm-3.345-.742a4.832,4.832,0,1,1,1.411-6.687A4.834,4.834,0,0,1,4189.043,6444.8ZM4173,6430.322a4.938,4.938,0,0,0,.4-.591l1.252.264.623-2.952-1.252-.264a5,5,0,0,0-.129-.705l1.07-.7-1.646-2.528-1.07.7a4.676,4.676,0,0,0-.592-.4l.264-1.252-2.951-.623-.264,1.252a5.029,5.029,0,0,0-.706.129l-.7-1.07-2.528,1.646.7,1.07a4.76,4.76,0,0,0-.4.592l-1.253-.264-.623,2.951,1.252.264a5.051,5.051,0,0,0,.13.706l-1.07.7,1.646,2.526,1.07-.7a4.644,4.644,0,0,0,.592.4l-.264,1.253,2.951.623.264-1.252a4.966,4.966,0,0,0,.706-.129l.7,1.07,2.526-1.646Zm-2.1-.467a3.037,3.037,0,1,1,.888-4.2A3.038,3.038,0,0,1,4170.893,6429.854Z" transform="translate(-4163.192 -6403.33)" fill="#00ebd5" style="isolation: isolate"/>
        <g id="Grupo_149" data-name="Grupo 149" transform="translate(2.061)">
          <path id="Trazado_354" data-name="Trazado 354" d="M4210.145,6302.561c-.531-.1-17.786-.692-17.786-.692l-.782,2.544Z" transform="translate(-4189.374 -6301.868)" fill="#e9b4de"/>
          <path id="Trazado_355" data-name="Trazado 355" d="M4191.577,6308.329l2.314,7.1,16.253-8.953Z" transform="translate(-4189.373 -6305.784)" fill="#b95e89"/>
          <path id="Trazado_356" data-name="Trazado 356" d="M4187.7,6315.43l16.253-8.953-19.661,4.79Z" transform="translate(-4183.186 -6305.784)" fill="#cd99c2"/>
          <path id="Trazado_357" data-name="Trazado 357" d="M4178.02,6311.267l19.661-4.79-20.771,9.218Z" transform="translate(-4176.91 -6305.784)" fill="#e9b4de"/>
        </g>
        <path id="Trazado_358" data-name="Trazado 358" d="M4227,6656.716a2.18,2.18,0,1,0,2.18-2.179A2.18,2.18,0,0,0,4227,6656.716Z" transform="translate(-4217.412 -6601.559)" fill="#b95e89"/>
      </g>
    </g>
    <g id="NOSTROS-ICON" transform="translate(125 40.087)" opacity="0.727">
      <g id="Grupo_222" data-name="Grupo 222">
        <g id="Grupo_221" data-name="Grupo 221" transform="translate(0 12.59)">
          <g id="Grupo_220" data-name="Grupo 220">
            <path id="Rect치ngulo_120" data-name="Rect치ngulo 120" d="M.361,0H263.639A.361.361,0,0,1,264,.361v0a.361.361,0,0,1-.361.361H.361A.361.361,0,0,1,0,.361v0A.361.361,0,0,1,.361,0Z" transform="translate(0 177.6)" fill="#fc7171"/>
          </g>
        </g>
        <ellipse id="Elipse_29" data-name="Elipse 29" cx="32.053" cy="23.078" rx="32.053" ry="23.078" transform="matrix(0.747, -0.665, 0.665, 0.747, 48.711, 42.61)" fill="#fc7171"/>
        <ellipse id="Elipse_30" data-name="Elipse 30" cx="7.129" cy="9.902" rx="7.129" ry="9.902" transform="translate(29.853 49.162) rotate(-41.657)" fill="#fc7171"/>
      </g>
      <path id="Trazado_544" data-name="Trazado 544" d="M1283.067,5200.383c-7.361-1.185-12.918,1.394-18.262.653-4.261-.591-6.482-4.9-12.209-6.124a23.8,23.8,0,0,0,3.708-2.538c1.474-1.42,3.591-4.259,0-4.37-2.583-.081-4.6,4.223-5.521,6.644a17.559,17.559,0,0,0-2.766,0c1.182-3.809,3.487-11.183,4.051-12.6.767-1.928-2.455-8.354-6.253-1.142-2.664,5.059-.855,10.9.463,13.945a21.257,21.257,0,0,0-2.961.7c-3.139-7.161-13.124-27.576-23.948-25.04-11.8,2.766,13.481,16.491,19.857,26.667-5.209,2.414-9.785,5.347-17.7,3.205-21.024-5.692-22.692,7.115-22.692,7.115l93.953.032A12.721,12.721,0,0,0,1283.067,5200.383Z" transform="translate(-1135.094 -5017.429)" fill="#00e9d3"/>
      <path id="Trazado_545" data-name="Trazado 545" d="M1685.526,4984.713c.1.9,1.376.871,2.822.654s1.072.164,3.105.125,2.711-.734,2.8-1.028c.079-.261-.907-.445-1.962-.665-.133-.027-.266-.057-.4-.085a8.749,8.749,0,0,1-3.038-1.856c-.981-.7-1.642-3.9-1.642-3.9l-2.89-.017s.908,2.9,1.381,3.9a3.4,3.4,0,0,1-.111,1.924A3.549,3.549,0,0,0,1685.526,4984.713Z" transform="translate(-1563.111 -4847.841)" fill="#fab4df"/>
      <path id="Trazado_546" data-name="Trazado 546" d="M1697.235,5028.784c1.446-.217,1.072.164,3.105.124s2.711-.734,2.8-1.027c.079-.261-.907-.445-1.962-.665l-.012.02a5.7,5.7,0,0,1-2.964.633c-1.369-.091-2.78-.614-3.724-.685a3.548,3.548,0,0,0-.065.947C1694.51,5029.034,1695.789,5029,1697.235,5028.784Z" transform="translate(-1571.999 -4891.257)" fill="#4e01d2"/>
      <path id="Trazado_547" data-name="Trazado 547" d="M1503.566,4977.728c.063.907,1.342.923,2.8.761s1.065.2,3.1.241,2.737-.632,2.837-.922c.089-.257-.889-.479-1.936-.738-.132-.032-.264-.066-.4-.1A8.751,8.751,0,0,1,1507,4975c-.954-.736-.169-3.787-.169-3.787l-2.193-1.036s-.3,3.145-.464,4.735a18.255,18.255,0,0,1-.506,1.873A3.559,3.559,0,0,0,1503.566,4977.728Z" transform="translate(-1403.748 -4840.999)" fill="#fab4df"/>
      <path id="Trazado_548" data-name="Trazado 548" d="M1506.361,5027.7c1.453-.162,1.065.2,3.1.241s2.737-.632,2.837-.922c.089-.257-.889-.479-1.936-.738l-.013.019a5.7,5.7,0,0,1-2.986.521c-1.364-.143-2.754-.719-3.7-.825a3.563,3.563,0,0,0-.1.943C1503.628,5027.85,1504.908,5027.865,1506.361,5027.7Z" transform="translate(-1403.748 -4890.213)" fill="#4e01d2"/>
      <path id="Trazado_549" data-name="Trazado 549" d="M1511.265,4641.5s-.607,2.941-1.216,17.858a48.14,48.14,0,0,0-1.947,6.14c-.818,3.377-1.4,17.469-1.4,17.469a1.7,1.7,0,0,0,1.317.53,2.866,2.866,0,0,0,1.439-.307s5.69-18.457,8.46-25.622,4.392-17.4,4.392-17.4Z" transform="translate(-1406.521 -4550.06)" fill="#eaeaea"/>
      <path id="Trazado_550" data-name="Trazado 550" d="M1603.035,4624.262s.448,2.97,5.042,17.175a48.111,48.111,0,0,0,.3,6.434c.4,3.452,5.051,17.042,5.051,17.042a2.854,2.854,0,0,0,1.544-.03,4.877,4.877,0,0,0,1.536-.745s-1.782-19.424-1.665-27.106-1.9-17.842-1.9-17.842Z" transform="translate(-1491.447 -4531.557)" fill="#eaeaea"/>
      <path id="Trazado_551" data-name="Trazado 551" d="M1559.353,4307.695a4.159,4.159,0,0,0-2.229-.543,1.054,1.054,0,0,1,.486-.2,3.489,3.489,0,0,0-1.261.263c-5.255-2.333-6.492,5.515-6.471,7.354s-.072,3.948-2.829,5.458c-5.424,2.971-1.266,8.84-1.266,8.84-.977,2.8,2.638,6.234,2.638,6.234-.061-1.488,6.769-10.968,10.451-13.13a10.325,10.325,0,0,0,1.385-3.653,9.754,9.754,0,0,1-.9,3.322C1562.519,4319.011,1561.262,4308.909,1559.353,4307.695Z" transform="translate(-1439.63 -4256.131)" fill="#f4c70d"/>
      <path id="Trazado_552" data-name="Trazado 552" d="M1624.454,4387.134a4.946,4.946,0,0,1-3.033.554,3.938,3.938,0,0,1-2.021-1.937c.522-.1.673-.821.662-3.9l.236.046,3.824.758.142.028s-.091,1.248-.094,2.424c0,.249,0,.494.012.724C1624.208,4386.511,1624.284,4387.054,1624.454,4387.134Z" transform="translate(-1505.875 -4322.31)" fill="#fab4df"/>
      <path id="Trazado_553" data-name="Trazado 553" d="M1630.071,4386.819c0,.249,0,.494.012.724-2.225-.09-3.507-2.633-3.991-3.749l3.93.574.142.028S1630.074,4385.644,1630.071,4386.819Z" transform="translate(-1511.776 -4324.025)" fill="#f590ce"/>
      <path id="Trazado_554" data-name="Trazado 554" d="M1612.525,4317.888a11.657,11.657,0,0,1-1.442-3.409c-.2-1.122.372-5.281,4.551-4.682a5.68,5.68,0,0,1,2.355.89c.907.613,2.217,1.936.753,5.565l-.38,1.227Z" transform="translate(-1498.512 -4258.735)" fill="#f4c70d"/>
      <path id="Trazado_555" data-name="Trazado 555" d="M1627.02,4336.312s-5.207-.688-4.729-3.924.129-5.5,3.474-5.2,3.807,1.633,3.91,2.752S1628.386,4336.407,1627.02,4336.312Z" transform="translate(-1508.396 -4274.094)" fill="#fab4df"/>
      <path id="Trazado_556" data-name="Trazado 556" d="M1616.988,4323.147s-1.988,3.584-4.254,3.82-3.126-.49-3.126-.49a6.249,6.249,0,0,0,2.566-3.351S1616.184,4321.181,1616.988,4323.147Z" transform="translate(-1497.242 -4269.782)" fill="#f4c70d"/>
      <path id="Trazado_557" data-name="Trazado 557" d="M1668.589,4328.2a4.639,4.639,0,0,1,1.072,1.868c.136.862,0,2.576.5,2.592,0,0,1.456-2.42.469-4.059C1669.587,4326.86,1668.589,4328.2,1668.589,4328.2Z" transform="translate(-1549.242 -4274.577)" fill="#f4c70d"/>
      <path id="Trazado_558" data-name="Trazado 558" d="M1531.935,4584.982a8.134,8.134,0,0,0-6.688-4.229,7.6,7.6,0,0,0-4.846,1.695,1.275,1.275,0,0,1-2.05-.726l-2.24-10.4a2.81,2.81,0,0,0-3.339-2.156l-36.239,7.8a2.746,2.746,0,0,0-2.106,3.262l7.791,36.2a2.848,2.848,0,0,0,1.924,2.116l-.476.135h1.407l.011,0a2.9,2.9,0,0,0,.521-.063l.789-.169h0l9.3-2a1.756,1.756,0,0,0,.958-2.867,7.537,7.537,0,1,1,12.624-2,1.2,1.2,0,0,0,.353,1.413l-.542.265h1.257a1.216,1.216,0,0,0,.29-.027l11.105-2.39a2.811,2.811,0,0,0,2.157-3.339l-2.226-10.342a1.316,1.316,0,0,1,1.615-1.552,7.545,7.545,0,0,0,8.648-10.616Z" transform="translate(-1378.008 -4487.395)" fill="#740045" style="isolation: isolate"/>
      <path id="Trazado_559" data-name="Trazado 559" d="M1514.437,4580.753a7.6,7.6,0,0,0-4.846,1.695,1.276,1.276,0,0,1-2.05-.726l-2.24-10.4a2.81,2.81,0,0,0-3.339-2.156l-36.239,7.8a2.746,2.746,0,0,0-2.106,3.262l7.791,36.2a2.85,2.85,0,0,0,3.387,2.187l10.09-2.171a1.755,1.755,0,0,0,.958-2.867,7.537,7.537,0,1,1,12.624-2,1.2,1.2,0,0,0,1.358,1.649l11.105-2.39a2.811,2.811,0,0,0,2.157-3.339l-2.226-10.342a1.316,1.316,0,0,1,1.615-1.552,7.545,7.545,0,0,0,8.648-10.616A8.134,8.134,0,0,0,1514.437,4580.753Z" transform="translate(-1368.477 -4487.395)" fill="url(#linear-gradient)"/>
      <path id="Trazado_560" data-name="Trazado 560" d="M1781.392,4551.3s2.26.37,2.853,1.84-.235,2.465-.553,2.462a1.421,1.421,0,0,1-1.214-1C1782.192,4553.84,1781.392,4551.3,1781.392,4551.3Z" transform="translate(-1648.692 -4471.705)" fill="#fab4df"/>
      <path id="Trazado_561" data-name="Trazado 561" d="M1518.5,4606.715s2.537,0,3.45,1.5.188,2.737-.16,2.791a1.572,1.572,0,0,1-1.507-.875C1519.833,4609.346,1518.5,4606.715,1518.5,4606.715Z" transform="translate(-1416.918 -4520.56)" fill="#fab4df"/>
      <path id="Trazado_562" data-name="Trazado 562" d="M1526.651,4432.607c-.225-.048-1.208-.164-2.46-.361-2.3-.362-5.515-1-6.593-1.992a17.958,17.958,0,0,1-1.678-3.457,32.282,32.282,0,0,0-.565,8.86l-15.571,3.351c1.335-2.7,3.4-6.045,3.014-8.754-.143-1-.694-2.382-.9-3.93-.017-.133-.032-.266-.044-.4-2.183,1.8-4.706,3.781-4.767,4.178-.1.665,1.6,8.026,1.6,8.026-.422.972-2.256.768-2.256.768-1.719-1.227-4.246-8.181-4.043-9.721s6.468-10.319,7.984-12.417c1.5-2.073,6.967-2.021,7.1-2.021h0c4.349,2.611,4.741.441,4.741.441s3.924.747,4.6,1.9,3.632,9.949,3.841,10.259c.438.647,7.586,3.237,7.714,3.987S1527.292,4432.743,1526.651,4432.607Z" transform="translate(-1393.888 -4351.305)" fill="#4e01d2"/>
      <path id="Trazado_563" data-name="Trazado 563" d="M1560.377,4521.173l-5.429,1.163c1.352-2.691,3.129-6.043,2.74-8.735-.146-1-.471-2.194-.628-3.749-.015-.15-.041-.6-.041-.6s3.845,3.025,3.912,6.3A32.682,32.682,0,0,1,1560.377,4521.173Z" transform="translate(-1449.052 -4434.632)" fill="#4a2c76"/>
      <path id="Trazado_564" data-name="Trazado 564" d="M1699.681,4502.55c-2.332-.362-5.583-1-6.674-1.993a17.848,17.848,0,0,1-1.7-3.461s-.251-2.74.466-2.638,1.77,4.962,2.522,5.269C1694.969,4500,1698.69,4501.431,1699.681,4502.55Z" transform="translate(-1569.234 -4421.587)" fill="#4a2c76"/>
      <g id="Grupo_223" data-name="Grupo 223" transform="translate(213.759 133.5)">
        <path id="Trazado_565" data-name="Trazado 565" d="M2677.427,5419.329c-.329,1.107-1.846,1.846-2.051,3.2a2.94,2.94,0,0,1-.659,1.527h-4.724c.047-.26.255-.541.869-.674,1.312-.287,1.807-1.878,1.725-3.354-.034-.62-.018-1.325.012-1.936.042-.846.111-1.51.111-1.51l2.789-.656.293.377.281.361S2677.755,5418.221,2677.427,5419.329Z" transform="translate(-2645.869 -5367.484)" fill="#4a2c76"/>
        <path id="Trazado_566" data-name="Trazado 566" d="M2475.751,5450.982h-9.558a1.92,1.92,0,0,1,1.2-.6c1.471-.238,4.018-1.093,4.586-2.973.018-.061.035-.122.049-.185.451-2.009,3.732.615,3.732.615s.01.081.025.218A10.229,10.229,0,0,1,2475.751,5450.982Z" transform="translate(-2466.193 -5394.412)" fill="#4a2c76"/>
        <path id="Trazado_567" data-name="Trazado 567" d="M2479.671,5028.34s.5,6.218,1.084,13.692c.8,10.153,1.754,22.625,1.848,24.987.164,4.1.821,10.665.821,10.665s1.558,1.559,4.676.9a107.348,107.348,0,0,0,3.572-19.279c.012-.163.025-.326.037-.49.738-10.09,1.886-31.337,1.886-31.337Z" transform="translate(-2478.075 -5025.018)" fill="#4e01d2"/>
        <path id="Trazado_568" data-name="Trazado 568" d="M2479.671,5028.34s.5,6.218,1.084,13.692l10.917,17.274c.012-.163.025-.326.037-.49.738-10.09,1.886-31.337,1.886-31.337Z" transform="translate(-2478.075 -5025.018)" fill="#4a2c76"/>
        <path id="Trazado_569" data-name="Trazado 569" d="M2498.9,5010.749s8.983,22.518,14.889,33.1,7.752,13.536,7.752,13.536,3.384-1.354,3.691-2.276c0,0-2.259-20.43-6.214-25.41-2.235-2.814-4.86-11.259-4.983-14.212s-.8-8.8-.8-8.8Z" transform="translate(-2495.027 -5006.688)" fill="#4e01d2"/>
      </g>
      <path id="Trazado_570" data-name="Trazado 570" d="M2520.159,4692.012a26.375,26.375,0,0,1-.412-3.756l4.558-3.673a9.14,9.14,0,0,0,3.067,7.479s-6.073,2.989-9.584,1.882A8.415,8.415,0,0,1,2520.159,4692.012Z" transform="translate(-2297.922 -4589.21)" fill="#fab4df"/>
      <path id="Trazado_571" data-name="Trazado 571" d="M2516.845,4643.465s5.8.963,6.342-2.657,1.659-5.934-2.02-6.7-4.607.5-5.083,1.668S2515.351,4643.121,2516.845,4643.465Z" transform="translate(-2296.093 -4544.503)" fill="#fab4df"/>
      <g id="Grupo_224" data-name="Grupo 224" transform="translate(194.402 104.206)">
        <path id="Trazado_572" data-name="Trazado 572" d="M2308.651,4762.408l-1.234-.764a3.121,3.121,0,0,0-4.168-.861s-1.042.664-.343,1.22.511.242,1.479,1.047a2.892,2.892,0,0,0,3.029.649l1.036-.1Z" transform="translate(-2302.665 -4760.189)" fill="#a16d3c"/>
        <path id="Trazado_573" data-name="Trazado 573" d="M2339.862,4761.666c.318-.995.469-1.083.469-1.083s9.983,1.18,10.924,1.249,14.01-2.623,14.01-2.623l6.171,7.494s-18.195.686-20.576.463c-3.935-.369-11.071-4.032-11.071-4.032A2.911,2.911,0,0,1,2339.862,4761.666Z" transform="translate(-2335.341 -4759.209)" fill="#089988"/>
      </g>
      <path id="Trazado_574" data-name="Trazado 574" d="M2493.213,4769.162c.018.387-.779.812-1.125.967a24.242,24.242,0,0,1-7.775,2.244c-3.252.333-7.1-.4-8.414-.38a.566.566,0,0,1-.369-.141c-.088-.07-.158-4.043-.088-9.052,0-.193,0-.4.017-.6v-.07q.008-.783.025-1.587c.033-1.464.088-2.967.151-4.461.1-2.2.226-4.366.407-6.283a36.336,36.336,0,0,1,.736-4.966,12.121,12.121,0,0,1,3.8-6.065l1.212-1.071a5.755,5.755,0,0,0,3.779-.457c1.389-.686,2.9-1.424,3.146-1.249,1.874,1.4,3.136,4.581,3.782,8.622a44.686,44.686,0,0,1,.508,7.13c0,.971-.034,1.956-.09,2.951a97.056,97.056,0,0,0,.192,12.655C2493.158,4768.124,2493.2,4768.738,2493.213,4769.162Z" transform="translate(-2260.562 -4634.512)" fill="#00e9d3"/>
      <path id="Trazado_575" data-name="Trazado 575" d="M2024.368,4555.914l-36.667-5.823a2.859,2.859,0,0,0-3.271,2.375l-1.623,10.22a12.02,12.02,0,0,0,.045,1.8l1.322.2a1.872,1.872,0,0,0,.229.034h0a1.753,1.753,0,0,0,.738-.1,7.557,7.557,0,1,1-2.7,12.526,1.191,1.191,0,0,0-.716-.337h0l-1.383-.208-1.722,12.467a2.819,2.819,0,0,0,2.342,3.226l10.475,1.664a1.32,1.32,0,0,1,.866,2.072,7.565,7.565,0,0,0,6.795,11.93,8.156,8.156,0,0,0,6.376-4.722,7.618,7.618,0,0,0,.17-5.145,1.279,1.279,0,0,1,1.42-1.654l10.54,1.674a2.817,2.817,0,0,0,3.225-2.341l5.83-36.707A2.754,2.754,0,0,0,2024.368,4555.914Z" transform="translate(-1822.54 -4470.606)" fill="#f590ce"/>
      <path id="Trazado_576" data-name="Trazado 576" d="M2489.373,4808.111s-2.81,13.116-13.363,16.039c.033-1.464.088-2.967.151-4.461.1-2.2.226-4.366.407-6.283a3.639,3.639,0,0,1,.527-.226C2480.677,4812,2489.373,4808.111,2489.373,4808.111Z" transform="translate(-2261.089 -4698.116)" fill="#089988"/>
      <path id="Trazado_577" data-name="Trazado 577" d="M1994.018,4601.508a7.614,7.614,0,0,0,.17-5.145,1.279,1.279,0,0,1,1.421-1.654l10.54,1.674a2.819,2.819,0,0,0,3.225-2.341l5.829-36.708a2.753,2.753,0,0,0-2.287-3.15l-36.667-5.823a2.858,2.858,0,0,0-3.271,2.375l-1.623,10.22a1.76,1.76,0,0,0,2.333,1.934,7.557,7.557,0,1,1-2.7,12.527,1.206,1.206,0,0,0-2.034.673l-1.786,11.249a2.818,2.818,0,0,0,2.342,3.226l10.475,1.664a1.32,1.32,0,0,1,.866,2.072,7.565,7.565,0,0,0,6.795,11.93A8.156,8.156,0,0,0,1994.018,4601.508Z" transform="translate(-1812.444 -4469.082)" fill="#fde9f5"/>
      <g id="Grupo_225" data-name="Grupo 225" transform="translate(193.538 103.431)">
        <path id="Trazado_578" data-name="Trazado 578" d="M2302.255,4836.239l-1.508-.25a3.723,3.723,0,0,0-4.714-1.092s-1.188.665-.4,1.287.577.279,1.665,1.178a3.481,3.481,0,0,0,3.426.819l1.176-.061Z" transform="translate(-2295.362 -4824.79)" fill="#fab4df"/>
        <path id="Trazado_579" data-name="Trazado 579" d="M2343.837,4764.88c.049-1.109.64-1.228.64-1.228s11.42-.755,12.405-.947,10.081-7.727,10.081-7.727,3.518-3.162,5.982-2.095a4.829,4.829,0,0,1,2.92,4.438,4.888,4.888,0,0,1-2.822,4.728c-4.085,1.908-12.254,5.653-14.115,5.976-4.141.719-14.784-1.586-14.784-1.586A3.5,3.5,0,0,1,2343.837,4764.88Z" transform="translate(-2338.096 -4752.665)" fill="#00e9d3"/>
      </g>
      <path id="Trazado_580" data-name="Trazado 580" d="M2508.881,4615.224a3.383,3.383,0,0,1-.818-4.457,8.961,8.961,0,0,0,4.481,0c2.63-.614,4.983.256,5.29,1.176a2.14,2.14,0,0,1,1.125,1.944c.1,1.535-2.975,6.369-2.975,6.369s-.657-.818-.478-1.381.742-1.816.051-1.816-.921,1.023-1.2.614.23-2.123-.588-2.4S2509.8,4615.741,2508.881,4615.224Z" transform="translate(-2288.889 -4523.951)" fill="#4a2c76"/>
      <path id="Trazado_581" data-name="Trazado 581" d="M1467.562,5092.9l-10.365-47.061h2.853a1.233,1.233,0,0,0,1.23-1.229v-1.59a1.233,1.233,0,0,0-1.23-1.229h-36.193a1.233,1.233,0,0,0-1.229,1.229v1.59a1.233,1.233,0,0,0,1.229,1.229h3.673l-10.365,47.061a1.175,1.175,0,1,0,2.294.508l10.477-47.569h24.855l10.477,47.569a1.178,1.178,0,0,0,1.4.9h0A1.182,1.182,0,0,0,1467.562,5092.9Z" transform="translate(-1327.553 -4904.134)" fill="#740045" style="isolation: isolate"/>
      <g id="Grupo_226" data-name="Grupo 226" transform="translate(160.433 159.549)">
        <path id="Trazado_582" data-name="Trazado 582" d="M2292.372,5227.15c-3.836-3.683-17.648,19.555-17.648,19.555S2296.208,5230.833,2292.372,5227.15Z" transform="translate(-2244.062 -5226.754)" fill="#00e9d3"/>
        <path id="Trazado_583" data-name="Trazado 583" d="M2063.537,5320.018c-3.4-1.359-14.25,10.084-16.695,12.727a54.252,54.252,0,0,0-6.171-.45c-17.187-.307-24.984,7.478-24.984,7.478l47.946.163s-4.247-5.393-16.3-7.123c2.944-1.39,11.651-5.44,14.818-6.218C2065.992,5325.65,2067.374,5321.552,2063.537,5320.018Z" transform="translate(-2015.688 -5308.879)" fill="#00e9d3"/>
      </g>
      <g id="Grupo_227" data-name="Grupo 227" transform="translate(140.036 147.332)">
        <path id="Trazado_584" data-name="Trazado 584" d="M1952.255,5123.813h-10.348a1.76,1.76,0,0,0-1.544,2.607c.625,1.132-1.575,10.938-6.21,11.194a7.557,7.557,0,0,1-6.585-11.9,1.206,1.206,0,0,0-.983-1.9h-11.39a2.819,2.819,0,0,0-2.819,2.819s-1.032,12.226-1.911,11.787a7.515,7.515,0,0,0-2.979-.783h-.01c-.127-.006-.255-.01-.384-.01s-2-.032-2-.032l-.284,15.107,1.628.017a9.419,9.419,0,0,0,4.087-.8,1.279,1.279,0,0,1,1.856,1.143v10.672a2.818,2.818,0,0,0,2.818,2.818h37.168a2.753,2.753,0,0,0,2.753-2.753V5126.67A2.858,2.858,0,0,0,1952.255,5123.813Z" transform="translate(-1897.532 -5123.781)" fill="#740045" style="isolation: isolate"/>
        <path id="Trazado_585" data-name="Trazado 585" d="M1849.243,5152.286a7.618,7.618,0,0,0,5.108-.639,1.279,1.279,0,0,1,1.856,1.143v10.672a2.818,2.818,0,0,0,2.818,2.818h37.167a2.753,2.753,0,0,0,2.753-2.753V5126.4a2.858,2.858,0,0,0-2.858-2.858h-10.348a1.76,1.76,0,0,0-1.544,2.607,7.557,7.557,0,1,1-12.8-.7,1.206,1.206,0,0,0-.984-1.9h-11.39a2.819,2.819,0,0,0-2.819,2.819v10.606a1.32,1.32,0,0,1-1.911,1.181,7.565,7.565,0,0,0-10.717,8.582A8.155,8.155,0,0,0,1849.243,5152.286Z" transform="translate(-1843.368 -5123.542)" fill="url(#linear-gradient)"/>
      </g>
      <path id="Trazado_586" data-name="Trazado 586" d="M906.24,5342.915l6.68.05s-.232-1.617-4.729-2.033h0c-1.743-4.843-6.865-17.87-11.312-17.254-4.391.608,6.008,12.56,10.239,17.206a10.61,10.61,0,0,0-1.672.132c-1.019-2.029-3.04-4.9-6.283-4.767-3.451.139,1.251,3.291,4.488,5.226a7.986,7.986,0,0,0-2.525,1.4l5.038.037.091.05Z" transform="translate(-867.943 -5152.638)" fill="#00e9d3"/>
      <g id="Grupo_228" data-name="Grupo 228" transform="translate(32.663 117.343)">
        <path id="Trazado_587" data-name="Trazado 587" d="M1176.894,5030.331l.988.8s2.7-.969,3.314,2.243c0,0,.162,1.369-.7,1.372a17.265,17.265,0,0,0-1.738-.114,2.222,2.222,0,0,1-2.426-1.608l-.588-.845Z" transform="translate(-1147.394 -5011.375)" fill="#f2ac8c"/>
        <path id="Trazado_588" data-name="Trazado 588" d="M965.652,4890.87a2.021,2.021,0,0,0,.725-1.432s-9.131-7.476-10.057-8.085a112.683,112.683,0,0,1-10.5-10.011c-1.559-1.8-3.49-1.1-5.7-.469l-1.82.522a3.044,3.044,0,0,0-.966,5.2c5.078,4.206,13.524,8.936,15.1,9.93,3.923,2.468,11.6,5.4,11.6,5.4A4.861,4.861,0,0,0,965.652,4890.87Z" transform="translate(-936.264 -4870.192)" fill="#1e3d70"/>
      </g>
      <path id="Trazado_589" data-name="Trazado 589" d="M1253.1,5432.257a6.882,6.882,0,0,0,5.611.783s2.738-.624,3.338.741c0,0-4.2,2.133-5.261,2.716a12.732,12.732,0,0,0-2.227,1.67,1.1,1.1,0,0,1-1.594-.123c-.185-.228-.4-.5-.628-.812-.647-.877-2.156-3.711-2.156-3.711Z" transform="translate(-1180.363 -5248.383)" fill="#eaeaea"/>
      <path id="Trazado_590" data-name="Trazado 590" d="M1029.1,5130.888s-1.349,3.111-4.464,2.54a86.932,86.932,0,0,1-10.715-10.7,24.235,24.235,0,0,1-3.33-5.2c-2.891-6.694-10.694-16.677-15.655-21.737l12.412-4.49s3.976,8,9.266,17.822C1020.428,5116.2,1024.922,5124.222,1029.1,5130.888Z" transform="translate(-955.33 -4947.781)" fill="#f4c70d"/>
      <path id="Trazado_591" data-name="Trazado 591" d="M1016.616,5109.118l-2.693,13.609a24.235,24.235,0,0,1-3.33-5.2c-2.891-6.694-10.694-16.677-15.655-21.737l12.412-4.49S1011.326,5099.294,1016.616,5109.118Z" transform="translate(-955.33 -4947.781)" fill="#af8f0b"/>
      <path id="Trazado_592" data-name="Trazado 592" d="M1058.831,5437.031s-.135,2.483,2.874,2.814c0,0,1.72.009,1.725,1.589l-8.747.027a6.8,6.8,0,0,1-.316-2,15.65,15.65,0,0,1,1.016-3.789Z" transform="translate(-1007.723 -5251.392)" fill="#eaeaea"/>
      <path id="Trazado_593" data-name="Trazado 593" d="M961.523,5087.194s5.53,6.076,9.04,17.023c1.91,5.956-3.5,20.93-4.555,26.132a16.584,16.584,0,0,1-6.111-.651,120.378,120.378,0,0,1,1.263-19.028c.812-4.636-7.281-9.914-10.817-18.289-2.405-5.7.521-5.6,4.118-5.738Z" transform="translate(-915.239 -4943.679)" fill="#f4c70d"/>
      <path id="Trazado_594" data-name="Trazado 594" d="M941.654,4806.436c-3.077,1.737-9.375.135-9.375.135a8.773,8.773,0,0,0,1.4-7.633l2.416,1.227,2.595,1.318a21.551,21.551,0,0,1,.284,2.325c.03.385.056.814.075,1.284A8.07,8.07,0,0,1,941.654,4806.436Z" transform="translate(-900.088 -4690.028)" fill="#fab4df"/>
      <path id="Trazado_595" data-name="Trazado 595" d="M935.672,4878.1c0,.541-.623.8-.755.826-1.241.227-4.706,1.574-7.827,1.884a25.045,25.045,0,0,1-7.749-.524c-.355-.072-1.188-.3-1.247-.636-.074-.372-10.34-20.928-2.359-29.758.187-.207,1.763.166,3.2.508a5.92,5.92,0,0,0,3.641-.3l1.351.711c1.659.924,4.8,4.209,5.166,6.786.187,1.311.936,2.281,1.153,3.434q.121.64.247,1.25.245,1.194.505,2.274c.469,1.949.965,3.627,1.451,5.077.518,1.539,1.025,2.819,1.479,3.89.588,1.389,1.086,2.427,1.4,3.222A3.972,3.972,0,0,1,935.672,4878.1Z" transform="translate(-882.824 -4734.896)" fill="#eaeaea"/>
      <path id="Trazado_596" data-name="Trazado 596" d="M958.552,4928.705a40.336,40.336,0,0,1-19.51-19.937s11.774,4.343,14.678,5.474q.245,1.195.505,2.275c.469,1.949.965,3.627,1.451,5.077.518,1.54,1.025,2.82,1.479,3.891C957.744,4926.872,958.242,4927.91,958.552,4928.705Z" transform="translate(-906.05 -4786.858)" fill="#c8d1ce"/>
      <path id="Trazado_597" data-name="Trazado 597" d="M1063.126,4626.176l-3.1-9.843a1.76,1.76,0,0,0-2.154-1.165h0c-.046.013-.091.029-.136.046l-1.088.363a9.592,9.592,0,0,1-2.927,2.108,7.055,7.055,0,0,1-8.7-4.581c-1.526-4.077.244-8.554,4.343-9.847,1.4-.442,4.162.382,4.162.382l1.108-.368a1.2,1.2,0,0,0,.8-1.514l-3.417-10.833a2.812,2.812,0,0,0-3.527-1.835l-10.088,3.181a1.316,1.316,0,0,1-1.7-1.463,7.545,7.545,0,0,0-11.378-7.619,8.135,8.135,0,0,0-3.586,7.054,7.6,7.6,0,0,0,2.14,4.667,1.276,1.276,0,0,1-.531,2.108l-10.151,3.2a2.81,2.81,0,0,0-1.835,3.525l11.149,35.353a2.746,2.746,0,0,0,3.444,1.793l35.314-11.137A2.85,2.85,0,0,0,1063.126,4626.176Z" transform="translate(-969.69 -4498.849)" fill="#fab4df"/>
      <path id="Trazado_598" data-name="Trazado 598" d="M1012.658,4593.267a7.6,7.6,0,0,0,2.14,4.667,1.275,1.275,0,0,1-.531,2.108l-10.151,3.2a2.81,2.81,0,0,0-1.835,3.525l11.149,35.352a2.746,2.746,0,0,0,3.444,1.793l35.314-11.137a2.851,2.851,0,0,0,1.861-3.576l-3.1-9.843a1.755,1.755,0,0,0-2.943-.687,7.537,7.537,0,1,1-3.168-12.382,1.2,1.2,0,0,0,1.515-1.506l-3.417-10.833a2.811,2.811,0,0,0-3.527-1.836l-10.088,3.182a1.316,1.316,0,0,1-1.7-1.463,7.545,7.545,0,0,0-11.377-7.619A8.134,8.134,0,0,0,1012.658,4593.267Z" transform="translate(-961.688 -4501.517)" fill="#fde9f5"/>
      <g id="Grupo_229" data-name="Grupo 229" transform="translate(31.048 117.991)">
        <path id="Trazado_599" data-name="Trazado 599" d="M1170.63,5043.181l1.252.459a2.678,2.678,0,0,1,4.069,1.111s.565,1.259-.329,1.533-.569.016-1.825.435a2.393,2.393,0,0,1-2.969-.781l-.851-.625Z" transform="translate(-1140.698 -5023.282)" fill="#fab4df"/>
        <path id="Trazado_600" data-name="Trazado 600" d="M953.581,4897.336c.463-1.208.674-1.755.674-1.755s-9.462-7.713-10.426-8.375c-.657-.451-7.2-5.34-10.386-9.15a6.672,6.672,0,0,0-6.488-2.248l-1.986.417a2.954,2.954,0,0,0-1.317,5.134c5.24,4.492,14.078,9.7,15.726,10.786,4.091,2.69,13.139,6.46,13.139,6.46A2.329,2.329,0,0,0,953.581,4897.336Z" transform="translate(-922.618 -4875.667)" fill="#eaeaea"/>
      </g>
      <path id="Trazado_601" data-name="Trazado 601" d="M951.613,4812.943a6.475,6.475,0,0,1-4.993-2.328,24.153,24.153,0,0,0,2.114-1.315l2.595,1.318A21.551,21.551,0,0,1,951.613,4812.943Z" transform="translate(-912.731 -4699.165)" fill="#f590ce"/>
      <path id="Trazado_602" data-name="Trazado 602" d="M931.74,4756.355s-4.584,3.29-6.589.4-3.946-4.405-1.1-6.628,4.182-1.52,5.085-.719S932.881,4755.426,931.74,4756.355Z" transform="translate(-891.57 -4645.683)" fill="#fab4df"/>
      <path id="Trazado_603" data-name="Trazado 603" d="M898.809,4719.075a7.382,7.382,0,0,0-.534-1.89s-.288,1.191-2.465,1.027-5.629.214-6.78,2.7a5.2,5.2,0,0,0-.2.486,5.74,5.74,0,0,1-.258-1.375,4.238,4.238,0,0,0,0,2.4h0c-.006.039-.011.078-.017.117a4.849,4.849,0,0,0-.884,1.669,1.515,1.515,0,0,1,.814-.724c-.01,1.932.773,3.819,2.148,4.381,2.01.822,1.994.195,4.015,1.536,0,0,.542-.672.172-1.125s-1.767-1.109-.986-1.767,1.068.083,1.356-.37-1.151-1.767.7-3S898.974,4720.185,898.809,4719.075Z" transform="translate(-860.762 -4617.953)" fill="#4e01d2"/>
      <path id="Trazado_604" data-name="Trazado 604" d="M1730.58,5322.607s-2.318-3.426-5.946-3.15c-1.1.084-2.894.353-4.975.639-1.57-5.477-5.9-18.5-11.731-19.229-5.959-.749,5.7,13.731,10.471,19.4-.87.114-1.773.227-2.685.325-2.525-2.7-6.925-6.689-10.6-6.382s3.212,4.115,8.189,6.606c-3.054.229-5.949.2-7.719-.48-4.334-1.675-8.316,2.273-8.316,2.273Z" transform="translate(-1574.529 -5132.521)" fill="#eaeaea"/>
    </g>
    <rect id="Rect치ngulo_937" data-name="Rect치ngulo 937" width="375" height="227" transform="translate(0 27)" fill="#fd7171" style="mix-blend-mode: multiply;isolation: isolate"/>
  </g>
</svg>
