<svg xmlns="http://www.w3.org/2000/svg" width="66.18" height="66.141" viewBox="0 0 66.18 66.141">
  <g id="Grupo_115" data-name="Grupo 115" transform="translate(58.602 -556.23)" style="isolation: isolate">
    <path id="Trazado_310" data-name="Trazado 310" d="M-58.6,562.173a7.5,7.5,0,0,1,2.33-4.206,6.941,6.941,0,0,1,4.279-1.729c.193-.011.387-.008.582-.008q25.9,0,51.8,0a6.823,6.823,0,0,1,6.943,5.315,8.885,8.885,0,0,1,.21,2.045c.013,12.55-.04,25.1.038,37.648A7.181,7.181,0,0,1,.191,608.6c-10.4-.108-20.8-.03-31.194-.046a1.782,1.782,0,0,0-1.407.57q-6.159,6.216-12.36,12.389a12.8,12.8,0,0,1-1.041.853h-.775a1.78,1.78,0,0,1-1.01-1.836c.019-3.718.008-7.438.008-11.158v-.818c-1.551,0-3.009.032-4.466-.008a6.56,6.56,0,0,1-5.177-2.721,8.6,8.6,0,0,1-1.371-3.224Zm13.791,55.29.191.073c.139-.164.268-.339.419-.491,3.459-3.454,6.93-6.895,10.366-10.37a2.633,2.633,0,0,1,2.042-.856q16.085.036,32.17.013A4.148,4.148,0,0,0,4.8,601.428q.01-18.99-.014-37.978a5.168,5.168,0,0,0-.408-2.064A4.16,4.16,0,0,0,.186,558.96q-25.71.012-51.421,0c-.151,0-.3,0-.453,0a4.133,4.133,0,0,0-4.166,4.2q-.007,19.119,0,38.236a4.144,4.144,0,0,0,4.455,4.429c1.594,0,3.188,0,4.78,0,1.35,0,1.807.462,1.809,1.838q0,4.552,0,9.105Z" fill="#fff"/>
    <path id="Trazado_311" data-name="Trazado 311" d="M-30.352,575.874l6.488-6.535c-1.541,0-3.125.01-4.71,0a1.339,1.339,0,0,1-1.3-1.865,1.282,1.282,0,0,1,1.251-.858q4.2-.017,8.395,0a1.348,1.348,0,0,1,1.3,1.414q.012,4.069-.021,8.137a1.345,1.345,0,0,1-1.395,1.444,1.341,1.341,0,0,1-1.369-1.466c-.021-1.334-.006-2.668-.006-4v-.764c-.273.249-.443.394-.6.553q-3.106,3.106-6.208,6.213c-1.066,1.068-1.331,1.108-2.7.418l-4-2.01c-.912.92-1.8,1.822-2.7,2.719q-3.036,3.039-6.071,6.076a1.45,1.45,0,0,1-1.573.469,1.132,1.132,0,0,1-.889-1.069,1.96,1.96,0,0,1,.426-1.214q4.774-4.858,9.617-9.652a1.285,1.285,0,0,1,1.6-.2c1.286.647,2.579,1.281,3.87,1.919C-30.722,575.705-30.489,575.809-30.352,575.874Z" transform="translate(7.205 6.16)" fill="#fff"/>
  </g>
</svg>
