<svg xmlns="http://www.w3.org/2000/svg" width="63.965" height="64.242" viewBox="0 0 63.965 64.242">
  <g id="Grupo_159" data-name="Grupo 159" transform="translate(576.688 -1438.289)">
    <path id="Trazado_425" data-name="Trazado 425" d="M-576.688,1502.531v-27.582c.255.115.453.2.645.291q7.754,3.823,15.5,7.662a1.153,1.153,0,0,0,1.431-.108c4.524-3.451,9.08-6.858,13.615-10.294a1.187,1.187,0,0,1,1.135-.225c4.532,1.157,9.072,2.283,13.6,3.445a.931.931,0,0,0,1.034-.291q8.263-8.334,16.548-16.65c.146-.147.3-.283.456-.425v44.177Zm60.19-35.042c-.18.163-.287.253-.385.351q-5.254,5.277-10.494,10.566a1.354,1.354,0,0,0-.324.871q-.027,9.408-.014,18.814v.64H-516.5Zm-26.176,9.111v22.128h11.189c.009-.138.021-.239.021-.34q0-9.249.011-18.5c0-.4-.145-.523-.509-.612-2.281-.556-4.555-1.142-6.832-1.714C-540.077,1477.241-541.363,1476.925-542.674,1476.6Zm-3.831,22.136v-20.747c-.214.153-.367.257-.514.368q-5.118,3.856-10.242,7.7a1.018,1.018,0,0,0-.446.935c.014,3.7.008,7.4.008,11.1v.637Zm-14.971.006c.013-.137.028-.218.028-.3,0-3.8-.006-7.6.012-11.408,0-.375-.179-.5-.454-.636q-5.286-2.6-10.568-5.213c-.139-.069-.29-.112-.445-.171v17.727Z" fill="#fff"/>
    <path id="Trazado_426" data-name="Trazado 426" d="M-512.723,1455.342h-3.746v-2.312c-.262.247-.427.393-.582.549q-6.907,6.946-13.8,13.9a.975.975,0,0,1-1.085.3c-4.41-1.127-8.829-2.222-13.24-3.343a1.185,1.185,0,0,0-1.137.214q-6.7,5.079-13.428,10.125a.681.681,0,0,1-.829.114q-7.352-3.648-14.718-7.263c-.092-.046-.18-.1-.337-.185l1.629-3.351c.258.115.484.206.7.314,4.048,2,8.1,3.985,12.136,6.007a.938.938,0,0,0,1.152-.132c4.283-3.251,8.583-6.48,12.865-9.732a1.183,1.183,0,0,1,1.138-.218c4.308,1.106,8.623,2.187,12.936,3.276a.827.827,0,0,0,.945-.175q6.6-6.68,13.232-13.324c.1-.1.183-.206.356-.4h-3.525v-3.771h9.34Z" fill="#fff"/>
    <path id="Trazado_427" data-name="Trazado 427" d="M-561.446,1438.289h3.747c0,1.112.031,2.212-.012,3.309a1.119,1.119,0,0,0,.72,1.223,5.537,5.537,0,0,1,3.042,4.952h-3.658a6.4,6.4,0,0,0-.481-1.074,1.8,1.8,0,0,0-2.223-.61,1.876,1.876,0,0,0-1.108,2.039,1.867,1.867,0,0,0,1.785,1.558,5.656,5.656,0,0,1,4.53,2.259,5.578,5.578,0,0,1-1.762,8.294,1.329,1.329,0,0,0-.849,1.475c.066.977.016,1.962.016,2.992h-3.748c0-1.153-.015-2.317.009-3.479a.685.685,0,0,0-.458-.75,5.63,5.63,0,0,1-3.314-5.1h3.666a6.431,6.431,0,0,0,.486,1.079,1.8,1.8,0,0,0,2.223.6,1.9,1.9,0,0,0,1.114-1.984,1.87,1.87,0,0,0-1.806-1.608,5.635,5.635,0,0,1-4.209-1.873,5.638,5.638,0,0,1,1.755-8.882.793.793,0,0,0,.548-.88C-561.473,1440.669-561.446,1439.5-561.446,1438.289Z" fill="#fff"/>
  </g>
</svg>
