<svg xmlns="http://www.w3.org/2000/svg" width="880.629" height="803.099" viewBox="0 0 880.629 803.099">
  <path id="Trazado_1310" data-name="Trazado 1310" d="M372.241,132.672S416.982,99.2,473.962,106.339s73.68,40.29,87.677,54.193,25.432,50.919,135,55.711S826.677,284.28,830.5,296.821s14.729,53.818-12.61,82.883-45.289,37.129-7.309,60.856,43.893,57.359,36.654,81.893-31.219,72.214-84,69.124-49.712-11.7-70.456,12.831-31.292,51.032-73.557,58.972-74.957-19.048-105.739-11.015-52.812,34.439-67.368,42.958-84.318,21.924-117.961-12.891-38.717-25.509-49.186-15.962-49.59,30.058-92.233-11.014-45.632-87.545,1.991-135.069,36.238-63.964,11.3-81.615-71.26-48.267-74.719-108.037,30.53-110.922,98.58-134.541S275.319,199.346,372.241,132.672Z" transform="matrix(0.946, -0.326, 0.326, 0.946, -152.545, 177.103)" fill="#d2d9e0" opacity="0.53" style="isolation: isolate"/>
</svg>
