<svg xmlns="http://www.w3.org/2000/svg" xmlns:xlink="http://www.w3.org/1999/xlink" width="281.99" height="431.054" viewBox="0 0 281.99 431.054">
  <defs>
    <clipPath id="clip-path">
      <rect id="Rectángulo_934" data-name="Rectángulo 934" width="281.99" height="282.054" fill="#ff7171"/>
    </clipPath>
  </defs>
  <g id="Grupo_808" data-name="Grupo 808" transform="translate(-971.01 -1199)">
    <text id="_3" data-name="3" transform="translate(1134 1354)" fill="#d2d9e0" font-size="207" font-family="FivoSans-Heavy, Fivo Sans" font-weight="800" opacity="0.315"><tspan x="-66.24" y="0">3</tspan></text>
    <g id="Grupo_806" data-name="Grupo 806" transform="translate(971.01 1348)">
      <g id="Grupo_805" data-name="Grupo 805" clip-path="url(#clip-path)">
        <path id="Trazado_1667" data-name="Trazado 1667" d="M150.7,0c1.145,3.6,2.295,7.188,3.552,11.128C157.32,9.6,160.2,8.263,163,6.757a2.287,2.287,0,0,1,3.2.516c4.9,5.007,9.931,9.894,14.793,14.944a3.219,3.219,0,0,1,.448,2.848c-1.236,2.945-2.763,5.772-4.28,8.849l10.971,3.762V62.425c-3.521,1.218-7.139,2.466-10.969,3.791,1.515,3.069,3.04,5.894,4.278,8.841a3.218,3.218,0,0,1-.448,2.848c-4.86,5.048-9.888,9.939-14.791,14.944a2.282,2.282,0,0,1-3.2.516c-2.737-1.478-5.56-2.794-8.649-4.328-1.31,3.787-2.559,7.39-3.812,11.01H125.814c-1.224-3.572-2.444-7.128-3.771-11-3,1.478-5.884,2.815-8.678,4.317a2.287,2.287,0,0,1-3.2-.514c-4.906-5.007-9.931-9.9-14.793-14.944a3.234,3.234,0,0,1-.448-2.848c1.24-2.949,2.763-5.774,4.282-8.849-3.781-1.3-7.339-2.518-10.973-3.762V37.7c3.521-1.218,7.137-2.468,10.971-3.791-1.517-3.071-3.042-5.9-4.28-8.843a3.234,3.234,0,0,1,.448-2.848c4.864-5.05,9.89-9.937,14.8-14.944a2.285,2.285,0,0,1,3.2-.516c2.734,1.482,5.558,2.8,8.719,4.369C123.325,7.281,124.5,3.643,125.67,0ZM105.358,74.389c2.986,3.079,5.613,5.785,8.3,8.548,2.518-1.255,5.12-2.617,7.785-3.837a4.261,4.261,0,0,1,2.629-.415c3.089.85,5.791,2.171,6.224,5.96.157,1.381.956,2.675,1.277,4.053.4,1.732,1.232,2.518,3.139,2.363a47.262,47.262,0,0,1,6.817-.008c1.785.116,2.786-.369,3.234-2.235.506-2.109,1.315-4.148,2.018-6.21.966-2.829,5.609-4.784,8.29-3.48s5.362,2.65,7.4,3.661L171,74.5c-1.1-2.221-2.175-4.652-3.49-6.949a5.2,5.2,0,0,1-.272-4.774,6.354,6.354,0,0,1,5-4.677,21.757,21.757,0,0,0,5.091-1.74,3.441,3.441,0,0,0,1.715-2.3,48.686,48.686,0,0,0,0-7.95,3.334,3.334,0,0,0-1.663-2.332c-2.15-.962-4.462-1.56-6.7-2.328-2.706-.929-4.676-5.523-3.482-8.076,1.275-2.722,3.94-5.727,3.459-8.092-.526-2.578-3.96-4.565-6.138-6.8-.458-.466-.958-.9-1.509-1.407-2.514,1.207-5.038,2.276-7.411,3.612-1.639.927-2.995.764-4.778.3-3.391-.883-4.092-3.416-4.965-6.16C144.043,9.081,143.979,9.1,138.12,9.1c-5.725,0-5.723,0-7.593,5.562-.883,2.635-1.269,5.436-4.844,6.274-1.872.438-3.31.679-5.04-.3-2.357-1.335-4.879-2.39-7-3.407l-8.375,8.191c1.147,2.318,2.208,4.757,3.533,7.044a5.454,5.454,0,0,1,.256,5.046,6.164,6.164,0,0,1-4.85,4.483,32.793,32.793,0,0,0-5.38,1.8c-.642.268-1.5,1.042-1.515,1.606-.1,3.4-.865,7.2.4,10.071.766,1.746,4.776,2.068,7.33,3.023.266.1.553.136.819.231,2.5.9,4.476,5.545,3.327,7.939-1.3,2.716-2.673,5.405-3.828,7.729" transform="translate(93.864)" fill="#ff7171"/>
        <path id="Trazado_1668" data-name="Trazado 1668" d="M0,125.7c3.593-1.145,7.186-2.295,11.122-3.55-1.521-3.075-2.86-5.958-4.367-8.752a2.288,2.288,0,0,1,.514-3.2c5.007-4.908,9.894-9.937,14.942-14.8a3.219,3.219,0,0,1,2.848-.448c2.945,1.238,5.77,2.763,8.845,4.28,1.3-3.779,2.516-7.339,3.762-10.975H62.413C63.628,91.778,64.877,95.4,66.2,99.23c3.069-1.515,5.9-3.04,8.841-4.278a3.22,3.22,0,0,1,2.848.446c5.048,4.862,9.935,9.892,14.94,14.8a2.282,2.282,0,0,1,.516,3.2c-1.48,2.734-2.794,5.56-4.328,8.649l11.006,3.816v24.726c-3.57,1.224-7.124,2.446-11,3.773,1.476,3,2.815,5.884,4.317,8.678a2.285,2.285,0,0,1-.516,3.2c-5,4.908-9.892,9.937-14.94,14.8a3.219,3.219,0,0,1-2.848.448c-2.945-1.238-5.772-2.763-8.845-4.28-1.3,3.779-2.518,7.339-3.762,10.973H37.689c-1.216-3.521-2.466-7.141-3.789-10.971-3.071,1.515-5.9,3.04-8.841,4.278a3.226,3.226,0,0,1-2.848-.448c-5.048-4.862-9.935-9.892-14.942-14.8a2.285,2.285,0,0,1-.514-3.2c1.48-2.735,2.8-5.56,4.367-8.724C7.279,153.072,3.64,151.9,0,150.727Zm75.154-20.6c-2.468,1.187-4.6,2.194-6.707,3.232-4.963,2.439-8.62.925-10.356-4.311-.444-1.35-.982-2.677-1.29-4.057-.458-2.068-1.49-2.966-3.725-2.749-2.9.281-6.509-.757-8.528.634-1.89,1.3-2.053,5.06-3.089,7.692a4.839,4.839,0,0,1-1.63,2.441c-2.677,1.461-5.364,2.53-8.391.314-1.849-1.356-4.175-2.066-5.845-2.858-2.972,2.885-5.68,5.51-8.439,8.191a76.966,76.966,0,0,1,3.558,7.324,9.155,9.155,0,0,1,.169,4.449c-.456,2.813-2.3,4.3-5.114,4.844a25.285,25.285,0,0,0-5.108,1.713c-.634.272-1.467,1.059-1.482,1.632-.087,3.4-.844,7.194.425,10.059.776,1.744,4.786,2.058,7.343,3.007.266.1.553.138.819.235,2.468.887,4.425,5.57,3.279,7.95-1.308,2.714-2.675,5.4-4.206,8.48.8.673,1.632,1.3,2.386,2.014,1.994,1.884,3.75,4.98,5.987,5.37,2.2.386,4.941-1.845,7.331-3.143a5.316,5.316,0,0,1,4.771-.289,6.475,6.475,0,0,1,4.774,5.279,18.523,18.523,0,0,0,1.659,4.817,3.492,3.492,0,0,0,2.3,1.725,48.672,48.672,0,0,0,7.948,0,3.339,3.339,0,0,0,2.338-1.655c.962-2.15,1.56-4.462,2.328-6.7.929-2.712,5.516-4.687,8.069-3.492,2.722,1.275,5.723,3.944,8.09,3.463,2.576-.524,4.565-3.958,6.8-6.136.471-.456.9-.958,1.438-1.535-1.323-2.656-2.64-5.261-3.921-7.882-1.313-2.677.619-7.341,3.4-8.331,2.753-.978,6.616-1.23,7.935-3.184,1.42-2.111.454-5.828.526-8.845.006-.19.076-.431-.012-.561-.557-.807-.986-1.969-1.765-2.309-2.243-.982-4.685-1.513-6.947-2.466a6.021,6.021,0,0,1-2.291-2.167c-1.874-2.714-1.626-5.389.211-8.1a22.069,22.069,0,0,0,2.264-4.569,2.5,2.5,0,0,0-.3-2.138c-2.266-2.536-4.67-4.949-7.007-7.382" transform="translate(0 93.885)" fill="#ff7171"/>
        <path id="Trazado_1669" data-name="Trazado 1669" d="M143.345,153.046V116.54q-3.062,0-6.109,0c-4.635,0-8.313-1.845-10.569-5.946a11.067,11.067,0,0,1,.6-12.11c7.793-11.77,15.565-23.554,23.511-35.216,5.306-7.791,16.035-8.038,21.407-.3q12.389,17.856,24.1,36.18c4.817,7.516-.693,17.109-9.671,17.381-2.161.064-4.322.01-6.8.01v3.25q0,20.478,0,40.958c-.025,16.834-11.788,28.594-28.631,28.6q-40.946.022-81.9,0H66.269v-9.1H69.6q40.38,0,80.755,0c13.119,0,20.359-7.289,20.359-20.473q0-24.462,0-48.922v-3.42c4.908,0,9.615.083,14.316-.058,1.178-.037,2.889-.477,3.358-1.3.46-.8-.027-2.549-.656-3.513q-10.915-16.633-22.02-33.134c-2.549-3.8-5.686-3.748-8.27.107q-10.987,16.41-21.88,32.886c-.648.986-1.273,2.817-.8,3.5.607.9,2.307,1.4,3.558,1.445,4.621.161,9.25.064,14.048.064.058,1.038.142,1.862.142,2.683q.012,20.623,0,41.244c-.006,7.153-3.5,10.678-10.593,10.68q-36.4.012-72.8,0H66.209v-9Z" transform="translate(70.431 60.946)" fill="#ff7171"/>
        <path id="Trazado_1670" data-name="Trazado 1670" d="M138.5,42.757v9.07H61.4v36.44c2.144,0,4.282-.031,6.418.006,9.1.157,14.758,9.8,9.873,17.449q-11.779,18.432-24.278,36.4a12.587,12.587,0,0,1-20.689.021Q20.153,124.068,8.3,105.493c-4.724-7.4.784-16.9,9.615-17.214,2.171-.076,4.348-.01,6.949-.01V85.157c0-14.127-.029-28.253.008-42.38A27.063,27.063,0,0,1,51.579,15.515c28.53-.169,57.061-.056,85.593-.054.365,0,.731.07,1.263.124v8.969H135.01q-40.949,0-81.9.01c-9.758.008-17.026,5.743-18.857,14.8a20.221,20.221,0,0,0-.279,3.954q-.025,25.316-.01,50.631v3.42c-4.906,0-9.615-.083-14.316.058-1.185.035-2.891.466-3.366,1.29-.46.8.021,2.553.652,3.515Q27.921,118.984,39.1,135.608c2.441,3.643,5.45,3.667,7.873.05q11.16-16.639,22.177-33.369c.638-.97,1.143-2.7.7-3.519s-2.155-1.3-3.327-1.341c-4.635-.147-9.279-.06-14.36-.06v-2.8q0-20.763,0-41.529c.006-6.623,3.581-10.267,10.121-10.271q36.971-.022,73.935-.006Z" transform="translate(6.986 16.406)" fill="#ff7171"/>
        <path id="Trazado_1671" data-name="Trazado 1671" d="M71.277,131.357a16.362,16.362,0,0,1,.01-1.987c.782-6.255-1.614-10.5-6.835-14.351C49.843,104.237,44.755,85.064,51.273,68.2A41.09,41.09,0,0,1,92.435,42c16.741,1.178,31.813,13.291,36.234,29.118,4.852,17.371-1.048,34.917-15.46,44.982-4,2.8-5.888,6.111-5.576,10.952.223,3.492.093,7.011.033,10.517a13.677,13.677,0,0,1-13.621,13.545q-4.548.071-9.1,0a13.683,13.683,0,0,1-13.668-13.786c-.027-1.989,0-3.981,0-5.971m27.312-7.626c.642-6.825,4.181-11.439,9.549-15.206a31.287,31.287,0,0,0,11.935-34.444,31.825,31.825,0,0,0-59.565-4.462,31.553,31.553,0,0,0,10.564,39.123c4.018,2.836,7.167,6.148,8.536,10.932.38,1.327.578,2.708.834,3.931h4.483c0-8.918.05-17.625-.078-26.33a3.589,3.589,0,0,0-1.736-2.386c-5.7-3.314-8.428-9.322-6.823-15.4a13.585,13.585,0,0,1,26.365.037,13.2,13.2,0,0,1-6.91,15.278A2.893,2.893,0,0,0,94,97.888c.07,4.546.025,9.1.025,13.642v12.2Zm-18.211,9.3c0,1.546-.047,2.854.01,4.161.136,2.995,1.81,4.724,4.8,4.811,2.924.087,5.855.1,8.777-.006a4.459,4.459,0,0,0,4.586-4.437c.1-1.471.019-2.955.019-4.528Zm4.559-50.389A4.544,4.544,0,1,0,89.7,78.318a4.663,4.663,0,0,0-4.761,4.319" transform="translate(51.571 44.57)" fill="#ff7171"/>
        <rect id="Rectángulo_932" data-name="Rectángulo 932" width="8.814" height="8.765" transform="translate(154.814 32.05)" fill="#ff7171"/>
        <rect id="Rectángulo_933" data-name="Rectángulo 933" width="8.829" height="8.781" transform="translate(118.409 241.385)" fill="#ff7171"/>
        <path id="Trazado_1672" data-name="Trazado 1672" d="M124.206,13.233a22.9,22.9,0,0,1,22.693,22.9c.029,12.244-10.335,22.559-22.7,22.6-12.785.039-22.836-10.255-22.78-23.335.05-12.059,10.465-22.188,22.79-22.165M110.513,35.679a13.638,13.638,0,0,0,13.464,13.957,13.654,13.654,0,1,0,.308-27.306,13.637,13.637,0,0,0-13.772,13.348" transform="translate(107.883 14.077)" fill="#ff7171"/>
        <path id="Trazado_1673" data-name="Trazado 1673" d="M13.231,124.178a22.741,22.741,0,0,1,45.481-.128c.192,12.236-10.055,22.7-22.413,22.887a22.752,22.752,0,0,1-23.069-22.759m9.1-.279a13.637,13.637,0,0,0,13.483,13.943,13.654,13.654,0,1,0,.274-27.306A13.635,13.635,0,0,0,22.326,123.9" transform="translate(14.073 107.907)" fill="#ff7171"/>
      </g>
    </g>
  </g>
</svg>
