<svg xmlns="http://www.w3.org/2000/svg" xmlns:xlink="http://www.w3.org/1999/xlink" width="258" height="428.418" viewBox="0 0 258 428.418">
  <defs>
    <clipPath id="clip-path">
      <rect id="Rectángulo_935" data-name="Rectángulo 935" width="258" height="251.418" fill="#ff7171"/>
    </clipPath>
  </defs>
  <g id="Grupo_810" data-name="Grupo 810" transform="translate(-986 -1199)">
    <text id="_4" data-name="4" transform="translate(1134 1354)" fill="#d2d9e0" font-size="207" font-family="FivoSans-Heavy, Fivo Sans" font-weight="800" opacity="0.315"><tspan x="-65.205" y="0">4</tspan></text>
    <g id="Grupo_809" data-name="Grupo 809" transform="translate(986 1376)">
      <g id="Grupo_808" data-name="Grupo 808" clip-path="url(#clip-path)">
        <path id="Trazado_1674" data-name="Trazado 1674" d="M0,17.779c2.529-6.374,7.4-8.652,13.976-8.087,1.751.152,3.526.023,5.289.023,2.857,0,5.712-.028,8.568.01,2.724.038,4.391,1.491,4.421,3.753s-1.648,3.765-4.381,3.784c-5.377.04-10.753-.009-16.128.021-3.219.017-4.182,1-4.182,4.233q-.008,76.854,0,153.709c0,3.535.91,4.334,4.85,4.334q97.774,0,195.547,0c.673,0,1.345-.007,2.016,0,3.164.035,4.831,1.378,4.8,3.858-.026,2.368-1.655,3.682-4.7,3.694-6.3.023-12.6.007-18.9.007h-2.735c0,2.546.017,4.873,0,7.2-.059,6.3-3.35,9.644-9.679,9.672-11.172.049-22.342.014-33.516.014h-3.212c.6,1.216,1.012,2.081,1.447,2.932q7.793,15.227,15.591,30.455a16.267,16.267,0,0,1,.832,1.829,3.692,3.692,0,0,1-6.4,3.505,16.857,16.857,0,0,1-1.742-3.05c-5.741-11.193-11.507-22.375-17.166-33.608a3.326,3.326,0,0,0-3.49-2.1q-18.521.1-37.044,0a3.306,3.306,0,0,0-3.477,2.1C84.8,217.531,78.908,228.927,73.046,240.34a13.2,13.2,0,0,1-1.226,2.19c-1.289,1.645-2.951,2.243-4.876,1.193S64.574,241,65.322,239a19.917,19.917,0,0,1,.992-2.035q7.73-15.118,15.462-30.239c.375-.734.71-1.486,1.3-2.722H80.109q-16.381,0-32.761,0c-7.588-.005-10.57-2.968-10.577-10.473v-6.411H34c-6.887,0-13.783-.2-20.661.058-6.625.253-11.182-2.211-13.343-8.626Zm44.334,169.4v5.652c0,3.607,0,3.612,3.5,3.612H177.256a7.851,7.851,0,0,0,2.251-.08c.521-.162,1.261-.767,1.282-1.2.12-2.64.058-5.291.058-7.98Z" transform="translate(0 7.149)" fill="#ff7171"/>
        <path id="Trazado_1675" data-name="Trazado 1675" d="M146.066,137.462c-26.815,5.654-49.682-9.583-57.619-31.078-8.348-22.611.623-47.344,21.43-59.78,19.843-11.859,46.139-7.733,61.784,9.752,15.9,17.778,17.748,46.022-.649,66.777,3.9,6.758,7.827,13.573,11.76,20.387,3.226,5.595,6.526,11.149,9.677,16.786,5.295,9.478-.119,20.434-10.853,21.676-6.315.731-11.043-2.213-14.192-7.626-6.453-11.092-12.839-22.223-19.255-33.338-.67-1.16-1.352-2.309-2.082-3.556m30.572-48.3c.368-22.569-18.4-41.365-41.625-41.688-23.16-.323-41.693,18.214-42.038,42.044-.316,21.733,18.53,41.193,40.263,41.575,24.321.431,43-17.619,43.4-41.93m-22.949,46.179c.194.38.4.835.649,1.266q9.747,16.891,19.508,33.776c2.342,4.044,6.184,5.31,9.726,3.277,3.484-2,4.332-6.081,2.044-10.071q-6.451-11.241-12.942-22.457c-2.464-4.273-4.939-8.54-7.319-12.656-3.936,2.319-7.682,4.52-11.665,6.866" transform="translate(63.496 29.659)" fill="#ff7171"/>
        <path id="Trazado_1676" data-name="Trazado 1676" d="M52.634,82.833A12.556,12.556,0,0,1,29.085,89.27a12.441,12.441,0,0,1,2.572-15.389,12.166,12.166,0,0,1,15.309-1.153,2.919,2.919,0,0,0,3.748.126c3.235-1.943,6.529-3.79,9.838-5.609a2.722,2.722,0,0,0,1.723-2.885c-.288-7.6,5.253-13.462,12.5-13.467C82.161,50.889,87.5,56.749,87.4,64.586a3.13,3.13,0,0,0,1.212,2.328c3.579,2.182,7.239,4.233,10.942,6.2a2.768,2.768,0,0,0,2.353-.068,13.329,13.329,0,0,1,10.047-2.222,3,3,0,0,0,2.419-1.06q9.485-13.025,18.742-26.215a3.364,3.364,0,0,0-.054-2.832A12.612,12.612,0,1,1,146.737,47a7.333,7.333,0,0,1-3.723.164c-2.522-.872-3.537.518-4.768,2.269-5.8,8.237-11.681,16.411-17.578,24.576a2.387,2.387,0,0,0-.258,3.076,12.352,12.352,0,0,1-1.727,14.693A12.694,12.694,0,0,1,104.8,94.86a12.346,12.346,0,0,1-7.82-12.314A2.881,2.881,0,0,0,95.239,79.4c-3.479-1.854-6.831-3.943-10.33-5.75a3.372,3.372,0,0,0-2.823.148c-4.948,3.066-9.758,3.012-14.684-.049a3.374,3.374,0,0,0-2.815-.059c-3.28,1.683-6.407,3.666-9.677,5.373-1.751.914-2.867,1.951-2.276,3.77m-7.564.6a5.1,5.1,0,0,0-4.845-5.314,5.179,5.179,0,0,0-5.152,4.8A5.018,5.018,0,0,0,39.7,88.156a4.959,4.959,0,0,0,5.368-4.719M79.819,63.583a5.119,5.119,0,0,0-5.058-5.126,5.063,5.063,0,0,0-4.988,4.916,4.977,4.977,0,0,0,4.777,5.085,5.03,5.03,0,0,0,5.269-4.876m29.606,14.538a5.085,5.085,0,0,0-4.939,5.23,4.928,4.928,0,0,0,5.04,4.813,5.084,5.084,0,0,0,5.005-4.915,5.25,5.25,0,0,0-5.106-5.129m34.754-48.456a4.936,4.936,0,0,0-4.935,4.972,4.874,4.874,0,0,0,4.791,5.082,4.949,4.949,0,0,0,5.1-5.064,5.024,5.024,0,0,0-4.96-4.99" transform="translate(20.449 16.456)" fill="#ff7171"/>
        <path id="Trazado_1677" data-name="Trazado 1677" d="M74.658,16.864c0-2.742-.061-5.162.014-7.578.152-4.963,3.392-8.859,8.35-9.046,8.294-.314,16.617-.319,24.911-.028,5.059.178,8.383,4.067,8.6,9.149.1,2.41.016,4.829.016,7.5h3.183q38.285,0,76.573,0c7.361,0,11.84,4.316,11.882,11.655.066,11.334.009,22.668.028,34,0,2.089-.476,3.9-2.661,4.635-2.733.917-4.888-.956-4.9-4.264-.028-11-.01-22-.012-33,0-4.81-.675-5.474-5.551-5.474H29.1c-.841,0-1.683.042-2.517-.026a3.756,3.756,0,1,1,.089-7.511c.668-.051,1.343-.021,2.014-.021q21.409,0,42.82,0Zm7.551-.129H109c0-2.367,0-4.615,0-6.859a2.072,2.072,0,0,0-2.353-2.307q-11.081-.018-22.157,0A2.02,2.02,0,0,0,82.2,9.906c.035,2.18.009,4.36.009,6.829" transform="translate(17.001 0)" fill="#ff7171"/>
        <path id="Trazado_1678" data-name="Trazado 1678" d="M48.02,94.5q0-12.462,0-24.925c.005-3.945,1.2-5.194,5.047-5.223,4.363-.031,8.729-.04,13.092.005,3.43.037,4.812,1.336,4.819,4.719q.052,25.427,0,50.856c-.005,3.4-1.357,4.677-4.822,4.714q-6.671.071-13.341,0c-3.549-.04-4.782-1.334-4.792-4.972-.021-8.39-.007-16.784-.007-25.174m7.71,22.4h7.513V72.055H55.73Z" transform="translate(35.722 47.857)" fill="#ff7171"/>
        <path id="Trazado_1679" data-name="Trazado 1679" d="M90.843,95.911c0,5.2.031,10.4-.009,15.6-.03,3.6-1.284,4.862-4.855,4.9-4.445.042-8.893.051-13.338,0-3.423-.044-4.7-1.355-4.705-4.779q-.029-15.727,0-31.454c.005-3.415,1.236-4.683,4.714-4.73q6.794-.092,13.587,0c3.366.052,4.55,1.236,4.59,4.609.063,5.284.016,10.568.017,15.853M75.622,108.642H83.07V83.106H75.622Z" transform="translate(50.532 56.094)" fill="#ff7171"/>
        <path id="Trazado_1680" data-name="Trazado 1680" d="M28.134,95.581c0-5.117-.026-10.234.007-15.35.026-3.537,1.163-4.731,4.676-4.784q6.794-.1,13.591,0c3.394.049,4.674,1.374,4.683,4.8q.039,15.73,0,31.456c-.009,3.263-1.336,4.646-4.566,4.695q-6.917.1-13.84,0c-3.235-.051-4.5-1.383-4.534-4.716-.049-5.368-.014-10.738-.014-16.106M43.352,83.163H35.858v25.556h7.494Z" transform="translate(20.922 56.094)" fill="#ff7171"/>
        <path id="Trazado_1681" data-name="Trazado 1681" d="M95.427,99.3c3.852,0,7.442-.051,11.027.019,2.564.047,4.015,1.327,4.166,3.446a3.614,3.614,0,0,1-3.791,4.055q-7.555.131-15.113,0c-2.482-.04-3.8-1.5-3.835-4.029q-.073-5.289,0-10.579c.035-2.4,1.491-3.913,3.641-3.955,2.129-.044,3.664,1.416,3.865,3.791.1,1.168.035,2.347.038,3.525.005,1.149,0,2.3,0,3.725" transform="translate(65.353 65.662)" fill="#ff7171"/>
        <path id="Trazado_1682" data-name="Trazado 1682" d="M129.016,47.585a36.767,36.767,0,0,1,20.968,6.81c2.311,1.641,2.836,3.975,1.444,5.811-1.343,1.768-3.53,1.906-5.793.364-18.758-12.78-42.745-1.488-44.869,21.123C99.419,96.017,111,109.77,125.57,111.622a28.334,28.334,0,0,0,29.573-39.154c-.736-1.793-1.235-3.539.227-5.176,1.915-2.149,5.167-1.332,6.474,1.7a35.086,35.086,0,0,1-.033,29.058c-5.671,12.966-20.335,23.483-37.666,21.029a36.343,36.343,0,0,1-30.5-29.749c-3.818-21.519,13.113-41.5,35.371-41.746" transform="translate(69.268 35.402)" fill="#ff7171"/>
      </g>
    </g>
  </g>
</svg>
