<svg xmlns="http://www.w3.org/2000/svg" width="239.648" height="239.514" viewBox="0 0 239.648 239.514">
  <g id="Grupo_218" data-name="Grupo 218" transform="translate(519.494 -906.38)">
    <path id="Trazado_533" data-name="Trazado 533" d="M-492.505,1132.532c-3.2-1.276-6.708-2.072-9.534-3.92-5.488-3.584-8.183-9.1-8.357-15.632-.18-6.646-.044-13.3-.044-20.355h2.906q48.51,0,97.021.049c2.128.007,3.36-.429,4.039-2.563.541-1.705,2.464-3.528,2.1-4.835-.485-1.768-2.533-3.13-3.989-4.593-6.217-6.247-12.527-12.4-18.681-18.706-7.48-7.667-7.573-19.085-.355-26.155,7.168-7.026,18.432-6.795,26.024.579,3.441,3.341,6.814,6.758,10.467,10.386v-15.775c-.591.38-1,.616-1.381.9a3.794,3.794,0,0,1-4.841.025c-1.574-1.114-1.786-2.688-1.431-4.437q1.307-6.468,2.607-12.937c.094-.485.137-.977.243-1.755h-2.763q-13.339,0-26.69-.006c-12.931-.025-21.425-8.469-21.438-21.344q-.038-22.57-.006-45.147c.012-12.813,8.432-21.269,21.22-21.3,10.977-.025,21.948-.013,32.925-.025a2.632,2.632,0,0,0,.485-.081c-.535-4.113-5.42-7.816-10.629-7.853-9.894-.069-19.789-.025-29.683-.025h-14.132v-7.984h2.632c12.887,0,25.781.3,38.656-.087,11.245-.342,19.646,6.31,21.774,15.265a4.1,4.1,0,0,0,.379.784c11.593,0,23.23-.155,34.854.1a27.338,27.338,0,0,1,10.087,2.153c6.03,2.62,9.391,7.679,10.741,14.076a7.5,7.5,0,0,0,.417,1.133v52.882a9.929,9.929,0,0,0-.4,1.164c-1.96,8.9-8.139,14.991-17.169,15.905-6.173.623-12.439.3-18.669.392-.852.012-1.7,0-3.155,0,3.3,4.287,6.061,8.114,9.085,11.724,7.2,8.6,10.429,18.482,10.386,29.64q-.14,36.273.006,72.546c.006,2.421-.492,4.4-2.533,5.818Zm124.339-62.906-6.117,6.129a10.913,10.913,0,0,0-1.388-2.234q-15.915-16-31.923-31.917a10.031,10.031,0,0,0-16.827,4.6c-1.021,3.964.243,7.318,3.13,10.187q11.77,11.687,23.46,23.447c3.9,3.9,3.914,4.568,1.033,9.117-7.026,11.083-7.524,22.384-1.014,33.9a3.142,3.142,0,0,0,3.192,1.73c12.558-.062,25.109-.037,37.661-.037h2.053c.037-.722.087-1.2.087-1.687q0-35.293-.025-70.579c-.013-6.005-1.251-11.849-4.568-16.858-4.02-6.061-8.594-11.755-12.987-17.685-3.037,2.166-5.775,4.2-8.6,6.092a3.629,3.629,0,0,0-1.8,3.46q.14,12.471,0,24.942a5.863,5.863,0,0,0,1.935,4.779C-376.536,1061.131-372.379,1065.418-368.166,1069.625Zm33.3-84.283c0-13.448.019-26.329-.006-39.211-.013-8.338-4.841-13.136-13.217-13.142q-38.653-.019-77.319,0c-8.388.006-13.2,4.8-13.217,13.137q-.028,18.081,0,36.161c0,.7.069,1.4.124,2.414,1.151-.839,2.016-1.449,2.863-2.084q10.66-8.019,21.326-16.03c3.155-2.359,4.094-2.359,7.274.024,8.843,6.633,17.7,13.236,26.466,19.976,1.556,1.2,2.52,1.1,4.045.043,5.8-4.026,11.705-7.9,17.573-11.823,4.132-2.763,4.132-2.763,8.376.068C-345.484,978.273-340.381,981.665-334.861,985.343Zm-75.471,115.441H-502.48v9.863c.006,9.3,4.617,13.9,13.952,13.9q39.755.009,79.5,0h2.545c-1.139-3.964-2.595-7.7-3.217-11.562C-410.332,1109.022-410.152,1104.927-410.332,1100.783Zm21.531-81.159c6.559-4.673,12.583-9.073,18.743-13.279a8.963,8.963,0,0,1,4.549-1.456c6.061-.162,12.134-.019,18.2-.087a12.155,12.155,0,0,0,11.661-7.791c.541-1.45.43-2.359-1.014-3.292q-8.27-5.33-16.354-10.94c-1.45-1.015-2.371-.834-3.709.087-6.092,4.188-12.246,8.277-18.382,12.39-3.373,2.259-4.132,2.259-7.306-.112-3.8-2.831-7.567-5.694-11.351-8.538l-16.926-12.7c-8.992,6.745-17.853,13.329-26.6,20.056-.6.467-.772,2.1-.485,2.987a11.673,11.673,0,0,0,11.263,7.859c11.549.037,23.1,0,34.649.025,3.964.006,5.551,2,4.791,5.893C-387.619,1013.489-388.148,1016.245-388.8,1019.624Z" transform="translate(47.031 13.362)" fill="#ff7171"/>
    <path id="Trazado_534" data-name="Trazado 534" d="M-454.608,994.236c.964,4.935,1.792,9.5,2.775,14.039.454,2.116.479,3.964-1.549,5.277-2.054,1.326-3.734.423-5.458-.815-7.959-5.725-15.912-11.444-23.958-17.038a8.619,8.619,0,0,0-4.288-1.4c-4.891-.255-9.838.15-14.68-.429-10.18-1.207-17.331-8.893-17.5-19.117-.267-16.286-.317-32.583.007-48.862.224-11.2,8.761-19.341,19.963-19.4q35.778-.214,71.556-.006c11.488.068,19.944,8.569,20.069,20.118q.261,23.812-.006,47.623c-.137,11.537-8.793,19.839-20.479,19.994-7.81.1-15.625.019-23.435.019Zm-7.156,6.6a2.607,2.607,0,0,0,.156-.554q-.737-3.911-1.487-7.815c-.853-4.4.628-6.2,5.165-6.2,9.969-.013,19.944.056,29.913-.025,7.368-.062,12.371-5.072,12.4-12.433q.093-23.438,0-46.87c-.031-7.567-4.991-12.477-12.583-12.5q-35.274-.065-70.549,0c-7.71.013-12.6,4.972-12.62,12.707q-.056,23.186,0,46.373c.019,7.8,5,12.682,12.863,12.732,4.568.037,9.147-.125,13.709.081a9.688,9.688,0,0,1,4.773,1.549C-473.936,992.04-467.974,996.4-461.764,1000.832Z" transform="translate(0.061)" fill="#ff7171"/>
    <path id="Trazado_535" data-name="Trazado 535" d="M-438.174,939.694c3.808.852,7.567,1.126,10.822,2.551,7.754,3.38,11.525,9.814,11.755,18.14.224,7.891.174,15.8.025,23.691-.224,11.463-8.618,19.963-20.168,20.056q-31.672.261-63.349.006c-11-.081-19.4-7.735-20.019-18.551a232.447,232.447,0,0,1-.019-26.422c.622-11.164,9.054-18.706,20.28-18.811,9.223-.093,18.457.043,27.679-.081A10.719,10.719,0,0,0-466.277,939c7.984-4.431,15.887-9.011,23.8-13.578,1.749-1.008,3.423-1.7,5.277-.23,1.742,1.394,1.929,3.068,1.351,5.127C-436.749,933.5-437.452,936.751-438.174,939.694Zm-7.555-3.155c-6.472,3.7-12.4,7.175-18.438,10.473a10.435,10.435,0,0,1-4.68,1.245c-9.975.112-19.95.006-29.926.075-7.579.05-12.477,4.972-12.533,12.545s-.056,15.127-.007,22.695c.056,7.648,5.022,12.552,12.726,12.626,4.157.038,8.314.006,12.47.006,16.621,0,33.249.031,49.876-.013,7.349-.019,12.558-4.854,12.676-11.9q.206-11.966,0-23.939c-.118-7.019-5.028-11.8-12.041-12.022-2.408-.075-4.823,0-7.231-.019-3.472-.03-5.115-2.1-4.362-5.538C-446.78,940.864-446.3,938.966-445.729,936.539Z" transform="translate(0 93.815)" fill="#ff7171"/>
    <path id="Trazado_536" data-name="Trazado 536" d="M-476.034,914.087A16.139,16.139,0,0,1-459.985,929.8,16.022,16.022,0,0,1-475.8,945.979a16.223,16.223,0,0,1-16.08-15.986A16.158,16.158,0,0,1-476.034,914.087Zm0,7.978a8.081,8.081,0,0,0-7.866,8.008,8.047,8.047,0,0,0,7.934,7.935,8.06,8.06,0,0,0,8-8.128A8.1,8.1,0,0,0-476.034,922.065Z" transform="translate(144.202 40.254)" fill="#ff7171"/>
    <path id="Trazado_537" data-name="Trazado 537" d="M-493.2,948.809h-7.629v-7.76h7.629Z" transform="translate(97.463 181.073)" fill="#ff7171"/>
    <path id="Trazado_538" data-name="Trazado 538" d="M-471.476,934.229c2.968-1.475,5.93-2.969,8.917-4.413,4.082-1.972,6.752-.355,6.771,4.1q.037,10.968-.006,21.942c-.012,4.338-2.682,6.011-6.59,4.145-2.993-1.431-5.943-2.943-8.687-4.306-.865,1.525-1.344,3.435-2.552,4.225-1.307.846-3.3.859-4.991.871-9.222.075-18.445.044-27.667.031-4.02-.006-5.371-1.363-5.376-5.4-.006-6.982.025-13.964-.037-20.94a5.059,5.059,0,0,0-.766-2.738c-4.574-6.528-4.151-13.97,1.17-18.98,5.289-4.978,12.676-5.1,18.824-.292.193.15.4.292.5.367a47.048,47.048,0,0,1,5.937-3.093,13.6,13.6,0,0,1,15.675,5.035,13.859,13.859,0,0,1-.268,16.5,18.02,18.02,0,0,0-1.357,2.6Zm-32.154,18.463h23.722V937.078h-23.722Zm7.928-29.807a6.068,6.068,0,0,0-6.067-5.949,6.085,6.085,0,0,0-5.893,5.881,6.068,6.068,0,0,0,5.949,6.073A6.05,6.05,0,0,0-495.7,922.884Zm19.957-.093a6.078,6.078,0,0,0-6.167-5.856,6.086,6.086,0,0,0-5.794,5.98,6.059,6.059,0,0,0,6.043,5.974A6.059,6.059,0,0,0-475.745,922.791Zm11.879,16.665c-2.545,1.263-4.779,2.3-6.951,3.472-1.251.672-1.444,3.05-.261,3.715,2.271,1.288,4.655,2.365,7.212,3.634Z" transform="translate(20.29 13.455)" fill="#ff7171"/>
    <path id="Trazado_539" data-name="Trazado 539" d="M-445.346,932.711V940.4h-71.519v-7.685Z" transform="translate(13.73 137.525)" fill="#ff7171"/>
    <path id="Trazado_540" data-name="Trazado 540" d="M-473.281,930.146v7.679h-43.585v-7.679Z" transform="translate(13.725 124.128)" fill="#ff7171"/>
    <path id="Trazado_541" data-name="Trazado 541" d="M-488.877,937.827h-19.664v-7.679h19.664Z" transform="translate(57.205 124.139)" fill="#ff7171"/>
  </g>
</svg>
