<svg xmlns="http://www.w3.org/2000/svg" xmlns:xlink="http://www.w3.org/1999/xlink" width="239" height="411.008" viewBox="0 0 239 411.008">
  <defs>
    <clipPath id="clip-path">
      <rect id="Rectángulo_936" data-name="Rectángulo 936" width="239" height="239.008" fill="#ff7171"/>
    </clipPath>
  </defs>
  <g id="Grupo_812" data-name="Grupo 812" transform="translate(-1007 -1199)">
    <text id="_5" data-name="5" transform="translate(1134 1354)" fill="#d2d9e0" font-size="207" font-family="FivoSans-Heavy, Fivo Sans" font-weight="800" opacity="0.315"><tspan x="-64.17" y="0">5</tspan></text>
    <g id="Grupo_811" data-name="Grupo 811" transform="translate(1007 1371)">
      <g id="Grupo_810" data-name="Grupo 810" clip-path="url(#clip-path)">
        <path id="Trazado_1683" data-name="Trazado 1683" d="M52.309,0H186.727a34.2,34.2,0,0,1,5.09,2.117c5.341,3.27,7.415,8.279,7.409,14.4q-.044,48.769-.05,97.539c0,3.061.384,5.33,3.033,7.694,6.252,5.584,11.871,11.873,17.757,17.867a62.77,62.77,0,0,1,16.06,26.689c1.349,4.67,2,9.54,2.976,14.32v54.607c-1.3,2.816-3.515,3.882-6.575,3.769-3.728-.139-7.466-.034-11.2-.034q-32.9,0-65.8,0c-4.128,0-6.016-1.879-6.035-5.948-.014-2.722.118-5.451-.067-8.162A4.44,4.44,0,0,0,147.973,222a36.756,36.756,0,0,1-11.916-17.74c-.5-1.611-.85-3.27-1.267-4.9H104.143c-1.281,7-3.608,13.761-8.924,18.2-5.2,4.339-6.063,9.212-5.637,15.229.308,4.326-1.806,6.179-6.224,6.179q-38.5.007-77,0c-4.548,0-6.323-1.791-6.324-6.363,0-16.023-.093-32.045.026-48.068.108-14.475,4.444-27.7,13.781-38.751,7.362-8.713,15.686-16.613,23.585-24.872.161-.167.324-.392.527-.452,1.925-.576,1.888-2.057,1.887-3.679Q39.8,66.148,39.808,15.514c0-5.284,1.969-9.6,6.262-12.607C47.92,1.61,50.216.949,52.309,0M189.069,145.7c.054-1.1.1-1.637.1-2.176q.007-63.707,0-127.412c0-4.5-1.732-6.221-6.225-6.222Q119.47,9.873,56,9.887c-4.393,0-6.134,1.724-6.134,6.052q-.014,63.707,0,127.412c0,.635.108,1.272.2,2.258,4.669-4.487,8.978-8.744,13.414-12.863a12.032,12.032,0,0,1,19.285,4.016c3.358,7.638,2.108,14.731-2.881,21.235Q71.929,168.36,63.8,178.586a2.23,2.23,0,0,0-.1,3.2,16.925,16.925,0,0,1,2.468,4.726c.618,2.086,1.651,2.653,3.8,2.646,21.935-.093,43.868-.056,65.8-.056,11.278,0,22.556-.039,33.833.039a2.659,2.659,0,0,0,3.019-2.076,17.922,17.922,0,0,1,2.514-4.96c1.21-1.588.863-2.56-.256-3.981-5.778-7.325-11.668-14.577-17.071-22.177-4.717-6.634-4.6-13.916-.666-20.92,3.62-6.451,12.931-7.392,18.623-2.071,4.356,4.072,8.615,8.248,13.295,12.737M39.816,133.79c-4.738,4.453-9.776,8.829-14.4,13.6-10.623,10.97-15.586,24.238-15.484,39.494q.132,19.826-.029,39.657c-.015,2.052.513,2.6,2.582,2.59,21.538-.079,43.078-.048,64.618-.054.818,0,1.634-.073,2.622-.121A38.786,38.786,0,0,0,79.7,224.3c-.578-4.549,1-7.64,4.964-10.3,5.019-3.369,7.861-8.575,9.24-14.6H68.39c-1.224,7.952-3.425,12.8-8.123,17.576a7.451,7.451,0,0,1-3.084,1.911,4.5,4.5,0,0,1-5.332-2.31c-1.16-2.13-.716-4.357,1.306-6.555,6.863-7.468,7.028-17.682.4-25.1-3.123-3.493-3.178-5.167-.26-8.933q9.429-12.163,18.876-24.313c2.3-2.959,3.192-6.187,2.015-9.825-.881-2.726-2.548-3.144-4.662-1.159-2.777,2.607-5.505,5.268-8.25,7.911Q47.666,161.71,34.056,174.815c-2.187,2.1-4.187,2.579-6.309,1.578-3.169-1.495-3.755-5.486-1.058-8.183,3.849-3.846,7.847-7.544,11.71-11.374a4.209,4.209,0,0,0,1.357-2.5c.11-6.992.06-13.987.06-20.549m159.505-.469c-.033.527-.1,1.114-.1,1.7-.008,5.911.064,11.822-.045,17.731a5.564,5.564,0,0,0,1.936,4.664c3.9,3.561,7.7,7.255,11.43,11a4.868,4.868,0,0,1,.178,6.932,4.953,4.953,0,0,1-6.946.2c-.48-.39-.911-.846-1.358-1.278q-17.224-16.589-34.446-33.177c-2.72-2.618-4.314-2.136-5.3,1.532-.9,3.363.039,6.264,2.114,8.928q9.6,12.333,19.159,24.692c2.664,3.439,2.567,5.308-.373,8.589a17.9,17.9,0,0,0-4.379,16.868c.818,3.507,2.85,6.311,5.231,8.951a4.88,4.88,0,0,1-.229,7.088,4.951,4.951,0,0,1-7.107-.4,36.8,36.8,0,0,1-2.579-3.008,28.685,28.685,0,0,1-5.833-14.931h-25.6c1.681,6.74,5.034,12.1,10.7,15.769a6.874,6.874,0,0,1,3.558,6.764c-.149,2.3-.029,4.611-.029,7.017h69.606c.065-.638.16-1.163.161-1.688.006-13.843.1-27.689-.026-41.531-.112-12.576-3.569-24.212-11.681-33.935-5.463-6.549-11.746-12.413-17.666-18.577-.025-.026-.136.033-.38.1" transform="translate(0 0.001)" fill="#ff7171"/>
        <path id="Trazado_1684" data-name="Trazado 1684" d="M94.793,118.774c-28.34,0-50.21-22.181-49.75-51.389.42-26.642,22.812-48.134,49.861-48.1,27.473.039,49.562,22.438,49.689,50.34.122,26.822-22.5,49.144-49.8,49.146m5.019-89.145V32.3c0,11.582-.057,23.166.04,34.748a8.967,8.967,0,0,1-2.931,7C88.587,82.2,80.38,90.488,72.13,98.73c-.573.57-1.109,1.173-1.671,1.77,12.254,10.152,31.018,11.157,45.016,2.6a39.707,39.707,0,0,0,17.982-43.266c-3.6-15.8-17.61-28.515-33.645-30.2M89.59,29.446c-15.428,2.807-26.429,10.939-32,25.381-5.29,13.713-2.845,26.631,5.694,38.865,8.73-8.784,17.28-17.364,25.775-26a3.232,3.232,0,0,0,.683-2.086q.058-17.363.019-34.725a14,14,0,0,0-.173-1.439" transform="translate(24.724 10.589)" fill="#ff7171"/>
      </g>
    </g>
  </g>
</svg>
